<svg width="48" height="48" version="1" xmlns="http://www.w3.org/2000/svg">
 <path d="m3.0117 24.5c-0.0041 0.167-0.0117 0.332-0.0117 0.5 0 11.08 8.92 20 20 20s20-8.92 20-20c0-0.168-8e-3 -0.333-0.012-0.5-0.264 10.846-9.076 19.5-19.988 19.5s-19.724-8.654-19.988-19.5z" opacity=".2" style="fill:#000000;opacity:.2"/>
 <path d="m23 4c-11.08 0-20 8.92-20 20s8.92 20 20 20 20-8.92 20-20-8.92-20-20-20z" style="fill:#e4e4e4"/>
 <path d="m23 4c11.07 0 19.982 8.92 19.982 20 0 0.16787-8e-3 0.33314-0.01169 0.5-0.264-10.846-9.068-19.5-19.97-19.5s-19.706 8.654-19.97 19.5c-4e-3 -0.16686-0.011689-0.33213-0.011689-0.5 0-11.08 8.9119-20 19.982-20z" fill="#fff" opacity=".1"/>
 <path d="m29.279297 6.9565372c-0.089988 0.0015603-0.18305 0.0159803-0.279297 0.0429688-0.262505 0.270866-0.924781 1.8002462-1.269531 2.0214844l-0.626953 0.4023437-1.242188-0.203125c-2.474544-0.4016549-5.267569-0.1771331-7.574219 0.6074219-2.583107 0.878574-4.366953 3.188506-4.376953 4.685547-0.0038 0.572565-0.192143 0.745392-2.289062 2.111328-0.914072 0.595432-2.1088979 1.486274-2.6562502 1.980469-0.5473426 0.494205-1.4230015 0.940344-1.5800782 0.990234-0.3929677 0.124725-0.4796327 0.595808-0.2832031 1.548828 0.1942406 0.942391 0.4042442 1.395508 0.8261719 1.777344 0.1675386 0.151623 0.5244298 0.718616 0.7929687 1.261719 0.5802566 1.173519 1.4504849 2.23741 2.0332029 2.482422 0.381725 0.16039 0.41754 0.22825 0.38086 0.736328-0.08818 1.221392 0.795076 2.943441 2.384765 3.736328 0.991308 0.494431 1.730572 1.129508 1.638672 0.800781-0.218714-0.782385-0.165691-1.708655 0.210938-2.15625 0.503129-0.597936 1.503208-0.783203 2.498047-0.783203 0.717237 0 0.943915 0.02495 2.044921 0.65625 1.520439 0.87181 1.596803 1.085471 2.75 1.205078 0.820811 0.08514 0.915102 0.130248 1.101563 0.509766 0.335318 0.682381 0.348665 2.226665 0.02539 3.15039-0.722216 2.06367-1.873488 3.634199-3.998046 4.28125-0.789308 0.240422-1.174084 0.277081-2.285157 0.212891-0.734829-0.04249-1.486626-0.122224-1.669921-0.177734-0.584358-0.176916-0.192734 0.194905 0.654296 0.621093 1.056743 0.531704 2.761712 1.077528 4.111328 1.316407 3.298551 0.583826 6.924073 0.01965 9.960938-1.548829 3.947909-2.039009 6.877887-5.69942 8.0625-10.072265 0.344625-1.272035 0.375414-1.593995 0.375-3.947266-3.75e-4 -2.333914-0.03293-2.684187-0.367188-3.93164-0.95946-3.580638-3.230146-6.861531-6.232421-9.003907-0.834902-0.595777-1.059554-0.911321-1.064453-1.498047-0.058-1.1447845-0.706821-3.8398092-2.056641-3.8164058zm-11.404297 17.048828c0.2464-0.02994 0.38746 0.06985 0.816406 0.427735 0.640102 0.534044 1.432799 1.57899 1.291016 1.701172-0.04633 0.03991-0.518256-0.02163-1.050781-0.136719-1.485874 0.0026-2.930784 0.0027-4.640625 0.117187l-0.234375-0.589843c1.228156-0.556541 3.182251-1.353762 3.523437-1.451172 0.120021-0.03427 0.212789-0.05838 0.294922-0.06836z" style="fill:#0a0600;opacity:.2;stroke-width:.13849609"/>
 <path d="m29.279297 5.9570312c-0.089988 0.0015603-0.18305 0.0159803-0.279297 0.0429688-0.262505 0.270866-2.02468 1.8002462-2.36943 2.0214844l-0.626953 0.4023437-1.242188-0.203125c-2.474544-0.4016549-4.16767-0.1771331-6.47432 0.6074219-2.583107 0.8785741-4.366953 3.188506-4.376953 4.685547-0.0038 0.572565-0.192143 0.745392-2.289062 2.111328-0.914072 0.595432-2.1088979 1.486274-2.6562502 1.980469-0.5473426 0.494205-1.4230015 0.940344-1.5800782 0.990234-0.3929677 0.124725-0.4796327 0.595808-0.2832031 1.548828 0.1942406 0.942391 0.4042442 1.395508 0.8261719 1.777344 0.1675386 0.151623 0.5244298 0.718616 0.7929687 1.261719 0.5802566 1.173519 1.4504849 2.23741 2.0332029 2.482422 0.381725 0.16039 0.41754 0.22825 0.38086 0.736328-0.08818 1.221392 0.795076 2.943441 2.384765 3.736328 0.991308 0.494431 1.730572 1.129508 1.638672 0.800781-0.218714-0.782385-0.165691-1.708655 0.210938-2.15625 0.503129-0.597936 1.503208-0.783203 2.498047-0.783203 0.717237 0 0.943915 0.02495 2.044921 0.65625 1.520439 0.87181 1.596803 1.085471 2.75 1.205078 0.820811 0.08514 0.915102 0.130248 1.101563 0.509766 0.335318 0.682381 0.348665 2.226665 0.02539 3.15039-0.722216 2.06367-1.873488 3.634199-3.998046 4.28125-0.789308 0.240422-1.174084 0.277081-2.285157 0.212891-0.734829-0.04249-1.486626-0.122224-1.669921-0.177734-0.584358-0.176916-0.192734 0.194905 0.654296 0.621093 1.056743 0.531704 2.761712 1.077528 4.111328 1.316407 3.298551 0.583826 6.924073 0.01965 9.960938-1.548829 3.947909-2.039009 6.877887-5.69942 8.0625-10.072265 0.344625-1.272035 0.375414-1.593995 0.375-3.947266-3.75e-4 -2.333914-0.03293-2.684187-0.367188-3.93164-0.95946-3.580638-3.230146-6.861531-6.232421-9.003907-0.834902-0.595777-1.059554-0.911321-1.064453-1.4980465-0.058-1.144785-0.706821-3.8398097-2.056641-3.8164063zm-11.404297 17.048828c0.2464-0.02994 0.38746 0.06985 0.816406 0.427735 0.640102 0.534044 1.432799 1.57899 1.291016 1.701172-0.04633 0.03991-0.518256-0.02163-1.050781-0.136719-1.485874 0.0026-2.930784 0.0027-4.640625 0.117187l-0.234375-0.589843c1.228156-0.556541 3.182251-1.353762 3.523437-1.451172 0.120021-0.03427 0.212789-0.05838 0.294922-0.06836z" style="fill:#f87a06;stroke-width:.13849609"/>
 <path d="m15 28c-0.238015-0.64429-0.78951-1.816898-0.709841-1.885554l-0.200067-0.603909c-0.49753 0.22483-0.881907 0.412217-1.002541 0.501463-0.022367 0.849893 1.111975 1.701537 1.912449 1.988z" style="fill:#000000;opacity:.2;stroke-width:.14087185"/>
 <path d="m15 27c-0.238015-0.64429-0.78951-1.816898-0.709841-1.885554l-0.200067-0.603909c-0.49753 0.22483-0.881907 0.412217-1.002541 0.501463-0.022367 0.849893 1.111975 1.701537 1.912449 1.988z" style="fill:#ffffff;stroke-width:.14087185"/>
 <path d="m7.7575698 19.000215c-0.410412-0.01015-0.7482667 0.339617-0.7481958 0.774576 0 0-0.049544 1.008019 0.079168 1.484518 0.3887075 1.101948 0.8859088 1.647371 1.6499211 1.740691 0 0 1.3353689-0.351431 1.9521219-0.663163 1.290546-0.621679 1.479015-1.343273 1.194386-2.104148-0.977012-1.294436-2.7578535-1.039473-4.1274012-1.232474z" style="fill:#000000;opacity:.2"/>
 <path d="m7.7575698 18.000215c-0.410412-0.01015-0.7482667 0.339617-0.7481958 0.774576 0 0-0.049544 1.008019 0.079168 1.484518 0.3887075 1.101948 0.8859088 1.647371 1.6499211 1.740691 0 0 1.3353689-0.351431 1.9521219-0.663163 1.290546-0.621679 1.479015-1.343273 1.194386-2.104148-0.977012-1.294436-2.7578535-1.039473-4.1274012-1.232474z" style="fill:#3a3a3a"/>
 <path d="m17 13 4-1-3 3h-1l1 1-2-1z" style="fill:#000000;opacity:.2"/>
 <path d="m17 12 4-1-3 3h-1l1 1-2-1z" style="fill:#3a3a3a"/>
 <path d="m29.363281 7.0078125c-0.14008 0.0333467-0.295918 0.1836394-0.458984 0.4667969-0.534356 0.9278764-2.9349 1.7578125-4.248047 1.7578125-0.727192 0-0.828568 0.2659108-0.25 0.6542969 0.287702 0.1931282 0.633378 0.2411472 1.539062 0.2109372 1.341963-0.044795 1.384351 0.457162 0.558594 1.253906-0.27305 0.263461-0.496094 0.538522-0.496094 0.613282 0 0.07477 0.696702 0.010096 0.992188 0.035156 0 0 0.078766 0.226244 0.041016 0.595703-0.035031 0.342907 0.011544 0.404297 0.3125 0.404297 0.551943 0 1.117414-0.268736 1.638672-0.779297 0.751818-0.736388 0.923503-1.207591 0.996093-2.7441405 0.076197-1.6129591-0.204758-2.5687902-0.625-2.46875zm5.552735 7.9863285c-0.554872 0-1.186046 1.532707-0.792969 1.925781 0.066241 0.06622 0.502538 0.097752 0.970703 0.070312 0.618069-0.036247 0.865154-0.1244 0.902344-0.320312 0.064556-0.339995-0.79624-1.675781-1.080078-1.675781zm1.361328 3.005859c-0.073408 0.002295-0.158836 0.014599-0.263672 0.035156-1.03206 0.202395-1.368783 0.889853-0.574219 1.173828 0.254788 0.091062 0.563285 0.309879 0.683594 0.486328 0.372416 0.546196 0.682813 0.352786 0.849609-0.529296 0.065494-0.346355 0.021426-0.53719-0.191406-0.837891-0.175643-0.24817-0.283682-0.335009-0.503906-0.328125zm0.542968 3.003906c-0.374406 0.051084-0.820312 0.654815-0.820312 1.1875 0 0.356453 0.119158 0.540044 0.421875 0.650391 0.640051 0.233345 1.454241 0.203846 1.564453-0.056641 0.126304-0.298495-0.640928-1.638533-1.011719-1.767578-0.049047-0.017069-0.10081-0.020969-0.154297-0.013672zm-1.322265 1.996094c-0.100364-0.003655-0.205429 0.020634-0.304688 0.078125-0.241602 0.139923-0.250892 0.24364-0.060547 0.589844 0.262475 0.477439 0.742085 0.430077 0.855469-0.083985 0.070111-0.317809-0.189144-0.57302-0.490234-0.583984zm-1.039063 2c-0.426284 0-0.458984 0.024167-0.458984 0.351562 0 0.193651 0.061669 0.420907 0.136719 0.503907 0.219915 0.243169 0.526834 0.174947 0.726562-0.16211 0.273298-0.461213 0.138267-0.693359-0.404297-0.693359zm2.212891 0.005859c-0.25652 0.048565-0.698239 0.36524-1.435547 0.970703-0.324737 0.266664-0.316398 0.417121 0.03711 0.751954 0.286367 0.271246 0.934025 0.361114 1.236328 0.169922 0.291822-0.184567 0.490234-0.692403 0.490234-1.25586 0-0.465879-0.071605-0.685283-0.328125-0.636719zm-6.671875 0.994141c-1.119597 1.02716-1.421934 1.93321-2.84375 2.875s-2.204135 0.828479-3.458984 1.058594c-0.05946 0.03639-0.0022 0.271783 0.126953 0.521484 0.12523 0.242183 0.164695 0.586008 0.171875 1.064453 0.02882 0.431001 0.017812 0.880967-0.048828 1.308594-0.07981 0.95088-0.287765 1.462975-0.964844 2.431641-0.718767 1.19416-1.717465 2.094068-3.191406 2.542968-0.789308 0.240422-1.174084 0.277081-2.285157 0.212891-0.734829-0.04249-1.486626-0.122224-1.669921-0.177734-0.584358-0.176916-0.192734 0.194905 0.654296 0.621093 1.056743 0.531704 2.761712 1.077528 4.111328 1.316407 3.298551 0.583826 6.924073 0.01965 9.960938-1.548829 1.246362-0.643717 2.375921-1.464023 3.396484-2.402343 0.404346-0.551177 0.388355-1.25503 0.46875-1.835938-0.557324 0.916756-1.207713 1.584861-2.123046 2.011719-0.314907 0-0.331553-0.267038-0.054688-0.697266 0.705797-1.096731 0.964923-2.958305 0.650391-4.675781-0.498035-1.870668-1.525159-3.341162-2.900391-4.626953zm6.347656 2c-0.266222 0-0.347656 0.090569-0.347656 0.390625 0 0.215107 0.044146 0.442446 0.097656 0.503906 0.152828 0.175526 0.407084 0.130483 0.708985-0.123047 0.236035-0.198202 0.24754-0.272929 0.082031-0.501953-0.107138-0.148253-0.350173-0.269531-0.541016-0.269531zm-1.882812 1.015625c-0.181696-0.022871-0.311403-0.022168-0.345703 0.007813-0.216833 0.189437-0.135562 0.690733 0.216797 1.34375 0.234564 0.434712 0.451096 0.632812 0.693359 0.632812 0.430098 0 0.970703-0.679187 0.970703-1.21875 0-0.338348-0.127619-0.429927-0.876953-0.630859-0.241377-0.064905-0.476508-0.111895-0.658203-0.134766z" style="fill:#010101;opacity:.3;stroke-width:.14484742"/>
</svg>
