<svg width="48" height="48" version="1" xmlns="http://www.w3.org/2000/svg">
 <rect transform="matrix(0,-1,-1,0,0,0)" x="-44" y="-44" width="40" height="40" rx="2" ry="2" style="fill:#d4945f"/>
 <rect transform="matrix(0,-1,-1,0,0,0)" x="-41" y="-41" width="34" height="34" rx="1.7" ry="1.7" style="fill:#4f4f4f;stroke-width:.85000002"/>
 <path d="M 14,22 V 35.246688 C 14,35.664023 13.644984,36 13.204,36 H 12.796 C 12.355016,36 12,35.664023 12,35.246688 V 22 Z" style="fill:#ffe172"/>
 <path d="m12.796875 12c-0.440984 0-0.796875 0.336571-0.796875 0.753906v9.246094h2v-9.246094c0-0.417335-0.355891-0.753906-0.796875-0.753906h-0.40625z" style="fill:#000000;opacity:.3"/>
 <path d="m6 4c-1.108 0-2 0.892-2 2v1c0-1.108 0.892-2 2-2h36c1.108 0 2 0.892 2 2v-1c0-1.108-0.892-2-2-2h-36z" fill="#fff" opacity=".2"/>
 <path d="m6 45c-1.108 0-2-0.892-2-2v-1c0 1.108 0.892 2 2 2h36c1.108 0 2-0.892 2-2v1c0 1.108-0.892 2-2 2h-36z" opacity=".2"/>
 <rect x="9" y="19" width="8" height="6" rx="2" ry="2" style="fill:#000000;opacity:.2"/>
 <rect x="9" y="18" width="8" height="6" rx="2" ry="2" style="fill:#a6a6a6"/>
 <path d="m39 30a9.0000001 8.9999999 0 0 1-9 9 9.0000001 8.9999999 0 0 1-9-9 9.0000001 8.9999999 0 0 1 9-9 9.0000001 8.9999999 0 0 1 9 9z" style="fill:#000000;opacity:.3;stroke-width:2.25"/>
 <path d="m37.000001 31a7.0000001 6.9999999 0 0 1-7 7 7.0000001 6.9999999 0 0 1-7-7 7.0000001 6.9999999 0 0 1 7-7 7.0000001 6.9999999 0 0 1 7 7z" style="fill:#000000;opacity:.2;stroke-width:1.75"/>
 <path d="m36.062179 33.5a7.0000001 6.9999999 30 0 1-9.562178 2.562178 7.0000001 6.9999999 30 0 1-2.562178-9.562178 7.0000001 6.9999999 30 0 1 9.562178-2.562178 7.0000001 6.9999999 30 0 1 2.562178 9.562178z" style="fill:#a6a6a6;stroke-width:1.75"/>
 <path d="m29.669922 23.007812a7.0000001 6.9999999 30 0 0-5.732422 3.492188 7.0000001 6.9999999 30 0 0-0.914062 3.994141 7.0000001 6.9999999 30 0 1 0.914062-2.994141 7.0000001 6.9999999 30 0 1 9.5625-2.5625 7.0000001 6.9999999 30 0 1 3.476562 5.568359 7.0000001 6.9999999 30 0 0-3.476562-6.568359 7.0000001 6.9999999 30 0 0-3.830078-0.929688z" style="fill:#ffffff;opacity:.1;stroke-width:1.75"/>
 <rect transform="rotate(30)" x="39.980762" y="2.9807615" width="2" height="6" rx="1" ry="1" style="fill:#d54a4a"/>
 <rect transform="scale(-1,1)" x="-39" y="17" width="4" height="2" style="fill:#ffe172"/>
 <rect transform="scale(-1,1)" x="-39" y="13" width="8" height="2" style="fill:#ffe172"/>
 <rect transform="scale(-1,1)" x="-39" y="9" width="12" height="2" style="fill:#000000;opacity:.3"/>
 <path d="m11 18c-1.108 0-2 0.892-2 2v1c0-1.108 0.892-2 2-2h4c1.108 0 2 0.892 2 2v-1c0-1.108-0.892-2-2-2h-4z" style="fill:#ffffff;opacity:.1"/>
</svg>
