<svg width="48" height="48" version="1" xmlns="http://www.w3.org/2000/svg">
 <rect transform="matrix(0,-1,-1,0,0,0)" x="-44" y="-44" width="40" height="40" rx="2" ry="2" fill="#f59335" style="fill:#fd8320"/>
 <path d="m6 4c-1.108 0-2 0.892-2 2v1c0-1.108 0.892-2 2-2h36c1.108 0 2 0.892 2 2v-1c0-1.108-0.892-2-2-2h-36z" fill="#fff" opacity=".2" style="opacity:.1"/>
 <path d="m6 45c-1.108 0-2-0.892-2-2v-1c0 1.108 0.892 2 2 2h36c1.108 0 2-0.892 2-2v1c0 1.108-0.892 2-2 2h-36z" opacity=".2"/>
 <path d="m42.160156 5.015625c-0.977971 0.013823-1.928727 0.046486-2.625 0.1230469-2.80249 0.308158-5.691004 0.9145521-7.972656 1.6738281l-1.068359 0.3554688-0.875-0.265625c-1.272224-0.3867441-1.582783-0.8698488-2.845703-0.8242188-1.273051 0.045997-1.742188 0.1823564-1.742188 0.5058594 0 0.304106 0.827409 1.9277342 0.982422 1.9277344 0.11075 0 0.123205-0.072722 0.07617-0.4433594-0.03097-0.244043-0.07463-0.811228-0.09766-0.8925782-0.0652-0.230487 0.210343-0.1860258 0.867187 0.1425782 1.007114 0.503838 1.41698 2.1005567 1.714844 3.2441406 0.14527 0.557719 0.174224 1.134065 0.05078 1.007812-0.04317-0.04416-0.291579-0.605989-0.550781-1.124999-0.853362-1.7087334-1.098529-1.755394-3.28515-0.6347661-5.873256 3.0100061-9.91403 6.4801271-10.945312 9.2285151-0.356756 0.950774-0.267995 2.017294 0.214844 2.56836 0.179103 0.204413 0.08609 0.367766-0.330078 0.580078-1.759853 0.897811-5.3451922 3.470816-5.6074222 4.023438-0.2794199 0.588833-0.1632153 0.801395 1.2890624 2.396484 0.3160475 0.347126 0.5903688 0.635139 0.8261718 0.875 0.660637-2.073937 2.587057-3.482222 4.763672-3.482422 2.761424 0 5 2.238576 5 5 2.17e-4 2.433779-1.752005 4.514182-4.150391 4.927734 0.370469 0.393484 0.866073 0.925497 1.22461 1.31836 0.413619 0.453216 0.783685 0.824218 0.822265 0.824218s0.20035-0.256544 0.359375-0.570312c1.401281-2.764789 4.209549-4.786337 7.667969-5.519531 3.09984-0.694875 5.048216-2.490407 5.859375-5.283203 0.258052-0.897984 0.277698-2.727785 0.03906-3.628907-0.320439-1.004552-0.788681-2.144037-1.13086-3.070312 0.107085-0.08263 0.580992 0.268757 1.011719 0.873047 1.075702 1.50922 1.416016 3.768185 1.416016 5.535156v0.654297l1.183593 0.05859c4.154212 0.314268 7.048058 2.550486 7.605469 6.005859 0.122125 0.757037 0.0648 2.303422-0.121094 3.253906-0.554289 2.834056-2.350912 5.550932-4.996093 7.839844l-0.904294 0.781254 4.796875-0.0059c0.568757-7.12e-4 0.96861-0.0083 1.482422-0.01172 1.028367-0.085132 1.833984-0.931277 1.833984-1.98238v-36c0-1.0531567-0.808586-1.9020164-1.839844-1.984375zm-20.167968 11.986328c0.07116 0.0655-0.394047 0.779417-1.574219 2.40625-0.626645 0.863814-1.201298 1.578812-1.275391 1.589844-0.07409 0.01102-0.233941-0.05435-0.357422-0.146485-0.123481-0.09213-0.373433-0.239689-0.554687-0.328124-0.327834-0.160005-0.333371-0.15995-0.75 0.0098-0.230339 0.0938-0.443623 0.142527-0.476563 0.111328-0.07892-0.07474 1.059811-1.055791 2.185547-1.884765 0.960934-0.707617 2.734347-1.820761 2.802735-1.757813z" style="fill:#010101;opacity:.2;stroke-width:.08451624"/>
 <path d="m42.160156 4.015625c-0.977971 0.013823-1.928727 0.046486-2.625 0.1230469-2.80249 0.308158-5.691004 0.9145521-7.972656 1.6738281l-1.068359 0.3554688-0.875-0.265625c-1.272224-0.3867441-1.582783-0.8698488-2.845703-0.8242188-1.273051 0.045997-1.742188 0.1823564-1.742188 0.5058594 0 0.304106 0.827409 1.9277342 0.982422 1.9277344 0.11075 0 0.123205-0.072722 0.076172-0.4433594-0.03097-0.244043-0.074627-0.811228-0.097656-0.8925782-0.065201-0.230487 0.210343-0.1860258 0.867187 0.1425782 1.007114 0.503838 1.41698 2.1005567 1.714844 3.2441406 0.14527 0.557719 0.174224 1.134065 0.050781 1.007812-0.043173-0.044158-0.291579-0.6059894-0.550781-1.1249995-0.853369-1.7087329-1.098536-1.7553935-3.285157-0.6347656-5.873256 3.0100061-9.91403 6.4801271-10.945312 9.2285151-0.356756 0.950774-0.267995 2.017294 0.214844 2.56836 0.179103 0.204413 0.08609 0.367766-0.330078 0.580078-1.759853 0.897811-5.3451922 3.470816-5.6074222 4.023438-0.2794199 0.588833-0.1632153 0.801395 1.2890624 2.396484 0.3160475 0.347126 0.5903688 0.635139 0.8261718 0.875 0.660637-2.073937 2.587057-3.482222 4.763672-3.482422 2.761424 0 5 2.238576 5 5 2.17e-4 2.433779-1.752005 4.514182-4.150391 4.927734 0.370469 0.393484 0.866073 0.925497 1.22461 1.31836 0.413619 0.453216 0.783685 0.824218 0.822265 0.824218s0.20035-0.256544 0.359375-0.570312c1.401281-2.764789 4.209549-4.786337 7.667969-5.519531 3.09984-0.694875 5.048216-2.490407 5.859375-5.283203 0.258052-0.897984 0.277698-2.727785 0.039063-3.628907-0.320439-1.004552-0.788681-2.144037-1.13086-3.070312 0.107085-0.08263 0.580992 0.268757 1.011719 0.873047 1.075702 1.50922 1.416016 3.768185 1.416016 5.535156v0.654297l1.183593 0.058594c4.154212 0.314268 7.048058 2.550486 7.605469 6.005859 0.122125 0.757037 0.0648 2.303422-0.121094 3.253906-0.554289 2.834056-2.350912 5.550932-4.996093 7.839844l-0.904297 0.78125 4.796875-0.005859c0.568757-7.12e-4 0.96861-0.008299 1.482422-0.011719 1.028367-0.085174 1.833984-0.931319 1.833984-1.982422v-36c0-1.0531567-0.808586-1.9020164-1.839844-1.984375zm-20.167968 11.986328c0.071159 0.0655-0.394047 0.779417-1.574219 2.40625-0.626645 0.863814-1.201298 1.578812-1.275391 1.589844-0.07409 0.01102-0.233941-0.054354-0.357422-0.146485-0.123481-0.09213-0.373433-0.239689-0.554687-0.328124-0.327834-0.160005-0.333371-0.15995-0.75 0.009765-0.230339 0.0938-0.443623 0.142527-0.476563 0.111328-0.07892-0.07474 1.059811-1.055791 2.185547-1.884765 0.960934-0.707617 2.734347-1.820761 2.802735-1.757813z" style="fill:#fedfc1;stroke-width:.08451624"/>
</svg>
