<svg width="48" height="48" version="1" xmlns="http://www.w3.org/2000/svg">
 <path transform="matrix(0,-1,-1,0,0,0)" d="m-24-44c6.345398 0 11.982374 2.925227 15.64122 7.5061 2.7300383 3.418007 3.3111614 8.329199 3.3111614 13.063328 0 11.078892-7.681905 18.283713-18.761905 18.283713-8.11582 0-14.310854-4.2138443-17.45232-11.128065-0.261164-0.57481-1.448339-0.592905-1.655237-1.195617-0.562274-1.637956-0.918517-3.373312-1.038091-5.175432-0.02973-0.448039 0.261138-1.614127 0.261138-2.069949 0-2.566199 0.784545-3.894645 1.657692-6.145088 0.707331-1.823072 1.061668-3.922929 2.242212-5.439002 3.653637-4.692058 9.359658-7.699988 15.79413-7.699988z" style="fill:#403471"/>
 <path d="m4.0117 24.5c-0.0041 0.167-0.0117 0.332-0.0117 0.5 0 11.08 8.92 20 20 20s20-8.92 20-20c0-0.168-8e-3 -0.333-0.012-0.5-0.264 10.846-9.076 19.5-19.988 19.5s-19.724-8.654-19.988-19.5z" opacity=".2"/>
 <path d="m24.001953 5c-10.911034 0-19.721681 8.653863-19.986328 19.5 0.2507303 10.275854 8.173436 18.578772 18.285156 19.423828 1.894291-0.500511 3.792377-1.661695 5.53125-3.414062 2.325131-2.34319 3.377016-5.721347 3.167969-9.660157-0.149962-2.82545-0.927208-4.996516-2.548828-6.628906-1.196638-1.365392-2.760147-1.830444-4.451172-2.066406-0.0623 0.0385 0.489935 0.612814 0.712891 1.277344 0.3503 1.04401 0.405557 1.40444 0.398437 2.65039-0.0103 1.80303-0.337417 3.11751-1.242187 5-1.18547 2.46651-2.696774 4.262235-4.802735 5.271485-2.635773 1.26316-5.007108 0.67775-7.03125-1.34375-1.036749-1.0354-1.668843-2.147076-2.0800779-3.666016-0.387949-1.43291-0.4143785-4.810067-0.0546875-6.841797 0.4544794-2.56716 1.5681964-5.417331 2.7812504-7.119141 0.261003-0.36616 0.437856-0.702766 0.392578-0.748046-0.04528-0.0453-0.282243 0.030839-0.525391 0.169922-0.99026 0.566227-1.90673 1.386694-2.7812499 2.490234-0.507877 0.64089-0.9546105 1.135226-0.9921875 1.097656-0.113873-0.11388 0.8813909-2.094975 1.5781254-3.140625 0.812379-1.21922 2.989381-3.443754 4.08789-4.177734 1.799217-1.20216 4.305193-1.711584 6.798828-2.240235 1.712383-0.36302 4.916147-0.329216 6.316407 0.066407 0.56648 0.16005 1.184224 0.332916 1.373047 0.384765l0.34375 0.09375-0.326172-0.355468c-2.049848-1.5525265-4.683178-1.939688-6.541016-1.9375005-1.86598 4e-3 -2.859225 0.118835-4.738281 0.546875l-0.341797 0.078125c1.136722-0.8568463 2.668742-1.135445 3.894531-1.359375 4.646803-0.81699 10.098187-0.6394304 15.435547 1.5996094 0.670926 0.2814511 1.017114 0.4792991 1.382812 0.7890621-0.450696-0.443699-0.922965-0.8660173-1.414062-1.2656246-0.491097-0.3996074-1.000963-0.7766392-1.529297-1.1289063-0.528334-0.352267-1.074312-0.680744-1.636719-0.9824219-0.562407-0.3016778-1.141058-0.5763788-1.734375-0.8242187-0.591425-0.2470501-1.197407-0.4659182-1.816406-0.65625-2e-3 -5.991e-4 -0.003859-0.0013531-0.005859-0.0019531-0.06962-0.021384-0.14294-0.0340445-0.212891-0.0546875-1.176789-0.3473006-2.396321-0.5983266-3.654297-0.7246094-0.0013-1.285e-4 -0.002606 1.282e-4 -0.003906 0-0.666991-0.0668404-1.343982-0.1015625-2.029297-0.1015625zm-0.599609 8c-0.796423 5e-3 -2.541974 0.506991-3.748047 1.089844-0.901797 0.435807-1.414876 0.805109-2.220703 1.599609-1.649386 1.626206-2.329799 3.3396-2.410156 6.0625-0.024251 0.821691-0.023438 1.248047-0.023438 1.248047s-1.098723-0.641141-1.478516-1.595703c-0.232729-0.584929-0.521484-1.404297-0.521484-1.404297s-0.223751 1.005818-0.304688 2.298828c-0.370046 3.553924 1.547599 4.950569 2.304688 7.701172 0 0-0.856308-0.700947-1.623047-1.636719-0.434038-0.529729-0.876953-1.363281-0.876953-1.363281s-0.313138 0.651947-0.445312 1.572266c-0.381995 2.659832 1.248016 5.328945 3.779296 6.191406 0.894054 0.304621 1.363737 0.313228 2.306641 0.037109 2.445195-0.71604 5.376953-4.015592 5.376953-6.050781 0-0.327927-0.171669-0.562508-0.863281-1.185547-2.414623-2.175211-3.166093-3.125237-3.697266-4.669922-0.588391-1.711075-0.19647-4.103681 0.990235-6.050781 0.602333-0.98828 2.02024-2.42137 3.15625-3.189453l0.896484-0.605469-0.451172-0.042969c-0.0442-4e-3 -0.093406-0.005859-0.146484-0.005859zm10.597656 0c-0.0369 0.0369 0.723886 0.999701 1.103516 1.550781 1.33364 1.93592 1.96703 4.121179 1.96875 6.792969 2e-3 3.26252-0.67826 5.116846-2.88086 7.853516-1.64259 2.04088-1.924014 2.596147-2.240234 4.419922-0.35499 2.047378-0.485969 2.571444-0.97461 3.921874-1.005224 2.778053-3.290171 5.155436-6.027343 6.4375 3.297112-0.152528 6.370958-1.109738 9.05664-2.660156-0.734152 0.201524-0.734816 0.052938 0.279297-0.460937 1.13877-0.577062 2.199106-1.267539 3.052735-1.957031 0.487037-0.436029 0.950576-0.895434 1.392578-1.376954 1.275816-1.520307 3.186705-4.406689 3.082031-4.720703-0.0276-0.0828-0.497352 0.224964-1.044922 0.683594-0.92321 0.77323-1.65026 1.248047-1.90625 1.248047-0.0585 0 0.334317-0.446551 0.873047-0.994141 1.22354-1.24366 1.970334-2.315301 2.496094-3.582031 1.11805-2.6938 1.1185-5.86772 0-8.5625-0.324933-0.782828-1.130158-1.625542-1.230469-1.59375 0 1 0.654834 2.521303 0.361328 3.738281-0.217337 0.901155-1.16038 2.059927-1.5 2.341797 0 0 0.196907-2.525774 0.199219-3.058594-0.273984-4.603263-1.669811-8.348957-6.060547-10.021484z" style="fill:#000000;opacity:.2;stroke-width:.13732687"/>
 <path d="m24.001953 4c-11.078891 0-19.998047 8.92-19.998047 20 0 0.49896 0.024946 0.990973 0.060547 1.480469 0.00718 0.0989 0.012883 0.19839 0.021484 0.296875 0.041406 0.473148 0.098311 0.94339 0.171875 1.40625 0.011332 0.07142 0.025029 0.141725 0.037109 0.21289 0.056024 0.329454 0.1273684 0.652938 0.1992187 0.976563 0.088393 0.398827 0.1910498 0.792307 0.3027344 1.181641 0.055218 0.192095 0.1052566 0.386539 0.1660156 0.576171 0.149368 0.467105 0.3180529 0.923736 0.5 1.375 0.090811 0.224777 0.1884544 0.445443 0.2871094 0.666016 0.1746087 0.391183 0.3562101 0.778979 0.5546875 1.15625 0.1311885 0.248823 0.2747651 0.490014 0.4160156 0.732422 0.1493836 0.256906 0.3005953 0.512311 0.4609375 0.761719 0.1614701 0.250618 0.3277692 0.497537 0.5 0.740234 0.154761 0.21854 0.3172574 0.430698 0.4804688 0.642578 0.197861 0.256301 0.3936522 0.513623 0.6035156 0.759766 0.1303345 0.153194 0.271411 0.296177 0.40625 0.445312 0.4705121 0.519291 0.9658457 1.015235 1.4882807 1.482422 0.123574 0.110724 0.242807 0.226333 0.369141 0.333984 0.284996 0.242373 0.582328 0.470963 0.880859 0.697266 0.146252 0.111069 0.292017 0.222995 0.441406 0.330078 0.31637 0.226366 0.638891 0.444342 0.96875 0.652344 0.124161 0.07842 0.25095 0.152778 0.376954 0.228516 1.248108 0.749021 2.5809 1.372073 3.988281 1.83789 0.580404 0.09423 2.138154 0.307275 2.558594 0.234375 2.549512-8e-3 5.21689-1.307865 7.58789-3.697265 2.32513-2.34319 3.377017-5.721347 3.16797-9.660157-0.149962-2.82545-0.927209-4.996516-2.548829-6.628906-1.196638-1.365392-2.760146-1.830444-4.451171-2.066406-0.0623 0.0385 0.489934 0.612814 0.71289 1.277344 0.3503 1.04401 0.405557 1.40444 0.398437 2.65039-0.0103 1.80303-0.337417 3.11751-1.242187 5-1.18547 2.46651-2.696774 4.262719-4.802735 5.271969-2.635773 1.26316-5.007108 0.677266-7.03125-1.344234-1.036749-1.0354-1.668843-2.147076-2.0800776-3.666016-0.387949-1.43291-0.4143775-4.810067-0.054687-6.841797 0.4544796-2.56716 1.5681966-5.417331 2.7812506-7.119141 0.261003-0.36616 0.437856-0.702766 0.392578-0.748046-0.04528-0.0453-0.282243 0.03084-0.525391 0.169922-0.99026 0.566228-1.90673 1.386694-2.7812501 2.490234-0.507877 0.64089-0.9546105 1.135226-0.9921875 1.097656-0.113873-0.11388 0.8813919-2.094975 1.5781256-3.140625 0.812379-1.21922 2.989381-3.443754 4.08789-4.177734 1.799217-1.20216 4.305193-1.712006 6.798828-2.2406562 1.712383-0.36302 4.916147-0.3292134 6.316407 0.066406 0.56648 0.1600502 1.184225 0.3329162 1.373047 0.3847652l0.34375 0.09375-0.326172-0.355468c-2.049847-1.5525225-4.683178-1.9396878-6.541016-1.9375003-1.86598 4e-3 -2.859225 0.118835-4.738281 0.546875l-0.341797 0.078125c1.136722-0.8568463 2.668742-1.1345857 3.894531-1.3585157 4.646803-0.81699 10.098187-0.6398679 15.435547 1.5991719 0.670926 0.2814512 1.017114 0.4792996 1.382812 0.7890625-0.450696-0.4436989-0.922965-0.8660177-1.414062-1.265625-0.491097-0.3996074-1.000963-0.7766392-1.529297-1.1289063-0.528334-0.352267-1.074312-0.680744-1.636719-0.9824219-0.562407-0.3016778-1.141058-0.5763788-1.734375-0.8242187-0.591425-0.2470501-1.197407-0.4659182-1.816406-0.65625-2e-3 -5.991e-4 -0.0039-0.00135-0.0059-0.00195-0.06962-0.021384-0.14294-0.034043-0.212891-0.054687-1.176789-0.3473006-2.396321-0.5983266-3.654297-0.7246094-0.0013-1.285e-4 -0.0026 1.282e-4 -0.0039 0-0.667026-0.0668368-1.343947-0.1015661-2.029262-0.1015661z" style="fill:#fc6625;stroke-width:.13732687"/>
 <path d="m34 12c-0.0369 0.0369 0.723886 0.999705 1.103516 1.550785 1.33364 1.93592 1.96703 4.121179 1.96875 6.792969 2e-3 3.26252-0.67826 5.116846-2.88086 7.853516-1.64259 2.04088-1.924014 2.596149-2.240234 4.419922-0.35499 2.047378-0.485969 2.571444-0.97461 3.921874-1.2285 3.3951-4.356173 6.221642-7.902343 7.138672-0.53118 0.160103-1.776256 0.120102-1.892578 0.121094 0.374817 0.05251 0.753403 0.09364 1.134765 0.125 0.02278 0.0019 0.04556 0.0041 0.06836 0.0059 0.533924 0.042351 1.071997 0.070268 1.617187 0.070268 5.127602 0 9.778359-1.926845 13.310547-5.078125 4.15e-4 -3.7e-4 -4.16e-4 -0.0016 0-2e-3 0.07738-0.06904 0.154162-0.138781 0.230469-0.208984 0.0051-0.0047 0.01047-9e-3 0.01563-0.01367-0.601327 0.493001-1.217704 0.789009-2.363282 1.220703-1.82911 0.68927-2.326726 0.65531-0.910156-0.0625 1.67466-0.84862 3.217355-1.944479 4.109375-2.917969 1.24102-1.35435 3.531539-4.796019 3.417969-5.136719-0.0276-0.0828-0.497352 0.224964-1.044922 0.683594-0.92321 0.77323-1.65026 1.248047-1.90625 1.248047-0.0585 0 0.334317-0.446551 0.873047-0.994141 1.22354-1.24366 1.970334-2.315301 2.496094-3.582031 1.11805-2.6938 1.1185-5.86772 0-8.5625-0.324928-0.782873-1.130163-1.625497-1.230474-1.593705 0 1 0.654843 2.521211 0.361337 3.738189-0.217337 0.901155-1.160323 2.059927-1.499943 2.341797 0 0 0.196907-2.525774 0.199219-3.058594-0.273984-4.603263-1.669877-8.348865-6.060613-10.021392z" style="fill:#f69c36;stroke-width:.13732687"/>
 <path d="m23.40214 12.000387c-0.796423 5e-3 -2.541415 0.505639-3.747488 1.088492-0.901797 0.435807-1.414536 0.805149-2.220363 1.599649-1.649386 1.626206-2.331299 3.340946-2.411657 6.063846-0.02425 0.821691-0.022632 1.247626-0.022632 1.247626s-1.098293-0.640307-1.478086-1.594869c-0.232729-0.584929-0.521914-1.405131-0.521914-1.405131s-0.224027 1.005606-0.304964 2.298616c-0.370046 3.553924 1.547875 4.950781 2.304964 7.701384 0 0-0.855761-0.701232-1.6225-1.637004-0.434038-0.529729-0.8775-1.362996-0.8775-1.362996s-0.312413 0.652028-0.444588 1.572347c-0.381994 2.659832 1.24692 5.329183 3.7782 6.191644 0.894054 0.304621 1.363677 0.31198 2.306581 0.03586 2.445195-0.71604 5.376985-4.014849 5.376985-6.050038 0-0.327927-0.170558-0.562417-0.86217-1.185456-2.414623-2.175211-3.166195-3.124354-3.697368-4.669039-0.588391-1.711075-0.196824-4.104532 0.989881-6.051632 0.602333-0.98828 2.019805-2.420588 3.155815-3.188671l0.896664-0.606278-0.451562-0.04279c-0.0442-4e-3 -0.09322-0.0059-0.146298-0.0059z" style="fill:#f69c36;stroke-width:.13698414"/>
 <path d="m40.799603 13.117402c0.65168 1.01721 1.23123 2.09933 1.68761 3.16201-0.4554-1.08454-1.01333-2.12351-1.68761-3.16201z" style="fill:#d0531d;stroke-width:.13732687"/>
 <path d="m43.422753 19.106412c0.51094 2.10608 0.75314 4.48613 0.59223 6.15155-0.47423 4.90803-2.16161 8.80169-5.35039 12.34627-0.0944 0.1049-0.17862 0.19399-0.26526 0.28699 1.73065-1.7836 3.13854-3.89067 4.12088-6.24166 1.16015-2.77658 1.78789-6.52883 1.5122-9.0397-0.13857-1.26201-0.33825-2.41747-0.60966-3.50345z" style="fill:#d0531d;stroke-width:.13732687"/>
 <path d="m26.632207 19.00067c-0.7183-0.01557-1.354119 0.238393-2.02432 0.777251l-0.607887 0.488484 1.223972 0.08586c0.773332 0.05423 1.463394 0.191003 1.874826 0.371478 0.823561 0.361258 1.765595 0.368594 2.531615 0.01973 0.597782-0.272289 1.48806-1.02868 1.356511-1.152457-0.03846-0.03619-0.31929-9.91e-4 -0.624282 0.07822-0.66293 0.172237-1.165673 0.09597-2.323317-0.35286-0.515512-0.199867-0.97613-0.306304-1.407118-0.315633z" style="fill:#fc7125;stroke-width:.14035589"/>
 <path d="m24.001953 4c-11.078891 0-19.998047 8.92-19.998047 20 0 0.12639 0.0126561 0.24943 0.015625 0.375 0.3290725-10.787501 9.1133608-19.375 19.982422-19.375 0.685315 0 1.362306 0.0347221 2.029297 0.1015625 0.0013 1.282e-4 0.002606-1.285e-4 0.003906 0 1.257976 0.1262828 2.477508 0.3773088 3.654297 0.7246094 0.069951 0.020643 0.143271 0.0333035 0.212891 0.0546875 2e-3 6e-4 0.003859 0.001354 0.005859 0.0019531 0.618999 0.1903318 1.224981 0.4091999 1.816406 0.65625 0.593317 0.2478399 1.171968 0.5225409 1.734375 0.8242187 0.562407 0.3016779 1.108385 0.6301549 1.636719 0.9824219 0.024865 0.0165788 0.047482 0.0360461 0.072266 0.0527344 0.496313 0.1730665 0.993197 0.3450451 1.488281 0.5527344 0.670926 0.2814512 1.017114 0.4792996 1.382812 0.7890625-0.450696-0.4436989-0.922965-0.8660177-1.414062-1.265625-0.491097-0.3996074-1.000963-0.7766392-1.529297-1.1289063-0.528334-0.352267-1.074312-0.680744-1.636719-0.9824219-0.562407-0.3016778-1.141058-0.5763788-1.734375-0.8242187-0.591425-0.2470501-1.197407-0.4659182-1.816406-0.65625-2e-3 -5.991e-4 -0.003859-0.0013531-0.005859-0.0019531-0.06962-0.021384-0.14294-0.0340435-0.212891-0.0546875-1.176789-0.3473006-2.396321-0.5983266-3.654297-0.7246094-0.0013-1.285e-4 -0.002606 1.282e-4 -0.003906 0-0.667026-0.0668368-1.343982-0.1015625-2.029297-0.1015625zm-1.126953 4.1113281c-0.560363 0.06641-1.114228 0.1452807-1.654297 0.2402344-1.225789 0.22393-2.757809 0.5025287-3.894531 1.359375l0.341797-0.078125c1.879056-0.42804 2.872301-0.542875 4.738281-0.546875 1.122685-0.0013219 2.528793 0.1453233 3.917969 0.5996094 0.478715 0.0524162 0.90709 0.122927 1.232422 0.2148437 0.56648 0.1600504 1.184223 0.3329164 1.373047 0.3847654l0.34375 0.09375-0.326172-0.355468c-1.891568-1.4326453-4.254846-1.854374-6.072266-1.9121099zm0.527344 3.8886719c-0.796423 5e-3 -2.541974 0.506991-3.748047 1.089844-0.901797 0.435807-1.414876 0.805109-2.220703 1.599609-1.649386 1.626206-2.3298 3.3396-2.410156 6.0625-0.024252 0.821691-0.023438 1.248047-0.023438 1.248047s-1.098723-0.641141-1.478516-1.595703c-0.232729-0.584929-0.521484-1.404297-0.521484-1.404297s-0.223751 1.005818-0.304688 2.298828c-0.054803 0.526335-0.048021 0.994393-0.013671 1.4375 0.007715-0.148841-0.002671-0.280546 0.013671-0.4375 0.080937-1.29301 0.304688-2.298828 0.304688-2.298828s0.288755 0.819368 0.521484 1.404297c0.379793 0.954562 1.478516 1.595703 1.478516 1.595703s-8.13e-4 -0.426356 0.023438-1.248047c0.080357-2.7229 0.76077-4.436294 2.410156-6.0625 0.805827-0.7945 1.318906-1.163802 2.220703-1.599609 0.85287-0.412163 1.96406-0.774842 2.830078-0.958985 0.209221-0.168312 0.421229-0.342749 0.619141-0.476562l0.896484-0.605469-0.451172-0.042969c-0.0442-4e-3 -0.093406-0.005859-0.146484-0.005859zm10.597656 0c-0.035482 0.035482 0.657291 0.918131 1.048828 1.476562 3.44518 1.783442 4.668334 5.110302 4.972656 9.134766 0.012114-0.218603 0.038617-0.487083 0.039063-0.589844-0.273984-4.603263-1.669811-8.348957-6.060547-10.021484zm-20.925781 3.634766c-0.04528-0.0453-0.282243 0.030839-0.525391 0.169922-0.99026 0.566228-1.90673 1.386694-2.7812499 2.490234-0.0403418 0.050907-0.068026 0.078088-0.1074219 0.126953-0.5119989 0.93162-0.9629599 1.892504-0.8847656 1.970703 0.037577 0.03757 0.4843105-0.456766 0.9921875-1.097656 0.8005989-1.010261 1.6398119-1.772176 2.5351559-2.330078 0.125106-0.203418 0.250932-0.402495 0.378907-0.582032 0.261003-0.36616 0.437856-0.702766 0.392578-0.748046zm13.558593 3.365234c-0.718299-0.01557-1.355189 0.238486-2.02539 0.777344l-0.607422 0.488281 1.224609 0.085937c0.009185 6.45e-4 0.01623 0.003239 0.025391 0.003907 0.447476-0.241564 0.896288-0.366015 1.382812-0.355469 0.43099 0.009329 0.890738 0.116533 1.40625 0.316406 0.726939 0.281839 1.189013 0.402938 1.601563 0.421875 0.597656-0.275793 1.476579-1.02334 1.345703-1.146484-0.03846-0.03619-0.318055-0.001086-0.623047 0.078125-0.66293 0.172237-1.166574 0.095314-2.324219-0.353516-0.515512-0.199867-0.97526-0.307077-1.40625-0.316406zm14.367188 0c0 0.319713 0.070866 0.700306 0.152344 1.099609 0.268094 0.224891 0.818335 0.868255 1.078125 1.494141 0.495561 1.193946 0.758077 2.482622 0.814453 3.78125 0.070849-1.632071-0.191628-3.280688-0.814453-4.78125-0.324928-0.782873-1.130158-1.625542-1.230469-1.59375zm-22.287109 1.628906c-0.060363 0.814685 0.012872 1.593083 0.24414 2.265625 0.531173 1.544685 1.282643 2.494711 3.697266 4.669922 0.444938 0.400823 0.662248 0.636191 0.769531 0.84375 0.057071-0.229131 0.09375-0.451186 0.09375-0.658203 0-0.327927-0.171669-0.562508-0.863281-1.185547-2.414623-2.175211-3.166093-3.125237-3.697266-4.669922-0.134132-0.390064-0.2097-0.818077-0.24414-1.265625zm18.34375 0.242188c-0.073675 2.933712-0.787576 4.744738-2.865235 7.326172-1.64259 2.04088-1.924014 2.596147-2.240234 4.419922-0.35499 2.047378-0.485969 2.571444-0.97461 3.921874-1.210579 3.345576-4.267899 6.129624-7.75 7.087891-0.307502 0.116328-0.61583 0.213454-0.923828 0.294922 0.004611 3.82e-4 0.009061 0.001574 0.013672 0.001953 0.02278 0.0019 0.04556 0.00406 0.06836 0.00586 0.533924 0.042349 1.071997 0.070312 1.617187 0.070312 0.336955 0 0.665393-0.030433 0.998047-0.046875 2.714622-1.2878 4.977536-3.653139 5.976562-6.414063 0.488641-1.35043 0.61962-1.874496 0.97461-3.921874 0.31622-1.823775 0.597644-2.379042 2.240234-4.419922 2.2026-2.73667 2.88286-4.590996 2.88086-7.853516-1.04e-4 -0.161005-0.010919-0.315133-0.015625-0.472656zm-13.056641 0.283203c-0.010414 0.006435 0.017589 0.047734 0.037109 0.082031l0.076172-0.060547c-0.038504-0.005639-0.07464-0.016092-0.113281-0.021484zm0.050781 0.115234c0.118432 0.180713 0.404586 0.562607 0.589844 1.003907 1.440493 0.266766 2.768439 0.758196 3.810547 1.947265 1.62162 1.63239 2.398866 3.803456 2.548828 6.628906 0.010952 0.206362 0.003784 0.404207 0.007812 0.607422 0.019801-0.525287 0.021288-1.059127-0.007812-1.607422-0.149962-2.82545-0.927208-4.996516-2.548828-6.628906-0.964345-1.100339-2.172687-1.6045-3.488281-1.886719l-0.91211-0.064453zm17.341797 1.25586c-0.010844 0.070909-0.014585 0.143792-0.03125 0.21289-0.20635 0.855598-1.052535 1.920485-1.429687 2.269531-0.031534 0.426171-0.070313 1.072266-0.070313 1.072266 0.33962-0.28187 1.282663-1.440642 1.5-2.341797 0.092261-0.382546 0.076606-0.795848 0.03125-1.21289zm-16.292969 2.751953c-0.033574 1.699641-0.360294 2.994177-1.230468 4.804687-1.18547 2.46651-2.696774 4.262235-4.802735 5.271485-2.635773 1.26316-5.007108 0.67775-7.03125-1.34375-1.036749-1.0354-1.668843-2.147076-2.0800779-3.666016-0.1734474-0.640637-0.2642935-1.690543-0.2910156-2.814453-0.0231931 1.498276 0.0658641 2.982844 0.2910156 3.814453 0.4112349 1.51894 1.0433289 2.630616 2.0800779 3.666016 2.024142 2.0215 4.395477 2.60691 7.03125 1.34375 2.105961-1.00925 3.617265-2.804975 4.802735-5.271485 0.90477-1.88249 1.231887-3.19697 1.242187-5 0.001815-0.317538-0.001579-0.576207-0.011719-0.804687zm-12.599609 0.722656s-0.313138 0.651947-0.445312 1.572266c-0.061724 0.42978-0.052325 0.856692-0.013672 1.279296 0.0085-0.093341 2.58e-4 -0.185899 0.013672-0.279296 0.132174-0.920319 0.445312-1.572266 0.445312-1.572266s0.442915 0.833552 0.876953 1.363281c0.766739 0.935772 1.623047 1.636719 1.623047 1.636719-0.152862-0.555367-0.359022-1.047609-0.578125-1.521484-0.302885-0.288359-0.681654-0.671882-1.044922-1.115235-0.434038-0.529729-0.876953-1.363281-0.876953-1.363281zm29.3125 5.800781c-0.024439-0.073316-0.416021 0.185878-0.880859 0.558594-0.344166 0.448464-0.726525 0.900424-1.197266 1.378906-0.53873 0.54759-0.931547 0.994141-0.873047 0.994141 0.25599 0 0.98304-0.474817 1.90625-1.248047 0.113195-0.094809 0.19355-0.144812 0.296875-0.224609 0.446786-0.719897 0.790376-1.332002 0.748047-1.458985zm-4.478516 7.09961c-0.853111 0.688619-1.911508 1.37875-3.048828 1.955078-0.983174 0.498197-0.994299 0.644504-0.328125 0.470703 1.198994-0.691511 2.329495-1.488963 3.355469-2.404297v-0.001953c0.007222-0.006443 0.014273-0.013076 0.021484-0.019531z" style="fill:#ffffff;opacity:.1;stroke-width:.13732687"/>
</svg>
