<svg width="48" height="48" version="1" xmlns="http://www.w3.org/2000/svg">
 <path d="M 24,5 C 13.56581,5 5,13.56581 5,24 v 9 c 0,2.971628 1.3397179,5.798263 3.1425781,7.390625 0.3224461,0.284798 0.6337492,0.379452 0.9570313,0.599609 A 5.0005,5.0005 0 0 0 14,45 h 5 a 5.0005,5.0005 0 0 0 5,-5 5.0005,5.0005 0 0 0 5,5 h 5 a 5.0005,5.0005 0 0 0 4.894531,-4.005859 c 0.325845,-0.221808 0.639854,-0.317986 0.964844,-0.605469 C 41.66023,38.795651 43,35.971741 43,33 V 24 C 43,13.56581 34.43419,5 24,5 Z m 0,14 c 1.72944,0 3.124411,0.843681 4.013672,2.097656 A 5.0005,5.0005 0 0 0 24,26 5.0005,5.0005 0 0 0 19.984375,21.101562 C 20.873382,19.845524 22.268932,19 24,19 Z" style="color-rendering:auto;color:#000000;dominant-baseline:auto;fill:#000000;font-feature-settings:normal;font-variant-alternates:normal;font-variant-caps:normal;font-variant-ligatures:normal;font-variant-numeric:normal;font-variant-position:normal;image-rendering:auto;isolation:auto;mix-blend-mode:normal;opacity:.2;shape-padding:0;shape-rendering:auto;solid-color:#000000;text-decoration-color:#000000;text-decoration-line:none;text-decoration-style:solid;text-indent:0;text-orientation:mixed;text-transform:none;white-space:normal"/>
 <path d="M 24,4 C 13.56581,4 5,12.56581 5,23 v 9 c 0,2.971628 1.3397179,5.798263 3.1425781,7.390625 0.3224461,0.284798 0.6337492,0.379452 0.9570313,0.599609 A 5.0005,5.0005 0 0 0 14,44 h 5 a 5.0005,5.0005 0 0 0 5,-5 5.0005,5.0005 0 0 0 5,5 h 5 a 5.0005,5.0005 0 0 0 4.894531,-4.005859 c 0.325845,-0.221808 0.639854,-0.317986 0.964844,-0.605469 C 41.66023,37.795651 43,34.971741 43,32 V 23 C 43,12.56581 34.43419,4 24,4 Z m 0,14 c 1.72944,0 3.124411,0.843681 4.013672,2.097656 A 5.0005,5.0005 0 0 0 24,25 5.0005,5.0005 0 0 0 19.984375,20.101562 C 20.873382,18.845524 22.268932,18 24,18 Z" style="color-rendering:auto;color:#000000;dominant-baseline:auto;fill:#3f3f3f;font-feature-settings:normal;font-variant-alternates:normal;font-variant-caps:normal;font-variant-ligatures:normal;font-variant-numeric:normal;font-variant-position:normal;image-rendering:auto;isolation:auto;mix-blend-mode:normal;shape-padding:0;shape-rendering:auto;solid-color:#000000;text-decoration-color:#000000;text-decoration-line:none;text-decoration-style:solid;text-indent:0;text-orientation:mixed;text-transform:none;white-space:normal"/>
 <path d="m24 10.0002c-7.732 0-14 6.268-14 14v9c0 3.5696 2.5419 4.541 4 4.8066v-13.807c0-5.54 4.46-10 10-10s10 4.46 10 10v13.812c1.458-0.268 4-1.242 4-4.812v-9c0-7.732-6.268-14-14-14z" style="fill:#000000;opacity:.2"/>
 <path d="m24 9.0003c-7.732 0-14 6.268-14 14v9c0 3.5696 2.5419 4.541 4 4.8066v-13.807c0-5.54 4.46-10 10-10s10 4.46 10 10v13.812c1.458-0.268 4-1.242 4-4.812v-9c0-7.732-6.268-14-14-14z" style="fill:#74ea74"/>
 <path d="m14 26v14h5v-14zm15 0v14h5v-14z" style="fill:#000000;opacity:.2"/>
 <path d="m14 25.0001v14h5v-14zm15 0v14h5v-14z" style="fill:#30a030"/>
 <path d="m24 4c-10.43419 0-19 8.56581-19 19v1c0-10.43419 8.56581-19 19-19s19 8.56581 19 19v-1c0-10.43419-8.56581-19-19-19zm3.3125 16.298828a5.0005 5.0005 0 0 0-3.3125 4.701172 5.0005 5.0005 0 0 0-3.3125-4.697266c-0.258889 0.241927-0.496711 0.507195-0.703125 0.798828a5.0005 5.0005 0 0 1 4.015625 4.898438 5.0005 5.0005 0 0 1 4.013672-4.902344c-0.206245-0.290832-0.442658-0.557542-0.701172-0.798828z" style="color-rendering:auto;color:#000000;dominant-baseline:auto;fill:#ffffff;font-feature-settings:normal;font-variant-alternates:normal;font-variant-caps:normal;font-variant-ligatures:normal;font-variant-numeric:normal;font-variant-position:normal;image-rendering:auto;isolation:auto;mix-blend-mode:normal;opacity:.1;shape-padding:0;shape-rendering:auto;solid-color:#000000;text-decoration-color:#000000;text-decoration-line:none;text-decoration-style:solid;text-indent:0;text-orientation:mixed;text-transform:none;white-space:normal"/>
 <path d="m14 25v1h5v-1h-5zm15 0v1h5v-1h-5z" style="fill:#ffffff;opacity:.1"/>
 <path d="m24 9c-7.732 0-14 6.268-14 14v1c0-7.732 6.268-14 14-14s14 6.268 14 14v-1c0-7.732-6.268-14-14-14z" style="fill:#ffffff;opacity:.2"/>
</svg>
