<svg width="48" height="48" version="1" xmlns="http://www.w3.org/2000/svg">
 <path d="m24 4.9994507a20 20 0 0 0-20 20 20 20 0 0 0 20 20 20 20 0 0 0 12.433594-4.335938l3.455078 3.455079c1.175211 1.175211 3.066976 1.175211 4.242187 0 1.175212-1.175212 1.175212-3.06893 0-4.244141l-3.609375-3.609375a20 20 0 0 0 3.478516-11.265625 20 20 0 0 0-20-20z" style="fill:#000000;opacity:.2"/>
 <path d="m24 4a20 20 0 0 0-20 20 20 20 0 0 0 20 20 20 20 0 0 0 12.433594-4.335938l3.455078 3.455079c1.175211 1.175211 3.066976 1.175211 4.242187 0 1.175212-1.175212 1.175212-3.06893 0-4.244141l-3.609375-3.609375a20 20 0 0 0 3.478516-11.265625 20 20 0 0 0-20-20z" style="fill:#fcbc30"/>
 <path d="m24 9a15 15 0 0 0-14.679688 12h13.679688v6h-13.695312a15 15 0 0 0 14.695312 12 15 15 0 0 0 15-15 15 15 0 0 0-15-15z" style="enable-background:new;fill:#3f3f3f"/>
 <path d="m24 12a13 13 0 0 0-12.632812 10h11.632812v6h-11.634766a13 13 0 0 0 12.634766 10 13 13 0 0 0 13-13 13 13 0 0 0-13-13z" style="enable-background:new;fill:#000000;opacity:.2"/>
 <path d="m24 11a13 13 0 0 0-12.632812 10h11.632812v6h-11.634766a13 13 0 0 0 12.634766 10 13 13 0 0 0 13-13 13 13 0 0 0-13-13z" style="enable-background:new;fill:#4f4f4f"/>
 <circle transform="matrix(0,-1,-1,0,0,0)" cx="-25" cy="-24" r="6" style="enable-background:new;fill:#000000;opacity:.2"/>
 <circle transform="matrix(0,-1,-1,0,0,0)" cx="-24" cy="-24" r="6" fill="#3f3f3f" style="enable-background:new;fill:#7a7a7a"/>
 <path d="m24 4a20 20 0 0 0-20 20 20 20 0 0 0 0.0214844 0.417969 20 20 0 0 1 19.978516-19.417969 20 20 0 0 1 19.974609 19.5 20 20 0 0 0 0.025391-0.5 20 20 0 0 0-20-20zm16.900391 31.644531a20 20 0 0 1-0.378907 0.621094l3.609375 3.609375c0.459278 0.459277 0.733682 1.028116 0.833985 1.621094 0.155733-0.923864-0.118482-1.905592-0.833985-2.621094l-3.230468-3.230469z" style="fill:#fffdf9;opacity:.2"/>
</svg>
