<svg width="48" height="48" version="1" xmlns="http://www.w3.org/2000/svg">
 <g transform="translate(0,3)" style="fill:#000000;opacity:.2;stroke-linecap:round;stroke-linejoin:round;stroke-width:6;stroke:#000000">
  <path transform="translate(0,-2)" d="M 14.998047,12 C 9.5310055,12.0028 5.0874921,16.129771 4.2890625,21.423828 3.6065899,25.0989 4,29.717919 4,34 c 1.657e-4,1.656786 1.3432144,2.999834 3,3 h 2 c 1.656786,-1.66e-4 2.999834,-1.343214 3,-3 v -0.595703 c 0.980176,0.28473 1.961881,0.591323 2.986328,0.595703 0.0046,1e-5 0.0091,1e-5 0.01367,0 3.807968,0 7.022856,-2.089522 9,-5.060547 C 25.977144,31.910478 29.192032,34 33,34 c 0.0033,5e-6 0.0065,5e-6 0.0098,0 1.36171,-0.0042 2.703604,-0.28892 3.970703,-0.785156 C 37.532338,33.718993 38.252521,33.998987 39,34 h 2 c 1.656786,-1.66e-4 2.999834,-1.343214 3,-3 -0.09259,-3.208863 0.292983,-6.433595 -0.298828,-9.597656 C 42.89383,16.121815 38.460382,12.006799 33.003906,12 H 33 c -3.807968,0 -7.022856,2.089522 -9,5.060547 C 22.022856,14.089522 18.807968,12 15,12 Z" style="color-rendering:auto;color:#000000;dominant-baseline:auto;fill:#000000;font-feature-settings:normal;font-variant-alternates:normal;font-variant-caps:normal;font-variant-ligatures:normal;font-variant-numeric:normal;font-variant-position:normal;image-rendering:auto;isolation:auto;mix-blend-mode:normal;opacity:1;shape-padding:0;shape-rendering:auto;solid-color:#000000;stroke:none;text-decoration-color:#000000;text-decoration-line:none;text-decoration-style:solid;text-indent:0;text-orientation:mixed;text-transform:none;white-space:normal"/>
 </g>
 <g transform="translate(0,2)" style="fill:none;stroke-linecap:round;stroke-linejoin:round;stroke-width:6;stroke:#000000">
  <path transform="translate(0,-2)" d="M 14.998047,12 C 9.5310055,12.0028 5.0874921,16.129771 4.2890625,21.423828 3.6065899,25.0989 4,29.717919 4,34 c 1.657e-4,1.656786 1.3432144,2.999834 3,3 h 2 c 1.656786,-1.66e-4 2.999834,-1.343214 3,-3 v -0.595703 c 0.980176,0.28473 1.961881,0.591323 2.986328,0.595703 0.0046,1e-5 0.0091,1e-5 0.01367,0 3.807968,0 7.022856,-2.089522 9,-5.060547 C 25.977144,31.910478 29.192032,34 33,34 c 0.0033,5e-6 0.0065,5e-6 0.0098,0 1.36171,-0.0042 2.703604,-0.28892 3.970703,-0.785156 C 37.532338,33.718993 38.252521,33.998987 39,34 h 2 c 1.656786,-1.66e-4 2.999834,-1.343214 3,-3 -0.09259,-3.208863 0.292983,-6.433595 -0.298828,-9.597656 C 42.89383,16.121815 38.460382,12.006799 33.003906,12 H 33 c -3.807968,0 -7.022856,2.089522 -9,5.060547 C 22.022856,14.089522 18.807968,12 15,12 Z" style="color-rendering:auto;color:#000000;dominant-baseline:auto;fill:#f4842d;font-feature-settings:normal;font-variant-alternates:normal;font-variant-caps:normal;font-variant-ligatures:normal;font-variant-numeric:normal;font-variant-position:normal;image-rendering:auto;isolation:auto;mix-blend-mode:normal;shape-padding:0;shape-rendering:auto;solid-color:#000000;stroke:none;text-decoration-color:#000000;text-decoration-line:none;text-decoration-style:solid;text-indent:0;text-orientation:mixed;text-transform:none;white-space:normal"/>
 </g>
 <g transform="translate(0,3)" style="fill:#000000;opacity:.2">
  <path d="m15 13a8 8 0 0 0-7.9902344 7.699219h-0.0097656v11.300781h2v-11a6 6 0 0 1 6-6 6 6 0 0 1 6 6 6 6 0 0 1-6 6 6 6 0 0 1-3-0.810547v2.212891a8 8 0 0 0 3 0.597656 8 8 0 0 0 8-8 8 8 0 0 0-8-8z" style="fill:#000000;opacity:1"/>
  <path d="m33 13a8 8 0 0 0-8 8 8 8 0 0 0 8 8 8 8 0 0 0 3-0.59375v-2.21875a6 6 0 0 1-3 0.8125 6 6 0 0 1-6-6 6 6 0 0 1 6-6 6 6 0 0 1 6 6v8h2v-8.300781h-0.01563a8 8 0 0 0-7.98437-7.699219z" style="fill:#000000;opacity:1"/>
 </g>
 <g transform="translate(0,2)" style="fill:#ffffff">
  <path d="m15 13a8 8 0 0 0-7.9902344 7.699219h-0.0097656v11.300781h2v-11a6 6 0 0 1 6-6 6 6 0 0 1 6 6 6 6 0 0 1-6 6 6 6 0 0 1-3-0.810547v2.212891a8 8 0 0 0 3 0.597656 8 8 0 0 0 8-8 8 8 0 0 0-8-8z" style="fill:#ffffff"/>
  <path d="m33 13a8 8 0 0 0-8 8 8 8 0 0 0 8 8 8 8 0 0 0 3-0.59375v-2.21875a6 6 0 0 1-3 0.8125 6 6 0 0 1-6-6 6 6 0 0 1 6-6 6 6 0 0 1 6 6v8h2v-8.300781h-0.01563a8 8 0 0 0-7.98437-7.699219z" style="fill:#ffffff"/>
 </g>
 <g transform="translate(0,2)" style="fill:#ffffff;opacity:.1;stroke-linecap:round;stroke-linejoin:round;stroke-width:6;stroke:#000000">
  <path transform="translate(0,-2)" d="m14.998047 12c-5.4670416 0.0028-9.9105549 4.129771-10.708984 9.423828-0.3542108 1.907403-0.416482 4.071722-0.3964844 6.308594 0.0084742-1.87845 0.0954486-3.687535 0.3964844-5.308594 0.7984296-5.294057 5.2419429-9.421028 10.708984-9.423828h0.001953c3.807968 0 7.022856 2.089522 9 5.060547 1.977144-2.971025 5.192032-5.060547 9-5.060547h0.003906c5.456476 0.006799 9.889924 4.121815 10.697266 9.402344 0.26976 1.442247 0.324709 2.897212 0.326172 4.357422 0.025941-1.795886 0.005132-3.586136-0.326172-5.357422-0.807342-5.280529-5.24079-9.395545-10.697266-9.402344h-0.003906c-3.807968 0-7.022856 2.089522-9 5.060547-1.977144-2.971025-5.192032-5.060547-9-5.060547h-0.001953z" style="color-rendering:auto;color:#000000;dominant-baseline:auto;fill:#ffffff;font-feature-settings:normal;font-variant-alternates:normal;font-variant-caps:normal;font-variant-ligatures:normal;font-variant-numeric:normal;font-variant-position:normal;image-rendering:auto;isolation:auto;mix-blend-mode:normal;opacity:1;shape-padding:0;shape-rendering:auto;solid-color:#000000;stroke:none;text-decoration-color:#000000;text-decoration-line:none;text-decoration-style:solid;text-indent:0;text-orientation:mixed;text-transform:none;white-space:normal"/>
 </g>
</svg>
