<svg width="48" height="48" version="1" xmlns="http://www.w3.org/2000/svg">
 <rect transform="matrix(0,-1,-1,0,0,0)" x="-44" y="-44" width="40" height="40" rx="20" ry="20" style="fill:#0088ff"/>
 <path d="m24 4c-11.08 0-20 8.92-20 20 0 0.168 8e-3 0.333 0.0117 0.5 0.2647-10.846 9.0763-19.5 19.988-19.5s19.724 8.6539 19.988 19.5c4e-3 -0.16686 0.0117-0.33213 0.0117-0.5 0-11.08-8.92-20-20-20z" fill="#fff" opacity=".2"/>
 <path d="m4.0117 24.5c-0.0041 0.167-0.0117 0.332-0.0117 0.5 0 11.08 8.92 20 20 20s20-8.92 20-20c0-0.168-8e-3 -0.333-0.012-0.5-0.264 10.846-9.076 19.5-19.988 19.5s-19.724-8.654-19.988-19.5z" opacity=".2"/>
 <path d="m25.669524 20.979582-4.662965 4.663247c-0.674103 0.673821-1.766351 0.673257-2.440454-5.64e-4 -0.674384-0.674665-0.674947-1.766914-8.45e-4 -2.440735l4.663247-4.663528c3.336723-3.337005 8.729261-3.39135 12.137224-0.168948 0.03126 0.02647 0.06251 0.05378 0.09179 0.08307 0.01436 0.01464 0.02788 0.02957 0.04167 0.04449 0.01464 0.01408 0.03013 0.02731 0.04421 0.04111 0.02985 0.02985 0.05632 0.06054 0.08278 0.09151 3.222683 3.408526 3.167775 8.800501-0.168948 12.137506l-4.663247 4.662683c-0.674102 0.674103-1.76607 0.674103-2.440172 0-0.674103-0.674666-0.674666-1.766914-5.63e-4 -2.440454l4.662965-4.663528c2.034415-2.034415 2.048494-5.335659 0.04196-7.388659-2.052437-2.005694-5.353962-1.991897-7.388659 0.0428z" style="fill:#000000;opacity:.2;stroke-width:.28158"/>
 <path d="m25.669524 19.979582-4.662965 4.663247c-0.674103 0.673821-1.766351 0.673257-2.440454-5.64e-4 -0.674384-0.674665-0.674947-1.766914-8.45e-4 -2.440735l4.663247-4.663528c3.336723-3.337005 8.729261-3.39135 12.137224-0.168948 0.03126 0.02647 0.06251 0.05378 0.09179 0.08307 0.01436 0.01464 0.02788 0.02957 0.04167 0.04449 0.01464 0.01408 0.03013 0.02731 0.04421 0.04111 0.02985 0.02985 0.05632 0.06054 0.08278 0.09151 3.222683 3.408526 3.167775 8.800501-0.168948 12.137506l-4.663247 4.662683c-0.674102 0.674103-1.76607 0.674103-2.440172 0-0.674103-0.674666-0.674666-1.766914-5.63e-4 -2.440454l4.662965-4.663528c2.034415-2.034415 2.048494-5.335659 0.04196-7.388659-2.052437-2.005694-5.353962-1.991897-7.388659 0.0428z" style="fill:#ffffff;stroke-width:.28158"/>
 <path d="m19.64926 14.570743c0.674103 0.674103 0.67354 1.766633-5.63e-4 2.440454l-4.662965 4.662965c-2.034697 2.03526-2.047368 5.336222-0.04139 7.389222 2.052718 2.005413 5.353681 1.992179 7.388378-0.04224l4.662683-4.663246c0.674103-0.673821 1.767478-0.673821 2.44158 0 0.674103 0.674666 0.674103 1.768041 0 2.441862l-4.662965 4.662964c-3.337004 3.337005-8.729543 3.39135-12.136661 0.168948-0.03125-0.02675-0.06251-0.05294-0.09208-0.08307-0.01436-0.01492-0.02731-0.02928-0.04196-0.04364-0.01436-0.01464-0.03013-0.02816-0.04477-0.04224-0.02928-0.02985-0.05519-0.06082-0.08194-0.09208-3.2232411-3.407109-3.1686146-8.799648 0.16839-12.136652l4.662402-4.662965c0.674102-0.674384 1.76804-0.674384 2.441861-2.82e-4z" style="fill:#000000;opacity:.2;stroke-width:.28158"/>
 <path d="m19.64926 13.570743c0.674103 0.674103 0.67354 1.766633-5.63e-4 2.440454l-4.662965 4.662965c-2.034697 2.03526-2.047368 5.336222-0.04139 7.389222 2.052718 2.005413 5.353681 1.992179 7.388378-0.04224l4.662683-4.663246c0.674103-0.673821 1.767478-0.673821 2.44158 0 0.674103 0.674666 0.674103 1.768041 0 2.441862l-4.662965 4.662964c-3.337004 3.337005-8.729543 3.39135-12.136661 0.168948-0.03125-0.02675-0.06251-0.05294-0.09208-0.08307-0.01436-0.01492-0.02731-0.02928-0.04196-0.04364-0.01436-0.01464-0.03013-0.02816-0.04477-0.04224-0.02928-0.02985-0.05519-0.06082-0.08194-0.09208-3.2232411-3.407109-3.1686146-8.799648 0.16839-12.136652l4.662402-4.662965c0.674102-0.674384 1.76804-0.674384 2.441861-2.82e-4z" style="fill:#ffffff;stroke-width:.28158"/>
</svg>
