<svg width="48" height="48" version="1" xmlns="http://www.w3.org/2000/svg">
 <rect transform="matrix(0,-1,-1,0,0,0)" x="-44" y="-44" width="40" height="40" rx="2" ry="2" style="fill:#3f3f3f"/>
 <path d="m7 8c-0.554 0-1 0.446-1 1v28c0 0.554 0.446 1 1 1h34c0.554 0 1-0.446 1-1v-28c0-0.554-0.446-1-1-1h-26z" style="fill:#000000;opacity:.2"/>
 <path d="m7 7c-0.554 0-1 0.446-1 1v28c0 0.554 0.446 1 1 1h8v-30h-8z" style="fill:#d45736"/>
 <path d="m6 4c-1.108 0-2 0.892-2 2v1c0-1.108 0.892-2 2-2h36c1.108 0 2 0.892 2 2v-1c0-1.108-0.892-2-2-2h-36z" fill="#fff" opacity=".2" style="opacity:.1"/>
 <path d="m6 45c-1.108 0-2-0.892-2-2v-1c0 1.108 0.892 2 2 2h36c1.108 0 2-0.892 2-2v1c0 1.108-0.892 2-2 2h-36z" opacity=".2"/>
 <path d="m15 7v30h9v-30h-9z" style="fill:#e46b31"/>
 <path d="m24 7v30h9v-30h-9z" style="fill:#ea812a"/>
 <path d="m33 7v30h8c0.554 0 1-0.446 1-1v-28c0-0.554-0.446-1-1-1h-8z" style="fill:#eb9027"/>
 <path d="m7 22a14 14 0 0 0-1 0.037109v13.962891c0 0.554 0.446 1 1 1h8 5.949219a14 14 0 0 0 0.050781-1 14 14 0 0 0-14-14z" style="fill:#f3c4c4"/>
 <path d="m7 26a10 10 0 0 0-1 0.060547v9.939453c0 0.554 0.446 1 1 1h8 1.949219a10 10 0 0 0 0.050781-1 10 10 0 0 0-10-10z" style="fill:#ffffff"/>
 <circle cx="24" cy="42" r="2" style="fill:#000000;opacity:.2"/>
 <circle cx="24" cy="41" r="2" style="fill:#ffffff"/>
 <path d="m7 7c-0.554 0-1 0.446-1 1v1c0-0.554 0.446-1 1-1h8 9 9 8c0.554 0 1 0.446 1 1v-1c0-0.554-0.446-1-1-1h-8-9-9-8z" style="fill:#ffffff;opacity:.1"/>
</svg>
