<svg width="48" height="48" version="1" xmlns="http://www.w3.org/2000/svg">
 <rect transform="matrix(0,-1,-1,0,0,0)" x="-44" y="-44" width="40" height="40" rx="20" ry="20" style="fill:#4f4f4f;stroke-width:1.0000501"/>
 <path d="m24 11c-1.108 0-2 0.892-2 2v24c0 1.108 0.892 2 2 2s2-0.892 2-2v-24c0-1.108-0.892-2-2-2zm-6 5c-1.108 0-2 0.892-2 2v14c0 1.108 0.892 2 2 2s2-0.892 2-2v-14c0-1.108-0.892-2-2-2zm12 0c-1.108 0-2 0.892-2 2v14c0 1.108 0.892 2 2 2s2-0.892 2-2v-14c0-1.108-0.892-2-2-2zm-18 5c-1.108 0-2 0.892-2 2v4c0 1.108 0.892 2 2 2s2-0.892 2-2v-4c0-1.108-0.892-2-2-2zm24 0c-1.108 0-2 0.892-2 2v4c0 1.108 0.892 2 2 2s2-0.892 2-2v-4c0-1.108-0.892-2-2-2z" style="fill:#000000;opacity:.2"/>
 <path d="m24 4c-11.079 0-19.998 8.92-19.998 20 0 0.16772-4e-3 0.33329 0 0.5 0.2642-10.846 9.087-19.5 19.998-19.5s19.734 8.6536 19.998 19.5c4e-3 -0.16671 0-0.33228 0-0.5 0-11.08-8.919-20-19.998-20z" fill="#fff" opacity=".2" style="opacity:.1"/>
 <path d="m4.0117 24.5c-0.0041 0.167-0.0117 0.332-0.0117 0.5 0 11.08 8.92 20 20 20s20-8.92 20-20c0-0.168-8e-3 -0.333-0.012-0.5-0.264 10.846-9.076 19.5-19.988 19.5s-19.724-8.654-19.988-19.5z" opacity=".2"/>
 <rect x="22" y="10" width="4" height="28" rx="2" ry="2" style="fill:#64ff63"/>
 <rect x="16" y="15" width="4" height="18" rx="2" ry="2" style="fill:#ffee4b"/>
 <rect x="10" y="20" width="4" height="8" rx="2" ry="2" style="fill:#ff6060"/>
 <rect transform="scale(-1,1)" x="-32" y="15" width="4" height="18" rx="2" ry="2" style="fill:#36adff"/>
 <rect transform="scale(-1,1)" x="-38" y="20" width="4" height="8" rx="2" ry="2" style="fill:#e657f3"/>
</svg>
