<svg width="48" height="48" version="1" xmlns="http://www.w3.org/2000/svg">
 <rect transform="matrix(0,-1,-1,0,0,0)" x="-44" y="-44" width="40" height="40" rx="20" ry="20" style="fill:#ef5c46;stroke-width:1.0000501"/>
 <path d="m14.273438 15.000689c-1.245999-0.0297-2.273129 0.967128-2.273438 2.207031v15.583985c2e-3 1.697634 1.849502 2.757635 3.328125 1.910156l8.671875-5.734375 8.671875 5.734375c1.478623 0.847479 3.326125-0.212522 3.328125-1.910156v-15.583985c-3.09e-4 -1.239903-1.027439-2.236731-2.273438-2.207031-0.371242 0.01045-0.733813 0.114744-1.054687 0.300781l-8.671875 5.732422-8.671875-5.732422c-0.320874-0.186037-0.683444-0.290334-1.054687-0.300781z" style="fill:#000000;opacity:.2"/>
 <path d="m24 4c-11.079 0-19.998 8.92-19.998 20 0 0.16772-4e-3 0.33329 0 0.5 0.2642-10.846 9.087-19.5 19.998-19.5s19.734 8.6536 19.998 19.5c4e-3 -0.16671 0-0.33228 0-0.5 0-11.08-8.919-20-19.998-20z" fill="#fff" opacity=".2" style="opacity:.1"/>
 <path d="m4.0117 24.5c-0.0041 0.167-0.0117 0.332-0.0117 0.5 0 11.08 8.92 20 20 20s20-8.92 20-20c0-0.168-8e-3 -0.333-0.012-0.5-0.264 10.846-9.076 19.5-19.988 19.5s-19.724-8.654-19.988-19.5z" opacity=".2"/>
 <path d="m14.273438 14c-1.245999-0.0297-2.273129 0.967128-2.273438 2.207031v7.792969 7.791016c2e-3 1.697634 1.849502 2.757635 3.328125 1.910156l8.671875-5.734375 8.671875 5.734375c1.478623 0.847479 3.326125-0.212522 3.328125-1.910156v-7.791016-7.792969c-3.09e-4 -1.239903-1.027439-2.236731-2.273438-2.207031-0.371242 0.010447-0.733813 0.114744-1.054687 0.300781l-8.671875 5.732422-8.671875-5.732422c-0.320874-0.186037-0.683444-0.290334-1.054687-0.300781z" style="fill:#ffd9d8"/>
 <path d="m23.974609 20.017578-5.974609 3.982422-6 4v3.791016c2e-3 1.697634 1.849502 2.757635 3.328125 1.910156l8.671875-5.734375 8.671875 5.734375c1.478623 0.847479 3.326125-0.212522 3.328125-1.910156v-3.791016l-6-4-5.974609-3.982422-0.025391 0.015625-0.025391-0.015625z" style="fill:#fec3c4"/>
 <path d="m14.273438 14c-1.246-0.0297-2.273129 0.967128-2.273438 2.207031v3.792969l6 4 5.974609 3.982422 0.025391-0.015625 0.025391 0.015625 5.974609-3.982422 6-4v-3.792969c-3.09e-4 -1.239903-1.027439-2.236731-2.273438-2.207031-0.371242 0.010447-0.733813 0.114744-1.054687 0.300781l-8.671875 5.732422-8.671875-5.732422c-0.320874-0.186037-0.683445-0.290334-1.054687-0.300781z" style="fill:#ffffff"/>
 <rect transform="matrix(.8320503 .55470019 -.8320503 .55470019 0 0)" x="32.449963" y="3.6055522" width="7.2111025" height="7.2111025" style="fill:#ffd9d8"/>
</svg>
