<svg width="48" height="48" version="1" xmlns="http://www.w3.org/2000/svg">
 <path d="m15.914062 24.983944a3.0003 3.0003 0 0 0-1 5.8125s1.385183 0.539137 3.144532 1.074219c0.694036 0.211081 1.444366 0.422024 2.216797 0.611328l-6.396485 6.396484a3.0003 3.0003 0 1 0 4.242188 4.242188l5.878906-5.878906 5.878906 5.878906a3.0003 3.0003 0 1 0 4.242188-4.242188l-6.396485-6.396484c0.772431-0.189304 1.522761-0.400247 2.216797-0.611328 1.759349-0.535082 3.144532-1.074219 3.144532-1.074219a3.0003 3.0003 0 1 0-2.171876-5.59375s-1.190099 0.460863-2.71875 0.925781c-1.528649 0.464918-3.473558 0.871094-4.195312 0.871094s-2.666663-0.406176-4.195312-0.871094c-1.528651-0.464918-2.71875-0.925781-2.71875-0.925781a3.0003 3.0003 0 0 0-1.171876-0.21875z" style="color-rendering:auto;color:#000000;dominant-baseline:auto;fill:#000000;font-feature-settings:normal;font-variant-alternates:normal;font-variant-caps:normal;font-variant-ligatures:normal;font-variant-numeric:normal;font-variant-position:normal;image-rendering:auto;isolation:auto;mix-blend-mode:normal;opacity:.2;shape-padding:0;shape-rendering:auto;solid-color:#000000;text-decoration-color:#000000;text-decoration-line:none;text-decoration-style:solid;text-indent:0;text-orientation:mixed;text-transform:none;white-space:normal"/>
 <circle cx="24" cy="15" r="10" style="fill:#090400;opacity:.2"/>
 <circle cx="24" cy="14" r="10" style="fill:#f58220"/>
 <path d="m16 27s5.151999 2 8 2 8-2 8-2" style="fill:none;stroke-linecap:round;stroke-linejoin:round;stroke-width:6;stroke:#ffc732"/>
 <path d="m16 40 8-8 8 8" style="fill:none;stroke-linecap:round;stroke-linejoin:round;stroke-width:6;stroke:#ffc732"/>
 <circle cx="24" cy="15" r="4" style="fill:#090400;opacity:.2"/>
 <circle cx="24" cy="14" r="4" style="fill:#ffffff"/>
 <path d="M 24 4 A 10 10 0 0 0 14 14 A 10 10 0 0 0 14.021484 14.585938 A 10 10 0 0 1 24 5 A 10 10 0 0 1 33.978516 14.414062 A 10 10 0 0 0 34 14 A 10 10 0 0 0 24 4 z " style="fill:#ffffff;opacity:.1"/>
 <path d="m15.914062 23.984375a3.0003 3.0003 0 0 0-2.912109 3.494141 3.0003 3.0003 0 0 1 2.912109-2.494141 3.0003 3.0003 0 0 1 1.171876 0.21875s1.190099 0.460863 2.71875 0.925781c1.528648 0.464918 3.473558 0.871094 4.195312 0.871094s2.666663-0.406176 4.195312-0.871094c1.528651-0.464918 2.71875-0.925781 2.71875-0.925781a3.0003 3.0003 0 0 1 4.046876 2.292969 3.0003 3.0003 0 0 0-4.046876-3.292969s-1.190099 0.460863-2.71875 0.925781c-1.528649 0.464918-3.473558 0.871094-4.195312 0.871094s-2.666663-0.406176-4.195312-0.871094c-1.528651-0.464918-2.71875-0.925781-2.71875-0.925781a3.0003 3.0003 0 0 0-1.171876-0.21875zm3.578126 8.28125-5.613282 5.613281a3.0003 3.0003 0 0 0-0.876953 2.66211 3.0003 3.0003 0 0 1 0.876953-1.66211l6.396485-6.396484c-0.272976-0.0669-0.517258-0.145441-0.783203-0.216797zm9.015624 0c-0.265945 0.071356-0.510227 0.149897-0.783203 0.216797l6.396485 6.396484a3.0003 3.0003 0 0 1 0.878906 1.667969 3.0003 3.0003 0 0 0-0.878906-2.667969l-5.613282-5.613281z" style="color-rendering:auto;color:#000000;dominant-baseline:auto;fill:#ffffff;font-feature-settings:normal;font-variant-alternates:normal;font-variant-caps:normal;font-variant-ligatures:normal;font-variant-numeric:normal;font-variant-position:normal;image-rendering:auto;isolation:auto;mix-blend-mode:normal;opacity:.1;shape-padding:0;shape-rendering:auto;solid-color:#000000;text-decoration-color:#000000;text-decoration-line:none;text-decoration-style:solid;text-indent:0;text-orientation:mixed;text-transform:none;white-space:normal"/>
</svg>
