<svg width="48" height="48" version="1" xmlns="http://www.w3.org/2000/svg">
 <path d="m19 4.75c-0.274743 3.775e-4 -0.548132 0.038494-0.8125 0.1132812-0.02925 0.00779-0.04892 0.0061-0.08008 0.015625-8.1857876 2.5034028-14.10742 10.094157-14.10742 19.121094 0 11.08 8.92 20 20 20s20-8.92 20-20c0-0.80429-0.05195-1.595577-0.146484-2.373047-0.0026-0.02514-0.0026-0.0512-0.0059-0.07617-7.86e-4 -6e-3 -0.0031-0.01155-0.0039-0.01758-0.0016-0.0129-0.0023-0.02617-0.0039-0.03906-0.0087-0.0681-0.0296-0.112299-0.04297-0.171875-0.286932-1.357678-1.480744-2.38086-2.923828-2.38086-1.656854 0-3 1.343146-3 3 0 0.121555 0.0055 0.241603 0.01953 0.359375 0.0011 0.0094 0.0047 0.01797 0.0059 0.02734 7e-4 0.0069-8.42e-4 0.01256 0 0.01953 0.06604 0.547738-2.485576 1.099478-2.484645 1.652344 0 7.731986-4.005083 11.306034-11.737069 11.306034s-9.689655-3.358531-9.689655-11.090517c0.0065-6.242733 0.13817-11.846594 5.960197-13.602236 0.106469-0.03211 0.179349-0.07101 0.240234-0.111328 1.098965-0.473698 1.811287-1.5552311 1.81249-2.75195 0-1.6568542-1.343146-3-3-3z" style="fill:#3eb5ea;stroke-width:1.0000501"/>
 <circle cx="24" cy="25" r="14" style="fill:#000000;opacity:.2"/>
 <circle cx="24" cy="24" r="14" style="fill:#545454"/>
 <path d="m4.0117 24.5c-0.0041 0.167-0.0117 0.332-0.0117 0.5 0 11.08 8.92 20 20 20s20-8.92 20-20c0-0.168-8e-3 -0.333-0.012-0.5-0.264 10.846-9.076 19.5-19.988 19.5s-19.724-8.654-19.988-19.5z" opacity=".2"/>
 <path d="m26.525105 3.0006974a2.4660264 2.4291252 0 0 0-2.525105 2.4278262v17.145173a2.4660264 2.4291252 0 0 0 3.697093 2.101967l7.5398-4.282713 7.536242-4.289876a2.4660264 2.4291252 0 0 0 0-4.200351l-7.536242-4.2898746-7.5398-4.2827117a2.4660264 2.4291252 0 0 0-1.171988-0.3294403z" style="fill:#000000;opacity:.2"/>
 <path d="m26.525105 2.0006975a2.4660264 2.4291252 0 0 0-2.525105 2.4278262v17.145173a2.4660264 2.4291252 0 0 0 3.697093 2.101967l7.5398-4.282713 7.536242-4.289876a2.4660264 2.4291252 0 0 0 0-4.200351l-7.536242-4.2898745-7.5398-4.2827117a2.4660264 2.4291252 0 0 0-1.171988-0.3294403z" style="fill:#fdfdfd"/>
 <path d="m19 4.75c-0.274743 3.775e-4 -0.548132 0.038494-0.8125 0.1132812-0.02925 0.00779-0.04892 0.0061-0.08008 0.015625-8.1857877 2.5034028-14.10742 10.094157-14.10742 19.121094 0 0.209195 0.00931 0.415437 0.015625 0.623047 0.1634535-8.859498 6.021095-16.275934 14.091797-18.744141 0.03116-0.00953 0.05083-0.00784 0.08008-0.015625 0.264366-0.0747871 0.537755-0.1129037 0.812498-0.1132812 1.489832 0 2.717081 1.0881646 2.951172 2.5117188 0.029121-0.1672724 0.048653-0.3380927 0.048828-0.5117188 0-1.6568542-1.343146-3-3-3zm21.873047 14.191406c-1.656854 0-3 1.343146-3 3 0 0.121555 0.0055 0.241603 0.01953 0.359375 0.0011 0.0094 0.0047 0.01797 0.0059 0.02734 7e-4 0.0069-8.42e-4 0.01256 0 0.01953 0.0084 0.06994 0.0063 0.140875 0.01367 0.210938 0.189637-1.474283 1.435055-2.617188 2.960938-2.617188 1.443084 0 2.636896 1.023182 2.923828 2.38086 0.01337 0.05958 0.03427 0.103775 0.04297 0.171875 0.0016 0.01289 0.0023 0.02616 0.0039 0.03906 8e-4 6e-3 0.0031 0.01158 0.0039 0.01758 0.0033 0.02497 0.0033 0.05103 0.0059 0.07617 0.07703 0.633518 0.117398 1.278262 0.132812 1.929688 0.004977-0.185628 0.013605-0.369738 0.013605-0.556634 0-0.80429-0.05195-1.595577-0.146484-2.373047-0.0026-0.02514-0.0026-0.0512-0.0059-0.07617-7.86e-4 -6e-3 -0.0031-0.01155-0.0039-0.01758-0.0016-0.0129-0.0023-0.02617-0.0039-0.03906-0.0087-0.0681-0.0296-0.112299-0.04297-0.171875-0.286932-1.357678-1.480744-2.38086-2.923828-2.38086z" style="fill:#ffffff;opacity:.1;stroke-width:1.0000501"/>
</svg>
