<?xml version="1.0" encoding="UTF-8" standalone="no"?>
<svg
   width="192"
   height="192"
   version="1"
   id="svg14"
   sodipodi:docname="app_getcontact.svg"
   inkscape:version="1.1-rc (1:1.1+rc+202105232036+f4db50c7c1)"
   xmlns:inkscape="http://www.inkscape.org/namespaces/inkscape"
   xmlns:sodipodi="http://sodipodi.sourceforge.net/DTD/sodipodi-0.dtd"
   xmlns="http://www.w3.org/2000/svg"
   xmlns:svg="http://www.w3.org/2000/svg"
   xmlns:rdf="http://www.w3.org/1999/02/22-rdf-syntax-ns#"
   xmlns:cc="http://creativecommons.org/ns#"
   xmlns:dc="http://purl.org/dc/elements/1.1/">
  <metadata
     id="metadata20">
    <rdf:RDF>
      <cc:Work
         rdf:about="">
        <dc:format>image/svg+xml</dc:format>
        <dc:type
           rdf:resource="http://purl.org/dc/dcmitype/StillImage" />
      </cc:Work>
    </rdf:RDF>
  </metadata>
  <defs
     id="defs18">
    <filter
       inkscape:collect="always"
       style="color-interpolation-filters:sRGB"
       id="filter2528"
       x="-0.048000015"
       y="-0.047999981"
       width="1.096"
       height="1.096">
      <feGaussianBlur
         inkscape:collect="always"
         stdDeviation="3.1999999"
         id="feGaussianBlur2530" />
    </filter>
    <filter
       inkscape:collect="always"
       style="color-interpolation-filters:sRGB"
       id="filter2532"
       x="-0.048082339"
       y="-0.048078111"
       width="1.0961647"
       height="1.0961562">
      <feGaussianBlur
         inkscape:collect="always"
         stdDeviation="2.2265864"
         id="feGaussianBlur2534" />
    </filter>
  </defs>
  <sodipodi:namedview
     pagecolor="#ffffff"
     bordercolor="#666666"
     borderopacity="1"
     objecttolerance="10"
     gridtolerance="10"
     guidetolerance="10"
     inkscape:pageopacity="0"
     inkscape:pageshadow="2"
     inkscape:window-width="1920"
     inkscape:window-height="1014"
     id="namedview16"
     showgrid="false"
     inkscape:zoom="2.49"
     inkscape:cx="95.783133"
     inkscape:cy="95.783133"
     inkscape:window-x="0"
     inkscape:window-y="34"
     inkscape:window-maximized="1"
     inkscape:current-layer="svg14"
     inkscape:document-rotation="0"
     inkscape:pagecheckerboard="0"
     showguides="false">
    <inkscape:grid
       type="xygrid"
       id="grid1913" />
  </sodipodi:namedview>
  <path
     id="path2488"
     style="opacity:0.2;fill:#000000;stroke-width:0.447396;filter:url(#filter2528)"
     d="m 95.474609,20.000076 c -12.409926,0.09398 -25.919307,5.232488 -38.714843,14.816406 -5.73054,4.292204 -18.952052,17.163452 -23.738282,23.109375 -22.95296,28.514408 -22.691513,57.054173 0.779297,85.111333 4.37114,5.22527 16.083516,16.79584 20.697266,20.44727 12.09631,9.57325 24.542954,15.05953 37.246094,16.41601 1.100005,0.11746 2.614425,0.11788 4.255859,0.0684 1.641434,0.0495 3.155851,0.0491 4.25586,-0.0684 12.70314,-1.35648 25.14978,-6.84276 37.24609,-16.41601 1.22236,-0.96741 2.9676,-2.52203 4.91797,-4.33594 l 14.2168,14.21679 a 9.0002883,9.0001441 0 0 0 12.72851,0 9.0002883,9.0001441 0 0 0 0,-12.72656 l -14.22656,-14.22656 c 1.11868,-1.20771 2.30552,-2.47244 3.06055,-3.375 23.47081,-28.05716 23.73226,-56.596925 0.7793,-85.111333 C 154.19229,51.979934 140.97077,39.108686 135.24023,34.816482 122.4447,25.232564 108.93532,20.094057 96.525391,20.000076 c -0.17624,-0.0013 -0.3496,0.01102 -0.525391,0.01172 -0.175791,-7.02e-4 -0.349151,-0.01305 -0.525391,-0.01172 z" />
  <path
     id="path940"
     style="opacity:1;fill:#0079fe;stroke-width:0.447396"
     d="M 95.474609 16 C 83.064683 16.09398 69.555302 21.232488 56.759766 30.816406 C 51.029226 35.10861 37.807714 47.979858 33.021484 53.925781 C 10.068524 82.440189 10.329971 110.97995 33.800781 139.03711 C 38.171921 144.26238 49.884297 155.83295 54.498047 159.48438 C 66.594357 169.05763 79.041001 174.54391 91.744141 175.90039 C 92.844146 176.01785 94.358566 176.01827 96 175.96875 C 97.641434 176.01825 99.155851 176.01789 100.25586 175.90039 C 112.959 174.54391 125.40564 169.05763 137.50195 159.48438 C 138.72431 158.51697 140.46955 156.96235 142.41992 155.14844 L 156.63672 169.36523 A 9.0002883 9.0001441 0 0 0 169.36523 169.36523 A 9.0002883 9.0001441 0 0 0 169.36523 156.63867 L 155.13867 142.41211 C 156.25735 141.2044 157.44419 139.93967 158.19922 139.03711 C 181.67003 110.97995 181.93148 82.440189 158.97852 53.925781 C 154.19229 47.979858 140.97077 35.10861 135.24023 30.816406 C 122.4447 21.232488 108.93532 16.093981 96.525391 16 C 96.349151 15.9987 96.175791 16.011019 96 16.011719 C 95.824209 16.011017 95.650849 15.99867 95.474609 16 z " />
  <path
     id="path2490"
     style="opacity:0.2;fill:#000000;stroke-width:24.1577;stroke-linecap:round;stroke-linejoin:round;filter:url(#filter2532)"
     d="m 96,46.999747 a 52,52 0 0 0 -52,52.000004 52,52 0 0 0 52,51.999999 52,52 0 0 0 29.77344,-9.49805 l 16.64648,16.64649 c 4.13965,-3.85003 9.07686,-8.80458 12.71875,-12.73633 L 138.50195,128.77514 A 52,52 0 0 0 148,98.999751 52,52 0 0 0 96,46.999747 Z m -6.503906,23 c 0.862396,-0.01169 1.557934,0.271938 2.171875,0.839844 2.043108,1.8899 1.691662,4.895462 -0.748047,6.388672 -8.270783,5.06207 -12.430828,8.773713 -16.140625,14.404296 -3.043087,4.618662 -5.100475,5.45857 -7.509766,3.066407 -1.976898,-1.962822 -1.744009,-3.290422 1.394531,-7.949219 4.274997,-6.345719 10.137606,-11.756542 16.492188,-15.224609 1.84602,-1.007482 3.231048,-1.510366 4.339844,-1.525391 z M 118.60938,71.0017 c 1.38934,-0.04248 2.76917,0.852943 5.10546,3.097656 5.15081,4.948913 7.28516,9.605859 7.28516,15.892579 0,4.426021 -0.86968,7.781188 -3.30664,12.749995 -2.73199,5.5704 -6.3464,10.23109 -12.80859,16.52149 -6.61479,6.43895 -13.20318,11 -18.957036,13.12305 -3.26568,1.20498 -4.630808,1.45884 -8.560546,1.58594 -2.986274,0.0966 -5.397913,-0.0613 -6.677735,-0.43555 -3.717252,-1.08684 -6.689323,-2.95505 -9.855469,-6.19922 -1.723982,-1.76646 -3.327272,-3.70562 -3.564453,-4.30859 -0.953388,-2.42372 0.593277,-4.87743 5.246094,-8.32032 4.327429,-3.20213 7.22753,-4.62469 9.351563,-4.58593 2.508611,0.0457 2.96095,0.31974 6.791015,4.10156 3.152808,3.11309 3.649199,3.44049 5.214844,3.43164 3.564693,-0.0201 8.267803,-3.1435 14.220703,-9.44336 4.14405,-4.38557 6.11141,-7.70463 6.16992,-10.414065 0.0383,-1.774817 -0.16906,-2.107895 -3.37305,-5.402344 -3.78036,-3.887143 -4.45743,-5.527403 -3.54101,-8.58789 1.06829,-3.5677 7.2396,-11.392358 9.83203,-12.466797 0.50127,-0.207754 0.96461,-0.325684 1.42774,-0.339844 z" />
  <path
     id="path1547"
     style="opacity:1;fill:#ffffff;stroke-width:24.1577;stroke-linecap:round;stroke-linejoin:round"
     d="M 96 44 A 52 52 0 0 0 44 96 A 52 52 0 0 0 96 148 A 52 52 0 0 0 125.77344 138.50195 L 142.41992 155.14844 C 146.55957 151.29841 151.49678 146.34386 155.13867 142.41211 L 138.50195 125.77539 A 52 52 0 0 0 148 96 A 52 52 0 0 0 96 44 z M 89.496094 67 C 90.35849 66.988314 91.054028 67.271938 91.667969 67.839844 C 93.711077 69.729744 93.359631 72.735306 90.919922 74.228516 C 82.649139 79.290586 78.489094 83.002229 74.779297 88.632812 C 71.73621 93.251474 69.678822 94.091382 67.269531 91.699219 C 65.292633 89.736397 65.525522 88.408797 68.664062 83.75 C 72.939059 77.404281 78.801668 71.993458 85.15625 68.525391 C 87.00227 67.517909 88.387298 67.015025 89.496094 67 z M 118.60938 68.001953 C 119.99872 67.959474 121.37855 68.854896 123.71484 71.099609 C 128.86565 76.048522 131 80.705468 131 86.992188 C 131 91.418209 130.13032 94.773376 127.69336 99.742188 C 124.96137 105.31258 121.34696 109.97327 114.88477 116.26367 C 108.26998 122.70262 101.68159 127.26367 95.927734 129.38672 C 92.662054 130.5917 91.296926 130.84556 87.367188 130.97266 C 84.380914 131.06926 81.969275 130.91131 80.689453 130.53711 C 76.972201 129.45027 74.00013 127.58206 70.833984 124.33789 C 69.110002 122.57143 67.506712 120.63227 67.269531 120.0293 C 66.316143 117.60558 67.862808 115.15187 72.515625 111.70898 C 76.843054 108.50685 79.743155 107.08429 81.867188 107.12305 C 84.375799 107.16875 84.828138 107.44279 88.658203 111.22461 C 91.811011 114.3377 92.307402 114.6651 93.873047 114.65625 C 97.43774 114.63615 102.14085 111.51275 108.09375 105.21289 C 112.2378 100.82732 114.20516 97.50826 114.26367 94.798828 C 114.30197 93.024011 114.09461 92.690933 110.89062 89.396484 C 107.11026 85.509341 106.43319 83.869081 107.34961 80.808594 C 108.4179 77.240894 114.58921 69.416236 117.18164 68.341797 C 117.68291 68.134043 118.14625 68.016113 118.60938 68.001953 z " />
  <path
     id="path2536"
     style="opacity:0.2;fill:#ffffff;stroke-width:0.447396"
     d="M 95.474609 16 C 83.064683 16.09398 69.555302 21.232488 56.759766 30.816406 C 51.029226 35.10861 37.807714 47.979858 33.021484 53.925781 C 21.459281 68.289479 15.79527 82.659067 16.013672 96.970703 C 16.068292 82.989719 21.728534 68.954986 33.021484 54.925781 C 37.807714 48.979858 51.029226 36.10861 56.759766 31.816406 C 69.555302 22.232488 83.064683 17.09398 95.474609 17 C 95.650849 16.99867 95.824209 17.011017 96 17.011719 C 96.175791 17.011019 96.349151 16.9987 96.525391 17 C 108.93532 17.093981 122.4447 22.232488 135.24023 31.816406 C 140.97077 36.10861 154.19229 48.979858 158.97852 54.925781 C 170.27147 68.954986 175.93171 82.989719 175.98633 96.970703 C 176.20473 82.659067 170.54072 68.289479 158.97852 53.925781 C 154.19229 47.979858 140.97077 35.10861 135.24023 30.816406 C 122.4447 21.232488 108.93532 16.093981 96.525391 16 C 96.349151 15.9987 96.175791 16.011019 96 16.011719 C 95.824209 16.011017 95.650849 15.99867 95.474609 16 z M 155.61328 142.88672 C 155.43802 143.07558 155.31252 143.22443 155.13867 143.41211 L 169.36523 157.63867 A 9.0002883 9.0001441 0 0 1 171.97852 163.35938 A 9.0002883 9.0001441 0 0 0 169.36523 156.63867 L 155.61328 142.88672 z " />
</svg>
