<?xml version="1.0" encoding="UTF-8" standalone="no"?>
<svg
   width="192"
   height="192"
   version="1"
   id="svg28"
   sodipodi:docname="apps_cricket_exchange.svg"
   inkscape:version="1.1.1 (1:1.1+202109281949+c3084ef5ed)"
   xmlns:inkscape="http://www.inkscape.org/namespaces/inkscape"
   xmlns:sodipodi="http://sodipodi.sourceforge.net/DTD/sodipodi-0.dtd"
   xmlns="http://www.w3.org/2000/svg"
   xmlns:svg="http://www.w3.org/2000/svg"
   xmlns:rdf="http://www.w3.org/1999/02/22-rdf-syntax-ns#"
   xmlns:cc="http://creativecommons.org/ns#"
   xmlns:dc="http://purl.org/dc/elements/1.1/">
  <metadata
     id="metadata34">
    <rdf:RDF>
      <cc:Work
         rdf:about="">
        <dc:format>image/svg+xml</dc:format>
        <dc:type
           rdf:resource="http://purl.org/dc/dcmitype/StillImage" />
      </cc:Work>
    </rdf:RDF>
  </metadata>
  <defs
     id="defs32">
    <filter
       inkscape:collect="always"
       style="color-interpolation-filters:sRGB"
       id="filter5924"
       x="-0.057072139"
       y="-0.041416475"
       width="1.1141443"
       height="1.0828329">
      <feGaussianBlur
         inkscape:collect="always"
         stdDeviation="2.761306"
         id="feGaussianBlur5926" />
    </filter>
    <filter
       inkscape:collect="always"
       style="color-interpolation-filters:sRGB"
       id="filter5928"
       x="-0.026557426"
       y="-0.24922657"
       width="1.0531149"
       height="1.4984531">
      <feGaussianBlur
         inkscape:collect="always"
         stdDeviation="1.2461328"
         id="feGaussianBlur5930" />
    </filter>
    <filter
       inkscape:collect="always"
       style="color-interpolation-filters:sRGB"
       id="filter5932"
       x="-0.047999999"
       y="-0.047999999"
       width="1.096"
       height="1.096">
      <feGaussianBlur
         inkscape:collect="always"
         stdDeviation="1.8"
         id="feGaussianBlur5934" />
    </filter>
  </defs>
  <sodipodi:namedview
     pagecolor="#ffffff"
     bordercolor="#666666"
     borderopacity="1"
     objecttolerance="10"
     gridtolerance="10"
     guidetolerance="10"
     inkscape:pageopacity="0"
     inkscape:pageshadow="2"
     inkscape:window-width="1920"
     inkscape:window-height="1019"
     id="namedview30"
     showgrid="false"
     inkscape:zoom="1"
     inkscape:cx="77.5"
     inkscape:cy="113.5"
     inkscape:window-x="0"
     inkscape:window-y="34"
     inkscape:window-maximized="1"
     inkscape:current-layer="svg28"
     inkscape:pagecheckerboard="0">
    <inkscape:grid
       type="xygrid"
       id="grid841" />
  </sodipodi:namedview>
  <path
     id="path5882"
     style="opacity:0.2;fill:#000000;fill-opacity:1;stroke-width:0.4826;filter:url(#filter5924)"
     d="m 80.572266,20.015625 c -4.809375,-0.149779 -9.528704,0.747026 -14.3125,2.662109 -5.10867,2.04514 -8.339147,6.375257 -8.373047,11.222657 -0.0076,1.0884 -0.655334,0.669103 -4.598414,-3.435547 -4.38982,-4.56971 -5.802888,-5.665797 -8.111328,-5.339047 -1.03773,0.14689 -1.133682,0.389406 -1.113282,2.816406 0.01319,1.57076 0.669562,4.963971 1.607422,8.022641 1.74124,5.67874 1.69928,6.541432 -0.43164,8.826172 -3.21,3.44171 -20.343649,31.288672 -20.343649,32.945312 0,0.71978 1.355851,3.104326 3.363281,5.916016 5.18585,7.26351 5.725793,7.267465 15.289063,0.134765 5.75128,-4.28957 8.50025,-5.9375 10.68425,-5.9375 0.62843,0 2.269497,0.77606 3.648437,1.72461 3.42738,2.35762 5.803177,3.104197 9.847657,3.091797 3.94443,-0.01216 6.877219,-1.100945 9.318359,-3.458985 2.87008,-2.77239 3.98222,-0.754103 1.875,3.404297 -3.06926,6.05691 -8.249214,11.059217 -19.052734,18.404302 -9.882888,7.74662 -18.309541,13.53143 -25.649064,22.49112 -9.169394,11.29809 -6.423526,21.69641 -10.071639,36.72372 -0.46495,1.73913 -0.896919,2.21749 -3.048829,3.37695 -3.90192,2.10237 -5.720589,5.60561 -4.974609,9.58203 2.345731,7.56843 8.486857,6.78272 13.723579,6.81055 H 130.88348 c 0.10056,0 -1.63011,-1.91406 -3.62305,-3.41406 -5.41974,-4.07922 -8.70316,-7.60678 -12.35547,-13.27539 -1.80982,-2.80893 -9.24023,-27.1875 -9.24023,-27.1875 0,0 0.60433,-2.55645 0.75977,-4.94532 0.15545,-2.38888 0.75494,-6.18915 1.33203,-8.44531 5.4957,-21.48589 -4.69602,-17.02718 17.70441,-19.40832 2.78703,-0.29625 5.37083,-0.81335 5.74218,-1.15039 0.60112,-0.54558 0.77875,-9.315729 0.79688,-17.879812 1.15605,-22.047233 -10.46329,-44.00525 -25.89258,-54.684523 -9.250993,-6.187887 -17.519531,-9.344119 -25.535154,-9.59375 z"
     sodipodi:nodetypes="ssssssssssssscsscccsccssscscssccs" />
  <path
     id="path1249"
     style="fill:#3f3f3f;fill-opacity:1;stroke-width:0.4826"
     d="m 80.572266,16.015625 c -4.809375,-0.149779 -9.528704,0.747026 -14.3125,2.662109 -5.10867,2.04514 -8.339147,6.375257 -8.373047,11.222657 -0.0076,1.0884 -0.655334,0.669103 -4.598414,-3.435547 -4.38982,-4.56971 -5.802888,-5.665797 -8.111328,-5.339047 -1.03773,0.14689 -1.133682,0.389406 -1.113282,2.816406 0.01319,1.57076 0.669562,4.963971 1.607422,8.022641 1.74124,5.67874 1.69928,6.541432 -0.43164,8.826172 -3.21,3.44171 -20.343649,31.288672 -20.343649,32.945312 0,0.71978 1.355851,3.104326 3.363281,5.916016 5.18585,7.26351 5.725793,7.267465 15.289063,0.134765 5.75128,-4.28957 8.50025,-5.9375 10.68425,-5.9375 0.62843,0 2.269497,0.77606 3.648437,1.72461 3.42738,2.35762 5.803177,3.438181 9.847657,3.425781 3.94443,-0.01216 6.877219,-1.434929 9.318359,-3.792969 2.87008,-2.77239 3.98222,-0.754103 1.875,3.404297 -3.06926,6.05691 -8.249214,11.059217 -19.052734,18.404297 -9.882888,7.746625 -18.309541,13.531435 -25.649064,22.491125 -9.169394,11.29809 -6.423526,21.69641 -10.071639,36.72372 -0.46495,1.73913 -0.896919,2.21749 -3.048829,3.37695 -3.90192,2.10237 -5.720589,5.60561 -4.974609,9.58203 2.345731,7.56843 8.486857,6.78272 13.723579,6.81055 H 130.88348 c 0.10056,0 -1.63011,-1.91406 -3.62305,-3.41406 -5.41974,-4.07922 -8.70316,-7.60678 -12.35547,-13.27539 -1.80982,-2.80893 -9.24023,-27.1875 -9.24023,-27.1875 0,0 0.60433,-2.55645 0.75977,-4.94532 0.15545,-2.38888 0.75494,-6.18915 1.33203,-8.44531 5.4957,-21.485889 -4.69602,-17.02718 17.70441,-19.408319 2.78703,-0.29625 5.37083,-0.813355 5.74218,-1.15039 0.60112,-0.545584 0.77875,-9.31573 0.79688,-17.879813 1.15605,-22.047233 -10.46329,-44.00525 -25.89258,-54.684523 -9.250993,-6.187887 -17.519531,-9.344119 -25.535154,-9.59375 z"
     sodipodi:nodetypes="ssssssssssssscsscccsccssscscssccs" />
  <path
     id="path5938"
     style="opacity:0.1;fill:#ffffff;fill-opacity:1;stroke-width:0.4826"
     d="m 80.572266,16.015625 c -4.809375,-0.149779 -9.528704,0.747026 -14.3125,2.662109 -5.10867,2.04514 -8.339147,6.375257 -8.373047,11.222657 -0.0076,1.0884 -0.654576,0.669103 -4.597657,-3.435547 -4.38982,-4.56971 -5.802888,-5.666594 -8.111328,-5.339844 -1.03773,0.14689 -1.133681,0.389406 -1.113281,2.816406 3.08e-4,0.03664 0.01072,0.100078 0.01172,0.138672 0.02794,-1.548225 0.219,-1.828199 1.101562,-1.953125 2.30844,-0.32675 3.721508,0.768181 8.111328,5.337891 3.943081,4.10465 4.590057,4.523947 4.597657,3.435547 0.0339,-4.8474 3.264377,-9.177517 8.373047,-11.222657 4.783796,-1.915083 9.503125,-2.811888 14.3125,-2.662109 8.015623,0.249631 16.284163,3.405863 25.535153,9.59375 14.40908,9.973142 25.48769,29.783677 25.94922,50.316406 C 131.93993,56.038514 120.75028,35.744326 106.10742,25.609375 96.856429,19.421488 88.587889,16.265256 80.572266,16.015625 Z M 46.871094,37.875 c -0.115699,1.08068 -0.636503,1.849882 -1.63086,2.916016 -3.21,3.44171 -20.34375,31.288672 -20.34375,32.945312 0,0.113204 0.08801,0.332691 0.152344,0.523438 1.531469,-3.90894 17.139332,-29.196366 20.191406,-32.46875 1.272007,-1.363826 1.782509,-2.238768 1.63086,-3.916016 z m 33.072265,37.820312 c -0.115795,0.772068 -0.42872,1.746253 -1.021484,2.916016 -3.06926,6.05691 -8.249214,11.059217 -19.052734,18.404297 -9.882888,7.746625 -18.308915,13.530545 -25.648438,22.490235 -9.169394,11.29809 -6.424153,21.6973 -10.072265,36.72461 -0.464951,1.73913 -0.896919,2.21749 -3.048829,3.37695 -3.52198,1.89766 -5.326252,4.94134 -5.099609,8.43946 0.15127,-3.0731 1.918836,-5.72565 5.099609,-7.43946 2.15191,-1.15946 2.583878,-1.63782 3.048829,-3.37695 3.648112,-15.02731 0.902871,-25.42457 10.072265,-36.72266 7.339523,-8.95969 15.76555,-14.74556 25.648438,-22.492185 10.80352,-7.34508 15.983474,-12.347387 19.052734,-18.404297 0.901504,-1.779034 1.184009,-3.127925 1.021484,-3.916016 z"
     sodipodi:nodetypes="sssssscsscsscccscsscsccscccscscccsc" />
  <path
     style="color:#000000;opacity:0.2;fill:#000000;fill-opacity:1;stroke-linecap:round;stroke-linejoin:round;-inkscape-stroke:none;filter:url(#filter5928)"
     d="m 23,139.00028 a 6,6 0 0 0 -6,6 6,6 0 0 0 6,6 h 100.61328 a 6,6 0 0 0 6,-6 6,6 0 0 0 -6,-6 z"
     id="path5884" />
  <path
     style="color:#000000;fill:#4f4f4f;fill-opacity:1;stroke-linecap:round;stroke-linejoin:round;-inkscape-stroke:none"
     d="m 23,137 a 6,6 0 0 0 -6,6 6,6 0 0 0 6,6 h 100.61328 a 6,6 0 0 0 6,-6 6,6 0 0 0 -6,-6 z"
     id="path2743" />
  <path
     id="path5940"
     style="color:#000000;opacity:0.1;fill:#ffffff;fill-opacity:1;stroke-linecap:round;stroke-linejoin:round;-inkscape-stroke:none"
     d="m 23,137 a 6,6 0 0 0 -6,6 6,6 0 0 0 0.07813,0.5 A 6,6 0 0 1 23,138 h 100.61328 a 6,6 0 0 1 5.95703,5.27539 6,6 0 0 0 0.043,-0.27539 6,6 0 0 0 -6,-6 z" />
  <circle
     style="opacity:0.2;fill:#000000;fill-opacity:1;stroke-width:13.5;stroke-linecap:round;stroke-linejoin:round;stroke-miterlimit:4;stroke-dasharray:none;filter:url(#filter5932)"
     id="circle5886"
     cx="131"
     cy="141.36"
     r="45" />
  <circle
     style="fill:#c13224;fill-opacity:1;stroke-width:13.5;stroke-linecap:round;stroke-linejoin:round;stroke-miterlimit:4;stroke-dasharray:none"
     id="path3267"
     cx="131"
     cy="139"
     r="45" />
  <path
     id="path4055"
     style="color:#000000;fill:#ffffff;fill-opacity:1;-inkscape-stroke:none"
     d="m 92.384766,116.0625 a 45,45 0 0 0 -0.480469,0.87891 l 1.910156,0.91992 0.433594,-0.90235 z m 7.269531,3.5 -0.433594,0.90039 5.406247,2.60352 0.4336,-0.90039 z m -9.572266,0.7168 A 45,45 0 0 0 89.375,122.16016 l 80.73438,38.87109 a 45,45 0 0 0 0.96093,-1.75781 z m 20.384769,4.48828 -0.4336,0.90234 5.40625,2.60156 0.4336,-0.90039 z m -22.199222,0.36133 a 45,45 0 0 0 -0.351562,0.9414 l 3.529296,1.69727 0.433594,-0.90039 z m 9.017578,4.34179 -0.433594,0.90039 5.406248,2.60352 0.4336,-0.90234 z m 23.994144,0.50391 -0.43555,0.90039 5.40625,2.60352 0.43359,-0.9004 z m -13.18164,4.70117 -0.4336,0.90039 5.4043,2.60352 0.43555,-0.90039 z m 23.99218,0.50391 -0.43359,0.90039 5.40625,2.60351 0.43359,-0.90039 z m -13.18164,4.70117 -0.43359,0.90234 5.40625,2.60157 0.43359,-0.90039 z m 23.99414,0.50586 -0.43359,0.90039 5.40625,2.60351 0.43359,-0.90234 z m -13.18164,4.70117 -0.43359,0.90039 5.40625,2.60352 0.43359,-0.90235 z m 23.99414,0.50391 -0.43359,0.90039 5.40625,2.60351 0.43359,-0.90039 z m -13.18164,4.70117 -0.43359,0.90039 5.40625,2.60352 0.43359,-0.9004 z m 23.99414,0.50391 -0.43359,0.90234 5.4043,2.60156 0.43359,-0.90039 z m -13.18164,4.70117 -0.43359,0.90234 5.4043,2.60156 0.43554,-0.90039 z m 10.81055,5.20703 -0.43359,0.90039 5.40625,2.60351 0.43359,-0.90234 z" />
</svg>
