<?xml version="1.0" encoding="UTF-8" standalone="no"?>
<svg
   width="192"
   height="192"
   version="1"
   id="svg28"
   sodipodi:docname="apps_1dm_browser_plus.svg"
   inkscape:version="1.1.1 (1:1.1+202109281949+c3084ef5ed)"
   xmlns:inkscape="http://www.inkscape.org/namespaces/inkscape"
   xmlns:sodipodi="http://sodipodi.sourceforge.net/DTD/sodipodi-0.dtd"
   xmlns="http://www.w3.org/2000/svg"
   xmlns:svg="http://www.w3.org/2000/svg"
   xmlns:rdf="http://www.w3.org/1999/02/22-rdf-syntax-ns#"
   xmlns:cc="http://creativecommons.org/ns#"
   xmlns:dc="http://purl.org/dc/elements/1.1/">
  <metadata
     id="metadata34">
    <rdf:RDF>
      <cc:Work
         rdf:about="">
        <dc:format>image/svg+xml</dc:format>
        <dc:type
           rdf:resource="http://purl.org/dc/dcmitype/StillImage" />
      </cc:Work>
    </rdf:RDF>
  </metadata>
  <defs
     id="defs32">
    <filter
       inkscape:collect="always"
       style="color-interpolation-filters:sRGB"
       id="filter4928"
       x="-0.040028656"
       y="-0.060220102"
       width="1.0800573"
       height="1.1204402">
      <feGaussianBlur
         inkscape:collect="always"
         stdDeviation="2.8353632"
         id="feGaussianBlur4930" />
    </filter>
    <filter
       inkscape:collect="always"
       style="color-interpolation-filters:sRGB"
       id="filter4988"
       x="-0.075"
       y="-0.075"
       width="1.15"
       height="1.15">
      <feGaussianBlur
         inkscape:collect="always"
         stdDeviation="2.6875"
         id="feGaussianBlur4990" />
    </filter>
    <filter
       inkscape:collect="always"
       style="color-interpolation-filters:sRGB"
       id="filter955"
       x="-0.074999992"
       y="-0.075000008"
       width="1.15"
       height="1.15">
      <feGaussianBlur
         inkscape:collect="always"
         stdDeviation="1.6875"
         id="feGaussianBlur957" />
    </filter>
  </defs>
  <sodipodi:namedview
     pagecolor="#ffffff"
     bordercolor="#666666"
     borderopacity="1"
     objecttolerance="10"
     gridtolerance="10"
     guidetolerance="10"
     inkscape:pageopacity="0"
     inkscape:pageshadow="2"
     inkscape:window-width="1920"
     inkscape:window-height="1022"
     id="namedview30"
     showgrid="false"
     inkscape:zoom="2.86"
     inkscape:cx="95.454545"
     inkscape:cy="143.00699"
     inkscape:window-x="0"
     inkscape:window-y="34"
     inkscape:window-maximized="1"
     inkscape:current-layer="svg28"
     inkscape:pagecheckerboard="0"
     inkscape:snap-global="true"
     showguides="false"
     inkscape:snap-bbox="true"
     inkscape:snap-bbox-midpoints="true">
    <inkscape:grid
       type="xygrid"
       id="grid841" />
  </sodipodi:namedview>
  <path
     id="path4890"
     style="opacity:0.2;fill:#000000;fill-opacity:1;stroke-width:2.00906;stroke-linecap:round;stroke-linejoin:round;filter:url(#filter4928)"
     d="M 111.5,24 A 39.5,39.5 0 0 0 73.423828,53.175781 20,20 0 0 0 60,48 20,20 0 0 0 40,68 20,20 0 0 0 40.501953,72.214844 32.5,32.5 0 0 0 11,104.5 32.5,32.5 0 0 0 43.5,137 h 105 A 32.5,32.5 0 0 0 181,104.5 32.5,32.5 0 0 0 149.96484,72.035156 39.5,39.5 0 0 0 151,63.5 39.5,39.5 0 0 0 111.5,24 Z" />
  <path
     id="path1195"
     style="fill:#ff9c12;fill-opacity:1;stroke-width:2.00906;stroke-linecap:round;stroke-linejoin:round"
     d="M 111.5,20 A 39.5,39.5 0 0 0 73.423828,49.175781 20,20 0 0 0 60,44 20,20 0 0 0 40,64 20,20 0 0 0 40.501953,68.214844 32.5,32.5 0 0 0 11,100.5 32.5,32.5 0 0 0 43.5,133 h 105 A 32.5,32.5 0 0 0 181,100.5 32.5,32.5 0 0 0 149.96484,68.035156 39.5,39.5 0 0 0 151,59.5 39.5,39.5 0 0 0 111.5,20 Z" />
  <circle
     style="opacity:0.2;fill:#000000;fill-opacity:1;filter:url(#filter4988)"
     cx="143"
     cy="132"
     r="43"
     id="circle4932" />
  <path
     style="opacity:0.2;fill:#000000;fill-opacity:1;stroke-width:1.92857;filter:url(#filter955)"
     d="m 95.999992,56.000006 c -14.911713,0 -26.999998,12.088285 -26.999998,26.999998 C 68.999994,97.911715 81.088279,110 95.999992,110 110.91171,110 123,97.911715 123,83.000004 123,68.088291 110.91171,56.000006 95.999992,56.000006 Z m -2.70452,5.160437 c 0.314785,-0.03279 0.714491,0.0189 1.032081,0 0.0378,0.150582 -0.228572,0.684985 -0.587602,1.469026 -2.286102,4.994206 -2.415525,10.84841 -0.293807,13.97461 0.38394,0.566799 0.730749,1.105098 0.730749,1.17522 0,0.07008 -0.413241,0.143139 -0.881421,0.143139 -1.099064,0 -2.138893,-0.667691 -4.263948,-2.350446 -0.944025,-0.747534 -2.168782,-1.373991 -2.644252,-1.469031 -0.746639,-0.149156 -0.9476,-0.08459 -1.913502,0.881418 -0.898688,0.898525 -1.175225,1.384734 -1.175225,2.207312 0,3.119332 3.701067,5.592223 10.584541,7.051339 9.348024,1.981259 11.652594,3.763043 11.910444,8.678569 0.32373,6.163935 -2.95979,10.813421 -10.147614,14.411551 -0.857907,0.42961 -1.402885,0.59192 -1.76283,0.73075 -0.159488,-0.0143 -0.2779,0.0143 -0.436942,0 -0.06116,-0.19058 -0.15066,-0.63131 -0.15066,-1.46903 0,-3.27386 -1.287395,-6.643434 -3.231859,-8.527905 -0.52196,-0.50591 -1.987881,-1.57572 -3.239397,-2.350444 -1.25147,-0.774677 -2.513546,-1.672697 -2.794925,-2.056636 -0.46629,-0.637153 -0.501385,-1.030285 -0.143139,-2.207321 0.652907,-2.149704 1.427283,-3.350136 2.938059,-4.70842 0.792042,-0.712098 1.587374,-1.304088 1.762835,-1.318361 0.1755,-0.01427 -1.005959,-0.373872 -2.787387,-0.738279 -1.78133,-0.365118 -4.393244,-1.132092 -5.740513,-1.6197 -2.463599,-0.89142 -5.78326,-2.758905 -7.051342,-4.113279 -0.05366,-0.05739 -0.104067,-0.09982 -0.15066,-0.15066 1.816857,-7.237218 6.914109,-13.165246 13.67327,-16.023716 1.41427,-0.598185 2.875611,-1.011111 4.414614,-1.325892 0.766589,-0.156678 1.558922,-0.213339 2.350456,-0.293799 z m 22.058038,11.029016 c 0.55265,0.341589 2.63621,4.856794 3.23187,7.058872 0.76904,2.842895 0.71336,7.760416 0,10.584539 -0.2715,1.074881 -0.615,2.082146 -0.73075,2.207308 -0.11575,0.125163 -0.53831,-0.593976 -1.03208,-1.469023 -0.49383,-0.874905 -2.07169,-2.737694 -3.38254,-4.120818 -3.78372,-3.992586 -4.37987,-6.072219 -2.79492,-9.258646 0.79929,-1.606808 4.28071,-5.266214 4.70842,-5.002232 z"
     id="path917" />
  <path
     style="fill:#3f3f3f;fill-opacity:1;stroke-width:1.92857"
     d="m 95.999992,54.000006 c -14.911713,0 -26.999998,12.088285 -26.999998,26.999998 C 68.999994,95.911715 81.088279,108 95.999992,108 110.91171,108 123,95.911715 123,81.000004 123,66.088291 110.91171,54.000006 95.999992,54.000006 Z m -2.70452,5.160437 c 0.314785,-0.03279 0.714491,0.0189 1.032081,0 0.0378,0.150582 -0.228572,0.684985 -0.587602,1.469026 -2.286102,4.994206 -2.415525,10.84841 -0.293807,13.97461 0.38394,0.566799 0.730749,1.105098 0.730749,1.17522 0,0.07008 -0.413241,0.143139 -0.881421,0.143139 -1.099064,0 -2.138893,-0.667691 -4.263948,-2.350446 -0.944025,-0.747534 -2.168782,-1.373991 -2.644252,-1.469031 -0.746639,-0.149156 -0.9476,-0.08459 -1.913502,0.881418 -0.898688,0.898525 -1.175225,1.384734 -1.175225,2.207312 0,3.119332 3.701067,5.592223 10.584541,7.051339 9.348024,1.981259 11.652594,3.763043 11.910444,8.678569 0.32373,6.163935 -2.95979,10.813421 -10.147614,14.411551 -0.857907,0.42961 -1.402885,0.59192 -1.76283,0.73075 -0.159488,-0.0143 -0.2779,0.0143 -0.436942,0 -0.06116,-0.19058 -0.15066,-0.63131 -0.15066,-1.46903 0,-3.27386 -1.287395,-6.643434 -3.231859,-8.527905 -0.52196,-0.50591 -1.987881,-1.57572 -3.239397,-2.350444 -1.25147,-0.774677 -2.513546,-1.672697 -2.794925,-2.056636 -0.46629,-0.637153 -0.501385,-1.030285 -0.143139,-2.207321 0.652907,-2.149704 1.427283,-3.350136 2.938059,-4.70842 0.792042,-0.712098 1.587374,-1.304088 1.762835,-1.318361 0.1755,-0.01427 -1.005959,-0.373872 -2.787387,-0.738279 -1.78133,-0.365118 -4.393244,-1.132092 -5.740513,-1.6197 -2.463599,-0.89142 -5.78326,-2.758905 -7.051342,-4.113279 -0.05366,-0.05739 -0.104067,-0.09982 -0.15066,-0.15066 1.816857,-7.237218 6.914109,-13.165246 13.67327,-16.023716 1.41427,-0.598185 2.875611,-1.011111 4.414614,-1.325892 0.766589,-0.156678 1.558922,-0.213339 2.350456,-0.293799 z m 22.058038,11.029016 c 0.55265,0.341589 2.63621,4.856794 3.23187,7.058872 0.76904,2.842895 0.71336,7.760416 0,10.584539 -0.2715,1.074881 -0.615,2.082146 -0.73075,2.207308 -0.11575,0.125163 -0.53831,-0.593976 -1.03208,-1.469023 -0.49383,-0.874905 -2.07169,-2.737694 -3.38254,-4.120818 -3.78372,-3.992586 -4.37987,-6.072219 -2.79492,-9.258646 0.79929,-1.606808 4.28071,-5.266214 4.70842,-5.002232 z"
     id="path10" />
  <circle
     style="fill:#1866be;fill-opacity:1"
     cx="143"
     cy="130"
     r="43"
     id="circle16" />
  <rect
     style="fill:#ffffff;fill-opacity:1;stroke:none;stroke-width:4.01598;stroke-linecap:round;stroke-linejoin:round;stroke-miterlimit:4;stroke-dasharray:none;stroke-opacity:1"
     id="rect4586"
     width="12"
     height="56"
     x="137"
     y="102" />
  <rect
     style="fill:#ffffff;fill-opacity:1;stroke:none;stroke-width:4.01598;stroke-linecap:round;stroke-linejoin:round;stroke-miterlimit:4;stroke-dasharray:none;stroke-opacity:1"
     id="rect4858"
     width="12"
     height="56"
     x="124"
     y="-171"
     transform="rotate(90)" />
  <path
     id="path4992"
     style="fill:#ffffff;fill-opacity:1;stroke-width:2.00906;stroke-linecap:round;stroke-linejoin:round;opacity:0.2"
     d="M 111.5 20 A 39.5 39.5 0 0 0 73.423828 49.175781 A 20 20 0 0 0 60 44 A 20 20 0 0 0 40 64 A 20 20 0 0 0 40.0625 64.525391 A 20 20 0 0 1 60 45 A 20 20 0 0 1 73.423828 50.175781 A 39.5 39.5 0 0 1 111.5 21 A 39.5 39.5 0 0 1 150.97852 59.828125 A 39.5 39.5 0 0 0 151 59.5 A 39.5 39.5 0 0 0 111.5 20 z M 150.13672 68.0625 A 39.5 39.5 0 0 1 149.96484 69.035156 A 32.5 32.5 0 0 1 180.94727 101.02539 A 32.5 32.5 0 0 0 181 100.5 A 32.5 32.5 0 0 0 150.13672 68.0625 z M 40.384766 68.238281 A 32.5 32.5 0 0 0 11 100.5 A 32.5 32.5 0 0 0 11.050781 101.02344 A 32.5 32.5 0 0 1 40.501953 69.214844 A 20 20 0 0 1 40.384766 68.238281 z " />
</svg>
