<?xml version="1.0" encoding="UTF-8" standalone="no"?>
<svg
   width="192"
   height="192"
   version="1"
   id="svg12"
   sodipodi:docname="apps_lux_black.svg"
   inkscape:version="1.1.1 (1:1.1+202109281949+c3084ef5ed)"
   xmlns:inkscape="http://www.inkscape.org/namespaces/inkscape"
   xmlns:sodipodi="http://sodipodi.sourceforge.net/DTD/sodipodi-0.dtd"
   xmlns="http://www.w3.org/2000/svg"
   xmlns:svg="http://www.w3.org/2000/svg"
   xmlns:rdf="http://www.w3.org/1999/02/22-rdf-syntax-ns#"
   xmlns:cc="http://creativecommons.org/ns#"
   xmlns:dc="http://purl.org/dc/elements/1.1/">
  <metadata
     id="metadata18">
    <rdf:RDF>
      <cc:Work
         rdf:about="">
        <dc:format>image/svg+xml</dc:format>
        <dc:type
           rdf:resource="http://purl.org/dc/dcmitype/StillImage" />
      </cc:Work>
    </rdf:RDF>
  </metadata>
  <defs
     id="defs16">
    <filter
       inkscape:collect="always"
       style="color-interpolation-filters:sRGB"
       id="filter955"
       x="-0.048000001"
       width="1.096"
       y="-0.048000001"
       height="1.096">
      <feGaussianBlur
         inkscape:collect="always"
         stdDeviation="3.2"
         id="feGaussianBlur957" />
    </filter>
    <filter
       inkscape:collect="always"
       style="color-interpolation-filters:sRGB"
       id="filter2236"
       x="-0.075"
       y="-0.075"
       width="1.15"
       height="1.15">
      <feGaussianBlur
         inkscape:collect="always"
         stdDeviation="3.375"
         id="feGaussianBlur2238" />
    </filter>
  </defs>
  <sodipodi:namedview
     pagecolor="#ffffff"
     bordercolor="#666666"
     borderopacity="1"
     objecttolerance="10"
     gridtolerance="10"
     guidetolerance="10"
     inkscape:pageopacity="0"
     inkscape:pageshadow="2"
     inkscape:window-width="1920"
     inkscape:window-height="1022"
     id="namedview14"
     showgrid="false"
     inkscape:zoom="3.06"
     inkscape:cx="89.869281"
     inkscape:cy="66.666667"
     inkscape:window-x="0"
     inkscape:window-y="34"
     inkscape:window-maximized="1"
     inkscape:current-layer="svg12"
     showguides="false"
     inkscape:document-rotation="0"
     inkscape:pagecheckerboard="0"
     inkscape:snap-bbox="true"
     inkscape:snap-bbox-midpoints="true"
     inkscape:snap-global="true">
    <inkscape:grid
       type="xygrid"
       id="grid852" />
  </sodipodi:namedview>
  <rect
     style="opacity:0.2;fill:#000000;fill-opacity:1;stroke-width:4;filter:url(#filter955)"
     width="160"
     height="160"
     x="16"
     y="20"
     rx="30"
     ry="30"
     id="rect953" />
  <rect
     style="fill:#3f3f3f;fill-opacity:1;stroke-width:4"
     width="160"
     height="160"
     x="16"
     y="16"
     rx="30"
     ry="30"
     id="rect4" />
  <path
     id="path2175"
     style="opacity:0.2;fill:#000000;stroke-width:9.00585;stroke-linecap:round;stroke-linejoin:round;filter:url(#filter2236)"
     d="M 58,44 A 16,16 0 0 0 42,60 v 38 38 a 16,16 0 0 0 16,16 16,16 0 0 0 16,-16 V 98 60 A 16,16 0 0 0 58,44 Z m 38,0 A 16,16 0 0 0 80,60 v 76 a 16,16 0 0 0 16,16 h 38 a 16,16 0 0 0 16,-16 16,16 0 0 0 -16,-16 H 112 V 60 A 16,16 0 0 0 96,44 Z m 38,0 a 16,16 0 0 0 -16,16 v 38 a 16,16 0 0 0 16,16 16,16 0 0 0 16,-16 V 60 A 16,16 0 0 0 134,44 Z" />
  <path
     id="rect959"
     style="fill:#ffffff;fill-opacity:1;stroke-width:4;opacity:0.1"
     d="M 46 16 C 29.38 16 16 29.38 16 46 L 16 47 C 16 30.38 29.38 17 46 17 L 146 17 C 162.62 17 176 30.38 176 47 L 176 46 C 176 29.38 162.62 16 146 16 L 46 16 z " />
  <path
     id="rect1127"
     style="opacity:1;fill:#ffffff;stroke-width:9.00585;stroke-linecap:round;stroke-linejoin:round"
     d="M 96 42 A 16 16 0 0 0 80 58 L 80 134 A 16 16 0 0 0 96 150 L 134 150 A 16 16 0 0 0 150 134 A 16 16 0 0 0 134 118 L 112 118 L 112 58 A 16 16 0 0 0 96 42 z " />
  <path
     id="circle1465"
     style="opacity:1;fill:#696969;stroke-width:7.92904;stroke-linecap:round;stroke-linejoin:round"
     d="M 58 42 A 16 16 0 0 0 42 58 L 42 96 L 42 134 A 16 16 0 0 0 58 150 A 16 16 0 0 0 74 134 L 74 96 L 74 58 A 16 16 0 0 0 58 42 z " />
  <path
     id="circle1474"
     style="opacity:1;fill:#696969;stroke-width:7.92904;stroke-linecap:round;stroke-linejoin:round"
     d="M 134 42 A 16 16 0 0 0 118 58 L 118 96 A 16 16 0 0 0 134 112 A 16 16 0 0 0 150 96 L 150 58 A 16 16 0 0 0 134 42 z " />
  <path
     id="path2131"
     style="opacity:0.1;fill:#ffffff;stroke-width:7.92904;stroke-linecap:round;stroke-linejoin:round"
     d="M 58 42 A 16 16 0 0 0 42 58 L 42 59 A 16 16 0 0 1 58 43 A 16 16 0 0 1 74 59 L 74 58 A 16 16 0 0 0 58 42 z M 134 42 A 16 16 0 0 0 118 58 L 118 59 A 16 16 0 0 1 134 43 A 16 16 0 0 1 150 59 L 150 58 A 16 16 0 0 0 134 42 z " />
</svg>
