<?xml version="1.0" encoding="UTF-8" standalone="no"?>
<svg
   width="192"
   height="192"
   version="1"
   id="svg28"
   sodipodi:docname="apps_robinhood.svg"
   inkscape:version="1.1.1 (1:1.1+202109281949+c3084ef5ed)"
   xmlns:inkscape="http://www.inkscape.org/namespaces/inkscape"
   xmlns:sodipodi="http://sodipodi.sourceforge.net/DTD/sodipodi-0.dtd"
   xmlns="http://www.w3.org/2000/svg"
   xmlns:svg="http://www.w3.org/2000/svg"
   xmlns:rdf="http://www.w3.org/1999/02/22-rdf-syntax-ns#"
   xmlns:cc="http://creativecommons.org/ns#"
   xmlns:dc="http://purl.org/dc/elements/1.1/">
  <metadata
     id="metadata34">
    <rdf:RDF>
      <cc:Work
         rdf:about="">
        <dc:format>image/svg+xml</dc:format>
        <dc:type
           rdf:resource="http://purl.org/dc/dcmitype/StillImage" />
      </cc:Work>
    </rdf:RDF>
  </metadata>
  <defs
     id="defs32">
    <filter
       inkscape:collect="always"
       style="color-interpolation-filters:sRGB"
       id="filter6495"
       x="-0.048000001"
       y="-0.048000001"
       width="1.096"
       height="1.096">
      <feGaussianBlur
         inkscape:collect="always"
         stdDeviation="3.2"
         id="feGaussianBlur6497" />
    </filter>
    <filter
       inkscape:collect="always"
       style="color-interpolation-filters:sRGB"
       id="filter2714"
       x="-0.087842492"
       y="-0.065433661"
       width="1.175685"
       height="1.1308673">
      <feGaussianBlur
         inkscape:collect="always"
         stdDeviation="2.6718759"
         id="feGaussianBlur2716" />
    </filter>
  </defs>
  <sodipodi:namedview
     pagecolor="#ffffff"
     bordercolor="#666666"
     borderopacity="1"
     objecttolerance="10"
     gridtolerance="10"
     guidetolerance="10"
     inkscape:pageopacity="0"
     inkscape:pageshadow="2"
     inkscape:window-width="1920"
     inkscape:window-height="1014"
     id="namedview30"
     showgrid="false"
     inkscape:zoom="1"
     inkscape:cx="112.5"
     inkscape:cy="104"
     inkscape:window-x="0"
     inkscape:window-y="34"
     inkscape:window-maximized="1"
     inkscape:current-layer="svg28"
     inkscape:pagecheckerboard="0">
    <inkscape:grid
       type="xygrid"
       id="grid841" />
  </sodipodi:namedview>
  <rect
     id="rect6457"
     transform="matrix(0,-1,-1,0,0,0)"
     ry="12"
     rx="12"
     y="-176"
     x="-180"
     height="160"
     width="160"
     style="opacity:0.2;fill:#000000;fill-opacity:1;stroke-width:4;filter:url(#filter6495)" />
  <rect
     id="rect2"
     transform="matrix(0,-1,-1,0,0,0)"
     ry="12"
     rx="12"
     y="-176"
     x="-176"
     height="160"
     width="160"
     style="fill:#07573d;fill-opacity:1;stroke-width:4" />
  <path
     id="rect6416"
     style="opacity:0.1;fill:#ffffff;fill-opacity:1;stroke-width:4"
     d="m 28,16 c -6.648,0 -12,5.352 -12,12 v 1 c 0,-6.648 5.352,-12 12,-12 h 136 c 6.648,0 12,5.352 12,12 v -1 c 0,-6.648 -5.352,-12 -12,-12 z" />
  <path
     style="opacity:0.2;fill:#000000;stroke-width:0.308858;filter:url(#filter2714)"
     d="m 60.000015,146.50703 c 0.0064,-1.4049 4.783026,-18.91884 7.344084,-26.92797 l 1.21034,-3.78507 -0.592284,-2.55238 c -0.820267,-3.53483 -2.014958,-13.01665 -2.014958,-14.359563 0,-0.872186 0.499582,-1.837428 2.357605,-4.555156 5.078894,-7.428874 13.416863,-18.646412 14.618999,-19.281093 0.97167,-0.513001 9.79627,-2.380527 17.288629,-3.658746 6.91624,-1.179933 7.57596,-1.24553 7.57596,-0.753312 0,0.181272 -1.46905,2.095608 -3.26453,4.254079 C 88.012409,94.737194 74.282992,118.14341 64.928138,142.39147 l -1.730738,4.48612 -1.599972,0.0936 c -1.371115,0.0801 -1.599603,0.0138 -1.597413,-0.46408 z m 11.004371,-7.60605 c -0.26153,-0.26243 2.478469,-6.20404 3.04131,-6.61702 1.378923,-1.01175 16.331969,-6.53798 16.697696,-6.171 0.110397,0.11079 -0.275816,1.19694 -0.858247,2.4137 -1.057376,2.20895 -1.062673,2.21401 -3.525596,3.36421 -1.356646,0.63355 -4.96409,2.37489 -8.016543,3.86964 -7.174495,3.51325 -7.169129,3.31054 -7.33862,3.14047 z m 4.409499,-11.18961 c 0,-0.4498 2.221662,-5.0007 4.79512,-9.82244 5.738937,-10.75271 12.759345,-21.784116 19.999515,-31.425921 5.08257,-6.768516 10.60056,-13.449707 10.93618,-13.241567 0.13794,0.08554 0.35411,2.701114 0.48037,5.812384 0.12627,3.111267 0.47209,8.650175 0.76851,12.308683 l 0.53892,6.651834 -3.93278,6.651837 c -2.16303,3.65851 -4.87106,8.37147 -6.01787,10.47324 -1.26537,2.3191 -2.33651,3.91922 -2.72463,4.07019 -0.351747,0.13683 -3.691997,1.23981 -7.422772,2.45106 -3.730775,1.21126 -8.933818,3.04846 -11.56232,4.0827 -5.418563,2.13203 -5.858243,2.28123 -5.858243,1.988 z M 115.97251,92.528442 c -0.29091,-0.85056 -0.7993,-9.887923 -0.99261,-17.645115 -0.19212,-7.709395 -0.22639,-8.051308 -0.84823,-8.460149 -0.55548,-0.365211 -1.31427,-0.340258 -5.31289,0.174696 -7.00829,0.902554 -19.485261,3.04287 -20.888754,3.583291 -1.273726,0.490456 -0.140638,-1.066996 4.088838,-5.620175 4.888222,-5.26235 10.607886,-10.930167 12.377906,-12.265703 1.21987,-0.920428 5.29335,-2.151699 9.59226,-2.899398 3.75375,-0.652885 9.83648,-0.474669 12.29907,0.36035 2.63195,0.89244 4.37519,2.823539 5.35317,5.930054 0.42958,1.364489 0.94561,3.715043 1.14677,5.223456 0.39375,2.952754 0.21227,9.085185 -0.32445,10.963252 -0.17365,0.607621 -1.32198,2.284268 -2.55187,3.725877 -3.2965,3.864023 -7.50375,9.214934 -10.55424,13.423224 -1.48018,2.041958 -2.81557,3.759036 -2.96755,3.815727 -0.152,0.05669 -0.33982,-0.08254 -0.41742,-0.309387 z"
     id="path2676"
     sodipodi:nodetypes="sscsssssscsccssssssssssssssscsssssscssssssssssssssc" />
  <path
     style="fill:#00c504;stroke-width:0.308858"
     d="m 60.000015,144.50705 c 0.0064,-1.4049 4.783026,-18.91884 7.344084,-26.92797 l 1.21034,-3.78507 -0.592284,-2.55238 c -0.820267,-3.53483 -2.014958,-13.016645 -2.014958,-14.359558 0,-0.872186 0.499582,-1.837428 2.357605,-4.555156 5.078894,-7.428874 13.416863,-18.646412 14.618999,-19.281093 0.97167,-0.513001 9.79627,-2.380527 17.288629,-3.658746 6.91624,-1.179933 7.57596,-1.24553 7.57596,-0.753312 0,0.181272 -1.46905,2.095608 -3.26453,4.254079 C 88.012409,92.737219 74.282992,116.14343 64.928138,140.39149 l -1.730738,4.48612 -1.599972,0.0936 c -1.371115,0.0801 -1.599603,0.0138 -1.597413,-0.46408 z M 71.004386,136.901 c -0.26153,-0.26243 2.478469,-6.20404 3.04131,-6.61702 1.378923,-1.01175 16.331969,-6.53798 16.697696,-6.171 0.110397,0.11079 -0.275816,1.19694 -0.858247,2.4137 -1.057376,2.20895 -1.062673,2.21401 -3.525596,3.36421 -1.356646,0.63355 -4.96409,2.37489 -8.016543,3.86964 -7.174495,3.51325 -7.169129,3.31054 -7.33862,3.14047 z m 4.409499,-11.18961 c 0,-0.4498 2.221662,-5.0007 4.79512,-9.82244 5.738937,-10.75271 12.759345,-21.784111 19.999515,-31.425916 5.08257,-6.768516 10.60056,-13.449707 10.93618,-13.241567 0.13794,0.08554 0.35411,2.701114 0.48037,5.812384 0.12627,3.111267 0.47209,8.650175 0.76851,12.308683 l 0.53892,6.651834 -3.93278,6.651832 c -2.16303,3.65851 -4.87106,8.37147 -6.01787,10.47324 -1.26537,2.3191 -2.33651,3.91922 -2.72463,4.07019 -0.351747,0.13683 -3.691997,1.23981 -7.422772,2.45106 -3.730775,1.21126 -8.933818,3.04846 -11.56232,4.0827 -5.418563,2.13203 -5.858243,2.28123 -5.858243,1.988 z M 115.97251,90.528467 c -0.29091,-0.85056 -0.7993,-9.887923 -0.99261,-17.645115 -0.19212,-7.709395 -0.22639,-8.051308 -0.84823,-8.460149 -0.55548,-0.365211 -1.31427,-0.340258 -5.31289,0.174696 -7.00829,0.902554 -19.485261,3.04287 -20.888754,3.583291 -1.273726,0.490456 -0.140638,-1.066996 4.088838,-5.620175 4.888222,-5.26235 10.607886,-10.930167 12.377906,-12.265703 1.21987,-0.920428 5.29335,-2.151699 9.59226,-2.899398 3.75375,-0.652885 9.83648,-0.474669 12.29907,0.36035 2.63195,0.89244 4.37519,2.823539 5.35317,5.930054 0.42958,1.364489 0.94561,3.715043 1.14677,5.223456 0.39375,2.952754 0.21227,9.085185 -0.32445,10.963252 -0.17365,0.607621 -1.32198,2.284268 -2.55187,3.725877 -3.2965,3.864023 -7.50375,9.214934 -10.55424,13.423224 -1.48018,2.041958 -2.81557,3.759036 -2.96755,3.815727 -0.152,0.05669 -0.33982,-0.08254 -0.41742,-0.309387 z"
     id="path945"
     sodipodi:nodetypes="sscsssssscsccssssssssssssssscsssssscssssssssssssssc" />
  <path
     id="path2718"
     style="fill:#ffffff;stroke-width:0.308858;opacity:0.2"
     d="M 118.88086 47.001953 C 117.1319 47.022229 115.39594 47.151652 113.98828 47.396484 C 109.68937 48.144183 105.61635 49.374494 104.39648 50.294922 C 102.62646 51.630458 96.907753 57.298197 92.019531 62.560547 C 87.790055 67.113726 86.655962 68.672097 87.929688 68.181641 C 87.93982 68.177739 87.977 68.170083 87.988281 68.166016 C 88.658979 67.260116 89.959876 65.777838 92.019531 63.560547 C 96.907753 58.298197 102.62646 52.630458 104.39648 51.294922 C 105.61635 50.374494 109.68937 49.144183 113.98828 48.396484 C 117.74203 47.743599 123.82647 47.92084 126.28906 48.755859 C 128.92101 49.648299 130.66264 51.579032 131.64062 54.685547 C 132.0702 56.050036 132.58595 58.401743 132.78711 59.910156 C 132.88468 60.641878 132.94629 61.569008 132.97656 62.578125 C 132.96294 61.195602 132.91561 59.873777 132.78711 58.910156 C 132.58595 57.401743 132.0702 55.050036 131.64062 53.685547 C 130.66264 50.579032 128.92101 48.648299 126.28906 47.755859 C 124.74994 47.233973 121.79579 46.968159 118.88086 47.001953 z M 107.21484 68.34375 C 106.41369 68.346503 104.53554 68.649261 100.21289 69.386719 C 92.720532 70.664938 83.895498 72.531921 82.923828 73.044922 C 81.721692 73.679603 73.383582 84.897298 68.304688 92.326172 C 66.446664 95.0439 65.947266 96.010627 65.947266 96.882812 C 65.947266 96.975812 65.991015 97.35705 66.001953 97.523438 C 66.126173 96.718591 66.685353 95.694771 68.304688 93.326172 C 73.383582 85.897298 81.721692 74.679603 82.923828 74.044922 C 83.895498 73.531921 92.720532 71.664938 100.21289 70.386719 C 104.79117 69.605649 106.60366 69.319426 107.32227 69.353516 C 107.59234 68.980923 107.78906 68.691604 107.78906 68.632812 C 107.78906 68.448231 107.69553 68.342098 107.21484 68.34375 z M 111.14453 71.220703 C 110.80891 71.012563 105.29155 77.694375 100.20898 84.462891 C 92.968814 94.104696 85.947921 105.13596 80.208984 115.88867 C 77.635526 120.71041 75.414062 125.26114 75.414062 125.71094 C 75.414062 125.80328 75.530785 125.81696 75.759766 125.77344 C 76.458999 124.14828 78.211551 120.63115 80.208984 116.88867 C 85.947921 106.13596 92.968814 95.104696 100.20898 85.462891 C 105.29155 78.694375 110.80891 72.012563 111.14453 72.220703 C 111.28247 72.306243 111.49874 74.921933 111.625 78.033203 C 111.75127 81.14447 112.09811 86.683289 112.39453 90.341797 L 112.86133 96.115234 L 112.93164 95.994141 L 112.39453 89.341797 C 112.09811 85.683289 111.75127 80.14447 111.625 77.033203 C 111.49874 73.921933 111.28247 71.306243 111.14453 71.220703 z M 68.419922 114.21484 L 67.34375 117.57812 C 64.782692 125.58725 60.0064 143.10291 60 144.50781 C 59.999307 144.65903 60.042793 144.75679 60.117188 144.83398 C 60.700319 141.58483 64.957759 126.03977 67.34375 118.57812 L 68.554688 114.79492 L 68.419922 114.21484 z M 90.511719 124.11133 C 88.562529 124.41978 75.337662 129.33469 74.044922 130.2832 C 73.482081 130.69618 70.742376 136.63796 71.003906 136.90039 C 71.047566 136.9442 71.092117 136.98468 71.238281 136.96875 C 71.877326 135.22694 73.608201 131.60364 74.044922 131.2832 C 75.333266 130.33791 88.465671 125.45572 90.484375 125.11719 C 90.685257 124.58345 90.806572 124.17594 90.744141 124.11328 C 90.721283 124.09034 90.641665 124.09076 90.511719 124.11133 z " />
</svg>
