<?xml version="1.0" encoding="UTF-8" standalone="no"?>
<svg
   width="192"
   height="192"
   version="1.1"
   id="svg16"
   sodipodi:docname="apps_polaris_office.svg"
   inkscape:version="1.1.1 (1:1.1+202109281949+c3084ef5ed)"
   xmlns:inkscape="http://www.inkscape.org/namespaces/inkscape"
   xmlns:sodipodi="http://sodipodi.sourceforge.net/DTD/sodipodi-0.dtd"
   xmlns="http://www.w3.org/2000/svg"
   xmlns:svg="http://www.w3.org/2000/svg">
  <defs
     id="defs20">
    <filter
       inkscape:collect="always"
       style="color-interpolation-filters:sRGB"
       id="filter5559"
       x="-0.044296924"
       y="-0.052295047"
       width="1.0885938"
       height="1.1045901">
      <feGaussianBlur
         inkscape:collect="always"
         stdDeviation="3.1376896"
         id="feGaussianBlur5561" />
    </filter>
    <filter
       inkscape:collect="always"
       style="color-interpolation-filters:sRGB"
       id="filter5657"
       x="-0.047378422"
       y="-0.048638103"
       width="1.0947568"
       height="1.0972762">
      <feGaussianBlur
         inkscape:collect="always"
         stdDeviation="1.6010654"
         id="feGaussianBlur5659" />
    </filter>
  </defs>
  <sodipodi:namedview
     id="namedview18"
     pagecolor="#ffffff"
     bordercolor="#666666"
     borderopacity="1.0"
     inkscape:pageshadow="2"
     inkscape:pageopacity="0.0"
     inkscape:pagecheckerboard="0"
     showgrid="false"
     inkscape:zoom="1"
     inkscape:cx="88.5"
     inkscape:cy="98"
     inkscape:window-width="1920"
     inkscape:window-height="1014"
     inkscape:window-x="0"
     inkscape:window-y="34"
     inkscape:window-maximized="1"
     inkscape:current-layer="svg16">
    <inkscape:grid
       type="xygrid"
       id="grid2491" />
  </sodipodi:namedview>
  <path
     id="path5520"
     style="color:#000000;opacity:0.2;fill:#000000;fill-opacity:1;stroke-width:0.652071;stroke-linecap:round;stroke-linejoin:round;-inkscape-stroke:none;filter:url(#filter5559)"
     d="M 96.474609 24.007812 A 3.7579756 3.7898558 0 0 0 94.791016 24.294922 A 3.7579756 3.7898558 0 0 0 92.609375 26.828125 L 75.65625 91.998047 L 13.123047 75 C 12.729738 75.07102 12.358883 75.232395 12.039062 75.470703 C 11.719164 75.708831 11.459703 76.016835 11.279297 76.373047 C 10.914047 77.095243 10.906937 77.949263 11.259766 78.683594 L 53.460938 166.50391 C 54.204026 168.05043 56.200625 168.48837 57.5 167.38867 L 58.205078 166.79297 A 3.7579756 3.7898558 0 0 0 60.757812 168 L 144.15625 168 A 3.7579756 3.7898558 0 0 0 147.67773 165.53125 L 180.76367 75.912109 A 3.7579756 3.7898558 0 0 0 179.11133 71.302734 L 98.111328 24.501953 A 3.7579756 3.7898558 0 0 0 96.474609 24.007812 z " />
  <path
     id="path3256"
     style="color:#000000;fill:#fd5757;fill-opacity:1;stroke-width:0.652071;stroke-linecap:round;stroke-linejoin:round;-inkscape-stroke:none"
     d="m 12.039763,71.470229 c -0.319898,0.238128 -0.580132,0.547276 -0.760538,0.903488 -0.36525,0.722196 -0.372539,1.576308 -0.01971,2.310639 l 42.200546,87.820474 c 0.743088,1.54652 2.740175,1.98342 4.03955,0.88372 l 43.999859,-37.24409 c 0.82787,-0.70121 1.12904,-1.84747 0.75527,-2.87461 L 89.215136,92.579461 C 88.777363,91.376689 87.537633,90.660278 86.284637,90.885995 L 13.123832,71.000004 c -0.393309,0.07102 -0.764249,0.231917 -1.084069,0.470225 z"
     sodipodi:nodetypes="ccccccccccc" />
  <path
     id="path5563"
     style="color:#000000;fill:#ffffff;fill-opacity:1;stroke-width:0.652071;stroke-linecap:round;stroke-linejoin:round;-inkscape-stroke:none;opacity:0.2"
     d="M 13.123047 71 C 12.729738 71.07102 12.358883 71.232395 12.039062 71.470703 C 11.719164 71.708831 11.459703 72.016835 11.279297 72.373047 C 11.013527 72.898543 10.94253 73.494283 11.056641 74.0625 C 11.101467 73.825795 11.16833 73.592458 11.279297 73.373047 C 11.459703 73.016835 11.719164 72.708831 12.039062 72.470703 C 12.358883 72.232395 12.729738 72.07102 13.123047 72 L 86.285156 91.886719 C 87.538152 91.661002 88.777071 92.377306 89.214844 93.580078 L 102.25391 124.26953 C 102.30599 124.41267 102.31552 124.5608 102.3418 124.70703 C 102.4413 124.23878 102.42595 123.74233 102.25391 123.26953 L 89.214844 92.580078 C 88.777071 91.377306 87.538152 90.661002 86.285156 90.886719 L 13.123047 71 z " />
  <path
     id="path3155"
     style="color:#000000;fill:#ffa329;fill-opacity:1;stroke-width:0.756452;stroke-linecap:round;stroke-linejoin:round;-inkscape-stroke:none"
     d="m 34.87309,47.217406 c -0.428783,0.173712 -0.811372,0.444606 -1.118119,0.79169 -0.621336,0.703841 -0.879434,1.660507 -0.698235,2.588081 L 54.733105,161.52966 c 0.381647,1.95351 2.495674,3.02831 4.276089,2.17402 l 60.290596,-28.93449 c 1.13453,-0.54492 1.80801,-1.74355 1.68897,-3.00594 l -2.6932,-49.605886 c -0.13949,-1.478287 -1.32155,-2.645257 -2.79417,-2.758506 L 36.227621,47.006749 c -0.462296,-0.03536 -0.925781,0.03672 -1.354531,0.210657 z"
     sodipodi:nodetypes="ccccccccccc" />
  <path
     id="path5565"
     style="color:#000000;fill:#ffffff;fill-opacity:1;stroke-width:0.756452;stroke-linecap:round;stroke-linejoin:round;-inkscape-stroke:none;opacity:0.2"
     d="M 36.228516 47.005859 C 35.76622 46.970499 35.301797 47.04286 34.873047 47.216797 C 34.444264 47.390509 34.062606 47.662682 33.755859 48.009766 C 33.142808 48.704222 32.885496 49.644624 33.052734 50.560547 C 33.138569 49.991549 33.367274 49.44995 33.755859 49.009766 C 34.062606 48.662682 34.444264 48.390509 34.873047 48.216797 C 35.301797 48.04286 35.76622 47.970499 36.228516 48.005859 L 115.50195 80.398438 C 116.97457 80.511686 118.15543 81.679916 118.29492 83.158203 L 120.96094 132.25195 C 120.97204 132.08908 121.00398 131.93012 120.98828 131.76367 L 118.29492 82.158203 C 118.15543 80.679916 116.97457 79.511687 115.50195 79.398438 L 36.228516 47.005859 z " />
  <path
     id="path2960"
     style="color:#000000;fill:#86cb1b;fill-opacity:1;stroke-width:0.947833;stroke-linecap:round;stroke-linejoin:round;-inkscape-stroke:none"
     d="m 63.558932,30.052823 c -0.568902,0.09696 -1.107725,0.325941 -1.574716,0.669192 -0.946137,0.696259 -1.518052,1.802045 -1.547208,2.991494 L 56.001204,160.06455 c -0.06137,2.50504 2.223399,4.4009 4.621446,3.83482 l 82.16319,-3.27463 c 1.52825,-0.3614 2.67112,-1.65171 2.86613,-3.23582 l 6.47855,-78.126361 c 0.22825,-1.855059 -0.89685,-3.610867 -2.65954,-4.150412 L 65.265053,30.162115 C 64.711646,29.992971 64.127856,29.955574 63.558932,30.05282 Z"
     sodipodi:nodetypes="scccccccccss" />
  <path
     id="path5567"
     style="color:#000000;fill:#ffffff;fill-opacity:1;stroke-width:0.947833;stroke-linecap:round;stroke-linejoin:round;-inkscape-stroke:none;opacity:0.2"
     d="M 64.417969 30.007812 C 64.13173 29.989476 63.843056 30.004111 63.558594 30.052734 C 62.989692 30.149694 62.451366 30.379405 61.984375 30.722656 C 61.038238 31.418915 60.466656 32.523442 60.4375 33.712891 L 56.001953 160.06445 C 55.999594 160.16075 56.022895 160.24935 56.027344 160.34375 L 60.4375 34.712891 C 60.466656 33.523442 61.038238 32.418915 61.984375 31.722656 C 62.451366 31.379405 62.989692 31.149694 63.558594 31.052734 C 64.127518 30.955488 64.712218 30.992965 65.265625 31.162109 L 149.4707 76.111328 C 150.94133 76.561475 151.9557 77.862756 152.12305 79.357422 L 152.13086 79.261719 C 152.35911 77.40666 151.23339 75.650873 149.4707 75.111328 L 65.265625 30.162109 C 64.988922 30.077537 64.704208 30.026149 64.417969 30.007812 z " />
  <path
     id="path1757"
     style="color:#000000;fill:#0f78fb;fill-opacity:1;stroke-width:0.943376;stroke-linecap:round;stroke-linejoin:round;-inkscape-stroke:none"
     d="m 96.475082,20.007284 a 3.7579756,3.7898558 0 0 0 -1.68432,0.2868 3.7579756,3.7898558 0 0 0 -2.18154,2.533103 L 57.123022,159.24836 A 3.7579756,3.7898558 0 0 0 60.757692,164 h 83.399278 a 3.7579756,3.7898558 0 0 0 3.52092,-2.46834 l 33.08633,-89.618906 a 3.7579756,3.7898558 0 0 0 -1.65313,-4.609173 L 98.111692,20.501321 a 3.7579756,3.7898558 0 0 0 -1.63661,-0.494037 z" />
  <path
     id="path5619"
     style="opacity:0.2;fill:#000000;stroke-width:3.53793;stroke-linecap:round;stroke-linejoin:round;filter:url(#filter5657)"
     d="m 102.72461,49.444982 -2.20899,7.59961 64.80274,30.314453 2.10547,-5.972656 z m -5.349615,19.140626 -2.208984,7.599609 64.787109,25.031253 2.10352,-5.972659 z m -4.451172,18.394531 -2.208984,7.599609 64.363281,20.447262 2.10547,-5.97461 z m -4.394531,17.158201 -2.208985,7.59961 63.437503,16.71005 2.10547,-5.97266 z"
     sodipodi:nodetypes="cccccccccccccccccccc" />
  <path
     id="rect1880"
     style="fill:#ffffff;stroke-width:3.53793;stroke-linecap:round;stroke-linejoin:round"
     d="m 102.72461,47.445312 -2.20899,7.59961 64.80274,30.314453 2.10547,-5.972656 z m -5.349615,19.140626 -2.208984,7.599609 64.787109,25.03125 2.10352,-5.972656 z m -4.451172,18.394531 -2.208984,7.599609 64.363281,20.447262 2.10547,-5.97461 z m -4.394531,17.158201 -2.208985,7.59961 63.437503,16.71005 2.10547,-5.97266 z"
     sodipodi:nodetypes="cccccccccccccccccccc" />
  <path
     id="path5569"
     style="color:#000000;fill:#ffffff;fill-opacity:1;stroke-width:0.943376;stroke-linecap:round;stroke-linejoin:round;-inkscape-stroke:none;opacity:0.2"
     d="M 96.474609 20.007812 A 3.7579756 3.7898558 0 0 0 94.791016 20.294922 A 3.7579756 3.7898558 0 0 0 92.609375 22.828125 L 57.123047 159.24805 A 3.7579756 3.7898558 0 0 0 57.162109 160.09375 L 92.609375 23.828125 A 3.7579756 3.7898558 0 0 1 94.791016 21.294922 A 3.7579756 3.7898558 0 0 1 96.474609 21.007812 A 3.7579756 3.7898558 0 0 1 98.111328 21.501953 L 179.11133 68.302734 A 3.7579756 3.7898558 0 0 1 180.95703 71.083984 A 3.7579756 3.7898558 0 0 0 179.11133 67.302734 L 98.111328 20.501953 A 3.7579756 3.7898558 0 0 0 96.474609 20.007812 z " />
</svg>
