<?xml version="1.0" encoding="UTF-8" standalone="no"?>
<svg
   width="192"
   height="192"
   version="1"
   id="svg22"
   sodipodi:docname="apps_software_update.svg"
   inkscape:version="1.1.1 (1:1.1+202109281949+c3084ef5ed)"
   xmlns:inkscape="http://www.inkscape.org/namespaces/inkscape"
   xmlns:sodipodi="http://sodipodi.sourceforge.net/DTD/sodipodi-0.dtd"
   xmlns="http://www.w3.org/2000/svg"
   xmlns:svg="http://www.w3.org/2000/svg">
  <defs
     id="defs26">
    <filter
       inkscape:collect="always"
       style="color-interpolation-filters:sRGB"
       id="filter1051"
       x="-0.045176373"
       y="-0.051200124"
       width="1.0903527"
       height="1.1024002">
      <feGaussianBlur
         inkscape:collect="always"
         stdDeviation="2.5600019"
         id="feGaussianBlur1053" />
    </filter>
    <filter
       inkscape:collect="always"
       style="color-interpolation-filters:sRGB"
       id="filter1055"
       x="-0.045304788"
       y="-0.051036177"
       width="1.0906096"
       height="1.1020724">
      <feGaussianBlur
         inkscape:collect="always"
         stdDeviation="2.551888"
         id="feGaussianBlur1057" />
    </filter>
    <filter
       inkscape:collect="always"
       style="color-interpolation-filters:sRGB"
       id="filter1059"
       x="-0.066078469"
       y="-0.079664303"
       width="1.1321569"
       height="1.1593286">
      <feGaussianBlur
         inkscape:collect="always"
         stdDeviation="2.6551631"
         id="feGaussianBlur1061" />
    </filter>
    <filter
       inkscape:collect="always"
       style="color-interpolation-filters:sRGB"
       id="filter1063"
       x="-0.066075361"
       y="-0.079664302"
       width="1.1321507"
       height="1.1593286">
      <feGaussianBlur
         inkscape:collect="always"
         stdDeviation="2.6551629"
         id="feGaussianBlur1065" />
    </filter>
  </defs>
  <sodipodi:namedview
     id="namedview24"
     pagecolor="#ffffff"
     bordercolor="#666666"
     borderopacity="1.0"
     inkscape:pageshadow="2"
     inkscape:pageopacity="0.0"
     inkscape:pagecheckerboard="0"
     showgrid="false"
     inkscape:zoom="2.52"
     inkscape:cx="55.357143"
     inkscape:cy="83.730159"
     inkscape:window-width="1920"
     inkscape:window-height="1019"
     inkscape:window-x="0"
     inkscape:window-y="34"
     inkscape:window-maximized="1"
     inkscape:current-layer="svg22" />
  <path
     style="opacity:0.2;fill-rule:evenodd;stroke-width:4;filter:url(#filter1051)"
     d="m 101.81026,175.98863 c 13.7755,-0.2408 27.51676,-4.23815 39.56452,-11.95352 17.76701,-11.378 29.26951,-29.56543 33.15898,-49.697 1.95914,-1.48622 4.10677,-2.6792 5.60191,-4.82048 4.88079,-6.99009 5.40167,-19.03998 0.0468,-26.766532 a 19.975405,20.002678 0 0 0 -0.0156,-0.0236 l -5.64093,-8.109652 a 19.975405,20.002678 0 0 0 -0.0156,-0.0156 l -5.64873,-8.1017 a 19.975405,20.002678 0 0 0 -0.0156,-0.0236 C 163.47558,58.794202 155.45154,56.00019 148.42008,56.00019 c -7.03146,0 -15.05548,2.793848 -20.42593,10.47692 a 19.975405,20.002678 0 0 0 -0.0236,0.0312 l -5.64092,8.10184 -5.64873,8.101832 a 19.975405,20.002678 0 0 0 -0.0236,0.0392 c -5.35056,7.72038 -4.84094,19.759748 0.0312,26.750908 0.20804,0.29852 0.56174,0.38608 0.78021,0.6719 -1.54196,2.60558 -3.54309,4.9589 -6.21829,6.6721 -6.41428,4.1077 -14.374312,4.25116 -20.92526,0.375 -6.590076,-3.90602 -15.538428,-5.03706 -22.696344,-2.74228 -7.157912,2.29478 -12.334528,7.03097 -15.612024,12.57855 -3.277504,5.54758 -4.933252,12.37924 -3.495348,19.76629 1.437904,7.38706 6.7342,14.6991 13.326008,18.6022 v -0.008 c 12.309072,7.28887 26.186244,10.81138 39.962808,10.57058 z"
     id="path2" />
  <path
     style="fill:#ff9932;fill-rule:evenodd;stroke-width:4"
     d="m 101.81026,171.98843 c 13.7755,-0.2408 27.51676,-4.23815 39.56452,-11.95352 17.76701,-11.378 29.26951,-29.56543 33.15898,-49.697 1.95914,-1.48622 4.10677,-2.6792 5.60191,-4.82048 4.88079,-6.990088 5.40167,-19.03998 0.0468,-26.766532 a 19.975405,20.002678 0 0 0 -0.0156,-0.0236 l -5.64093,-8.109652 a 19.975405,20.002678 0 0 0 -0.0156,-0.0156 l -5.64873,-8.1017 a 19.975405,20.002678 0 0 0 -0.0156,-0.0236 C 163.47558,54.794002 155.45154,51.99999 148.42008,51.99999 c -7.03146,0 -15.05548,2.793848 -20.42593,10.47692 a 19.975405,20.002678 0 0 0 -0.0236,0.0312 l -5.64092,8.10184 -5.64873,8.101832 a 19.975405,20.002678 0 0 0 -0.0236,0.0392 c -5.35056,7.72038 -4.84094,19.759748 0.0312,26.750908 0.20804,0.29852 0.56174,0.38608 0.78021,0.6719 -1.54196,2.60558 -3.54309,4.9589 -6.21829,6.6721 -6.41428,4.1077 -14.374312,4.25116 -20.92526,0.375 -6.590076,-3.90602 -15.538428,-5.03706 -22.696344,-2.74228 -7.157912,2.29478 -12.334528,7.03097 -15.612024,12.57855 -3.277504,5.54758 -4.933252,12.37924 -3.495348,19.76629 1.437904,7.38706 6.7342,14.6991 13.326008,18.6022 v -0.008 c 12.309072,7.28887 26.186244,10.81138 39.962808,10.57058 z"
     id="path4" />
  <path
     style="opacity:0.2;fill-rule:evenodd;stroke-width:4;filter:url(#filter1055)"
     d="M 94.1875,24.007802 C 80.412,24.248584 66.67276,28.253362 54.625,35.96874 36.857986,47.34673 25.358216,65.532482 21.46875,85.664054 c -1.959144,1.486212 -4.106424,2.679028 -5.601563,4.820312 -4.880787,6.990088 -5.401731,19.039074 -0.04687,26.765624 a 19.975405,20.002678 0 0 0 0.01564,0.0236 l 5.640625,8.10938 a 19.975405,20.002678 0 0 0 0.01564,0.0156 l 5.648407,8.10142 a 19.975405,20.002678 0 0 0 0.01564,0.0236 c 5.370425,7.68258 13.390404,10.4764 20.42186,10.4764 7.03146,0 15.059236,-2.79349 20.429688,-10.47656 a 19.975405,20.002678 0 0 0 0.0236,-0.0312 l 5.640628,-8.10157 5.648436,-8.10156 a 19.975405,20.002678 0 0 0 0.0236,-0.0392 c 5.350564,-7.72038 4.840888,-19.758838 -0.0312,-26.749998 -0.20804,-0.29852 -0.562772,-0.38608 -0.781252,-0.671876 1.541964,-2.605588 3.543556,-4.958676 6.218752,-6.671876 6.41428,-4.107696 14.370928,-4.251152 20.921879,-0.375 2.38646,1.414488 5.09048,2.453608 7.89844,3.109376 0.61672,-2.57438 1.61824,-5.022868 3.08593,-7.140624 l 0.0236,-0.0392 5.64844,-8.10156 5.64063,-8.101564 0.0236,-0.0312 c 5.0605,-7.24048 12.4717,-10.104112 19.19461,-10.413888 -1.72919,-6.998624 -6.77243,-13.77844 -13.03125,-17.484375 v 0.0078 C 121.84718,27.297059 107.96406,23.767006 94.1875,24.007802 Z"
     id="path6" />
  <path
     style="fill:#ffda43;fill-rule:evenodd;stroke-width:4"
     d="m 94.190132,20.011546 c -13.7755,0.240781 -27.516756,4.238152 -39.564516,11.95353 -17.767014,11.37799 -29.269514,29.565426 -33.15898,49.696998 -1.959143,1.486212 -4.106777,2.679192 -5.601916,4.820476 -4.880787,6.990088 -5.401669,19.03998 -0.04681,26.76653 a 19.975405,20.002678 0 0 0 0.0156,0.0236 l 5.640927,8.10965 a 19.975405,20.002678 0 0 0 0.0156,0.0156 l 5.648738,8.1017 a 19.975405,20.002678 0 0 0 0.0156,0.0236 c 5.37044,7.68275 13.39448,10.47676 20.425936,10.47676 7.03146,0 15.05548,-2.79385 20.425932,-10.47692 a 19.975405,20.002678 0 0 0 0.0236,-0.0312 l 5.640924,-8.10184 5.648728,-8.10183 a 19.975405,20.002678 0 0 0 0.0236,-0.0392 c 5.350564,-7.72038 4.84094,-19.75975 -0.0312,-26.75091 -0.20804,-0.29852 -0.561736,-0.38608 -0.780212,-0.671896 1.541964,-2.605588 3.543092,-4.958908 6.218288,-6.672104 6.41428,-4.1077 14.374316,-4.251156 20.925259,-0.375 6.59008,3.906024 15.53843,5.037064 22.69635,2.74228 7.15791,-2.294776 12.33452,-7.030972 15.61202,-12.578548 3.2775,-5.54758 4.93325,-12.379244 3.49535,-19.766296 -1.43791,-7.387052 -6.7342,-14.699096 -13.32601,-18.602194 v 0.0078 C 121.84387,23.293263 107.9667,19.770749 94.190132,20.011546 Z"
     id="path8" />
  <path
     id="path10"
     style="opacity:0.2;fill:#ffffff;fill-rule:evenodd;stroke-width:4"
     d="M 94.1875 20.007812 C 80.412 20.248594 66.67276 24.253372 54.625 31.96875 C 36.857986 43.34674 25.358216 61.532491 21.46875 81.664062 C 19.509606 83.150274 17.362326 84.343091 15.867188 86.484375 C 13.289624 90.175867 11.98994 95.273567 12.076172 100.4043 C 12.165758 95.617308 13.457515 90.93542 15.867188 87.484375 C 17.362326 85.343091 19.509606 84.150274 21.46875 82.664062 C 25.358216 62.532491 36.857986 44.34674 54.625 32.96875 C 66.67276 25.253372 80.412 21.248594 94.1875 21.007812 C 107.96406 20.767016 121.84718 24.297069 134.15625 31.585938 L 134.15625 31.578125 C 140.74806 35.481223 146.03866 42.792636 147.47656 50.179688 C 147.80123 51.847695 147.94639 53.478862 147.9668 55.078125 C 148.01049 53.16199 147.86916 51.196692 147.47656 49.179688 C 146.03866 41.792636 140.74806 34.481223 134.15625 30.578125 L 134.15625 30.585938 C 121.84718 23.297069 107.96406 19.767016 94.1875 20.007812 z M 79.984375 87.671875 C 79.464567 88.365327 78.971282 89.084569 78.53125 89.828125 C 78.650471 89.984081 78.806548 90.087021 78.960938 90.191406 C 79.291502 89.677723 79.618127 89.160469 79.984375 88.671875 C 81.952003 92.007773 83.023157 96.21429 83.095703 100.52148 C 83.18727 95.868713 82.104297 91.265972 79.984375 87.671875 z " />
  <path
     style="opacity:0.2;fill-rule:evenodd;stroke-width:4;filter:url(#filter1063)"
     d="m 95.023436,42.018013 c -10.174652,0.1776 -20.302404,3.11744 -29.195312,8.804688 -16.18286,10.349372 -25.789352,28.22148 -25.78906,47.179684 H 36.710937 A 4.7055324,3.8995941 0 0 0 32.625,103.84614 l 5.648437,8.10937 5.656251,8.10156 a 4.7055324,3.8995941 0 0 0 8.140624,0 l 5.64844,-8.10156 5.656248,-8.10937 a 4.7055324,3.8995941 0 0 0 -4.078124,-5.843755 h -3.226564 c -0.0052,-13.555496 6.79414,-26.28904 18.375,-33.695308 12.728108,-8.139964 28.909628,-8.425176 41.914068,-0.734376 a 8.0016336,8.0016336 0 1 0 8.14843,-13.773436 c -9.08597,-5.373428 -19.30972,-7.958848 -29.484374,-7.781252 z"
     id="path12" />
  <path
     style="fill:#3f3f3f;fill-rule:evenodd;stroke-width:4"
     d="m 95.023436,40.015614 c -10.174652,0.1776 -20.302404,3.11744 -29.195312,8.804688 -16.18286,10.349372 -25.789352,28.22148 -25.78906,47.179688 H 36.710937 A 4.7055324,3.8995941 0 0 0 32.625,101.84374 l 5.648437,8.10937 5.656251,8.10157 a 4.7055324,3.8995941 0 0 0 8.140624,0 l 5.64844,-8.10157 5.656248,-8.10937 a 4.7055324,3.8995941 0 0 0 -4.078124,-5.84375 h -3.226564 c -0.0052,-13.5555 6.79414,-26.289044 18.375,-33.695312 12.728108,-8.139964 28.909628,-8.425176 41.914068,-0.734376 a 8.0016336,8.0016336 0 1 0 8.14843,-13.773436 c -9.08597,-5.373428 -19.30972,-7.958849 -29.484374,-7.781252 z"
     id="path14" />
  <path
     style="fill:#ff9932;fill-rule:evenodd;stroke-width:4"
     d="m 183.98035,93.058358 c 0.19284,-5.057272 -1.00113,-10.272024 -3.79788,-14.30746 l -0.0156,-0.0236 -5.64093,-8.109652 -0.0156,-0.0156 -5.64873,-8.1017 -0.0156,-0.0236 C 163.47558,54.794002 155.45154,51.99999 148.42008,51.99999 c -7.03146,0 -15.05548,2.793848 -20.42593,10.47692 l -0.0236,0.0312 -5.64092,8.10184 -5.64873,8.101832 -0.0236,0.0392 c -1.72398,2.487548 -2.83958,5.42348 -3.39689,8.49446 z"
     id="path16" />
  <path
     style="opacity:0.2;fill-rule:evenodd;stroke-width:4;filter:url(#filter1059)"
     d="m 100.97696,153.99144 c 10.17465,-0.1776 20.3024,-3.11744 29.19531,-8.80469 16.18286,-10.34937 25.78935,-28.22148 25.78906,-47.179691 h 3.32813 a 4.7055324,3.8995941 0 0 0 4.08593,-5.843748 l -5.64843,-8.109372 -5.65626,-8.101564 a 4.7055324,3.8995941 0 0 0 -8.14062,0 l -5.64844,8.101564 -5.65625,8.109372 a 4.7055324,3.8995941 0 0 0 4.07813,5.843748 h 3.22656 c 0.005,13.555501 -6.79414,26.289051 -18.375,33.695321 -12.72811,8.13996 -28.909628,8.42517 -41.914064,0.73437 a 8.0016351,8.0016351 0 1 0 -8.148436,13.77344 c 9.085968,5.37343 19.309724,7.95885 29.48438,7.78125 z"
     id="path18" />
  <path
     style="fill:#3f3f3f;fill-rule:evenodd;stroke-width:4"
     d="m 100.97696,151.98437 c 10.17465,-0.1776 20.3024,-3.11744 29.19531,-8.80469 16.18286,-10.34937 25.78935,-28.22148 25.78906,-47.17969 h 3.32813 a 4.7055324,3.8995941 0 0 0 4.08593,-5.843752 l -5.64843,-8.109372 -5.65626,-8.101564 a 4.7055324,3.8995941 0 0 0 -8.14062,0 l -5.64844,8.101564 -5.65625,8.109372 a 4.7055324,3.8995941 0 0 0 4.07813,5.843752 h 3.22656 c 0.005,13.5555 -6.79414,26.28904 -18.375,33.69531 -12.72811,8.13997 -28.909628,8.42518 -41.914064,0.73438 a 8.0016336,8.0016336 0 1 0 -8.148436,13.77343 c 9.085968,5.37343 19.309724,7.95885 29.48438,7.78126 z"
     id="path20" />
</svg>
