<?xml version="1.0" encoding="UTF-8" standalone="no"?>
<svg
   width="192"
   height="192"
   version="1.1"
   id="svg118"
   sodipodi:docname="apps_qr_scanner.svg"
   inkscape:version="1.1-rc (1:1.1+rc+202105232036+f4db50c7c1)"
   xmlns:inkscape="http://www.inkscape.org/namespaces/inkscape"
   xmlns:sodipodi="http://sodipodi.sourceforge.net/DTD/sodipodi-0.dtd"
   xmlns="http://www.w3.org/2000/svg"
   xmlns:svg="http://www.w3.org/2000/svg">
  <defs
     id="defs122">
    <filter
       inkscape:collect="always"
       style="color-interpolation-filters:sRGB"
       id="filter1057"
       x="-0.048000001"
       y="-0.048000001"
       width="1.096"
       height="1.096">
      <feGaussianBlur
         inkscape:collect="always"
         stdDeviation="3.2"
         id="feGaussianBlur1059" />
    </filter>
    <filter
       inkscape:collect="always"
       style="color-interpolation-filters:sRGB"
       id="filter1082"
       x="-0.0246"
       y="-0.98399999"
       width="1.0492"
       height="2.968">
      <feGaussianBlur
         inkscape:collect="always"
         stdDeviation="1.64"
         id="feGaussianBlur1084" />
    </filter>
    <filter
       inkscape:collect="always"
       style="color-interpolation-filters:sRGB"
       id="filter1104"
       x="-0.0246"
       y="-0.98399999"
       width="1.0492"
       height="2.968">
      <feGaussianBlur
         inkscape:collect="always"
         stdDeviation="1.64"
         id="feGaussianBlur1106" />
    </filter>
  </defs>
  <sodipodi:namedview
     id="namedview120"
     pagecolor="#ffffff"
     bordercolor="#666666"
     borderopacity="1.0"
     inkscape:pageshadow="2"
     inkscape:pageopacity="0.0"
     inkscape:pagecheckerboard="0"
     showgrid="false"
     inkscape:zoom="3.28"
     inkscape:cx="83.384146"
     inkscape:cy="97.713415"
     inkscape:window-width="1920"
     inkscape:window-height="1019"
     inkscape:window-x="0"
     inkscape:window-y="34"
     inkscape:window-maximized="1"
     inkscape:current-layer="svg118" />
  <path
     style="opacity:0.2;stroke-width:4;filter:url(#filter1057)"
     d="M 28.307693,20 H 163.69231 C 170.48918,20 176,25.73125 176,32.8 v 134.4 c 0,7.06875 -5.51082,12.8 -12.30769,12.8 H 28.307693 c -6.796875,0 -12.307692,-5.73125 -12.307692,-12.8 V 32.8 c 0,-7.06875 5.510817,-12.8 12.307692,-12.8 z m 0,0"
     id="path2" />
  <path
     style="fill:#e4e4e4;stroke-width:4"
     d="M 28.307693,16 H 163.69231 C 170.48918,16 176,21.73125 176,28.8 v 134.4 c 0,7.06875 -5.51082,12.8 -12.30769,12.8 H 28.307693 c -6.796875,0 -12.307692,-5.73125 -12.307692,-12.8 V 28.8 c 0,-7.06875 5.510817,-12.8 12.307692,-12.8 z m 0,0"
     id="path4" />
  <path
     style="fill:#ffffff;stroke-width:4"
     d="M 28,28 H 164 V 164 H 28 Z m 0,0"
     id="path6" />
  <path
     style="fill:#3d3846;stroke-width:4"
     d="m 28,116 v 48 h 48 v -48 z m 12,12 h 24 v 24 H 40 Z m 8,8 v 8 h 8 v -8 z"
     id="path8" />
  <path
     style="fill:#3d3846;stroke-width:4"
     d="m 28,88 h 8 v 8 h -8 z m 0,0"
     id="path10" />
  <path
     style="fill:#3d3846;stroke-width:4"
     d="m 36,92 h 12 v 12 H 36 Z m 0,0"
     id="path12" />
  <path
     style="fill:#3d3846;stroke-width:4"
     d="m 48,88 h 12 v 8 H 48 Z m 0,0"
     id="path14" />
  <path
     style="fill:#3d3846;stroke-width:4"
     d="m 64,92 h 12 v 12 H 64 Z m 0,0"
     id="path16" />
  <path
     style="fill:#3d3846;stroke-width:4"
     d="m 84,92 h 32 v 12 H 84 Z m 0,0"
     id="path18" />
  <path
     style="fill:#3d3846;stroke-width:4"
     d="m 52,100 h 8 v 8 h -8 z m 0,0"
     id="path20" />
  <path
     style="fill:#3d3846;stroke-width:4"
     d="m 60,92 h 8 v 8 h -8 z m 0,0"
     id="path22" />
  <path
     style="fill:#3d3846;stroke-width:4"
     d="m 76,92 h 8 v 8 h -8 z m 0,0"
     id="path24" />
  <path
     style="fill:#3d3846;stroke-width:4"
     d="m 84,88 h 8 v 8 h -8 z m 0,0"
     id="path26" />
  <path
     style="fill:#3d3846;stroke-width:4"
     d="m 88,80 h 8 v 8 h -8 z m 0,0"
     id="path28" />
  <path
     style="fill:#3d3846;stroke-width:4"
     d="m 96,88 h 12 v 8 H 96 Z m 0,0"
     id="path30" />
  <path
     style="fill:#3d3846;stroke-width:4"
     d="m 84,68 h 24 V 80 H 84 Z m 0,0"
     id="path32" />
  <path
     style="fill:#3d3846;stroke-width:4"
     d="m 88,112 h 20 v 8 H 88 Z m 0,0"
     id="path34" />
  <path
     style="fill:#3d3846;stroke-width:4"
     d="m 84,156 h 24 v 8 H 84 Z m 0,0"
     id="path36" />
  <path
     style="fill:#3d3846;stroke-width:4"
     d="m 84,120 h 12 v 20 H 84 Z m 0,0"
     id="path38" />
  <path
     style="fill:#3d3846;stroke-width:4"
     d="m 96,28 h 12 V 48 H 96 Z m 0,0"
     id="path40" />
  <path
     style="fill:#3d3846;stroke-width:4"
     d="m 88,48 h 8 v 8 h -8 z m 0,0"
     id="path42" />
  <path
     style="fill:#3d3846;stroke-width:4"
     d="m 96,52 h 8 v 8 h -8 z m 0,0"
     id="path44" />
  <path
     style="fill:#3d3846;stroke-width:4"
     d="m 84,60 h 8 v 8 h -8 z m 0,0"
     id="path46" />
  <path
     style="fill:#3d3846;stroke-width:4"
     d="m 84,36 h 20 v 8 H 84 Z m 0,0"
     id="path48" />
  <path
     style="fill:#3d3846;stroke-width:4"
     d="m 120,100 h 20 v -8 h -20 z m 0,0"
     id="path50" />
  <path
     style="fill:#3d3846;stroke-width:4"
     d="m 128,96 h 8 v -8 h -8 z m 0,0"
     id="path52" />
  <path
     style="fill:#3d3846;stroke-width:4"
     d="m 132,120 h 20 v -8 h -20 z m 0,0"
     id="path54" />
  <path
     style="fill:#3d3846;stroke-width:4"
     d="m 120,108 h 8 v -8 h -8 z m 0,0"
     id="path56" />
  <path
     style="fill:#3d3846;stroke-width:4"
     d="m 116,96 h 8 v -8 h -8 z m 0,0"
     id="path58" />
  <path
     style="fill:#3d3846;stroke-width:4"
     d="m 144,88 h 12 v 12 h -12 z m 0,0"
     id="path60" />
  <path
     style="fill:#3d3846;stroke-width:4"
     d="m 108,120 h 24 v 8 h -24 z m 0,0"
     id="path62" />
  <path
     style="fill:#3d3846;stroke-width:4"
     d="m 120,120 h 8 v -8 h -8 z m 0,0"
     id="path64" />
  <path
     style="fill:#3d3846;stroke-width:4"
     d="m 116,112 h 8 v -8 h -8 z m 0,0"
     id="path66" />
  <path
     style="fill:#3d3846;stroke-width:4"
     d="m 120,132 h 20 v 20 h -20 z m 0,0"
     id="path68" />
  <path
     style="fill:#3d3846;stroke-width:4"
     d="m 108,152 h 8 v 8 h -8 z m 0,0"
     id="path70" />
  <path
     style="fill:#3d3846;stroke-width:4"
     d="m 104,148 h 8 v -8 h -8 z m 0,0"
     id="path72" />
  <path
     style="fill:#3d3846;stroke-width:4"
     d="m 96,140 h 8 v -8 h -8 z m 0,0"
     id="path74" />
  <path
     style="fill:#3d3846;stroke-width:4"
     d="m 84,144 h 8 v 8 h -8 z m 0,0"
     id="path76" />
  <path
     style="fill:#3d3846;stroke-width:4"
     d="m 92,152 h 8 v 8 h -8 z m 0,0"
     id="path78" />
  <path
     style="fill:#3d3846;stroke-width:4"
     d="m 120,156 h 12 v 8 h -12 z m 0,0"
     id="path80" />
  <path
     style="fill:#3d3846;stroke-width:4"
     d="m 84,104 h 8 v 8 h -8 z m 0,0"
     id="path82" />
  <path
     style="fill:#3d3846;stroke-width:4"
     d="m 156,128 h 8 v -8 h -8 z m 0,0"
     id="path84" />
  <path
     style="fill:#3d3846;stroke-width:4"
     d="m 156,112 h 8 v -8 h -8 z m 0,0"
     id="path86" />
  <path
     style="fill:#3d3846;stroke-width:4"
     d="m 140,152 h 8 v -8 h -8 z m 0,0"
     id="path88" />
  <path
     style="fill:#3d3846;stroke-width:4"
     d="m 144,148 h 8 v -8 h -8 z m 0,0"
     id="path90" />
  <path
     style="fill:#3d3846;stroke-width:4"
     d="m 132,132 h 8 v 24 h -8 z m 0,0"
     id="path92" />
  <path
     style="fill:#3d3846;stroke-width:4"
     d="m 144,152 h 20 v 12 h -20 z m 0,0"
     id="path94" />
  <path
     style="fill:#3d3846;stroke-width:4"
     d="m 156,152 h 8 v -8 h -8 z m 0,0"
     id="path96" />
  <path
     style="fill:#3d3846;stroke-width:4"
     d="m 140,136 h 8 v -12 h -8 z m 0,0"
     id="path98" />
  <path
     style="fill:#3d3846;stroke-width:4"
     d="m 152,140 h 8 v -20 h -8 z m 0,0"
     id="path100" />
  <path
     style="fill:#3d3846;stroke-width:4"
     d="m 140,164 h 8 v -8 h -8 z m 0,0"
     id="path102" />
  <rect
     style="opacity:0.2;stroke-width:4;filter:url(#filter1082)"
     width="160"
     height="4"
     x="16"
     y="138"
     id="rect114" />
  <path
     style="fill:#ff2020;stroke-width:4"
     d="M 16,140 H 176 V 116 H 16 Z m 0,0"
     id="path104" />
  <rect
     style="opacity:0.2;stroke-width:4;filter:url(#filter1104)"
     width="160"
     height="4"
     x="16"
     y="130"
     id="rect116" />
  <path
     fill="#fccbc5"
     d="m 16,132 h 160 v -8 H 16 Z m 0,0"
     id="path106"
     style="stroke-width:4" />
  <path
     style="fill:#3d3846;stroke-width:4"
     d="M 28,28 V 76 H 76 V 28 Z M 40,40 H 64 V 64 H 40 Z m 8,8 v 8 h 8 v -8 z"
     id="path108" />
  <path
     style="fill:#3d3846;stroke-width:4"
     d="m 116,28 v 48 h 48 V 28 Z m 12,12 h 24 v 24 h -24 z m 8,8 v 8 h 8 v -8 z"
     id="path110" />
  <path
     id="path112"
     style="opacity:0.2;fill:#ffffff;stroke-width:4"
     d="M 28.304688 16 C 21.507812 16 16 21.728125 16 28.796875 L 16 29.796875 C 16 22.728125 21.507812 17 28.304688 17 L 163.69531 17 C 170.49219 17 176 22.728124 176 29.796875 L 176 28.796875 C 176 21.728124 170.49219 16 163.69531 16 L 28.304688 16 z " />
</svg>
