<svg width="48" height="48" version="1" xmlns="http://www.w3.org/2000/svg">
 <rect transform="matrix(0,-1,-1,0,0,0)" x="-44" y="-44" width="40" height="40" rx="2" ry="2" style="fill:#4f4f4f"/>
 <path d="m6 4c-1.108 0-2 0.892-2 2v1c0-1.108 0.892-2 2-2h36c1.108 0 2 0.892 2 2v-1c0-1.108-0.892-2-2-2z" style="fill:#ffffff;opacity:.1"/>
 <path d="m6 45c-1.108 0-2-0.892-2-2v-1c0 1.108 0.892 2 2 2h36c1.108 0 2-0.892 2-2v1c0 1.108-0.892 2-2 2z" style="opacity:.2"/>
 <g transform="matrix(.49982595 0 0 .49982595 5.0006005 13.007658)" style="fill:#000000;opacity:.2">
  <path d="m53.423396 3.9960939c-7.055591 0-10.020564 2.3454479-12.193352 5.90625-2.172787 3.5608021-3.210937 8.2491841-3.210937 14.095703 0 5.414137-0.216777 9.659367 1.488281 13.630859 0.852529 1.985747 2.437578 3.86152 4.50586 4.9375 2.068281 1.075981 8.395436 1.433594 11.009788 1.433594 5.458177-0.05091 8.342997-1.702566 11.001953-6.001953v-10l-0.0026-4.006964-7.999328 5e-3h-4.001978v8.003917h4v3.632813c-0.588454 0.25726-1.278956 0.363281-2.998047 0.363281-1.835573 0-6.862849-0.293331-7.316429-0.529297s-0.560713-0.332283-0.845703-0.996094c-0.56998-1.32762-0.837891-5.083247-0.837891-10.472656 0-4.848855 0.96185-8.160427 2.039063-9.925781 1.077212-1.765355 4.27638-2.072266 5.36132-2.072266 4.180138-0.09532 4.977955 1.253072 5.687531 4.849609l7.763671-1.939453-0.96875-3.882812s-0.595381-2.1520221-2.302734-3.8593751-3.124127-3.171875-10.179718-3.171875z" style="color-rendering:auto;color:#000000;dominant-baseline:auto;fill:#000000;font-feature-settings:normal;font-variant-alternates:normal;font-variant-caps:normal;font-variant-ligatures:normal;font-variant-numeric:normal;font-variant-position:normal;image-rendering:auto;isolation:auto;mix-blend-mode:normal;opacity:1;shape-padding:0;shape-rendering:auto;solid-color:#000000;text-decoration-color:#000000;text-decoration-line:none;text-decoration-style:solid;text-indent:0;text-orientation:mixed;text-transform:none;white-space:normal"/>
  <path d="m30.009245 3.9841182-14.605084 0.0861944-1.116356 2.5097656-8.2869171 19.927735v5.492187h15.997855v11.943359h8.003906v-11.943359h4.002v-8.003906h-4.002v-16.070313zm-8.010502 8.0158818v11.996094h-6.080078l4.80664-11.972656z" style="color-rendering:auto;color:#000000;dominant-baseline:auto;fill:#000000;font-feature-settings:normal;font-variant-alternates:normal;font-variant-caps:normal;font-variant-ligatures:normal;font-variant-numeric:normal;font-variant-position:normal;image-rendering:auto;isolation:auto;mix-blend-mode:normal;opacity:1;shape-padding:0;shape-rendering:auto;solid-color:#000000;text-decoration-color:#000000;text-decoration-line:none;text-decoration-style:solid;text-indent:0;text-orientation:mixed;text-transform:none;white-space:normal"/>
 </g>
 <g transform="matrix(.49982595 0 0 .49982595 5.0006005 12.008146)" style="fill:#4ea5fe">
  <path d="m53.423396 3.9960939c-7.055591 0-10.020564 2.3454479-12.193352 5.90625-2.172787 3.5608021-3.210937 8.2491841-3.210937 14.095703 0 5.414137-0.216777 9.659367 1.488281 13.630859 0.852529 1.985747 2.437578 3.86152 4.50586 4.9375 2.068281 1.075981 8.395436 1.433594 11.009788 1.433594 5.458177-0.05091 8.342997-1.702566 11.001953-6.001953v-10l-0.0026-4.006964-7.999328 5e-3h-4.001978v8.003917h4v3.632813c-0.588454 0.25726-1.278956 0.363281-2.998047 0.363281-1.835573 0-6.862849-0.293331-7.316429-0.529297s-0.560713-0.332283-0.845703-0.996094c-0.56998-1.32762-0.837891-5.083247-0.837891-10.472656 0-4.848855 0.96185-8.160427 2.039063-9.925781 1.077212-1.765355 4.27638-2.072266 5.36132-2.072266 4.180138-0.09532 4.977955 1.253072 5.687531 4.849609l7.763671-1.939453-0.96875-3.882812s-0.595381-2.1520221-2.302734-3.8593751-3.124127-3.171875-10.179718-3.171875z" style="color-rendering:auto;color:#000000;dominant-baseline:auto;fill:#4ea5fe;font-feature-settings:normal;font-variant-alternates:normal;font-variant-caps:normal;font-variant-ligatures:normal;font-variant-numeric:normal;font-variant-position:normal;image-rendering:auto;isolation:auto;mix-blend-mode:normal;shape-padding:0;shape-rendering:auto;solid-color:#000000;text-decoration-color:#000000;text-decoration-line:none;text-decoration-style:solid;text-indent:0;text-orientation:mixed;text-transform:none;white-space:normal"/>
  <path d="m30.009245 3.9841182-14.605084 0.0861944-1.116356 2.5097656-8.2869171 19.927735v5.492187h15.997855v11.943359h8.003906v-11.943359h4.002v-8.003906h-4.002v-16.070313zm-8.010502 8.0158818v11.996094h-6.080078l4.80664-11.972656z" style="color-rendering:auto;color:#000000;dominant-baseline:auto;fill:#4ea5fe;font-feature-settings:normal;font-variant-alternates:normal;font-variant-caps:normal;font-variant-ligatures:normal;font-variant-numeric:normal;font-variant-position:normal;image-rendering:auto;isolation:auto;mix-blend-mode:normal;shape-padding:0;shape-rendering:auto;solid-color:#000000;text-decoration-color:#000000;text-decoration-line:none;text-decoration-style:solid;text-indent:0;text-orientation:mixed;text-transform:none;white-space:normal"/>
 </g>
 <g transform="matrix(.49982595 0 0 .49982595 5.0006005 12.008146)" style="fill:#ffffff">
  <path transform="matrix(2.0006964,0,0,2.0006964,-10.004684,-24.024655)" d="m31.703125 14.005859c-3.526567 0-5.007734 1.171391-6.09375 2.951172-1.086015 1.779782-1.605469 4.124633-1.605469 7.046875 0 0.699184-0.005923 1.355478-0.001953 1.984375 0.001309-0.327966 0.001953-0.64018 0.001953-0.986328 0-2.922242 0.519454-5.26514 1.605469-7.044922 1.086016-1.779781 2.567183-2.951172 6.09375-2.951172s4.234511 0.730605 5.087891 1.583985c0.853379 0.853379 1.15039 1.929687 1.15039 1.929687l0.25 1 0.234375-0.058593-0.484375-1.941407s-0.297011-1.074355-1.15039-1.927734c-0.85338-0.853379-1.561324-1.585938-5.087891-1.585938zm6.296875 9.994141-3.998047 0.001953h-2v1h2l3.998047-0.001953v-1zm-9.986328 0.789062c-9.58e-4 0.075493-0.009766 0.135845-0.009766 0.212891 0 2.693767 0.135031 4.570796 0.419922 5.234375 0.142446 0.33179 0.195164 0.380105 0.421875 0.498047s2.738783 0.265625 3.65625 0.265625c0.859246 0 1.205876-0.053055 1.5-0.181641v-1c-0.294124 0.128586-0.640754 0.181641-1.5 0.181641-0.917467 0-3.429539-0.14573-3.65625-0.263672s-0.279429-0.166257-0.421875-0.498047c-0.254816-0.593528-0.384698-2.197988-0.410156-4.449219z" style="color-rendering:auto;color:#000000;dominant-baseline:auto;fill:#ffffff;font-feature-settings:normal;font-variant-alternates:normal;font-variant-caps:normal;font-variant-ligatures:normal;font-variant-numeric:normal;font-variant-position:normal;image-rendering:auto;isolation:auto;mix-blend-mode:normal;opacity:.2;shape-padding:0;shape-rendering:auto;solid-color:#000000;text-decoration-color:#000000;text-decoration-line:none;text-decoration-style:solid;text-indent:0;text-orientation:mixed;text-transform:none;white-space:normal"/>
  <path transform="matrix(2.0006964,0,0,2.0006964,-10.004684,-24.024655)" d="m20 14-7.300781 0.042969-0.556641 1.253906-4.142578 9.960937v1l4.142578-9.960937 0.556641-1.253906 7.298828-0.042969 0.001953-1zm-6.640625 10.001953-0.402344 1h3.039063v-1h-2.636719zm6.636719 0v1h0.001953 1.998047v-1h-1.998047-0.001953z" style="color-rendering:auto;color:#000000;dominant-baseline:auto;fill:#ffffff;font-feature-settings:normal;font-variant-alternates:normal;font-variant-caps:normal;font-variant-ligatures:normal;font-variant-numeric:normal;font-variant-position:normal;image-rendering:auto;isolation:auto;mix-blend-mode:normal;opacity:.2;shape-padding:0;shape-rendering:auto;solid-color:#000000;text-decoration-color:#000000;text-decoration-line:none;text-decoration-style:solid;text-indent:0;text-orientation:mixed;text-transform:none;white-space:normal"/>
 </g>
</svg>
