<?xml version="1.0" encoding="UTF-8" standalone="no"?>
<svg
   width="192"
   height="192"
   version="1"
   id="svg18"
   sodipodi:docname="apps_vimeo.svg"
   inkscape:version="1.1-rc (1:1.1+rc+202105232036+f4db50c7c1)"
   xmlns:inkscape="http://www.inkscape.org/namespaces/inkscape"
   xmlns:sodipodi="http://sodipodi.sourceforge.net/DTD/sodipodi-0.dtd"
   xmlns="http://www.w3.org/2000/svg"
   xmlns:svg="http://www.w3.org/2000/svg">
  <sodipodi:namedview
     id="namedview20"
     pagecolor="#ffffff"
     bordercolor="#666666"
     borderopacity="1.0"
     inkscape:pageshadow="2"
     inkscape:pageopacity="0.0"
     inkscape:pagecheckerboard="0"
     showgrid="false"
     inkscape:zoom="1.77"
     inkscape:cx="118.36158"
     inkscape:cy="-14.971751"
     inkscape:window-width="1920"
     inkscape:window-height="1019"
     inkscape:window-x="0"
     inkscape:window-y="34"
     inkscape:window-maximized="1"
     inkscape:current-layer="svg18">
    <inkscape:grid
       type="xygrid"
       id="grid1164" />
  </sodipodi:namedview>
  <defs
     id="defs6">
    <filter
       id="filter963"
       style="color-interpolation-filters:sRGB"
       width="1.096"
       height="1.096"
       x="-0.048000001"
       y="-0.048000001">
      <feGaussianBlur
         id="feGaussianBlur965"
         stdDeviation="3.2" />
    </filter>
    <filter
       inkscape:collect="always"
       style="color-interpolation-filters:sRGB"
       id="filter1554"
       x="-0.04470588"
       y="-0.051818185"
       width="1.0894118"
       height="1.1036364">
      <feGaussianBlur
         inkscape:collect="always"
         stdDeviation="1.9"
         id="feGaussianBlur1556" />
    </filter>
  </defs>
  <path
     style="opacity:0.2;filter:url(#filter963)"
     d="M 176,100 A 80,80 0 0 1 96,180 80,80 0 0 1 16,100 80,80 0 0 1 96,20 80,80 0 0 1 176,100 Z"
     id="path8" />
  <path
     style="fill:#00aff2;fill-opacity:1"
     d="M 176,96 A 80,80 0 0 1 96,176 80,80 0 0 1 16,96 80,80 0 0 1 96,16 80,80 0 0 1 176,96 Z"
     id="path10" />
  <path
     style="opacity:0.2;fill:#ffffff"
     d="M 95.998047,16 A 80,80 0 0 0 16,96 80,80 0 0 0 16.023438,96.638672 80,80 0 0 1 95.998047,17 H 96 A 80,80 0 0 1 175.98242,96.292969 80,80 0 0 0 175.99805,96 80,80 0 0 0 96,16 Z"
     id="path12" />
  <path
     style="opacity:0.2;fill:#000000;fill-opacity:1;stroke-width:0.0415268;filter:url(#filter1554)"
     d="m 90.565372,146.99378 c -2.210963,-0.0887 -4.306801,-0.96504 -6.293129,-2.63142 -0.461469,-0.38713 -1.442367,-1.35171 -1.852211,-1.82145 -1.858458,-2.12982 -3.708278,-5.24304 -5.292899,-8.9077 -0.345044,-0.79799 -0.904234,-2.1745 -1.128778,-2.77867 -0.06786,-0.18267 -2.017996,-7.27242 -4.333572,-15.75492 -2.315577,-8.48248 -4.334424,-15.843059 -4.486319,-16.356801 -1.534902,-5.191223 -3.126241,-9.019897 -4.77961,-11.499595 -0.671506,-1.007142 -1.469692,-1.900112 -2.177558,-2.436151 -0.710096,-0.53771 -1.607734,-0.884172 -2.292539,-0.884778 -0.582666,-5.31e-4 -1.318959,0.339482 -3.128267,1.444562 -0.712937,0.435447 -3.071203,1.994333 -4.18807,2.768427 -0.770648,0.534144 -0.826992,0.565778 -0.879002,0.493178 -0.03059,-0.04248 -1.1036,-1.422637 -2.38453,-3.06664 -1.280923,-1.644003 -2.324686,-3.002083 -2.319478,-3.018013 0,0 13.233202,-12.596282 20.571158,-17.927943 2.980519,-2.157058 5.70805,-3.654646 7.699532,-4.227556 1.114598,-0.320592 1.996181,-0.419137 3.432862,-0.383634 1.268505,0.03111 2.187684,0.177518 3.240023,0.515482 4.248393,1.364148 7.175435,5.325959 8.846945,11.974494 0.40432,1.608196 0.524106,2.267056 1.350013,7.424678 0.820735,5.125455 1.847329,11.264843 2.45232,14.526678 0.540607,2.914686 1.188173,5.680152 1.867331,8.351782 1.262949,4.96811 2.583061,8.39092 4.013685,10.40658 0.312548,0.44037 1.130215,1.2587 1.438765,1.43985 1.209736,0.71037 2.486166,0.4903 4.115366,-0.80035 0.38006,-0.30108 1.48368,-1.36846 1.93492,-1.87127 1.53241,-1.70788 3.58621,-4.57144 5.61264,-7.82561 3.48183,-5.59133 5.47564,-9.664951 6.13931,-12.959859 0.2028,-1.006914 0.26626,-1.713795 0.26831,-2.989109 0.002,-1.429541 -0.0763,-2.053884 -0.37937,-3.00982 -0.56979,-1.797699 -1.76459,-3.208418 -3.54493,-3.792706 -0.92792,-0.304508 -1.79499,-0.421717 -3.09833,-0.418986 -2.38207,0.0075 -4.88809,0.681535 -7.43153,1.694292 -0.14054,0.05614 -0.21059,0.06828 -0.20004,0.03565 0.009,-0.02807 0.11189,-0.349496 0.22881,-0.714847 1.59379,-4.979573 3.70512,-9.247259 6.27447,-12.68274 2.80738,-3.753722 6.25207,-6.523818 10.22754,-8.224641 2.69003,-1.1509 5.60469,-1.817726 8.87875,-2.031505 1.3157,-0.08587 3.41361,-0.06448 4.63157,0.04704 6.73936,0.616681 10.95367,4.193113 12.62473,10.713897 0.6085,2.374477 0.8432,4.72885 0.80018,8.026794 -0.0233,1.792312 -0.0695,2.573007 -0.21752,3.674066 -1.07336,7.990456 -5.8824,18.040785 -14.47089,30.242564 -4.19538,5.96039 -9.35514,12.52866 -13.51857,17.20888 -2.03658,2.28936 -4.83227,5.17606 -6.69086,6.90867 -7.14263,6.65839 -13.49007,10.29969 -19.182741,11.0046 -0.700852,0.0868 -1.780154,0.1389 -2.378487,0.11493 z"
     id="path1516"
     sodipodi:nodetypes="cscscscssssscscccccssssscscssccsccccssccsccsscscc" />
  <path
     style="fill:#ffffff;fill-opacity:1;stroke-width:0.0415268"
     d="m 90.565372,143.99378 c -2.210963,-0.0887 -4.306801,-0.96504 -6.293129,-2.63142 -0.461469,-0.38713 -1.442367,-1.35171 -1.852211,-1.82145 -1.858458,-2.12982 -3.708278,-5.24304 -5.292899,-8.9077 -0.345044,-0.79799 -0.904234,-2.1745 -1.128778,-2.77867 -0.06786,-0.18267 -2.017996,-7.27242 -4.333572,-15.75492 -2.315577,-8.48248 -4.334424,-15.843063 -4.486319,-16.356804 -1.534902,-5.191223 -3.126241,-9.019897 -4.77961,-11.499595 -0.671506,-1.007142 -1.469692,-1.900112 -2.177558,-2.436151 -0.710096,-0.53771 -1.607734,-0.884172 -2.292539,-0.884778 -0.582666,-5.31e-4 -1.318959,0.339482 -3.128267,1.444562 -0.712937,0.435447 -3.071203,1.994333 -4.18807,2.768427 -0.770648,0.534144 -0.826992,0.565778 -0.879002,0.493178 -0.03059,-0.04248 -1.1036,-1.422637 -2.38453,-3.06664 -1.280923,-1.644003 -2.324686,-3.002083 -2.319478,-3.018013 0,0 13.233202,-12.596282 20.571158,-17.927943 2.980519,-2.157058 5.70805,-3.654646 7.699532,-4.227556 1.114598,-0.320592 1.996181,-0.419137 3.432862,-0.383634 1.268505,0.03111 2.187684,0.177518 3.240023,0.515482 4.248393,1.364148 7.175435,5.325959 8.846945,11.974494 0.40432,1.608196 0.524106,2.267056 1.350013,7.424678 0.820735,5.125455 1.847329,11.264843 2.45232,14.526678 0.540607,2.914686 1.188173,5.680151 1.867331,8.351778 1.262949,4.968117 2.583061,8.390927 4.013685,10.406587 0.312548,0.44037 1.130215,1.2587 1.438765,1.43985 1.209736,0.71037 2.486166,0.4903 4.115366,-0.80035 0.38006,-0.30108 1.48368,-1.36846 1.93492,-1.87127 1.53241,-1.70788 3.58621,-4.57144 5.61264,-7.82561 3.48183,-5.591333 5.47564,-9.664954 6.13931,-12.959862 0.2028,-1.006914 0.26626,-1.713795 0.26831,-2.989109 0.002,-1.429541 -0.0763,-2.053884 -0.37937,-3.00982 -0.56979,-1.797699 -1.76459,-3.208418 -3.54493,-3.792706 -0.92792,-0.304508 -1.79499,-0.421717 -3.09833,-0.418986 -2.38207,0.0075 -4.88809,0.681535 -7.43153,1.694292 -0.14054,0.05614 -0.21059,0.06828 -0.20004,0.03565 0.009,-0.02807 0.11189,-0.349496 0.22881,-0.714847 1.59379,-4.979573 3.70512,-9.247259 6.27447,-12.68274 2.80738,-3.753722 6.25207,-6.523818 10.22754,-8.224641 2.69003,-1.1509 5.60469,-1.817726 8.87875,-2.031505 1.3157,-0.08587 3.41361,-0.06448 4.63157,0.04704 6.73936,0.616681 10.95367,4.193113 12.62473,10.713897 0.6085,2.374477 0.8432,4.72885 0.80018,8.026794 -0.0233,1.792312 -0.0695,2.573007 -0.21752,3.674066 -1.07336,7.990456 -5.8824,18.040784 -14.47089,30.242567 -4.19538,5.96039 -9.35514,12.52866 -13.51857,17.20888 -2.03658,2.28936 -4.83227,5.17606 -6.69086,6.90867 -7.14263,6.65839 -13.49007,10.29969 -19.182741,11.0046 -0.700852,0.0868 -1.780154,0.1389 -2.378487,0.11493 z"
     id="path1009"
     sodipodi:nodetypes="cscscscssssscscccccssssscscssccsccccssccsccsscscc" />
</svg>
