<?xml version="1.0" encoding="UTF-8" standalone="no"?>
<svg
   width="192"
   height="192"
   version="1"
   id="svg14"
   sodipodi:docname="apps_canva.svg"
   inkscape:version="1.1.1 (1:1.1+202109281949+c3084ef5ed)"
   xmlns:inkscape="http://www.inkscape.org/namespaces/inkscape"
   xmlns:sodipodi="http://sodipodi.sourceforge.net/DTD/sodipodi-0.dtd"
   xmlns="http://www.w3.org/2000/svg"
   xmlns:svg="http://www.w3.org/2000/svg"
   xmlns:rdf="http://www.w3.org/1999/02/22-rdf-syntax-ns#"
   xmlns:cc="http://creativecommons.org/ns#"
   xmlns:dc="http://purl.org/dc/elements/1.1/">
  <metadata
     id="metadata20">
    <rdf:RDF>
      <cc:Work
         rdf:about="">
        <dc:format>image/svg+xml</dc:format>
        <dc:type
           rdf:resource="http://purl.org/dc/dcmitype/StillImage" />
      </cc:Work>
    </rdf:RDF>
  </metadata>
  <defs
     id="defs18">
    <filter
       inkscape:collect="always"
       style="color-interpolation-filters:sRGB"
       id="filter850"
       x="-0.048000001"
       width="1.096"
       y="-0.048000001"
       height="1.096">
      <feGaussianBlur
         inkscape:collect="always"
         stdDeviation="3.2"
         id="feGaussianBlur852" />
    </filter>
    <filter
       inkscape:collect="always"
       style="color-interpolation-filters:sRGB"
       id="filter2420"
       x="-0.071223635"
       y="-0.22330224"
       width="1.1424473"
       height="1.4466045">
      <feGaussianBlur
         inkscape:collect="always"
         stdDeviation="3.5355679"
         id="feGaussianBlur2422" />
    </filter>
  </defs>
  <sodipodi:namedview
     pagecolor="#ffffff"
     bordercolor="#666666"
     borderopacity="1"
     objecttolerance="10"
     gridtolerance="10"
     guidetolerance="10"
     inkscape:pageopacity="0"
     inkscape:pageshadow="2"
     inkscape:window-width="1920"
     inkscape:window-height="1022"
     id="namedview16"
     showgrid="false"
     inkscape:zoom="1"
     inkscape:cx="12"
     inkscape:cy="87"
     inkscape:window-x="0"
     inkscape:window-y="34"
     inkscape:window-maximized="1"
     inkscape:current-layer="svg14"
     inkscape:pagecheckerboard="0"
     inkscape:snap-bbox="true"
     inkscape:snap-bbox-midpoints="true"
     inkscape:snap-global="true">
    <inkscape:grid
       type="xygrid"
       id="grid5193" />
  </sodipodi:namedview>
  <circle
     style="opacity:0.2;fill:#000000;stroke-width:4;filter:url(#filter850)"
     cx="96"
     cy="100"
     r="80"
     id="circle832" />
  <circle
     id="circle4"
     r="80"
     cy="96"
     cx="96"
     style="fill:#1f7ae5;stroke-width:4;fill-opacity:1" />
  <path
     id="path2382"
     style="opacity:0.2;mix-blend-mode:normal;fill:#000000;stroke-width:0.295044;filter:url(#filter2420)"
     d="m 56.371094,78.000469 c -1.528092,0.0075 -3.068866,0.164928 -4.095703,0.46875 -4.471888,1.323163 -9.501076,5.383348 -12.035157,9.716797 -5.518557,9.437105 -3.753266,22.693194 3.519532,26.431644 2.357644,1.21191 3.505626,1.44466 6.755859,1.36914 2.856138,-0.0663 3.273208,-0.1518 5.119141,-1.06055 2.384389,-1.17383 5.573587,-4.07256 7.259765,-6.59766 0.964515,-1.44437 1.181641,-1.6374 1.181641,-1.05078 0,2.14113 1.591222,4.66316 3.425781,5.42969 2.232489,0.93279 5.082046,-0.0257 7.103516,-2.39062 l 1.203125,-1.40625 0.347656,1.05664 c 0.418837,1.26909 1.990781,2.72361 3.240234,2.99804 1.920001,0.4217 4.543499,-0.7494 6.314454,-2.81836 1.111277,-1.29828 1.099056,-1.30442 1.521484,0.80079 0.267641,1.3338 1.151633,2.0174 2.560547,1.98046 0.647459,-0.017 1.322759,-0.17822 1.501953,-0.35742 0.179193,-0.17919 0.759994,-1.64857 1.289062,-3.26562 2.067309,-6.3186 6.405657,-13.601566 8.265626,-13.601566 0.5998,0 0.50579,1.784718 -0.35547,5.939456 -1.39798,6.74382 -0.904634,9.72167 1.80859,10.92187 3.1812,1.40719 6.68072,-1.14973 9.56446,-6.99218 l 1.10547,-2.24024 0.20312,1.53516 c 0.30318,2.28549 1.48897,5.77324 2.3457,6.89648 1.41646,1.85706 2.99612,1.61291 5.7754,-0.89062 1.92176,-1.7311 4.64215,-5.33104 6.26562,-8.28907 l 1.18164,-2.15429 1.375,-0.01 c 0.75613,-0.006 1.70759,-0.19973 2.11328,-0.431642 1.09523,-0.62608 1.15093,-0.55921 0.67383,0.810552 -0.61553,1.76722 -0.8103,5.37407 -0.39844,7.35547 0.93533,4.49973 4.92767,6.23467 8.65821,3.76367 0.72767,-0.482 1.63724,-1.33813 2.02148,-1.90235 0.38423,-0.56422 0.78767,-1.02623 0.89648,-1.02734 0.10882,-10e-4 0.28746,0.40398 0.39649,0.90039 0.27691,1.26073 1.91948,2.81314 3.23828,3.06055 2.04018,0.38274 4.28402,-0.49443 6.10937,-2.38867 1.96388,-2.03797 2.9503,-5.39054 1.85352,-6.30078 -0.5547,-0.46035 -0.48658,-0.5406 -1.53711,1.77539 -1.05576,2.32753 -2.39774,3.83593 -3.41211,3.83593 -0.87768,-1e-5 -1.09179,-0.46364 -1.0918,-2.35156 0,-1.94345 0.67632,-5.34653 2.08399,-10.480469 0.65238,-2.379277 1.10474,-4.881796 1.00586,-5.193359 -0.22271,-0.7017 -1.28486,-0.990186 -2.67969,-0.728515 -0.71238,0.133644 -1.48492,0.637416 -2.35742,1.535156 -0.88977,0.915505 -1.29883,1.178007 -1.29883,0.835937 0,-0.274533 -0.45216,-0.950219 -1.00391,-1.501953 -0.93109,-0.931098 -1.13799,-1.002569 -2.87695,-1 -2.44301,0.0036 -4.28176,1.029469 -6.63867,3.703125 -1.98931,2.256642 -3.7014,3.675781 -5.16602,3.675781 h -1.02734 l 0.53516,-2.138672 c 0.99647,-2.901109 1.07471,-6.668969 0.16601,-7.896484 -1.29262,-1.746104 -3.63,-1.812276 -5.4375,-0.142578 -2.0776,1.919212 -2.60584,5.804161 -1.1914,8.642578 0.69395,1.392579 1.50873,2.506171 2.33398,2.781251 0.69539,0.2318 -3.86032,7.776202 -5.24219,8.681642 -1.75157,1.14767 -2.68152,-1.02518 -2.78711,-9.781252 -0.045,-3.73232 -0.0846,-7.184935 -0.0879,-7.306641 -0.003,-0.121706 -0.325,-0.220703 -1.20508,-0.220703 -1.28874,0 -1.77667,0.147841 -2.5039,0.759766 -0.98542,0.82918 -1.79688,3.321699 -1.79688,5.152343 0,1.759099 -1.08643,5.480107 -2.24023,7.675787 -1.12696,2.14461 -2.99549,4.11914 -3.89844,4.11914 -1.5075,0 -1.57834,-1.49626 -0.33789,-7.04297 1.34822,-6.028609 1.19777,-8.910632 -0.58203,-10.287113 -0.70301,-0.543695 -2.8607,-0.447911 -4.0918,0.181641 -1.350716,0.690729 -4.315758,3.776385 -5.640622,5.86914 -0.543246,0.858112 -1.030735,1.81887 -1.082031,1.76758 -0.05129,-0.0513 0.03024,-0.921868 0.179687,-1.566408 0.381562,-1.64573 0.349365,-4.482067 -0.05859,-5.248047 -0.742974,-1.394987 -2.18565,-1.76774 -3.738282,-0.964843 -0.7477,0.386649 -0.834866,0.625854 -1.162109,3.216797 -0.804575,6.370203 -3.88931,13.432703 -6.640625,14.855473 -0.88083,0.4555 -0.935288,0.44626 -1.478516,-0.22461 -0.474499,-0.58598 -0.533708,-0.97853 -0.371093,-2.47071 0.243115,-2.23086 1.436558,-7.940762 2.386718,-11.115232 0.884002,-2.953429 0.921536,-3.963475 0.15625,-4.373047 -1.38211,-0.739682 -3.164372,-0.138558 -4.669922,1.576172 l -0.902343,1.027344 -0.371094,-0.90039 c -0.533041,-1.286879 -1.879111,-2.006487 -3.75,-2.007813 -2.042114,-0.0015 -3.261602,0.5398 -5.109375,2.267578 -2.091943,1.956092 -3.030983,3.716657 -4.523438,7.328128 -1.619458,3.91879 -3.267391,6.4517 -5.638671,8.66992 -2.315705,2.16622 -4.296266,2.98242 -7.236329,2.98242 -2.413091,0 -3.605023,-0.43235 -5.214843,-1.88672 -3.516032,-3.1763 -4.339002,-11.266752 -1.832024,-18.029065 3.28654,-8.865108 12.354969,-14.624639 15.564453,-9.884765 0.979601,1.446714 0.829289,4.393296 -0.359375,7.003906 -0.686952,1.508725 -0.772009,1.921703 -0.46875,2.287109 1.014931,1.222916 4.100061,-0.438386 5.353515,-2.882812 2.273439,-4.433559 0.380337,-9.001315 -4.314453,-10.41211 -0.978275,-0.29391 -2.493392,-0.435238 -4.021484,-0.427734 z m 70.906246,11.882812 c 0.75802,-0.01141 1.00099,2.207083 0.33204,5.128907 -0.21533,0.940563 -0.45393,1.774056 -0.53126,1.853515 -0.0774,0.07946 -0.35186,-0.311419 -0.60937,-0.86914 -0.6154,-1.332831 -0.62815,-4.541456 -0.0215,-5.431641 0.31697,-0.465095 0.59803,-0.678147 0.83007,-0.681641 z m -51.849606,4.117188 c 0.133517,-0.0043 0.26402,0.012 0.388672,0.04883 1.834834,0.542053 1.479736,6.925901 -0.669922,12.037111 -1.572286,3.7384 -3.278706,4.88661 -4.548828,3.0625 -1.056399,-1.51718 -0.664823,-6.68845 0.78711,-10.396486 1.09569,-2.79825 2.752312,-4.710391 4.042968,-4.751953 z m 68.697266,0 c 0.34032,0.0014 0.65974,0.14129 0.99219,0.412109 2.07138,1.687396 0.2364,11.186002 -2.77539,14.371092 -1.18094,1.2489 -2.11864,1.51419 -3.17188,0.89649 -0.63409,-0.37189 -1.16754,-2.14576 -1.16992,-3.89453 -0.004,-3.22932 2.11058,-8.736538 4.06445,-10.583989 0.86428,-0.817199 1.49335,-1.203446 2.06055,-1.201172 z" />
  <path
     id="path1147"
     style="opacity:1;fill:#ffffff;stroke-width:0.295044"
     d="m 56.371094,75.999638 c -1.528092,0.0075 -3.068866,0.164928 -4.095703,0.46875 -4.471888,1.323163 -9.501076,5.383348 -12.035157,9.716797 -5.518557,9.437105 -3.753266,22.693195 3.519532,26.431645 2.357644,1.21191 3.505626,1.44466 6.755859,1.36914 2.856138,-0.0663 3.273208,-0.1518 5.119141,-1.06055 2.384389,-1.17383 5.573587,-4.07256 7.259765,-6.59766 0.964515,-1.44437 1.181641,-1.6374 1.181641,-1.05078 0,2.14113 1.591222,4.66316 3.425781,5.42969 2.232489,0.93279 5.082046,-0.0257 7.103516,-2.39062 l 1.203125,-1.40625 0.347656,1.05664 c 0.418837,1.26909 1.990781,2.72361 3.240234,2.99804 1.920001,0.4217 4.543499,-0.7494 6.314454,-2.81836 1.111277,-1.29828 1.099056,-1.30442 1.521484,0.80079 0.267641,1.3338 1.151633,2.0174 2.560547,1.98046 0.647459,-0.017 1.322759,-0.17822 1.501953,-0.35742 0.179193,-0.17919 0.759994,-1.64857 1.289062,-3.26562 2.067309,-6.3186 6.405657,-13.601567 8.265626,-13.601567 0.5998,0 0.50579,1.784718 -0.35547,5.939455 -1.39798,6.743822 -0.904634,9.721672 1.80859,10.921872 3.1812,1.40719 6.68072,-1.14973 9.56446,-6.99218 l 1.10547,-2.24024 0.20312,1.53516 c 0.30318,2.28549 1.48897,5.77324 2.3457,6.89648 1.41646,1.85706 2.99612,1.61291 5.7754,-0.89062 1.92176,-1.7311 4.64215,-5.33104 6.26562,-8.28907 l 1.18164,-2.154294 1.375,-0.0098 c 0.75613,-0.0058 1.70759,-0.199729 2.11328,-0.431641 1.09523,-0.626087 1.15093,-0.559215 0.67383,0.810547 -0.61553,1.767224 -0.8103,5.374074 -0.39844,7.355474 0.93533,4.49973 4.92767,6.23467 8.65821,3.76367 0.72767,-0.482 1.63724,-1.33813 2.02148,-1.90235 0.38423,-0.56422 0.78767,-1.02623 0.89648,-1.02734 0.10882,-0.001 0.28746,0.40398 0.39649,0.90039 0.27691,1.26073 1.91948,2.81314 3.23828,3.06055 2.04018,0.38274 4.28402,-0.49443 6.10937,-2.38867 1.96388,-2.03797 2.9503,-5.39054 1.85352,-6.30078 -0.5547,-0.46035 -0.48658,-0.5406 -1.53711,1.77539 -1.05576,2.32753 -2.39774,3.83593 -3.41211,3.83593 -0.87768,-10e-6 -1.09179,-0.46364 -1.0918,-2.35156 0,-1.94345 0.67632,-5.34653 2.08399,-10.48047 0.65238,-2.379277 1.10474,-4.881796 1.00586,-5.193359 -0.22271,-0.7017 -1.28486,-0.990186 -2.67969,-0.728515 -0.71238,0.133644 -1.48492,0.637416 -2.35742,1.535156 -0.88977,0.915505 -1.29883,1.178007 -1.29883,0.835937 0,-0.274533 -0.45216,-0.950219 -1.00391,-1.501953 -0.93109,-0.931098 -1.13799,-1.002569 -2.87695,-1 -2.44301,0.0036 -4.28176,1.029469 -6.63867,3.703125 -1.98931,2.256642 -3.7014,3.675781 -5.16602,3.675781 h -1.02734 L 130.2168,94.2262 c 0.99647,-2.901109 1.07471,-6.668969 0.16601,-7.896484 -1.29262,-1.746104 -3.63,-1.812276 -5.4375,-0.142578 -2.0776,1.919212 -2.60584,5.804161 -1.1914,8.642578 0.69395,1.392579 1.50873,2.506168 2.33398,2.78125 0.69539,0.231797 -3.86032,7.776204 -5.24219,8.681644 -1.75157,1.14767 -2.68152,-1.02518 -2.78711,-9.781253 -0.045,-3.73232 -0.0846,-7.184935 -0.0879,-7.306641 -0.003,-0.121706 -0.325,-0.220703 -1.20508,-0.220703 -1.28874,0 -1.77667,0.147841 -2.5039,0.759766 -0.98542,0.82918 -1.79688,3.321699 -1.79688,5.152343 0,1.759099 -1.08643,5.480108 -2.24023,7.675788 -1.12696,2.14461 -2.99549,4.11914 -3.89844,4.11914 -1.5075,0 -1.57834,-1.49626 -0.33789,-7.042972 1.34822,-6.028608 1.19777,-8.910631 -0.58203,-10.287112 -0.70301,-0.543695 -2.8607,-0.447911 -4.0918,0.181641 -1.350716,0.690729 -4.315758,3.776385 -5.640622,5.86914 -0.543246,0.858112 -1.030735,1.818869 -1.082031,1.767579 -0.05129,-0.0513 0.03024,-0.921867 0.179687,-1.566407 0.381562,-1.64573 0.349365,-4.482067 -0.05859,-5.248047 -0.742974,-1.394987 -2.18565,-1.76774 -3.738282,-0.964843 -0.7477,0.386649 -0.834866,0.625854 -1.162109,3.216797 -0.804575,6.370204 -3.88931,13.432704 -6.640625,14.855474 -0.88083,0.4555 -0.935288,0.44626 -1.478516,-0.22461 -0.474499,-0.58598 -0.533708,-0.97853 -0.371093,-2.47071 0.243115,-2.23086 1.436558,-7.940763 2.386718,-11.115233 0.884002,-2.953429 0.921536,-3.963475 0.15625,-4.373047 -1.38211,-0.739682 -3.164372,-0.138558 -4.669922,1.576172 l -0.902343,1.027344 -0.371094,-0.90039 c -0.533041,-1.286879 -1.879111,-2.006487 -3.75,-2.007813 -2.042114,-0.0015 -3.261602,0.5398 -5.109375,2.267578 -2.091943,1.956092 -3.030983,3.716657 -4.523438,7.328125 -1.619458,3.918794 -3.267391,6.451704 -5.638671,8.669924 -2.315705,2.16622 -4.296266,2.98242 -7.236329,2.98242 -2.413091,0 -3.605023,-0.43235 -5.214843,-1.88672 -3.516039,-3.17653 -4.339009,-11.266985 -1.832031,-18.029296 3.28654,-8.865108 12.354969,-14.624639 15.564453,-9.884765 0.979601,1.446714 0.829289,4.393296 -0.359375,7.003906 -0.686952,1.508725 -0.772009,1.921703 -0.46875,2.287109 1.014931,1.222916 4.100061,-0.438386 5.353515,-2.882812 2.273439,-4.433559 0.380337,-9.001315 -4.314453,-10.41211 -0.978275,-0.29391 -2.493392,-0.435238 -4.021484,-0.427734 z M 127.27734,87.88245 c 0.75802,-0.01141 1.00099,2.207083 0.33204,5.128907 -0.21533,0.940563 -0.45393,1.774056 -0.53126,1.853515 -0.0774,0.07946 -0.35186,-0.311419 -0.60937,-0.86914 -0.6154,-1.332831 -0.62815,-4.541456 -0.0215,-5.431641 0.31697,-0.465095 0.59803,-0.678147 0.83007,-0.681641 z m -51.849606,4.117188 c 0.133517,-0.0043 0.26402,0.012 0.388672,0.04883 1.834834,0.542053 1.479736,6.925903 -0.669922,12.037114 -1.572286,3.7384 -3.278706,4.88661 -4.548828,3.0625 -1.056399,-1.51718 -0.664823,-6.68845 0.78711,-10.396489 1.09569,-2.79825 2.752312,-4.710391 4.042968,-4.751953 z m 68.697266,0 c 0.34032,0.0014 0.65974,0.14129 0.99219,0.412109 2.07138,1.687396 0.2364,11.186003 -2.77539,14.371093 -1.18094,1.2489 -2.11864,1.51419 -3.17188,0.89649 -0.63409,-0.37189 -1.16754,-2.14576 -1.16992,-3.89453 -0.004,-3.22932 2.11058,-8.736539 4.06445,-10.58399 0.86428,-0.817199 1.49335,-1.203446 2.06055,-1.201172 z" />
  <path
     style="opacity:0.2;fill:#ffffff;stroke-width:4"
     d="M 96 16 A 80 80 0 0 0 16 96 A 80 80 0 0 0 16.019531 96.472656 A 80 80 0 0 1 96 17 A 80 80 0 0 1 175.97461 96.513672 A 80 80 0 0 0 176 96 A 80 80 0 0 0 96 16 z "
     id="path6" />
</svg>
