<?xml version="1.0" encoding="UTF-8" standalone="no"?>
<svg
   width="192"
   height="192"
   version="1.1"
   id="svg14"
   sodipodi:docname="apps_wordpress.svg"
   inkscape:version="1.1-rc (1:1.1+rc+202105232036+f4db50c7c1)"
   xmlns:inkscape="http://www.inkscape.org/namespaces/inkscape"
   xmlns:sodipodi="http://sodipodi.sourceforge.net/DTD/sodipodi-0.dtd"
   xmlns="http://www.w3.org/2000/svg"
   xmlns:svg="http://www.w3.org/2000/svg">
  <defs
     id="defs18">
    <filter
       inkscape:collect="always"
       style="color-interpolation-filters:sRGB"
       id="filter967"
       x="-0.048000001"
       y="-0.048000001"
       width="1.096"
       height="1.096">
      <feGaussianBlur
         inkscape:collect="always"
         stdDeviation="3.2"
         id="feGaussianBlur969" />
    </filter>
    <filter
       inkscape:collect="always"
       style="color-interpolation-filters:sRGB"
       id="filter1010"
       x="-0.048000001"
       y="-0.048000001"
       width="1.096"
       height="1.096">
      <feGaussianBlur
         inkscape:collect="always"
         stdDeviation="2.72"
         id="feGaussianBlur1012" />
    </filter>
  </defs>
  <sodipodi:namedview
     id="namedview16"
     pagecolor="#ffffff"
     bordercolor="#666666"
     borderopacity="1.0"
     inkscape:pageshadow="2"
     inkscape:pageopacity="0.0"
     inkscape:pagecheckerboard="0"
     showgrid="false"
     inkscape:zoom="2.48"
     inkscape:cx="23.991935"
     inkscape:cy="88.508065"
     inkscape:window-width="1920"
     inkscape:window-height="1019"
     inkscape:window-x="0"
     inkscape:window-y="34"
     inkscape:window-maximized="1"
     inkscape:current-layer="svg14" />
  <path
     fill="#248afd"
     d="M 96,20 A 80,80 0 0 0 16,100 80,80 0 0 0 96,180 80,80 0 0 0 176,100 80,80 0 0 0 96,20 Z"
     id="path929"
     style="opacity:0.2;fill:#000000;stroke-width:4;filter:url(#filter967)" />
  <path
     fill="#248afd"
     d="M 96,16 A 80,80 0 0 0 16,96 80,80 0 0 0 96,176 80,80 0 0 0 176,96 80,80 0 0 0 96,16 Z"
     id="path4"
     style="stroke-width:4" />
  <path
     id="path6"
     style="stroke-width:4;fill:#ffffff;opacity:0.2"
     d="M 95.998047 16 A 80 80 0 0 0 16 96 A 80 80 0 0 0 16.029297 96.560547 A 80 80 0 0 1 95.998047 17 L 96 17 A 80 80 0 0 1 175.98438 96.376953 A 80 80 0 0 0 175.99805 96 A 80 80 0 0 0 96 16 L 95.998047 16 z " />
  <path
     style="opacity:0.2;stroke-width:4;filter:url(#filter1010)"
     d="M 96,30 A 68,68 0 0 0 28,98 68,68 0 0 0 96,166 68,68 0 0 0 164,98 68,68 0 0 0 96,30 Z m 0,4 a 64,64 0 0 1 46.40625,19.976564 C 140.67182,53.992196 138.93966,54 138.79688,54 c -6.34569,0 -10.85157,5.41972 -10.85157,11.359376 0,5.322448 3.07605,8.23224 6.35157,13.554688 2.46032,4.304436 5.32812,9.834792 5.32812,17.820312 0,5.531464 -2.12053,11.953484 -4.91406,20.890624 l -6.45313,21.53906 -23.35156,-69.062496 c 3.88783,-0.20408 8.99219,-0.21876 8.99219,-0.21876 3.48084,-0.411872 3.07952,-8.330324 -0.40625,-8.125 0,0 -12.07053,0.820312 -18.828126,0.820312 -6.349384,0 -19.820316,-0.820312 -19.820312,-0.820312 -3.48208,-0.20532 -3.888332,7.920936 -0.406252,8.125 0,0 6.098508,0.0148 9.578124,0.21876 L 94.085936,97.281248 79.9375,139.69531 56.414064,70.5 c 3.895208,-0.20408 9.398436,-0.609376 9.398436,-0.609376 3.47962,-0.41188 3.069248,-7.931884 -0.414064,-7.72656 0,0 -12.467736,0.820312 -19.22656,0.820312 -1.063024,4e-6 -2.333752,-0.0336 -3.640628,-0.07032 A 64,64 0 0 1 96,34 Z m 55.86719,32.929688 A 64,64 0 0 1 160,98 64,64 0 0 1 129.6875,152.35938 l 18.53906,-53.57032 c 3.68865,-9.216236 3.71094,-16.591572 3.71094,-23.148436 -0.2028,-2.897952 -0.0737,-5.80576 -0.0703,-8.710936 z M 38.054688,71.007812 c -0.520051,1.281704 -1.070312,2.695312 -1.070312,2.695312 l 29.585936,81.062496 c 1.918456,0.9939 3.884148,1.88571 5.890624,2.67969 2.006476,0.79399 4.053736,1.49015 6.132816,2.07813 l 18.546872,-53.88282 19.312496,52.91407 c 2.2791,-0.76391 4.51218,-1.65849 6.6875,-2.67188 a 64,64 0 0 1 -6.6875,2.67188 A 64,64 0 0 1 96,162 64,64 0 0 1 78.593752,159.52344 64,64 0 0 1 72.460936,157.44531 64,64 0 0 1 66.570312,154.76562 64,64 0 0 1 32,98 64,64 0 0 1 38.054688,71.007812 Z m 88.437502,83.187498 a 64,64 0 0 1 -3.21875,1.625 c 1.08862,-0.51019 2.16017,-1.05406 3.21875,-1.625 z"
     id="path8" />
  <path
     style="fill:#ffffff;stroke-width:4"
     d="M 146.04,51.945312 C 145.76088,51.929312 139.08336,52 138.79688,52 c -6.34569,0 -10.85157,5.419728 -10.85157,11.359384 0,5.322448 3.07605,8.23224 6.35157,13.554688 2.46032,4.304436 5.32812,9.834792 5.32812,17.820312 0,5.531466 -2.12053,11.953476 -4.91406,20.890626 l -6.45313,21.53906 -23.35156,-69.062498 c 3.88783,-0.20408 8.99219,-0.21876 8.99219,-0.21876 3.48084,-0.411872 3.07952,-8.330324 -0.40625,-8.125 0,0 -12.07053,0.820312 -18.828126,0.820312 -6.349384,0 -19.820312,-0.820312 -19.820312,-0.820312 -3.48208,-0.20532 -3.888332,7.920936 -0.406252,8.125 0,0 6.098508,0.0148 9.578124,0.21876 L 94.085936,95.281248 79.9375,137.69531 56.414064,68.5 c 3.895208,-0.20408 9.398436,-0.609376 9.398436,-0.609376 3.47962,-0.41188 3.069248,-7.931884 -0.414064,-7.72656 0,0 -12.467736,0.820312 -19.22656,0.820312 -1.063024,4e-6 -2.333752,-0.0336 -3.640628,-0.07032 -3.49929,4.571596 -5.546873,10.78906 -5.546873,10.78906 l 29.585937,81.062504 c 3.836912,1.98778 7.86528,3.58184 12.02344,4.75781 l 18.546872,-53.88281 19.312496,52.91406 c 4.63352,-1.55306 9.07392,-3.63171 13.23438,-6.19531 l 18.53906,-53.570314 c 3.68865,-9.21624 3.71219,-16.591576 3.71219,-23.14844 -0.22752,-3.251108 -0.0204,-6.512588 -0.0628,-9.771368 z"
     id="path10" />
  <path
     style="fill:#ffffff;stroke-width:4"
     d="M 96,28 A 68,68 0 0 0 28,96 68,68 0 0 0 96,164 68,68 0 0 0 164,96 68,68 0 0 0 96,28 Z m 0,4 A 64,64 0 0 1 160,96 64,64 0 0 1 96,160 64,64 0 0 1 32,96 64,64 0 0 1 96,32 Z"
     id="path12" />
</svg>
