<?xml version="1.0" encoding="UTF-8" standalone="no"?>
<svg
   width="192"
   height="192"
   version="1"
   id="svg14"
   sodipodi:docname="apps_music_player_go.svg"
   inkscape:version="1.1.1 (1:1.1+202109281949+c3084ef5ed)"
   xmlns:inkscape="http://www.inkscape.org/namespaces/inkscape"
   xmlns:sodipodi="http://sodipodi.sourceforge.net/DTD/sodipodi-0.dtd"
   xmlns="http://www.w3.org/2000/svg"
   xmlns:svg="http://www.w3.org/2000/svg"
   xmlns:rdf="http://www.w3.org/1999/02/22-rdf-syntax-ns#"
   xmlns:cc="http://creativecommons.org/ns#"
   xmlns:dc="http://purl.org/dc/elements/1.1/">
  <metadata
     id="metadata20">
    <rdf:RDF>
      <cc:Work
         rdf:about="">
        <dc:format>image/svg+xml</dc:format>
        <dc:type
           rdf:resource="http://purl.org/dc/dcmitype/StillImage" />
      </cc:Work>
    </rdf:RDF>
  </metadata>
  <defs
     id="defs18">
    <filter
       inkscape:collect="always"
       style="color-interpolation-filters:sRGB"
       id="filter850"
       x="-0.048000001"
       width="1.096"
       y="-0.048000001"
       height="1.096">
      <feGaussianBlur
         inkscape:collect="always"
         stdDeviation="3.2"
         id="feGaussianBlur852" />
    </filter>
    <filter
       inkscape:collect="always"
       style="color-interpolation-filters:sRGB"
       id="filter28709"
       x="-0.075"
       y="-0.075"
       width="1.15"
       height="1.15">
      <feGaussianBlur
         inkscape:collect="always"
         stdDeviation="2.3125"
         id="feGaussianBlur28711" />
    </filter>
    <filter
       inkscape:collect="always"
       style="color-interpolation-filters:sRGB"
       id="filter28754"
       x="-0.135"
       y="-0.089999998"
       width="1.27"
       height="1.18">
      <feGaussianBlur
         inkscape:collect="always"
         stdDeviation="3.6"
         id="feGaussianBlur28756" />
    </filter>
    <filter
       inkscape:collect="always"
       style="color-interpolation-filters:sRGB"
       id="filter28796"
       x="-0.12752654"
       y="-0.093659149"
       width="1.2550531"
       height="1.1873183">
      <feGaussianBlur
         inkscape:collect="always"
         stdDeviation="5.19104"
         id="feGaussianBlur28798" />
    </filter>
    <filter
       inkscape:collect="always"
       style="color-interpolation-filters:sRGB"
       id="filter28838"
       x="-0.11635383"
       y="-0.10076537"
       width="1.2327077"
       height="1.2015307">
      <feGaussianBlur
         inkscape:collect="always"
         stdDeviation="1.2819781"
         id="feGaussianBlur28840" />
    </filter>
  </defs>
  <sodipodi:namedview
     pagecolor="#ffffff"
     bordercolor="#666666"
     borderopacity="1"
     objecttolerance="10"
     gridtolerance="10"
     guidetolerance="10"
     inkscape:pageopacity="0"
     inkscape:pageshadow="2"
     inkscape:window-width="1920"
     inkscape:window-height="1019"
     id="namedview16"
     showgrid="false"
     inkscape:zoom="1"
     inkscape:cx="107.5"
     inkscape:cy="48"
     inkscape:window-x="0"
     inkscape:window-y="34"
     inkscape:window-maximized="1"
     inkscape:current-layer="svg14"
     inkscape:pagecheckerboard="0"
     inkscape:snap-bbox="true"
     inkscape:snap-bbox-midpoints="true"
     inkscape:snap-global="true"
     showguides="false">
    <inkscape:grid
       type="xygrid"
       id="grid5193" />
  </sodipodi:namedview>
  <circle
     style="opacity:0.2;fill:#000000;stroke-width:4;filter:url(#filter850)"
     cx="96"
     cy="100"
     r="80"
     id="circle832" />
  <circle
     id="circle4"
     r="80"
     cy="96"
     cx="96"
     style="fill:#337df5;stroke-width:4;fill-opacity:1" />
  <path
     style="fill:#38adfa"
     d="m 688.80525,256.99648 c -0.33229,-0.33229 -1.1948,-0.36781 -1.91667,-0.0789 -0.79773,0.31922 -0.56078,0.55618 0.60417,0.60416 1.05416,0.0434 1.64479,-0.19293 1.3125,-0.52522 z"
     id="path1063" />
  <path
     style="opacity:0.2;fill:#ffffff;stroke-width:4"
     d="M 96 16 A 80 80 0 0 0 16 96 A 80 80 0 0 0 16.019531 96.472656 A 80 80 0 0 1 96 17 A 80 80 0 0 1 175.97461 96.513672 A 80 80 0 0 0 176 96 A 80 80 0 0 0 96 16 z "
     id="path6" />
  <path
     style="color:#000000;fill:#2967f3;stroke-linecap:round;stroke-linejoin:round;-inkscape-stroke:none;fill-opacity:1"
     d="m 96,26 c -38.600671,0 -70,31.399329 -70,70 0,38.60067 31.399329,70 70,70 38.60067,0 70,-31.39933 70,-70 0,-38.600671 -31.39933,-70 -70,-70 z m 0,10 c 33.19627,0 60,26.803725 60,60 0,33.19627 -26.80373,60 -60,60 C 62.803725,156 36,129.19627 36,96 36,62.803725 62.803725,36 96,36 Z"
     id="path1026" />
  <path
     id="path28758"
     style="color:#000000;opacity:0.2;fill:#000000;fill-opacity:1;stroke-linecap:round;stroke-linejoin:round;-inkscape-stroke:none;filter:url(#filter28796)"
     d="M 65.542969,34.980469 C 42.159423,46.326527 26,70.309508 26,98 c 0,38.60067 31.399329,70 70,70 9.83334,0 19.19472,-2.04736 27.69336,-5.72266 l -4.14063,-9.0625 C 112.32488,156.29344 104.36682,158 96,158 62.803725,158 36,131.19627 36,98 36,74.250589 49.72166,53.778377 69.685547,44.046875 Z" />
  <path
     id="path21865"
     style="color:#000000;fill:#ffa000;stroke-linecap:round;stroke-linejoin:round;-inkscape-stroke:none;fill-opacity:1"
     d="M 65.542969 32.980469 C 42.159423 44.326527 26 68.309508 26 96 C 26 134.60067 57.399329 166 96 166 C 105.83334 166 115.19472 163.95264 123.69336 160.27734 L 119.55273 151.21484 C 112.32488 154.29344 104.36682 156 96 156 C 62.803725 156 36 129.19627 36 96 C 36 72.250589 49.72166 51.778377 69.685547 42.046875 L 65.542969 32.980469 z " />
  <path
     id="circle28713"
     style="opacity:0.2;fill:#000000;fill-opacity:1;stroke:none;stroke-width:13.2754;stroke-linecap:round;stroke-linejoin:round;stroke-miterlimit:4;stroke-dasharray:none;stroke-opacity:1;filter:url(#filter28754)"
     d="M 69,29 A 10,10 0 0 0 59,39 10,10 0 0 0 69,49 10,10 0 0 0 79,39 10,10 0 0 0 69,29 Z M 96,71 A 27,27 0 0 0 69,98 27,27 0 0 0 96,125 27,27 0 0 0 123,98 27,27 0 0 0 96,71 Z" />
  <circle
     style="opacity:1;fill:#ffffff;fill-opacity:1;stroke:none;stroke-width:13.2754;stroke-linecap:round;stroke-linejoin:round;stroke-miterlimit:4;stroke-dasharray:none;stroke-opacity:1"
     id="path1548"
     cx="69"
     cy="37"
     r="10" />
  <circle
     style="opacity:1;fill:#ffffff;fill-opacity:1;stroke:none;stroke-width:35.8436;stroke-linecap:round;stroke-linejoin:round;stroke-miterlimit:4;stroke-dasharray:none;stroke-opacity:1"
     id="circle1692"
     cx="96"
     cy="96"
     r="27" />
  <circle
     style="opacity:0.2;fill:#000000;fill-opacity:1;stroke:none;stroke-width:49.119;stroke-linecap:round;stroke-linejoin:round;stroke-miterlimit:4;stroke-dasharray:none;stroke-opacity:1;filter:url(#filter28709)"
     id="circle28653"
     cx="139"
     cy="140"
     r="37" />
  <circle
     style="opacity:1;fill:#e91e63;fill-opacity:1;stroke:none;stroke-width:49.119;stroke-linecap:round;stroke-linejoin:round;stroke-miterlimit:4;stroke-dasharray:none;stroke-opacity:1"
     id="circle1694"
     cx="139"
     cy="138"
     r="37" />
  <path
     sodipodi:type="star"
     style="opacity:0.2;fill:#000000;fill-opacity:1;stroke:none;stroke-width:10;stroke-linecap:round;stroke-linejoin:round;stroke-miterlimit:4;stroke-dasharray:none;stroke-opacity:1;filter:url(#filter28838)"
     id="path28800"
     inkscape:flatsided="false"
     sodipodi:sides="3"
     sodipodi:cx="138.81435"
     sodipodi:cy="139.00011"
     sodipodi:r1="17.628685"
     sodipodi:r2="8.8143425"
     sodipodi:arg1="0"
     sodipodi:arg2="1.0471976"
     inkscape:rounded="0"
     inkscape:randomized="0"
     d="M 156.44303,139.00011 143.22152,146.63355 130,154.267 v -15.26689 -15.26689 l 13.22152,7.63344 z"
     inkscape:transform-center-x="-4.4071703"
     inkscape:transform-center-y="1.0328819e-06" />
  <path
     sodipodi:type="star"
     style="opacity:1;fill:#ffffff;fill-opacity:1;stroke:none;stroke-width:10;stroke-linecap:round;stroke-linejoin:round;stroke-miterlimit:4;stroke-dasharray:none;stroke-opacity:1"
     id="path1718"
     inkscape:flatsided="false"
     sodipodi:sides="3"
     sodipodi:cx="138.81434"
     sodipodi:cy="138"
     sodipodi:r1="17.628685"
     sodipodi:r2="8.8143425"
     sodipodi:arg1="0"
     sodipodi:arg2="1.0471976"
     inkscape:rounded="0"
     inkscape:randomized="0"
     d="M 156.44303,138 143.22152,145.63344 130,153.26689 V 138 122.73311 l 13.22152,7.63345 z"
     inkscape:transform-center-x="-4.4071703"
     inkscape:transform-center-y="1.0328819e-06" />
</svg>
