<?xml version="1.0" encoding="UTF-8" standalone="no"?>
<svg
   width="192"
   height="192"
   version="1.1"
   id="svg12"
   sodipodi:docname="apps_cdek.svg"
   inkscape:version="1.1.1 (1:1.1+202109281949+c3084ef5ed)"
   xmlns:inkscape="http://www.inkscape.org/namespaces/inkscape"
   xmlns:sodipodi="http://sodipodi.sourceforge.net/DTD/sodipodi-0.dtd"
   xmlns="http://www.w3.org/2000/svg"
   xmlns:svg="http://www.w3.org/2000/svg">
  <defs
     id="defs16">
    <filter
       inkscape:collect="always"
       style="color-interpolation-filters:sRGB"
       id="filter845"
       x="-0.048000001"
       y="-0.048000001"
       width="1.096"
       height="1.096">
      <feGaussianBlur
         inkscape:collect="always"
         stdDeviation="3.2"
         id="feGaussianBlur847" />
    </filter>
    <filter
       inkscape:collect="always"
       style="color-interpolation-filters:sRGB"
       id="filter1916"
       x="-0.047934666"
       y="-0.17226714"
       width="1.0958693"
       height="1.3445343">
      <feGaussianBlur
         inkscape:collect="always"
         stdDeviation="2.5840227"
         id="feGaussianBlur1918" />
    </filter>
  </defs>
  <sodipodi:namedview
     id="namedview14"
     pagecolor="#ffffff"
     bordercolor="#666666"
     borderopacity="1.0"
     inkscape:pageshadow="2"
     inkscape:pageopacity="0.0"
     inkscape:pagecheckerboard="0"
     showgrid="false"
     inkscape:zoom="1.88"
     inkscape:cx="68.351064"
     inkscape:cy="90.957447"
     inkscape:window-width="1920"
     inkscape:window-height="1016"
     inkscape:window-x="0"
     inkscape:window-y="32"
     inkscape:window-maximized="1"
     inkscape:current-layer="svg12">
    <inkscape:grid
       type="xygrid"
       id="grid1737" />
  </sodipodi:namedview>
  <rect
     x="16"
     y="20"
     width="160"
     height="160"
     rx="16"
     ry="16"
     style="opacity:0.2;stroke-width:4;filter:url(#filter845)"
     id="rect2" />
  <rect
     x="16"
     y="16"
     width="160"
     height="160"
     rx="16"
     ry="16"
     style="fill:#e4e4e4;stroke-width:4;fill-opacity:1"
     id="rect4" />
  <path
     id="path10"
     style="opacity:0.2;fill:#ffffff;stroke-width:4"
     d="M 32 16 C 23.136 16 16 23.136 16 32 L 16 33 C 16 24.136 23.136 17 32 17 L 160 17 C 168.864 17 176 24.136 176 33 L 176 32 C 176 23.136 168.864 16 160 16 L 32 16 z " />
  <path
     id="path1878"
     style="opacity:0.2;fill:#000000;fill-opacity:1;stroke-width:0.107501;filter:url(#filter1916)"
     d="m 115.62305,80 c -11.27622,0.0021 -11.22397,-5.7e-5 -12.44336,0.582031 -0.30173,0.144029 -0.71484,0.413654 -0.91797,0.59961 -0.67147,0.614732 -0.79622,0.95776 -2.626954,7.1875 L 99.449219,89 109.7832,88.996094 c 11.20606,-0.0042 11.3159,-0.0092 12.58594,-0.603516 0.65142,-0.30482 1.32815,-0.951921 1.62109,-1.548828 0.11545,-0.235268 1.47608,-4.683134 2.03516,-6.654297 C 126.07702,80.007452 125.53212,79.9979 115.62305,80 Z m 39.15625,0 -5.60547,0.0059 -4.84375,5.152344 c -2.66352,2.833796 -5.52145,5.876332 -6.35156,6.759766 -0.83013,0.883434 -1.89214,2.043851 -2.35938,2.580078 -0.46724,0.536227 -0.86998,0.954274 -0.89648,0.927734 -0.0266,-0.02658 0.69524,-2.207829 1.60351,-4.845703 3.50275,-10.172753 3.60912,-10.497309 3.49024,-10.542969 -0.0647,-0.02463 -2.13099,-0.03273 -4.5918,-0.01758 l -4.47461,0.02734 -0.80664,2.316406 c -0.44412,1.273854 -1.47086,4.235019 -2.28125,6.580078 -0.81037,2.345069 -2.08935,6.039576 -2.8418,8.210938 -0.75245,2.171352 -2.06399,5.962963 -2.91406,8.423823 -0.85007,2.46086 -1.96295,5.68169 -2.47461,7.15821 -0.51165,1.47652 -0.96255,2.81539 -1.00195,2.97461 L 118.35742,116 h 4.52539 c 3.49691,0 4.5477,-0.0292 4.625,-0.13086 0.0549,-0.0724 0.77922,-2.0752 1.60938,-4.44922 0.83017,-2.37401 1.70406,-4.86814 1.9414,-5.54297 l 0.43164,-1.22656 1.98047,-1.66797 c 1.09,-0.91749 2.03321,-1.66797 2.09571,-1.66797 0.0625,0 0.74567,1.98997 1.51757,4.42188 1.99403,6.28245 2.22302,6.95421 2.68555,7.87695 0.72558,1.44752 1.53544,2.09675 2.85156,2.28711 0.86259,0.12453 7.55274,0.12819 7.55274,0.004 0,-0.0522 -1.02326,-2.90536 -2.27344,-6.3418 -4.29169,-11.796833 -4.7623,-13.092258 -4.87109,-13.375 -0.10678,-0.277483 0.0468,-0.4245 7.43554,-7.105469 4.15012,-3.752588 8.0766,-7.29792 8.72461,-7.876953 0.64802,-0.579022 1.1825,-1.087479 1.1875,-1.130859 0.005,-0.04348 -2.51433,-0.07722 -5.59765,-0.07422 z m -95.710941,0.101562 c -3.52377,0.0046 -7.204527,0.04187 -7.826171,0.109376 -0.562266,0.06106 -1.602854,0.227135 -2.3125,0.36914 -6.43402,1.287482 -11.546848,5.427961 -14.861329,12.033203 -2.742035,5.464411 -3.780816,11.793769 -2.566406,15.644529 1.033243,3.27633 3.446796,5.73861 6.708985,6.84571 1.777743,0.60332 2.670913,0.71536 6.376953,0.79296 2.841996,0.0595 9.273355,0.0348 9.328125,-0.0352 0.0085,-0.0109 0.382633,-1.13343 0.832031,-2.49414 0.679757,-2.05821 0.817508,-2.88761 0.818359,-3.45703 0.0022,-1.38361 -0.818149,-2.24402 -2.578125,-2.69922 -0.531542,-0.13753 -1.48806,-0.18373 -4.875,-0.23633 -1.612775,-0.025 -3.447494,0.3175 -4.917969,-0.41211 -0.762602,-0.37562 -1.26003,-0.87462 -1.65039,-1.65625 -2.247247,-4.49967 1.882609,-13.649349 6.923828,-15.679688 0.587035,-0.236461 0.668252,-0.238735 6.542969,-0.296874 3.789738,-0.03752 6.062492,-0.100365 6.265625,-0.171876 1.129482,-0.397727 1.91086,-1.084237 2.447265,-2.152343 0.298173,-0.59374 2.234375,-6.178901 2.234375,-6.414063 0,-0.06671 -3.366854,-0.09447 -6.890625,-0.08984 z m 11.595703,0.05078 -0.925781,2.685547 c -0.509476,1.476511 -1.550282,4.50902 -2.3125,6.738281 -0.762228,2.229251 -2.045647,5.772875 -2.851562,8.121094 -0.805915,2.348224 -1.464844,4.303454 -1.464844,4.343754 0,0.0403 1.455821,0.0713 3.236328,0.0703 4.245723,-0.002 4.671518,-0.0836 5.714844,-1.0957 0.872015,-0.84592 1.367652,-2.004704 3.15625,-7.384771 0.88386,-2.658623 1.62901,-4.494006 1.65625,-4.566406 0.06951,-0.18474 5.44769,-0.186268 6.068359,-0.002 0.621253,0.184493 1.352614,0.944294 1.544922,1.607422 0.241174,0.831636 0.188086,2.633808 -0.107422,3.853516 -0.525977,2.170985 -1.649124,5.048813 -2.65625,6.806642 -1.400061,2.44366 -3.201476,4.13131 -4.980468,5.02148 -1.341905,0.67136 -1.073689,0.645 -7.158204,0.7168 -4.69214,0.0554 -5.685219,0.0945 -6.240234,0.24023 -1.290918,0.33894 -2.21304,0.99021 -2.673828,1.89063 -0.201201,0.39319 -2.19336,6.41648 -2.19336,6.61133 0,0.043 0.698666,0.0914 1.552735,0.10742 2.945594,0.0553 11.864164,-0.0347 13.291015,-0.13477 4.619532,-0.32408 7.713559,-1.58375 11.095704,-4.51953 4.29149,-3.7251 8.812287,-11.982453 10.224609,-18.677732 0.397045,-1.882253 0.464126,-4.539961 0.154297,-6.039063 C 94.128931,83.32461 92.845638,81.73299 90.197266,80.845703 88.162254,80.163924 87.813437,80.155287 78.808594,80.154297 Z M 111.41016,93 c -6.39089,0 -10.46554,0.04337 -11.01563,0.115234 -1.051366,0.137425 -1.870651,0.43997 -2.468749,0.914063 -0.836885,0.663379 -0.930611,0.9095 -2.875,7.503903 L 94.912109,102 l 10.392581,-0.004 c 11.00973,-0.004 11.38188,-0.0203 12.46875,-0.52148 0.59696,-0.27528 1.28184,-0.9137 1.60351,-1.496094 0.13615,-0.246499 0.65553,-1.831305 1.1543,-3.521485 0.49876,-1.69018 0.93119,-3.15999 0.96289,-3.265625 C 121.54871,93.00966 121.02176,93 111.41016,93 Z m 0.40625,13.94922 c -1.44318,0.001 -3.2934,0.007 -5.66211,0.0156 -8.35659,0.0309 -10.787043,0.0697 -11.199222,0.18164 -0.752462,0.20442 -1.522075,0.57813 -1.929687,0.93555 -0.698575,0.61251 -0.766015,0.7824 -2.119141,5.29883 -0.351041,1.17172 -0.665766,2.21425 -0.697266,2.31836 -0.05316,0.17554 0.136561,0.19181 2.607422,0.22461 1.465627,0.0199 6.217846,0.0285 10.560544,0.0215 7.77293,-0.0132 7.91029,-0.017 8.73047,-0.25195 1.00032,-0.28649 1.57953,-0.62223 2.09375,-1.21289 0.49545,-0.56909 0.54954,-0.71023 1.60938,-4.24414 0.49174,-1.6397 0.92157,-3.05599 0.95507,-3.14649 0.0405,-0.10967 -0.61969,-0.14459 -4.94921,-0.14062 z" />
  <path
     id="path1241"
     style="fill:#00b23c;fill-opacity:1;stroke-width:0.107501"
     d="M 115.62305 78 C 104.34683 78.002055 104.39908 77.999943 103.17969 78.582031 C 102.87796 78.72606 102.46485 78.995685 102.26172 79.181641 C 101.59025 79.796373 101.4655 80.139401 99.634766 86.369141 L 99.449219 87 L 109.7832 86.996094 C 120.98926 86.991932 121.0991 86.986872 122.36914 86.392578 C 123.02056 86.087758 123.69729 85.440657 123.99023 84.84375 C 124.10568 84.608482 125.46631 80.160616 126.02539 78.189453 C 126.07702 78.007452 125.53212 77.9979 115.62305 78 z M 154.7793 78 L 149.17383 78.005859 L 144.33008 83.158203 C 141.66656 85.991999 138.80863 89.034535 137.97852 89.917969 C 137.14839 90.801403 136.08638 91.96182 135.61914 92.498047 C 135.1519 93.034274 134.74916 93.452321 134.72266 93.425781 C 134.69608 93.399198 135.4179 91.217952 136.32617 88.580078 C 139.82892 78.407325 139.93529 78.082769 139.81641 78.037109 C 139.75167 78.012479 137.68542 78.004381 135.22461 78.019531 L 130.75 78.046875 L 129.94336 80.363281 C 129.49924 81.637135 128.4725 84.5983 127.66211 86.943359 C 126.85174 89.288428 125.57276 92.982935 124.82031 95.154297 C 124.06786 97.325649 122.75632 101.11726 121.90625 103.57812 C 121.05618 106.03898 119.9433 109.25981 119.43164 110.73633 C 118.91999 112.21285 118.46909 113.55172 118.42969 113.71094 L 118.35742 114 L 122.88281 114 C 126.37972 114 127.43051 113.97083 127.50781 113.86914 C 127.56275 113.79677 128.28703 111.79394 129.11719 109.41992 C 129.94736 107.04591 130.82125 104.55178 131.05859 103.87695 L 131.49023 102.65039 L 133.4707 100.98242 C 134.5607 100.06493 135.50391 99.314453 135.56641 99.314453 C 135.62889 99.314453 136.31208 101.30442 137.08398 103.73633 C 139.07801 110.01878 139.307 110.69054 139.76953 111.61328 C 140.49511 113.0608 141.30497 113.71003 142.62109 113.90039 C 143.48368 114.02492 150.17383 114.02858 150.17383 113.9043 C 150.17383 113.85209 149.15057 110.99894 147.90039 107.5625 C 143.6087 95.765667 143.13809 94.470242 143.0293 94.1875 C 142.92252 93.910017 143.07609 93.763 150.46484 87.082031 C 154.61496 83.329443 158.54144 79.784111 159.18945 79.205078 C 159.83747 78.626056 160.37195 78.117599 160.37695 78.074219 C 160.38204 78.030739 157.86262 77.997 154.7793 78 z M 59.068359 78.101562 C 55.544589 78.106191 51.863832 78.143431 51.242188 78.210938 C 50.679922 78.271995 49.639334 78.438073 48.929688 78.580078 C 42.495668 79.86756 37.38284 84.008039 34.068359 90.613281 C 31.326324 96.077692 30.287543 102.40705 31.501953 106.25781 C 32.535196 109.53414 34.948749 111.99642 38.210938 113.10352 C 39.988681 113.70684 40.881851 113.81888 44.587891 113.89648 C 47.429887 113.95598 53.861246 113.93123 53.916016 113.86133 C 53.924553 113.85041 54.298649 112.7279 54.748047 111.36719 C 55.427804 109.30898 55.565555 108.47958 55.566406 107.91016 C 55.568556 106.52655 54.748257 105.66614 52.988281 105.21094 C 52.456739 105.07341 51.500221 105.02721 48.113281 104.97461 C 46.500506 104.94958 44.665787 105.29211 43.195312 104.5625 C 42.43271 104.18688 41.935282 103.68788 41.544922 102.90625 C 39.297675 98.406582 43.427531 89.256901 48.46875 87.226562 C 49.055785 86.990101 49.137002 86.987827 55.011719 86.929688 C 58.801457 86.892171 61.074211 86.829323 61.277344 86.757812 C 62.406826 86.360085 63.188204 85.673575 63.724609 84.605469 C 64.022782 84.011729 65.958984 78.426568 65.958984 78.191406 C 65.958984 78.124696 62.59213 78.096934 59.068359 78.101562 z M 70.664062 78.152344 L 69.738281 80.837891 C 69.228805 82.314402 68.187999 85.346911 67.425781 87.576172 C 66.663553 89.805423 65.380134 93.349047 64.574219 95.697266 C 63.768304 98.045485 63.109375 100.00072 63.109375 100.04102 C 63.109375 100.08132 64.565196 100.11232 66.345703 100.11133 C 70.591426 100.10892 71.017221 100.02773 72.060547 99.015625 C 72.932562 98.169707 73.428199 97.010926 75.216797 91.630859 C 76.100657 88.972236 76.845807 87.136853 76.873047 87.064453 C 76.942554 86.879713 82.320737 86.878185 82.941406 87.0625 C 83.562659 87.246993 84.29402 88.006794 84.486328 88.669922 C 84.727502 89.501558 84.674414 91.30373 84.378906 92.523438 C 83.852929 94.694423 82.729782 97.572251 81.722656 99.330078 C 80.322595 101.77374 78.52118 103.46139 76.742188 104.35156 C 75.400283 105.02292 75.668499 104.99656 69.583984 105.06836 C 64.891844 105.12373 63.898765 105.16286 63.34375 105.30859 C 62.052832 105.64753 61.13071 106.2988 60.669922 107.19922 C 60.468721 107.59241 58.476562 113.6157 58.476562 113.81055 C 58.476562 113.8536 59.175228 113.90197 60.029297 113.91797 C 62.974891 113.97324 71.893461 113.8833 73.320312 113.7832 C 77.939844 113.45912 81.033871 112.19945 84.416016 109.26367 C 88.707506 105.53857 93.228303 97.281217 94.640625 90.585938 C 95.03767 88.703685 95.104751 86.045977 94.794922 84.546875 C 94.128931 81.32461 92.845638 79.73299 90.197266 78.845703 C 88.162254 78.163924 87.813437 78.155287 78.808594 78.154297 L 70.664062 78.152344 z M 111.41016 91 C 105.01927 91 100.94462 91.043374 100.39453 91.115234 C 99.343164 91.252659 98.523879 91.555204 97.925781 92.029297 C 97.088896 92.692676 96.99517 92.938797 95.050781 99.533203 L 94.912109 100 L 105.30469 99.996094 C 116.31442 99.992024 116.68657 99.975819 117.77344 99.474609 C 118.3704 99.199329 119.05528 98.560907 119.37695 97.978516 C 119.5131 97.732017 120.03248 96.147211 120.53125 94.457031 C 121.03001 92.766851 121.46244 91.297041 121.49414 91.191406 C 121.54871 91.00966 121.02176 91 111.41016 91 z M 111.81641 104.94922 C 110.37323 104.95054 108.52301 104.95609 106.1543 104.96484 C 97.79771 104.9957 95.367257 105.0345 94.955078 105.14648 C 94.202616 105.3509 93.433003 105.72461 93.025391 106.08203 C 92.326816 106.69454 92.259376 106.86443 90.90625 111.38086 C 90.555209 112.55258 90.240484 113.59511 90.208984 113.69922 C 90.155829 113.87476 90.345545 113.89103 92.816406 113.92383 C 94.282033 113.94373 99.034252 113.95231 103.37695 113.94531 C 111.14988 113.93209 111.28724 113.92828 112.10742 113.69336 C 113.10774 113.40687 113.68695 113.07113 114.20117 112.48047 C 114.69662 111.91138 114.75071 111.77024 115.81055 108.23633 C 116.30229 106.59663 116.73212 105.18034 116.76562 105.08984 C 116.80615 104.98017 116.14593 104.94525 111.81641 104.94922 z " />
</svg>
