<?xml version="1.0" encoding="UTF-8" standalone="no"?>
<svg
   width="192"
   height="192"
   version="1"
   id="svg14"
   sodipodi:docname="apps_baidu_map.svg"
   inkscape:version="1.1-rc (1:1.1+rc+202105232036+f4db50c7c1)"
   xmlns:inkscape="http://www.inkscape.org/namespaces/inkscape"
   xmlns:sodipodi="http://sodipodi.sourceforge.net/DTD/sodipodi-0.dtd"
   xmlns="http://www.w3.org/2000/svg"
   xmlns:svg="http://www.w3.org/2000/svg"
   xmlns:rdf="http://www.w3.org/1999/02/22-rdf-syntax-ns#"
   xmlns:cc="http://creativecommons.org/ns#"
   xmlns:dc="http://purl.org/dc/elements/1.1/">
  <metadata
     id="metadata20">
    <rdf:RDF>
      <cc:Work
         rdf:about="">
        <dc:format>image/svg+xml</dc:format>
        <dc:type
           rdf:resource="http://purl.org/dc/dcmitype/StillImage" />
      </cc:Work>
    </rdf:RDF>
  </metadata>
  <defs
     id="defs18">
    <filter
       inkscape:collect="always"
       style="color-interpolation-filters:sRGB"
       id="filter848"
       x="-0.050380125"
       width="1.1007603"
       y="-0.050380125"
       height="1.1007603">
      <feGaussianBlur
         inkscape:collect="always"
         stdDeviation="3.3586749"
         id="feGaussianBlur850" />
    </filter>
    <filter
       inkscape:collect="always"
       style="color-interpolation-filters:sRGB"
       id="filter27961"
       x="-0.056108105"
       y="-0.041939397"
       width="1.1122162"
       height="1.0838788">
      <feGaussianBlur
         inkscape:collect="always"
         stdDeviation="1.7299999"
         id="feGaussianBlur27963" />
    </filter>
  </defs>
  <sodipodi:namedview
     pagecolor="#ffffff"
     bordercolor="#666666"
     borderopacity="1"
     objecttolerance="10"
     gridtolerance="10"
     guidetolerance="10"
     inkscape:pageopacity="0"
     inkscape:pageshadow="2"
     inkscape:window-width="1920"
     inkscape:window-height="1014"
     id="namedview16"
     showgrid="false"
     inkscape:zoom="1"
     inkscape:cx="105.5"
     inkscape:cy="95.5"
     inkscape:window-x="0"
     inkscape:window-y="34"
     inkscape:window-maximized="1"
     inkscape:current-layer="svg14"
     inkscape:pagecheckerboard="0"
     showguides="false">
    <inkscape:grid
       type="xygrid"
       id="grid3297" />
  </sodipodi:namedview>
  <rect
     id="rect2"
     transform="matrix(0,-1,-1,0,0,0)"
     ry="20"
     rx="20"
     y="-176"
     x="-180"
     height="160"
     width="160"
     style="opacity:0.2;stroke-width:4;filter:url(#filter848)" />
  <path
     id="rect1816"
     style="opacity:1;fill:#ffffff;stroke-width:31.5624;stroke-linecap:round;stroke-linejoin:round;stroke-miterlimit:4;stroke-dasharray:none"
     d="M 36 16 C 25.375735 16 16.760995 24.20747 16.068359 34.650391 L 142.12695 160.70703 L 176 126.83398 L 176 82.310547 L 109.68945 16 L 36 16 z " />
  <path
     id="rect1912"
     style="opacity:1;fill:#a5d34a;stroke-width:18;stroke-linecap:round;stroke-linejoin:round;fill-opacity:1"
     d="M 16.068359 34.650391 C 16.038648 35.098347 16 35.544265 16 36 L 16 156 C 16 167.08 24.92 176 36 176 L 156 176 C 167.08 176 176 167.08 176 156 L 176 109.92578 L 131.00781 149.58984 L 16.068359 34.650391 z " />
  <path
     id="rect1734"
     style="opacity:1;fill:#6ecfff;stroke-width:18;stroke-linecap:round;stroke-linejoin:round;stroke-miterlimit:4;stroke-dasharray:none;fill-opacity:1"
     d="M 109.68945 16 L 176 82.310547 L 176 36 C 176 24.92 167.08 16 156 16 L 109.68945 16 z " />
  <path
     id="path959"
     style="color:#000000;fill:#ffe251;-inkscape-stroke:none;opacity:1;fill-opacity:1"
     d="M 18.21875 26.841797 C 16.808532 29.584785 16 32.692081 16 36 L 16 50.117188 L 72.630859 106.94531 L 16.878906 161.89453 C 18.736702 167.9663 23.401126 172.77241 29.367188 174.85938 L 85.337891 119.69531 L 116.99023 151.45703 L 92.175781 176 L 117.77344 176 L 176 118.41211 L 176 93.095703 L 129.78906 138.80078 L 18.21875 26.841797 z " />
  <path
     id="path27923"
     style="opacity:0.2;fill:#1a1a1a;fill-opacity:1;stroke-width:0.984832;filter:url(#filter27961)"
     d="M 97,49.00001 C 88.008005,49.01809 78.910541,52.308645 71.431974,59.197693 63.255837,66.729305 60.050688,74.014472 60.0007,85.178282 c -0.04769,10.656083 2.324241,15.902628 12.434017,27.505918 7.927934,9.09914 16.447756,21.72925 20.28434,30.06733 1.65343,3.59342 2.938202,5.35266 4.280943,5.2437 1.342743,0.10896 2.62751,-1.65028 4.28094,-5.2437 3.83659,-8.33808 12.35641,-20.96819 20.28435,-30.06733 10.10977,-11.60329 12.4817,-16.849835 12.43401,-27.505918 -0.05,-11.16381 -3.25514,-18.448977 -11.43128,-25.980589 C 115.08946,52.308645 105.992,49.018085 97,49.00001 Z" />
  <path
     id="path3427"
     style="fill:#ff5353;stroke-width:0.984832;fill-opacity:1"
     d="M 97,45.000007 C 88.008005,45.018087 78.910541,48.308642 71.431974,55.19769 63.255837,62.729302 60.050688,70.014469 60.0007,81.178279 c -0.04769,10.656083 2.324241,15.902627 12.434017,27.505921 7.927934,9.09914 16.447756,21.72925 20.28434,30.06733 1.65343,3.59342 2.938202,5.35266 4.280943,5.2437 1.342743,0.10896 2.62751,-1.65028 4.28094,-5.2437 3.83659,-8.33808 12.35641,-20.96819 20.28435,-30.06733 10.10977,-11.603294 12.4817,-16.849838 12.43401,-27.505921 -0.05,-11.16381 -3.25514,-18.448977 -11.43128,-25.980589 C 115.08946,48.308642 105.992,45.018082 97,45.000007 Z" />
  <path
     id="path25931"
     style="opacity:1;fill:#ffffff;fill-opacity:1;stroke-width:18.4586;stroke-linecap:round;stroke-linejoin:round;stroke-miterlimit:4;stroke-dasharray:none"
     d="m 90,66 v 7 H 85.5 C 79.70101,73 75,77.70101 75,83.5 75,89.29899 79.70101,94 85.5,94 H 96 V 83.5 66 Z m 10.01953,8 v 13.375 c -0.09059,1.489575 0.26262,2.9639 1.04883,4.068359 0.82505,1.159031 1.96143,1.793442 2.91602,2.121094 1.5996,0.549044 2.95694,0.447532 3.375,0.398438 H 118 V 74 h -6 v 13.990234 h -5 l -0.18164,0.01953 c 0,0 -0.55278,-0.02072 -0.83789,-0.09961 0.003,-0.02865 0.006,-0.06449 0.0195,-0.214844 l 0.0117,-0.134765 V 74 Z M 85.5,79 H 90 V 83.5 88 H 85.5 C 82.943653,88 81,86.056347 81,83.5 81,80.943653 82.943653,79 85.5,79 Z" />
  <path
     id="rect27798"
     style="opacity:0.2;fill:#ffffff;stroke-width:4"
     d="M 36 16 C 24.92 16 16 24.92 16 36 L 16 37 C 16 25.92 24.92 17 36 17 L 156 17 C 167.08 17 176 25.92 176 37 L 176 36 C 176 24.92 167.08 16 156 16 L 36 16 z " />
</svg>
