<?xml version="1.0" encoding="UTF-8" standalone="no"?>
<svg
   width="192"
   height="192"
   version="1"
   id="svg36"
   sodipodi:docname="apps_stitcher.svg"
   inkscape:version="1.1-rc (1:1.1+rc+202105232036+f4db50c7c1)"
   xmlns:inkscape="http://www.inkscape.org/namespaces/inkscape"
   xmlns:sodipodi="http://sodipodi.sourceforge.net/DTD/sodipodi-0.dtd"
   xmlns="http://www.w3.org/2000/svg"
   xmlns:svg="http://www.w3.org/2000/svg"
   xmlns:rdf="http://www.w3.org/1999/02/22-rdf-syntax-ns#"
   xmlns:cc="http://creativecommons.org/ns#"
   xmlns:dc="http://purl.org/dc/elements/1.1/">
  <metadata
     id="metadata42">
    <rdf:RDF>
      <cc:Work
         rdf:about="">
        <dc:format>image/svg+xml</dc:format>
        <dc:type
           rdf:resource="http://purl.org/dc/dcmitype/StillImage" />
      </cc:Work>
    </rdf:RDF>
  </metadata>
  <defs
     id="defs40">
    <filter
       inkscape:collect="always"
       style="color-interpolation-filters:sRGB"
       id="filter879"
       x="-0.058285715"
       width="1.1165714"
       y="-0.0408"
       height="1.0816">
      <feGaussianBlur
         inkscape:collect="always"
         stdDeviation="2.72"
         id="feGaussianBlur881" />
    </filter>
    <filter
       inkscape:collect="always"
       style="color-interpolation-filters:sRGB"
       id="filter1949"
       x="-0.033571427"
       y="-0.084179101"
       width="1.0671429"
       height="1.1683582">
      <feGaussianBlur
         inkscape:collect="always"
         stdDeviation="2.35"
         id="feGaussianBlur1951" />
    </filter>
  </defs>
  <sodipodi:namedview
     pagecolor="#ffffff"
     bordercolor="#666666"
     borderopacity="1"
     objecttolerance="10"
     gridtolerance="10"
     guidetolerance="10"
     inkscape:pageopacity="0"
     inkscape:pageshadow="2"
     inkscape:window-width="1920"
     inkscape:window-height="1019"
     id="namedview38"
     showgrid="false"
     inkscape:zoom="2.49"
     inkscape:cx="96.184739"
     inkscape:cy="96.184739"
     inkscape:window-x="0"
     inkscape:window-y="34"
     inkscape:window-maximized="1"
     inkscape:current-layer="svg36"
     inkscape:pagecheckerboard="0" />
  <rect
     width="112"
     height="160"
     x="-156"
     y="-176"
     rx="8"
     ry="8"
     transform="matrix(0,-1,-1,0,0,0)"
     id="rect865"
     style="opacity:0.2;fill:#000000;stroke-width:4;filter:url(#filter879)" />
  <rect
     style="fill:#e4e4e4;stroke-width:4;fill-opacity:1"
     id="rect4"
     transform="matrix(0,-1,-1,0,0,0)"
     ry="8"
     rx="8"
     y="-176"
     x="-152"
     height="160"
     width="112" />
  <path
     style="opacity:0.2;fill:#ffffff;stroke-width:4"
     d="M 24 40 C 19.568 40 16 43.568 16 48 L 16 49 C 16 44.568 19.568 41 24 41 L 168 41 C 172.432 41 176 44.568 176 49 L 176 48 C 176 43.568 172.432 40 168 40 L 24 40 z "
     id="path32" />
  <path
     id="rect1902"
     style="opacity:0.2;fill:#000000;fill-opacity:1;stroke-width:5.92618;stroke-linecap:round;stroke-linejoin:round;stop-color:#000000;filter:url(#filter1949)"
     d="m 117,65 v 60 h 28 V 65 Z m -70,4 v 56 H 75 V 69 Z m 35,4 v 59 h 28 V 73 Z m 70,2 v 46 h 28 V 75 Z M 12,77 v 51 H 40 V 77 Z" />
  <rect
     style="opacity:1;fill:#3590c5;fill-opacity:1;stroke-width:5.92618;stroke-linecap:round;stroke-linejoin:round;stop-color:#000000"
     id="rect1027"
     width="28"
     height="51"
     x="12"
     y="75" />
  <rect
     style="opacity:1;fill:#612268;fill-opacity:1;stroke-width:6.20988;stroke-linecap:round;stroke-linejoin:round;stop-color:#000000"
     id="rect1379"
     width="28"
     height="56"
     x="47"
     y="67" />
  <rect
     style="opacity:1;fill:#fbc618;stroke-width:6.37405;stroke-linecap:round;stroke-linejoin:round;stop-color:#000000;fill-opacity:1"
     id="rect1381"
     width="28"
     height="59"
     x="82"
     y="71" />
  <rect
     style="opacity:1;fill:#ec8b24;fill-opacity:1;stroke-width:6.42784;stroke-linecap:round;stroke-linejoin:round;stop-color:#000000"
     id="rect1383"
     width="28"
     height="60"
     x="117"
     y="63" />
  <rect
     style="opacity:1;fill:#c53827;fill-opacity:1;stroke-width:5.62819;stroke-linecap:round;stroke-linejoin:round;stop-color:#000000"
     id="rect1385"
     width="28"
     height="46"
     x="152"
     y="73" />
</svg>
