<?xml version="1.0" encoding="UTF-8" standalone="no"?>
<svg
   xmlns:dc="http://purl.org/dc/elements/1.1/"
   xmlns:cc="http://creativecommons.org/ns#"
   xmlns:rdf="http://www.w3.org/1999/02/22-rdf-syntax-ns#"
   xmlns:svg="http://www.w3.org/2000/svg"
   xmlns="http://www.w3.org/2000/svg"
   xmlns:sodipodi="http://sodipodi.sourceforge.net/DTD/sodipodi-0.dtd"
   xmlns:inkscape="http://www.inkscape.org/namespaces/inkscape"
   width="192"
   height="192"
   version="1"
   id="svg14"
   sodipodi:docname="apps_skype_business.svg"
   inkscape:version="0.92.3 (2405546, 2018-03-11)">
  <metadata
     id="metadata20">
    <rdf:RDF>
      <cc:Work
         rdf:about="">
        <dc:format>image/svg+xml</dc:format>
        <dc:type
           rdf:resource="http://purl.org/dc/dcmitype/StillImage" />
        <dc:title></dc:title>
      </cc:Work>
    </rdf:RDF>
  </metadata>
  <defs
     id="defs18">
    <filter
       inkscape:collect="always"
       style="color-interpolation-filters:sRGB"
       id="filter860"
       x="-0.048"
       width="1.096"
       y="-0.048"
       height="1.096">
      <feGaussianBlur
         inkscape:collect="always"
         stdDeviation="3.2"
         id="feGaussianBlur862" />
    </filter>
    <filter
       inkscape:collect="always"
       style="color-interpolation-filters:sRGB"
       id="filter880"
       x="-0.05344"
       width="1.10688"
       y="-0.043565217"
       height="1.0871304">
      <feGaussianBlur
         inkscape:collect="always"
         stdDeviation="1.67"
         id="feGaussianBlur882" />
    </filter>
    <filter
       inkscape:collect="always"
       style="color-interpolation-filters:sRGB"
       id="filter836"
       x="-0.024"
       width="1.048"
       y="-0.024"
       height="1.048">
      <feGaussianBlur
         inkscape:collect="always"
         stdDeviation="1.46"
         id="feGaussianBlur838" />
    </filter>
  </defs>
  <sodipodi:namedview
     pagecolor="#ffffff"
     bordercolor="#666666"
     borderopacity="1"
     objecttolerance="10"
     gridtolerance="10"
     guidetolerance="10"
     inkscape:pageopacity="0"
     inkscape:pageshadow="2"
     inkscape:window-width="1920"
     inkscape:window-height="1018"
     id="namedview16"
     showgrid="false"
     inkscape:zoom="1"
     inkscape:cx="107.53345"
     inkscape:cy="89.795062"
     inkscape:window-x="0"
     inkscape:window-y="32"
     inkscape:window-maximized="1"
     inkscape:current-layer="svg14">
    <inkscape:grid
       type="xygrid"
       id="grid838" />
  </sodipodi:namedview>
  <path
     d="m 59.407093,20.001264 c -23.999166,0 -43.407092,19.425207 -43.407092,43.393557 0,7.40461 1.877844,14.5688 5.14704,20.674887 -1.083599,5.170091 -1.680788,10.432812 -1.680788,15.917006 0,42.239876 34.268823,76.505036 76.578211,76.505036 5.461146,0 10.749666,-0.57856 15.896706,-1.66184 C 118.07349,178.14746 125.1473,180 132.59712,180 156.59334,180.00421 176,160.5769 176,136.61065 c 0,-7.45387 -1.87785,-14.5688 -5.17188,-20.69931 1.0836,-5.14567 1.66234,-10.43281 1.66234,-15.89216 0,-42.218826 -34.26882,-76.505042 -76.527682,-76.505042 -5.485571,0 -10.774508,0.553935 -15.921548,1.661848 C 73.927437,21.90189 66.760993,20.000001 59.354545,20.000001"
     id="path840"
     inkscape:connector-curvature="0"
     style="opacity:0.2;fill:#000000;stroke-width:4.21055794;filter:url(#filter860)" />
  <path
     style="fill:#2d9cf2;stroke-width:4.21055794"
     inkscape:connector-curvature="0"
     id="path2"
     d="m 59.407093,16.001265 c -23.999166,0 -43.407092,19.425207 -43.407092,43.393557 0,7.40461 1.877844,14.5688 5.14704,20.674887 -1.083599,5.170091 -1.680788,10.432812 -1.680788,15.917006 0,42.239875 34.268823,76.505035 76.578211,76.505035 5.461146,0 10.749666,-0.57856 15.896706,-1.66184 C 118.07349,174.14746 125.1473,176 132.59712,176 156.59334,176.00421 176,156.5769 176,132.61065 c 0,-7.45387 -1.87785,-14.5688 -5.17188,-20.69931 1.0836,-5.14567 1.66234,-10.43281 1.66234,-15.892161 0,-42.218824 -34.26882,-76.50504 -76.527682,-76.50504 -5.485571,0 -10.774508,0.553935 -15.921548,1.661848 -6.113793,-3.274096 -13.280237,-5.175985 -20.686685,-5.175985" />
  <path
     d="m 95.081049,53.999999 c 22.771541,0 34.523561,11.990164 34.523561,19.026942 0,7.060196 -3.38961,8.116528 -8.97829,8.116528 -10.86077,0 -6.41579,-13.046496 -26.759015,-13.046496 -6.732462,0 -15.141998,3.069427 -15.141998,10.910414 0,6.303283 7.447875,8.621276 20.595719,11.85509 C 119.13342,96.156684 134,101.42998 134,119.56661 134,137.17215 119.61675,146 96.841873,146 c -22.771541,0 -37.31521,-13.57466 -37.31521,-20.61144 0,-7.03677 2.680028,-8.80318 8.268705,-8.80318 10.878272,0 9.412447,14.80705 29.755667,14.80705 6.755795,0 16.725335,-3.06943 16.725335,-10.93383 0,-6.27987 -0.5278,-8.45693 -14.959928,-12.33643 C 83.899861,106.03963 59,101.03814 59,81.872782 59,64.267246 72.329092,54.017563 95.099798,54.017563"
     id="path842"
     inkscape:connector-curvature="0"
     style="opacity:0.2;fill:#000000;stroke-width:4.17423344;filter:url(#filter880)" />
  <path
     style="fill:#ffffff;stroke-width:4.17423344"
     inkscape:connector-curvature="0"
     id="path6"
     d="m 95.081049,50 c 22.771541,0 34.523561,11.990164 34.523561,19.026942 0,7.060196 -3.38961,8.116528 -8.97829,8.116528 -10.86077,0 -6.41579,-13.046496 -26.759015,-13.046496 -6.732462,0 -15.141998,3.069427 -15.141998,10.910414 0,6.303283 7.447875,8.621276 20.595719,11.85509 C 119.13342,92.156685 134,97.429982 134,115.56661 134,133.17215 119.61675,142 96.841873,142 c -22.771541,0 -37.31521,-13.57466 -37.31521,-20.61144 0,-7.03677 2.680028,-8.80318 8.268705,-8.80318 10.878272,0 9.412447,14.80705 29.755667,14.80705 6.755795,0 16.725335,-3.06943 16.725335,-10.93383 0,-6.27987 -0.5278,-8.45693 -14.959928,-12.33643 C 83.899861,102.03963 59,97.038144 59,77.872783 59,60.267247 72.329092,50.017564 95.099798,50.017564" />
  <path
     inkscape:connector-curvature="0"
     style="opacity:0.2;fill:#ffffff;stroke-width:4.21055794"
     d="M 59.40625,16.001953 C 35.407084,16.001953 16,35.426181 16,59.394531 c 0,0.14848 0.01217,0.295079 0.01367,0.44336 0.299197,-23.710449 19.58041,-42.835938 43.392578,-42.835938 7.388329,0.0087 14.535018,1.907254 20.634766,5.173828 5.14704,-1.107913 10.436304,-1.662109 15.921875,-1.662109 42.088241,0 76.246301,34.011963 76.521491,75.996094 0.001,-0.163755 0.006,-0.32617 0.006,-0.490235 0,-42.218824 -34.26848,-76.505859 -76.527341,-76.505859 -5.485571,0 -10.774835,0.554196 -15.921875,1.662109 C 73.941268,17.909207 66.794579,16.010669 59.40625,16.001953 Z M 21.011719,80.798828 c -0.989364,4.936933 -1.544922,9.959672 -1.544922,15.1875 0,0.170382 0.0047,0.339645 0.0059,0.509766 0.03459,-5.30726 0.62267,-10.41047 1.673828,-15.425782 -0.04746,-0.08864 -0.0879,-0.182402 -0.134765,-0.271484 z M 170.96875,112.19531 c -0.0479,0.23851 -0.0905,0.4789 -0.14063,0.7168 3.22806,6.00773 5.08468,12.96288 5.15821,20.25391 0.002,-0.18554 0.0137,-0.36861 0.0137,-0.55469 0,-7.34137 -1.82915,-14.34891 -5.03125,-20.41602 z"
     id="path884" />
  <path
     style="color:#000000;font-style:normal;font-variant:normal;font-weight:normal;font-stretch:normal;font-size:medium;line-height:normal;font-family:sans-serif;font-variant-ligatures:normal;font-variant-position:normal;font-variant-caps:normal;font-variant-numeric:normal;font-variant-alternates:normal;font-feature-settings:normal;text-indent:0;text-align:start;text-decoration:none;text-decoration-line:none;text-decoration-style:solid;text-decoration-color:#000000;letter-spacing:normal;word-spacing:normal;text-transform:none;writing-mode:lr-tb;direction:ltr;text-orientation:mixed;dominant-baseline:auto;baseline-shift:baseline;text-anchor:start;white-space:normal;shape-padding:0;clip-rule:nonzero;display:inline;overflow:visible;visibility:visible;opacity:0.2;isolation:auto;mix-blend-mode:normal;color-interpolation:sRGB;color-interpolation-filters:linearRGB;solid-color:#000000;solid-opacity:1;vector-effect:none;fill:#000000;fill-opacity:1;fill-rule:nonzero;stroke:none;stroke-width:6;stroke-linecap:butt;stroke-linejoin:miter;stroke-miterlimit:4;stroke-dasharray:none;stroke-dashoffset:0;stroke-opacity:1;filter:url(#filter836);color-rendering:auto;image-rendering:auto;shape-rendering:auto;text-rendering:auto;enable-background:accumulate"
     d="M 59.398438,24.999999 C 39.205732,25.004592 23,41.230764 23,61.392577 c 0,6.231291 1.593102,12.280784 4.318359,17.371094 l 1.203125,2.246094 -0.523437,2.49414 c -0.993532,4.740425 -1.53125,9.509178 -1.53125,14.482422 0,38.442783 31.059924,69.505863 69.578125,69.505863 4.965398,0 9.761488,-0.52427 14.453128,-1.51172 l 2.51562,-0.5293 2.25781,1.22266 c 5.1096,2.7643 11.03781,4.32617 17.32618,4.32617 h 0.002 C 152.79197,171.00354 169,154.7739 169,134.61133 c 0,-6.28125 -1.58616,-12.26541 -4.33789,-17.38672 v -0.002 l -1.21094,-2.25196 0.52735,-2.50195 c 0.9877,-4.69037 1.51171,-9.48597 1.51171,-14.44922 0,-38.420585 -31.06553,-69.507812 -69.527339,-69.507812 -5.012627,0 -9.796874,0.502883 -14.447266,1.503906 l -2.513672,0.542969 -2.265625,-1.212891 C 71.638443,26.615613 65.603886,25.008188 59.402344,24.999999 h -0.002 z m -0.0039,6 h 0.0039 c 5.156449,0.0075 10.293234,1.378763 14.505859,3.634766 l 4.207031,2.251953 4.666016,-1.003907 c 4.22895,-0.910305 8.573435,-1.371093 13.185547,-1.371093 35.238059,0 63.527339,28.312327 63.527339,63.507812 0,4.54215 -0.47667,8.90986 -1.38281,13.21289 l -0.98047,4.64649 2.25,4.18554 C 161.65951,124.31258 163,129.34374 163,134.61133 163,151.58512 149.60305,165.00298 132.59961,165 h -0.002 c -5.2957,0 -10.23649,-1.3128 -14.47071,-3.60352 l -4.19531,-2.26953 -4.66797,0.98243 c -4.30501,0.90607 -8.67441,1.38281 -13.218748,1.38281 -35.302292,0 -63.578125,-28.28507 -63.578125,-63.505863 0,-4.542715 0.485268,-8.873788 1.402344,-13.25 v -0.002 l 0.972656,-4.630859 -2.234375,-4.171875 C 30.362738,71.738958 29,66.589271 29,61.392577 29,44.420219 42.390432,31.005963 59.394531,30.999999 Z"
     id="path828"
     inkscape:connector-curvature="0" />
  <path
     style="fill:none;stroke:#ffffff;stroke-width:6;stroke-miterlimit:4;stroke-dasharray:none;stroke-opacity:1"
     d="M 59.398438,26.000001 C 40.799089,26.004232 26,40.825295 26,59.393044 c 0,5.713992 1.47792,11.313805 3.962891,15.955301 l 1.71875,3.20903 -0.748047,3.562549 c -0.955433,4.558643 -1.466797,9.107119 -1.466797,13.865428 0,36.831788 29.667879,66.506788 66.578125,66.506788 4.754868,0 9.337618,-0.50053 13.835938,-1.44729 l 3.5918,-0.75587 3.22656,1.74612 c 4.67191,2.52751 10.10641,3.9649 15.89844,3.9649 h 0.002 C 151.19756,166.00326 166,151.17904 166,132.61086 c 0,-5.77442 -1.46333,-11.2823 -3.98047,-15.96702 l -1.73047,-3.21879 0.75391,-3.57427 c 0.94692,-4.4967 1.44726,-9.07953 1.44726,-13.832225 0,-36.808035 -29.6774,-66.506786 -66.527339,-66.506786 -4.812369,0 -9.376736,0.481856 -13.816407,1.43752 l -3.589843,0.773447 -3.236329,-1.732445 C 70.664525,27.49696 65.07809,26.007501 59.398438,26.000001 Z"
     id="path825"
     inkscape:connector-curvature="0" />
</svg>
