<svg xmlns="http://www.w3.org/2000/svg" width="192" height="192" version="1">
 <defs>
  <linearGradient id="linear-gradient-6" x1="583.02" x2="528.42" y1="147.92" y2="697.21" gradientTransform="matrix(0.12979852,0,0,0.12955627,29.543342,30.574902)" gradientUnits="userSpaceOnUse">
   <stop offset="0" stop-color="#fff"/>
   <stop offset="1" stop-color="#f5f5f5"/>
  </linearGradient>
  <linearGradient id="linear-gradient-7" x1="494.96" x2="440.72" y1="142.09" y2="698.42" gradientTransform="matrix(0.12979852,0,0,0.12955627,29.543342,30.574902)" gradientUnits="userSpaceOnUse">
   <stop offset="0" stop-color="#fff"/>
   <stop offset="1" stop-color="#e6f0fc"/>
  </linearGradient>
  <filter id="filter1048" style="color-interpolation-filters:sRGB" width="1.231" height="1.203" x="-.12" y="-.1">
   <feGaussianBlur id="feGaussianBlur1050" stdDeviation="4.228"/>
  </filter>
  <filter id="filter1090" style="color-interpolation-filters:sRGB" width="1.096" height="1.096" x="-.05" y="-.05">
   <feGaussianBlur id="feGaussianBlur1092" stdDeviation="3.2"/>
  </filter>
 </defs>
 <rect style="opacity:0.2;filter:url(#filter1090)" class="cls-1" width="160" height="160" x="16" y="20" rx="35"/>
 <rect id="BG" style="fill:#137aea" class="cls-1" width="160" height="160" x="16" y="16" rx="35"/>
 <path style="opacity:0.2;filter:url(#filter1048)" class="cls-2" d="m 96,48.001953 a 1.8171792,1.8137878 0 0 0 -0.642578,0.123047 1.8171792,1.8137878 0 0 0 -0.03516,0.01367 1.8171792,1.8137878 0 0 0 -0.94336,0.867187 v -0.0078 c -0.0065,0.01036 -0.01238,0.02215 -0.01758,0.03125 L 52.128906,136.71289 a 1.2979852,1.2955627 0 0 0 -0.03711,0.91992 1.2979852,1.2955627 0 0 0 0.119141,0.23242 1.2979852,1.2955627 0 0 0 0.474609,0.48243 1.2979852,1.2955627 0 0 0 0.234375,0.125 1.2979852,1.2955627 0 0 0 0.919922,-0.0215 l 31.912109,-14.60351 a 0.7787911,0.77733764 0 0 1 0.652344,0.0176 0.7787911,0.77733764 0 0 1 0.40625,0.42774 l 8.210937,23.01758 A 1.0383881,1.0364502 0 0 0 96,147.91406 V 148 a 1.0189184,1.0170167 0 0 0 0.275391,-0.0859 1.0383881,1.0364502 0 0 0 0.195312,-0.0605 1.0189184,1.0170167 0 0 0 0.498047,-0.53321 1.0383881,1.0364502 0 0 0 0.0098,-0.01 l 8.216794,-23.01758 a 0.7787911,0.77733764 0 0 1 1.0586,-0.44531 l 31.9082,14.60351 a 1.2979852,1.2955627 0 0 0 1.71094,-1.73828 L 97.638672,49.029297 a 1.8171792,1.8137878 0 0 0 -0.0039,-0.0039 1.8171792,1.8137878 0 0 0 -0.01367,-0.0293 A 1.8171792,1.8137878 0 0 0 96.669922,48.130859 1.8171792,1.8137878 0 0 0 96.654297,48.125 1.8171792,1.8137878 0 0 0 96,48.001953 Z"/>
 <path id="Background" style="fill:#f2f7fd" class="cls-2" d="M 138.16133,136.45088 106.25427,121.8473 a 0.7787911,0.77733764 0 0 0 -1.05916,0.44567 l -8.216246,23.01697 a 1.0383881,1.0364502 0 0 1 -1.957362,0 L 86.810448,122.29297 A 0.7787911,0.77733764 0 0 0 85.75259,121.8473 l -31.912263,14.60358 a 1.2979852,1.2955627 0 0 1 -1.712043,-1.73865 L 94.362126,47.028549 a 1.8171792,1.8137878 0 0 1 3.276114,0 l 42.23384,87.683681 a 1.2979852,1.2955627 0 0 1 -1.71075,1.73865 z"/>
 <path style="fill:#b8d5f7" class="cls-3" d="m 94.379,46.998751 -7.941073,74.866679 a 0.7787911,0.77733764 0 0 0 -0.686635,-0.0181 l -31.910965,14.60358 a 1.2979852,1.2955627 0 0 1 -1.712043,-1.73865 L 94.362126,47.028549 c 0.0052,-0.0091 0.01038,-0.01944 0.01687,-0.0298 z"/>
 <path style="fill:#7fb0f0" class="cls-4" d="m 105.56244,121.86543 a 0.75932133,0.7579042 0 0 0 -0.27648,0.24098 0.7437455,0.74235745 0 0 0 -0.0922,0.17749 v 0.009 l -8.216245,23.01826 a 1.0189184,1.0170167 0 0 1 -0.977382,0.68798 V 46.261576 l 1.621183,0.734584 z"/>
 <path style="fill:url(#linear-gradient-6)" class="cls-6" d="m 106.05827,121.78899 a 0.7787911,0.77733764 0 0 0 -0.77879,0.31742 l -7.902134,-74.124327 0.438718,-0.224132 z"/>
 <path style="fill:url(#linear-gradient-7)" class="cls-7" d="m 94.621723,47.982083 -7.908624,74.124327 a 0.7787911,0.77733764 0 0 0 -0.275172,-0.24098 0.76970521,0.7682687 0 0 0 -0.497129,-0.0764 l 8.242206,-74.031039 z"/>
 <path style="fill:#ffffff" class="cls-8" d="m 94.427025,48.725736 a 17.287865,17.2556 0 0 1 0.935847,2.059945 c 0.482851,1.413459 0.616543,3.066597 0.637311,3.992924 0.01947,-0.926327 0.153162,-2.579465 0.63731,-3.992924 a 17.370936,17.338516 0 0 1 0.93455,-2.053467 z"/>
 <ellipse style="fill:#ffffff" class="cls-8" cx="96" cy="47.816" rx="1.817" ry="1.814"/>
 <path style="fill:#ffffff;opacity:0.2" class="cls-1" d="M 51 16 C 31.61 16 16 31.61 16 51 L 16 52 C 16 32.61 31.61 17 51 17 L 141 17 C 160.39 17 176 32.61 176 52 L 176 51 C 176 31.61 160.39 16 141 16 L 51 16 z"/>
</svg>
