<?xml version="1.0" encoding="UTF-8" standalone="no"?>
<svg
   width="192"
   height="192"
   version="1.1"
   id="svg14"
   sodipodi:docname="apps_gopro_quik.svg"
   inkscape:version="1.1.1 (1:1.1+202109281949+c3084ef5ed)"
   xmlns:inkscape="http://www.inkscape.org/namespaces/inkscape"
   xmlns:sodipodi="http://sodipodi.sourceforge.net/DTD/sodipodi-0.dtd"
   xmlns="http://www.w3.org/2000/svg"
   xmlns:svg="http://www.w3.org/2000/svg">
  <defs
     id="defs18">
    <filter
       inkscape:collect="always"
       style="color-interpolation-filters:sRGB"
       id="filter849"
       x="-0.048000001"
       y="-0.048000001"
       width="1.096"
       height="1.096">
      <feGaussianBlur
         inkscape:collect="always"
         stdDeviation="3.2"
         id="feGaussianBlur851" />
    </filter>
    <filter
       inkscape:collect="always"
       style="color-interpolation-filters:sRGB"
       id="filter2320"
       x="-0.049365176"
       y="-0.15601913"
       width="1.0987304"
       height="1.3120383">
      <feGaussianBlur
         inkscape:collect="always"
         stdDeviation="2.4703125"
         id="feGaussianBlur2322" />
    </filter>
  </defs>
  <sodipodi:namedview
     id="namedview16"
     pagecolor="#ffffff"
     bordercolor="#666666"
     borderopacity="1.0"
     inkscape:pageshadow="2"
     inkscape:pageopacity="0.0"
     inkscape:pagecheckerboard="0"
     showgrid="false"
     inkscape:zoom="1"
     inkscape:cx="67.5"
     inkscape:cy="100"
     inkscape:window-width="1920"
     inkscape:window-height="1014"
     inkscape:window-x="0"
     inkscape:window-y="34"
     inkscape:window-maximized="1"
     inkscape:current-layer="svg14">
    <inkscape:grid
       type="xygrid"
       id="grid2617" />
  </sodipodi:namedview>
  <rect
     style="opacity:0.2;stroke-width:4;filter:url(#filter849)"
     width="160"
     height="160"
     x="16"
     y="20"
     rx="32"
     ry="32"
     id="rect2" />
  <rect
     style="fill:#3f3f3f;fill-opacity:1;stroke-width:4"
     width="160"
     height="160"
     x="16"
     y="16"
     rx="32"
     ry="32"
     id="rect4" />
  <path
     id="path12"
     style="opacity:0.1;fill:#ffffff;stroke-width:4"
     d="M 48,16 C 30.272,16 16,30.272 16,48 v 1 C 16,31.272 30.272,17 48,17 h 96 c 17.728,0 32,14.272 32,32 V 48 C 176,30.272 161.728,16 144,16 Z" />
  <path
     id="path2282"
     style="opacity:0.2;fill:#000000;stroke-width:0.301941;filter:url(#filter2320)"
     d="m 55.513672,79 c -2.249075,0.0059 -4.500868,0.188695 -5.81836,0.546875 C 46.248942,80.48382 43.65737,81.9681 41.261719,84.375 37.540097,88.114095 36.020746,92.02706 36,97.927734 c -0.01346,3.828236 0.535787,6.463686 1.945312,9.326176 2.328441,4.7286 6.876559,8.07946 12.621094,9.29882 2.505328,0.53178 7.506656,0.53978 9.97461,0.0156 1.091925,-0.2319 2.712104,-0.75588 3.601562,-1.16406 0.889457,-0.40817 1.639849,-0.70642 1.667969,-0.66407 0.02811,0.0423 0.417491,0.56745 0.863281,1.16797 L 67.482422,117 h 4.759766 C 74.859257,117 77,116.94207 77,116.87109 c 0,-0.071 -1.152258,-1.79848 -2.560547,-3.83789 l -2.560547,-3.70703 0.81836,-1.47656 c 1.363489,-2.46221 2.302791,-5.84428 2.474609,-8.902344 C 75.710183,89.366315 70.436756,81.972782 61.314453,79.517578 60.009378,79.166326 57.762747,78.994059 55.513672,79 Z M 113,79 v 4 4 h 4 4 v -4 -4 h -4 z m 12,0 v 19 19 H 129.06641 133 v -1.52344 c 0,-4.20517 -0.18468,-3.97711 2.71289,-7.02344 1.44738,-1.52169 2.71417,-2.76398 2.81445,-2.76171 0.10029,0.002 1.93521,2.54285 4.07813,5.64648 L 146.38867,117 h 9.71094 c -0.23264,-0.36518 -2.98536,-4.53141 -6.07031,-8.9707 l -5.73047,-8.246097 5.57226,-5.605469 L 155.04297,89 h -5.47852 -5.47851 L 138.63867,94.443359 133,100.31445 V 89.658203 79 h -4.10352 z m -69.203125,8.001953 c 3.567101,0.04898 7.095008,1.18224 9.351563,3.384766 1.997675,1.949846 2.676033,3.617688 2.826171,6.9375 0.144666,3.198781 -0.317768,5.116091 -1.724609,7.152341 -1.145301,1.65771 -3.522201,3.24553 -5.939453,3.9668 -2.476811,0.73905 -7.203871,0.74264 -9.601563,0.008 -2.262704,-0.69376 -3.532896,-1.48605 -5.152343,-3.21289 -3.664691,-3.90775 -3.336326,-11.59167 0.646484,-15.111327 2.419694,-2.138314 6.026649,-3.173981 9.59375,-3.125 z M 78,89 l 0.0059,8.357422 c 0.0066,10.869258 0.456089,13.122968 3.210938,16.070308 2.552942,2.73133 5.105133,3.60765 10.111328,3.47461 2.627393,-0.0699 3.68754,-0.22535 5.019531,-0.73828 1.144365,-0.44069 2.195901,-1.15008 3.259766,-2.19922 L 101,112.41602 V 114.70898 117 H 105.08789 109 V 103 89 H 105.08789 101 v 6.357422 c -0.007,5.148788 0.0242,8.213048 -0.48828,10.201168 -1.180306,3.7392 -4.472733,4.35239 -7.007814,4.44141 -2.95895,0.15101 -5.498688,-0.50288 -6.710937,-2.85742 C 86.07772,105.73185 86.094194,105.61013 86,97.357422 V 89 h -4.111328 z m 35,0 v 14 14 h 4 4 V 103 89 h -4 z" />
  <path
     id="path1034"
     style="opacity:1;fill:#ffffff;stroke-width:0.301941"
     d="M 55.513672 77 C 53.264597 77.005941 51.012804 77.188695 49.695312 77.546875 C 46.248942 78.48382 43.65737 79.9681 41.261719 82.375 C 37.540097 86.114095 36.020746 90.02706 36 95.927734 C 35.98654 99.755974 36.535787 102.39142 37.945312 105.25391 C 40.273753 109.98251 44.821871 113.33337 50.566406 114.55273 C 53.071734 115.08451 58.073062 115.09251 60.541016 114.56836 C 61.632941 114.33646 63.25312 113.81248 64.142578 113.4043 C 65.032035 112.99613 65.782427 112.69788 65.810547 112.74023 C 65.838657 112.78253 66.228038 113.30768 66.673828 113.9082 L 67.482422 115 L 72.242188 115 C 74.859257 115 77 114.94207 77 114.87109 C 77 114.80009 75.847742 113.07261 74.439453 111.0332 L 71.878906 107.32617 L 72.697266 105.84961 C 74.060755 103.3874 75.000057 100.00533 75.171875 96.947266 C 75.710183 87.366315 70.436756 79.972782 61.314453 77.517578 C 60.009378 77.166326 57.762747 76.994059 55.513672 77 z M 113 77 L 113 81 L 113 85 L 117 85 L 121 85 L 121 81 L 121 77 L 117 77 L 113 77 z M 125 77 L 125 96 L 125 115 L 129.06641 115 L 133 115 L 133 113.47656 C 133 109.27139 132.81532 109.49945 135.71289 106.45312 C 137.16027 104.93143 138.42706 103.68914 138.52734 103.69141 C 138.62763 103.69341 140.46255 106.23426 142.60547 109.33789 L 146.38867 115 L 156.09961 115 C 155.86697 114.63482 153.11425 110.46859 150.0293 106.0293 L 144.29883 97.783203 L 149.87109 92.177734 L 155.04297 87 L 149.56445 87 L 144.08594 87 L 138.63867 92.443359 L 133 98.314453 L 133 87.658203 L 133 77 L 128.89648 77 L 125 77 z M 55.796875 85.001953 C 59.363976 85.050934 62.891883 86.184193 65.148438 88.386719 C 67.146113 90.336565 67.824471 92.004407 67.974609 95.324219 C 68.119275 98.523002 67.656841 100.44031 66.25 102.47656 C 65.104699 104.13427 62.727799 105.72209 60.310547 106.44336 C 57.833736 107.18241 53.106676 107.186 50.708984 106.45117 C 48.44628 105.75741 47.176088 104.96512 45.556641 103.23828 C 41.89195 99.330532 42.220315 91.64661 46.203125 88.126953 C 48.622819 85.988639 52.229774 84.952972 55.796875 85.001953 z M 78 87 L 78.005859 95.357422 C 78.012459 106.22668 78.461948 108.48039 81.216797 111.42773 C 83.769739 114.15906 86.32193 115.03538 91.328125 114.90234 C 93.955518 114.83244 95.015665 114.67699 96.347656 114.16406 C 97.492021 113.72337 98.543557 113.01398 99.607422 111.96484 L 101 110.41602 L 101 112.70898 L 101 115 L 105.08789 115 L 109 115 L 109 101 L 109 87 L 105.08789 87 L 101 87 L 101 93.357422 C 100.993 98.506208 101.02416 101.57047 100.51172 103.55859 C 99.331414 107.29779 96.038987 107.91098 93.503906 108 C 90.544956 108.15101 88.005218 107.49712 86.792969 105.14258 C 86.07772 103.73185 86.094194 103.61013 86 95.357422 L 86 87 L 81.888672 87 L 78 87 z M 113 87 L 113 101 L 113 115 L 117 115 L 121 115 L 121 101 L 121 87 L 117 87 L 113 87 z " />
</svg>
