<?xml version="1.0" encoding="UTF-8" standalone="no"?>
<svg
   width="192"
   height="192"
   version="1.1"
   id="svg12"
   sodipodi:docname="apps_evermatch.svg"
   inkscape:version="1.1.1 (1:1.1+202109281949+c3084ef5ed)"
   xmlns:inkscape="http://www.inkscape.org/namespaces/inkscape"
   xmlns:sodipodi="http://sodipodi.sourceforge.net/DTD/sodipodi-0.dtd"
   xmlns="http://www.w3.org/2000/svg"
   xmlns:svg="http://www.w3.org/2000/svg">
  <defs
     id="defs16">
    <filter
       inkscape:collect="always"
       style="color-interpolation-filters:sRGB"
       id="filter1348"
       x="-0.044400001"
       y="-0.052235295"
       width="1.0888"
       height="1.1044706">
      <feGaussianBlur
         inkscape:collect="always"
         stdDeviation="2.96"
         id="feGaussianBlur1350" />
    </filter>
  </defs>
  <sodipodi:namedview
     id="namedview14"
     pagecolor="#ffffff"
     bordercolor="#666666"
     borderopacity="1.0"
     inkscape:pageshadow="2"
     inkscape:pageopacity="0.0"
     inkscape:pagecheckerboard="0"
     showgrid="false"
     inkscape:zoom="1"
     inkscape:cx="81"
     inkscape:cy="102"
     inkscape:window-width="1920"
     inkscape:window-height="1022"
     inkscape:window-x="0"
     inkscape:window-y="34"
     inkscape:window-maximized="1"
     inkscape:current-layer="svg12" />
  <path
     style="opacity:0.2;fill:#000000;fill-opacity:1;stroke-width:4;filter:url(#filter1348)"
     d="M 61.798184,32 C 36.4378,32.228366 16,52.744144 16,77.970632 16,88.91628 18.936466,99.57513 26.266952,106.8616 L 96,168 164.41964,108.40706 C 171.95836,100.90815 176,89.64386 176,77.970632 176,52.579508 155.31126,32 129.78537,32 116.97704,32 104.73999,37.289597 96,46.604812 87.260012,37.289597 75.02296,32 62.214628,32 c -0.1388,0 -0.27764,0 -0.416444,0 z m 0,0"
     id="path1310" />
  <path
     id="path4"
     style="fill:#ffae25;fill-opacity:1;stroke-width:4"
     d="M 61.798828 28 C 36.438444 28.228366 16 48.744215 16 73.970703 C 16 84.916351 18.937092 95.574858 26.267578 102.86133 L 96 164 L 164.41992 104.40625 C 171.95864 96.90734 176 85.643931 176 73.970703 C 176 48.579579 155.31105 28 129.78516 28 C 116.97683 28 104.73999 33.290254 96 42.605469 C 87.260012 33.290254 75.023176 28 62.214844 28 L 61.798828 28 z " />
  <path
     id="path1352"
     style="fill:#ffffff;fill-opacity:1;stroke-width:4;opacity:0.2"
     d="M 61.798828 28 C 36.438444 28.228366 16 48.744215 16 73.970703 C 16 74.111308 16.0127 74.250121 16.013672 74.390625 C 16.325415 49.431576 36.633933 29.226606 61.798828 29 L 62.214844 29 C 75.023176 29 87.260012 34.290254 96 43.605469 C 104.73999 34.290254 116.97683 29 129.78516 29 C 155.09961 29 175.64555 49.243073 175.98438 74.34375 C 175.9853 74.218765 176 74.095786 176 73.970703 C 176 48.579579 155.31105 28 129.78516 28 C 116.97683 28 104.73999 33.290254 96 42.605469 C 87.260012 33.290254 75.023176 28 62.214844 28 L 61.798828 28 z " />
  <path
     id="path1039"
     style="fill:#ffffff;fill-opacity:1;stroke-width:4;opacity:0.2"
     d="M 61.933594 43 C 44.589404 43.156182 31 56.84621 31 73.970703 C 31 82.155879 33.244965 88.540237 36.751953 92.103516 L 96.033203 144.08008 L 153.94531 93.638672 C 158.00331 89.521906 161 82.107441 161 73.970703 C 161 56.7277 147.24879 43 129.78516 43 C 121.10716 43 112.83818 46.582184 106.93945 52.869141 A 15.0015 15.0015 0 0 1 85.060547 52.869141 C 79.161818 46.582184 70.892845 43 62.214844 43 L 61.933594 43 z " />
</svg>
