<?xml version="1.0" encoding="UTF-8" standalone="no"?>
<svg
   width="192"
   height="192"
   version="1"
   id="svg16"
   sodipodi:docname="apps_pulseui.svg"
   inkscape:version="1.1-rc (1:1.1+rc+202105232036+f4db50c7c1)"
   xmlns:inkscape="http://www.inkscape.org/namespaces/inkscape"
   xmlns:sodipodi="http://sodipodi.sourceforge.net/DTD/sodipodi-0.dtd"
   xmlns="http://www.w3.org/2000/svg"
   xmlns:svg="http://www.w3.org/2000/svg">
  <defs
     id="defs20">
    <filter
       inkscape:collect="always"
       style="color-interpolation-filters:sRGB"
       id="filter853"
       x="-0.048000001"
       y="-0.048000001"
       width="1.096"
       height="1.096">
      <feGaussianBlur
         inkscape:collect="always"
         stdDeviation="3.2"
         id="feGaussianBlur855" />
    </filter>
    <filter
       inkscape:collect="always"
       style="color-interpolation-filters:sRGB"
       id="filter857"
       x="-0.066145109"
       y="-0.037667066"
       width="1.1322902"
       height="1.0753341">
      <feGaussianBlur
         inkscape:collect="always"
         stdDeviation="1.7578213"
         id="feGaussianBlur859" />
    </filter>
  </defs>
  <sodipodi:namedview
     id="namedview18"
     pagecolor="#ffffff"
     bordercolor="#666666"
     borderopacity="1.0"
     inkscape:pageshadow="2"
     inkscape:pageopacity="0.0"
     inkscape:pagecheckerboard="0"
     showgrid="false"
     inkscape:zoom="3.06"
     inkscape:cx="24.019608"
     inkscape:cy="102.45098"
     inkscape:window-width="1920"
     inkscape:window-height="1019"
     inkscape:window-x="0"
     inkscape:window-y="34"
     inkscape:window-maximized="1"
     inkscape:current-layer="svg16" />
  <rect
     style="opacity:0.2;stroke-width:4;filter:url(#filter853)"
     width="160"
     height="160"
     x="16"
     y="20"
     rx="48"
     ry="48"
     id="rect2" />
  <rect
     style="fill:#4a515a;stroke-width:4"
     width="160"
     height="160"
     x="16"
     y="16"
     rx="48"
     ry="48"
     id="rect4" />
  <path
     id="path6"
     style="opacity:0.1;fill:#ffffff;stroke-width:4"
     d="M 64 16 C 37.408 16 16 37.408 16 64 L 16 65 C 16 38.408 37.408 17 64 17 L 128 17 C 154.592 17 176 38.408 176 65 L 176 64 C 176 37.408 154.592 16 128 16 L 64 16 z " />
  <path
     style="opacity:0.2;stroke-width:4;filter:url(#filter857)"
     d="m 98.531248,41.998409 c -1.785836,0 -3.565632,0.432476 -5.437496,1.304688 -1.691684,0.788252 -2.735332,1.74314 -11.828128,10.835936 -9.058344,9.058344 -10.050176,10.142868 -10.828124,11.8125 -1.175504,2.522868 -1.523936,4.839092 -1.109376,7.296876 C 70.024,77.374041 68.769052,75.979641 98.117188,105.30309 112.81026,119.9838 124.90987,131.99804 125,131.9984 c 0.0901,2.8e-4 0.35292,-0.21932 0.58594,-0.48437 1.45254,-1.65225 2.56606,-5.76357 2.25,-8.30469 -0.23624,-1.89923 -0.99357,-4.16646 -1.78906,-5.33594 -0.33088,-0.48643 -10.74929,-11.04564 -23.14844,-23.468743 -12.39916,-12.4231 -22.539064,-22.7758 -22.539064,-23 0,-0.536228 17.635664,-18.171872 18.171872,-18.171872 0.530108,0 18.179692,17.626772 18.179692,18.156248 0,0.2188 -2.23439,2.64176 -4.96094,5.382812 -2.72655,2.741052 -4.95312,5.1692 -4.95312,5.39844 0,0.22924 1.67594,2.078848 3.72656,4.109372 l 3.72656,3.695316 5.38281,-5.359376 c 2.95949,-2.946604 5.75109,-5.88492 6.20313,-6.531252 1.74769,-2.498928 2.434,-5.977164 1.78906,-9.070312 -0.7783,-3.732728 -1.03518,-4.059804 -11.83594,-14.875 -9.08799,-9.100144 -10.11945,-10.047048 -11.8125,-10.835936 -1.87186,-0.872212 -3.65947,-1.304688 -5.445312,-1.304688 z M 71.976564,116.6234 c -0.55408,0.12744 -7.867188,7.31704 -7.867188,7.73438 0,0.1934 6.10236,6.43822 13.5625,13.875 12.180836,12.14269 13.74394,13.61061 15.35156,14.38281 1.517344,0.72884 3.516112,1.25755 5.234376,1.38281 0.2272,0.0164 1.218536,-0.0955 2.203128,-0.25 3.52859,-0.55374 4.78518,-1.42526 11.08594,-7.66406 3.1431,-3.1122 5.71093,-5.77463 5.71093,-5.92187 0,-0.43959 -7.50953,-7.89063 -7.95312,-7.89063 -0.22488,0 -2.66617,2.24325 -5.42188,4.98438 -3.05488,3.03872 -5.175326,4.94876 -5.437498,4.89062 C 98.208832,142.0944 92.243164,136.31146 85.1875,129.29528 78.131836,122.2791 72.186716,116.57507 71.976564,116.6234 Z"
     id="path8" />
  <path
     style="fill:#ffffff;stroke-width:4"
     d="m 100.4613,151.74758 c 3.5286,-0.55374 4.78446,-1.4216 11.08521,-7.6604 3.14311,-3.11219 5.71473,-5.779 5.71473,-5.92624 0,-0.4396 -7.51365,-7.88559 -7.95724,-7.88559 -0.22488,0 -2.66356,2.24274 -5.41927,4.98387 -3.05488,3.03872 -5.17819,4.94664 -5.440362,4.88851 -0.23648,-0.0524 -6.202804,-5.83587 -13.258468,-12.85205 -7.055664,-7.01617 -13.000424,-12.71714 -13.210576,-12.66881 -0.55408,0.12744 -7.868008,7.31854 -7.868008,7.73589 0,0.1934 6.103752,6.43627 13.563892,13.87305 12.180836,12.14269 13.746428,13.60909 15.354048,14.38129 1.517344,0.72884 3.514508,1.25602 5.232772,1.38128 0.2272,0.0164 1.218684,-0.0963 2.203272,-0.2508 z"
     id="path10" />
  <path
     style="fill:#4fbd34;stroke-width:4"
     d="m 125.58644,129.51798 c 1.45255,-1.65225 2.56841,-5.76956 2.25235,-8.31068 -0.23624,-1.89923 -0.99741,-4.16324 -1.79291,-5.33272 C 125.715,115.38815 115.29952,104.8258 102.90036,92.402696 90.501208,79.979596 80.356444,69.631812 80.356444,69.407616 c 0,-0.536232 17.637632,-18.174632 18.17384,-18.174632 0.530108,0 18.180146,17.629008 18.180146,18.158484 0,0.2188 -2.23081,2.640464 -4.95736,5.381516 -2.72655,2.741052 -4.95737,5.171292 -4.95737,5.400532 0,0.22924 1.67778,2.07814 3.7284,4.108664 l 3.7284,3.691868 5.38089,-5.357456 c 2.95949,-2.946604 5.75073,-5.88628 6.20276,-6.532612 1.7477,-2.498928 2.43357,-5.977 1.78863,-9.070148 C 126.84648,63.281104 126.58876,62.9573 115.788,52.142104 106.7,43.04196 105.67003,42.097208 103.97698,41.30832 c -3.74373,-1.744424 -7.143356,-1.744424 -10.887088,0 -1.69168,0.788252 -2.731528,1.740988 -11.824324,10.833784 -9.058344,9.058344 -10.047788,10.137484 -10.825736,11.807116 -1.175504,2.522868 -1.529564,4.840352 -1.115004,7.298136 0.695876,4.125632 -0.55264,2.735616 28.795496,32.059074 14.693066,14.68071 26.788416,26.6925 26.878536,26.69286 0.0901,2.7e-4 0.35456,-0.21624 0.58758,-0.48131 z"
     id="path12" />
  <path
     id="path941"
     style="fill:#ffffff;stroke-width:4;opacity:0.2"
     d="M 98.533203 40 C 96.747364 40 94.96171 40.436382 93.089844 41.308594 C 91.398164 42.096846 90.358421 43.049782 81.265625 52.142578 C 72.207281 61.200922 71.217401 62.279587 70.439453 63.949219 C 69.49797 65.969832 69.092492 67.860204 69.177734 69.794922 C 69.250617 68.202837 69.660461 66.621093 70.439453 64.949219 C 71.217401 63.279587 72.207281 62.200922 81.265625 53.142578 C 90.358421 44.049782 91.398164 43.096846 93.089844 42.308594 C 96.833576 40.56417 100.23283 40.56417 103.97656 42.308594 C 105.66961 43.097482 106.69911 44.042434 115.78711 53.142578 C 126.58787 63.957774 126.8467 64.280944 127.625 68.013672 C 127.75198 68.622691 127.81204 69.248502 127.83789 69.876953 C 127.87784 68.912392 127.81932 67.945655 127.625 67.013672 C 126.8467 63.280944 126.58787 62.957774 115.78711 52.142578 C 106.69911 43.042434 105.66961 42.097482 103.97656 41.308594 C 102.1047 40.436382 100.31904 40 98.533203 40 z M 80.757812 69.882812 C 80.52363 70.15488 80.355469 70.362557 80.355469 70.408203 C 80.355469 70.632399 90.501239 80.979244 102.90039 93.402344 C 115.29955 105.82545 125.71404 116.38857 126.04492 116.875 C 126.84042 118.04448 127.60165 120.3078 127.83789 122.20703 C 127.85673 122.35854 127.85439 122.5315 127.86328 122.69336 C 127.89107 122.16676 127.89388 121.65717 127.83789 121.20703 C 127.60165 119.3078 126.84042 117.04448 126.04492 115.875 C 125.71404 115.38857 115.29955 104.82545 102.90039 92.402344 C 91.855211 81.335831 82.64765 71.966567 80.757812 69.882812 z M 116.3418 69.90625 C 115.61312 70.786012 113.83987 72.676376 111.75391 74.773438 C 109.02736 77.514489 106.79492 79.944588 106.79492 80.173828 C 106.79492 80.234768 106.92801 80.422703 107.14062 80.685547 C 107.83991 79.823419 109.62605 77.912607 111.75391 75.773438 C 114.48046 73.032385 116.71094 70.609425 116.71094 70.390625 C 116.71094 70.347526 116.55694 70.157219 116.3418 69.90625 z " />
</svg>
