<svg width="48" height="48" version="1" xmlns="http://www.w3.org/2000/svg">
 <defs>
  <style type="text/css">.ColorScheme-Text { color:#5c616c; } .ColorScheme-Highlight { color:#5294e2; } .ColorScheme-ButtonBackground { color:#d3dae3; }</style>
  <style type="text/css">.ColorScheme-Text { color:#5c616c; } .ColorScheme-Highlight { color:#5294e2; } .ColorScheme-ButtonBackground { color:#d3dae3; }</style>
  <style type="text/css">.ColorScheme-Text { color:#5c616c; } .ColorScheme-Highlight { color:#5294e2; } .ColorScheme-ButtonBackground { color:#d3dae3; }</style>
  <style type="text/css">.ColorScheme-Text { color:#5c616c; } .ColorScheme-Highlight { color:#5294e2; } .ColorScheme-ButtonBackground { color:#d3dae3; }</style>
 </defs>
 <path d="m21 5.0000004c-9.328127 0-16.997282 7.6714646-16.997282 17.002401 0 9.330935 7.669155 17.0024 16.997282 17.0024h0.0078c1.861932-0.0029 3.67184-0.386868 5.417103-0.980607l4.518808 4.520169c2.757627 2.75846 7.701522 3.612211 10.959186 0.353566 3.255314-3.256295 2.40221-8.204034-0.35346-10.960532l-4.522702-4.524076c0.58916-1.743398 0.969847-3.550265 0.970548-5.408967v-2e-3c0-9.330889-7.669155-17.002354-16.997281-17.002354z" style="color-rendering:auto;color:#000000;dominant-baseline:auto;fill:#000000;font-feature-settings:normal;font-variant-alternates:normal;font-variant-caps:normal;font-variant-ligatures:normal;font-variant-numeric:normal;font-variant-position:normal;image-rendering:auto;isolation:auto;mix-blend-mode:normal;opacity:.2;shape-padding:0;shape-rendering:auto;solid-color:#000000;text-decoration-color:#000000;text-decoration-line:none;text-decoration-style:solid;text-indent:0;text-orientation:mixed;text-transform:none;white-space:normal"/>
 <path d="m21 4c-9.328127 0-16.997282 7.671465-16.997282 17.002401 0 9.330935 7.669155 17.0024 16.997282 17.0024h0.0078c1.861932-0.0029 3.67184-0.386868 5.417103-0.980607l4.518808 4.520169c2.757627 2.75846 7.701522 3.612211 10.959186 0.353566 3.255314-3.256295 2.40221-8.204034-0.35346-10.960532l-4.522702-4.524076c0.58916-1.743398 0.969847-3.550265 0.970548-5.408967v-2e-3c0-9.330889-7.669155-17.002354-16.997281-17.002354z" style="color-rendering:auto;color:#000000;dominant-baseline:auto;fill:#32a0e0;font-feature-settings:normal;font-variant-alternates:normal;font-variant-caps:normal;font-variant-ligatures:normal;font-variant-numeric:normal;font-variant-position:normal;image-rendering:auto;isolation:auto;mix-blend-mode:normal;shape-padding:0;shape-rendering:auto;solid-color:#000000;text-decoration-color:#000000;text-decoration-line:none;text-decoration-style:solid;text-indent:0;text-orientation:mixed;text-transform:none;white-space:normal"/>
 <path d="m26.851636 27.625282c0.979343-0.979343 1.504772-1.817391 2.679983-0.64218l8.485282 8.485282c1.175211 1.175211 1.332896 2.909744 0.353553 3.889087s-2.713876 0.821658-3.889087-0.353553l-8.485282-8.485282c-1.175211-1.175211-0.123792-1.914011 0.855551-2.893354z" style="fill:#000000;opacity:.2"/>
 <path transform="rotate(-45)" d="m0.16005586 37.813892c1.385 0 2.3491237-0.221055 2.3491237 1.440945v12c0 1.662-1.115 3-2.5 3-1.385 0-2.5-1.338-2.5-3v-12c0-1.662 1.2658763-1.440945 2.6508763-1.440945z" style="fill:#824748"/>
 <path d="m21 9.9999988a12 12 0 0 0-12 12 12 12 0 0 0 12 12 12 12 0 0 0 12-12 12 12 0 0 0-12-12zm0 5.0000002a7 7 0 0 1 7 7 7 7 0 0 1-7 7 7 7 0 0 1-7-7 7 7 0 0 1 7-7z" style="fill:#000000;opacity:.2"/>
 <path d="m21 9a12 12 0 0 0-12 12 12 12 0 0 0 12 12 12 12 0 0 0 12-12 12 12 0 0 0-12-12zm0 5a7 7 0 0 1 7 7 7 7 0 0 1-7 7 7 7 0 0 1-7-7 7 7 0 0 1 7-7z" style="fill:#ffffff"/>
 <path d="m21 4c-9.328127 0-16.998047 7.671017-16.998047 17.001953 0 0.168685 0.0204134 0.332436 0.0253907 0.5 0.2703441-9.101407 7.8131632-16.501953 16.972656-16.501953 9.161463 0 16.705392 7.403758 16.972656 16.507812 0.006224-0.168222 0.025327-0.334817 0.025391-0.503906v-0.001953c0-9.330889-7.669921-17.001953-16.998047-17.001953zm16.259766 22.646484c-0.076287 0.255999-0.146804 0.514225-0.232422 0.767578l4.521484 4.523438c1.384575 1.384991 2.287476 3.323402 2.431641 5.322266 0.135745-2.338939-0.816806-4.706946-2.431641-6.322266l-4.289062-4.291016z" style="color-rendering:auto;color:#000000;dominant-baseline:auto;fill:#ffffff;font-feature-settings:normal;font-variant-alternates:normal;font-variant-caps:normal;font-variant-ligatures:normal;font-variant-numeric:normal;font-variant-position:normal;image-rendering:auto;isolation:auto;mix-blend-mode:normal;opacity:.2;shape-padding:0;shape-rendering:auto;solid-color:#000000;text-decoration-color:#000000;text-decoration-line:none;text-decoration-style:solid;text-indent:0;text-orientation:mixed;text-transform:none;white-space:normal"/>
</svg>
