<?xml version="1.0" encoding="UTF-8" standalone="no"?>
<svg
   width="192"
   height="192"
   version="1"
   id="svg14"
   sodipodi:docname="apps_neko.svg"
   inkscape:version="1.1.1 (1:1.1+202109281949+c3084ef5ed)"
   xmlns:inkscape="http://www.inkscape.org/namespaces/inkscape"
   xmlns:sodipodi="http://sodipodi.sourceforge.net/DTD/sodipodi-0.dtd"
   xmlns="http://www.w3.org/2000/svg"
   xmlns:svg="http://www.w3.org/2000/svg"
   xmlns:rdf="http://www.w3.org/1999/02/22-rdf-syntax-ns#"
   xmlns:cc="http://creativecommons.org/ns#"
   xmlns:dc="http://purl.org/dc/elements/1.1/">
  <metadata
     id="metadata20">
    <rdf:RDF>
      <cc:Work
         rdf:about="">
        <dc:format>image/svg+xml</dc:format>
        <dc:type
           rdf:resource="http://purl.org/dc/dcmitype/StillImage" />
      </cc:Work>
    </rdf:RDF>
  </metadata>
  <defs
     id="defs18">
    <filter
       inkscape:collect="always"
       style="color-interpolation-filters:sRGB"
       id="filter850"
       x="-0.048000001"
       width="1.096"
       y="-0.048000001"
       height="1.096">
      <feGaussianBlur
         inkscape:collect="always"
         stdDeviation="3.2"
         id="feGaussianBlur852" />
    </filter>
    <filter
       inkscape:collect="always"
       style="color-interpolation-filters:sRGB"
       id="filter12670"
       x="-0.070313303"
       y="-0.0803561"
       width="1.1406266"
       height="1.1607122">
      <feGaussianBlur
         inkscape:collect="always"
         stdDeviation="3.4482261"
         id="feGaussianBlur12672" />
    </filter>
  </defs>
  <sodipodi:namedview
     pagecolor="#ffffff"
     bordercolor="#666666"
     borderopacity="1"
     objecttolerance="10"
     gridtolerance="10"
     guidetolerance="10"
     inkscape:pageopacity="0"
     inkscape:pageshadow="2"
     inkscape:window-width="1920"
     inkscape:window-height="1019"
     id="namedview16"
     showgrid="false"
     inkscape:zoom="1.15"
     inkscape:cx="73.043478"
     inkscape:cy="90"
     inkscape:window-x="0"
     inkscape:window-y="34"
     inkscape:window-maximized="1"
     inkscape:current-layer="svg14"
     inkscape:pagecheckerboard="0"
     inkscape:snap-bbox="true"
     inkscape:snap-bbox-midpoints="true"
     inkscape:snap-global="false">
    <inkscape:grid
       type="xygrid"
       id="grid5193" />
  </sodipodi:namedview>
  <circle
     style="opacity:0.2;fill:#000000;stroke-width:4;filter:url(#filter850)"
     cx="96"
     cy="100"
     r="80"
     id="circle832" />
  <circle
     id="circle4"
     r="80"
     cy="96"
     cx="96"
     style="fill:#ff5575;stroke-width:4;fill-opacity:1" />
  <path
     id="path12629"
     style="opacity:0.2;fill:#000000;fill-opacity:1;stroke-width:0.307148;filter:url(#filter12670)"
     d="m 99.279297,38.011719 c -1.769999,-0.01537 -4.130156,1.345665 -7.539063,4.621093 -1.85778,1.785041 -4.137276,4.230051 -5.066406,5.433594 -0.92912,1.203527 -1.964874,2.245413 -2.302734,2.316406 -0.33787,0.07096 -1.996237,0.289433 -3.685547,0.484376 -8.907497,1.027917 -18.833134,5.213197 -24.351563,10.269531 l -2.001953,1.835937 -5.560547,0.212891 c -11.195185,0.427787 -13.710327,1.206985 -13.691406,4.246094 0.0038,0.5959 0.258403,1.63678 0.566406,2.3125 0.69724,1.52968 3.811732,5.519495 6.300782,8.072265 l 1.878906,1.927735 0.03711,4.214843 c 0.03807,4.37351 0.445166,6.578799 1.949219,10.574219 1.025488,2.72413 3.52305,6.301057 6.306641,9.029297 l 2.138671,2.48828 -0.152343,2.73242 c -0.194835,3.47882 0.216903,5.01575 1.804687,6.73828 1.690643,1.83414 3.754058,2.42994 6.529297,2.19727 2.051821,-0.17201 2.236991,-0.1323 3.419922,0.72461 1.433525,1.03845 3.152672,1.19529 4.933594,0.45117 0.842432,-0.35199 1.300272,-0.37863 2.039062,-0.12109 0.524256,0.18276 1.536333,0.24153 2.251953,0.13086 1.887983,-0.29198 2.960327,-0.29788 4.585938,-0.0254 1.182012,0.19819 1.665171,0.12637 2.675781,-0.40039 1.1285,-0.58821 1.323276,-0.60698 2.285156,-0.20508 2.07784,0.86818 6.196732,1.12331 12.701172,0.78711 3.391499,-0.1753 6.854469,-0.46616 7.695309,-0.64649 1.0698,-0.22943 2.8089,-0.23287 5.79297,-0.0137 5.70492,0.41904 12.10353,0.0221 15.01563,-0.93164 2.9075,-0.95227 6.06803,-0.40109 7.98437,-0.0586 3.22515,0.57643 10.26923,2.38464 1.82227,5.86718 -2.70216,1.11406 -14.1348,4.16843 -16.46289,4.12891 -19.449824,-0.33014 -18.65904,-3.01375 -32.976565,-3.29102 -2.903112,0.39207 -11.927746,0.74528 -12.101563,3.62696 0.498919,2.9663 19.018329,11.88737 41.257818,13.25781 18.1277,0 39.01397,-9.00935 37.32226,-20.73047 -1.65292,-6.08909 -6.64705,-12.43585 -12.46094,-15.83594 -2.19142,-1.28159 -2.14085,-1.16812 -2.38281,-5.357418 -0.44458,-7.69761 -3.72722,-14.618638 -8.91601,-18.798828 -3.3042,-2.6619 -9.12552,-5.158203 -12.0293,-5.158203 -0.95463,0 -0.97597,-0.03113 -1.35156,-2.072266 -0.60841,-3.30643 -1.72828,-6.542343 -2.98047,-8.609375 -1.56006,-2.575233 -4.41794,-5.717131 -6.09375,-6.699219 -1.51838,-0.889837 -1.4793,-0.786175 -1.97852,-5.310547 -0.73577,-6.668225 -1.72395,-11.452602 -2.56055,-12.716796 -0.73646,-1.112868 -1.58643,-1.689999 -2.648433,-1.699219 z" />
  <path
     id="path10867"
     style="opacity:1;fill:#ffffff;fill-opacity:1;stroke-width:0.307148"
     d="M 99.275391 36.511719 C 97.765539 36.498608 95.4616 37.750656 92.085938 40.994141 C 90.245299 42.762712 87.957876 45.221393 87.070312 46.371094 C 86.593482 46.988751 86.092376 47.56324 85.65625 48.001953 C 85.438187 48.22131 85.2373 48.405655 85.054688 48.550781 C 84.872077 48.695907 84.749617 48.815257 84.474609 48.873047 C 84.245651 48.921133 83.770866 48.985929 83.099609 49.074219 C 82.428352 49.162505 81.589463 49.265511 80.742188 49.363281 C 71.946222 50.378328 62.071445 54.558431 56.671875 59.505859 L 54.535156 61.464844 L 48.791016 61.685547 C 43.203576 61.899052 39.785838 62.212315 37.869141 62.806641 C 36.910792 63.103803 36.349341 63.459218 36.027344 63.859375 C 35.705346 64.259532 35.575778 64.737053 35.580078 65.427734 C 35.582994 65.884936 35.830804 66.943096 36.101562 67.537109 C 36.401696 68.195571 37.353118 69.59553 38.519531 71.089844 C 39.685945 72.584158 41.078289 74.209002 42.304688 75.466797 L 44.324219 77.539062 L 44.363281 81.955078 C 44.401094 86.299023 44.78809 88.390939 46.28125 92.357422 C 47.263275 94.966096 49.73441 98.525112 52.46875 101.20508 L 52.484375 101.2207 L 54.767578 103.87695 L 54.605469 106.81055 C 54.509381 108.52622 54.567121 109.72904 54.822266 110.68164 C 55.07741 111.63424 55.519083 112.35903 56.277344 113.18164 C 57.867147 114.90638 59.714576 115.44571 62.398438 115.2207 C 63.428787 115.1343 64.022479 115.08923 64.578125 115.20703 C 65.133771 115.32483 65.553813 115.60549 66.152344 116.03906 C 67.451434 116.98013 68.947363 117.12395 70.599609 116.43359 C 71.493221 116.06022 72.186555 116.01858 72.996094 116.30078 C 73.362937 116.42866 74.388981 116.50586 75.007812 116.41016 C 76.923048 116.114 78.089826 116.10811 79.751953 116.38672 C 80.89262 116.57798 81.146029 116.54033 82.115234 116.03516 C 82.688006 115.73661 83.066393 115.54556 83.505859 115.50586 C 83.945326 115.46619 84.329647 115.60585 84.824219 115.8125 C 86.717328 116.60345 90.826096 116.89551 97.306641 116.56055 C 98.996913 116.47318 100.70545 116.35686 102.09375 116.24023 C 103.48205 116.12361 104.58517 115.99798 104.92188 115.92578 C 106.0993 115.67331 107.85882 115.68208 110.85742 115.90234 C 116.51209 116.31769 122.93447 115.89322 125.67969 114.99414 C 128.74327 113.99072 131.98959 114.57506 133.9082 114.91797 C 134.72803 115.0645 135.7902 115.28902 136.80273 115.60352 C 137.81526 115.91801 138.7757 116.30379 139.43555 116.875 C 139.76547 117.16061 140.03294 117.51237 140.11914 117.94531 C 140.20536 118.37826 140.07707 118.84931 139.78125 119.26367 C 139.18962 120.09239 137.98246 120.85445 135.83398 121.74023 C 134.40204 122.3306 130.8949 123.35695 127.39648 124.25781 C 125.64728 124.70824 123.90836 125.12318 122.45508 125.42383 C 121.00179 125.72448 119.87011 125.91805 119.17188 125.90625 C 109.42386 125.74079 104.70786 124.98089 100.67578 124.23242 C 96.650734 123.48525 93.324361 122.75704 86.222656 122.61719 C 84.713595 122.81818 81.799232 123.00053 79.220703 123.48633 C 77.922807 123.73085 76.718556 124.05546 75.875 124.46484 C 75.060814 124.85997 74.698694 125.28282 74.646484 125.72656 C 74.696395 125.89266 74.911743 126.26568 75.4375 126.73242 C 75.998097 127.23009 76.828202 127.81485 77.886719 128.44141 C 80.003752 129.69451 83.038081 131.12206 86.751953 132.5 C 94.176993 135.25488 104.32184 137.81528 115.37891 138.49805 C 124.3545 138.49483 134.04206 136.25368 141.22461 132.58398 C 144.81846 130.74782 147.78185 128.55561 149.72266 126.14062 C 151.65783 123.73264 152.57757 121.13353 152.18555 118.36523 C 150.56647 112.44737 145.64513 106.1849 139.96875 102.86523 C 139.42295 102.54604 139.00431 102.31076 138.6543 102.04297 C 138.30429 101.77518 138.02253 101.45519 137.8418 101.04883 C 137.48034 100.2361 137.45877 99.198373 137.33789 97.105469 C 136.90049 89.532084 133.66647 82.741684 128.60742 78.666016 C 127.00757 77.377158 124.75577 76.101489 122.56055 75.160156 C 120.36532 74.218824 118.20119 73.619141 116.89258 73.619141 C 116.6512 73.619141 116.44576 73.625399 116.21289 73.568359 C 115.98002 73.511318 115.72393 73.341489 115.58008 73.121094 C 115.29237 72.680302 115.23685 72.158498 115.04883 71.136719 C 114.44967 67.880586 113.33363 64.679498 112.13281 62.697266 C 110.61959 60.19934 107.70325 57.042183 106.21484 56.169922 C 105.8381 55.949131 105.53382 55.78149 105.26172 55.548828 C 104.98961 55.316166 104.77145 55.00903 104.62695 54.621094 C 104.33796 53.845222 104.24169 52.743606 103.99219 50.482422 C 103.62555 47.15961 103.1951 44.308768 102.75586 42.142578 C 102.31662 39.976388 101.81982 38.451901 101.51172 37.986328 C 100.82906 36.954765 100.15858 36.519419 99.275391 36.511719 z " />
  <path
     style="fill:#38adfa"
     d="m 688.80525,256.99648 c -0.33229,-0.33229 -1.1948,-0.36781 -1.91667,-0.0789 -0.79773,0.31922 -0.56078,0.55618 0.60417,0.60416 1.05416,0.0434 1.64479,-0.19293 1.3125,-0.52522 z"
     id="path1063" />
  <path
     style="opacity:0.2;fill:#ffffff;stroke-width:4"
     d="M 96 16 A 80 80 0 0 0 16 96 A 80 80 0 0 0 16.019531 96.472656 A 80 80 0 0 1 96 17 A 80 80 0 0 1 175.97461 96.513672 A 80 80 0 0 0 176 96 A 80 80 0 0 0 96 16 z "
     id="path6" />
  <path
     id="path1022"
     style="opacity:1;fill:#3f3f3f;fill-opacity:1;stroke-width:0.307148"
     d="m 99.279297,36.01244 c -1.769999,-0.01537 -4.130156,1.344944 -7.539063,4.620372 -1.85778,1.785041 -4.137276,4.230051 -5.066406,5.433594 -0.92912,1.203527 -1.964874,2.245413 -2.302734,2.316406 -0.33787,0.07096 -1.996237,0.289433 -3.685547,0.484376 -8.907497,1.027917 -18.833134,5.213197 -24.351563,10.269531 l -2.001953,1.835937 -5.560547,0.212891 c -11.195185,0.427787 -13.710327,1.206985 -13.691406,4.246094 0.0038,0.5959 0.258403,1.63678 0.566406,2.3125 0.69724,1.52968 3.811732,5.519495 6.300782,8.072265 l 1.878906,1.927735 0.03711,4.214843 c 0.03807,4.37351 0.445166,6.578799 1.949219,10.574219 1.025488,2.72413 3.52305,6.301061 6.306641,9.029297 l 2.13928,2.48828 -0.152344,2.73242 c -0.194835,3.47882 0.216904,5.01575 1.804688,6.73828 1.690643,1.83414 3.753449,2.42994 6.528688,2.19727 2.051821,-0.17201 2.236991,-0.1323 3.419922,0.72461 1.433525,1.03845 3.152672,1.19529 4.933594,0.45117 0.842432,-0.35199 1.300272,-0.37863 2.039062,-0.12109 0.524256,0.18276 1.536333,0.24153 2.251953,0.13086 1.887983,-0.29198 2.960327,-0.29789 4.585938,-0.0254 1.182012,0.19819 1.665171,0.12637 2.675781,-0.40039 1.1285,-0.58821 1.323276,-0.60698 2.285156,-0.20508 2.07784,0.86818 6.196732,1.12331 12.701172,0.78711 3.391498,-0.1753 6.854468,-0.46616 7.695308,-0.64649 1.0698,-0.22943 2.8089,-0.2329 5.79297,-0.0137 5.70492,0.41904 12.10353,0.0221 15.01563,-0.93164 2.9075,-0.95227 6.06803,-0.4011 7.98437,-0.0586 3.22515,0.57643 10.26923,2.38464 1.82227,5.86718 -2.70216,1.11406 -14.1348,4.16843 -16.46289,4.12891 -19.449822,-0.33014 -18.65904,-3.01375 -32.976564,-3.29102 -2.903112,0.39207 -11.927747,0.74528 -12.101563,3.62696 0.498918,2.9663 19.018333,11.88737 41.257817,13.25781 18.1277,0 39.01397,-9.00935 37.32226,-20.73047 -1.65292,-6.08909 -6.64705,-12.43585 -12.46094,-15.83594 -2.19142,-1.28159 -2.14085,-1.16812 -2.38281,-5.357418 -0.44458,-7.69761 -3.72722,-14.618638 -8.91601,-18.798828 -3.3042,-2.6619 -9.12552,-5.158203 -12.0293,-5.158203 -0.95463,0 -0.97597,-0.03113 -1.35156,-2.072266 -0.60841,-3.30643 -1.72828,-6.542343 -2.98047,-8.609375 -1.56006,-2.575233 -4.41794,-5.717131 -6.09375,-6.699219 -1.51838,-0.889837 -1.4793,-0.786175 -1.97852,-5.310547 -0.73577,-6.668225 -1.72395,-11.451879 -2.56055,-12.716074 -0.73646,-1.112868 -1.58643,-1.69 -2.648432,-1.69922 z m -0.734375,3.120372 c 1.497318,-0.339899 1.674878,2.36049 2.427738,8.626954 0.42759,3.559095 0.84947,7.060696 0.9375,7.78125 0.14583,1.193675 0.28811,1.374452 1.59961,2.044922 1.88168,0.961942 4.05078,2.84749 4.05078,3.521484 0,0.293094 -0.41698,0.932471 -0.92578,1.419922 -1.33605,1.280025 -3.44321,4.629183 -3.32032,5.277344 0.1999,1.054349 2.02776,0.86058 4.75782,-0.50586 1.36618,-0.68379 2.56347,-1.24414 2.66211,-1.24414 0.35152,0 0.96049,2.563304 0.63476,2.671874 -0.98824,0.32942 -5.96697,3.834646 -6.28125,4.421876 -0.32402,0.60544 -0.28298,0.772089 0.31445,1.255859 0.57287,0.46389 1.2612,0.558594 4.07422,0.558594 h 3.38477 l -0.20508,1.816406 c -0.70592,6.23948 -3.85882,12.09664 -9.51953,17.6875 -6.010948,5.936763 -12.397103,9.234953 -20.763673,10.724613 -4.008919,0.71378 -4.447207,0.74326 -9.212891,0.63476 -3.542717,-0.0807 -5.076258,-0.26185 -7.49414,-0.88672 -1.67176,-0.43205 -3.113196,-0.85928 -3.203125,-0.94922 -0.08993,-0.0899 0.139305,-1.09414 0.509765,-2.23242 0.370461,-1.13829 0.672374,-2.519327 0.669922,-3.068357 -0.0038,-0.86302 -0.110713,-0.998047 -0.785156,-0.998047 -0.971695,0 -2.683308,0.861066 -4.556641,2.291016 -1.355671,1.034808 -1.481498,1.071168 -2.271484,0.660158 -0.892098,-0.46414 -2.410957,-1.947483 -2.195313,-2.144533 0.07104,-0.065 0.889242,-0.575083 1.81836,-1.132813 2.37978,-1.42855 3.992187,-2.725737 3.992187,-3.210937 0,-0.69486 -1.146447,-0.841326 -5.65039,-0.722656 l -4.320313,0.113281 -1.005859,-2.34375 c -1.413949,-3.29388 -1.832655,-6.560996 -1.34375,-10.478516 l 0.380859,-3.050781 -2.109375,-2.353516 c -2.879795,-3.21333 -4.91781,-5.722115 -6.355469,-7.822265 -1.087558,-1.58874 -1.163053,-1.813521 -0.738281,-2.238282 0.559547,-0.55956 5.381907,-0.955907 13.183594,-1.085937 l 5.09375,-0.08594 L 58.75,65.5 c 1.083606,0.77716 2.909549,2.39356 4.056641,3.59375 2.35017,2.45896 3.371267,2.812006 3.925781,1.353516 0.801865,-2.10907 -1.00522,-5.586118 -4.306641,-8.283204 -1.191238,-0.973179 -2.166015,-1.871078 -2.166015,-1.996093 0,-0.382194 2.818915,-2.40625 3.351562,-2.40625 0.698724,0 5.521462,4.981475 7.064453,7.296875 2.222863,3.3356 3.472939,3.576343 3.896485,0.751953 0.472709,-3.152228 -0.734205,-7.272785 -2.9375,-10.035156 -0.904257,-1.133707 -0.933002,-1.24472 -0.431641,-1.611329 0.519109,-0.379581 1.340624,-0.532316 2.222656,-0.410156 0.507635,0.07035 3.2119,2.95493 5.265625,5.615235 2.346413,3.039437 3.830337,3.937759 4.972656,3.011718 0.60494,-0.490389 0.704943,-0.85218 0.695313,-2.519531 -0.013,-2.253754 -0.970343,-4.648815 -2.595703,-6.5 -0.55443,-0.631454 -0.914511,-1.241738 -0.800781,-1.355469 0.11373,-0.11373 1.134078,-0.217718 2.267578,-0.232421 l 2.060547,-0.02734 6.476562,-6.552735 c 3.650306,-3.693706 5.612766,-5.79618 6.777344,-6.060547 z m -1.582031,7.160157 -2.453125,2.048828 c -1.34947,1.127112 -2.55882,2.048828 -2.6875,2.048828 -0.12868,0 -0.234375,0.202334 -0.234375,0.449219 0,0.2709 0.51884,0.581492 1.30664,0.783203 0.71796,0.183833 1.916013,0.534293 2.664063,0.779297 1.43843,0.471126 1.974146,0.541483 2.222656,0.292968 0.14587,-0.145853 -0.144312,-2.653155 -0.601562,-5.199218 z m 1.054687,17.690211 c -0.57454,-0.05787 -0.985471,0.407712 -1.542969,1.59375 -1.45569,3.09685 -5.033199,4.705149 -7.380859,3.318359 -1.13692,-0.67159 -1.958984,-0.248727 -1.958984,1.007813 0,0.64347 0.241728,1.011786 0.923828,1.410156 1.12138,0.65492 3.049455,0.924452 4.296875,0.601562 2.29013,-0.59279 5.306122,-2.711896 6.132812,-4.310546 0.23028,-0.445311 0.513886,-1.310729 0.628907,-1.923829 0.17788,-0.9482 0.108795,-1.168783 -0.458985,-1.472656 -0.23986,-0.128369 -0.449112,-0.205319 -0.640625,-0.224609 z m -49.496094,3.944046 c -0.943332,0.01251 -2.171476,0.09075 -3.3125,0.226563 l -1.689453,0.201172 2.41211,2.378906 c 1.326702,1.30844 2.452881,2.378906 2.501953,2.378906 0.04903,0 0.448268,-1.086292 0.888672,-2.414062 0.44041,-1.327771 0.800781,-2.503179 0.800781,-2.611329 0,-0.120665 -0.65823,-0.172668 -1.601563,-0.160156 z m 31.308594,7.963399 c -0.554648,0.04142 -1.358547,0.317638 -2.375,0.837891 -2.793931,1.43003 -2.84747,2.460745 -0.142578,2.765625 1.281343,0.14443 1.492098,0.276533 1.871094,1.183593 0.953795,2.28274 0.103961,5.035157 -1.554688,5.035157 -0.927206,0 -1.517363,0.677948 -1.021484,1.173828 0.515158,0.51515 1.169195,0.448128 2.294922,-0.238281 1.470339,-0.896511 2.045542,-1.954151 1.851562,-3.400391 -0.17849,-1.3307 0.116935,-1.52428 1.140625,-0.75 0.32791,0.24802 1.129127,0.451172 1.779297,0.451172 1.87164,0 4.589295,-1.627713 4.083984,-2.445313 -0.33283,-0.53853 -0.945273,-0.36374 -2.189453,0.625 -0.93324,0.74165 -1.383603,0.906875 -2.089843,0.765625 -1.14119,-0.22824 -2.670185,-1.386278 -3.242188,-2.455078 -0.393798,-0.73581 -0.380492,-0.936912 0.115234,-1.857422 0.635163,-1.179425 0.40293,-1.760442 -0.521484,-1.691406 z m 39.820312,1.253906 c 0.32708,-0.0079 0.88937,0.158914 1.83008,0.496094 l 1.48047,0.53125 -0.21289,1.849609 c -0.11705,1.01806 -0.47159,2.513596 -0.78907,3.322266 -0.64196,1.63517 -0.72985,2.546035 -0.27343,2.828125 0.54306,0.33562 2.88042,-0.964651 4.71093,-2.619141 l 1.78907,-1.617187 0.625,0.626953 c 0.5557,0.55571 0.58671,0.749766 0.26562,1.722656 -0.19895,0.60283 -0.90584,1.894887 -1.57031,2.873047 -2.26935,3.3407 -1.41997,4.278089 2.64648,2.917969 2.46099,-0.82315 2.64662,-0.844921 2.91797,-0.337891 0.15943,0.29789 0.29102,0.755045 0.29102,1.015625 0,0.46258 -2.8632,2.945313 -3.39649,2.945313 -0.14782,0 -0.40961,0.261804 -0.58203,0.583984 -0.53272,0.99537 0.50988,1.885338 2.92383,2.492188 l 2.12891,0.535156 0.0879,2.800783 0.0879,2.80078 1.23242,0.62891 c 0.67762,0.34569 1.30591,0.82062 1.39648,1.05664 0.1996,0.52015 -1.6987,4.21546 -2.93945,5.7207 l -0.89648,1.08594 -2.61524,-0.13672 c -2.26859,-0.11907 -2.91239,-0.0289 -4.85937,0.67578 -1.23445,0.44684 -3.07431,0.93994 -4.08789,1.0957 -1.7659,0.27135 -11.70445,0.12025 -12.19922,-0.18554 -0.13134,-0.0812 -0.24155,-0.52002 -0.24414,-0.97461 -0.01,-1.68929 -0.41809,-1.79981 -2.19727,-0.59375 -3.10472,2.10463 -5.225,2.12985 -6.43555,0.0781 -0.35038,-0.59386 -0.829538,-1.07812 -1.064448,-1.07812 -0.23492,0 -1.190347,0.69049 -2.123047,1.53515 -1.71756,1.55542 -2.853629,1.92537 -3.542969,1.15235 -0.18831,-0.21116 -0.647581,-0.93703 -1.019531,-1.61133 -1.07648,-1.9515 -2.123945,-1.78935 -3.296875,0.50976 -1.44801,2.83835 -4.214148,1.30971 -3.361328,-1.85742 0.88796,-3.29762 3.906725,-4.80766 11.015625,-5.51367 1.57628,-0.15654 2.997393,-0.41731 3.158203,-0.57812 0.45022,-0.45021 -0.0149,-1.29047 -0.994141,-1.79688 -0.48632,-0.25149 -0.884765,-0.5652 -0.884765,-0.69727 0,-0.33043 2.694816,-2.201685 3.158206,-2.193355 0.8046,0.0145 2.90427,1.185235 4.31054,2.402345 2.42643,2.10006 3.51934,1.62772 2.24805,-0.9707 -0.51802,-1.0588 -1.31099,-2.001477 -2.34375,-2.789067 -0.85833,-0.65457 -1.51933,-1.294445 -1.4707,-1.421875 0.0486,-0.12742 0.69177,-0.883167 1.42969,-1.679687 1.28342,-1.38536 1.37709,-1.431554 2.15039,-1.033203 0.4446,0.229029 2.08304,1.644541 3.64257,3.144531 2.24853,2.16269 2.87735,2.621013 3.03321,2.214843 0.59242,-1.543829 -1.03003,-5.611178 -3.13477,-7.861328 l -1.45312,-1.554687 0.7207,-1.283203 c 0.3969,-0.7062 1.31429,-2.671448 2.03711,-4.367188 l 1.3125,-3.083984 0.0117,1.728516 c 0.0177,2.61489 0.59201,2.88731 2.31054,1.09375 1.00319,-1.04699 1.52061,-1.949202 1.98633,-3.457032 0.34654,-1.12192 0.63086,-2.301023 0.63086,-2.621094 0,-0.35981 0.0909,-0.542913 0.41797,-0.550781 z m -53.574218,2.873047 c -0.600622,0.01277 -1.150329,0.498939 -1.347656,1.285156 -0.284971,1.1354 -1.210253,2.253453 -2.697266,3.257813 -1.447945,0.97796 -3.777626,1.154843 -4.964844,0.376953 -0.886266,-0.5807 -1.668627,-0.309944 -1.912109,0.660156 -0.493366,1.96574 3.417469,3.289213 6.486328,2.195313 2.419838,-0.86256 4.690741,-3.071032 5.476563,-5.326172 0.481831,-1.38276 0.394425,-1.853735 -0.433594,-2.296875 -0.200699,-0.10741 -0.407215,-0.1566 -0.607422,-0.152344 z m -7.402344,24.900392 c 0.215724,-0.0206 0.468724,0.0416 0.767578,0.17773 0.749502,0.3415 0.81836,0.52183 0.81836,2.16602 0,2.16061 0.297715,2.25818 2.529296,0.82617 l 1.507813,-0.9668 3.535156,0.55274 c 2.839508,0.44515 4.519718,0.51851 8.544922,0.36719 l 5.011719,-0.18946 0.378906,0.91406 c 0.97207,2.34681 -1.33922,6.165 -2.722656,4.49805 -0.182546,-0.21996 -0.257114,-0.67866 -0.167969,-1.01953 0.09381,-0.35873 -0.04127,-0.7899 -0.320312,-1.02148 -0.596765,-0.49527 -1.171731,-0.0923 -1.705079,1.19531 -0.389769,0.941 -1.836197,1.7408 -2.611328,1.44336 -0.256433,-0.0984 -0.466797,-0.51783 -0.466796,-0.93164 0,-1.06732 -0.303189,-1.72461 -0.796876,-1.72461 -0.233537,0 -1.188397,0.69245 -2.121093,1.53711 -0.932704,0.84465 -1.924509,1.53515 -2.205078,1.53515 -0.280562,0 -1.117494,-0.63392 -1.859375,-1.4082 l -1.34961,-1.4082 -1.214844,0.48633 c -1.451379,0.58073 -3.822882,0.62628 -4.888671,0.0937 -1.284282,-0.64171 -2.303235,-2.23045 -2.14197,-4.47657 0.127676,-1.77825 0.830736,-2.58475 1.477907,-2.64648 z m 87.964842,6.37109 c 2.76289,2.97297 4.34874,6.27287 2.84961,10.42969 l -6.57226,-0.62891 c 0.32759,-2.46669 0.87671,-4.97341 -2.20313,-6.83203 z m -7.55664,11.20703 c 0.0633,3.36975 0.34974,6.62456 4.14844,8.06836 l -6.09375,3.00391 c -2.24476,-1.79064 -3.68251,-4.52749 -3.78906,-8.82813 z m -50.462889,1.19922 c 1.153649,0.013 2.333461,0.0971 3.441406,0.19727 -1.26471,1.75982 -3.448293,5.06352 -1.382813,9.16797 -3.118556,-2.00922 -9.948616,-2.85491 -9.007812,-6.13672 0.270817,-2.67223 3.488272,-3.26749 6.949219,-3.22852 z m 9.484375,1.67383 10.984374,0.96875 c -1.26471,1.75982 -3.56743,6.21586 -1.50195,10.32031 l -10.289065,-2.19726 c -1.66908,-2.33656 -0.267719,-4.92616 0.806641,-9.0918 z M 125.80273,126.75 c -1.26471,1.75982 -3.18244,7.40384 0.0762,9.83203 l -8.13282,0.87109 c -1.66908,-2.33655 -2.30482,-5.36365 -1.23047,-9.52929 z"
     sodipodi:nodetypes="csscsccccscccscccsssssscsssscssssccccssssssssccccsssssssssssccsscscscssscssccccccsscccssssssssscssssscccsccsssssccsscsssssssscscsssssscsssssssssssssscscsscccssssssscccccsccccsscsssssssssssscsssssssscccccsssssssssssssssssccccccssssssssscccsssccccccccccscccccccccccccccccc" />
</svg>
