<?xml version="1.0" encoding="UTF-8" standalone="no"?>
<svg
   width="192"
   height="192"
   version="1"
   id="svg12"
   sodipodi:docname="apps_eldorado.svg"
   inkscape:version="1.1.1 (1:1.1+202109281949+c3084ef5ed)"
   xmlns:inkscape="http://www.inkscape.org/namespaces/inkscape"
   xmlns:sodipodi="http://sodipodi.sourceforge.net/DTD/sodipodi-0.dtd"
   xmlns="http://www.w3.org/2000/svg"
   xmlns:svg="http://www.w3.org/2000/svg"
   xmlns:rdf="http://www.w3.org/1999/02/22-rdf-syntax-ns#"
   xmlns:cc="http://creativecommons.org/ns#"
   xmlns:dc="http://purl.org/dc/elements/1.1/">
  <metadata
     id="metadata18">
    <rdf:RDF>
      <cc:Work
         rdf:about="">
        <dc:format>image/svg+xml</dc:format>
        <dc:type
           rdf:resource="http://purl.org/dc/dcmitype/StillImage" />
      </cc:Work>
    </rdf:RDF>
  </metadata>
  <defs
     id="defs16">
    <filter
       inkscape:collect="always"
       style="color-interpolation-filters:sRGB"
       id="filter955"
       x="-0.048000001"
       width="1.096"
       y="-0.048000001"
       height="1.096">
      <feGaussianBlur
         inkscape:collect="always"
         stdDeviation="3.2"
         id="feGaussianBlur957" />
    </filter>
    <filter
       inkscape:collect="always"
       style="color-interpolation-filters:sRGB"
       id="filter11294"
       x="-0.076731185"
       y="-0.073345206"
       width="1.1534624"
       height="1.1466904">
      <feGaussianBlur
         inkscape:collect="always"
         stdDeviation="3.3005343"
         id="feGaussianBlur11296" />
    </filter>
  </defs>
  <sodipodi:namedview
     pagecolor="#ffffff"
     bordercolor="#666666"
     borderopacity="1"
     objecttolerance="10"
     gridtolerance="10"
     guidetolerance="10"
     inkscape:pageopacity="0"
     inkscape:pageshadow="2"
     inkscape:window-width="1920"
     inkscape:window-height="1022"
     id="namedview14"
     showgrid="false"
     inkscape:zoom="1"
     inkscape:cx="69"
     inkscape:cy="75"
     inkscape:window-x="0"
     inkscape:window-y="34"
     inkscape:window-maximized="1"
     inkscape:current-layer="svg12"
     showguides="false"
     inkscape:document-rotation="0"
     inkscape:pagecheckerboard="0"
     inkscape:snap-bbox="true"
     inkscape:snap-bbox-midpoints="true"
     inkscape:snap-global="true">
    <inkscape:grid
       type="xygrid"
       id="grid852" />
  </sodipodi:namedview>
  <rect
     style="opacity:0.2;fill:#000000;fill-opacity:1;stroke-width:4;filter:url(#filter955)"
     width="160"
     height="160"
     x="16"
     y="20"
     rx="30"
     ry="30"
     id="rect953" />
  <rect
     style="fill:#3f3f3f;fill-opacity:1;stroke-width:4"
     width="160"
     height="160"
     x="16"
     y="16"
     rx="30"
     ry="30"
     id="rect4" />
  <path
     id="rect959"
     style="fill:#ffffff;fill-opacity:1;stroke-width:4;opacity:0.1"
     d="M 46 16 C 29.38 16 16 29.38 16 46 L 16 47 C 16 30.38 29.38 17 46 17 L 146 17 C 162.62 17 176 30.38 176 47 L 176 46 C 176 29.38 162.62 16 146 16 L 46 16 z " />
  <path
     style="opacity:0.2;fill:#000000;fill-opacity:1;stroke-width:0.291824;filter:url(#filter11294)"
     d="m 106.0591,151.54216 c 8.24383,-1.56383 13.84102,-6.56378 16.56672,-14.79898 0.99387,-3.00279 14.81309,-71.958002 15.24797,-76.08439 0.41021,-3.892345 -0.1123,-7.245483 -1.55834,-10.000356 -1.50518,-2.867531 -4.03753,-4.717391 -7.97144,-5.823078 C 126.0543,44.191798 125.82631,44 101.65592,44 H 77.277273 L 75.308808,54.153287 C 74.226151,59.737601 73.344796,64.879622 73.350234,65 c 0.005,0.120378 8.749658,0.140613 19.429541,0 h 17.029535 c 2.5632,0 3.51828,0.594821 3.82269,2.689504 0,0.930513 -4.05225,22.178466 -4.86705,25.580712 L 108.6077,94 H 97.160875 c -6.29574,0 -11.51752,0.08641 -11.603942,0 -0.08646,-0.08636 0.616763,-4.149481 1.562616,-8.74754 0.945853,-4.598069 1.68411,-8.461663 1.64057,-8.585787 C 88.716589,76.54255 76.552105,82.24664 61.727975,89.34242 L 34.775,102 h 20.107693 20.107693 l -1.732261,8.9326 c -0.897745,4.62933 -1.664944,8.46427 -1.582657,8.54656 0.08228,0.0823 7.988123,-3.61193 17.568525,-8.20936 9.580402,-4.59743 17.456917,-8.31206 17.503337,-8.25473 0.22009,0.27173 -4.53318,25.31801 -4.95974,26.13425 -0.98932,1.89316 -0.34567,1.86327 -21.972891,1.85068 H 60.23913 l -0.147432,0.64521 c -0.08245,0.36082 -0.943861,4.85888 -1.917276,9.995 C 57.200997,146.77633 56.253849,152 56.253849,152 c 0,0 0,0 23.620446,0 20.374065,0 24.116105,-0.0654 26.184805,-0.45786 z"
     id="path11256"
     sodipodi:nodetypes="cssssscscsccscscssscccsssccscsscscc" />
  <path
     style="fill:#78cf24;stroke-width:0.291824;fill-opacity:1"
     d="m 106.0591,149.54216 c 8.24383,-1.56383 13.84102,-6.56378 16.56672,-14.79898 0.99387,-3.00279 14.81309,-71.958002 15.24797,-76.08439 0.41021,-3.892345 -0.1123,-7.245483 -1.55834,-10.000356 -1.50518,-2.867531 -4.03753,-4.717391 -7.97144,-5.823078 C 126.0543,42.191798 125.82631,42 101.65592,42 H 77.277273 L 75.308808,52.153287 C 74.226151,57.737601 73.344796,62.879622 73.350234,63 c 0.005,0.120378 8.749658,0.140613 19.429541,0 h 17.029535 c 2.5632,0 3.51828,0.594821 3.82269,2.689504 0,0.930513 -4.05225,22.178466 -4.86705,25.580712 L 108.6077,92 H 97.160875 c -6.29574,0 -11.51752,0.08641 -11.603942,0 -0.08646,-0.08636 0.616763,-4.149481 1.562616,-8.74754 0.945853,-4.598069 1.68411,-8.461663 1.64057,-8.585787 C 88.716589,74.54255 76.552105,80.24664 61.727975,87.34242 L 34.775,100 h 20.107693 20.107693 l -1.732261,8.9326 c -0.897745,4.62933 -1.664944,8.46427 -1.582657,8.54656 0.08228,0.0823 7.988123,-3.61193 17.568525,-8.20936 9.580402,-4.59743 17.456917,-8.31206 17.503337,-8.25473 0.22009,0.27173 -4.53318,25.31801 -4.95974,26.13425 -0.98932,1.89316 -0.34567,1.86327 -21.972891,1.85068 H 60.23913 l -0.147432,0.64521 c -0.08245,0.36082 -0.943861,4.85888 -1.917276,9.995 C 57.200997,144.77633 56.253849,150 56.253849,150 c 0,0 0,0 23.620446,0 20.374065,0 24.116105,-0.0654 26.184805,-0.45786 z"
     id="path964"
     sodipodi:nodetypes="cssssscscsccscscssscccsssccscsscscc" />
  <path
     id="path11298"
     style="fill:#ffffff;stroke-width:0.291824;fill-opacity:1;opacity:0.2"
     d="M 77.277344 42 L 75.308594 52.152344 C 74.225937 57.736658 73.344171 62.879622 73.349609 63 C 73.349746 63.003289 73.504534 63.004675 73.517578 63.007812 C 73.722679 61.730295 74.38507 57.915852 75.308594 53.152344 L 77.277344 43 L 101.65625 43 C 125.82664 43 126.05404 43.19238 128.34375 43.835938 C 132.27766 44.941625 134.81123 46.790672 136.31641 49.658203 C 137.36807 51.661747 137.92297 53.985908 137.99414 56.599609 C 138.05302 53.575512 137.49999 50.913074 136.31641 48.658203 C 134.81123 45.790672 132.27766 43.941625 128.34375 42.835938 C 126.05404 42.19238 125.82664 42 101.65625 42 L 77.277344 42 z M 113.54102 66.242188 C 113.2736 68.47867 109.55164 87.987475 108.76562 91.269531 L 108.60742 92 L 97.160156 92 C 90.997131 92 85.997901 92.079522 85.703125 92.001953 C 85.668052 92.271242 85.540552 92.98393 85.556641 93 C 85.643063 93.08641 90.864416 93 97.160156 93 L 108.60742 93 L 108.76562 92.269531 C 109.58042 88.867285 113.63281 67.619966 113.63281 66.689453 C 113.60907 66.526045 113.57314 66.38777 113.54102 66.242188 z M 88.759766 74.666016 C 88.716236 74.541893 76.552646 80.246017 61.728516 87.341797 L 34.775391 100 L 36.904297 100 L 61.728516 88.341797 C 76.233795 81.398639 88.025707 75.867956 88.574219 75.746094 C 88.626846 75.42801 88.768757 74.691647 88.759766 74.666016 z M 74.796875 101 L 73.257812 108.93164 C 72.360067 113.56097 71.593494 117.39623 71.675781 117.47852 C 71.678333 117.48107 71.836103 117.40892 71.853516 117.4043 C 72.04458 116.20017 72.547822 113.59279 73.257812 109.93164 L 74.990234 101 L 74.796875 101 z M 106.74805 102.01562 C 106.74751 102.01496 106.62961 102.06996 106.62695 102.07031 C 105.93006 106.72488 102.16544 126.4245 101.78711 127.14844 C 100.79779 129.0416 101.44167 129.01259 79.814453 129 L 60.238281 129 L 60.091797 129.64453 C 60.009347 130.00535 59.147243 134.5045 58.173828 139.64062 C 57.200403 144.77674 56.253906 150 56.253906 150 L 56.439453 150 C 56.596912 149.13354 57.294372 145.28093 58.173828 140.64062 C 59.147243 135.5045 60.009347 131.00535 60.091797 130.64453 L 60.238281 130 L 79.814453 130 C 101.44167 130.01259 100.79779 130.0416 101.78711 128.14844 C 102.21367 127.3322 106.96814 102.28736 106.74805 102.01562 z " />
</svg>
