<?xml version="1.0" encoding="UTF-8" standalone="no"?>
<svg
   width="192"
   height="192"
   version="1"
   id="svg48"
   sodipodi:docname="apps_cpu_x.svg"
   inkscape:version="1.1-rc (1:1.1+rc+202105232036+f4db50c7c1)"
   xmlns:inkscape="http://www.inkscape.org/namespaces/inkscape"
   xmlns:sodipodi="http://sodipodi.sourceforge.net/DTD/sodipodi-0.dtd"
   xmlns="http://www.w3.org/2000/svg"
   xmlns:svg="http://www.w3.org/2000/svg">
  <defs
     id="defs52">
    <filter
       inkscape:collect="always"
       style="color-interpolation-filters:sRGB"
       id="filter917"
       x="-0.048000002"
       y="-0.048000002"
       width="1.096"
       height="1.096">
      <feGaussianBlur
         inkscape:collect="always"
         stdDeviation="2.88"
         id="feGaussianBlur919" />
    </filter>
  </defs>
  <sodipodi:namedview
     id="namedview50"
     pagecolor="#ffffff"
     bordercolor="#666666"
     borderopacity="1.0"
     inkscape:pageshadow="2"
     inkscape:pageopacity="0.0"
     inkscape:pagecheckerboard="0"
     showgrid="false"
     inkscape:zoom="1"
     inkscape:cx="83.5"
     inkscape:cy="86.5"
     inkscape:window-width="1920"
     inkscape:window-height="1019"
     inkscape:window-x="0"
     inkscape:window-y="34"
     inkscape:window-maximized="1"
     inkscape:current-layer="svg48" />
  <g
     style="fill:#8e8e8e"
     id="g38"
     transform="scale(4)">
    <rect
       width="2"
       height="40"
       x="27"
       y="-44"
       transform="rotate(90)"
       id="rect2" />
    <rect
       width="2"
       height="40"
       x="23"
       y="-44"
       transform="rotate(90)"
       id="rect4" />
    <rect
       width="2"
       height="40"
       x="19"
       y="-44"
       transform="rotate(90)"
       id="rect6" />
    <rect
       width="2"
       height="40"
       x="15"
       y="-44"
       transform="rotate(90)"
       id="rect8" />
    <rect
       width="2"
       height="40"
       x="31"
       y="-44"
       transform="rotate(90)"
       id="rect10" />
    <rect
       width="2"
       height="40"
       x="35"
       y="-44"
       transform="rotate(90)"
       id="rect12" />
    <rect
       width="2"
       height="40"
       x="39"
       y="-44"
       transform="rotate(90)"
       id="rect14" />
    <rect
       width="2"
       height="40"
       x="11"
       y="-44"
       transform="rotate(90)"
       id="rect16" />
    <rect
       width="2"
       height="40"
       x="7"
       y="-44"
       transform="rotate(90)"
       id="rect18" />
    <rect
       width="2"
       height="40"
       x="23"
       y="4"
       id="rect20" />
    <rect
       width="2"
       height="40"
       x="19"
       y="4"
       id="rect22" />
    <rect
       width="2"
       height="40"
       x="15"
       y="4"
       id="rect24" />
    <rect
       width="2"
       height="40"
       x="11"
       y="4"
       id="rect26" />
    <rect
       width="2"
       height="40"
       x="27"
       y="4"
       id="rect28" />
    <rect
       width="2"
       height="40"
       x="31"
       y="4"
       id="rect30" />
    <rect
       width="2"
       height="40"
       x="35"
       y="4"
       id="rect32" />
    <rect
       width="2"
       height="40"
       x="7"
       y="4"
       id="rect34" />
    <rect
       width="2"
       height="40"
       x="39"
       y="4"
       id="rect36" />
  </g>
  <rect
     style="opacity:0.2;stroke-width:4;filter:url(#filter917)"
     width="144"
     height="144"
     x="-171.99998"
     y="-168"
     rx="8"
     ry="8"
     transform="matrix(0,-1,-1,0,0,0)"
     id="rect40" />
  <rect
     style="fill:#b7b7b7;stroke-width:4"
     width="144"
     height="144"
     x="-168"
     y="-168"
     rx="8"
     ry="8"
     transform="matrix(0,-1,-1,0,0,0)"
     id="rect42" />
  <path
     id="path44"
     style="opacity:0.2;fill:#ffffff;stroke-width:4"
     d="M 32 24 C 27.568 24 24 27.568 24 32 L 24 33 C 24 28.568 27.568 25 32 25 L 160 25 C 164.432 25 168 28.568 168 33 L 168 32 C 168 27.568 164.432 24 160 24 L 32 24 z " />
  <path
     id="path8"
     style="color:#000000;fill:#000000;stroke-linecap:round;-inkscape-stroke:none;opacity:0.5"
     d="M 60.193359 66.003906 A 3.99999 3.99999 0 0 0 57.941406 66.570312 A 3.99999 3.99999 0 0 0 56.570312 72.058594 L 64.658203 85.541016 C 55.437282 93.40503 49.227812 104.66663 48.007812 117.38281 C 47.787333 122.00264 52.664064 122 52.664062 122 L 139.21875 122 C 139.21875 122 144.23536 121.99899 143.99219 117.14844 C 142.71915 104.52151 136.52082 93.345215 127.34766 85.529297 L 135.42969 72.058594 A 3.99999 3.99999 0 0 0 134.05664 66.570312 A 3.99999 3.99999 0 0 0 131.0293 66.119141 A 3.99999 3.99999 0 0 0 128.56836 67.941406 L 120.82422 80.847656 C 113.5725 76.506375 105.08606 74 96.007812 74 C 86.923877 74 78.433203 76.510498 71.179688 80.857422 L 63.429688 67.941406 A 3.99999 3.99999 0 0 0 60.96875 66.119141 A 3.99999 3.99999 0 0 0 60.193359 66.003906 z M 74 98 A 5.9999877 5.9999877 0 0 1 80 104 A 5.9999877 5.9999877 0 0 1 74 110 A 5.9999877 5.9999877 0 0 1 68 104 A 5.9999877 5.9999877 0 0 1 74 98 z M 118 98 A 5.9999877 5.9999877 0 0 1 124 104 A 5.9999877 5.9999877 0 0 1 118 110 A 5.9999877 5.9999877 0 0 1 112 104 A 5.9999877 5.9999877 0 0 1 118 98 z " />
</svg>
