<svg xmlns="http://www.w3.org/2000/svg" width="48" height="48" version="1">
 <g>
  <path style="fill:#289cc1" d="m7 6c-1.662 0-3 1.338-3 3v25h40v-25c0-1.662-1.338-3-3-3z"/>
  <path fill="#fff" opacity=".2" d="m7 6c-1.662 0-3 1.338-3 3v1c0-1.662 1.338-3 3-3h34c1.662 0 3 1.338 3 3v-1c0-1.662-1.338-3-3-3h-34z"/>
  <path style="fill:#cccccc" d="m4 34v5c0 1.662 1.338 3 3 3h34c1.662 0 3-1.338 3-3v-5z"/>
  <rect fill="#999" width="13" height="2" x="28" y="37" rx="1" ry=".928"/>
  <rect style="fill:#289cc1" width="21" height="2" x="7" y="37" rx="1" ry="1"/>
  <circle opacity=".2" cx="28" cy="39" r="2"/>
  <circle style="fill:#58595b" cx="28" cy="38" r="2"/>
  <rect fill="#fff" style="opacity:0.2" width="40" height="1" x="4" y="34"/>
  <path opacity=".2" d="m4 39v1c0 1.662 1.338 3 3 3h34c1.662 0 3-1.338 3-3v-1c0 1.662-1.338 3-3 3h-34c-1.662 0-3-1.338-3-3z"/>
  <path style="opacity:0.2" d="m12.761719 12.995519 5.28125 5.839844-0.08594-0.08984c0.427678 0.416986 1.031238 1.157144 1.023438 2.25 0.0078 1.09286-0.595764 1.833016-1.023438 2.25l0.08594-0.08984-5.283203 5.839844c0.903031 9.88e-4 8.350229 0.0096 12.705078 0 1.670091-0.0097 2.235331-1.365181 2.472656-2.353516 0.06067-0.279354 0.06927-0.637757 0.05664-2.283203-0.01464-1.908441-0.0154-1.957105-0.119141-2.232422-0.297885-0.790494-0.967953-1.274143-2.033203-1.46875-0.09439-0.01725-0.171875-0.05126-0.171875-0.07422 0-0.02295 0.450316-0.08807 0.632812-0.146485 0.726449-0.232505 1.16388-0.560225 1.421875-1.064453 0.224908-0.439605 0.258666-0.755983 0.259766-2.447265 7.1e-4 -1.362271-0.0096-1.578565-0.08789-1.904297-0.194137-0.807454-0.852972-1.979511-2.195312-2.025391h-6.34375v0.0039c0 2.8e-5 -5.371382-0.0033-6.595703-0.0039zm-2.69336 0.0039c-1.1883516-0.085036-1.6640535 1.06565-2.0136715 1.851569-0.036245 0.183325-0.0548085 3.167296-0.0546875 6.144531-1.21e-4 2.977235 0.018443 5.961206 0.054687 6.144531 0.349618 0.785919 0.8253195 1.936605 2.0136715 1.851563l6.492188-7.177735c0.2759195-0.269022 0.4505115-0.531385 0.4394535-0.818359 0.011058-0.286974-0.163533-0.549337-0.439453-0.818359zm25.783203 0c-3.251821 0.01655-3.327708 0.01774-3.697265 0.123047-1.120697 0.319363-1.819494 1.002916-2.072266 2.025391-0.109469 0.442814-0.109408 4.419369 0 4.857422 0.173902 0.696275 0.657941 1.3234 1.277344 1.65625 0.180141 0.0968 0.879935 0.35136 1.574219 0.572265 2.627415 0.835984 2.843734 0.919876 3.035156 1.185547 0.09108 0.126404 0.09961 0.201134 0.09961 0.933594 0 0.920563-0.02276 1.282886-0.427734 1.49414l-0.232422 0.121094-5.402344 0.04883-0.01172 1.28125c-0.0069 0.869854-0.0032 1.609702 0.0098 1.644532 0.0191 0.05147 1.0292 0.0595 3.8125 0.04687 3.374297-0.0153 3.435661-0.01688 3.806641-0.123047 0.62614-0.179184 1.121157-0.458906 1.507812-0.855469 0.373839-0.383412 0.53609-0.652272 0.72461-1.199219l0.125-0.365234 0.01563-2.210938c0.01227-1.876987 0.0016-2.268941-0.0625-2.595703-0.169095-0.861605-0.496076-1.296159-1.267578-1.6875-0.531852-0.269727-0.963015-0.421444-2.24418-0.783194-2.477004-0.699411-2.440505-0.768657-2.421875-1.771484 0.01191-0.64121-0.06471-1.225172 0.277344-1.402344h4.722656c0.01826-1.001289 0.03097-2.93678 0-2.96875-0.0245-0.0253-1.226655-0.03714-3.148438-0.02734zm-12.357421 3.00586c0.794228 0.03189 1.118193 0.111567 1.33789 0.328125 0.139412 0.137419 0.145093 0.174773 0.164063 0.986328 0.01361 0.582571-0.0049 0.899391-0.05664 1.029297-0.106288 0.266879-0.429498 0.490408-0.832031 0.574218-0.33254 0.06925-1.979426 0.100229-2.066406 0.03906-0.022043-0.015482-0.041017-0.678356-0.041017-1.4746v-1.449219l0.404297-0.0293c0.222151-0.01677 0.712438-0.01908 1.089844-0.0039zm0 7c0.794228 0.03189 1.118193 0.111567 1.33789 0.328125 0.139412 0.137419 0.145093 0.174773 0.164063 0.986328 0.01361 0.582571-0.0049 0.899391-0.05664 1.029297-0.106288 0.266879-0.429498 0.490408-0.832031 0.574218-0.33254 0.06925-1.979426 0.100229-2.066406 0.03906-0.022043-0.015482-0.041017-0.678357-0.041017-1.4746v-1.449219l0.404297-0.0293c0.222151-0.01677 0.712438-0.01908 1.089844-0.0039z"/>
  <path style="fill:#ffffff" d="m12.761719 12 5.28125 5.839844-0.085938-0.089844c0.427678 0.416986 1.031238 1.157144 1.023438 2.25 0.0078 1.09286-0.595764 1.833016-1.023438 2.25l0.085938-0.089844-5.283203 5.839844c0.903031 9.88e-4 8.350229 0.0096 12.705078 0 1.670091-0.0097 2.235331-1.365181 2.472656-2.353516 0.06067-0.279354 0.069271-0.637757 0.056641-2.283203-0.01464-1.908441-0.0154-1.957105-0.119141-2.232422-0.297885-0.790494-0.967953-1.274143-2.033203-1.46875-0.09439-0.01725-0.171875-0.051258-0.171875-0.074218 0-0.02295 0.450316-0.08807 0.632812-0.146485 0.726449-0.232505 1.16388-0.560225 1.421875-1.064453 0.224908-0.439605 0.258666-0.755983 0.259766-2.447265 7.1e-4 -1.362271-0.009601-1.578565-0.087891-1.904297-0.194137-0.807452-0.852972-1.979511-2.195312-2.025391h-6.34375v0.003906c0 2.8e-5 -5.371382-0.003306-6.595703-0.003906zm10.732422 3.009766c0.794228 0.03189 1.118193 0.111567 1.33789 0.328125 0.139412 0.137419 0.145093 0.174773 0.164063 0.986328 0.01361 0.582571-0.004901 0.899391-0.056641 1.029297-0.106288 0.266879-0.429498 0.490408-0.832031 0.574218-0.33254 0.06925-1.979426 0.100232-2.066406 0.039063-0.022043-0.015488-0.041016-0.678365-0.041016-1.474609v-1.449219l0.404297-0.029297c0.222151-0.01677 0.712438-0.019086 1.089844-0.003906zm0 7c0.794228 0.03189 1.118193 0.111567 1.33789 0.328125 0.139412 0.137419 0.145093 0.174773 0.164063 0.986328 0.01361 0.582571-0.004901 0.899391-0.056641 1.029297-0.106288 0.266879-0.429498 0.490408-0.832031 0.574218-0.33254 0.06925-1.979426 0.100232-2.066406 0.039063-0.022043-0.015488-0.041016-0.678366-0.041016-1.474609v-1.449219l0.404297-0.029297c0.222151-0.01677 0.712438-0.019086 1.089844-0.003906z"/>
  <path style="fill:#58595b" d="M 10.068359,12.003906 C 8.8800074,11.918864 8.4043055,13.06955 8.0546875,13.855469 8.0184425,14.038794 7.999879,17.022765 8,20 c -1.21e-4,2.977235 0.018443,5.961206 0.054687,6.144531 0.349618,0.785919 0.8253195,1.936605 2.0136715,1.851563 l 6.492188,-7.177735 C 16.836466,20.549337 17.011058,20.286974 17,20 c 0.01106,-0.286974 -0.163533,-0.549337 -0.439453,-0.818359 z"/>
  <path style="fill:#ffffff" d="m35.851562 12.003906c-3.251821 0.01655-3.327708 0.01774-3.697265 0.123047-1.120697 0.319363-1.819494 1.002916-2.072266 2.025391-0.109469 0.442814-0.109408 4.419369 0 4.857422 0.173902 0.696275 0.657941 1.3234 1.277344 1.65625 0.180141 0.0968 0.879935 0.35136 1.574219 0.572265 2.627415 0.835984 2.843734 0.919876 3.035156 1.185547 0.09108 0.126404 0.09961 0.201134 0.09961 0.933594 0 0.920563-0.02276 1.282886-0.427734 1.49414l-0.232422 0.121094-5.402344 0.04883-0.01172 1.28125c-0.0069 0.869854-0.0032 1.609702 0.0098 1.644532 0.0191 0.05147 1.0292 0.05951 3.8125 0.04687 3.374297-0.0153 3.435661-0.01688 3.806641-0.123047 0.62614-0.179184 1.121157-0.458906 1.507812-0.855469 0.373839-0.383412 0.53609-0.652272 0.72461-1.199219l0.125-0.365234 0.01563-2.210938c0.01227-1.876987 0.0016-2.268941-0.0625-2.595703-0.169095-0.861605-0.496076-1.296159-1.267578-1.6875-0.531852-0.269733-0.963015-0.42145-2.24418-0.7832-2.477004-0.699411-2.440505-0.768657-2.421875-1.771484 0.011906-0.64121-0.064712-1.225172 0.277344-1.402344h4.722656c0.01826-1.001289 0.03097-2.93678 0-2.96875-0.0245-0.0253-1.226655-0.03714-3.148438-0.02734z"/>
 </g>
</svg>
