<?xml version="1.0" encoding="UTF-8" standalone="no"?>
<svg
   width="192"
   height="192"
   version="1.1"
   id="svg28"
   sodipodi:docname="apps_celestia.svg"
   inkscape:version="1.1-rc (1:1.1+rc+202105232036+f4db50c7c1)"
   xmlns:inkscape="http://www.inkscape.org/namespaces/inkscape"
   xmlns:sodipodi="http://sodipodi.sourceforge.net/DTD/sodipodi-0.dtd"
   xmlns="http://www.w3.org/2000/svg"
   xmlns:svg="http://www.w3.org/2000/svg">
  <defs
     id="defs32">
    <filter
       inkscape:collect="always"
       style="color-interpolation-filters:sRGB"
       id="filter1555"
       x="-0.048000001"
       y="-0.048000001"
       width="1.096"
       height="1.096">
      <feGaussianBlur
         inkscape:collect="always"
         stdDeviation="2.92"
         id="feGaussianBlur1557" />
    </filter>
    <filter
       inkscape:collect="always"
       style="color-interpolation-filters:sRGB"
       id="filter1603"
       x="-0.048000002"
       y="-0.048000002"
       width="1.096"
       height="1.096">
      <feGaussianBlur
         inkscape:collect="always"
         stdDeviation="0.72"
         id="feGaussianBlur1605" />
    </filter>
    <filter
       inkscape:collect="always"
       style="color-interpolation-filters:sRGB"
       id="filter1607"
       x="-0.048000001"
       y="-0.048000001"
       width="1.096"
       height="1.096">
      <feGaussianBlur
         inkscape:collect="always"
         stdDeviation="1.6"
         id="feGaussianBlur1609" />
    </filter>
    <filter
       inkscape:collect="always"
       style="color-interpolation-filters:sRGB"
       id="filter1611"
       x="-0.048"
       y="-0.048"
       width="1.096"
       height="1.096">
      <feGaussianBlur
         inkscape:collect="always"
         stdDeviation="1"
         id="feGaussianBlur1613" />
    </filter>
    <filter
       inkscape:collect="always"
       style="color-interpolation-filters:sRGB"
       id="filter1615"
       x="-0.048"
       y="-0.048"
       width="1.096"
       height="1.096">
      <feGaussianBlur
         inkscape:collect="always"
         stdDeviation="0.44"
         id="feGaussianBlur1617" />
    </filter>
  </defs>
  <sodipodi:namedview
     id="namedview30"
     pagecolor="#ffffff"
     bordercolor="#666666"
     borderopacity="1.0"
     inkscape:pageshadow="2"
     inkscape:pageopacity="0.0"
     inkscape:pagecheckerboard="0"
     showgrid="false"
     inkscape:zoom="2.02"
     inkscape:cx="24.009901"
     inkscape:cy="63.613861"
     inkscape:window-width="1920"
     inkscape:window-height="1019"
     inkscape:window-x="0"
     inkscape:window-y="34"
     inkscape:window-maximized="1"
     inkscape:current-layer="svg28" />
  <circle
     style="opacity:0.2;fill:#000000;stroke-width:3.65;filter:url(#filter1555)"
     cx="89"
     cy="105"
     r="73"
     id="circle1517" />
  <circle
     style="fill:#3f3f3f;stroke-width:3.65"
     cx="89"
     cy="101"
     r="73"
     id="circle4" />
  <path
     id="circle1619"
     style="fill:#ffffff;stroke-width:3.65;opacity:0.1"
     d="M 89 28 A 73 73 0 0 0 16 101 A 73 73 0 0 0 16.035156 101.5 A 73 73 0 0 1 89 29 A 73 73 0 0 1 161.98242 101.25586 A 73 73 0 0 0 162 101 A 73 73 0 0 0 89 28 z " />
  <circle
     style="opacity:0.2;fill:#000000;stroke-width:3.6;filter:url(#filter1603)"
     cx="154"
     cy="136"
     r="18"
     id="circle1559" />
  <circle
     style="fill:#4f4f4f;stroke-width:3.6"
     cx="154"
     cy="134"
     r="18"
     id="circle12" />
  <circle
     style="opacity:0.2;fill:#000000;stroke-width:3.63636;filter:url(#filter1607)"
     cx="136"
     cy="56"
     r="40"
     id="circle1561" />
  <circle
     style="fill:#a27a40;stroke-width:3.63636"
     cx="136"
     cy="54"
     r="40"
     id="circle14" />
  <circle
     style="opacity:0.2;fill:#000000;stroke-width:3.57142;filter:url(#filter1611)"
     cx="136"
     cy="56"
     r="25"
     id="circle1563" />
  <circle
     style="fill:#f1b100;stroke-width:3.57142"
     cx="136"
     cy="54"
     r="25"
     id="circle18" />
  <circle
     style="opacity:0.2;fill:#000000;stroke-width:3.66666;filter:url(#filter1615)"
     cx="136"
     cy="56"
     r="11"
     id="circle1565" />
  <circle
     style="fill:#ffffff;stroke-width:3.66666"
     cx="136"
     cy="54"
     r="11"
     id="circle24" />
  <path
     id="circle1621"
     style="fill:#ffffff;stroke-width:3.6;opacity:0.1"
     d="M 154 116 A 18 18 0 0 0 136 134 A 18 18 0 0 0 136.03516 134.5 A 18 18 0 0 1 154 117 A 18 18 0 0 1 171.98242 134.25391 A 18 18 0 0 0 172 134 A 18 18 0 0 0 154 116 z " />
  <path
     id="circle1623"
     style="fill:#ffffff;stroke-width:3.63636;opacity:0.1"
     d="M 136 14 A 40 40 0 0 0 96 54 A 40 40 0 0 0 96.035156 54.5 A 40 40 0 0 1 136 15 A 40 40 0 0 1 175.98242 54.257812 A 40 40 0 0 0 176 54 A 40 40 0 0 0 136 14 z " />
  <path
     id="circle1625"
     style="fill:#ffffff;stroke-width:3.57142;opacity:0.2"
     d="M 136 29 A 25 25 0 0 0 111 54 A 25 25 0 0 0 111.03516 54.5 A 25 25 0 0 1 136 30 A 25 25 0 0 1 160.98242 54.25 A 25 25 0 0 0 161 54 A 25 25 0 0 0 136 29 z " />
</svg>
