<?xml version="1.0" encoding="UTF-8" standalone="no"?>
<svg
   width="192"
   height="192"
   version="1"
   id="svg14"
   sodipodi:docname="apps_caixa_tem.svg"
   inkscape:version="1.1.1 (1:1.1+202109281949+c3084ef5ed)"
   xmlns:inkscape="http://www.inkscape.org/namespaces/inkscape"
   xmlns:sodipodi="http://sodipodi.sourceforge.net/DTD/sodipodi-0.dtd"
   xmlns="http://www.w3.org/2000/svg"
   xmlns:svg="http://www.w3.org/2000/svg"
   xmlns:rdf="http://www.w3.org/1999/02/22-rdf-syntax-ns#"
   xmlns:cc="http://creativecommons.org/ns#"
   xmlns:dc="http://purl.org/dc/elements/1.1/">
  <metadata
     id="metadata20">
    <rdf:RDF>
      <cc:Work
         rdf:about="">
        <dc:format>image/svg+xml</dc:format>
        <dc:type
           rdf:resource="http://purl.org/dc/dcmitype/StillImage" />
      </cc:Work>
    </rdf:RDF>
  </metadata>
  <defs
     id="defs18">
    <filter
       inkscape:collect="always"
       style="color-interpolation-filters:sRGB"
       id="filter850"
       x="-0.048000001"
       width="1.096"
       y="-0.048000001"
       height="1.096">
      <feGaussianBlur
         inkscape:collect="always"
         stdDeviation="3.2"
         id="feGaussianBlur852" />
    </filter>
    <filter
       inkscape:collect="always"
       style="color-interpolation-filters:sRGB"
       id="filter9831"
       x="-0.10014139"
       y="-0.11667312"
       width="1.2002828"
       height="1.2333462">
      <feGaussianBlur
         inkscape:collect="always"
         stdDeviation="4.304663"
         id="feGaussianBlur9833" />
    </filter>
  </defs>
  <sodipodi:namedview
     pagecolor="#ffffff"
     bordercolor="#666666"
     borderopacity="1"
     objecttolerance="10"
     gridtolerance="10"
     guidetolerance="10"
     inkscape:pageopacity="0"
     inkscape:pageshadow="2"
     inkscape:window-width="1920"
     inkscape:window-height="1016"
     id="namedview16"
     showgrid="false"
     inkscape:zoom="1"
     inkscape:cx="33.5"
     inkscape:cy="71.5"
     inkscape:window-x="0"
     inkscape:window-y="32"
     inkscape:window-maximized="1"
     inkscape:current-layer="svg14"
     inkscape:pagecheckerboard="0"
     inkscape:snap-bbox="true"
     inkscape:snap-bbox-midpoints="true"
     inkscape:snap-global="false">
    <inkscape:grid
       type="xygrid"
       id="grid5193" />
  </sodipodi:namedview>
  <circle
     style="opacity:0.2;fill:#000000;stroke-width:4;filter:url(#filter850)"
     cx="96"
     cy="100"
     r="80"
     id="circle832" />
  <circle
     id="circle4"
     r="80"
     cy="96"
     cx="96"
     style="fill:#21cfcd;stroke-width:4;fill-opacity:1" />
  <path
     style="fill:#38adfa"
     d="m 688.80525,256.99648 c -0.33229,-0.33229 -1.1948,-0.36781 -1.91667,-0.0789 -0.79773,0.31922 -0.56078,0.55618 0.60417,0.60416 1.05416,0.0434 1.64479,-0.19293 1.3125,-0.52522 z"
     id="path1063" />
  <path
     style="opacity:0.2;fill:#ffffff;stroke-width:4"
     d="M 96 16 A 80 80 0 0 0 16 96 A 80 80 0 0 0 16.019531 96.472656 A 80 80 0 0 1 96 17 A 80 80 0 0 1 175.97461 96.513672 A 80 80 0 0 0 176 96 A 80 80 0 0 0 96 16 z "
     id="path6" />
  <path
     id="path9793"
     style="color:#000000;opacity:0.2;fill:#000000;stroke-linecap:round;stroke-linejoin:round;-inkscape-stroke:none;filter:url(#filter9831)"
     d="m 96.591797,53.99983 c -27.337203,0 -50,19.003583 -50,43 a 3.0003,3.0003 0 0 0 0,0.01367 c 0.03252,7.20988 2.262459,14.24484 6.257812,20.50586 l -9.169921,20.82031 a 3.0003,3.0003 0 0 0 3.658203,4.06641 l 24.943359,-7.9707 c 7.441705,3.59362 15.779458,5.54052 24.302734,5.56445 a 3.0003,3.0003 0 0 0 0.0078,0 c 27.337216,0 50.000006,-19.00358 50.000006,-43.000002 0,-23.996418 -22.6628,-43.000001 -50.000006,-43 z m 0,6 c 24.577513,-1e-6 44.000003,16.813681 44.000003,37 0,20.18413 -19.41846,36.99636 -43.992191,37 -8.052555,-0.0226 -15.943047,-1.91234 -22.787109,-5.43164 a 3.0003,3.0003 0 0 0 -2.283203,-0.18945 l -19.673828,6.28711 7.105469,-16.13672 a 3.0003,3.0003 0 0 0 -0.289063,-2.92969 c -3.973257,-5.67546 -6.049023,-12.08288 -6.080078,-18.605469 0.0038,-20.183685 19.424892,-36.994141 44,-36.994141 z M 82,75.99983 a 8,9.5 0 0 0 -8,9.5 8,9.5 0 0 0 8,9.5 8,9.5 0 0 0 8,-9.5 8,9.5 0 0 0 -8,-9.5 z m 17,6 v 7 h 18 v -7 z M 70.558594,98.308424 a 24.883886,24.545282 0 0 0 -0.08203,1.146484 24.883886,24.545282 0 0 0 24.882813,24.544922 24.883886,24.545282 0 0 0 24.837895,-23.9082 A 29.150599,24.545282 0 0 1 96,110.99983 29.150599,24.545282 0 0 1 70.558594,98.308424 Z" />
  <path
     id="path1215"
     style="color:#000000;opacity:1;fill:#ffffff;stroke-linecap:round;stroke-linejoin:round;-inkscape-stroke:none"
     d="m 96.591797,51.999829 c -27.337203,0 -50,19.003583 -50,43 a 3.0003,3.0003 0 0 0 0,0.01367 c 0.03252,7.209879 2.262459,14.244839 6.257812,20.505859 l -9.169921,20.82031 a 3.0003,3.0003 0 0 0 3.658203,4.06641 l 24.943359,-7.9707 c 7.441705,3.59362 15.779458,5.54052 24.302734,5.56445 a 3.0003,3.0003 0 0 0 0.0078,0 c 27.337213,0 50.000003,-19.00358 50.000003,-43.000001 0,-23.996418 -22.6628,-43.000001 -50.000003,-43 z m 0,6 c 24.577513,-10e-7 44.000003,16.813681 44.000003,37 0,20.184131 -19.41846,36.996361 -43.992191,37.000001 -8.052555,-0.0226 -15.943047,-1.91234 -22.787109,-5.43164 a 3.0003,3.0003 0 0 0 -2.283203,-0.18945 l -19.673828,6.28711 7.105469,-16.13672 a 3.0003,3.0003 0 0 0 -0.289063,-2.92969 c -3.973257,-5.67546 -6.049023,-12.08288 -6.080078,-18.60547 0.0038,-20.183685 19.424892,-36.994141 44,-36.994141 z M 82,73.999829 a 8,9.5 0 0 0 -8,9.5 8,9.5 0 0 0 8,9.5 8,9.5 0 0 0 8,-9.5 8,9.5 0 0 0 -8,-9.5 z m 17,6 v 7 h 18 v -7 z M 70.558594,96.308423 A 24.883886,24.545282 0 0 0 70.476562,97.454907 24.883886,24.545282 0 0 0 95.359375,121.99983 24.883886,24.545282 0 0 0 120.19727,98.091626 29.150599,24.545282 0 0 1 96,108.99983 29.150599,24.545282 0 0 1 70.558594,96.308423 Z" />
</svg>
