<svg width="48" height="48" version="1.1" viewBox="0 0 48 48" xmlns="http://www.w3.org/2000/svg">
 <rect x="6" y="3" width="36" height="36" rx="3" ry="3" style="fill:#7289da"/>
 <path d="m6 36v1c0 1.662 1.338 3 3 3h27l6 6v-1l-6-6h-27c-1.662 0-3-1.338-3-3z" style="opacity:.2"/>
 <path d="m42 45-10-10h10z" style="fill-rule:evenodd;fill:#7289da"/>
 <path d="m20.720703 13s-2.798366-0.06395-5.759765 2.248047c-2.9614 2.312-3.960938 5.595481-3.960938 12.488281 0 0 2.726484 3.112472 7.271484 3.263672 0 0 0.761947-0.950384 1.378907-1.771484-2.6118-0.8211-3.59961-2.529297-3.59961-2.529297 2.237095 1.542203 5.309582 2.26028 7.949219 2.300781 2.639637-0.0405 5.712124-0.758578 7.949219-2.300781 0 0-0.98781 1.708197-3.59961 2.529297 0.61696 0.8211 1.378907 1.771484 1.378907 1.771484 4.545-0.1512 7.271484-3.263672 7.271484-3.263672 0-6.8928-0.999538-10.176281-3.960938-12.488281-2.961399-2.312-5.759765-2.248047-5.759765-2.248047l-0.205078 0.203125c3.7018 1.102 5.388672 2.808594 5.388672 2.808594s-0.451961-0.259669-1.212891-0.605469c-1.867374-0.838724-4.25-1.40625-7.25-1.40625s-5.382626 0.567526-7.25 1.40625c-0.76093 0.3458-1.212891 0.605469-1.212891 0.605469s1.686872-1.706594 5.388672-2.808594c-0.04703-0.083938-0.205078-0.203125-0.205078-0.203125zm-0.720703 8c1.1175 0 2.0195 1.1138 2 2.5 0 1.3865-0.88246 2.5-2 2.5-1.0979 0-2-1.1135-2-2.5 0-1.3862 0.88247-2.5 2-2.5zm8 0c1.11753 0 2 1.1138 2 2.5 0 1.3865-0.9021 2.5-2 2.5-1.11754 0-2-1.1135-2-2.5-0.0195-1.3862 0.8825-2.5 2-2.5z" style="opacity:.2"/>
 <path d="m20.720703 12s-2.798366-0.06395-5.759765 2.248047c-2.9614 2.312-3.960938 5.595481-3.960938 12.488281 0 0 2.726484 3.112472 7.271484 3.263672 0 0 0.761947-0.950384 1.378907-1.771484-2.6118-0.8211-3.59961-2.529297-3.59961-2.529297 2.237095 1.542203 5.309582 2.26028 7.949219 2.300781 2.639637-0.0405 5.712124-0.758578 7.949219-2.300781 0 0-0.98781 1.708197-3.59961 2.529297 0.61696 0.8211 1.378907 1.771484 1.378907 1.771484 4.545-0.1512 7.271484-3.263672 7.271484-3.263672 0-6.8928-0.999538-10.176281-3.960938-12.488281-2.961399-2.312-5.759765-2.248047-5.759765-2.248047l-0.205078 0.203125c3.7018 1.102 5.388672 2.808594 5.388672 2.808594s-0.451961-0.259669-1.212891-0.605469c-1.867374-0.838724-4.25-1.40625-7.25-1.40625s-5.382626 0.567526-7.25 1.40625c-0.76093 0.3458-1.212891 0.605469-1.212891 0.605469s1.686872-1.706594 5.388672-2.808594c-0.04703-0.083938-0.205078-0.203125-0.205078-0.203125zm-0.720703 8c1.1175 0 2.0195 1.1138 2 2.5 0 1.3865-0.88246 2.5-2 2.5-1.0979 0-2-1.1135-2-2.5 0-1.3862 0.88247-2.5 2-2.5zm8 0c1.11753 0 2 1.1138 2 2.5 0 1.3865-0.9021 2.5-2 2.5-1.11754 0-2-1.1135-2-2.5-0.0195-1.3862 0.8825-2.5 2-2.5z" style="fill:#ffffff"/>
 <path d="m9 3s-3 0-3 3v1c0-3 3-3 3-3h30s3 0 3 3v-1c0-3-3-3-3-3z" style="fill:#ffffff;opacity:.2"/>
 <path d="m32 36 10 10v-1l-9-9z" style="fill-rule:evenodd;opacity:.2"/>
</svg>
