<?xml version="1.0" encoding="UTF-8" standalone="no"?>
<svg
   width="192"
   height="192"
   version="1"
   id="svg16"
   sodipodi:docname="apps_dingtone.svg"
   inkscape:version="1.1.1 (1:1.1+202109281949+c3084ef5ed)"
   xmlns:inkscape="http://www.inkscape.org/namespaces/inkscape"
   xmlns:sodipodi="http://sodipodi.sourceforge.net/DTD/sodipodi-0.dtd"
   xmlns="http://www.w3.org/2000/svg"
   xmlns:svg="http://www.w3.org/2000/svg"
   xmlns:rdf="http://www.w3.org/1999/02/22-rdf-syntax-ns#"
   xmlns:cc="http://creativecommons.org/ns#"
   xmlns:dc="http://purl.org/dc/elements/1.1/">
  <metadata
     id="metadata22">
    <rdf:RDF>
      <cc:Work
         rdf:about="">
        <dc:format>image/svg+xml</dc:format>
        <dc:type
           rdf:resource="http://purl.org/dc/dcmitype/StillImage" />
      </cc:Work>
    </rdf:RDF>
  </metadata>
  <defs
     id="defs20">
    <filter
       inkscape:collect="always"
       style="color-interpolation-filters:sRGB"
       id="filter867"
       x="-0.048000001"
       width="1.096"
       y="-0.048000001"
       height="1.096">
      <feGaussianBlur
         inkscape:collect="always"
         stdDeviation="3.2"
         id="feGaussianBlur869" />
    </filter>
    <filter
       inkscape:collect="always"
       style="color-interpolation-filters:sRGB"
       id="filter2598"
       x="-0.04897513"
       y="-0.047062943"
       width="1.0979503"
       height="1.0941259">
      <feGaussianBlur
         inkscape:collect="always"
         stdDeviation="1.960729"
         id="feGaussianBlur2600" />
    </filter>
  </defs>
  <sodipodi:namedview
     pagecolor="#ffffff"
     bordercolor="#666666"
     borderopacity="1"
     objecttolerance="10"
     gridtolerance="10"
     guidetolerance="10"
     inkscape:pageopacity="0"
     inkscape:pageshadow="2"
     inkscape:window-width="1920"
     inkscape:window-height="1014"
     id="namedview18"
     showgrid="false"
     inkscape:zoom="1"
     inkscape:cx="96.5"
     inkscape:cy="105"
     inkscape:window-x="0"
     inkscape:window-y="34"
     inkscape:window-maximized="1"
     inkscape:current-layer="svg16"
     inkscape:pagecheckerboard="0"
     inkscape:snap-bbox="true"
     inkscape:snap-bbox-midpoints="true">
    <inkscape:grid
       type="xygrid"
       id="grid7495" />
  </sodipodi:namedview>
  <rect
     id="rect849"
     ry="80"
     rx="80"
     height="160"
     width="160"
     y="-176"
     x="-180"
     transform="matrix(0,-1,-1,0,0,0)"
     style="opacity:0.2;fill:#000000;stroke-width:4;filter:url(#filter867)" />
  <rect
     style="fill:#0495f7;fill-opacity:1;stroke-width:4"
     transform="matrix(0,-1,-1,0,0,0)"
     x="-176"
     y="-176"
     width="160"
     height="160"
     rx="80"
     ry="80"
     id="rect2" />
  <path
     style="opacity:1;fill:#0467f4;stroke-width:0.2969;fill-opacity:1"
     d="m 91.466797,63.00016 c 4.507129,-0.0098 9.033513,0.782329 13.384383,2.397991 19.80386,7.354016 29.09743,29.063324 20.35646,47.550679 -7.57586,16.02323 -26.537491,24.42081 -44.022898,19.49539 l -1.915542,-0.53944 -6.115086,2.54659 C 69.790765,135.85264 66.982735,137 66.912821,137 c -0.06991,0 -0.05543,-0.74517 0.03461,-1.65701 0.09005,-0.91186 0.289326,-3.45427 0.441736,-5.64893 l 0.276848,-3.98986 -2.66059,-2.65041 c -12.09825,-12.05367 -13.933334,-29.837565 -4.52932,-43.888556 1.928877,-2.88202 6.688473,-7.661727 9.508508,-9.549222 6.510859,-4.35782 13.970304,-6.599544 21.482184,-6.615852 z"
     id="path1143" />
  <path
     id="path2560"
     style="opacity:0.2;fill:#000000;stroke-width:0.284864;filter:url(#filter2598)"
     d="m 103.13867,48.011719 c -4.170759,-0.01094 -8.334843,0.599027 -12.501951,1.533203 -6.939089,1.950055 -12.980166,5.331983 -17.91211,10.039062 l -1.798828,1.716797 2.173828,-0.988281 c 4.782949,-2.172959 10.047727,-4.059403 15.554688,-4.597656 1.638035,-0.160103 3.650426,-0.4725 4.472656,-0.695313 4.912694,-1.33124 12.833107,-1.340707 17.935547,-0.02148 11.93014,3.084508 21.66218,12.002049 25.28125,23.095703 0.99067,3.036692 1.30771,4.88924 1.59766,9.306641 0.13825,2.106055 0.45,5.041398 0.6914,6.523437 0.71115,4.366074 -0.006,10.280782 -1.05859,15.230472 -0.15227,0.71588 -0.0962,0.68156 0.57226,-0.33985 2.27628,-3.47816 4.28437,-8.51587 5.29102,-13.277341 0.86332,-4.083512 0.86332,-10.771953 0,-14.855468 -1.75005,-8.277784 -5.41341,-14.864898 -11.56641,-20.796875 -5.92899,-5.716004 -12.76273,-9.297777 -21.21679,-11.119141 -2.50878,-0.517444 -5.01317,-0.747342 -7.51563,-0.753906 z M 91.996094,60.001953 C 84.802934,59.956643 78.43753,61.213 71.447266,64.585938 59.616954,70.368497 51.113017,81.260313 48.556641,93.900391 c -0.799614,3.95371 -0.725471,11.822899 0.148437,15.728519 1.691512,7.55959 5.221164,14.17552 10.548828,19.76953 l 2.078125,2.17968 -0.4375,7.42969 c -0.240441,4.08593 -0.437272,7.78105 -0.4375,8.21094 -2.2e-4,0.42989 0.116669,0.78125 0.259766,0.78125 0.143088,0 4.264558,-1.52661 9.160156,-3.39258 l 8.902344,-3.39258 2.042969,0.51758 c 3.777184,0.95714 7.02054,1.23782 12.382812,1.07031 5.578168,-0.17426 8.749532,-0.75314 13.644532,-2.48632 14.4372,-5.11182 25.25827,-17.70211 27.69141,-32.22071 0.54513,-3.2527 0.61853,-9.5738 0.14648,-12.537106 -2.79448,-17.542748 -16.36669,-31.21409 -34.625,-34.876953 -2.125267,-0.426353 -5.080424,-0.652148 -8.066406,-0.679688 z M 91.466797,67 c 4.324416,-0.0094 8.667303,0.750615 12.841793,2.300781 19.00104,7.055895 27.91786,27.885139 19.53125,45.623049 -7.26875,15.37367 -25.4617,23.43083 -42.238278,18.70508 l -1.83789,-0.51758 -5.867188,2.44336 C 70.66948,136.89915 67.975283,138 67.908203,138 c -0.06708,0 -0.05318,-0.71496 0.0332,-1.58984 0.0864,-0.87489 0.277596,-3.31424 0.423828,-5.41993 l 0.265625,-3.82812 -2.552734,-2.54297 C 54.470326,113.05412 52.709634,95.991151 61.732422,82.509766 63.583106,79.744579 68.149754,75.158634 70.855469,73.347656 77.102388,69.166496 84.259437,67.015648 91.466797,67 Z M 107,83 a 3,3 0 0 0 -3,3 3,3 0 0 0 3,3 3,3 0 0 0 3,-3 3,3 0 0 0 -3,-3 z m -33.132812,4 -2.275391,1.669922 c -2.151933,1.579873 -3.535738,3.000255 -4.271485,4.384766 -0.986822,1.856994 0.39926,7.950242 2.888672,12.695312 4.730848,9.01746 14.101837,16.8497 23.40625,19.56445 1.262109,0.36824 2.62343,0.67755 3.023438,0.68555 1.134467,0.0233 5.233468,-2.07134 6.501948,-3.32227 1.32982,-1.31145 1.97134,-2.43956 2.48829,-4.37109 L 106,116.92188 l -1.93359,-1.84571 c -1.93223,-1.84418 -5.781267,-4.33901 -7.771488,-4.93555 -0.989703,-0.29663 -1.081082,-0.26673 -1.923828,0.63672 -0.784985,0.84154 -2.532185,4.09168 -2.994141,5.5 -0.158442,0.48305 -0.259894,0.46656 -1.521484,-0.24804 -3.455212,-1.95717 -6.210573,-4.45209 -10.539063,-9.54102 -2.368906,-2.78509 -2.311753,-3.20341 -2.314453,-4.23633 l -0.0039,-1.14648 2.673828,-1.607423 c 1.645217,-0.884419 3.291016,-1.70403 3.291016,-1.822266 0,-0.573313 -1.297399,-3.42277 -1.935547,-4.671875 -1.42698,-2.79313 -3.515231,-4.736488 -6.035156,-5.613281 z M 100,90 a 3,3 0 0 0 -3,3 3,3 0 0 0 3,3 3,3 0 0 0 3,-3 3,3 0 0 0 -3,-3 z m -7,6 a 3,3 0 0 0 -3,3 3,3 0 0 0 3,3 3,3 0 0 0 3,-3 3,3 0 0 0 -3,-3 z" />
  <path
     id="path948"
     style="opacity:1;fill:#ffffff;stroke-width:0.284864"
     d="M 103.13867 46.011719 C 98.967911 46.000779 94.803827 46.610746 90.636719 47.544922 C 83.69763 49.494977 77.656553 52.876905 72.724609 57.583984 L 70.925781 59.300781 L 73.099609 58.3125 C 77.882558 56.139541 83.147336 54.253097 88.654297 53.714844 C 90.292332 53.554741 92.304723 53.242344 93.126953 53.019531 C 98.039647 51.688291 105.96006 51.678824 111.0625 52.998047 C 122.99264 56.082555 132.72468 65.000096 136.34375 76.09375 C 137.33442 79.130442 137.65146 80.98299 137.94141 85.400391 C 138.07966 87.506446 138.39141 90.441789 138.63281 91.923828 C 139.34396 96.289902 138.62713 102.20461 137.57422 107.1543 C 137.42195 107.87018 137.47802 107.83586 138.14648 106.81445 C 140.42276 103.33629 142.43085 98.298579 143.4375 93.537109 C 144.30082 89.453597 144.30082 82.765156 143.4375 78.681641 C 141.68745 70.403857 138.02409 63.816743 131.87109 57.884766 C 125.9421 52.168762 119.10836 48.586989 110.6543 46.765625 C 108.14552 46.248181 105.64113 46.018283 103.13867 46.011719 z M 91.996094 58.001953 C 84.802934 57.956643 78.43753 59.213 71.447266 62.585938 C 59.616954 68.368497 51.113017 79.260313 48.556641 91.900391 C 47.757027 95.854101 47.83117 103.72329 48.705078 107.62891 C 50.39659 115.1885 53.926242 121.80443 59.253906 127.39844 L 61.332031 129.57812 L 60.894531 137.00781 C 60.65409 141.09374 60.457259 144.78886 60.457031 145.21875 C 60.456811 145.64864 60.5737 146 60.716797 146 C 60.859885 146 64.981355 144.47339 69.876953 142.60742 L 78.779297 139.21484 L 80.822266 139.73242 C 84.59945 140.68956 87.842806 140.97024 93.205078 140.80273 C 98.783246 140.62847 101.95461 140.04959 106.84961 138.31641 C 121.28681 133.20459 132.10788 120.6143 134.54102 106.0957 C 135.08615 102.843 135.15955 96.5219 134.6875 93.558594 C 131.89302 76.015846 118.32081 62.344504 100.0625 58.681641 C 97.937233 58.255288 94.982076 58.029493 91.996094 58.001953 z M 91.466797 65 C 95.791213 64.990611 100.1341 65.750615 104.30859 67.300781 C 123.30963 74.356676 132.22645 95.18592 123.83984 112.92383 C 116.57109 128.2975 98.37814 136.35466 81.601562 131.62891 L 79.763672 131.11133 L 73.896484 133.55469 C 70.66948 134.89915 67.975283 136 67.908203 136 C 67.841122 136 67.855026 135.28504 67.941406 134.41016 C 68.027811 133.53527 68.219002 131.09592 68.365234 128.99023 L 68.630859 125.16211 L 66.078125 122.61914 C 54.470326 111.05412 52.709634 93.991151 61.732422 80.509766 C 63.583106 77.744579 68.149754 73.158634 70.855469 71.347656 C 77.102388 67.166496 84.259437 65.015648 91.466797 65 z M 107 81 A 3 3 0 0 0 104 84 A 3 3 0 0 0 107 87 A 3 3 0 0 0 110 84 A 3 3 0 0 0 107 81 z M 73.867188 85 L 71.591797 86.669922 C 69.439864 88.249795 68.056059 89.670177 67.320312 91.054688 C 66.33349 92.911682 67.719572 99.004927 70.208984 103.75 C 74.939832 112.76746 84.310821 120.5997 93.615234 123.31445 C 94.877343 123.68269 96.238664 123.992 96.638672 124 C 97.773139 124.02334 101.87214 121.92866 103.14062 120.67773 C 104.47044 119.36628 105.11196 118.23817 105.62891 116.30664 L 106 114.92188 L 104.06641 113.07617 C 102.13418 111.23199 98.285143 108.73716 96.294922 108.14062 C 95.305219 107.84399 95.21384 107.87389 94.371094 108.77734 C 93.586109 109.61888 91.838909 112.86902 91.376953 114.27734 C 91.218511 114.76039 91.117059 114.7439 89.855469 114.0293 C 86.400257 112.07213 83.644896 109.57721 79.316406 104.48828 C 76.9475 101.70319 77.004653 101.28487 77.001953 100.25195 L 76.998047 99.105469 L 79.671875 97.498047 C 81.317092 96.613628 82.962891 95.794017 82.962891 95.675781 C 82.962891 95.102468 81.665492 92.253011 81.027344 91.003906 C 79.600364 88.210776 77.512113 86.267418 74.992188 85.390625 L 73.867188 85 z M 100 88 A 3 3 0 0 0 97 91 A 3 3 0 0 0 100 94 A 3 3 0 0 0 103 91 A 3 3 0 0 0 100 88 z M 93 94 A 3 3 0 0 0 90 97 A 3 3 0 0 0 93 100 A 3 3 0 0 0 96 97 A 3 3 0 0 0 93 94 z " />
  <path
     style="opacity:0.2;fill:#ffffff;stroke-width:4"
     d="M 96 16 C 51.68 16 16 51.68 16 96 C 16 96.336 16.002 96.6675 16 97 C 16 52.68 51.68 17 96 17 C 140.32 17 176 52.68 176 97 C 175.998 96.6675 176 96.336 176 96 C 176 51.68 140.32 16 96 16 z "
     id="path4" />
</svg>
