<?xml version="1.0" encoding="UTF-8" standalone="no"?>
<svg
   xmlns:dc="http://purl.org/dc/elements/1.1/"
   xmlns:cc="http://creativecommons.org/ns#"
   xmlns:rdf="http://www.w3.org/1999/02/22-rdf-syntax-ns#"
   xmlns:svg="http://www.w3.org/2000/svg"
   xmlns="http://www.w3.org/2000/svg"
   xmlns:sodipodi="http://sodipodi.sourceforge.net/DTD/sodipodi-0.dtd"
   xmlns:inkscape="http://www.inkscape.org/namespaces/inkscape"
   width="192"
   height="192"
   version="1"
   id="svg40"
   sodipodi:docname="apps_rocket_player.svg"
   inkscape:version="0.92.3 (2405546, 2018-03-11)">
  <metadata
     id="metadata46">
    <rdf:RDF>
      <cc:Work
         rdf:about="">
        <dc:format>image/svg+xml</dc:format>
        <dc:type
           rdf:resource="http://purl.org/dc/dcmitype/StillImage" />
      </cc:Work>
    </rdf:RDF>
  </metadata>
  <defs
     id="defs44">
    <filter
       inkscape:collect="always"
       style="color-interpolation-filters:sRGB"
       id="filter887"
       x="-0.058285714"
       width="1.1165714"
       y="-0.0408"
       height="1.0816">
      <feGaussianBlur
         inkscape:collect="always"
         stdDeviation="2.7199999"
         id="feGaussianBlur889" />
    </filter>
    <filter
       inkscape:collect="always"
       style="color-interpolation-filters:sRGB"
       id="filter907"
       x="-0.048"
       width="1.096"
       y="-0.048"
       height="1.096">
      <feGaussianBlur
         inkscape:collect="always"
         stdDeviation="1.44"
         id="feGaussianBlur909" />
    </filter>
    <filter
       inkscape:collect="always"
       style="color-interpolation-filters:sRGB"
       id="filter928"
       x="-0.047963379"
       width="1.0959268"
       y="-0.048036677"
       height="1.0960734">
      <feGaussianBlur
         inkscape:collect="always"
         stdDeviation="1.1065018"
         id="feGaussianBlur930" />
    </filter>
    <filter
       inkscape:collect="always"
       style="color-interpolation-filters:sRGB"
       id="filter944"
       x="-0.039999999"
       width="1.08"
       y="-0.060000001"
       height="1.12">
      <feGaussianBlur
         inkscape:collect="always"
         stdDeviation="0.79999993"
         id="feGaussianBlur946" />
    </filter>
    <filter
       inkscape:collect="always"
       style="color-interpolation-filters:sRGB"
       id="filter960"
       x="-0.058285713"
       width="1.1165714"
       y="-0.040800001"
       height="1.0816">
      <feGaussianBlur
         inkscape:collect="always"
         stdDeviation="1.36"
         id="feGaussianBlur962" />
    </filter>
  </defs>
  <sodipodi:namedview
     pagecolor="#ffffff"
     bordercolor="#666666"
     borderopacity="1"
     objecttolerance="10"
     gridtolerance="10"
     guidetolerance="10"
     inkscape:pageopacity="0"
     inkscape:pageshadow="2"
     inkscape:window-width="1920"
     inkscape:window-height="1018"
     id="namedview42"
     showgrid="false"
     inkscape:zoom="1"
     inkscape:cx="96"
     inkscape:cy="96"
     inkscape:window-x="0"
     inkscape:window-y="32"
     inkscape:window-maximized="1"
     inkscape:current-layer="svg40" />
  <path
     style="opacity:0.1;stroke-width:4;filter:url(#filter928)"
     d="M 59.964844 72.720703 A 1.9985475 2.6408242 60 0 0 58.498047 73.160156 L 39.998047 83.839844 L 21.498047 94.521484 A 1.9985475 2.6408242 60 0 0 21.013672 98.261719 L 37.271484 105.04688 L 40.431641 106.36719 L 28.537109 117.4668 A 2.6408242 1.9985475 9.6312633 0 0 30.292969 120.80469 L 51.353516 124.37891 L 72.414062 127.95312 A 2.6408242 1.9985475 9.6312633 0 0 75.164062 125.37891 L 66.980469 109.78516 L 59.326172 95.208984 L 59.728516 92.082031 L 61.970703 74.615234 A 1.9985475 2.6408242 60 0 0 59.964844 72.720703 z "
     id="path2" />
  <path
     inkscape:connector-curvature="0"
     id="path4"
     d="m 55.872008,107.62316 a 1.9985475,2.6408242 60 0 1 -2.357608,0.2074 L 37.270847,101.04732 21.014466,94.262468 a 1.9985475,2.6408242 60 0 1 0.484318,-3.740856 l 18.499791,-10.68086 18.499793,-10.68086 a 1.9985475,2.6408242 60 0 1 3.4729,1.456156 l -2.243404,17.465708 -2.247316,17.458954 a 1.9985475,2.6408242 60 0 1 -1.60854,2.08245 z"
     style="fill:#ffd956;stroke-width:4" />
  <path
     style="opacity:0.1;fill:#ffffff;stroke-width:4"
     d="M 59.960938 68.71875 A 1.9985475 2.6408242 60 0 0 58.5 69.15625 L 40 79.84375 L 21.5 90.523438 A 1.9985475 2.6408242 60 0 0 20.072266 93.263672 A 1.9985475 2.6408242 60 0 1 21.5 91.523438 L 40 80.84375 L 58.5 70.15625 A 1.9985475 2.6408242 60 0 1 59.960938 69.71875 A 1.9985475 2.6408242 60 0 1 61.925781 70.943359 L 61.96875 70.617188 A 1.9985475 2.6408242 60 0 0 59.960938 68.71875 z "
     id="path6" />
  <path
     inkscape:connector-curvature="0"
     id="path8"
     d="M 51.860748,101.99698 A 2.6408242,1.9985475 0 0 1 49.715292,100.9978 L 39.039589,87.001569 28.353574,72.997525 a 2.6408242,1.9985475 0 0 1 2.289862,-2.99752 h 42.723436 a 2.6408242,1.9985475 0 0 1 2.279544,2.99752 L 64.970716,87.001569 54.295008,100.9978 a 2.6408242,1.9985475 0 0 1 -2.43426,0.99918 z"
     style="opacity:0.1;stroke-width:4;filter:url(#filter944)" />
  <path
     inkscape:connector-curvature="0"
     id="path10"
     d="m 51.860748,99.996984 a 2.6408242,1.9985475 0 0 1 -2.145456,-0.99918 L 39.039589,85.001564 28.353574,70.99752 A 2.6408242,1.9985475 0 0 1 30.643436,68 h 42.723436 a 2.6408242,1.9985475 0 0 1 2.279544,2.99752 l -10.6757,14.004044 -10.675708,13.99624 a 2.6408242,1.9985475 0 0 1 -2.43426,0.99918 z"
     style="fill:#ffab1e;stroke-width:4" />
  <path
     inkscape:connector-curvature="0"
     id="path12"
     d="M 74.137044,20.003381 A 9.907146,12.554906 0 0 0 64,32.553486 V 167.45433 a 9.907146,12.554906 0 0 0 14.860564,10.86374 l 46.094626,-33.71921 46.09167,-33.72321 a 9.907146,12.554906 0 0 0 0,-21.745098 L 124.95519,55.403348 78.860564,21.680938 A 9.907146,12.554906 0 0 0 74.136748,20.00338 Z"
     style="opacity:0.2;stroke-width:4;filter:url(#filter887)" />
  <path
     inkscape:connector-curvature="0"
     id="path16"
     d="m 56.564752,88.808248 a 2.6408242,1.9985475 9.6312633 0 0 -2.282384,0.626148 l -12.866892,12.012844 -12.87837,12.01882 a 2.6408242,1.9985475 9.6312633 0 0 1.756081,3.33837 l 21.060629,3.57396 21.06062,3.57396 a 2.6408242,1.9985475 9.6312633 0 0 2.74892,-2.57389 L 66.9811,105.78569 58.797532,90.200616 a 2.6408242,1.9985475 9.6312633 0 0 -2.23278,-1.392368 z"
     style="fill:#ff8818;stroke-width:4" />
  <rect
     id="rect18"
     ry="8"
     y="64"
     x="52"
     height="72"
     width="72"
     style="opacity:0.1;stroke-width:4;filter:url(#filter907)" />
  <path
     style="opacity:0.1;fill:#ffffff;stroke-width:4"
     d="M 30.640625 68 A 2.6408242 1.9985475 0 0 0 28.082031 70.498047 A 2.6408242 1.9985475 0 0 1 30.640625 69 L 52.007812 69 L 73.367188 69 A 2.6408242 1.9985475 0 0 1 75.917969 70.498047 A 2.6408242 1.9985475 0 0 0 73.367188 68 L 52.007812 68 L 30.640625 68 z "
     id="path20" />
  <path
     style="opacity:0.1;fill:#ffffff;stroke-width:4"
     d="M 56.039062 88.78125 A 2.6408242 1.9985475 9.6312633 0 0 54.28125 89.4375 L 41.414062 101.44531 L 28.539062 113.46875 A 2.6408242 1.9985475 9.6312633 0 0 28.085938 115.1543 A 2.6408242 1.9985475 9.6312633 0 1 28.539062 114.46875 L 41.414062 102.44531 L 54.28125 90.4375 A 2.6408242 1.9985475 9.6312633 0 1 56.039062 89.78125 A 2.6408242 1.9985475 9.6312633 0 1 56.5625 89.804688 A 2.6408242 1.9985475 9.6312633 0 1 58.796875 91.203125 L 66.984375 106.78906 L 75.164062 122.375 A 2.6408242 1.9985475 9.6312633 0 1 75.283203 122.65625 A 2.6408242 1.9985475 9.6312633 0 0 75.164062 121.375 L 66.984375 105.78906 L 58.796875 90.203125 A 2.6408242 1.9985475 9.6312633 0 0 56.5625 88.804688 A 2.6408242 1.9985475 9.6312633 0 0 56.039062 88.78125 z "
     id="path22" />
  <rect
     id="rect24"
     ry="8"
     y="60"
     x="52"
     height="72"
     width="72"
     style="fill:#0270af;stroke-width:4" />
  <path
     style="opacity:0.1;fill:#ffffff;stroke-width:4"
     d="M 60 60 C 55.568 60 52 63.568 52 68 L 52 69 C 52 64.568 55.568 61 60 61 L 116 61 C 120.432 61 124 64.568 124 69 L 124 68 C 124 63.568 120.432 60 116 60 L 60 60 z "
     id="path26" />
  <path
     inkscape:connector-curvature="0"
     id="path28"
     d="M 74.137044,16.00338 A 9.907146,12.554906 0 0 0 64,28.553486 V 163.45433 a 9.907146,12.554906 0 0 0 14.860564,10.86374 l 46.094626,-33.71921 46.09167,-33.72321 a 9.907146,12.554906 0 0 0 0,-21.745098 L 124.95519,51.403348 78.860564,17.680941 a 9.907146,12.554906 0 0 0 -4.723816,-1.677559 z"
     style="fill:#2a91c6;stroke-width:4" />
  <path
     inkscape:connector-curvature="0"
     id="path30"
     d="m 139.48131,98.42998 a 3.4974586,4.4013744 0 0 1 -1.74856,3.57576 l -24.49342,17.79285 -24.507086,17.81002 a 3.4974586,4.4013744 0 0 1 -5.245656,-3.81643 V 62.586436 a 3.4974586,4.4013744 0 0 1 5.245656,-3.79924 l 24.507086,17.792832 24.49342,17.792848 a 3.4974586,4.4013744 0 0 1 1.74856,4.057104 z"
     style="opacity:0.1;stroke-width:4;filter:url(#filter960)" />
  <path
     inkscape:connector-curvature="0"
     id="path32"
     d="m 139.48131,94.42998 a 3.4974586,4.4013744 0 0 1 -1.74856,3.57576 l -24.49342,17.79285 -24.507086,17.81002 a 3.4974586,4.4013744 0 0 1 -5.245656,-3.81643 V 58.586436 a 3.4974586,4.4013744 0 0 1 5.245656,-3.79924 l 24.507086,17.792832 24.49342,17.792848 a 3.4974586,4.4013744 0 0 1 1.74856,4.057104 z"
     style="fill:#ffaa2c;stroke-width:4;fill-opacity:1" />
  <path
     style="opacity:0.2;fill:#ffffff;stroke-width:4"
     d="M 74.140625 16 A 9.907146 12.554906 0 0 0 64 28.554688 L 64 29.554688 A 9.907146 12.554906 0 0 1 74.140625 17 A 9.907146 12.554906 0 0 1 78.859375 18.679688 L 171.04688 86.132812 A 9.907146 12.554906 0 0 1 175.97656 96.392578 A 9.907146 12.554906 0 0 0 171.04688 85.132812 L 78.859375 17.679688 A 9.907146 12.554906 0 0 0 74.140625 16 z "
     id="path34" />
  <path
     style="opacity:0.2;fill:#ffffff;stroke-width:4"
     d="M 87.09375 54.203125 A 3.4974586 4.4013744 0 0 0 83.484375 58.585938 L 83.484375 59.585938 A 3.4974586 4.4013744 0 0 1 87.09375 55.203125 A 3.4974586 4.4013744 0 0 1 88.734375 55.789062 L 113.24219 73.578125 L 137.73438 91.375 A 3.4974586 4.4013744 0 0 1 139.46289 94.681641 A 3.4974586 4.4013744 0 0 0 139.48438 94.429688 A 3.4974586 4.4013744 0 0 0 137.73438 90.375 L 113.24219 72.578125 L 88.734375 54.789062 A 3.4974586 4.4013744 0 0 0 87.09375 54.203125 z "
     id="path36" />
</svg>
