<?xml version="1.0" encoding="UTF-8" standalone="no"?>
<svg
   width="192"
   height="192"
   version="1"
   id="svg14"
   sodipodi:docname="apps_wavemarket.svg"
   inkscape:version="1.1.1 (1:1.1+202109281949+c3084ef5ed)"
   xmlns:inkscape="http://www.inkscape.org/namespaces/inkscape"
   xmlns:sodipodi="http://sodipodi.sourceforge.net/DTD/sodipodi-0.dtd"
   xmlns="http://www.w3.org/2000/svg"
   xmlns:svg="http://www.w3.org/2000/svg"
   xmlns:rdf="http://www.w3.org/1999/02/22-rdf-syntax-ns#"
   xmlns:cc="http://creativecommons.org/ns#"
   xmlns:dc="http://purl.org/dc/elements/1.1/">
  <metadata
     id="metadata20">
    <rdf:RDF>
      <cc:Work
         rdf:about="">
        <dc:format>image/svg+xml</dc:format>
        <dc:type
           rdf:resource="http://purl.org/dc/dcmitype/StillImage" />
      </cc:Work>
    </rdf:RDF>
  </metadata>
  <defs
     id="defs18">
    <filter
       inkscape:collect="always"
       style="color-interpolation-filters:sRGB"
       id="filter848"
       x="-0.050380125"
       width="1.1007603"
       y="-0.050380125"
       height="1.1007603">
      <feGaussianBlur
         inkscape:collect="always"
         stdDeviation="3.3586749"
         id="feGaussianBlur850" />
    </filter>
    <filter
       inkscape:collect="always"
       style="color-interpolation-filters:sRGB"
       id="filter6362"
       x="-0.045333378"
       y="-0.050999942"
       width="1.0906668"
       height="1.1019999">
      <feGaussianBlur
         inkscape:collect="always"
         stdDeviation="3.0600031"
         id="feGaussianBlur6364" />
    </filter>
    <filter
       inkscape:collect="always"
       style="color-interpolation-filters:sRGB"
       id="filter6407"
       x="-0.061213235"
       y="-0.096802326"
       width="1.1224265"
       height="1.1936047">
      <feGaussianBlur
         inkscape:collect="always"
         stdDeviation="3.46875"
         id="feGaussianBlur6409" />
    </filter>
    <filter
       inkscape:collect="always"
       style="color-interpolation-filters:sRGB"
       id="filter6460"
       x="-0.02246106"
       y="-0.033837992"
       width="1.0449221"
       height="1.067676">
      <feGaussianBlur
         inkscape:collect="always"
         stdDeviation="1.0856253"
         id="feGaussianBlur6462" />
    </filter>
  </defs>
  <sodipodi:namedview
     pagecolor="#ffffff"
     bordercolor="#666666"
     borderopacity="1"
     objecttolerance="10"
     gridtolerance="10"
     guidetolerance="10"
     inkscape:pageopacity="0"
     inkscape:pageshadow="2"
     inkscape:window-width="1920"
     inkscape:window-height="1014"
     id="namedview16"
     showgrid="false"
     inkscape:zoom="1"
     inkscape:cx="82.5"
     inkscape:cy="110"
     inkscape:window-x="0"
     inkscape:window-y="34"
     inkscape:window-maximized="1"
     inkscape:current-layer="svg14"
     inkscape:pagecheckerboard="0"
     showguides="false"
     inkscape:snap-bbox="true"
     inkscape:snap-bbox-midpoints="true">
    <inkscape:grid
       type="xygrid"
       id="grid3297" />
  </sodipodi:namedview>
  <rect
     id="rect2"
     transform="rotate(-90,95.999995,-95.999995)"
     ry="20"
     rx="20"
     y="-176"
     x="-180"
     height="160"
     width="160"
     style="opacity:0.2;stroke-width:4;filter:url(#filter848)" />
  <path
     id="rect1816"
     style="fill:#ffffff;stroke-width:31.5624;stroke-linecap:round;stroke-linejoin:round;stroke-miterlimit:4;stroke-dasharray:none"
     d="m 155.99999,16 c 10.62426,0 19.239,8.20747 19.93164,18.650391 L 49.87304,160.70703 15.99999,126.83398 V 82.310547 L 82.31054,16 Z" />
  <path
     id="rect1912"
     style="fill:#a5d34a;fill-opacity:1;stroke-width:18;stroke-linecap:round;stroke-linejoin:round"
     d="m 175.93163,34.650391 c 0.0297,0.447956 0.0684,0.893874 0.0684,1.349609 v 120 c 0,11.08 -8.92,20 -20,20 h -120 c -11.08,0 -20,-8.92 -20,-20 v -46.07422 l 44.99219,39.66406 z" />
  <path
     id="rect1734"
     style="fill:#6ecfff;fill-opacity:1;stroke-width:18;stroke-linecap:round;stroke-linejoin:round;stroke-miterlimit:4;stroke-dasharray:none"
     d="M 82.31054,16 15.99999,82.310547 V 36 c 0,-11.08 8.92,-20 20,-20 z" />
  <path
     id="path959"
     style="color:#000000;fill:#ffe251;fill-opacity:1;-inkscape-stroke:none"
     d="m 173.78124,26.841797 c 1.41022,2.742988 2.21875,5.850284 2.21875,9.158203 v 14.117188 l -56.63086,56.828122 55.75195,54.94922 c -1.85779,6.07177 -6.52222,10.87788 -12.48828,12.96485 L 106.6621,119.69531 75.00976,151.45703 99.824209,176 H 74.22655 L 15.99999,118.41211 V 93.095703 l 46.21094,45.705077 z" />
  <path
     id="rect27798"
     style="opacity:0.2;fill:#ffffff;stroke-width:4"
     d="m 155.99999,16 c 11.08,0 20,8.92 20,20 v 1 c 0,-11.08 -8.92,-20 -20,-20 h -120 c -11.08,0 -20,8.92 -20,20 v -1 c 0,-11.08 8.92,-20 20,-20 z" />
  <path
     id="path6321"
     style="opacity:0.2;fill:#000000;fill-opacity:1;stroke-width:1.27549;filter:url(#filter6362)"
     d="m 135,25.999696 c -8.5061,0.01699 -17.1111,3.106512 -24.18555,9.578125 -7.73433,7.075241 -10.76716,13.920851 -10.81445,24.408203 2.50422,23.385854 20.5313,32.167447 30.94922,54.083986 1.56408,3.37568 2.7806,5.02812 4.05078,4.92578 1.27018,0.10234 2.48669,-1.5501 4.05078,-4.92578 C 149.46869,92.153471 167.49579,83.371878 170,59.986024 169.95271,49.498672 166.91988,42.653062 159.18555,35.577821 152.1111,29.106208 143.5061,26.016683 135,25.999696 Z m -79,16 C 44.334489,42.023075 32.532187,46.276123 22.830078,55.18329 12.222998,64.921257 8.06485,74.340882 8,88.775087 c 3.434352,32.187003 28.157878,44.274743 42.445312,74.439453 2.145033,4.6461 3.812721,6.92017 5.554688,6.7793 1.741967,0.14087 3.409651,-2.1332 5.554688,-6.7793 C 75.842118,133.04983 100.56565,120.96209 104,88.775087 103.93515,74.340882 99.777002,64.921257 89.169922,55.18329 79.467812,46.276123 67.66551,42.023076 56,41.999696 Z" />
  <path
     id="path4724"
     style="fill:#ec4a94;fill-opacity:1;stroke-width:1.27549"
     d="M 56,40 C 44.334489,40.023379 32.532187,44.276597 22.830078,53.183764 12.222998,62.921731 8.06485,72.341789 8,86.775994 c 3.434352,32.186996 28.157877,44.273746 42.445312,74.438456 2.145033,4.6461 3.812721,6.92026 5.554688,6.77939 1.741967,0.14087 3.409654,-2.13329 5.55469,-6.77939 C 75.84212,131.04974 100.56565,118.96299 104,86.775994 103.93515,72.341789 99.777,62.921731 89.16992,53.183764 79.46781,44.276597 67.66551,40.02338 56,40 Z" />
  <path
     id="path3427"
     style="fill:#ec4a94;fill-opacity:1;stroke-width:0.928383"
     d="m 135,23.999997 c -8.5061,0.01699 -17.11195,3.107215 -24.1864,9.578828 -7.73433,7.075241 -10.76631,13.919502 -10.8136,24.406854 2.50422,23.385854 20.53179,32.167644 30.94971,54.084181 1.56408,3.37568 2.78011,5.028 4.05029,4.92566 1.27018,0.10234 2.48621,-1.54998 4.0503,-4.92566 C 149.46821,90.153323 167.49579,81.371533 170,57.985679 169.95271,47.498327 166.92073,40.654066 159.1864,33.578825 152.11195,27.107212 143.5061,24.016984 135,23.999997 Z" />
  <path
     id="circle6366"
     style="opacity:0.2;fill:#000000;stroke-width:18.7369;stroke-linecap:round;stroke-linejoin:round;filter:url(#filter6407)"
     d="M 135,36 A 24,24 0 0 0 111,60 24,24 0 0 0 135,84 24,24 0 0 0 159,60 24,24 0 0 0 135,36 Z M 56,56 A 33,33 0 0 0 23,89 33,33 0 0 0 56,122 33,33 0 0 0 89,89 33,33 0 0 0 56,56 Z" />
  <circle
     style="fill:#ffffff;stroke-width:13.6268;stroke-linecap:round;stroke-linejoin:round"
     id="path3118"
     cx="135"
     cy="57.999771"
     r="24" />
  <circle
     style="fill:#ffffff;stroke-width:18.7369;stroke-linecap:round;stroke-linejoin:round"
     id="circle4726"
     cx="56"
     cy="86.999695"
     r="33" />
  <path
     id="path6411"
     style="opacity:0.2;fill:#000000;stroke-width:0.316739;filter:url(#filter6460)"
     d="m 134.72656,39.999832 c -2.16052,-0.01074 -4.21026,0.634744 -5.44531,1.941406 -0.52406,0.554445 -1.27246,1.175008 -1.66406,1.376953 -1.12573,0.580532 -2.04376,2.280513 -2.41016,4.470703 -0.22508,1.345395 -0.27286,2.094257 -0.10937,2.535157 0.071,1.871428 0.76295,4.440282 1.55273,4.890625 0.30218,0.17231 0.82502,0.9846 1.18555,1.84375 0.35454,0.84487 1.2162,2.260065 1.91601,3.144531 1.01384,1.281348 1.27238,1.786418 1.26953,2.484375 -0.006,1.496587 -1.60223,3.34038 -2.13281,3.986328 l -0.50586,0.617188 0.0332,0.02539 c -1.38457,0.127531 -4.70911,0.507772 -6.79102,1.396485 -2.0732,0.885001 -2.83094,1.914249 -2.57812,3.5 0.36905,2.3147 5.90636,6.091158 10.83984,7.392578 2.54542,0.67147 8.49459,0.453527 11.26562,-0.414063 4.05132,-1.26845 9.25401,-4.995074 9.77344,-7 0.61961,-2.391579 -2.63209,-4.326641 -8.54297,-5.085937 -0.23061,-0.02665 -0.53828,-0.04659 -0.87695,-0.0625 l -0.38477,-0.47461 c -0.58894,-0.729667 -2.07456,-1.586124 -2.07617,-3.363281 -9.6e-4,-1.3462 0.0555,-1.475187 1.29297,-3.003906 0.71096,-0.878302 1.58091,-2.293553 1.93359,-3.146484 0.35698,-0.863304 0.87537,-1.683953 1.16993,-1.851563 0.82251,-0.468037 1.3753,-2.125493 1.50586,-4.517578 0.10901,-1.997066 0.0834,-2.153572 -0.38672,-2.441406 -0.0847,-0.05183 -0.19283,-0.09083 -0.3086,-0.121094 -0.56835,-2.881112 -1.57479,-4.667348 -3.41992,-6.123047 -1.67455,-1.32113 -3.94495,-1.989257 -6.10547,-2 z m -78.63281,21 c -0.726187,-0.0013 -1.484296,0.06074 -2.332031,0.173828 -6.705708,0.894569 -11.348122,5.4791 -12.806641,12.648438 -0.416144,2.045579 -0.466069,4.085283 -0.304687,12.267578 0.182687,9.262151 0.07801,11.280889 -0.71875,14.089844 -0.08002,0.28214 -0.113149,0.52245 -0.09961,0.64258 -0.840744,0.3248 -1.578275,0.62866 -1.986328,0.83984 -2.04347,1.05596 -2.848417,2.18146 -2.845703,3.98047 0.0058,4.0449 8.312096,9.69502 16.273438,11.07031 2.234861,0.38607 7.047951,0.38052 9.201171,-0.01 4.75646,-0.86242 9.666591,-3.16103 13.150391,-6.15624 2.55545,-2.19706 3.39937,-3.52988 3.375,-5.3379 -0.0237,-1.76116 -0.731714,-2.77714 -2.552734,-3.6621 -0.559247,-0.42283 -1.185666,-0.68294 -1.810547,-0.875 -0.03833,-0.30919 -0.175865,-0.964693 -0.361328,-1.68555 -0.52864,-2.054561 -0.663221,-6.667197 -0.494141,-16.964844 0.13143,-8.005101 -0.03568,-9.274335 -1.708984,-12.96875 -1.29184,-2.852171 -2.961441,-4.354675 -6.712891,-6.042968 -3.192661,-1.436822 -5.087064,-2.005859 -7.265625,-2.009766 z" />
  <path
     style="fill:#5d5d5d;stroke-width:0.321496"
     d="m 39.932596,98.180506 c 0.796764,-2.808955 0.899525,-4.828873 0.716838,-14.091024 -0.161382,-8.182295 -0.110583,-10.221523 0.305561,-12.267102 1.458519,-7.169338 6.101042,-11.754809 12.80675,-12.649378 3.390942,-0.452365 5.341043,-0.07922 9.597925,1.836542 3.75145,1.688293 5.42053,3.190973 6.71237,6.043144 1.6733,3.694415 1.84065,4.964176 1.70922,12.969277 -0.16908,10.297647 -0.0349,14.909297 0.49374,16.963858 0.24887,0.967307 0.41276,1.822934 0.36421,1.871885 l -32.766427,0.04913 c -0.08045,0 -0.0535,-0.326849 0.0598,-0.726337 z"
     id="path4728"
     sodipodi:nodetypes="ssssssssccss" />
  <path
     id="path4730"
     style="fill:#ec4a94;stroke-width:0.323948"
     d="m 70.67716,98.176725 c -1.03061,-0.274793 -2.12208,-0.499806 -2.42529,-0.499806 -0.30321,0 -0.87236,-0.479031 -1.26494,-1.064912 -1.08784,-1.623496 -1.90822,-2.177279 -3.5725,-2.411163 l -1.43144,-0.20117 c -4.032754,0.08913 -12.460825,0.07203 -12.460825,0.07203 -1.634732,0 -3.855936,1.515871 -4.336526,2.959459 -2.938499,0.828576 -6.200828,2.040712 -7.339636,2.630095 -2.04347,1.055962 -2.848706,2.182152 -2.845992,3.981162 0.0058,4.0449 8.312118,9.69533 16.273459,11.07062 2.234861,0.38607 7.04748,0.38128 9.2007,-0.009 4.75646,-0.86242 9.66742,-3.16137 13.15122,-6.15658 2.55545,-2.19706 3.39847,-3.53092 3.3741,-5.33894 -0.0237,-1.76116 -0.73136,-2.77643 -2.55238,-3.6614 -1.17219,-0.886253 -2.63884,-1.070774 -3.76995,-1.370264 z"
     sodipodi:nodetypes="cssscccccssssccc" />
  <path
     style="fill:#e2e2e2;fill-opacity:1;stroke-width:0.324183"
     d="m 60.65157,100.3246 c 0.79465,-0.28589 1.78717,-0.746823 2.2056,-1.024303 l 0.76077,-0.5045 -0.64405,-0.706105 c -0.82831,-0.908125 -1.34624,-2.853584 -1.34851,-5.065386 -0.002,-1.675433 0.0758,-1.835039 1.81627,-3.737639 0.99994,-1.093106 2.22391,-2.855994 2.71994,-3.917527 0.50206,-1.074445 1.23177,-2.096182 1.64605,-2.304787 1.15681,-0.582503 1.93338,-2.644726 2.11701,-5.621848 0.15331,-2.485491 0.1185,-2.680271 -0.54286,-3.038498 -0.40163,-0.217543 -1.12513,-0.28974 -1.67612,-0.167258 -1.24393,0.276516 -2.06421,-0.432013 -3.02428,-2.612238 l -0.7155,-1.624815 -0.86019,1.718059 c -1.47666,2.949247 -4.059647,5.328171 -6.634551,6.110386 -0.665381,0.202134 -0.551081,-0.0032 0.670446,-1.20481 0.809922,-0.796668 1.554886,-1.767013 1.65547,-2.156316 l 0.182897,-0.707834 -1.321203,0.682175 c -3.417311,1.764456 -7.753663,2.981888 -11.045085,2.48234 -1.186369,-0.180055 -1.814779,-0.903619 -2.587487,-1.73283 -1.002819,-1.076158 -1.030406,-1.084184 -1.586922,-0.46181 -1.155553,1.292313 0.157496,7.545242 1.753538,8.350572 0.425008,0.214449 1.159447,1.225973 1.666524,2.295249 0.498639,1.051501 1.711922,2.812463 2.696177,3.91324 1.425905,1.594732 1.78853,2.222969 1.78452,3.091623 -0.0088,1.862604 -0.852658,4.84434 -1.59889,5.648277 l -0.712676,0.76778 0.889457,0.589841 c 2.528254,1.676602 8.38139,2.144992 11.733655,0.938962 z"
     id="path4732"
     sodipodi:nodetypes="sscscssssssscsscscssssssscscss" />
  <path
     style="fill:#ec4a94;stroke-width:0.316739"
     d="m 129.88729,77.606333 c -4.93348,-1.30142 -10.47142,-5.078092 -10.84047,-7.392792 -0.25282,-1.585751 0.50585,-2.615468 2.57905,-3.500469 2.66257,-1.136583 7.48332,-1.456317 7.48332,-1.456317 0,0 10.61954,-0.457669 13.27392,-0.150952 5.91088,0.759296 9.16147,2.694964 8.54186,5.086543 -0.51943,2.004926 -5.72084,5.729947 -9.77216,6.998397 -2.77103,0.86759 -8.7201,1.08706 -11.26552,0.41559 z"
     id="path1155"
     sodipodi:nodetypes="sssccsss" />
  <path
     style="fill:#e2e2e2;fill-opacity:1;stroke-width:0.245029"
     d="m 141.5796,65.135973 -0.45792,-0.567346 c -0.58894,-0.729667 -2.07451,-1.586277 -2.07612,-3.363434 -9.6e-4,-1.3462 0.0539,-1.474437 1.29139,-3.003156 0.71096,-0.878302 1.58122,-2.294767 1.9339,-3.147698 0.35698,-0.863304 0.8758,-1.684259 1.17036,-1.851869 0.82251,-0.468037 1.37465,-2.125014 1.50521,-4.517099 0.10901,-1.997066 0.0842,-2.15357 -0.38597,-2.441404 -0.28556,-0.174793 -0.79998,-0.232802 -1.19175,-0.134389 -0.88444,0.222178 -1.46767,-0.347118 -2.15028,-2.098907 l -0.50873,-1.305522 -0.61161,1.38044 c -1.04991,2.369695 -0.81587,-0.01871 -2.64665,0.609786 -0.47309,0.162413 -0.44733,0.06446 0.42118,-0.900928 0.57586,-0.640114 -1.10074,-0.316649 -1.04548,-2.43e-4 l 0.33751,1.93175 -1.54985,-1.403868 c -2.09871,-1.901021 -2.94073,-0.840276 -5.28097,-1.241656 -0.84352,-0.144673 -3.25206,4.462131 -3.80146,3.795868 -0.71302,-0.864679 -0.73264,-0.871128 -1.12832,-0.37106 -0.82161,1.038361 0.11198,6.062526 1.24678,6.7096 0.30218,0.17231 0.82438,0.985059 1.18491,1.844209 0.35454,0.84487 1.2172,2.259786 1.91701,3.144252 1.01384,1.281348 1.27167,1.786127 1.26882,2.484084 -0.006,1.496587 -1.60208,3.339924 -2.13266,3.985872 l -0.50672,0.616908 0.63241,0.473932 c 0.93715,0.702296 3.7389,1.95537 6.20641,2.235898 3.15089,-0.106409 4.02964,-1.1966 6.3586,-2.86402 z"
     id="path2038"
     sodipodi:nodetypes="cscssssssscsssscssssssssscscc" />
  <path
     style="fill:#5d5d5d;stroke-width:0.317447"
     d="m 142.03432,51.871374 c -1.15556,-2.885689 -7.66313,-6.783381 -11.72746,-6.783381 -0.86266,0 -1.05674,0.483951 -1.7044,1.914273 -0.9272,2.047645 -1.49416,2.173793 -2.54683,1.962727 -1.07555,-0.215654 -1.27147,-0.642113 -0.84769,-3.175217 0.3664,-2.19019 1.28275,-3.891739 2.40848,-4.472271 0.3916,-0.201945 1.14077,-0.820811 1.66483,-1.375256 2.4701,-2.613325 8.20258,-2.58482 11.55169,0.05744 1.96118,1.547258 2.97355,3.467947 3.52092,6.679876 0.60863,3.571461 0.60636,3.729123 -0.044,3.056383 -0.4895,-0.506332 -0.54699,-0.444188 -0.89295,0.965162 -0.50375,2.052156 -0.89634,2.384461 -1.38256,1.170258 z"
     id="path1804"
     sodipodi:nodetypes="csssssssssscc" />
</svg>
