<?xml version="1.0" encoding="UTF-8" standalone="no"?>
<svg
   width="192"
   height="192"
   version="1.1"
   id="svg14"
   sodipodi:docname="apps_data_monitor.svg"
   inkscape:version="1.1.1 (1:1.1+202109281949+c3084ef5ed)"
   xmlns:inkscape="http://www.inkscape.org/namespaces/inkscape"
   xmlns:sodipodi="http://sodipodi.sourceforge.net/DTD/sodipodi-0.dtd"
   xmlns="http://www.w3.org/2000/svg"
   xmlns:svg="http://www.w3.org/2000/svg">
  <defs
     id="defs18">
    <filter
       inkscape:collect="always"
       style="color-interpolation-filters:sRGB"
       id="filter849"
       x="-0.048000001"
       y="-0.048000001"
       width="1.096"
       height="1.096">
      <feGaussianBlur
         inkscape:collect="always"
         stdDeviation="3.2"
         id="feGaussianBlur851" />
    </filter>
    <filter
       inkscape:collect="always"
       style="color-interpolation-filters:sRGB"
       id="filter2035"
       x="-0.058500055"
       y="-0.10446412"
       width="1.1170001"
       height="1.2089282">
      <feGaussianBlur
         inkscape:collect="always"
         stdDeviation="2.4374961"
         id="feGaussianBlur2037" />
    </filter>
  </defs>
  <sodipodi:namedview
     id="namedview16"
     pagecolor="#ffffff"
     bordercolor="#666666"
     borderopacity="1.0"
     inkscape:pageshadow="2"
     inkscape:pageopacity="0.0"
     inkscape:pagecheckerboard="0"
     showgrid="false"
     inkscape:zoom="1"
     inkscape:cx="64.5"
     inkscape:cy="84.5"
     inkscape:window-width="1920"
     inkscape:window-height="1019"
     inkscape:window-x="0"
     inkscape:window-y="34"
     inkscape:window-maximized="1"
     inkscape:current-layer="svg14">
    <inkscape:grid
       type="xygrid"
       id="grid2617" />
  </sodipodi:namedview>
  <rect
     style="opacity:0.2;stroke-width:4;filter:url(#filter849)"
     width="160"
     height="160"
     x="16"
     y="20"
     rx="32"
     ry="32"
     id="rect2" />
  <rect
     style="fill:#515d5c;fill-opacity:1;stroke-width:4"
     width="160"
     height="160"
     x="16"
     y="16"
     rx="32"
     ry="32"
     id="rect4" />
  <path
     id="path12"
     style="opacity:0.1;fill:#ffffff;stroke-width:4"
     d="M 48,16 C 30.272,16 16,30.272 16,48 v 1 C 16,31.272 30.272,17 48,17 h 96 c 17.728,0 32,14.272 32,32 V 48 C 176,30.272 161.728,16 144,16 Z" />
  <path
     id="path1997"
     style="opacity:0.2;fill:#000000;fill-opacity:1;stroke-width:28.2951;stroke-linecap:round;stroke-linejoin:round;filter:url(#filter2035)"
     d="m 123,70 -5.6582,5.726562 -16.75391,16.953126 c -0.783682,0.79298 -0.783682,2.070301 0,2.863281 l 2.82813,2.861328 c 0.78369,0.79298 2.04639,0.79298 2.83007,0 L 119,85.498047 V 115 c 0,1.108 0.892,2 2,2 h 4 c 1.108,0 2,-0.892 2,-2 V 85.498047 l 12.75391,12.90625 C 140.14575,98.800787 140.6566,99 141.16797,99 c 0.51138,0 1.02417,-0.199213 1.41601,-0.595703 l 2.82813,-2.861328 c 0.78369,-0.79298 0.78369,-2.072255 0,-2.865235 L 128.66016,75.724609 Z m -56,9 c -1.108,0 -2,0.892 -2,2 v 29.50195 L 52.246094,97.595703 C 51.854252,97.199213 51.343405,97.000001 50.832031,97 c -0.511375,0 -1.024174,0.199213 -1.416015,0.595703 l -2.828125,2.861327 c -0.783684,0.79298 -0.783684,2.07226 0,2.86524 L 63.339844,120.27539 69,126 l 5.658203,-5.72656 16.753906,-16.95313 c 0.78368,-0.79298 0.78368,-2.0703 0,-2.86328 l -2.828125,-2.861327 c -0.78369,-0.79298 -2.046398,-0.79298 -2.830078,0 L 73,110.50195 V 81 c 0,-1.108 -0.892,-2 -2,-2 z" />
  <path
     style="opacity:1;fill:#29d23b;stroke-width:28.2951;stroke-linecap:round;stroke-linejoin:round;fill-opacity:1"
     d="m 67,77 c -1.108,0 -2,0.892 -2,2 v 29.50195 L 52.246094,95.595703 C 51.854252,95.199213 51.343405,95.000001 50.832031,95 c -0.511375,0 -1.024174,0.199213 -1.416015,0.595703 l -2.828125,2.861328 c -0.783684,0.79298 -0.783684,2.072259 0,2.865239 L 63.339844,118.27539 69,124 l 5.658203,-5.72656 16.753906,-16.95313 c 0.78368,-0.79298 0.78368,-2.070299 0,-2.863279 l -2.828125,-2.861328 c -0.78369,-0.79298 -2.046398,-0.79298 -2.830078,0 L 73,108.50195 V 79 c 0,-1.108 -0.892,-2 -2,-2 z"
     id="path2082" />
  <path
     style="opacity:1;fill:#00e6b5;stroke-width:28.2951;stroke-linecap:round;stroke-linejoin:round;fill-opacity:1"
     d="m 123,68 -5.6582,5.726562 -16.75391,16.953126 c -0.783682,0.79298 -0.783682,2.070301 0,2.863281 l 2.82813,2.861328 c 0.78369,0.79298 2.04639,0.79298 2.83007,0 L 119,83.498047 V 113 c 0,1.108 0.892,2 2,2 h 4 c 1.108,0 2,-0.892 2,-2 V 83.498047 l 12.75391,12.90625 C 140.14575,96.800787 140.6566,97 141.16797,97 c 0.51138,0 1.02417,-0.199213 1.41601,-0.595703 l 2.82813,-2.861328 c 0.78369,-0.79298 0.78369,-2.072255 0,-2.865235 L 128.66016,73.724609 Z"
     id="rect1081" />
  <path
     id="path2039"
     style="opacity:0.2;fill:#ffffff;stroke-width:28.2951;stroke-linecap:round;stroke-linejoin:round;fill-opacity:1"
     d="M 123 68 L 117.3418 73.726562 L 100.58789 90.679688 C 100.06849 91.205255 99.90122 91.942267 100.07031 92.611328 C 100.15635 92.270905 100.32361 91.9471 100.58789 91.679688 L 117.3418 74.726562 L 123 69 L 128.66016 74.724609 L 145.41211 91.677734 C 145.67606 91.944817 145.84354 92.269123 145.92969 92.609375 C 146.09855 91.93988 145.93138 91.203158 145.41211 90.677734 L 128.66016 73.724609 L 123 68 z M 67 77 C 65.892 77 65 77.892 65 79 L 65 80 C 65 78.892 65.892 78 67 78 L 71 78 C 72.108 78 73 78.892 73 80 L 73 79 C 73 77.892 72.108 77 71 77 L 67 77 z M 50.832031 95 C 50.320656 95 49.807857 95.199213 49.416016 95.595703 L 46.587891 98.457031 C 46.068158 98.982929 45.90068 99.72065 46.070312 100.39062 C 46.156299 100.0497 46.323471 99.724587 46.587891 99.457031 L 49.416016 96.595703 C 49.807857 96.199213 50.320656 96 50.832031 96 C 51.343405 96.000001 51.854252 96.199213 52.246094 96.595703 L 65 109.50195 L 65 108.50195 L 52.246094 95.595703 C 51.854252 95.199213 51.343405 95.000001 50.832031 95 z M 87.167969 95 C 86.65637 95 86.145746 95.199213 85.753906 95.595703 L 73 108.50195 L 73 109.50195 L 85.753906 96.595703 C 86.537586 95.802723 87.800294 95.802723 88.583984 96.595703 L 91.412109 99.457031 C 91.676386 99.724444 91.843652 100.04825 91.929688 100.38867 C 92.098779 99.719611 91.931513 98.982599 91.412109 98.457031 L 88.583984 95.595703 C 88.192139 95.199213 87.679567 95 87.167969 95 z " />
</svg>
