<svg xmlns="http://www.w3.org/2000/svg" width="48" height="48" version="1">
 <g>
  <path style="opacity:0.2" d="m 6,44.5 c -1.108,0 -2,-0.892 -2,-2 v -1 c 0,1.108 0.892,2 2,2 h 36 c 1.108,0 2,-0.892 2,-2 v 1 c 0,1.108 -0.892,2 -2,2 z"/>
  <rect style="fill:#4f4f4f" width="40" height="40" x="-44" y="-44" rx="2" ry="2" transform="matrix(0,-1,-1,0,0,0)"/>
  <path style="opacity:0.1;fill:#ffffff" d="M 6,4 C 4.892,4 4,4.892 4,6 v 0.5 c 0,-1.108 0.892,-2 2,-2 h 36 c 1.108,0 2,0.892 2,2 V 6 C 44,4.892 43.108,4 42,4 Z"/>
  <path style="opacity:0.2" d="m 22.023438,11.473081 a 2.0002,2.0002 0 0 0 -1.97461,1.583985 l -1.009766,4.443359 H 14 a 2.0002,2.0002 0 1 0 0,4 h 4.128906 l -1.363281,6 H 12 a 2.0002,2.0002 0 1 0 0,4 h 3.857422 l -0.808594,3.556641 a 2.0009096,2.0009096 0 0 0 3.902344,0.886718 l 1.009766,-4.443359 h 4.898437 l -0.808594,3.556641 a 2.0002,2.0002 0 1 0 3.900391,0.886718 l 1.009766,-4.443359 H 34 a 2.0002,2.0002 0 1 0 0,-4 h -4.128906 l 1.363281,-6 H 36 a 2.0002,2.0002 0 1 0 0,-4 h -3.857422 l 0.808594,-3.556641 a 2.0002,2.0002 0 0 0 -1.927734,-2.470703 2.0002,2.0002 0 0 0 -1.972657,1.583985 l -1.009765,4.443359 h -4.898438 l 0.808594,-3.556641 a 2.0002,2.0002 0 0 0 -1.927734,-2.470703 z m 0.210937,10.027344 h 4.898437 l -1.363281,6 h -4.898437 z"/>
  <g>
   <path style="fill:none;stroke:#ffffff;stroke-width:4;stroke-linecap:round" d="M 22,13 17,35"/>
   <path style="fill:none;stroke:#ffffff;stroke-width:4;stroke-linecap:round" d="m 31.000469,13 -5,22"/>
   <path style="fill:none;stroke:#ffffff;stroke-width:4;stroke-linecap:round" d="m 14,19 22,-1e-6"/>
   <path style="fill:none;stroke:#ffffff;stroke-width:4;stroke-linecap:round" d="m 12.000485,28.9998 22,-1e-6"/>
  </g>
 </g>
</svg>
