<?xml version="1.0" encoding="UTF-8" standalone="no"?>
<svg
   width="192"
   height="192"
   version="1"
   id="svg19"
   sodipodi:docname="apps_teamspeak3.svg"
   inkscape:version="1.1-rc (1:1.1+rc+202105232036+f4db50c7c1)"
   xmlns:inkscape="http://www.inkscape.org/namespaces/inkscape"
   xmlns:sodipodi="http://sodipodi.sourceforge.net/DTD/sodipodi-0.dtd"
   xmlns="http://www.w3.org/2000/svg"
   xmlns:svg="http://www.w3.org/2000/svg">
  <defs
     id="defs23">
    <filter
       inkscape:collect="always"
       style="color-interpolation-filters:sRGB"
       id="filter1032"
       x="-0.047049753"
       y="-0.048989417"
       width="1.0940995"
       height="1.0979788">
      <feGaussianBlur
         inkscape:collect="always"
         stdDeviation="2.3524748"
         id="feGaussianBlur1034" />
    </filter>
    <filter
       inkscape:collect="always"
       style="color-interpolation-filters:sRGB"
       id="filter1074"
       x="-0.048000001"
       y="-0.048000001"
       width="1.096"
       height="1.096">
      <feGaussianBlur
         inkscape:collect="always"
         stdDeviation="3.2"
         id="feGaussianBlur1076" />
    </filter>
  </defs>
  <sodipodi:namedview
     id="namedview21"
     pagecolor="#ffffff"
     bordercolor="#666666"
     borderopacity="1.0"
     inkscape:pageshadow="2"
     inkscape:pageopacity="0.0"
     inkscape:pagecheckerboard="0"
     showgrid="false"
     inkscape:zoom="3.05"
     inkscape:cx="24.098361"
     inkscape:cy="76.557377"
     inkscape:window-width="1920"
     inkscape:window-height="1019"
     inkscape:window-x="0"
     inkscape:window-y="34"
     inkscape:window-maximized="1"
     inkscape:current-layer="svg19" />
  <style
     id="style828"
     type="text/css">
  .st0{fill:#1C2437;}
 </style>
  <rect
     style="opacity:0.2;fill:#000000;stroke-width:4;filter:url(#filter1074)"
     width="160"
     height="160"
     x="16"
     y="20"
     rx="80"
     ry="80"
     id="rect1036" />
  <rect
     style="fill:#334468;stroke-width:4"
     width="160"
     height="160"
     x="16"
     y="16"
     rx="80"
     ry="80"
     id="rect2" />
  <path
     style="opacity:0.2;stroke-width:4;filter:url(#filter1032)"
     d="m 97.859376,38.759482 c -6.466368,-0.10832 -13.194612,0.937688 -20.195312,3.148436 -9.334272,3.045924 -17.201436,8.548212 -23.882816,16.015628 -0.786008,0.982552 -1.37198,2.266244 -0.585936,3.445312 0.786076,1.080808 0.3942,1.471768 -0.19532,2.257812 -4.716264,6.48486 -7.960356,13.756752 -9.335936,21.617188 -0.19652,1.080812 -0.588956,1.474148 -1.375,1.867188 -3.242433,1.572088 -5.308906,4.419236 -5.898439,8.054688 -0.393024,2.259872 0.0012,4.422204 -0.195312,6.289066 0,1.9651 0.0012,3.43812 -0.195312,4.61718 0,7.46742 4.818339,12.08836 12.187499,11.69532 1.866856,0 2.843748,-1.08417 2.843748,-2.65625 0.19648,-4.81452 0.19532,-9.52923 0.19532,-14.34375 0,-5.011034 -0.19348,-10.317098 0.78906,-15.32813 5.600564,-29.280136 39.00706,-45.297228 64.75,-31.148436 15.62262,8.646488 23.48078,22.206748 24.07031,40.1875 0.19648,6.681376 0,13.365506 0,20.046876 0,1.67034 0.69354,2.84915 2.26563,3.24219 5.69882,1.27732 11.58776,-2.75311 12.57031,-8.64844 0.58952,-4.02847 0.20312,-8.05746 0.20312,-12.085942 0,-4.618004 -2.06528,-8.053824 -6.09375,-10.117184 -0.58954,-0.39304 -1.17852,-0.792084 -1.375,-1.578128 -1.47382,-8.056948 -4.71673,-15.521756 -9.53125,-22.203124 -0.39304,-0.39304 -0.98679,-0.786648 -0.59375,-1.179688 2.06337,-2.6529 0.002,-4.12322 -1.57031,-5.695312 -11.68626,-11.416056 -24.62555,-17.261724 -38.851562,-17.5 z M 67.226564,98.017298 c -3.35762,-0.239444 -6.087212,2.131442 -6.796876,6.164062 -1.135472,5.91453 7.16e-4,11.46966 3.3125,16.39844 2.36556,3.49494 5.67342,5.01654 9.742188,5.375 2.270936,-0.0896 11.450428,0.36124 13.4375,-0.44532 2.554804,-0.89614 4.447888,-2.59696 5.015624,-5.375 0.567732,-2.77803 -2.748056,-6.63142 -7.195312,-10.66406 -4.6365,-4.21186 -10.688216,-8.69163 -14,-10.304682 -1.206436,-0.69451 -2.39642,-1.06863 -3.515624,-1.14844 z m 54.742186,7.984372 c -0.49011,-1.9e-4 -0.99597,0.0443 -1.52344,0.14064 -3.86058,0.57777 -7.18604,2.4097 -10.6875,3.75781 -3.14233,1.34812 -5.92735,2.9831 -8.17187,5.10157 -3.142336,3.1777 -1.43796,7.51143 3.5,9.14843 0.62846,0.28888 1.52803,0.47929 2.51562,0.67188 2.78321,0.3852 5.38866,0.96367 8.17188,1.15625 3.68101,0.19256 6.46629,-0.95983 8.53125,-3.36719 2.60365,-2.98512 3.85925,-6.73944 3.67969,-10.6875 -0.15712,-3.62306 -2.58484,-5.92056 -6.01563,-5.92187 z m 18.89063,16.01563 c -0.54545,-0.0974 -1.18801,0.25344 -1.55469,0.82031 -1.85787,5.66867 -10.46211,24.6644 -39.796878,26.64844 -34.615032,2.36194 18.476508,9.53683 33.632808,-1.32813 5.18248,-3.87359 11.04714,-7.74224 10.85157,-18.89062 0,-2.173 -1.0761,-5.85846 -2.64063,-6.99219 -0.14668,-0.14172 -0.31036,-0.22532 -0.49218,-0.2578 z"
     id="path4" />
  <path
     style="fill:#ffffff;stroke-width:4"
     class="st0"
     d="m 36.196489,99.452588 c 0.196512,-1.866856 -0.196512,-4.02848 0.196512,-6.288352 0.589533,-3.635452 2.652896,-6.484864 5.895327,-8.056952 0.786044,-0.39304 1.179064,-0.786044 1.375576,-1.866856 1.37558,-7.860436 4.618008,-15.131344 9.334272,-21.616204 0.589532,-0.786044 0.982556,-1.179068 0.19648,-2.259876 -0.786044,-1.179068 -0.19648,-2.456392 0.589532,-3.438944 C 60.465564,48.457988 68.326,42.95568 77.660272,39.909758 100.06252,32.835363 119.71362,37.649884 136.71182,54.25506 c 1.57208,1.572092 3.63545,3.04592 1.57208,5.69882 -0.39304,0.39304 0.19648,0.786044 0.58954,1.179068 4.81452,6.681368 8.05695,14.148788 9.53078,22.205736 0.19648,0.786044 0.78604,1.179068 1.37558,1.572092 4.02847,2.06336 6.09184,5.502308 6.09184,10.120312 0,4.028476 0.39304,8.056952 -0.19648,12.085422 -0.98256,5.89533 -6.87788,9.92381 -12.5767,8.64649 -1.57209,-0.39304 -2.25988,-1.57209 -2.25988,-3.24244 0,-6.68137 0.19648,-13.36274 0,-20.044116 C 140.24905,74.495692 132.38861,60.936436 116.76599,52.289948 91.023048,38.14116 57.616184,54.156804 52.01562,83.43694 c -0.982552,5.011032 -0.78604,10.316828 -0.78604,15.327856 0,4.814524 0,9.530784 -0.19648,14.345304 0,1.57208 -0.982556,2.6529 -2.849412,2.6529 -7.36916,0.39304 -12.183676,-4.22499 -12.183676,-11.6924 0.196512,-1.17907 0.196512,-2.65291 0.196512,-4.618012"
     id="path11" />
  <path
     style="fill:#ffffff;stroke-width:4"
     class="st0"
     d="m 86.921576,123.50711 c 2.554804,-0.89614 4.447256,-2.59881 5.014992,-5.37685 0.567732,-2.77804 -2.744052,-6.63144 -7.191308,-10.66408 -4.6365,-4.21186 -10.69234,-8.692572 -14.004124,-10.305624 -4.825748,-2.778032 -9.367624,-0.35844 -10.313844,5.018394 -1.135472,5.91453 0,11.47061 3.311784,16.39938 2.36556,3.49495 5.677344,5.01839 9.746112,5.37685 2.270936,-0.0896 11.449316,0.35848 13.436388,-0.44807"
     id="path13" />
  <path
     style="fill:#ffffff;stroke-width:4"
     class="st0"
     d="m 107.60286,122.82381 c 2.78321,0.3852 5.38686,0.96294 8.17007,1.15553 3.68102,0.19256 6.46423,-0.96294 8.52919,-3.3703 2.60365,-2.98512 3.86058,-6.74058 3.68102,-10.68864 -0.17956,-4.14065 -3.32189,-6.548 -7.5416,-5.77765 -3.86058,0.57777 -7.18248,2.40735 -10.68394,3.75547 -3.14233,1.34812 -5.92554,2.98512 -8.17007,5.10359 -3.14233,3.17771 -1.43649,7.51094 3.50146,9.14794 0.62847,0.28888 1.52628,0.48147 2.51387,0.67406"
     id="path15" />
  <path
     style="fill:#ffffff;stroke-width:4"
     class="st0"
     d="m 141.35511,120.27293 c -0.58669,-0.56687 -1.56452,-0.18896 -2.05343,0.56687 -1.85787,5.66868 -10.46274,24.65873 -39.797512,26.64276 -34.615032,2.36195 18.480912,9.54227 33.637212,-1.32269 5.18248,-3.87359 11.04943,-7.74719 10.85386,-18.89557 0,-2.173 -1.0756,-5.85764 -2.64013,-6.99137"
     id="path17" />
  <path
     id="rect1078"
     style="fill:#ffffff;stroke-width:4;opacity:0.1"
     d="M 96 16 C 51.68 16 16 51.68 16 96 C 16 96.167713 16.010698 96.332536 16.011719 96.5 C 16.280347 52.413241 51.847713 17 96 17 C 140.15229 17 175.71965 52.413241 175.98828 96.5 C 175.9893 96.332536 176 96.167713 176 96 C 176 51.68 140.32 16 96 16 z " />
</svg>
