<?xml version="1.0" encoding="UTF-8" standalone="no"?>
<svg
   xmlns:dc="http://purl.org/dc/elements/1.1/"
   xmlns:cc="http://creativecommons.org/ns#"
   xmlns:rdf="http://www.w3.org/1999/02/22-rdf-syntax-ns#"
   xmlns:svg="http://www.w3.org/2000/svg"
   xmlns="http://www.w3.org/2000/svg"
   xmlns:sodipodi="http://sodipodi.sourceforge.net/DTD/sodipodi-0.dtd"
   xmlns:inkscape="http://www.inkscape.org/namespaces/inkscape"
   width="192"
   height="192"
   version="1"
   id="svg12"
   sodipodi:docname="apps_microsoft_appmanager.svg"
   inkscape:version="1.0.2 (1.0.2+r75+1)">
  <metadata
     id="metadata18">
    <rdf:RDF>
      <cc:Work
         rdf:about="">
        <dc:format>image/svg+xml</dc:format>
        <dc:type
           rdf:resource="http://purl.org/dc/dcmitype/StillImage" />
        <dc:title></dc:title>
      </cc:Work>
    </rdf:RDF>
  </metadata>
  <defs
     id="defs16">
    <filter
       inkscape:collect="always"
       style="color-interpolation-filters:sRGB"
       id="filter900"
       x="-0.064666667"
       width="1.1293333"
       y="-0.038163934"
       height="1.0763279">
      <feGaussianBlur
         inkscape:collect="always"
         stdDeviation="1.94"
         id="feGaussianBlur902" />
    </filter>
    <filter
       inkscape:collect="always"
       style="color-interpolation-filters:sRGB"
       id="filter909"
       x="-0.0405"
       width="1.081"
       y="-0.058909091"
       height="1.1178182">
      <feGaussianBlur
         inkscape:collect="always"
         stdDeviation="2.7"
         id="feGaussianBlur911" />
    </filter>
    <filter
       inkscape:collect="always"
       style="color-interpolation-filters:sRGB"
       id="filter919"
       x="-0.025333333"
       width="1.0506667"
       y="-0.456"
       height="1.912">
      <feGaussianBlur
         inkscape:collect="always"
         stdDeviation="0.76"
         id="feGaussianBlur921" />
    </filter>
    <filter
       inkscape:collect="always"
       style="color-interpolation-filters:sRGB"
       id="filter923"
       x="-0.025333333"
       width="1.0506667"
       y="-0.456"
       height="1.912">
      <feGaussianBlur
         inkscape:collect="always"
         stdDeviation="0.76"
         id="feGaussianBlur925" />
    </filter>
    <filter
       inkscape:collect="always"
       style="color-interpolation-filters:sRGB"
       id="filter927"
       x="-0.025333333"
       width="1.0506667"
       y="-0.456"
       height="1.912">
      <feGaussianBlur
         inkscape:collect="always"
         stdDeviation="0.76"
         id="feGaussianBlur929" />
    </filter>
  </defs>
  <sodipodi:namedview
     pagecolor="#ffffff"
     bordercolor="#666666"
     borderopacity="1"
     objecttolerance="10"
     gridtolerance="10"
     guidetolerance="10"
     inkscape:pageopacity="0"
     inkscape:pageshadow="2"
     inkscape:window-width="1920"
     inkscape:window-height="1018"
     id="namedview14"
     showgrid="false"
     inkscape:zoom="2.49"
     inkscape:cx="59.928166"
     inkscape:cy="114.62638"
     inkscape:window-x="0"
     inkscape:window-y="30"
     inkscape:window-maximized="1"
     inkscape:current-layer="svg12"
     showguides="false"
     inkscape:document-rotation="0">
    <inkscape:grid
       type="xygrid"
       id="grid852" />
  </sodipodi:namedview>
  <path
     id="rect904"
     style="opacity:0.2;fill:#000000;fill-opacity:1;stroke-width:4.01364;stroke-linecap:round;stroke-linejoin:round;stroke-miterlimit:4;stroke-dasharray:none;filter:url(#filter909)"
     d="m 34,30 c -4.432,0 -8,3.568 -8,8 v 91 c 0,0.33946 0.02771,0.67189 0.06836,1 H 16 v 1.99609 C 16,136.43054 19.556261,140 23.972656,140 H 168.02734 C 172.44374,140 176,136.43054 176,131.99609 V 130 H 165.93164 C 165.97229,129.67189 166,129.33946 166,129 V 38 c 0,-4.432 -3.568,-8 -8,-8 z" />
  <rect
     style="opacity:1;fill:#0682c9;stroke-width:4.01364;stroke-linecap:round;stroke-linejoin:round;stroke-miterlimit:4;stroke-dasharray:none;fill-opacity:1"
     id="rect882"
     width="140"
     height="107"
     x="26"
     y="26"
     rx="8"
     ry="8" />
  <path
     id="rect884"
     style="opacity:1;fill:#184f85;stroke-width:3.99405;stroke-linecap:round;stroke-linejoin:round;stroke-miterlimit:4;stroke-dasharray:none;fill-opacity:1"
     d="M 16 126 L 16 127.99609 C 16 132.43054 19.556261 136 23.972656 136 L 168.02734 136 C 172.44374 136 176 132.43054 176 127.99609 L 176 126 L 16 126 z " />
  <path
     id="path889"
     style="opacity:0.2;fill:#000000;fill-opacity:1;stroke-width:12.1533;stroke-linecap:round;stroke-linejoin:round;filter:url(#filter900)"
     d="m 52,49 c -3.324,0 -6,2.676 -6,6 v 9 37 32.82617 21 V 165 c 0,3.324 2.676,6 6,6 h 60 c 3.324,0 6,-2.676 6,-6 v -10.17383 -21 -33 V 64 55 c 0,-3.324 -2.676,-6 -6,-6 z" />
  <path
     style="opacity:1;fill:#184f85;fill-opacity:1;stroke-width:12.1533;stroke-linecap:round;stroke-linejoin:round"
     d="m 46,151 v 10 c 0,3.324 2.676,6 6,6 h 60 c 3.324,0 6,-2.676 6,-6 v -10 z"
     id="path871"
     sodipodi:nodetypes="csssscc" />
  <rect
     style="opacity:1;fill:#006cbf;fill-opacity:1;stroke-width:9.01258;stroke-linecap:round;stroke-linejoin:round"
     id="rect859"
     width="72"
     height="21"
     x="46"
     y="130" />
  <rect
     style="opacity:0.1;fill:#000000;fill-opacity:1;stroke-width:4;stroke-linecap:round;stroke-linejoin:round;stroke-miterlimit:4;stroke-dasharray:none;filter:url(#filter927)"
     id="rect917"
     width="72"
     height="4"
     x="46"
     y="128" />
  <rect
     style="opacity:1;fill:#1b9de2;fill-opacity:1;stroke-width:11.2978;stroke-linecap:round;stroke-linejoin:round"
     id="rect857"
     width="72"
     height="33"
     x="46"
     y="97" />
  <rect
     style="opacity:0.1;fill:#000000;fill-opacity:1;stroke-width:4;stroke-linecap:round;stroke-linejoin:round;stroke-miterlimit:4;stroke-dasharray:none;filter:url(#filter923)"
     id="rect915"
     width="72"
     height="4"
     x="46"
     y="95" />
  <rect
     style="opacity:1;fill:#35c1f1;stroke-width:11.963;stroke-linecap:round;stroke-linejoin:round;fill-opacity:1"
     id="rect855"
     width="72"
     height="37"
     x="46"
     y="60" />
  <rect
     style="opacity:0.1;fill:#000000;fill-opacity:1;stroke-width:4;stroke-linecap:round;stroke-linejoin:round;stroke-miterlimit:4;stroke-dasharray:none;filter:url(#filter919)"
     id="rect913"
     width="72"
     height="4"
     x="46"
     y="58" />
  <path
     style="opacity:1;fill:#50e6ff;stroke-width:12.1533;stroke-linecap:round;stroke-linejoin:round;fill-opacity:1"
     d="m 52,45 c -3.324,0 -6,2.676 -6,6 v 9 h 72 v -9 c 0,-3.324 -2.676,-6 -6,-6 z"
     id="rect853" />
  <path
     id="path873"
     style="opacity:1;fill:#0c63ad;stroke-width:10.408;stroke-linecap:round;stroke-linejoin:round;fill-opacity:1"
     d="M 68.951172 50 A 2 2 0 0 0 67 52 A 2 2 0 0 0 69 54 A 2 2 0 0 0 71 52 A 2 2 0 0 0 69 50 A 2 2 0 0 0 68.951172 50 z M 77 50 A 2 2 0 0 0 75 52 A 2 2 0 0 0 77 54 L 93 54 A 2 2 0 0 0 95 52 A 2 2 0 0 0 93 50 L 77 50 z " />
  <path
     id="rect931"
     style="opacity:0.1;fill:#ffffff;stroke-width:4.01364;stroke-linecap:round;stroke-linejoin:round;stroke-miterlimit:4;stroke-dasharray:none;fill-opacity:1"
     d="M 34 26 C 29.568 26 26 29.568 26 34 L 26 35 C 26 30.568 29.568 27 34 27 L 158 27 C 162.432 27 166 30.568 166 35 L 166 34 C 166 29.568 162.432 26 158 26 L 34 26 z " />
  <path
     id="path933"
     style="opacity:0.2;fill:#ffffff;stroke-width:12.1533;stroke-linecap:round;stroke-linejoin:round;fill-opacity:1"
     d="M 52 45 C 48.676 45 46 47.676 46 51 L 46 52 C 46 48.676 48.676 46 52 46 L 112 46 C 115.324 46 118 48.676 118 52 L 118 51 C 118 47.676 115.324 45 112 45 L 52 45 z " />
</svg>
