<?xml version="1.0" encoding="UTF-8" standalone="no"?>
<svg
   xmlns:dc="http://purl.org/dc/elements/1.1/"
   xmlns:cc="http://creativecommons.org/ns#"
   xmlns:rdf="http://www.w3.org/1999/02/22-rdf-syntax-ns#"
   xmlns:svg="http://www.w3.org/2000/svg"
   xmlns="http://www.w3.org/2000/svg"
   xmlns:sodipodi="http://sodipodi.sourceforge.net/DTD/sodipodi-0.dtd"
   xmlns:inkscape="http://www.inkscape.org/namespaces/inkscape"
   width="192"
   height="192"
   version="1"
   id="svg12"
   sodipodi:docname="apps_faceunlock.svg"
   inkscape:version="1.0.2 (1.0.2+r75+1)">
  <metadata
     id="metadata18">
    <rdf:RDF>
      <cc:Work
         rdf:about="">
        <dc:format>image/svg+xml</dc:format>
        <dc:type
           rdf:resource="http://purl.org/dc/dcmitype/StillImage" />
        <dc:title></dc:title>
      </cc:Work>
    </rdf:RDF>
  </metadata>
  <defs
     id="defs16">
    <filter
       inkscape:collect="always"
       style="color-interpolation-filters:sRGB"
       id="filter860"
       x="-0.048"
       width="1.096"
       y="-0.048"
       height="1.096">
      <feGaussianBlur
         inkscape:collect="always"
         stdDeviation="3.2"
         id="feGaussianBlur862" />
    </filter>
    <filter
       inkscape:collect="always"
       style="color-interpolation-filters:sRGB"
       id="filter907"
       x="-0.045052632"
       width="1.0901053"
       y="-0.05136"
       height="1.10272">
      <feGaussianBlur
         inkscape:collect="always"
         stdDeviation="2.1399999"
         id="feGaussianBlur909" />
    </filter>
    <filter
       inkscape:collect="always"
       style="color-interpolation-filters:sRGB"
       id="filter913"
       x="-0.048"
       width="1.096"
       y="-0.048"
       height="1.096">
      <feGaussianBlur
         inkscape:collect="always"
         stdDeviation="1.6"
         id="feGaussianBlur915" />
    </filter>
  </defs>
  <sodipodi:namedview
     pagecolor="#ffffff"
     bordercolor="#666666"
     borderopacity="1"
     objecttolerance="10"
     gridtolerance="10"
     guidetolerance="10"
     inkscape:pageopacity="0"
     inkscape:pageshadow="2"
     inkscape:window-width="1920"
     inkscape:window-height="1018"
     id="namedview14"
     showgrid="false"
     inkscape:zoom="1"
     inkscape:cx="89.930141"
     inkscape:cy="92.77592"
     inkscape:window-x="0"
     inkscape:window-y="30"
     inkscape:window-maximized="1"
     inkscape:current-layer="svg12"
     inkscape:document-rotation="0">
    <inkscape:grid
       type="xygrid"
       id="grid886" />
  </sodipodi:namedview>
  <path
     style="fill:#000000"
     id="path852"
     d="" />
  <rect
     style="opacity:0.2;stroke-width:4;filter:url(#filter860)"
     width="160"
     height="160"
     x="16"
     y="20"
     rx="48"
     ry="48"
     id="rect2" />
  <rect
     style="fill:#0cb5f6;fill-opacity:1;stroke-width:4"
     width="160"
     height="160"
     x="16"
     y="16"
     rx="48"
     ry="48"
     id="rect4" />
  <path
     style="opacity:0.2;fill:#ffffff;stroke-width:4"
     d="M 64,16 C 37.408,16 16,37.408 16,64 v 1 C 16,38.408 37.408,17 64,17 h 64 c 26.592,0 48,21.408 48,48 V 64 C 176,37.408 154.592,16 128,16 Z"
     id="path10" />
  <path
     id="path905"
     style="opacity:0.2;fill:#000000;stroke-width:0.884296;filter:url(#filter907)"
     d="M 96.000001,50.006713 C 80.73315,49.736462 71.653342,57.63437 68.644918,72.180373 c -0.398829,1.928376 -0.614545,3.930709 -0.642432,6.027297 -0.104951,7.890446 2.248494,17.122676 7.695509,28.82791 8.221594,17.66759 6.162824,20.12581 -22.395278,26.72244 -5.633433,1.30127 -10.895648,2.93289 -11.692644,3.62693 -0.796977,0.69406 -1.705276,3.17011 -2.01907,5.50191 -1.047736,7.78575 -6.663699,7.09761 56.408998,7.09761 63.072699,0 57.456719,0.68814 56.408999,-7.09761 -0.31381,-2.3318 -1.2221,-4.80785 -2.01908,-5.50191 -0.797,-0.69404 -6.0592,-2.32566 -11.69264,-3.62693 -28.5581,-6.59663 -30.61687,-9.05485 -22.39528,-26.72244 5.44702,-11.705234 7.80046,-20.937464 7.69552,-28.82791 -0.0279,-2.096588 -0.24361,-4.098921 -0.64244,-6.027297 C 120.34666,57.63437 111.26685,49.736462 96.000001,50.006713 Z" />
  <path
     id="path876"
     style="fill:#ffffff;stroke-width:0.884296"
     d="m 96.000001,46.006712 c -15.266851,-0.270251 -24.346659,7.627657 -27.355083,22.17366 -0.398829,1.928376 -0.614545,3.930709 -0.642432,6.027297 -0.104951,7.890446 2.248494,17.122676 7.695509,28.827911 8.221594,17.66759 6.162824,20.12581 -22.395278,26.72244 -5.633433,1.30127 -10.895648,2.93289 -11.692644,3.62693 -0.796977,0.69406 -1.705276,3.17011 -2.01907,5.50191 -1.047736,7.78575 -6.663699,7.09761 56.408998,7.09761 63.072699,0 57.456719,0.68814 56.408999,-7.09761 -0.31381,-2.3318 -1.2221,-4.80785 -2.01908,-5.50191 -0.797,-0.69404 -6.0592,-2.32566 -11.69264,-3.62693 -28.5581,-6.59663 -30.61687,-9.05485 -22.39528,-26.72244 5.44702,-11.705235 7.80046,-20.937465 7.69552,-28.827911 -0.0279,-2.096588 -0.24361,-4.098921 -0.64244,-6.027297 -3.00842,-14.546003 -12.08823,-22.443911 -27.355079,-22.17366 z" />
  <path
     id="path911"
     style="opacity:0.2;fill:#000000;stroke-width:9.17663;stroke-linecap:round;stroke-linejoin:round;filter:url(#filter913)"
     d="m 56,43 v 6 10 h 6 V 49 H 72 V 43 H 62 Z m 64,0 v 6 h 10 v 10 h 6 V 49 43 h -6 z m -64,64 v 10 6 h 6 10 v -6 H 62 v -10 z m 74,0 v 10 h -10 v 6 h 10 6 v -6 -10 z" />
  <path
     id="rect893"
     style="fill:#ffffff;stroke-width:9.17663;stroke-linecap:round;stroke-linejoin:round"
     d="m 56,41 v 6 10 h 6 V 47 H 72 V 41 H 62 Z m 64,0 v 6 h 10 v 10 h 6 V 47 41 h -6 z m -64,64 v 10 6 h 6 10 v -6 H 62 v -10 z m 74,0 v 10 h -10 v 6 h 10 6 v -6 -10 z" />
</svg>
