<svg xmlns="http://www.w3.org/2000/svg" width="192" height="192" version="1">
 <g transform="scale(4)">
  <path style="opacity:0.2" d="m24.996094 10c-2.554149 2e-3 -4.955967 0.894387-6.972656 2.351562-0.669585-0.141082-1.32509-0.350709-2.017579-0.351562h-0.005859c-5.262853 0-9.566362 4.239126-9.8828125 9.431641-1.9307285 2.017038-3.116681 4.692397-3.1171875 7.568359 0 6.015909 4.9840909 11 11 11 1.705903-1.4e-4 3.356885-0.420037 4.853516-1.158203 1.619187 0.706314 3.340877 1.155036 5.136718 1.158203h0.019566c1.583532-0.0033 3.109608-0.375657 4.572265-0.933594 1.403066 0.562285 2.87656 0.930647 4.408203 0.933594h0.009732c6.568194 0 12-5.431806 12-12 0-5.64267-4.086589-10.223027-9.380859-11.464844-2.014069-3.883417-6.045826-6.529659-10.613282-6.535156h-0.0039z"/>
  <path style="fill:#1da6e8" d="m24.996094 9c-2.554149 0.00195-4.955967 0.8943871-6.972656 2.351562-0.669585-0.141082-1.32509-0.350709-2.017579-0.351562h-0.005859c-5.262853 0-9.566362 4.239126-9.8828125 9.431641-1.9307285 2.017038-3.116681 4.692397-3.1171875 7.568359 0 6.015909 4.9840909 11 11 11 1.705903-1.4e-4 3.356885-0.420037 4.853516-1.158203 1.619187 0.706314 3.340877 1.155036 5.136718 1.158203h0.019566c1.583532-0.0033 3.109608-0.375657 4.572265-0.933594 1.403066 0.562285 2.87656 0.930647 4.408203 0.933594h0.009732c6.568194 0 12-5.431806 12-12 0-5.64267-4.086589-10.223027-9.380859-11.464844-2.014069-3.883417-6.045826-6.5296595-10.613282-6.535156h-0.0039z"/>
  <circle style="opacity:0.2" cx="14" cy="29" r="6"/>
  <circle style="fill:#ffe174" cx="14" cy="28" r="6"/>
  <circle style="opacity:0.2" cx="16" cy="22" r="5"/>
  <circle style="fill:#ffd338" cx="16" cy="21" r="5"/>
  <circle style="opacity:0.2" cx="25" cy="22" r="7"/>
  <circle style="fill:#ffb822" cx="25" cy="21" r="7"/>
  <circle style="opacity:0.2" cx="33" cy="28" r="7"/>
  <circle style="fill:#ff7c2d" cx="33" cy="27" r="7"/>
  <circle style="opacity:0.2" cx="24" cy="27" r="8"/>
  <circle style="fill:#ff972d" cx="24" cy="26" r="8"/>
  <path style="fill:#ffffff;opacity:0.2" d="m24.996094 9c-2.554149 0.00195-4.955967 0.8943876-6.972656 2.351562-0.669585-0.141081-1.32509-0.350709-2.017579-0.351562h-0.001953-0.003906c-5.262853 0-9.566362 4.239126-9.8828125 9.431641-1.9307285 2.017038-3.116681 4.692397-3.1171875 7.568359 0 0.169229 0.0175907 0.334445 0.0253906 0.501953 0.1291734-2.684894 1.2735754-5.170811 3.0917969-7.070312 0.3164505-5.192515 4.6199595-9.431641 9.8828125-9.431641h0.003906 0.001953c0.692489 8.53e-4 1.347994 0.210481 2.017579 0.351562 2.016689-1.457175 4.418507-2.349562 6.972656-2.351562h0.005859 0.003906c4.567456 0.005497 8.599213 2.651739 10.613282 6.535156 5.125429 1.202214 9.107916 5.53676 9.357421 10.931641 0.006186-0.156109 0.023438-0.309323 0.023438-0.466797 0-5.64267-4.086589-10.223027-9.380859-11.464844-2.014069-3.883417-6.045826-6.5296595-10.613282-6.535156h-0.003906-0.005859z"/>
 </g>
</svg>
