<?xml version="1.0" encoding="UTF-8" standalone="no"?>
<svg
   xmlns:dc="http://purl.org/dc/elements/1.1/"
   xmlns:cc="http://creativecommons.org/ns#"
   xmlns:rdf="http://www.w3.org/1999/02/22-rdf-syntax-ns#"
   xmlns:svg="http://www.w3.org/2000/svg"
   xmlns="http://www.w3.org/2000/svg"
   xmlns:sodipodi="http://sodipodi.sourceforge.net/DTD/sodipodi-0.dtd"
   xmlns:inkscape="http://www.inkscape.org/namespaces/inkscape"
   width="48"
   height="48"
   version="1"
   id="svg16"
   sodipodi:docname="apps_passcard.svg"
   inkscape:version="0.92.2 (unknown)">
  <metadata
     id="metadata22">
    <rdf:RDF>
      <cc:Work
         rdf:about="">
        <dc:format>image/svg+xml</dc:format>
        <dc:type
           rdf:resource="http://purl.org/dc/dcmitype/StillImage" />
        <dc:title />
      </cc:Work>
    </rdf:RDF>
  </metadata>
  <defs
     id="defs20" />
  <sodipodi:namedview
     pagecolor="#ffffff"
     bordercolor="#666666"
     borderopacity="1"
     objecttolerance="10"
     gridtolerance="10"
     guidetolerance="10"
     inkscape:pageopacity="0"
     inkscape:pageshadow="2"
     inkscape:window-width="1920"
     inkscape:window-height="1016"
     id="namedview18"
     showgrid="true"
     showguides="false"
     inkscape:zoom="13.92"
     inkscape:cx="7.3692529"
     inkscape:cy="24"
     inkscape:window-x="0"
     inkscape:window-y="34"
     inkscape:window-maximized="1"
     inkscape:current-layer="svg16">
    <inkscape:grid
       type="xygrid"
       id="grid829" />
    <sodipodi:guide
       position="-32,49"
       orientation="1,0"
       id="guide845"
       inkscape:locked="false" />
  </sodipodi:namedview>
  <rect
     style="opacity:0.2;fill:#000000;stroke-width:1.02469504"
     width="42"
     height="40"
     x="-45.5"
     y="-44"
     rx="2.0999999"
     ry="2"
     transform="matrix(0,-1,-1,0,0,0)"
     id="rect4" />
  <path
     inkscape:connector-curvature="0"
     style="opacity:1;fill:#6767cf;fill-opacity:1;stroke:none;stroke-width:3.92232275;stroke-linecap:square;stroke-linejoin:bevel;stroke-miterlimit:4;stroke-dasharray:none;stroke-opacity:1"
     d="m 4,38 v 4.900391 C 4,44.063791 4.892,45 6,45 h 36 c 1.108,0 2,-0.936209 2,-2.099609 V 38 Z"
     id="rect831" />
  <path
     inkscape:connector-curvature="0"
     style="opacity:1;fill:#e4e4e4;fill-opacity:1;stroke:none;stroke-width:3.92232275;stroke-linecap:square;stroke-linejoin:bevel;stroke-miterlimit:4;stroke-dasharray:none;stroke-opacity:1"
     d="M 6,3 C 4.892,3 4,3.9362094 4,5.0996094 V 10 H 44 V 5.0996094 C 44,3.9362094 43.108,3 42,3 Z"
     id="rect841" />
  <rect
     y="31"
     x="4"
     height="7"
     width="40"
     id="rect833"
     style="opacity:1;fill:#ffea00;fill-opacity:1;stroke:none;stroke-width:3.92232275;stroke-linecap:square;stroke-linejoin:bevel;stroke-miterlimit:4;stroke-dasharray:none;stroke-opacity:1" />
  <rect
     style="opacity:1;fill:#4c872e;fill-opacity:1;stroke:none;stroke-width:3.92232275;stroke-linecap:square;stroke-linejoin:bevel;stroke-miterlimit:4;stroke-dasharray:none;stroke-opacity:1"
     id="rect835"
     width="40"
     height="7"
     x="4"
     y="24" />
  <rect
     y="17"
     x="4"
     height="7"
     width="40"
     id="rect837"
     style="opacity:1;fill:#ec5454;fill-opacity:1;stroke:none;stroke-width:3.92232275;stroke-linecap:square;stroke-linejoin:bevel;stroke-miterlimit:4;stroke-dasharray:none;stroke-opacity:1" />
  <rect
     style="opacity:1;fill:#4f4f4f;fill-opacity:1;stroke:none;stroke-width:3.92232275;stroke-linecap:square;stroke-linejoin:bevel;stroke-miterlimit:4;stroke-dasharray:none;stroke-opacity:1"
     id="rect839"
     width="40"
     height="7"
     x="4"
     y="10" />
  <rect
     style="opacity:0.1;fill:#000000;fill-opacity:1;stroke:none;stroke-width:3.53553391;stroke-linecap:square;stroke-linejoin:bevel;stroke-miterlimit:4;stroke-dasharray:none;stroke-opacity:1"
     id="rect851"
     width="40"
     height="0.5"
     x="4"
     y="9.9999981" />
  <rect
     y="16.999998"
     x="4"
     height="0.5"
     width="40"
     id="rect853"
     style="opacity:0.1;fill:#000000;fill-opacity:1;stroke:none;stroke-width:3.53553391;stroke-linecap:square;stroke-linejoin:bevel;stroke-miterlimit:4;stroke-dasharray:none;stroke-opacity:1" />
  <rect
     style="opacity:0.1;fill:#000000;fill-opacity:1;stroke:none;stroke-width:3.53553391;stroke-linecap:square;stroke-linejoin:bevel;stroke-miterlimit:4;stroke-dasharray:none;stroke-opacity:1"
     id="rect855"
     width="40"
     height="0.5"
     x="4"
     y="23.999998" />
  <rect
     y="30.999998"
     x="4"
     height="0.5"
     width="40"
     id="rect857"
     style="opacity:0.1;fill:#000000;fill-opacity:1;stroke:none;stroke-width:3.53553391;stroke-linecap:square;stroke-linejoin:bevel;stroke-miterlimit:4;stroke-dasharray:none;stroke-opacity:1" />
  <rect
     style="opacity:0.1;fill:#000000;fill-opacity:1;stroke:none;stroke-width:3.53553391;stroke-linecap:square;stroke-linejoin:bevel;stroke-miterlimit:4;stroke-dasharray:none;stroke-opacity:1"
     id="rect859"
     width="40"
     height="0.5"
     x="4"
     y="38.000008" />
  <path
     inkscape:connector-curvature="0"
     style="opacity:0.2;fill:#ffffff;fill-opacity:1;stroke:none;stroke-width:3.92232275;stroke-linecap:square;stroke-linejoin:bevel;stroke-miterlimit:4;stroke-dasharray:none;stroke-opacity:1"
     d="M 6,3 C 4.892,3 4,3.9362094 4,5.0996094 v 0.5 C 4,4.4362094 4.892,3.5 6,3.5 h 36 c 1.108,0 2,0.9362094 2,2.0996094 v -0.5 C 44,3.9362094 43.108,3 42,3 Z"
     id="path861" />
  <path
     style="opacity:0.1;fill:#000000;fill-opacity:1;stroke:none;stroke-width:0.95423752;stroke-linecap:round;stroke-linejoin:round;stroke-miterlimit:4;stroke-dasharray:none;stroke-opacity:1"
     d="M 12 3 L 12 10 L 20 10 L 20 3 L 12 3 z M 20 10 L 20 17 L 28 17 L 28 10 L 20 10 z M 28 10 L 36 10 L 36 3 L 28 3 L 28 10 z M 36 10 L 36 17 L 44 17 L 44 10 L 36 10 z M 36 17 L 28 17 L 28 24 L 36 24 L 36 17 z M 36 24 L 36 31 L 44 31 L 44 24 L 36 24 z M 36 31 L 28 31 L 28 38 L 36 38 L 36 31 z M 36 38 L 36 45 L 42 45 C 43.108 45 44 44.063791 44 42.900391 L 44 38 L 36 38 z M 28 38 L 20 38 L 20 45 L 28 45 L 28 38 z M 20 38 L 20 31 L 12 31 L 12 38 L 20 38 z M 12 38 L 4 38 L 4 42.900391 C 4 44.063791 4.892 45 6 45 L 12 45 L 12 38 z M 12 31 L 12 24 L 4 24 L 4 31 L 12 31 z M 12 24 L 20 24 L 20 17 L 12 17 L 12 24 z M 12 17 L 12 10 L 4 10 L 4 17 L 12 17 z M 20 24 L 20 31 L 28 31 L 28 24 L 20 24 z "
     id="rect848" />
</svg>
