<svg xmlns="http://www.w3.org/2000/svg" width="192" height="192" version="1">
 <g transform="scale(4)">
  <rect style="fill:#1f4080" width="40" height="40" x="-44" y="-44" rx="2" ry="2" transform="matrix(0,-1,-1,0,0,0)"/>
  <path fill="#fff" style="opacity:0.1" d="m6 4c-1.108 0-2 0.892-2 2v1c0-1.108 0.892-2 2-2h36c1.108 0 2 0.892 2 2v-1c0-1.108-0.892-2-2-2h-36z"/>
  <path opacity=".2" d="m6 45c-1.108 0-2-0.892-2-2v-1c0 1.108 0.892 2 2 2h36c1.108 0 2-0.892 2-2v1c0 1.108-0.892 2-2 2h-36z"/>
  <path style="opacity:0.2" d="m3.9902344 12.9998a2.0002 2.0002 0 1 0 0.019531 4c7.7286346-0.03683 11.239143 0.975451 13.234376 2.376953 1.995232 1.401503 2.945724 3.608829 5.107421 6.755859 1.715287 2.592844 2.87228 5.427435 5.919922 7.582032 3.058277 2.162114 7.602613 3.285156 15.728516 3.285156a2.0002 2.0002 0 1 0 0-4c-7.752197 0-11.366316-1.102274-13.417969-2.552734-2.051653-1.450461-2.959039-3.603226-4.916015-6.552735a2.0002 2.0002 0 0 0-0.01758-0.02734c-1.926797-2.805064-3.074108-5.634371-6.105467-7.763675-3.031359-2.129305-7.476231-3.142005-15.552735-3.103516z"/>
  <path style="fill:#2ca0b5" d="m3.9902344 12a2.0002 2.0002 0 1 0 0.019531 4c7.7286344-0.03683 11.239142 0.975451 13.234375 2.376953 1.995232 1.401503 2.945724 3.608829 5.107421 6.755859 1.715287 2.592844 2.87228 5.427435 5.919922 7.582032 3.0582772 2.162114 7.6026132 3.285156 15.728516 3.285156a2.0002 2.0002 0 1 0 0-4c-7.752197 0-11.366316-1.102274-13.417969-2.552734-2.051653-1.450461-2.959039-3.603226-4.916015-6.552735a2.0002 2.0002 0 0 0-0.01758-0.02734c-1.926797-2.805064-3.074108-5.634371-6.105467-7.763675-3.031359-2.129305-7.476231-3.142005-15.552735-3.103516z"/>
  <path style="fill:#ffffff;opacity:0.1" d="m3.9902344 12a2.0002 2.0002 0 0 0-1.9511719 2.5 2.0002 2.0002 0 0 1 1.9511719-1.5c8.0765036-0.038489 12.521376 0.974211 15.552735 3.103516 3.031359 2.129304 4.178671 4.958607 6.105469 7.763672a2.0002 2.0002 0 0 1 0.017578 0.027343c1.956976 2.949509 2.864362 5.102274 4.916015 6.552735 2.051653 1.45046 5.665772 2.552734 13.417969 2.552734a2.0002 2.0002 0 0 1 1.962891 1.5 2.0002 2.0002 0 0 0-1.962891-2.5c-7.752197 0-11.366316-1.102274-13.417969-2.552734-2.051653-1.450461-2.959039-3.603226-4.916015-6.552735a2.0002 2.0002 0 0 0-0.017578-0.027343c-1.926798-2.805065-3.07411-5.634368-6.105469-7.763672-3.031359-2.129305-7.476231-3.142005-15.552735-3.103516z"/>
  <g style="opacity:0.2" transform="matrix(1.0042229 0 0 .99579486 0 1.0000001)">
   <path d="m9.4963556 20.935033q-1.141015 0-1.8152512 0.850574-0.6690497 0.850575-0.6690497 2.318336 0 1.462573 0.6690497 2.313148 0.6742362 0.850575 1.8152512 0.850575 1.1410154 0 1.8048784-0.850575 0.66905-0.850575 0.66905-2.313148 0-1.467761-0.66905-2.318336-0.663863-0.850574-1.8048784-0.850574zm0-0.850575q1.6285394 0 2.6035894 1.094337 0.975049 1.089151 0.975049 2.925148 0 1.83081-0.975049 2.925147-0.97505 1.089151-2.6035894 1.089151-1.6337261 0-2.6139617-1.089151-0.9750492-1.08915-0.9750492-2.925147t0.9750492-2.925148q0.9802356-1.094337 2.6139617-1.094337z"/>
   <path d="m14.713906 20.224491h1.410709l3.433418 6.477854v-6.477854h1.016541v7.743343h-1.410709l-3.433419-6.477853v6.477853h-1.01654z"/>
   <path d="m22.659519 20.224491h1.047659v3.272639l3.474909-3.272639h1.348473l-3.843146 3.609757 4.118027 4.133586h-1.379591l-3.718672-3.729044v3.729044h-1.047659z"/>
   <path d="m28.193443 20.224491h1.125456l2.147183 3.18447 2.131624-3.18447h1.125455l-2.738436 4.05579v3.687553h-1.052846v-3.687553z"/>
   <path d="m38.312171 20.935033q-1.141015 0-1.815252 0.850574-0.669049 0.850575-0.669049 2.318336 0 1.462573 0.669049 2.313148 0.674237 0.850575 1.815252 0.850575t1.804878-0.850575q0.66905-0.850575 0.66905-2.313148 0-1.467761-0.66905-2.318336-0.663863-0.850574-1.804878-0.850574zm0-0.850575q1.628539 0 2.603588 1.094337 0.97505 1.089151 0.97505 2.925148 0 1.83081-0.97505 2.925147-0.975049 1.089151-2.603588 1.089151-1.633726 0-2.613962-1.089151-0.975049-1.08915-0.975049-2.925147t0.975049-2.925148q0.980236-1.094337 2.613962-1.094337z"/>
  </g>
  <g style="fill:#ffffff" transform="scale(1.0042229 .99579486)">
   <path style="fill:#ffffff" d="m9.4963556 20.935033q-1.141015 0-1.8152512 0.850574-0.6690497 0.850575-0.6690497 2.318336 0 1.462573 0.6690497 2.313148 0.6742362 0.850575 1.8152512 0.850575 1.1410154 0 1.8048784-0.850575 0.66905-0.850575 0.66905-2.313148 0-1.467761-0.66905-2.318336-0.663863-0.850574-1.8048784-0.850574zm0-0.850575q1.6285394 0 2.6035894 1.094337 0.975049 1.089151 0.975049 2.925148 0 1.83081-0.975049 2.925147-0.97505 1.089151-2.6035894 1.089151-1.6337261 0-2.6139617-1.089151-0.9750492-1.08915-0.9750492-2.925147t0.9750492-2.925148q0.9802356-1.094337 2.6139617-1.094337z"/>
   <path style="fill:#ffffff" d="m14.713906 20.224491h1.410709l3.433418 6.477854v-6.477854h1.016541v7.743343h-1.410709l-3.433419-6.477853v6.477853h-1.01654z"/>
   <path style="fill:#ffffff" d="m22.659519 20.224491h1.047659v3.272639l3.474909-3.272639h1.348473l-3.843146 3.609757 4.118027 4.133586h-1.379591l-3.718672-3.729044v3.729044h-1.047659z"/>
   <path style="fill:#ffffff" d="m28.193443 20.224491h1.125456l2.147183 3.18447 2.131624-3.18447h1.125455l-2.738436 4.05579v3.687553h-1.052846v-3.687553z"/>
   <path style="fill:#ffffff" d="m38.312171 20.935033q-1.141015 0-1.815252 0.850574-0.669049 0.850575-0.669049 2.318336 0 1.462573 0.669049 2.313148 0.674237 0.850575 1.815252 0.850575t1.804878-0.850575q0.66905-0.850575 0.66905-2.313148 0-1.467761-0.66905-2.318336-0.663863-0.850574-1.804878-0.850574zm0-0.850575q1.628539 0 2.603588 1.094337 0.97505 1.089151 0.97505 2.925148 0 1.83081-0.97505 2.925147-0.975049 1.089151-2.603588 1.089151-1.633726 0-2.613962-1.089151-0.975049-1.08915-0.975049-2.925147t0.975049-2.925148q0.980236-1.094337 2.613962-1.094337z"/>
  </g>
 </g>
</svg>
