<?xml version="1.0" encoding="UTF-8" standalone="no"?>
<svg
   width="192"
   height="192"
   version="1"
   id="svg28"
   sodipodi:docname="apps_helo_babe.svg"
   inkscape:version="1.1.1 (1:1.1+202109281949+c3084ef5ed)"
   xmlns:inkscape="http://www.inkscape.org/namespaces/inkscape"
   xmlns:sodipodi="http://sodipodi.sourceforge.net/DTD/sodipodi-0.dtd"
   xmlns="http://www.w3.org/2000/svg"
   xmlns:svg="http://www.w3.org/2000/svg"
   xmlns:rdf="http://www.w3.org/1999/02/22-rdf-syntax-ns#"
   xmlns:cc="http://creativecommons.org/ns#"
   xmlns:dc="http://purl.org/dc/elements/1.1/">
  <metadata
     id="metadata34">
    <rdf:RDF>
      <cc:Work
         rdf:about="">
        <dc:format>image/svg+xml</dc:format>
        <dc:type
           rdf:resource="http://purl.org/dc/dcmitype/StillImage" />
      </cc:Work>
    </rdf:RDF>
  </metadata>
  <defs
     id="defs32">
    <filter
       inkscape:collect="always"
       style="color-interpolation-filters:sRGB"
       id="filter60233"
       x="-0.037480684"
       y="-0.05131457"
       width="1.0749614"
       height="1.1026291">
      <feGaussianBlur
         inkscape:collect="always"
         stdDeviation="2.4362438"
         id="feGaussianBlur60235" />
    </filter>
    <filter
       inkscape:collect="always"
       style="color-interpolation-filters:sRGB"
       id="filter60275"
       x="-0.061704547"
       y="-0.095598595"
       width="1.1234091"
       height="1.1911972">
      <feGaussianBlur
         inkscape:collect="always"
         stdDeviation="2.8281249"
         id="feGaussianBlur60277" />
    </filter>
    <filter
       inkscape:collect="always"
       style="color-interpolation-filters:sRGB"
       id="filter60335"
       x="-0.073632312"
       y="-0.07641946"
       width="1.1472646"
       height="1.1528389">
      <feGaussianBlur
         inkscape:collect="always"
         stdDeviation="1.1142923"
         id="feGaussianBlur60337" />
    </filter>
    <filter
       inkscape:collect="always"
       style="color-interpolation-filters:sRGB"
       id="filter1044"
       x="-0.048"
       y="-0.048"
       width="1.096"
       height="1.096">
      <feGaussianBlur
         inkscape:collect="always"
         stdDeviation="3"
         id="feGaussianBlur1046" />
    </filter>
  </defs>
  <sodipodi:namedview
     pagecolor="#ffffff"
     bordercolor="#666666"
     borderopacity="1"
     objecttolerance="10"
     gridtolerance="10"
     guidetolerance="10"
     inkscape:pageopacity="0"
     inkscape:pageshadow="2"
     inkscape:window-width="1920"
     inkscape:window-height="1019"
     id="namedview30"
     showgrid="false"
     inkscape:zoom="2.16"
     inkscape:cx="102.77778"
     inkscape:cy="57.638889"
     inkscape:window-x="0"
     inkscape:window-y="34"
     inkscape:window-maximized="1"
     inkscape:current-layer="svg28"
     inkscape:pagecheckerboard="0"
     inkscape:snap-global="false"
     showguides="true">
    <inkscape:grid
       type="xygrid"
       id="grid841" />
  </sodipodi:namedview>
  <rect
     id="rect1006"
     transform="matrix(0,-1,-1,0,0,0)"
     ry="11.25"
     rx="11.25"
     y="-171"
     x="-175"
     height="150"
     width="150"
     style="opacity:0.2;fill:#000000;fill-opacity:1;stroke-width:3.75;filter:url(#filter1044)" />
  <rect
     id="rect2"
     transform="matrix(0,-1,-1,0,0,0)"
     ry="11.25"
     rx="11.25"
     y="-171"
     x="-171"
     height="150"
     width="150"
     style="fill:#ff850b;fill-opacity:1;stroke-width:3.75" />
  <path
     id="path60195"
     style="opacity:0.2;fill:#000000;fill-opacity:1;stroke:none;stroke-width:7.32303;stroke-linecap:round;stroke-linejoin:round;filter:url(#filter60233)"
     d="m 113.21335,69.380122 a 55.642146,63.221449 65.667032 0 0 -26.076169,5.808594 55.642146,63.221449 65.667032 0 0 -39.978516,56.833984 20.874118,15.436805 52.031809 0 0 -12.783203,2.27149 20.874118,15.436805 52.031809 0 0 1.667969,26.20898 20.874118,15.436805 52.031809 0 0 24.966797,5.91992 20.874118,15.436805 52.031809 0 0 0.04687,-0.0488 55.642146,63.221449 65.667032 0 0 69.806632,11.1543 55.642146,63.221449 65.667032 0 0 40.05469,-59.20117 20.584837,15.387152 82.152525 0 0 1.96875,-0.0254 20.584837,15.387152 82.152525 0 0 12.92773,-21.978514 20.584837,15.387152 82.152525 0 0 -17.70117,-18.908207 20.584837,15.387152 82.152525 0 0 -11.10351,8.992187 55.642146,63.221449 65.667032 0 0 -43.79688,-17.027344 z" />
  <path
     id="ellipse7515"
     style="fill:#ffc98d;fill-opacity:1;stroke:none;stroke-width:7.32303;stroke-linecap:round;stroke-linejoin:round"
     d="m 113.21335,67.380151 a 55.642146,63.221449 65.667032 0 0 -26.076169,5.808594 55.642146,63.221449 65.667032 0 0 -39.978516,56.833985 20.874118,15.436805 52.031809 0 0 -12.783203,2.27149 20.874118,15.436805 52.031809 0 0 1.667969,26.20898 20.874118,15.436805 52.031809 0 0 24.966797,5.91992 20.874118,15.436805 52.031809 0 0 0.04687,-0.0488 55.642146,63.221449 65.667032 0 0 69.806632,11.1543 55.642146,63.221449 65.667032 0 0 40.05469,-59.20117 20.584837,15.387152 82.152525 0 0 1.96875,-0.0254 20.584837,15.387152 82.152525 0 0 12.92773,-21.978519 20.584837,15.387152 82.152525 0 0 -17.70117,-18.908203 20.584837,15.387152 82.152525 0 0 -11.10351,8.992187 55.642146,63.221449 65.667032 0 0 -43.79688,-17.027344 z" />
  <path
     id="rect5150"
     style="fill:#343434;fill-opacity:1;stroke-width:7.70147;stroke-linecap:round;stroke-linejoin:round"
     d="m 69.850685,153.10605 c 0,0 10.864873,25.58507 21.981496,20.80426 7.222546,-3.10612 11.273329,-10.61388 16.753129,-23.70534 1.9987,-4.775 8.66712,-6.60031 10.53271,-5.48831 0.47605,-2.11905 6.38712,-5.70366 11.22792,-3.87005 13.27187,5.02713 21.50778,7.25087 28.73032,4.14475 11.11662,-4.78081 0.0185,-30.26555 0.0185,-30.26555 0,0 0.76812,15.33732 -4.87208,17.76295 -7.46789,3.21163 -18.26877,-7.42404 -26.7314,-3.47196 -7.85145,3.66666 -6.52364,10.35952 -10.19383,11.46644 -3.32795,1.9027 -7.27279,-3.66469 -15.33479,-0.48761 -8.689563,3.42438 -8.399296,18.58024 -15.867182,21.79187 -5.640207,2.42563 -16.244743,-8.68145 -16.244743,-8.68145 z" />
  <path
     id="path60279"
     style="opacity:0.2;fill:#000000;fill-opacity:1;stroke-width:7.70147;stroke-linecap:round;stroke-linejoin:round;filter:url(#filter60335)"
     d="m 102.54327,108.17783 c -2.773435,1.50957 -3.121258,4.3499 -3.027049,7.2009 0.176681,5.34678 2.674979,14.67981 -4.009368,22.65393 -0.332829,1.28977 -0.545212,1.93595 0.337729,3.56123 0.797364,1.46775 2.242062,1.44518 5.281338,0.78394 0.26988,-0.13904 0.54755,-0.26821 0.83669,-0.38215 8.06151,-3.17689 12.00633,2.38955 15.33416,0.48788 2.2e-4,-7e-5 3.1e-4,-1.6e-4 6.4e-4,-2.8e-4 3.66936,-1.10753 2.34223,-7.79973 10.19321,-11.46617 0.28159,-0.1315 0.5663,-0.2443 0.8529,-0.34446 2.57049,-1.7513 3.58058,-2.78443 3.06364,-4.37279 -0.57242,-1.75881 -1.18755,-2.04912 -2.35268,-2.69467 -10.38589,-0.63291 -15.44203,-8.86592 -19.20155,-12.67185 -2.00466,-2.02941 -4.30561,-3.73061 -7.30902,-2.75579 -2.2e-4,7e-5 -3.1e-4,1.6e-4 -6.4e-4,2.8e-4 z" />
  <path
     id="rect6660"
     style="fill:#feae67;fill-opacity:1;stroke-width:7.70147;stroke-linecap:round;stroke-linejoin:round"
     d="m 102.54327,106.17778 c -2.773435,1.50957 -3.121258,4.3499 -3.027049,7.2009 0.176681,5.34678 2.674979,14.67981 -4.009368,22.65393 -0.332829,1.28977 -0.545212,1.93595 0.337729,3.56123 0.797364,1.46775 2.242062,1.44518 5.281338,0.78394 0.26988,-0.13904 0.54755,-0.26821 0.83669,-0.38215 8.06151,-3.17689 12.00633,2.38955 15.33416,0.48788 2.2e-4,-7e-5 3.1e-4,-1.6e-4 6.4e-4,-2.8e-4 3.66936,-1.10753 2.34223,-7.79973 10.19321,-11.46617 0.28159,-0.1315 0.5663,-0.2443 0.8529,-0.34446 2.57049,-1.7513 3.58058,-2.78443 3.06364,-4.37279 -0.57242,-1.75881 -1.18755,-2.04912 -2.35268,-2.69467 -10.38589,-0.63291 -15.44203,-8.86592 -19.20155,-12.67185 -2.00466,-2.02941 -4.30561,-3.73061 -7.30902,-2.75579 -2.2e-4,7e-5 -3.1e-4,1.6e-4 -6.4e-4,2.8e-4 z" />
  <path
     id="rect8215"
     style="fill:#3f3f3f;fill-opacity:1;stroke-width:7.70147;stroke-linecap:round;stroke-linejoin:round"
     d="m 47.954462,114.26504 9.165048,-9.97394 c -4.658677,15.63671 -4.888679,30.30515 2.34896,43.34093 l -9.484871,-1.87263 c -5.703473,-13.36545 -1.716766,-21.48124 -2.029137,-31.49436 z"
     sodipodi:nodetypes="ccccc" />
  <path
     id="path59773"
     style="fill:#3f3f3f;fill-opacity:1;stroke-width:7.70147;stroke-linecap:round;stroke-linejoin:round"
     d="m 142.34657,71.757726 -13.34111,-0.302661 c 14.62173,7.239837 25.51799,17.062642 30.13241,31.240865 l 5.28936,-8.319904 c -5.90076,-13.27953 -14.96225,-15.569301 -22.08066,-22.6183 z"
     sodipodi:nodetypes="ccccc" />
  <path
     id="rect7567"
     style="fill:#3f3f3f;fill-opacity:1;stroke-width:7.70147;stroke-linecap:round;stroke-linejoin:round"
     d="M 29.000462,64.131011 C 57.581009,43.360814 87.203671,27.10476 120.27353,25.780947 l 27.65504,51.787229 c -21.61986,-1.84652 -40.06303,1.013267 -55.844072,7.817033 -9.820049,4.233773 -25.932468,14.466907 -33.814853,21.571361 -5.825146,5.25024 -3.831839,6.76203 -8.716517,13.4056 z"
     sodipodi:nodetypes="cccsscc" />
  <path
     id="path60237"
     style="opacity:0.2;fill:#000000;fill-opacity:1;stroke-width:7.69004;stroke-linecap:round;stroke-linejoin:round;filter:url(#filter60275)"
     d="m 69.382167,109.30101 c -8.680355,3.71563 -17.084183,7.76099 -24.381705,13.9799 l 3.111799,5.87617 c 0,0 2.964741,-0.22247 5.104074,2.54626 8.759969,11.74244 13.713796,20.98774 30.87593,14.41663 19.964845,-8.54596 15.427007,-23.0815 15.187134,-30.30669 -0.0943,-2.84033 0.2539,-5.66995 3.030271,-7.17367 3.00631,-0.97157 5.30877,0.72346 7.31529,2.74526 5.10416,5.14302 12.58329,18.41954 32.54814,9.87358 16.59684,-7.87943 13.26186,-17.81768 10.72379,-32.223406 -0.54766,-3.450041 1.65383,-5.438983 1.65383,-5.438983 l -2.14494,-6.290031 c -9.55479,0.994725 -18.28477,4.283504 -26.96512,7.999133 -15.74718,6.740583 -17.48165,12.351253 -26.254108,16.106297 -8.772461,3.75506 -14.057212,1.14897 -29.804385,7.88955 z" />
  <path
     id="rect2347"
     style="fill:#343434;fill-opacity:1;stroke-width:7.69004;stroke-linecap:round;stroke-linejoin:round"
     d="m 69.382167,107.30101 c -8.680355,3.71563 -17.084183,7.76099 -24.381705,13.9799 l 3.111799,5.87617 c 0,0 2.964741,-0.22247 5.104074,2.54626 8.759969,11.74244 13.713796,20.98774 30.87593,14.41663 19.964845,-8.54596 15.427007,-23.0815 15.187134,-30.30669 -0.0943,-2.84033 0.2539,-5.66995 3.030271,-7.17367 3.00631,-0.97157 5.30877,0.72346 7.31529,2.74526 5.10416,5.14302 12.58329,18.41954 32.54814,9.87358 16.59684,-7.87943 13.26186,-17.81768 10.72379,-32.223409 -0.54766,-3.450041 1.65383,-5.438983 1.65383,-5.438983 l -2.14494,-6.290031 c -9.55479,0.994725 -18.28477,4.283504 -26.96512,7.999133 -15.74718,6.740583 -17.48165,12.35125 -26.254108,16.106296 -8.772461,3.755064 -14.057212,1.148974 -29.804385,7.889554 z" />
  <path
     style="fill:#444444;fill-opacity:1;stroke-width:7.61484;stroke-linecap:round;stroke-linejoin:round"
     d="m 125.80796,85.240435 c -7.24631,3.047711 -13.92301,8.173925 -15.53815,13.957551 -2.0797,7.447084 8.33336,17.490744 15.77075,19.463134 10.10873,2.68082 21.31256,-3.27627 24.97508,-12.67755 2.63021,-6.751424 -0.19484,-18.293873 -6.2508,-22.22922 -3.89434,-2.530655 -11.71057,-1.561627 -18.95688,1.486085 z"
     id="path60051" />
  <path
     style="fill:#444444;fill-opacity:1;stroke-width:7.71132;stroke-linecap:round;stroke-linejoin:round"
     d="m 70.399088,108.62623 c -7.239883,3.24952 -13.3628,8.37732 -14.221503,13.04141 -1.335332,7.25297 5.101663,17.4307 11.8358,20.20248 9.377206,3.85967 21.476625,-0.29321 26.533788,-9.67858 3.72075,-6.90519 3.633193,-21.67012 -3.225355,-25.33774 -5.32655,-2.84839 -13.682847,-1.47708 -20.92273,1.77243 z"
     id="rect4134" />
  <path
     id="path7517"
     style="fill:#feae67;fill-opacity:1;stroke-width:6.45171;stroke-linecap:round;stroke-linejoin:round"
     d="m 170.22898,79.294307 c -1.09758,0.05945 -4.01527,0.827736 -4.84375,4.273438 -0.90374,3.758756 -0.0994,9.825717 -0.0156,12.496093 a 55.642146,63.221449 65.667032 0 1 1.64844,3.128908 55.642146,63.221449 65.667032 0 1 3.6875,14.318364 c 7.10896,-1.78352 12.01239,-9.87872 11.29492,-18.820318 -0.62949,-7.845089 -5.34019,-14.121072 -11.42383,-15.384766 -0.0711,-0.01477 -0.19086,-0.02021 -0.34765,-0.01172 z M 40.004368,135.30994 c -2.295295,-0.0893 -3.933752,1.53115 -4.162109,1.9082 -3.256513,5.37676 -2.182388,13.21868 3.125,19.21289 5.540343,6.25732 13.878865,8.44547 20.007812,5.70117 a 55.642146,63.221449 65.667032 0 1 -7.992187,-12.71289 55.642146,63.221449 65.667032 0 1 -2.613281,-8.11328 c -1.816224,-1.96309 -3.928283,-4.07912 -5.878907,-5.22656 -0.883001,-0.51943 -1.721229,-0.73978 -2.486328,-0.76953 z" />
  <path
     id="rect1048"
     style="fill:#ffffff;fill-opacity:1;stroke-width:3.75;opacity:0.2"
     d="M 32.25 21 C 26.0175 21 21 26.0175 21 32.25 L 21 33.25 C 21 27.0175 26.0175 22 32.25 22 L 159.75 22 C 165.9825 22 171 27.0175 171 33.25 L 171 32.25 C 171 26.0175 165.9825 21 159.75 21 L 32.25 21 z " />
</svg>
