<?xml version="1.0" encoding="UTF-8" standalone="no"?>
<svg
   width="192"
   height="192"
   version="1"
   id="svg28"
   sodipodi:docname="apps_glitch_lab.svg"
   inkscape:version="1.1.1 (1:1.1+202109281949+c3084ef5ed)"
   xmlns:inkscape="http://www.inkscape.org/namespaces/inkscape"
   xmlns:sodipodi="http://sodipodi.sourceforge.net/DTD/sodipodi-0.dtd"
   xmlns="http://www.w3.org/2000/svg"
   xmlns:svg="http://www.w3.org/2000/svg"
   xmlns:rdf="http://www.w3.org/1999/02/22-rdf-syntax-ns#"
   xmlns:cc="http://creativecommons.org/ns#"
   xmlns:dc="http://purl.org/dc/elements/1.1/">
  <metadata
     id="metadata34">
    <rdf:RDF>
      <cc:Work
         rdf:about="">
        <dc:format>image/svg+xml</dc:format>
        <dc:type
           rdf:resource="http://purl.org/dc/dcmitype/StillImage" />
      </cc:Work>
    </rdf:RDF>
  </metadata>
  <defs
     id="defs32">
    <filter
       inkscape:collect="always"
       style="color-interpolation-filters:sRGB"
       id="filter19412"
       x="-0.081818182"
       y="-0.069230769"
       width="1.1636364"
       height="1.1384615">
      <feGaussianBlur
         inkscape:collect="always"
         stdDeviation="3"
         id="feGaussianBlur19414" />
    </filter>
    <filter
       inkscape:collect="always"
       style="color-interpolation-filters:sRGB"
       id="filter19454"
       x="-0.048000001"
       y="-0.048000001"
       width="1.096"
       height="1.096">
      <feGaussianBlur
         inkscape:collect="always"
         stdDeviation="3.2"
         id="feGaussianBlur19456" />
    </filter>
    <filter
       inkscape:collect="always"
       style="color-interpolation-filters:sRGB"
       id="filter19537"
       x="-0.060085227"
       y="-0.099764158"
       width="1.1201705"
       height="1.1995283">
      <feGaussianBlur
         inkscape:collect="always"
         stdDeviation="2.2031249"
         id="feGaussianBlur19539" />
    </filter>
  </defs>
  <sodipodi:namedview
     pagecolor="#ffffff"
     bordercolor="#666666"
     borderopacity="1"
     objecttolerance="10"
     gridtolerance="10"
     guidetolerance="10"
     inkscape:pageopacity="0"
     inkscape:pageshadow="2"
     inkscape:window-width="1920"
     inkscape:window-height="1016"
     id="namedview30"
     showgrid="false"
     inkscape:zoom="1"
     inkscape:cx="6.5"
     inkscape:cy="95.5"
     inkscape:window-x="0"
     inkscape:window-y="32"
     inkscape:window-maximized="1"
     inkscape:current-layer="svg28"
     inkscape:pagecheckerboard="0"
     inkscape:snap-global="true"
     showguides="false"
     inkscape:snap-bbox="true"
     inkscape:snap-bbox-midpoints="true">
    <inkscape:grid
       type="xygrid"
       id="grid841" />
  </sodipodi:namedview>
  <rect
     id="rect19416"
     transform="matrix(0,-1,-1,0,0,0)"
     ry="30"
     rx="30"
     y="-176"
     x="-180"
     height="160"
     width="160"
     style="opacity:0.2;fill:#000000;fill-opacity:1;stroke-width:4;filter:url(#filter19454)" />
  <rect
     id="rect2"
     transform="matrix(0,-1,-1,0,0,0)"
     ry="30"
     rx="30"
     y="-176"
     x="-176"
     height="160"
     width="160"
     style="fill:#3f3f3f;fill-opacity:1;stroke-width:4" />
  <path
     id="path19371"
     style="opacity:0.2;fill:#000000;fill-opacity:1;stroke-width:4.01034;stroke-linecap:round;stroke-linejoin:round;filter:url(#filter19412)"
     d="m 68,46 v 7 h -8 v 9 4 h -8 v 9 8 9 8 9 8 9 8 h 8 v -8 -5 h 8 v -7 h 24 v 8 8 h 8 v 6 8 h 8 v 6 h 24 v -8 -7 h 8 v -8 -9 -8 -9 -8 -9 -8 -9 h -8 v 9 6 h -24 v -6 h -8 v -5 -9 h -8 v -7 -9 z" />
  <path
     id="path1850"
     style="fill:#993f76;fill-opacity:1;stroke-width:4.01034;stroke-linecap:round;stroke-linejoin:round"
     d="m 68,78 v 7 h -8 v 9 4 h -8 v 8.99999 8 9 8 h 8 v -8 -5 h 8 v -7 h 24 v 8 8 h 8 v 6 8 h 8 v 6 h 24 v -8 -7 h 8 v -8 -9 -8 V 99 h -8 v 8.99999 6 h -24 v -6 h -8 v -5 V 94 h -8 v -7 -9 z" />
  <path
     id="path1848"
     style="fill:#ff005e;fill-opacity:1;stroke-width:4.01034;stroke-linecap:round;stroke-linejoin:round"
     d="m 68,80.000004 v 7 H 60 V 100.00001 H 52 V 117 h 8 v -13 h 8 V 97.000008 H 92 V 113 h 8 v 14 h 8 v 6 h 24 v -15 h 8 v -17 h -8 v 15 h -24 v -6 h -8 V 96.000008 H 92 V 80.000004 Z" />
  <path
     id="path1875"
     style="fill:#1ca3a7;fill-opacity:1;stroke-width:4.01034;stroke-linecap:round;stroke-linejoin:round"
     d="m 68,44.000006 v 7 h -8 v 9 4 H 52 V 73 v 8 9 8 h 8 v -8 -5 h 8 v -7 h 24 v 8 8 h 8 v 6 8 h 8 v 6 h 24 v -8 -7 h 8 v -8 -9 -8 -8.999994 h -8 V 74 80 h -24 v -6 h -8 v -5 -8.999994 h -8 v -7 -9 z" />
  <path
     id="path1828"
     style="fill:#00ffff;fill-opacity:1;stroke-width:4.01034;stroke-linecap:round;stroke-linejoin:round"
     d="m 68,61.000003 v 7 h -8 v 13 h -8 v 17 h 8 v -13 h 8 v -7 h 24 v 16 h 8 V 108 h 8 v 6 h 24 V 99.000003 h 8 v -17 h -8 v 15 h -24 v -6 h -8 v -14 h -8 v -16 z" />
  <path
     id="path19499"
     style="opacity:0.2;fill:#000000;stroke-width:4.01034;stroke-linecap:round;stroke-linejoin:round;filter:url(#filter19537)"
     d="m 68,72.000004 v 7 h -8 v 13 H 52 V 109 h 8 V 96.000004 h 8 v -7 H 92 V 105 h 8 v 14 h 8 v 6 h 24 v -15 h 8 V 93.000004 h -8 V 108 h -24 v -6 h -8 V 88.000004 h -8 v -16 z" />
  <path
     id="rect1369"
     style="fill:#ffffff;stroke-width:4.01034;stroke-linecap:round;stroke-linejoin:round"
     d="m 68,70.000004 v 7 h -8 v 13 H 52 V 107 h 8 V 94.000004 h 8 v -7 H 92 V 103 h 8 v 14 h 8 v 6 h 24 v -15 h 8 V 91.000004 h -8 V 106 h -24 v -6 h -8 V 86.000004 h -8 v -16 z" />
  <path
     id="rect19458"
     style="fill:#ffffff;fill-opacity:1;stroke-width:4;opacity:0.1"
     d="M 46 16 C 29.38 16 16 29.38 16 46 L 16 47 C 16 30.38 29.38 17 46 17 L 146 17 C 162.62 17 176 30.38 176 47 L 176 46 C 176 29.38 162.62 16 146 16 L 46 16 z " />
</svg>
