<?xml version="1.0" encoding="UTF-8" standalone="no"?>
<svg
   width="192"
   height="192"
   version="1"
   id="svg28"
   sodipodi:docname="apps_lucid_launcher.svg"
   inkscape:version="1.1-rc (1:1.1+rc+202105232036+f4db50c7c1)"
   xmlns:inkscape="http://www.inkscape.org/namespaces/inkscape"
   xmlns:sodipodi="http://sodipodi.sourceforge.net/DTD/sodipodi-0.dtd"
   xmlns="http://www.w3.org/2000/svg"
   xmlns:svg="http://www.w3.org/2000/svg"
   xmlns:rdf="http://www.w3.org/1999/02/22-rdf-syntax-ns#"
   xmlns:cc="http://creativecommons.org/ns#"
   xmlns:dc="http://purl.org/dc/elements/1.1/">
  <metadata
     id="metadata34">
    <rdf:RDF>
      <cc:Work
         rdf:about="">
        <dc:format>image/svg+xml</dc:format>
        <dc:type
           rdf:resource="http://purl.org/dc/dcmitype/StillImage" />
      </cc:Work>
    </rdf:RDF>
  </metadata>
  <defs
     id="defs32">
    <filter
       inkscape:collect="always"
       style="color-interpolation-filters:sRGB"
       id="filter901"
       x="-0.048000001"
       width="1.096"
       y="-0.048000001"
       height="1.096">
      <feGaussianBlur
         inkscape:collect="always"
         stdDeviation="3.2"
         id="feGaussianBlur903" />
    </filter>
    <filter
       inkscape:collect="always"
       style="color-interpolation-filters:sRGB"
       id="filter2995"
       x="-0.051099165"
       y="-0.045255266"
       width="1.1021983"
       height="1.0905105">
      <feGaussianBlur
         inkscape:collect="always"
         stdDeviation="1.7347852"
         id="feGaussianBlur2997" />
    </filter>
    <filter
       inkscape:collect="always"
       style="color-interpolation-filters:sRGB"
       id="filter2999"
       x="-0.051099162"
       y="-0.04525527"
       width="1.1021983"
       height="1.0905105">
      <feGaussianBlur
         inkscape:collect="always"
         stdDeviation="1.7347853"
         id="feGaussianBlur3001" />
    </filter>
  </defs>
  <sodipodi:namedview
     pagecolor="#ffffff"
     bordercolor="#666666"
     borderopacity="1"
     objecttolerance="10"
     gridtolerance="10"
     guidetolerance="10"
     inkscape:pageopacity="0"
     inkscape:pageshadow="2"
     inkscape:window-width="1920"
     inkscape:window-height="1019"
     id="namedview30"
     showgrid="false"
     inkscape:zoom="1"
     inkscape:cx="47.5"
     inkscape:cy="86.5"
     inkscape:window-x="0"
     inkscape:window-y="34"
     inkscape:window-maximized="1"
     inkscape:current-layer="svg28"
     inkscape:pagecheckerboard="0">
    <inkscape:grid
       type="xygrid"
       id="grid841" />
  </sodipodi:namedview>
  <rect
     style="opacity:0.2;fill:#000000;fill-opacity:1;stroke-width:4;filter:url(#filter901)"
     width="160"
     height="160"
     x="-180"
     y="-176"
     rx="12"
     ry="12"
     transform="matrix(0,-1,-1,0,0,0)"
     id="rect883" />
  <rect
     id="rect2"
     transform="matrix(0,-1,-1,0,0,0)"
     ry="12"
     rx="12"
     y="-176"
     x="-176"
     height="160"
     width="160"
     style="fill:#31a1fa;fill-opacity:1;stroke-width:4" />
  <path
     id="path2955"
     style="color:#000000;opacity:0.2;fill:#000000;fill-opacity:1;-inkscape-stroke:none;filter:url(#filter2999)"
     d="M 121.45071,60.000002 58.130387,152 h 73.220723 l 8.25781,-12 H 80.956559 L 136.01907,60.000002 Z" />
  <path
     style="opacity:0.2;fill:#ffffff;fill-opacity:1;stroke-width:4"
     d="m 28,16 c -6.648,0 -12,5.352 -12,12 v 1 c 0,-6.648 5.352,-12 12,-12 h 136 c 6.648,0 12,5.352 12,12 v -1 c 0,-6.648 -5.352,-12 -12,-12 z"
     id="rect905" />
  <path
     id="path1759"
     style="color:#000000;fill:#add9fd;fill-opacity:1;-inkscape-stroke:none"
     d="M 121.45071,58.000002 58.130387,150 h 73.220723 l 8.25781,-12 H 80.956559 L 136.01907,58.000002 Z" />
  <path
     id="path2957"
     style="color:#000000;opacity:0.2;fill:#000000;-inkscape-stroke:none;filter:url(#filter2995)"
     d="M 109.4507,39 46.130387,131 H 119.3511 l 8.25781,-12 H 68.956559 L 124.01906,39 Z" />
  <path
     id="path1172"
     style="color:#000000;fill:#ffffff;-inkscape-stroke:none"
     d="M 109.4507,37 46.130387,129 H 119.3511 l 8.25781,-12 H 68.956559 L 124.01906,37 Z" />
</svg>
