<?xml version="1.0" encoding="UTF-8" standalone="no"?>
<svg
   width="192"
   height="192"
   version="1.1"
   id="svg20"
   sodipodi:docname="apps_whats_that_flower.svg"
   inkscape:version="1.1.1 (1:1.1+202109281949+c3084ef5ed)"
   xmlns:inkscape="http://www.inkscape.org/namespaces/inkscape"
   xmlns:sodipodi="http://sodipodi.sourceforge.net/DTD/sodipodi-0.dtd"
   xmlns="http://www.w3.org/2000/svg"
   xmlns:svg="http://www.w3.org/2000/svg">
  <defs
     id="defs24">
    <filter
       inkscape:collect="always"
       style="color-interpolation-filters:sRGB"
       id="filter4785"
       x="-0.048184491"
       y="-0.047816918"
       width="1.096369"
       height="1.0956338">
      <feGaussianBlur
         inkscape:collect="always"
         stdDeviation="3.1877944"
         id="feGaussianBlur4787" />
    </filter>
    <filter
       inkscape:collect="always"
       style="color-interpolation-filters:sRGB"
       id="filter4789"
       x="-0.04769048"
       y="-0.048313566"
       width="1.095381"
       height="1.0966271">
      <feGaussianBlur
         inkscape:collect="always"
         stdDeviation="3.1773269"
         id="feGaussianBlur4791" />
    </filter>
    <filter
       inkscape:collect="always"
       style="color-interpolation-filters:sRGB"
       id="filter5035"
       x="-0.048"
       y="-0.048"
       width="1.096"
       height="1.096">
      <feGaussianBlur
         inkscape:collect="always"
         stdDeviation="1.12"
         id="feGaussianBlur5037" />
    </filter>
  </defs>
  <sodipodi:namedview
     id="namedview22"
     pagecolor="#ffffff"
     bordercolor="#666666"
     borderopacity="1.0"
     inkscape:pageshadow="2"
     inkscape:pageopacity="0.0"
     inkscape:pagecheckerboard="0"
     showgrid="false"
     inkscape:zoom="2.67"
     inkscape:cx="82.58427"
     inkscape:cy="104.30712"
     inkscape:window-width="1920"
     inkscape:window-height="1019"
     inkscape:window-x="0"
     inkscape:window-y="34"
     inkscape:window-maximized="1"
     inkscape:current-layer="svg20" />
  <path
     style="opacity:0.2;stroke-width:4;filter:url(#filter4785)"
     d="M 94.078566,18.000001 A 8.2485012,30.680456 0 0 0 85.831418,48.680936 8.2485012,30.680456 0 0 0 94.078566,79.36188 8.2485012,30.680456 0 0 0 102.32786,48.680936 8.2485012,30.680456 0 0 0 94.078566,18.000001 Z m -40.51822,11.032588 a 30.90829,8.1876988 58.138866 0 0 -1.727196,0.298968 30.90829,8.1876988 58.138866 0 0 9.200972,30.423791 30.90829,8.1876988 58.138866 0 0 5.046248,7.459596 31.317105,8.0808168 29.203967 0 0 -6.025852,-3.627356 31.317105,8.0808168 29.203967 0 0 -31.431098,-8.37114 31.317105,8.0808168 29.203967 0 0 23.190398,22.280536 31.317105,8.0808168 29.203967 0 0 31.428956,8.371148 31.317105,8.0808168 29.203967 0 0 -0.433952,-3.679628 30.90829,8.1876988 58.138866 0 0 1.559636,-0.29688 30.90829,8.1876988 58.138866 0 0 -9.20312,-30.4217 30.90829,8.1876988 58.138866 0 0 -21.604992,-22.437335 z m 96.067764,14.588867 a 8.1520292,31.043532 41.602486 0 0 -24.39342,18.571644 8.1520292,31.043532 41.602486 0 0 -14.31382,28.489892 8.1520292,31.043532 41.602486 0 0 2.66814,0.505952 8.0316544,31.508799 82.183419 0 0 -0.0364,0.746384 8.0316544,31.508799 82.183419 0 0 32.36989,3.646172 8.0316544,31.508799 82.183419 0 0 30.05621,-12.249384 8.0316544,31.508799 82.183419 0 0 -32.36988,-3.646172 8.0316544,31.508799 82.183419 0 0 -16.57593,3.552088 8.1520292,31.043532 41.602486 0 0 10.70474,-10.572648 8.1520292,31.043532 41.602486 0 0 14.31383,-28.489892 8.1520292,31.043532 41.602486 0 0 -2.42324,-0.554036 z M 62.404714,98.8158 a 8.0316544,31.508799 82.183419 0 0 -15.104376,1.089252 8.0316544,31.508799 82.183419 0 0 -30.058366,12.249378 8.0316544,31.508799 82.183419 0 0 32.369886,3.64617 8.0316544,31.508799 82.183419 0 0 16.575924,-3.55418 8.1520296,31.043529 41.602484 0 0 -10.70474,10.57474 8.1520296,31.043529 41.602484 0 0 -14.311672,28.48989 8.1520296,31.043529 41.602484 0 0 26.816652,-18.01761 8.1520296,31.043529 41.602484 0 0 14.31166,-28.48989 8.1520296,31.043529 41.602484 0 0 -2.665972,-0.50804 8.0316544,31.508799 82.183419 0 0 0.0364,-0.74429 8.0316544,31.508799 82.183419 0 0 -17.26552,-4.73542 z m 54.967356,10.23813 a 31.29159,8.0874056 31.152893 0 0 -3.811,1.37149 31.29159,8.0874056 31.152893 0 0 22.38482,23.04573 31.29159,8.0874056 31.152893 0 0 31.1153,9.42277 31.29159,8.0874056 31.152893 0 0 -22.3848,-23.04573 31.29159,8.0874056 31.152893 0 0 -27.30432,-10.79426 z m -10.21494,4.58071 a 30.956982,8.1748212 54.494602 0 0 -1.70571,0.4056 30.956982,8.1748212 54.494602 0 0 11.14728,29.79866 30.956982,8.1748212 54.494602 0 0 24.71351,20.6686 30.956982,8.1748212 54.494602 0 0 -11.14513,-29.79866 30.956982,8.1748212 54.494602 0 0 -23.00995,-21.0742 z m -9.121484,3.04196 a 30.681491,8.2482232 87.948299 0 0 -7.149388,30.9402 30.681491,8.2482232 87.948299 0 0 9.336302,30.38197 30.681491,8.2482232 87.948299 0 0 7.14939,-30.9402 30.681491,8.2482232 87.948299 0 0 -9.336304,-30.38197 z"
     id="path2" />
  <path
     style="fill:#db194b;fill-opacity:1;stroke-width:4"
     d="M 94.078566,14.000001 A 8.2485012,30.680456 0 0 0 85.831418,44.680936 8.2485012,30.680456 0 0 0 94.078566,75.36188 8.2485012,30.680456 0 0 0 102.32786,44.680936 8.2485012,30.680456 0 0 0 94.078566,14.000001 Z m -40.51822,11.032588 a 30.90829,8.1876988 58.138866 0 0 -1.727196,0.298968 30.90829,8.1876988 58.138866 0 0 9.200972,30.423791 30.90829,8.1876988 58.138866 0 0 5.046248,7.459596 31.317105,8.0808168 29.203967 0 0 -6.025852,-3.627356 31.317105,8.0808168 29.203967 0 0 -31.431098,-8.37114 31.317105,8.0808168 29.203967 0 0 23.190398,22.280536 31.317105,8.0808168 29.203967 0 0 31.428956,8.371148 31.317105,8.0808168 29.203967 0 0 -0.433952,-3.679628 30.90829,8.1876988 58.138866 0 0 1.559636,-0.29688 30.90829,8.1876988 58.138866 0 0 -9.20312,-30.4217 30.90829,8.1876988 58.138866 0 0 -21.604992,-22.437335 z m 96.067764,14.588867 a 8.1520292,31.043532 41.602486 0 0 -24.39342,18.571644 8.1520292,31.043532 41.602486 0 0 -14.31382,28.489892 8.1520292,31.043532 41.602486 0 0 2.66814,0.505952 8.0316544,31.508799 82.183419 0 0 -0.0364,0.746384 8.0316544,31.508799 82.183419 0 0 32.36989,3.646172 8.0316544,31.508799 82.183419 0 0 30.05621,-12.249384 8.0316544,31.508799 82.183419 0 0 -32.36988,-3.646172 8.0316544,31.508799 82.183419 0 0 -16.57593,3.552088 8.1520292,31.043532 41.602486 0 0 10.70474,-10.572648 8.1520292,31.043532 41.602486 0 0 14.31383,-28.489892 8.1520292,31.043532 41.602486 0 0 -2.42324,-0.554036 z M 62.404714,94.8158 a 8.0316544,31.508799 82.183419 0 0 -15.104376,1.089252 8.0316544,31.508799 82.183419 0 0 -30.058366,12.249378 8.0316544,31.508799 82.183419 0 0 32.369886,3.64617 8.0316544,31.508799 82.183419 0 0 16.575924,-3.55418 8.1520296,31.043529 41.602484 0 0 -10.70474,10.57474 8.1520296,31.043529 41.602484 0 0 -14.311672,28.48989 8.1520296,31.043529 41.602484 0 0 26.816652,-18.01761 8.1520296,31.043529 41.602484 0 0 14.31166,-28.48989 8.1520296,31.043529 41.602484 0 0 -2.665972,-0.50804 8.0316544,31.508799 82.183419 0 0 0.0364,-0.744286 A 8.0316544,31.508799 82.183419 0 0 62.40459,94.8158 Z m 54.967356,10.23813 a 31.29159,8.0874056 31.152893 0 0 -3.811,1.37149 31.29159,8.0874056 31.152893 0 0 22.38482,23.04573 31.29159,8.0874056 31.152893 0 0 31.1153,9.42277 31.29159,8.0874056 31.152893 0 0 -22.3848,-23.04573 31.29159,8.0874056 31.152893 0 0 -27.30432,-10.79426 z m -10.21494,4.58071 a 30.956982,8.1748212 54.494602 0 0 -1.70571,0.4056 30.956982,8.1748212 54.494602 0 0 11.14728,29.79866 30.956982,8.1748212 54.494602 0 0 24.71351,20.6686 30.956982,8.1748212 54.494602 0 0 -11.14513,-29.79866 30.956982,8.1748212 54.494602 0 0 -23.00995,-21.0742 z m -9.121484,3.04196 a 30.681491,8.2482232 87.948299 0 0 -7.149388,30.9402 30.681491,8.2482232 87.948299 0 0 9.336302,30.38197 30.681491,8.2482232 87.948299 0 0 7.14939,-30.9402 30.681491,8.2482232 87.948299 0 0 -9.336304,-30.38197 z"
     id="path4" />
  <path
     id="path4953"
     style="fill:#ffffff;fill-opacity:1;stroke-width:4;opacity:0.1"
     d="M 94.078125 14 A 8.2485012 30.680456 0 0 0 85.832031 44.681641 A 8.2485012 30.680456 0 0 0 85.847656 45.181641 A 8.2485012 30.680456 0 0 1 94.078125 15 A 8.2485012 30.680456 0 0 1 102.32227 45.181641 A 8.2485012 30.680456 0 0 0 102.32812 44.681641 A 8.2485012 30.680456 0 0 0 94.078125 14 z M 53.560547 25.033203 A 30.90829 8.1876988 58.138866 0 0 51.833984 25.332031 A 30.90829 8.1876988 58.138866 0 0 50.439453 30.134766 A 30.90829 8.1876988 58.138866 0 1 51.833984 26.332031 A 30.90829 8.1876988 58.138866 0 1 53.560547 26.033203 A 30.90829 8.1876988 58.138866 0 1 75.166016 48.470703 A 30.90829 8.1876988 58.138866 0 1 85.8125 74.564453 A 30.90829 8.1876988 58.138866 0 0 75.166016 47.470703 A 30.90829 8.1876988 58.138866 0 0 53.560547 25.033203 z M 149.62891 39.621094 A 8.1520292 31.043532 41.602486 0 0 125.23438 58.193359 A 8.1520292 31.043532 41.602486 0 0 110.10742 85.058594 A 8.1520292 31.043532 41.602486 0 1 125.23438 59.193359 A 8.1520292 31.043532 41.602486 0 1 149.62891 40.621094 A 8.1520292 31.043532 41.602486 0 1 152.05078 41.175781 A 8.1520292 31.043532 41.602486 0 1 152.86328 42.800781 A 8.1520292 31.043532 41.602486 0 0 152.05078 40.175781 A 8.1520292 31.043532 41.602486 0 0 149.62891 39.621094 z M 33.115234 49.716797 A 31.317105 8.0808168 29.203967 0 0 28.623047 51.216797 A 31.317105 8.0808168 29.203967 0 0 28.484375 53.363281 A 31.317105 8.0808168 29.203967 0 1 28.623047 52.216797 A 31.317105 8.0808168 29.203967 0 1 60.054688 60.587891 A 31.317105 8.0808168 29.203967 0 1 66.080078 64.214844 A 30.90829 8.1876988 58.138866 0 1 64.851562 62.474609 A 31.317105 8.0808168 29.203967 0 0 60.054688 59.587891 A 31.317105 8.0808168 29.203967 0 0 33.115234 49.716797 z M 157.26562 74.607422 A 8.0316544 31.508799 82.183419 0 0 143.60938 75.685547 A 8.0316544 31.508799 82.183419 0 0 128.70703 78.78125 A 8.1520292 31.043532 41.602486 0 1 127.0332 80.238281 A 8.0316544 31.508799 82.183419 0 1 143.60938 76.685547 A 8.0316544 31.508799 82.183419 0 1 175.78516 80.023438 A 8.0316544 31.508799 82.183419 0 0 175.97852 79.332031 A 8.0316544 31.508799 82.183419 0 0 157.26562 74.607422 z M 83.224609 79.109375 A 30.90829 8.1876988 58.138866 0 1 82.808594 79.189453 A 31.317105 8.0808168 29.203967 0 1 83.505859 81.150391 A 31.317105 8.0808168 29.203967 0 0 83.224609 79.109375 z M 62.404297 94.816406 A 8.0316544 31.508799 82.183419 0 0 47.300781 95.904297 A 8.0316544 31.508799 82.183419 0 0 17.242188 108.1543 A 8.0316544 31.508799 82.183419 0 0 17.388672 108.63086 A 8.0316544 31.508799 82.183419 0 1 47.300781 96.904297 A 8.0316544 31.508799 82.183419 0 1 62.404297 95.816406 A 8.0316544 31.508799 82.183419 0 1 79.669922 100.55078 A 8.0316544 31.508799 82.183419 0 1 79.632812 101.29492 A 8.1520296 31.043529 41.602484 0 1 82.298828 101.80273 A 8.1520296 31.043529 41.602484 0 1 83.113281 103.42773 A 8.1520296 31.043529 41.602484 0 0 82.298828 100.80273 A 8.1520296 31.043529 41.602484 0 0 79.632812 100.29492 A 8.0316544 31.508799 82.183419 0 0 79.669922 99.550781 A 8.0316544 31.508799 82.183419 0 0 62.404297 94.816406 z M 117.37109 105.05469 A 31.29159 8.0874056 31.152893 0 0 113.56055 106.42578 A 31.29159 8.0874056 31.152893 0 0 113.37305 108.62891 A 31.29159 8.0874056 31.152893 0 1 113.56055 107.42578 A 31.29159 8.0874056 31.152893 0 1 117.37109 106.05469 A 31.29159 8.0874056 31.152893 0 1 144.67578 116.84766 A 31.29159 8.0874056 31.152893 0 1 167.35742 138.0332 A 31.29159 8.0874056 31.152893 0 0 144.67578 115.84766 A 31.29159 8.0874056 31.152893 0 0 117.37109 105.05469 z M 66.1875 109.24609 A 8.0316544 31.508799 82.183419 0 1 64.580078 109.68555 A 8.1520296 31.043529 41.602484 0 0 55.482422 118.82031 A 8.1520296 31.043529 41.602484 0 0 40.357422 145.68555 A 8.1520296 31.043529 41.602484 0 1 55.482422 119.82031 A 8.1520296 31.043529 41.602484 0 1 66.1875 109.24609 z M 107.15625 109.63477 A 30.956982 8.1748212 54.494602 0 0 105.45117 110.04102 A 30.956982 8.1748212 54.494602 0 0 104.31836 114.66797 A 30.956982 8.1748212 54.494602 0 1 105.45117 111.04102 A 30.956982 8.1748212 54.494602 0 1 107.15625 110.63477 A 30.956982 8.1748212 54.494602 0 1 130.16797 131.70898 A 30.956982 8.1748212 54.494602 0 1 142.5332 157.72852 A 30.956982 8.1748212 54.494602 0 0 130.16797 130.70898 A 30.956982 8.1748212 54.494602 0 0 121.32227 119.80469 A 31.29159 8.0874056 31.152893 0 1 116.92188 115.4668 A 30.956982 8.1748212 54.494602 0 0 107.15625 109.63477 z M 98.035156 112.67578 A 30.681491 8.2482232 87.948299 0 0 90.855469 137.70117 A 30.681491 8.2482232 87.948299 0 1 98.035156 113.67578 A 30.681491 8.2482232 87.948299 0 1 107.37109 144.05859 A 30.681491 8.2482232 87.948299 0 1 107.4375 148.04883 A 30.681491 8.2482232 87.948299 0 0 107.37109 143.05859 A 30.681491 8.2482232 87.948299 0 0 98.035156 112.67578 z " />
  <path
     style="opacity:0.2;stroke-width:4;filter:url(#filter4789)"
     d="m 110.60722,18.842545 a 8.2440048,30.69719 8.2720072 0 0 -11.97651,29.263451 8.2440048,30.69719 8.2720072 0 0 3.76804,31.500504 8.2440048,30.69719 8.2720072 0 0 4.85075,-3.813436 8.2153992,30.804076 22.949156 0 0 1.9807,9.64438 8.2153992,30.804076 22.949156 0 0 3.08059,-0.551944 8.048988,31.440944 71.977936 0 0 -0.0515,1.588928 8.048988,31.440944 71.977936 0 0 32.51168,-2.15132 8.048988,31.440944 71.977936 0 0 27.26348,-17.371588 8.048988,31.440944 71.977936 0 0 -32.51167,2.151328 8.048988,31.440944 71.977936 0 0 -20.88103,9.481296 8.2153992,30.804076 22.949156 0 0 10.18918,-18.481736 8.2153992,30.804076 22.949156 0 0 4.33732,-31.431506 8.2153992,30.804076 22.949156 0 0 -18.32031,22.414338 8.2440048,30.69719 8.2720072 0 0 0.11816,-0.738024 8.2440048,30.69719 8.2720072 0 0 -3.77018,-31.500492 8.2440048,30.69719 8.2720072 0 0 -0.58862,-0.0046 z m -42.37859,4.302649 a 30.767643,8.2251272 70.866126 0 0 -0.831376,0.110755 30.767643,8.2251272 70.866126 0 0 2.229884,31.638479 30.767643,8.2251272 70.866126 0 0 5.233144,12.55044 A 31.0413,8.1526148 48.550724 0 0 66.31883,56.39764 31.0413,8.1526148 48.550724 0 0 39.551586,38.311036 31.0413,8.1526148 48.550724 0 0 53.78591,66.83856 a 31.0413,8.1526148 48.550724 0 0 10.698312,10.608196 31.423286,8.0535112 19.904002 0 0 -10.5243,-4.41764 31.423286,8.0535112 19.904002 0 0 -32.417147,-3.215488 31.423286,8.0535112 19.904002 0 0 22.668371,16.71928 31.524833,8.0275696 1.038034 0 0 -28.210866,7.459596 31.524833,8.0275696 1.038034 0 0 31.366654,8.599026 31.524833,8.0275696 1.038034 0 0 31.673848,-7.453322 31.524833,8.0275696 1.038034 0 0 -0.977456,-2.013332 31.423286,8.0535112 19.904002 0 0 2.543536,-1.841904 31.423286,8.0535112 19.904002 0 0 -3.39638,-5.994028 31.0413,8.1526148 48.550724 0 0 3.342676,-0.3638 31.0413,8.1526148 48.550724 0 0 -1.24814,-9.826264 30.767643,8.2251272 70.866126 0 0 8.189144,6.315992 A 30.767643,8.2251272 70.866126 0 0 85.264278,49.776392 30.767643,8.2251272 70.866126 0 0 68.22863,23.145118 Z m 74.07393,67.155202 a 31.524833,8.0275696 1.038034 0 0 -29.44396,7.474232 31.524833,8.0275696 1.038034 0 0 4.39748,4.185572 31.423284,8.0535112 19.904 0 0 -4.64238,2.24331 31.423284,8.0535112 19.904 0 0 3.39854,5.99403 31.0413,8.1526148 48.550728 0 0 -3.34484,0.36376 31.0413,8.1526148 48.550728 0 0 1.24384,9.81791 30.767641,8.2251272 70.866123 0 0 -8.18484,-6.30763 30.767641,8.2251272 70.866123 0 0 2.22988,31.63849 30.767641,8.2251272 70.866123 0 0 17.86703,26.52046 30.767641,8.2251272 70.866123 0 0 -2.22988,-31.63848 30.767641,8.2251272 70.866123 0 0 -5.23745,-12.56091 31.0413,8.1526148 48.550728 0 0 8.54789,11.05769 31.0413,8.1526148 48.550728 0 0 26.76725,18.0866 31.0413,8.1526148 48.550728 0 0 -14.23648,-28.52753 31.0413,8.1526148 48.550728 0 0 -10.70044,-10.61028 31.423284,8.0535112 19.904 0 0 10.52643,4.41973 31.423284,8.0535112 19.904 0 0 32.4193,3.2155 31.423284,8.0535112 19.904 0 0 -26.64693,-18.25595 31.423284,8.0535112 19.904 0 0 -3.25031,-1.11852 31.524833,8.0275696 1.038034 0 0 2.44042,0.0752 31.524833,8.0275696 1.038034 0 0 31.67385,-7.453332 31.524833,8.0275696 1.038034 0 0 -31.36451,-8.599028 31.524833,8.0275696 1.038034 0 0 -2.22989,-0.0208 z M 72.853818,106.39666 a 8.048988,31.440944 71.977942 0 0 -24.404168,4.76678 8.048988,31.440944 71.977942 0 0 -27.261337,17.37158 8.048988,31.440944 71.977942 0 0 32.509525,-2.15132 8.048988,31.440944 71.977942 0 0 20.883168,-9.4813 8.2153992,30.804074 22.949152 0 0 -10.189164,18.48173 8.2153992,30.804074 22.949152 0 0 -4.339472,31.43151 8.2153992,30.804074 22.949152 0 0 18.32246,-22.42061 8.2440048,30.69719 8.2720069 0 0 -0.11816,0.74428 8.2440048,30.69719 8.2720069 0 0 3.768032,31.50051 8.2440048,30.69719 8.2720069 0 0 12.567284,-29.25928 8.2440048,30.69719 8.2720069 0 0 -3.770184,-31.50049 8.2440048,30.69719 8.2720069 0 0 -4.848604,3.81343 8.2153992,30.804074 22.949152 0 0 -1.980692,-9.64438 8.2153992,30.804074 22.949152 0 0 -3.082748,0.55194 8.048988,31.440944 71.977942 0 0 0.05148,-1.58892 8.048988,31.440944 71.977942 0 0 -8.107508,-2.61546 z"
     id="path8" />
  <path
     style="fill:#ff60a2;fill-opacity:1;stroke-width:4"
     d="m 110.60722,14.842545 a 8.2440048,30.69719 8.2720072 0 0 -11.97651,29.263451 8.2440048,30.69719 8.2720072 0 0 3.76804,31.500504 8.2440048,30.69719 8.2720072 0 0 4.85075,-3.813436 8.2153992,30.804076 22.949156 0 0 1.9807,9.64438 8.2153992,30.804076 22.949156 0 0 3.08059,-0.551944 8.048988,31.440944 71.977936 0 0 -0.0515,1.588928 8.048988,31.440944 71.977936 0 0 32.51168,-2.15132 8.048988,31.440944 71.977936 0 0 27.26348,-17.371588 8.048988,31.440944 71.977936 0 0 -32.51167,2.151328 8.048988,31.440944 71.977936 0 0 -20.88103,9.481296 8.2153992,30.804076 22.949156 0 0 10.18918,-18.481736 8.2153992,30.804076 22.949156 0 0 4.33732,-31.431506 8.2153992,30.804076 22.949156 0 0 -18.32031,22.414338 8.2440048,30.69719 8.2720072 0 0 0.11816,-0.738024 8.2440048,30.69719 8.2720072 0 0 -3.77018,-31.500492 8.2440048,30.69719 8.2720072 0 0 -0.58862,-0.0046 z m -42.37859,4.302649 a 30.767643,8.2251272 70.866126 0 0 -0.831376,0.110755 30.767643,8.2251272 70.866126 0 0 2.229884,31.638479 30.767643,8.2251272 70.866126 0 0 5.233144,12.55044 A 31.0413,8.1526148 48.550724 0 0 66.31883,52.39764 31.0413,8.1526148 48.550724 0 0 39.551586,34.311036 31.0413,8.1526148 48.550724 0 0 53.78591,62.83856 a 31.0413,8.1526148 48.550724 0 0 10.698312,10.608196 31.423286,8.0535112 19.904002 0 0 -10.5243,-4.41764 31.423286,8.0535112 19.904002 0 0 -32.417147,-3.215488 31.423286,8.0535112 19.904002 0 0 22.668371,16.71928 31.524833,8.0275696 1.038034 0 0 -28.210866,7.459596 31.524833,8.0275696 1.038034 0 0 31.366654,8.599028 31.524833,8.0275696 1.038034 0 0 31.673848,-7.453324 31.524833,8.0275696 1.038034 0 0 -0.977456,-2.013332 31.423286,8.0535112 19.904002 0 0 2.543536,-1.841904 31.423286,8.0535112 19.904002 0 0 -3.39638,-5.994028 31.0413,8.1526148 48.550724 0 0 3.342676,-0.3638 31.0413,8.1526148 48.550724 0 0 -1.24814,-9.826264 30.767643,8.2251272 70.866126 0 0 8.189144,6.315992 A 30.767643,8.2251272 70.866126 0 0 85.264278,45.776392 30.767643,8.2251272 70.866126 0 0 68.22863,19.145118 Z m 74.07393,67.155202 a 31.524833,8.0275696 1.038034 0 0 -29.44396,7.474232 31.524833,8.0275696 1.038034 0 0 4.39748,4.185572 31.423284,8.0535112 19.904 0 0 -4.64238,2.24331 31.423284,8.0535112 19.904 0 0 3.39854,5.99403 31.0413,8.1526148 48.550728 0 0 -3.34484,0.36376 31.0413,8.1526148 48.550728 0 0 1.24384,9.81791 30.767641,8.2251272 70.866123 0 0 -8.18484,-6.30763 30.767641,8.2251272 70.866123 0 0 2.22988,31.63849 30.767641,8.2251272 70.866123 0 0 17.86703,26.52046 30.767641,8.2251272 70.866123 0 0 -2.22988,-31.63848 30.767641,8.2251272 70.866123 0 0 -5.23745,-12.56091 31.0413,8.1526148 48.550728 0 0 8.54789,11.05769 31.0413,8.1526148 48.550728 0 0 26.76725,18.0866 31.0413,8.1526148 48.550728 0 0 -14.23648,-28.52753 31.0413,8.1526148 48.550728 0 0 -10.70044,-10.61028 31.423284,8.0535112 19.904 0 0 10.52643,4.41973 31.423284,8.0535112 19.904 0 0 32.4193,3.2155 31.423284,8.0535112 19.904 0 0 -26.64693,-18.25595 31.423284,8.0535112 19.904 0 0 -3.25031,-1.11852 31.524833,8.0275696 1.038034 0 0 2.44042,0.0752 31.524833,8.0275696 1.038034 0 0 31.67385,-7.453332 31.524833,8.0275696 1.038034 0 0 -31.36451,-8.599028 31.524833,8.0275696 1.038034 0 0 -2.22989,-0.0208 z M 72.853818,102.39666 a 8.048988,31.440944 71.977942 0 0 -24.404168,4.76678 8.048988,31.440944 71.977942 0 0 -27.261337,17.37158 8.048988,31.440944 71.977942 0 0 32.509525,-2.15132 8.048988,31.440944 71.977942 0 0 20.883168,-9.4813 8.2153992,30.804074 22.949152 0 0 -10.189164,18.48173 8.2153992,30.804074 22.949152 0 0 -4.339472,31.43151 8.2153992,30.804074 22.949152 0 0 18.32246,-22.42061 8.2440048,30.69719 8.2720069 0 0 -0.11816,0.74428 8.2440048,30.69719 8.2720069 0 0 3.768032,31.50051 8.2440048,30.69719 8.2720069 0 0 12.567284,-29.25928 8.2440048,30.69719 8.2720069 0 0 -3.770184,-31.50049 8.2440048,30.69719 8.2720069 0 0 -4.848604,3.81343 8.2153992,30.804074 22.949152 0 0 -1.980692,-9.64438 8.2153992,30.804074 22.949152 0 0 -3.082748,0.55194 8.048988,31.440944 71.977942 0 0 0.05148,-1.58892 8.048988,31.440944 71.977942 0 0 -8.107508,-2.61546 z"
     id="path10" />
  <path
     id="path4955"
     style="fill:#ffffff;fill-opacity:1;stroke-width:4;opacity:0.2"
     d="M 110.60742 14.841797 A 8.2440048 30.69719 8.2720072 0 0 98.630859 44.105469 A 8.2440048 30.69719 8.2720072 0 0 97.546875 58.078125 A 8.2440048 30.69719 8.2720072 0 1 98.630859 45.105469 A 8.2440048 30.69719 8.2720072 0 1 110.60742 15.841797 A 8.2440048 30.69719 8.2720072 0 1 111.19531 15.847656 A 8.2440048 30.69719 8.2720072 0 1 116.05078 33.375 A 8.2440048 30.69719 8.2720072 0 0 111.19531 14.847656 A 8.2440048 30.69719 8.2720072 0 0 110.60742 14.841797 z M 68.228516 19.144531 A 30.767643 8.2251272 70.866126 0 0 67.396484 19.255859 A 30.767643 8.2251272 70.866126 0 0 64.75 27.701172 A 30.767643 8.2251272 70.866126 0 1 67.396484 20.255859 A 30.767643 8.2251272 70.866126 0 1 68.228516 20.144531 A 30.767643 8.2251272 70.866126 0 1 85.263672 46.777344 A 30.767643 8.2251272 70.866126 0 1 90.166016 70.425781 A 30.767643 8.2251272 70.866126 0 0 85.263672 45.777344 A 30.767643 8.2251272 70.866126 0 0 68.228516 19.144531 z M 131.31836 24.658203 A 8.2153992 30.804076 22.949156 0 0 115.04102 46.689453 A 8.2440048 30.69719 8.2720072 0 1 114.9668 47.347656 A 8.2440048 30.69719 8.2720072 0 1 114.84766 48.085938 A 8.2153992 30.804076 22.949156 0 1 133.16797 25.671875 A 8.2153992 30.804076 22.949156 0 1 135.31055 32.798828 A 8.2153992 30.804076 22.949156 0 0 133.16797 24.671875 A 8.2153992 30.804076 22.949156 0 0 131.31836 24.658203 z M 41.458984 33.734375 A 31.0413 8.1526148 48.550724 0 0 39.550781 34.310547 A 31.0413 8.1526148 48.550724 0 0 38.730469 36.9375 A 31.0413 8.1526148 48.550724 0 1 39.550781 35.310547 A 31.0413 8.1526148 48.550724 0 1 66.318359 53.398438 A 31.0413 8.1526148 48.550724 0 1 74.859375 64.445312 A 30.767643 8.2251272 70.866126 0 1 73.619141 61.722656 A 31.0413 8.1526148 48.550724 0 0 66.318359 52.398438 A 31.0413 8.1526148 48.550724 0 0 41.458984 33.734375 z M 163.87695 60.335938 A 8.048988 31.440944 71.977936 0 0 139.52344 65.103516 A 8.048988 31.440944 71.977936 0 0 119.88281 73.849609 A 8.2153992 30.804076 22.949156 0 1 118.64258 75.583984 A 8.048988 31.440944 71.977936 0 1 139.52344 66.103516 A 8.048988 31.440944 71.977936 0 1 171.95703 63.865234 A 8.048988 31.440944 71.977936 0 0 172.03516 62.951172 A 8.048988 31.440944 71.977936 0 0 163.87695 60.335938 z M 29.787109 63.46875 A 31.423286 8.0535112 19.904002 0 0 21.542969 65.814453 A 31.423286 8.0535112 19.904002 0 0 21.615234 66.740234 A 31.423286 8.0535112 19.904002 0 1 53.958984 70.029297 A 31.423286 8.0535112 19.904002 0 1 64.484375 74.447266 A 31.0413 8.1526148 48.550724 0 1 62.257812 72.445312 A 31.423286 8.0535112 19.904002 0 0 53.958984 69.029297 A 31.423286 8.0535112 19.904002 0 0 29.787109 63.46875 z M 79.304688 72.099609 A 31.0413 8.1526148 48.550724 0 1 81.458984 78.875 A 31.0413 8.1526148 48.550724 0 0 80.302734 73.392578 A 30.767643 8.2251272 70.866126 0 1 79.304688 72.099609 z M 107.25 72.792969 A 8.2440048 30.69719 8.2720072 0 1 107.18164 72.884766 A 8.2153992 30.804076 22.949156 0 0 107.05664 75.873047 A 8.2153992 30.804076 22.949156 0 1 107.25 72.792969 z M 112.31055 81.884766 A 8.2153992 30.804076 22.949156 0 1 112.27734 81.896484 A 8.048988 31.440944 71.977936 0 0 112.25977 82.474609 A 8.048988 31.440944 71.977936 0 0 112.28906 82.53125 A 8.048988 31.440944 71.977936 0 1 112.31055 81.884766 z M 77.210938 82.289062 A 31.423286 8.0535112 19.904002 0 1 80.691406 86.992188 A 31.423286 8.0535112 19.904002 0 0 78.386719 82.390625 A 31.0413 8.1526148 48.550724 0 1 77.210938 82.289062 z M 42.121094 82.611328 A 31.524833 8.0275696 1.038034 0 0 16 89.992188 A 31.524833 8.0275696 1.038034 0 0 16.214844 90.501953 A 31.524833 8.0275696 1.038034 0 1 44.210938 83.533203 A 31.423286 8.0535112 19.904002 0 1 42.121094 82.611328 z M 142.30273 86.300781 A 31.524833 8.0275696 1.038034 0 0 112.85938 93.775391 A 31.524833 8.0275696 1.038034 0 0 113.05078 94.341797 A 31.524833 8.0275696 1.038034 0 1 142.30273 87.300781 A 31.524833 8.0275696 1.038034 0 1 144.5332 87.320312 A 31.524833 8.0275696 1.038034 0 1 175.76953 95.193359 A 31.524833 8.0275696 1.038034 0 0 175.89648 94.919922 A 31.524833 8.0275696 1.038034 0 0 144.5332 86.320312 A 31.524833 8.0275696 1.038034 0 0 142.30273 86.300781 z M 78.611328 89.873047 A 31.423286 8.0535112 19.904002 0 1 78.0625 90.125 A 31.524833 8.0275696 1.038034 0 1 78.882812 91.478516 A 31.524833 8.0275696 1.038034 0 0 79.041016 91.138672 A 31.524833 8.0275696 1.038034 0 0 78.611328 89.873047 z M 116.00586 98.271484 A 31.423284 8.0535112 19.904 0 0 112.61328 100.20312 A 31.423284 8.0535112 19.904 0 0 112.62109 101.19531 A 31.423284 8.0535112 19.904 0 1 117.25586 98.960938 A 31.524833 8.0275696 1.038034 0 1 116.00586 98.271484 z M 72.853516 102.39648 A 8.048988 31.440944 71.977942 0 0 48.449219 107.16406 A 8.048988 31.440944 71.977942 0 0 21.1875 124.53516 A 8.048988 31.440944 71.977942 0 0 21.261719 124.67578 A 8.048988 31.440944 71.977942 0 1 48.449219 108.16406 A 8.048988 31.440944 71.977942 0 1 72.853516 103.39648 A 8.048988 31.440944 71.977942 0 1 80.929688 105.97852 A 8.048988 31.440944 71.977942 0 0 80.960938 105.01172 A 8.048988 31.440944 71.977942 0 0 72.853516 102.39648 z M 141.7832 103.29883 A 31.423284 8.0535112 19.904 0 1 145.0332 104.41602 A 31.423284 8.0535112 19.904 0 1 171.75586 121.32617 A 31.423284 8.0535112 19.904 0 0 145.0332 103.41602 A 31.423284 8.0535112 19.904 0 0 144.88867 103.36523 A 31.524833 8.0275696 1.038034 0 1 144.22266 103.37305 A 31.524833 8.0275696 1.038034 0 1 141.7832 103.29883 z M 82.589844 105.94922 A 8.2153992 30.804074 22.949152 0 0 80.943359 106.58984 A 8.048988 31.440944 71.977942 0 1 80.910156 107.60156 A 8.2153992 30.804074 22.949152 0 1 83.992188 107.04883 A 8.2153992 30.804074 22.949152 0 1 86.166016 112.61328 A 8.2153992 30.804074 22.949152 0 0 83.992188 106.04883 A 8.2153992 30.804074 22.949152 0 0 82.589844 105.94922 z M 114.05664 106.02539 A 31.0413 8.1526148 48.550728 0 0 112.66797 106.56055 A 31.0413 8.1526148 48.550728 0 0 111.83008 110.19727 A 31.0413 8.1526148 48.550728 0 1 112.66797 107.56055 A 31.0413 8.1526148 48.550728 0 1 116.01172 107.19727 A 31.423284 8.0535112 19.904 0 1 114.94336 106.10352 A 31.0413 8.1526148 48.550728 0 0 114.05664 106.02539 z M 105.72656 110.07227 A 30.767641 8.2251272 70.866123 0 0 103.08008 118.51953 A 30.767641 8.2251272 70.866123 0 1 105.72656 111.07227 A 30.767641 8.2251272 70.866123 0 1 113.91211 117.37891 A 31.0413 8.1526148 48.550728 0 1 113.03125 115.24023 A 30.767641 8.2251272 70.866123 0 0 105.72656 110.07227 z M 90.822266 111.88086 A 8.2440048 30.69719 8.2720069 0 0 86.041016 115.60156 A 8.2153992 30.804074 22.949152 0 1 85.972656 116.69336 A 8.2440048 30.69719 8.2720069 0 1 90.822266 112.88086 A 8.2440048 30.69719 8.2720069 0 1 95.675781 130.40625 A 8.2440048 30.69719 8.2720069 0 0 90.822266 111.88086 z M 74.580078 113.90234 A 8.048988 31.440944 71.977942 0 1 73.425781 114.58594 A 8.2153992 30.804074 22.949152 0 0 64.392578 131.38477 A 8.2153992 30.804074 22.949152 0 0 57.912109 155.68555 A 8.2153992 30.804074 22.949152 0 1 64.392578 132.38477 A 8.2153992 30.804074 22.949152 0 1 74.580078 113.90234 z M 128.73438 115.03711 A 31.0413 8.1526148 48.550728 0 1 139.43555 125.64844 A 31.0413 8.1526148 48.550728 0 1 154.57422 151.11523 A 31.0413 8.1526148 48.550728 0 0 139.43555 124.64844 A 31.0413 8.1526148 48.550728 0 0 130.96094 116.03906 A 31.423284 8.0535112 19.904 0 1 128.73438 115.03711 z M 118.35547 125.03125 A 30.767641 8.2251272 70.866123 0 1 123.59375 137.5918 A 30.767641 8.2251272 70.866123 0 1 128.49609 161.24023 A 30.767641 8.2251272 70.866123 0 0 123.59375 136.5918 A 30.767641 8.2251272 70.866123 0 0 119.59961 126.75586 A 31.0413 8.1526148 48.550728 0 1 118.35547 125.03125 z M 78.375 141.39453 A 8.2153992 30.804074 22.949152 0 1 78.181641 141.78906 A 8.2440048 30.69719 8.2720069 0 0 77.171875 155.10938 A 8.2440048 30.69719 8.2720069 0 1 78.255859 142.13867 A 8.2440048 30.69719 8.2720069 0 1 78.375 141.39453 z " />
  <circle
     style="opacity:0.2;stroke-width:4;filter:url(#filter5035)"
     cx="95.999908"
     cy="96"
     r="28"
     id="circle14" />
  <circle
     style="fill:#ffc200;fill-opacity:1;stroke-width:4"
     cx="95.999908"
     cy="94"
     r="28"
     id="circle16" />
  <path
     id="circle1185"
     style="fill:#ffffff;fill-opacity:1;stroke-width:4;opacity:0.2"
     d="M 96 66 A 28 28 0 0 0 68 94 A 28 28 0 0 0 68.035156 94.5 A 28 28 0 0 1 96 67 A 28 28 0 0 1 123.98242 94.251953 A 28 28 0 0 0 124 94 A 28 28 0 0 0 96 66 z " />
</svg>
