<?xml version="1.0" encoding="UTF-8" standalone="no"?>
<svg
   xmlns:dc="http://purl.org/dc/elements/1.1/"
   xmlns:cc="http://creativecommons.org/ns#"
   xmlns:rdf="http://www.w3.org/1999/02/22-rdf-syntax-ns#"
   xmlns:svg="http://www.w3.org/2000/svg"
   xmlns="http://www.w3.org/2000/svg"
   xmlns:sodipodi="http://sodipodi.sourceforge.net/DTD/sodipodi-0.dtd"
   xmlns:inkscape="http://www.inkscape.org/namespaces/inkscape"
   width="192"
   height="192"
   version="1.1"
   id="svg16"
   sodipodi:docname="apps_microsoft_edge.svg"
   inkscape:version="0.92.5 (2060ec1f9f, 2020-04-08)">
  <metadata
     id="metadata22">
    <rdf:RDF>
      <cc:Work
         rdf:about="">
        <dc:format>image/svg+xml</dc:format>
        <dc:type
           rdf:resource="http://purl.org/dc/dcmitype/StillImage" />
        <dc:title></dc:title>
      </cc:Work>
    </rdf:RDF>
  </metadata>
  <defs
     id="defs20">
    <filter
       inkscape:collect="always"
       style="color-interpolation-filters:sRGB"
       id="filter873"
       x="-0.053612755"
       width="1.1072255"
       y="-0.043451078"
       height="1.0869022">
      <feGaussianBlur
         inkscape:collect="always"
         stdDeviation="2.3523253"
         id="feGaussianBlur875" />
    </filter>
    <filter
       inkscape:collect="always"
       style="color-interpolation-filters:sRGB"
       id="filter905"
       x="-0.044712501"
       width="1.089425"
       y="-0.051809293"
       height="1.1036186">
      <feGaussianBlur
         inkscape:collect="always"
         stdDeviation="2.0761848"
         id="feGaussianBlur907" />
    </filter>
    <filter
       inkscape:collect="always"
       style="color-interpolation-filters:sRGB"
       id="filter925"
       x="-0.039621577"
       width="1.0792432"
       y="-0.060872077"
       height="1.1217442">
      <feGaussianBlur
         inkscape:collect="always"
         stdDeviation="2.6414385"
         id="feGaussianBlur927" />
    </filter>
  </defs>
  <sodipodi:namedview
     pagecolor="#ffffff"
     bordercolor="#666666"
     borderopacity="1"
     objecttolerance="10"
     gridtolerance="10"
     guidetolerance="10"
     inkscape:pageopacity="0"
     inkscape:pageshadow="2"
     inkscape:window-width="1920"
     inkscape:window-height="1018"
     id="namedview18"
     showgrid="false"
     inkscape:zoom="3.02"
     inkscape:cx="24"
     inkscape:cy="98.370507"
     inkscape:window-x="0"
     inkscape:window-y="30"
     inkscape:window-maximized="1"
     inkscape:current-layer="svg16" />
  <path
     inkscape:connector-curvature="0"
     style="opacity:0.2;stroke-width:4;filter:url(#filter905)"
     class="cls-1"
     d="M 160.40973,139.07236 C 152.7434,146.61576 140.85117,148.40632 131.38654,148.45282 101.81339,148.45282 76.052496,125.71137 76.052496,99.608068 76.129576,92.478884 80.058024,85.949356 86.320604,82.541244 59.572276,83.666116 52.697704,111.53797 52.697704,127.86738 52.697704,174.03716 95.251296,178.71788 104.41948,178.71788 109.36292,178.71788 116.8187,177.28055 121.29342,175.86821 L 122.11212,175.59325 C 139.33132,169.64074 154.0108,158.00354 163.73452,142.59698 165.12327,140.40906 162.67506,137.81371 160.40973,139.07237 Z"
     id="path2" />
  <path
     inkscape:connector-curvature="0"
     style="fill:#0e539b;stroke-width:4"
     class="cls-1"
     d="M 160.40973,135.07406 C 152.7434,142.61746 140.85117,144.40802 131.38654,144.45452 101.81339,144.45452 76.052496,121.71306 76.052496,95.609764 76.129576,88.48058 80.058024,81.951052 86.320604,78.54294 59.572276,79.667812 52.697704,107.53967 52.697704,123.86907 52.697704,170.03886 95.251296,174.71958 104.41948,174.71958 109.36292,174.71958 116.8187,173.28224 121.29342,171.8699 L 122.11212,171.59494 C 139.33132,165.64244 154.0108,154.00524 163.73452,138.59867 165.12327,136.41075 162.67506,133.81541 160.40973,135.07407 Z"
     id="path4" />
  <path
     inkscape:connector-curvature="0"
     style="opacity:0.2;stroke-width:4;filter:url(#filter873)"
     class="cls-3"
     d="M 79.67768,170.86877 C 74.103424,167.40918 69.272592,162.87598 65.466068,157.53278 46.995664,132.22836 58.216024,96.384908 86.320604,82.541244 88.270484,81.622596 91.601524,79.960284 96.0325,80.041528 102.36086,80.087608 108.30253,83.094136 112.08774,88.165608 114.61148,91.535124 116.00295,95.617436 116.0625,99.826792 116.0625,99.695552 131.34904,50.082408 66.06562,50.082408 38.629834,50.082408 16.068743,76.116968 16.068743,98.95814 15.960523,111.04082 18.545922,122.99581 23.63702,133.95419 40.859476,170.69888 82.868796,188.72614 121.36842,175.8932 108.1886,180.04851 91.450408,178.22143 79.733928,170.89377 Z"
     id="path6" />
  <path
     inkscape:connector-curvature="0"
     style="fill:#0b87da;stroke-width:4"
     class="cls-3"
     d="M 79.67768,166.87047 C 74.103424,163.41087 69.272592,158.87768 65.466068,153.53447 46.995664,128.23006 58.216024,92.386604 86.320604,78.54294 88.270484,77.624292 91.601524,75.96198 96.0325,76.043224 102.36086,76.089304 108.30253,79.095832 112.08774,84.167304 114.61148,87.53682 116.00295,91.619132 116.0625,95.828488 116.0625,95.697248 131.34904,46.084104 66.06562,46.084104 38.629834,46.084104 16.068743,72.118664 16.068743,94.959836 15.960523,107.04251 18.545922,118.9975 23.63702,129.95588 40.859476,166.70058 82.868796,184.72784 121.36842,171.8949 108.1886,176.05021 91.450408,174.22312 79.733928,166.89546 Z"
     id="path8" />
  <path
     inkscape:connector-curvature="0"
     style="opacity:0.2;stroke-width:4;filter:url(#filter925)"
     class="cls-5"
     d="M 111.2003,110.62644 C 110.69408,111.28261 109.13793,112.18876 109.13793,114.16354 109.13793,115.7946 110.20036,117.36318 112.08774,118.68178 121.07468,124.93107 138.01738,124.10617 138.06112,124.10617 144.72024,124.09017 151.25315,122.28817 156.97869,118.888 168.73151,112.02592 175.96837,101.8495 175.99625,88.2406 176.15873,74.235932 170.99656,64.924484 168.9092,60.799948 155.66627,34.896622 127.08056,19.998304 95.995,19.998304 52.250588,19.99398 16.615154,55.12652 15.999998,98.8644 16.299978,76.02948 38.998561,55.987784 65.996876,55.987784 68.184236,55.987784 80.65846,56.200264 92.245236,62.280824 102.4571,67.642716 107.80676,75.717016 111.52528,82.13504 116.93,92.332616 117.16259,102.84145 111.20032,110.62644 Z"
     id="path10" />
  <path
     inkscape:connector-curvature="0"
     style="fill:#17dcbe;stroke-width:4"
     class="cls-5"
     d="M 111.2003,106.62814 C 110.69408,107.28431 109.13793,108.19046 109.13793,110.16524 109.13793,111.7963 110.20036,113.36487 112.08774,114.68348 121.07468,120.93277 138.01738,120.10786 138.06112,120.10786 144.72024,120.09186 151.25315,118.28986 156.97869,114.8897 168.73151,108.02762 175.96837,97.851196 175.99625,84.242296 176.15873,70.237628 170.99656,60.92618 168.9092,56.801644 155.66627,30.89832 127.08056,16.000002 95.995,16.000002 52.250588,15.995677 16.615154,51.128216 15.999998,94.866096 16.299978,72.031176 38.998561,51.98948 65.996876,51.98948 68.184236,51.98948 80.65846,52.20196 92.245236,58.28252 102.4571,63.644412 107.80676,71.718712 111.52528,78.136736 116.93,88.334312 117.16259,98.843144 111.20032,106.62814 Z"
     id="path12" />
  <path
     style="opacity:0.2;fill:#ffffff;stroke-width:4"
     d="M 95.992188 16 C 52.247776 15.995676 16.615156 51.129307 16 94.867188 C 16.010815 94.043952 16.057746 93.22646 16.128906 92.412109 C 18.515321 50.29461 53.406466 16.995791 95.992188 17 C 127.07775 17 155.66332 31.901363 168.90625 57.804688 C 170.9501 61.84323 175.93523 70.864039 175.99023 84.384766 C 175.99181 84.336428 175.9999 84.291229 176 84.242188 C 176.16248 70.23752 170.99362 60.929224 168.90625 56.804688 C 155.66332 30.901363 127.07775 16 95.992188 16 z M 115.47656 95.195312 C 115.13769 99.348613 113.78889 103.24875 111.20312 106.625 C 110.69692 107.28117 109.14062 108.18928 109.14062 110.16406 C 109.14062 110.34596 109.15621 110.52749 109.18555 110.70703 C 109.40515 109.05201 110.73874 108.22696 111.20312 107.625 C 113.78889 104.24875 115.13769 100.34861 115.47656 96.195312 C 115.51821 96.728564 115.52894 97.256037 115.53906 97.783203 C 115.55573 96.928329 115.54466 96.067288 115.47656 95.195312 z "
     id="path14" />
</svg>
