<?xml version="1.0" encoding="UTF-8" standalone="no"?>
<svg
   width="192"
   height="192"
   version="1"
   id="svg16"
   sodipodi:docname="apps_privacy_browser.svg"
   inkscape:version="1.1.1 (1:1.1+202109281949+c3084ef5ed)"
   xmlns:inkscape="http://www.inkscape.org/namespaces/inkscape"
   xmlns:sodipodi="http://sodipodi.sourceforge.net/DTD/sodipodi-0.dtd"
   xmlns="http://www.w3.org/2000/svg"
   xmlns:svg="http://www.w3.org/2000/svg"
   xmlns:rdf="http://www.w3.org/1999/02/22-rdf-syntax-ns#"
   xmlns:cc="http://creativecommons.org/ns#"
   xmlns:dc="http://purl.org/dc/elements/1.1/">
  <metadata
     id="metadata22">
    <rdf:RDF>
      <cc:Work
         rdf:about="">
        <dc:format>image/svg+xml</dc:format>
        <dc:type
           rdf:resource="http://purl.org/dc/dcmitype/StillImage" />
      </cc:Work>
    </rdf:RDF>
  </metadata>
  <defs
     id="defs20">
    <filter
       inkscape:collect="always"
       style="color-interpolation-filters:sRGB"
       id="filter875"
       x="-0.049599999"
       width="1.0992"
       y="-0.046499999"
       height="1.093">
      <feGaussianBlur
         inkscape:collect="always"
         stdDeviation="3.1"
         id="feGaussianBlur877" />
    </filter>
    <filter
       inkscape:collect="always"
       style="color-interpolation-filters:sRGB"
       id="filter2823"
       x="-0.108"
       y="-0.108"
       width="1.216"
       height="1.216">
      <feGaussianBlur
         inkscape:collect="always"
         stdDeviation="3.6"
         id="feGaussianBlur2825" />
    </filter>
  </defs>
  <sodipodi:namedview
     pagecolor="#ffffff"
     bordercolor="#666666"
     borderopacity="1"
     objecttolerance="10"
     gridtolerance="10"
     guidetolerance="10"
     inkscape:pageopacity="0"
     inkscape:pageshadow="2"
     inkscape:window-width="1920"
     inkscape:window-height="1019"
     id="namedview18"
     showgrid="false"
     inkscape:zoom="1.23"
     inkscape:cx="23.98374"
     inkscape:cy="100.81301"
     inkscape:window-x="0"
     inkscape:window-y="34"
     inkscape:window-maximized="1"
     inkscape:current-layer="svg16"
     inkscape:document-rotation="0"
     inkscape:pagecheckerboard="0" />
  <path
     id="path873"
     style="opacity:0.2;fill:#000000;stroke-width:1.56349;filter:url(#filter875)"
     d="m 95.999999,20 c -1.717292,0 -9.305241,2.757197 -16.829897,6.127477 -14.680278,6.575282 -24.946681,9.786826 -40.990896,12.825314 -6.821645,1.291906 -11.342676,3.147106 -13.89277,5.697753 -3.662815,3.663574 -3.746805,4.274604 -2.724264,19.665742 2.006955,30.208541 6.95166,53.921324 14.236477,68.267554 8.476305,16.69271 26.727596,33.72882 45.322378,42.30634 7.240642,3.34002 11.512669,4.94521 14.878972,5.10982 3.366303,-0.16461 7.638331,-1.7698 14.878971,-5.10982 18.59479,-8.57752 36.84607,-25.61363 45.32238,-42.30634 7.28481,-14.34623 12.22953,-38.059013 14.23648,-68.267554 1.02254,-15.391138 0.93855,-16.002168 -2.72426,-19.665742 -2.5501,-2.550647 -7.07113,-4.405847 -13.89278,-5.697753 C 137.77658,35.914303 127.51017,32.702759 112.8299,26.127477 105.30524,22.757197 97.71729,20 95.999999,20 Z" />
  <path
     id="path858"
     style="fill:#3476e8;fill-opacity:1;stroke-width:1.56349"
     d="m 95.999999,16 c -1.717292,0 -9.305241,2.757197 -16.829897,6.127477 -14.680278,6.575282 -24.946681,9.786826 -40.990896,12.825314 -6.821645,1.291906 -11.342676,3.147106 -13.89277,5.697753 -3.662815,3.663574 -3.746805,4.274604 -2.724264,19.665742 2.006955,30.208541 6.95166,53.921324 14.236477,68.267554 8.476305,16.69271 26.727596,33.72882 45.322378,42.30634 7.240642,3.34002 11.512669,4.94521 14.878972,5.10982 3.366303,-0.16461 7.638331,-1.7698 14.878971,-5.10982 18.59479,-8.57752 36.84607,-25.61363 45.32238,-42.30634 7.28481,-14.34623 12.22953,-38.059013 14.23648,-68.267554 1.02254,-15.391138 0.93855,-16.002168 -2.72426,-19.665742 -2.5501,-2.550647 -7.07113,-4.405847 -13.89278,-5.697753 C 137.77658,31.914303 127.51017,28.702759 112.8299,22.127477 105.30524,18.757197 97.71729,16 95.999999,16 Z" />
  <path
     id="path879"
     style="opacity:0.2;fill:#ffffff;stroke-width:1.56349"
     d="m 96,16 c -1.717292,0 -9.305422,2.756673 -16.830078,6.126953 -14.680278,6.575282 -24.946019,9.787684 -40.990234,12.826172 -6.821646,1.291906 -11.342485,3.146619 -13.892579,5.697266 -2.413962,2.414462 -3.256735,3.587696 -3.269531,8.455078 0.120675,-4.090839 1.017165,-5.202246 3.269531,-7.455078 2.550094,-2.550647 7.070933,-4.40536 13.892579,-5.697266 C 54.223903,32.914637 64.489644,29.702235 79.169922,23.126953 86.694578,19.756673 94.282708,17 96,17 c 1.717291,0 9.30542,2.756673 16.83008,6.126953 14.68027,6.575282 24.94602,9.787684 40.99023,12.826172 6.82165,1.291906 11.34248,3.146619 13.89258,5.697266 2.25236,2.252832 3.14886,3.364239 3.26953,7.455078 -0.0128,-4.867382 -0.85557,-6.040616 -3.26953,-8.455078 -2.5501,-2.550647 -7.07093,-4.40536 -13.89258,-5.697266 C 137.7761,31.914637 127.51035,28.702235 112.83008,22.126953 105.30542,18.756673 97.717291,16 96,16 Z" />
  <path
     id="path2785"
     style="opacity:0.2;fill:#000000;stroke:none;stroke-width:12.2005;stroke-linecap:round;stroke-linejoin:round;filter:url(#filter2823)"
     d="M 96,56 A 40,40 0 0 0 56,96 40,40 0 0 0 96,136 40,40 0 0 0 136,96 40,40 0 0 0 96,56 Z m 0,11.380859 C 97.749423,71.566571 99.118824,75.797376 100.10352,80 H 91.896484 C 92.881176,75.797376 94.250577,71.566571 96,67.380859 Z m 11.00977,0.722657 A 30,30 0 0 1 121.37695,80 h -11.02343 c -0.81486,-3.970834 -1.93324,-7.950016 -3.34375,-11.896484 z m -22.054692,0.09961 C 83.561288,72.117172 82.456437,76.062342 81.648438,80 H 70.728516 A 30,30 0 0 1 84.955078,68.203126 Z M 66.683594,90 H 80.228516 C 80.072168,92.018103 79.994397,94.0245 80,96.013672 80.00568,98.030248 80.103078,100.02283 80.275391,102 H 66.683594 A 30,30 0 0 1 66,96 30,30 0 0 1 66.683594,90 Z m 23.589844,0 h 11.453122 c 0.18151,2.02015 0.27898,4.020585 0.27344,5.986328 -0.006,2.027056 -0.11826,4.027232 -0.31641,6.013672 H 90.316406 C 90.118254,100.01356 90.005709,98.013386 90,95.986328 89.994463,94.020585 90.091927,92.02015 90.273438,90 Z m 21.500002,0 h 13.60937 A 30,30 0 0 1 126,96 a 30,30 0 0 1 -0.68359,6 h -13.5918 c 0.1723,-1.97709 0.26971,-3.96983 0.27539,-5.986328 0.006,-1.989322 -0.0702,-3.995415 -0.22656,-6.013672 z m -41.044924,22 h 11.125 c 0.921334,4.0427 2.165866,8.04599 3.714843,12.05078 A 30,30 0 0 1 70.728516,112 Z M 92.125,112 h 7.75 C 98.906214,115.69325 97.611563,119.39964 96,123.19141 94.388439,119.39964 93.093784,115.69325 92.125,112 Z m 18.02344,0 h 11.12304 a 30,30 0 0 1 -14.8457,12.05273 c 1.54941,-4.00554 2.80112,-8.00926 3.72266,-12.05273 z" />
  <path
     id="path1105"
     style="fill:#ffffff;stroke:none;stroke-width:12.2005;stroke-linecap:round;stroke-linejoin:round"
     d="M 96,54 A 40,40 0 0 0 56,94 40,40 0 0 0 96,134 40,40 0 0 0 136,94 40,40 0 0 0 96,54 Z m 0,11.380859 C 97.749423,69.566571 99.118824,73.797376 100.10352,78 H 91.896484 C 92.881176,73.797376 94.250577,69.566571 96,65.380859 Z m 11.00977,0.722657 A 30,30 0 0 1 121.37695,78 h -11.02343 c -0.81486,-3.970834 -1.93324,-7.950016 -3.34375,-11.896484 z m -22.054692,0.09961 C 83.561288,70.117172 82.456437,74.062342 81.648438,78 H 70.728516 A 30,30 0 0 1 84.955078,66.203125 Z M 66.683594,88 H 80.228516 C 80.072168,90.018103 79.994397,92.0245 80,94.013672 80.00568,96.030248 80.103078,98.02283 80.275391,100 H 66.683594 A 30,30 0 0 1 66,94 30,30 0 0 1 66.683594,88 Z m 23.589844,0 h 11.453122 c 0.18151,2.02015 0.27898,4.020585 0.27344,5.986328 -0.006,2.027056 -0.11826,4.027232 -0.31641,6.013672 H 90.316406 C 90.118254,98.01356 90.005709,96.013386 90,93.986328 89.994463,92.020585 90.091927,90.02015 90.273438,88 Z m 21.500002,0 h 13.60937 A 30,30 0 0 1 126,94 a 30,30 0 0 1 -0.68359,6 h -13.5918 C 111.89691,98.02291 111.99432,96.03017 112,94.013672 112.0056,92.02435 111.92981,90.018257 111.77344,88 Z m -41.044924,22 h 11.125 c 0.921334,4.0427 2.165866,8.04599 3.714843,12.05078 A 30,30 0 0 1 70.728516,110 Z M 92.125,110 h 7.75 C 98.906214,113.69325 97.611563,117.39964 96,121.19141 94.388439,117.39964 93.093784,113.69325 92.125,110 Z m 18.02344,0 h 11.12304 a 30,30 0 0 1 -14.8457,12.05273 c 1.54941,-4.00554 2.80112,-8.00926 3.72266,-12.05273 z" />
</svg>
