<?xml version="1.0" encoding="UTF-8" standalone="no"?>
<svg
   width="192"
   height="192"
   version="1"
   id="svg28"
   sodipodi:docname="apps_aliexpress.svg"
   inkscape:version="1.1-rc (1:1.1+rc+202105232036+f4db50c7c1)"
   xmlns:inkscape="http://www.inkscape.org/namespaces/inkscape"
   xmlns:sodipodi="http://sodipodi.sourceforge.net/DTD/sodipodi-0.dtd"
   xmlns="http://www.w3.org/2000/svg"
   xmlns:svg="http://www.w3.org/2000/svg"
   xmlns:rdf="http://www.w3.org/1999/02/22-rdf-syntax-ns#"
   xmlns:cc="http://creativecommons.org/ns#"
   xmlns:dc="http://purl.org/dc/elements/1.1/">
  <metadata
     id="metadata34">
    <rdf:RDF>
      <cc:Work
         rdf:about="">
        <dc:format>image/svg+xml</dc:format>
        <dc:type
           rdf:resource="http://purl.org/dc/dcmitype/StillImage" />
      </cc:Work>
    </rdf:RDF>
  </metadata>
  <defs
     id="defs32">
    <filter
       inkscape:collect="always"
       style="color-interpolation-filters:sRGB"
       id="filter864"
       x="-0.050482758"
       width="1.1009655"
       y="-0.045749999"
       height="1.0915">
      <feGaussianBlur
         inkscape:collect="always"
         stdDeviation="3.05"
         id="feGaussianBlur866" />
    </filter>
    <filter
       inkscape:collect="always"
       style="color-interpolation-filters:sRGB"
       id="filter889"
       x="-0.037764086"
       width="1.0755282"
       y="-0.065848041"
       height="1.1316961">
      <feGaussianBlur
         inkscape:collect="always"
         stdDeviation="1.3217472"
         id="feGaussianBlur891" />
    </filter>
    <filter
       inkscape:collect="always"
       style="color-interpolation-filters:sRGB"
       id="filter8400"
       x="-0.0071718883"
       y="-0.036719644"
       width="1.0143438"
       height="1.0734393">
      <feGaussianBlur
         inkscape:collect="always"
         stdDeviation="0.38250072"
         id="feGaussianBlur8402" />
    </filter>
  </defs>
  <sodipodi:namedview
     pagecolor="#ffffff"
     bordercolor="#666666"
     borderopacity="1"
     objecttolerance="10"
     gridtolerance="10"
     guidetolerance="10"
     inkscape:pageopacity="0"
     inkscape:pageshadow="2"
     inkscape:window-width="1920"
     inkscape:window-height="1014"
     id="namedview30"
     showgrid="false"
     inkscape:zoom="1"
     inkscape:cx="88.5"
     inkscape:cy="63"
     inkscape:window-x="0"
     inkscape:window-y="34"
     inkscape:window-maximized="1"
     inkscape:current-layer="svg28"
     inkscape:pagecheckerboard="0">
    <inkscape:grid
       type="xygrid"
       id="grid841" />
  </sodipodi:namedview>
  <rect
     style="fill:#ffad04;fill-opacity:1;stroke-width:3.3499999"
     width="134"
     height="134"
     x="-150"
     y="-163"
     rx="6.7000003"
     ry="6.7000003"
     transform="matrix(0,-1,-1,0,0,0)"
     id="rect838" />
  <rect
     style="opacity:0.2;fill:#000000;fill-opacity:1;stroke-width:3.80788636;filter:url(#filter864)"
     width="145"
     height="160"
     x="-180"
     y="-176"
     rx="8"
     ry="8"
     transform="matrix(0,-1,-1,0,0,0)"
     id="rect846" />
  <rect
     id="rect2"
     transform="matrix(0,-1,-1,0,0,0)"
     ry="8"
     rx="8"
     y="-176"
     x="-176"
     height="160"
     width="145"
     style="fill:#f63e16;fill-opacity:1;stroke-width:3.80788636" />
  <circle
     style="opacity:0.2;fill:#000000;fill-opacity:1;stroke:none;stroke-width:7.66747427;stroke-linecap:round;stroke-linejoin:round;stroke-miterlimit:4;stroke-dasharray:none;stroke-opacity:1"
     id="path842"
     cx="58"
     cy="64"
     r="8" />
  <circle
     r="8"
     cy="64"
     cx="134"
     id="circle844"
     style="opacity:0.2;fill:#000000;fill-opacity:1;stroke:none;stroke-width:7.66747427;stroke-linecap:round;stroke-linejoin:round;stroke-miterlimit:4;stroke-dasharray:none;stroke-opacity:1" />
  <path
     style="color:#000000;font-style:normal;font-variant:normal;font-weight:normal;font-stretch:normal;font-size:medium;line-height:normal;font-family:sans-serif;font-variant-ligatures:normal;font-variant-position:normal;font-variant-caps:normal;font-variant-numeric:normal;font-variant-alternates:normal;font-feature-settings:normal;text-indent:0;text-align:start;text-decoration:none;text-decoration-line:none;text-decoration-style:solid;text-decoration-color:#000000;letter-spacing:normal;word-spacing:normal;text-transform:none;writing-mode:lr-tb;direction:ltr;text-orientation:mixed;dominant-baseline:auto;baseline-shift:baseline;text-anchor:start;white-space:normal;shape-padding:0;clip-rule:nonzero;display:inline;overflow:visible;visibility:visible;opacity:0.2;isolation:auto;mix-blend-mode:normal;color-interpolation:sRGB;color-interpolation-filters:linearRGB;solid-color:#000000;solid-opacity:1;vector-effect:none;fill:#000000;fill-opacity:1;fill-rule:nonzero;stroke:none;stroke-width:8;stroke-linecap:round;stroke-linejoin:round;stroke-miterlimit:4;stroke-dasharray:none;stroke-dashoffset:0;stroke-opacity:1;filter:url(#filter889);color-rendering:auto;image-rendering:auto;shape-rendering:auto;text-rendering:auto;enable-background:accumulate"
     d="m 134.05469,61.827251 a 4.0004,4.0004 0 0 0 -4.10742,4.277343 c 0.703,12.574196 -5.58925,24.490547 -16.36915,31.001954 -10.77989,6.511402 -24.252122,6.534282 -35.054682,0.06055 C 67.720877,90.693357 61.387765,78.800308 62.046875,66.223735 a 4.0005793,4.0005793 0 1 0 -7.990234,-0.417969 c -0.813308,15.518837 7.023716,30.2344 20.353515,38.222654 13.329799,7.98826 30.002854,7.96052 43.304684,-0.0742 13.30184,-8.034733 21.08623,-22.779014 20.21875,-38.294918 a 4.0004,4.0004 0 0 0 -3.8789,-3.832031 z"
     id="path873"
     inkscape:connector-curvature="0" />
  <path
     style="opacity:1;fill:none;fill-opacity:1;stroke:#ffffff;stroke-width:8;stroke-linecap:round;stroke-linejoin:round;stroke-miterlimit:4;stroke-dasharray:none;stroke-opacity:1"
     id="path840"
     sodipodi:type="arc"
     sodipodi:cx="96"
     sodipodi:cy="66"
     sodipodi:rx="38"
     sodipodi:ry="38"
     sodipodi:start="6.2273348"
     sodipodi:end="3.1939525"
     d="M 133.94075,63.878784 A 38,38 0 0 1 115.64719,98.526725 38,38 0 0 1 76.466466,98.595108 38,38 0 0 1 58.052078,64.011235"
     sodipodi:open="true" />
  <path
     inkscape:connector-curvature="0"
     style="opacity:0.2;fill:#ffffff;fill-opacity:1;stroke-width:3.3499999"
     d="M 35.699219,16 C 31.987419,16 29,18.987419 29,22.699219 v 1 C 29,19.987419 31.987419,17 35.699219,17 H 156.30078 C 160.01258,17 163,19.987419 163,23.699219 v -1 C 163,18.987419 160.01258,16 156.30078,16 Z"
     id="rect868" />
  <path
     id="path8362"
     style="font-size:27.09px;line-height:1.25;opacity:0.1;fill:#000000;stroke-width:0.664311;filter:url(#filter8400)"
     d="M 39.433594,130 32,149 h 2.423828 l 2.265625,-5.85547 h 7.541016 L 46.521484,149 H 49 L 41.591797,130 Z M 51,130 v 19 h 2 v -19 z m 7.957031,0 c -0.261681,0.01 -0.483977,0.0937 -0.666015,0.25 C 58.096841,130.40476 58,130.65476 58,131 c 0,0.33333 0.09684,0.58333 0.291016,0.75 0.194174,0.16667 0.43396,0.25 0.71875,0.25 0.258899,0 0.485512,-0.0833 0.679687,-0.25 C 59.896573,131.58333 60,131.33333 60,131 c 0,-0.34524 -0.103427,-0.59524 -0.310547,-0.75 -0.194175,-0.16667 -0.420788,-0.25 -0.679687,-0.25 -0.0178,0 -0.03529,-6.5e-4 -0.05273,0 z M 65,130 v 19 h 11 v -2 h -9 v -7 h 8 v -2 h -8 v -6 h 9 v -2 z m -24.527344,2.46484 c 0.07106,0.212 0.160995,0.52142 0.267578,0.92774 0.124347,0.38866 0.2487,0.76768 0.373047,1.13867 0.124345,0.37099 0.212332,0.6282 0.265625,0.76953 l 2.132813,5.72266 h -6.023438 l 2.158203,-5.72266 c 0.106584,-0.30033 0.240516,-0.70838 0.400391,-1.2207 0.159875,-0.52999 0.301435,-1.06759 0.425781,-1.61524 z M 58,134 v 15 h 2 v -15 z m 21.238281,0 4.876953,7.33203 L 79,149 h 2.611328 L 85.513672,143.01172 89.363281,149 H 92 L 86.857422,141.33203 91.736328,134 H 89.125 L 85.513672,139.65234 81.875,134 Z m 22.740239,0 c -1.18597,0 -2.134137,0.21314 -2.845708,0.64062 -0.711579,0.42748 -1.286714,0.95277 -1.724609,1.57618 h -0.109375 l -0.328125,-1.94922 H 95 V 155 h 2.107422 v -5.87695 c 0,-0.33843 -0.0182,-0.74003 -0.05469,-1.20313 -0.03648,-0.46311 -0.07288,-0.84564 -0.109375,-1.14844 h 0.164063 c 0.419649,0.55217 1.295565,1.04127 2.02539,1.46875 0.748069,0.40967 1.687128,0.61524 2.818358,0.61524 1.82456,0 3.28417,-0.63186 4.37891,-1.89649 1.11298,-1.26463 1.66992,-3.11838 1.66992,-5.55859 0,-2.47583 -0.55694,-4.32763 -1.66992,-5.55664 C 105.23534,134.61474 103.78483,134 101.97852,134 Z m 16.21093,0 c -1.89112,0.0198 -3.86454,1.42127 -5.21679,2.9668 h -0.11524 l -0.28711,-2.69141 H 111 V 149 h 2.0293 v -7.85742 c 0.015,-1.92103 0.91932,-3.32537 2.77343,-4.3125 0.69009,-0.42125 1.42696,-0.63281 2.21289,-0.63281 0.26838,0 0.54645,0.018 0.83399,0.0547 0.30671,0.0366 0.58477,0.0838 0.83398,0.13867 L 120,134.16406 c -0.2492,-0.0549 -0.54557,-0.0911 -0.89062,-0.10937 C 118.7835,134.01799 118.47699,134 118.18945,134 Z m 10.01953,0 c -1.24018,0 -2.33216,0.30646 -3.27539,0.91797 -0.92577,0.61151 -1.64981,1.48214 -2.17382,2.61523 -0.50655,1.13309 -0.75977,2.49149 -0.75977,4.07422 0,1.60072 0.27894,2.95911 0.83789,4.07422 0.57642,1.09713 1.37167,1.92487 2.38477,2.48242 1.03057,0.55755 2.2096,0.83594 3.53711,0.83594 0.96069,0 1.78959,-0.0803 2.48828,-0.24219 0.69869,-0.14388 1.40688,-0.37743 2.12304,-0.70117 v -2.07812 c -0.73363,0.32374 -1.44974,0.57601 -2.14843,0.75586 -0.68123,0.1619 -1.4666,0.24218 -2.35743,0.24218 -1.39738,0 -2.48936,-0.42225 -3.27539,-1.26758 -0.76856,-0.86331 -1.17017,-2.07229 -1.20507,-3.70898 H 134 v -1.4707 c 0,-1.31295 -0.23542,-2.45652 -0.70703,-3.42774 -0.45415,-0.98921 -1.11883,-1.7534 -1.99219,-2.29297 C 130.44489,134.26902 129.41422,134 128.20898,134 Z m 14.03907,0 c -1.56658,0 -2.83774,0.33258 -3.8125,0.99805 -0.95736,0.66546 -1.43555,1.609 -1.43555,2.83203 0,0.79136 0.17336,1.43976 0.52148,1.94336 0.34814,0.5036 0.84425,0.93521 1.48829,1.29492 0.64404,0.35971 1.41908,0.72036 2.32421,1.08008 0.92255,0.35971 1.62786,0.68293 2.11524,0.9707 0.50479,0.28777 0.85345,0.57552 1.04492,0.86328 0.19147,0.28778 0.28711,0.61099 0.28711,0.9707 0,0.64749 -0.26101,1.16877 -0.7832,1.56446 -0.5222,0.37769 -1.36697,0.5664 -2.53321,0.5664 -0.8181,0 -1.62703,-0.11579 -2.42773,-0.3496 -0.78329,-0.2518 -1.45471,-0.52278 -2.01172,-0.81055 v 2.1582 c 0.5396,0.28777 1.15921,0.51392 1.85547,0.67578 0.71366,0.16188 1.55649,0.24219 2.53125,0.24219 1.70583,0 3.06464,-0.36065 4.07422,-1.08008 C 146.4959,147.2005 147,146.14116 147,144.73828 c 0,-0.77338 -0.16537,-1.41241 -0.49609,-1.91601 -0.33073,-0.52158 -0.80892,-0.96256 -1.43555,-1.32227 -0.62663,-0.35971 -1.38375,-0.71101 -2.27148,-1.05273 -0.88773,-0.35972 -1.60103,-0.66423 -2.14063,-0.91602 -0.52219,-0.26979 -0.89677,-0.54076 -1.12305,-0.81055 -0.22628,-0.28776 -0.33984,-0.6297 -0.33984,-1.02539 0,-0.53956 0.24309,-0.96182 0.73047,-1.26758 0.50478,-0.32374 1.22802,-0.48437 2.16797,-0.48437 0.67885,0 1.34033,0.0897 1.98437,0.26953 0.64404,0.17985 1.2617,0.39468 1.85352,0.64649 l 0.7832,-1.88868 c -0.64403,-0.30575 -1.34136,-0.5393 -2.08984,-0.70117 C 143.89198,134.08968 143.10097,134 142.24805,134 Z m 13,0 c -1.56658,0 -2.83774,0.33258 -3.8125,0.99805 -0.95736,0.66546 -1.43555,1.609 -1.43555,2.83203 0,0.79136 0.17336,1.43976 0.52148,1.94336 0.34814,0.5036 0.84425,0.93521 1.48829,1.29492 0.64404,0.35971 1.41908,0.72036 2.32421,1.08008 0.92255,0.35971 1.62786,0.68293 2.11524,0.9707 0.50479,0.28777 0.85345,0.57552 1.04492,0.86328 0.19147,0.28778 0.28711,0.61099 0.28711,0.9707 0,0.64749 -0.26101,1.16877 -0.7832,1.56446 -0.5222,0.37769 -1.36697,0.5664 -2.53321,0.5664 -0.8181,0 -1.62703,-0.11579 -2.42773,-0.3496 -0.78329,-0.2518 -1.45471,-0.52278 -2.01172,-0.81055 v 2.1582 c 0.5396,0.28777 1.15921,0.51392 1.85547,0.67578 0.71366,0.16188 1.55649,0.24219 2.53125,0.24219 1.70583,0 3.06464,-0.36065 4.07422,-1.08008 C 159.4959,147.2005 160,146.14116 160,144.73828 c 0,-0.77338 -0.16537,-1.41241 -0.49609,-1.91601 -0.33073,-0.52158 -0.80892,-0.96256 -1.43555,-1.32227 -0.62663,-0.35971 -1.38375,-0.71101 -2.27148,-1.05273 -0.88773,-0.35972 -1.60103,-0.66423 -2.14063,-0.91602 -0.52219,-0.26979 -0.89677,-0.54076 -1.12305,-0.81055 -0.22628,-0.28776 -0.33984,-0.6297 -0.33984,-1.02539 0,-0.53956 0.24309,-0.96182 0.73047,-1.26758 0.50478,-0.32374 1.22802,-0.48437 2.16797,-0.48437 0.67885,0 1.34033,0.0897 1.98437,0.26953 0.64404,0.17985 1.2617,0.39468 1.85352,0.64649 l 0.7832,-1.88868 c -0.64403,-0.30575 -1.34136,-0.5393 -2.08984,-0.70117 C 156.89198,134.08968 156.10097,134 155.24805,134 Z m -27.06446,1.94336 c 1.1703,0 2.02687,0.38482 2.56836,1.1582 0.54149,0.75539 0.82039,1.67542 0.83789,2.89844 h -7.15234 c 0.12227,-1.29496 0.49618,-2.23174 1.125,-2.95117 0.64629,-0.73741 1.52065,-1.10547 2.62109,-1.10547 z M 101.5918,136 c 1.50001,0 2.60499,0.49238 3.31445,1.47852 0.72974,0.98615 1.09375,2.30551 1.09375,3.95507 0,1.07579 -0.16201,2.03425 -0.48633,2.87696 -0.30406,0.82478 -0.78105,1.47878 -1.42969,1.96289 -0.62839,0.4841 -1.4384,0.72656 -2.43164,0.72656 -1.78377,0 -3.010765,-0.47549 -3.679684,-1.42578 C 97.324008,144.60601 97,143.23405 97,141.45898 v -0.45703 c 0.04054,-1.68541 0.395533,-2.94086 1.064453,-3.76562 C 98.753642,136.41155 99.929649,136 101.5918,136 Z" />
  <path
     id="path7624"
     style="font-size:27.09px;line-height:1.25;fill:#ffffff;stroke-width:0.664311"
     d="M 39.433594 129 L 32 148 L 34.423828 148 L 36.689453 142.14453 L 44.230469 142.14453 L 46.521484 148 L 49 148 L 41.591797 129 L 39.433594 129 z M 51 129 L 51 148 L 53 148 L 53 129 L 51 129 z M 58.957031 129 C 58.69535 129.00977 58.473054 129.09375 58.291016 129.25 C 58.096841 129.40476 58 129.65476 58 130 C 58 130.33333 58.096841 130.58333 58.291016 130.75 C 58.48519 130.91667 58.724976 131 59.009766 131 C 59.268665 131 59.495278 130.91667 59.689453 130.75 C 59.896573 130.58333 60 130.33333 60 130 C 60 129.65476 59.896573 129.40476 59.689453 129.25 C 59.495278 129.08333 59.268665 129 59.009766 129 C 58.991966 129 58.974477 128.99935 58.957031 129 z M 65 129 L 65 148 L 76 148 L 76 146 L 67 146 L 67 139 L 75 139 L 75 137 L 67 137 L 67 131 L 76 131 L 76 129 L 65 129 z M 40.472656 131.46484 C 40.543712 131.67684 40.633651 131.98626 40.740234 132.39258 C 40.864581 132.78124 40.988934 133.16026 41.113281 133.53125 C 41.237626 133.90224 41.325613 134.15945 41.378906 134.30078 L 43.511719 140.02344 L 37.488281 140.02344 L 39.646484 134.30078 C 39.753068 134.00045 39.887 133.5924 40.046875 133.08008 C 40.20675 132.55009 40.34831 132.01249 40.472656 131.46484 z M 58 133 L 58 148 L 60 148 L 60 133 L 58 133 z M 79.238281 133 L 84.115234 140.33203 L 79 148 L 81.611328 148 L 85.513672 142.01172 L 89.363281 148 L 92 148 L 86.857422 140.33203 L 91.736328 133 L 89.125 133 L 85.513672 138.65234 L 81.875 133 L 79.238281 133 z M 101.97852 133 C 100.79255 133 99.844383 133.21314 99.132812 133.64062 C 98.421233 134.0681 97.846098 134.59339 97.408203 135.2168 L 97.298828 135.2168 L 96.970703 133.26758 L 95 133.26758 L 95 154 L 97.107422 154 L 97.107422 148.12305 C 97.107422 147.78462 97.089224 147.38302 97.052734 146.91992 C 97.01625 146.45681 96.979849 146.07428 96.943359 145.77148 L 97.107422 145.77148 C 97.527071 146.32365 98.402987 146.81275 99.132812 147.24023 C 99.880881 147.6499 100.81994 147.85547 101.95117 147.85547 C 103.77573 147.85547 105.23534 147.22361 106.33008 145.95898 C 107.44306 144.69435 108 142.8406 108 140.40039 C 108 137.92456 107.44306 136.07276 106.33008 134.84375 C 105.23534 133.61474 103.78483 133 101.97852 133 z M 118.18945 133 C 116.29833 133.0198 114.32491 134.42127 112.97266 135.9668 L 112.85742 135.9668 L 112.57031 133.27539 L 111 133.27539 L 111 148 L 113.0293 148 L 113.0293 140.14258 C 113.0443 138.22155 113.94862 136.81721 115.80273 135.83008 C 116.49282 135.40883 117.22969 135.19727 118.01562 135.19727 C 118.284 135.19727 118.56207 135.21525 118.84961 135.25195 C 119.15632 135.28859 119.43438 135.33572 119.68359 135.39062 L 120 133.16406 C 119.7508 133.10917 119.45443 133.07299 119.10938 133.05469 C 118.7835 133.01799 118.47699 133 118.18945 133 z M 128.20898 133 C 126.9688 133 125.87682 133.30646 124.93359 133.91797 C 124.00782 134.52948 123.28378 135.40011 122.75977 136.5332 C 122.25322 137.66629 122 139.02469 122 140.60742 C 122 142.20814 122.27894 143.56653 122.83789 144.68164 C 123.41431 145.77877 124.20956 146.60651 125.22266 147.16406 C 126.25323 147.72161 127.43226 148 128.75977 148 C 129.72046 148 130.54936 147.91968 131.24805 147.75781 C 131.94674 147.61393 132.65493 147.38038 133.37109 147.05664 L 133.37109 144.97852 C 132.63746 145.30226 131.92135 145.55453 131.22266 145.73438 C 130.54143 145.89628 129.75606 145.97656 128.86523 145.97656 C 127.46785 145.97656 126.37587 145.55431 125.58984 144.70898 C 124.82128 143.84567 124.41967 142.63669 124.38477 141 L 134 141 L 134 139.5293 C 134 138.21635 133.76458 137.07278 133.29297 136.10156 C 132.83882 135.11235 132.17414 134.34816 131.30078 133.80859 C 130.44489 133.26902 129.41422 133 128.20898 133 z M 142.24805 133 C 140.68147 133 139.41031 133.33258 138.43555 133.99805 C 137.47819 134.66351 137 135.60705 137 136.83008 C 137 137.62144 137.17336 138.26984 137.52148 138.77344 C 137.86962 139.27704 138.36573 139.70865 139.00977 140.06836 C 139.65381 140.42807 140.42885 140.78872 141.33398 141.14844 C 142.25653 141.50815 142.96184 141.83137 143.44922 142.11914 C 143.95401 142.40691 144.30267 142.69466 144.49414 142.98242 C 144.68561 143.2702 144.78125 143.59341 144.78125 143.95312 C 144.78125 144.60061 144.52024 145.12189 143.99805 145.51758 C 143.47585 145.89527 142.63108 146.08398 141.46484 146.08398 C 140.64674 146.08398 139.83781 145.96819 139.03711 145.73438 C 138.25382 145.48258 137.5824 145.2116 137.02539 144.92383 L 137.02539 147.08203 C 137.56499 147.3698 138.1846 147.59595 138.88086 147.75781 C 139.59452 147.91969 140.43735 148 141.41211 148 C 143.11794 148 144.47675 147.63935 145.48633 146.91992 C 146.4959 146.2005 147 145.14116 147 143.73828 C 147 142.9649 146.83463 142.32587 146.50391 141.82227 C 146.17318 141.30069 145.69499 140.85971 145.06836 140.5 C 144.44173 140.14029 143.68461 139.78899 142.79688 139.44727 C 141.90915 139.08755 141.19585 138.78304 140.65625 138.53125 C 140.13406 138.26146 139.75948 137.99049 139.5332 137.7207 C 139.30692 137.43294 139.19336 137.091 139.19336 136.69531 C 139.19336 136.15575 139.43645 135.73349 139.92383 135.42773 C 140.42861 135.10399 141.15185 134.94336 142.0918 134.94336 C 142.77065 134.94336 143.43213 135.03304 144.07617 135.21289 C 144.72021 135.39274 145.33787 135.60757 145.92969 135.85938 L 146.71289 133.9707 C 146.06886 133.66495 145.37153 133.4314 144.62305 133.26953 C 143.89198 133.08968 143.10097 133 142.24805 133 z M 155.24805 133 C 153.68147 133 152.41031 133.33258 151.43555 133.99805 C 150.47819 134.66351 150 135.60705 150 136.83008 C 150 137.62144 150.17336 138.26984 150.52148 138.77344 C 150.86962 139.27704 151.36573 139.70865 152.00977 140.06836 C 152.65381 140.42807 153.42885 140.78872 154.33398 141.14844 C 155.25653 141.50815 155.96184 141.83137 156.44922 142.11914 C 156.95401 142.40691 157.30267 142.69466 157.49414 142.98242 C 157.68561 143.2702 157.78125 143.59341 157.78125 143.95312 C 157.78125 144.60061 157.52024 145.12189 156.99805 145.51758 C 156.47585 145.89527 155.63108 146.08398 154.46484 146.08398 C 153.64674 146.08398 152.83781 145.96819 152.03711 145.73438 C 151.25382 145.48258 150.5824 145.2116 150.02539 144.92383 L 150.02539 147.08203 C 150.56499 147.3698 151.1846 147.59595 151.88086 147.75781 C 152.59452 147.91969 153.43735 148 154.41211 148 C 156.11794 148 157.47675 147.63935 158.48633 146.91992 C 159.4959 146.2005 160 145.14116 160 143.73828 C 160 142.9649 159.83463 142.32587 159.50391 141.82227 C 159.17318 141.30069 158.69499 140.85971 158.06836 140.5 C 157.44173 140.14029 156.68461 139.78899 155.79688 139.44727 C 154.90915 139.08755 154.19585 138.78304 153.65625 138.53125 C 153.13406 138.26146 152.75948 137.99049 152.5332 137.7207 C 152.30692 137.43294 152.19336 137.091 152.19336 136.69531 C 152.19336 136.15575 152.43645 135.73349 152.92383 135.42773 C 153.42861 135.10399 154.15185 134.94336 155.0918 134.94336 C 155.77065 134.94336 156.43213 135.03304 157.07617 135.21289 C 157.72021 135.39274 158.33787 135.60757 158.92969 135.85938 L 159.71289 133.9707 C 159.06886 133.66495 158.37153 133.4314 157.62305 133.26953 C 156.89198 133.08968 156.10097 133 155.24805 133 z M 128.18359 134.94336 C 129.35389 134.94336 130.21046 135.32818 130.75195 136.10156 C 131.29344 136.85695 131.57234 137.77698 131.58984 139 L 124.4375 139 C 124.55977 137.70504 124.93368 136.76826 125.5625 136.04883 C 126.20879 135.31142 127.08315 134.94336 128.18359 134.94336 z M 101.5918 135 C 103.09181 135 104.19679 135.49238 104.90625 136.47852 C 105.63599 137.46467 106 138.78403 106 140.43359 C 106 141.50938 105.83799 142.46784 105.51367 143.31055 C 105.20961 144.13533 104.73262 144.78933 104.08398 145.27344 C 103.45559 145.75754 102.64558 146 101.65234 146 C 99.86857 146 98.641575 145.52451 97.972656 144.57422 C 97.324008 143.60601 97 142.23405 97 140.45898 L 97 140.00195 C 97.04054 138.31654 97.395533 137.06109 98.064453 136.23633 C 98.753642 135.41155 99.929649 135 101.5918 135 z " />
</svg>
