<svg width="48" height="48" version="1" xmlns="http://www.w3.org/2000/svg">
 <rect transform="matrix(0,-1,-1,0,0,0)" x="-44" y="-44" width="40" height="40" rx="20" ry="20" style="fill:#3f3f3f;stroke-width:1.0000501"/>
 <path d="m24 4c-11.079 0-19.998 8.92-19.998 20 0 0.16772-4e-3 0.33329 0 0.5 0.2642-10.846 9.087-19.5 19.998-19.5s19.734 8.6536 19.998 19.5c4e-3 -0.16671 0-0.33228 0-0.5 0-11.08-8.919-20-19.998-20z" fill="#fff" opacity=".2" style="opacity:.1"/>
 <path d="m4.0117 24.5c-0.0041 0.167-0.0117 0.332-0.0117 0.5 0 11.08 8.92 20 20 20s20-8.92 20-20c0-0.168-8e-3 -0.333-0.012-0.5-0.264 10.846-9.076 19.5-19.988 19.5s-19.724-8.654-19.988-19.5z" opacity=".2"/>
 <path d="m21.262552 19.00038a1.2330132 1.3249775 0 0 0-1.262552 1.324269v9.351913a1.2330132 1.3249775 0 0 0 1.848546 1.146528l3.7699-2.336026 3.768122-2.339931a1.2330132 1.3249775 0 0 0 0-2.291102l-3.768122-2.339931-3.7699-2.336025a1.2330132 1.3249775 0 0 0-0.585994-0.179695z" style="fill:#000000;opacity:.2"/>
 <path d="m21.262552 18.00038a1.2330132 1.3249775 0 0 0-1.262552 1.324269v9.351913a1.2330132 1.3249775 0 0 0 1.848546 1.146528l3.7699-2.336026 3.768122-2.339931a1.2330132 1.3249775 0 0 0 0-2.291102l-3.768122-2.339931-3.7699-2.336025a1.2330132 1.3249775 0 0 0-0.585994-0.179695z" style="fill:#ffffff"/>
 <path d="m24 10c-7.726064 0-14 6.273936-14 14s6.273936 14 14 14 14-6.273936 14-14-6.273936-14-14-14zm0 1c7.185624 0 13 5.814376 13 13s-5.814376 13-13 13-13-5.814376-13-13 5.814376-13 13-13z" style="color-rendering:auto;color:#000000;dominant-baseline:auto;fill:#fdfdfd;font-feature-settings:normal;font-variant-alternates:normal;font-variant-caps:normal;font-variant-ligatures:normal;font-variant-numeric:normal;font-variant-position:normal;image-rendering:auto;isolation:auto;mix-blend-mode:normal;opacity:.2;shape-padding:0;shape-rendering:auto;solid-color:#000000;text-decoration-color:#000000;text-decoration-line:none;text-decoration-style:solid;text-indent:0;text-orientation:mixed;text-transform:none;white-space:normal"/>
 <path d="m24 9v3c6.645184 0 12 5.354816 12 12s-5.354816 12-12 12-12-5.354816-12-12h-3c0 8.266504 6.733496 15 15 15s15-6.733496 15-15-6.733496-15-15-15z" style="color-rendering:auto;color:#000000;dominant-baseline:auto;fill:#bababa;font-feature-settings:normal;font-variant-alternates:normal;font-variant-caps:normal;font-variant-ligatures:normal;font-variant-numeric:normal;font-variant-position:normal;image-rendering:auto;isolation:auto;mix-blend-mode:normal;shape-padding:0;shape-rendering:auto;solid-color:#000000;text-decoration-color:#000000;text-decoration-line:none;text-decoration-style:solid;text-indent:0;text-orientation:mixed;text-transform:none;white-space:normal"/>
 <circle cx="10.5" cy="24.5" r="3.5" style="fill:#000000;opacity:.2"/>
 <circle cx="10.5" cy="23.5" r="3.5" style="fill:#ffffff"/>
</svg>
