<?xml version="1.0" encoding="UTF-8" standalone="no"?>
<svg
   width="192"
   height="192"
   version="1"
   id="svg28"
   sodipodi:docname="apps_docs_viewer.svg"
   inkscape:version="1.1.1 (1:1.1+202109281949+c3084ef5ed)"
   xmlns:inkscape="http://www.inkscape.org/namespaces/inkscape"
   xmlns:sodipodi="http://sodipodi.sourceforge.net/DTD/sodipodi-0.dtd"
   xmlns="http://www.w3.org/2000/svg"
   xmlns:svg="http://www.w3.org/2000/svg"
   xmlns:rdf="http://www.w3.org/1999/02/22-rdf-syntax-ns#"
   xmlns:cc="http://creativecommons.org/ns#"
   xmlns:dc="http://purl.org/dc/elements/1.1/">
  <metadata
     id="metadata34">
    <rdf:RDF>
      <cc:Work
         rdf:about="">
        <dc:format>image/svg+xml</dc:format>
        <dc:type
           rdf:resource="http://purl.org/dc/dcmitype/StillImage" />
      </cc:Work>
    </rdf:RDF>
  </metadata>
  <defs
     id="defs32">
    <filter
       inkscape:collect="always"
       style="color-interpolation-filters:sRGB"
       id="filter20295"
       x="-0.11660816"
       y="-0.1005754"
       width="1.2332163"
       height="1.2011508">
      <feGaussianBlur
         inkscape:collect="always"
         stdDeviation="3.6116454"
         id="feGaussianBlur20297" />
    </filter>
    <filter
       inkscape:collect="always"
       style="color-interpolation-filters:sRGB"
       id="filter20343"
       x="-0.090405509"
       y="-0.073875304"
       width="1.180811"
       height="1.1477506">
      <feGaussianBlur
         inkscape:collect="always"
         stdDeviation="4.0156204"
         id="feGaussianBlur20345" />
    </filter>
    <filter
       inkscape:collect="always"
       style="color-interpolation-filters:sRGB"
       id="filter20347"
       x="-0.08377442"
       y="-0.068223036"
       width="1.1675488"
       height="1.1364461">
      <feGaussianBlur
         inkscape:collect="always"
         stdDeviation="3.6875024"
         id="feGaussianBlur20349" />
    </filter>
    <filter
       inkscape:collect="always"
       style="color-interpolation-filters:sRGB"
       id="filter20351"
       x="-0.087527974"
       y="-0.071103805"
       width="1.1750559"
       height="1.1422076">
      <feGaussianBlur
         inkscape:collect="always"
         stdDeviation="3.8594698"
         id="feGaussianBlur20353" />
    </filter>
    <filter
       inkscape:collect="always"
       style="color-interpolation-filters:sRGB"
       id="filter20355"
       x="-0.087645363"
       y="-0.071663874"
       width="1.1752907"
       height="1.1433277">
      <feGaussianBlur
         inkscape:collect="always"
         stdDeviation="3.8749487"
         id="feGaussianBlur20357" />
    </filter>
  </defs>
  <sodipodi:namedview
     pagecolor="#ffffff"
     bordercolor="#666666"
     borderopacity="1"
     objecttolerance="10"
     gridtolerance="10"
     guidetolerance="10"
     inkscape:pageopacity="0"
     inkscape:pageshadow="2"
     inkscape:window-width="1920"
     inkscape:window-height="1016"
     id="namedview30"
     showgrid="false"
     inkscape:zoom="1"
     inkscape:cx="55.5"
     inkscape:cy="20.5"
     inkscape:window-x="0"
     inkscape:window-y="32"
     inkscape:window-maximized="1"
     inkscape:current-layer="svg28"
     inkscape:pagecheckerboard="0"
     inkscape:snap-global="false"
     showguides="false"
     inkscape:snap-bbox="true"
     inkscape:snap-bbox-midpoints="true">
    <inkscape:grid
       type="xygrid"
       id="grid841" />
  </sodipodi:namedview>
  <rect
     style="opacity:0.2;fill:#000000;fill-opacity:1;stroke-width:5.96141;stroke-linecap:round;stroke-linejoin:round;filter:url(#filter20343)"
     id="rect20299"
     width="106.60289"
     height="130.45616"
     x="50.956657"
     y="36.547195"
     rx="12.040601"
     transform="matrix(0.99375294,-0.11160238,0.11194436,0.99371448,0,0)" />
  <rect
     style="opacity:1;fill:#26aa16;fill-opacity:1;stroke-width:5.96141;stroke-linecap:round;stroke-linejoin:round"
     id="rect5311"
     width="106.60289"
     height="130.45616"
     x="51.180546"
     y="34.559689"
     rx="12.040601"
     transform="matrix(0.99375294,-0.11160238,0.11194436,0.99371448,0,0)" />
  <rect
     style="opacity:0.2;fill:#000000;fill-opacity:1;stroke-width:5.91771;stroke-linecap:round;stroke-linejoin:round;filter:url(#filter20347)"
     id="rect20301"
     width="105.64091"
     height="129.72166"
     x="51.518829"
     y="34.783829"
     rx="11.931948"
     transform="matrix(0.99999418,0.00341108,-0.00339808,0.99999423,0,0)" />
  <rect
     style="opacity:1;fill:#ffd119;fill-opacity:1;stroke-width:5.91771;stroke-linecap:round;stroke-linejoin:round"
     id="rect5309"
     width="105.64091"
     height="129.72166"
     x="51.512032"
     y="32.78384"
     rx="11.931948"
     transform="matrix(0.99999418,0.00341108,-0.00339808,0.99999423,0,0)" />
  <rect
     style="opacity:0.2;fill:#000000;fill-opacity:1;stroke-width:5.93541;stroke-linecap:round;stroke-linejoin:round;filter:url(#filter20351)"
     id="rect20303"
     width="105.82591"
     height="130.27049"
     x="41.328861"
     y="36.889778"
     rx="11.952841"
     transform="matrix(0.99819771,0.06001108,-0.05948573,0.99822916,0,0)" />
  <rect
     style="opacity:1;fill:#e53a3b;fill-opacity:1;stroke-width:5.93541;stroke-linecap:round;stroke-linejoin:round"
     id="rect5200"
     width="105.82591"
     height="130.27049"
     x="41.209888"
     y="34.893383"
     rx="11.952841"
     transform="matrix(0.99819771,0.06001108,-0.05948573,0.99822916,0,0)" />
  <rect
     style="opacity:0.2;fill:#000000;fill-opacity:1;stroke-width:5.93191;stroke-linecap:round;stroke-linejoin:round;filter:url(#filter20355)"
     id="rect20305"
     width="106.10803"
     height="129.77078"
     x="15.026508"
     y="48.397072"
     rx="11.984708"
     transform="matrix(0.99778454,-0.06652821,0.06681284,0.99776553,0,0)" />
  <rect
     style="opacity:1;fill:#438cf9;fill-opacity:1;stroke-width:5.93191;stroke-linecap:round;stroke-linejoin:round"
     id="rect1367"
     width="106.10803"
     height="129.77078"
     x="15.160134"
     y="46.401505"
     rx="11.984708"
     transform="matrix(0.99778454,-0.06652821,0.06681284,0.99776553,0,0)" />
  <path
     id="rect20244"
     style="opacity:0.2;fill:#000000;stroke-width:5.98599;stroke-linecap:round;stroke-linejoin:round;filter:url(#filter20295)"
     d="m 105.39258,71.894411 -44.541018,2.96875 0.527344,7.873047 44.541014,-2.970703 z m -58.031252,0.390625 -3.076172,0.205078 -8.755859,28.062496 3.453125,-0.23046 2.748047,-7.35352 10.742187,-0.716797 3.742188,6.921875 3.529297,-0.234375 z m -1.357422,3.65625 c 0.121651,0.298479 0.277754,0.733697 0.46875,1.308594 0.214594,0.547775 0.427733,1.08313 0.640625,1.605469 0.212892,0.522339 0.365538,0.883607 0.455078,1.082031 l 3.673829,9.330078 -8.578126,0.572266 2.4375,-9.738282 c 0.122866,-0.442529 0.272835,-1.04015 0.451172,-1.792968 0.176634,-0.778254 0.326847,-1.566874 0.451172,-2.367188 z m 60.375004,10.675782 -44.541019,2.96875 0.527343,7.873046 44.541016,-2.96875 z m 0.98437,14.722652 -70.441405,4.69727 0.527344,7.87305 70.441401,-4.69727 z m 0.98633,14.72266 -70.441407,4.69727 0.527344,7.87304 70.441403,-4.69726 z m 0.98633,14.72266 -70.441409,4.69726 0.527344,7.87305 70.441405,-4.69727 z m -24.822268,16.44531 -44.634766,2.97461 0.527344,7.87304 44.634766,-2.97656 z" />
  <rect
     style="opacity:1;fill:#ffffff;stroke-width:5.98599;stroke-linecap:round;stroke-linejoin:round"
     id="rect1701"
     width="44.639736"
     height="7.8903608"
     x="55.847206"
     y="76.750488"
     transform="matrix(0.99778454,-0.06652821,0.06681284,0.99776553,0,0)" />
  <rect
     style="opacity:1;fill:#ffffff;stroke-width:5.98599;stroke-linecap:round;stroke-linejoin:round"
     id="rect1783"
     width="44.639736"
     height="7.8903608"
     x="55.847206"
     y="91.506508"
     transform="matrix(0.99778454,-0.06652821,0.06681284,0.99776553,0,0)" />
  <rect
     style="opacity:1;fill:#ffffff;stroke-width:7.52788;stroke-linecap:round;stroke-linejoin:round"
     id="rect1787"
     width="70.598259"
     height="7.8903608"
     x="29.888687"
     y="106.26252"
     transform="matrix(0.99778454,-0.06652821,0.06681284,0.99776553,0,0)" />
  <rect
     style="opacity:1;fill:#ffffff;stroke-width:7.52788;stroke-linecap:round;stroke-linejoin:round"
     id="rect1871"
     width="70.598259"
     height="7.8903608"
     x="29.888687"
     y="121.01857"
     transform="matrix(0.99778454,-0.06652821,0.06681284,0.99776553,0,0)" />
  <rect
     style="opacity:1;fill:#ffffff;stroke-width:7.52788;stroke-linecap:round;stroke-linejoin:round"
     id="rect1955"
     width="70.598259"
     height="7.8903608"
     x="29.888687"
     y="135.77458"
     transform="matrix(0.99778454,-0.06652821,0.06681284,0.99776553,0,0)" />
  <rect
     style="opacity:1;fill:#ffffff;stroke-width:5.99229;stroke-linecap:round;stroke-linejoin:round"
     id="rect2039"
     width="44.733894"
     height="7.8903608"
     x="29.888687"
     y="150.53062"
     transform="matrix(0.99778454,-0.06652821,0.06681284,0.99776553,0,0)" />
  <path
     d="m 56.21392,97.173845 -3.742188,-6.921411 -10.741304,0.716186 -2.748138,7.354162 -3.453918,0.23029 8.757654,-28.062108 3.074367,-0.204986 12.383354,26.652513 z m -4.971366,-9.905361 -3.674831,-9.331565 c -0.08954,-0.198424 -0.24075,-0.558804 -0.453642,-1.081143 -0.212892,-0.522339 -0.426636,-1.057396 -0.64123,-1.605171 -0.190996,-0.574897 -0.34732,-1.011585 -0.468971,-1.310064 -0.124325,0.800314 -0.274804,1.589599 -0.451438,2.367853 -0.178337,0.752818 -0.328939,1.350492 -0.451804,1.793021 l -2.435944,9.739005 z"
     id="path4969"
     sodipodi:nodetypes="cccccccccccscccccc"
     style="font-size:38.2283px;line-height:1.25;opacity:1;fill:#ffffff;stroke-width:0.953476" />
  <path
     id="rect20359"
     style="opacity:0.2;fill:#ffffff;fill-opacity:1;stroke-width:5.93191;stroke-linecap:round;stroke-linejoin:round"
     d="M 113.37109 39.007812 C 112.9654 38.994002 112.55468 38.999737 112.14062 39.027344 L 30.185547 44.492188 C 23.692171 44.925139 18.796027 50.402233 19.021484 56.857422 C 19.305031 50.845162 24.029908 45.90262 30.185547 45.492188 L 112.14062 40.027344 C 118.76544 39.585628 124.45678 44.562808 124.90039 51.1875 L 131.96875 156.75391 C 131.97779 156.88885 131.97199 157.02016 131.97656 157.1543 C 131.9988 156.69225 132.00043 156.22707 131.96875 155.75391 L 124.90039 50.1875 C 124.48451 43.976851 119.45657 39.214969 113.37109 39.007812 z " />
</svg>
