<?xml version="1.0" encoding="UTF-8" standalone="no"?>
<svg
   width="192"
   height="192"
   version="1"
   id="svg28"
   sodipodi:docname="apps_hue.svg"
   inkscape:version="1.1.1 (1:1.1+202109281949+c3084ef5ed)"
   xmlns:inkscape="http://www.inkscape.org/namespaces/inkscape"
   xmlns:sodipodi="http://sodipodi.sourceforge.net/DTD/sodipodi-0.dtd"
   xmlns="http://www.w3.org/2000/svg"
   xmlns:svg="http://www.w3.org/2000/svg"
   xmlns:rdf="http://www.w3.org/1999/02/22-rdf-syntax-ns#"
   xmlns:cc="http://creativecommons.org/ns#"
   xmlns:dc="http://purl.org/dc/elements/1.1/">
  <metadata
     id="metadata34">
    <rdf:RDF>
      <cc:Work
         rdf:about="">
        <dc:format>image/svg+xml</dc:format>
        <dc:type
           rdf:resource="http://purl.org/dc/dcmitype/StillImage" />
      </cc:Work>
    </rdf:RDF>
  </metadata>
  <defs
     id="defs32">
    <filter
       inkscape:collect="always"
       style="color-interpolation-filters:sRGB"
       id="filter10989"
       x="-0.048000001"
       y="-0.048000001"
       width="1.096"
       height="1.096">
      <feGaussianBlur
         inkscape:collect="always"
         stdDeviation="3.2"
         id="feGaussianBlur10991" />
    </filter>
    <filter
       inkscape:collect="always"
       style="color-interpolation-filters:sRGB"
       id="filter2784"
       x="-0.034400001"
       y="-0.079384617"
       width="1.0688"
       height="1.1587692">
      <feGaussianBlur
         inkscape:collect="always"
         stdDeviation="1.72"
         id="feGaussianBlur2786" />
    </filter>
  </defs>
  <sodipodi:namedview
     pagecolor="#ffffff"
     bordercolor="#666666"
     borderopacity="1"
     objecttolerance="10"
     gridtolerance="10"
     guidetolerance="10"
     inkscape:pageopacity="0"
     inkscape:pageshadow="2"
     inkscape:window-width="1920"
     inkscape:window-height="1019"
     id="namedview30"
     showgrid="false"
     inkscape:zoom="1"
     inkscape:cx="112.5"
     inkscape:cy="84.5"
     inkscape:window-x="0"
     inkscape:window-y="34"
     inkscape:window-maximized="1"
     inkscape:current-layer="svg28"
     inkscape:pagecheckerboard="0"
     inkscape:snap-bbox="true"
     inkscape:snap-bbox-midpoints="true">
    <inkscape:grid
       type="xygrid"
       id="grid841" />
  </sodipodi:namedview>
  <rect
     id="rect10910"
     transform="matrix(0,-1,-1,0,0,0)"
     ry="24"
     rx="24"
     y="-176"
     x="-180"
     height="160"
     width="160"
     style="opacity:0.2;fill:#000000;fill-opacity:1;stroke-width:4;filter:url(#filter10989)" />
  <rect
     id="rect2"
     transform="matrix(0,-1,-1,0,0,0)"
     ry="24"
     rx="24"
     y="-176"
     x="-176"
     height="160"
     width="160"
     style="fill:#4f4f4f;fill-opacity:1;stroke-width:4" />
  <path
     id="path2733"
     style="opacity:0.2;fill:#000000;fill-opacity:1;stroke-width:4.95135;filter:url(#filter2784)"
     d="M 38.601562,68 C 36.997552,68 36,69.07024 36,70.798828 V 99 h 5 v -0.07422 C 41,92.703863 44.817962,86.013672 52.757812,86.013672 59.223979,86.013672 63,90.138653 63,97.630859 V 99 h 5 V 97.775391 C 68,87.593164 63.123614,81.982422 54.271484,81.982422 c -8.320804,0 -11.579701,5.34067 -12.386718,6.974609 L 41,90.341797 V 70.798828 C 41,69.07024 40.210586,68 38.601562,68 Z M 80.501953,82 C 78.957197,82 78,83.099438 78,84.867188 V 99 h 5 V 84.867188 C 83,83.099438 82.041895,82 80.501953,82 Z m 26.999997,0 C 105.95719,82 105,83.099438 105,84.867188 V 99 h 5 V 84.867188 C 110,83.099438 109.04189,82 107.50195,82 Z m 32,0 C 129.37429,82 122.12744,88.859343 121.25,99 h -3.29102 C 116.73454,99 116,99.783526 116,100.98242 c 0,1.1989 0.73454,1.95508 1.95898,1.95508 h 3.2754 c 0.75348,10.44038 8.18994,17.0625 19.4082,17.0625 4.67964,0 8.65208,-0.7201 11.85937,-2.26367 0.78329,-0.37466 1.67229,-1.08273 1.44922,-2.35156 -0.0565,-0.49456 -0.32973,-0.93799 -0.74414,-1.20899 -0.51556,-0.3247 -1.23915,-0.35938 -2.0918,-0.0996 -0.58622,0.18604 -1.16917,0.38608 -1.74609,0.59961 -2.05234,0.72932 -4.12196,1.36328 -8.22656,1.36328 -8.67518,0 -14.41469,-5.07383 -14.63281,-12.97656 v -0.125 h 26.98632 c 1.55162,0 2.43952,-0.85599 2.50391,-2.34961 v -0.28906 C 155.97026,83.324465 143.36861,82 139.50195,82 Z m 0.25782,4 c 5.67,0 11.73437,3.37774 11.73437,12.851562 V 99 h -25 l 0.0195,-0.171875 C 127.11864,91.036015 132.31976,86 139.75977,86 Z M 36,103 v 14.13281 C 36,118.90056 36.957197,120 38.501953,120 40.041895,120 41,118.90056 41,117.13281 V 103 Z m 27,0 v 14.13281 C 63,118.90056 63.957197,120 65.501953,120 67.041895,120 68,118.90056 68,117.13281 V 103 Z m 15,0 v 1.68945 C 78,114.85071 82.848384,120 92.408203,120 c 5.626372,0 9.759717,-2.413 12.271487,-7.17578 L 105,112.64453 v 4.27539 c 0,1.65878 0.75099,2.65235 2.38867,2.65235 1.63265,0 2.61133,-0.99357 2.61133,-2.65235 V 103 h -5 v 1.26172 c 0,6.57552 -4.98763,11.72461 -11.076172,11.72461 C 86.725087,115.98633 83,112.19764 83,104.40039 V 103 Z" />
  <path
     id="rect10948"
     style="fill:#ffffff;fill-opacity:1;stroke-width:4;opacity:0.1"
     d="M 40 16 C 26.704 16 16 26.704 16 40 L 16 41 C 16 27.704 26.704 17 40 17 L 152 17 C 165.296 17 176 27.704 176 41 L 176 40 C 176 26.704 165.296 16 152 16 L 40 16 z " />
  <path
     style="stroke-width:4.95135;fill:#fd7c14;fill-opacity:1"
     d="m 36.000003,115.13186 c 0,1.76775 0.957651,2.86814 2.502407,2.86814 1.539942,0 2.497593,-1.10039 2.497593,-2.86814 V 101 h -5 z"
     id="path1038" />
  <path
     style="stroke-width:4.997;fill:#f04738;fill-opacity:1"
     d="m 54.270681,79.983124 c -8.320804,0 -11.578949,5.34019 -12.385966,6.974129 L 41,88.342116 V 68.799612 c 0,-1.728588 -0.78947,-2.799615 -2.398493,-2.799615 -1.60401,0 -2.601504,1.071027 -2.601504,2.799615 V 96.999997 H 41 v -0.07472 c 0,-6.221918 3.817046,-12.9121 11.756896,-12.9121 C 59.223062,84.013177 63,88.137876 63,95.630082 V 97 h 5.000003 v -1.225454 c 0,-10.182227 -4.877192,-15.791419 -13.729322,-15.791419 z"
     id="path1036"
     sodipodi:nodetypes="sccsssccsscccsss" />
  <path
     style="stroke-width:4.99489;fill:#8ccd40;fill-opacity:1"
     d="m 105,102.26147 c 0,6.57552 -4.98681,11.72568 -11.075348,11.72568 C 86.725911,113.98715 83,110.19778 83,102.40053 V 101 h -5 v 1.68858 C 78,112.84984 82.847723,118 92.407542,118 c 5.626372,0 9.760748,-2.41367 12.272518,-7.17645 L 105,110.64476 v 4.27607 c 0,1.65878 0.75008,2.65206 2.38776,2.65206 1.63265,0 2.61224,-0.99328 2.61224,-2.65206 V 101 h -5 z"
     id="path1032"
     sodipodi:nodetypes="sscccssccsssccs" />
  <path
     id="path4"
     style="stroke-width:4.97629;fill:#2196f3;fill-opacity:1"
     d="M 139.50195 80 C 129.37429 80 122.12744 86.859343 121.25 97 L 117.95898 97 C 116.73454 97 116 97.783526 116 98.982422 C 116 100.18132 116.73454 100.9375 117.95898 100.9375 L 121.23438 100.9375 C 121.98787 111.37788 129.42432 118 140.64258 118 C 145.32222 118 149.29466 117.2799 152.50195 115.73633 C 153.28524 115.36167 154.17424 114.6536 153.95117 113.38477 C 153.89467 112.89021 153.62144 112.44678 153.20703 112.17578 C 152.69147 111.85108 151.96788 111.8164 151.11523 112.07617 C 150.52901 112.26221 149.94606 112.46225 149.36914 112.67578 C 147.3168 113.4051 145.24718 114.03906 141.14258 114.03906 C 132.4674 114.03906 126.72789 108.96523 126.50977 101.0625 L 126.50977 100.9375 L 153.49609 100.9375 C 155.04771 100.9375 155.93561 100.08151 156 98.587891 L 156 98.298828 C 155.97026 81.324465 143.36861 80 139.50195 80 z M 139.75977 84 C 145.42977 84 151.49414 87.377739 151.49414 96.851562 L 151.49414 97 L 126.49414 97 L 126.51367 96.828125 C 127.11864 89.036015 132.31976 84 139.75977 84 z " />
  <path
     style="stroke-width:4.95135;fill:#fd7c14;fill-opacity:1"
     d="M 63,115.13186 C 63,116.89961 63.957651,118 65.502407,118 67.042349,118 68,116.89961 68,115.13186 V 101 h -5 z"
     id="path1140" />
  <path
     style="stroke-width:4.95135;fill:#ffeb3b;fill-opacity:1"
     d="M 78,82.86814 C 78,81.10039 78.957651,80 80.502407,80 82.042349,80 83,81.10039 83,82.86814 V 97 h -5 z"
     id="path1488" />
  <path
     style="stroke-width:4.95135;fill:#ffeb3b;fill-opacity:1"
     d="M 105,82.86814 C 105,81.10039 105.95765,80 107.50241,80 109.04235,80 110,81.10039 110,82.86814 V 97 h -5 z"
     id="path1570" />
</svg>
