<?xml version="1.0" encoding="UTF-8" standalone="no"?>
<svg
   width="192"
   height="192"
   version="1"
   id="svg12"
   sodipodi:docname="apps_e_titulo.svg"
   inkscape:version="1.1.1 (1:1.1+202109281949+c3084ef5ed)"
   xmlns:inkscape="http://www.inkscape.org/namespaces/inkscape"
   xmlns:sodipodi="http://sodipodi.sourceforge.net/DTD/sodipodi-0.dtd"
   xmlns="http://www.w3.org/2000/svg"
   xmlns:svg="http://www.w3.org/2000/svg"
   xmlns:rdf="http://www.w3.org/1999/02/22-rdf-syntax-ns#"
   xmlns:cc="http://creativecommons.org/ns#"
   xmlns:dc="http://purl.org/dc/elements/1.1/">
  <metadata
     id="metadata18">
    <rdf:RDF>
      <cc:Work
         rdf:about="">
        <dc:format>image/svg+xml</dc:format>
        <dc:type
           rdf:resource="http://purl.org/dc/dcmitype/StillImage" />
      </cc:Work>
    </rdf:RDF>
  </metadata>
  <defs
     id="defs16">
    <filter
       inkscape:collect="always"
       style="color-interpolation-filters:sRGB"
       id="filter955"
       x="-0.048000001"
       width="1.096"
       y="-0.048000001"
       height="1.096">
      <feGaussianBlur
         inkscape:collect="always"
         stdDeviation="3.2"
         id="feGaussianBlur957" />
    </filter>
    <filter
       inkscape:collect="always"
       style="color-interpolation-filters:sRGB"
       id="filter22355"
       x="-0.14502857"
       y="-0.086033899"
       width="1.2900571"
       height="1.1720678">
      <feGaussianBlur
         inkscape:collect="always"
         stdDeviation="4.23"
         id="feGaussianBlur22357" />
    </filter>
  </defs>
  <sodipodi:namedview
     pagecolor="#ffffff"
     bordercolor="#666666"
     borderopacity="1"
     objecttolerance="10"
     gridtolerance="10"
     guidetolerance="10"
     inkscape:pageopacity="0"
     inkscape:pageshadow="2"
     inkscape:window-width="1920"
     inkscape:window-height="1019"
     id="namedview14"
     showgrid="false"
     inkscape:zoom="1"
     inkscape:cx="104"
     inkscape:cy="64.5"
     inkscape:window-x="0"
     inkscape:window-y="34"
     inkscape:window-maximized="1"
     inkscape:current-layer="svg12"
     showguides="false"
     inkscape:document-rotation="0"
     inkscape:pagecheckerboard="0"
     inkscape:snap-bbox="true"
     inkscape:snap-bbox-midpoints="true"
     inkscape:snap-global="true">
    <inkscape:grid
       type="xygrid"
       id="grid852" />
  </sodipodi:namedview>
  <rect
     style="opacity:0.2;fill:#000000;fill-opacity:1;stroke-width:4;filter:url(#filter955)"
     width="160"
     height="160"
     x="16"
     y="20"
     rx="30"
     ry="30"
     id="rect953" />
  <rect
     style="fill:#1d77ef;fill-opacity:1;stroke-width:4"
     width="160"
     height="160"
     x="16"
     y="16"
     rx="30"
     ry="30"
     id="rect4" />
  <rect
     style="opacity:0.2;fill:#000000;fill-opacity:1;stroke-width:18.5333;stroke-linecap:round;stroke-linejoin:round;filter:url(#filter22355)"
     id="rect22317"
     width="70"
     height="118"
     x="61"
     y="39"
     rx="6.0181546" />
  <path
     id="rect959"
     style="fill:#ffffff;fill-opacity:1;stroke-width:4;opacity:0.2"
     d="M 46 16 C 29.38 16 16 29.38 16 46 L 16 47 C 16 30.38 29.38 17 46 17 L 146 17 C 162.62 17 176 30.38 176 47 L 176 46 C 176 29.38 162.62 16 146 16 L 46 16 z " />
  <rect
     style="opacity:1;fill:#004db2;fill-opacity:1;stroke-width:18.5333;stroke-linecap:round;stroke-linejoin:round"
     id="rect968"
     width="70"
     height="118"
     x="61"
     y="37"
     rx="6.0181546" />
  <rect
     style="opacity:1;fill:#ffffff;fill-opacity:1;stroke-width:16.1085;stroke-linecap:round;stroke-linejoin:round"
     id="rect22297"
     width="60"
     height="104"
     x="66"
     y="44"
     rx="5.1584187" />
  <path
     id="path1806"
     style="opacity:1;fill:#006eff;stroke-width:14.2166;stroke-linecap:round;stroke-linejoin:round;fill-opacity:1"
     d="M 91.5 66 C 87.910149 66 85 67.637379 85 74 C 85 78.418278 87.910149 82 91.5 82 C 95.089851 82 98 78.418278 98 74 C 98 66.829304 95.089851 66 91.5 66 z M 96.234375 82.324219 C 94.905953 83.374042 93.292518 84 91.5 84 C 89.834065 84 88.322458 83.459926 87.050781 82.541016 C 81.37697 84.28041 78.663293 85.068078 79.033203 95.769531 C 79.033203 95.769531 81.442674 99.02966 92.011719 99 C 102.58076 98.970345 104 95.769531 104 95.769531 C 104 84.883866 102.86415 84.41446 96.234375 82.324219 z M 98.833984 119.05273 C 98.34241 119.04942 97.848924 119.08769 97.359375 119.16992 C 94.748447 119.60848 92.269785 121.39988 91.0625 124.65234 A 1 1 0 0 0 91.652344 125.9375 A 1 1 0 0 0 92.9375 125.34766 C 93.927408 122.68081 95.717213 121.47222 97.691406 121.14062 C 99.6656 120.80903 101.84623 121.4566 103.3457 122.75586 A 1 1 0 0 0 104.75586 122.6543 A 1 1 0 0 0 104.6543 121.24414 C 103.0595 119.86229 100.96414 119.06711 98.833984 119.05273 z M 99.460938 122.56445 C 99.20243 122.56736 98.940284 122.58903 98.673828 122.62695 C 97.963279 122.7281 97.227911 122.95061 96.478516 123.2793 A 1 1 0 0 0 95.962891 124.59766 A 1 1 0 0 0 97.28125 125.11133 C 98.499011 124.57721 99.522404 124.47148 100.24414 124.64648 C 100.96588 124.82148 101.44555 125.21129 101.78516 126.01953 C 102.20958 127.02964 102 129.51281 102 132 A 1 1 0 0 0 103 133 A 1 1 0 0 0 104 132 C 104 129.69939 104.4586 127.21877 103.62891 125.24414 C 103.08076 123.93958 102.00618 123.01623 100.71484 122.70312 C 100.3113 122.60528 99.891783 122.55961 99.460938 122.56445 z M 95 126 A 1 1 0 0 0 94 127 L 94 132 A 1 1 0 0 0 95 133 A 1 1 0 0 0 96 132 L 96 127 A 1 1 0 0 0 95 126 z M 99 126 A 1 1 0 0 0 98 127 L 98 129 A 1 1 0 0 0 99 130 A 1 1 0 0 0 100 129 L 100 127 A 1 1 0 0 0 99 126 z M 106 126 A 1 1 0 0 0 105 127 L 105 130 A 1 1 0 0 0 106 131 A 1 1 0 0 0 107 130 L 107 127 A 1 1 0 0 0 106 126 z M 92 127 A 1 1 0 0 0 91 128 L 91 130 A 1 1 0 0 0 92 131 A 1 1 0 0 0 93 130 L 93 128 A 1 1 0 0 0 92 127 z M 99 131 A 1 1 0 0 0 98 132 L 98 134 A 1 1 0 0 0 99 135 A 1 1 0 0 0 100 134 L 100 132 A 1 1 0 0 0 99 131 z " />
  <path
     id="rect3276"
     style="opacity:1;fill:#349773;stroke-width:12.7896;stroke-linecap:round;stroke-linejoin:round;fill-opacity:1"
     d="M 99.910156,72 C 99.964609,72.631023 100,73.287703 100,74 c 0,0.686458 -0.06668,1.353816 -0.185547,2 H 114 c 0.554,0 1,-0.446 1,-1 v -2 c 0,-0.554 -0.446,-1 -1,-1 z m -1.121094,7 c -0.3104,0.602465 -0.66809,1.172153 -1.076171,1.695312 1.976876,0.612736 3.699989,1.225586 5.056639,2.304688 H 114 c 0.554,0 1,-0.446 1,-1 v -2 c 0,-0.554 -0.446,-1 -1,-1 z m 6.199218,7 c 0.44559,1.109267 0.69902,2.413069 0.83984,4 H 114 c 0.554,0 1,-0.446 1,-1 v -2 c 0,-0.554 -0.446,-1 -1,-1 z"
     sodipodi:nodetypes="cscssssccccsssscccssssc" />
</svg>
