<?xml version="1.0" encoding="UTF-8" standalone="no"?>
<svg
   width="192"
   height="192"
   version="1"
   id="svg14"
   sodipodi:docname="apps_safeincloud.svg"
   inkscape:version="1.1.1 (1:1.1+202109281949+c3084ef5ed)"
   xmlns:inkscape="http://www.inkscape.org/namespaces/inkscape"
   xmlns:sodipodi="http://sodipodi.sourceforge.net/DTD/sodipodi-0.dtd"
   xmlns="http://www.w3.org/2000/svg"
   xmlns:svg="http://www.w3.org/2000/svg"
   xmlns:rdf="http://www.w3.org/1999/02/22-rdf-syntax-ns#"
   xmlns:cc="http://creativecommons.org/ns#"
   xmlns:dc="http://purl.org/dc/elements/1.1/">
  <metadata
     id="metadata20">
    <rdf:RDF>
      <cc:Work
         rdf:about="">
        <dc:format>image/svg+xml</dc:format>
        <dc:type
           rdf:resource="http://purl.org/dc/dcmitype/StillImage" />
      </cc:Work>
    </rdf:RDF>
  </metadata>
  <defs
     id="defs18">
    <filter
       inkscape:collect="always"
       style="color-interpolation-filters:sRGB"
       id="filter850"
       x="-0.048000001"
       width="1.096"
       y="-0.048000001"
       height="1.096">
      <feGaussianBlur
         inkscape:collect="always"
         stdDeviation="3.2"
         id="feGaussianBlur852" />
    </filter>
    <filter
       inkscape:collect="always"
       style="color-interpolation-filters:sRGB"
       id="filter11152"
       x="-0.094745836"
       y="-0.12556564"
       width="1.1894917"
       height="1.2511313">
      <feGaussianBlur
         inkscape:collect="always"
         stdDeviation="4.3425167"
         id="feGaussianBlur11154" />
    </filter>
  </defs>
  <sodipodi:namedview
     pagecolor="#ffffff"
     bordercolor="#666666"
     borderopacity="1"
     objecttolerance="10"
     gridtolerance="10"
     guidetolerance="10"
     inkscape:pageopacity="0"
     inkscape:pageshadow="2"
     inkscape:window-width="1920"
     inkscape:window-height="1019"
     id="namedview16"
     showgrid="false"
     inkscape:zoom="1"
     inkscape:cx="107"
     inkscape:cy="102.5"
     inkscape:window-x="0"
     inkscape:window-y="34"
     inkscape:window-maximized="1"
     inkscape:current-layer="svg14"
     inkscape:pagecheckerboard="0"
     inkscape:snap-bbox="true"
     inkscape:snap-bbox-midpoints="true"
     inkscape:snap-global="true">
    <inkscape:grid
       type="xygrid"
       id="grid5193" />
  </sodipodi:namedview>
  <circle
     style="opacity:0.2;fill:#000000;stroke-width:4;filter:url(#filter850)"
     cx="96"
     cy="100"
     r="80"
     id="circle832" />
  <circle
     id="circle4"
     r="80"
     cy="96"
     cx="96"
     style="fill:#0091eb;stroke-width:4;fill-opacity:1" />
  <path
     style="fill:#38adfa"
     d="m 688.80525,256.99648 c -0.33229,-0.33229 -1.1948,-0.36781 -1.91667,-0.0789 -0.79773,0.31922 -0.56078,0.55618 0.60417,0.60416 1.05416,0.0434 1.64479,-0.19293 1.3125,-0.52522 z"
     id="path1063" />
  <path
     style="opacity:0.2;fill:#ffffff;stroke-width:4"
     d="M 96 16 A 80 80 0 0 0 16 96 A 80 80 0 0 0 16.019531 96.472656 A 80 80 0 0 1 96 17 A 80 80 0 0 1 175.97461 96.513672 A 80 80 0 0 0 176 96 A 80 80 0 0 0 96 16 z "
     id="path6" />
  <path
     id="path11114"
     style="opacity:0.2;fill:#000000;stroke-width:0.29823;filter:url(#filter11152)"
     d="m 86.636719,53.003906 c -6.954464,-0.116726 -12.660516,1.970716 -17.90625,5.94336 -2.960862,2.274111 -5.481798,5.054952 -7.371094,8.195312 -1.636859,2.720766 -3.589826,8.099415 -3.892578,10.716797 l -0.201172,1.728516 -1.392578,0.501953 c -3.771367,1.356606 -8.545174,5.335396 -11.019531,9.183594 -1.515184,2.356459 -2.881633,5.809519 -3.521485,8.902342 -0.553851,2.67713 -0.398993,7.3989 0.341797,10.46484 2.026413,8.38685 8.925731,15.41262 17.384766,17.70313 2.628778,0.71182 2.523977,0.74354 2.28125,-0.69922 -0.117477,-0.69829 -0.320756,-2.59053 -0.453125,-4.20312 -0.132369,-1.6126 -0.28806,-2.96164 -0.345703,-3 -0.05764,-0.0383 -1.109771,-0.56316 -2.337891,-1.16602 -5.259721,-2.58189 -8.372648,-7.13924 -8.927734,-13.06641 -0.302767,-3.23293 0.05946,-5.50913 1.304687,-8.191402 2.061809,-4.441247 5.980494,-7.792455 10.517578,-8.996094 2.436483,-0.646372 6.373599,-0.595299 8.642578,0.113282 l 1.636719,0.511718 1.736328,-2.298828 c -0.142145,-0.185101 -0.255116,-0.323788 -0.339843,-0.439453 -0.777103,-1.060837 -3.655563,-4.057582 -5.441407,-5.191406 -1.788399,-1.135443 -1.808737,-1.215269 -1.02539,-3.886719 1.384155,-4.720369 6.099266,-10.254547 10.652343,-12.5 3.814023,-1.880974 6.868926,-2.551746 10.714844,-2.353516 5.858898,0.301992 9.973461,2.140562 14.167972,6.330079 2.97892,2.975393 4.6108,5.727406 5.62695,9.49414 0.17006,0.630379 0.29172,1.064287 0.41406,1.369141 0.0857,0.213455 0.22653,0.532132 0.35938,0.830078 h 2.3789 c 0.24701,-0.30999 0.50614,-0.652549 0.64844,-0.847656 0.78242,-1.072744 1.79347,-2.963861 2.12891,-4.115235 l 0.39062,-1.84375 1.85352,-0.08984 c 3.49916,-0.169061 7.01629,1.328056 9.66211,4.111328 2.77247,2.916507 4.05466,6.791395 4.05469,11.173828 0,2.452274 0.006,2.472275 0.81835,2.652344 3.55007,0.78667 6.95863,2.561761 8.91407,4.644531 3.30328,3.518363 4.70285,8.94091 3.50195,13.56836 -0.58507,2.25442 -1.51789,3.84949 -3.52539,6.02929 -1.4198,1.54165 -5.34609,7.28736 -7.68945,11.25391 L 130.51562,127 l 1.62305,-0.19141 c 7.21805,-0.85121 14.36792,-6.59277 17.33594,-13.92187 1.63645,-4.04099 1.99952,-9.93547 0.87695,-14.20313 -1.55458,-5.909986 -6.02757,-11.437118 -11.5039,-14.210934 l -1.68164,-0.851562 -0.50391,-2.328125 c -2.08432,-9.626179 -10.78732,-17.28174 -20.5,-17.357422 -1.33829,-0.01042 -3.07766,0.07803 -3.86523,0.197265 l -1.43165,0.216797 -2.11914,-1.80664 C 102.62124,55.672382 93.549919,53.133916 86.636719,53.003906 Z M 83,104 a 16,16 0 0 0 -16,16 16,16 0 0 0 16,16 16,16 0 0 0 14.361328,-9 H 123 l 4.78125,-7.5 L 123,113 h -1.79883 l -1.45508,4 h -2.16992 l -1.82812,-4 h -2.65821 l -1.27929,4 h -2.07422 l -1.47852,-4 h -2.5039 l -1.63282,4 h -2.29687 l -1.18945,-4 H 97.382812 A 16,16 0 0 0 83,104 Z m -5,12 a 4,4 0 0 1 4,4 4,4 0 0 1 -4,4 4,4 0 0 1 -4,-4 4,4 0 0 1 4,-4 z" />
  <path
     id="path969"
     style="opacity:1;fill:#ffffff;stroke-width:0.29823"
     d="m 86.636719,51.003906 c -6.954464,-0.116726 -12.660516,1.970716 -17.90625,5.94336 -2.960862,2.274111 -5.481798,5.054952 -7.371094,8.195312 -1.636859,2.720766 -3.589826,8.099415 -3.892578,10.716797 l -0.201172,1.728516 -1.392578,0.501953 c -3.771367,1.356606 -8.545174,5.335396 -11.019531,9.183594 -1.515184,2.356459 -2.881633,5.809519 -3.521485,8.902342 -0.553851,2.67713 -0.398993,7.3989 0.341797,10.46484 2.026413,8.38685 8.925731,15.41262 17.384766,17.70313 2.628778,0.71182 2.523977,0.74354 2.28125,-0.69922 -0.117477,-0.69829 -0.320756,-2.59053 -0.453125,-4.20312 -0.132369,-1.6126 -0.28806,-2.96164 -0.345703,-3 -0.05764,-0.0383 -1.109771,-0.56316 -2.337891,-1.16602 -5.259721,-2.58189 -8.372648,-7.13924 -8.927734,-13.06641 -0.302767,-3.23293 0.05946,-5.50913 1.304687,-8.191402 2.061809,-4.441247 5.980494,-7.792455 10.517578,-8.996094 2.436483,-0.646372 6.373599,-0.595299 8.642578,0.113282 l 1.636719,0.511718 1.736328,-2.298828 c -0.142145,-0.185101 -0.255116,-0.323788 -0.339843,-0.439453 -0.777103,-1.060837 -3.655563,-4.057582 -5.441407,-5.191406 -1.788399,-1.135443 -1.808737,-1.215269 -1.02539,-3.886719 1.384155,-4.720369 6.099266,-10.254547 10.652343,-12.5 3.814023,-1.880974 6.868926,-2.551746 10.714844,-2.353516 5.858898,0.301992 9.973461,2.140562 14.167972,6.330079 2.97892,2.975393 4.6108,5.727406 5.62695,9.49414 0.17006,0.630379 0.29172,1.064287 0.41406,1.369141 0.0857,0.213455 0.22653,0.532132 0.35938,0.830078 h 2.3789 c 0.24701,-0.30999 0.50614,-0.652549 0.64844,-0.847656 0.78242,-1.072744 1.79347,-2.963861 2.12891,-4.115235 l 0.39062,-1.84375 1.85352,-0.08984 c 3.49916,-0.169061 7.01629,1.328056 9.66211,4.111328 2.77247,2.916507 4.05466,6.791395 4.05469,11.173828 0,2.452274 0.006,2.472275 0.81835,2.652344 3.55007,0.78667 6.95863,2.561761 8.91407,4.644531 3.30328,3.518363 4.70285,8.94091 3.50195,13.56836 -0.58507,2.25442 -1.51789,3.84949 -3.52539,6.02929 -1.4198,1.54165 -5.34609,7.28736 -7.68945,11.25391 L 130.51562,125 l 1.62305,-0.19141 c 7.21805,-0.85121 14.36792,-6.59277 17.33594,-13.92187 1.63645,-4.04099 1.99952,-9.93547 0.87695,-14.20313 -1.55458,-5.909986 -6.02757,-11.437118 -11.5039,-14.210934 l -1.68164,-0.851562 -0.50391,-2.328125 c -2.08432,-9.626179 -10.78732,-17.28174 -20.5,-17.357422 -1.33829,-0.01042 -3.07766,0.07803 -3.86523,0.197265 l -1.43165,0.216797 -2.11914,-1.80664 C 102.62124,53.672382 93.549919,51.133916 86.636719,51.003906 Z M 83,102 a 16,16 0 0 0 -16,16 16,16 0 0 0 16,16 16,16 0 0 0 14.361328,-9 H 123 l 4.78125,-7.5 L 123,111 h -1.79883 l -1.45508,4 h -2.16992 l -1.82812,-4 h -2.65821 l -1.27929,4 h -2.07422 l -1.47852,-4 h -2.5039 l -1.63282,4 h -2.29687 l -1.18945,-4 H 97.382812 A 16,16 0 0 0 83,102 Z m -5,12 a 4,4 0 0 1 4,4 4,4 0 0 1 -4,4 4,4 0 0 1 -4,-4 4,4 0 0 1 4,-4 z" />
</svg>
