<?xml version="1.0" encoding="UTF-8" standalone="no"?>
<svg
   width="192"
   height="192"
   version="1"
   id="svg14"
   sodipodi:docname="apps_govbr.svg"
   inkscape:version="1.1.1 (1:1.1+202109281949+c3084ef5ed)"
   xmlns:inkscape="http://www.inkscape.org/namespaces/inkscape"
   xmlns:sodipodi="http://sodipodi.sourceforge.net/DTD/sodipodi-0.dtd"
   xmlns="http://www.w3.org/2000/svg"
   xmlns:svg="http://www.w3.org/2000/svg"
   xmlns:rdf="http://www.w3.org/1999/02/22-rdf-syntax-ns#"
   xmlns:cc="http://creativecommons.org/ns#"
   xmlns:dc="http://purl.org/dc/elements/1.1/">
  <metadata
     id="metadata20">
    <rdf:RDF>
      <cc:Work
         rdf:about="">
        <dc:format>image/svg+xml</dc:format>
        <dc:type
           rdf:resource="http://purl.org/dc/dcmitype/StillImage" />
      </cc:Work>
    </rdf:RDF>
  </metadata>
  <defs
     id="defs18">
    <filter
       inkscape:collect="always"
       style="color-interpolation-filters:sRGB"
       id="filter850"
       x="-0.048000001"
       width="1.096"
       y="-0.048000001"
       height="1.096">
      <feGaussianBlur
         inkscape:collect="always"
         stdDeviation="3.2"
         id="feGaussianBlur852" />
    </filter>
    <filter
       inkscape:collect="always"
       style="color-interpolation-filters:sRGB"
       id="filter2227"
       x="-0.051000023"
       y="-0.14166648"
       width="1.102"
       height="1.283333">
      <feGaussianBlur
         inkscape:collect="always"
         stdDeviation="3.7187517"
         id="feGaussianBlur2229" />
    </filter>
  </defs>
  <sodipodi:namedview
     pagecolor="#ffffff"
     bordercolor="#666666"
     borderopacity="1"
     objecttolerance="10"
     gridtolerance="10"
     guidetolerance="10"
     inkscape:pageopacity="0"
     inkscape:pageshadow="2"
     inkscape:window-width="1920"
     inkscape:window-height="1022"
     id="namedview16"
     showgrid="false"
     inkscape:zoom="1"
     inkscape:cx="77"
     inkscape:cy="87"
     inkscape:window-x="0"
     inkscape:window-y="34"
     inkscape:window-maximized="1"
     inkscape:current-layer="svg14"
     inkscape:pagecheckerboard="0"
     inkscape:snap-bbox="true"
     inkscape:snap-bbox-midpoints="true">
    <inkscape:grid
       type="xygrid"
       id="grid5193" />
  </sodipodi:namedview>
  <circle
     style="opacity:0.2;fill:#000000;stroke-width:4;filter:url(#filter850)"
     cx="96"
     cy="100"
     r="80"
     id="circle832" />
  <circle
     id="circle4"
     r="80"
     cy="96"
     cx="96"
     style="fill:#e4e4e4;stroke-width:4;fill-opacity:1" />
  <path
     id="path2178"
     style="opacity:0.2;fill:#000000;fill-opacity:1;stroke-width:0.350965;filter:url(#filter2227)"
     d="m 121.00781,66.999885 v 0.0039 H 121 v 47.996089 h 10 l 0.004,-5.75977 h 0.1289 c 2.15345,4.30107 7.07328,6.93654 11.81641,6.75 9.80482,0 15.05078,-8.23151 15.05078,-18.128897 0,-8.102352 -4.98829,-16.861328 -14.09375,-16.861328 -4.3623,-0.281575 -9.00362,1.567866 -11.74219,5.03125 h -0.1289 L 132,66.999885 Z M 158,97.861213 v 18.138667 h 12 v -14.44335 c 0.087,-6.6945 2.88917,-10.69727 8.39844,-10.69727 1.34679,-0.06828 2.69467,0.0636 4.00195,0.390625 L 183,81.392463 c -1.32165,-0.237183 -2.6568,-0.371018 -4,-0.392578 -4.53957,-0.06109 -8.40995,2.793421 -9.90039,7.087891 H 168.9668 L 169,81.999885 H 158 Z M 23.068359,80.999885 C 12.678355,80.999885 8,88.523881 8,98.585823 c 0,10.001907 5.704582,17.414057 14.876953,17.414057 4.472796,0.15534 8.386415,-2.4342 10.898438,-6.18359 h 0.128906 v 1.82226 c -1.164848,6.51641 -3.264732,10.29688 -9.935547,10.29688 -3.938991,0.0636 -7.826518,-0.89709 -11.291016,-2.79297 l -0.574218,8.71875 c 4.10646,1.42986 8.421501,2.14927 12.761718,2.13867 C 38.335954,129.99988 45,125.52403 45,111.63855 v -0.004 V 98.529182 81.999885 H 34.066406 v 5.880859 H 33.933594 C 31.665797,83.672381 27.806313,81.038715 23.068359,80.999885 Z M 45,98.529182 c 0,11.049848 8.428144,17.470698 19.5,17.470698 11.071856,0 19.5,-6.42085 19.5,-17.470698 0,-11.106144 -8.428144,-17.529297 -19.5,-17.529297 -11.071856,0 -19.5,6.416118 -19.5,17.529297 z M 79,80.999885 91.419922,115.99988 H 104.60352 L 117,80.999885 h -11.51367 l -6.992189,24.933585 h -0.128907 l -6.9375,-24.933585 z m -14.501953,8 c 5.321789,0 7.501953,4.474053 7.501953,9.53125 0,4.993265 -2.183675,9.468745 -7.501953,9.468745 C 59.179769,107.99988 57,103.5244 57,98.531135 c 0,-5.057197 2.176258,-9.53125 7.498047,-9.53125 z m -37.931641,1 c 0.224247,-0.0036 0.449178,0.0054 0.669922,0.02344 4.043449,0.331057 7.059085,3.960661 6.740234,8.113281 0,5.289726 -3.286117,8.863276 -7.410156,8.863276 -3.479328,0 -6.569806,-3.04033 -6.566406,-8.398433 0,-4.695985 2.256665,-8.601562 6.566406,-8.601562 z m 112.464844,0 c 4.47651,0 6.96875,3.792034 6.96875,8.148438 0,5.245667 -2.62173,8.851557 -6.96875,8.851557 -3.83249,0 -7.03125,-3.60544 -7.03125,-8.408198 0,-4.930797 2.81376,-8.591797 7.03125,-8.591797 z m -25.0332,13.999995 c -3.31433,0.004 -5.99805,2.68758 -5.99805,5.99805 0,3.31432 2.68372,6.00195 5.99805,6.00195 3.31431,0 6.00195,-2.68372 6.00195,-5.99805 v -0.0117 c -0.004,-3.31047 -2.69148,-5.99423 -6.00195,-5.99023 z" />
  <path
     style="opacity:0.2;fill:#ffffff;stroke-width:4"
     d="M 96 16 A 80 80 0 0 0 16 96 A 80 80 0 0 0 16.019531 96.472656 A 80 80 0 0 1 96 17 A 80 80 0 0 1 175.97461 96.513672 A 80 80 0 0 0 176 96 A 80 80 0 0 0 96 16 z "
     id="path6" />
  <path
     id="path1245"
     style="opacity:1;fill:#2864ae;fill-opacity:1;stroke-width:0.350965"
     d="M 23.068359 79 C 12.678355 79 8 86.523997 8 96.585938 C 8 106.58785 13.704582 114 22.876953 114 C 27.349749 114.15534 31.263368 111.5658 33.775391 107.81641 L 33.904297 107.81641 L 33.904297 109.63867 C 32.739449 116.15508 30.639565 119.93555 23.96875 119.93555 C 20.029759 119.9991 16.142232 119.03846 12.677734 117.14258 L 12.103516 125.86133 C 16.209976 127.29119 20.525017 128.0106 24.865234 128 C 38.335954 128 45 123.52415 45 109.63867 L 45 109.63477 L 45 80 L 34.066406 80 L 34.066406 85.880859 L 33.933594 85.880859 C 31.665797 81.672496 27.806313 79.03883 23.068359 79 z M 26.566406 88 C 26.790653 87.99641 27.015584 88.005437 27.236328 88.023438 C 31.279777 88.354495 34.295412 91.984099 33.976562 96.136719 C 33.976562 101.42645 30.690445 105 26.566406 105 C 23.087078 105 19.9966 101.95967 20 96.601562 C 20 91.905577 22.256665 88 26.566406 88 z " />
  <path
     id="path1257"
     style="opacity:1;fill:#2864ae;fill-opacity:1;stroke-width:0.349081"
     d="M 121.00781 65 L 121.00781 65.003906 L 121 65.003906 L 121 113 L 131 113 L 131.00391 107.24023 L 131.13281 107.24023 C 133.28626 111.5413 138.20609 114.17677 142.94922 113.99023 C 152.75404 113.99023 158 105.75872 158 95.861328 C 158 87.758976 153.01171 79 143.90625 79 C 139.54395 78.718425 134.90263 80.567866 132.16406 84.03125 L 132.03516 84.03125 L 132 65 L 121.00781 65 z M 139.03125 88 C 143.50776 88 146 91.792034 146 96.148438 C 146 101.39411 143.37827 105 139.03125 105 C 135.19876 105 132 101.39456 132 96.591797 C 132 91.661 134.81376 88 139.03125 88 z " />
  <path
     id="path1251"
     style="fill:#faa214;fill-opacity:1;stroke-width:0.352145;opacity:1"
     d="M 64.5 79 C 53.428144 79 45 85.416118 45 96.529297 C 45 107.57915 53.428144 114 64.5 114 C 75.571856 114 84 107.57915 84 96.529297 C 84 85.423153 75.571856 79 64.5 79 z M 64.498047 87 C 69.819836 87 72 91.474053 72 96.53125 C 72 101.52452 69.816325 106 64.498047 106 C 59.179769 106 57 101.52452 57 96.53125 C 57 91.474053 59.176258 87 64.498047 87 z " />
  <path
     style="fill:#48ad45;fill-opacity:1;stroke-width:0.362927;opacity:1"
     d="m 91.42073,114 h 13.1836 L 117,79 h -11.51461 l -6.99114,24.93433 H 98.36532 L 91.427897,79 H 79 Z"
     id="Caminho_4109" />
  <path
     style="fill:#2864ae;fill-opacity:1;stroke-width:0.384492;opacity:1"
     d="M 120,108.00192 C 120,111.31625 117.31239,114 113.99808,114 110.68375,114 108,111.3124 108,107.99808 c 0,-3.31047 2.68375,-5.99423 5.99808,-5.99807 3.31047,-0.004 5.99808,2.67991 6.00192,5.99038 0,0.004 0,0.008 0,0.0115 z"
     id="Caminho_4111" />
  <path
     style="opacity:1;fill:#faa214;fill-opacity:1;stroke-width:0.359257"
     d="m 182.40023,89.250192 c -1.30728,-0.327026 -2.65407,-0.459992 -4.00086,-0.391713 -5.50927,0 -8.31234,4.003947 -8.39937,10.698443 V 114 H 158 V 80 h 11 l -0.0325,6.087737 h 0.13289 c 1.49044,-4.29447 5.35913,-7.147868 9.8987,-7.086775 1.3432,0.02156 2.67921,0.15453 4.00086,0.391713 z"
     id="Caminho_4113"
     sodipodi:nodetypes="ccsccccccccc" />
</svg>
