<?xml version="1.0" encoding="UTF-8" standalone="no"?>
<svg
   width="192"
   height="192"
   version="1"
   id="svg22"
   sodipodi:docname="apps_lampa.svg"
   inkscape:version="1.1.1 (1:1.1+202109281949+c3084ef5ed)"
   xmlns:inkscape="http://www.inkscape.org/namespaces/inkscape"
   xmlns:sodipodi="http://sodipodi.sourceforge.net/DTD/sodipodi-0.dtd"
   xmlns="http://www.w3.org/2000/svg"
   xmlns:svg="http://www.w3.org/2000/svg">
  <defs
     id="defs26">
    <filter
       inkscape:collect="always"
       style="color-interpolation-filters:sRGB"
       id="filter868"
       x="-0.048000001"
       y="-0.048000001"
       width="1.096"
       height="1.096">
      <feGaussianBlur
         inkscape:collect="always"
         stdDeviation="3.2"
         id="feGaussianBlur870" />
    </filter>
    <filter
       inkscape:collect="always"
       style="color-interpolation-filters:sRGB"
       id="filter1241"
       x="-0.046496591"
       y="-0.049603879"
       width="1.0929932"
       height="1.0992078">
      <feGaussianBlur
         inkscape:collect="always"
         stdDeviation="2.1310938"
         id="feGaussianBlur1243" />
    </filter>
  </defs>
  <sodipodi:namedview
     id="namedview24"
     pagecolor="#ffffff"
     bordercolor="#666666"
     borderopacity="1.0"
     inkscape:pageshadow="2"
     inkscape:pageopacity="0.0"
     inkscape:pagecheckerboard="0"
     showgrid="false"
     inkscape:zoom="1"
     inkscape:cx="93.5"
     inkscape:cy="128.5"
     inkscape:window-width="1920"
     inkscape:window-height="1019"
     inkscape:window-x="0"
     inkscape:window-y="34"
     inkscape:window-maximized="1"
     inkscape:current-layer="svg22">
    <inkscape:grid
       type="xygrid"
       id="grid936" />
  </sodipodi:namedview>
  <rect
     style="opacity:0.2;stroke-width:4;filter:url(#filter868)"
     width="160"
     height="160"
     x="16"
     y="20"
     rx="80"
     ry="80"
     id="rect2" />
  <rect
     style="fill:#4f4f4f;stroke-width:4;fill-opacity:1"
     width="160"
     height="160"
     x="16"
     y="16"
     rx="80"
     ry="80"
     id="rect4" />
  <path
     id="path20"
     style="opacity:0.1;fill:#ffffff;stroke-width:4"
     d="M 96 16 C 51.68 16 16 51.68 16 96 C 16 96.173773 16.008399 96.344911 16.011719 96.517578 C 16.270957 52.42262 51.84182 17 96 17 C 140.15818 17 175.72904 52.42262 175.98828 96.517578 C 175.9916 96.344911 176 96.173773 176 96 C 176 51.68 140.32 16 96 16 z " />
  <path
     id="path1203"
     style="opacity:0.2;fill:#000000;filter:url(#filter1241)"
     d="m 96,42.890625 c -30.3757,0 -55,24.6243 -55,55 C 41,118.58733 52.432472,136.6134 69.326172,146 55.887572,137.2624 47,122.11462 47,104.89062 47,77.828625 68.938,55.890625 96,55.890625 c 27.062,0 49,21.938 49,48.999995 C 145,122.11463 136.11253,137.2625 122.67383,146 139.56763,136.6134 151,118.58733 151,97.890625 c 0,-30.3757 -24.6243,-55 -55,-55 z m 0,20.101563 c -23.196,0 -42,18.803999 -42,42.000002 0,6.4446 1.451022,12.55031 4.044922,18.00781 C 57.361322,120.1085 57,117.09249 57,113.99219 57,92.453087 74.4609,74.992188 96,74.992188 c 21.5391,0 39,17.460899 39,39.000002 0,3.1003 -0.36132,6.11631 -1.04492,9.00781 C 136.54898,117.5425 138,111.43679 138,104.99219 138,81.796188 119.196,62.992188 96,62.992188 Z M 96,88 c -9.9411,0 -18,8.0589 -18,18 0,9.9411 8.0589,18 18,18 9.9411,0 18,-8.0589 18,-18 0,-9.9411 -8.0589,-18 -18,-18 z M 73.960938,92.199219 C 68.420638,97.799419 65,105.5 65,114 c 0,17.1208 13.8792,31 31,31 17.1208,0 31,-13.8792 31,-31 0,-8.5 -3.42064,-16.200581 -8.96094,-21.800781 C 120.54896,96.198819 122,100.9297 122,106 c 0,14.3594 -11.6406,26 -26,26 -14.3594,0 -26,-11.6406 -26,-26 0,-5.0703 1.451038,-9.801181 3.960938,-13.800781 z" />
  <path
     id="path2"
     style="fill:#ffffff"
     d="M 96 40.890625 C 65.6243 40.890625 41 65.514925 41 95.890625 C 41 116.58733 52.432472 134.6134 69.326172 144 C 55.887572 135.2624 47 120.11462 47 102.89062 C 47 75.828625 68.938 53.890625 96 53.890625 C 123.062 53.890625 145 75.828625 145 102.89062 C 145 120.11463 136.11253 135.2625 122.67383 144 C 139.56763 134.6134 151 116.58733 151 95.890625 C 151 65.514925 126.3757 40.890625 96 40.890625 z M 96 60.992188 C 72.804 60.992188 54 79.796187 54 102.99219 C 54 109.43679 55.451022 115.5425 58.044922 121 C 57.361322 118.1085 57 115.09249 57 111.99219 C 57 90.453087 74.4609 72.992188 96 72.992188 C 117.5391 72.992188 135 90.453087 135 111.99219 C 135 115.09249 134.63868 118.1085 133.95508 121 C 136.54898 115.5425 138 109.43679 138 102.99219 C 138 79.796188 119.196 60.992188 96 60.992188 z M 96 86 C 86.0589 86 78 94.0589 78 104 C 78 113.9411 86.0589 122 96 122 C 105.9411 122 114 113.9411 114 104 C 114 94.0589 105.9411 86 96 86 z M 73.960938 90.199219 C 68.420638 95.799419 65 103.5 65 112 C 65 129.1208 78.8792 143 96 143 C 113.1208 143 127 129.1208 127 112 C 127 103.5 123.57936 95.799419 118.03906 90.199219 C 120.54896 94.198819 122 98.9297 122 104 C 122 118.3594 110.3594 130 96 130 C 81.6406 130 70 118.3594 70 104 C 70 98.9297 71.451038 94.198819 73.960938 90.199219 z " />
</svg>
