<?xml version="1.0" encoding="UTF-8" standalone="no"?>
<svg
   width="192"
   height="192"
   version="1"
   id="svg12"
   sodipodi:docname="apps_hbo_max.svg"
   inkscape:version="1.1.1 (1:1.1+202109281949+c3084ef5ed)"
   xmlns:inkscape="http://www.inkscape.org/namespaces/inkscape"
   xmlns:sodipodi="http://sodipodi.sourceforge.net/DTD/sodipodi-0.dtd"
   xmlns="http://www.w3.org/2000/svg"
   xmlns:svg="http://www.w3.org/2000/svg"
   xmlns:rdf="http://www.w3.org/1999/02/22-rdf-syntax-ns#"
   xmlns:cc="http://creativecommons.org/ns#"
   xmlns:dc="http://purl.org/dc/elements/1.1/">
  <metadata
     id="metadata18">
    <rdf:RDF>
      <cc:Work
         rdf:about="">
        <dc:format>image/svg+xml</dc:format>
        <dc:type
           rdf:resource="http://purl.org/dc/dcmitype/StillImage" />
      </cc:Work>
    </rdf:RDF>
  </metadata>
  <defs
     id="defs16">
    <filter
       inkscape:collect="always"
       style="color-interpolation-filters:sRGB"
       id="filter955"
       x="-0.048000001"
       width="1.096"
       y="-0.048000001"
       height="1.096">
      <feGaussianBlur
         inkscape:collect="always"
         stdDeviation="3.2"
         id="feGaussianBlur957" />
    </filter>
    <filter
       inkscape:collect="always"
       style="color-interpolation-filters:sRGB"
       id="filter2157"
       x="-0.089787729"
       y="-0.1353626"
       width="1.1795755"
       height="1.2707252">
      <feGaussianBlur
         inkscape:collect="always"
         stdDeviation="3.6662595"
         id="feGaussianBlur2159" />
    </filter>
  </defs>
  <sodipodi:namedview
     pagecolor="#ffffff"
     bordercolor="#666666"
     borderopacity="1"
     objecttolerance="10"
     gridtolerance="10"
     guidetolerance="10"
     inkscape:pageopacity="0"
     inkscape:pageshadow="2"
     inkscape:window-width="1920"
     inkscape:window-height="1019"
     id="namedview14"
     showgrid="false"
     inkscape:zoom="1"
     inkscape:cx="108.5"
     inkscape:cy="63"
     inkscape:window-x="0"
     inkscape:window-y="34"
     inkscape:window-maximized="1"
     inkscape:current-layer="svg12"
     showguides="false"
     inkscape:document-rotation="0"
     inkscape:pagecheckerboard="0"
     inkscape:snap-bbox="true"
     inkscape:snap-bbox-midpoints="true"
     inkscape:snap-global="true">
    <inkscape:grid
       type="xygrid"
       id="grid852" />
  </sodipodi:namedview>
  <rect
     style="opacity:0.2;fill:#000000;fill-opacity:1;stroke-width:4;filter:url(#filter955)"
     width="160"
     height="160"
     x="16"
     y="20"
     rx="30"
     ry="30"
     id="rect953" />
  <rect
     style="fill:#673ab7;fill-opacity:1;stroke-width:4"
     width="160"
     height="160"
     x="16"
     y="16"
     rx="30"
     ry="30"
     id="rect4" />
  <path
     id="path2119"
     style="opacity:0.2;fill:#000000;fill-rule:evenodd;stroke-width:0.0300001;filter:url(#filter2157)"
     d="m 59,65.999999 v 30 h 8 v -12 h 6 v 12 h 8 v -30 h -8 v 11 h -6 v -11 z m 24,0 v 29.867188 h 12.693359 c 5.169001,0 8.798831,-4.414394 8.798831,-8.275391 1.14599,2.387996 5.20152,8.408203 13.47851,8.408203 8.17801,0 15.0293,-6.803085 15.0293,-15.080078 0,-8.408998 -6.85129,-14.919922 -15.0293,-14.919922 -8.27699,0 -12.4645,6.021656 -13.47851,8.472656 0,-3.63 -3.63627,-8.623765 -7.851565,-8.472656 z m 8,7 h 3.935547 c 1.141195,0 2.064453,1.167481 2.064453,2.5 0,1.332518 -0.920347,2.5 -2.064453,2.5 H 91 Z m 27.04492,0.970703 a 6.9840038,6.9840038 0 0 1 6.95313,7.103516 c -0.0564,3.848875 -3.16605,6.925781 -6.99805,6.925781 -3.86857,0 -7,-3.131695 -7,-7.03125 0,-3.882661 3.15661,-7.023388 7.04492,-6.998047 z m -0.0273,1.029297 c -3.34405,0 -6.01758,2.641423 -6.01758,5.982422 0,3.340998 2.67353,6.017578 6.01758,6.017578 3.24293,0 5.98242,-2.673514 5.98242,-6.017578 0,-3.344063 -2.73949,-5.982422 -5.98242,-5.982422 z m -14.90039,4.119141 c -0.22799,0.785999 -0.22799,3.273639 0,4.05664 -0.65399,-0.947999 -2.12623,-2.095813 -3.07422,-2.257812 0.94799,-0.066 2.48624,-1.144829 3.07422,-1.798828 z M 91,83.999999 h 3.935547 c 1.141195,0 2.064453,1.151963 2.064453,2.466797 0,1.38118 -0.920347,2.533203 -2.064453,2.533203 H 91 Z M 58.433594,101 c -6.2142,0 -11.269809,3.78868 -11.429688,10.94531 -0.0026,0.0159 -0.0045,0.0327 -0.0039,0.0488 v 16.29492 c 7e-6,1.49715 1.215428,2.71094 2.714844,2.71094 h 2.564453 c 0.249904,0 0.720705,-0.20164 0.720703,-0.45117 l -0.002,-18.55469 h 0.0039 C 53.110553,108.47004 55.353642,107 58.433594,107 c 3.07995,0 5.455854,1.47004 5.564453,4.99414 h 0.0039 L 64,128.28906 c 7e-6,1.49715 1.350197,2.71093 2.849609,2.71094 h 2.564453 c 0.249907,0 0.58594,-0.20164 0.585938,-0.45117 l -0.002,-18.55469 h 0.0039 C 70.110573,108.47004 72.486457,107 75.566406,107 c 3.079949,0 5.323042,1.47004 5.431641,4.99414 h 0.0039 L 81,128.28906 c 7e-6,1.49715 1.483004,2.71094 2.982422,2.71094 h 2.564453 c 0.249901,-1e-5 0.453127,-0.20165 0.453125,-0.45117 v -18.55469 c -2.88e-4,-0.0202 -0.0023,-0.0406 -0.0059,-0.0606 -0.165918,-7.14758 -5.218509,-10.92969 -11.429688,-10.92969 -3.411769,0 -6.472892,1.14163 -8.566406,3.35548 C 64.904517,102.14252 61.842355,101 58.433594,101 Z m 43.914066,0 C 94.976496,101 89,106.196 89,116 c 0,9.804 5.976496,15 13.34766,15 3.01778,0 5.41641,-0.87022 7.65234,-2.57422 0.12686,1.38908 1.66196,2.45327 3.03906,2.45508 h 2.51758 c 0.24534,10e-6 0.44336,-0.20264 0.44336,-0.45117 v -29 c 0,-0.24854 -0.19802,-0.4297 -0.44336,-0.42969 h -2.51758 c -1.25551,-4e-4 -2.77401,1.3662 -3.03906,2.60938 C 107.75519,101.88437 105.38618,101 102.34766,101 Z m 15.98437,0 a 0.33053565,0.34319837 0 0 0 -0.27539,0.53515 l 8.39453,12.92383 a 2.6575539,2.759364 0 0 1 0,3.08204 l -8.39453,12.92382 A 0.33083051,0.34350454 0 0 0 118.33203,131 h 4.25195 a 3.5365251,3.6720084 0 0 0 2.9336,-1.61914 l 4.69922,-7.23828 a 1.5453501,1.6045519 0 0 1 2.56445,0 l 4.70117,7.23828 A 3.5365251,3.6720084 0 0 0 140.41602,131 h 4.25195 a 0.33053565,0.34319837 0 0 0 0.27344,-0.53516 l -8.39453,-12.92382 a 2.6575539,2.759364 0 0 1 0,-3.08204 l 8.39453,-12.92383 A 0.33053565,0.34319837 0 0 0 144.66797,101 h -4.25195 a 3.5365251,3.6720084 0 0 0 -2.9336,1.61914 l -4.70117,7.23828 a 1.5453501,1.6045519 0 0 1 -2.56445,0 l -4.69922,-7.23828 A 3.5365251,3.6720084 0 0 0 122.58398,101 Z M 102,107 c 4.4177,0 8,3.11661 8,9 0,5.88341 -3.5823,9 -8,9 -4.417669,0 -8,-3.11659 -8,-9 0,-5.88339 3.582331,-9 8,-9 z" />
  <path
     id="path983"
     style="opacity:1;fill:#ffffff;fill-rule:evenodd;stroke-width:0.0300001"
     d="M 59 64 L 59 94 L 67 94 L 67 82 L 73 82 L 73 94 L 81 94 L 81 64 L 73 64 L 73 75 L 67 75 L 67 64 L 59 64 z M 83 64 L 83 93.867188 L 95.693359 93.867188 C 100.86236 93.867188 104.49219 89.452794 104.49219 85.591797 C 105.63818 87.979793 109.69371 94 117.9707 94 C 126.14871 94 133 87.196915 133 78.919922 C 133 70.510924 126.14871 64 117.9707 64 C 109.69371 64 105.5062 70.021656 104.49219 72.472656 C 104.49219 68.842656 100.85592 63.848891 96.640625 64 L 83 64 z M 91 71 L 94.935547 71 C 96.076742 71 97 72.167481 97 73.5 C 97 74.832518 96.079653 76 94.935547 76 L 91 76 L 91 71 z M 118.04492 71.970703 A 6.9840038 6.9840038 0 0 1 124.99805 79.074219 C 124.94165 82.923094 121.832 86 118 86 C 114.13143 86 111 82.868305 111 78.96875 C 111 75.086089 114.15661 71.945362 118.04492 71.970703 z M 118.01758 73 C 114.67353 73 112 75.641423 112 78.982422 C 112 82.32342 114.67353 85 118.01758 85 C 121.26051 85 124 82.326486 124 78.982422 C 124 75.638359 121.26051 73 118.01758 73 z M 103.11719 77.119141 C 102.8892 77.90514 102.8892 80.39278 103.11719 81.175781 C 102.4632 80.227782 100.99096 79.079968 100.04297 78.917969 C 100.99096 78.851969 102.52921 77.77314 103.11719 77.119141 z M 91 82 L 94.935547 82 C 96.076742 82 97 83.151963 97 84.466797 C 97 85.847977 96.079653 87 94.935547 87 L 91 87 L 91 82 z M 58.433594 99 C 52.219394 99 47.163785 102.78868 47.003906 109.94531 C 47.001306 109.96121 46.9994 109.97804 47 109.99414 L 47 126.28906 C 47.000007 127.78621 48.215428 129 49.714844 129 L 52.279297 129 C 52.529201 129 53.000002 128.79836 53 128.54883 L 52.998047 109.99414 L 53.001953 109.99414 C 53.110553 106.47004 55.353642 105 58.433594 105 C 61.513544 105 63.889448 106.47004 63.998047 109.99414 L 64.001953 109.99414 L 64 126.28906 C 64.000007 127.78621 65.350197 128.99999 66.849609 129 L 69.414062 129 C 69.663969 129 70.000002 128.79836 70 128.54883 L 69.998047 109.99414 L 70.001953 109.99414 C 70.110573 106.47004 72.486457 105 75.566406 105 C 78.646355 105 80.889448 106.47004 80.998047 109.99414 L 81.001953 109.99414 L 81 126.28906 C 81.000007 127.78621 82.483004 129 83.982422 129 L 86.546875 129 C 86.796776 128.99999 87.000002 128.79835 87 128.54883 L 87 109.99414 C 86.999712 109.97394 86.997741 109.95349 86.994141 109.93359 C 86.828223 102.78601 81.775632 99.003906 75.564453 99.003906 C 72.152684 99.003906 69.091561 100.14553 66.998047 102.35938 C 64.904517 100.14252 61.842355 99 58.433594 99 z M 102.34766 99 C 94.976496 99 89 104.196 89 114 C 89 123.804 94.976496 129 102.34766 129 C 105.36544 129 107.76407 128.12978 110 126.42578 C 110.12686 127.81486 111.66196 128.87905 113.03906 128.88086 L 115.55664 128.88086 C 115.80198 128.88087 116 128.67822 116 128.42969 L 116 99.429688 C 116 99.181151 115.80198 98.999991 115.55664 99 L 113.03906 99 C 111.78355 98.999598 110.26505 100.3662 110 101.60938 C 107.75519 99.88437 105.38618 99 102.34766 99 z M 118.33203 99 A 0.33053565 0.34319837 0 0 0 118.05664 99.535156 L 126.45117 112.45898 A 2.6575539 2.759364 0 0 1 126.45117 115.54102 L 118.05664 128.46484 A 0.33083051 0.34350454 0 0 0 118.33203 129 L 122.58398 129 A 3.5365251 3.6720084 0 0 0 125.51758 127.38086 L 130.2168 120.14258 A 1.5453501 1.6045519 0 0 1 132.78125 120.14258 L 137.48242 127.38086 A 3.5365251 3.6720084 0 0 0 140.41602 129 L 144.66797 129 A 0.33053565 0.34319837 0 0 0 144.94141 128.46484 L 136.54688 115.54102 A 2.6575539 2.759364 0 0 1 136.54688 112.45898 L 144.94141 99.535156 A 0.33053565 0.34319837 0 0 0 144.66797 99 L 140.41602 99 A 3.5365251 3.6720084 0 0 0 137.48242 100.61914 L 132.78125 107.85742 A 1.5453501 1.6045519 0 0 1 130.2168 107.85742 L 125.51758 100.61914 A 3.5365251 3.6720084 0 0 0 122.58398 99 L 118.33203 99 z M 102 105 C 106.4177 105 110 108.11661 110 114 C 110 119.88341 106.4177 123 102 123 C 97.582331 123 94 119.88341 94 114 C 94 108.11661 97.582331 105 102 105 z " />
  <path
     id="rect959"
     style="fill:#ffffff;fill-opacity:1;stroke-width:4;opacity:0.1"
     d="M 46 16 C 29.38 16 16 29.38 16 46 L 16 47 C 16 30.38 29.38 17 46 17 L 146 17 C 162.62 17 176 30.38 176 47 L 176 46 C 176 29.38 162.62 16 146 16 L 46 16 z " />
</svg>
