<?xml version="1.0" encoding="UTF-8" standalone="no"?>
<svg
   width="192"
   height="192"
   version="1.1"
   id="svg28"
   sodipodi:docname="apps_express_vpn.svg"
   inkscape:version="1.1-rc (1:1.1+rc+202105232036+f4db50c7c1)"
   xmlns:inkscape="http://www.inkscape.org/namespaces/inkscape"
   xmlns:sodipodi="http://sodipodi.sourceforge.net/DTD/sodipodi-0.dtd"
   xmlns="http://www.w3.org/2000/svg"
   xmlns:svg="http://www.w3.org/2000/svg">
  <defs
     id="defs32">
    <filter
       inkscape:collect="always"
       style="color-interpolation-filters:sRGB"
       id="filter877"
       x="-0.048000001"
       y="-0.048000001"
       width="1.096"
       height="1.096">
      <feGaussianBlur
         inkscape:collect="always"
         stdDeviation="3.2"
         id="feGaussianBlur879" />
    </filter>
    <filter
       inkscape:collect="always"
       style="color-interpolation-filters:sRGB"
       id="filter3020"
       x="-0.043227648"
       y="-0.053956862"
       width="1.0864553"
       height="1.1079137">
      <feGaussianBlur
         inkscape:collect="always"
         stdDeviation="1.7985556"
         id="feGaussianBlur3022" />
    </filter>
  </defs>
  <sodipodi:namedview
     id="namedview30"
     pagecolor="#ffffff"
     bordercolor="#666666"
     borderopacity="1.0"
     inkscape:pageshadow="2"
     inkscape:pageopacity="0.0"
     inkscape:pagecheckerboard="0"
     showgrid="false"
     inkscape:zoom="1"
     inkscape:cx="86.5"
     inkscape:cy="84"
     inkscape:window-width="1920"
     inkscape:window-height="1014"
     inkscape:window-x="0"
     inkscape:window-y="34"
     inkscape:window-maximized="1"
     inkscape:current-layer="svg28">
    <inkscape:grid
       type="xygrid"
       id="grid1055" />
  </sodipodi:namedview>
  <path
     style="opacity:0.2;stroke-width:4;filter:url(#filter877)"
     d="M 96,20 A 80,80 0 0 0 16,100 80,80 0 0 0 96,180 80,80 0 0 0 176,100 80,80 0 0 0 96,20 Z"
     id="path2" />
  <path
     style="fill:#db2a31;fill-opacity:1;stroke-width:4"
     d="M 96,16 A 80,80 0 0 0 16,96 80,80 0 0 0 96,176 80,80 0 0 0 176,96 80,80 0 0 0 96,16 Z"
     id="path4" />
  <path
     id="path10"
     style="opacity:0.2;fill:#ffffff;stroke-width:4"
     d="M 96,16 A 80,80 0 0 0 16.564453,87.408203 80,76 0 0 1 19.755859,73.679688 80,80 0 0 1 96,17 80,80 0 0 1 172.77344,75.298828 80,76 0 0 1 175.6875,89.787109 80,80 0 0 0 96,16 Z" />
  <path
     id="path2982"
     style="opacity:0.2;fill:#000000;stroke-width:0.139386;filter:url(#filter3020)"
     d="m 107.58984,58.00084 c -15.650554,-0.0015 -15.807067,0.0066 -18.937496,0.939453 -0.822849,0.245213 -1.19238,0.392353 -2.796875,1.115235 -1.016844,0.45812 -3.020025,1.773873 -4.179688,2.74414 -1.65308,1.383106 -3.327122,3.316255 -4.261719,4.923828 -0.390298,0.671347 -2.005657,3.900729 -2.552734,5.103516 -0.944408,2.076373 -1.424534,3.100588 -2.935547,6.246094 -0.337069,0.701667 -0.629237,1.420603 -0.648437,1.597656 l -0.03516,0.330078 H 102.14844 132 c 1.65685,0 3,1.343146 3,3 0,1.656854 -1.34315,3 -3,3 h 0.8125 c -0.24111,0.048 -17.24537,1.47e-4 -37.787109,0 -20.541741,-1.3e-4 -37.582551,-0.04733 -37.869141,0 -0.566645,0.09345 -0.462462,-0.504932 -1.964844,2.673828 -0.270861,0.573067 -0.758524,1.605275 -1.083984,2.292969 -0.325474,0.68768 -0.796509,1.687789 -1.046875,2.222656 -0.250351,0.534866 -0.676118,1.440606 -0.945313,2.013672 -0.26921,0.573067 -0.723269,1.54303 -1.009765,2.154293 -0.933416,1.991562 -1.49104,3.170832 -2.13086,4.513672 -0.345873,0.72588 -0.786492,1.66373 -0.978515,2.08399 -0.192035,0.42024 -0.562204,1.21727 -0.824219,1.77148 -0.71094,1.50385 -0.947838,2.0437 -1.027344,2.27344 h 11.955078 l -1.333992,1.33398 c -0.07206,0.17658 -0.150452,0.36032 -0.275391,0.63477 -0.784062,1.7223 -0.918446,2.03209 -1.339843,3.08594 -1.082167,2.70631 -1.786768,5.225 -2.09961,7.51172 -0.23975,1.75241 0.0028,3.92361 0.685547,6.15039 0.247359,0.80669 1.159922,2.56549 1.742188,3.35742 0.943885,1.28377 2.476383,2.76307 3.726562,3.59766 2.629257,1.75522 5.334327,2.69456 9.160157,3.18164 0.538404,0.0685 9.942054,0.13357 20.287117,0.14257 15.751306,0.0152 18.880836,-0.0139 19.759166,-0.17968 3.42214,-0.64591 5.6159,-1.76604 7.90039,-4.03321 1.39015,-1.37964 1.89982,-2.05815 2.55273,-3.40429 1.41955,-2.92691 1.6004,-5.99951 0.50586,-8.57813 -0.45527,-1.07257 -0.65177,-1.40975 -1.35547,-2.32812 -1.35592,-1.7696 -3.29535,-3.10586 -5.54882,-3.82227 -2.14679,-0.6826 -2.19127,-0.64539 -24.093153,-0.65039 -15.890735,-0.004 -20.597921,0.13307 -20.982422,0 -1.022991,-0.35421 -2.000529,-1.37046 -2.3125,-2.10742 C 64.6132,111.21915 65.186331,109.86438 66,109.00084 h 54.48047 c 0.0609,-0.0106 0.14303,-0.0259 0.19726,-0.0352 1.80996,-0.30934 6.16756,-1.56611 6.64258,-1.91601 0.0769,-0.0566 0.51701,-0.2499 0.97852,-0.42969 0.46148,-0.17977 1.02902,-0.43051 1.25976,-0.55664 0.23075,-0.1261 0.92179,-0.49968 1.53711,-0.83203 0.92521,-0.49972 2.95987,-1.8426 3.84766,-2.53906 1.64529,-1.29073 3.61081,-3.166072 4.61719,-4.404302 0.34157,-0.420252 0.65682,-0.795853 0.69922,-0.833983 0.16859,-0.151933 1.50109,-2.055757 1.89648,-2.708984 0.4064,-0.671427 1.80659,-3.460851 2.02148,-4.027344 0.058,-0.152826 0.23671,-0.622729 0.39649,-1.042969 1.16218,-3.056933 1.73048,-8.073911 1.26172,-11.146484 -0.20829,-1.365173 -0.7849,-3.88145 -1.05274,-4.595703 -0.3618,-0.964827 -0.41591,-1.089053 -1.03515,-2.386719 -1.46936,-3.079067 -3.37292,-5.460722 -6.28907,-7.867188 -1.48884,-1.2286 -4.06588,-2.731193 -6.01367,-3.505859 -0.34611,-0.137654 -0.75437,-0.300481 -0.9082,-0.363281 -0.95227,-0.38848 -2.82631,-0.922094 -4.19531,-1.19336 -2.91164,-0.576843 -4.04211,-0.613894 -18.75196,-0.615194 z"
     sodipodi:nodetypes="csssssscccssccscsssssssccccssscssccsscssccccccccssssscsscsscssccc" />
  <path
     id="path1006"
     style="fill:#ffffff;stroke-width:0.139386"
     d="m 107.58984,56 c -15.650554,-0.0015 -15.807067,0.0066 -18.937496,0.939453 -0.822849,0.245213 -1.19238,0.392353 -2.796875,1.115235 -1.016844,0.45812 -3.020025,1.773873 -4.179688,2.74414 -1.65308,1.383106 -3.327122,3.316255 -4.261719,4.923828 -0.390298,0.671347 -2.005657,3.900729 -2.552734,5.103516 -0.944408,2.076373 -1.424534,3.100588 -2.935547,6.246094 -0.337069,0.701667 -0.629237,1.420603 -0.648437,1.597656 L 71.242188,79 H 102.14844 132 c 1.65685,0 3,1.343146 3,3 0,1.656854 -1.34315,3 -3,3 h 0.8125 c -0.24111,0.048 -17.24537,1.47e-4 -37.787109,0 -20.541741,-1.3e-4 -37.582551,-0.04733 -37.869141,0 -0.566645,0.09345 -0.462462,-0.504932 -1.964844,2.673828 -0.270861,0.573067 -0.758524,1.605275 -1.083984,2.292969 -0.325474,0.68768 -0.796509,1.687789 -1.046875,2.222656 -0.250351,0.534866 -0.676118,1.440606 -0.945313,2.013672 -0.26921,0.573067 -0.723269,1.54303 -1.009765,2.154297 -0.933416,1.991559 -1.49104,3.170828 -2.13086,4.513668 -0.345873,0.72588 -0.786492,1.66373 -0.978515,2.08399 -0.192035,0.42024 -0.562204,1.21727 -0.824219,1.77148 -0.71094,1.50385 -0.947838,2.0437 -1.027344,2.27344 h 11.955078 l -1.333992,1.33398 c -0.07206,0.17658 -0.150452,0.36032 -0.275391,0.63477 -0.784062,1.7223 -0.918446,2.03209 -1.339843,3.08594 -1.082167,2.70631 -1.786768,5.225 -2.09961,7.51172 -0.23975,1.75241 0.0028,3.92361 0.685547,6.15039 0.247359,0.80669 1.159922,2.56549 1.742188,3.35742 0.943885,1.28377 2.476383,2.76307 3.726562,3.59766 2.629257,1.75522 5.334327,2.69456 9.160157,3.18164 0.538404,0.0685 9.942054,0.13357 20.287117,0.14257 15.751306,0.0152 18.880836,-0.0139 19.759166,-0.17968 3.42214,-0.64591 5.6159,-1.76604 7.90039,-4.03321 1.39015,-1.37964 1.89982,-2.05815 2.55273,-3.40429 1.41955,-2.92691 1.6004,-5.99951 0.50586,-8.57813 -0.45527,-1.07257 -0.65177,-1.40975 -1.35547,-2.32812 -1.35592,-1.7696 -3.29535,-3.10586 -5.54882,-3.82227 -2.14679,-0.6826 -2.19127,-0.64539 -24.093153,-0.65039 -15.890735,-0.004 -20.597921,0.13307 -20.982422,0 -1.022991,-0.35421 -2.000529,-1.37046 -2.3125,-2.10742 C 64.6132,109.21831 65.186331,107.86354 66,107 h 54.48047 c 0.0609,-0.0106 0.14303,-0.0259 0.19726,-0.0352 1.80996,-0.30934 6.16756,-1.56611 6.64258,-1.91601 0.0769,-0.0566 0.51701,-0.2499 0.97852,-0.42969 0.46148,-0.17977 1.02902,-0.43051 1.25976,-0.55664 0.23075,-0.1261 0.92179,-0.49968 1.53711,-0.83203 0.92521,-0.49972 2.95987,-1.8426 3.84766,-2.53906 1.64529,-1.290728 3.61081,-3.166075 4.61719,-4.404301 0.34157,-0.420253 0.65682,-0.795854 0.69922,-0.833984 0.16859,-0.151933 1.50109,-2.055757 1.89648,-2.708984 0.4064,-0.671427 1.80659,-3.460851 2.02148,-4.027344 0.058,-0.152826 0.23671,-0.622729 0.39649,-1.042969 1.16218,-3.056933 1.73048,-8.073911 1.26172,-11.146484 -0.20829,-1.365173 -0.7849,-3.88145 -1.05274,-4.595703 -0.3618,-0.964827 -0.41591,-1.089053 -1.03515,-2.386719 -1.46936,-3.079067 -3.37292,-5.460722 -6.28907,-7.867188 -1.48884,-1.2286 -4.06588,-2.731193 -6.01367,-3.505859 -0.34611,-0.137654 -0.75437,-0.300481 -0.9082,-0.363281 -0.95227,-0.38848 -2.82631,-0.922094 -4.19531,-1.19336 C 123.43016,56.038351 122.29969,56.0013 107.58984,56 Z"
     sodipodi:nodetypes="csssssscccssccscsssssssccccssscssccsscssccccccccssssscsscsscssccc" />
</svg>
