<svg width="48" height="48" version="1" xmlns="http://www.w3.org/2000/svg">
 <rect transform="matrix(0,-1,-1,0,0,0)" x="-44" y="-44" width="40" height="39.996" rx="20" ry="19.998" style="fill:#c2352a"/>
 <path d="m24 4c-11.079 0-19.998 8.92-19.998 20 0 0.16772-4e-3 0.33329 0 0.5 0.2642-10.846 9.087-19.5 19.998-19.5s19.734 8.6536 19.998 19.5c4e-3 -0.16671 0-0.33228 0-0.5 0-11.08-8.919-20-19.998-20z" style="fill:#ffffff;opacity:.2"/>
 <path d="m4.0117 24.5c-0.0041 0.167-0.0117 0.332-0.0117 0.5 0 11.08 8.92 20 20 20s20-8.92 20-20c0-0.168-8e-3 -0.333-0.012-0.5-0.264 10.846-9.076 19.5-19.988 19.5s-19.724-8.654-19.988-19.5z" style="opacity:.2"/>
 <path d="m17.58716 32.924282c-0.520208-0.07-1.445579-0.3712-2.062826-0.6683-4.021608-1.927-5.6662645-6.7804-3.685473-10.8685 2.262904-4.6743 8.437374-5.8659 12.15286-2.3451 1.07443 1.0165 1.551621 1.8839 3.169267 5.7298 1.688676 4.022 2.0008 4.6544 2.548019 5.1906 0.586235 0.5703 1.129452 0.7624 2.168867 0.7624 1.707683 0 2.927171-1.0555 2.927171-2.5283 0-1.2466-0.438175-1.6458-2.673069-2.4392-3.403361-1.2276-4.505802-2.3371-4.509803-4.5653 0-1.1886 0.30112-1.981 1.066426-2.8024 1.098439-1.1725 2.993197-1.5597 4.669867-0.9775 0.715286 0.2542 2.211885 1.5788 2.211885 1.958 0 0.1841-0.867347 0.7464-1.348539 0.8795-0.254102 0.066-0.47319-0.02-0.766307-0.3012-0.594237-0.5703-0.996398-0.7464-1.707683-0.7464-1.22749 0-1.988795 0.7384-1.988795 1.931 0 1.1886 0.484194 1.5908 2.903161 2.4072 3.333333 1.1256 4.317725 2.1421 4.337733 4.4943 0.02001 2.032-0.895357 3.4977-2.716085 4.3651-0.828331 0.3912-1.109443 0.4413-2.461984 0.4413-1.930772 0-2.798119-0.3592-3.880552-1.5788-0.72729-0.8204-1.465586-2.3602-3.829531-7.981-0.980392-2.3292-2.238895-3.4708-4.337735-3.92-1.063425-0.2271-2.544017-0.016-3.509404 0.4923-0.941376 0.4922-1.992797 1.6028-2.488995 2.6183-0.410164 0.8244-0.44918 1.0555-0.44918 2.4892 0 1.3677 0.05502 1.6919 0.39816 2.4422 0.520208 1.1456 1.543617 2.2041 2.669067 2.7744 0.813326 0.4102 1.066427 0.4613 2.363946 0.4613 1.246498 0 1.566626-0.059 2.309924-0.4142 0.848339-0.4143 1.988795-1.4308 2.453981-2.1921l0.242097-0.3952 0.477191 1.0905c0.266106 0.6023 0.480192 1.1686 0.480192 1.2706 0 0.3012-1.078431 1.2857-2.066827 1.899-1.5006 0.9265-3.224289 1.2736-5.065025 1.0235m-4e-3 0" style="fill:#000000;opacity:.2"/>
 <path d="m17.58716 31.924189c-0.520208-0.07-1.445579-0.3712-2.062826-0.6683-4.021608-1.927-5.6662645-6.7804-3.685473-10.8685 2.262904-4.6743 8.437374-5.8659 12.15286-2.3451 1.07443 1.0165 1.551621 1.8839 3.169267 5.7298 1.688676 4.022 2.0008 4.6544 2.548019 5.1906 0.586235 0.5703 1.129452 0.7624 2.168867 0.7624 1.707683 0 2.927171-1.0555 2.927171-2.5283 0-1.2466-0.438175-1.6458-2.673069-2.4392-3.403361-1.2276-4.505802-2.3371-4.509803-4.5653 0-1.1886 0.30112-1.981 1.066426-2.8024 1.098439-1.1725 2.993197-1.5597 4.669867-0.9775 0.715286 0.2542 2.211885 1.5788 2.211885 1.958 0 0.1841-0.867347 0.7464-1.348539 0.8795-0.254102 0.066-0.47319-0.02-0.766307-0.3012-0.594237-0.5703-0.996398-0.7464-1.707683-0.7464-1.22749 0-1.988795 0.7384-1.988795 1.931 0 1.1886 0.484194 1.5908 2.903161 2.4072 3.333333 1.1256 4.317725 2.1421 4.337733 4.4943 0.02001 2.032-0.895357 3.4977-2.716085 4.3651-0.828331 0.3912-1.109443 0.4413-2.461984 0.4413-1.930772 0-2.798119-0.3592-3.880552-1.5788-0.72729-0.8204-1.465586-2.3602-3.829531-7.981-0.980392-2.3292-2.238895-3.4708-4.337735-3.92-1.063425-0.2271-2.544017-0.016-3.509404 0.4923-0.941376 0.4922-1.992797 1.6028-2.488995 2.6183-0.410164 0.8244-0.44918 1.0555-0.44918 2.4892 0 1.3677 0.05502 1.6919 0.39816 2.4422 0.520208 1.1456 1.543617 2.2041 2.669067 2.7744 0.813326 0.4102 1.066427 0.4613 2.363946 0.4613 1.246498 0 1.566626-0.059 2.309924-0.4142 0.848339-0.4143 1.988795-1.4308 2.453981-2.1921l0.242097-0.3952 0.477191 1.0905c0.266106 0.6023 0.480192 1.1686 0.480192 1.2706 0 0.3012-1.078431 1.2857-2.066827 1.899-1.5006 0.9265-3.224289 1.2736-5.065025 1.0235m-4e-3 0" style="fill:#ffffff"/>
</svg>
