<?xml version="1.0" encoding="UTF-8" standalone="no"?>
<svg
   width="192"
   height="192"
   version="1"
   id="svg28"
   sodipodi:docname="apps_houzz.svg"
   inkscape:version="1.1.1 (1:1.1+202109281949+c3084ef5ed)"
   xmlns:inkscape="http://www.inkscape.org/namespaces/inkscape"
   xmlns:sodipodi="http://sodipodi.sourceforge.net/DTD/sodipodi-0.dtd"
   xmlns="http://www.w3.org/2000/svg"
   xmlns:svg="http://www.w3.org/2000/svg"
   xmlns:rdf="http://www.w3.org/1999/02/22-rdf-syntax-ns#"
   xmlns:cc="http://creativecommons.org/ns#"
   xmlns:dc="http://purl.org/dc/elements/1.1/">
  <metadata
     id="metadata34">
    <rdf:RDF>
      <cc:Work
         rdf:about="">
        <dc:format>image/svg+xml</dc:format>
        <dc:type
           rdf:resource="http://purl.org/dc/dcmitype/StillImage" />
      </cc:Work>
    </rdf:RDF>
  </metadata>
  <defs
     id="defs32">
    <filter
       inkscape:collect="always"
       style="color-interpolation-filters:sRGB"
       id="filter6495"
       x="-0.048000001"
       y="-0.048000001"
       width="1.096"
       height="1.096">
      <feGaussianBlur
         inkscape:collect="always"
         stdDeviation="3.2"
         id="feGaussianBlur6497" />
    </filter>
    <filter
       inkscape:collect="always"
       style="color-interpolation-filters:sRGB"
       id="filter1925"
       x="-0.079213483"
       y="-0.071212123"
       width="1.158427"
       height="1.1424242">
      <feGaussianBlur
         inkscape:collect="always"
         stdDeviation="2.9375"
         id="feGaussianBlur1927" />
    </filter>
  </defs>
  <sodipodi:namedview
     pagecolor="#ffffff"
     bordercolor="#666666"
     borderopacity="1"
     objecttolerance="10"
     gridtolerance="10"
     guidetolerance="10"
     inkscape:pageopacity="0"
     inkscape:pageshadow="2"
     inkscape:window-width="1920"
     inkscape:window-height="1014"
     id="namedview30"
     showgrid="false"
     inkscape:zoom="2.86"
     inkscape:cx="98.076923"
     inkscape:cy="125.87413"
     inkscape:window-x="0"
     inkscape:window-y="34"
     inkscape:window-maximized="1"
     inkscape:current-layer="svg28"
     inkscape:pagecheckerboard="0">
    <inkscape:grid
       type="xygrid"
       id="grid841" />
  </sodipodi:namedview>
  <rect
     id="rect6457"
     transform="matrix(0,-1,-1,0,0,0)"
     ry="12"
     rx="12"
     y="-176"
     x="-180"
     height="160"
     width="160"
     style="opacity:0.2;fill:#000000;fill-opacity:1;stroke-width:4;filter:url(#filter6495)" />
  <rect
     id="rect2"
     transform="matrix(0,-1,-1,0,0,0)"
     ry="12"
     rx="12"
     y="-176"
     x="-176"
     height="160"
     width="160"
     style="fill:#e4e4e4;fill-opacity:1;stroke-width:4" />
  <path
     id="path1887"
     style="opacity:0.2;mix-blend-mode:normal;fill:#000000;fill-opacity:1;stroke-width:7.83949;stroke-linecap:round;stroke-linejoin:round;filter:url(#filter1925)"
     d="M 53,48.000002 V 147 H 68.056641 75 87 v -31 h 22 v 31 h 33 V 91.000002 L 75,71.896486 V 48.000002 Z" />
  <path
     id="rect1165"
     style="opacity:1;fill:#4dbc15;fill-opacity:1;stroke-width:7.83949;stroke-linecap:round;stroke-linejoin:round"
     d="M 53,46.000002 V 145 H 68.056641 75 87 v -31 h 22 v 31 h 33 V 89.000002 L 75,69.896486 V 46.000002 Z" />
  <path
     id="rect2237"
     style="fill:#ffffff;fill-opacity:1;stroke-width:4;opacity:0.2"
     d="M 28 16 C 21.352 16 16 21.352 16 28 L 16 29 C 16 22.352 21.352 17 28 17 L 164 17 C 170.648 17 176 22.352 176 29 L 176 28 C 176 21.352 170.648 16 164 16 L 28 16 z " />
</svg>
