<?xml version="1.0" encoding="UTF-8" standalone="no"?>
<svg
   width="192"
   height="192"
   version="1"
   id="svg24"
   sodipodi:docname="apps_duplicati.svg"
   inkscape:version="1.1-rc (1:1.1+rc+202105232036+f4db50c7c1)"
   xmlns:inkscape="http://www.inkscape.org/namespaces/inkscape"
   xmlns:sodipodi="http://sodipodi.sourceforge.net/DTD/sodipodi-0.dtd"
   xmlns="http://www.w3.org/2000/svg"
   xmlns:svg="http://www.w3.org/2000/svg">
  <defs
     id="defs28">
    <filter
       inkscape:collect="always"
       style="color-interpolation-filters:sRGB"
       id="filter869"
       x="-0.044"
       y="-0.0528"
       width="1.088"
       height="1.1056">
      <feGaussianBlur
         inkscape:collect="always"
         stdDeviation="1.76"
         id="feGaussianBlur871" />
    </filter>
    <filter
       inkscape:collect="always"
       style="color-interpolation-filters:sRGB"
       id="filter873"
       x="-0.044"
       y="-0.0528"
       width="1.088"
       height="1.1056">
      <feGaussianBlur
         inkscape:collect="always"
         stdDeviation="1.76"
         id="feGaussianBlur875" />
    </filter>
    <filter
       inkscape:collect="always"
       style="color-interpolation-filters:sRGB"
       id="filter877"
       x="-0.045000002"
       y="-0.051428573"
       width="1.09"
       height="1.1028571">
      <feGaussianBlur
         inkscape:collect="always"
         stdDeviation="2.4"
         id="feGaussianBlur879" />
    </filter>
  </defs>
  <sodipodi:namedview
     id="namedview26"
     pagecolor="#ffffff"
     bordercolor="#666666"
     borderopacity="1.0"
     inkscape:pageshadow="2"
     inkscape:pageopacity="0.0"
     inkscape:pagecheckerboard="0"
     showgrid="false"
     inkscape:zoom="2.48"
     inkscape:cx="23.991935"
     inkscape:cy="88.508065"
     inkscape:window-width="1920"
     inkscape:window-height="1019"
     inkscape:window-x="0"
     inkscape:window-y="34"
     inkscape:window-maximized="1"
     inkscape:current-layer="svg24" />
  <path
     style="opacity:0.2;stroke-width:4;filter:url(#filter873)"
     d="m 80,90 c -10.872432,0 -20,9.127568 -20,20 v 40 c 0,10.87243 9.127568,20 20,20 h 56 c 10.87243,0 20,-9.12757 20,-20 v -40 c 0,-10.872432 -9.12757,-20 -20,-20 z"
     id="path2" />
  <rect
     style="fill:none;stroke:#e4e4e4;stroke-width:24;stroke-linejoin:round"
     width="72"
     height="56"
     x="72"
     y="98"
     rx="8"
     ry="8"
     id="rect4" />
  <rect
     style="fill:#1fa8f3;stroke-width:4"
     width="72"
     height="56"
     x="72"
     y="98"
     rx="8"
     ry="8"
     id="rect6" />
  <path
     style="opacity:0.2;stroke-width:4;filter:url(#filter869)"
     d="m 32,98 c -10.872433,0 -20,9.12757 -20,20 v 40 c 0,10.87243 9.127567,20 20,20 h 56 c 10.872432,0 20,-9.12757 20,-20 V 118 C 108,107.12757 98.872432,98 88,98 Z"
     id="path8" />
  <rect
     style="fill:none;stroke:#e4e4e4;stroke-width:24;stroke-linejoin:round"
     width="72"
     height="56"
     x="24"
     y="106"
     rx="8"
     ry="8"
     id="rect10" />
  <path
     id="path12"
     style="opacity:0.2;fill:#ffffff;stroke-width:4"
     d="M 32 94 C 21.127567 94 12 103.12757 12 114 L 12 115 C 12 104.12757 21.127567 95 32 95 L 88 95 C 98.872432 95 108 104.12757 108 115 L 108 114 C 108 103.12757 98.872432 94 88 94 L 32 94 z " />
  <rect
     style="fill:#2475c2;stroke-width:4"
     width="72"
     height="56"
     x="24"
     y="106"
     rx="8"
     ry="8"
     id="rect14" />
  <path
     style="opacity:0.2;stroke-width:4;filter:url(#filter877)"
     d="M 76,22 C 62.911568,22 52,32.911567 52,46 v 64 c 0,13.08843 10.911568,24 24,24 h 80 c 13.08843,0 24,-10.91157 24,-24 V 46 C 180,32.911567 169.08843,22 156,22 Z"
     id="path16" />
  <rect
     style="fill:none;stroke:#e4e4e4;stroke-width:24;stroke-linejoin:round"
     width="104"
     height="88"
     x="64"
     y="30"
     rx="12"
     ry="12"
     id="rect18" />
  <rect
     style="fill:#15477d;stroke-width:4"
     width="104"
     height="88"
     x="64"
     y="30"
     rx="12"
     ry="12"
     id="rect20" />
  <path
     id="path22"
     style="opacity:0.2;fill:#ffffff;stroke-width:4"
     d="M 76 18 C 62.911568 18 52 28.911567 52 42 L 52 43 C 52 29.911567 62.911568 19 76 19 L 156 19 C 169.08843 19 180 29.911567 180 43 L 180 42 C 180 28.911567 169.08843 18 156 18 L 76 18 z " />
</svg>
