<?xml version="1.0" encoding="UTF-8" standalone="no"?>
<svg
   width="192"
   height="192"
   version="1"
   id="svg28"
   sodipodi:docname="apps_bluecoins.svg"
   inkscape:version="1.1.1 (1:1.1+202109281949+c3084ef5ed)"
   xmlns:inkscape="http://www.inkscape.org/namespaces/inkscape"
   xmlns:sodipodi="http://sodipodi.sourceforge.net/DTD/sodipodi-0.dtd"
   xmlns="http://www.w3.org/2000/svg"
   xmlns:svg="http://www.w3.org/2000/svg"
   xmlns:rdf="http://www.w3.org/1999/02/22-rdf-syntax-ns#"
   xmlns:cc="http://creativecommons.org/ns#"
   xmlns:dc="http://purl.org/dc/elements/1.1/">
  <metadata
     id="metadata34">
    <rdf:RDF>
      <cc:Work
         rdf:about="">
        <dc:format>image/svg+xml</dc:format>
        <dc:type
           rdf:resource="http://purl.org/dc/dcmitype/StillImage" />
      </cc:Work>
    </rdf:RDF>
  </metadata>
  <defs
     id="defs32">
    <filter
       inkscape:collect="always"
       style="color-interpolation-filters:sRGB"
       id="filter28244"
       x="-0.11009605"
       y="-0.10558346"
       width="1.2201921"
       height="1.2111669">
      <feGaussianBlur
         inkscape:collect="always"
         stdDeviation="3.0795176"
         id="feGaussianBlur28246" />
    </filter>
    <filter
       inkscape:collect="always"
       style="color-interpolation-filters:sRGB"
       id="filter28248"
       x="-0.10558346"
       y="-0.10558346"
       width="1.2111669"
       height="1.2111669">
      <feGaussianBlur
         inkscape:collect="always"
         stdDeviation="3.0795176"
         id="feGaussianBlur28250" />
    </filter>
    <filter
       inkscape:collect="always"
       style="color-interpolation-filters:sRGB"
       id="filter28252"
       x="-0.10558346"
       y="-0.10558346"
       width="1.2111669"
       height="1.2111669">
      <feGaussianBlur
         inkscape:collect="always"
         stdDeviation="3.0795176"
         id="feGaussianBlur28254" />
    </filter>
    <filter
       inkscape:collect="always"
       style="color-interpolation-filters:sRGB"
       id="filter28256"
       x="-0.10558346"
       y="-0.10558346"
       width="1.2111669"
       height="1.2111669">
      <feGaussianBlur
         inkscape:collect="always"
         stdDeviation="3.0795176"
         id="feGaussianBlur28258" />
    </filter>
    <filter
       inkscape:collect="always"
       style="color-interpolation-filters:sRGB"
       id="filter28260"
       x="-0.10558346"
       y="-0.10558346"
       width="1.2111669"
       height="1.2111669">
      <feGaussianBlur
         inkscape:collect="always"
         stdDeviation="3.0795176"
         id="feGaussianBlur28262" />
    </filter>
    <filter
       inkscape:collect="always"
       style="color-interpolation-filters:sRGB"
       id="filter28264"
       x="-0.10558346"
       y="-0.10558346"
       width="1.2111669"
       height="1.2111669">
      <feGaussianBlur
         inkscape:collect="always"
         stdDeviation="3.0795176"
         id="feGaussianBlur28266" />
    </filter>
  </defs>
  <sodipodi:namedview
     pagecolor="#ffffff"
     bordercolor="#666666"
     borderopacity="1"
     objecttolerance="10"
     gridtolerance="10"
     guidetolerance="10"
     inkscape:pageopacity="0"
     inkscape:pageshadow="2"
     inkscape:window-width="1920"
     inkscape:window-height="1022"
     id="namedview30"
     showgrid="false"
     inkscape:zoom="1"
     inkscape:cx="80"
     inkscape:cy="66"
     inkscape:window-x="0"
     inkscape:window-y="34"
     inkscape:window-maximized="1"
     inkscape:current-layer="svg28"
     inkscape:pagecheckerboard="0"
     inkscape:snap-global="true"
     showguides="false"
     inkscape:snap-bbox="true"
     inkscape:snap-bbox-midpoints="true">
    <inkscape:grid
       type="xygrid"
       id="grid841" />
  </sodipodi:namedview>
  <circle
     style="opacity:0.2;fill:#000000;fill-opacity:1;stroke-width:18.1861;stroke-linecap:round;stroke-linejoin:round;filter:url(#filter28264)"
     id="circle27595"
     cx="36.870491"
     cy="87.138435"
     r="35"
     transform="matrix(-0.5,0.8660254,0.8660254,0.5,0,0)" />
  <circle
     style="opacity:1;fill:#a9dfff;stroke-width:18.1861;stroke-linecap:round;stroke-linejoin:round;fill-opacity:1"
     id="circle1515"
     cx="35.138439"
     cy="86.138435"
     r="35"
     transform="matrix(-0.5,0.8660254,0.8660254,0.5,0,0)" />
  <circle
     style="opacity:0.2;fill:#000000;fill-opacity:1;stroke-width:18.1861;stroke-linecap:round;stroke-linejoin:round;filter:url(#filter28260)"
     id="circle27597"
     cx="132.8705"
     cy="10.861561"
     r="35"
     transform="rotate(60)" />
  <circle
     style="opacity:1;fill:#55b9fe;stroke-width:18.1861;stroke-linecap:round;stroke-linejoin:round;fill-opacity:1"
     id="circle1509"
     cx="131.13844"
     cy="9.8615608"
     r="35"
     transform="rotate(60)" />
  <circle
     style="opacity:0.2;fill:#000000;fill-opacity:1;stroke-width:18.1861;stroke-linecap:round;stroke-linejoin:round;filter:url(#filter28256)"
     id="circle27599"
     cx="96"
     cy="143"
     r="35" />
  <circle
     style="opacity:1;fill:#dcf2fd;stroke-width:18.1861;stroke-linecap:round;stroke-linejoin:round;fill-opacity:1"
     id="circle1505"
     cx="96"
     cy="141"
     r="35" />
  <circle
     style="opacity:0.2;fill:#000000;fill-opacity:1;stroke-width:18.1861;stroke-linecap:round;stroke-linejoin:round;filter:url(#filter28252)"
     id="circle27601"
     cx="36.870491"
     cy="177.13844"
     r="35"
     transform="matrix(-0.5,0.8660254,0.8660254,0.5,0,0)" />
  <path
     id="circle28654"
     style="opacity:0.2;fill:#ffffff;stroke-width:18.1861;stroke-linecap:round;stroke-linejoin:round;fill-opacity:1"
     d="M 96 106 A 35 35 0 0 0 61 141 A 35 35 0 0 0 61.035156 141.5 A 35 35 0 0 1 96 107 A 35 35 0 0 1 130.98242 141.25977 A 35 35 0 0 0 131 141 A 35 35 0 0 0 96 106 z " />
  <circle
     style="opacity:1;fill:#a9dfff;stroke-width:18.1861;stroke-linecap:round;stroke-linejoin:round;fill-opacity:1"
     id="circle1517"
     cx="35.138439"
     cy="176.13844"
     r="35"
     transform="matrix(-0.5,0.8660254,0.8660254,0.5,0,0)" />
  <circle
     style="opacity:0.2;fill:#000000;fill-opacity:1;stroke-width:18.1861;stroke-linecap:round;stroke-linejoin:round;filter:url(#filter28248)"
     id="circle27603"
     cx="132.8705"
     cy="-79.138435"
     r="35"
     transform="rotate(60)" />
  <circle
     style="opacity:1;fill:#55b9fe;stroke-width:18.1861;stroke-linecap:round;stroke-linejoin:round;fill-opacity:1"
     id="circle1507"
     cx="131.13844"
     cy="-80.138435"
     r="35"
     transform="rotate(60)" />
  <path
     id="circle28656"
     style="opacity:0.2;fill:#ffffff;stroke-width:18.1861;stroke-linecap:round;stroke-linejoin:round;fill-opacity:1"
     d="M 136.63672 38.539062 A 35 35 0 0 0 117.4707 43.189453 A 35 35 0 0 0 100.03125 72.669922 A 35 35 0 0 1 117.4707 44.189453 A 35 35 0 0 1 165.28125 57 A 35 35 0 0 1 169.96094 74.234375 A 35 35 0 0 0 165.28125 56 A 35 35 0 0 0 136.63672 38.539062 z " />
  <path
     id="circle27605"
     style="opacity:0.2;mix-blend-mode:normal;fill:#000000;fill-opacity:1;stroke-width:18.1861;stroke-linecap:round;stroke-linejoin:round;filter:url(#filter28244)"
     d="M 96,18 C 82.004828,18.021716 69.368015,26.378405 63.869141,39.248047 67.613532,39.97228 81.697465,24.028992 85.01238,25.914813 100.34605,34.77437 120.63498,54.797291 93.211864,85.228496 95.447577,85.699751 93.715326,87.972453 96,88 115.32997,88 131,72.329966 131,53 131,33.670034 115.32997,18 96,18 Z"
     sodipodi:nodetypes="cccccsc" />
  <path
     id="path1297"
     style="opacity:1;fill:#dcf2fd;stroke-width:18.1861;stroke-linecap:round;stroke-linejoin:round;fill-opacity:1"
     d="M 96 16 A 35 35 0 0 0 63.166016 39.130859 A 35 35 0 0 1 74.529297 43.189453 A 35 35 0 0 1 89.931641 85.408203 A 35 35 0 0 0 96 86 A 35 35 0 0 0 131 51 A 35 35 0 0 0 96 16 z " />
  <path
     id="path28658"
     style="opacity:0.2;fill:#ffffff;stroke-width:18.1861;stroke-linecap:round;stroke-linejoin:round;fill-opacity:1"
     d="M 96 16 A 35 35 0 0 0 63.166016 39.130859 A 35 35 0 0 1 63.564453 39.222656 A 35 35 0 0 1 96 17 A 35 35 0 0 1 130.98242 51.259766 A 35 35 0 0 0 131 51 A 35 35 0 0 0 96 16 z M 92.011719 74.101562 A 35 35 0 0 1 89.931641 85.408203 A 35 35 0 0 0 90.255859 85.453125 A 35 35 0 0 0 92.011719 74.101562 z " />
</svg>
