<?xml version="1.0" encoding="UTF-8" standalone="no"?>
<svg
   width="192"
   height="192"
   version="1.1"
   id="svg22"
   sodipodi:docname="apps_picture_mushroom.svg"
   inkscape:version="1.1.1 (1:1.1+202109281949+c3084ef5ed)"
   xmlns:inkscape="http://www.inkscape.org/namespaces/inkscape"
   xmlns:sodipodi="http://sodipodi.sourceforge.net/DTD/sodipodi-0.dtd"
   xmlns="http://www.w3.org/2000/svg"
   xmlns:svg="http://www.w3.org/2000/svg">
  <defs
     id="defs26">
    <filter
       inkscape:collect="always"
       style="color-interpolation-filters:sRGB"
       id="filter2611"
       x="-0.048000001"
       y="-0.048000001"
       width="1.096"
       height="1.096">
      <feGaussianBlur
         inkscape:collect="always"
         stdDeviation="3.2"
         id="feGaussianBlur2613" />
    </filter>
    <filter
       inkscape:collect="always"
       style="color-interpolation-filters:sRGB"
       id="filter2615"
       x="-0.045205688"
       y="-0.21999508"
       width="1.0904114"
       height="1.4399902">
      <feGaussianBlur
         inkscape:collect="always"
         stdDeviation="1.8082275"
         id="feGaussianBlur2617" />
    </filter>
    <filter
       inkscape:collect="always"
       style="color-interpolation-filters:sRGB"
       id="filter2619"
       x="-0.044"
       y="-0.0528"
       width="1.088"
       height="1.1056">
      <feGaussianBlur
         inkscape:collect="always"
         stdDeviation="1.76"
         id="feGaussianBlur2621" />
    </filter>
    <filter
       inkscape:collect="always"
       style="color-interpolation-filters:sRGB"
       id="filter2644"
       x="-0.085500002"
       y="-0.14657143"
       width="1.171"
       height="1.2931429">
      <feGaussianBlur
         inkscape:collect="always"
         stdDeviation="1.71"
         id="feGaussianBlur2646" />
    </filter>
  </defs>
  <sodipodi:namedview
     id="namedview24"
     pagecolor="#ffffff"
     bordercolor="#666666"
     borderopacity="1.0"
     inkscape:pageshadow="2"
     inkscape:pageopacity="0.0"
     inkscape:pagecheckerboard="0"
     showgrid="false"
     inkscape:zoom="1"
     inkscape:cx="23.5"
     inkscape:cy="92.5"
     inkscape:window-width="1920"
     inkscape:window-height="1019"
     inkscape:window-x="0"
     inkscape:window-y="34"
     inkscape:window-maximized="1"
     inkscape:current-layer="svg22" />
  <path
     d="M 96,20 C 96,20 78.727828,20.315434 64.539064,27.5625 42.905508,38.612075 16,68 16,100 c 0,28 11.254237,41.40678 28,48 1.459548,0.51084 3.085984,0.92612 4.656248,1.375 C 52.709016,179.89806 76.967772,180 96,180 c 19.03223,0 43.29098,-0.10194 47.34375,-30.625 1.57027,-0.44888 3.1967,-0.86416 4.65625,-1.375 16.74576,-6.59322 28,-20 28,-48 C 176,68 149.09449,38.612075 127.46094,27.5625 113.27217,20.315434 96,20 96,20 Z"
     style="opacity:0.2;stroke-width:4;filter:url(#filter2611)"
     id="path2" />
  <path
     d="m 96,16 c 0,0 -17.272172,0.315432 -31.460936,7.5625 -11.679856,5.965612 -24.865269,17.302868 -34.554689,31.484376 l -0.0078,0.0156 -13.742187,36.3125 c -0.04492,0.562908 -0.05717,1.130368 -0.08594,1.695312 L 20,120.55469 C 24.68032,132.6016 33.180468,139.74008 44,144 c 20,7 52,8 52,8 0,0 32,-1 52,-8 10.81953,-4.25992 19.31968,-11.3984 24,-23.44531 l 3.85156,-27.484378 c -0.0288,-0.564944 -0.041,-1.132404 -0.0859,-1.695312 l -13.7422,-36.3125 c -0.003,-0.0048 -0.004,-0.0108 -0.008,-0.0156 C 152.3262,40.865368 139.14079,29.528112 127.46094,23.5625 113.27217,16.315434 96,16 96,16 Z"
     style="fill:#e22d3d;fill-opacity:1;stroke-width:4"
     id="path4" />
  <path
     d="m 144,136 c 0,40 -27.17267,40 -48,40 -20.827332,0 -48,0 -48,-40 0,0 8,-16 48,-16 40,0 48,16 48,16 z"
     style="fill:#e4e4e4;stroke-width:4"
     id="path6" />
  <ellipse
     cx="96"
     cy="66"
     rx="48"
     ry="40"
     style="opacity:0.2;stroke-width:4;filter:url(#filter2619)"
     id="ellipse8" />
  <ellipse
     cx="96"
     cy="64"
     rx="48"
     ry="40"
     style="fill:#ffffff;stroke-width:4"
     id="ellipse10" />
  <path
     d="M 29.984375,55.046876 C 21.726941,67.132516 16,81.276648 16,96 c 0,9.90904 1.436428,17.95618 4,24.55469 0,0 0.233568,-21.271342 1.015625,-28.078126 1.830508,-15.932204 4.638081,-22.266696 8.96875,-37.429688 z m 132.031245,0 c 4.33067,15.162992 7.13825,21.497484 8.96876,37.429688 C 171.76644,99.283348 172,120.55469 172,120.55469 174.56357,113.95618 176,105.90904 176,96 176,81.276648 170.27306,67.132516 162.01562,55.046876 Z"
     style="fill:#e4e4e4;stroke-width:4"
     id="path12" />
  <path
     d="m 78,130 c -3.324,0 -6,2.676 -6,6 v 16 c 0,3.324 2.676,6 6,6 3.324,0 6,-2.676 6,-6 v -16 c 0,-3.324 -2.676,-6 -6,-6 z m 36,0 c -3.324,0 -6,2.676 -6,6 v 16 c 0,3.324 2.676,6 6,6 3.324,0 6,-2.676 6,-6 v -16 c 0,-3.324 -2.676,-6 -6,-6 z"
     style="opacity:0.2;stroke-width:4;filter:url(#filter2644)"
     id="path14" />
  <path
     d="m 78,128 c -3.324,0 -6,2.676 -6,6 v 16 c 0,3.324 2.676,6 6,6 3.324,0 6,-2.676 6,-6 v -16 c 0,-3.324 -2.676,-6 -6,-6 z m 36,0 c -3.324,0 -6,2.676 -6,6 v 16 c 0,3.324 2.676,6 6,6 3.324,0 6,-2.676 6,-6 v -16 c 0,-3.324 -2.676,-6 -6,-6 z"
     style="fill:#3f3f3f;stroke-width:4"
     id="path16" />
  <path
     d="m 96,118.99969 c -40,0 -48,16 -48,16 0,1.32351 0.1058,2.48919 0.16408,3.72656 0.80724,-1.42883 9.812468,-15.72656 47.83592,-15.72656 38.02345,0 47.02868,14.29773 47.83594,15.72656 0.0583,-1.23737 0.16406,-2.40305 0.16406,-3.72656 0,0 -8,-16 -48,-16 z"
     style="opacity:0.2;mix-blend-mode:normal;stroke-width:4;filter:url(#filter2615)"
     id="path18" />
  <path
     id="path20"
     style="opacity:0.2;fill:#ffffff;stroke-width:4"
     d="M 96 16 C 96 16 78.727827 16.315434 64.539062 23.5625 C 42.905507 34.612075 16 64 16 96 C 16 96.170968 16.010858 96.328689 16.013672 96.496094 C 16.294495 64.692288 43.019361 35.553923 64.539062 24.5625 C 78.727827 17.315434 96 17 96 17 C 96 17 113.27217 17.315434 127.46094 24.5625 C 148.98063 35.553923 175.7055 64.692288 175.98633 96.496094 C 175.98914 96.328689 176 96.170968 176 96 C 176 64 149.09449 34.612075 127.46094 23.5625 C 113.27217 16.315434 96 16 96 16 z " />
</svg>
