<?xml version="1.0" encoding="UTF-8" standalone="no"?>
<svg
   width="192"
   height="192"
   version="1"
   id="svg20"
   sodipodi:docname="apps_rescuetime.svg"
   inkscape:version="1.1-rc (1:1.1+rc+202105232036+f4db50c7c1)"
   xmlns:inkscape="http://www.inkscape.org/namespaces/inkscape"
   xmlns:sodipodi="http://sodipodi.sourceforge.net/DTD/sodipodi-0.dtd"
   xmlns="http://www.w3.org/2000/svg"
   xmlns:svg="http://www.w3.org/2000/svg">
  <defs
     id="defs24">
    <filter
       inkscape:collect="always"
       style="color-interpolation-filters:sRGB"
       id="filter982"
       x="-0.048000001"
       y="-0.048000001"
       width="1.096"
       height="1.096">
      <feGaussianBlur
         inkscape:collect="always"
         stdDeviation="3.2"
         id="feGaussianBlur984" />
    </filter>
    <filter
       inkscape:collect="always"
       style="color-interpolation-filters:sRGB"
       id="filter1025"
       x="-0.047999999"
       y="-0.047999999"
       width="1.096"
       height="1.096">
      <feGaussianBlur
         inkscape:collect="always"
         stdDeviation="0.96"
         id="feGaussianBlur1027" />
    </filter>
    <filter
       inkscape:collect="always"
       style="color-interpolation-filters:sRGB"
       id="filter1029"
       x="-0.12"
       y="-0.03"
       width="1.24"
       height="1.06">
      <feGaussianBlur
         inkscape:collect="always"
         stdDeviation="0.8"
         id="feGaussianBlur1031" />
    </filter>
  </defs>
  <sodipodi:namedview
     id="namedview22"
     pagecolor="#ffffff"
     bordercolor="#666666"
     borderopacity="1.0"
     inkscape:pageshadow="2"
     inkscape:pageopacity="0.0"
     inkscape:pagecheckerboard="0"
     showgrid="false"
     inkscape:zoom="2.48"
     inkscape:cx="44.959677"
     inkscape:cy="56.25"
     inkscape:window-width="1920"
     inkscape:window-height="1019"
     inkscape:window-x="0"
     inkscape:window-y="34"
     inkscape:window-maximized="1"
     inkscape:current-layer="svg20" />
  <path
     id="rect941"
     style="opacity:0.2;fill:#000000;stroke-width:4;filter:url(#filter982)"
     d="m 72,20 c -4.432,0 -8,3.568 -8,8 V 68 H 24 c -4.432,0 -8,3.568 -8,8 v 48 c 0,4.432 3.568,8 8,8 h 40 v 40 c 0,4.432 3.568,8 8,8 h 48 c 4.432,0 8,-3.568 8,-8 v -40 h 40 c 4.432,0 8,-3.568 8,-8 V 76 c 0,-4.432 -3.568,-8 -8,-8 H 128 V 28 c 0,-4.432 -3.568,-8 -8,-8 z" />
  <rect
     fill="#e4e4e4"
     width="64"
     height="160"
     x="64"
     y="16"
     rx="8"
     ry="8"
     id="rect2"
     style="stroke-width:4" />
  <rect
     fill="#e4e4e4"
     width="64"
     height="160"
     x="64"
     y="-176"
     rx="8"
     ry="8"
     transform="rotate(90)"
     id="rect4"
     style="stroke-width:4" />
  <rect
     opacity="0.2"
     width="16"
     height="64"
     x="90"
     y="-160"
     rx="8"
     ry="8"
     transform="rotate(90)"
     id="rect6"
     style="stroke-width:4;filter:url(#filter1029)" />
  <rect
     fill="#3e3e3e"
     width="16"
     height="64"
     x="88"
     y="32"
     rx="8"
     ry="8"
     id="rect8"
     style="stroke-width:4" />
  <rect
     fill="#3e3e3e"
     width="16"
     height="64"
     x="88"
     y="-160"
     rx="8"
     ry="8"
     transform="rotate(90)"
     id="rect10"
     style="stroke-width:4" />
  <circle
     opacity="0.2"
     cx="96"
     cy="98"
     r="24"
     id="circle12"
     style="stroke-width:4;filter:url(#filter1025)" />
  <circle
     fill="#df574d"
     cx="96"
     cy="96"
     r="24"
     id="circle14"
     style="stroke-width:4" />
  <path
     id="path18"
     style="stroke-width:4;fill:#ffffff;opacity:0.2"
     d="M 72 16 C 67.568 16 64 19.568 64 24 L 64 25 C 64 20.568 67.568 17 72 17 L 120 17 C 124.432 17 128 20.568 128 25 L 128 24 C 128 19.568 124.432 16 120 16 L 72 16 z M 24 64 C 19.568 64 16 67.568 16 72 L 16 73 C 16 68.568 19.568 65 24 65 L 64 65 L 64 64 L 24 64 z M 128 64 L 128 65 L 168 65 C 172.432 65 176 68.568 176 73 L 176 72 C 176 67.568 172.432 64 168 64 L 128 64 z " />
</svg>
