<?xml version="1.0" encoding="UTF-8" standalone="no"?>
<svg
   width="192"
   height="192"
   version="1"
   id="svg32"
   sodipodi:docname="apps_khan_academy.svg"
   inkscape:version="1.1-rc (1:1.1+rc+202105232036+f4db50c7c1)"
   xmlns:inkscape="http://www.inkscape.org/namespaces/inkscape"
   xmlns:sodipodi="http://sodipodi.sourceforge.net/DTD/sodipodi-0.dtd"
   xmlns="http://www.w3.org/2000/svg"
   xmlns:svg="http://www.w3.org/2000/svg">
  <defs
     id="defs36">
    <filter
       inkscape:collect="always"
       style="color-interpolation-filters:sRGB"
       id="filter2485"
       x="-0.04422245"
       y="-0.052483201"
       width="1.0884449"
       height="1.1049664">
      <feGaussianBlur
         inkscape:collect="always"
         stdDeviation="1.9900038"
         id="feGaussianBlur2487" />
    </filter>
    <filter
       inkscape:collect="always"
       style="color-interpolation-filters:sRGB"
       id="filter2489"
       x="-0.050260874"
       y="-0.045234409"
       width="1.1005217"
       height="1.0904688">
      <feGaussianBlur
         inkscape:collect="always"
         stdDeviation="3.0156525"
         id="feGaussianBlur2491" />
    </filter>
  </defs>
  <sodipodi:namedview
     id="namedview34"
     pagecolor="#ffffff"
     bordercolor="#666666"
     borderopacity="1.0"
     inkscape:pageshadow="2"
     inkscape:pageopacity="0.0"
     inkscape:pagecheckerboard="0"
     showgrid="false"
     inkscape:zoom="1"
     inkscape:cx="92"
     inkscape:cy="74"
     inkscape:window-width="1920"
     inkscape:window-height="1019"
     inkscape:window-x="0"
     inkscape:window-y="34"
     inkscape:window-maximized="1"
     inkscape:current-layer="svg32" />
  <path
     style="opacity:0.2;stroke-width:4;filter:url(#filter2489)"
     d="m 96.433208,20.003988 a 18.262704,18.1916 0 0 0 -9.56416,2.4268 l -53.736896,30.904 A 18.262704,18.1916 0 0 0 24,69.090788 v 61.812002 a 18.262704,18.1916 0 0 0 9.131352,15.7544 l 53.736896,30.9056 a 18.262704,18.1916 0 0 0 18.262702,0 l 53.7369,-30.9056 A 18.262704,18.1916 0 0 0 168,130.90119 V 69.089188 a 18.262704,18.1916 0 0 0 -9.13215,-15.756 l -53.7369,-30.904 a 18.262704,18.1916 0 0 0 -8.700142,-2.4268 z"
     id="path2" />
  <path
     style="fill:#0ac699;fill-opacity:1;stroke-width:4"
     d="m 96.429688,16 v 0.0078 a 18.262704,18.1916 0 0 0 -9.5625,2.421888 L 33.132812,49.335936 A 18.262704,18.1916 0 0 0 24,65.093752 v 61.812498 a 18.262704,18.1916 0 0 0 9.132812,15.75 l 53.734376,30.90625 a 18.262704,18.1916 0 0 0 18.265622,0 l 53.73438,-30.90625 A 18.262704,18.1916 0 0 0 168,126.90625 V 65.093752 A 18.262704,18.1916 0 0 0 158.86719,49.335936 L 105.13281,18.429688 A 18.262704,18.1916 0 0 0 96.429688,16 Z"
     id="path4" />
  <path
     id="path20"
     style="opacity:0.2;fill:#ffffff;stroke-width:4"
     d="m 96.427734,16.007812 a 18.262096,18.1916 0 0 0 -9.560546,2.421876 L 33.132812,49.335938 A 18.262096,18.1916 0 0 0 24,65.091797 v 1 a 18.262096,18.1916 0 0 1 9.132812,-15.755859 l 53.734376,-30.90625 a 18.262096,18.1916 0 0 1 9.560546,-2.421876 h 0.002 a 18.262096,18.1916 0 0 1 8.703126,2.421876 l 53.73438,30.90625 A 18.262096,18.1916 0 0 1 168,66.091797 v -1 a 18.262096,18.1916 0 0 0 -9.13281,-15.755859 l -53.73438,-30.90625 a 18.262096,18.1916 0 0 0 -8.703122,-2.421876 z" />
  <path
     id="path2447"
     style="opacity:0.2;fill:#000000;fill-opacity:1;stroke-width:6.03283;stroke-linecap:round;stroke-linejoin:round;filter:url(#filter2485);stop-color:#000000"
     d="m 96,53.999265 a 17,17 0 0 0 -17,17 17,17 0 0 0 17,17 17,17 0 0 0 17,-17 17,17 0 0 0 -17,-17 z m -53.753906,30 -0.142578,0.951172 c -0.277947,1.842546 0.04819,10.761524 0.496093,13.544922 0.980869,6.095421 2.599119,11.213951 5.22461,16.531241 5.661704,11.46639 15.323179,20.73299 26.646484,25.5586 8.145121,3.47117 17.573933,5.0014 25.960937,4.21094 7.33103,-0.69094 13.02341,-2.25128 19.21875,-5.26563 5.50493,-2.67841 9.71269,-5.6652 14.0293,-9.95898 9.34901,-9.29951 14.90388,-21.27912 16.11719,-34.759765 0.22939,-2.549053 0.27707,-8.403197 0.0801,-9.832031 L 149.75,84.055906 h -1.05469 c -1.42456,0 -4.80564,0.341671 -7.00586,0.708984 -8.98198,1.49951 -17.84487,5.591917 -24.74414,11.423828 -7.76883,6.566942 -13.36627,14.705822 -16.72265,24.314452 -1.902655,5.44696 -3.109419,12.34165 -3.111332,17.77734 l -0.002,1.94141 H 96.039062 94.96875 l -0.132812,-3.0625 c -0.37412,-8.62588 -2.213708,-15.85324 -5.9375,-23.32813 C 86.094141,108.20213 82.785352,103.64317 78.275391,99.192623 69.106389,90.144479 57.307949,84.870547 44.583984,84.134031 Z" />
  <path
     id="path2056"
     style="fill:#ffffff;fill-opacity:1;stroke-width:6.03283;stroke-linecap:round;stroke-linejoin:round;stop-color:#000000"
     d="M 96,51 A 17,17 0 0 0 79,68 17,17 0 0 0 96,85 17,17 0 0 0 113,68 17,17 0 0 0 96,51 Z m -53.753906,30 -0.142578,0.951172 c -0.277947,1.842546 0.04819,10.761524 0.496093,13.544922 0.980869,6.095426 2.599119,11.213956 5.22461,16.531246 5.661704,11.46639 15.323179,20.73299 26.646484,25.5586 8.145121,3.47117 17.573933,5.0014 25.960937,4.21094 7.33103,-0.69094 13.02341,-2.25128 19.21875,-5.26563 5.50493,-2.67841 9.71269,-5.6652 14.0293,-9.95898 9.34901,-9.29951 14.90388,-21.27912 16.11719,-34.75977 0.22939,-2.549053 0.27707,-8.403197 0.0801,-9.832031 L 149.75,81.056641 h -1.05469 c -1.42456,0 -4.80564,0.341671 -7.00586,0.708984 -8.98198,1.49951 -17.84487,5.591917 -24.74414,11.423828 -7.76883,6.566946 -13.36627,14.705827 -16.72265,24.314457 -1.902655,5.44696 -3.109419,12.34165 -3.111332,17.77734 l -0.002,1.94141 H 96.039062 94.96875 l -0.132812,-3.0625 c -0.37412,-8.62588 -2.213708,-15.85324 -5.9375,-23.32813 C 86.094141,105.20287 82.785352,100.64391 78.275391,96.193359 69.106389,87.145214 57.307949,81.871282 44.583984,81.134766 Z" />
</svg>
