<?xml version="1.0" encoding="UTF-8" standalone="no"?>
<svg
   width="192"
   height="192"
   version="1"
   id="svg28"
   sodipodi:docname="apps_badoo.svg"
   inkscape:version="1.1.1 (1:1.1+202109281949+c3084ef5ed)"
   xmlns:inkscape="http://www.inkscape.org/namespaces/inkscape"
   xmlns:sodipodi="http://sodipodi.sourceforge.net/DTD/sodipodi-0.dtd"
   xmlns="http://www.w3.org/2000/svg"
   xmlns:svg="http://www.w3.org/2000/svg"
   xmlns:rdf="http://www.w3.org/1999/02/22-rdf-syntax-ns#"
   xmlns:cc="http://creativecommons.org/ns#"
   xmlns:dc="http://purl.org/dc/elements/1.1/">
  <metadata
     id="metadata34">
    <rdf:RDF>
      <cc:Work
         rdf:about="">
        <dc:format>image/svg+xml</dc:format>
        <dc:type
           rdf:resource="http://purl.org/dc/dcmitype/StillImage" />
      </cc:Work>
    </rdf:RDF>
  </metadata>
  <defs
     id="defs32">
    <filter
       inkscape:collect="always"
       style="color-interpolation-filters:sRGB"
       id="filter2680"
       x="-0.042857143"
       y="-0.054545455"
       width="1.0857143"
       height="1.1090909">
      <feGaussianBlur
         inkscape:collect="always"
         stdDeviation="3"
         id="feGaussianBlur2682" />
    </filter>
    <filter
       inkscape:collect="always"
       style="color-interpolation-filters:sRGB"
       id="filter2722"
       x="-0.066818136"
       y="-0.085465194"
       width="1.1336363"
       height="1.1709304">
      <feGaussianBlur
         inkscape:collect="always"
         stdDeviation="3.0624971"
         id="feGaussianBlur2724" />
    </filter>
  </defs>
  <sodipodi:namedview
     pagecolor="#ffffff"
     bordercolor="#666666"
     borderopacity="1"
     objecttolerance="10"
     gridtolerance="10"
     guidetolerance="10"
     inkscape:pageopacity="0"
     inkscape:pageshadow="2"
     inkscape:window-width="1920"
     inkscape:window-height="1022"
     id="namedview30"
     showgrid="false"
     inkscape:zoom="1"
     inkscape:cx="45"
     inkscape:cy="65"
     inkscape:window-x="0"
     inkscape:window-y="34"
     inkscape:window-maximized="1"
     inkscape:current-layer="svg28"
     inkscape:pagecheckerboard="0"
     inkscape:snap-global="true"
     showguides="false">
    <inkscape:grid
       type="xygrid"
       id="grid841" />
  </sodipodi:namedview>
  <path
     style="opacity:0.2;fill:#000000;stroke-width:0.460178;filter:url(#filter2680)"
     d="M 108.70222,166.85571 C 141.28235,159.85032 171.19167,129.8501 178.2252,97.12144 181.807,80.454508 180.00203,67.584484 172.49499,56.2631 163.14892,42.168283 147.05152,34.465342 130.74718,36.285891 116.42513,37.8851 104.32185,45.684011 97.445386,57.744356 l -1.492384,2.617423 -1.437681,-2.593748 C 87.796891,45.64717 75.641799,37.855505 60.942457,36.247132 35.355411,33.447441 11.971959,54.817229 12.000027,80.974886 c 0.03395,31.625034 21.408801,63.789984 52.595769,79.146264 7.176662,3.53375 14.021561,5.87948 20.745339,7.1094 6.338116,1.15937 17.023245,0.98792 23.361085,-0.37484 z"
     id="path2642" />
  <path
     style="fill:#773af8;stroke-width:0.460178"
     d="M 108.70222,160.85571 C 141.28235,153.85032 171.19167,123.8501 178.2252,91.12144 181.807,74.454508 180.00203,61.584484 172.49499,50.2631 163.14892,36.168283 147.05152,28.465342 130.74718,30.285891 116.42513,31.8851 104.32185,39.684011 97.445386,51.744356 l -1.492384,2.617423 -1.437681,-2.593748 C 87.796891,39.64717 75.641799,31.855505 60.942457,30.247132 35.355411,27.447441 11.971959,48.817229 12.000027,74.974886 c 0.03395,31.625034 21.408801,63.789984 52.595769,79.146264 7.176662,3.53375 14.021561,5.87948 20.745339,7.1094 6.338116,1.15937 17.023245,0.98792 23.361085,-0.37484 z"
     id="path1204" />
  <path
     id="path2684"
     style="opacity:0.2;fill:#000000;fill-opacity:1;stroke-width:0.300559;filter:url(#filter2722)"
     d="M 69.923828,54.999617 C 54.437426,55.088662 40.98277,68.325373 41,84.302351 c 0.02226,20.604189 14.01746,41.559609 34.4375,51.564459 4.699003,2.30229 9.181509,3.82955 13.583984,4.63086 4.149953,0.75534 11.145146,0.64371 15.294926,-0.24414 21.33223,-4.56412 40.91619,-24.10842 45.52148,-45.431647 2.34523,-10.858759 1.16337,-19.245041 -3.75195,-26.621094 -6.11945,-9.182987 -16.65853,-14.20174 -27.33399,-13.015625 -9.37753,1.041909 -17.30224,6.122971 -21.804684,13.980469 L 95.96875,70.870711 95.027344,69.181258 C 90.628372,61.284333 82.66949,56.207653 73.044922,55.159773 71.997833,55.045771 70.956255,54.993681 69.923828,54.999617 Z m -4.882812,30 H 75.875 l 0.140625,1.390625 c 0.547666,5.406587 2.231398,9.046019 5.880859,12.714844 2.093302,2.104404 3.053221,2.819894 5.152344,3.835944 3.470363,1.67975 6.190664,2.25767 10.001953,2.05859 5.284749,-0.27604 9.315239,-2.12057 13.107419,-5.943362 1.84884,-1.863776 2.57185,-2.876641 3.66211,-5.13086 1.27995,-2.64642 1.66464,-4.099978 2.15235,-8.134765 l 0.0957,-0.791016 h 10.88672 l -0.1543,2.142578 c -0.38482,5.362775 -2.09893,10.471857 -4.96875,14.812495 -6.45297,9.76021 -17.38699,15.00254 -28.992186,13.9004 C 82.281433,114.85238 72.588503,107.95032 67.957031,98.138289 66.509301,95.071201 65.410016,90.766733 65.1875,87.290633 Z" />
  <path
     id="path1330"
     style="opacity:1;fill:#ff6df0;stroke-width:0.300559;fill-opacity:1"
     d="M 69.923828 53 C 54.437426 53.089045 40.98277 66.325756 41 82.302734 C 41.02226 102.90692 55.01746 123.86234 75.4375 133.86719 C 80.136503 136.16948 84.619009 137.69674 89.021484 138.49805 C 93.171437 139.25339 100.16663 139.14176 104.31641 138.25391 C 125.64864 133.68979 145.2326 114.14549 149.83789 92.822266 C 152.18312 81.963507 151.00126 73.577225 146.08594 66.201172 C 139.96649 57.018185 129.42741 51.999432 118.75195 53.185547 C 109.37442 54.227456 101.44971 59.308518 96.947266 67.166016 L 95.96875 68.871094 L 95.027344 67.181641 C 90.628372 59.284716 82.66949 54.208036 73.044922 53.160156 C 71.997833 53.046154 70.956255 52.994064 69.923828 53 z M 65.041016 83 L 75.875 83 L 76.015625 84.390625 C 76.563291 89.797212 78.247023 93.436644 81.896484 97.105469 C 83.989786 99.209876 84.949705 99.925362 87.048828 100.94141 C 90.519191 102.62116 93.239492 103.19908 97.050781 103 C 102.33553 102.72396 106.36602 100.87943 110.1582 97.056641 C 112.00704 95.192865 112.73005 94.18 113.82031 91.925781 C 115.10026 89.279361 115.48495 87.825803 115.97266 83.791016 L 116.06836 83 L 126.95508 83 L 126.80078 85.142578 C 126.41596 90.505353 124.70185 95.614435 121.83203 99.955078 C 115.37906 109.71528 104.44504 114.95761 92.839844 113.85547 C 82.281433 112.85276 72.588503 105.9507 67.957031 96.138672 C 66.509301 93.071584 65.410016 88.767116 65.1875 85.291016 L 65.041016 83 z " />
  <path
     id="path2726"
     style="fill:#ffffff;stroke-width:0.460178;opacity:0.1"
     d="M 56.175781 30 C 32.523825 30.136673 11.973686 50.451806 12 74.974609 C 12.000196 75.15743 12.010098 75.340584 12.011719 75.523438 C 12.252374 49.572793 35.504314 28.46455 60.943359 31.248047 C 75.642701 32.85642 87.797195 40.646717 94.515625 52.767578 L 95.953125 55.361328 L 97.445312 52.744141 C 104.32178 40.683796 116.426 32.884365 130.74805 31.285156 C 147.05239 29.464607 163.14807 37.168855 172.49414 51.263672 C 177.52317 58.847967 179.98043 67.132998 179.98633 76.783203 C 180.15607 66.701205 177.69674 58.109728 172.49414 50.263672 C 163.14807 36.168855 147.05239 28.464607 130.74805 30.285156 C 116.426 31.884365 104.32178 39.683796 97.445312 51.744141 L 95.953125 54.361328 L 94.515625 51.767578 C 87.797195 39.646717 75.642701 31.85642 60.943359 30.248047 C 59.344169 30.073066 57.752578 29.990888 56.175781 30 z " />
  <path
     id="path2728"
     style="opacity:0.2;fill:#ffffff;stroke-width:0.300559;fill-opacity:1"
     d="M 69.923828 53 C 54.437426 53.089045 40.98277 66.325756 41 82.302734 C 41.00019 82.478516 41.0095 82.654253 41.011719 82.830078 C 41.257953 67.06625 54.59092 54.088162 69.923828 54 C 70.956255 53.994064 71.997833 54.046154 73.044922 54.160156 C 82.66949 55.208036 90.628372 60.284716 95.027344 68.181641 L 95.96875 69.871094 L 96.947266 68.166016 C 101.44971 60.308518 109.37442 55.227456 118.75195 54.185547 C 129.42741 52.999432 139.96649 58.018185 146.08594 67.201172 C 149.3315 72.07155 150.93881 77.388311 150.98828 83.560547 C 151.11363 76.957691 149.50595 71.333335 146.08594 66.201172 C 139.96649 57.018185 129.42741 51.999432 118.75195 53.185547 C 109.37442 54.227456 101.44971 59.308518 96.947266 67.166016 L 95.96875 68.871094 L 95.027344 67.181641 C 90.628372 59.284716 82.66949 54.208036 73.044922 53.160156 C 71.997833 53.046154 70.956255 52.994064 69.923828 53 z M 65.041016 84 L 65.1875 86.291016 C 65.410016 89.767116 66.509301 94.071584 67.957031 97.138672 C 72.588503 106.9507 82.281433 113.85276 92.839844 114.85547 C 104.44504 115.95761 115.37906 110.71528 121.83203 100.95508 C 124.70185 96.614433 126.41596 91.505353 126.80078 86.142578 L 126.95508 84 L 126.88281 84 L 126.80078 85.142578 C 126.41596 90.505353 124.70185 95.614435 121.83203 99.955078 C 115.37906 109.71528 104.44504 114.95761 92.839844 113.85547 C 82.281433 112.85276 72.588503 105.9507 67.957031 96.138672 C 66.509301 93.071584 65.410016 88.767116 65.1875 85.291016 L 65.105469 84 L 65.041016 84 z " />
</svg>
