<?xml version="1.0" encoding="UTF-8" standalone="no"?>
<svg
   width="192"
   height="192"
   version="1"
   id="svg28"
   sodipodi:docname="apps_runkeeper.svg"
   inkscape:version="1.1.1 (1:1.1+202109281949+c3084ef5ed)"
   xmlns:inkscape="http://www.inkscape.org/namespaces/inkscape"
   xmlns:sodipodi="http://sodipodi.sourceforge.net/DTD/sodipodi-0.dtd"
   xmlns="http://www.w3.org/2000/svg"
   xmlns:svg="http://www.w3.org/2000/svg"
   xmlns:rdf="http://www.w3.org/1999/02/22-rdf-syntax-ns#"
   xmlns:cc="http://creativecommons.org/ns#"
   xmlns:dc="http://purl.org/dc/elements/1.1/">
  <metadata
     id="metadata34">
    <rdf:RDF>
      <cc:Work
         rdf:about="">
        <dc:format>image/svg+xml</dc:format>
        <dc:type
           rdf:resource="http://purl.org/dc/dcmitype/StillImage" />
      </cc:Work>
    </rdf:RDF>
  </metadata>
  <defs
     id="defs32">
    <filter
       inkscape:collect="always"
       style="color-interpolation-filters:sRGB"
       id="filter6495"
       x="-0.048000001"
       y="-0.048000001"
       width="1.096"
       height="1.096">
      <feGaussianBlur
         inkscape:collect="always"
         stdDeviation="3.2"
         id="feGaussianBlur6497" />
    </filter>
    <filter
       inkscape:collect="always"
       style="color-interpolation-filters:sRGB"
       id="filter2034"
       x="-0.089223329"
       y="-0.06468792"
       width="1.1784467"
       height="1.1293758">
      <feGaussianBlur
         inkscape:collect="always"
         stdDeviation="3.2343608"
         id="feGaussianBlur2036" />
    </filter>
  </defs>
  <sodipodi:namedview
     pagecolor="#ffffff"
     bordercolor="#666666"
     borderopacity="1"
     objecttolerance="10"
     gridtolerance="10"
     guidetolerance="10"
     inkscape:pageopacity="0"
     inkscape:pageshadow="2"
     inkscape:window-width="1920"
     inkscape:window-height="1014"
     id="namedview30"
     showgrid="false"
     inkscape:zoom="1"
     inkscape:cx="125.5"
     inkscape:cy="77"
     inkscape:window-x="0"
     inkscape:window-y="34"
     inkscape:window-maximized="1"
     inkscape:current-layer="svg28"
     inkscape:pagecheckerboard="0">
    <inkscape:grid
       type="xygrid"
       id="grid841" />
  </sodipodi:namedview>
  <rect
     id="rect6457"
     transform="matrix(0,-1,-1,0,0,0)"
     ry="12"
     rx="12"
     y="-176"
     x="-180"
     height="160"
     width="160"
     style="opacity:0.2;fill:#000000;fill-opacity:1;stroke-width:4;filter:url(#filter6495)" />
  <rect
     id="rect2"
     transform="matrix(0,-1,-1,0,0,0)"
     ry="12"
     rx="12"
     y="-176"
     x="-176"
     height="160"
     width="160"
     style="fill:#2bc6d3;fill-opacity:1;stroke-width:4" />
  <path
     id="rect6416"
     style="opacity:0.1;fill:#ffffff;fill-opacity:1;stroke-width:4"
     d="m 28,16 c -6.648,0 -12,5.352 -12,12 v 1 c 0,-6.648 5.352,-12 12,-12 h 136 c 6.648,0 12,5.352 12,12 v -1 c 0,-6.648 -5.352,-12 -12,-12 z" />
  <path
     id="path1996"
     style="opacity:0.2;fill:#000000;stroke-width:0.281062;filter:url(#filter2034)"
     d="m 69.544922,38.001951 c -0.148217,-0.0017 -0.299159,-2.39e-4 -0.453125,0.0059 -2.709812,0.10733 -6.266954,1.418021 -9.136719,3.5625 -1.524562,1.139256 -0.83327,1.025416 1.88086,-0.308593 3.116709,-1.53188 5.201254,-2.016967 6.824218,-1.587891 1.304099,0.344776 1.726563,0.923434 1.726563,2.365234 0,0.961729 -0.889341,3.014483 -1.8125,4.185547 -0.401714,0.509593 -0.440919,0.514122 -0.449219,0.05664 -0.005,-0.275017 -0.322148,-0.807624 -0.705078,-1.183594 -1.993989,-1.957752 -8.05215,0.321491 -12.126953,4.5625 -2.68322,2.792664 -3.790978,5.533392 -3.085938,7.63086 0.3206,0.953774 1.485971,2.23443 2.294922,2.523437 1.020546,0.364601 3.744683,0.167611 5.232422,-0.378906 C 65.89023,57.174198 73.430669,48.262718 73.974609,42.605467 74.138756,40.89827 73.509572,39.553893 72.117188,38.640623 71.47244,38.217732 70.582439,38.013831 69.544922,38.001951 Z m 54.511718,3.998047 -0.46875,0.347656 c -0.44669,0.331525 -0.59202,0.646691 -3.21094,0.650391 l -2.74218,0.0039 -1.70704,0.642578 c -0.97821,0.367348 -1.4999,0.853456 -1.98437,1.394531 -1.0642,1.188544 -1.91406,3.246991 -1.91406,5.009766 0,1.221135 0.60332,1.980323 1.58593,4.4375 0.42567,1.064595 0.77243,2.018216 0.77149,2.121094 -8.4e-4,0.102873 -0.16158,0.532739 -0.35742,0.955078 -0.34919,0.752876 -0.36671,0.766371 -0.94141,0.707031 -0.32239,-0.0333 -1.13057,0.07746 -1.79492,-0.24414 -0.66439,-0.321598 -1.48031,-0.63369 -1.8125,-0.69336 -0.33222,-0.05968 -0.8157,-0.197472 -1.07617,-0.30664 -0.55961,-0.23452 -1.80127,-0.07769 -2.60352,0.330078 -0.33639,0.170991 -0.96072,0.273504 -1.8418,0.302734 -1.43438,0.0476 -3.36932,0.503925 -4.187496,0.986328 -0.274649,0.161938 -0.691829,0.294922 -0.925781,0.294922 -0.233963,0 -0.713334,0.101478 -1.066406,0.226563 -0.353076,0.125074 -0.802822,0.226562 -1,0.226562 -0.290943,0 -0.359375,0.07951 -0.359375,0.419922 0,0.370985 -0.245772,0.584893 -2.125,1.841797 -3.954795,2.645119 -5.274214,3.240779 -5.501953,3.753906 -0.118153,0.266213 -0.317417,1.439958 -0.44336,2.607422 -0.616843,5.718178 -0.458563,9.023013 0.04687,12.128906 0.30771,1.890883 0.0442,2.618413 -0.539062,3.865235 -0.70206,1.500752 -0.845145,2.132072 -0.71875,3.99414 0.0931,1.371473 0.160786,1.668347 0.435547,1.935547 0.178434,0.173526 0.404306,0.503099 0.503906,0.732422 0.148283,0.341481 0.277383,0.416016 0.712891,0.416016 0.344743,0 0.533203,0.07286 0.533203,0.205078 0,0.329935 0.550219,0.733887 0.925781,0.679687 0.322375,-0.04651 0.603401,-0.42766 0.798828,-1.080078 0.07627,-0.254642 0.103447,-0.255358 0.464844,-0.01758 0.353984,0.232928 0.405579,0.233825 0.654297,0.0078 0.148423,-0.134875 0.385221,-0.610144 0.52539,-1.05664 0.165411,-0.526908 0.439727,-0.981075 0.783203,-1.294922 0.516413,-0.471856 0.527911,-0.505124 0.4375,-1.351562 -0.101936,-0.954276 -0.210231,-1.279624 -1.169921,-2.460938 l -0.679688,-0.837891 0.01563,-1.943359 c -0.118608,-2.772159 0.290015,-6.005092 0.554688,-6.757812 0.31542,-0.897041 1.020503,-3.332952 1.384765,-5.167969 0.168351,-0.8481 0.394394,-1.678923 0.501953,-1.845703 0.120722,-0.187189 0.680846,-0.45701 1.462891,-0.705078 1.637907,-0.519535 2.246106,-0.622067 2.486328,-0.421876 0.139101,0.115931 0.582849,0.09359 1.562497,-0.07617 1.99895,-0.346386 1.82227,-0.477692 1.82227,1.351562 0,0.87402 0.0759,2.439152 0.16797,3.476563 0.15816,1.782878 0.14539,2.016723 -0.24219,4.285156 -0.2255,1.319943 -0.45868,3.321495 -0.51758,4.447266 -0.0945,1.804939 -0.16392,2.185863 -0.58398,3.222656 -0.26198,0.646664 -0.886075,1.729601 -1.386721,2.40625 -0.500642,0.67665 -0.910157,1.283339 -0.910157,1.349609 10e-7,0.06625 -0.403828,0.670011 -0.898437,1.339844 -1.175413,1.591824 -1.847819,2.352467 -2.496094,4.5 -0.957354,3.171453 -1.182489,6.298388 -0.582031,8.074215 l 0.224609,0.66407 -0.603515,2.45117 c -0.497146,1.34759 -1.25784,3.4393 -1.689453,4.64844 -0.431621,1.2092 -1.281362,3.22177 -1.888672,4.47265 -0.60731,1.25085 -1.284664,2.71772 -1.50586,3.25977 -0.731574,1.79273 -1.604981,3.40333 -2.164062,3.99023 -0.303259,0.31832 -1.264714,0.96097 -2.136719,1.42774 -3.465957,1.85528 -5.016011,3.12807 -6.130859,5.03711 -0.363417,0.62233 -1.283186,2.60248 -2.042969,4.39843 -1.316053,3.11099 -1.832385,3.99588 -3.642578,7.46094 l -0.791016,1.51563 -0.755859,0.17578 c -0.424134,0.0421 -1.644913,0.18245 -2.732422,0.18945 -2.558603,0.0189 -2.554222,0.016 -2.544922,2.19141 0.0064,1.49469 0.09352,2.17323 0.886719,4.99805 0.155764,0.55463 0.235781,1.49361 0.238281,2.80468 0.0038,2.08011 0.178477,3.05203 0.753906,4.20899 0.419852,0.84414 1.422834,2.03492 2.029297,2.40625 0.280384,0.17165 0.746339,0.28291 1.183594,0.2832 0.986643,7.8e-4 1.066755,-0.24247 0.835938,-2.56055 -0.170594,-1.7132 -0.164922,-1.83377 0.166015,-2.83593 0.190078,-0.57562 0.713841,-1.60091 1.162109,-2.27735 0.448271,-0.6765 0.814454,-1.27944 0.814454,-1.33984 0,-0.0604 0.200511,-0.39302 0.445312,-0.74024 0.57003,-0.80843 0.720431,-1.39123 0.392578,-1.51757 -0.206408,-0.0795 -0.16111,-0.25221 0.310547,-1.19532 2.063744,-4.12646 3.22749,-5.72553 6.927735,-9.51758 1.749488,-1.79291 3.817748,-4.00098 4.595703,-4.9082 1.127682,-1.31514 1.692362,-1.83141 2.785156,-2.54101 0.75389,-0.48958 1.418285,-0.88868 1.478515,-0.88868 0.448651,0 2.322491,-1.41759 3.955079,-2.99218 1.067398,-1.02948 3.309246,-3.05361 4.982421,-4.49805 3.882348,-3.35158 5.543448,-5.11851 7.208988,-7.66992 l 0.24023,-0.36914 0.74024,0.46484 c 0.40761,0.25563 1.33221,0.78481 2.05468,1.17383 1.34662,0.72508 2.97694,1.92223 3.28711,2.41601 0.2323,0.36983 0.0712,0.54886 -1.42968,1.60157 -1.56351,1.09659 -3.5313,2.99584 -4.41016,4.2539 -0.38198,0.54675 -1.23698,2.12013 -1.89844,3.4961 -0.66146,1.37596 -2.03875,4.24076 -3.06055,6.36719 -1.02182,2.12643 -1.90373,4.03014 -1.96093,4.23046 -0.0572,0.20027 -0.36373,0.92917 -0.67969,1.61914 -0.500153,1.09218 -0.628614,1.26014 -0.996094,1.30274 -0.288751,0.0336 -0.567425,0.24752 -0.88086,0.67578 -0.252002,0.3443 -0.636092,0.73574 -0.853515,0.86914 -0.217415,0.13337 -0.736659,0.55066 -1.154297,0.92774 -0.417643,0.377 -0.817945,0.68554 -0.890625,0.68554 -0.273722,0 -1.223759,0.91395 -1.404297,1.35156 -0.204411,0.49554 -0.132776,0.67096 1.064453,2.57618 0.491728,0.78256 0.5198,0.90151 0.59375,2.57812 0.08775,1.98885 0.299157,2.5587 1.394531,3.75195 1.669447,1.81862 5.359194,3.81261 6.425784,3.47266 0.67057,-0.2137 0.78453,-1.59569 0.33203,-4.02734 -0.29534,-1.58694 -0.0925,-5.49766 0.375,-7.24414 0.302,-1.12794 0.33997,-1.46398 0.19726,-1.69336 -0.21229,-0.34139 0.24349,-1.62841 1.40821,-3.97657 1.81317,-3.65551 2.89225,-5.30719 11.01172,-13.54296 3.69962,-3.75256 6.84782,-7.01713 6.99609,-7.25391 0.64467,-1.02937 0.44368,-2.85726 -0.67578,-6.11719 -1.70203,-4.95651 -3.8614,-9.15728 -6.66211,-11.89258 l -1.18164,-1.154295 0.30664,-1.320313 c 0.16853,-0.725919 0.50313,-1.78486 0.74414,-2.353515 0.24099,-0.568654 0.58484,-1.569454 0.76367,-2.22461 0.17887,-0.655156 0.45256,-1.328174 0.60938,-1.496093 0.40011,-0.428371 0.57553,-0.894127 1.95117,-5.164063 1.47528,-4.579108 1.65382,-5.068359 1.84375,-5.068359 0.2011,0 1.23685,2.253675 1.63672,3.5625 0.75501,2.470951 1.21416,3.248451 2.62109,4.435547 0.8508,0.717859 1.42027,0.820784 2.07227,0.376953 1.02284,-0.696331 2.59839,-2.135371 3.45507,-3.158203 1.49808,-1.788633 2.09977,-2.968653 3.66993,-7.1875 0.43826,-1.17756 2.96717,-6.51307 3.30468,-6.972657 C 138.52383,71.933889 139,70.53228 139,69.886717 c 0,-1.022042 -1.46838,-2.608086 -2.5625,-3.416016 -0.68109,-0.502949 -1.17372,-0.575745 -1.46875,-0.21875 -0.16877,0.204151 -0.23543,0.150618 -0.51367,-0.404297 -0.363,-0.724036 -0.68518,-0.984324 -1.04492,-0.845703 -0.20564,0.07918 -0.24882,0.357426 -0.25782,1.654297 -0.006,0.857367 -0.0614,1.905143 -0.125,2.572266 -0.0787,0.823274 -0.0506,1.639781 0.0898,2.542968 0.25771,1.657482 0.15481,2.103654 -0.92969,4.050782 -0.44122,0.792209 -0.64615,1.932261 -0.94531,2.533203 -0.45392,0.911548 -0.68853,1.191387 -1.41407,1.6875 -0.47829,0.327062 -0.99804,0.739097 -1.15624,0.916015 -0.51074,0.571147 -0.64429,0.405231 -0.73829,-0.929687 -0.0484,-0.689041 -0.16346,-1.453605 -0.25586,-1.697266 -0.13868,-0.366776 -0.12473,-0.465245 0.0762,-0.578125 0.1966,-0.110446 0.22347,-0.288898 0.14257,-0.9375 -0.0601,-0.48301 -0.005,-1.456727 0.14063,-2.453125 0.1903,-1.30287 0.21127,-1.971279 0.0977,-3.166015 -0.16584,-1.743333 -0.4119,-3.017888 -0.68946,-3.564454 -0.32312,-0.636243 -1.71699,-1.848737 -3.46875,-3.017578 -1.7203,-1.14783 -2.49218,-1.77841 -2.49218,-2.039062 -1e-5,-0.08326 -0.14595,-0.30747 -0.32422,-0.498047 -0.31934,-0.341233 -0.32062,-0.357982 -0.0586,-1.046875 0.37292,-0.980537 0.91226,-1.079332 2.3086,-1.080078 1.3414,-6.96e-4 1.60647,-0.20677 1.75976,-1.367188 0.0585,-0.442972 0.26924,-1.393236 0.46875,-1.86914 0.25213,-0.601212 0.3379,-1.02514 0.2793,-1.388672 -0.0716,-0.442625 0.28737,-0.596277 0.68359,-0.994141 0.54206,-0.544277 0.56787,-0.789057 0.17578,-1.65625 -0.27999,-0.620837 -0.58076,-0.642537 -0.29687,-1.21875 0.28585,-0.579943 0.28544,-0.606164 -0.0234,-2.324219 -0.17186,-0.955831 -0.47852,-2.105973 -0.68164,-2.55664 -0.33183,-0.736382 -0.34627,-0.846069 -0.14062,-1.074219 0.28004,-0.31084 0.28158,-0.366056 0.0215,-0.964844 -0.11414,-0.262776 -0.28285,-0.760578 -0.37695,-1.105468 -0.1138,-0.417595 -0.34735,-0.761284 -0.69727,-1.029297 z m -59.496093,4 c 1.20696,-0.01763 1.816464,0.739467 1.1875,2.330078 -0.509507,1.288513 -3.524466,4.191344 -5.21875,5.025391 -1.690222,0.832053 -2.432515,0.852868 -3.154297,0.08984 -0.862064,-0.911318 -0.213645,-2.61485 1.710938,-4.490234 1.971268,-1.920879 4.106721,-2.935098 5.474609,-2.955078 z" />
  <path
     id="path1074"
     style="fill:#fbfdfd;stroke-width:0.281062"
     d="M 69.544922 36.001953 C 69.396705 36.000256 69.245763 36.001714 69.091797 36.007812 C 66.381985 36.115142 62.824843 37.425833 59.955078 39.570312 C 58.430516 40.709568 59.121808 40.595728 61.835938 39.261719 C 64.952647 37.729839 67.037192 37.244752 68.660156 37.673828 C 69.964255 38.018604 70.386719 38.597262 70.386719 40.039062 C 70.386719 41.000791 69.497378 43.053545 68.574219 44.224609 C 68.172505 44.734202 68.1333 44.738731 68.125 44.28125 C 68.120038 44.006233 67.802852 43.473626 67.419922 43.097656 C 65.425933 41.139904 59.367772 43.419147 55.292969 47.660156 C 52.609749 50.45282 51.501991 53.193548 52.207031 55.291016 C 52.527631 56.24479 53.693002 57.525446 54.501953 57.814453 C 55.522499 58.179054 58.246636 57.982064 59.734375 57.435547 C 65.89023 55.1742 73.430669 46.26272 73.974609 40.605469 C 74.138756 38.898272 73.509572 37.553895 72.117188 36.640625 C 71.47244 36.217734 70.582439 36.013833 69.544922 36.001953 z M 124.05664 40 L 123.58789 40.347656 C 123.1412 40.679181 122.99587 40.994347 120.37695 40.998047 L 117.63477 41.001953 L 115.92773 41.644531 C 114.94952 42.011879 114.42783 42.497987 113.94336 43.039062 C 112.87916 44.227606 112.0293 46.286053 112.0293 48.048828 C 112.0293 49.269963 112.63262 50.029151 113.61523 52.486328 C 114.0409 53.550923 114.38766 54.504544 114.38672 54.607422 C 114.38588 54.710295 114.22514 55.140161 114.0293 55.5625 C 113.68011 56.315376 113.66259 56.328871 113.08789 56.269531 C 112.7655 56.236233 111.95732 56.346988 111.29297 56.025391 C 110.62858 55.703793 109.81266 55.391701 109.48047 55.332031 C 109.14825 55.272352 108.66477 55.134559 108.4043 55.025391 C 107.84469 54.790871 106.60303 54.947701 105.80078 55.355469 C 105.46439 55.52646 104.84006 55.628973 103.95898 55.658203 C 102.5246 55.705799 100.58966 56.162128 99.771484 56.644531 C 99.496835 56.806469 99.079655 56.939453 98.845703 56.939453 C 98.61174 56.939453 98.132369 57.040931 97.779297 57.166016 C 97.426221 57.29109 96.976475 57.392578 96.779297 57.392578 C 96.488354 57.392578 96.419922 57.472091 96.419922 57.8125 C 96.419922 58.183485 96.17415 58.397393 94.294922 59.654297 C 90.340127 62.299416 89.020708 62.895076 88.792969 63.408203 C 88.674816 63.674416 88.475552 64.848161 88.349609 66.015625 C 87.732766 71.733803 87.891046 75.038638 88.396484 78.144531 C 88.704194 80.035414 88.440688 80.762944 87.857422 82.009766 C 87.155362 83.510518 87.012277 84.141838 87.138672 86.003906 C 87.231771 87.375379 87.299458 87.672253 87.574219 87.939453 C 87.752653 88.112979 87.978525 88.442552 88.078125 88.671875 C 88.226408 89.013356 88.355508 89.087891 88.791016 89.087891 C 89.135759 89.087891 89.324219 89.16075 89.324219 89.292969 C 89.324219 89.622904 89.874438 90.026856 90.25 89.972656 C 90.572375 89.926141 90.853401 89.544996 91.048828 88.892578 C 91.125102 88.637936 91.152275 88.63722 91.513672 88.875 C 91.867656 89.107928 91.919251 89.108825 92.167969 88.882812 C 92.316392 88.747937 92.55319 88.272668 92.693359 87.826172 C 92.85877 87.299264 93.133086 86.845097 93.476562 86.53125 C 93.992975 86.059394 94.004473 86.026126 93.914062 85.179688 C 93.812126 84.225412 93.703831 83.900064 92.744141 82.71875 L 92.064453 81.880859 L 92.080078 79.9375 C 91.96147 77.165341 92.370093 73.932408 92.634766 73.179688 C 92.950186 72.282647 93.655269 69.846736 94.019531 68.011719 C 94.187882 67.163619 94.413925 66.332796 94.521484 66.166016 C 94.642206 65.978827 95.20233 65.709006 95.984375 65.460938 C 97.622282 64.941403 98.230481 64.838871 98.470703 65.039062 C 98.609804 65.154993 99.053552 65.132649 100.0332 64.962891 C 102.03215 64.616505 101.85547 64.485199 101.85547 66.314453 C 101.85547 67.188473 101.93134 68.753605 102.02344 69.791016 C 102.1816 71.573894 102.16883 71.807739 101.78125 74.076172 C 101.55575 75.396115 101.32257 77.397667 101.26367 78.523438 C 101.16921 80.328377 101.09975 80.709301 100.67969 81.746094 C 100.41771 82.392758 99.793615 83.475695 99.292969 84.152344 C 98.792327 84.828994 98.382812 85.435683 98.382812 85.501953 C 98.382813 85.568203 97.978984 86.171964 97.484375 86.841797 C 96.308962 88.433621 95.636556 89.194264 94.988281 91.341797 C 94.030927 94.51325 93.805792 97.640185 94.40625 99.416016 L 94.630859 100.08008 L 94.027344 102.53125 C 93.530198 103.87884 92.769504 105.97055 92.337891 107.17969 C 91.90627 108.38889 91.056529 110.40146 90.449219 111.65234 C 89.841909 112.90319 89.164555 114.37006 88.943359 114.91211 C 88.211785 116.70484 87.338378 118.31544 86.779297 118.90234 C 86.476038 119.22066 85.514583 119.86331 84.642578 120.33008 C 81.176621 122.18536 79.626567 123.45815 78.511719 125.36719 C 78.148302 125.98952 77.228533 127.96967 76.46875 129.76562 C 75.152697 132.87661 74.636365 133.7615 72.826172 137.22656 L 72.035156 138.74219 L 71.279297 138.91797 C 70.855163 138.96008 69.634384 139.10042 68.546875 139.10742 C 65.988272 139.12628 65.992653 139.12341 66.001953 141.29883 C 66.008368 142.79352 66.095472 143.47206 66.888672 146.29688 C 67.044436 146.85151 67.124453 147.79049 67.126953 149.10156 C 67.130736 151.18167 67.30543 152.15359 67.880859 153.31055 C 68.300711 154.15469 69.303693 155.34547 69.910156 155.7168 C 70.19054 155.88845 70.656495 155.99971 71.09375 156 C 72.080393 156.00078 72.160505 155.75753 71.929688 153.43945 C 71.759094 151.72625 71.764766 151.60568 72.095703 150.60352 C 72.285781 150.0279 72.809544 149.00261 73.257812 148.32617 C 73.706083 147.64967 74.072266 147.04673 74.072266 146.98633 C 74.072266 146.92593 74.272777 146.59331 74.517578 146.24609 C 75.087608 145.43766 75.238009 144.85486 74.910156 144.72852 C 74.703748 144.649 74.749046 144.47631 75.220703 143.5332 C 77.284447 139.40674 78.448193 137.80767 82.148438 134.01562 C 83.897926 132.22271 85.966186 130.01464 86.744141 129.10742 C 87.871823 127.79228 88.436503 127.27601 89.529297 126.56641 C 90.283187 126.07683 90.947582 125.67773 91.007812 125.67773 C 91.456463 125.67773 93.330303 124.26014 94.962891 122.68555 C 96.030289 121.65607 98.272137 119.63194 99.945312 118.1875 C 103.82766 114.83592 105.48876 113.06899 107.1543 110.51758 L 107.39453 110.14844 L 108.13477 110.61328 C 108.54238 110.86891 109.46698 111.39809 110.18945 111.78711 C 111.53607 112.51219 113.16639 113.70934 113.47656 114.20312 C 113.70886 114.57295 113.54781 114.75198 112.04688 115.80469 C 110.48337 116.90128 108.51558 118.80053 107.63672 120.05859 C 107.25474 120.60534 106.39974 122.17872 105.73828 123.55469 C 105.07682 124.93065 103.69953 127.79545 102.67773 129.92188 C 101.65591 132.04831 100.774 133.95202 100.7168 134.15234 C 100.65957 134.35261 100.35307 135.08151 100.03711 135.77148 C 99.536957 136.86366 99.408496 137.03162 99.041016 137.07422 C 98.752265 137.10779 98.473591 137.32174 98.160156 137.75 C 97.908154 138.0943 97.524064 138.48574 97.306641 138.61914 C 97.089226 138.75251 96.569982 139.1698 96.152344 139.54688 C 95.734701 139.92388 95.334399 140.23242 95.261719 140.23242 C 94.987997 140.23242 94.03796 141.14637 93.857422 141.58398 C 93.653011 142.07952 93.724646 142.25494 94.921875 144.16016 C 95.413603 144.94272 95.441675 145.06167 95.515625 146.73828 C 95.603374 148.72713 95.814782 149.29698 96.910156 150.49023 C 98.579603 152.30885 102.26935 154.30284 103.33594 153.96289 C 104.00651 153.74919 104.12047 152.3672 103.66797 149.93555 C 103.37263 148.34861 103.57543 144.43789 104.04297 142.69141 C 104.34497 141.56347 104.38294 141.22743 104.24023 140.99805 C 104.02794 140.65666 104.48372 139.36964 105.64844 137.02148 C 107.46161 133.36597 108.54069 131.71429 116.66016 123.47852 C 120.35978 119.72596 123.50798 116.46139 123.65625 116.22461 C 124.30092 115.19524 124.09993 113.36735 122.98047 110.10742 C 121.27844 105.15091 119.11907 100.95014 116.31836 98.214844 L 115.13672 97.060547 L 115.44336 95.740234 C 115.61189 95.014315 115.94649 93.955374 116.1875 93.386719 C 116.42849 92.818065 116.77234 91.817265 116.95117 91.162109 C 117.13004 90.506953 117.40373 89.833935 117.56055 89.666016 C 117.96066 89.237645 118.13608 88.771889 119.51172 84.501953 C 120.987 79.922845 121.16554 79.433594 121.35547 79.433594 C 121.55657 79.433594 122.59232 81.687269 122.99219 82.996094 C 123.7472 85.467045 124.20635 86.244545 125.61328 87.431641 C 126.46408 88.1495 127.03355 88.252425 127.68555 87.808594 C 128.70839 87.112263 130.28394 85.673223 131.14062 84.650391 C 132.6387 82.861758 133.24039 81.681738 134.81055 77.462891 C 135.24881 76.285331 137.77772 70.949821 138.11523 70.490234 C 138.52383 69.933891 139 68.532282 139 67.886719 C 139 66.864677 137.53162 65.278633 136.4375 64.470703 C 135.75641 63.967754 135.26378 63.894958 134.96875 64.251953 C 134.79998 64.456104 134.73332 64.402571 134.45508 63.847656 C 134.09208 63.12362 133.7699 62.863332 133.41016 63.001953 C 133.20452 63.081136 133.16134 63.359379 133.15234 64.65625 C 133.14641 65.513617 133.09094 66.561393 133.02734 67.228516 C 132.94869 68.05179 132.97673 68.868297 133.11719 69.771484 C 133.3749 71.428966 133.272 71.875138 132.1875 73.822266 C 131.74628 74.614475 131.54135 75.754527 131.24219 76.355469 C 130.78827 77.267017 130.55366 77.546856 129.82812 78.042969 C 129.34983 78.370031 128.83008 78.782066 128.67188 78.958984 C 128.16114 79.530131 128.02759 79.364215 127.93359 78.029297 C 127.88516 77.340256 127.77013 76.575692 127.67773 76.332031 C 127.53905 75.965255 127.553 75.866786 127.75391 75.753906 C 127.95051 75.64346 127.97738 75.465008 127.89648 74.816406 C 127.83638 74.333396 127.8916 73.359679 128.03711 72.363281 C 128.22741 71.060411 128.24838 70.392002 128.13477 69.197266 C 127.96893 67.453933 127.72287 66.179378 127.44531 65.632812 C 127.12219 64.996569 125.72832 63.784075 123.97656 62.615234 C 122.25626 61.467404 121.48438 60.836824 121.48438 60.576172 C 121.48437 60.49291 121.33843 60.268702 121.16016 60.078125 C 120.84082 59.736892 120.83954 59.720143 121.10156 59.03125 C 121.47448 58.050713 122.01382 57.951918 123.41016 57.951172 C 124.75156 57.950476 125.01663 57.744402 125.16992 56.583984 C 125.22845 56.141012 125.43916 55.190748 125.63867 54.714844 C 125.8908 54.113632 125.97657 53.689704 125.91797 53.326172 C 125.84638 52.883547 126.20534 52.729895 126.60156 52.332031 C 127.14362 51.787754 127.16943 51.542974 126.77734 50.675781 C 126.49735 50.054944 126.19658 50.033244 126.48047 49.457031 C 126.76632 48.877088 126.76591 48.850867 126.45703 47.132812 C 126.28517 46.176981 125.97851 45.026839 125.77539 44.576172 C 125.44356 43.83979 125.42912 43.730103 125.63477 43.501953 C 125.91481 43.191113 125.91635 43.135897 125.65625 42.537109 C 125.54211 42.274333 125.3734 41.776531 125.2793 41.431641 C 125.1655 41.014046 124.93195 40.670357 124.58203 40.402344 L 124.05664 40 z M 64.560547 44 C 65.767507 43.98237 66.377011 44.739467 65.748047 46.330078 C 65.23854 47.618591 62.223581 50.521422 60.529297 51.355469 C 58.839075 52.187522 58.096782 52.208337 57.375 51.445312 C 56.512936 50.533994 57.161355 48.830462 59.085938 46.955078 C 61.057206 45.034199 63.192659 44.01998 64.560547 44 z " />
</svg>
