<?xml version="1.0" encoding="UTF-8" standalone="no"?>
<svg
   width="192"
   height="192"
   version="1"
   id="svg18"
   sodipodi:docname="apps_torbrowser.svg"
   inkscape:version="1.1-rc (1:1.1+rc+202105232036+f4db50c7c1)"
   xmlns:inkscape="http://www.inkscape.org/namespaces/inkscape"
   xmlns:sodipodi="http://sodipodi.sourceforge.net/DTD/sodipodi-0.dtd"
   xmlns="http://www.w3.org/2000/svg"
   xmlns:svg="http://www.w3.org/2000/svg">
  <defs
     id="defs22">
    <filter
       inkscape:collect="always"
       style="color-interpolation-filters:sRGB"
       id="filter857"
       x="-0.048000001"
       y="-0.048000001"
       width="1.096"
       height="1.096">
      <feGaussianBlur
         inkscape:collect="always"
         stdDeviation="3.2"
         id="feGaussianBlur859" />
    </filter>
    <filter
       inkscape:collect="always"
       style="color-interpolation-filters:sRGB"
       id="filter941"
       x="-0.079058824"
       y="-0.039529412"
       width="1.1581176"
       height="1.0790588">
      <feGaussianBlur
         inkscape:collect="always"
         stdDeviation="2.24"
         id="feGaussianBlur943" />
    </filter>
  </defs>
  <sodipodi:namedview
     id="namedview20"
     pagecolor="#ffffff"
     bordercolor="#666666"
     borderopacity="1.0"
     inkscape:pageshadow="2"
     inkscape:pageopacity="0.0"
     inkscape:pagecheckerboard="0"
     showgrid="false"
     inkscape:zoom="2.49"
     inkscape:cx="23.895582"
     inkscape:cy="56.2249"
     inkscape:window-width="1920"
     inkscape:window-height="1014"
     inkscape:window-x="0"
     inkscape:window-y="34"
     inkscape:window-maximized="1"
     inkscape:current-layer="svg18" />
  <circle
     style="opacity:0.2;stroke-width:4;filter:url(#filter857)"
     cx="96"
     cy="100"
     r="80"
     id="circle2" />
  <circle
     style="fill:#7a1ea9;stroke-width:4"
     cx="96"
     cy="96"
     r="80"
     id="circle4" />
  <path
     id="path6"
     style="opacity:0.2;stroke-width:4;filter:url(#filter941)"
     d="M 96 32 L 96 44 C 126.99901 44 152 69.000988 152 100 C 152 130.99901 126.99901 156 96 156 L 96 168 C 133.4843 168 164 137.4843 164 100 C 164 62.515704 133.4843 32 96 32 z M 96 56 L 96 68 C 113.74418 68 128 82.25582 128 100 C 128 117.74418 113.74418 132 96 132 L 96 144 C 120.22946 144 140 124.22946 140 100 C 140 75.77054 120.22946 56 96 56 z M 96 80 L 96 120 A 20 20 0 0 0 116 100 A 20 20 0 0 0 96 80 z " />
  <path
     id="circle8"
     style="color:#000000;fill:#ffffff;stroke-linecap:round;stroke-linejoin:round;-inkscape-stroke:none"
     d="M 96 28 L 96 40 C 126.99898 40 152 65.001017 152 96 C 152 126.99898 126.99898 152 96 152 L 96 164 C 133.48426 164 164 133.48426 164 96 C 164 58.515742 133.48426 28 96 28 z M 96 52 L 96 64 C 113.74416 64 128 78.255838 128 96 C 128 113.74416 113.74416 128 96 128 L 96 140 C 120.22944 140 140 120.22944 140 96 C 140 71.770563 120.22944 52 96 52 z M 96 76 L 96 116 A 20 20 0 0 0 116 96 A 20 20 0 0 0 96 76 z " />
  <path
     id="path16"
     style="opacity:0.1;fill:#ffffff;stroke-width:4"
     d="M 96 16 A 80 80 0 0 0 16 96 A 80 80 0 0 0 16.023438 96.638672 A 80 80 0 0 1 96 17 A 80 80 0 0 1 175.98438 96.298828 A 80 80 0 0 0 176 96 A 80 80 0 0 0 96 16 z " />
</svg>
