<?xml version="1.0" encoding="UTF-8" standalone="no"?>
<svg
   width="192"
   height="192"
   version="1"
   id="svg28"
   sodipodi:docname="apps_automateit.svg"
   inkscape:version="1.1.1 (1:1.1+202109281949+c3084ef5ed)"
   xmlns:inkscape="http://www.inkscape.org/namespaces/inkscape"
   xmlns:sodipodi="http://sodipodi.sourceforge.net/DTD/sodipodi-0.dtd"
   xmlns="http://www.w3.org/2000/svg"
   xmlns:svg="http://www.w3.org/2000/svg"
   xmlns:rdf="http://www.w3.org/1999/02/22-rdf-syntax-ns#"
   xmlns:cc="http://creativecommons.org/ns#"
   xmlns:dc="http://purl.org/dc/elements/1.1/">
  <metadata
     id="metadata34">
    <rdf:RDF>
      <cc:Work
         rdf:about="">
        <dc:format>image/svg+xml</dc:format>
        <dc:type
           rdf:resource="http://purl.org/dc/dcmitype/StillImage" />
      </cc:Work>
    </rdf:RDF>
  </metadata>
  <defs
     id="defs32">
    <filter
       inkscape:collect="always"
       style="color-interpolation-filters:sRGB"
       id="filter3371"
       x="-0.048000001"
       y="-0.048000001"
       width="1.096"
       height="1.096">
      <feGaussianBlur
         inkscape:collect="always"
         stdDeviation="3.2"
         id="feGaussianBlur3373" />
    </filter>
    <filter
       inkscape:collect="always"
       style="color-interpolation-filters:sRGB"
       id="filter3459"
       x="-0.050121609"
       y="-0.046050707"
       width="1.1002432"
       height="1.0921014">
      <feGaussianBlur
         inkscape:collect="always"
         stdDeviation="3.0700472"
         id="feGaussianBlur3461" />
    </filter>
    <filter
       inkscape:collect="always"
       style="color-interpolation-filters:sRGB"
       id="filter3519"
       x="-0.075"
       y="-0.075"
       width="1.15"
       height="1.15">
      <feGaussianBlur
         inkscape:collect="always"
         stdDeviation="3.625"
         id="feGaussianBlur3521" />
    </filter>
  </defs>
  <sodipodi:namedview
     pagecolor="#ffffff"
     bordercolor="#666666"
     borderopacity="1"
     objecttolerance="10"
     gridtolerance="10"
     guidetolerance="10"
     inkscape:pageopacity="0"
     inkscape:pageshadow="2"
     inkscape:window-width="1920"
     inkscape:window-height="1019"
     id="namedview30"
     showgrid="false"
     inkscape:zoom="1.88"
     inkscape:cx="146.54255"
     inkscape:cy="139.09574"
     inkscape:window-x="0"
     inkscape:window-y="34"
     inkscape:window-maximized="1"
     inkscape:current-layer="svg28"
     inkscape:pagecheckerboard="0"
     inkscape:snap-bbox="true"
     inkscape:snap-bbox-midpoints="true">
    <inkscape:grid
       type="xygrid"
       id="grid841" />
  </sodipodi:namedview>
  <rect
     id="rect3333"
     transform="matrix(0,-1,-1,0,0,0)"
     ry="18"
     rx="18"
     y="-176"
     x="-180"
     height="160"
     width="160"
     style="opacity:0.2;fill:#000000;fill-opacity:1;stroke-width:4;filter:url(#filter3371)" />
  <rect
     id="rect2"
     transform="matrix(0,-1,-1,0,0,0)"
     ry="18"
     rx="18"
     y="-176"
     x="-176"
     height="160"
     width="160"
     style="fill:#515151;fill-opacity:1;stroke-width:4" />
  <path
     id="path3416"
     style="opacity:0.2;fill:#000000;fill-opacity:1;stroke-width:13;stroke-linecap:round;stroke-linejoin:round;filter:url(#filter3459)"
     d="m 121,18 c 10.6034,11.106094 37.69514,39.122153 26.16602,63.476562 l 3.64062,20.847658 C 156.69395,91.938038 162.80366,79.207903 163,63.578125 163.16406,50.517964 159.0658,35.433993 148.52539,18 Z M 61.578125,31 C 48.517964,30.83594 33.433993,34.934199 16,45.474609 V 73 C 27.106094,62.3966 55.122153,35.304864 79.476562,46.833984 L 100.32422,43.193359 C 89.938038,37.306049 77.207903,31.19634 61.578125,31 Z M 41.193359,93.675781 C 35.306049,104.06196 29.19634,116.7921 29,132.42188 28.83594,145.48204 32.934199,160.56601 43.474609,178 H 71 C 60.3966,166.89391 33.304864,138.87785 44.833984,114.52344 Z" />
  <path
     id="rect1429"
     style="opacity:1;fill:#c172e9;stroke-width:13;stroke-linecap:round;stroke-linejoin:round;fill-opacity:1"
     d="m 121,16 h 27.52497 C 159.06538,33.433993 163.16406,48.518864 163,61.579025 162.80366,77.208803 156.69342,89.938759 150.80611,100.32494 L 147.16554,79.476928 C 158.69466,55.122519 131.6034,27.106094 121,16 Z"
     sodipodi:nodetypes="ccsccc" />
  <path
     id="path2159"
     style="opacity:1;fill:#28a8d9;stroke-width:13;stroke-linecap:round;stroke-linejoin:round;fill-opacity:1"
     d="M 71,176 H 43.47503 C 32.93462,158.56601 28.83594,143.48114 29,130.42097 29.19634,114.7912 35.30658,102.06124 41.19389,91.67506 l 3.64057,20.84801 C 33.30534,136.87748 60.3966,164.89391 71,176 Z"
     sodipodi:nodetypes="ccsccc" />
  <path
     id="path2167"
     style="opacity:1;fill:#b4e228;stroke-width:13;stroke-linecap:round;stroke-linejoin:round;fill-opacity:1"
     d="M 16,71 V 43.47503 C 33.433993,32.93462 48.518864,28.83594 61.579025,29 77.208803,29.19634 89.938759,35.30658 100.32494,41.19389 L 79.476928,44.83446 C 55.122519,33.30534 27.106094,60.3966 16,71 Z"
     sodipodi:nodetypes="ccsccc" />
  <path
     id="path3463"
     style="opacity:0.2;fill:#000000;stroke-width:32.0841;stroke-linecap:round;stroke-linejoin:round;filter:url(#filter3519)"
     d="M 96,40 A 58,58 0 0 0 38,98 58,58 0 0 0 96,156 58,58 0 0 0 154,98 58,58 0 0 0 96,40 Z m 6,11 a 44,44 0 0 1 44,44 44,44 0 0 1 -44,44 44,44 0 0 1 -44,-44 44,44 0 0 1 44,-44 z m 0,35 a 9,9 0 0 0 -9,9 9,9 0 0 0 9,9 9,9 0 0 0 9,-9 9,9 0 0 0 -9,-9 z" />
  <path
     id="path1199"
     style="opacity:1;fill:#ffffff;stroke-width:32.0841;stroke-linecap:round;stroke-linejoin:round"
     d="M 96 38 A 58 58 0 0 0 38 96 A 58 58 0 0 0 96 154 A 58 58 0 0 0 154 96 A 58 58 0 0 0 96 38 z M 102 49 A 44 44 0 0 1 146 93 A 44 44 0 0 1 102 137 A 44 44 0 0 1 58 93 A 44 44 0 0 1 102 49 z M 102 84 A 9 9 0 0 0 93 93 A 9 9 0 0 0 102 102 A 9 9 0 0 0 111 93 A 9 9 0 0 0 102 84 z " />
  <path
     id="rect3375"
     style="fill:#ffffff;fill-opacity:1;stroke-width:4;opacity:0.1"
     d="M 34 16 C 24.028 16 16 24.028 16 34 L 16 35 C 16 25.028 24.028 17 34 17 L 158 17 C 167.972 17 176 25.028 176 35 L 176 34 C 176 24.028 167.972 16 158 16 L 34 16 z " />
</svg>
