<?xml version="1.0" encoding="UTF-8" standalone="no"?>
<svg
   width="192"
   height="192"
   version="1"
   id="svg12"
   sodipodi:docname="apps_meme_generator.svg"
   inkscape:version="1.1.1 (1:1.1+202109281949+c3084ef5ed)"
   xmlns:inkscape="http://www.inkscape.org/namespaces/inkscape"
   xmlns:sodipodi="http://sodipodi.sourceforge.net/DTD/sodipodi-0.dtd"
   xmlns="http://www.w3.org/2000/svg"
   xmlns:svg="http://www.w3.org/2000/svg"
   xmlns:rdf="http://www.w3.org/1999/02/22-rdf-syntax-ns#"
   xmlns:cc="http://creativecommons.org/ns#"
   xmlns:dc="http://purl.org/dc/elements/1.1/">
  <metadata
     id="metadata18">
    <rdf:RDF>
      <cc:Work
         rdf:about="">
        <dc:format>image/svg+xml</dc:format>
        <dc:type
           rdf:resource="http://purl.org/dc/dcmitype/StillImage" />
      </cc:Work>
    </rdf:RDF>
  </metadata>
  <defs
     id="defs16">
    <filter
       inkscape:collect="always"
       style="color-interpolation-filters:sRGB"
       id="filter955"
       x="-0.048000001"
       width="1.096"
       y="-0.048000001"
       height="1.096">
      <feGaussianBlur
         inkscape:collect="always"
         stdDeviation="3.2"
         id="feGaussianBlur957" />
    </filter>
    <filter
       inkscape:collect="always"
       style="color-interpolation-filters:sRGB"
       id="filter29504"
       x="-0.044722222"
       y="-0.23221154"
       width="1.0894444"
       height="1.4644231">
      <feGaussianBlur
         inkscape:collect="always"
         stdDeviation="2.515625"
         id="feGaussianBlur29506" />
    </filter>
    <filter
       inkscape:collect="always"
       style="color-interpolation-filters:sRGB"
       id="filter29550"
       x="-0.048214286"
       y="-0.16875"
       width="1.0964286"
       height="1.3375">
      <feGaussianBlur
         inkscape:collect="always"
         stdDeviation="1.828125"
         id="feGaussianBlur29552" />
    </filter>
    <filter
       inkscape:collect="always"
       style="color-interpolation-filters:sRGB"
       id="filter29651"
       x="-0.043611111"
       y="-0.26761364"
       width="1.0872222"
       height="1.5352273">
      <feGaussianBlur
         inkscape:collect="always"
         stdDeviation="2.453125"
         id="feGaussianBlur29653" />
    </filter>
  </defs>
  <sodipodi:namedview
     pagecolor="#ffffff"
     bordercolor="#666666"
     borderopacity="1"
     objecttolerance="10"
     gridtolerance="10"
     guidetolerance="10"
     inkscape:pageopacity="0"
     inkscape:pageshadow="2"
     inkscape:window-width="1920"
     inkscape:window-height="1019"
     id="namedview14"
     showgrid="false"
     inkscape:zoom="1"
     inkscape:cx="92"
     inkscape:cy="108.5"
     inkscape:window-x="0"
     inkscape:window-y="34"
     inkscape:window-maximized="1"
     inkscape:current-layer="svg12"
     showguides="false"
     inkscape:document-rotation="0"
     inkscape:pagecheckerboard="0"
     inkscape:snap-bbox="true"
     inkscape:snap-bbox-midpoints="true"
     inkscape:snap-global="true">
    <inkscape:grid
       type="xygrid"
       id="grid852" />
  </sodipodi:namedview>
  <rect
     style="opacity:0.2;fill:#000000;fill-opacity:1;stroke-width:4;filter:url(#filter955)"
     width="160"
     height="160"
     x="16"
     y="20"
     rx="30"
     ry="30"
     id="rect953" />
  <path
     id="rect4"
     style="fill:#3f3f3f;stroke-width:4"
     d="m 46,16 h 100 c 16.62,0 30,13.38 30,30 v 100 c 0,3.0168 -0.44085,5.92685 -1.2619,8.66951 -3.70223,12.36702 -23.41362,11.03771 -37.01211,10.68017 L 54.176873,163.15301 C 40.55094,162.79475 20.91801,167.00033 17.239584,154.59462 16.432863,151.8739 16,148.98936 16,146 V 46 C 16,29.38 29.38,16 46,16 Z"
     sodipodi:nodetypes="sssssssssss" />
  <path
     id="path29512"
     style="color:#000000;opacity:0.2;fill:#000000;stroke-linecap:round;stroke-linejoin:round;-inkscape-stroke:none;filter:url(#filter29550)"
     d="m 56,68 c -6.039592,0 -11,4.960408 -11,11 v 12 a 3,3 0 0 0 3,3 3,3 0 0 0 3,-3 V 79 c 0,-2.796955 2.203045,-5 5,-5 2.796955,0 5,2.203045 5,5 v 12 a 3,3 0 0 0 3,3 3,3 0 0 0 3,-3 V 79 C 67,72.960408 62.039592,68 56,68 Z m 69,0 c -6.03959,0 -11,4.960408 -11,11 v 12 a 3,3 0 0 0 3,3 3,3 0 0 0 3,-3 V 79 c 0,-2.796955 2.20304,-5 5,-5 2.79695,0 5,2.203045 5,5 v 12 a 3,3 0 0 0 3,3 3,3 0 0 0 3,-3 V 79 c 0,-6.039592 -4.96041,-11 -11,-11 z" />
  <rect
     style="opacity:1;fill:#ffffff;fill-opacity:1;stroke:none;stroke-width:7.00341;stroke-linecap:round;stroke-linejoin:round;stroke-miterlimit:4;stroke-dasharray:none;stroke-opacity:1"
     id="rect3704"
     width="18.558628"
     height="5"
     x="73.339844"
     y="78" />
  <path
     id="path2002"
     style="color:#000000;opacity:1;fill:#ffffff;stroke-linecap:round;stroke-linejoin:round;-inkscape-stroke:none"
     d="M 56 67 C 49.960408 67 45 71.960408 45 78 L 45 90 A 3 3 0 0 0 48 93 A 3 3 0 0 0 51 90 L 51 78 C 51 75.203045 53.203045 73 56 73 C 58.796955 73 61 75.203045 61 78 L 61 90 A 3 3 0 0 0 64 93 A 3 3 0 0 0 67 90 L 67 78 C 67 71.960408 62.039592 67 56 67 z M 125 67 C 118.96041 67 114 71.960408 114 78 L 114 90 A 3 3 0 0 0 117 93 A 3 3 0 0 0 120 90 L 120 78 C 120 75.203045 122.20304 73 125 73 C 127.79695 73 130 75.203045 130 78 L 130 90 A 3 3 0 0 0 133 93 A 3 3 0 0 0 136 90 L 136 78 C 136 71.960408 131.03959 67 125 67 z " />
  <path
     id="rect959"
     style="fill:#ffffff;fill-opacity:1;stroke-width:4;opacity:0.1"
     d="M 46 16 C 29.38 16 16 29.38 16 46 L 16 47 C 16 30.38 29.38 17 46 17 L 146 17 C 162.62 17 176 30.38 176 47 L 176 46 C 176 29.38 162.62 16 146 16 L 46 16 z " />
  <rect
     style="opacity:1;fill:#ffffff;fill-opacity:1;stroke:none;stroke-width:7.00341;stroke-linecap:round;stroke-linejoin:round;stroke-miterlimit:4;stroke-dasharray:none;stroke-opacity:1"
     id="rect3891"
     width="18.558628"
     height="5"
     x="142.33984"
     y="78" />
  <path
     id="path29466"
     style="color:#000000;opacity:0.2;fill:#000000;stroke-linecap:round;stroke-linejoin:round;-inkscape-stroke:none;filter:url(#filter29504)"
     d="m 40,68 c -6.039592,0 -11,4.960408 -11,11 v 12 a 3,3 0 0 0 3,3 3,3 0 0 0 3,-3 V 79 c 0,-2.796955 2.203045,-5 5,-5 2.796955,0 5,2.203045 5,5 v 12 a 3,3 0 0 0 3,3 3,3 0 0 0 3,-3 V 79 C 51,72.960408 46.039592,68 40,68 Z m 42.914062,0 c -3.537706,0 -6.814193,1.15723 -9.1875,3.390625 C 71.353257,73.62402 70,76.890989 70,80.5 70,87.920303 76.079697,94 83.5,94 c 3.710151,0 8.195865,-1.193613 10.105469,-3.785156 2.262994,-2.903847 -1.60388,-6.155561 -4.408203,-4.09961 C 87.579927,87.300964 85.296809,87.99014 83.5,88 79.322334,88 76,84.677666 76,80.5 76,78.310027 76.704203,76.82662 77.837891,75.759766 78.971578,74.692912 80.652788,74 82.914062,74 85.704297,74 89,76.299182 89,80.5 c 0,1.15217 -0.137017,2.579689 -0.373047,3.5 h 3.494141 C 94.405749,84 94.993603,82.849164 95,80.5 95,73.102849 89.029081,68 82.914062,68 Z M 109,68 c -6.03959,0 -11,4.960408 -11,11 v 12 a 3,3 0 0 0 3,3 3,3 0 0 0 3,-3 V 79 c 0,-2.796955 2.20304,-5 5,-5 2.79695,0 5,2.203045 5,5 v 12 a 3,3 0 0 0 3,3 3,3 0 0 0 3,-3 V 79 c 0,-6.039592 -4.96041,-11 -11,-11 z m 42.91406,0 c -3.5377,0 -6.81419,1.15723 -9.1875,3.390625 C 140.35326,73.62402 139,76.890989 139,80.5 c 0,7.420303 6.0797,13.5 13.5,13.5 3.71015,0 8.19586,-1.193613 10.10547,-3.785156 2.26299,-2.903847 -1.60387,-6.155561 -4.4082,-4.09961 C 156.57993,87.300964 154.29681,87.99014 152.5,88 c -4.17767,0 -7.5,-3.322334 -7.5,-7.5 0,-2.189973 0.7042,-3.67338 1.83789,-4.740234 C 147.97158,74.692912 149.65279,74 151.91406,74 154.7043,74 158,76.299182 158,80.5 c 0,1.15217 -0.13702,2.579689 -0.37305,3.5 h 3.49414 C 163.40574,84 163.9936,82.849164 164,80.5 164,73.102849 158.02908,68 151.91406,68 Z" />
  <path
     id="path945"
     style="color:#000000;fill:#ffffff;stroke-linecap:round;stroke-linejoin:round;-inkscape-stroke:none;opacity:1"
     d="M 40 67 C 33.960408 67 29 71.960408 29 78 L 29 90 A 3 3 0 0 0 32 93 A 3 3 0 0 0 35 90 L 35 78 C 35 75.203045 37.203045 73 40 73 C 42.796955 73 45 75.203045 45 78 L 45 90 A 3 3 0 0 0 48 93 A 3 3 0 0 0 51 90 L 51 78 C 51 71.960408 46.039592 67 40 67 z M 82.914062 67 C 79.376356 67 76.099869 68.15723 73.726562 70.390625 C 71.353257 72.62402 70 75.890989 70 79.5 C 70 86.920303 76.079697 93 83.5 93 C 87.210151 93 91.695865 91.806387 93.605469 89.214844 C 95.868463 86.310997 92.001589 83.059283 89.197266 85.115234 C 87.579927 86.300964 85.296809 86.99014 83.5 87 C 79.322334 87 76 83.677666 76 79.5 C 76 77.310027 76.704203 75.82662 77.837891 74.759766 C 78.971578 73.692912 80.652788 73 82.914062 73 C 85.704297 73 89 75.299182 89 79.5 C 89 80.65217 88.862983 82.079689 88.626953 83 L 92.121094 83 C 94.405749 83 94.993603 81.849164 95 79.5 C 95 72.102849 89.029081 67 82.914062 67 z M 109 67 C 102.96041 67 98 71.960408 98 78 L 98 90 A 3 3 0 0 0 101 93 A 3 3 0 0 0 104 90 L 104 78 C 104 75.203045 106.20304 73 109 73 C 111.79695 73 114 75.203045 114 78 L 114 90 A 3 3 0 0 0 117 93 A 3 3 0 0 0 120 90 L 120 78 C 120 71.960408 115.03959 67 109 67 z M 151.91406 67 C 148.37636 67 145.09987 68.15723 142.72656 70.390625 C 140.35326 72.62402 139 75.890989 139 79.5 C 139 86.920303 145.0797 93 152.5 93 C 156.21015 93 160.69586 91.806387 162.60547 89.214844 C 164.86846 86.310997 161.0016 83.059283 158.19727 85.115234 C 156.57993 86.300964 154.29681 86.99014 152.5 87 C 148.32233 87 145 83.677666 145 79.5 C 145 77.310027 145.7042 75.82662 146.83789 74.759766 C 147.97158 73.692912 149.65279 73 151.91406 73 C 154.7043 73 158 75.299182 158 79.5 C 158 80.65217 157.86298 82.079689 157.62695 83 L 161.12109 83 C 163.40574 83 163.9936 81.849164 164 79.5 C 164 72.102849 158.02908 67 151.91406 67 z " />
  <path
     id="path29613"
     style="font-weight:bold;font-size:24.2697px;line-height:1.25;font-family:'DejaVu Sans';-inkscape-font-specification:'DejaVu Sans Bold';opacity:0.2;fill:#000000;fill-opacity:1;stroke-width:0.604601;filter:url(#filter29651)"
     d="m 126,101 v 4 h -2 v 3 h 2 v 5.40039 c -0.0506,1.67007 0.51935,2.85716 1.23242,3.55859 0.72117,0.69356 1.94229,1.04102 3.66016,1.04102 H 134 v -3.02734 h -1.61328 c -0.74549,0 -1.7449,-0.10556 -1.9961,-0.31836 -0.2512,-0.22068 -0.37695,-0.63917 -0.37695,-1.25391 V 108 H 134 v -3 h -3.98633 v -4 z m -91.490234,3 c -1.591792,0 -2.908731,0.6427 -3.949219,1.92773 C 29.520059,107.20477 29,108.8443 29,110.84766 c 0,1.99538 0.520059,3.64058 1.560547,4.93359 1.040488,1.28503 2.357427,2.21875 3.949219,2.21875 0.908485,0 1.707366,-0.27543 2.398437,-0.64258 0.69107,-0.36715 1.517199,-1.14164 2.091797,-1.92383 v 0.92188 c 0,1.30897 -0.511721,2.27019 -1.148438,2.88476 -0.636715,0.61458 -1.637294,0.92188 -3.003906,0.92188 -0.7066,0 -1.41054,-0.10677 -2.109375,-0.32227 C 32.039445,119.63232 31.729894,119.31186 31,118.88086 v 3.3418 c 0.768719,0.26339 1.129671,0.45823 1.890625,0.58593 0.760954,0.12766 1.547973,0.19141 2.363281,0.19141 2.515807,0 4.433884,-0.57154 5.753906,-1.71289 C 42.3356,120.15374 43,118.51048 43,116.35547 V 104 h -4 v 2.28711 c -0.574598,-0.79017 -1.400727,-1.36918 -2.091797,-1.73633 C 36.217132,104.18363 35.418251,104 34.509766,104 Z m 18.722656,0 c -2.251803,0 -4.021584,0.62311 -5.310547,1.86914 C 46.640677,107.11517 46,108.8254 46,111 c 0,2.21429 0.652538,3.93587 1.957031,5.16602 1.312257,1.22223 3.149256,1.83398 5.509766,1.83398 0.986135,0 1.970897,-0.0984 2.957031,-0.29688 0.986134,-0.19046 1.590037,-0.47647 2.576172,-0.85742 v -3.28711 c -0.970605,0.53968 -1.534969,0.94501 -2.458984,1.21485 -0.916251,0.26191 -1.813981,0.39258 -2.691407,0.39258 -1.087077,0 -1.933405,-0.25 -2.539062,-0.75 C 50.70489,113.91602 50.352896,113 50.251953,112 H 60 v -1.04688 c 0,-2.1111 -0.616954,-3.79864 -1.851562,-5.06054 C 56.921591,104.63067 55.282339,104 53.232422,104 Z M 63,104 v 14 h 4 v -6.72461 c -0.02466,-1.24474 0.380448,-2.21818 0.873047,-2.91797 0.492599,-0.70794 1.169201,-1.0625 2.03125,-1.0625 0.354055,0 0.670179,0.0814 0.947265,0.24414 0.277087,0.15461 0.496569,0.37535 0.658204,0.66016 0.12315,0.21156 0.403038,0.54073 0.449218,0.98828 C 72.012864,109.63505 72,110.44902 72,111.62891 V 116.64453 118 h 4 v -8.32422 c 0,-1.84714 -0.388633,-3.25433 -1.166016,-4.22266 C 74.064297,104.4848 72.932644,104 71.439453,104 c -0.846655,0 -1.619897,0.19177 -2.320312,0.57422 -0.700415,0.37431 -1.495695,0.96037 -2.119141,1.75781 V 104 Z m 23.232422,0 c -2.251803,0 -4.021584,0.62311 -5.310547,1.86914 C 79.640677,107.11517 79,108.8254 79,111 c 0,2.21429 0.652538,3.93587 1.957031,5.16602 1.312257,1.22223 3.149256,1.83398 5.509766,1.83398 0.986135,0 1.970897,-0.0985 2.957031,-0.29688 0.986134,-0.19046 1.590037,-0.47647 2.576172,-0.85742 v -3.28711 c -0.970605,0.53968 -1.534969,0.94501 -2.458984,1.21485 -0.916251,0.26191 -1.813981,0.39258 -2.691407,0.39258 -1.087077,0 -1.933405,-0.25 -2.539062,-0.75 C 83.70489,113.91602 83.352896,113 83.251953,112 H 93 v -1.04688 c 0,-2.1111 -0.616955,-3.79864 -1.851562,-5.06054 C 89.921592,104.63067 88.282339,104 86.232422,104 Z M 96,104 v 14 h 4 v -6.29883 c 0,-1.34263 0.59846,-2.37182 1.19141,-3.08789 0.60095,-0.72421 1.45477,-1.08594 2.56054,-1.08594 0.3766,0 0.75055,0.0453 1.11914,0.13477 0.37661,0.0814 0.7523,0.21161 1.12891,0.39062 l -0.0117,-3.95507 c -0.32051,-0.0407 -0.5661,-0.0662 -0.73437,-0.0742 -0.16827,-0.0164 -0.32452,-0.0234 -0.46875,-0.0234 -1.0016,0 -1.86284,0.20805 -2.58399,0.62305 -0.71314,0.40686 -1.64829,1.05803 -2.20117,1.95312 V 104 Z m 18.4375,0 c -0.88732,0 -1.77479,0.0587 -2.66211,0.17773 -0.88732,0.11112 -1.89572,0.27778 -2.77539,0.5 v 3.25 c 0.65019,-0.36508 1.47904,-0.63777 2.23633,-0.82031 0.75728,-0.18251 1.57541,-0.27344 2.45508,-0.27344 1.0862,0 1.88593,0.15715 2.39843,0.47461 0.51251,0.30952 0.91016,0.80196 0.91016,1.47657 V 109 h -2.5625 c -2.21563,-0.10895 -3.84837,0.48469 -4.88867,1.21484 C 108.51617,110.945 108,112.09081 108,113.6543 c 0,1.28571 0.41215,2.33304 1.23828,3.14258 0.83377,0.80159 1.91706,1.20312 3.24805,1.20312 0.98675,0 1.82523,-0.18178 2.51367,-0.54688 0.68844,-0.373 1.44925,-0.96586 2,-1.77539 V 118 h 4 v -7.95312 c 0,-2.13493 -0.51617,-3.67471 -1.54883,-4.61915 C 118.42616,104.47534 116.75523,104 114.4375,104 Z m 29.58008,0 c -2.19876,0 -3.92064,0.61933 -5.16406,1.85742 C 137.61766,107.09552 137,108.80953 137,111 c 0,2.19047 0.61766,3.90448 1.85352,5.14258 1.24342,1.23809 2.9653,1.85742 5.16406,1.85742 2.19117,0 3.90064,-0.61933 5.1289,-1.85742 C 150.38234,114.90448 151,113.19047 151,111 c 0,-2.19047 -0.61766,-3.90448 -1.85352,-5.14258 C 147.91822,104.61933 146.20875,104 144.01758,104 Z M 154,104 v 14 h 4 v -6.29883 c 0,-1.34263 0.59846,-2.37182 1.19141,-3.08789 0.60095,-0.72421 1.45477,-1.08594 2.56054,-1.08594 0.3766,0 0.75055,0.0453 1.11914,0.13477 0.37661,0.0814 0.7523,0.21161 1.12891,0.39062 l -0.0117,-3.95507 c -0.32051,-0.0407 -0.5661,-0.0662 -0.73437,-0.0742 -0.16827,-0.0164 -0.32452,-0.0234 -0.46875,-0.0234 -1.0016,0 -1.86284,0.20805 -2.58399,0.62305 -0.71314,0.40686 -1.64829,1.05803 -2.20117,1.95312 V 104 Z m -118.005859,3 c 0.951167,0 1.690257,0.34936 2.216797,1.04688 0.526538,0.6975 0.789062,1.68307 0.789062,2.95898 0,1.26741 -0.262524,2.24977 -0.789062,2.94726 C 37.684398,114.65063 36.945308,115 35.994141,115 35.017495,115 34.273226,114.66417 33.763672,113.99219 33.254118,113.31169 33,112.3158 33,111.00586 c 0,-1.27591 0.262524,-2.26148 0.789062,-2.95898 C 34.315602,107.34936 35.051465,107 35.994141,107 Z m 17.214843,0 c 0.745425,0 1.348516,0.27696 1.806641,0.83203 0.46589,0.54625 0.697266,1.26929 0.697266,2.16797 h -5.416016 c 0.124237,-0.96917 0.440599,-1.70968 0.945313,-2.2207 C 51.746901,107.25948 52.401441,107 53.208984,107 Z m 33,0 c 0.745425,0 1.348516,0.27696 1.806641,0.83203 0.46589,0.54625 0.697266,1.26929 0.697266,2.16797 h -5.416016 c 0.124237,-0.96917 0.440599,-1.70968 0.945313,-2.2207 C 84.746902,107.25948 85.401441,107 86.208984,107 Z m 57.808596,0 c 0.96495,0 1.7035,0.34635 2.21484,1.03711 C 146.74376,108.71984 147,109.70683 147,111 c 0,1.29318 -0.25624,2.2858 -0.76758,2.97656 -0.51134,0.68273 -1.24989,1.02344 -2.21484,1.02344 -0.98144,0 -1.73041,-0.34071 -2.25,-1.02344 C 141.25624,113.2858 141,112.29318 141,111 c 0,-1.29317 0.25624,-2.28016 0.76758,-2.96289 0.51959,-0.69076 1.26856,-1.03711 2.25,-1.03711 z m -29.28125,4 H 117 v 0.55664 c 0,0.98532 -0.28024,1.80692 -0.83984,2.4668 -0.55962,0.65085 -1.24923,0.97656 -2.06836,0.97656 -0.65694,0 -1.17186,-0.17212 -1.54492,-0.51562 C 112.18191,114.13182 112,113.64789 112,113.0332 c 0,-0.66892 0.22746,-1.17405 0.68164,-1.51758 C 113.14393,111.17213 113.82798,111 114.73633,111 Z" />
  <path
     id="path19265"
     style="font-weight:bold;font-size:24.2697px;line-height:1.25;font-family:'DejaVu Sans';-inkscape-font-specification:'DejaVu Sans Bold';opacity:1;fill:#ec4243;stroke-width:0.604601;fill-opacity:1"
     d="M 126 100 L 126 104 L 124 104 L 124 107 L 126 107 L 126 112.40039 C 125.94943 114.07046 126.51935 115.25755 127.23242 115.95898 C 127.95359 116.65254 129.17471 117 130.89258 117 L 134 117 L 134 113.97266 L 132.38672 113.97266 C 131.64123 113.97266 130.64182 113.8671 130.39062 113.6543 C 130.13942 113.43362 130.01367 113.01513 130.01367 112.40039 L 130.01367 107 L 134 107 L 134 104 L 130.01367 104 L 130.01367 100 L 126 100 z M 34.509766 103 C 32.917974 103 31.601035 103.6427 30.560547 104.92773 C 29.520059 106.20477 29 107.8443 29 109.84766 C 29 111.84304 29.520059 113.48824 30.560547 114.78125 C 31.601035 116.06628 32.917974 117 34.509766 117 C 35.418251 117 36.217132 116.72457 36.908203 116.35742 C 37.599273 115.99027 38.425402 115.21578 39 114.43359 L 39 115.35547 C 39 116.66444 38.488279 117.62566 37.851562 118.24023 C 37.214847 118.85481 36.214268 119.16211 34.847656 119.16211 C 34.141056 119.16211 33.437116 119.05534 32.738281 118.83984 C 32.039445 118.63232 31.729894 118.31186 31 117.88086 L 31 121.22266 C 31.768719 121.48605 32.129671 121.68089 32.890625 121.80859 C 33.651579 121.93625 34.438598 122 35.253906 122 C 37.769713 122 39.68779 121.42846 41.007812 120.28711 C 42.3356 119.15374 43 117.51048 43 115.35547 L 43 103 L 39 103 L 39 105.28711 C 38.425402 104.49694 37.599273 103.91793 36.908203 103.55078 C 36.217132 103.18363 35.418251 103 34.509766 103 z M 53.232422 103 C 50.980619 103 49.210838 103.62311 47.921875 104.86914 C 46.640677 106.11517 46 107.8254 46 110 C 46 112.21429 46.652538 113.93587 47.957031 115.16602 C 49.269288 116.38825 51.106287 117 53.466797 117 C 54.452932 117 55.437694 116.90155 56.423828 116.70312 C 57.409962 116.51266 58.013865 116.22665 59 115.8457 L 59 112.55859 C 58.029395 113.09827 57.465031 113.5036 56.541016 113.77344 C 55.624765 114.03535 54.727035 114.16602 53.849609 114.16602 C 52.762532 114.16602 51.916204 113.91602 51.310547 113.41602 C 50.70489 112.91602 50.352896 112 50.251953 111 L 60 111 L 60 109.95312 C 60 107.84202 59.383046 106.15448 58.148438 104.89258 C 56.921591 103.63067 55.282339 103 53.232422 103 z M 63 103 L 63 117 L 67 117 L 67 110.27539 C 66.975344 109.03065 67.380448 108.05721 67.873047 107.35742 C 68.365646 106.64948 69.042248 106.29492 69.904297 106.29492 C 70.258352 106.29492 70.574476 106.37631 70.851562 106.53906 C 71.128649 106.69367 71.348131 106.91441 71.509766 107.19922 C 71.632916 107.41078 71.912804 107.73995 71.958984 108.1875 C 72.012864 108.63505 72 109.44902 72 110.62891 L 72 115.64453 L 72 117 L 76 117 L 76 108.67578 C 76 106.82864 75.611367 105.42145 74.833984 104.45312 C 74.064297 103.4848 72.932644 103 71.439453 103 C 70.592798 103 69.819556 103.19177 69.119141 103.57422 C 68.418726 103.94853 67.623446 104.53459 67 105.33203 L 67 103 L 63 103 z M 86.232422 103 C 83.980619 103 82.210838 103.62311 80.921875 104.86914 C 79.640677 106.11517 79 107.8254 79 110 C 79 112.21429 79.652538 113.93587 80.957031 115.16602 C 82.269288 116.38825 84.106287 117 86.466797 117 C 87.452932 117 88.437694 116.9015 89.423828 116.70312 C 90.409962 116.51266 91.013865 116.22665 92 115.8457 L 92 112.55859 C 91.029395 113.09827 90.465031 113.5036 89.541016 113.77344 C 88.624765 114.03535 87.727035 114.16602 86.849609 114.16602 C 85.762532 114.16602 84.916204 113.91602 84.310547 113.41602 C 83.70489 112.91602 83.352896 112 83.251953 111 L 93 111 L 93 109.95312 C 93 107.84202 92.383045 106.15448 91.148438 104.89258 C 89.921592 103.63067 88.282339 103 86.232422 103 z M 96 103 L 96 117 L 100 117 L 100 110.70117 C 100 109.35854 100.59846 108.32935 101.19141 107.61328 C 101.79236 106.88907 102.64618 106.52734 103.75195 106.52734 C 104.12855 106.52734 104.5025 106.57261 104.87109 106.66211 C 105.2477 106.74348 105.62339 106.87372 106 107.05273 L 105.98828 103.09766 C 105.66777 103.05696 105.42218 103.03144 105.25391 103.02344 C 105.08564 103.00704 104.92939 103 104.78516 103 C 103.78356 103 102.92232 103.20805 102.20117 103.62305 C 101.48803 104.02991 100.55288 104.68108 100 105.57617 L 100 103 L 96 103 z M 114.4375 103 C 113.55018 103 112.66271 103.05868 111.77539 103.17773 C 110.88807 103.28885 109.87967 103.45551 109 103.67773 L 109 106.92773 C 109.65019 106.56265 110.47904 106.28996 111.23633 106.10742 C 111.99361 105.92491 112.81174 105.83398 113.69141 105.83398 C 114.77761 105.83398 115.57734 105.99113 116.08984 106.30859 C 116.60235 106.61811 117 107.11055 117 107.78516 L 117 108 L 114.4375 108 C 112.22187 107.89105 110.58913 108.48469 109.54883 109.21484 C 108.51617 109.945 108 111.09081 108 112.6543 C 108 113.94001 108.41215 114.98734 109.23828 115.79688 C 110.07205 116.59847 111.15534 117 112.48633 117 C 113.47308 117 114.31156 116.81822 115 116.45312 C 115.68844 116.08012 116.44925 115.48726 117 114.67773 L 117 117 L 121 117 L 121 109.04688 C 121 106.91195 120.48383 105.37217 119.45117 104.42773 C 118.42616 103.47534 116.75523 103 114.4375 103 z M 144.01758 103 C 141.81882 103 140.09694 103.61933 138.85352 104.85742 C 137.61766 106.09552 137 107.80953 137 110 C 137 112.19047 137.61766 113.90448 138.85352 115.14258 C 140.09694 116.38067 141.81882 117 144.01758 117 C 146.20875 117 147.91822 116.38067 149.14648 115.14258 C 150.38234 113.90448 151 112.19047 151 110 C 151 107.80953 150.38234 106.09552 149.14648 104.85742 C 147.91822 103.61933 146.20875 103 144.01758 103 z M 154 103 L 154 117 L 158 117 L 158 110.70117 C 158 109.35854 158.59846 108.32935 159.19141 107.61328 C 159.79236 106.88907 160.64618 106.52734 161.75195 106.52734 C 162.12855 106.52734 162.5025 106.57261 162.87109 106.66211 C 163.2477 106.74348 163.62339 106.87372 164 107.05273 L 163.98828 103.09766 C 163.66777 103.05696 163.42218 103.03144 163.25391 103.02344 C 163.08564 103.00704 162.92939 103 162.78516 103 C 161.78356 103 160.92232 103.20805 160.20117 103.62305 C 159.48803 104.02991 158.55288 104.68108 158 105.57617 L 158 103 L 154 103 z M 35.994141 106 C 36.945308 106 37.684398 106.34936 38.210938 107.04688 C 38.737476 107.74438 39 108.72995 39 110.00586 C 39 111.27327 38.737476 112.25563 38.210938 112.95312 C 37.684398 113.65063 36.945308 114 35.994141 114 C 35.017495 114 34.273226 113.66417 33.763672 112.99219 C 33.254118 112.31169 33 111.3158 33 110.00586 C 33 108.72995 33.262524 107.74438 33.789062 107.04688 C 34.315602 106.34936 35.051465 106 35.994141 106 z M 53.208984 106 C 53.954409 106 54.5575 106.27696 55.015625 106.83203 C 55.481515 107.37828 55.712891 108.10132 55.712891 109 L 50.296875 109 C 50.421112 108.03083 50.737474 107.29032 51.242188 106.7793 C 51.746901 106.25948 52.401441 106 53.208984 106 z M 86.208984 106 C 86.954409 106 87.5575 106.27696 88.015625 106.83203 C 88.481515 107.37828 88.712891 108.10132 88.712891 109 L 83.296875 109 C 83.421112 108.03083 83.737474 107.29032 84.242188 106.7793 C 84.746902 106.25948 85.401441 106 86.208984 106 z M 144.01758 106 C 144.98253 106 145.72108 106.34635 146.23242 107.03711 C 146.74376 107.71984 147 108.70683 147 110 C 147 111.29318 146.74376 112.2858 146.23242 112.97656 C 145.72108 113.65929 144.98253 114 144.01758 114 C 143.03614 114 142.28717 113.65929 141.76758 112.97656 C 141.25624 112.2858 141 111.29318 141 110 C 141 108.70683 141.25624 107.71984 141.76758 107.03711 C 142.28717 106.34635 143.03614 106 144.01758 106 z M 114.73633 110 L 117 110 L 117 110.55664 C 117 111.54196 116.71976 112.36356 116.16016 113.02344 C 115.60054 113.67429 114.91093 114 114.0918 114 C 113.43486 114 112.91994 113.82788 112.54688 113.48438 C 112.18191 113.13182 112 112.64789 112 112.0332 C 112 111.36428 112.22746 110.85915 112.68164 110.51562 C 113.14393 110.17213 113.82798 110 114.73633 110 z " />
  <path
     id="path26882"
     style="opacity:1;fill:#2be37f;fill-opacity:1;stroke:none;stroke-width:5.25817;stroke-linecap:round;stroke-linejoin:round;stroke-miterlimit:4;stroke-dasharray:none;stroke-opacity:1"
     d="M 96 142 A 166.68248 94.5 0 0 0 16.964844 153.45703 C 20.26899 166.43888 31.961393 176 46 176 L 146 176 C 160.09143 176 171.8194 166.3671 175.07227 153.31055 A 166.68248 94.5 0 0 0 96 142 z " />
  <rect
     style="opacity:1;fill:#ffffff;fill-opacity:1;stroke:none;stroke-width:4.95683;stroke-linecap:round;stroke-linejoin:round;stroke-miterlimit:4;stroke-dasharray:none;stroke-opacity:1"
     id="rect29508"
     width="9.2968369"
     height="5"
     x="82.601631"
     y="78" />
  <rect
     style="opacity:1;fill:#ffffff;fill-opacity:1;stroke:none;stroke-width:5.08868;stroke-linecap:round;stroke-linejoin:round;stroke-miterlimit:4;stroke-dasharray:none;stroke-opacity:1"
     id="rect29510"
     width="9.7979774"
     height="5"
     x="151.10049"
     y="78" />
  <path
     id="path29572"
     style="opacity:0.2;fill:#ffffff;fill-opacity:1;stroke:none;stroke-width:5.25817;stroke-linecap:round;stroke-linejoin:round;stroke-miterlimit:4;stroke-dasharray:none;stroke-opacity:1"
     d="M 96 142 A 166.68248 94.5 0 0 0 16.964844 153.45703 C 17.044595 153.77037 17.152747 154.07159 17.242188 154.38086 A 166.68248 94.5 0 0 1 96 143 A 166.68248 94.5 0 0 1 174.80078 154.23633 C 174.8887 153.92646 174.99406 153.62446 175.07227 153.31055 A 166.68248 94.5 0 0 0 96 142 z " />
  <path
     id="path29655"
     style="font-weight:bold;font-size:24.2697px;line-height:1.25;font-family:'DejaVu Sans';-inkscape-font-specification:'DejaVu Sans Bold';opacity:0.2;fill:#ffffff;stroke-width:0.604601;fill-opacity:1"
     d="M 126 100 L 126 101 L 130.01367 101 L 130.01367 100 L 126 100 z M 34.509766 103 C 32.917974 103 31.601035 103.6427 30.560547 104.92773 C 29.520059 106.20477 29 107.8443 29 109.84766 C 29 110.02186 29.025276 110.1788 29.033203 110.34766 C 29.115981 108.57686 29.610772 107.09344 30.560547 105.92773 C 31.601035 104.6427 32.917974 104 34.509766 104 C 35.418251 104 36.217132 104.18363 36.908203 104.55078 C 37.599273 104.91793 38.425402 105.49694 39 106.28711 L 39 105.28711 C 38.425402 104.49694 37.599273 103.91793 36.908203 103.55078 C 36.217132 103.18363 35.418251 103 34.509766 103 z M 39 103 L 39 104 L 43 104 L 43 103 L 39 103 z M 53.232422 103 C 50.980619 103 49.210838 103.62311 47.921875 104.86914 C 46.640677 106.11517 46 107.8254 46 110 C 46 110.17648 46.030773 110.32978 46.039062 110.5 C 46.134455 108.57071 46.744467 107.01423 47.921875 105.86914 C 49.210838 104.62311 50.980619 104 53.232422 104 C 55.282339 104 56.921591 104.63067 58.148438 105.89258 C 59.383046 107.15448 60 108.84203 60 110.95312 L 60 109.95312 C 60 107.84203 59.383046 106.15448 58.148438 104.89258 C 56.921591 103.63067 55.282339 103 53.232422 103 z M 63 103 L 63 104 L 67 104 L 67 103 L 63 103 z M 71.439453 103 C 70.592798 103 69.819556 103.19177 69.119141 103.57422 C 68.418726 103.94853 67.623446 104.53459 67 105.33203 L 67 106.33203 C 67.623446 105.53459 68.418726 104.94853 69.119141 104.57422 C 69.819556 104.19177 70.592798 104 71.439453 104 C 72.932644 104 74.064297 104.48481 74.833984 105.45312 C 75.611367 106.42145 76 107.82864 76 109.67578 L 76 108.67578 C 76 106.82864 75.611367 105.42145 74.833984 104.45312 C 74.064297 103.48481 72.932644 103 71.439453 103 z M 86.232422 103 C 83.980619 103 82.210838 103.62311 80.921875 104.86914 C 79.640677 106.11517 79 107.8254 79 110 C 79 110.17648 79.030773 110.32978 79.039062 110.5 C 79.134455 108.57071 79.744467 107.01423 80.921875 105.86914 C 82.210838 104.62311 83.980619 104 86.232422 104 C 88.282339 104 89.921592 104.63067 91.148438 105.89258 C 92.383044 107.15448 93 108.84203 93 110.95312 L 93 109.95312 C 93 107.84203 92.383044 106.15448 91.148438 104.89258 C 89.921592 103.63067 88.282339 103 86.232422 103 z M 96 103 L 96 104 L 100 104 L 100 103 L 96 103 z M 104.78516 103 C 103.78356 103 102.92232 103.20805 102.20117 103.62305 C 101.48803 104.02991 100.55288 104.68108 100 105.57617 L 100 106.57617 C 100.55288 105.68108 101.48803 105.02991 102.20117 104.62305 C 102.92232 104.20805 103.78356 104 104.78516 104 C 104.92939 104 105.08564 104.00704 105.25391 104.02344 C 105.42218 104.03144 105.66777 104.05696 105.98828 104.09766 L 105.99609 107.05078 C 105.99744 107.05142 105.99866 107.0521 106 107.05273 L 105.98828 103.09766 C 105.66777 103.05696 105.42218 103.03144 105.25391 103.02344 C 105.08564 103.00704 104.92939 103 104.78516 103 z M 114.4375 103 C 113.55018 103 112.66271 103.05868 111.77539 103.17773 C 110.88807 103.28885 109.87967 103.45551 109 103.67773 L 109 104.67773 C 109.87967 104.45551 110.88807 104.28885 111.77539 104.17773 C 112.66271 104.0587 113.55018 104 114.4375 104 C 116.75523 104 118.42616 104.47534 119.45117 105.42773 C 120.48383 106.37217 121 107.91195 121 110.04688 L 121 109.04688 C 121 106.91195 120.48383 105.37217 119.45117 104.42773 C 118.42616 103.47534 116.75523 103 114.4375 103 z M 144.01758 103 C 141.81882 103 140.09694 103.61933 138.85352 104.85742 C 137.61766 106.09552 137 107.80953 137 110 C 137 110.17634 137.0291 110.32984 137.03711 110.5 C 137.12855 108.5564 137.71715 106.99585 138.85352 105.85742 C 140.09694 104.61933 141.81882 104 144.01758 104 C 146.20875 104 147.91822 104.61933 149.14648 105.85742 C 150.28285 106.99585 150.87145 108.5564 150.96289 110.5 C 150.9709 110.32984 151 110.17634 151 110 C 151 107.80953 150.38234 106.09552 149.14648 104.85742 C 147.91822 103.61933 146.20875 103 144.01758 103 z M 154 103 L 154 104 L 158 104 L 158 103 L 154 103 z M 162.78516 103 C 161.78356 103 160.92232 103.20805 160.20117 103.62305 C 159.48803 104.02991 158.55288 104.68108 158 105.57617 L 158 106.57617 C 158.55288 105.68108 159.48803 105.02991 160.20117 104.62305 C 160.92232 104.20805 161.78356 104 162.78516 104 C 162.92939 104 163.08564 104.00704 163.25391 104.02344 C 163.42218 104.03144 163.66777 104.05696 163.98828 104.09766 L 163.99609 107.05078 C 163.99744 107.05142 163.99866 107.0521 164 107.05273 L 163.98828 103.09766 C 163.66777 103.05696 163.42218 103.03144 163.25391 103.02344 C 163.08564 103.00704 162.92939 103 162.78516 103 z M 124 104 L 124 105 L 126 105 L 126 104 L 124 104 z M 130.01367 104 L 130.01367 105 L 134 105 L 134 104 L 130.01367 104 z M 114.4375 108 C 112.22187 107.89105 110.58913 108.48469 109.54883 109.21484 C 108.51617 109.945 108 111.09081 108 112.6543 C 108 112.83308 108.02703 112.99645 108.04297 113.16602 C 108.14532 111.8598 108.63141 110.86352 109.54883 110.21484 C 110.58913 109.48469 112.22187 108.89105 114.4375 109 L 117 109 L 117 108.78516 C 117 108.48548 116.91145 108.22772 116.7793 108 L 114.4375 108 z M 50.533203 109 C 50.429688 109.30373 50.344392 109.62932 50.296875 110 L 55.712891 110 C 55.712891 109.63516 55.664368 109.30687 55.587891 109 L 50.533203 109 z M 83.533203 109 C 83.429688 109.30373 83.344392 109.62932 83.296875 110 L 88.712891 110 C 88.712891 109.63516 88.664368 109.30687 88.587891 109 L 83.533203 109 z M 141.02734 110.5 C 141.01772 110.66574 141 110.82277 141 111 C 141 112.29318 141.25624 113.2858 141.76758 113.97656 C 142.28717 114.65929 143.03614 115 144.01758 115 C 144.98253 115 145.72108 114.65929 146.23242 113.97656 C 146.74376 113.2858 147 112.29318 147 111 C 147 110.82277 146.98228 110.66574 146.97266 110.5 C 146.91217 111.54534 146.67383 112.38027 146.23242 112.97656 C 145.72108 113.65929 144.98253 114 144.01758 114 C 143.03614 114 142.28717 113.65929 141.76758 112.97656 C 141.32617 112.38027 141.08783 111.54534 141.02734 110.5 z M 38.972656 110.50391 C 38.909835 111.5271 38.664343 112.35251 38.210938 112.95312 C 37.684398 113.65064 36.945308 114 35.994141 114 C 35.017495 114 34.273226 113.66417 33.763672 112.99219 C 33.325213 112.40663 33.08643 111.57323 33.025391 110.52148 C 33.015933 110.68224 33 110.83465 33 111.00586 C 33 112.3158 33.254118 113.31169 33.763672 113.99219 C 34.273226 114.66417 35.017495 115 35.994141 115 C 36.945308 115 37.684398 114.65064 38.210938 113.95312 C 38.737476 113.25564 39 112.27327 39 111.00586 C 39 110.82842 38.982815 110.67012 38.972656 110.50391 z M 116.9668 111 C 116.89289 111.78813 116.63227 112.46672 116.16016 113.02344 C 115.60054 113.67429 114.91093 114 114.0918 114 C 113.43486 114 112.91994 113.82788 112.54688 113.48438 C 112.28873 113.23501 112.12617 112.91575 112.05078 112.53516 C 112.01847 112.69023 112 112.8549 112 113.0332 C 112 113.64789 112.18191 114.13181 112.54688 114.48438 C 112.91993 114.82787 113.43486 115 114.0918 115 C 114.91093 115 115.60054 114.67429 116.16016 114.02344 C 116.71976 113.36356 117 112.54196 117 111.55664 L 117 111 L 116.9668 111 z M 50.251953 112 C 50.352896 113 50.70489 113.91602 51.310547 114.41602 C 51.916204 114.91602 52.762532 115.16602 53.849609 115.16602 C 54.727035 115.16602 55.624765 115.03535 56.541016 114.77344 C 57.465031 114.5036 58.029395 114.09827 59 113.55859 L 59 112.55859 C 58.029395 113.09827 57.465031 113.5036 56.541016 113.77344 C 55.624765 114.03535 54.727035 114.16602 53.849609 114.16602 C 52.762532 114.16602 51.916204 113.91602 51.310547 113.41602 C 50.917829 113.09181 50.643019 112.58351 50.462891 112 L 50.251953 112 z M 83.251953 112 C 83.352896 113 83.70489 113.91602 84.310547 114.41602 C 84.916204 114.91602 85.762532 115.16602 86.849609 115.16602 C 87.727035 115.16602 88.624765 115.03535 89.541016 114.77344 C 90.465031 114.5036 91.029395 114.09827 92 113.55859 L 92 112.55859 C 91.029395 113.09827 90.465031 113.5036 89.541016 113.77344 C 88.624765 114.03535 87.727035 114.16602 86.849609 114.16602 C 85.762532 114.16602 84.916204 113.91602 84.310547 113.41602 C 83.917829 113.09181 83.643019 112.58351 83.462891 112 L 83.251953 112 z M 130.01367 112.40039 L 130.01367 113.40039 C 130.01367 114.01513 130.13942 114.43362 130.39062 114.6543 C 130.64183 114.8671 131.64123 114.97266 132.38672 114.97266 L 134 114.97266 L 134 113.97266 L 132.38672 113.97266 C 131.64123 113.97266 130.64183 113.8671 130.39062 113.6543 C 130.13942 113.43362 130.01367 113.01513 130.01367 112.40039 z M 39 115.43359 C 38.997594 115.43687 38.994602 115.44008 38.992188 115.44336 C 38.968465 116.70469 38.47302 117.64039 37.851562 118.24023 C 37.214847 118.85481 36.214268 119.16211 34.847656 119.16211 C 34.141056 119.16211 33.437116 119.05534 32.738281 118.83984 C 32.039445 118.63232 31.729894 118.31186 31 117.88086 L 31 118.88086 C 31.729894 119.31186 32.039445 119.63232 32.738281 119.83984 C 33.437116 120.05534 34.141056 120.16211 34.847656 120.16211 C 36.214268 120.16211 37.214847 119.85481 37.851562 119.24023 C 38.488279 118.62566 39 117.66444 39 116.35547 L 39 115.43359 z " />
</svg>
