<?xml version="1.0" encoding="UTF-8" standalone="no"?>
<svg
   width="192"
   height="192"
   version="1"
   id="svg28"
   sodipodi:docname="apps_olacabs.svg"
   inkscape:version="1.1.1 (1:1.1+202109281949+c3084ef5ed)"
   xmlns:inkscape="http://www.inkscape.org/namespaces/inkscape"
   xmlns:sodipodi="http://sodipodi.sourceforge.net/DTD/sodipodi-0.dtd"
   xmlns="http://www.w3.org/2000/svg"
   xmlns:svg="http://www.w3.org/2000/svg"
   xmlns:rdf="http://www.w3.org/1999/02/22-rdf-syntax-ns#"
   xmlns:cc="http://creativecommons.org/ns#"
   xmlns:dc="http://purl.org/dc/elements/1.1/">
  <metadata
     id="metadata34">
    <rdf:RDF>
      <cc:Work
         rdf:about="">
        <dc:format>image/svg+xml</dc:format>
        <dc:type
           rdf:resource="http://purl.org/dc/dcmitype/StillImage" />
      </cc:Work>
    </rdf:RDF>
  </metadata>
  <defs
     id="defs32">
    <filter
       inkscape:collect="always"
       style="color-interpolation-filters:sRGB"
       id="filter6703"
       x="-0.047700033"
       y="-0.04830376"
       width="1.0954001"
       height="1.0966075">
      <feGaussianBlur
         inkscape:collect="always"
         stdDeviation="3.1800023"
         id="feGaussianBlur6705" />
    </filter>
    <filter
       inkscape:collect="always"
       style="color-interpolation-filters:sRGB"
       id="filter6745"
       x="-0.075000001"
       y="-0.075000007"
       width="1.15"
       height="1.15">
      <feGaussianBlur
         inkscape:collect="always"
         stdDeviation="2.3124999"
         id="feGaussianBlur6747" />
    </filter>
    <filter
       inkscape:collect="always"
       style="color-interpolation-filters:sRGB"
       id="filter6869"
       x="-0.046846816"
       y="-0.049211392"
       width="1.0936936"
       height="1.0984228">
      <feGaussianBlur
         inkscape:collect="always"
         stdDeviation="2.9805982"
         id="feGaussianBlur6871" />
    </filter>
  </defs>
  <sodipodi:namedview
     pagecolor="#ffffff"
     bordercolor="#666666"
     borderopacity="1"
     objecttolerance="10"
     gridtolerance="10"
     guidetolerance="10"
     inkscape:pageopacity="0"
     inkscape:pageshadow="2"
     inkscape:window-width="1920"
     inkscape:window-height="1016"
     id="namedview30"
     showgrid="false"
     inkscape:zoom="1"
     inkscape:cx="78.5"
     inkscape:cy="95.5"
     inkscape:window-x="0"
     inkscape:window-y="32"
     inkscape:window-maximized="1"
     inkscape:current-layer="svg28"
     inkscape:pagecheckerboard="0"
     inkscape:snap-global="true"
     showguides="false"
     inkscape:snap-bbox="true"
     inkscape:snap-bbox-midpoints="true">
    <inkscape:grid
       type="xygrid"
       id="grid841" />
  </sodipodi:namedview>
  <path
     style="opacity:0.2;fill:#000000;fill-opacity:1;stroke-width:0.357721;filter:url(#filter6703)"
     d="M 83.804297,178.57154 C 61.30481,175.38278 42.081454,163.14538 29.329701,143.89356 24.620787,136.78434 20.13925,126.33401 18.085536,117.67374 12.759468,95.214314 17.772621,71.25444 31.545808,53.341658 39.372996,43.161977 50.105046,34.149715 61.018546,28.591866 c 3.215758,-1.637668 5.3505,-2.413873 10.031766,-3.647611 16.039983,-4.227297 27.726838,-4.979415 40.827028,-2.627453 6.05241,1.086627 9.20544,2.340716 16.41241,6.527887 2.5292,1.469435 6.69356,3.769254 9.25414,5.110705 17.36088,9.095122 30.34839,26.038106 35.51431,46.330533 1.13279,4.449759 2.59356,14.549055 2.87641,19.886673 0.3921,7.39892 -0.98306,15.84219 -4.01963,24.67989 -1.88662,5.49089 -3.73757,9.2623 -7.91738,16.13205 -1.70128,2.79615 -3.71785,6.15192 -4.48127,7.45726 -2.63059,4.49796 -10.63398,13.11204 -16.01032,17.23196 -2.89607,2.21928 -9.75941,6.28924 -10.60581,6.28924 -0.10507,0 -0.19104,-0.33227 -0.19104,-0.7384 0,-0.56785 -0.16552,-0.69159 -0.71656,-0.53575 -2.91909,0.82556 -2.94869,0.86119 2.15985,-2.59988 2.07466,-1.40559 4.57365,-3.29283 5.5533,-4.19384 1.52488,-1.40248 1.57498,-1.48607 0.34809,-0.58087 -9.85322,7.26971 -21.83029,12.42709 -34.21549,14.73333 -5.38654,1.00302 -16.747636,1.27319 -22.034053,0.52395 z"
     id="path6665" />
  <path
     style="fill:#3f3f3f;stroke-width:0.357721;opacity:1;fill-opacity:1"
     d="M 83.804297,174.57166 C 61.30481,171.3829 42.081454,159.1455 29.329701,139.89368 24.620787,132.78446 20.13925,122.33413 18.085536,113.67386 12.759468,91.214431 17.772621,67.254557 31.545808,49.341775 39.372996,39.162094 50.105046,30.149832 61.018546,24.591983 c 3.215758,-1.637668 5.3505,-2.413873 10.031766,-3.647611 16.039983,-4.227297 27.726838,-4.979415 40.827028,-2.627453 6.05241,1.086627 9.20544,2.340716 16.41241,6.527887 2.5292,1.469435 6.69356,3.769254 9.25414,5.110705 17.36088,9.095122 30.34839,26.038106 35.51431,46.330533 1.13279,4.449759 2.59356,14.549055 2.87641,19.886672 0.3921,7.398924 -0.98306,15.842194 -4.01963,24.679894 -1.88662,5.49089 -3.73757,9.2623 -7.91738,16.13205 -1.70128,2.79615 -3.71785,6.15192 -4.48127,7.45726 -2.63059,4.49796 -10.63398,13.11204 -16.01032,17.23196 -2.89607,2.21928 -9.75941,6.28924 -10.60581,6.28924 -0.10507,0 -0.19104,-0.33227 -0.19104,-0.7384 0,-0.56785 -0.16552,-0.69159 -0.71656,-0.53575 -2.91909,0.82556 -2.94869,0.86119 2.15985,-2.59988 2.07466,-1.40559 4.57365,-3.29283 5.5533,-4.19384 1.52488,-1.40248 1.57498,-1.48607 0.34809,-0.58087 -9.85322,7.26971 -21.83029,12.42709 -34.21549,14.73333 -5.38654,1.00302 -16.747636,1.27319 -22.034053,0.52395 z"
     id="path1201" />
  <path
     id="path6707"
     style="opacity:0.2;fill:#000000;fill-opacity:1;stroke-width:0.355534;filter:url(#filter6745)"
     d="m 96.341593,63.000003 c -8.727249,-7.09e-4 -16.268939,2.507138 -23.136149,7.693165 -6.729059,5.081694 -11.347352,12.048337 -13.37741,20.180033 -1.095762,4.389238 -1.105089,11.422679 -0.0214,15.758199 0.954429,3.8184 3.036131,8.64254 5.025283,11.64627 l 1.52529,2.30291 -1.585601,-1.7141 c -0.961956,-1.04055 -1.680379,-1.56389 -1.826845,-1.32868 -0.504303,0.80981 1.858943,4.2078 5.328785,7.66218 2.916253,2.90324 4.333311,3.99443 7.706213,5.92675 2.273357,1.3024 5.005598,2.74993 6.070029,3.21711 1.83806,0.80673 6.251826,2.13486 8.17703,2.4598 2.132095,0.35987 8.126777,0.20337 11.231502,-0.29247 4.35919,-0.69617 7.5248,-1.67048 11.09141,-3.41466 3.65694,-1.78836 6.31623,-3.76855 10.2743,-7.65056 3.29095,-3.22771 4.48157,-4.89795 5.63035,-7.89847 0.37668,-0.98385 1.33144,-3.12736 2.12256,-4.76465 2.01395,-4.16805 2.61233,-7.5999 2.37354,-13.631535 C 132.52399,88.37864 129.25919,80.818524 121.91743,73.60038 114.70934,66.513674 106.23525,63.000927 96.341593,63.000003 Z m 29.968817,55.810307 -0.64397,1.17567 c -1.30765,2.39009 -4.51335,5.77048 -7.70815,8.12701 -5.01816,3.70149 -6.53293,4.54083 -10.70038,5.92482 -4.06195,1.34897 -6.5237,1.72806 -8.287918,1.27639 -1.070134,-0.27396 -1.070766,-0.2749 -0.178987,-0.49003 0.490713,-0.11837 1.695595,-0.31764 2.677035,-0.44353 2.25776,-0.2896 8.01369,-2.10003 10.35018,-3.25585 4.81304,-2.38093 9.78453,-6.46008 13.49608,-11.07489 z" />
  <path
     id="path1703"
     style="opacity:1;fill:#e0e919;fill-opacity:1;stroke-width:0.355534"
     d="m 96.341593,60.999999 c -8.727249,-7.09e-4 -16.268939,2.507138 -23.136149,7.693165 -6.729059,5.081694 -11.347352,12.048337 -13.37741,20.180033 -1.095762,4.389238 -1.105089,11.422683 -0.0214,15.758203 0.954429,3.8184 3.036131,8.64254 5.025283,11.64627 l 1.52529,2.30291 -1.585601,-1.7141 c -0.961956,-1.04055 -1.680379,-1.56389 -1.826845,-1.32868 -0.504303,0.80981 1.858943,4.2078 5.328785,7.66218 2.916253,2.90324 4.333311,3.99443 7.706213,5.92675 2.273357,1.3024 5.005598,2.74993 6.070029,3.21711 1.83806,0.80673 6.251826,2.13486 8.17703,2.4598 2.132095,0.35987 8.126777,0.20337 11.231502,-0.29247 4.35919,-0.69617 7.5248,-1.67048 11.09141,-3.41466 3.65694,-1.78836 6.31623,-3.76855 10.2743,-7.65056 3.29095,-3.22771 4.48157,-4.89795 5.63035,-7.89847 0.37668,-0.98385 1.33144,-3.12736 2.12256,-4.76465 2.01395,-4.16805 2.61233,-7.5999 2.37354,-13.631539 C 132.52399,86.378636 129.25919,78.81852 121.91743,71.600376 114.70934,64.51367 106.23525,61.000923 96.341593,60.999999 Z m 29.968817,55.810311 -0.64397,1.17567 c -1.30765,2.39009 -4.51335,5.77048 -7.70815,8.12701 -5.01816,3.70149 -6.53293,4.54083 -10.70038,5.92482 -4.06195,1.34897 -6.5237,1.72806 -8.287918,1.27639 -1.070134,-0.27396 -1.070766,-0.2749 -0.178987,-0.49003 0.490713,-0.11837 1.695595,-0.31764 2.677035,-0.44353 2.25776,-0.2896 8.01369,-2.10003 10.35018,-3.25585 4.81304,-2.38093 9.78453,-6.46008 13.49608,-11.07489 z" />
  <path
     id="path6831"
     style="opacity:0.2;fill:#000000;stroke-width:0.357721;filter:url(#filter6869)"
     d="m 96.039062,22.488192 c -27.747111,0.345787 -53.93835,16.871775 -67.412109,43.28711 -3.335523,6.539299 -4.752208,10.475512 -5.925781,16.46875 -2.53651,12.953523 -2.816558,18.643468 -1.277344,25.999998 3.361217,16.06469 9.150209,27.49936 18.826172,37.18555 3.13445,3.13777 9.744965,8.54535 10.414062,8.51953 0.09852,-0.004 -0.869548,-0.90979 -2.15039,-2.01367 -4.400498,-3.7925 -11.647102,-11.40602 -14.064453,-14.77735 -3.035511,-4.23343 -7.298692,-12.62277 -8.826172,-17.36523 -2.127078,-6.60407 -2.930988,-11.3778 -3.146485,-18.69141 -0.292745,-9.935522 1.026632,-18.091041 4.363282,-26.966793 2.381068,-6.333824 6.520105,-13.966958 9.099609,-16.785157 0.719217,-0.785766 2.673809,-3.346958 4.34375,-5.689453 3.233048,-4.535132 6.317561,-7.474295 12.478516,-11.888672 10.258472,-7.350278 25.113719,-13.481857 34.804687,-14.367187 25.047524,-2.288245 50.972244,7.772558 67.384764,26.150391 9.73984,10.906131 15.52287,23.629763 17.36914,38.220703 0.32834,2.594873 0.68156,4.798262 0.78516,4.896484 0.10361,0.09822 0.0924,-1.924136 -0.0254,-4.496094 -0.18009,-3.927307 -0.4709,-5.673033 -1.81446,-10.894531 -2.01847,-7.844427 -3.36855,-11.556117 -5.65234,-15.550781 -2.22229,-3.887044 -7.34692,-11.701043 -9.57226,-14.595703 -6.094,-7.926931 -13.90706,-14.193283 -23.33204,-18.712891 -4.00308,-1.919615 -5.54288,-2.41305 -14.50976,-4.640625 -5.51748,-1.370657 -11.59823,-2.664869 -13.51172,-2.875 -2.8913,-0.317515 -5.778047,-0.45374 -8.648438,-0.417969 z m 0.859376,11.720703 c -4.187508,-0.03216 -8.287118,0.103267 -10.158204,0.421875 -4.17326,0.710624 -9.845484,2.81224 -16.550781,6.132813 -12.630283,6.254724 -22.15686,14.243873 -24.53125,20.570312 -0.413331,1.101304 -0.689057,2.065093 -0.611328,2.142578 0.07774,0.07749 1.080344,-1.109196 2.226563,-2.636718 11.148977,-14.85785 28.1361,-22.972123 48.041015,-22.949219 13.434827,0.01546 24.572377,3.209788 36.667967,10.521484 8.14905,4.926039 13.15686,9.781608 17.59961,17.058594 2.75538,4.513152 4.34201,8.097744 6.51758,14.736328 3.29623,10.058272 4.28405,16.36463 3.5,22.322268 -0.21974,1.66975 -0.71897,5.58546 -1.11133,8.70117 -1.54864,12.29771 -2.5586,15.2647 -8.29297,24.39844 -3.91344,6.23335 -4.87291,7.4947 -8.52929,11.19531 -9.9651,10.08565 -21.17746,16.95688 -32.91016,20.16797 -4.41096,1.20722 -2.36274,1.10186 2.50781,-0.12891 23.21128,-5.86538 42.03429,-23.00221 49.19141,-44.7832 2.54963,-7.75919 2.7759,-9.71667 2.61719,-22.763673 l -0.14063,-11.609375 -1.15039,-4.037109 c -5.03327,-17.680295 -17.06939,-32.976868 -33.19922,-42.19336 -4.93229,-2.818285 -13.23463,-5.460646 -21.00195,-6.685546 -2.21959,-0.350028 -6.49413,-0.549869 -10.681642,-0.582032 z m -2.269532,29.009766 c -1.666218,0.03166 -3.167362,0.200322 -4.345703,0.519531 -2.557038,0.692695 -7.080833,2.368964 -6.894531,2.554688 0.07228,0.07206 0.939017,-0.175049 1.925781,-0.548828 8.182053,-3.099295 19.832627,-2.014037 27.607427,2.572265 5.23232,3.086524 8.08589,5.659066 10.8496,9.779297 4.55948,6.797411 6.58054,11.68177 6.99805,16.908203 1.08486,13.580193 -6.61377,27.796873 -18.57422,34.296873 -3.13231,1.70228 -2.87106,1.84771 0.41797,0.23242 5.24196,-2.57442 9.6418,-6.19595 12.98242,-10.68554 2.67171,-3.59062 3.57627,-5.61343 4.83594,-10.8125 0.92058,-3.79957 1.03517,-4.89117 1.00781,-9.640628 -0.0356,-6.174721 -0.62289,-8.92486 -2.97461,-13.927734 -4.03068,-8.574581 -11.68701,-15.719455 -20.42578,-19.060547 -3.31383,-1.266976 -7.78513,-2.045156 -11.69531,-2.173828 -0.586527,-0.0193 -1.159438,-0.02423 -1.714844,-0.01367 z m 16.210934,10.611328 c 0.0766,0.121156 1.22398,1.36805 2.79493,3.033203 4.03502,4.276974 6.10112,7.134618 7.97265,11.025391 2.40763,5.00528 3.11968,10.329318 1.97852,14.804687 -1.26008,4.94173 -6.94707,14.05577 -11.77735,18.87305 -2.74433,2.73694 -3.20284,3.03439 -8.45312,5.47851 -5.25516,2.44639 -5.468941,2.58385 -3.992189,2.58789 0.858009,0.002 2.551369,-0.25048 3.761719,-0.5625 5.20188,-1.34103 10.11867,-4.33261 14.41602,-8.76758 6.47562,-6.68301 9.17103,-14.08685 8.6289,-23.708979 -0.21564,-3.827301 -0.90068,-6.139214 -3.11719,-10.521484 -3.15598,-6.239678 -8.29198,-11.777344 -10.92187,-11.777344 -0.4145,0 -0.98065,-0.199845 -1.25781,-0.445313 -0.0347,-0.03068 -0.0442,-0.03684 -0.0332,-0.01953 z M 64.03125,106.10929 c -0.101926,-3.8e-4 0.102921,0.71842 0.59375,2.14062 3.67754,10.65581 12.815613,18.87817 23.507812,21.15234 1.378897,0.29329 2.991076,0.53494 3.582032,0.53711 1.047385,0.004 1.039342,-0.008 -0.306641,-0.5 -6.594359,-2.41049 -14.154395,-6.68956 -17.855469,-10.10547 -3.179783,-2.93479 -6.143709,-6.82059 -7.957031,-10.43164 -0.938595,-1.86911 -1.448937,-2.79259 -1.564453,-2.79296 z" />
  <path
     id="path6564"
     style="fill:#ffffff;stroke-width:0.357721;opacity:1"
     d="M 96.039062 21.488281 C 68.291951 21.834068 42.100712 38.360056 28.626953 64.775391 C 25.29143 71.31469 23.874745 75.250903 22.701172 81.244141 C 20.164662 94.197664 19.884614 99.887612 21.423828 107.24414 C 24.785045 123.30883 30.574037 134.7435 40.25 144.42969 C 43.38445 147.56746 49.994965 152.97504 50.664062 152.94922 C 50.762583 152.94522 49.794514 152.03943 48.513672 150.93555 C 44.113174 147.14305 36.86657 139.52953 34.449219 136.1582 C 31.413708 131.92477 27.150527 123.53543 25.623047 118.79297 C 23.495969 112.1889 22.692059 107.41517 22.476562 100.10156 C 22.183817 90.166037 23.503194 82.010518 26.839844 73.134766 C 29.220912 66.800942 33.359949 59.167808 35.939453 56.349609 C 36.65867 55.563843 38.613262 53.002651 40.283203 50.660156 C 43.516251 46.125024 46.600764 43.185861 52.761719 38.771484 C 63.020191 31.421206 77.875438 25.289627 87.566406 24.404297 C 112.61393 22.116052 138.53865 32.176855 154.95117 50.554688 C 164.69101 61.460819 170.47404 74.184451 172.32031 88.775391 C 172.64865 91.370264 173.00187 93.573653 173.10547 93.671875 C 173.20908 93.770095 173.19788 91.747739 173.08008 89.175781 C 172.89999 85.248474 172.60918 83.502748 171.26562 78.28125 C 169.24715 70.436823 167.89707 66.725133 165.61328 62.730469 C 163.39099 58.843425 158.26636 51.029426 156.04102 48.134766 C 149.94702 40.207835 142.13396 33.941483 132.70898 29.421875 C 128.7059 27.50226 127.1661 27.008825 118.19922 24.78125 C 112.68174 23.410593 106.60099 22.116381 104.6875 21.90625 C 101.7962 21.588735 98.909453 21.45251 96.039062 21.488281 z M 96.898438 33.208984 C 92.71093 33.176824 88.61132 33.312251 86.740234 33.630859 C 82.566974 34.341483 76.89475 36.443099 70.189453 39.763672 C 57.55917 46.018396 48.032593 54.007545 45.658203 60.333984 C 45.244872 61.435288 44.969146 62.399077 45.046875 62.476562 C 45.124615 62.554052 46.127219 61.367366 47.273438 59.839844 C 58.422415 44.981994 75.409538 36.867721 95.314453 36.890625 C 108.74928 36.906085 119.88683 40.100413 131.98242 47.412109 C 140.13147 52.338148 145.13928 57.193717 149.58203 64.470703 C 152.33741 68.983855 153.92404 72.568447 156.09961 79.207031 C 159.39584 89.265303 160.38366 95.571661 159.59961 101.5293 C 159.37987 103.19905 158.88064 107.11476 158.48828 110.23047 C 156.93964 122.52818 155.92968 125.49517 150.19531 134.62891 C 146.28187 140.86226 145.3224 142.12361 141.66602 145.82422 C 131.70092 155.90987 120.48856 162.7811 108.75586 165.99219 C 104.3449 167.19941 106.39312 167.09405 111.26367 165.86328 C 134.47495 159.9979 153.29796 142.86107 160.45508 121.08008 C 163.00471 113.32089 163.23098 111.36341 163.07227 98.316406 L 162.93164 86.707031 L 161.78125 82.669922 C 156.74798 64.989627 144.71186 49.693054 128.58203 40.476562 C 123.64974 37.658277 115.3474 35.015916 107.58008 33.791016 C 105.36049 33.440988 101.08595 33.241147 96.898438 33.208984 z M 94.628906 62.21875 C 92.962688 62.25041 91.461544 62.419072 90.283203 62.738281 C 87.726165 63.430976 83.20237 65.107245 83.388672 65.292969 C 83.460952 65.365029 84.327689 65.11792 85.314453 64.744141 C 93.496506 61.644846 105.14708 62.730104 112.92188 67.316406 C 118.1542 70.40293 121.00777 72.975472 123.77148 77.095703 C 128.33096 83.893114 130.35202 88.777473 130.76953 94.003906 C 131.85439 107.5841 124.15576 121.80078 112.19531 128.30078 C 109.063 130.00306 109.32425 130.14849 112.61328 128.5332 C 117.85524 125.95878 122.25508 122.33725 125.5957 117.84766 C 128.26741 114.25704 129.17197 112.23423 130.43164 107.03516 C 131.35222 103.23559 131.46681 102.14399 131.43945 97.394531 C 131.40385 91.21981 130.81656 88.469671 128.46484 83.466797 C 124.43416 74.892216 116.77783 67.747342 108.03906 64.40625 C 104.72523 63.139274 100.25393 62.361094 96.34375 62.232422 C 95.757223 62.213122 95.184312 62.20819 94.628906 62.21875 z M 110.83984 72.830078 C 110.91644 72.951234 112.06382 74.198128 113.63477 75.863281 C 117.66979 80.140255 119.73589 82.997899 121.60742 86.888672 C 124.01505 91.893952 124.7271 97.21799 123.58594 101.69336 C 122.32586 106.63509 116.63887 115.74913 111.80859 120.56641 C 109.06426 123.30335 108.60575 123.6008 103.35547 126.04492 C 98.10031 128.49131 97.886529 128.62877 99.363281 128.63281 C 100.22129 128.63481 101.91465 128.38233 103.125 128.07031 C 108.32688 126.72928 113.24367 123.7377 117.54102 119.30273 C 124.01664 112.61972 126.71205 105.21588 126.16992 95.59375 C 125.95428 91.766449 125.26924 89.454536 123.05273 85.072266 C 119.89675 78.832588 114.76075 73.294922 112.13086 73.294922 C 111.71636 73.294922 111.15021 73.095077 110.87305 72.849609 C 110.83835 72.818929 110.82884 72.812768 110.83984 72.830078 z M 64.03125 105.10938 C 63.929324 105.109 64.134171 105.8278 64.625 107.25 C 68.30254 117.90581 77.440613 126.12817 88.132812 128.40234 C 89.511709 128.69563 91.123888 128.93728 91.714844 128.93945 C 92.762229 128.94345 92.754186 128.93145 91.408203 128.43945 C 84.813844 126.02896 77.253808 121.74989 73.552734 118.33398 C 70.372951 115.39919 67.409025 111.51339 65.595703 107.90234 C 64.657108 106.03323 64.146766 105.10975 64.03125 105.10938 z " />
  <path
     style="fill:#231f1f;stroke-width:0.357721;opacity:0.61706007"
     d="m 105.38304,167.033 c -0.11905,-0.11868 -0.42806,-0.13137 -0.6867,-0.0282 -0.28581,0.11401 -0.20091,0.19865 0.21646,0.21579 0.37768,0.0155 0.58929,-0.0689 0.47024,-0.1876 z"
     id="path1697" />
  <path
     style="fill:#d5dd22;stroke-width:0.357599"
     d="m 107.19791,166.62489 c -0.11902,-0.11864 -0.42793,-0.13132 -0.68647,-0.0282 -0.28571,0.11398 -0.20085,0.19858 0.21639,0.21571 0.37755,0.0155 0.58909,-0.0689 0.47008,-0.18752 z"
     id="path1307" />
  <path
     id="path6749"
     style="opacity:0.2;fill:#ffffff;fill-opacity:1;stroke-width:0.355534"
     d="M 96.341797 61 C 87.614548 60.999291 80.072288 63.507332 73.205078 68.693359 C 66.476019 73.775053 61.858183 80.741351 59.828125 88.873047 C 59.246285 91.203694 58.979929 94.276895 59.011719 97.298828 C 59.043932 94.609386 59.310681 91.945745 59.828125 89.873047 C 61.858183 81.741351 66.476019 74.775053 73.205078 69.693359 C 80.072288 64.507332 87.614548 61.999291 96.341797 62 C 106.23545 62.000924 114.70988 65.512903 121.91797 72.599609 C 129.25973 79.817753 132.52468 87.377736 132.95117 98.150391 C 132.97467 98.743817 132.9835 99.29357 132.99023 99.839844 C 132.99723 98.994578 132.98936 98.114994 132.95117 97.150391 C 132.52468 86.377736 129.25973 78.817753 121.91797 71.599609 C 114.70988 64.512903 106.23545 61.000924 96.341797 61 z M 63.025391 115.48438 C 62.98985 115.49054 62.963621 115.50771 62.945312 115.53711 C 62.829705 115.72275 62.880351 116.05916 63.044922 116.48633 C 63.305241 116.46722 63.947679 116.97608 64.771484 117.86719 L 66.357422 119.58008 L 64.832031 117.27734 C 64.637827 116.98408 64.442881 116.66127 64.248047 116.33594 C 63.667464 115.77236 63.218626 115.45084 63.025391 115.48438 z M 126.31055 117.81055 L 125.31445 119.05078 C 122.0469 123.11354 117.8016 126.75615 113.54883 129.19531 C 111.47524 130.49899 109.8958 131.16105 107.25781 132.03711 C 104.41329 132.98177 102.36434 133.44124 100.7793 133.48242 C 99.978841 133.59941 99.170691 133.73263 98.791016 133.82422 C 97.899237 134.03935 97.900569 134.04049 98.970703 134.31445 C 100.73492 134.76612 103.19586 134.38608 107.25781 133.03711 C 111.42526 131.65312 112.94082 130.81477 117.95898 127.11328 C 121.15378 124.75675 124.35837 121.37642 125.66602 118.98633 L 126.31055 117.81055 z " />
  <path
     id="path6790"
     style="fill:#ffffff;stroke-width:0.357721;opacity:0.1;fill-opacity:1"
     d="M 97.431641 17 C 89.399705 17.017677 81.075771 18.303252 71.050781 20.945312 C 66.369515 22.17905 64.233336 22.954129 61.017578 24.591797 C 50.104078 30.149646 39.37211 39.162116 31.544922 49.341797 C 21.156693 62.852256 15.761569 79.802953 16.017578 96.955078 C 15.982249 80.145496 21.358768 63.589447 31.544922 50.341797 C 39.37211 40.162116 50.104078 31.149646 61.017578 25.591797 C 64.233336 23.954129 66.369515 23.177097 71.050781 21.943359 C 87.090764 17.716062 98.776763 16.964444 111.87695 19.316406 C 117.92936 20.403033 121.08209 21.656579 128.28906 25.84375 C 130.81826 27.313185 134.98239 29.613627 137.54297 30.955078 C 154.90385 40.0502 167.89267 56.992729 173.05859 77.285156 C 174.19138 81.734915 175.6527 91.834258 175.93555 97.171875 C 175.97401 97.897685 175.97982 98.641423 175.98438 99.386719 C 175.99957 98.297087 175.99116 97.22134 175.93555 96.171875 C 175.6527 90.834258 174.19138 80.734915 173.05859 76.285156 C 167.89267 55.992729 154.90385 39.0502 137.54297 29.955078 C 134.98239 28.613627 130.81826 26.315138 128.28906 24.845703 C 121.08209 20.658532 117.92936 19.403033 111.87695 18.316406 C 106.96438 17.43442 102.2508 16.989394 97.431641 17 z M 140.91211 159.74023 C 140.96188 159.65718 140.66813 159.86185 140.05469 160.31445 C 137.59325 162.13051 134.9986 163.81458 132.29883 165.35547 C 132.29678 165.35664 132.29501 165.35821 132.29297 165.35938 C 129.49827 167.27293 129.59303 167.36064 131.69531 166.76758 C 132.33749 166.32268 133.07127 165.82228 134.15234 165.08984 C 136.227 163.68425 138.72543 161.79554 139.70508 160.89453 C 140.46752 160.19329 140.86234 159.82329 140.91211 159.74023 z " />
</svg>
