<svg xmlns="http://www.w3.org/2000/svg" width="48" height="48" version="1.1">
 <g>
  <circle style="opacity:0.2" cx="24" cy="24.5" r="20"/>
  <circle style="fill:#d2d2d2" cx="24" cy="24" r="20"/>
  <path style="opacity:0.2;fill:#ffffff" d="M 24,4 A 20,20 0 0 0 4,24 20,20 0 0 0 4.0097656,24.246094 20,20 0 0 1 24,4.5 20,20 0 0 1 43.988281,24.246094 20,20 0 0 0 44,24 20,20 0 0 0 24,4 Z"/>
  <path style="opacity:0.1" d="M 32,26.499997 C 32,30.918277 28.418281,34.5 24.000004,34.5 19.581719,34.5 16,30.918277 16,26.499997 16,22.081718 23.30897,12.797865 24.000004,12.797865 24.755935,12.797865 32,22.081718 32,26.499997 Z"/>
  <path style="fill:#0091eb" d="M 32,25.999997 C 32,30.418277 28.418281,34 24.000004,34 19.581719,34 16,30.418277 16,25.999997 16,21.581718 23.30897,12.297865 24.000004,12.297865 24.755935,12.297865 32,21.581718 32,25.999997 Z"/>
 </g>
</svg>
