<?xml version="1.0" encoding="UTF-8" standalone="no"?>
<svg
   width="192"
   height="192"
   version="1"
   id="svg28"
   sodipodi:docname="apps_espncricinfo.svg"
   inkscape:version="1.1.1 (1:1.1+202109281949+c3084ef5ed)"
   xmlns:inkscape="http://www.inkscape.org/namespaces/inkscape"
   xmlns:sodipodi="http://sodipodi.sourceforge.net/DTD/sodipodi-0.dtd"
   xmlns="http://www.w3.org/2000/svg"
   xmlns:svg="http://www.w3.org/2000/svg"
   xmlns:rdf="http://www.w3.org/1999/02/22-rdf-syntax-ns#"
   xmlns:cc="http://creativecommons.org/ns#"
   xmlns:dc="http://purl.org/dc/elements/1.1/">
  <metadata
     id="metadata34">
    <rdf:RDF>
      <cc:Work
         rdf:about="">
        <dc:format>image/svg+xml</dc:format>
        <dc:type
           rdf:resource="http://purl.org/dc/dcmitype/StillImage" />
      </cc:Work>
    </rdf:RDF>
  </metadata>
  <defs
     id="defs32">
    <filter
       inkscape:collect="always"
       style="color-interpolation-filters:sRGB"
       id="filter6495"
       x="-0.048000001"
       y="-0.048000001"
       width="1.096"
       height="1.096">
      <feGaussianBlur
         inkscape:collect="always"
         stdDeviation="3.2"
         id="feGaussianBlur6497" />
    </filter>
    <filter
       inkscape:collect="always"
       style="color-interpolation-filters:sRGB"
       id="filter12426"
       x="-0.035789446"
       y="-0.072857259"
       width="1.0715789"
       height="1.1457145">
      <feGaussianBlur
         inkscape:collect="always"
         stdDeviation="1.700003"
         id="feGaussianBlur12428" />
    </filter>
  </defs>
  <sodipodi:namedview
     pagecolor="#ffffff"
     bordercolor="#666666"
     borderopacity="1"
     objecttolerance="10"
     gridtolerance="10"
     guidetolerance="10"
     inkscape:pageopacity="0"
     inkscape:pageshadow="2"
     inkscape:window-width="1920"
     inkscape:window-height="1019"
     id="namedview30"
     showgrid="false"
     inkscape:zoom="1"
     inkscape:cx="120.5"
     inkscape:cy="100.5"
     inkscape:window-x="0"
     inkscape:window-y="34"
     inkscape:window-maximized="1"
     inkscape:current-layer="svg28"
     inkscape:pagecheckerboard="0"
     inkscape:snap-bbox="true"
     inkscape:snap-bbox-midpoints="true">
    <inkscape:grid
       type="xygrid"
       id="grid841" />
  </sodipodi:namedview>
  <rect
     id="rect6457"
     transform="matrix(0,-1,-1,0,0,0)"
     ry="12"
     rx="12"
     y="-176"
     x="-180"
     height="160"
     width="160"
     style="opacity:0.2;fill:#000000;fill-opacity:1;stroke-width:4;filter:url(#filter6495)" />
  <rect
     id="rect2"
     transform="matrix(0,-1,-1,0,0,0)"
     ry="12"
     rx="12"
     y="-176"
     x="-176"
     height="160"
     width="160"
     style="fill:#0099f2;fill-opacity:1;stroke-width:4" />
  <path
     id="rect6416"
     style="opacity:0.2;fill:#ffffff;fill-opacity:1;stroke-width:4"
     d="m 28,16 c -6.648,0 -12,5.352 -12,12 v 1 c 0,-6.648 5.352,-12 12,-12 h 136 c 6.648,0 12,5.352 12,12 v -1 c 0,-6.648 -5.352,-12 -12,-12 z" />
  <path
     id="path967"
     style="opacity:1;fill:#ffffff;stroke-width:0.975913;stroke-linecap:round;stroke-linejoin:round;stroke-dasharray:2.92774, 2.92774"
     d="M 121 112 A 65 65 0 0 0 88.462891 120.89453 A 65 65 0 0 1 91.466797 119.25586 C 91.632959 119.33086 91.804905 119.39505 91.970703 119.4707 A 1.5 1.5 0 0 1 92.712891 121.45898 A 1.5 1.5 0 0 1 90.726562 122.20117 C 89.868866 121.80979 88.995794 121.46417 88.130859 121.09375 A 65 65 0 0 0 72.0625 134.38086 A 65 65 0 0 1 73.505859 132.80469 C 79.725906 135.04575 87.116068 138.60415 95.150391 143.12109 C 107.87865 150.277 122.09606 159.84319 135.13086 170.4043 C 137.39605 172.23961 139.60748 174.11232 141.78711 176 L 155.95508 176 C 154.91623 175.01666 153.87923 174.03137 152.82031 173.06836 A 1.5 1.5 0 0 1 152.7207 170.94922 A 1.5 1.5 0 0 1 153.75781 170.46094 A 1.5 1.5 0 0 1 154.83789 170.84766 C 156.32738 172.20225 157.80031 173.57899 159.25195 174.97656 A 1.5 1.5 0 0 1 159.70703 176 L 164 176 C 164.45839 176 164.90878 175.96753 165.35352 175.91797 C 164.67255 175.19461 164.00499 174.45934 163.31055 173.74805 A 1.5 1.5 0 0 1 163.33594 171.62695 A 1.5 1.5 0 0 1 164.40234 171.20117 A 1.5 1.5 0 0 1 165.45703 171.65234 C 166.54791 172.7697 167.61016 173.91592 168.66992 175.06445 C 172.98495 173.24987 176 168.98972 176 164 L 176 142.39648 A 65 65 0 0 0 121 112 z M 96.285156 122.00781 A 1.5 1.5 0 0 1 97.429688 122.0918 C 99.231538 122.99771 101.01854 123.93364 102.78906 124.89648 A 1.5 1.5 0 0 1 103.39062 126.93164 A 1.5 1.5 0 0 1 101.35547 127.5332 C 99.612063 126.58511 97.853873 125.66426 96.082031 124.77344 A 1.5 1.5 0 0 1 95.416016 122.75977 A 1.5 1.5 0 0 1 96.285156 122.00781 z M 84.464844 124.66992 C 86.35508 125.41332 88.218907 126.21325 90.058594 127.05273 A 1.5 1.5 0 0 1 90.800781 129.04102 A 1.5 1.5 0 0 1 88.8125 129.7832 C 87.013315 128.9622 85.199449 128.18349 83.367188 127.46289 A 1.5 1.5 0 0 1 82.519531 125.51758 A 1.5 1.5 0 0 1 84.464844 124.66992 z M 106.91797 127.69727 A 1.5 1.5 0 0 1 108.05664 127.84766 C 109.79939 128.85296 111.5298 129.879 113.24805 130.92578 A 1.5 1.5 0 0 1 113.75 132.98633 A 1.5 1.5 0 0 1 111.6875 133.48633 C 109.98976 132.45205 108.28067 131.4387 106.55859 130.44531 A 1.5 1.5 0 0 1 106.00781 128.39648 A 1.5 1.5 0 0 1 106.91797 127.69727 z M 94.373047 129.5918 A 1.5 1.5 0 0 1 95.517578 129.67578 C 97.31943 130.58169 99.104474 131.51762 100.875 132.48047 A 1.5 1.5 0 0 1 101.47656 134.51367 A 1.5 1.5 0 0 1 99.443359 135.11523 C 97.699957 134.16714 95.941764 133.24629 94.169922 132.35547 A 1.5 1.5 0 0 1 93.503906 130.3418 A 1.5 1.5 0 0 1 94.373047 129.5918 z M 117.23633 133.91602 A 1.5 1.5 0 0 1 118.36719 134.11523 C 120.06272 135.19604 121.74606 136.29487 123.41797 137.41211 A 1.5 1.5 0 0 1 123.83203 139.49219 A 1.5 1.5 0 0 1 121.75 139.90625 C 120.09616 138.80108 118.43134 137.7138 116.75391 136.64453 A 1.5 1.5 0 0 1 116.29492 134.57422 A 1.5 1.5 0 0 1 117.23633 133.91602 z M 105.00586 135.2793 A 1.5 1.5 0 0 1 106.14453 135.42969 C 107.88728 136.435 109.61769 137.46104 111.33594 138.50781 A 1.5 1.5 0 0 1 111.83594 140.56836 A 1.5 1.5 0 0 1 109.77539 141.07031 C 108.07765 140.03603 106.36661 139.02073 104.64453 138.02734 A 1.5 1.5 0 0 1 104.0957 135.97852 A 1.5 1.5 0 0 1 105.00586 135.2793 z M 71.34375 135.28125 A 65 65 0 0 0 67.142578 140.83008 C 67.212254 140.84881 67.283084 140.86625 67.351562 140.88672 A 1.5 1.5 0 0 1 68.359375 142.75391 A 1.5 1.5 0 0 1 66.492188 143.76172 C 66.159931 143.6624 65.828138 143.58622 65.496094 143.49609 A 65 65 0 0 0 63.068359 147.83594 C 63.866284 148.03267 64.661949 148.23693 65.4375 148.46875 A 1.5 1.5 0 0 1 66.445312 150.33594 A 1.5 1.5 0 0 1 64.578125 151.34375 C 63.646208 151.0652 62.715858 150.81898 61.785156 150.60547 A 65 65 0 0 0 56.072266 176 L 111.0918 176 A 1.5 1.5 0 0 1 111.15039 174.58984 A 1.5 1.5 0 0 1 112.11719 173.9707 A 1.5 1.5 0 0 1 113.23828 174.21484 C 114.08234 174.80171 114.91426 175.40468 115.75195 176 L 123.03906 176 A 1.5 1.5 0 0 1 122.81055 174.00586 A 1.5 1.5 0 0 1 123.80078 173.42578 A 1.5 1.5 0 0 1 124.91016 173.71484 C 125.90306 174.46584 126.88324 175.23566 127.86719 176 L 137.17773 176 C 135.87755 174.90438 134.57101 173.81102 133.24219 172.73438 C 120.34822 162.28739 106.24589 152.80003 93.681641 145.73633 C 85.246921 140.99427 77.499848 137.3959 71.34375 135.28125 z M 127.27734 140.5625 A 1.5 1.5 0 0 1 128.39844 140.80664 C 130.04932 141.95448 131.68813 143.12029 133.31445 144.30078 A 1.5 1.5 0 0 1 133.64648 146.39648 A 1.5 1.5 0 0 1 131.55078 146.72852 C 129.94001 145.55931 128.31884 144.40514 126.68555 143.26953 A 1.5 1.5 0 0 1 126.31055 141.18164 A 1.5 1.5 0 0 1 127.27734 140.5625 z M 115.32227 141.49805 A 1.5 1.5 0 0 1 116.45312 141.69727 C 118.14866 142.77807 119.832 143.8769 121.50391 144.99414 A 1.5 1.5 0 0 1 121.91797 147.07617 A 1.5 1.5 0 0 1 119.83789 147.49023 C 118.18405 146.38507 116.51728 145.29778 114.83984 144.22852 A 1.5 1.5 0 0 1 114.38281 142.15625 A 1.5 1.5 0 0 1 115.32227 141.49805 z M 73.130859 142.91211 C 75.021096 143.65551 76.884922 144.45544 78.724609 145.29492 A 1.5 1.5 0 0 1 79.466797 147.2832 A 1.5 1.5 0 0 1 77.478516 148.02539 C 75.67933 147.20439 73.865464 146.42372 72.033203 145.70312 A 1.5 1.5 0 0 1 71.185547 143.75977 A 1.5 1.5 0 0 1 73.130859 142.91211 z M 137.04688 147.60156 A 1.5 1.5 0 0 1 138.1582 147.89062 C 139.76112 149.10301 141.35368 150.33219 142.93164 151.58008 A 1.5 1.5 0 0 1 143.17773 153.68555 A 1.5 1.5 0 0 1 141.07031 153.93164 C 139.51081 152.69835 137.93495 151.48377 136.34766 150.2832 A 1.5 1.5 0 0 1 136.05664 148.18164 A 1.5 1.5 0 0 1 137.04688 147.60156 z M 83.039062 147.83398 A 1.5 1.5 0 0 1 84.183594 147.91797 C 85.985445 148.82388 87.770489 149.75981 89.541016 150.72266 A 1.5 1.5 0 0 1 90.142578 152.75586 A 1.5 1.5 0 0 1 88.109375 153.35742 C 86.365973 152.40932 84.60778 151.48848 82.835938 150.59766 A 1.5 1.5 0 0 1 82.169922 148.58398 A 1.5 1.5 0 0 1 83.039062 147.83398 z M 125.36328 148.14453 A 1.5 1.5 0 0 1 126.48438 148.39062 C 128.13521 149.53847 129.77406 150.70232 131.40039 151.88281 A 1.5 1.5 0 0 1 131.73242 153.97852 A 1.5 1.5 0 0 1 129.63867 154.31055 C 128.0279 153.14135 126.40673 151.98913 124.77344 150.85352 A 1.5 1.5 0 0 1 124.39648 148.76562 A 1.5 1.5 0 0 1 125.36328 148.14453 z M 71.21875 150.49414 C 73.108987 151.23754 74.97086 152.03942 76.810547 152.87891 A 1.5 1.5 0 0 1 77.552734 154.86523 A 1.5 1.5 0 0 1 75.566406 155.60742 C 73.767221 154.78642 71.953355 154.00771 70.121094 153.28711 A 1.5 1.5 0 0 1 69.273438 151.3418 A 1.5 1.5 0 0 1 71.21875 150.49414 z M 93.671875 153.52148 A 1.5 1.5 0 0 1 94.810547 153.67188 C 96.553296 154.67719 98.283715 155.70322 100.00195 156.75 A 1.5 1.5 0 0 1 100.50195 158.81055 A 1.5 1.5 0 0 1 98.441406 159.3125 C 96.743668 158.27822 95.032624 157.26291 93.310547 156.26953 A 1.5 1.5 0 0 1 92.761719 154.2207 A 1.5 1.5 0 0 1 93.671875 153.52148 z M 146.52539 155.03125 A 1.5 1.5 0 0 1 147.62305 155.36719 C 149.17604 156.64629 150.71504 157.9433 152.23633 159.26172 A 1.5 1.5 0 0 1 152.38672 161.37891 A 1.5 1.5 0 0 1 150.27148 161.5293 C 148.77003 160.22806 147.24935 158.94551 145.71484 157.68164 A 1.5 1.5 0 0 1 145.51172 155.57031 A 1.5 1.5 0 0 1 146.52539 155.03125 z M 135.13477 155.18359 A 1.5 1.5 0 0 1 136.24414 155.47266 C 137.84706 156.68504 139.43962 157.91422 141.01758 159.16211 A 1.5 1.5 0 0 1 141.26367 161.26953 A 1.5 1.5 0 0 1 139.15625 161.51562 C 137.59675 160.28235 136.02284 159.0658 134.43555 157.86523 A 1.5 1.5 0 0 1 134.14453 155.76367 A 1.5 1.5 0 0 1 135.13477 155.18359 z M 81.125 155.41602 A 1.5 1.5 0 0 1 82.269531 155.5 C 84.071383 156.40591 85.85838 157.34184 87.628906 158.30469 A 1.5 1.5 0 0 1 88.230469 160.33984 A 1.5 1.5 0 0 1 86.195312 160.93945 C 84.45191 159.99136 82.693717 159.07051 80.921875 158.17969 A 1.5 1.5 0 0 1 80.255859 156.16602 A 1.5 1.5 0 0 1 81.125 155.41602 z M 103.98828 159.74023 A 1.5 1.5 0 0 1 105.11914 159.93945 C 106.81468 161.02026 108.49801 162.11909 110.16992 163.23633 A 1.5 1.5 0 0 1 110.58398 165.31836 A 1.5 1.5 0 0 1 108.50391 165.73047 C 106.85006 164.6253 105.1833 163.53802 103.50586 162.46875 A 1.5 1.5 0 0 1 103.04883 160.39844 A 1.5 1.5 0 0 1 103.98828 159.74023 z M 91.757812 161.10352 A 1.5 1.5 0 0 1 92.896484 161.25391 C 94.639234 162.25921 96.36964 163.28525 98.087891 164.33203 A 1.5 1.5 0 0 1 98.589844 166.39258 A 1.5 1.5 0 0 1 96.527344 166.89453 C 94.829605 165.86025 93.120514 164.84495 91.398438 163.85156 A 1.5 1.5 0 0 1 90.847656 161.80273 A 1.5 1.5 0 0 1 91.757812 161.10352 z M 144.61133 162.61328 A 1.5 1.5 0 0 1 145.70898 162.94922 C 147.26198 164.22832 148.80098 165.52533 150.32227 166.84375 A 1.5 1.5 0 0 1 150.47266 168.96094 A 1.5 1.5 0 0 1 148.35742 169.11133 C 146.85597 167.81009 145.33724 166.52755 143.80273 165.26367 A 1.5 1.5 0 0 1 143.59766 163.15234 A 1.5 1.5 0 0 1 144.61133 162.61328 z M 155.67188 162.87695 A 1.5 1.5 0 0 1 156.75195 163.26562 C 158.24145 164.62022 159.71437 165.995 161.16602 167.39258 A 1.5 1.5 0 0 1 161.20508 169.51367 A 1.5 1.5 0 0 1 159.08398 169.55469 C 157.65405 168.17802 156.20412 166.82101 154.73438 165.48438 A 1.5 1.5 0 0 1 154.63281 163.36719 A 1.5 1.5 0 0 1 155.67188 162.87695 z M 114.0293 166.38672 A 1.5 1.5 0 0 1 115.15234 166.63086 C 116.80322 167.7787 118.44008 168.94451 120.06641 170.125 A 1.5 1.5 0 0 1 120.40039 172.2207 A 1.5 1.5 0 0 1 118.30469 172.55273 C 116.69392 171.38353 115.07275 170.23132 113.43945 169.0957 A 1.5 1.5 0 0 1 113.06445 167.00781 A 1.5 1.5 0 0 1 114.0293 166.38672 z M 102.07617 167.32227 A 1.5 1.5 0 0 1 103.20703 167.52148 C 104.90257 168.60229 106.5859 169.70307 108.25781 170.82031 A 1.5 1.5 0 0 1 108.67188 172.90039 A 1.5 1.5 0 0 1 106.58984 173.31445 C 104.936 172.20929 103.27119 171.122 101.59375 170.05273 A 1.5 1.5 0 0 1 101.13477 167.98047 A 1.5 1.5 0 0 1 102.07617 167.32227 z M 167.73047 175.40625 C 167.59178 175.45089 167.45145 175.49162 167.31055 175.53125 C 167.4513 175.49116 167.59191 175.45128 167.73047 175.40625 z M 166.77344 175.66797 C 166.59824 175.70858 166.42418 175.75214 166.24609 175.78516 C 166.42408 175.75167 166.59836 175.70917 166.77344 175.66797 z " />
  <path
     id="path12385"
     style="opacity:0.2;fill:#000000;stroke-width:0.205517;filter:url(#filter12426)"
     d="M 76.175781,40 C 71.929283,39.9944 69.116337,42.221384 68.720703,45.550781 68.628383,46.320246 68.533351,47.231206 68.435547,48 H 123.6875 c 0,0 0.10477,-0.952517 0.18555,-1.603516 C 124.28848,43.042488 122.8554,40 117.64453,40 c 0,0 -39.230104,0.0024 -41.468749,0 z m -33.720703,0.002 L 41.486328,48 h 25.056641 l 0.966797,-7.998047 z m 84.111332,0 L 125.59961,48 h 27.16211 c 0,0 0.0339,-0.426718 0.1543,-1.351562 0.66105,-5.157157 -2.68469,-6.646485 -5.91407,-6.646485 z m -1.3418,10.994141 -2.11719,17 9.3711,-0.002 L 134.59766,51 Z m 17.80273,0 -2.11914,17 9.3711,-0.002 L 152.39844,51 Z m -74.958981,0.002 c -0.687419,4.475 1.564394,6.003906 4.75586,6.003906 1.735857,0 12.976562,-0.0039 12.976562,-0.0039 l -0.394531,4 L 66.871094,61 65.953125,67.998047 c 0,0 20.150621,0.0065 20.955078,0 0.66434,-0.04755 5.307772,-0.175039 6.888672,-3.953125 0.512679,-1.226569 0.96682,-5.623673 1.09375,-6.546875 0.730282,-5.362132 -3.002159,-6.494141 -5.941406,-6.494141 -1.620464,0 -17.681148,-0.0059 -20.88086,-0.0059 z M 41.121094,51 39,67.998047 H 64.054688 L 64.978516,61.001953 49.289062,61 49.685547,57.001953 H 65.369141 L 66.171875,51 Z m 56.115234,0 -2.117187,16.998047 h 9.367189 L 105.80469,57 h 11.76562 c 3.33653,0 5.12991,-1.433724 5.46289,-3.830078 0.10642,-0.771114 0.20318,-1.39628 0.28907,-2.169922 z M 73,73 c -0.559671,0 -1.036579,0.145263 -1.431641,0.4375 C 71.189759,73.711473 71,74.232877 71,75 c 0,0.748859 0.189759,1.270263 0.568359,1.5625 C 71.963421,76.854737 72.440329,77 73,77 73.54321,77 74.013141,76.854737 74.408203,76.5625 74.803264,76.270263 75,75.748859 75,75 75,74.232877 74.803264,73.711473 74.408203,73.4375 74.013141,73.145263 73.54321,73 73,73 Z m 25,0 c -0.559671,0 -1.036579,0.145263 -1.431641,0.4375 C 96.189759,73.711473 96,74.232877 96,75 c 0,0.748859 0.189759,1.270263 0.568359,1.5625 C 96.963421,76.854737 97.440329,77 98,77 98.54321,77 99.013133,76.854737 99.408203,76.5625 99.803263,76.270263 100,75.748859 100,75 100,74.232877 99.803263,73.711473 99.408203,73.4375 99.013133,73.145263 98.54321,73 98,73 Z m 32.67773,0 c -1.24111,0 -2.32444,0.159772 -3.25,0.480469 -0.90453,0.320697 -1.20998,0.872598 -1.71484,1.654297 C 125.22908,75.896422 125,76.977809 125,78.380859 V 80 l -3,0.787109 V 83 h 3 v 13 h 4 V 83 h 4 v -3 h -4 v -1.4375 c 0.006,-0.581231 0.13713,-1.062531 0.43164,-1.443359 0.31553,-0.380827 1.0979,-0.572266 1.75,-0.572266 0.54693,0 1.03046,0.05017 1.45117,0.150391 0.42071,0.08017 0.81036,0.171267 1.16797,0.271484 L 135,73.691406 c -0.46278,-0.180391 -1.0728,-0.340164 -1.83008,-0.480468 C 132.43367,73.070629 131.60329,73 130.67773,73 Z m -82.722652,6 c -1.563166,0 -2.949249,0.299684 -4.15625,0.900391 -1.187215,0.600707 -2.116307,1.533437 -2.789062,2.794921 C 40.337011,83.956796 40,85.587489 40,87.589844 c 0,2.903415 0.653047,5.036835 1.958984,6.398437 C 43.284707,95.32986 45.154356,96 47.568359,96 c 1.127853,0 2.058901,-0.100546 2.791016,-0.300781 0.751903,-0.180212 1.463964,-0.491122 2.136719,-0.931641 v -3.21289 c -0.672755,0.440517 -1.365796,0.790474 -2.078125,1.050781 -0.712329,0.240283 -2.032906,0.361328 -2.962891,0.361328 -1.08828,0 -1.93934,-0.390956 -2.552734,-1.171875 -0.593607,-0.780919 -0.890625,-2.592444 -0.890625,-4.234375 0,-3.303887 1.148078,-5.556641 3.443359,-5.556641 0.593607,0 1.68569,0.09127 2.279297,0.271485 0.613394,0.180212 1.266441,0.409123 1.958984,0.689453 L 53,80.111328 C 52.386606,79.810974 51.665034,79.550337 50.833984,79.330078 50.022721,79.109819 49.063145,79 47.955078,79 Z m 18.496094,0 c -1.13615,0 -2.138254,0.306458 -3.00586,0.917969 -0.867606,0.611511 -1.549146,1.345057 -2.044921,2.201172 h -0.216797 l -0.681641,-2.8125 H 57 V 96 h 4 v -8.5 c 0.02201,-3.330713 3.760644,-4.377356 7,-4.5 V 79.123047 C 67.814085,79.082277 67.565718,79.05164 67.255859,79.03125 66.946,79.01087 66.678402,79 66.451172,79 Z M 71,79 v 17 h 4 V 79 Z m 15.955078,0 c -1.563166,0 -2.949249,0.299684 -4.15625,0.900391 -1.187215,0.600707 -2.116307,1.533437 -2.789062,2.794921 C 79.337011,83.956796 79,85.587489 79,87.589844 c 0,2.903415 0.653047,5.036835 1.958984,6.398437 C 82.284707,95.32986 84.154356,96 86.568359,96 c 1.127853,0 2.058901,-0.100546 2.791016,-0.300781 0.751903,-0.180212 1.463964,-0.491122 2.136719,-0.931641 v -3.21289 c -0.672755,0.440517 -1.365796,0.790474 -2.078125,1.050781 -0.712329,0.240283 -2.032906,0.361328 -2.962891,0.361328 -1.08828,0 -1.93934,-0.390956 -2.552734,-1.171875 -0.593607,-0.780919 -0.890625,-2.592444 -0.890625,-4.234375 0,-3.303887 1.148078,-5.556641 3.443359,-5.556641 0.593607,0 1.68569,0.09127 2.279297,0.271485 0.613394,0.180212 1.266441,0.409123 1.958984,0.689453 L 92,80.111328 C 91.386606,79.810974 90.665034,79.550337 89.833984,79.330078 89.022721,79.109819 88.063145,79 86.955078,79 Z M 96,79 v 17 h 4 V 79 Z m 8,0 v 17 h 4 V 88.142578 C 108.03185,85.898934 109.58289,83 111.5,83 c 1.91711,0 3.33969,1.429806 3.5,3.246094 V 96 h 4 V 85.115234 c 0,-2.140287 -0.52655,-3.690403 -1.57812,-4.648437 C 116.37029,79.48838 114.97259,79 113.22656,79 c -1.01191,0 -1.97402,0.192788 -2.88672,0.580078 -0.89286,0.387291 -1.59741,1.009119 -2.11328,1.865234 h -0.23828 L 107.39258,79 Z m 39.04492,0 c -2.50031,0 -4.4668,0.731639 -5.89844,2.193359 -1.43163,1.46172 -2.14648,3.55414 -2.14648,6.277344 0,1.822144 0.34372,3.37279 1.0293,4.654297 0.68556,1.261483 1.62283,2.223988 2.8125,2.884766 C 140.05162,95.670543 141.42262,96 142.95508,96 c 2.48014,0 4.43555,-0.740914 5.86719,-2.222656 C 150.27407,92.2956 151,90.193906 151,87.470703 151,85.648559 150.65628,84.116461 149.9707,82.875 149.28514,81.613517 148.34788,80.651012 147.1582,79.990234 145.96854,79.329457 144.59754,79 143.04492,79 Z m -0.0586,3 c 1.06666,0 1.83075,0.460522 2.29297,1.382812 0.48,0.899795 0.7207,2.261898 0.7207,4.083985 0,1.822086 -0.2407,3.205606 -0.7207,4.150391 C 144.81709,92.539478 144.06257,93 143.01367,93 141.947,93 141.17335,92.539478 140.69336,91.617188 140.23114,90.672403 140,89.288883 140,87.466797 c 0,-1.822087 0.23114,-3.184189 0.69336,-4.083985 C 141.17335,82.460522 141.93743,82 142.98633,82 Z" />
  <path
     id="path10860"
     style="fill:#ffffff;stroke-width:0.205517"
     d="M 76.175781 38 C 71.929283 37.9944 69.116337 40.221384 68.720703 43.550781 C 68.628383 44.320246 68.533351 45.231206 68.435547 46 L 123.6875 46 C 123.6875 46 123.79227 45.047483 123.87305 44.396484 C 124.28848 41.042488 122.8554 38 117.64453 38 C 117.64453 38 78.414426 38.002402 76.175781 38 z M 42.455078 38.001953 L 41.486328 46 L 66.542969 46 L 67.509766 38.001953 L 42.455078 38.001953 z M 126.56641 38.001953 L 125.59961 46 L 152.76172 46 C 152.76172 46 152.79561 45.573282 152.91602 44.648438 C 153.57707 39.491281 150.23133 38.001953 147.00195 38.001953 L 126.56641 38.001953 z M 125.22461 48.996094 L 123.10742 65.996094 L 132.47852 65.994141 L 134.59766 49 L 125.22461 48.996094 z M 143.02734 48.996094 L 140.9082 65.996094 L 150.2793 65.994141 L 152.39844 49 L 143.02734 48.996094 z M 68.068359 48.998047 C 67.38094 53.473047 69.632753 55.001953 72.824219 55.001953 C 74.560076 55.001953 85.800781 54.998047 85.800781 54.998047 L 85.40625 58.998047 L 66.871094 59 L 65.953125 65.998047 C 65.953125 65.998047 86.103746 66.004547 86.908203 65.998047 C 87.572543 65.950497 92.215975 65.823008 93.796875 62.044922 C 94.309554 60.818353 94.763695 56.421249 94.890625 55.498047 C 95.620907 50.135915 91.888466 49.003906 88.949219 49.003906 C 87.328755 49.003906 71.268071 48.998047 68.068359 48.998047 z M 41.121094 49 L 39 65.998047 L 64.054688 65.998047 L 64.978516 59.001953 L 49.289062 59 L 49.685547 55.001953 L 65.369141 55.001953 L 66.171875 49 L 41.121094 49 z M 97.236328 49 L 95.119141 65.998047 L 104.48633 65.998047 L 105.80469 55 L 117.57031 55 C 120.90684 55 122.70022 53.566276 123.0332 51.169922 C 123.13962 50.398808 123.23638 49.773642 123.32227 49 L 97.236328 49 z " />
  <path
     id="path10580"
     style="font-weight:bold;font-size:30.3901px;line-height:1.25;-inkscape-font-specification:'sans-serif Bold';opacity:1;fill:#80ccf9;fill-opacity:1;stroke-width:0.746435"
     d="m 73,71 c -0.559671,0 -1.036579,0.145263 -1.431641,0.4375 C 71.189759,71.711473 71,72.232877 71,73 c 0,0.748859 0.189759,1.270263 0.568359,1.5625 C 71.963421,74.854737 72.440329,75 73,75 73.54321,75 74.013141,74.854737 74.408203,74.5625 74.803264,74.270263 75,73.748859 75,73 75,72.232877 74.803264,71.711473 74.408203,71.4375 74.013141,71.145263 73.54321,71 73,71 Z m 25,0 c -0.559671,0 -1.036579,0.145263 -1.431641,0.4375 C 96.189759,71.711473 96,72.232877 96,73 c 0,0.748859 0.189759,1.270263 0.568359,1.5625 C 96.963421,74.854737 97.440329,75 98,75 98.54321,75 99.01313,74.854737 99.4082,74.5625 99.80326,74.270263 100,73.748859 100,73 100,72.232877 99.80326,71.711473 99.4082,71.4375 99.01313,71.145263 98.54321,71 98,71 Z m 32.67773,0 c -1.24111,0 -2.32444,0.159772 -3.25,0.480469 -0.90453,0.320697 -1.20998,0.872598 -1.71484,1.654297 C 125.22908,73.896422 125,74.977809 125,76.380859 V 78 l -3,0.787109 V 81 h 3 v 13 h 4 V 81 h 4 v -3 h -4 v -1.4375 c 0.006,-0.581231 0.13713,-1.062531 0.43164,-1.443359 0.31553,-0.380827 1.0979,-0.572266 1.75,-0.572266 0.54693,0 1.03046,0.05017 1.45117,0.150391 0.42071,0.08017 0.81036,0.171267 1.16797,0.271484 L 135,71.691406 c -0.46278,-0.180391 -1.0728,-0.340164 -1.83008,-0.480468 C 132.43367,71.07063 131.60329,71 130.67773,71 Z m -82.722652,6 c -1.563166,0 -2.949249,0.299684 -4.15625,0.900391 -1.187215,0.600707 -2.116307,1.533437 -2.789062,2.794921 C 40.337011,81.956796 40,83.587489 40,85.589844 c 0,2.903415 0.653047,5.036835 1.958984,6.398437 C 43.284707,93.32986 45.154356,94 47.568359,94 c 1.127853,0 2.058901,-0.100546 2.791016,-0.300781 0.751903,-0.180212 1.463964,-0.491122 2.136719,-0.931641 v -3.21289 c -0.672755,0.440518 -1.365796,0.790474 -2.078125,1.050781 -0.712329,0.240283 -2.032906,0.361328 -2.962891,0.361328 -1.08828,0 -1.93934,-0.390956 -2.552734,-1.171875 -0.593607,-0.780919 -0.890625,-2.592444 -0.890625,-4.234375 0,-3.303887 1.148078,-5.556641 3.443359,-5.556641 0.593607,0 1.68569,0.09127 2.279297,0.271485 0.613394,0.180212 1.266441,0.409123 1.958984,0.689453 L 53,78.111328 C 52.386606,77.810974 51.665034,77.550337 50.833984,77.330078 50.022721,77.109819 49.063145,77 47.955078,77 Z m 18.496094,0 c -1.13615,0 -2.138255,0.306458 -3.00586,0.917969 -0.867606,0.611511 -1.549146,1.345057 -2.044921,2.201172 h -0.216797 l -0.681641,-2.8125 H 57 V 94 h 4 v -8.5 c 0.02201,-3.330713 3.760644,-4.377356 7,-4.5 V 77.123047 C 67.814085,77.082277 67.565718,77.05164 67.255859,77.03125 66.946,77.01087 66.678402,77 66.451172,77 Z M 71,77 v 17 h 4 V 77 Z m 15.955078,0 c -1.563166,0 -2.949249,0.299684 -4.15625,0.900391 -1.187215,0.600707 -2.116307,1.533437 -2.789062,2.794921 C 79.337011,81.956796 79,83.587489 79,85.589844 c 0,2.903415 0.653047,5.036835 1.958984,6.398437 C 82.284707,93.32986 84.154356,94 86.568359,94 c 1.127853,0 2.058901,-0.100546 2.791016,-0.300781 0.751903,-0.180212 1.463964,-0.491122 2.136719,-0.931641 v -3.21289 c -0.672755,0.440518 -1.365796,0.790474 -2.078125,1.050781 -0.712329,0.240283 -2.032906,0.361328 -2.962891,0.361328 -1.08828,0 -1.93934,-0.390956 -2.552734,-1.171875 -0.593607,-0.780919 -0.890625,-2.592444 -0.890625,-4.234375 0,-3.303887 1.148078,-5.556641 3.443359,-5.556641 0.593607,0 1.68569,0.09127 2.279297,0.271485 0.613394,0.180212 1.266441,0.409123 1.958984,0.689453 L 92,78.111328 C 91.386606,77.810974 90.665034,77.550337 89.833984,77.330078 89.022721,77.109819 88.063145,77 86.955078,77 Z M 96,77 v 17 h 4 V 77 Z m 8,0 v 17 h 4 V 86.142578 C 108.03185,83.898934 109.58289,81 111.5,81 c 1.91711,0 3.33969,1.429806 3.5,3.246094 V 94 h 4 V 83.115234 c 0,-2.140287 -0.52654,-3.690403 -1.57812,-4.648437 C 116.3703,77.48838 114.97259,77 113.22656,77 c -1.01191,0 -1.97402,0.192788 -2.88672,0.580078 -0.89286,0.387291 -1.59741,1.009119 -2.11328,1.865234 h -0.23828 L 107.39258,77 Z m 39.04492,0 c -2.50031,0 -4.4668,0.731639 -5.89844,2.193359 -1.43163,1.46172 -2.14648,3.55414 -2.14648,6.277344 0,1.822144 0.34372,3.37279 1.0293,4.654297 0.68556,1.261483 1.62283,2.223988 2.8125,2.884766 C 140.05162,93.670543 141.42262,94 142.95508,94 c 2.48014,0 4.43555,-0.740914 5.86719,-2.222656 C 150.27407,90.2956 151,88.193906 151,85.470703 151,83.648559 150.65628,82.116461 149.9707,80.875 149.28514,79.613517 148.34788,78.651012 147.1582,77.990234 145.96854,77.329457 144.59754,77 143.04492,77 Z m -0.0586,3 c 1.06666,0 1.83075,0.460522 2.29297,1.382812 0.48,0.899795 0.7207,2.261898 0.7207,4.083985 0,1.822086 -0.2407,3.205606 -0.7207,4.150391 C 144.81708,90.539478 144.06257,91 143.01367,91 141.947,91 141.17335,90.539478 140.69336,89.617188 140.23114,88.672403 140,87.288883 140,85.466797 c 0,-1.822087 0.23114,-3.184189 0.69336,-4.083985 C 141.17335,80.460522 141.93743,80 142.98633,80 Z" />
</svg>
