<?xml version="1.0" encoding="UTF-8" standalone="no"?>
<svg
   width="192"
   height="192"
   version="1"
   id="svg12"
   sodipodi:docname="apps_naver_mybox.svg"
   inkscape:version="1.1.1 (1:1.1+202109281949+c3084ef5ed)"
   xmlns:inkscape="http://www.inkscape.org/namespaces/inkscape"
   xmlns:sodipodi="http://sodipodi.sourceforge.net/DTD/sodipodi-0.dtd"
   xmlns="http://www.w3.org/2000/svg"
   xmlns:svg="http://www.w3.org/2000/svg"
   xmlns:rdf="http://www.w3.org/1999/02/22-rdf-syntax-ns#"
   xmlns:cc="http://creativecommons.org/ns#"
   xmlns:dc="http://purl.org/dc/elements/1.1/">
  <metadata
     id="metadata18">
    <rdf:RDF>
      <cc:Work
         rdf:about="">
        <dc:format>image/svg+xml</dc:format>
        <dc:type
           rdf:resource="http://purl.org/dc/dcmitype/StillImage" />
      </cc:Work>
    </rdf:RDF>
  </metadata>
  <defs
     id="defs16">
    <filter
       inkscape:collect="always"
       style="color-interpolation-filters:sRGB"
       id="filter2795"
       x="-0.050709725"
       y="-0.045638815"
       width="1.1014194"
       height="1.0912776">
      <feGaussianBlur
         inkscape:collect="always"
         stdDeviation="3.0425877"
         id="feGaussianBlur2797" />
    </filter>
    <filter
       inkscape:collect="always"
       style="color-interpolation-filters:sRGB"
       id="filter50355"
       x="-0.050616417"
       y="-0.045789336"
       width="1.1012328"
       height="1.0915787">
      <feGaussianBlur
         inkscape:collect="always"
         stdDeviation="2.4886446"
         id="feGaussianBlur50357" />
    </filter>
    <filter
       inkscape:collect="always"
       style="color-interpolation-filters:sRGB"
       id="filter50397"
       x="-0.11349699"
       y="-0.10317904"
       width="1.226994"
       height="1.2063581">
      <feGaussianBlur
         inkscape:collect="always"
         stdDeviation="2.8374234"
         id="feGaussianBlur50399" />
    </filter>
  </defs>
  <sodipodi:namedview
     pagecolor="#ffffff"
     bordercolor="#666666"
     borderopacity="1"
     objecttolerance="10"
     gridtolerance="10"
     guidetolerance="10"
     inkscape:pageopacity="0"
     inkscape:pageshadow="2"
     inkscape:window-width="1920"
     inkscape:window-height="1016"
     id="namedview14"
     showgrid="false"
     inkscape:zoom="1"
     inkscape:cx="42.5"
     inkscape:cy="80.5"
     inkscape:window-x="0"
     inkscape:window-y="32"
     inkscape:window-maximized="1"
     inkscape:current-layer="svg12"
     showguides="false"
     inkscape:document-rotation="0"
     inkscape:pagecheckerboard="0"
     inkscape:snap-bbox="true"
     inkscape:snap-bbox-midpoints="true"
     inkscape:snap-global="true">
    <inkscape:grid
       type="xygrid"
       id="grid852" />
  </sodipodi:namedview>
  <path
     id="path2757"
     style="color:#000000;opacity:0.2;fill:#000000;fill-opacity:1;stroke-width:0.893859;stroke-linecap:round;stroke-linejoin:round;-inkscape-stroke:none;filter:url(#filter2795)"
     d="m 96.188747,20.000074 c -2.926194,0.0088 -5.849461,0.769856 -8.459579,2.274375 L 32.690361,53.990127 a 8.9480207,8.930956 0 0 0 -0.0018,0 c -5.218338,3.008428 -8.479462,8.586588 -8.498012,14.61949 l -0.190475,63.105203 c -0.01785,6.03374 3.238017,11.66166 8.482295,14.66309 l 54.850078,31.38778 c 5.243925,3.00039 11.713626,2.96979 16.933133,-0.0366 a 8.9480207,8.930956 0 0 0 0.002,0 l 55.03881,-31.71743 c 5.221,-3.00771 8.4847,-8.58465 8.50327,-14.61949 a 8.9480207,8.930956 0 0 0 0,-0.002 l 0.19047,-63.103457 a 8.9480207,8.930956 0 0 0 0,-0.0018 c 0.0179,-6.033737 -3.23801,-11.65991 -8.48229,-14.66135 a 8.9480207,8.930956 0 0 0 0,-0.0018 l -54.8501,-31.38743 c -2.62279,-1.500692 -5.5526,-2.243045 -8.478793,-2.234259 z" />
  <path
     id="path1323"
     style="color:#000000;fill:#497cf6;stroke-width:0.893859;stroke-linecap:round;stroke-linejoin:round;-inkscape-stroke:none;fill-opacity:1"
     d="m 96.188747,16.000077 c -2.926194,0.0088 -5.849461,0.769856 -8.459579,2.274375 L 32.690361,49.99013 a 8.9480207,8.930956 0 0 0 -0.0018,0 c -5.218338,3.008428 -8.479462,8.586588 -8.498012,14.61949 l -0.190475,63.1052 c -0.01785,6.03374 3.238017,11.66166 8.482295,14.66309 l 54.850078,31.38778 c 5.243925,3.00039 11.713626,2.96979 16.933133,-0.0366 a 8.9480207,8.930956 0 0 0 0.002,0 l 55.03881,-31.71743 c 5.221,-3.00771 8.4847,-8.58465 8.50327,-14.61949 a 8.9480207,8.930956 0 0 0 0,-0.002 l 0.19047,-63.103454 a 8.9480207,8.930956 0 0 0 0,-0.0018 c 0.0179,-6.033737 -3.23801,-11.65991 -8.48229,-14.66135 a 8.9480207,8.930956 0 0 0 0,-0.0018 l -54.8501,-31.38743 c -2.62279,-1.500692 -5.5526,-2.243045 -8.478793,-2.234259 z" />
  <path
     id="path50306"
     style="color:#000000;opacity:0.2;fill:#000000;fill-opacity:1;stroke-width:0.729357;stroke-linecap:round;stroke-linejoin:round;-inkscape-stroke:none;filter:url(#filter50355)"
     d="m 96,33.009546 c -2.346058,0.03277 -4.684505,0.641764 -6.777344,1.83789 L 44.121094,60.616968 a 7.332398,7.2564018 0 0 0 -0.002,0 c -0.516622,0.295314 -1.007807,0.622584 -1.47461,0.976562 -0.03664,0.02779 -0.07109,0.05781 -0.107422,0.08594 -0.192278,0.148156 -0.381022,0.299758 -0.564453,0.457031 -0.10313,0.08842 -0.202467,0.180285 -0.302734,0.271484 0.02177,-0.01992 0.04645,-0.03685 0.06836,-0.05664 -0.05677,0.05129 -0.114078,0.102128 -0.169922,0.154297 0.02092,-0.01953 0.0395,-0.04114 0.06055,-0.06055 -0.085,0.07794 -0.169058,0.15644 -0.251953,0.236329 -0.221754,0.215094 -0.436395,0.435532 -0.642578,0.664062 -9.24e-4,0.001 -0.001,0.0029 -0.002,0.0039 -0.06532,0.07245 -0.125723,0.148925 -0.189453,0.222657 -0.112369,0.129174 -0.224688,0.257594 -0.332031,0.390625 -0.07368,0.09183 -0.141606,0.187671 -0.212891,0.28125 -0.04996,0.06553 -0.09967,0.130895 -0.148438,0.197265 -0.08703,0.118508 -0.174596,0.236342 -0.257812,0.357422 -0.119135,0.172703 -0.232685,0.3476 -0.34375,0.525391 -0.004,0.0064 -0.0077,0.01308 -0.01172,0.01953 -0.01409,0.02267 -0.03096,0.04366 -0.04492,0.06641 l 0.0059,0.002 v 0.002 c -1.292678,2.104149 -2.033127,4.537974 -2.041016,7.082032 L 37,123.76736 c -0.0079,2.64002 0.784309,5.1708 2.167969,7.33789 l -0.01758,0.01 c 1.197295,1.9507 2.91198,3.55087 4.96875,4.72657 h 0.002 l 45.101562,25.76953 c 2.092839,1.19613 4.431286,1.80509 6.777344,1.83789 2.346058,-0.0328 4.68451,-0.64176 6.77734,-1.83789 l 45.10157,-25.76953 h 0.002 c 2.05677,-1.1757 3.77146,-2.77587 4.96875,-4.72657 l -0.0176,-0.01 c 1.38366,-2.16709 2.17597,-4.69787 2.16797,-7.33789 l -0.15625,-51.271486 c -0.008,-2.544058 -0.74834,-4.979836 -2.04102,-7.083985 l 0.006,-0.002 c -0.014,-0.02275 -0.0308,-0.04373 -0.0449,-0.06641 -0.004,-0.0064 -0.008,-0.0131 -0.0117,-0.01953 -0.11106,-0.177791 -0.22461,-0.352688 -0.34375,-0.525391 -0.0832,-0.12108 -0.17078,-0.238914 -0.25781,-0.357422 -0.0488,-0.06637 -0.0985,-0.131732 -0.14844,-0.197265 -0.0713,-0.09358 -0.13921,-0.189418 -0.21289,-0.28125 -0.10734,-0.133031 -0.21966,-0.261451 -0.33203,-0.390625 -0.0637,-0.07373 -0.12413,-0.150208 -0.18945,-0.222657 -9.3e-4,-0.001 -0.001,-0.0029 -0.002,-0.0039 -0.20618,-0.22853 -0.42082,-0.448968 -0.64257,-0.664062 -0.0829,-0.07989 -0.16695,-0.158392 -0.25196,-0.236329 0.0211,0.01941 0.0396,0.04102 0.0605,0.06055 -0.0558,-0.05217 -0.11315,-0.103002 -0.16992,-0.154297 0.0219,0.01979 0.0466,0.03672 0.0684,0.05664 -0.31237,-0.284113 -0.63495,-0.558061 -0.97461,-0.814453 -0.4668,-0.353978 -0.95799,-0.681248 -1.47461,-0.976562 a 7.332398,7.2564018 0 0 1 -0.002,0 L 102.77734,34.847436 C 100.68451,33.65131 98.346058,33.042316 96,33.009546 Z" />
  <path
     id="path49845"
     style="color:#000000;opacity:1;fill:#d4e0ff;fill-opacity:1;stroke-width:0.723175;stroke-linecap:round;stroke-linejoin:round;-inkscape-stroke:none"
     d="m 95.99999,31.332917 c -2.326175,0.03247 -4.644801,0.636325 -6.719903,1.822316 L 44.560796,58.70635 a 7.27025,7.1948979 0 0 0 -0.002,0 c -0.512245,0.292807 -0.999266,0.617303 -1.462112,0.968281 -0.03634,0.02758 -0.07049,0.05731 -0.106512,0.08524 -0.190648,0.146904 -0.377793,0.297217 -0.559671,0.453159 -0.102257,0.08765 -0.200747,0.178755 -0.300166,0.269184 0.02157,-0.01972 0.04605,-0.03655 0.06776,-0.05614 -0.05627,0.05089 -0.113114,0.101261 -0.168482,0.152987 0.02072,-0.01933 0.0392,-0.0408 0.06005,-0.06004 -0.0843,0.07724 -0.167623,0.155116 -0.249818,0.234325 -0.219874,0.213274 -0.432694,0.431842 -0.637133,0.658435 -9.17e-4,9.92e-4 -9.92e-4,0.0029 -0.002,0.0039 -0.06478,0.07185 -0.124654,0.147665 -0.187844,0.220771 -0.111418,0.12808 -0.222786,0.255411 -0.329219,0.387314 -0.07308,0.09103 -0.140406,0.186081 -0.211087,0.278866 -0.04956,0.06494 -0.09885,0.129786 -0.147182,0.195595 -0.08632,0.117501 -0.173115,0.234336 -0.255622,0.354391 -0.118125,0.171239 -0.230715,0.344654 -0.340838,0.52094 -0.004,0.0064 -0.0077,0.01297 -0.01162,0.01933 -0.01399,0.02248 -0.03066,0.04326 -0.04452,0.06581 l 0.0059,0.002 v 0.002 c -1.281679,2.08621 -2.015847,4.49941 -2.023668,7.021905 L 37.50006,121.32148 c -0.0079,2.61765 0.777658,5.12699 2.149595,7.27571 l -0.01741,0.01 c 1.187145,1.9342 2.887297,3.52077 4.926634,4.68652 h 0.002 l 44.719291,25.55113 c 2.075102,1.18593 4.393728,1.78979 6.719903,1.82229 2.326173,-0.0328 4.644837,-0.63636 6.719927,-1.82229 l 44.71932,-25.55113 h 0.002 c 2.03936,-1.16575 3.73954,-2.75232 4.92665,-4.68652 l -0.0176,-0.01 c 1.37196,-2.14872 2.15749,-4.65806 2.14957,-7.27571 l -0.15495,-50.83691 c -0.008,-2.522495 -0.74194,-4.937628 -2.02371,-7.023944 l 0.006,-0.002 c -0.0139,-0.02255 -0.0308,-0.04333 -0.0449,-0.06581 -0.004,-0.0064 -0.008,-0.013 -0.0117,-0.01933 -0.11016,-0.176286 -0.22271,-0.3497 -0.34085,-0.520938 -0.0822,-0.120056 -0.16937,-0.236892 -0.25561,-0.354393 -0.0487,-0.06577 -0.0975,-0.130618 -0.14723,-0.195594 -0.0703,-0.09278 -0.13802,-0.187812 -0.21109,-0.278867 -0.10643,-0.131903 -0.21777,-0.259234 -0.32922,-0.387314 -0.0628,-0.07313 -0.12305,-0.148932 -0.18785,-0.220769 -8.5e-4,-9.93e-4 -9.2e-4,-0.0029 -0.002,-0.0039 -0.20447,-0.226593 -0.4173,-0.445161 -0.63716,-0.658434 -0.0819,-0.07919 -0.16555,-0.15705 -0.24985,-0.234326 0.021,0.01921 0.0396,0.0407 0.0605,0.06004 -0.0555,-0.05175 -0.11217,-0.102128 -0.16844,-0.152987 0.0219,0.01959 0.0465,0.03642 0.0674,0.05614 -0.30975,-0.281703 -0.62955,-0.55333 -0.96636,-0.807551 -0.46284,-0.350978 -0.94984,-0.675474 -1.46214,-0.968281 a 7.27025,7.1948979 0 0 1 -0.002,0 l -44.71877,-25.55113 c -2.07509,-1.18599 -4.393725,-1.789821 -6.719897,-1.822316 z" />
  <path
     id="path2799"
     style="color:#000000;fill:#ffffff;stroke-width:0.893859;stroke-linecap:round;stroke-linejoin:round;-inkscape-stroke:none;fill-opacity:1;opacity:0.2"
     d="M 96.189453 16 C 93.263259 16.0088 90.338634 16.770872 87.728516 18.275391 L 32.689453 49.990234 C 27.471115 52.998662 24.209956 58.576473 24.191406 64.609375 L 24 127.71484 C 23.999955 127.72995 24.001957 127.74467 24.001953 127.75977 L 24.191406 65.609375 C 24.209956 59.576473 27.471115 53.998662 32.689453 50.990234 L 87.728516 19.275391 C 90.338634 17.770872 93.263259 17.0088 96.189453 17 C 99.115646 16.991214 102.04518 17.733683 104.66797 19.234375 L 159.51758 50.621094 A 8.9480207 8.930956 0 0 0 159.51758 50.623047 C 164.74873 53.616974 167.99956 59.22365 167.99805 65.240234 L 168 64.287109 A 8.9480207 8.930956 0 0 0 168 64.285156 C 168.0179 58.251419 164.76186 52.624487 159.51758 49.623047 A 8.9480207 8.930956 0 0 0 159.51758 49.621094 L 104.66797 18.234375 C 102.04518 16.733683 99.115646 15.991214 96.189453 16 z " />
  <path
     id="path1003"
     style="color:#000000;fill:#d4e0ff;fill-opacity:1;stroke-width:0.729357;stroke-linecap:round;stroke-linejoin:round;-inkscape-stroke:none;opacity:1"
     d="M 42.644531 59.59375 C 39.239048 62.164369 37.169615 66.186323 37.15625 70.496094 L 37 121.76758 C 36.992127 124.4076 37.784309 126.93838 39.167969 129.10547 L 96 96.208984 L 39.191406 63.410156 C 40.087963 61.949441 41.252904 60.649025 42.644531 59.59375 z " />
  <path
     id="path1800"
     style="color:#000000;fill:#f4f8ff;fill-opacity:1;stroke-width:0.729357;stroke-linecap:round;stroke-linejoin:round;-inkscape-stroke:none;opacity:1"
     d="M 96 31.009766 C 93.653942 31.042532 91.315495 31.65153 89.222656 32.847656 L 44.121094 58.617188 A 7.332398 7.2564018 0 0 0 44.119141 58.617188 C 42.062371 59.79289 40.388701 61.459464 39.191406 63.410156 L 96 96.208984 L 96 31.009766 z " />
  <path
     id="path2364"
     style="color:#000000;opacity:1;fill:#cadbff;fill-opacity:1;stroke-width:0.729357;stroke-linecap:round;stroke-linejoin:round;-inkscape-stroke:none"
     d="m 96,161.45 c -2.346058,-0.0328 -4.684505,-0.64176 -6.777344,-1.83789 L 44.121094,133.84258 h -0.002 c -2.05677,-1.1757 -3.771713,-2.77671 -4.969008,-4.72741 L 96,96.208984 Z"
     sodipodi:nodetypes="ccccccc" />
  <path
     id="path14527"
     style="color:#000000;fill:#e2ebff;fill-opacity:1;stroke-width:0.729357;stroke-linecap:round;stroke-linejoin:round;-inkscape-stroke:none"
     d="m 149.35547,59.59375 c 3.40548,2.570619 5.47491,6.592573 5.48828,10.902344 L 155,121.76758 c 0.008,2.64002 -0.78431,5.1708 -2.16797,7.33789 L 96,96.208984 152.80859,63.410156 c -0.89655,-1.460715 -2.06149,-2.761131 -3.45312,-3.816406 z" />
  <path
     id="path14529"
     style="color:#000000;fill:#ebf0ff;fill-opacity:1;stroke-width:0.729357;stroke-linecap:round;stroke-linejoin:round;-inkscape-stroke:none"
     d="m 96,31.009766 c 2.346058,0.03277 4.68451,0.641764 6.77734,1.83789 l 45.10157,25.769532 a -7.332398,7.2564018 0 0 1 0.002,0 c 2.05677,1.175702 3.73044,2.842276 4.92773,4.792968 L 96,96.208984 Z" />
  <path
     id="path14531"
     style="color:#000000;fill:#d4e0ff;fill-opacity:1;stroke-width:0.729357;stroke-linecap:round;stroke-linejoin:round;-inkscape-stroke:none"
     d="m 96,161.45 c 2.346058,-0.0328 4.68451,-0.64176 6.77734,-1.83789 l 45.10157,-25.76953 h 0.002 c 2.05677,-1.1757 3.77171,-2.77671 4.969,-4.72741 L 96,96.208984 Z"
     sodipodi:nodetypes="ccccccc" />
  <path
     id="path50359"
     style="color:#000000;opacity:0.2;fill:#000000;fill-opacity:1;stroke-width:0.370574;stroke-linecap:round;stroke-linejoin:round;-inkscape-stroke:none;filter:url(#filter50397)"
     d="m 96.078662,65.00004 c -1.219245,0.0037 -2.437269,0.317565 -3.524819,0.938178 L 69.620999,79.02094 a 3.7283428,3.6840196 0 0 0 -7.64e-4,0 c -2.174307,1.240971 -3.53311,3.541961 -3.540839,6.030537 l -0.07935,26.030883 c -0.0075,2.48893 1.349174,4.81044 3.534291,6.04853 l 22.854203,12.94746 c 2.184969,1.23766 4.880678,1.22504 7.055478,-0.0151 a 3.7283428,3.6840196 0 0 0 9.68e-4,0 l 22.932834,-13.08344 c 2.17542,-1.24069 3.5353,-3.54116 3.54303,-6.03054 a 3.7283428,3.6840196 0 0 0 0,-9.7e-4 l 0.0791,-26.030161 a 3.7283428,3.6840196 0 0 0 0,-7.65e-4 c 0.008,-2.488915 -1.34917,-4.809718 -3.53429,-6.047808 a 3.7283428,3.6840196 0 0 0 0,-7.64e-4 L 99.611577,65.921672 C 98.518749,65.302636 97.297994,64.996415 96.078749,65.00004 Z" />
  <path
     id="path1077"
     style="color:#000000;opacity:1;fill:#497cf6;fill-opacity:1;stroke-width:0.370574;stroke-linecap:round;stroke-linejoin:round;-inkscape-stroke:none"
     d="m 96.078662,63.000034 c -1.219245,0.0037 -2.437269,0.317565 -3.524819,0.938178 L 69.620999,77.020934 a 3.7283428,3.6840196 0 0 0 -7.64e-4,0 c -2.174307,1.240971 -3.53311,3.541961 -3.540839,6.030537 l -0.07935,26.030879 c -0.0075,2.48893 1.349174,4.81044 3.534291,6.04853 l 22.854203,12.94746 c 2.184969,1.23766 4.880678,1.22504 7.055478,-0.0151 a 3.7283428,3.6840196 0 0 0 9.68e-4,0 L 122.37782,114.9798 c 2.17542,-1.24069 3.5353,-3.54116 3.54303,-6.03054 a 3.7283428,3.6840196 0 0 0 0,-9.7e-4 l 0.0791,-26.030157 a 3.7283428,3.6840196 0 0 0 0,-7.65e-4 c 0.008,-2.488915 -1.34917,-4.809718 -3.53429,-6.047808 a 3.7283428,3.6840196 0 0 0 0,-7.64e-4 L 99.611577,63.921666 C 98.518749,63.30263 97.297994,62.996409 96.078749,63.000034 Z" />
  <path
     id="path34931"
     style="color:#000000;opacity:1;fill:#8aadff;fill-opacity:1;stroke-width:0.370574;stroke-linecap:round;stroke-linejoin:round;-inkscape-stroke:none"
     d="M 125.05859 79.431641 L 96 96.208984 L 96 128.99414 C 97.192018 128.97745 98.379837 128.66895 99.443359 128.0625 A 3.7283428 3.6840196 0 0 0 99.445312 128.0625 L 122.37695 114.98047 C 124.55237 113.73978 125.91219 111.4386 125.91992 108.94922 L 126 82.917969 C 126.00399 81.676503 125.66724 80.475952 125.05859 79.431641 z " />
  <path
     id="path40868"
     style="color:#000000;opacity:1;fill:#5e8bff;fill-opacity:1;stroke-width:0.370574;stroke-linecap:round;stroke-linejoin:round;-inkscape-stroke:none"
     d="M 67.078125 79.509766 C 66.442732 80.565425 66.084019 81.781961 66.080078 83.050781 L 66 109.08203 C 65.9925 111.57096 67.350039 113.89277 69.535156 115.13086 L 92.388672 128.07812 C 93.505146 128.71054 94.754457 129.01158 96 128.99414 L 96 96.208984 L 67.078125 79.509766 z " />
</svg>
