<?xml version="1.0" encoding="UTF-8" standalone="no"?>
<svg
   width="192"
   height="192"
   version="1"
   id="svg28"
   sodipodi:docname="apps_revolution_irc.svg"
   inkscape:version="1.1.1 (1:1.1+202109281949+c3084ef5ed)"
   xmlns:inkscape="http://www.inkscape.org/namespaces/inkscape"
   xmlns:sodipodi="http://sodipodi.sourceforge.net/DTD/sodipodi-0.dtd"
   xmlns="http://www.w3.org/2000/svg"
   xmlns:svg="http://www.w3.org/2000/svg"
   xmlns:rdf="http://www.w3.org/1999/02/22-rdf-syntax-ns#"
   xmlns:cc="http://creativecommons.org/ns#"
   xmlns:dc="http://purl.org/dc/elements/1.1/">
  <metadata
     id="metadata34">
    <rdf:RDF>
      <cc:Work
         rdf:about="">
        <dc:format>image/svg+xml</dc:format>
        <dc:type
           rdf:resource="http://purl.org/dc/dcmitype/StillImage" />
      </cc:Work>
    </rdf:RDF>
  </metadata>
  <defs
     id="defs32">
    <filter
       inkscape:collect="always"
       style="color-interpolation-filters:sRGB"
       id="filter18509"
       x="-0.042965034"
       y="-0.05437168"
       width="1.0859301"
       height="1.1087434">
      <feGaussianBlur
         inkscape:collect="always"
         stdDeviation="2.56"
         id="feGaussianBlur18511" />
    </filter>
    <filter
       inkscape:collect="always"
       style="color-interpolation-filters:sRGB"
       id="filter18513"
       x="-0.042965034"
       y="-0.05437168"
       width="1.0859301"
       height="1.1087434">
      <feGaussianBlur
         inkscape:collect="always"
         stdDeviation="2.56"
         id="feGaussianBlur18515" />
    </filter>
    <filter
       inkscape:collect="always"
       style="color-interpolation-filters:sRGB"
       id="filter18773"
       x="-0.075227935"
       y="-0.074773437"
       width="1.1504559"
       height="1.1495469">
      <feGaussianBlur
         inkscape:collect="always"
         stdDeviation="2.33667"
         id="feGaussianBlur18775" />
    </filter>
  </defs>
  <sodipodi:namedview
     pagecolor="#ffffff"
     bordercolor="#666666"
     borderopacity="1"
     objecttolerance="10"
     gridtolerance="10"
     guidetolerance="10"
     inkscape:pageopacity="0"
     inkscape:pageshadow="2"
     inkscape:window-width="1920"
     inkscape:window-height="1019"
     id="namedview30"
     showgrid="false"
     inkscape:zoom="1"
     inkscape:cx="78.5"
     inkscape:cy="75"
     inkscape:window-x="0"
     inkscape:window-y="34"
     inkscape:window-maximized="1"
     inkscape:current-layer="svg28"
     inkscape:pagecheckerboard="0"
     inkscape:snap-global="true"
     showguides="true"
     inkscape:snap-bbox="true"
     inkscape:snap-bbox-midpoints="true">
    <inkscape:grid
       type="xygrid"
       id="grid841" />
  </sodipodi:namedview>
  <path
     id="path18469"
     style="opacity:0.2;fill:#000000;fill-opacity:1;stroke-width:3.99586;stroke-linecap:round;stroke-linejoin:round;filter:url(#filter18509)"
     d="m 185,33.999999 -19,19 V 135 c 0,6.648 -5.352,12 -12,12 H 54 c -6.648,0 -12,-5.352 -12,-12 V 45.999999 c 0,-6.648 5.352,-12 12,-12 h 83 17 z" />
  <path
     id="path2299"
     style="opacity:1;fill:#cfd8dc;stroke-width:3.99586;stroke-linecap:round;stroke-linejoin:round;fill-opacity:1"
     d="m 185,30.999999 -19,19 V 132 c 0,6.648 -5.352,12 -12,12 H 54 c -6.648,0 -12,-5.352 -12,-12 V 42.999999 c 0,-6.648 5.352,-12 12,-12 h 83 17 z" />
  <path
     id="path18471"
     style="opacity:0.2;fill:#000000;fill-opacity:1;stroke-width:3.99586;stroke-linecap:round;stroke-linejoin:round;filter:url(#filter18513)"
     d="m 6,50 19,19 v 82 c 0,6.648 5.352,12 12,12 h 100 c 6.648,0 12,-5.352 12,-12 V 62 c 0,-6.648 -5.352,-12 -12,-12 H 54 37 Z" />
  <path
     id="rect1106"
     style="opacity:1;fill:#485dd4;stroke-width:3.99586;stroke-linecap:round;stroke-linejoin:round;fill-opacity:1"
     d="M 6 47 L 25 66 L 25 148 C 25 154.648 30.352 160 37 160 L 137 160 C 143.648 160 149 154.648 149 148 L 149 59 C 149 52.352 143.648 47 137 47 L 54 47 L 37 47 L 6 47 z " />
  <path
     id="path18735"
     style="opacity:0.2;fill:#000000;stroke-width:4;stroke-linecap:round;stroke-linejoin:round;filter:url(#filter18773)"
     d="M 71.589844,68 67.59375,86 H 55.873047 l -2.220703,10 h 11.720703 l -3.996094,18 H 49.65625 L 47.4375,124 H 59.158203 L 55,143 h 10 l 4.158203,-19 h 22.505859 l -4.158203,19 h 10 l 4.158201,-19 h 11.88477 l 2.21875,-10 h -11.88477 l 3.9961,-18 h 11.88476 l 2.22071,-10 h -11.88672 l 3.99609,-18 h -10 l -3.99609,18 H 77.59375 l 3.996094,-18 z m 3.783203,28 h 22.505859 l -3.996094,18 H 71.376953 Z"
     sodipodi:nodetypes="cccccccccccccccccccccccccccccccccc" />
  <path
     id="rect1848"
     style="opacity:1;fill:#ffffff;stroke-width:4;stroke-linecap:round;stroke-linejoin:round"
     d="M 71.589844,66 67.59375,84 H 55.873047 l -2.220703,10 h 11.720703 l -3.996094,18 H 49.65625 L 47.4375,122 H 59.158203 L 55,141 h 10 l 4.158203,-19 h 22.505859 l -4.158203,19 h 10 l 4.158201,-19 h 11.88477 l 2.21875,-10 h -11.88477 l 3.9961,-18 h 11.88476 l 2.22071,-10 h -11.88672 l 3.99609,-18 h -10 l -3.99609,18 H 77.59375 l 3.996094,-18 z m 3.783203,28 h 22.505859 l -3.996094,18 H 71.376953 Z"
     sodipodi:nodetypes="cccccccccccccccccccccccccccccccccc" />
  <path
     id="path18777"
     style="opacity:0.2;fill:#ffffff;stroke-width:3.99586;stroke-linecap:round;stroke-linejoin:round;fill-opacity:1"
     d="M 54 31 C 47.352 31 42 36.352 42 43 L 42 44 C 42 37.352 47.352 32 54 32 L 137 32 L 154 32 L 184 32 L 185 31 L 154 31 L 137 31 L 54 31 z " />
</svg>
