<?xml version="1.0" encoding="UTF-8" standalone="no"?>
<svg
   width="192"
   height="192"
   version="1"
   id="svg28"
   sodipodi:docname="apps_simple_crypto_widget.svg"
   inkscape:version="1.1.1 (1:1.1+202109281949+c3084ef5ed)"
   xmlns:inkscape="http://www.inkscape.org/namespaces/inkscape"
   xmlns:sodipodi="http://sodipodi.sourceforge.net/DTD/sodipodi-0.dtd"
   xmlns="http://www.w3.org/2000/svg"
   xmlns:svg="http://www.w3.org/2000/svg"
   xmlns:rdf="http://www.w3.org/1999/02/22-rdf-syntax-ns#"
   xmlns:cc="http://creativecommons.org/ns#"
   xmlns:dc="http://purl.org/dc/elements/1.1/">
  <metadata
     id="metadata34">
    <rdf:RDF>
      <cc:Work
         rdf:about="">
        <dc:format>image/svg+xml</dc:format>
        <dc:type
           rdf:resource="http://purl.org/dc/dcmitype/StillImage" />
      </cc:Work>
    </rdf:RDF>
  </metadata>
  <defs
     id="defs32">
    <filter
       inkscape:collect="always"
       style="color-interpolation-filters:sRGB"
       id="filter2807"
       x="-0.075000015"
       y="-0.07500001"
       width="1.15"
       height="1.15">
      <feGaussianBlur
         inkscape:collect="always"
         stdDeviation="2.7500002"
         id="feGaussianBlur2809" />
    </filter>
    <filter
       inkscape:collect="always"
       style="color-interpolation-filters:sRGB"
       id="filter2811"
       x="-0.075"
       y="-0.075"
       width="1.15"
       height="1.15">
      <feGaussianBlur
         inkscape:collect="always"
         stdDeviation="2.75"
         id="feGaussianBlur2813" />
    </filter>
    <filter
       inkscape:collect="always"
       style="color-interpolation-filters:sRGB"
       id="filter2815"
       x="-0.075"
       y="-0.075000003"
       width="1.15"
       height="1.15">
      <feGaussianBlur
         inkscape:collect="always"
         stdDeviation="2.7500001"
         id="feGaussianBlur2817" />
    </filter>
    <filter
       inkscape:collect="always"
       style="color-interpolation-filters:sRGB"
       id="filter2924"
       x="-0.097498668"
       y="-0.060938019"
       width="1.1949973"
       height="1.121876">
      <feGaussianBlur
         inkscape:collect="always"
         stdDeviation="1.7874756"
         id="feGaussianBlur2926" />
    </filter>
    <filter
       inkscape:collect="always"
       style="color-interpolation-filters:sRGB"
       id="filter2966"
       x="-0.13022716"
       y="-0.092254081"
       width="1.2604543"
       height="1.1845082">
      <feGaussianBlur
         inkscape:collect="always"
         stdDeviation="1.9988384"
         id="feGaussianBlur2968" />
    </filter>
    <filter
       inkscape:collect="always"
       style="color-interpolation-filters:sRGB"
       id="filter3009"
       x="-0.075000017"
       y="-0.075000017"
       width="1.15"
       height="1.15">
      <feGaussianBlur
         inkscape:collect="always"
         stdDeviation="2.0625005"
         id="feGaussianBlur3011" />
    </filter>
  </defs>
  <sodipodi:namedview
     pagecolor="#ffffff"
     bordercolor="#666666"
     borderopacity="1"
     objecttolerance="10"
     gridtolerance="10"
     guidetolerance="10"
     inkscape:pageopacity="0"
     inkscape:pageshadow="2"
     inkscape:window-width="1920"
     inkscape:window-height="1019"
     id="namedview30"
     showgrid="false"
     inkscape:zoom="1"
     inkscape:cx="80.5"
     inkscape:cy="56"
     inkscape:window-x="0"
     inkscape:window-y="34"
     inkscape:window-maximized="1"
     inkscape:current-layer="svg28"
     inkscape:pagecheckerboard="0"
     inkscape:snap-global="true"
     showguides="true"
     inkscape:snap-bbox="true"
     inkscape:snap-bbox-midpoints="true">
    <inkscape:grid
       type="xygrid"
       id="grid841" />
  </sodipodi:namedview>
  <path
     style="opacity:0.2;fill:#000000;stroke-width:2.2;filter:url(#filter2807)"
     d="M 94,91.000004 A 44,44 0 0 0 50,135 44,44 0 0 0 94,179 44,44 0 0 0 137.99999,135 44,44 0 0 0 94,91.000004 Z"
     id="path2765" />
  <path
     style="fill:#4f4f4f;stroke-width:2.2"
     d="M 94,88.000004 A 44,44 0 0 0 50,132 44,44 0 0 0 94,176 44,44 0 0 0 137.99999,132 44,44 0 0 0 94,88.000004 Z"
     id="path887" />
  <path
     id="path2971"
     style="opacity:0.2;fill:#000000;stroke-width:2.2;filter:url(#filter3009)"
     d="m 94,101 a 33.000004,33.000004 0 0 0 -33,33 33.000004,33.000004 0 0 0 33,33 33.000004,33.000004 0 0 0 33,-33 33.000004,33.000004 0 0 0 -33,-33 z m -7.761719,7 h 18.855469 l -4.40625,15.41211 5.66406,-1.98438 -2.92383,11.62891 -6.101558,2.13672 L 94.615234,145 H 116 l -2.92383,11 H 90.857422 72 L 76.414062,142.51367 72,144.05664 l 2.923828,-11.62891 4.845703,-1.69726 z" />
  <path
     id="path893"
     style="fill:#ffffff;stroke-width:2.2"
     d="M 94 99 A 33.000004 33.000004 0 0 0 61 132 A 33.000004 33.000004 0 0 0 94 165 A 33.000004 33.000004 0 0 0 127 132 A 33.000004 33.000004 0 0 0 94 99 z M 86.238281 106 L 105.09375 106 L 100.6875 121.41211 L 106.35156 119.42773 L 103.42773 131.05664 L 97.326172 133.19336 L 94.615234 143 L 116 143 L 113.07617 154 L 90.857422 154 L 72 154 L 76.414062 140.51367 L 72 142.05664 L 74.923828 130.42773 L 79.769531 128.73047 L 86.238281 106 z " />
  <path
     style="opacity:0.2;fill:#000000;stroke-width:2.2;filter:url(#filter2815)"
     d="m 130,29.000004 a 44,44 0 0 0 -44,44 A 44,44 0 0 0 130,117 a 44,44 0 0 0 44,-43.999996 44,44 0 0 0 -44,-44 z"
     id="path2767" />
  <path
     style="fill:#4c6a8f;stroke-width:2.2"
     d="m 130,26.000004 a 44,44 0 0 0 -44,44 A 44,44 0 0 0 130,114 a 44,44 0 0 0 44,-43.999996 44,44 0 0 0 -44,-44 z"
     id="path856" />
  <path
     id="path2883"
     style="opacity:0.2;fill:#000000;stroke-width:2.2;filter:url(#filter2924)"
     d="M 130,36.800561 119,54.400171 108,71.99978 130,85.198999 152,71.99978 141,54.400171 Z m -22,39.59961 11,15.40039 11,15.398439 11,-15.398439 11,-15.40039 -22,13.199218 z" />
  <path
     style="fill:#ffffff;stroke-width:2.2"
     d="m 130,34.800004 11,17.6 11,17.6 -22,13.2 -22,-13.2 11,-17.6 z"
     id="path864" />
  <path
     style="fill:#ffffff;stroke-width:2.2"
     d="m 130,105.2 11,-15.399996 11,-15.4 -22,13.2 -22,-13.2 11,15.4 z"
     id="path868" />
  <circle
     style="opacity:0.2;fill:#000000;stroke-width:2.2;filter:url(#filter2811)"
     cx="60.999996"
     cy="64"
     r="44"
     id="circle2769" />
  <path
     id="path2819"
     style="fill:#ffffff;stroke-width:2.2;opacity:0.1"
     d="M 130 26 A 44 44 0 0 0 86 70 A 44 44 0 0 0 86.035156 70.5 A 44 44 0 0 1 130 27 A 44 44 0 0 1 173.98242 70.255859 A 44 44 0 0 0 174 70 A 44 44 0 0 0 130 26 z " />
  <circle
     style="fill:#f7931a;stroke-width:2.2"
     cx="60.999996"
     cy="61.000004"
     r="44"
     id="circle833" />
  <path
     style="opacity:0.2;fill:#000000;stroke-width:2.16667;filter:url(#filter2966)"
     d="m 52,37 v 8.999999 c -1.065336,0.04333 -3.188717,0.05002 -4.208006,0 H 41 V 50 c 0,0 3.724145,-0.06498 3.664714,0 C 46.658605,49.96967 47.79356,51.417188 48,52.382486 v 21.450846 c -0.07641,0.610027 -0.51148,2.123333 -1.904949,2.166667 0.06435,0.05633 -5.095051,0 -5.095051,0 v 4 h 7.05013 c 1.192108,-0.04333 2.798248,0 3.94987,0 v 8.999999 l 4,-0.0804 v -8.919597 h 3.932292 L 60.067709,89 h 3.999999 L 63.932291,80.133 C 73,80 77.837264,76 77.837264,70.579102 c 0,-3.245768 -3.131545,-7.579101 -6.499999,-7.579101 C 72.554518,63.000001 75,58.666668 75,54.333335 75,50.601497 73.30925,47.170104 69.14922,46.206 68.478711,46.050607 64.763657,46.000002 64.00205,46.000002 l -0.0041,-8.999999 H 60 v 8.999999 c -1.293985,0 -2.68421,-0.04767 -3.99795,0 l -0.0041,-8.999999 z m 3.997965,13 c 4.333333,0 11.002786,8.2e-5 11.002034,5.416666 C 67.000751,60.833686 60.331298,61 55.997965,61 Z m 0,15 c 8.666666,2.7e-4 13.002937,0.166748 13.002035,5.583332 9.02e-4,5.41702 -4.335369,5.416667 -13.002035,5.416667 z"
     id="path2928"
     sodipodi:nodetypes="ccscccccccccccccccccscssccccccccccccccc" />
  <path
     style="fill:#ffffff;stroke-width:2.16667"
     d="m 52,35 v 8.999999 c -1.065336,0.04333 -3.188717,0.05002 -4.208006,0 H 41 V 48 c 0,0 3.724145,-0.06498 3.664714,0 C 46.658605,47.96967 47.79356,49.417188 48,50.382486 v 21.450846 c -0.07641,0.610027 -0.51148,2.123333 -1.904949,2.166667 0.06435,0.05633 -5.095051,0 -5.095051,0 v 4 h 7.05013 c 1.192108,-0.04333 2.798248,0 3.94987,0 v 8.999999 l 4,-0.0804 v -8.919597 h 3.932292 L 60.067709,87 h 3.999999 L 63.932291,78.133 C 73,78 77.837264,74 77.837264,68.579102 c 0,-3.245768 -3.131545,-7.579101 -6.499999,-7.579101 C 72.554518,61.000001 75,56.666668 75,52.333335 75,48.601497 73.30925,45.170104 69.14922,44.206 68.478711,44.050607 64.763657,44.000002 64.00205,44.000002 l -0.0041,-8.999999 H 60 v 8.999999 c -1.293985,0 -2.68421,-0.04767 -3.99795,0 l -0.0041,-8.999999 z m 3.997965,13 c 4.333333,0 11.002786,8.2e-5 11.002034,5.416666 C 67.000751,58.833686 60.331298,59 55.997965,59 Z m 0,15 c 8.666666,2.7e-4 13.002937,0.166748 13.002035,5.583332 9.02e-4,5.41702 -4.335369,5.416667 -13.002035,5.416667 z"
     id="path841"
     sodipodi:nodetypes="ccscccccccccccccccccscssccccccccccccccc" />
  <path
     id="circle2821"
     style="fill:#ffffff;stroke-width:2.2;opacity:0.2"
     d="M 61 17 A 44 44 0 0 0 17 61 A 44 44 0 0 0 17.035156 61.5 A 44 44 0 0 1 61 18 A 44 44 0 0 1 104.98242 61.255859 A 44 44 0 0 0 105 61 A 44 44 0 0 0 61 17 z " />
</svg>
