<?xml version="1.0" encoding="UTF-8" standalone="no"?>
<svg
   width="192"
   height="192"
   version="1"
   id="svg12"
   sodipodi:docname="apps_galaxy_store.svg"
   inkscape:version="1.1.1 (1:1.1+202109281949+c3084ef5ed)"
   xmlns:inkscape="http://www.inkscape.org/namespaces/inkscape"
   xmlns:sodipodi="http://sodipodi.sourceforge.net/DTD/sodipodi-0.dtd"
   xmlns="http://www.w3.org/2000/svg"
   xmlns:svg="http://www.w3.org/2000/svg"
   xmlns:rdf="http://www.w3.org/1999/02/22-rdf-syntax-ns#"
   xmlns:cc="http://creativecommons.org/ns#"
   xmlns:dc="http://purl.org/dc/elements/1.1/">
  <metadata
     id="metadata18">
    <rdf:RDF>
      <cc:Work
         rdf:about="">
        <dc:format>image/svg+xml</dc:format>
        <dc:type
           rdf:resource="http://purl.org/dc/dcmitype/StillImage" />
      </cc:Work>
    </rdf:RDF>
  </metadata>
  <defs
     id="defs16">
    <filter
       inkscape:collect="always"
       style="color-interpolation-filters:sRGB"
       id="filter18978"
       x="-0.048349281"
       y="-0.1671169"
       width="1.0966986"
       height="1.3342338">
      <feGaussianBlur
         inkscape:collect="always"
         stdDeviation="3.2031416"
         id="feGaussianBlur18980" />
    </filter>
    <filter
       inkscape:collect="always"
       style="color-interpolation-filters:sRGB"
       id="filter19020"
       x="-0.042631579"
       y="-0.054915253"
       width="1.0852632"
       height="1.1098305">
      <feGaussianBlur
         inkscape:collect="always"
         stdDeviation="2.7"
         id="feGaussianBlur19022" />
    </filter>
    <filter
       inkscape:collect="always"
       style="color-interpolation-filters:sRGB"
       id="filter19062"
       x="-0.075"
       y="-0.075"
       width="1.15"
       height="1.15">
      <feGaussianBlur
         inkscape:collect="always"
         stdDeviation="2.5625"
         id="feGaussianBlur19064" />
    </filter>
  </defs>
  <sodipodi:namedview
     pagecolor="#9c9c9c"
     bordercolor="#666666"
     borderopacity="1"
     objecttolerance="10"
     gridtolerance="10"
     guidetolerance="10"
     inkscape:pageopacity="0"
     inkscape:pageshadow="2"
     inkscape:window-width="1920"
     inkscape:window-height="1016"
     id="namedview14"
     showgrid="false"
     inkscape:zoom="2.86"
     inkscape:cx="141.43357"
     inkscape:cy="83.041958"
     inkscape:window-x="0"
     inkscape:window-y="32"
     inkscape:window-maximized="1"
     inkscape:current-layer="svg12"
     showguides="false"
     inkscape:document-rotation="0"
     inkscape:pagecheckerboard="0"
     inkscape:snap-bbox="true"
     inkscape:snap-bbox-midpoints="true"
     inkscape:snap-global="true">
    <inkscape:grid
       type="xygrid"
       id="grid852" />
  </sodipodi:namedview>
  <path
     id="path19024"
     style="opacity:0.2;fill:#000000;fill-opacity:1;stroke:none;stroke-width:18.4569;stroke-linecap:round;stroke-linejoin:round;filter:url(#filter19062)"
     d="M 96,18 A 41,41 0 0 0 55,59 41,41 0 0 0 96,100 41,41 0 0 0 137,59 41,41 0 0 0 96,18 Z m 0,18 A 23,23 0 0 1 119,59 23,23 0 0 1 96,82 23,23 0 0 1 73,59 23,23 0 0 1 96,36 Z" />
  <path
     id="path1876"
     style="opacity:1;fill:#e91e63;fill-opacity:1;stroke:none;stroke-width:18.4569;stroke-linecap:round;stroke-linejoin:round"
     d="M 96 16 A 41 41 0 0 0 55 57 A 41 41 0 0 0 96 98 A 41 41 0 0 0 137 57 A 41 41 0 0 0 96 16 z M 96 34 A 23 23 0 0 1 119 57 A 23 23 0 0 1 96 80 A 23 23 0 0 1 73 57 A 23 23 0 0 1 96 34 z " />
  <path
     id="path18982"
     style="opacity:0.2;fill:#000000;fill-opacity:1;stroke-width:0.484023;filter:url(#filter19020)"
     d="m 23.682338,60.999999 c -3.579996,0 -3.976112,1.5316 -3.538623,5.533208 0.746482,6.830092 2.50885,23.17048 4.46063,41.628943 4.886037,46.20843 5.008242,46.97577 8.305935,52.89262 5.18035,9.29475 14.850885,16.03453 25.15961,17.53516 2.010946,0.29273 19.073233,0.42782 37.930108,0.40821 18.856872,0.0196 35.919162,-0.11548 37.930102,-0.40821 10.30873,-1.50063 19.97927,-8.24041 25.15962,-17.53516 3.29769,-5.91685 3.41989,-6.68419 8.30593,-52.89262 1.95178,-18.458463 3.71415,-34.798851 4.46063,-41.628943 0.43749,-4.001608 0.0414,-5.533208 -3.53862,-5.533208 H 155.07927 95.999998 36.92072 Z" />
  <path
     id="path19066"
     style="opacity:0.2;fill:#ffffff;fill-opacity:1;stroke:none;stroke-width:18.4569;stroke-linecap:round;stroke-linejoin:round"
     d="M 96 16 A 41 41 0 0 0 55 57 A 41 41 0 0 0 55.035156 57.5 A 41 41 0 0 1 96 17 A 41 41 0 0 1 136.98242 57.253906 A 41 41 0 0 0 137 57 A 41 41 0 0 0 96 16 z M 118.97656 57.248047 A 23 23 0 0 1 96 80 A 23 23 0 0 1 73.048828 57.5 A 23 23 0 0 0 73 58 A 23 23 0 0 0 96 81 A 23 23 0 0 0 119 58 A 23 23 0 0 0 118.97656 57.248047 z " />
  <path
     id="path1365"
     style="fill:#3f51b5;stroke-width:0.484023;fill-opacity:1"
     d="m 23.682338,57.999916 c -3.579996,0 -3.976112,1.5316 -3.538623,5.533208 0.746482,6.830092 2.50885,23.17048 4.46063,41.628936 4.886037,46.20843 5.008242,46.97577 8.305935,52.89262 5.18035,9.29475 14.850885,16.03453 25.15961,17.53516 2.010946,0.29273 19.073233,0.42782 37.930108,0.40821 18.856872,0.0196 35.919162,-0.11548 37.930102,-0.40821 10.30873,-1.50063 19.97927,-8.24041 25.15962,-17.53516 3.29769,-5.91685 3.41989,-6.68419 8.30593,-52.89262 1.95178,-18.458456 3.71415,-34.798844 4.46063,-41.628936 0.43749,-4.001608 0.0414,-5.533208 -3.53862,-5.533208 H 155.07927 95.999998 36.92072 Z" />
  <path
     id="path18940"
     style="opacity:0.2;fill:#000000;stroke:none;stroke-width:0.0235291;filter:url(#filter18978)"
     d="m 32.882812,95.999856 c -1.279039,-0.01257 -2.57277,0.117247 -3.859374,0.396484 -3.372397,0.732813 -6.019387,2.174743 -8.361329,4.58594 -3.044525,3.14402 -4.449363,6.54756 -4.636718,11.27539 -0.140517,3.61679 0.280435,5.65017 1.755859,8.65235 0.866519,1.70201 1.475766,2.55349 2.974609,4.0664 2.084329,2.12752 3.677772,3.14293 6.253907,4.01758 8.665186,2.97854 17.447806,-0.85055 20.679687,-8.98242 C 48.438875,118.12045 49,114.97665 49,112.66002 v -1.66016 H 40.451172 32 v 2.86523 3.13477 h 5.056641 c 3.957882,0 5.152343,-0.10925 5.152343,0.10352 0,0.63825 -1.172508,2.86518 -1.992187,3.7871 -2.88059,3.23857 -7.938837,4.06619 -12.201172,2.03321 C 24.409035,121.19803 22,117.24669 22,113.03892 c 0,-4.34961 2.45611,-8.33173 6.320312,-10.19922 1.522263,-0.73281 1.732529,-0.75781 4.402344,-0.75781 2.388779,0 3.022353,0.0958 4.146485,0.54492 1.522262,0.61461 3.676522,2.68046 4.636718,4.19336 l 0.632813,0.99414 2.716797,-1.65429 2.740234,-1.65625 -0.75,-1.11133 C 43.687009,98.763592 38.425319,96.054325 32.882812,95.999856 Z m 50.117188,0 v 17.000004 17 h 3 3 v -17 -17.000004 h -3 z m -19.173828,7.001954 c -0.177775,-0.003 -0.355224,-0.003 -0.533203,0.002 -0.406811,0.011 -0.814893,0.0447 -1.21875,0.0996 -4.834825,0.64758 -8.867497,4.04698 -10.333985,8.71875 -2.153903,6.91513 0.503857,13.8531 6.484375,16.88281 4.193236,2.10461 9.051201,1.61945 12.488282,-1.27149 l 1.21875,-0.90234 0.06836,1.43359 0.06836,2.03516 h 2.837891 2.978516 L 77.955078,116.51744 78,103.99986 h -3.09375 -2.951172 v 1.04492 1.41211 l -1.058594,-0.81055 c -1.785669,-1.63156 -4.403692,-2.5939 -7.070312,-2.64453 z m 41.001948,0 c -0.17777,-0.003 -0.35717,-0.003 -0.53515,0.002 -0.40682,0.011 -0.8149,0.0447 -1.21875,0.0996 -4.834831,0.64758 -8.867498,4.04698 -10.333986,8.71875 -2.153903,6.91513 0.503857,13.8531 6.484375,16.88281 4.193231,2.10461 9.051201,1.61945 12.488281,-1.27149 l 1.21875,-0.90234 0.0684,1.43359 0.0684,2.03516 h 2.83789 2.97852 l 0.0703,-13.48242 L 119,103.99986 h -3.09375 -2.95117 v 1.04492 1.41211 l -1.0586,-0.81055 c -1.78566,-1.63156 -4.40174,-2.5939 -7.06836,-2.64453 z m 41.50586,0.99805 -3.50781,0.0703 -3.48633,0.0684 -2.59765,3.82813 c -1.42101,2.11062 -2.70857,3.82617 -2.8418,3.82617 -0.13321,0 -1.42202,-1.71555 -2.86523,-3.82617 l -2.61914,-3.82813 -3.59766,-0.0684 -3.5957,-0.0469 1.93164,2.71289 c 1.06575,1.50758 3.06285,4.33689 4.43945,6.28515 1.3766,1.94826 2.50977,3.59644 2.50977,3.66602 0,0.0927 -2.04377,3.03733 -4.55274,6.58594 -2.50898,3.54863 -4.55078,6.51831 -4.55078,6.58789 0,0.0927 1.57685,0.11507 3.48633,0.0918 l 3.48633,-0.0684 2.86328,-4.17579 c 1.57644,-2.29616 2.908,-4.17382 2.97461,-4.17382 0.0666,0 1.46633,1.90133 3.10937,4.2207 l 2.97461,4.24414 H 143.44727 147 l -4.77344,-6.60938 -4.79687,-6.61132 2.0664,-2.94532 c 1.15458,-1.64674 3.15291,-4.49851 4.46289,-6.40039 z m 2.66602,0 0.20312,0.5332 c 0.11305,0.30085 2.41895,5.73937 5.10938,12.10352 2.69043,6.36414 4.90625,11.73283 4.90625,11.91797 0.0226,0.18514 -1.10803,3.14719 -2.50977,6.57226 -1.37913,3.42506 -2.50976,6.36369 -2.50976,6.54883 0,0.41656 5.49403,0.43994 5.81055,0.0234 C 160.23586,141.39819 175,104.39308 175,104.13853 c 0,-0.0694 -1.37856,-0.0916 -3.07422,-0.0684 l -3.09766,0.0684 -3.1875,8.37695 c -1.76347,4.60533 -3.25638,8.42473 -3.32421,8.49415 -0.0678,0.0695 -1.65082,-3.70221 -3.52735,-8.37696 l -3.43554,-8.49414 -3.16602,-0.0684 z m -84.589844,5 c 1.078925,-0.004 2.18237,0.21473 3.240235,0.68164 3.240156,1.41983 5.006725,5.08937 4.123047,8.5625 -0.702412,2.77414 -2.765362,4.87131 -5.484376,5.57031 -1.518113,0.41503 -3.760785,0.10899 -5.324218,-0.69922 -1.631406,-0.83006 -2.559297,-1.81254 -3.375,-3.47265 C 57.091358,118.63763 57,118.13653 57,116.47642 c 0,-1.79118 0.06829,-2.11909 0.748047,-3.42968 1.302859,-2.55913 3.904856,-4.03558 6.662109,-4.04688 z m 41.000004,0 c 1.07893,-0.004 2.18236,0.21473 3.24023,0.68164 3.24015,1.41983 5.00673,5.08937 4.12305,8.5625 -0.70241,2.77414 -2.76537,4.87131 -5.48438,5.57031 -1.51812,0.41503 -3.76079,0.10899 -5.32422,-0.69922 -1.63141,-0.83006 -2.559293,-1.81254 -3.374996,-3.47265 C 98.091358,118.63763 98,118.13653 98,116.47642 c 0,-1.79118 0.06829,-2.11908 0.748047,-3.42968 1.302853,-2.55913 3.904863,-4.03558 6.662113,-4.04688 z" />
  <path
     id="path4"
     style="opacity:1;fill:#ffffff;stroke:none;stroke-width:0.0235291"
     d="M 32.882812 94 C 31.603773 93.98743 30.310042 94.117247 29.023438 94.396484 C 25.651041 95.129297 23.004051 96.571227 20.662109 98.982422 C 17.617584 102.12644 16.212746 105.52998 16.025391 110.25781 C 15.884874 113.8746 16.305826 115.90798 17.78125 118.91016 C 18.647769 120.61217 19.257016 121.46365 20.755859 122.97656 C 22.840188 125.10408 24.433631 126.11949 27.009766 126.99414 C 35.674952 129.97268 44.457572 126.14359 47.689453 118.01172 C 48.438875 116.12059 49 112.97679 49 110.66016 L 49 109 L 40.451172 109 L 32 109 L 32 111.86523 L 32 115 L 37.056641 115 C 41.014523 115 42.208984 114.89075 42.208984 115.10352 C 42.208984 115.74177 41.036476 117.9687 40.216797 118.89062 C 37.336207 122.12919 32.27796 122.95681 28.015625 120.92383 C 24.409035 119.19817 22 115.24683 22 111.03906 C 22 106.68945 24.45611 102.70733 28.320312 100.83984 C 29.842575 100.10703 30.052841 100.08203 32.722656 100.08203 C 35.111435 100.08203 35.745009 100.17784 36.869141 100.62695 C 38.391403 101.24156 40.545663 103.30741 41.505859 104.82031 L 42.138672 105.81445 L 44.855469 104.16016 L 47.595703 102.50391 L 46.845703 101.39258 C 43.687009 96.763736 38.425319 94.054469 32.882812 94 z M 83 94 L 83 111 L 83 128 L 86 128 L 89 128 L 89 111 L 89 94 L 86 94 L 83 94 z M 63.826172 101.00195 C 63.648397 100.99858 63.470948 100.9991 63.292969 101.00391 C 62.886158 101.01488 62.478076 101.04859 62.074219 101.10352 C 57.239394 101.7511 53.206722 105.1505 51.740234 109.82227 C 49.586331 116.7374 52.244091 123.67537 58.224609 126.70508 C 62.417845 128.80969 67.27581 128.32453 70.712891 125.43359 L 71.931641 124.53125 L 72 125.96484 L 72.068359 128 L 74.90625 128 L 77.884766 128 L 77.955078 114.51758 L 78 102 L 74.90625 102 L 71.955078 102 L 71.955078 103.04492 L 71.955078 104.45703 L 70.896484 103.64648 C 69.110815 102.01492 66.492792 101.05258 63.826172 101.00195 z M 104.82812 101.00195 C 104.65035 100.99858 104.47095 100.9991 104.29297 101.00391 C 103.88615 101.01491 103.47807 101.04862 103.07422 101.10352 C 98.239389 101.7511 94.206722 105.1505 92.740234 109.82227 C 90.586331 116.7374 93.244091 123.67537 99.224609 126.70508 C 103.41784 128.80969 108.27581 128.32453 111.71289 125.43359 L 112.93164 124.53125 L 113 125.96484 L 113.06836 128 L 115.90625 128 L 118.88477 128 L 118.95508 114.51758 L 119 102 L 115.90625 102 L 112.95508 102 L 112.95508 103.04492 L 112.95508 104.45703 L 111.89648 103.64648 C 110.11082 102.01492 107.49474 101.05258 104.82812 101.00195 z M 146.33398 102 L 142.82617 102.07031 L 139.33984 102.13867 L 136.74219 105.9668 C 135.32118 108.07742 134.03362 109.79297 133.90039 109.79297 C 133.76718 109.79297 132.47837 108.07742 131.03516 105.9668 L 128.41602 102.13867 L 124.81836 102.07031 L 121.22266 102.02344 L 123.1543 104.73633 C 124.22005 106.24391 126.21715 109.07322 127.59375 111.02148 C 128.97035 112.96974 130.10352 114.61792 130.10352 114.6875 C 130.10352 114.7802 128.05975 117.72483 125.55078 121.27344 C 123.0418 124.82207 121 127.79175 121 127.86133 C 121 127.95403 122.57685 127.9764 124.48633 127.95312 L 127.97266 127.88477 L 130.83594 123.70898 C 132.41238 121.41282 133.74394 119.53516 133.81055 119.53516 C 133.87715 119.53516 135.27688 121.43649 136.91992 123.75586 L 139.89453 128 L 143.44727 128 L 147 128 L 142.22656 121.39062 L 137.42969 114.7793 L 139.49609 111.83398 C 140.65067 110.18724 142.649 107.33547 143.95898 105.43359 L 146.33398 102 z M 149 102 L 149.20312 102.5332 C 149.31617 102.83405 151.62207 108.27257 154.3125 114.63672 C 157.00293 121.00086 159.21875 126.36955 159.21875 126.55469 C 159.24135 126.73983 158.11072 129.70188 156.70898 133.12695 C 155.32985 136.55201 154.19922 139.49064 154.19922 139.67578 C 154.19922 140.09234 159.69325 140.11572 160.00977 139.69922 C 160.23586 139.39833 175 102.39322 175 102.13867 C 175 102.06927 173.62144 102.04711 171.92578 102.07031 L 168.82812 102.13867 L 165.64062 110.51562 C 163.87715 115.12095 162.38424 118.94035 162.31641 119.00977 C 162.24861 119.07927 160.66559 115.30756 158.78906 110.63281 L 155.35352 102.13867 L 152.1875 102.07031 L 149 102 z M 64.410156 107 C 65.489081 106.99558 66.592526 107.21473 67.650391 107.68164 C 70.890547 109.10147 72.657116 112.77101 71.773438 116.24414 C 71.071026 119.01828 69.008076 121.11545 66.289062 121.81445 C 64.770949 122.22948 62.528277 121.92344 60.964844 121.11523 C 59.333438 120.28517 58.405547 119.30269 57.589844 117.64258 C 57.091358 116.63777 57 116.13667 57 114.47656 C 57 112.68538 57.068288 112.35747 57.748047 111.04688 C 59.050906 108.48775 61.652903 107.0113 64.410156 107 z M 105.41016 107 C 106.48909 106.996 107.59252 107.21473 108.65039 107.68164 C 111.89054 109.10147 113.65712 112.77101 112.77344 116.24414 C 112.07103 119.01828 110.00807 121.11545 107.28906 121.81445 C 105.77094 122.22948 103.52827 121.92344 101.96484 121.11523 C 100.33343 120.28517 99.405547 119.30269 98.589844 117.64258 C 98.091358 116.63777 98 116.13667 98 114.47656 C 98 112.68538 98.06829 112.35748 98.748047 111.04688 C 100.0509 108.48775 102.65291 107.0113 105.41016 107 z " />
  <path
     id="path19068"
     style="fill:#ffffff;stroke-width:0.484023;fill-opacity:1;opacity:0.1"
     d="M 23.681641 58 C 20.650339 58 19.912207 59.116949 20.019531 61.882812 C 20.139572 59.841795 21.042282 59 23.681641 59 L 36.919922 59 L 96 59 L 155.08008 59 L 168.31836 59 C 170.95774 59 171.86043 59.841795 171.98047 61.882812 C 172.0878 59.116949 171.34968 58 168.31836 58 L 155.08008 58 L 96 58 L 36.919922 58 L 23.681641 58 z " />
</svg>
