<?xml version="1.0" encoding="UTF-8" standalone="no"?>
<svg
   width="192"
   height="192"
   version="1"
   id="svg18"
   sodipodi:docname="apps_slack.svg"
   inkscape:version="1.1-rc (1:1.1+rc+202105232036+f4db50c7c1)"
   xmlns:inkscape="http://www.inkscape.org/namespaces/inkscape"
   xmlns:sodipodi="http://sodipodi.sourceforge.net/DTD/sodipodi-0.dtd"
   xmlns="http://www.w3.org/2000/svg"
   xmlns:svg="http://www.w3.org/2000/svg">
  <defs
     id="defs22">
    <filter
       inkscape:collect="always"
       style="color-interpolation-filters:sRGB"
       id="filter959"
       x="-0.048000001"
       y="-0.048000001"
       width="1.096"
       height="1.096">
      <feGaussianBlur
         inkscape:collect="always"
         stdDeviation="3.2"
         id="feGaussianBlur961" />
    </filter>
    <filter
       inkscape:collect="always"
       style="color-interpolation-filters:sRGB"
       id="filter963"
       x="-0.048000002"
       y="-0.048"
       width="1.096"
       height="1.096">
      <feGaussianBlur
         inkscape:collect="always"
         stdDeviation="2.4"
         id="feGaussianBlur965" />
    </filter>
  </defs>
  <sodipodi:namedview
     id="namedview20"
     pagecolor="#ffffff"
     bordercolor="#666666"
     borderopacity="1.0"
     inkscape:pageshadow="2"
     inkscape:pageopacity="0.0"
     inkscape:pagecheckerboard="0"
     showgrid="false"
     width="192px"
     inkscape:zoom="1"
     inkscape:cx="76.5"
     inkscape:cy="141.5"
     inkscape:window-width="1920"
     inkscape:window-height="1014"
     inkscape:window-x="0"
     inkscape:window-y="34"
     inkscape:window-maximized="1"
     inkscape:current-layer="svg18" />
  <circle
     style="opacity:0.2;stroke-width:4;filter:url(#filter959)"
     cx="96"
     cy="100"
     r="80"
     id="circle2" />
  <circle
     style="fill:#e4e4e4;stroke-width:4"
     cx="96"
     cy="96"
     r="80"
     id="circle4" />
  <path
     id="path6"
     style="opacity:0.2;fill:#ffffff;stroke-width:4"
     d="M 96 16 A 80 80 0 0 0 16 96 A 80 80 0 0 0 16.023438 96.638672 A 80 80 0 0 1 96 17 A 80 80 0 0 1 175.98438 96.298828 A 80 80 0 0 0 176 96 A 80 80 0 0 0 96 16 z " />
  <path
     style="opacity:0.1;stroke-width:4;filter:url(#filter963)"
     d="m 92,82.000005 a 12,12 0 0 0 -12,-12 H 48 a 12,12 0 0 0 -12,12 12,12 0 0 0 12,12 h 32 a 12,12 0 0 0 12,-12 z m -12,-44 a 12,12 0 0 0 -12,12 12,12 0 0 0 12,12 h 12 v -12 a 12,12 0 0 0 -12,-12 z m 76,76.000005 a 12,12 0 0 0 -12,-12 h -32 a 12,12 0 0 0 -12,12 12,12 0 0 0 12,12 h 32 a 12,12 0 0 0 12,-12 z m -44,44 a 12,12 0 0 0 12,-12 12,12 0 0 0 -12,-12 h -12 v 12 a 12,12 0 0 0 12,12 z m -32,-56 a 12,12 0 0 0 -12,12 v 32 a 12,12 0 0 0 12,12 12,12 0 0 0 12,-12 v -32 a 12,12 0 0 0 -12,-12 z m -32,24 a 12,12 0 0 1 -12,-12 12,12 0 0 1 12,-12 h 12 v 12 a 12,12 0 0 1 -12,12 z m 64,-88.000005 a 12,12 0 0 0 -12,12 v 32 a 12,12 0 0 0 12,12 12,12 0 0 0 12,-12 v -32 a 12,12 0 0 0 -12,-12 z m 32,32 a 12,12 0 0 1 12,12 12,12 0 0 1 -12,12 h -12 v -12 a 12,12 0 0 1 12,-12 z"
     id="path8" />
  <path
     style="fill:#2eb67d;stroke-width:4"
     d="m 112,36 a 12,12 0 0 0 -12,12 v 32 a 12,12 0 0 0 12,12 12,12 0 0 0 12,-12 V 48 A 12,12 0 0 0 112,36 Z m 32,32 a 12,12 0 0 1 12,12 12,12 0 0 1 -12,12 H 132 V 80 a 12,12 0 0 1 12,-12 z"
     id="path10" />
  <path
     style="fill:#e01e5a;stroke-width:4"
     d="m 80,100 a 12,12 0 0 0 -12,12 v 32 a 12,12 0 0 0 12,12 12,12 0 0 0 12,-12 V 112 A 12,12 0 0 0 80,100 Z M 48,124 A 12,12 0 0 1 36,112 12,12 0 0 1 48,100 h 12 v 12 a 12,12 0 0 1 -12,12 z"
     id="path12" />
  <path
     style="fill:#ecb22e;stroke-width:4"
     d="m 156,112 a 12,12 0 0 0 -12,-12 h -32 a 12,12 0 0 0 -12,12 12,12 0 0 0 12,12 h 32 a 12,12 0 0 0 12,-12 z m -44,44 a 12,12 0 0 0 12,-12 12,12 0 0 0 -12,-12 h -12 v 12 a 12,12 0 0 0 12,12 z"
     id="path14" />
  <path
     style="fill:#36c5f0;stroke-width:4"
     d="M 92,80 A 12,12 0 0 0 80,68 H 48 A 12,12 0 0 0 36,80 12,12 0 0 0 48,92 H 80 A 12,12 0 0 0 92,80 Z M 80,36 A 12,12 0 0 0 68,48 12,12 0 0 0 80,60 H 92 V 48 A 12,12 0 0 0 80,36 Z"
     id="path16" />
</svg>
