<svg xmlns="http://www.w3.org/2000/svg" width="192" height="192" version="1.1">
 <g transform="scale(4)">
  <g transform="translate(0,-1004.3622)">
   <circle style="opacity:0.2" cx="24" cy="1028.862" r="20"/>
   <circle style="fill:#439a42" cx="24" cy="1028.362" r="20"/>
   <path style="opacity:0.2;fill-rule:evenodd" d="m 24,1013.8623 a 15,15 0 0 0 -15,15 15,15 0 0 0 15,15 15,15 0 0 0 15,-15 15,15 0 0 0 -15,-15 z m 0,4 a 11,11 0 0 1 10.580078,8 H 13.427734 a 11,11 0 0 1 10.572266,-8 z m 0,13 a 2,2 0 0 1 2,2 2,2 0 0 1 -1.232422,1.8438 l 0.482422,1.1562 1.25,3 H 24 21.5 l 1.25,-3 0.480469,-1.1543 A 2,2 0 0 1 22,1032.8623 a 2,2 0 0 1 2,-2 z"/>
   <path style="fill:#ffd838;fill-rule:evenodd" d="m 24,1013.3622 a 15,15 0 0 0 -15,15 15,15 0 0 0 15,15 15,15 0 0 0 15,-15 15,15 0 0 0 -15,-15 z m 0,4 a 11,11 0 0 1 10.580078,8 H 13.427734 a 11,11 0 0 1 10.572266,-8 z m 0,13 a 2,2 0 0 1 2,2 2,2 0 0 1 -1.232422,1.8438 l 0.482422,1.1562 1.25,3 H 24 21.5 l 1.25,-3 0.480469,-1.1543 A 2,2 0 0 1 22,1032.3622 a 2,2 0 0 1 2,-2 z"/>
   <path style="opacity:0.2;fill:#ffffff;fill-rule:evenodd" d="m 24,1008.3622 a 20,20 0 0 0 -20,20 20,20 0 0 0 0.00977,0.291 20,20 0 0 1 19.99023,-19.791 20,20 0 0 1 19.990234,19.709 20,20 0 0 0 0.0098,-0.209 20,20 0 0 0 -20,-20 z"/>
   <path style="opacity:0.2;fill:#ffffff;fill-rule:evenodd" d="m 24,1013.3622 a 15,15 0 0 0 -15,15 15,15 0 0 0 0.00977,0.207 15,15 0 0 1 14.99023,-14.707 15,15 0 0 1 14.990234,14.793 15,15 0 0 0 0.0098,-0.293 15,15 0 0 0 -15,-15 z m -10.404297,12 a 11,11 0 0 0 -0.167969,0.5 h 21.152344 a 11,11 0 0 0 -0.167969,-0.5 z m 8.421875,7.2461 A 2,2 0 0 0 22,1032.8622 a 2,2 0 0 0 1.056641,1.7617 l 0.173828,-0.416 a 2,2 0 0 1 -1.212891,-1.5996 z m 3.964844,0.01 a 2,2 0 0 1 -1.214844,1.5898 l 0.173828,0.4161 A 2,2 0 0 0 26,1032.8622 a 2,2 0 0 0 -0.01758,-0.2461 z m -4.273438,5.7461 -0.208984,0.5 h 2.5 2.5 l -0.208984,-0.5 H 24 Z"/>
  </g>
 </g>
</svg>
