<svg xmlns="http://www.w3.org/2000/svg" width="48" height="48" version="1.1">
 <g>
  <rect style="opacity:0.2" width="40" height="40" x="-45" y="-44" rx="20" ry="20" transform="matrix(0,-1,-1,0,0,0)"/>
  <rect style="fill:#31b6e7" width="40" height="40" x="-44" y="-44" rx="20" ry="20" transform="matrix(0,-1,-1,0,0,0)"/>
  <path style="fill:#ffffff;opacity:0.2" d="m24 4c-11.08 0-20 8.92-20 20 0 0.167874 0.007647 0.333141 0.0117188 0.5 0.2646716-10.846137 9.0761552-19.5 19.988281-19.5s19.72361 8.653863 19.988281 19.5c0.004072-0.166859 0.011719-0.332126 0.011719-0.5 0-11.08-8.92-20-20-20z"/>
  <rect style="fill:#3f3f3f" width="30" height="30" x="-39" y="-39" rx="15" ry="15" transform="matrix(0,-1,-1,0,0,0)"/>
  <path style="opacity:0.2" d="m15.582885 16.582886c-0.77718 0.77718-0.77718 2.028524 0 2.805705l5.61141 5.611409-5.61141 5.61141c-0.77718 0.777181-0.77718 2.028525 0 2.805705s2.028524 0.77718 2.805705 0l5.61141-5.61141 5.611409 5.61141c0.777181 0.77718 2.028525 0.77718 2.805705 0 0.777181-0.77718 0.777181-2.028524 0-2.805705l-5.611409-5.61141 5.611409-5.611409c0.777181-0.777181 0.777181-2.028525 0-2.805705-0.77718-0.777181-2.028524-0.777181-2.805705 0l-5.611409 5.611409-5.61141-5.611409c-0.777181-0.777181-2.028525-0.777181-2.805705 0z"/>
  <path style="fill:#ffffff" d="m15.582885 15.582886c-0.77718 0.77718-0.77718 2.028524 0 2.805705l5.61141 5.611409-5.61141 5.61141c-0.77718 0.777181-0.77718 2.028525 0 2.805705s2.028524 0.77718 2.805705 0l5.61141-5.61141 5.611409 5.61141c0.777181 0.77718 2.028525 0.77718 2.805705 0 0.777181-0.77718 0.777181-2.028524 0-2.805705l-5.611409-5.61141 5.611409-5.611409c0.777181-0.777181 0.777181-2.028525 0-2.805705-0.77718-0.777181-2.028524-0.777181-2.805705 0l-5.611409 5.611409-5.61141-5.611409c-0.777181-0.777181-2.028525-0.777181-2.805705 0z"/>
 </g>
</svg>
