<?xml version="1.0" encoding="UTF-8" standalone="no"?>
<svg
   width="192"
   height="192"
   version="1"
   id="svg14"
   sodipodi:docname="apps_grubhub.svg"
   inkscape:version="1.1-rc (1:1.1+rc+202105232036+f4db50c7c1)"
   xmlns:inkscape="http://www.inkscape.org/namespaces/inkscape"
   xmlns:sodipodi="http://sodipodi.sourceforge.net/DTD/sodipodi-0.dtd"
   xmlns="http://www.w3.org/2000/svg"
   xmlns:svg="http://www.w3.org/2000/svg"
   xmlns:rdf="http://www.w3.org/1999/02/22-rdf-syntax-ns#"
   xmlns:cc="http://creativecommons.org/ns#"
   xmlns:dc="http://purl.org/dc/elements/1.1/">
  <metadata
     id="metadata20">
    <rdf:RDF>
      <cc:Work
         rdf:about="">
        <dc:format>image/svg+xml</dc:format>
        <dc:type
           rdf:resource="http://purl.org/dc/dcmitype/StillImage" />
      </cc:Work>
    </rdf:RDF>
  </metadata>
  <defs
     id="defs18">
    <filter
       inkscape:collect="always"
       style="color-interpolation-filters:sRGB"
       id="filter848"
       x="-0.048000001"
       width="1.096"
       y="-0.048000001"
       height="1.096">
      <feGaussianBlur
         inkscape:collect="always"
         stdDeviation="3.2"
         id="feGaussianBlur850" />
    </filter>
    <filter
       inkscape:collect="always"
       style="color-interpolation-filters:sRGB"
       id="filter1519"
       x="-0.047999989"
       y="-0.048000008"
       width="1.096"
       height="1.096">
      <feGaussianBlur
         inkscape:collect="always"
         stdDeviation="2.3199995"
         id="feGaussianBlur1521" />
    </filter>
  </defs>
  <sodipodi:namedview
     pagecolor="#ffffff"
     bordercolor="#666666"
     borderopacity="1"
     objecttolerance="10"
     gridtolerance="10"
     guidetolerance="10"
     inkscape:pageopacity="0"
     inkscape:pageshadow="2"
     inkscape:window-width="1920"
     inkscape:window-height="1014"
     id="namedview16"
     showgrid="false"
     inkscape:zoom="1"
     inkscape:cx="114"
     inkscape:cy="114.5"
     inkscape:window-x="0"
     inkscape:window-y="34"
     inkscape:window-maximized="1"
     inkscape:current-layer="svg14"
     inkscape:pagecheckerboard="0">
    <inkscape:grid
       type="xygrid"
       id="grid7196" />
  </sodipodi:namedview>
  <rect
     id="rect2"
     transform="matrix(0,-1,-1,0,0,0)"
     ry="8"
     rx="8"
     y="-176"
     x="-180"
     height="160"
     width="160"
     style="opacity:0.2;stroke-width:4;filter:url(#filter848)" />
  <rect
     id="rect4"
     transform="matrix(0,-1,-1,0,0,0)"
     ry="8"
     rx="8"
     y="-176"
     x="-176"
     height="160"
     width="160"
     style="fill:#ff840a;fill-opacity:1;stroke-width:4" />
  <path
     inkscape:connector-curvature="0"
     style="opacity:0.2;fill:#ffffff;stroke-width:4"
     d="m 24,16 c -4.432,0 -8,3.568 -8,8 v 1 c 0,-4.432 3.568,-8 8,-8 h 144 c 4.432,0 8,3.568 8,8 v -1 c 0,-4.432 -3.568,-8 -8,-8 z"
     id="path6" />
  <path
     style="opacity:0.2;fill:#000000;stroke-width:0.522878;filter:url(#filter1519)"
     d="m 56.3045,157.2359 c -0.91923,-0.91427 -1.147317,-2.22207 -2.184557,-12.52553 -0.978205,-9.71711 -1.809585,-24.63256 -1.822881,-32.70366 -0.01166,-7.10676 0.155535,-6.88197 -5.515138,-7.41332 -7.203088,-0.67495 -8.781923,-1.41063 -8.781923,-4.09206 0,-2.002503 8.163956,-14.395712 15.018955,-22.799362 9.877216,-12.108635 23.799073,-24.53088 37.740232,-33.674999 4.441247,-2.91304 5.856121,-2.787347 11.668152,1.036571 2.55661,1.682068 6.78633,4.668651 9.39939,6.636842 2.61307,1.968196 4.87952,3.578536 5.03658,3.578536 0.15704,0 0.44433,-1.701284 0.63839,-3.78063 0.53002,-5.67894 0.82744,-5.861249 8.4694,-5.191588 8.51745,0.74638 8.21189,0.363989 9.87823,12.361749 0.717,5.162516 1.46288,10.794352 1.65749,12.515191 0.46654,4.125392 1.54436,6.436426 5.38329,11.542648 1.7541,2.33317 4.97142,6.937649 7.14958,10.232174 3.07855,4.656365 3.96031,6.407194 3.96031,7.863618 0,2.43295 -0.71014,2.78308 -7.15304,3.52684 -2.84233,0.32811 -5.55567,0.79749 -6.02965,1.04307 -0.72104,0.37359 -0.91619,1.78965 -1.19495,8.67092 -0.8209,20.26465 -1.9389,35.18569 -2.98665,39.86038 -0.87123,3.8872 -1.42667,4.14225 -8.6486,3.97127 l -6.23119,-0.14753 0.0639,-3.38952 c 0.0351,-1.86425 0.44067,-9.02138 0.90118,-15.90473 1.28004,-19.1333 1.59551,-34.97644 0.90754,-45.201323 -0.64377,-9.567967 -1.02567,-11.145617 -2.90411,-11.996869 -1.75452,-0.795105 -3.31233,0.216503 -5.87474,3.814897 -4.94863,6.949377 -9.64758,18.422305 -11.44921,27.666615 -0.98838,5.07146 -1.61647,16.88301 -1.08516,20.40694 0.44685,2.96378 1.57885,3.69169 6.58929,4.23713 1.87099,0.20368 3.53214,0.58009 3.69145,0.83647 0.29859,0.48052 -0.84811,15.99816 -1.33793,18.10561 l -0.27488,1.18254 -12.680572,-0.13961 -12.680566,-0.13961 -0.387888,-1.82514 c -0.213343,-1.00382 -0.553987,-5.75833 -0.75699,-10.56557 l -0.369091,-8.74044 2.440304,-2.39286 c 3.645032,-3.57416 3.866938,-4.8367 4.343328,-24.71162 0.57258,-23.88827 0.600941,-21.969715 -0.462403,-22.641844 -0.667847,-0.422132 -1.167194,-0.424056 -1.835031,-0.0071 -1.065511,0.665281 -1.35374,2.880192 -1.981874,18.164994 -0.351763,8.55961 -0.532577,9.78329 -1.374297,10.62048 -1.249202,1.24247 -2.285072,1.21972 -3.590722,-0.0789 -0.921048,-0.91608 -1.046492,-1.52481 -1.031408,-6.44874 0.0098,-3.08318 0.228039,-9.210093 0.485749,-13.615372 0.257721,-4.405284 0.342715,-7.836249 0.188881,-8.234973 -0.464387,-1.203638 -3.143576,-0.905229 -3.483608,0.388002 -0.160938,0.612129 -0.58574,6.705884 -0.944004,14.152283 -0.624558,12.98123 -0.698491,13.56961 -1.794929,14.28415 -1.647325,1.07355 -3.711083,0.18249 -4.14676,-1.79042 -0.185528,-0.84015 -0.08641,-7.2373 0.22036,-14.215859 0.47124,-10.721284 0.443784,-12.302009 -0.177062,-12.919508 -0.993503,-0.988147 -2.883066,-0.33245 -3.187001,1.105915 -0.622934,2.948016 -1.357745,35.733152 -0.85627,38.286412 0.931807,4.74422 2.482952,7.36977 5.639231,9.54524 1.054636,0.72692 1.17871,1.48252 1.755245,10.69005 0.341219,5.44933 0.745036,10.1101 0.897392,10.35727 0.639691,1.03782 -1.634885,1.3602 -9.6504,1.36775 -6.798192,0.007 -8.63641,-0.14526 -9.258373,-0.76388 z"
     id="path1481"
     sodipodi:nodetypes="sssssssssssssssssssssscsssssssssscccsscssscssssssssssssssssssss" />
  <path
     style="fill:#ffffff;stroke-width:0.522878"
     d="m 56.3045,153.23588 c -0.91923,-0.91427 -1.147317,-2.22207 -2.184557,-12.52553 -0.978205,-9.71711 -1.809585,-24.63256 -1.822881,-32.70366 -0.01166,-7.10676 0.155535,-6.88197 -5.515138,-7.41332 -7.203088,-0.674949 -8.781923,-1.410629 -8.781923,-4.092062 0,-2.002503 8.163956,-14.395712 15.018955,-22.799362 9.877216,-12.108635 23.799073,-24.53088 37.740232,-33.674999 4.441247,-2.91304 5.856121,-2.787347 11.668152,1.036571 2.55661,1.682068 6.78633,4.668651 9.39939,6.636842 2.61307,1.968196 4.87952,3.578536 5.03658,3.578536 0.15704,0 0.44433,-1.701284 0.63839,-3.78063 0.53002,-5.67894 0.82744,-5.861249 8.4694,-5.191588 8.51745,0.74638 8.21189,0.363989 9.87823,12.361749 0.717,5.162516 1.46288,10.794352 1.65749,12.515191 0.46654,4.125392 1.54436,6.436426 5.38329,11.542648 1.7541,2.33317 4.97142,6.937649 7.14958,10.232174 3.07855,4.656365 3.96031,6.407194 3.96031,7.863617 0,2.432954 -0.71014,2.783084 -7.15304,3.526843 -2.84233,0.32811 -5.55567,0.79749 -6.02965,1.04307 -0.72104,0.37359 -0.91619,1.78965 -1.19495,8.67092 -0.8209,20.26465 -1.9389,35.18569 -2.98665,39.86038 -0.87123,3.8872 -1.42667,4.14225 -8.6486,3.97127 l -6.23119,-0.14753 0.0639,-3.38952 c 0.0351,-1.86425 0.44067,-9.02138 0.90118,-15.90473 1.28004,-19.1333 1.59551,-34.976445 0.90754,-45.201325 -0.64377,-9.567967 -1.02567,-11.145617 -2.90411,-11.996869 -1.75452,-0.795105 -3.31233,0.216503 -5.87474,3.814897 -4.94863,6.949377 -9.64758,18.422308 -11.44921,27.666617 -0.98838,5.07146 -1.61647,16.88301 -1.08516,20.40694 0.44685,2.96378 1.57885,3.69169 6.58929,4.23713 1.87099,0.20368 3.53214,0.58009 3.69145,0.83647 0.29859,0.48052 -0.84811,15.99816 -1.33793,18.10561 l -0.27488,1.18254 -12.680572,-0.13961 -12.680566,-0.13961 -0.387888,-1.82514 c -0.213343,-1.00382 -0.553987,-5.75833 -0.75699,-10.56557 l -0.369091,-8.74044 2.440304,-2.39286 c 3.645032,-3.57416 3.866938,-4.8367 4.343328,-24.71162 0.57258,-23.888272 0.600941,-21.969717 -0.462403,-22.641846 -0.667847,-0.422132 -1.167194,-0.424056 -1.835031,-0.0071 -1.065511,0.665281 -1.35374,2.880192 -1.981874,18.164996 -0.351763,8.55961 -0.532577,9.78329 -1.374297,10.62048 -1.249202,1.24247 -2.285072,1.21972 -3.590722,-0.0789 -0.921048,-0.91608 -1.046492,-1.52481 -1.031408,-6.44874 0.0098,-3.08318 0.228039,-9.210095 0.485749,-13.615374 0.257721,-4.405284 0.342715,-7.836249 0.188881,-8.234973 -0.464387,-1.203638 -3.143576,-0.905229 -3.483608,0.388002 -0.160938,0.612129 -0.58574,6.705884 -0.944004,14.152286 -0.624558,12.981229 -0.698491,13.569609 -1.794929,14.284149 -1.647325,1.07355 -3.711083,0.18249 -4.14676,-1.79042 -0.185528,-0.84015 -0.08641,-7.2373 0.22036,-14.215861 0.47124,-10.721284 0.443784,-12.302009 -0.177062,-12.919508 -0.993503,-0.988147 -2.883066,-0.33245 -3.187001,1.105915 -0.622934,2.948016 -1.357745,35.733154 -0.85627,38.286414 0.931807,4.74422 2.482952,7.36977 5.639231,9.54524 1.054636,0.72692 1.17871,1.48252 1.755245,10.69005 0.341219,5.44933 0.745036,10.1101 0.897392,10.35727 0.639691,1.03782 -1.634885,1.3602 -9.6504,1.36775 -6.798192,0.007 -8.63641,-0.14526 -9.258373,-0.76388 z"
     id="path1003"
     sodipodi:nodetypes="sssssssssssssssssssssscsssssssssscccsscssscssssssssssssssssssss" />
</svg>
