<?xml version="1.0" encoding="UTF-8" standalone="no"?>
<svg
   width="192"
   height="192"
   version="1"
   id="svg12"
   sodipodi:docname="apps_amazon_kindle.svg"
   inkscape:version="1.1-rc (1:1.1+rc+202105232036+f4db50c7c1)"
   xmlns:inkscape="http://www.inkscape.org/namespaces/inkscape"
   xmlns:sodipodi="http://sodipodi.sourceforge.net/DTD/sodipodi-0.dtd"
   xmlns="http://www.w3.org/2000/svg"
   xmlns:svg="http://www.w3.org/2000/svg"
   xmlns:rdf="http://www.w3.org/1999/02/22-rdf-syntax-ns#"
   xmlns:cc="http://creativecommons.org/ns#"
   xmlns:dc="http://purl.org/dc/elements/1.1/">
  <metadata
     id="metadata18">
    <rdf:RDF>
      <cc:Work
         rdf:about="">
        <dc:format>image/svg+xml</dc:format>
        <dc:type
           rdf:resource="http://purl.org/dc/dcmitype/StillImage" />
      </cc:Work>
    </rdf:RDF>
  </metadata>
  <defs
     id="defs16">
    <filter
       inkscape:collect="always"
       style="color-interpolation-filters:sRGB"
       id="filter841"
       x="-0.048000001"
       width="1.096"
       y="-0.048000001"
       height="1.096">
      <feGaussianBlur
         inkscape:collect="always"
         stdDeviation="3.2"
         id="feGaussianBlur843" />
    </filter>
    <filter
       inkscape:collect="always"
       style="color-interpolation-filters:sRGB"
       id="filter5191"
       x="-0.047128379"
       y="-0.048904472"
       width="1.0942568"
       height="1.0978089">
      <feGaussianBlur
         inkscape:collect="always"
         stdDeviation="3.1418919"
         id="feGaussianBlur5193" />
    </filter>
  </defs>
  <sodipodi:namedview
     pagecolor="#ffffff"
     bordercolor="#666666"
     borderopacity="1"
     objecttolerance="10"
     gridtolerance="10"
     guidetolerance="10"
     inkscape:pageopacity="0"
     inkscape:pageshadow="2"
     inkscape:window-width="1920"
     inkscape:window-height="1014"
     id="namedview14"
     showgrid="false"
     inkscape:zoom="0.93"
     inkscape:cx="77.956989"
     inkscape:cy="88.172043"
     inkscape:window-x="0"
     inkscape:window-y="34"
     inkscape:window-maximized="1"
     inkscape:current-layer="svg12"
     showguides="false"
     inkscape:document-rotation="0"
     inkscape:pagecheckerboard="0">
    <inkscape:grid
       type="xygrid"
       id="grid852" />
  </sodipodi:namedview>
  <rect
     style="opacity:0.2;fill:#000000;fill-opacity:1;stroke-width:4;filter:url(#filter841)"
     width="160"
     height="160"
     x="16"
     y="20"
     rx="20"
     ry="20"
     id="rect839" />
  <path
     id="rect4"
     style="fill:#333333;stroke-width:4"
     d="m 41.992864,22.774868 114.756196,1.844736 c 11.07857,0.178091 14.67503,5.579902 15.09449,16.651959 L 176,150.98591 V 156 c 0,11.08 -8.92,20 -20,20 H 36 C 24.92,176 16,167.08 16,156 V 143.37832 L 21.688122,35.908447 C 22.27374,24.843934 30.914295,22.596777 41.992864,22.774868 Z"
     sodipodi:nodetypes="ssscsssscss" />
  <path
     id="path5153"
     style="opacity:0.2;fill:#000000;fill-opacity:1;stroke-width:4;filter:url(#filter5191)"
     d="m 36,19.999812 c -11.08,0 -20,8.92 -20,20 V 150.48614 l 3.199219,-1.23633 c 5.93847,-2.29204 11.516811,-3.78275 17.144531,-4.58203 1.78458,-0.25346 3.433376,-0.4638 3.666016,-0.4668 0.25112,-0.003 0.0093,-0.47724 -0.597657,-1.16797 -1.11878,-1.27323 -3.417968,-5.21676 -3.417968,-5.61914 0,-0.13861 0.597655,-0.51967 1.328125,-0.84765 l 1.328125,-0.59571 -3.125,0.13477 c -1.71875,0.0743 -3.278084,0.0202 -3.464844,-0.11914 -0.24186,-0.18035 -0.246728,-0.90917 -0.01758,-2.53516 0.33729,-2.39314 0.118687,-2.14648 -1.283203,-13.45508 -1.00364,-8.09628 -1.025128,-18.17754 -0.04883,-23.419916 1.41544,-7.600482 3.215863,-11.588092 7.439453,-18.03711 2.69012,-4.107552 4.356919,-5.920063 7.755859,-8.435546 2.36488,-1.75019 2.720854,-2.155702 3.714844,-4.220704 0.60487,-1.256621 1.286792,-2.356359 1.513672,-2.443359 0.35239,-0.135119 3.252215,0.735222 5.328125,1.599609 0.61925,0.257843 0.620224,0.255294 0.02148,-0.425781 -0.59836,-0.68069 -0.599464,-0.702394 0.07227,-2.083984 l 0.679687,-1.394531 -0.855469,-0.0059 c -1.02671,-0.0057 -2.004613,-0.58003 -1.402343,-0.824218 0.64278,-0.260619 0.44202,-0.731322 -0.3125,-0.732422 -0.67935,-9.37e-4 -0.708444,-0.12049 -0.839844,-3.513672 -0.30425,-7.856927 -0.194404,-10.251478 0.566406,-12.410156 1.83453,-5.205208 2.538568,-6.184553 7.648438,-10.628907 2.39657,-2.084442 3.799424,-2.620736 7.740234,-2.955078 0.671,-0.05689 1.293338,-0.07642 1.861328,-0.05859 1.70398,0.05349 2.925061,0.439363 3.556641,1.136719 0.55179,0.609297 0.565242,0.61001 1.757812,0.002 0.66027,-0.336585 1.452136,-0.599474 1.759766,-0.583984 0.30763,0.01549 0.06641,0.182784 -0.535156,0.371094 l -1.09375,0.341797 1.923828,0.205078 c 3.37323,0.357318 5.408137,1.521193 7.085937,4.054687 0.54459,0.822329 1.862758,2.564911 2.929688,3.871094 1.06692,1.306185 2.452618,3.454146 3.080078,4.775391 0.95784,2.016905 1.159053,2.805443 1.251953,4.916015 0.07626,1.732152 0.02943,2.223621 -0.152344,1.578125 -0.26173,-0.929517 -0.264431,-0.926855 -0.332031,0.3125 -0.07927,1.453552 -0.548809,3.186064 -0.599609,2.212891 -0.01778,-0.340269 -0.445281,0.230601 -0.994141,1.328125 -0.52904,1.057893 -1.093429,1.923828 -1.255859,1.923828 -0.16242,0 -0.05191,-0.387079 0.246093,-0.859375 l 0.541016,-0.859375 -0.732422,0.625 -0.732422,0.625 0.214844,-0.78125 c 0.18301,-0.670127 0.05609,-0.603452 -0.892578,0.46875 -1.80123,2.03577 -1.489758,3.403542 -0.742188,7.888672 0.15832,0.949837 0.07225,1.215499 -0.535156,1.640625 -0.39833,0.278792 -1.11637,0.505859 -1.59375,0.505859 -0.75896,0 -0.867187,0.119635 -0.867187,0.951172 0,0.598031 -0.28996,1.241502 -0.78125,1.732422 -0.42969,0.42936 -0.78125,0.910787 -0.78125,1.070312 0,0.159528 -0.416472,0.504404 -0.925782,0.767578 -0.66007,0.341071 -1.025471,0.844329 -1.269531,1.75 -0.7049,2.615813 -3.724457,2.676762 -8.585937,0.173829 -1.375,-0.707919 -3.096684,-1.530718 -3.214844,-1.585938 -0.11816,-0.05522 -0.514206,0.196125 -0.878906,0.560547 l -0.66211,0.664062 1.232422,1.195313 c 0.678,0.657481 1.403678,1.737053 1.611328,2.400391 0.92967,2.969796 5.061113,10.637572 7.039063,13.064453 1.11654,1.36996 2.029297,2.643701 2.029297,2.830078 0,0.18638 0.402911,0.636805 0.894531,1 0.50266,0.371345 0.977917,1.079469 1.085937,1.619141 0.14061,0.702537 0.365647,0.960937 0.841797,0.960937 0.83063,0 2.405316,1.710404 2.666016,2.896484 0.16566,0.75365 0.0181,1.101306 -0.847656,2.009766 l -1.046875,1.099612 0.974609,-0.49219 c 0.93902,-0.47383 1.00057,-0.462593 1.71875,0.30469 1.44831,1.54731 1.559594,1.53993 5.996094,-0.37305 5.82504,-2.511709 9.77276,-4.583883 11.84766,-6.218749 2.02133,-1.592653 2.64788,-2.412364 2.93555,-3.84961 0.18327,-0.915657 0.1318,-0.998047 -0.60352,-0.998047 -0.44103,0 -0.88957,-0.142977 -0.99805,-0.318359 -0.10846,-0.175323 3.50324,-4.742977 8.02735,-10.148438 l 8.22656,-9.771495 h 5.40039 c 4.48754,-0.0012 5.43024,0.01918 5.57813,0.404297 0.11484,0.299038 -1.76086,2.719182 -5.28907,6.822265 -3.00749,3.49752 -5.61043,6.626623 -5.7832,6.953126 -1.27644,2.412257 -2.19964,4.777088 -2.06641,5.291015 0.0872,0.336157 -0.18876,1.294884 -0.61328,2.130859 -0.42452,0.835973 -0.70238,1.701904 -0.61718,1.923829 0.25559,0.665542 -0.73417,2.215083 -2.15235,3.371093 -1.42689,1.1631 -4.04004,2.567136 -6.76367,3.634766 -1.18145,0.46311 -2.66811,1.550978 -5,3.660158 -1.82523,1.65093 -3.43256,3.10208 -3.57227,3.22461 -0.13972,0.12253 0.11924,0.76991 0.57618,1.4375 0.95795,1.3996 2.76509,4.90762 3.11718,6.05273 0.13202,0.42935 0.63689,1.35991 1.1211,2.06641 0.99847,1.45681 3.67307,6.20305 5.10547,9.05859 0.52747,1.05153 1.41981,2.29575 1.98242,2.76563 0.83383,0.69637 3.50781,5.45626 3.50781,6.24414 0,0.103 -0.59765,0.74514 -1.32812,1.42578 l -1.32813,1.23632 0.9375,-0.17968 c 0.91287,-0.17477 0.97271,-0.1066 2.29297,2.55859 3.05249,6.16197 5.29559,8.87832 9.89453,11.98242 8.31127,5.60977 13.74109,7.90112 17.84766,7.94922 2.3562,0.0276 2.77023,0.33125 2.48633,1.81445 -0.18025,0.94172 -2.10249,2.40405 -2.93555,2.43555 -1.139,0.0431 0.79337,0.53699 3.59765,0.91992 4.18914,0.57204 12.32573,0.24477 15.54102,-0.625 4.57902,-1.23866 8.3023,-3.27809 11.4043,-6.25 L 176,155.77911 V 39.999812 c 0,-11.08 -8.92,-20 -20,-20 z m 32.601562,84.865228 -0.86914,4.67579 c -0.82215,4.4245 -0.871089,5.61523 -0.230469,5.61523 0.1526,0 1.467515,-0.68524 2.921875,-1.52148 2.07262,-1.19174 5.337938,-3.21327 6.486328,-4.01563 0.07448,-0.0521 -0.01682,-0.24742 -0.203125,-0.43359 -0.24332,-0.24317 -0.662641,-0.22018 -1.488281,0.0781 l -1.148438,0.41406 -1.640624,-1.71093 c -0.90155,-0.94106 -1.768605,-1.93435 -1.927735,-2.20899 -0.15914,-0.27463 -0.652443,-0.58762 -1.095703,-0.69531 z m 22.480469,23.06836 -0.519531,0.79297 c -0.28609,0.43631 -0.656026,0.79297 -0.822266,0.79297 -0.16624,0 -1.240258,0.64149 -2.386718,1.42578 -1.14646,0.7843 -2.871362,1.82896 -3.832032,2.32031 -0.96069,0.49137 -2.800773,1.8322 -4.089843,2.98047 -3.46343,3.08519 -7.085015,5.85799 -10.203125,7.8125 -1.52106,0.95343 -2.879088,1.84712 -3.017578,1.98438 -0.138491,0.13726 0.547007,0.34236 1.523437,0.45703 6.27631,0.7371 16.848036,3.36492 30.916016,7.68359 4.984369,1.53013 9.976559,3.04307 11.093749,3.36329 l 2.03125,0.58203 0.20703,-1.95508 c 0.11395,-1.07604 0.29972,-2.10539 0.41211,-2.28711 0.11239,-0.18172 0.0106,-0.71544 -0.22656,-1.18555 -0.56893,-1.12765 -7.08228,-9.4414 -7.39649,-9.4414 -0.13424,0 -0.4975,0.28151 -0.80859,0.625 -0.85622,0.94539 -1.96556,0.78012 -3.14062,-0.46485 -1.482474,-1.57069 -2.953129,-4.2915 -2.953129,-5.46289 0,-1.09413 -0.938079,-2.49467 -3.455079,-5.1582 -0.811469,-0.85873 -1.894086,-2.30428 -2.404296,-3.21289 z M 176,158.85919 l -0.0273,1.68164 c 0.005,-0.18149 0.0273,-0.35833 0.0273,-0.54102 z m -0.0273,1.68164 c -117.315107,23.63932 -58.65755,11.81966 0,0 z"
     sodipodi:nodetypes="ssccsccsccccccssssssccccscssscsscscccssssssssscccccssssssssssscccssssssscccsssssscccssscscsssssssssscccsssscssccsssccsscscccsccccssscsscsccsscsssssccccsccc" />
  <path
     id="rect5023"
     style="fill:#008fd1;fill-opacity:1;stroke-width:4"
     d="M 36,16 C 24.92,16 16,24.92 16,36 V 146.48633 L 19.199219,145.25 c 5.93847,-2.29204 11.516811,-3.78275 17.144531,-4.58203 1.78458,-0.25346 3.433376,-0.4638 3.666016,-0.4668 0.25112,-0.003 0.0093,-0.47724 -0.597657,-1.16797 -1.11878,-1.27323 -3.417968,-5.21676 -3.417968,-5.61914 0,-0.13861 0.597655,-0.51967 1.328125,-0.84765 l 1.328125,-0.59571 -3.125,0.13477 c -1.71875,0.0743 -3.278084,0.0202 -3.464844,-0.11914 -0.24186,-0.18035 -0.246728,-0.90917 -0.01758,-2.53516 0.33729,-2.39314 0.118687,-2.14648 -1.283203,-13.45508 -1.00364,-8.09628 -1.025128,-18.177538 -0.04883,-23.419918 1.41544,-7.600482 3.215863,-11.588092 7.439453,-18.03711 2.69012,-4.107552 4.356919,-5.920063 7.755859,-8.435546 2.36488,-1.75019 2.720854,-2.155702 3.714844,-4.220704 0.60487,-1.256621 1.286792,-2.356359 1.513672,-2.443359 0.35239,-0.135119 3.252215,0.735222 5.328125,1.599609 0.61925,0.257843 0.620224,0.255294 0.02148,-0.425781 -0.59836,-0.68069 -0.599464,-0.702394 0.07227,-2.083984 l 0.679687,-1.394531 -0.855469,-0.0059 c -1.02671,-0.0057 -2.004613,-0.58003 -1.402343,-0.824218 0.64278,-0.260619 0.44202,-0.731322 -0.3125,-0.732422 -0.67935,-9.37e-4 -0.708444,-0.12049 -0.839844,-3.513672 -0.30425,-7.856927 -0.194404,-10.251478 0.566406,-12.410156 1.83453,-5.205208 2.538568,-6.184553 7.648438,-10.628907 2.39657,-2.084442 3.799424,-2.620736 7.740234,-2.955078 0.671,-0.05689 1.293338,-0.07642 1.861328,-0.05859 1.70398,0.05349 2.925061,0.439363 3.556641,1.136719 0.55179,0.609297 0.565242,0.61001 1.757812,0.002 0.66027,-0.336585 1.452136,-0.599474 1.759766,-0.583984 0.30763,0.01549 0.06641,0.182784 -0.535156,0.371094 l -1.09375,0.341797 1.923828,0.205078 c 3.37323,0.357318 5.408137,1.521193 7.085937,4.054687 0.54459,0.822329 1.862758,2.564911 2.929688,3.871094 1.06692,1.306185 2.452618,3.454146 3.080078,4.775391 0.95784,2.016905 1.159053,2.805443 1.251953,4.916015 0.07626,1.732152 0.02943,2.223621 -0.152344,1.578125 -0.26173,-0.929517 -0.264431,-0.926855 -0.332031,0.3125 -0.07927,1.453552 -0.548809,3.186064 -0.599609,2.212891 -0.01778,-0.340269 -0.445281,0.230601 -0.994141,1.328125 -0.52904,1.057893 -1.093429,1.923828 -1.255859,1.923828 -0.16242,0 -0.05191,-0.387079 0.246093,-0.859375 l 0.541016,-0.859375 -0.732422,0.625 -0.732422,0.625 0.214844,-0.78125 c 0.18301,-0.670127 0.05609,-0.603452 -0.892578,0.46875 -1.80123,2.03577 -1.489758,3.403542 -0.742188,7.888672 0.15832,0.949837 0.07225,1.215499 -0.535156,1.640625 -0.39833,0.278792 -1.11637,0.505859 -1.59375,0.505859 -0.75896,0 -0.867187,0.119635 -0.867187,0.951172 0,0.598031 -0.28996,1.241502 -0.78125,1.732422 -0.42969,0.42936 -0.78125,0.910787 -0.78125,1.070312 0,0.159528 -0.416472,0.504404 -0.925782,0.767578 -0.66007,0.341071 -1.025471,0.844329 -1.269531,1.75 -0.7049,2.615813 -3.724457,2.676762 -8.585937,0.173829 -1.375,-0.707919 -3.096684,-1.530718 -3.214844,-1.585938 -0.11816,-0.05522 -0.514206,0.196125 -0.878906,0.560547 l -0.66211,0.664062 1.232422,1.195313 c 0.678,0.657481 1.403678,1.737053 1.611328,2.400391 0.92967,2.969796 5.061113,10.637572 7.039063,13.064453 1.11654,1.36996 2.029297,2.643701 2.029297,2.830078 0,0.18638 0.402911,0.636805 0.894531,1 0.50266,0.371345 0.977917,1.079469 1.085937,1.619141 0.14061,0.702537 0.365647,0.960937 0.841797,0.960937 0.83063,0 2.405316,1.710404 2.666016,2.896484 0.16566,0.75365 0.0181,1.101306 -0.847656,2.009766 l -1.046875,1.099609 0.974609,-0.492187 c 0.93902,-0.47383 1.00057,-0.462593 1.71875,0.304687 1.44831,1.54731 1.559594,1.539934 5.996094,-0.373046 5.82504,-2.51171 9.77276,-4.583884 11.84766,-6.21875 2.02133,-1.592653 2.64788,-2.412364 2.93555,-3.84961 0.18327,-0.915657 0.1318,-0.998047 -0.60352,-0.998047 -0.44103,0 -0.88957,-0.142977 -0.99805,-0.318359 -0.10846,-0.175323 3.50324,-4.742977 8.02735,-10.148438 L 121.46289,65 h 5.40039 c 4.48754,-0.0012 5.43024,0.01918 5.57813,0.404297 0.11484,0.299038 -1.76086,2.719182 -5.28907,6.822265 -3.00749,3.49752 -5.61043,6.626623 -5.7832,6.953126 -1.27644,2.412257 -2.19964,4.777088 -2.06641,5.291015 0.0872,0.336157 -0.18876,1.294884 -0.61328,2.130859 -0.42452,0.835973 -0.70238,1.701904 -0.61718,1.923829 0.25559,0.665542 -0.73417,2.215083 -2.15235,3.371093 -1.42689,1.1631 -4.04004,2.567136 -6.76367,3.634766 -1.18145,0.46311 -2.66811,1.550976 -5,3.660156 -1.82523,1.650934 -3.43256,3.102084 -3.57227,3.224614 -0.13972,0.12253 0.11924,0.76991 0.57618,1.4375 0.95795,1.3996 2.76509,4.90762 3.11718,6.05273 0.13202,0.42935 0.63689,1.35991 1.1211,2.06641 0.99847,1.45681 3.67307,6.20305 5.10547,9.05859 0.52747,1.05153 1.41981,2.29575 1.98242,2.76563 0.83383,0.69637 3.50781,5.45626 3.50781,6.24414 0,0.103 -0.59765,0.74514 -1.32812,1.42578 l -1.32813,1.23632 0.9375,-0.17968 c 0.91287,-0.17477 0.97271,-0.1066 2.29297,2.55859 3.05249,6.16197 5.29559,8.87832 9.89453,11.98242 8.31127,5.60977 13.74109,7.90112 17.84766,7.94922 2.3562,0.0276 2.77023,0.33125 2.48633,1.81445 -0.18025,0.94172 -2.10249,2.40405 -2.93555,2.43555 -1.139,0.0431 0.79337,0.53699 3.59765,0.91992 4.18914,0.57204 12.32573,0.24477 15.54102,-0.625 4.57902,-1.23866 8.3023,-3.27809 11.4043,-6.25 L 176,151.7793 V 36 c 0,-11.08 -8.92,-20 -20,-20 z m 32.601562,84.86523 -0.86914,4.67579 c -0.82215,4.4245 -0.871089,5.61523 -0.230469,5.61523 0.1526,0 1.467515,-0.68524 2.921875,-1.52148 2.07262,-1.19174 5.337938,-3.21327 6.486328,-4.01563 0.07448,-0.0521 -0.01682,-0.24742 -0.203125,-0.43359 -0.24332,-0.24317 -0.662641,-0.22018 -1.488281,0.0781 l -1.148438,0.41406 -1.640624,-1.71093 c -0.90155,-0.94106 -1.768605,-1.93435 -1.927735,-2.20899 -0.15914,-0.27463 -0.652443,-0.58762 -1.095703,-0.69531 z m 22.480469,23.06836 -0.519531,0.79297 c -0.28609,0.43631 -0.656026,0.79297 -0.822266,0.79297 -0.16624,0 -1.240258,0.64149 -2.386718,1.42578 -1.14646,0.7843 -2.871362,1.82896 -3.832032,2.32031 -0.96069,0.49137 -2.800773,1.8322 -4.089843,2.98047 -3.46343,3.08519 -7.085015,5.85799 -10.203125,7.8125 -1.52106,0.95343 -2.879088,1.84712 -3.017578,1.98438 -0.138491,0.13726 0.547007,0.34236 1.523437,0.45703 6.27631,0.7371 16.848036,3.36492 30.916016,7.68359 4.984369,1.53013 9.976559,3.04307 11.093749,3.36329 l 2.03125,0.58203 0.20703,-1.95508 c 0.11395,-1.07604 0.29972,-2.10539 0.41211,-2.28711 0.11239,-0.18172 0.0106,-0.71544 -0.22656,-1.18555 -0.56893,-1.12765 -7.08228,-9.4414 -7.39649,-9.4414 -0.13424,0 -0.4975,0.28151 -0.80859,0.625 -0.85622,0.94539 -1.96556,0.78012 -3.14062,-0.46485 -1.482474,-1.57069 -2.953129,-4.2915 -2.953129,-5.46289 0,-1.09413 -0.938079,-2.49467 -3.455079,-5.1582 -0.811469,-0.85873 -1.894086,-2.30428 -2.404296,-3.21289 z M 176,154.85938 l -0.0273,1.68164 C 175.97748,156.35953 176,156.18269 176,156 Z m -0.0273,1.68164 c -117.315107,23.63932 -58.65755,11.81966 0,0 z"
     sodipodi:nodetypes="ssccsccsccccccssssssccccscssscsscscccssssssssscccccssssssssssscccssssssscccsssssscccssscscsssssssssscccsssscssccsssccsscscccsccccssscsscsccsscsssssccccsccc" />
  <path
     id="path5435"
     style="fill:#ffffff;fill-opacity:1;stroke-width:4;opacity:0.2"
     d="M 36 16 C 24.92 16 16 24.92 16 36 L 16 37 C 16 25.92 24.92 17 36 17 L 156 17 C 167.08 17 176 25.92 176 37 L 176 36 C 176 24.92 167.08 16 156 16 L 36 16 z M 92.96875 46.017578 C 92.926908 46.056973 92.9088 46.366651 92.875 46.986328 C 92.79573 48.43988 92.326191 50.172392 92.275391 49.199219 C 92.257611 48.85895 91.83011 49.42982 91.28125 50.527344 C 90.837436 51.414815 90.418981 52.050153 90.183594 52.269531 L 90.8125 51.732422 L 90.271484 52.591797 C 89.973481 53.064093 89.862971 53.451172 90.025391 53.451172 C 90.187821 53.451172 90.75221 52.585237 91.28125 51.527344 C 91.83011 50.42982 92.257611 49.85895 92.275391 50.199219 C 92.326191 51.172392 92.79573 49.43988 92.875 47.986328 C 92.9426 46.746973 92.945301 46.744311 93.207031 47.673828 C 93.350125 48.181967 93.387512 47.762147 93.369141 46.810547 C 93.340935 46.990564 93.2889 46.964552 93.207031 46.673828 C 93.076166 46.20907 93.010592 45.978183 92.96875 46.017578 z M 53.6875 47.345703 C 53.696221 48.877159 53.733021 50.653085 53.826172 53.058594 C 53.957572 56.451776 53.986666 56.571329 54.666016 56.572266 C 54.750664 56.572389 54.800794 56.596437 54.871094 56.607422 C 54.793416 56.492377 54.787725 56.382043 54.978516 56.304688 C 55.621296 56.044069 55.420536 55.573366 54.666016 55.572266 C 53.986666 55.571329 53.957572 55.451776 53.826172 52.058594 C 53.75377 50.188902 53.70981 48.667174 53.6875 47.345703 z M 90.8125 50.732422 L 90.080078 51.357422 L 89.564453 51.796875 C 89.644492 51.787151 89.642173 51.909433 89.5625 52.201172 L 89.347656 52.982422 L 90 52.425781 C 89.896398 52.36448 90.000364 52.021488 90.271484 51.591797 L 90.8125 50.732422 z M 89.541016 50.78125 C 89.413578 50.848178 89.144256 51.133821 88.669922 51.669922 C 87.622097 52.854186 87.334695 53.880081 87.386719 55.357422 C 87.495991 54.371975 87.862278 53.58273 88.669922 52.669922 C 89.040018 52.251632 89.199256 52.104735 89.349609 51.976562 L 89.5625 51.201172 C 89.654005 50.866108 89.668453 50.714322 89.541016 50.78125 z M 55.333984 56.910156 C 55.345325 57.045427 55.253749 57.193092 54.978516 57.304688 C 54.376246 57.548876 55.354149 58.123206 56.380859 58.128906 L 56.75 58.130859 L 57.236328 57.134766 L 56.380859 57.128906 C 55.985832 57.126713 55.627341 57.029511 55.333984 56.910156 z M 56.210938 60.271484 C 56.09493 60.544115 56.050877 60.739076 56.0625 60.896484 C 56.19338 60.9486 56.337296 60.986766 56.462891 61.039062 C 57.082141 61.296906 57.083119 61.294356 56.484375 60.613281 C 56.36227 60.474376 56.282657 60.372662 56.210938 60.271484 z M 87.931641 60.599609 C 87.849932 60.824331 87.68486 60.994649 87.392578 61.199219 C 86.994248 61.478011 86.276208 61.705078 85.798828 61.705078 C 85.039868 61.705078 84.931641 61.824713 84.931641 62.65625 C 84.931641 63.254281 84.641681 63.897752 84.150391 64.388672 C 83.720701 64.818032 83.369141 65.299459 83.369141 65.458984 C 83.369141 65.618512 82.952669 65.963388 82.443359 66.226562 C 81.783289 66.567633 81.417888 67.070891 81.173828 67.976562 C 80.468928 70.592376 77.449371 70.653324 72.587891 68.150391 C 71.212891 67.442472 69.491207 66.619673 69.373047 66.564453 C 69.254887 66.509233 68.858841 66.760578 68.494141 67.125 L 67.832031 67.789062 L 68.339844 68.28125 L 68.494141 68.125 C 68.858841 67.760578 69.254887 67.509233 69.373047 67.564453 C 69.491207 67.619673 71.212891 68.442472 72.587891 69.150391 C 77.449371 71.653324 80.468928 71.592376 81.173828 68.976562 C 81.417888 68.070892 81.783289 67.567633 82.443359 67.226562 C 82.952669 66.963388 83.369141 66.618512 83.369141 66.458984 C 83.369141 66.299459 83.720701 65.818032 84.150391 65.388672 C 84.641681 64.897752 84.931641 64.254281 84.931641 63.65625 C 84.931641 62.824713 85.039868 62.705078 85.798828 62.705078 C 86.276208 62.705078 86.994248 62.478011 87.392578 62.199219 C 87.989585 61.781371 88.078946 61.510404 87.931641 60.599609 z M 132.05273 66.166016 C 131.35757 67.207219 129.70393 69.259226 127.15234 72.226562 C 124.14485 75.724082 121.54191 78.853184 121.36914 79.179688 C 120.0927 81.591944 119.1695 83.956776 119.30273 84.470703 C 119.38993 84.80686 119.11397 85.765587 118.68945 86.601562 C 118.26493 87.437535 117.98707 88.303466 118.07227 88.525391 C 118.32786 89.190933 117.3381 90.740474 115.91992 91.896484 C 114.49303 93.059584 111.87988 94.46362 109.15625 95.53125 C 107.9748 95.99436 106.48814 97.082226 104.15625 99.191406 C 102.33102 100.84234 100.72369 102.29349 100.58398 102.41602 C 100.49255 102.4962 100.61286 102.82656 100.80664 103.21484 C 101.1047 102.94871 102.44483 101.73939 104.15625 100.19141 C 106.48814 98.082224 107.9748 96.99436 109.15625 96.53125 C 111.87988 95.46362 114.49303 94.059584 115.91992 92.896484 C 117.3381 91.740474 118.32786 90.190933 118.07227 89.525391 C 117.98707 89.303466 118.26493 88.437535 118.68945 87.601562 C 119.11397 86.765588 119.38993 85.80686 119.30273 85.470703 C 119.1695 84.956776 120.0927 82.591944 121.36914 80.179688 C 121.54191 79.853184 124.14485 76.724082 127.15234 73.226562 C 130.68055 69.123479 132.55625 66.703335 132.44141 66.404297 C 132.40074 66.298396 132.27079 66.223892 132.05273 66.166016 z M 105.69141 85.160156 C 105.40969 85.554506 105.18611 85.882947 105.20898 85.919922 C 105.31746 86.095304 105.766 86.238281 106.20703 86.238281 C 106.51024 86.238281 106.6752 86.268946 106.77734 86.349609 C 106.78619 86.30932 106.80229 86.277604 106.81055 86.236328 C 106.99382 85.320671 106.94235 85.238281 106.20703 85.238281 C 106.02451 85.238281 105.85186 85.201296 105.69141 85.160156 z M 85.199219 94.681641 C 85.078147 94.982526 84.828058 95.300467 84.384766 95.765625 L 83.337891 96.865234 L 84.3125 96.373047 C 84.59223 96.231895 84.78467 96.151413 84.949219 96.103516 C 85.29596 95.628835 85.350489 95.29299 85.232422 94.755859 C 85.227315 94.732627 85.205318 94.705259 85.199219 94.681641 z M 68.601562 100.86523 L 67.732422 105.54102 C 67.196768 108.4237 67.02149 109.84651 67.119141 110.54883 C 67.1918 109.67976 67.376107 108.45857 67.732422 106.54102 L 68.601562 101.86523 L 69.40625 102.0625 C 69.84951 102.17019 70.342813 102.48318 70.501953 102.75781 C 70.661083 103.03245 71.528137 104.02574 72.429688 104.9668 L 74.070312 106.67773 L 75.21875 106.26367 C 75.690787 106.09314 76.020077 106.02352 76.269531 106.03125 C 76.443896 105.91543 76.783121 105.7079 76.910156 105.61914 C 76.984636 105.56704 76.893336 105.37172 76.707031 105.18555 C 76.463711 104.94238 76.04439 104.96539 75.21875 105.26367 L 74.070312 105.67773 L 72.429688 103.9668 C 71.528137 103.02574 70.661083 102.03245 70.501953 101.75781 C 70.342813 101.48318 69.84951 101.17019 69.40625 101.0625 L 68.601562 100.86523 z M 30.007812 103.70312 C 29.994607 108.03827 30.236206 112.77258 30.759766 116.99609 C 31.704281 124.6152 32.080447 126.89149 32.142578 128.36133 C 32.239505 126.7992 31.910605 125.27955 30.759766 115.99609 C 30.27689 112.10078 30.034249 107.75743 30.007812 103.70312 z M 91.082031 123.93359 L 90.5625 124.72656 C 90.27641 125.16287 89.906474 125.51953 89.740234 125.51953 C 89.573994 125.51953 88.499976 126.16102 87.353516 126.94531 C 86.207056 127.72961 84.482154 128.77427 83.521484 129.26562 C 82.560794 129.75699 80.720711 131.09782 79.431641 132.24609 C 75.968211 135.33128 72.346626 138.10408 69.228516 140.05859 C 67.707456 141.01202 66.349428 141.90571 66.210938 142.04297 C 66.104318 142.14864 66.564506 142.28457 67.191406 142.39844 C 67.744592 142.02359 68.201624 141.70227 69.228516 141.05859 C 72.346626 139.10408 75.968211 136.33128 79.431641 133.24609 C 80.720711 132.09782 82.560794 130.75699 83.521484 130.26562 C 84.482154 129.77428 86.207056 128.72961 87.353516 127.94531 C 88.499976 127.16102 89.573994 126.51953 89.740234 126.51953 C 89.906474 126.51953 90.27641 126.16287 90.5625 125.72656 L 91.082031 124.93359 L 92.009766 126.58594 C 92.519976 127.49455 93.602593 128.9401 94.414062 129.79883 C 96.931062 132.46236 97.869141 133.8629 97.869141 134.95703 C 97.869141 136.12842 99.339792 138.84923 100.82227 140.41992 C 101.99733 141.66489 103.10667 141.83016 103.96289 140.88477 C 104.27398 140.54128 104.63724 140.25977 104.77148 140.25977 C 105.08569 140.25977 111.59904 148.57352 112.16797 149.70117 C 112.24492 149.8537 112.28042 150.00452 112.32617 150.15625 C 112.34831 150.08258 112.3758 149.91701 112.39453 149.88672 C 112.50692 149.705 112.40513 149.17128 112.16797 148.70117 C 111.59904 147.57352 105.08569 139.25977 104.77148 139.25977 C 104.63724 139.25977 104.27398 139.54128 103.96289 139.88477 C 103.10667 140.83016 101.99733 140.66489 100.82227 139.41992 C 99.339792 137.84923 97.869141 135.12842 97.869141 133.95703 C 97.869141 132.8629 96.931062 131.46236 94.414062 128.79883 C 93.602593 127.9401 92.519976 126.49455 92.009766 125.58594 L 91.082031 123.93359 z M 115.73633 130.31836 C 115.56333 130.55493 115.25453 130.91843 114.66602 131.4668 L 113.33789 132.70312 L 114.27539 132.52344 C 114.42379 132.49503 114.52628 132.49764 114.63867 132.49219 L 114.66602 132.4668 C 115.39649 131.78616 115.99414 131.14402 115.99414 131.04102 C 115.99414 130.92346 115.84039 130.58608 115.73633 130.31836 z M 31.923828 131.74219 C 31.884128 132.4046 31.905005 132.87034 32.060547 132.98633 C 32.247307 133.12567 33.806641 133.17977 35.525391 133.10547 L 36.375 133.06836 C 36.616963 132.9123 36.948377 132.73428 37.322266 132.56641 L 38.650391 131.9707 L 35.525391 132.10547 C 33.806641 132.17977 32.247307 132.12567 32.060547 131.98633 C 32.000082 131.94124 31.954716 131.86128 31.923828 131.74219 z M 36.304688 134.13281 C 36.144921 134.24602 35.994141 134.35895 35.994141 134.41406 C 35.994141 134.81644 38.293329 138.75997 39.412109 140.0332 C 39.492342 140.12451 39.508995 140.17271 39.576172 140.25586 C 39.641174 140.24998 39.982255 140.20153 40.009766 140.20117 C 40.260886 140.19817 40.019066 139.72393 39.412109 139.0332 C 38.524489 138.02304 36.94063 135.40265 36.304688 134.13281 z M 176 154.85938 L 175.97266 156.54102 C 175.97685 156.38181 175.99177 156.22554 175.99609 156.06641 L 176 155.85938 L 176 154.85938 z M 146.80273 156.75 C 146.79727 156.78089 146.803 156.79615 146.79688 156.82812 C 146.61662 157.76985 144.69439 159.23217 143.86133 159.26367 C 143.14452 159.2908 143.86146 159.50386 145.0293 159.74805 C 145.83737 159.23139 146.68028 158.43726 146.79688 157.82812 C 146.88736 157.35541 146.89432 157.01233 146.80273 156.75 z " />
</svg>
