<svg xmlns="http://www.w3.org/2000/svg" width="48" height="48" version="1.1">
 <g transform="translate(0,-1004.3622)">
  <g>
   <path style="opacity:0.2;fill:none;stroke:#000000;stroke-width:3;stroke-linecap:round" d="m 43.5,1008.3622 -3.5,5.5"/>
   <path style="opacity:0.2;fill:none;stroke:#000000;stroke-width:3;stroke-linecap:round" d="m 4.5,1008.3622 3.5,5.5"/>
   <rect style="opacity:0.2" width="36" height="12" x="6" y="1011.86" rx="2.842" ry="2.769"/>
   <rect style="opacity:0.2" width="36" height="24" x="6" y="1024.86" rx="2.842" ry="2.769"/>
   <path style="fill:#708e00;fill-rule:evenodd;stroke:#769616;stroke-width:3;stroke-linecap:round" d="m 43.5,1007.8622 -3.5,5.5"/>
   <path style="fill:#708e00;fill-rule:evenodd;stroke:#769616;stroke-width:3;stroke-linecap:round" d="m 4.5,1007.8622 3.5,5.5"/>
   <path style="opacity:0.1;fill:#ffffff;fill-rule:evenodd" transform="translate(0,1004.3622)" d="M 4.515625 1.9824219 A 1.50015 1.50015 0 0 0 3.0097656 3.7285156 A 1.50015 1.50015 0 0 1 4.515625 2.4824219 A 1.50015 1.50015 0 0 1 5.765625 3.1953125 L 9.265625 8.6953125 A 1.5003197 1.5003197 0 0 1 9.4824219 9.2617188 A 1.5003197 1.5003197 0 0 0 9.265625 8.1953125 L 5.765625 2.6953125 A 1.50015 1.50015 0 0 0 4.515625 1.9824219 z M 43.439453 1.984375 A 1.50015 1.50015 0 0 0 42.234375 2.6953125 L 38.734375 8.1953125 A 1.5003197 1.5003197 0 0 0 38.517578 9.2480469 A 1.5003197 1.5003197 0 0 1 38.734375 8.6933594 L 42.234375 3.1933594 A 1.50015 1.50015 0 0 1 43.439453 2.4824219 A 1.50015 1.50015 0 0 1 44.990234 3.7363281 A 1.50015 1.50015 0 0 0 43.439453 1.984375 z"/>
   <rect style="fill:#a0cf1b" width="36" height="12" x="6" y="1011.36" rx="2.842" ry="2.769"/>
   <rect style="fill:#1976d2" width="36" height="24" x="6" y="1024.36" rx="2.842" ry="2.769"/>
   <path style="opacity:0.35" transform="translate(0,1004.3622)" d="M 24 23 C 19.039082 23 15 27.0391 15 32 C 15 36.9609 19.039082 41 24 41 C 28.960918 41 33 36.9609 33 32 C 33 27.0391 28.960918 23 24 23 z M 24 24.998047 C 27.875329 24.998047 31 28.122747 31 31.998047 C 31 35.873347 27.875329 39 24 39 C 20.124671 39 17 35.873347 17 31.998047 C 17 28.122747 20.124671 24.998047 24 24.998047 z M 24 27 A 5 5 0 0 0 19.105469 31 L 21.175781 31 A 3 3 0 0 1 24 29 A 3 3 0 0 1 27 32 A 3 3 0 0 1 24 35 A 3 3 0 0 1 21.173828 33 L 19.101562 33 A 5 5 0 0 0 24 37 A 5 5 0 0 0 29 32 A 5 5 0 0 0 24 27 z"/>
   <circle style="opacity:0.2" cx="15" cy="1017.862" r="3"/>
   <circle style="fill:#ffffff" cx="15" cy="1017.362" r="3"/>
   <circle style="opacity:0.2" cx="33" cy="1017.862" r="3"/>
   <circle style="fill:#ffffff" cx="33" cy="1017.362" r="3"/>
   <path style="opacity:0.2;fill:#ffffff" transform="translate(0,1004.3622)" d="M 8.8417969 7 C 7.2672706 7 6 8.2353774 6 9.7695312 L 6 10.269531 C 6 8.7353774 7.2672706 7.5 8.8417969 7.5 L 39.158203 7.5 C 40.732729 7.5 42 8.7353774 42 10.269531 L 42 9.7695312 C 42 8.2353774 40.732729 7 39.158203 7 L 8.8417969 7 z"/>
   <path style="opacity:0.1;fill:#ffffff" transform="translate(0,1004.3622)" d="M 8.8417969 20 C 7.2672706 20 6 21.235377 6 22.769531 L 6 23.269531 C 6 21.735377 7.2672706 20.5 8.8417969 20.5 L 39.158203 20.5 C 40.732729 20.5 42 21.735377 42 23.269531 L 42 22.769531 C 42 21.235377 40.732729 20 39.158203 20 L 8.8417969 20 z"/>
  </g>
 </g>
</svg>
