<?xml version="1.0" encoding="UTF-8" standalone="no"?>
<svg
   width="192"
   height="192"
   version="1"
   id="svg12"
   sodipodi:docname="apps_birthdays.svg"
   inkscape:version="1.1.1 (1:1.1+202109281949+c3084ef5ed)"
   xmlns:inkscape="http://www.inkscape.org/namespaces/inkscape"
   xmlns:sodipodi="http://sodipodi.sourceforge.net/DTD/sodipodi-0.dtd"
   xmlns="http://www.w3.org/2000/svg"
   xmlns:svg="http://www.w3.org/2000/svg"
   xmlns:rdf="http://www.w3.org/1999/02/22-rdf-syntax-ns#"
   xmlns:cc="http://creativecommons.org/ns#"
   xmlns:dc="http://purl.org/dc/elements/1.1/">
  <metadata
     id="metadata18">
    <rdf:RDF>
      <cc:Work
         rdf:about="">
        <dc:format>image/svg+xml</dc:format>
        <dc:type
           rdf:resource="http://purl.org/dc/dcmitype/StillImage" />
      </cc:Work>
    </rdf:RDF>
  </metadata>
  <defs
     id="defs16">
    <filter
       inkscape:collect="always"
       style="color-interpolation-filters:sRGB"
       id="filter4524"
       x="-0.044745764"
       y="-0.051764707"
       width="1.0894915"
       height="1.1035294">
      <feGaussianBlur
         inkscape:collect="always"
         stdDeviation="2.2"
         id="feGaussianBlur4526" />
    </filter>
    <filter
       inkscape:collect="always"
       style="color-interpolation-filters:sRGB"
       id="filter4528"
       x="-0.066342855"
       y="-0.29024999"
       width="1.1326857"
       height="1.5805">
      <feGaussianBlur
         inkscape:collect="always"
         stdDeviation="3.87"
         id="feGaussianBlur4530" />
    </filter>
    <filter
       inkscape:collect="always"
       style="color-interpolation-filters:sRGB"
       id="filter4575"
       x="-0.054017634"
       y="-0.12451677"
       width="1.1080353"
       height="1.2490335">
      <feGaussianBlur
         inkscape:collect="always"
         stdDeviation="2.697445"
         id="feGaussianBlur4577" />
    </filter>
  </defs>
  <sodipodi:namedview
     pagecolor="#ffffff"
     bordercolor="#666666"
     borderopacity="1"
     objecttolerance="10"
     gridtolerance="10"
     guidetolerance="10"
     inkscape:pageopacity="0"
     inkscape:pageshadow="2"
     inkscape:window-width="1920"
     inkscape:window-height="1022"
     id="namedview14"
     showgrid="false"
     inkscape:zoom="3.06"
     inkscape:cx="63.398693"
     inkscape:cy="80.065359"
     inkscape:window-x="0"
     inkscape:window-y="34"
     inkscape:window-maximized="1"
     inkscape:current-layer="svg12"
     showguides="false"
     inkscape:document-rotation="0"
     inkscape:pagecheckerboard="0"
     inkscape:snap-bbox="true"
     inkscape:snap-bbox-midpoints="true"
     inkscape:snap-global="false">
    <inkscape:grid
       type="xygrid"
       id="grid852" />
  </sodipodi:namedview>
  <path
     id="path4532"
     style="opacity:0.2;fill:#000000;fill-opacity:1;stroke-width:16;stroke-linecap:round;stroke-linejoin:round;filter:url(#filter4575)"
     d="m 53.494141,19.011719 c -2.834689,0.06046 -5.568336,1.176402 -8.392579,4.095703 -3.445558,3.258723 -5.60919,6.574193 -8.177734,12.521484 C 35.397242,39.17967 35.76106,42.914297 39.4375,45.833984 45.150694,51.349535 54.726836,56.193153 68.5,62.394531 L 84.003906,58.943359 A 12,12 0 0 0 84,59 a 12,12 0 0 0 12,12 12,12 0 0 0 12,-12 12,12 0 0 0 -0.002,-0.05664 L 123.5,62.394531 c 13.77316,-6.201378 23.3493,-11.044996 29.0625,-16.560547 3.67644,-2.919687 4.04026,-6.654314 2.51367,-10.205078 -2.56854,-5.947291 -4.73217,-9.262761 -8.17773,-12.521484 -5.64848,-5.838601 -10.9322,-4.468917 -17.39258,-1.851563 -17.8044,7.276917 -20.0029,17.791815 -27.94141,27.115235 A 12,12 0 0 0 96,47 12,12 0 0 0 90.453125,48.390625 c -7.952497,-9.32841 -10.14177,-19.852613 -27.958984,-27.134766 -3.230192,-1.308677 -6.165312,-2.304598 -9,-2.24414 z" />
  <rect
     style="opacity:0.2;fill:#000000;fill-opacity:1;stroke-width:15.8962;stroke-linecap:round;stroke-linejoin:round;filter:url(#filter4524)"
     id="rect4484"
     width="118"
     height="102"
     x="37"
     y="78"
     ry="10" />
  <path
     id="rect1764"
     style="opacity:1;fill:#ffd04f;fill-opacity:1;stroke-width:16;stroke-linecap:round;stroke-linejoin:round"
     d="m 62.494299,19.255892 c 19.703724,8.053196 20.29281,20.07138 30.702629,30.052429 L 89.457874,55.727872 68.500054,60.395 C 54.72689,54.193622 45.151448,49.349883 39.438254,43.834332 c -3.67644,-2.919687 -4.040402,-6.654943 -2.513816,-10.205707 2.568544,-5.947291 4.731113,-9.261556 8.176671,-12.520279 5.648485,-5.838601 10.932806,-4.469808 17.39319,-1.852454 z"
     sodipodi:nodetypes="cccccccc" />
  <ellipse
     style="opacity:1;fill:#fea214;fill-opacity:1;stroke-width:15.3673;stroke-linecap:round;stroke-linejoin:round"
     id="path2818"
     cx="75.968193"
     cy="16.274929"
     rx="21.841162"
     ry="4.7938018"
     transform="rotate(26.771307)" />
  <path
     id="path3232"
     style="fill:#ffd04f;fill-opacity:1;stroke-width:16;stroke-linecap:round;stroke-linejoin:round"
     d="m 129.5057,19.255892 c -19.70372,8.053196 -20.29281,20.07138 -30.702628,30.052429 l 3.739058,6.419551 20.95782,4.667128 c 13.77316,-6.201378 23.3486,-11.045117 29.0618,-16.560668 3.67644,-2.919687 4.0404,-6.654943 2.51381,-10.205707 -2.56854,-5.947291 -4.73111,-9.261556 -8.17667,-12.520279 -5.64848,-5.838601 -10.93281,-4.469808 -17.39319,-1.852454 z"
     sodipodi:nodetypes="cccccccc" />
  <ellipse
     style="fill:#fea214;fill-opacity:1;stroke-width:15.3673;stroke-linecap:round;stroke-linejoin:round"
     id="ellipse3234"
     cx="-95.451614"
     cy="102.75758"
     rx="21.841162"
     ry="4.7938018"
     transform="matrix(-0.8928115,0.45043049,0.45043049,0.8928115,0,0)" />
  <rect
     style="opacity:1;fill:#e93427;stroke-width:15.8962;stroke-linecap:round;stroke-linejoin:round;fill-opacity:1"
     id="rect1232"
     width="118"
     height="102"
     x="37"
     y="74"
     ry="10" />
  <rect
     style="opacity:1;fill:#ffd04f;fill-opacity:1;stroke-width:19.5755;stroke-linecap:round;stroke-linejoin:round"
     id="rect2922"
     width="32"
     height="98.57177"
     x="80"
     y="77.42823" />
  <rect
     style="opacity:0.2;fill:#000000;fill-opacity:1;stroke-width:15.5625;stroke-linecap:round;stroke-linejoin:round;filter:url(#filter4528)"
     id="rect4486"
     width="140"
     height="32"
     x="26"
     y="61"
     ry="8" />
  <rect
     style="opacity:1;fill:#f44336;stroke-width:15.5625;stroke-linecap:round;stroke-linejoin:round;fill-opacity:1"
     id="rect1534"
     width="140"
     height="32"
     x="26"
     y="57"
     ry="8" />
  <circle
     style="opacity:1;fill:#fea214;stroke-width:14.9641;stroke-linecap:round;stroke-linejoin:round;fill-opacity:1"
     id="path1660"
     cx="96"
     cy="57"
     r="12" />
  <rect
     style="opacity:1;fill:#ffd04f;fill-opacity:1;stroke-width:11.1535;stroke-linecap:round;stroke-linejoin:round"
     id="rect3228"
     width="32"
     height="32"
     x="80"
     y="57" />
</svg>
