<svg xmlns="http://www.w3.org/2000/svg" width="192" height="192" version="1">
 <defs>
  <filter id="filter1055" style="color-interpolation-filters:sRGB" width="1.101" height="1.091" x="-.05" y="-.05">
   <feGaussianBlur id="feGaussianBlur1057" stdDeviation="3.04"/>
  </filter>
 </defs>
 <path style="opacity:0.2;filter:url(#filter1055)" d="m 168,144.17664 c 0,-7.42936 -2.14926,-14.59341 -6.71643,-20.96143 L 144.08954,99.600437 161.28357,75.985635 C 165.85074,69.882942 168,62.453555 168,55.024192 c 0,-19.634772 -16.38806,-34.75885 -35.73134,-34.75885 -11.28359,0 -22.56717,5.572027 -29.55224,15.124078 l -8.597005,11.674729 c -3.2239,-15.654751 -16.92539,-27.064143 -34.38808,-27.064143 -20.14926,0 -35.73134,15.920083 -35.73134,35.554855 v 88.887119 c 0,19.63477 15.85075,35.55485 35.73134,35.55485 17.19402,0 30.62688,-10.61339 34.11941,-26.0028 l 7.522375,10.61339 c 6.9851,10.08272 18.53734,15.38941 29.8209,15.38941 C 151.61194,180.26216 168,163.81142 168,144.17664"/>
 <path style="fill:#05ce78" d="m 168,140.17664 c 0,-7.42936 -2.14926,-14.59341 -6.71643,-20.96143 L 144.08954,95.600432 161.28357,71.98563 C 165.85074,65.882937 168,58.45355 168,51.024187 c 0,-19.634772 -16.38806,-34.75885 -35.73134,-34.75885 -11.28359,0 -22.56717,5.572027 -29.55224,15.124078 l -8.597005,11.674729 c -3.2239,-15.654751 -16.92539,-27.064143 -34.38808,-27.064143 -20.14926,0 -35.73134,15.920083 -35.73134,35.554855 v 88.887124 c 0,19.63477 15.85075,35.55485 35.73134,35.55485 17.19402,0 30.62688,-10.61339 34.11941,-26.0028 l 7.522375,10.61339 c 6.9851,10.08272 18.53734,15.38941 29.8209,15.38941 C 151.61194,176.26216 168,159.81142 168,140.17664"/>
 <path style="fill:#ffffff;opacity:0.2" d="M 59.730469 16 C 39.581209 16 24 31.919915 24 51.554688 L 24 52.554688 C 24 32.919916 39.581209 17 59.730469 17 C 77.193159 17 90.895241 28.409702 94.119141 44.064453 L 102.7168 32.388672 C 109.70187 22.836621 120.98594 17.265625 132.26953 17.265625 C 151.47537 17.265625 167.74796 32.180243 167.97852 51.611328 C 167.98152 51.415191 168 51.219599 168 51.023438 C 168 31.388665 151.61281 16.265625 132.26953 16.265625 C 120.98594 16.265625 109.70187 21.836621 102.7168 31.388672 L 94.119141 43.064453 C 90.895241 27.409702 77.193159 16 59.730469 16 z M 144.45312 96.099609 L 144.08984 96.599609 L 161.2832 120.21484 C 165.72968 126.41458 167.86774 133.37083 167.97852 140.58984 C 167.98017 140.45067 168 140.31528 168 140.17578 C 168 132.74642 165.85037 125.58286 161.2832 119.21484 L 144.45312 96.099609 z"/>
</svg>
