<?xml version="1.0" encoding="UTF-8" standalone="no"?>
<svg
   width="192"
   height="192"
   version="1"
   id="svg28"
   sodipodi:docname="apps_imdb.svg"
   inkscape:version="1.1.1 (1:1.1+202109281949+c3084ef5ed)"
   xmlns:inkscape="http://www.inkscape.org/namespaces/inkscape"
   xmlns:sodipodi="http://sodipodi.sourceforge.net/DTD/sodipodi-0.dtd"
   xmlns="http://www.w3.org/2000/svg"
   xmlns:svg="http://www.w3.org/2000/svg"
   xmlns:rdf="http://www.w3.org/1999/02/22-rdf-syntax-ns#"
   xmlns:cc="http://creativecommons.org/ns#"
   xmlns:dc="http://purl.org/dc/elements/1.1/">
  <metadata
     id="metadata34">
    <rdf:RDF>
      <cc:Work
         rdf:about="">
        <dc:format>image/svg+xml</dc:format>
        <dc:type
           rdf:resource="http://purl.org/dc/dcmitype/StillImage" />
      </cc:Work>
    </rdf:RDF>
  </metadata>
  <defs
     id="defs32">
    <filter
       inkscape:collect="always"
       style="color-interpolation-filters:sRGB"
       id="filter6495"
       x="-0.048000001"
       y="-0.048000001"
       width="1.096"
       height="1.096">
      <feGaussianBlur
         inkscape:collect="always"
         stdDeviation="3.2"
         id="feGaussianBlur6497" />
    </filter>
    <filter
       inkscape:collect="always"
       style="color-interpolation-filters:sRGB"
       id="filter1867"
       x="-0.0521875"
       y="-0.13324468"
       width="1.104375"
       height="1.2664894">
      <feGaussianBlur
         inkscape:collect="always"
         stdDeviation="2.609375"
         id="feGaussianBlur1869" />
    </filter>
  </defs>
  <sodipodi:namedview
     pagecolor="#ffffff"
     bordercolor="#666666"
     borderopacity="1"
     objecttolerance="10"
     gridtolerance="10"
     guidetolerance="10"
     inkscape:pageopacity="0"
     inkscape:pageshadow="2"
     inkscape:window-width="1920"
     inkscape:window-height="1022"
     id="namedview30"
     showgrid="false"
     inkscape:zoom="1"
     inkscape:cx="70"
     inkscape:cy="95"
     inkscape:window-x="0"
     inkscape:window-y="34"
     inkscape:window-maximized="1"
     inkscape:current-layer="svg28"
     inkscape:pagecheckerboard="0"
     inkscape:snap-global="true"
     showguides="false"
     inkscape:snap-bbox="true"
     inkscape:snap-bbox-midpoints="true">
    <inkscape:grid
       type="xygrid"
       id="grid841" />
  </sodipodi:namedview>
  <rect
     id="rect6457"
     transform="matrix(0,-1,-1,0,0,0)"
     ry="12"
     rx="12"
     y="-176"
     x="-180"
     height="160"
     width="160"
     style="opacity:0.2;fill:#000000;fill-opacity:1;stroke-width:4;filter:url(#filter6495)" />
  <rect
     id="rect2"
     transform="matrix(0,-1,-1,0,0,0)"
     ry="12"
     rx="12"
     y="-176"
     x="-176"
     height="160"
     width="160"
     style="fill:#ffcb0e;fill-opacity:1;stroke-width:4" />
  <path
     id="path1829"
     style="opacity:0.2;fill:#000000;fill-opacity:1;stroke-width:0.599326;filter:url(#filter1867)"
     d="m 36,74 v 47 H 48 V 74 Z m 17,0 v 47 H 64 V 89.949219 L 68.257812,121 H 75.9375 L 80,89.265625 V 121 H 91 V 74 H 74.976562 L 72.146484,95.947266 70.394531,84.013672 C 69.827358,80.192942 69.343448,76.854513 68.921875,74 Z m 43,0 v 47 h 15.24805 c 2.89262,0 5.05441,-0.15911 6.49023,-0.47656 1.43523,-0.32348 2.63864,-0.88379 3.61524,-1.68555 0.9802,-0.80658 1.66337,-1.91968 2.05664,-3.3418 C 123.79984,114.07338 124,111.25556 124,107.03516 V 90.572266 c 0,-4.450161 -0.13467,-7.42915 -0.40625,-8.949219 -0.26857,-1.523697 -0.93965,-2.899435 -2.00977,-4.142578 -1.07012,-1.233468 -2.6354,-2.123792 -4.69531,-2.667969 C 114.83235,74.271346 110.88096,74 105.04297,74 Z m 33,0 v 46 h 10.91602 l 0.75781,-2.57422 c 0.9826,1.1872 2.07401,2.08132 3.26953,2.67969 1.19372,0.59598 2.47913,0.89453 3.85742,0.89453 1.91754,0 3.57177,-0.49917 4.96875,-1.49805 1.39338,-0.99887 2.28678,-2.1807 2.66016,-3.54492 C 155.81211,114.59461 156,112.52153 156,109.73828 V 92.949219 c 0,-2.801131 -0.067,-4.627944 -0.18945,-5.484375 -0.12787,-0.855836 -0.50087,-1.732546 -1.11914,-2.628906 -0.61887,-0.893384 -1.52074,-1.588456 -2.70118,-2.087891 -1.18346,-0.49288 -2.57385,-0.742188 -4.17773,-0.742188 -1.39397,0 -2.68924,0.275747 -3.88477,0.822266 -1.18648,0.548903 -1.9578,1.383124 -2.92773,2.5 V 74 Z m -21,8 c 1.38617,0 2.32707,0.138067 2.82422,0.421875 0.50157,0.280179 0.8189,0.721033 0.96094,1.326172 0.14257,0.59848 0.21484,1.966031 0.21484,4.101562 v 18.312501 c 0,3.14007 -0.21551,5.06422 -0.63086,5.77344 C 110.94999,112.64719 109.82498,113 108,113 Z m 34.92188,6 c 0.82526,0 1.37207,0.30287 1.65429,0.90625 C 144.8584,89.512633 145,90.797888 145,92.769531 v 16.058589 c 0,2.26222 -0.12615,3.68645 -0.37695,4.28321 -0.25012,0.59499 -0.7855,0.88867 -1.60743,0.88867 -0.80053,0 -1.33991,-0.28122 -1.60742,-0.85938 C 141.13666,112.56606 141,111.25478 141,109.20508 V 92.769531 c 0,-2.12474 0.11927,-3.454689 0.35938,-3.982422 C 141.59613,88.26538 142.118,88 142.92188,88 Z" />
  <path
     id="rect6416"
     style="opacity:0.2;fill:#ffffff;fill-opacity:1;stroke-width:4"
     d="m 28,16 c -6.648,0 -12,5.352 -12,12 v 1 c 0,-6.648 5.352,-12 12,-12 h 136 c 6.648,0 12,5.352 12,12 v -1 c 0,-6.648 -5.352,-12 -12,-12 z" />
  <path
     id="rect25"
     style="opacity:1;stroke-width:0.599326;fill:#3f3f3f;fill-opacity:1"
     d="M 36 72 L 36 119 L 48 119 L 48 72 L 36 72 z M 53 72 L 53 119 L 64 119 L 64 87.949219 L 68.257812 119 L 75.9375 119 L 80 87.265625 L 80 119 L 91 119 L 91 72 L 74.976562 72 L 72.146484 93.947266 L 70.394531 82.013672 C 69.827358 78.192942 69.343448 74.854513 68.921875 72 L 53 72 z M 96 72 L 96 119 L 111.24805 119 C 114.14067 119 116.30246 118.84089 117.73828 118.52344 C 119.17351 118.19996 120.37692 117.63965 121.35352 116.83789 C 122.33372 116.03131 123.01689 114.91821 123.41016 113.49609 C 123.79984 112.07338 124 109.25556 124 105.03516 L 124 88.572266 C 124 84.122105 123.86533 81.143116 123.59375 79.623047 C 123.32518 78.09935 122.6541 76.723612 121.58398 75.480469 C 120.51386 74.247001 118.94858 73.356677 116.88867 72.8125 C 114.83235 72.271346 110.88096 72 105.04297 72 L 96 72 z M 129 72 L 129 118 L 139.91602 118 L 140.67383 115.42578 C 141.65643 116.61298 142.74784 117.5071 143.94336 118.10547 C 145.13708 118.70145 146.42249 119 147.80078 119 C 149.71832 119 151.37255 118.50083 152.76953 117.50195 C 154.16291 116.50308 155.05631 115.32125 155.42969 113.95703 C 155.81211 112.59461 156 110.52153 156 107.73828 L 156 90.949219 C 156 88.148088 155.933 86.321275 155.81055 85.464844 C 155.68268 84.609008 155.30968 83.732298 154.69141 82.835938 C 154.07254 81.942554 153.17067 81.247482 151.99023 80.748047 C 150.80677 80.255167 149.41638 80.005859 147.8125 80.005859 C 146.41853 80.005859 145.12326 80.281606 143.92773 80.828125 C 142.74125 81.377028 141.96993 82.211249 141 83.328125 L 141 72 L 129 72 z M 108 80 C 109.38617 80 110.32707 80.138067 110.82422 80.421875 C 111.32579 80.702054 111.64312 81.142908 111.78516 81.748047 C 111.92773 82.346527 112 83.714078 112 85.849609 L 112 104.16211 C 112 107.30218 111.78449 109.22633 111.36914 109.93555 C 110.94999 110.64719 109.82498 111 108 111 L 108 80 z M 142.92188 86 C 143.74714 86 144.29395 86.30287 144.57617 86.90625 C 144.8584 87.512633 145 88.797888 145 90.769531 L 145 106.82812 C 145 109.09034 144.87385 110.51457 144.62305 111.11133 C 144.37293 111.70632 143.83755 112 143.01562 112 C 142.21509 112 141.67571 111.71878 141.4082 111.14062 C 141.13666 110.56606 141 109.25478 141 107.20508 L 141 90.769531 C 141 88.644791 141.11927 87.314842 141.35938 86.787109 C 141.59613 86.26538 142.118 86 142.92188 86 z " />
</svg>
