<svg width="48" height="48" version="1" xmlns="http://www.w3.org/2000/svg">
 <path d="m38.923828 8c-0.06843 0.0015-0.136814 0.00476-0.205078 0.00977l-1.414062 0.099609h-0.0039c-5.598676 0.399447-10.63765 3.61757-13.800788 8.259762-3.163138-4.642193-8.202113-7.860315-13.800781-8.259766h-0.00391l-1.4140588-0.0996094c-2.4934248-0.1752688-4.5351261 1.9535727-4.2558594 4.4375004l0.1035156 0.917968c0.1860112 1.66114 0.3807901 2.68665 0.7441407 3.863282 1.4162684 4.586291 4.5370419 8.192825 8.4550781 10.621093-2.777694 2.489362-4.6498228 5.916012-5.1757812 9.765625l-0.1152344 0.84375c-0.3275676 2.401668 1.538987 4.540524 3.9628906 4.541016h0.759766c1.199161 0 1.859041-0.155805 2.792968-0.396484 3.18977-0.822027 5.91496-2.722478 7.947266-5.236328 2.032306 2.51385 4.757497 4.414301 7.947266 5.236328 0.933927 0.240679 1.593807 0.396484 2.792968 0.396484h0.759766c2.423904-4.91e-4 4.290459-2.139348 3.962891-4.541016l-0.115235-0.84375c-0.525958-3.849613-2.398087-7.276263-5.175781-9.765625 3.918036-2.428268 7.03881-6.034802 8.455078-10.621093 0.362188-1.172866 0.559644-2.199484 0.746094-3.865235l2e-3 -0.0059 0.101562-0.917969c0.26538-2.399548-1.639046-4.4856534-4.052781-4.439412z" style="color-rendering:auto;color:#000000;dominant-baseline:auto;fill:#000000;font-feature-settings:normal;font-variant-alternates:normal;font-variant-caps:normal;font-variant-ligatures:normal;font-variant-numeric:normal;font-variant-position:normal;image-rendering:auto;isolation:auto;mix-blend-mode:normal;opacity:.2;shape-padding:0;shape-rendering:auto;solid-color:#000000;text-decoration-color:#000000;text-decoration-line:none;text-decoration-style:solid;text-indent:0;text-orientation:mixed;text-transform:none;white-space:normal"/>
 <path d="m38.923828 7c-0.06843 0.0015-0.136814 0.00476-0.205078 0.00977l-1.414062 0.099609h-0.0039c-5.598676 0.399447-10.63765 3.61757-13.800788 8.259762-3.163138-4.642193-8.202113-7.860315-13.800781-8.259766h-0.00391l-1.4140588-0.0996094c-2.4934248-0.1752688-4.5351261 1.9535727-4.2558594 4.4375004l0.1035156 0.917968c0.1860112 1.66114 0.3807901 2.68665 0.7441407 3.863282 1.4162684 4.586291 4.5370419 8.192825 8.4550781 10.621093-2.777694 2.489362-4.6498228 5.916012-5.1757812 9.765625l-0.1152344 0.84375c-0.3275676 2.401668 1.538987 4.540524 3.9628906 4.541016h0.759766c1.199161 0 1.859041-0.155805 2.792968-0.396484 3.18977-0.822027 5.91496-2.722478 7.947266-5.236328 2.032306 2.51385 4.757497 4.414301 7.947266 5.236328 0.933927 0.240679 1.593807 0.396484 2.792968 0.396484h0.759766c2.423904-4.91e-4 4.290459-2.139348 3.962891-4.541016l-0.115235-0.84375c-0.525958-3.849613-2.398087-7.276263-5.175781-9.765625 3.918036-2.428268 7.03881-6.034802 8.455078-10.621093 0.362188-1.172866 0.559644-2.199484 0.746094-3.865235l2e-3 -0.0059 0.101562-0.917969c0.26538-2.399548-1.639046-4.4856534-4.052781-4.439412z" style="color-rendering:auto;color:#000000;dominant-baseline:auto;fill:#ff703a;font-feature-settings:normal;font-variant-alternates:normal;font-variant-caps:normal;font-variant-ligatures:normal;font-variant-numeric:normal;font-variant-position:normal;image-rendering:auto;isolation:auto;mix-blend-mode:normal;shape-padding:0;shape-rendering:auto;solid-color:#000000;text-decoration-color:#000000;text-decoration-line:none;text-decoration-style:solid;text-indent:0;text-orientation:mixed;text-transform:none;white-space:normal"/>
 <path d="m8 12 0.1035156 0.917969c0.1796156 1.604702 0.2688684 2.085125 0.5917969 3.130859 1.8688015 6.051725 7.0544895 10.240587 13.453126 10.865234 0.327715 0.032 0.65243 0.07096 0.722656 0.08594 0.070227 0.014974 0.128906-0.313468 0.128906-0.728518 0-1.602159-0.703657-4.108662-1.716797-6.107422-2.212704-4.365307-7.163622-7.728726-11.86914-8.064453zm31 0-1.414062 0.09961c-4.70552 0.335727-9.656437 3.699147-11.869141 8.064453-1.01314 1.998759-1.716797 4.505262-1.716797 6.107421 0 0.41505 0.05868 0.743492 0.128906 0.728516 0.07023-0.01498 0.394941-0.05394 0.722656-0.08594 6.398636-0.624647 11.584325-4.813509 13.453126-10.865234 0.322929-1.045734 0.414133-1.526157 0.59375-3.130859zm-16.490234 16c-1.013343 0-2.600046 0.406511-3.81836 0.978516-3.673148 1.724564-6.001736 4.973302-6.576172 9.177734l-0.115234 0.84375h0.759766c0.41704 0 1.223673-0.122316 1.794922-0.269531 3.236809-0.834149 6.303749-3.545227 7.61914-6.738281 0.391463-0.950261 0.826172-2.76044 0.826172-3.441407 0-0.485962-0.05738-0.550781-0.490234-0.550781zm1.980468 0c-0.432854 0-0.490234 0.064819-0.490234 0.550781 0 0.680967 0.434709 2.491146 0.826172 3.441407 1.315391 3.193054 4.382332 5.904132 7.61914 6.738281 0.571249 0.147215 1.377882 0.269531 1.794922 0.269531h0.759766l-0.115234-0.84375c-0.574436-4.204432-2.903024-7.45317-6.576172-9.177734-1.218314-0.572005-2.805017-0.978516-3.81836-0.978516z" style="fill:#000000;opacity:.2;stroke-width:.17983094"/>
 <path d="m8 11 0.1035156 0.917969c0.1796156 1.604702 0.2688684 2.085125 0.5917969 3.130859 1.8688015 6.051725 7.0544895 10.240587 13.453126 10.865234 0.327715 0.032 0.65243 0.07096 0.722656 0.08594 0.070227 0.014974 0.128906-0.313468 0.128906-0.728518 0-1.602159-0.703657-4.108662-1.716797-6.107422-2.212704-4.365307-7.163622-7.728726-11.86914-8.064453zm31 0-1.414062 0.09961c-4.70552 0.335727-9.656437 3.699147-11.869141 8.064453-1.01314 1.998759-1.716797 4.505262-1.716797 6.107421 0 0.41505 0.05868 0.743492 0.128906 0.728516 0.07023-0.01498 0.394941-0.05394 0.722656-0.08594 6.398636-0.624647 11.584325-4.813509 13.453126-10.865234 0.322929-1.045734 0.414133-1.526157 0.59375-3.130859zm-16.490234 16c-1.013343 0-2.600046 0.406511-3.81836 0.978516-3.673148 1.724564-6.001736 4.973302-6.576172 9.177734l-0.115234 0.84375h0.759766c0.41704 0 1.223673-0.122316 1.794922-0.269531 3.236809-0.834149 6.303749-3.545227 7.61914-6.738281 0.391463-0.950261 0.826172-2.76044 0.826172-3.441407 0-0.485962-0.05738-0.550781-0.490234-0.550781zm1.980468 0c-0.432854 0-0.490234 0.064819-0.490234 0.550781 0 0.680967 0.434709 2.491146 0.826172 3.441407 1.315391 3.193054 4.382332 5.904132 7.61914 6.738281 0.571249 0.147215 1.377882 0.269531 1.794922 0.269531h0.759766l-0.115234-0.84375c-0.574436-4.204432-2.903024-7.45317-6.576172-9.177734-1.218314-0.572005-2.805017-0.978516-3.81836-0.978516z" style="fill:#ffffff;stroke-width:.17983094"/>
 <path d="m38.923828 7c-0.06843 0.0015-0.136814 0.0047556-0.205078 0.0097656l-1.414062 0.0996094h-0.003907c-5.598676 0.399447-10.637643 3.617574-13.800781 8.259766-3.163138-4.642193-8.202113-7.860315-13.800781-8.259766h-0.0039063l-1.4140625-0.0996094c-2.4934248-0.1752688-4.5351261 1.9535723-4.2558594 4.4375004l0.0058594 0.060546c0.252069-2.054595 2.0788557-3.6506613 4.25-3.4980464l1.4140625 0.0996094h0.0039063c5.5986682 0.399451 10.637643 3.617573 13.800781 8.259766 3.163138-4.642192 8.202105-7.860319 13.800781-8.259766h0.003907l1.414062-0.0996094c0.068264-0.00501 0.136648-0.0082656 0.205078-0.0097656 2.09574-0.0401494 3.803965 1.529369 4.044922 3.513672l0.007812-0.074219c0.26538-2.3995479-1.638999-4.4856944-4.052734-4.439453zm-26.201172 20.441406c-2.437963 2.429268-4.0842172 5.615984-4.5703122 9.173828l-0.1152344 0.84375c-0.0465853 0.341555-0.0374604 0.674471 0 1l0.1152344-0.84375c0.5259583-3.849613 2.3980872-7.276263 5.1757812-9.765625-0.207345-0.128505-0.402724-0.273127-0.605469-0.408203zm21.554688 0c-0.202745 0.135076-0.398124 0.279698-0.605469 0.408203 2.777694 2.489362 4.649823 5.916012 5.175781 9.765625l0.115235 0.84375c0.03746-0.325529 0.046585-0.658445 0-1l-0.115235-0.84375c-0.486094-3.557844-2.132349-6.74456-4.570312-9.173828z" style="color-rendering:auto;color:#000000;dominant-baseline:auto;fill:#ffffff;font-feature-settings:normal;font-variant-alternates:normal;font-variant-caps:normal;font-variant-ligatures:normal;font-variant-numeric:normal;font-variant-position:normal;image-rendering:auto;isolation:auto;mix-blend-mode:normal;opacity:.2;shape-padding:0;shape-rendering:auto;solid-color:#000000;text-decoration-color:#000000;text-decoration-line:none;text-decoration-style:solid;text-indent:0;text-orientation:mixed;text-transform:none;white-space:normal"/>
</svg>
