<?xml version="1.0" encoding="UTF-8" standalone="no"?>
<svg
   width="192"
   height="192"
   version="1"
   id="svg20"
   sodipodi:docname="apps_visual_studio_code.svg"
   inkscape:version="1.1-rc (1:1.1+rc+202105232036+f4db50c7c1)"
   xmlns:inkscape="http://www.inkscape.org/namespaces/inkscape"
   xmlns:sodipodi="http://sodipodi.sourceforge.net/DTD/sodipodi-0.dtd"
   xmlns="http://www.w3.org/2000/svg"
   xmlns:svg="http://www.w3.org/2000/svg">
  <defs
     id="defs24">
    <filter
       inkscape:collect="always"
       style="color-interpolation-filters:sRGB"
       id="filter880"
       x="-0.10084687"
       y="-0.031495425"
       width="1.2016937"
       height="1.0629908">
      <feGaussianBlur
         inkscape:collect="always"
         stdDeviation="2.099676"
         id="feGaussianBlur882" />
    </filter>
    <filter
       inkscape:collect="always"
       style="color-interpolation-filters:sRGB"
       id="filter884"
       x="-0.048545045"
       y="-0.047467059"
       width="1.0970901"
       height="1.0949341">
      <feGaussianBlur
         inkscape:collect="always"
         stdDeviation="2.4277336"
         id="feGaussianBlur886" />
    </filter>
    <filter
       inkscape:collect="always"
       style="color-interpolation-filters:sRGB"
       id="filter888"
       x="-0.042053157"
       y="-0.055905777"
       width="1.0841063"
       height="1.1118116">
      <feGaussianBlur
         inkscape:collect="always"
         stdDeviation="2.8035071"
         id="feGaussianBlur890" />
    </filter>
  </defs>
  <sodipodi:namedview
     id="namedview22"
     pagecolor="#ffffff"
     bordercolor="#666666"
     borderopacity="1.0"
     inkscape:pageshadow="2"
     inkscape:pageopacity="0.0"
     inkscape:pagecheckerboard="0"
     showgrid="false"
     inkscape:zoom="2.49"
     inkscape:cx="23.895582"
     inkscape:cy="23.895582"
     inkscape:window-width="1920"
     inkscape:window-height="1019"
     inkscape:window-x="0"
     inkscape:window-y="34"
     inkscape:window-maximized="1"
     inkscape:current-layer="svg20" />
  <path
     style="opacity:0.2;stroke-width:3.99996;filter:url(#filter888)"
     d="M 170.341,36.951622 137.39454,20.996408 c -3.81326,-1.846823 -8.37106,-1.06779 -11.36421,1.942462 L 18.175091,120.64862 c -2.901034,2.66057 -2.897698,7.25421 0.0072,9.91038 l 8.809961,8.05521 c 2.374904,2.17182 5.951501,2.33138 8.508479,0.3808 L 165.38345,41.090783 c 4.3573,-3.324729 10.61592,-0.198798 10.61592,5.302192 v -0.384797 c 0,-3.861445 -2.19926,-7.381492 -5.65837,-9.056596 z"
     id="path2" />
  <path
     style="opacity:0.2;stroke-width:3.99996;filter:url(#filter880)"
     d="m 137.39641,179.0094 c -3.81451,1.8451 -8.37231,1.06547 -11.36546,-1.94503 3.68772,3.70909 9.99381,1.08184 9.99381,-4.16392 V 27.100987 c 0,-5.245752 -6.30609,-7.872888 -9.99381,-4.163562 2.99315,-3.010492 7.55095,-3.790645 11.36546,-1.945462 l 32.94085,15.933294 C 173.79886,38.599482 176,42.12081 176,45.983934 V 154.01827 c 0,3.863 -2.20114,7.38425 -5.66274,9.05847 z"
     id="path4" />
  <path
     style="fill:#0072b0;stroke-width:3.99996"
     d="M 170.341,32.950306 137.39454,16.995092 c -3.81326,-1.846824 -8.37106,-1.067791 -11.36421,1.942462 L 18.175091,116.6473 c -2.901034,2.66058 -2.897698,7.25421 0.0072,9.91039 l 8.809961,8.05521 c 2.374904,2.17182 5.951501,2.33137 8.508479,0.38079 L 165.38345,37.089468 c 4.3573,-3.32473 10.61592,-0.198798 10.61592,5.302191 v -0.384796 c 0,-3.861445 -2.19926,-7.381493 -5.65837,-9.056597 z"
     id="path6" />
  <path
     id="path8"
     style="opacity:0.1;fill:#ffffff;stroke-width:3.99996"
     d="M 132.91406 16.001953 C 130.38472 16.043873 127.90196 17.058045 126.03125 18.939453 L 18.173828 116.64844 C 16.603391 118.0887 15.918011 120.09004 16.058594 122.04688 C 16.179799 120.42565 16.871074 118.84321 18.173828 117.64844 L 126.03125 19.939453 C 127.90196 18.058045 130.38472 17.043873 132.91406 17.001953 C 134.43166 16.9768 135.96064 17.301582 137.39062 17.994141 L 170.34375 33.947266 C 172.95274 35.210695 174.84136 37.527069 175.61328 40.246094 C 175.83869 40.912301 176 41.617442 176 42.392578 L 176 42.009766 C 176 38.148309 173.80286 34.622371 170.34375 32.947266 L 137.39062 16.994141 C 135.96064 16.301582 134.43166 15.9768 132.91406 16.001953 z " />
  <path
     style="opacity:0.2;stroke-width:3.99996;filter:url(#filter884)"
     d="m 31.181013,56.055822 c -1.510635,0.06752 -3.00001,0.64861 -4.187462,1.73436 l -8.812419,8.054615 c -2.904899,2.656095 -2.908847,7.253593 -0.0078,9.913969 L 126.03171,177.06253 c 3.68771,3.70908 9.99209,1.08172 9.99209,-4.16403 V 135.96915 L 35.501286,57.40737 c -1.27849,-0.975487 -2.809639,-1.419083 -4.320273,-1.351548 z"
     id="path10" />
  <path
     style="fill:#008eda;stroke-width:3.99996"
     d="m 170.341,159.05167 -32.94646,15.95526 c -3.81326,1.84638 -8.37106,1.06735 -11.36421,-1.94251 L 18.175091,71.754191 c -2.901034,-2.660376 -2.897698,-7.254214 0.0072,-9.91031 l 8.809961,-8.055526 c 2.374904,-2.1715 5.951501,-2.331379 8.508479,-0.380397 L 165.38345,154.91223 c 4.3573,3.32461 10.61592,0.1992 10.61592,-5.30227 v 0.38519 c 0,3.86113 -2.19926,7.38114 -5.65837,9.05664 z"
     id="path12" />
  <path
     id="path14"
     style="opacity:0.1;fill:#ffffff;stroke-width:3.99996"
     d="M 31.181641 52.056641 C 29.671006 52.124161 28.181593 52.705266 26.994141 53.791016 L 18.181641 61.845703 C 16.60751 63.285009 15.916663 65.285439 16.054688 67.244141 C 16.178853 65.62136 16.875619 64.039863 18.181641 62.845703 L 26.994141 54.791016 C 28.181593 53.705266 29.671006 53.124161 31.181641 53.056641 C 32.692275 52.989105 34.223463 53.432716 35.501953 54.408203 L 165.38281 155.91406 C 168.88712 158.58784 173.61643 157.08456 175.33594 153.5332 C 175.75419 152.41723 176 151.2261 176 149.99219 L 176 149.60938 C 176 155.11085 169.74011 158.23867 165.38281 154.91406 L 35.501953 53.408203 C 34.223463 52.432716 32.692275 51.989105 31.181641 52.056641 z " />
  <path
     style="fill:#1eacf8;stroke-width:3.99996"
     d="m 137.39641,175.00945 c -3.81451,1.8451 -8.37231,1.06547 -11.36546,-1.94503 3.68772,3.70909 9.99381,1.08183 9.99381,-4.16392 V 23.101036 c 0,-5.245752 -6.30609,-7.872888 -9.99381,-4.163562 2.99315,-3.010493 7.55095,-3.790645 11.36546,-1.945462 l 32.94085,15.933294 C 173.79886,34.599531 176,38.120858 176,41.983983 V 150.01831 c 0,3.86301 -2.20114,7.38426 -5.66274,9.05848 z"
     id="path16" />
</svg>
