<svg xmlns="http://www.w3.org/2000/svg" width="48" height="48" version="1">
 <g>
  <rect style="fill:#040404;opacity:0.2" width="28" height="40" x="-39" y="-44" rx="2" ry="2" transform="matrix(0,-1,-1,0,0,0)"/>
  <rect style="fill:#4f4f4f" width="28" height="40" x="-38" y="-44" rx="2" ry="2" transform="matrix(0,-1,-1,0,0,0)"/>
  <path style="opacity:0.3" d="m38.765499 23.730458c0 2.823585 1.934227 5.613016-0.100203 7.263092-1.546927 1.254674-3.518318 2.00645-5.665296 2.00645-4.970563 0-9-4.029437-9-9s4.029437-9 9-9c1.43763 0 2.796531 0.337076 4.001983 0.936505 2.962362 1.473082 1.763516 4.26102 1.763516 7.793953z"/>
  <circle style="opacity:0.3" cx="15" cy="24" r="7"/>
  <path style="fill:#040404;opacity:0.2" d="m14 35-2 3c-0.614608 0.921912 0.892 2 2 2h20c1.108 0 2-0.892 2-2l-2-3z"/>
  <path style="fill:#848484" d="m14 34-2 3c-0.614608 0.921912 0.892 2 2 2h20c1.108 0 2-0.892 2-2l-2-3z"/>
  <path style="fill:#ffffff" d="m33.000777 19.00021a5 5 0 0 0-5 5 5 5 0 0 0 5 5 5 5 0 0 0 5-5 5 5 0 0 0-5-5zm0.01758 2.003906a3 3 0 0 1 1.029297 0.183594l-0.511719 0.886719a2 2 0 0 1 0.464844 0.193359 2 2 0 0 1 0.400391 0.308594l0.509765-0.882813a3 3 0 0 1 0.814453 1.058594l-0.986328 0.265625a2 2 0 0 1 0.257813 0.964844l0.986328-0.263672a3 3 0 0 1-0.169922 1.328125l-0.886719-0.511719a2 2 0 0 1-0.193359 0.464844 2 2 0 0 1-0.308594 0.400391l0.882813 0.509765a3 3 0 0 1-1.058594 0.814453l-0.265625-0.986328a2 2 0 0 1-0.964844 0.257813l0.263672 0.986328a3 3 0 0 1-1.328127-0.169922l0.511719-0.886719a2 2 0 0 1-0.464844-0.193359 2 2 0 0 1-0.400391-0.308594l-0.509765 0.882813a3 3 0 0 1-0.814453-1.058594l0.986328-0.265625a2 2 0 0 1-0.257813-0.964844l-0.986328 0.263672a3 3 0 0 1 0.169922-1.328125l0.886719 0.511719a2 2 0 0 1 0.193359-0.464844 2 2 0 0 1 0.308594-0.400391l-0.882813-0.509765a3 3 0 0 1 1.058594-0.814453l0.265625 0.986328a2 2 0 0 1 0.964844-0.257813l-0.263672-0.986328a3 3 0 0 1 0.298828-0.01367z"/>
  <path style="fill:#ffffff" d="m15 19a5 5 0 0 0-5 5 5 5 0 0 0 5 5 5 5 0 0 0 5-5 5 5 0 0 0-5-5zm0.017578 2.003906a3 3 0 0 1 1.029297 0.183594l-0.511719 0.886719a2 2 0 0 1 0.464844 0.193359 2 2 0 0 1 0.400391 0.308594l0.509765-0.882813a3 3 0 0 1 0.814453 1.058594l-0.986328 0.265625a2 2 0 0 1 0.257813 0.964844l0.986328-0.263672a3 3 0 0 1-0.169922 1.328125l-0.886719-0.511719a2 2 0 0 1-0.193359 0.464844 2 2 0 0 1-0.308594 0.400391l0.882813 0.509765a3 3 0 0 1-1.058594 0.814453l-0.265625-0.986328a2 2 0 0 1-0.964844 0.257813l0.263672 0.986328a3 3 0 0 1-1.328125-0.169922l0.511719-0.886719a2 2 0 0 1-0.464844-0.193359 2 2 0 0 1-0.400391-0.308594l-0.509765 0.882813a3 3 0 0 1-0.814453-1.058594l0.986328-0.265625a2 2 0 0 1-0.257813-0.964844l-0.986328 0.263672a3 3 0 0 1 0.169922-1.328125l0.886719 0.511719a2 2 0 0 1 0.193359-0.464844 2 2 0 0 1 0.308594-0.400391l-0.882813-0.509765a3 3 0 0 1 1.058594-0.814453l0.265625 0.986328a2 2 0 0 1 0.964844-0.257813l-0.263672-0.986328a3 3 0 0 1 0.298828-0.013672z"/>
  <path style="opacity:0.2" d="m10 16c-1.108 0-2 0.892-2 2v14c0 1.108 0.892 2 2 2h28c1.108 0 2-0.892 2-2v-14c0-1.108-0.892-2-2-2zm4 5h20c1.108 0 2 0.792455 2 1.777344v4.445312c0 0.984889-0.892 1.777344-2 1.777344h-20c-1.108 0-2-0.792455-2-1.777344v-4.445312c0-0.984889 0.892-1.777344 2-1.777344z"/>
  <path style="fill:#ff493f" d="m10 15c-1.108 0-2 0.892-2 2v8 5 1c0 1.108 0.892 2 2 2h28c1.108 0 2-0.892 2-2v-1-5-8c0-1.108-0.892-2-2-2h-28zm4 5h20c1.108 0 2 0.792455 2 1.777344v1.777344 2.667968c0 0.984889-0.892 1.777344-2 1.777344h-20c-1.108 0-2-0.792455-2-1.777344v-2.667968-1.777344c0-0.984889 0.892-1.777344 2-1.777344z"/>
  <circle style="opacity:0.3" cx="7" cy="13" r="1"/>
  <circle style="opacity:0.3" cx="7" cy="35" r="1"/>
  <circle style="opacity:0.3" cx="41" cy="13" r="1"/>
  <circle style="opacity:0.3" cx="41" cy="35" r="1"/>
  <circle style="opacity:0.3" cx="15" cy="24" r="1"/>
  <circle style="opacity:0.3" cx="33" cy="24" r="1"/>
  <circle style="opacity:0.3" cx="14.5" cy="35.5" r=".5"/>
  <circle style="opacity:0.3" cx="33.5" cy="35.5" r=".5"/>
  <rect style="opacity:0.2" width="2" height="1" x="18" y="37"/>
  <rect style="opacity:0.2" width="2" height="1" x="28" y="37"/>
  <path style="fill:#ffffff;opacity:0.1" d="m6 10c-1.108 0-2 0.892-2 2v1c0-1.108 0.892-2 2-2h36c1.108 0 2 0.892 2 2v-1c0-1.108-0.892-2-2-2h-36z"/>
  <path style="fill:#ffae3f" d="m10 15c-1.108 0-2 0.892-2 2v8 5 1c0 1.108 0.892 2 2 2h28c1.108 0 2-0.892 2-2v-1-5-8c0-1.108-0.892-2-2-2h-28zm0 2h28v8 5 1h-28v-1-5-8z"/>
 </g>
</svg>
