<?xml version="1.0" encoding="UTF-8" standalone="no"?>
<svg
   width="192"
   height="192"
   version="1"
   id="svg28"
   sodipodi:docname="apps_accuweather.svg"
   inkscape:version="1.1.1 (1:1.1+202109281949+c3084ef5ed)"
   xmlns:inkscape="http://www.inkscape.org/namespaces/inkscape"
   xmlns:sodipodi="http://sodipodi.sourceforge.net/DTD/sodipodi-0.dtd"
   xmlns="http://www.w3.org/2000/svg"
   xmlns:svg="http://www.w3.org/2000/svg"
   xmlns:rdf="http://www.w3.org/1999/02/22-rdf-syntax-ns#"
   xmlns:cc="http://creativecommons.org/ns#"
   xmlns:dc="http://purl.org/dc/elements/1.1/">
  <metadata
     id="metadata34">
    <rdf:RDF>
      <cc:Work
         rdf:about="">
        <dc:format>image/svg+xml</dc:format>
        <dc:type
           rdf:resource="http://purl.org/dc/dcmitype/StillImage" />
      </cc:Work>
    </rdf:RDF>
  </metadata>
  <defs
     id="defs32">
    <filter
       inkscape:collect="always"
       style="color-interpolation-filters:sRGB"
       id="filter3165"
       x="-0.048000001"
       y="-0.047999999"
       width="1.096"
       height="1.096">
      <feGaussianBlur
         inkscape:collect="always"
         stdDeviation="3.2"
         id="feGaussianBlur3167" />
    </filter>
    <filter
       inkscape:collect="always"
       style="color-interpolation-filters:sRGB"
       id="filter3169"
       x="-0.075"
       y="-0.075"
       width="1.15"
       height="1.15">
      <feGaussianBlur
         inkscape:collect="always"
         stdDeviation="3.0625"
         id="feGaussianBlur3171" />
    </filter>
  </defs>
  <sodipodi:namedview
     pagecolor="#ffffff"
     bordercolor="#666666"
     borderopacity="1"
     objecttolerance="10"
     gridtolerance="10"
     guidetolerance="10"
     inkscape:pageopacity="0"
     inkscape:pageshadow="2"
     inkscape:window-width="1920"
     inkscape:window-height="1022"
     id="namedview30"
     showgrid="false"
     inkscape:zoom="2.16"
     inkscape:cx="46.296296"
     inkscape:cy="118.05556"
     inkscape:window-x="0"
     inkscape:window-y="34"
     inkscape:window-maximized="1"
     inkscape:current-layer="svg28"
     inkscape:pagecheckerboard="0"
     inkscape:snap-global="true"
     showguides="false">
    <inkscape:grid
       type="xygrid"
       id="grid841" />
  </sodipodi:namedview>
  <path
     style="opacity:0.2;fill:#000000;stroke-width:0.367501;filter:url(#filter3165)"
     d="m 88.832794,172.3633 c -3.84043,-4.23978 -7.56142,-8.25814 -8.26887,-8.92969 l -1.28626,-1.22101 -11.47841,3.68795 c -6.313132,2.02837 -11.580049,3.58631 -11.704265,3.4621 -0.124214,-0.12421 -1.389595,-5.48782 -2.811951,-11.91913 -1.422357,-6.43131 -2.621531,-11.73721 -2.664831,-11.7909 -0.0433,-0.0537 -5.424011,-1.25331 -11.957136,-2.66582 -6.533123,-1.41251 -11.933636,-2.62343 -12.001139,-2.69092 -0.0675,-0.0675 1.542343,-5.38368 3.577439,-11.81374 3.029153,-9.57087 3.612612,-11.77269 3.217375,-12.14151 -0.265537,-0.24777 -4.286475,-3.88918 -8.935421,-8.09201 -4.648945,-4.20283 -8.482532,-7.82013 -8.519077,-8.03843 -0.03657,-0.218303 3.958208,-4.069833 8.877234,-8.558933 l 8.943682,-8.16201 -2.338817,-7.27281 c -5.776137,-17.96155 -5.300559,-16.20058 -4.43024,-16.40424 0.426124,-0.0997 5.818783,-1.29194 11.983687,-2.64938 6.164907,-1.35743 11.246252,-2.49661 11.291878,-2.5315 0.04562,-0.0349 1.242121,-5.41202 2.65888,-11.94918 1.416764,-6.53717 2.62968,-11.939502 2.695375,-12.005195 0.06569,-0.06569 5.385864,1.540259 11.822607,3.56878 9.5575,3.012025 11.78522,3.599995 12.15069,3.206995 0.24613,-0.26467 3.88128,-4.284801 8.07811,-8.933622 4.19684,-4.648821 7.81488,-8.482305 8.04009,-8.518849 0.22522,-0.03657 4.0825,3.958102 8.571716,8.876996 l 8.16223,8.943445 7.273,-2.338753 c 17.96203,-5.775986 16.20102,-5.300421 16.40469,-4.430125 0.0997,0.426112 1.29197,5.818628 2.64944,11.983368 1.35748,6.16474 2.49668,11.24595 2.53157,11.29158 0.0349,0.0456 5.41217,1.24208 11.9495,2.65881 6.53735,1.41672 11.94014,2.62992 12.00621,2.69599 0.0661,0.0661 -1.5422,5.38382 -3.57395,11.81722 -3.03703,9.61654 -3.6076,11.77757 -3.20778,12.14965 0.26747,0.24893 4.29,3.88627 8.93894,8.08299 4.64894,4.19672 8.48326,7.81466 8.5207,8.03987 0.0374,0.22521 -3.3528,3.515873 -7.53386,7.312573 -4.18107,3.79671 -8.20932,7.46677 -8.95169,8.15571 l -1.34975,1.25261 3.77355,11.68906 c 2.07546,6.42898 3.75145,11.72297 3.72444,11.76441 -0.027,0.0414 -5.41753,1.26268 -11.97895,2.71387 -6.56141,1.4512 -11.96716,2.66736 -12.01278,2.70258 -0.0456,0.0352 -1.24213,5.41264 -2.65888,11.9498 -1.41677,6.53716 -2.62968,11.9395 -2.69539,12.00519 -0.0657,0.0657 -5.38586,-1.54026 -11.8226,-3.56878 -9.56135,-3.01323 -11.78533,-3.60015 -12.15213,-3.207 -0.24692,0.26467 -3.88773,4.28481 -8.09067,8.93363 -4.20295,4.64882 -7.820336,8.48494 -8.038646,8.52472 -0.21831,0.0398 -3.53909,-3.39659 -7.37954,-7.63636 z"
     id="path3125" />
  <path
     style="fill:#df421a;stroke-width:0.367501;opacity:1;fill-opacity:1"
     d="m 88.832794,168.3633 c -3.84043,-4.23978 -7.56142,-8.25814 -8.26887,-8.92969 l -1.28626,-1.22101 -11.47841,3.68795 c -6.313132,2.02837 -11.580049,3.58631 -11.704265,3.4621 -0.124214,-0.12421 -1.389595,-5.48782 -2.811951,-11.91913 -1.422357,-6.43131 -2.621531,-11.73721 -2.664831,-11.7909 -0.0433,-0.0537 -5.424011,-1.25331 -11.957136,-2.66582 -6.533123,-1.41251 -11.933636,-2.62343 -12.001139,-2.69092 -0.0675,-0.0675 1.542343,-5.38368 3.577439,-11.81374 3.029153,-9.57087 3.612612,-11.77269 3.217375,-12.14151 -0.265537,-0.24777 -4.286475,-3.88918 -8.935421,-8.09201 -4.648945,-4.20283 -8.482532,-7.820131 -8.519077,-8.038431 -0.03657,-0.2183 3.958208,-4.06983 8.877234,-8.55893 l 8.943682,-8.16201 -2.338817,-7.27281 c -5.776137,-17.96155 -5.300559,-16.20058 -4.43024,-16.40424 0.426124,-0.0997 5.818783,-1.29194 11.983687,-2.64938 6.164907,-1.35743 11.246252,-2.49661 11.291878,-2.5315 0.04562,-0.0349 1.242121,-5.41202 2.65888,-11.94918 1.416764,-6.53717 2.62968,-11.939502 2.695375,-12.005195 0.06569,-0.06569 5.385864,1.540259 11.822607,3.56878 9.5575,3.012025 11.78522,3.599995 12.15069,3.206995 0.24613,-0.26467 3.88128,-4.284801 8.07811,-8.933622 4.19684,-4.648821 7.81488,-8.482305 8.04009,-8.518849 0.22522,-0.03657 4.0825,3.958102 8.571716,8.876996 l 8.16223,8.943445 7.273,-2.338753 c 17.96203,-5.775986 16.20102,-5.300421 16.40469,-4.430125 0.0997,0.426112 1.29197,5.818628 2.64944,11.983368 1.35748,6.16474 2.49668,11.24595 2.53157,11.29158 0.0349,0.0456 5.41217,1.24208 11.9495,2.65881 6.53735,1.41672 11.94014,2.62992 12.00621,2.69599 0.0661,0.0661 -1.5422,5.38382 -3.57395,11.81722 -3.03703,9.61654 -3.6076,11.77757 -3.20778,12.14965 0.26747,0.24893 4.29,3.88627 8.93894,8.08299 4.64894,4.19672 8.48326,7.81466 8.5207,8.03987 0.0374,0.22521 -3.3528,3.51587 -7.53386,7.312571 -4.18107,3.79671 -8.20932,7.46677 -8.95169,8.15571 l -1.34975,1.25261 3.77355,11.68906 c 2.07546,6.42898 3.75145,11.72297 3.72444,11.76441 -0.027,0.0414 -5.41753,1.26268 -11.97895,2.71387 -6.56141,1.4512 -11.96716,2.66736 -12.01278,2.70258 -0.0456,0.0352 -1.24213,5.41264 -2.65888,11.9498 -1.41677,6.53716 -2.62968,11.9395 -2.69539,12.00519 -0.0657,0.0657 -5.38586,-1.54026 -11.8226,-3.56878 -9.56135,-3.01323 -11.78533,-3.60015 -12.15213,-3.207 -0.24692,0.26467 -3.88773,4.28481 -8.09067,8.93363 -4.20295,4.64882 -7.820336,8.48494 -8.038646,8.52472 -0.21831,0.0398 -3.53909,-3.39659 -7.37954,-7.63636 z"
     id="path1199" />
  <circle
     style="opacity:0.2;fill:#000000;fill-opacity:1;stroke-width:2.06387;stroke-linecap:round;stroke-linejoin:round;filter:url(#filter3169)"
     id="circle3127"
     cx="96"
     cy="99"
     r="49" />
  <circle
     style="opacity:1;fill:#ff9800;stroke-width:2.06387;stroke-linecap:round;stroke-linejoin:round;fill-opacity:1"
     id="path1587"
     cx="96"
     cy="96"
     r="49" />
  <path
     id="path3173"
     style="fill:#ffffff;stroke-width:0.367501;opacity:0.15"
     d="M 95.773438 16 C 95.548227 16.036544 91.929262 19.87071 87.732422 24.519531 C 83.535592 29.168352 79.900427 33.188455 79.654297 33.453125 C 79.288827 33.846125 77.061406 33.258119 67.503906 30.246094 C 61.067163 28.217573 55.747331 26.612044 55.681641 26.677734 C 55.615946 26.743427 54.403092 32.144471 52.986328 38.681641 C 51.569569 45.218801 50.373745 50.595959 50.328125 50.630859 C 50.282499 50.665749 45.200063 51.804679 39.035156 53.162109 C 32.870252 54.519549 27.478858 55.7128 27.052734 55.8125 C 26.669003 55.902296 26.396206 55.697997 26.667969 56.882812 C 26.764907 56.844766 26.893972 56.849651 27.052734 56.8125 C 27.478858 56.7128 32.870252 55.519549 39.035156 54.162109 C 45.200063 52.804679 50.282499 51.665749 50.328125 51.630859 C 50.373745 51.595959 51.569569 46.218801 52.986328 39.681641 C 54.403092 33.144471 55.615946 27.743427 55.681641 27.677734 C 55.747331 27.612044 61.067163 29.217573 67.503906 31.246094 C 77.061406 34.258119 79.288827 34.846125 79.654297 34.453125 C 79.900427 34.188455 83.535592 30.168352 87.732422 25.519531 C 91.929262 20.87071 95.548227 17.036544 95.773438 17 C 95.998657 16.96343 99.856487 20.958059 104.3457 25.876953 L 112.50781 34.820312 L 119.78125 32.482422 C 137.74328 26.706436 135.98188 27.182438 136.18555 28.052734 C 136.28525 28.478846 137.47651 33.870416 138.83398 40.035156 C 140.19146 46.199896 141.33034 51.280542 141.36523 51.326172 C 141.40013 51.371772 146.77908 52.569598 153.31641 53.986328 C 159.708 55.371461 164.75947 56.506944 165.05469 56.621094 C 165.10251 56.435134 165.33108 55.69046 165.32227 55.681641 C 165.2562 55.615571 159.85376 54.403048 153.31641 52.986328 C 146.77908 51.569598 141.40013 50.371772 141.36523 50.326172 C 141.33034 50.280542 140.19146 45.199896 138.83398 39.035156 C 137.47651 32.870416 136.28525 27.478846 136.18555 27.052734 C 135.98188 26.182438 137.74328 25.706436 119.78125 31.482422 L 112.50781 33.820312 L 104.3457 24.876953 C 99.856487 19.958059 95.998657 15.96343 95.773438 16 z M 158.51953 79.599609 C 158.42974 80.167713 158.42292 80.538533 158.54102 80.648438 C 158.80849 80.897368 162.82958 84.533749 167.47852 88.730469 C 171.71493 92.554795 174.92402 95.588553 175.55078 96.322266 C 175.78632 96.062498 176.00732 95.815565 176 95.771484 C 175.96256 95.546274 172.12746 91.927189 167.47852 87.730469 C 162.82958 83.533749 158.80849 79.897368 158.54102 79.648438 C 158.53058 79.638724 158.52862 79.611862 158.51953 79.599609 z M 33.572266 79.714844 L 24.876953 87.650391 C 19.957927 92.139491 15.96343 95.992638 16 96.210938 C 16.003327 96.23081 16.396929 96.595838 16.460938 96.669922 C 17.491 95.537549 20.791258 92.378993 24.876953 88.650391 L 33.820312 80.488281 L 33.572266 79.714844 z M 158.41211 113.26172 L 158.16406 113.49219 L 161.9375 125.18164 C 163.84828 131.10051 165.1508 135.23003 165.36719 136.01172 C 165.37429 136.00928 165.66144 135.94633 165.66211 135.94531 C 165.68912 135.90387 164.01296 130.61062 161.9375 124.18164 L 158.41211 113.26172 z M 33.472656 113.38086 C 33.256523 114.73889 32.378006 117.72178 30.238281 124.48242 C 28.203185 130.91248 26.592656 136.22742 26.660156 136.29492 C 26.661662 136.29643 26.920967 136.35284 26.927734 136.35547 C 27.237943 135.14661 28.474844 131.05415 30.238281 125.48242 C 33.201553 116.11971 33.816972 113.82222 33.472656 113.38086 z " />
  <path
     id="circle3175"
     style="opacity:0.2;fill:#ffffff;stroke-width:2.06387;stroke-linecap:round;stroke-linejoin:round;fill-opacity:1"
     d="M 96 47 A 49 49 0 0 0 47 96 A 49 49 0 0 0 47.035156 96.5 A 49 49 0 0 1 96 48 A 49 49 0 0 1 144.98242 96.253906 A 49 49 0 0 0 145 96 A 49 49 0 0 0 96 47 z " />
</svg>
