<svg xmlns="http://www.w3.org/2000/svg" width="192" height="192" version="1">
 <g transform="scale(4)">
  <path style="opacity:0.2" d="m 17,4.5 -0.873047,4.3613281 a 12,12 0 0 0 -3.326172,1.3769529 l -3.7011716,-2.4667966 -2.828125,2.8281246 2.46875,3.705079 A 12,12 0 0 0 7.3574219,17.628906 L 3,18.5 v 4 l 4.3710938,0.875 a 12,12 0 0 0 1.3671874,3.324219 l -2.4667968,3.701172 2.828125,2.828125 3.7050786,-2.46875 a 12,12 0 0 0 3.322265,1.376953 L 17,36.5 h 4 l 0.873047,-4.361328 a 12,12 0 0 0 2.048828,-0.716797 L 25,32.5 h 2.806641 L 28,32.628906 V 35.5 l 1,1 h 3 v 3 l 1,1 h 3 v 3 l 1,1 h 5 c 1.108,0 2,-0.892 2,-2 V 37.359375 L 30.496094,23.853516 a 12,12 0 0 0 0.146484,-0.482422 L 35,22.5 v -4 L 30.628906,17.625 A 12,12 0 0 0 29.261719,14.300781 L 31.728516,10.599609 28.900391,7.7714844 25.195312,10.240234 A 12,12 0 0 0 21.873047,8.8632812 L 21,4.5 Z"/>
  <path style="fill:#d1d1d1" d="M 26.736328 19.59375 L 19.666016 26.666016 L 25 32 L 28 32 L 28 35 L 29 36 L 32 36 L 32 39 L 33 40 L 36 40 L 36 43 L 37 44 L 42 44 C 43.108 44 44 43.108 44 42 L 44 36.859375 L 26.736328 19.59375 z"/>
  <path style="fill:#d1d1d1" d="M 17 4 L 16.126953 8.3613281 A 12 12 0 0 0 12.800781 9.7382812 L 9.0996094 7.2714844 L 6.2714844 10.099609 L 8.7402344 13.804688 A 12 12 0 0 0 7.3574219 17.128906 L 3 18 L 3 22 L 7.3710938 22.875 A 12 12 0 0 0 8.7382812 26.199219 L 6.2714844 29.900391 L 9.0996094 32.728516 L 12.804688 30.259766 A 12 12 0 0 0 16.126953 31.636719 L 17 36 L 21 36 L 21.873047 31.638672 A 12 12 0 0 0 25.199219 30.261719 L 28.900391 32.728516 L 31.728516 29.900391 L 29.259766 26.195312 A 12 12 0 0 0 30.642578 22.871094 L 35 22 L 35 18 L 30.628906 17.125 A 12 12 0 0 0 29.261719 13.800781 L 31.728516 10.099609 L 28.900391 7.2714844 L 25.195312 9.7402344 A 12 12 0 0 0 21.873047 8.3632812 L 21 4 L 17 4 z"/>
  <path style="opacity:0.2" d="M 28.416016 27.416016 A 12 12 0 0 1 23.925781 30.925781 L 25 32 L 28 32 L 28 35 L 29 36 L 32 36 L 32 39 L 33 40 L 36 40 L 36 43 L 37 44 L 42 44 C 42.814066 44 43.507551 43.515226 43.820312 42.820312 L 28.416016 27.416016 z"/>
  <circle style="fill:#34a734" cx="19" cy="20" r="7"/>
  <path style="fill:#ffffff;opacity:0.2" d="M 17 4 L 16.126953 8.3613281 A 12 12 0 0 0 12.800781 9.7382812 L 9.0996094 7.2714844 L 6.2714844 10.099609 L 6.4707031 10.400391 L 9.0996094 7.7714844 L 12.800781 10.238281 A 12 12 0 0 1 16.126953 8.8613281 L 17 4.5 L 21 4.5 L 21.873047 8.8632812 A 12 12 0 0 1 25.195312 10.240234 L 28.900391 7.7714844 L 31.529297 10.400391 L 31.728516 10.099609 L 28.900391 7.2714844 L 25.195312 9.7402344 A 12 12 0 0 0 21.873047 8.3632812 L 21 4 L 17 4 z M 29.410156 14.078125 L 29.261719 14.300781 A 12 12 0 0 1 30.628906 17.625 L 35 18.5 L 35 18 L 30.628906 17.125 A 12 12 0 0 0 29.410156 14.078125 z M 8.5917969 14.080078 A 12 12 0 0 0 7.3574219 17.128906 L 3 18 L 3 18.5 L 7.3574219 17.628906 A 12 12 0 0 1 8.7402344 14.304688 L 8.5917969 14.080078 z M 30.613281 23.470703 A 12 12 0 0 1 30.496094 23.853516 L 44 37.359375 L 44 36.859375 L 30.613281 23.470703 z M 8.5898438 26.421875 L 6.2714844 29.900391 L 6.4707031 30.099609 L 8.7382812 26.699219 A 12 12 0 0 1 8.5898438 26.421875 z"/>
  <path style="opacity:0.1" d="M 25.990234,20.207031 A 7,7 0 0 1 19,27 7,7 0 0 1 12.009766,20.292969 7,7 0 0 0 12,20.5 a 7,7 0 0 0 7,7 7,7 0 0 0 7,-7 7,7 0 0 0 -0.0098,-0.292969 z"/>
 </g>
</svg>
