<?xml version="1.0" encoding="UTF-8" standalone="no"?>
<svg
   width="192"
   height="192"
   version="1"
   id="svg12"
   sodipodi:docname="apps_liverpool_shoppingapp.svg"
   inkscape:version="1.1.1 (1:1.1+202109281949+c3084ef5ed)"
   xmlns:inkscape="http://www.inkscape.org/namespaces/inkscape"
   xmlns:sodipodi="http://sodipodi.sourceforge.net/DTD/sodipodi-0.dtd"
   xmlns="http://www.w3.org/2000/svg"
   xmlns:svg="http://www.w3.org/2000/svg"
   xmlns:rdf="http://www.w3.org/1999/02/22-rdf-syntax-ns#"
   xmlns:cc="http://creativecommons.org/ns#"
   xmlns:dc="http://purl.org/dc/elements/1.1/">
  <metadata
     id="metadata18">
    <rdf:RDF>
      <cc:Work
         rdf:about="">
        <dc:format>image/svg+xml</dc:format>
        <dc:type
           rdf:resource="http://purl.org/dc/dcmitype/StillImage" />
      </cc:Work>
    </rdf:RDF>
  </metadata>
  <defs
     id="defs16">
    <filter
       inkscape:collect="always"
       style="color-interpolation-filters:sRGB"
       id="filter955"
       x="-0.048000001"
       width="1.096"
       y="-0.048000001"
       height="1.096">
      <feGaussianBlur
         inkscape:collect="always"
         stdDeviation="3.2"
         id="feGaussianBlur957" />
    </filter>
    <mask
       id="d"
       fill="#ffffff">
      <path
         id="use17"
         d="m 0.297,0.281 h 40.595 v 18.35 H 0.297 Z" />
    </mask>
    <filter
       inkscape:collect="always"
       style="color-interpolation-filters:sRGB"
       id="filter8037"
       x="-0.10193877"
       y="-0.11482758"
       width="1.2038775"
       height="1.2296552">
      <feGaussianBlur
         inkscape:collect="always"
         stdDeviation="4.1625"
         id="feGaussianBlur8039" />
    </filter>
  </defs>
  <sodipodi:namedview
     pagecolor="#ffffff"
     bordercolor="#666666"
     borderopacity="1"
     objecttolerance="10"
     gridtolerance="10"
     guidetolerance="10"
     inkscape:pageopacity="0"
     inkscape:pageshadow="2"
     inkscape:window-width="1920"
     inkscape:window-height="1019"
     id="namedview14"
     showgrid="false"
     inkscape:zoom="1"
     inkscape:cx="74.5"
     inkscape:cy="111"
     inkscape:window-x="0"
     inkscape:window-y="34"
     inkscape:window-maximized="1"
     inkscape:current-layer="svg12"
     showguides="true"
     inkscape:document-rotation="0"
     inkscape:pagecheckerboard="0"
     inkscape:snap-bbox="true"
     inkscape:snap-bbox-midpoints="true"
     inkscape:snap-global="true">
    <inkscape:grid
       type="xygrid"
       id="grid852" />
  </sodipodi:namedview>
  <rect
     style="opacity:0.2;fill:#000000;fill-opacity:1;stroke-width:4;filter:url(#filter955)"
     width="160"
     height="160"
     x="16"
     y="20"
     rx="30"
     ry="30"
     id="rect953" />
  <rect
     style="fill:#e837aa;fill-opacity:1;stroke-width:4"
     width="160"
     height="160"
     x="16"
     y="16"
     rx="30"
     ry="30"
     id="rect4" />
  <path
     id="rect959"
     style="fill:#ffffff;fill-opacity:1;stroke-width:4;opacity:0.2"
     d="M 46 16 C 29.38 16 16 29.38 16 46 L 16 47 C 16 30.38 29.38 17 46 17 L 146 17 C 162.62 17 176 30.38 176 47 L 176 46 C 176 29.38 162.62 16 146 16 L 46 16 z " />
  <path
     id="path7999"
     style="color:#000000;opacity:0.2;fill:#000000;stroke-linejoin:round;-inkscape-stroke:none;filter:url(#filter8037)"
     d="m 48,54 v 73 c 0,3.69047 0.0739,7.37319 2.810547,10.33789 C 53.547195,140.30259 57.600005,141 63,141 h 39 v -8 H 63 c -4.599995,0 -6.047198,-0.8026 -6.310547,-1.08789 C 56.426105,131.62682 56,130.30952 56,127 V 54 Z m 11,0 v 67 c 0,1.25 -0.0177,2.24105 0.103516,3.33203 0.12122,1.09098 0.438051,2.61578 1.693359,3.87109 1.255308,1.25532 2.780113,1.57214 3.871094,1.69336 C 65.75895,130.0177 66.750001,130 68,130 h 34 v -8 H 68 c -0.499406,0 -0.608951,-0.0157 -0.978516,-0.0215 C 67.015684,121.60899 67,121.49941 67,121 V 54 Z m 11.001953,0 v 55.99805 c 0,1.25 -0.01966,2.243 0.101563,3.33398 0.12122,1.09098 0.438051,2.61578 1.693359,3.87109 1.255308,1.25532 2.780113,1.57214 3.871094,1.69336 1.090981,0.12122 2.083985,0.10157 3.333984,0.10157 H 102 v -8 H 79.001953 c -0.499406,0 -0.608956,-0.0157 -0.978515,-0.0215 -0.0058,-0.36956 -0.02148,-0.47911 -0.02148,-0.97851 V 54 Z m 11,0 v 44.998047 c 0,1.250003 -0.01966,2.243013 0.101563,3.333983 0.12122,1.09098 0.438051,2.6158 1.693359,3.87109 1.255308,1.25532 2.780113,1.57214 3.871094,1.69336 1.090981,0.12122 2.083985,0.10157 3.333984,0.10157 H 102 V 99.998047 H 90.001953 c -0.499406,0 -0.608951,-0.01569 -0.978515,-0.02148 -0.0058,-0.36956 -0.02148,-0.479112 -0.02148,-0.978515 V 54 Z M 92,54 v 8 h 39 c 4.6,0 6.0472,0.802601 6.31055,1.087891 C 137.5739,63.373181 138,64.69048 138,68 v 73 h 8 V 68 c 0,-3.69047 -0.0739,-7.373191 -2.81055,-10.337891 C 140.4528,54.697409 136.4,54 131,54 Z m 0,11 v 8 h 34 c 0.49941,0 0.60895,0.01568 0.97852,0.02148 C 126.98452,73.391014 127,73.50059 127,74 v 67 h 8 V 74 c 0,-1.25 0.0177,-2.241051 -0.10352,-3.332031 -0.12122,-1.09098 -0.43804,-2.615784 -1.69336,-3.871094 -1.25531,-1.25532 -2.7801,-1.572139 -3.87109,-1.693359 C 128.24105,64.982296 127.25,65 126,65 Z m 0,11.001953 v 8 h 22.99805 c 0.49941,0 0.60894,0.01568 0.97851,0.02148 0.006,0.36956 0.0215,0.479115 0.0215,0.978515 V 141 h 8 V 85.001953 c 0,-1.25 0.0197,-2.243004 -0.10157,-3.333984 -0.12122,-1.09098 -0.43804,-2.615784 -1.69336,-3.871094 -1.2553,-1.25532 -2.7801,-1.572139 -3.87109,-1.693359 -1.09098,-0.12122 -2.08398,-0.101563 -3.33398,-0.101563 z m 0,11 v 8 h 11.99805 c 0.49941,0 0.60894,0.01569 0.97851,0.02148 0.006,0.36956 0.0215,0.479112 0.0215,0.978515 V 141 h 8 V 96.001953 c 0,-1.250007 0.0197,-2.243009 -0.10157,-3.333984 -0.12122,-1.09098 -0.43804,-2.615804 -1.69336,-3.871094 -1.2553,-1.25532 -2.7801,-1.572139 -3.87109,-1.693359 -1.09098,-0.12122 -2.08398,-0.101563 -3.33398,-0.101563 z" />
  <path
     id="path2388"
     style="color:#000000;opacity:1;fill:#ffffff;stroke-linejoin:round;-inkscape-stroke:none"
     d="M 48 52 L 48 125 C 48 128.69047 48.0739 132.37319 50.810547 135.33789 C 53.547195 138.30259 57.600005 139 63 139 L 102 139 L 102 131 L 63 131 C 58.400005 131 56.952802 130.1974 56.689453 129.91211 C 56.426105 129.62682 56 128.30952 56 125 L 56 52 L 48 52 z M 59 52 L 59 119 C 59 120.25 58.9823 121.24105 59.103516 122.33203 C 59.224736 123.42301 59.541567 124.94781 60.796875 126.20312 C 62.052183 127.45844 63.576988 127.77526 64.667969 127.89648 C 65.75895 128.0177 66.750001 128 68 128 L 102 128 L 102 120 L 68 120 C 67.500594 120 67.391049 119.98432 67.021484 119.97852 C 67.015684 119.60899 67 119.49941 67 119 L 67 52 L 59 52 z M 70.001953 52 L 70.001953 107.99805 C 70.001953 109.24805 69.982293 110.24105 70.103516 111.33203 C 70.224736 112.42301 70.541567 113.94781 71.796875 115.20312 C 73.052183 116.45844 74.576988 116.77526 75.667969 116.89648 C 76.75895 117.0177 77.751954 116.99805 79.001953 116.99805 L 102 116.99805 L 102 108.99805 L 79.001953 108.99805 C 78.502547 108.99805 78.392997 108.98236 78.023438 108.97656 C 78.017638 108.607 78.001953 108.49745 78.001953 107.99805 L 78.001953 52 L 70.001953 52 z M 81.001953 52 L 81.001953 96.998047 C 81.001953 98.248054 80.982293 99.241056 81.103516 100.33203 C 81.224736 101.42301 81.541567 102.94783 82.796875 104.20312 C 84.052183 105.45844 85.576988 105.77526 86.667969 105.89648 C 87.75895 106.0177 88.751954 105.99805 90.001953 105.99805 L 102 105.99805 L 102 97.998047 L 90.001953 97.998047 C 89.502547 97.998047 89.393002 97.982362 89.023438 97.976562 C 89.017638 97.607002 89.001953 97.49745 89.001953 96.998047 L 89.001953 52 L 81.001953 52 z M 92 52 L 92 60 L 131 60 C 135.6 60 137.0472 60.802601 137.31055 61.087891 C 137.5739 61.373181 138 62.69048 138 66 L 138 139 L 146 139 L 146 66 C 146 62.30953 145.92609 58.626809 143.18945 55.662109 C 140.4528 52.697409 136.4 52 131 52 L 92 52 z M 92 63 L 92 71 L 126 71 C 126.49941 71 126.60895 71.015684 126.97852 71.021484 C 126.98452 71.391014 127 71.50059 127 72 L 127 139 L 135 139 L 135 72 C 135 70.75 135.01769 69.758949 134.89648 68.667969 C 134.77526 67.576989 134.45844 66.052185 133.20312 64.796875 C 131.94781 63.541555 130.42302 63.224736 129.33203 63.103516 C 128.24105 62.982296 127.25 63 126 63 L 92 63 z M 92 74.001953 L 92 82.001953 L 114.99805 82.001953 C 115.49746 82.001953 115.60699 82.017637 115.97656 82.023438 C 115.98256 82.392998 115.99805 82.502553 115.99805 83.001953 L 115.99805 139 L 123.99805 139 L 123.99805 83.001953 C 123.99805 81.751953 124.01774 80.758949 123.89648 79.667969 C 123.77526 78.576989 123.45844 77.052185 122.20312 75.796875 C 120.94782 74.541555 119.42302 74.224736 118.33203 74.103516 C 117.24105 73.982296 116.24805 74.001953 114.99805 74.001953 L 92 74.001953 z M 92 85.001953 L 92 93.001953 L 103.99805 93.001953 C 104.49746 93.001953 104.60699 93.017648 104.97656 93.023438 C 104.98256 93.392998 104.99805 93.50255 104.99805 94.001953 L 104.99805 139 L 112.99805 139 L 112.99805 94.001953 C 112.99805 92.751946 113.01774 91.758944 112.89648 90.667969 C 112.77526 89.576989 112.45844 88.052165 111.20312 86.796875 C 109.94782 85.541555 108.42302 85.224736 107.33203 85.103516 C 106.24105 84.982296 105.24805 85.001953 103.99805 85.001953 L 92 85.001953 z " />
</svg>
