<?xml version="1.0" encoding="UTF-8" standalone="no"?>
<svg
   xmlns:dc="http://purl.org/dc/elements/1.1/"
   xmlns:cc="http://creativecommons.org/ns#"
   xmlns:rdf="http://www.w3.org/1999/02/22-rdf-syntax-ns#"
   xmlns:svg="http://www.w3.org/2000/svg"
   xmlns="http://www.w3.org/2000/svg"
   xmlns:sodipodi="http://sodipodi.sourceforge.net/DTD/sodipodi-0.dtd"
   xmlns:inkscape="http://www.inkscape.org/namespaces/inkscape"
   width="48"
   height="48"
   version="1"
   id="svg14"
   sodipodi:docname="apps_autoairplanemode.svg"
   inkscape:version="0.92.2 (unknown)">
  <metadata
     id="metadata20">
    <rdf:RDF>
      <cc:Work
         rdf:about="">
        <dc:format>image/svg+xml</dc:format>
        <dc:type
           rdf:resource="http://purl.org/dc/dcmitype/StillImage" />
        <dc:title></dc:title>
      </cc:Work>
    </rdf:RDF>
  </metadata>
  <defs
     id="defs18" />
  <sodipodi:namedview
     pagecolor="#ffffff"
     bordercolor="#666666"
     borderopacity="1"
     objecttolerance="10"
     gridtolerance="10"
     guidetolerance="10"
     inkscape:pageopacity="0"
     inkscape:pageshadow="2"
     inkscape:window-width="1920"
     inkscape:window-height="1016"
     id="namedview16"
     showgrid="false"
     inkscape:zoom="8"
     inkscape:cx="24"
     inkscape:cy="24"
     inkscape:window-x="0"
     inkscape:window-y="34"
     inkscape:window-maximized="1"
     inkscape:current-layer="svg14">
    <inkscape:grid
       type="xygrid"
       id="grid827" />
  </sodipodi:namedview>
  <path
     d="M 4.0117,24 C 4.0076,24.167 4,24.332 4,24.5 c 0,11.08 8.92,20 20,20 11.08,0 20,-8.92 20,-20 C 44,24.332 43.992,24.167 43.988,24 43.724,34.846 34.912,43.5 24,43.5 13.088,43.5 4.276,34.846 4.012,24 Z"
     id="path6"
     inkscape:connector-curvature="0"
     style="opacity:0.2" />
  <rect
     width="40"
     height="39.995998"
     x="-44"
     y="-44"
     rx="20"
     ry="19.997999"
     transform="matrix(0,-1,-1,0,0,0)"
     id="rect2"
     style="fill:#604abf;fill-opacity:1" />
  <path
     inkscape:connector-curvature="0"
     d="M 24,4 C 12.921,4 4.0019531,12.92 4.0019531,24 c 0,0.16772 -0.004,0.33329 0,0.5 0,-11.08 8.9190469,-20 19.9980469,-20 11.079,0 19.998047,8.92 19.998047,20 0.004,-0.16671 0,-0.33228 0,-0.5 C 43.998047,12.92 35.079,4 24,4 Z"
     id="path4"
     style="opacity:0.1;fill:#ffffff" />
  <path
     id="path857"
     d="m 24,12.5 a 12,12 0 0 0 -12,12 12,12 0 0 0 12,12 12,12 0 0 0 12,-12 A 12,12 0 0 0 35.92773,23.296875 7.6480603,7.6480603 0 0 1 30,15.851562 7.6480603,7.6480603 0 0 1 30.177734,14.228516 12,12 0 0 0 24,12.5 Z"
     style="opacity:0.2;fill:#000000;fill-opacity:1;stroke:none;stroke-width:6.53197289;stroke-linecap:round;stroke-linejoin:round;stroke-miterlimit:4;stroke-dasharray:none;stroke-opacity:1"
     inkscape:connector-curvature="0" />
  <path
     inkscape:connector-curvature="0"
     style="opacity:1;fill:#ffffb4;fill-opacity:1;stroke:none;stroke-width:6.53197289;stroke-linecap:round;stroke-linejoin:round;stroke-miterlimit:4;stroke-dasharray:none;stroke-opacity:1"
     d="M 24,12 A 12,12 0 0 0 12,24 12,12 0 0 0 24,36 12,12 0 0 0 36,24 12,12 0 0 0 35.927734,22.796875 7.6480603,7.6480603 0 0 1 30,15.351562 7.6480603,7.6480603 0 0 1 30.177734,13.728516 12,12 0 0 0 24,12 Z"
     id="path843" />
  <path
     inkscape:connector-curvature="0"
     style="opacity:0.2;fill:#000000;fill-opacity:1;stroke:none;stroke-width:6.11010075;stroke-linecap:round;stroke-linejoin:round;stroke-miterlimit:4;stroke-dasharray:none;stroke-opacity:1"
     d="M 22.5,16 A 3.5,3.5 0 0 0 19,19.5 3.5,3.5 0 0 0 22.5,23 3.5,3.5 0 0 0 26,19.5 3.5,3.5 0 0 0 22.5,16 Z m 5,1 A 1.5,1.5 0 0 0 26,18.5 1.5,1.5 0 0 0 27.5,20 1.5,1.5 0 0 0 29,18.5 1.5,1.5 0 0 0 27.5,17 Z m 2.5,2 a 2,2 0 0 0 -2,2 2,2 0 0 0 2,2 2,2 0 0 0 2,-2 2,2 0 0 0 -2,-2 z m -6,10 a 2,2 0 0 0 -2,2 2,2 0 0 0 2,2 2,2 0 0 0 2,-2 2,2 0 0 0 -2,-2 z"
     id="path848" />
  <path
     inkscape:connector-curvature="0"
     style="opacity:0.2;fill:#ffffff;fill-opacity:1;stroke:none;stroke-width:6.53197289;stroke-linecap:round;stroke-linejoin:round;stroke-miterlimit:4;stroke-dasharray:none;stroke-opacity:1"
     d="M 24,12 A 12,12 0 0 0 12,24 12,12 0 0 0 12.0098,24.203125 12,12 0 0 1 24,12.5 12,12 0 0 1 30.101562,14.1875 7.6480603,7.6480603 0 0 1 30.177734,13.728516 12,12 0 0 0 24,12 Z m 6.007812,3.685547 A 7.6480603,7.6480603 0 0 0 30,15.851562 a 7.6480603,7.6480603 0 0 0 5.927734,7.445313 12,12 0 0 1 0.06055,1.021484 A 12,12 0 0 0 36,24 12,12 0 0 0 35.927734,22.796875 7.6480603,7.6480603 0 0 1 30.007812,15.685547 Z"
     id="path859" />
</svg>
