<?xml version="1.0" encoding="UTF-8" standalone="no"?>
<svg
   width="192"
   height="192"
   version="1"
   id="svg14"
   sodipodi:docname="apps_boom.svg"
   inkscape:version="1.1.1 (1:1.1+202109281949+c3084ef5ed)"
   xmlns:inkscape="http://www.inkscape.org/namespaces/inkscape"
   xmlns:sodipodi="http://sodipodi.sourceforge.net/DTD/sodipodi-0.dtd"
   xmlns="http://www.w3.org/2000/svg"
   xmlns:svg="http://www.w3.org/2000/svg"
   xmlns:rdf="http://www.w3.org/1999/02/22-rdf-syntax-ns#"
   xmlns:cc="http://creativecommons.org/ns#"
   xmlns:dc="http://purl.org/dc/elements/1.1/">
  <metadata
     id="metadata20">
    <rdf:RDF>
      <cc:Work
         rdf:about="">
        <dc:format>image/svg+xml</dc:format>
        <dc:type
           rdf:resource="http://purl.org/dc/dcmitype/StillImage" />
      </cc:Work>
    </rdf:RDF>
  </metadata>
  <defs
     id="defs18">
    <filter
       inkscape:collect="always"
       style="color-interpolation-filters:sRGB"
       id="filter850"
       x="-0.048000001"
       width="1.096"
       y="-0.048000001"
       height="1.096">
      <feGaussianBlur
         inkscape:collect="always"
         stdDeviation="3.2"
         id="feGaussianBlur852" />
    </filter>
    <filter
       inkscape:collect="always"
       style="color-interpolation-filters:sRGB"
       id="filter11623"
       x="-0.12321429"
       y="-0.05390625"
       width="1.2464286"
       height="1.1078125">
      <feGaussianBlur
         inkscape:collect="always"
         stdDeviation="2.875"
         id="feGaussianBlur11625" />
    </filter>
    <filter
       inkscape:collect="always"
       style="color-interpolation-filters:sRGB"
       id="filter4833"
       x="-0.05"
       y="-0.15"
       width="1.1"
       height="1.3">
      <feGaussianBlur
         inkscape:collect="always"
         stdDeviation="0.75"
         id="feGaussianBlur4835" />
    </filter>
  </defs>
  <sodipodi:namedview
     pagecolor="#ffffff"
     bordercolor="#666666"
     borderopacity="1"
     objecttolerance="10"
     gridtolerance="10"
     guidetolerance="10"
     inkscape:pageopacity="0"
     inkscape:pageshadow="2"
     inkscape:window-width="1920"
     inkscape:window-height="1022"
     id="namedview16"
     showgrid="false"
     inkscape:zoom="1"
     inkscape:cx="81"
     inkscape:cy="77"
     inkscape:window-x="0"
     inkscape:window-y="34"
     inkscape:window-maximized="1"
     inkscape:current-layer="svg14"
     inkscape:pagecheckerboard="0"
     inkscape:snap-bbox="true"
     inkscape:snap-bbox-midpoints="true"
     inkscape:snap-global="false">
    <inkscape:grid
       type="xygrid"
       id="grid5193" />
  </sodipodi:namedview>
  <circle
     style="opacity:0.2;fill:#000000;stroke-width:4;filter:url(#filter850)"
     cx="96"
     cy="100"
     r="80"
     id="circle832" />
  <circle
     id="circle4"
     r="80"
     cy="96"
     cx="96"
     style="fill:#787878;stroke-width:4;fill-opacity:1" />
  <path
     style="opacity:0.1;fill:#ffffff;stroke-width:4"
     d="M 96 16 A 80 80 0 0 0 16 96 A 80 80 0 0 0 16.019531 96.472656 A 80 80 0 0 1 96 17 A 80 80 0 0 1 175.97461 96.513672 A 80 80 0 0 0 176 96 A 80 80 0 0 0 96 16 z "
     id="path6" />
  <path
     id="path11585"
     style="opacity:0.2;fill:#000000;fill-opacity:1;stroke:none;stroke-width:3.51168;stroke-linecap:round;stroke-linejoin:round;filter:url(#filter11623)"
     d="m 94,34 c -0.554,0 -1,0.446 -1,1 V 59 H 69 c -0.554,0 -1,0.446 -1,1 v 4 c 0,0.554 0.446,1 1,1 h 24 v 24 c 0,0.554 0.446,1 1,1 h 4 c 0.554,0 1,-0.446 1,-1 V 65 h 24 c 0.554,0 1,-0.446 1,-1 v -4 c 0,-0.554 -0.446,-1 -1,-1 H 99 V 35 c 0,-0.554 -0.446,-1 -1,-1 z m 0,72 c -0.554,0 -1,0.446 -1,1 v 54 c 0,0.554 0.446,1 1,1 h 4 c 0.554,0 1,-0.446 1,-1 v -54 c 0,-0.554 -0.446,-1 -1,-1 z" />
  <path
     id="rect1025"
     style="opacity:1;fill:#ffb912;stroke:none;stroke-width:3.51168;stroke-linecap:round;stroke-linejoin:round;fill-opacity:1"
     d="M 94 32 C 93.446 32 93 32.446 93 33 L 93 57 L 69 57 C 68.446 57 68 57.446 68 58 L 68 62 C 68 62.554 68.446 63 69 63 L 93 63 L 93 87 C 93 87.554 93.446 88 94 88 L 98 88 C 98.554 88 99 87.554 99 87 L 99 63 L 123 63 C 123.554 63 124 62.554 124 62 L 124 58 C 124 57.446 123.554 57 123 57 L 99 57 L 99 33 C 99 32.446 98.554 32 98 32 L 94 32 z M 94 104 C 93.446 104 93 104.446 93 105 L 93 159 C 93 159.554 93.446 160 94 160 L 98 160 C 98.554 160 99 159.554 99 159 L 99 105 C 99 104.446 98.554 104 98 104 L 94 104 z " />
  <path
     id="path11627"
     style="opacity:0.2;fill:#ffffff;stroke:none;stroke-width:3.51168;stroke-linecap:round;stroke-linejoin:round;fill-opacity:1"
     d="M 94 32 C 93.446 32 93 32.446 93 33 L 93 34 C 93 33.446 93.446 33 94 33 L 98 33 C 98.554 33 99 33.446 99 34 L 99 33 C 99 32.446 98.554 32 98 32 L 94 32 z M 69 57 C 68.446 57 68 57.446 68 58 L 68 59 C 68 58.446 68.446 58 69 58 L 93 58 L 93 57 L 69 57 z M 99 57 L 99 58 L 123 58 C 123.554 58 124 58.446 124 59 L 124 58 C 124 57.446 123.554 57 123 57 L 99 57 z M 94 104 C 93.446 104 93 104.446 93 105 L 93 106 C 93 105.446 93.446 105 94 105 L 98 105 C 98.554 105 99 105.446 99 106 L 99 105 C 99 104.446 98.554 104 98 104 L 94 104 z " />
  <path
     id="path4785"
     style="opacity:0.2;fill:#000000;fill-opacity:1;stroke-width:3.13339;stroke-linecap:round;stroke-linejoin:round;stroke-miterlimit:4;stroke-dasharray:none;filter:url(#filter4833)"
     d="m 114,125 v 7 c 0,2.77 2.23,5 5,5 h 7 c 2.05702,0 3.81464,-1.23061 4.58398,-2.99805 h 0.0117 A 1.5,1.5 0 0 1 132,133 a 1.5,1.5 0 0 1 1.41406,1.00195 h 0.002 C 134.18536,135.76939 135.94298,137 138,137 h 7 c 2.4272,0 4.43943,-1.7126 4.90039,-4 h -2.06445 c -0.399,1.18154 -1.49325,2 -2.83594,2 h -7 c -1.69659,0 -3,-1.30341 -3,-3 v -2 c 0,-1.69659 1.30341,-3 3,-3 h 7 c 1.34269,0 2.43694,0.81846 2.83594,2 H 137 v 2 h 11 1.72266 H 150 v -1 c 0,-2.77 -2.23,-5 -5,-5 h -7 c -2.63018,0 -4.77274,2.01161 -4.98242,4.58594 A 1.5,1.5 0 0 1 132,130 1.5,1.5 0 0 1 131,129.60156 V 125 h -2 v 7 c 0,1.69659 -1.30341,3 -3,3 h -7 c -1.69659,0 -3,-1.30341 -3,-3 v -7 z" />
  <g
     id="g4011"
     transform="translate(30,122)"
     style="fill:#ffb912;fill-opacity:1">
    <path
       id="rect2372"
       style="opacity:1;fill:#ffb912;fill-opacity:1;stroke-width:3.13339;stroke-linecap:round;stroke-linejoin:round;stroke-miterlimit:4;stroke-dasharray:none"
       d="m 108,2 c -2.77,0 -5,2.23 -5,5 v 2 c 0,2.77 2.23,5 5,5 h 7 c 2.4272,0 4.43943,-1.7126 4.90039,-4 h -2.06445 c -0.399,1.181536 -1.49325,2 -2.83594,2 h -7 c -1.69659,0 -3,-1.303407 -3,-3 V 7 c 0,-1.6965928 1.30341,-3 3,-3 h 7 c 1.34269,0 2.43694,0.8184643 2.83594,2 H 107 v 2 h 11 1.72266 H 120 V 7 c 0,-2.77 -2.23,-5 -5,-5 z" />
    <path
       id="path3290"
       style="opacity:1;fill:#ffb912;fill-opacity:1;stroke-width:3.13339;stroke-linecap:round;stroke-linejoin:round;stroke-miterlimit:4;stroke-dasharray:none"
       d="m 84,2 v 7 c 0,2.77 2.23,5 5,5 h 7 c 2.77,0 5,-2.23 5,-5 V 2 h -2 v 7 c 0,1.696593 -1.30341,3 -3,3 H 89 C 87.30341,12 86,10.696593 86,9 V 2 Z"
       sodipodi:nodetypes="cssssccsssscc" />
    <path
       id="rect3746"
       style="opacity:1;fill:#ffb912;fill-opacity:1;stroke:none;stroke-width:4.55142;stroke-linecap:round;stroke-linejoin:round;stroke-miterlimit:4;stroke-dasharray:none;stroke-opacity:1"
       d="m 100.33008,6.3574219 v 4.6445311 h 0.26562 A 1.5,1.5 0 0 1 102,10 a 1.5,1.5 0 0 1 1.41406,1.001953 h 0.15039 V 6.3574219 H 103.2207 A 1.5,1.5 0 0 1 102,7 1.5,1.5 0 0 1 100.7793,6.3574219 Z" />
  </g>
</svg>
