<?xml version="1.0" encoding="UTF-8" standalone="no"?>
<svg
   width="192"
   height="192"
   version="1"
   id="svg14"
   sodipodi:docname="apps_flipaclip.svg"
   inkscape:version="1.1.1 (1:1.1+202109281949+c3084ef5ed)"
   xmlns:inkscape="http://www.inkscape.org/namespaces/inkscape"
   xmlns:sodipodi="http://sodipodi.sourceforge.net/DTD/sodipodi-0.dtd"
   xmlns="http://www.w3.org/2000/svg"
   xmlns:svg="http://www.w3.org/2000/svg"
   xmlns:rdf="http://www.w3.org/1999/02/22-rdf-syntax-ns#"
   xmlns:cc="http://creativecommons.org/ns#"
   xmlns:dc="http://purl.org/dc/elements/1.1/">
  <metadata
     id="metadata20">
    <rdf:RDF>
      <cc:Work
         rdf:about="">
        <dc:format>image/svg+xml</dc:format>
        <dc:type
           rdf:resource="http://purl.org/dc/dcmitype/StillImage" />
      </cc:Work>
    </rdf:RDF>
  </metadata>
  <defs
     id="defs18">
    <filter
       inkscape:collect="always"
       style="color-interpolation-filters:sRGB"
       id="filter850"
       x="-0.048000001"
       width="1.096"
       y="-0.048000001"
       height="1.096">
      <feGaussianBlur
         inkscape:collect="always"
         stdDeviation="3.2"
         id="feGaussianBlur852" />
    </filter>
    <filter
       inkscape:collect="always"
       style="color-interpolation-filters:sRGB"
       id="filter8205"
       x="-0.068044341"
       y="-0.083539629"
       width="1.1360887"
       height="1.1670793">
      <feGaussianBlur
         inkscape:collect="always"
         stdDeviation="3.5156242"
         id="feGaussianBlur8207" />
    </filter>
    <filter
       inkscape:collect="always"
       style="color-interpolation-filters:sRGB"
       id="filter8250"
       x="-0.073971865"
       y="-0.076057119"
       width="1.1479437"
       height="1.1521142">
      <feGaussianBlur
         inkscape:collect="always"
         stdDeviation="0.85408019"
         id="feGaussianBlur8252" />
    </filter>
  </defs>
  <sodipodi:namedview
     pagecolor="#ffffff"
     bordercolor="#666666"
     borderopacity="1"
     objecttolerance="10"
     gridtolerance="10"
     guidetolerance="10"
     inkscape:pageopacity="0"
     inkscape:pageshadow="2"
     inkscape:window-width="1920"
     inkscape:window-height="1016"
     id="namedview16"
     showgrid="false"
     inkscape:zoom="1"
     inkscape:cx="95.5"
     inkscape:cy="105.5"
     inkscape:window-x="0"
     inkscape:window-y="32"
     inkscape:window-maximized="1"
     inkscape:current-layer="svg14"
     inkscape:pagecheckerboard="0"
     inkscape:snap-bbox="true"
     inkscape:snap-bbox-midpoints="true"
     inkscape:snap-global="true">
    <inkscape:grid
       type="xygrid"
       id="grid5193" />
  </sodipodi:namedview>
  <circle
     style="opacity:0.2;fill:#000000;stroke-width:4;filter:url(#filter850)"
     cx="96"
     cy="100"
     r="80"
     id="circle832" />
  <circle
     id="circle4"
     r="80"
     cy="96"
     cx="96"
     style="fill:#e4e4e4;stroke-width:4;fill-opacity:1" />
  <path
     style="opacity:0.2;fill:#000000;fill-opacity:1;stroke-width:0.426968;filter:url(#filter8205)"
     d="m 119.33706,150.91146 c -0.62349,-0.73885 -1.39865,-1.84797 -1.72257,-2.46471 -2.33929,-4.45404 -11.16768,-15.82824 -12.28654,-15.82958 -0.39618,-4.2e-4 -2.12789,0.30681 -3.84827,0.68283 -1.862097,0.40701 -5.377475,0.70566 -8.686574,0.73797 -4.907958,0.048 -6.019811,-0.0823 -9.498571,-1.11224 -2.166972,-0.64161 -4.452425,-1.39939 -5.078782,-1.68394 -1.054244,-0.47897 -1.237992,-0.40373 -2.473844,1.0128 -0.734256,0.84159 -3.143879,3.61755 -5.35472,6.16875 -7.022967,8.1042 -11.128303,12.16706 -12.011739,11.88748 -2.64191,-0.83609 -4.706484,-4.11639 -4.706484,-7.4779 0,-1.84271 0.194129,-2.3751 1.249869,-3.4278 1.293943,-1.2902 2.860484,-1.59275 4.291887,-0.82889 1.004375,0.53597 1.727209,2.61828 1.727209,4.97565 0,1.02021 0.189452,1.85494 0.421002,1.85494 0.231551,0 2.396207,-2.33798 4.810345,-5.19549 2.41414,-2.85755 5.433932,-6.34662 6.710655,-7.75356 2.111997,-2.32739 2.250609,-2.59895 1.537224,-3.01173 -0.431247,-0.24954 -2.277595,-1.55915 -4.102995,-2.91027 -3.516033,-2.6025 -5.746104,-5.00906 -8.198949,-8.84783 -1.457911,-2.28167 -1.601537,-2.38008 -4.867346,-3.3352 -1.850811,-0.54128 -6.535086,-2.23225 -10.409509,-3.7577 -6.95061,-2.73663 -7.063238,-2.7646 -8.459331,-2.10077 -0.778216,0.37003 -1.782325,0.67279 -2.231355,0.67279 -1.239466,0 -2.147672,-1.65254 -2.147672,-3.90784 0,-2.28298 0.983568,-3.3401 3.10768,-3.3401 1.465941,0 3.301739,1.7 3.317004,3.07166 0.0097,0.86975 0.782876,1.27219 6.948276,3.61657 6.214234,2.36294 12.293035,4.47358 12.275796,4.26232 -0.0034,-0.0433 -0.498909,-1.61349 -1.100843,-3.48944 -1.374587,-4.2839 -1.953363,-10.68938 -1.271504,-18.119877 0.770634,-8.397933 2.950271,-14.258713 8.044166,-23.222864 3.420326,-6.01903 8.657485,-11.510114 12.838518,-13.461002 5.035716,-2.349681 10.546211,-3.539331 16.558152,-3.574699 6.120295,-0.03603 7.925565,0.453736 17.096735,4.638006 10.22443,4.664803 18.01049,10.305468 23.27418,16.861151 4.81224,5.993423 7.09749,9.932367 8.29762,15.294329 0.97266,4.34561 0.88453,6.054211 -0.54834,10.630845 -0.99021,3.162741 -1.61841,4.380351 -3.09522,5.999151 -1.01909,1.11705 -3.11084,3.34638 -4.40428,4.95404 -1.29345,1.60767 -3.87707,4.51988 -5.74138,6.47159 -1.86428,1.95171 -3.20864,3.54856 -2.98744,3.54856 0.2212,0 3.07382,-0.57191 6.33913,-1.27091 3.26532,-0.69903 7.88614,-1.55952 10.2685,-1.91225 4.94364,-0.73193 8.36946,-1.77094 8.36946,-2.53832 0,-0.95163 1.94778,-2.67794 3.2462,-2.67794 1.92175,0 3.16759,1.37226 3.16759,3.02814 0,2.34584 -2.44472,3.79257 -4.69288,2.59286 -0.55545,-0.29641 -1.24048,-0.43274 -2.31861,0.0164 -0.84164,0.35062 -4.27439,1.10845 -7.62834,1.68407 -3.35395,0.5756 -8.3557,1.53324 -11.11498,2.12811 -2.75927,0.59485 -5.75213,1.08155 -6.65076,1.08155 -1.81356,0 -4.16476,1.31112 -7.45534,4.15735 -1.11073,0.96075 -2.45763,1.88177 -2.9931,2.04672 -0.7501,0.23107 -6.17985,3.19286 -7.13197,3.89032 -0.0948,0.0693 1.3562,1.99941 3.22423,4.28898 3.60261,4.41557 7.42383,9.72398 7.42383,10.31318 0,0.19453 0.28862,0.59256 0.64137,0.88447 0.55415,0.45859 0.64139,0.26654 0.64139,-1.41226 0,-3.61253 1.25681,-5.40934 3.78367,-5.40934 1.85587,0 3.24299,0.8542 4.11383,2.53334 1.12241,2.16424 -0.46449,5.39116 -3.75694,7.63965 -2.83487,1.936 -3.44401,1.99346 -4.74834,0.44784 z m -18.20602,-19.54723 c 4.17986,-1.04938 12.32376,-4.88771 15.82996,-7.46084 9.54023,-7.0014 20.20558,-18.35158 23.81231,-25.608253 1.48885,-2.995556 1.76599,-5.870541 0.94699,-9.824084 -1.30703,-6.309451 -4.65674,-11.510142 -11.22805,-18.207759 -4.09869,-4.177488 -8.02151,-6.987316 -15.57707,-11.157569 -7.85665,-4.336433 -16.498568,-6.92264 -21.694488,-6.492384 -3.843602,0.31827 -10.935839,2.112755 -13.682759,3.462001 -2.814372,1.382386 -9.188594,7.665465 -11.172872,11.013138 -7.405443,12.493666 -9.461623,18.874915 -9.46347,31.846176 -8.55e-4,5.453814 0.27703,5.982944 1.68336,10.087024 1.957711,5.71317 3.704884,8.55884 7.83574,12.76236 4.137675,4.21048 7.558309,6.47411 12.515364,8.28214 7.321481,2.67044 13.218836,3.04951 20.194985,1.29805 z m -19.148608,-1.7627 c -3.237504,-0.56332 -5.182974,-1.69613 -7.854861,-4.57375 -3.396272,-3.65776 -4.000935,-5.09759 -3.975092,-9.46547 0.03318,-5.60784 2.177859,-10.32316 6.914446,-15.20218 l 1.804859,-1.859136 2.16903,1.330762 c 2.300183,1.411224 5.978451,2.940054 7.073581,2.940054 0.475197,0 0.289834,-0.45549 -0.670025,-1.64645 -2.635371,-3.269899 -3.381561,-9.298633 -1.648182,-13.316325 0.50238,-1.164456 0.839104,-2.182083 0.748276,-2.261414 -0.09083,-0.0793 -2.044917,-0.277201 -4.342407,-0.439704 l -4.177257,-0.295473 0.858922,2.253965 c 0.683198,1.792838 0.750504,2.362036 0.328982,2.782193 -0.773967,0.771452 -1.297063,0.224356 -2.518646,-2.634158 -1.038753,-2.430714 -1.178937,-2.568619 -2.910695,-2.863396 -3.430043,-0.583867 -3.837383,-2.007194 -1.670213,-5.83611 0.971122,-1.715751 1.437855,-3.232268 1.693017,-5.500959 0.771199,-6.856901 4.040885,-10.941582 10.826994,-13.525734 1.071298,-0.407942 2.130318,-0.960995 2.353376,-1.228989 0.536343,-0.644386 8.922887,-0.449991 11.7878,0.273229 1.334063,0.336768 2.182713,0.797795 2.265813,1.230903 0.18831,0.981382 -0.79174,1.225627 -2.956463,0.736852 -1.901759,-0.429405 -7.103332,-0.616623 -7.452725,-0.268249 -0.105483,0.105262 0.202253,1.32591 0.683869,2.712708 0.48161,1.386813 1.43084,4.750133 2.109393,7.474048 0.678557,2.723916 1.516251,5.626763 1.86154,6.450762 l 0.627803,1.498203 3.837175,-0.218157 c 3.451788,-0.19624 4.071908,-0.110937 6.174198,0.848682 1.60994,0.734922 2.63882,1.553758 3.30713,2.63196 l 0.97011,1.565133 2.96645,-5.88013 c 3.28372,-6.509009 5.3289,-8.99739 6.76501,-8.231016 1.93297,1.031502 8.04184,11.010414 9.66019,15.78004 1.38343,4.077262 2.08468,7.719585 1.74559,9.066747 -0.4346,1.726518 -3.42438,2.445593 -10.16839,2.445593 -7.21807,0 -9.36833,0.465936 -10.41235,2.256221 -0.43868,0.752258 -1.28597,2.014925 -1.88285,2.805895 -0.88383,1.17122 -1.10806,2.00213 -1.20816,4.47667 -0.0676,1.6712 -0.32971,4.58294 -0.58247,6.47055 l -0.45955,3.43201 1.73633,3.17643 c 2.43243,4.44983 2.33527,5.84575 -0.38957,5.59713 -0.35276,-0.0322 -1.93891,-0.0799 -3.5248,-0.10582 -2.78942,-0.0459 -2.94769,0.009 -4.854347,1.68254 -2.971579,2.60813 -5.949208,3.61038 -11.076018,3.72816 -2.351725,0.054 -5.292392,-0.0787 -6.534813,-0.29482 z m 24.971118,-7.76498 c 0.28838,-0.28754 -1.0953,-3.28978 -1.51617,-3.28978 -0.24417,0 -1.0541,1.36611 -2.08681,3.51984 -0.17229,0.35934 3.22976,0.14209 3.60298,-0.23006 z m -6.30351,-19.01529 c 3.07195,-0.95331 6.10206,-2.6496 7.18421,-4.021757 0.66849,-0.847633 0.77733,-1.804301 0.76405,-6.715308 -0.0142,-5.266912 -0.10017,-5.880953 -1.06897,-7.645433 -1.51031,-2.750586 -4.02092,-3.984356 -7.43496,-3.653687 -1.422894,0.137749 -2.86837,0.54779 -3.297867,0.935347 -0.420556,0.379498 -1.060572,0.576772 -1.422255,0.438385 -0.952234,-0.364346 -4.887593,2.986235 -6.424637,5.469961 -1.145513,1.851046 -1.284285,2.436516 -1.258031,5.307585 0.03351,3.666228 0.872134,5.732763 3.246815,8.000957 2.846579,2.71893 5.415375,3.21724 9.711645,1.88395 z M 90.434742,97.434467 c -0.703388,-0.845094 -0.294111,-5.013404 0.630398,-6.420304 0.839724,-1.277874 2.177548,-1.334137 2.82975,-0.119022 0.701772,1.307482 0.282229,5.280318 -0.668201,6.327495 -0.927141,1.021515 -2.047267,1.106491 -2.791947,0.211816 z m 9.856168,-0.177173 c -0.607047,-1.131004 -0.545585,-4.276139 0.10885,-5.570585 1.26151,-2.495175 3.72437,-0.919798 3.72437,2.382295 0,3.043873 -2.70371,5.292688 -3.83322,3.18829 z m 14.08875,-3.545417 c -0.006,-0.775722 -0.0859,-0.836908 -0.42103,-0.319774 -0.53574,0.826595 -0.53574,1.279053 0,1.279053 0.23516,0 0.42464,-0.431675 0.42103,-0.959279 z m 12.44006,0.526596 c 1.2585,-0.237976 2.45715,-0.601188 2.66368,-0.807117 0.52165,-0.520141 -0.39713,-4.71417 -1.87678,-8.567018 -1.37799,-3.588161 -4.92477,-9.964656 -6.91877,-12.438737 -1.22979,-1.525908 -1.36484,-1.586938 -2.08103,-0.940665 -1.00543,0.907271 -4.70601,8.064198 -4.35215,8.417055 0.63811,0.636256 1.28547,0.219846 1.10682,-0.711955 -0.20937,-1.092105 0.95509,-2.389132 1.56814,-1.746676 0.53218,0.557735 2.58761,12.151548 2.58761,14.595652 0,1.135019 0.12833,2.191587 0.28507,2.347906 0.42783,0.426612 4.42337,0.34209 7.01741,-0.148445 z m -13.67617,-10.78298 c -0.33853,-0.337534 -0.46769,-0.226909 -0.46769,0.40058 0,1.12716 0.59797,1.725454 0.78838,0.788816 0.0808,-0.397685 -0.0634,-0.932906 -0.32069,-1.189396 z M 75.015748,82.413595 c -0.01787,-0.175869 -0.267866,-0.968431 -0.555498,-1.761261 l -0.522973,-1.441486 -0.759748,1.15617 c -0.417864,0.635902 -0.65496,1.428464 -0.526884,1.761261 0.235535,0.612025 2.425214,0.876175 2.365103,0.285316 z m 5.591964,-3.517386 c 1.718576,-1.993192 4.771162,-5.299385 6.783532,-7.34711 l 3.658847,-3.723129 -1.186049,-3.631414 c -0.926207,-2.835845 -1.360651,-3.631414 -1.983045,-3.631414 -0.528223,0 -2.515179,2.264576 -5.891826,6.715024 -5.778554,7.616167 -6.08572,8.11117 -6.08572,9.80723 0,1.200546 1.22343,5.878442 1.460262,5.583425 0.06563,-0.08171 1.525427,-1.779435 3.243999,-3.772612 z m 12.506084,1.119627 c 1.347508,-0.978246 1.382031,-1.101866 0.603996,-2.162818 -0.527296,-0.719033 -0.660596,-0.621517 -1.710345,1.251262 -0.626161,1.117087 -1.138479,2.114158 -1.138479,2.215704 0,0.225336 0.690916,-0.176052 2.244828,-1.304148 z M 80.831618,65.999113 c 1.51619,-2.051809 2.595795,-3.730562 2.399118,-3.730562 -0.690638,0 -3.830105,2.514993 -4.923112,3.943867 -1.054754,1.378854 -2.421379,4.580324 -2.388796,5.596022 0.01893,0.589923 1.327351,-0.957279 4.91279,-5.809327 z"
     id="path8167"
     sodipodi:nodetypes="sccscccscsssssscsssssssssscscssssssssssssssssssssssssscsssssssscsssssssscsssccssscsssssscssssssssssscssscscscssssssssscssccccsssssscccssssssssssssssssccscssssssssscscsccsscssssscsssscsssssssssss" />
  <path
     style="opacity:0.2;fill:#ffffff;stroke-width:4"
     d="M 96 16 A 80 80 0 0 0 16 96 A 80 80 0 0 0 16.019531 96.472656 A 80 80 0 0 1 96 17 A 80 80 0 0 1 175.97461 96.513672 A 80 80 0 0 0 176 96 A 80 80 0 0 0 96 16 z "
     id="path6" />
  <path
     style="fill:#38adfa"
     d="m 688.80525,256.99648 c -0.33229,-0.33229 -1.1948,-0.36781 -1.91667,-0.0789 -0.79773,0.31922 -0.56078,0.55618 0.60417,0.60416 1.05416,0.0434 1.64479,-0.19293 1.3125,-0.52522 z"
     id="path1063" />
  <path
     style="fill:#3f3f3f;fill-opacity:1;stroke-width:0.426968"
     d="m 119.33706,148.91142 c -0.62349,-0.73885 -1.39865,-1.84797 -1.72257,-2.46471 -2.33929,-4.45404 -11.16768,-15.82824 -12.28654,-15.82958 -0.39618,-4.2e-4 -2.12789,0.30681 -3.84827,0.68283 -1.862097,0.40701 -5.377475,0.70566 -8.686574,0.73797 -4.907958,0.048 -6.019811,-0.0823 -9.498571,-1.11224 -2.166972,-0.64161 -4.452425,-1.39939 -5.078782,-1.68394 -1.054244,-0.47897 -1.237992,-0.40373 -2.473844,1.0128 -0.734256,0.84159 -3.143879,3.61755 -5.35472,6.16875 -7.022967,8.1042 -11.128303,12.16706 -12.011739,11.88748 -2.64191,-0.83609 -4.706484,-4.11639 -4.706484,-7.4779 0,-1.84271 0.194129,-2.3751 1.249869,-3.4278 1.293943,-1.2902 2.860484,-1.59275 4.291887,-0.82889 1.004375,0.53597 1.727209,2.61828 1.727209,4.97565 0,1.02021 0.189452,1.85494 0.421002,1.85494 0.231551,0 2.396207,-2.33798 4.810345,-5.19549 2.41414,-2.85755 5.433932,-6.34662 6.710655,-7.75356 2.111997,-2.32739 2.250609,-2.59895 1.537224,-3.01173 -0.431247,-0.24954 -2.277595,-1.55915 -4.102995,-2.91027 -3.516033,-2.6025 -5.746104,-5.00906 -8.198949,-8.84783 -1.457911,-2.28167 -1.601537,-2.38008 -4.867346,-3.3352 -1.850811,-0.54128 -6.535086,-2.23225 -10.409509,-3.7577 -6.95061,-2.73663 -7.063238,-2.7646 -8.459331,-2.10077 -0.778216,0.37003 -1.782325,0.67279 -2.231355,0.67279 -1.239466,0 -2.147672,-1.65254 -2.147672,-3.90784 0,-2.28298 0.983568,-3.340107 3.10768,-3.340107 1.465941,0 3.301739,1.700007 3.317004,3.071667 0.0097,0.86975 0.782876,1.27219 6.948276,3.61657 6.214234,2.36294 12.293035,4.47358 12.275796,4.26232 -0.0034,-0.0433 -0.498909,-1.61349 -1.100843,-3.48944 -1.374587,-4.2839 -1.953363,-10.689384 -1.271504,-18.119881 0.770634,-8.397933 2.950271,-14.258713 8.044166,-23.222864 3.420326,-6.01903 8.657485,-11.510114 12.838518,-13.461002 5.035716,-2.349681 10.546211,-3.539331 16.558152,-3.574699 6.120295,-0.03603 7.925565,0.453736 17.096735,4.638006 10.22443,4.664803 18.01049,10.305468 23.27418,16.861151 4.81224,5.993423 7.09749,9.932367 8.29762,15.294329 0.97266,4.34561 0.88453,6.054211 -0.54834,10.630845 -0.99021,3.162741 -1.61841,4.380355 -3.09522,5.999155 -1.01909,1.11705 -3.11084,3.34638 -4.40428,4.95404 -1.29345,1.60767 -3.87707,4.51988 -5.74138,6.47159 -1.86428,1.95171 -3.20864,3.54856 -2.98744,3.54856 0.2212,0 3.07382,-0.57191 6.33913,-1.27091 3.26532,-0.69903 7.88614,-1.55952 10.2685,-1.91225 4.94364,-0.73193 8.36946,-1.77094 8.36946,-2.53832 0,-0.95163 1.94778,-2.67794 3.2462,-2.67794 1.92175,0 3.16759,1.37226 3.16759,3.02814 0,2.34584 -2.44472,3.79257 -4.69288,2.59286 -0.55545,-0.29641 -1.24048,-0.43274 -2.31861,0.0164 -0.84164,0.35062 -4.27439,1.10845 -7.62834,1.68407 -3.35395,0.5756 -8.3557,1.53324 -11.11498,2.12811 -2.75927,0.59485 -5.75213,1.08155 -6.65076,1.08155 -1.81356,0 -4.16476,1.31112 -7.45534,4.15735 -1.11073,0.96075 -2.45763,1.88177 -2.9931,2.04672 -0.7501,0.23107 -6.17985,3.19286 -7.13197,3.89032 -0.0948,0.0693 1.3562,1.99941 3.22423,4.28898 3.60261,4.41557 7.42383,9.72398 7.42383,10.31318 0,0.19453 0.28862,0.59256 0.64137,0.88447 0.55415,0.45859 0.64139,0.26654 0.64139,-1.41226 0,-3.61253 1.25681,-5.40934 3.78367,-5.40934 1.85587,0 3.24299,0.8542 4.11383,2.53334 1.12241,2.16424 -0.46449,5.39116 -3.75694,7.63965 -2.83487,1.936 -3.44401,1.99346 -4.74834,0.44784 z m -18.20602,-19.54723 c 4.17986,-1.04938 12.32376,-4.88771 15.82996,-7.46084 9.54023,-7.0014 20.20558,-18.35158 23.81231,-25.608257 1.48885,-2.995556 1.76599,-5.870541 0.94699,-9.824084 -1.30703,-6.309451 -4.65674,-11.510142 -11.22805,-18.207759 -4.09869,-4.177488 -8.02151,-6.987316 -15.57707,-11.157569 -7.85665,-4.336433 -16.498568,-6.92264 -21.694488,-6.492384 -3.843602,0.31827 -10.935839,2.112755 -13.682759,3.462001 -2.814372,1.382386 -9.188594,7.665465 -11.172872,11.013138 -7.405443,12.493666 -9.461623,18.874915 -9.46347,31.846176 -8.55e-4,5.453818 0.27703,5.982948 1.68336,10.087028 1.957711,5.71317 3.704884,8.55884 7.83574,12.76236 4.137675,4.21048 7.558309,6.47411 12.515364,8.28214 7.321481,2.67044 13.218836,3.04951 20.194985,1.29805 z m -19.148608,-1.7627 c -3.237504,-0.56332 -5.182974,-1.69613 -7.854861,-4.57375 -3.396272,-3.65776 -4.000935,-5.09759 -3.975092,-9.46547 0.03318,-5.60784 2.177859,-10.32316 6.914446,-15.202189 l 1.804859,-1.859131 2.16903,1.330762 c 2.300183,1.411227 5.978451,2.940058 7.073581,2.940058 0.475197,0 0.289834,-0.45549 -0.670025,-1.64645 -2.635371,-3.269903 -3.381561,-9.298637 -1.648182,-13.316329 0.50238,-1.164456 0.839104,-2.182083 0.748276,-2.261414 -0.09083,-0.0793 -2.044917,-0.277201 -4.342407,-0.439704 L 78.0248,82.8124 l 0.858922,2.253965 c 0.683198,1.792838 0.750504,2.362036 0.328982,2.782193 -0.773967,0.771452 -1.297063,0.224356 -2.518646,-2.634158 -1.038753,-2.430714 -1.178937,-2.568619 -2.910695,-2.863396 -3.430043,-0.583867 -3.837383,-2.007194 -1.670213,-5.83611 0.971122,-1.715751 1.437855,-3.232268 1.693017,-5.500959 0.771199,-6.856901 4.040885,-10.941582 10.826994,-13.525734 1.071298,-0.407942 2.130318,-0.960995 2.353376,-1.228989 0.536343,-0.644386 8.922887,-0.449991 11.7878,0.273229 1.334063,0.336768 2.182713,0.797795 2.265813,1.230903 0.18831,0.981382 -0.79174,1.225627 -2.956463,0.736852 -1.901759,-0.429405 -7.103332,-0.616623 -7.452725,-0.268249 -0.105483,0.105262 0.202253,1.32591 0.683869,2.712708 0.48161,1.386813 1.43084,4.750133 2.109393,7.474048 0.678557,2.723916 1.516251,5.626763 1.86154,6.450762 l 0.627803,1.498203 3.837175,-0.218157 c 3.451788,-0.19624 4.071908,-0.110937 6.174198,0.848682 1.60994,0.734922 2.63882,1.553758 3.30713,2.63196 l 0.97011,1.565133 2.96645,-5.88013 c 3.28372,-6.509009 5.3289,-8.99739 6.76501,-8.231016 1.93297,1.031502 8.04184,11.010414 9.66019,15.78004 1.38343,4.077262 2.08468,7.719585 1.74559,9.066747 -0.4346,1.726518 -3.42438,2.445593 -10.16839,2.445593 -7.21807,0 -9.36833,0.465936 -10.41235,2.256221 -0.43868,0.752258 -1.28597,2.014926 -1.88285,2.805898 -0.88383,1.171221 -1.10806,2.002131 -1.20816,4.476671 -0.0676,1.6712 -0.32971,4.58294 -0.58247,6.47055 l -0.45955,3.43201 1.73633,3.17643 c 2.43243,4.44983 2.33527,5.84575 -0.38957,5.59713 -0.35276,-0.0322 -1.93891,-0.0799 -3.5248,-0.10582 -2.78942,-0.0459 -2.94769,0.009 -4.854347,1.68254 -2.971579,2.60813 -5.949208,3.61038 -11.076018,3.72816 -2.351725,0.054 -5.292392,-0.0787 -6.534813,-0.29482 z m 24.971118,-7.76498 c 0.28838,-0.28754 -1.0953,-3.28978 -1.51617,-3.28978 -0.24417,0 -1.0541,1.36611 -2.08681,3.51984 -0.17229,0.35934 3.22976,0.14209 3.60298,-0.23006 z m -6.30351,-19.01529 c 3.07195,-0.953317 6.10206,-2.649603 7.18421,-4.021761 0.66849,-0.847633 0.77733,-1.804301 0.76405,-6.715308 -0.0142,-5.266912 -0.10017,-5.880953 -1.06897,-7.645433 -1.51031,-2.750586 -4.02092,-3.984356 -7.43496,-3.653687 -1.422894,0.137749 -2.86837,0.54779 -3.297867,0.935347 -0.420556,0.379498 -1.060572,0.576772 -1.422255,0.438385 -0.952234,-0.364346 -4.887593,2.986235 -6.424637,5.469961 -1.145513,1.851046 -1.284285,2.436516 -1.258031,5.307585 0.03351,3.666228 0.872134,5.732763 3.246815,8.000957 2.846579,2.718934 5.415375,3.217244 9.711645,1.883954 z M 90.434742,95.434423 c -0.703388,-0.845094 -0.294111,-5.013404 0.630398,-6.420304 0.839724,-1.277874 2.177548,-1.334137 2.82975,-0.119022 0.701772,1.307482 0.282229,5.280318 -0.668201,6.327495 -0.927141,1.021515 -2.047267,1.106491 -2.791947,0.211816 z m 9.856168,-0.177173 c -0.607047,-1.131004 -0.545585,-4.276139 0.10885,-5.570585 1.26151,-2.495175 3.72437,-0.919798 3.72437,2.382295 0,3.043873 -2.70371,5.292688 -3.83322,3.18829 z m 14.08875,-3.545417 c -0.006,-0.775722 -0.0859,-0.836908 -0.42103,-0.319774 -0.53574,0.826595 -0.53574,1.279053 0,1.279053 0.23516,0 0.42464,-0.431675 0.42103,-0.959279 z m 12.44006,0.526596 c 1.2585,-0.237976 2.45715,-0.601188 2.66368,-0.807117 0.52165,-0.520141 -0.39713,-4.71417 -1.87678,-8.567018 -1.37799,-3.588161 -4.92477,-9.964656 -6.91877,-12.438737 -1.22979,-1.525908 -1.36484,-1.586938 -2.08103,-0.940665 -1.00543,0.907271 -4.70601,8.064198 -4.35215,8.417055 0.63811,0.636256 1.28547,0.219846 1.10682,-0.711955 -0.20937,-1.092105 0.95509,-2.389132 1.56814,-1.746676 0.53218,0.557735 2.58761,12.151548 2.58761,14.595652 0,1.135019 0.12833,2.191587 0.28507,2.347906 0.42783,0.426612 4.42337,0.34209 7.01741,-0.148445 z m -13.67617,-10.78298 c -0.33853,-0.337534 -0.46769,-0.226909 -0.46769,0.40058 0,1.12716 0.59797,1.725454 0.78838,0.788816 0.0808,-0.397685 -0.0634,-0.932906 -0.32069,-1.189396 z M 75.015748,80.413551 C 74.997878,80.237682 74.747882,79.44512 74.46025,78.65229 l -0.522973,-1.441486 -0.759748,1.15617 c -0.417864,0.635902 -0.65496,1.428464 -0.526884,1.761261 0.235535,0.612025 2.425214,0.876175 2.365103,0.285316 z m 5.591964,-3.517386 c 1.718576,-1.993192 4.771162,-5.299385 6.783532,-7.34711 l 3.658847,-3.723129 -1.186049,-3.631414 c -0.926207,-2.835845 -1.360651,-3.631414 -1.983045,-3.631414 -0.528223,0 -2.515179,2.264576 -5.891826,6.715024 -5.778554,7.616167 -6.08572,8.11117 -6.08572,9.80723 0,1.200546 1.22343,5.878442 1.460262,5.583425 0.06563,-0.08171 1.525427,-1.779435 3.243999,-3.772612 z m 12.506084,1.119627 c 1.347508,-0.978246 1.382031,-1.101866 0.603996,-2.162818 -0.527296,-0.719033 -0.660596,-0.621517 -1.710345,1.251262 -0.626161,1.117087 -1.138479,2.114158 -1.138479,2.215704 0,0.225336 0.690916,-0.176052 2.244828,-1.304148 z M 80.831618,63.999069 c 1.51619,-2.051809 2.595795,-3.730562 2.399118,-3.730562 -0.690638,0 -3.830105,2.514993 -4.923112,3.943867 -1.054754,1.378854 -2.421379,4.580324 -2.388796,5.596022 0.01893,0.589923 1.327351,-0.957279 4.91279,-5.809327 z"
     id="path1058"
     sodipodi:nodetypes="sccscccscsssssscsssssssssscscssssssssssssssssssssssssscsssssssscsssssssscsssccssscsssssscssssssssssscssscscscssssssssscssccccsssssscccssssssssssssssssccscssssssssscscsccsscssssscsssscsssssssssss" />
  <path
     id="path8209"
     style="opacity:0.2;fill:#000000;stroke-width:0.426968;filter:url(#filter8250)"
     d="m 78.974609,100.0493 -1.322265,1.59765 c -0.72682,0.8792 -1.322266,1.72562 -1.322266,1.88086 0,0.69209 6.220791,3.00508 12.400391,4.61133 3.1186,0.81061 9.836935,1.18166 11.296871,0.62305 0.7042,-0.26944 0.93654,-2.53314 0.34961,-3.4082 -0.18312,-0.27303 -2.551181,-0.5783 -5.677731,-0.73243 -5.94361,-0.29304 -9.859581,-1.25673 -13.519531,-3.32617 z m -5.347656,18.95117 C 73.226029,119.00276 73,119.06916 73,119.21141 c 0,0.56581 2.406094,3.55023 4.054688,5.02929 2.22104,1.99264 4.560882,2.6264 10.146484,2.75 C 89.305809,127.0373 90,126.91434 90,126.49461 c 0,-1.79414 -0.954546,-3.11238 -2.826172,-3.90625 -4.131289,-1.75228 -11.381885,-3.60027 -13.546875,-3.58789 z" />
  <path
     style="opacity:1;fill:#ffffff;stroke-width:0.426968"
     d="m 100.0271,107.76092 c 0.7042,-0.26944 0.93604,-2.53213 0.34911,-3.40719 -0.18312,-0.27303 -2.551,-0.57864 -5.67755,-0.73277 -5.94361,-0.29304 -9.8586,-1.25614 -13.51855,-3.32558 l -2.20609,-1.247401 -1.32149,1.598571 c -0.72682,0.8792 -1.32149,1.72557 -1.32149,1.88081 0,0.69209 6.2204,3.0056 12.4,4.61185 3.1186,0.81061 9.83612,1.18032 11.29606,0.62171 z"
     id="path1198" />
  <path
     style="opacity:1;fill:#ff63a1;fill-opacity:1;stroke-width:0.413997"
     d="m 90,125.49429 c 0,-1.79414 -0.953932,-3.11319 -2.825558,-3.90706 C 82.278099,119.51045 73,117.30028 73,118.21069 c 0,0.56581 2.406294,3.55048 4.054887,5.02954 2.221041,1.99264 4.560727,2.62689 10.146329,2.75049 C 89.305853,126.03732 90,125.91402 90,125.49429 Z"
     id="path1194" />
</svg>
