<?xml version="1.0" encoding="UTF-8" standalone="no"?>
<svg
   width="192"
   height="192"
   version="1"
   id="svg14"
   sodipodi:docname="apps_true_phone_contacts.svg"
   inkscape:version="1.1-rc (1:1.1+rc+202105232036+f4db50c7c1)"
   xmlns:inkscape="http://www.inkscape.org/namespaces/inkscape"
   xmlns:sodipodi="http://sodipodi.sourceforge.net/DTD/sodipodi-0.dtd"
   xmlns="http://www.w3.org/2000/svg"
   xmlns:svg="http://www.w3.org/2000/svg"
   xmlns:rdf="http://www.w3.org/1999/02/22-rdf-syntax-ns#"
   xmlns:cc="http://creativecommons.org/ns#"
   xmlns:dc="http://purl.org/dc/elements/1.1/">
  <metadata
     id="metadata20">
    <rdf:RDF>
      <cc:Work
         rdf:about="">
        <dc:format>image/svg+xml</dc:format>
        <dc:type
           rdf:resource="http://purl.org/dc/dcmitype/StillImage" />
      </cc:Work>
    </rdf:RDF>
  </metadata>
  <defs
     id="defs18">
    <filter
       inkscape:collect="always"
       style="color-interpolation-filters:sRGB"
       id="filter866"
       x="-0.055200001"
       width="1.1104"
       y="-0.042461539"
       height="1.0849231">
      <feGaussianBlur
         inkscape:collect="always"
         stdDeviation="1.84"
         id="feGaussianBlur868" />
    </filter>
    <filter
       inkscape:collect="always"
       style="color-interpolation-filters:sRGB"
       id="filter850"
       x="-0.048000001"
       width="1.096"
       y="-0.048000001"
       height="1.096">
      <feGaussianBlur
         inkscape:collect="always"
         stdDeviation="3.2"
         id="feGaussianBlur852" />
    </filter>
  </defs>
  <sodipodi:namedview
     pagecolor="#ffffff"
     bordercolor="#666666"
     borderopacity="1"
     objecttolerance="10"
     gridtolerance="10"
     guidetolerance="10"
     inkscape:pageopacity="0"
     inkscape:pageshadow="2"
     inkscape:window-width="1920"
     inkscape:window-height="1014"
     id="namedview16"
     showgrid="false"
     inkscape:zoom="2.8177"
     inkscape:cx="96.000284"
     inkscape:cy="96.000284"
     inkscape:window-x="0"
     inkscape:window-y="34"
     inkscape:window-maximized="1"
     inkscape:current-layer="svg14"
     inkscape:document-rotation="0"
     inkscape:pagecheckerboard="0" />
  <circle
     style="opacity:0.2;fill:#000000;stroke-width:4;filter:url(#filter850)"
     cx="96"
     cy="100"
     r="80"
     id="circle832" />
  <circle
     id="circle4"
     r="80"
     cy="96"
     cx="96"
     style="fill:#2495dd;stroke-width:4" />
  <path
     style="opacity:0.1;fill:#ffffff;stroke-width:4"
     d="M 96,16 A 80,80 0 0 0 16,96 80,80 0 0 0 16.02,96.473 80,80 0 0 1 96,17 80,80 0 0 1 175.97,96.514 80,80 0 0 0 176,96 80,80 0 0 0 96,16 Z"
     id="path6" />
  <path
     inkscape:connector-curvature="0"
     id="path8"
     d="M 96,46 C 84.952,46 76,54.956 76,66 76,77.044 84.952,86 96,86 107.05,86 116,77.044 116,66 116,54.956 107.05,46 96,46 Z M 96,98 C 56.004,98.024 56,123.6 56,123.6 V 134 C 56,134 63.385,150 96,150 128.62,150 136,134 136,134 V 123.6 C 136,123.6 136,97.984 96.008,98 Z"
     style="opacity:0.2;stroke-width:4;filter:url(#filter866)" />
  <path
     inkscape:connector-curvature="0"
     id="path10"
     d="M 96,44 C 84.952,44 76,52.956 76,64 76,75.044 84.952,84 96,84 107.05,84 116,75.044 116,64 116,52.956 107.05,44 96,44 Z M 96,96 C 56.004,96.024 56,121.6 56,121.6 V 132 C 56,132 63.385,148 96,148 128.62,148 136,132 136,132 V 121.6 C 136,121.6 136,95.984 96.008,96 Z"
     style="fill:#ffffff;stroke-width:4" />
</svg>
