<?xml version="1.0" encoding="UTF-8" standalone="no"?>
<svg
   width="192"
   height="192"
   version="1"
   id="svg28"
   sodipodi:docname="apps_digilocker.svg"
   inkscape:version="1.1.1 (1:1.1+202109281949+c3084ef5ed)"
   xmlns:inkscape="http://www.inkscape.org/namespaces/inkscape"
   xmlns:sodipodi="http://sodipodi.sourceforge.net/DTD/sodipodi-0.dtd"
   xmlns="http://www.w3.org/2000/svg"
   xmlns:svg="http://www.w3.org/2000/svg"
   xmlns:rdf="http://www.w3.org/1999/02/22-rdf-syntax-ns#"
   xmlns:cc="http://creativecommons.org/ns#"
   xmlns:dc="http://purl.org/dc/elements/1.1/">
  <metadata
     id="metadata34">
    <rdf:RDF>
      <cc:Work
         rdf:about="">
        <dc:format>image/svg+xml</dc:format>
        <dc:type
           rdf:resource="http://purl.org/dc/dcmitype/StillImage" />
      </cc:Work>
    </rdf:RDF>
  </metadata>
  <defs
     id="defs32">
    <filter
       inkscape:collect="always"
       style="color-interpolation-filters:sRGB"
       id="filter4580"
       x="-0.087165358"
       y="-0.14192308"
       width="1.1743307"
       height="1.2838462">
      <feGaussianBlur
         inkscape:collect="always"
         stdDeviation="4.6125"
         id="feGaussianBlur4582" />
    </filter>
    <filter
       inkscape:collect="always"
       style="color-interpolation-filters:sRGB"
       id="filter4622"
       x="-0.079980469"
       y="-0.070603448"
       width="1.1599609"
       height="1.1412069">
      <feGaussianBlur
         inkscape:collect="always"
         stdDeviation="4.265625"
         id="feGaussianBlur4624" />
    </filter>
    <filter
       inkscape:collect="always"
       style="color-interpolation-filters:sRGB"
       id="filter4705"
       x="-0.108"
       y="-0.108"
       width="1.216"
       height="1.216">
      <feGaussianBlur
         inkscape:collect="always"
         stdDeviation="2.25"
         id="feGaussianBlur4707" />
    </filter>
  </defs>
  <sodipodi:namedview
     pagecolor="#ffffff"
     bordercolor="#666666"
     borderopacity="1"
     objecttolerance="10"
     gridtolerance="10"
     guidetolerance="10"
     inkscape:pageopacity="0"
     inkscape:pageshadow="2"
     inkscape:window-width="1920"
     inkscape:window-height="1022"
     id="namedview30"
     showgrid="false"
     inkscape:zoom="1"
     inkscape:cx="74"
     inkscape:cy="76"
     inkscape:window-x="0"
     inkscape:window-y="34"
     inkscape:window-maximized="1"
     inkscape:current-layer="svg28"
     inkscape:pagecheckerboard="0"
     inkscape:snap-global="true"
     showguides="false"
     inkscape:snap-bbox="true"
     inkscape:snap-bbox-midpoints="true">
    <inkscape:grid
       type="xygrid"
       id="grid841" />
  </sodipodi:namedview>
  <path
     id="path4584"
     style="opacity:0.2;fill:#000000;fill-opacity:1;stroke-width:4.00423;stroke-linecap:round;stroke-linejoin:round;filter:url(#filter4622)"
     d="m 57,27 h 70 l 50,50 v 87 c 0,4.432 -3.568,8 -8,8 H 57 c -4.432,0 -8,-3.568 -8,-8 V 35 c 0,-4.432 3.568,-8 8,-8 z"
     sodipodi:nodetypes="sccssssss" />
  <path
     id="rect2020"
     style="fill:#7255ed;fill-opacity:1;stroke-width:4.00423;stroke-linecap:round;stroke-linejoin:round"
     d="m 57,23 h 70 l 50,50 v 87 c 0,4.432 -3.568,8 -8,8 H 57 c -4.432,0 -8,-3.568 -8,-8 V 31 c 0,-4.432 3.568,-8 8,-8 z"
     sodipodi:nodetypes="sccssssss" />
  <path
     id="path4542"
     style="opacity:0.2;fill:#000000;stroke:none;stroke-width:4.47984;stroke-linecap:round;stroke-linejoin:round;filter:url(#filter4580)"
     d="M 62,71 C 44.122612,71.026957 29.51762,85.284685 29.060547,103.15625 20.497543,107.05239 15.000519,115.59229 15,125 c 0,13.25483 10.745166,24 24,24 h 79 c 13.25483,0 24,-10.74517 24,-24 -2e-4,-9.68953 -5.82692,-18.42846 -14.77148,-22.1543 C 124.41331,91.761675 114.43596,84.000977 103,84 98.611712,84.020026 94.306003,85.1948 90.515625,87.40625 84.608306,77.251621 73.747889,71.003162 62,71 Z"
     sodipodi:nodetypes="cccccccccc" />
  <path
     id="path4626"
     style="fill:#ffffff;fill-opacity:1;stroke-width:4.00423;stroke-linecap:round;stroke-linejoin:round;opacity:0.1"
     d="M 57 23 C 52.568 23 49 26.568 49 31 L 49 32 C 49 27.568 52.568 24 57 24 L 127 24 L 177 74 L 177 73 L 127 23 L 57 23 z " />
  <path
     id="path1201"
     style="fill:#ffffff;stroke:none;stroke-width:4.47984;stroke-linecap:round;stroke-linejoin:round"
     d="M 62,69 C 44.122612,69.026957 29.51762,83.284685 29.060547,101.15625 20.497543,105.05239 15.000519,113.59229 15,123 c 0,13.25483 10.745166,24 24,24 h 79 c 13.25483,0 24,-10.74517 24,-24 -2e-4,-9.68953 -5.82692,-18.42846 -14.77148,-22.1543 C 124.41331,89.761675 114.43596,82.000977 103,82 98.611712,82.020026 94.306003,83.1948 90.515625,85.40625 84.608306,75.251621 73.747889,69.003162 62,69 Z"
     sodipodi:nodetypes="cccccccccc" />
  <path
     id="path1565"
     style="fill:#7255ed;fill-opacity:1;stroke:none;stroke-width:4.26206;stroke-linecap:round;stroke-linejoin:round"
     d="m 72,103 a 6,6 0 0 0 -6,6 6,6 0 0 0 4.171875,5.70703 L 67.001953,125 h 9.996094 L 73.828125,114.70703 A 6,6 0 0 0 78,109 6,6 0 0 0 72,103 Z" />
  <path
     id="path4667"
     style="opacity:0.2;fill:#000000;fill-opacity:1;stroke:none;stroke-width:4.00423;stroke-linecap:round;stroke-linejoin:round;filter:url(#filter4705)"
     d="m 127,24 v 42 c 0,4.432 3.568,8 8,8 h 42 z"
     sodipodi:nodetypes="csscc" />
  <path
     id="rect2284"
     style="fill:#5a3cd9;fill-opacity:1;stroke:none;stroke-width:4.00423;stroke-linecap:round;stroke-linejoin:round"
     d="m 127,23 v 42 c 0,4.432 3.568,8 8,8 h 42 z"
     sodipodi:nodetypes="csscc" />
</svg>
