<?xml version="1.0" encoding="UTF-8" standalone="no"?>
<svg
   width="192"
   height="192"
   version="1"
   id="svg14"
   sodipodi:docname="apps_xmanager_spotify.svg"
   inkscape:version="1.1.1 (1:1.1+202109281949+c3084ef5ed)"
   xmlns:inkscape="http://www.inkscape.org/namespaces/inkscape"
   xmlns:sodipodi="http://sodipodi.sourceforge.net/DTD/sodipodi-0.dtd"
   xmlns="http://www.w3.org/2000/svg"
   xmlns:svg="http://www.w3.org/2000/svg"
   xmlns:rdf="http://www.w3.org/1999/02/22-rdf-syntax-ns#"
   xmlns:cc="http://creativecommons.org/ns#"
   xmlns:dc="http://purl.org/dc/elements/1.1/">
  <metadata
     id="metadata20">
    <rdf:RDF>
      <cc:Work
         rdf:about="">
        <dc:format>image/svg+xml</dc:format>
        <dc:type
           rdf:resource="http://purl.org/dc/dcmitype/StillImage" />
      </cc:Work>
    </rdf:RDF>
  </metadata>
  <defs
     id="defs18">
    <filter
       inkscape:collect="always"
       style="color-interpolation-filters:sRGB"
       id="filter4359"
       x="-0.049263155"
       y="-0.046799998"
       width="1.0985263"
       height="1.0936">
      <feGaussianBlur
         inkscape:collect="always"
         stdDeviation="3.12"
         id="feGaussianBlur4361" />
    </filter>
    <filter
       inkscape:collect="always"
       style="color-interpolation-filters:sRGB"
       id="filter4602"
       x="-0.091536319"
       y="-0.13168475"
       width="1.1830726"
       height="1.2633695">
      <feGaussianBlur
         inkscape:collect="always"
         stdDeviation="3.1275228"
         id="feGaussianBlur4604" />
    </filter>
  </defs>
  <sodipodi:namedview
     pagecolor="#ffffff"
     bordercolor="#666666"
     borderopacity="1"
     objecttolerance="10"
     gridtolerance="10"
     guidetolerance="10"
     inkscape:pageopacity="0"
     inkscape:pageshadow="2"
     inkscape:window-width="1920"
     inkscape:window-height="1019"
     id="namedview16"
     showgrid="false"
     inkscape:zoom="1"
     inkscape:cx="153"
     inkscape:cy="57.5"
     inkscape:window-x="0"
     inkscape:window-y="34"
     inkscape:window-maximized="1"
     inkscape:current-layer="svg14"
     inkscape:pagecheckerboard="0" />
  <path
     id="path4321"
     style="opacity:0.2;fill:#000000;fill-opacity:1;stroke-width:0.313312;filter:url(#filter4359)"
     d="m 86.451539,20 c -1.946699,0 -4.112139,0.04879 -5.435276,0.810577 -3.412932,1.602798 -4.805518,3.503257 -5.936694,8.105766 -1.078045,4.38635 -2.526209,6.925823 -5.805463,10.182012 -3.062552,3.041022 -5.913228,4.784234 -10.212443,6.242417 -4.772051,1.618549 -10.406757,1.801714 -14.909307,0.486346 -3.802151,-1.110751 -6.766056,-0.639181 -9.47207,1.507867 -1.580926,1.254366 -2.817384,3.182551 -9.354552,14.590379 -5.287778,9.227537 -5.316566,9.294462 -5.325592,12.357874 -0.01099,3.54176 0.604809,4.73392 4.475534,8.660473 5.353945,5.431169 7.583924,10.568071 7.583924,17.465479 0,3.87042 -0.655963,6.67232 -2.381728,10.15858 -1.301306,2.62878 -1.863153,3.35188 -4.97695,6.4143 -2.967172,2.91822 -3.595061,3.70849 -4.064216,5.11737 -0.747051,2.24339 -0.575623,5.62765 0.383897,7.58817 1.794329,3.66619 12.057712,20.91424 13.07992,21.98127 0.632276,0.66001 1.925483,1.55366 2.873351,1.98641 1.522391,0.69505 2.023156,0.76954 4.293379,0.63479 1.413493,-0.0839 3.627892,-0.46724 4.922108,-0.8516 3.117146,-0.92576 9.124682,-1.01481 12.394389,-0.1836 8.673643,2.20496 14.716415,8.51855 16.503654,17.24282 0.34367,1.6776 0.901785,3.59134 1.23983,4.25211 1.243654,2.43099 3.913974,4.41364 6.679025,4.95916 0.717216,0.14149 6.602062,0.27213 12.993739,0.29103 6.391682,-0.0189 12.276522,-0.14954 12.993742,-0.29103 2.76505,-0.54552 5.43537,-2.52817 6.67903,-4.95916 0.33804,-0.66077 0.89616,-2.57451 1.23983,-4.25211 1.78724,-8.72427 7.83001,-15.03786 16.50365,-17.24282 3.26971,-0.83121 9.27724,-0.74216 12.39438,0.1836 1.29422,0.38436 3.50862,0.7677 4.92211,0.8516 2.27023,0.13475 2.77099,0.0603 4.29339,-0.63479 0.94786,-0.43275 2.24107,-1.3264 2.87335,-1.98641 1.0222,-1.06703 11.28559,-18.31508 13.07992,-21.98127 0.95952,-1.96052 1.13094,-5.34478 0.38389,-7.58817 -0.46915,-1.40888 -1.09704,-2.19915 -4.06421,-5.11737 -3.1138,-3.06242 -3.67564,-3.78552 -4.97695,-6.4143 -1.72577,-3.48626 -2.38173,-6.28816 -2.38173,-10.15857 0,-6.897418 2.22998,-12.03432 7.58393,-17.465489 3.87072,-3.926553 4.48652,-5.118713 4.47553,-8.660473 -0.009,-3.063412 -0.0378,-3.130337 -5.3256,-12.357874 -6.53716,-11.407828 -7.77363,-13.336013 -9.35455,-14.590379 -2.70602,-2.147048 -5.66992,-2.618618 -9.47207,-1.507867 -4.50255,1.315368 -10.13726,1.132203 -14.90931,-0.486346 -4.29922,-1.458183 -7.14989,-3.201395 -10.21244,-6.242417 -3.27925,-3.256189 -4.72741,-5.795662 -5.80546,-10.182012 -1.13118,-4.602509 -2.52376,-6.502968 -5.93669,-8.105766 C 109.6606,20.048789 107.49515,20 105.54845,20 h -9.548452 z" />
  <path
     id="path860"
     style="fill:#3f3f3f;stroke-width:0.313312;fill-opacity:1"
     d="m 86.451539,16 c -1.946699,0 -4.112139,0.04879 -5.435276,0.810577 -3.412932,1.602798 -4.805518,3.503257 -5.936694,8.105766 -1.078045,4.38635 -2.526209,6.925823 -5.805463,10.182012 -3.062552,3.041022 -5.913228,4.784234 -10.212443,6.242417 -4.772051,1.618549 -10.406757,1.801714 -14.909307,0.486346 -3.802151,-1.110751 -6.766056,-0.639181 -9.47207,1.507867 -1.580926,1.254366 -2.817384,3.182551 -9.354552,14.590379 -5.287778,9.227537 -5.316566,9.294462 -5.325592,12.357874 -0.01099,3.54176 0.604809,4.73392 4.475534,8.660473 5.353945,5.431169 7.583924,10.568071 7.583924,17.465484 0,3.870415 -0.655963,6.672315 -2.381728,10.158575 -1.301306,2.62878 -1.863153,3.35188 -4.97695,6.4143 -2.967172,2.91822 -3.595061,3.70849 -4.064216,5.11737 -0.747051,2.24339 -0.575623,5.62765 0.383897,7.58817 1.794329,3.66619 12.057712,20.91424 13.07992,21.98127 0.632276,0.66001 1.925483,1.55366 2.873351,1.98641 1.522391,0.69505 2.023156,0.76954 4.293379,0.63479 1.413493,-0.0839 3.627892,-0.46724 4.922108,-0.8516 3.117146,-0.92576 9.124682,-1.01481 12.394389,-0.1836 8.673643,2.20496 14.716415,8.51855 16.503654,17.24282 0.34367,1.6776 0.901785,3.59134 1.23983,4.25211 1.243654,2.43099 3.913974,4.41364 6.679025,4.95916 0.717216,0.14149 6.602062,0.27213 12.993739,0.29103 6.391682,-0.0189 12.276522,-0.14954 12.993742,-0.29103 2.76505,-0.54552 5.43537,-2.52817 6.67903,-4.95916 0.33804,-0.66077 0.89616,-2.57451 1.23983,-4.25211 1.78724,-8.72427 7.83001,-15.03786 16.50365,-17.24282 3.26971,-0.83121 9.27724,-0.74216 12.39438,0.1836 1.29422,0.38436 3.50862,0.7677 4.92211,0.8516 2.27023,0.13475 2.77099,0.0603 4.29339,-0.63479 0.94786,-0.43275 2.24107,-1.3264 2.87335,-1.98641 1.0222,-1.06703 11.28559,-18.31508 13.07992,-21.98127 0.95952,-1.96052 1.13094,-5.34478 0.38389,-7.58817 -0.46915,-1.40888 -1.09704,-2.19915 -4.06421,-5.11737 -3.1138,-3.06242 -3.67564,-3.78552 -4.97695,-6.4143 -1.72577,-3.48626 -2.38173,-6.28816 -2.38173,-10.158575 0,-6.897413 2.22998,-12.034315 7.58393,-17.465484 3.87072,-3.926553 4.48652,-5.118713 4.47553,-8.660473 -0.009,-3.063412 -0.0378,-3.130337 -5.3256,-12.357874 -6.53716,-11.407828 -7.77363,-13.336013 -9.35455,-14.590379 -2.70602,-2.147048 -5.66992,-2.618618 -9.47207,-1.507867 -4.50255,1.315368 -10.13726,1.132203 -14.90931,-0.486346 -4.29922,-1.458183 -7.14989,-3.201395 -10.21244,-6.242417 -3.27925,-3.256189 -4.72741,-5.795662 -5.80546,-10.182012 -1.13118,-4.602509 -2.52376,-6.502968 -5.93669,-8.105766 C 109.6606,16.048789 107.49515,16 105.54845,16 h -9.548452 z" />
  <path
     id="path4564"
     style="opacity:0.2;fill:#000000;fill-opacity:1;stroke-width:3.00054;filter:url(#filter4602)"
     d="m 86.042969,67.999999 0.002,0.002 c -8.692465,-0.0011 -17.099063,0.868159 -24.265625,2.603516 -3.681169,0.891406 -3.952915,0.993865 -4.976563,1.833984 -1.259606,1.03387 -1.801948,2.168297 -1.802734,3.800781 -10e-4,2.021684 0.988712,3.581079 2.855469,4.478516 1.528262,0.734514 2.51892,0.708635 5.859375,-0.117188 3.378243,-0.835053 8.166723,-1.634804 12.359375,-2.068359 4.263377,-0.440488 17.718472,-0.367355 22.021484,0.117188 11.663987,1.314331 19.977227,3.475369 28.027347,7.289062 2.05977,0.975685 4.10241,1.85635 4.53906,1.953125 2.30444,0.514303 5.0485,-0.862758 6.00586,-3.007812 0.47671,-1.067893 0.43381,-3.03376 -0.0801,-4.087891 -0.63475,-1.302568 -1.93179,-2.233983 -5.37891,-3.865234 -5.85625,-2.772627 -12.1598,-4.855169 -19.1914,-6.328125 -8.30263,-1.736225 -17.282488,-2.603516 -25.974611,-2.603516 z m 0.554687,20.001953 c -0.849022,-0.0033 -1.671522,6.69e-4 -2.441406,0.01172 v -0.002 c -1.53987,0.02234 -2.866093,0.0751 -3.763672,0.164062 -5.816372,0.575333 -13.366137,2.14409 -15.763672,3.28125 -2.522241,1.196249 -3.41315,4.543627 -1.859375,7.007813 0.595576,0.944391 2.374703,1.994137 3.386719,1.994137 0.381356,0 2.213016,-0.41954 4.076172,-0.925778 5.435255,-1.477055 9.075216,-1.959614 15.710937,-2.083984 4.301423,-0.07939 6.547594,-0.01115 9.056641,0.273437 10.65292,1.206817 18.48534,3.760125 27.51758,8.974615 1.24191,0.71672 2.5247,1.30351 2.85547,1.30273 2.68856,-0.006 5.02767,-2.7641 4.56836,-5.39258 -0.40458,-2.29747 -1.41093,-3.254276 -6.03125,-5.785155 -7.65294,-4.184782 -16.04555,-6.866713 -26.027348,-8.310547 -1.710099,-0.246753 -5.19251,-0.411827 -8.6875,-0.478516 -0.873883,-0.01751 -1.748633,-0.02795 -2.597656,-0.03125 z m -0.05078,20.999998 c -0.675368,-0.003 -1.328942,-9.8e-4 -1.941406,0.008 -1.224927,0.0179 -2.28115,0.0597 -2.994141,0.13085 -4.619173,0.46026 -10.619201,1.71725 -12.523437,2.62696 -2.003228,0.95697 -2.710604,3.63443 -1.476563,5.60547 0.473056,0.75551 1.885771,1.59375 2.689453,1.59375 0.302847,0 1.762406,-0.33526 3.242188,-0.74024 4.316763,-1.18161 7.202761,-1.56654 12.472656,-1.66601 3.415946,-0.0635 5.206556,-0.009 7.199219,0.21875 8.460386,0.96544 14.672256,3.00819 21.845706,7.17968 0.98621,0.57336 2.01883,1.04163 2.28125,1.04102 2.13538,-0.005 3.97718,-2.2117 3.61132,-4.31445 -0.31891,-1.83646 -1.10382,-2.60239 -4.77343,-4.625 -6.07655,-3.34935 -12.7451,-5.495 -20.671878,-6.64844 -1.358242,-0.19737 -4.118167,-0.33185 -6.894531,-0.38672 -0.694006,-0.014 -1.391038,-0.0208 -2.066406,-0.0234 z" />
  <path
     id="path4300"
     style="fill:#1ed760;fill-opacity:1;stroke-width:3.00054"
     d="M 86.042969 66 L 86.044922 66.001953 C 77.352457 66.000853 68.945859 66.870112 61.779297 68.605469 C 58.098128 69.496875 57.826382 69.599334 56.802734 70.439453 C 55.543128 71.473323 55.000786 72.60775 55 74.240234 C 54.999 76.261918 55.988712 77.821313 57.855469 78.71875 C 59.383731 79.453264 60.374389 79.427385 63.714844 78.601562 C 67.093087 77.766509 71.881567 76.966758 76.074219 76.533203 C 80.337596 76.092715 93.792691 76.165848 98.095703 76.650391 C 109.75969 77.964722 118.07293 80.12576 126.12305 83.939453 C 128.18282 84.915138 130.22546 85.795803 130.66211 85.892578 C 132.96655 86.406881 135.71061 85.02982 136.66797 82.884766 C 137.14468 81.816873 137.10178 79.851006 136.58789 78.796875 C 135.95314 77.494307 134.6561 76.562892 131.20898 74.931641 C 125.35273 72.159014 119.04918 70.076472 112.01758 68.603516 C 103.71495 66.867291 94.735092 66 86.042969 66 z M 86.597656 86.001953 C 85.748634 85.998648 84.926134 86.002622 84.15625 86.013672 L 84.15625 86.011719 C 82.61638 86.034059 81.290157 86.086818 80.392578 86.175781 C 74.576206 86.751114 67.026441 88.319871 64.628906 89.457031 C 62.106665 90.65328 61.215756 94.000658 62.769531 96.464844 C 63.365107 97.409235 65.144234 98.458984 66.15625 98.458984 C 66.537606 98.458984 68.369266 98.039445 70.232422 97.533203 C 75.667677 96.056148 79.307638 95.573589 85.943359 95.449219 C 90.244782 95.369829 92.490953 95.438069 95 95.722656 C 105.65292 96.929473 113.48534 99.482779 122.51758 104.69727 C 123.75949 105.41399 125.04228 106.00078 125.37305 106 C 128.06161 105.994 130.40072 103.2359 129.94141 100.60742 C 129.53683 98.309949 128.53048 97.353145 123.91016 94.822266 C 116.25722 90.637484 107.86461 87.955553 97.882812 86.511719 C 96.172713 86.264966 92.690302 86.099892 89.195312 86.033203 C 88.321429 86.015693 87.446679 86.005258 86.597656 86.001953 z M 86.546875 107.00195 C 85.871507 106.9993 85.217933 107.00097 84.605469 107.00977 C 83.380542 107.02767 82.324319 107.06947 81.611328 107.14062 C 76.992155 107.60088 70.992127 108.85787 69.087891 109.76758 C 67.084663 110.72455 66.377287 113.40201 67.611328 115.37305 C 68.084384 116.12856 69.497099 116.9668 70.300781 116.9668 C 70.603628 116.9668 72.063187 116.63154 73.542969 116.22656 C 77.859732 115.04495 80.74573 114.66002 86.015625 114.56055 C 89.431571 114.49705 91.222181 114.55148 93.214844 114.7793 C 101.67523 115.74474 107.8871 117.78749 115.06055 121.95898 C 116.04676 122.53234 117.07938 123.00061 117.3418 123 C 119.47718 122.995 121.31898 120.7883 120.95312 118.68555 C 120.63421 116.84909 119.8493 116.08316 116.17969 114.06055 C 110.10314 110.7112 103.43459 108.56555 95.507812 107.41211 C 94.14957 107.21474 91.389645 107.08026 88.613281 107.02539 C 87.919275 107.01139 87.222243 107.0046 86.546875 107.00195 z " />
  <path
     id="path4363"
     style="fill:#ffffff;stroke-width:0.313312;fill-opacity:1;opacity:0.1"
     d="M 86.451172 16 C 84.504473 16 82.338762 16.04876 81.015625 16.810547 C 77.602693 18.413345 76.211254 20.313507 75.080078 24.916016 C 74.002033 29.302366 72.552692 31.841467 69.273438 35.097656 C 66.210886 38.138678 63.361715 39.881661 59.0625 41.339844 C 54.290449 42.958393 48.654894 43.14154 44.152344 41.826172 C 40.350193 40.715421 37.385702 41.188889 34.679688 43.335938 C 33.098762 44.590303 31.86334 46.517953 25.326172 57.925781 C 20.038394 67.153318 20.009026 67.219791 20 70.283203 C 19.999495 70.445966 20.024946 70.551746 20.027344 70.705078 C 20.065731 68.224253 20.435238 67.460797 25.326172 58.925781 C 31.86334 47.517953 33.098762 45.590303 34.679688 44.335938 C 37.385702 42.18889 40.350193 41.715421 44.152344 42.826172 C 48.654894 44.14154 54.290449 43.958393 59.0625 42.339844 C 63.361715 40.881661 66.210886 39.138678 69.273438 36.097656 C 72.552692 32.841467 74.002033 30.302366 75.080078 25.916016 C 76.211254 21.313507 77.602693 19.413345 81.015625 17.810547 C 82.338762 17.04876 84.504473 17 86.451172 17 L 96 17 L 105.54883 17 C 107.49553 17 109.66124 17.048759 110.98438 17.810547 C 114.39731 19.413345 115.78874 21.313507 116.91992 25.916016 C 117.99797 30.302366 119.44731 32.841467 122.72656 36.097656 C 125.78911 39.138678 128.63828 40.881661 132.9375 42.339844 C 137.70955 43.958393 143.34511 44.14154 147.84766 42.826172 C 151.64981 41.715421 154.61429 42.18889 157.32031 44.335938 C 158.90123 45.590304 160.13667 47.517953 166.67383 58.925781 C 171.56478 67.460797 171.93429 68.224253 171.97266 70.705078 C 171.97505 70.551746 172.00051 70.445966 172 70.283203 C 171.991 67.219791 171.96163 67.153318 166.67383 57.925781 C 160.13667 46.517953 158.90123 44.590304 157.32031 43.335938 C 154.61429 41.18889 151.64981 40.715421 147.84766 41.826172 C 143.34511 43.14154 137.70955 42.958393 132.9375 41.339844 C 128.63828 39.881661 125.78911 38.138678 122.72656 35.097656 C 119.44731 31.841467 117.99797 29.302366 116.91992 24.916016 C 115.78874 20.313507 114.39731 18.413345 110.98438 16.810547 C 109.66124 16.048759 107.49553 16 105.54883 16 L 96 16 L 86.451172 16 z M 32.037109 96.880859 C 31.982227 100.49926 31.329064 103.23247 29.677734 106.56836 C 28.376428 109.19714 27.814969 109.92 24.701172 112.98242 C 21.734 115.90064 21.105874 116.69073 20.636719 118.09961 C 20.246874 119.27031 20.121021 120.74622 20.212891 122.17383 C 20.226804 121.07838 20.338649 119.99471 20.636719 119.09961 C 21.105874 117.69073 21.734 116.90064 24.701172 113.98242 C 27.814969 110.92 28.376428 110.19714 29.677734 107.56836 C 31.403499 104.0821 32.060547 101.28057 32.060547 97.410156 C 32.060547 97.228316 32.040226 97.06029 32.037109 96.880859 z M 159.96289 96.880859 C 159.95977 97.06029 159.93945 97.228316 159.93945 97.410156 C 159.93945 101.28057 160.5965 104.0821 162.32227 107.56836 C 163.62358 110.19714 164.18503 110.92 167.29883 113.98242 C 170.266 116.90064 170.89413 117.69073 171.36328 119.09961 C 171.66135 119.99471 171.77319 121.07838 171.78711 122.17383 C 171.87898 120.74622 171.75313 119.27031 171.36328 118.09961 C 170.89413 116.69073 170.266 115.90064 167.29883 112.98242 C 164.18503 109.92 163.62358 109.19714 162.32227 106.56836 C 160.67093 103.23247 160.01777 100.49926 159.96289 96.880859 z " />
  <path
     id="path4606"
     style="fill:#ffffff;fill-opacity:1;stroke-width:3.00054;opacity:0.2"
     d="M 86.042969 66 L 86.044922 66.001953 C 77.352457 66.000853 68.945859 66.870112 61.779297 68.605469 C 58.098128 69.496875 57.826382 69.599334 56.802734 70.439453 C 55.543128 71.473323 55.000786 72.60775 55 74.240234 C 54.99993 74.381009 55.015891 74.514166 55.025391 74.650391 C 55.146946 73.325483 55.700579 72.344089 56.802734 71.439453 C 57.826382 70.599334 58.098128 70.496875 61.779297 69.605469 C 68.945859 67.870112 77.352457 67.000853 86.044922 67.001953 L 86.042969 67 C 94.735092 67 103.71495 67.867291 112.01758 69.603516 C 119.04918 71.076472 125.35273 73.159014 131.20898 75.931641 C 134.6561 77.562892 135.95314 78.494307 136.58789 79.796875 C 136.80081 80.233624 136.91318 80.835974 136.96094 81.457031 C 137.03078 80.509658 136.91689 79.471736 136.58789 78.796875 C 135.95314 77.494307 134.6561 76.562892 131.20898 74.931641 C 125.35273 72.159014 119.04918 70.076472 112.01758 68.603516 C 103.71495 66.867291 94.735092 66 86.042969 66 z M 86.597656 86.001953 C 85.748634 85.998648 84.926134 86.002622 84.15625 86.013672 L 84.15625 86.011719 C 82.61638 86.034059 81.290157 86.086818 80.392578 86.175781 C 74.576206 86.751114 67.026441 88.319871 64.628906 89.457031 C 62.80246 90.323279 61.837997 92.317058 62.03125 94.287109 C 62.192028 92.672815 63.112987 91.176002 64.628906 90.457031 C 67.026441 89.319871 74.576206 87.751114 80.392578 87.175781 C 81.290157 87.086819 82.61638 87.034059 84.15625 87.011719 L 84.15625 87.013672 C 84.926134 87.002621 85.748634 86.998653 86.597656 87.001953 C 87.446679 87.005253 88.321429 87.015693 89.195312 87.033203 C 92.690303 87.099892 96.172714 87.264966 97.882812 87.511719 C 107.86461 88.955553 116.25722 91.637484 123.91016 95.822266 C 128.53048 98.353145 129.53683 99.30995 129.94141 101.60742 C 129.95151 101.66522 129.95352 101.72335 129.96094 101.78125 C 130.00875 101.39315 130.00989 100.99931 129.94141 100.60742 C 129.53683 98.309951 128.53048 97.353145 123.91016 94.822266 C 116.25722 90.637484 107.86461 87.955553 97.882812 86.511719 C 96.172714 86.264966 92.690303 86.099892 89.195312 86.033203 C 88.321429 86.015693 87.446679 86.005258 86.597656 86.001953 z M 86.546875 107.00195 C 85.871507 106.9993 85.217933 107.00097 84.605469 107.00977 C 83.380542 107.02767 82.324319 107.06948 81.611328 107.14062 C 76.992155 107.60089 70.992127 108.85787 69.087891 109.76758 C 67.587868 110.48416 66.814857 112.16597 67.039062 113.79297 C 67.178073 112.51744 67.896655 111.33665 69.087891 110.76758 C 70.992127 109.85787 76.992155 108.60089 81.611328 108.14062 C 82.324319 108.06948 83.380542 108.02767 84.605469 108.00977 C 85.217933 108.00079 85.871507 107.99895 86.546875 108.00195 C 87.222243 108.00455 87.919275 108.01139 88.613281 108.02539 C 91.389645 108.08026 94.14957 108.21474 95.507812 108.41211 C 103.43459 109.56555 110.10314 111.7112 116.17969 115.06055 C 119.84369 117.08007 120.63132 117.84734 120.95117 119.67773 C 120.99597 119.34955 121.0109 119.01763 120.95312 118.68555 C 120.63421 116.84909 119.8493 116.08316 116.17969 114.06055 C 110.10314 110.7112 103.43459 108.56555 95.507812 107.41211 C 94.14957 107.21474 91.389645 107.08026 88.613281 107.02539 C 87.919275 107.01139 87.222243 107.0046 86.546875 107.00195 z " />
</svg>
