<?xml version="1.0" encoding="UTF-8" standalone="no"?>
<svg
   width="192"
   height="192"
   version="1"
   id="svg14"
   sodipodi:docname="apps_huawei_theme_manager.svg"
   inkscape:version="1.1.1 (1:1.1+202109281949+c3084ef5ed)"
   xmlns:inkscape="http://www.inkscape.org/namespaces/inkscape"
   xmlns:sodipodi="http://sodipodi.sourceforge.net/DTD/sodipodi-0.dtd"
   xmlns="http://www.w3.org/2000/svg"
   xmlns:svg="http://www.w3.org/2000/svg"
   xmlns:rdf="http://www.w3.org/1999/02/22-rdf-syntax-ns#"
   xmlns:cc="http://creativecommons.org/ns#"
   xmlns:dc="http://purl.org/dc/elements/1.1/">
  <metadata
     id="metadata20">
    <rdf:RDF>
      <cc:Work
         rdf:about="">
        <dc:format>image/svg+xml</dc:format>
        <dc:type
           rdf:resource="http://purl.org/dc/dcmitype/StillImage" />
      </cc:Work>
    </rdf:RDF>
  </metadata>
  <defs
     id="defs18">
    <filter
       inkscape:collect="always"
       style="color-interpolation-filters:sRGB"
       id="filter1984"
       x="-0.048000145"
       y="-0.047999853"
       width="1.0960003"
       height="1.0959997">
      <feGaussianBlur
         inkscape:collect="always"
         stdDeviation="3.199992"
         id="feGaussianBlur1986" />
    </filter>
    <filter
       inkscape:collect="always"
       style="color-interpolation-filters:sRGB"
       id="filter2191"
       x="-0.075"
       y="-0.075"
       width="1.15"
       height="1.15">
      <feGaussianBlur
         inkscape:collect="always"
         stdDeviation="4.0625"
         id="feGaussianBlur2193" />
    </filter>
  </defs>
  <sodipodi:namedview
     pagecolor="#ffffff"
     bordercolor="#666666"
     borderopacity="1"
     objecttolerance="10"
     gridtolerance="10"
     guidetolerance="10"
     inkscape:pageopacity="0"
     inkscape:pageshadow="2"
     inkscape:window-width="1920"
     inkscape:window-height="1019"
     id="namedview16"
     showgrid="false"
     inkscape:zoom="2.02"
     inkscape:cx="-2.4752475"
     inkscape:cy="84.405941"
     inkscape:window-x="0"
     inkscape:window-y="34"
     inkscape:window-maximized="1"
     inkscape:current-layer="svg14"
     inkscape:pagecheckerboard="0"
     inkscape:snap-bbox="true"
     inkscape:snap-bbox-midpoints="true"
     inkscape:snap-global="true">
    <inkscape:grid
       type="xygrid"
       id="grid5193" />
  </sodipodi:namedview>
  <circle
     id="circle2153"
     r="65"
     cy="98"
     cx="96"
     style="opacity:0.2;fill:#000000;fill-opacity:1;stroke-width:3.25;filter:url(#filter2191)" />
  <circle
     id="circle4"
     r="65"
     cy="96"
     cx="96"
     style="fill:#e4e4e4;fill-opacity:1;stroke-width:3.25" />
  <path
     id="path1935"
     style="opacity:0.2;fill:#000000;fill-opacity:1;stroke-width:0.521917;filter:url(#filter1984)"
     d="m 95.197266,20.002029 c -3.153843,-0.02076 -6.159654,0.110971 -8.744141,0.421875 -6.228915,0.749308 -17.722656,3.544443 -19.820313,4.820313 -2.597968,1.580168 -3.768763,3.932452 -3.484374,6.996093 0.200251,2.157278 1.107564,4.072993 5.066406,10.699219 4.964484,8.309417 6.776014,10.733457 8.583984,11.486328 1.703362,0.709324 4.028101,0.563462 8.269531,-0.521484 4.723886,-1.208351 10.359432,-1.480957 18.607421,-0.898438 8.09485,0.571708 7.85379,0.748729 14.55469,-10.683593 6.50872,-11.104435 6.81203,-11.968402 5.35547,-15.261719 -0.86614,-1.958357 -1.52941,-2.644963 -3.32032,-3.435547 -4.80578,-2.121476 -15.60683,-3.560781 -25.068354,-3.623047 z m 47.361324,16.65625 c -3.74411,0 -5.09772,1.406074 -11.30859,11.744141 -7.18552,11.960358 -7.2981,13.171927 -1.73438,18.529297 5.32533,5.127804 9.25331,11.249163 11.75,18.310547 1.65661,4.685396 2.58766,6.017501 4.94141,7.05664 1.90821,0.842429 21.42213,1.008455 24.30664,0.207031 2.37173,-0.658949 3.894,-2.302164 4.60156,-4.970703 0.44873,-1.692393 0.36161,-2.914501 -0.43945,-6.263672 -3.39097,-14.177551 -10.83272,-27.206478 -21.50586,-37.65039 -5.68844,-5.566267 -7.81652,-6.962891 -10.61133,-6.962891 z m -96.949215,3.132813 c -3.365971,0 -4.673412,0.767225 -9.021484,5.298828 C 29.503064,52.473804 24.118831,60.748799 20.392578,69.978592 17.98203,75.949424 16,82.886174 16,85.351638 c 0,2.24936 1.52477,5.058916 3.349609,6.171876 1.445503,0.881606 2.780547,0.980821 13.246094,0.982421 15.00039,0.0025 15.079245,-0.03315 17.78125,-7.978515 1.819962,-5.351696 4.403523,-10.155159 7.501953,-13.953125 C 63.446899,63.7492 63.44095,63.661212 56.677734,51.836014 50.613656,41.233229 49.286554,39.791092 45.609375,39.791092 Z M 33.25,107.12313 c -11.966935,0 -13.844191,0.41556 -15.744141,3.49023 -0.974697,1.57733 -1.081509,2.29488 -0.794921,5.37891 0.694927,7.47837 5.260149,18.52899 11.570312,28.00586 4.314921,6.48032 12.77443,15.59979 14.855469,16.01367 2.242571,0.44599 5.334098,-0.0535 6.740234,-1.08789 0.742436,-0.54617 3.816248,-5.19446 6.830078,-10.33008 5.197825,-8.85715 5.478516,-9.48788 5.478516,-12.26563 0,-2.82251 -0.112645,-3.06251 -3.146485,-6.64062 -4.133597,-4.87519 -6.701467,-9.29567 -8.392578,-14.44922 -2.533066,-7.71937 -3.380982,-8.11523 -17.396484,-8.11523 z m 113.39844,0.26172 -1.86719,1.42187 c -1.5381,1.17364 -2.11133,2.19664 -3.26563,5.82227 -1.96144,6.16092 -5.44203,12.02653 -10.23437,17.24804 -6.35331,6.92224 -6.31873,8.09176 0.58008,19.61328 4.98881,8.33169 6.79952,10.75188 8.60547,11.50391 3.20382,1.33414 6.29902,0.21654 10.69922,-3.86133 10.85812,-10.06277 18.71159,-22.21096 22.90429,-35.42578 2.99209,-9.43065 2.57828,-12.99529 -1.76953,-15.24414 -1.92976,-0.99813 -2.97621,-1.07812 -13.86914,-1.07812 z m -67.603518,37.8125 c -0.881827,0.0208 -1.607335,0.16803 -2.246094,0.43359 -1.807967,0.75164 -3.619511,3.17098 -8.583984,11.4668 -3.958835,6.61539 -4.866157,8.5279 -5.066406,10.68164 -0.284389,3.05863 0.886412,5.40679 3.484374,6.98437 2.097653,1.27378 13.591411,4.06442 19.820313,4.8125 10.337925,1.24158 27.404795,-0.3713 33.812495,-3.19531 1.79091,-0.78929 2.45419,-1.47454 3.32032,-3.42969 1.45656,-3.28793 1.15324,-4.15008 -5.35547,-15.23633 -6.70088,-11.41362 -6.45985,-11.23679 -14.55469,-10.66601 -8.247967,0.58156 -13.883545,0.30988 -18.607421,-0.89649 -2.650888,-0.67698 -4.553726,-0.9898 -6.023437,-0.95507 z" />
  <path
     style="fill:#38adfa"
     d="m 688.80525,256.99648 c -0.33229,-0.33229 -1.1948,-0.36781 -1.91667,-0.0789 -0.79773,0.31922 -0.56078,0.55618 0.60417,0.60416 1.05416,0.0434 1.64479,-0.19293 1.3125,-0.52522 z"
     id="path1063" />
  <path
     style="fill:#f44336;stroke-width:0.521917;fill-opacity:1"
     d="m 76.798491,50.426354 c -1.80797,-0.752871 -3.619235,-3.176551 -8.583719,-11.485968 -3.958842,-6.626226 -4.866389,-8.542847 -5.06664,-10.700125 -0.284389,-3.063641 0.887115,-5.41505 3.485084,-6.995218 2.097657,-1.27587 13.591053,-4.071268 19.819968,-4.820576 10.337947,-1.243615 27.404066,0.371758 33.811786,3.200392 1.79091,0.790584 2.45469,1.477322 3.32083,3.435679 1.45656,3.293317 1.15354,4.156862 -5.35518,15.261297 -6.7009,11.432322 -6.4607,11.256012 -14.55555,10.684304 -8.24799,-0.582519 -13.883173,-0.310652 -18.607059,0.897699 -4.24143,1.084946 -6.566158,1.23184 -8.26952,0.522516 z"
     id="path1363" />
  <path
     style="fill:#9c27b0;stroke-width:0.521917;fill-opacity:1"
     d="M 19.350417,87.523853 C 17.525578,86.410894 16,83.599966 16,81.350606 c 0,-2.465465 1.981543,-9.400378 4.392091,-15.37121 3.726253,-9.229793 9.111303,-17.505136 16.19613,-24.88902 4.348072,-4.531603 5.656036,-5.299969 9.022007,-5.299969 3.677179,0 5.003123,1.44321 11.067201,12.045995 6.763216,11.825199 6.76879,11.912168 1.200797,18.737263 -3.09843,3.797966 -5.681001,8.602312 -7.500963,13.954008 -2.702005,7.94536 -2.781414,7.980988 -17.781804,7.978472 -10.465547,-0.0016 -11.799539,-0.100686 -13.245042,-0.982292 z"
     id="path1361" />
  <path
     style="fill:#ff8b00;stroke-width:0.521917;fill-opacity:1"
     d="m 146.20792,88.298004 c -2.35375,-1.039139 -3.28666,-2.370798 -4.94327,-7.056194 -2.49669,-7.061383 -6.42429,-13.181818 -11.74961,-18.309622 -5.56373,-5.35737 -5.45026,-6.569127 1.73526,-18.529485 6.21087,-10.338067 7.56474,-11.744039 11.30885,-11.744039 2.79481,0 4.92277,1.396249 10.61121,6.962516 10.67314,10.443912 18.11527,23.472528 21.50624,37.650079 0.80106,3.349171 0.88644,4.571095 0.43771,6.263488 -0.70756,2.668539 -2.22869,4.312282 -4.60042,4.971231 -2.88451,0.801424 -22.39776,0.634455 -24.30597,-0.207974 z"
     id="path1359" />
  <path
     style="fill:#3f51b5;stroke-width:0.521917;fill-opacity:1"
     d="M 43.137525,156.01085 C 41.056486,155.59697 32.597009,146.4785 28.282088,139.99818 21.971925,130.52131 17.406011,119.4699 16.711084,111.99153 c -0.286588,-3.08403 -0.180846,-3.80036 0.793851,-5.37769 1.89995,-3.07467 3.777347,-3.49094 15.744282,-3.49094 14.015502,0 14.864119,0.39585 17.397185,8.11522 1.691111,5.15355 4.258347,9.57369 8.391945,14.44888 3.033839,3.57811 3.147629,3.81817 3.147629,6.64069 0,2.77775 -0.281868,3.40869 -5.479693,12.26584 -3.01383,5.13562 -6.087131,9.78434 -6.829567,10.33051 -1.406136,1.0344 -4.49662,1.5328 -6.739191,1.08681 z"
     id="path1357" />
  <path
     style="fill:#ffc63b;stroke-width:0.521917;fill-opacity:1"
     d="m 140.4673,158.99348 c -1.80595,-0.75203 -3.61652,-3.17252 -8.60533,-11.50421 -6.89881,-11.52152 -6.93338,-12.69009 -0.58007,-19.61233 4.79234,-5.22151 8.27245,-11.08665 10.2339,-17.24757 1.15429,-3.62563 1.72793,-4.64816 3.26603,-5.8218 l 1.86579,-1.42369 h 11.78329 c 10.89293,0 11.94103,0.0816 13.87079,1.07973 4.34781,2.24885 4.76157,5.81341 1.76948,15.24406 -4.1927,13.21482 -12.04731,25.36276 -22.90543,35.42553 -4.4002,4.07787 -7.49463,5.19442 -10.69845,3.86028 z"
     id="path1335" />
  <path
     style="fill:#00bcd4;stroke-width:0.521489;fill-opacity:1"
     d="m 76.798463,141.62998 c -1.807967,0.75164 -3.619228,3.17135 -8.583701,11.46717 -3.958835,6.61539 -4.86638,8.52887 -5.06663,10.68261 -0.284389,3.05863 0.887113,5.4062 3.485076,6.98378 2.097653,1.27378 13.591025,4.06461 19.819927,4.81269 10.337925,1.24158 27.404005,-0.37115 33.811715,-3.19516 1.79091,-0.78929 2.45469,-1.4749 3.32082,-3.43005 1.45656,-3.28793 1.15354,-4.15007 -5.35517,-15.23632 -6.70088,-11.41362 -6.46068,-11.23761 -14.55552,-10.66683 -8.247968,0.58156 -13.883139,0.31014 -18.607015,-0.89623 -4.241421,-1.08317 -6.566144,-1.22983 -8.269502,-0.52166 z"
     id="path1383" />
  <path
     id="path2068"
     style="fill:#ffffff;stroke-width:0.521917;fill-opacity:1;opacity:0.1"
     d="M 95.197266 16.001953 C 92.043423 15.981198 89.037612 16.112924 86.453125 16.423828 C 80.22421 17.173136 68.730469 19.968271 66.632812 21.244141 C 64.148023 22.75547 62.983979 24.980776 63.134766 27.851562 C 63.280969 25.460855 64.444252 23.575294 66.632812 22.244141 C 68.730469 20.968271 80.22421 18.173136 86.453125 17.423828 C 89.037612 17.112924 92.043423 16.981193 95.197266 17.001953 C 104.65879 17.064219 115.45985 18.503524 120.26562 20.625 C 122.05654 21.415584 122.7198 22.10219 123.58594 24.060547 C 123.93137 24.841576 124.16573 25.487307 124.25391 26.164062 C 124.36092 25.071943 124.09298 24.206981 123.58594 23.060547 C 122.7198 21.10219 122.05653 20.415584 120.26562 19.625 C 115.45985 17.503524 104.65879 16.064219 95.197266 16.001953 z M 142.55859 32.658203 C 138.81448 32.658203 137.46087 34.064277 131.25 44.402344 C 127.15865 51.212437 125.3685 54.534988 125.60547 57.125 C 125.8431 54.659264 127.66548 51.368811 131.25 45.402344 C 137.46087 35.064277 138.81448 33.658203 142.55859 33.658203 C 145.3534 33.658203 147.48148 35.054827 153.16992 40.621094 C 163.84306 51.065006 171.28481 64.093933 174.67578 78.271484 C 175.06603 79.903097 175.2796 81.021085 175.35156 81.943359 C 175.40958 80.81832 175.21914 79.543233 174.67578 77.271484 C 171.28481 63.093933 163.84306 50.065006 153.16992 39.621094 C 147.48148 34.054827 145.3534 32.658203 142.55859 32.658203 z M 45.609375 35.791016 C 42.243404 35.791016 40.935963 36.558241 36.587891 41.089844 C 29.503064 48.473728 24.118831 56.748723 20.392578 65.978516 C 17.98203 71.949348 16 78.886098 16 81.351562 C 16 81.515295 16.023377 81.686671 16.039062 81.855469 C 16.241368 79.075311 18.115121 72.619687 20.392578 66.978516 C 24.118831 57.748723 29.503064 49.473728 36.587891 42.089844 C 40.935963 37.558241 42.243404 36.791016 45.609375 36.791016 C 49.286554 36.791016 50.613656 38.233153 56.677734 48.835938 C 59.999894 54.644593 61.68324 57.616969 61.884766 59.951172 C 62.153446 57.435885 60.488976 54.499732 56.677734 47.835938 C 50.613656 37.233153 49.286554 35.791016 45.609375 35.791016 z M 33.25 103.12305 C 21.283065 103.12305 19.405809 103.53861 17.505859 106.61328 C 16.726507 107.87449 16.515687 108.64202 16.603516 110.45312 C 16.644705 109.32219 16.887926 108.61327 17.505859 107.61328 C 19.405809 104.53861 21.283065 104.12305 33.25 104.12305 C 47.265502 104.12305 48.113418 104.51891 50.646484 112.23828 C 52.337595 117.39183 54.905465 121.81231 59.039062 126.6875 C 61.789457 129.93131 62.120803 130.51541 62.162109 132.68359 C 62.163932 132.55854 62.185547 132.46199 62.185547 132.32812 C 62.185547 129.50561 62.072903 129.26561 59.039062 125.6875 C 54.905465 120.81231 52.337595 116.39183 50.646484 111.23828 C 48.113418 103.51891 47.265502 103.12305 33.25 103.12305 z M 146.64844 103.38477 L 144.78125 104.80664 C 143.24315 105.98028 142.66992 107.00328 141.51562 110.62891 C 139.55418 116.78983 136.07359 122.65544 131.28125 127.87695 C 127.97658 131.47755 126.4178 133.52906 126.63672 136.2832 C 126.83439 133.99465 128.38672 132.03068 131.28125 128.87695 C 136.07359 123.65544 139.55418 117.78983 141.51562 111.62891 C 142.66992 108.00328 143.24315 106.98028 144.78125 105.80664 L 146.64844 104.38477 L 158.43164 104.38477 C 169.32457 104.38477 170.37102 104.46476 172.30078 105.46289 C 174.77188 106.74103 175.93055 108.48952 175.95703 111.45312 C 176.21607 107.83766 175.0464 105.88303 172.30078 104.46289 C 170.37102 103.46476 169.32457 103.38477 158.43164 103.38477 L 146.64844 103.38477 z M 79.044922 141.19727 C 78.163095 141.2181 77.437587 141.3653 76.798828 141.63086 C 74.990861 142.3825 73.179317 144.80184 68.214844 153.09766 C 64.256009 159.71305 63.348686 161.62556 63.148438 163.7793 C 63.103604 164.26148 63.107377 164.71938 63.134766 165.16602 C 63.141629 165.03589 63.136089 164.91211 63.148438 164.7793 C 63.348686 162.62556 64.256009 160.71305 68.214844 154.09766 C 73.179317 145.80184 74.990861 143.3825 76.798828 142.63086 C 77.437587 142.3653 78.163095 142.21807 79.044922 142.19727 C 80.514633 142.16254 82.417471 142.47536 85.068359 143.15234 C 89.792235 144.35871 95.427814 144.63039 103.67578 144.04883 C 111.77062 143.47805 111.52959 143.30122 118.23047 154.71484 C 122.47234 161.93999 124.05283 164.80995 124.25391 166.85156 C 124.53764 164.67831 123.19575 162.17218 118.23047 153.71484 C 111.52959 142.30122 111.77062 142.47805 103.67578 143.04883 C 95.427814 143.63039 89.792235 143.35871 85.068359 142.15234 C 82.417471 141.47536 80.514633 141.16254 79.044922 141.19727 z " />
</svg>
