<?xml version="1.0" encoding="UTF-8" standalone="no"?>
<svg
   width="192"
   height="192"
   version="1.1"
   id="svg12"
   sodipodi:docname="apps_picsart_studio.svg"
   inkscape:version="1.1-rc (1:1.1+rc+202105232036+f4db50c7c1)"
   xmlns:inkscape="http://www.inkscape.org/namespaces/inkscape"
   xmlns:sodipodi="http://sodipodi.sourceforge.net/DTD/sodipodi-0.dtd"
   xmlns="http://www.w3.org/2000/svg"
   xmlns:svg="http://www.w3.org/2000/svg">
  <defs
     id="defs16">
    <filter
       inkscape:collect="always"
       style="color-interpolation-filters:sRGB"
       id="filter845"
       x="-0.048000001"
       y="-0.048000001"
       width="1.096"
       height="1.096">
      <feGaussianBlur
         inkscape:collect="always"
         stdDeviation="3.2"
         id="feGaussianBlur847" />
    </filter>
    <filter
       inkscape:collect="always"
       style="color-interpolation-filters:sRGB"
       id="filter4748"
       x="-0.057503254"
       y="-0.041252334"
       width="1.1150065"
       height="1.0825047">
      <feGaussianBlur
         inkscape:collect="always"
         stdDeviation="1.5813395"
         id="feGaussianBlur4750" />
    </filter>
    <filter
       inkscape:collect="always"
       style="color-interpolation-filters:sRGB"
       id="filter5098"
       x="-0.027462514"
       y="-0.029664648"
       width="1.054925"
       height="1.0593293">
      <feGaussianBlur
         inkscape:collect="always"
         stdDeviation="1.5414651"
         id="feGaussianBlur5100" />
    </filter>
    <filter
       inkscape:collect="always"
       style="color-interpolation-filters:sRGB"
       id="filter5102"
       x="-0.035105665"
       y="-0.038164826"
       width="1.0702113"
       height="1.0763297">
      <feGaussianBlur
         inkscape:collect="always"
         stdDeviation="1.5414651"
         id="feGaussianBlur5104" />
    </filter>
  </defs>
  <sodipodi:namedview
     id="namedview14"
     pagecolor="#ffffff"
     bordercolor="#666666"
     borderopacity="1.0"
     inkscape:pageshadow="2"
     inkscape:pageopacity="0.0"
     inkscape:pagecheckerboard="0"
     showgrid="false"
     inkscape:zoom="1"
     inkscape:cx="97.5"
     inkscape:cy="90"
     inkscape:window-width="1920"
     inkscape:window-height="1019"
     inkscape:window-x="0"
     inkscape:window-y="34"
     inkscape:window-maximized="1"
     inkscape:current-layer="svg12"
     inkscape:snap-bbox="true"
     inkscape:snap-bbox-midpoints="true" />
  <circle
     style="opacity:0.2;stroke-width:4;filter:url(#filter845)"
     cx="96"
     cy="100"
     r="80"
     id="circle2" />
  <path
     id="circle4"
     style="fill:#e403d1;stroke-width:4"
     d="m 162.99658,111.8818 c 0,20.97784 4.92908,24.18801 -8.28134,38.45585 C 140.10234,166.12023 119.20494,176 96,176 51.81722,176 16,140.18278 16,96 16,78.08882 21.886189,61.552433 31.8297,48.219706 46.414553,28.663649 66.57042,28.008546 92.84202,28.008546 c 44.18278,0 70.15456,39.690475 70.15456,83.873254 z"
     sodipodi:nodetypes="sssssss" />
  <path
     id="path4662"
     style="opacity:0.2;fill:#000000;fill-opacity:1;stroke-width:5.92782;filter:url(#filter5098)"
     d="m 95.681922,29.476726 c -8.13808,0.02274 -12.272506,1.684581 -19.849842,4.05894 C 59.367437,38.694862 41.264977,37.236294 31.019531,51.648938 39.026319,110.3701 89.165174,154.1584 148.42969,154.188 c 1.52148,-0.0794 3.0413,-0.18817 4.55859,-0.32617 10.15057,-10.30272 -4.3154,-12.8975 -0.88836,-26.7109 1.52821,-6.1598 13.60813,-27.01331 13.6311,-33.462775 0,-44.18278 -25.86632,-64.211429 -70.049098,-64.211429 z"
     sodipodi:nodetypes="cscccscc" />
  <path
     id="circle1828"
     style="fill:#664bdd;fill-opacity:1;stroke-width:5.92782"
     d="M 95.681922,27.476226 C 87.543842,27.498965 79.885,17.283019 72.307664,19.657378 55.843021,24.816574 41.264977,35.235794 31.019531,49.648438 39.026319,108.3696 89.165174,152.1579 148.42969,152.1875 c 1.52148,-0.0794 3.0413,-0.18817 4.55859,-0.32617 10.15057,-10.30272 17.23197,-23.07105 20.65901,-36.88445 1.52821,-6.1598 -7.93924,-16.839764 -7.91627,-23.289225 0,-44.18278 -25.86632,-64.211429 -70.049098,-64.211429 z"
     sodipodi:nodetypes="cscccscc" />
  <path
     id="path4664"
     style="opacity:0.2;fill:#000000;fill-opacity:1;stroke-width:5.92782;filter:url(#filter5102)"
     d="m 95.681922,27.476226 c -9.606183,0.0693 -18.803275,-7.607524 -27.771766,-4.165179 9.769955,51.831834 52.607134,90.976323 105.107424,96.046873 1.95349,-6.95191 -7.14613,-11.12866 -7.12046,-18.34977 0,-44.182784 -26.03242,-73.531924 -70.215198,-73.531924 z"
     sodipodi:nodetypes="ccccc" />
  <path
     id="circle1610"
     style="fill:#11e1dc;fill-opacity:1;stroke-width:5.92782"
     d="M 96,16 A 80,80 0 0 0 67.910156,21.310547 118.55634,118.55634 0 0 0 173.01758,117.35742 80,80 0 0 0 176,96 80,80 0 0 0 96,16 Z" />
  <path
     id="path6"
     style="opacity:0.2;fill:#ffffff;stroke-width:4"
     d="M 96,15.998047 A 79.999996,79.99496 0 0 0 16,95.994141 79.999996,79.99496 0 0 0 16.023438,96.632812 79.999996,79.99496 0 0 1 96,17 79.999996,79.99496 0 0 1 175.98438,96.292969 79.999996,79.99496 0 0 0 176,95.994141 79.999996,79.99496 0 0 0 96,15.998047 Z" />
  <path
     id="path4710"
     style="opacity:0.2;fill:#000000;stroke-width:9.68887;stroke-linecap:round;stroke-linejoin:round;filter:url(#filter4748);stop-color:#000000"
     d="M 96,52 A 33,33 0 0 0 63,85 v 59 H 76 V 111.14648 A 33,33 0 0 0 96,118 33,33 0 0 0 129,85 33,33 0 0 0 96,52 Z m 0,13 A 20,20 0 0 1 116,85 20,20 0 0 1 96,105 20,20 0 0 1 76,85 20,20 0 0 1 96,65 Z" />
  <path
     id="path1063"
     style="fill:#ffffff;stroke-width:9.68887;stroke-linecap:round;stroke-linejoin:round;stop-color:#000000"
     d="M 96,50 A 33,33 0 0 0 63,83 v 59 H 76 V 109.14648 A 33,33 0 0 0 96,116 33,33 0 0 0 129,83 33,33 0 0 0 96,50 Z m 0,13 A 20,20 0 0 1 116,83 20,20 0 0 1 96,103 20,20 0 0 1 76,83 20,20 0 0 1 96,63 Z" />
</svg>
