<?xml version="1.0" encoding="UTF-8" standalone="no"?>
<svg
   width="192"
   height="192"
   version="1"
   id="svg16"
   sodipodi:docname="apps_scribd.svg"
   inkscape:version="1.1.1 (1:1.1+202109281949+c3084ef5ed)"
   xmlns:inkscape="http://www.inkscape.org/namespaces/inkscape"
   xmlns:sodipodi="http://sodipodi.sourceforge.net/DTD/sodipodi-0.dtd"
   xmlns="http://www.w3.org/2000/svg"
   xmlns:svg="http://www.w3.org/2000/svg"
   xmlns:rdf="http://www.w3.org/1999/02/22-rdf-syntax-ns#"
   xmlns:cc="http://creativecommons.org/ns#"
   xmlns:dc="http://purl.org/dc/elements/1.1/">
  <metadata
     id="metadata22">
    <rdf:RDF>
      <cc:Work
         rdf:about="">
        <dc:format>image/svg+xml</dc:format>
        <dc:type
           rdf:resource="http://purl.org/dc/dcmitype/StillImage" />
      </cc:Work>
    </rdf:RDF>
  </metadata>
  <defs
     id="defs20">
    <filter
       inkscape:collect="always"
       style="color-interpolation-filters:sRGB"
       id="filter867"
       x="-0.048000001"
       width="1.096"
       y="-0.048000001"
       height="1.096">
      <feGaussianBlur
         inkscape:collect="always"
         stdDeviation="3.2"
         id="feGaussianBlur869" />
    </filter>
    <filter
       inkscape:collect="always"
       style="color-interpolation-filters:sRGB"
       id="filter2869"
       x="-0.054000012"
       y="-0.043199993"
       width="1.108"
       height="1.0864">
      <feGaussianBlur
         inkscape:collect="always"
         stdDeviation="1.980006"
         id="feGaussianBlur2871" />
    </filter>
  </defs>
  <sodipodi:namedview
     pagecolor="#ffffff"
     bordercolor="#666666"
     borderopacity="1"
     objecttolerance="10"
     gridtolerance="10"
     guidetolerance="10"
     inkscape:pageopacity="0"
     inkscape:pageshadow="2"
     inkscape:window-width="1920"
     inkscape:window-height="1014"
     id="namedview18"
     showgrid="false"
     inkscape:zoom="1"
     inkscape:cx="75.5"
     inkscape:cy="70"
     inkscape:window-x="0"
     inkscape:window-y="34"
     inkscape:window-maximized="1"
     inkscape:current-layer="svg16"
     inkscape:pagecheckerboard="0"
     inkscape:snap-bbox="true"
     inkscape:snap-bbox-midpoints="true"
     showguides="false">
    <inkscape:grid
       type="xygrid"
       id="grid7495" />
  </sodipodi:namedview>
  <rect
     id="rect849"
     ry="80"
     rx="80"
     height="160"
     width="160"
     y="-176"
     x="-180"
     transform="matrix(0,-1,-1,0,0,0)"
     style="opacity:0.2;fill:#000000;stroke-width:4;filter:url(#filter867)" />
  <rect
     style="fill:#e4e4e4;fill-opacity:1;stroke-width:4"
     transform="matrix(0,-1,-1,0,0,0)"
     x="-176"
     y="-176"
     width="160"
     height="160"
     rx="80"
     ry="80"
     id="rect2" />
  <path
     style="opacity:0.2;fill:#ffffff;stroke-width:4"
     d="M 96 16 C 51.68 16 16 51.68 16 96 C 16 96.336 16.002 96.6675 16 97 C 16 52.68 51.68 17 96 17 C 140.32 17 176 52.68 176 97 C 175.998 96.6675 176 96.336 176 96 C 176 51.68 140.32 16 96 16 z "
     id="path4" />
  <path
     id="path2831"
     style="opacity:0.2;fill:#000000;fill-opacity:1;stroke-width:0.28101;filter:url(#filter2869)"
     d="m 95.316406,43.000057 c -3.828022,0.01105 -10.227519,0.242665 -11.855468,0.484375 -3.5787,0.53137 -8.271913,1.889474 -11.414063,3.302734 -11.08373,4.98522 -17.481419,13.064591 -19.568359,24.712891 -0.69789,3.89538 -0.620844,11.320477 0.154296,15.029297 1.079541,5.16525 2.931749,8.903925 5.917969,11.947265 3.15024,3.210471 6.366846,4.776611 11.003907,5.357421 10.457609,1.30988 18.387325,-5.293829 18.453124,-15.369139 0.02045,-3.13038 -0.486259,-5.397317 -1.662109,-7.441406 -2.27411,-3.953321 -7.01662,-7.023438 -11.3125,-7.023438 -0.90774,0 -2.94632,0.383434 -4.53125,0.708984 -2.64432,0.54315 -2.56612,0.557373 -3.5,0.164063 -1.50976,-0.63585 -2.033162,-1.724306 -1.976562,-4.384766 0.04182,-1.96655 0.162067,-2.407485 1.242187,-4.515625 1.57245,-3.06901 4.862314,-6.847513 8.052734,-8.658203 4.436311,-2.5178 9.727399,-3.959239 16.417969,-4.261719 8.80545,-0.39807 17.776559,1.570677 25.947269,5.503907 2.98861,1.43866 8.09618,4.556514 8.73633,5.333984 0.22911,0.27825 -0.51669,1.338073 -3.12696,4.445313 -1.88495,2.24382 -4.13672,4.826171 -4.13672,4.826171 l 7.9375,6.453125 L 140,62.931698 c 0,0 -4.96961,-4.626702 -6.91406,-6.169922 -7.34549,-5.82976 -17.33782,-10.49637 -26.58008,-12.41211 -2.40325,-0.49816 -3.71309,-0.695397 -8.490235,-1.279297 -0.432479,-0.05286 -1.423211,-0.074 -2.699219,-0.07031 z m 25.199214,49.011719 c -9.4881,-0.316854 -16.46175,6.077831 -16.52343,15.523444 -0.0204,3.13038 0.48626,5.39731 1.66211,7.4414 2.27411,3.95332 7.01662,7.02344 11.3125,7.02344 0.90774,0 2.94632,-0.38343 4.53125,-0.70898 2.64432,-0.54315 2.56612,-0.55738 3.5,-0.16407 1.50976,0.63585 2.03316,1.72431 1.97656,4.38477 -0.0418,1.96655 -0.16207,2.40748 -1.24219,4.51562 -1.57245,3.06901 -4.86231,6.84752 -8.05273,8.65821 -4.43631,2.5178 -9.7274,3.95924 -16.41797,4.26172 -8.805447,0.39807 -17.776558,-1.57068 -25.947267,-5.50391 -2.988618,-1.43866 -8.096191,-4.55652 -8.736328,-5.33398 -0.229116,-0.27825 0.516684,-1.33808 3.126953,-4.44532 1.884953,-2.24382 4.136719,-4.82617 4.136719,-4.82617 l -7.9375,-6.45312 L 52,133.06842 c 0,0 4.969611,4.6267 6.914062,6.16992 7.345495,5.82976 17.337819,10.49637 26.580079,12.41211 2.403252,0.49816 3.713086,0.6954 8.490234,1.2793 1.729914,0.21145 12.384085,-0.0918 14.554685,-0.41407 3.5787,-0.53137 8.27191,-1.88947 11.41406,-3.30273 11.08374,-4.98522 17.48142,-13.06459 19.56836,-24.71289 0.69789,-3.89538 0.62085,-11.32048 -0.15429,-15.0293 -1.07954,-5.16525 -2.93175,-8.90393 -5.91797,-11.947265 -3.15024,-3.210469 -6.36685,-4.776607 -11.00391,-5.357422 -0.6536,-0.08187 -1.29714,-0.133174 -1.92969,-0.154297 z" />
  <path
     id="path2496"
     style="fill:#029eb2;fill-opacity:1;stroke-width:0.28101"
     d="M 95.316406 41 C 91.488384 41.011055 85.088887 41.242665 83.460938 41.484375 C 79.882238 42.015745 75.189025 43.373849 72.046875 44.787109 C 60.963145 49.772329 54.565456 57.8517 52.478516 69.5 C 51.780626 73.39538 51.857672 80.820477 52.632812 84.529297 C 53.712353 89.694547 55.564561 93.433222 58.550781 96.476562 C 61.701021 99.687033 64.917627 101.25317 69.554688 101.83398 C 80.012297 103.14386 87.942013 96.540154 88.007812 86.464844 C 88.028262 83.334464 87.521553 81.067527 86.345703 79.023438 C 84.071593 75.070117 79.329083 72 75.033203 72 C 74.125463 72 72.086883 72.383434 70.501953 72.708984 C 67.857633 73.252134 67.935833 73.266357 67.001953 72.873047 C 65.492193 72.237197 64.968791 71.148741 65.025391 68.488281 C 65.067211 66.521731 65.187458 66.080796 66.267578 63.972656 C 67.840028 60.903646 71.129892 57.125143 74.320312 55.314453 C 78.756623 52.796653 84.047711 51.355214 90.738281 51.052734 C 99.543731 50.654664 108.51484 52.623411 116.68555 56.556641 C 119.67416 57.995301 124.78173 61.113155 125.42188 61.890625 C 125.65099 62.168875 124.90519 63.228698 122.29492 66.335938 C 120.40997 68.579758 118.1582 71.162109 118.1582 71.162109 L 126.0957 77.615234 L 140 60.931641 C 140 60.931641 135.03039 56.304939 133.08594 54.761719 C 125.74045 48.931959 115.74812 44.265349 106.50586 42.349609 C 104.10261 41.851449 102.79277 41.654212 98.015625 41.070312 C 97.583146 41.01745 96.592414 40.996315 95.316406 41 z M 120.51562 90.011719 C 111.02752 89.694865 104.05387 96.08955 103.99219 105.53516 C 103.97174 108.66554 104.47845 110.93247 105.6543 112.97656 C 107.92841 116.92988 112.67092 120 116.9668 120 C 117.87454 120 119.91312 119.61657 121.49805 119.29102 C 124.14237 118.74787 124.06417 118.73364 124.99805 119.12695 C 126.50781 119.7628 127.03121 120.85126 126.97461 123.51172 C 126.93279 125.47827 126.81254 125.9192 125.73242 128.02734 C 124.15997 131.09635 120.87011 134.87486 117.67969 136.68555 C 113.24338 139.20335 107.95229 140.64479 101.26172 140.94727 C 92.456273 141.34534 83.485162 139.37659 75.314453 135.44336 C 72.325835 134.0047 67.218262 130.88684 66.578125 130.10938 C 66.349009 129.83113 67.094809 128.7713 69.705078 125.66406 C 71.590031 123.42024 73.841797 120.83789 73.841797 120.83789 L 65.904297 114.38477 L 52 131.06836 C 52 131.06836 56.969611 135.69506 58.914062 137.23828 C 66.259557 143.06804 76.251881 147.73465 85.494141 149.65039 C 87.897393 150.14855 89.207227 150.34579 93.984375 150.92969 C 95.714289 151.14114 106.36846 150.83791 108.53906 150.51562 C 112.11776 149.98425 116.81097 148.62615 119.95312 147.21289 C 131.03686 142.22767 137.43454 134.1483 139.52148 122.5 C 140.21937 118.60462 140.14233 111.17952 139.36719 107.4707 C 138.28765 102.30545 136.43544 98.566774 133.44922 95.523438 C 130.29898 92.312969 127.08237 90.746831 122.44531 90.166016 C 121.79171 90.084149 121.14817 90.032842 120.51562 90.011719 z " />
</svg>
