<?xml version="1.0" encoding="UTF-8" standalone="no"?>
<svg
   width="192"
   height="192"
   version="1.1"
   id="svg14"
   sodipodi:docname="apps_mytherapy.svg"
   inkscape:version="1.1.1 (1:1.1+202109281949+c3084ef5ed)"
   xmlns:inkscape="http://www.inkscape.org/namespaces/inkscape"
   xmlns:sodipodi="http://sodipodi.sourceforge.net/DTD/sodipodi-0.dtd"
   xmlns="http://www.w3.org/2000/svg"
   xmlns:svg="http://www.w3.org/2000/svg">
  <defs
     id="defs18">
    <filter
       inkscape:collect="always"
       style="color-interpolation-filters:sRGB"
       id="filter2302"
       x="-0.048"
       y="-0.048"
       width="1.096"
       height="1.096">
      <feGaussianBlur
         inkscape:collect="always"
         stdDeviation="1.76"
         id="feGaussianBlur2304" />
    </filter>
    <filter
       inkscape:collect="always"
       style="color-interpolation-filters:sRGB"
       id="filter2347"
       x="-0.047999991"
       y="-0.048000006"
       width="1.096"
       height="1.096">
      <feGaussianBlur
         inkscape:collect="always"
         stdDeviation="3.2000018"
         id="feGaussianBlur2349" />
    </filter>
  </defs>
  <sodipodi:namedview
     id="namedview16"
     pagecolor="#ffffff"
     bordercolor="#666666"
     borderopacity="1.0"
     inkscape:pageshadow="2"
     inkscape:pageopacity="0.0"
     inkscape:pagecheckerboard="0"
     showgrid="false"
     inkscape:zoom="1.88"
     inkscape:cx="160.37234"
     inkscape:cy="39.361702"
     inkscape:window-width="1920"
     inkscape:window-height="1014"
     inkscape:window-x="0"
     inkscape:window-y="34"
     inkscape:window-maximized="1"
     inkscape:current-layer="svg14"
     inkscape:snap-bbox="true"
     inkscape:snap-bbox-midpoints="true">
    <inkscape:grid
       type="xygrid"
       id="grid2617" />
  </sodipodi:namedview>
  <path
     id="path2306"
     style="opacity:0.2;fill:#000000;fill-opacity:1;stroke:none;stroke-width:4.79678;stroke-linecap:round;stroke-linejoin:round;filter:url(#filter2347)"
     d="m 123.55273,18.999937 c -11.38358,0 -22.76559,4.361292 -31.488277,13.083984 L 60.574219,63.574156 29.083984,95.06439 c -17.445385,17.44539 -17.445385,45.53313 0,62.97852 l 7.873047,7.87305 c 17.445385,17.44539 45.533131,17.44539 62.978516,0 l 31.490233,-31.49024 31.49024,-31.49024 c 17.44539,-17.44538 17.44539,-45.533127 0,-62.978512 l -7.87305,-7.873047 C 146.32028,23.361229 134.93632,18.999937 123.55273,18.999937 Z" />
  <path
     id="path1554"
     style="opacity:1;fill:#e4e4e4;fill-opacity:1;stroke:none;stroke-width:4.79678;stroke-linecap:round;stroke-linejoin:round"
     d="m 29.084039,155.0435 c -17.445385,-17.44539 -17.445385,-45.53435 0,-62.979733 L 60.573903,60.573903 131.4261,131.4261 99.936233,162.91596 c -17.445385,17.44539 -45.534343,17.44539 -62.979728,0 z" />
  <path
     style="fill:#fdfdfd;stroke-width:1.33333"
     d="m -889.2227,318.08219 c 0.0949,-32.47444 0.58456,-51.1182 1.24001,-47.213 3.15072,18.77205 13.38142,41.61061 25.3253,56.53512 17.11416,21.38502 46.26187,38.26567 74.15753,42.94771 3.9052,0.65545 -14.73857,1.14512 -47.213,1.24001 l -53.66667,0.15683 z m 581.63019,52.26983 c 27.89567,-4.68204 57.04338,-21.56269 74.15754,-42.94771 11.94388,-14.92451 22.17457,-37.76307 25.32529,-56.53512 0.65545,-3.9052 1.14512,14.73856 1.24001,47.213 l 0.15683,53.66667 -53.66667,-0.15683 c -32.47444,-0.0949 -51.1182,-0.58456 -47.213,-1.24001 z m -424.45368,-83.9365 v -8 h 6.019 6.01899 l -0.35232,-41.66666 -0.35234,-41.66667 -5.66666,-0.41 -5.66667,-0.41 v -7.2943 -7.29429 l 18.33333,0.37096 18.33334,0.37096 0.39834,8.38669 0.39834,8.38668 4.26833,-6.31068 c 14.66083,-21.67592 45.91946,-14.41921 53.7379,12.4753 3.11653,10.72048 2.08749,30.63343 -2.0723,40.10125 -9.21595,20.97583 -34.46667,27.98362 -49.45531,13.72527 l -5.2753,-5.01828 v 13.12689 13.12688 h 7.33333 7.33333 v 8 8 h -26.66666 -26.66667 z m 62.32551,-38.93548 c 3.57062,-2.96106 5.79273,-10.234 6.59345,-21.58026 1.03732,-14.69891 -1.84257,-25.12717 -7.97112,-28.86393 -5.19311,-3.1664 -6.60787,-3.22313 -12.35596,-0.49548 -7.06959,3.35475 -11.25855,13.09542 -11.25855,26.17976 0,14.01027 3.98039,23.31631 11.33334,26.49701 3.40017,1.47082 10.94808,0.5109 13.65884,-1.7371 z m -143.65885,3.60215 v -15.33333 h 6.61324 c 6.24477,0 6.96908,0.38232 13,6.86201 7.10914,7.63815 14.67177,11.73125 21.75676,11.77537 6.75357,0.042 10.63,-3.10774 10.63,-8.63738 0,-5.93574 -2.698,-7.72698 -19.33333,-12.8356 -24.98631,-7.67317 -31.33333,-13.15083 -31.33333,-27.04157 0,-16.72324 11.72735,-27.45617 30,-27.45617 8.25059,0 14.46641,1.89715 20.23283,6.17533 l 4.23284,3.1404 1.53723,-4.65786 c 1.50647,-4.56467 1.68282,-4.65787 8.81227,-4.65787 h 7.27504 l -0.37844,14.33333 -0.37844,14.33334 -6.39504,0.4089 c -6.16565,0.39424 -6.60721,0.17291 -12.3106,-6.17062 -3.25356,-3.61875 -7.96647,-7.55275 -10.47314,-8.74224 -9.52337,-4.51914 -19.48789,-1.53443 -19.48789,5.83729 0,5.23347 3.16616,7.17025 20.66667,12.64204 19.15436,5.98891 26.27179,10.4892 29.35423,18.56043 3.06267,8.01951 1.92004,16.95819 -3.08467,24.13087 -9.83283,14.09229 -34.25688,16.96332 -49.62183,5.833 l -5.22462,-3.7847 -1.42961,5.30919 c -1.42298,5.28452 -1.46033,5.30917 -8.04489,5.30917 h -6.61528 z m 297.80397,12.58556 c -10.513,-3.33243 -20.25049,-11.85841 -24.60794,-21.54632 -2.61847,-5.82164 -3.16514,-9.23024 -3.16039,-19.70591 0.005,-10.73073 0.50345,-13.67697 3.26215,-19.27708 4.3377,-8.80549 11.98337,-16.21787 21.17161,-20.52564 6.572,-3.08119 9.22789,-3.53061 20.86395,-3.53061 11.64029,0 14.29081,0.44888 20.87384,3.53514 15.23957,7.14463 23.86964,20.93632 24.01789,38.38296 0.0949,11.17805 -1.84239,18.21041 -7.24319,26.29169 -10.91202,16.32774 -33.85165,23.1358 -55.17792,16.37577 z m 24.8078,-11.22383 c 6.21619,-3.21452 8.72368,-11.85914 8.71015,-30.0284 -0.0133,-17.49763 -1.635,-23.67685 -7.51321,-28.62303 -9.1219,-7.67557 -20.98712,-2.50589 -23.87595,10.40275 -2.27148,10.15004 -1.14179,36.33012 1.806,41.85315 4.07571,7.63633 13.11667,10.40649 20.87301,6.39553 z m 67.54731,12.59238 c -5.41296,-1.62072 -10.07302,-6.2978 -13.23908,-13.28744 -2.34513,-5.17732 -2.80098,-9.51926 -3.32472,-31.66667 l -0.60693,-25.66667 h -5.82751 -5.82749 v -7.33333 -7.33334 h 19.2432 19.2432 l 0.42347,30.39632 c 0.4769,34.23205 1.10281,36.73482 9.58473,38.32605 6.20543,1.16414 12.16977,-2.18399 15.49232,-8.69672 2.33248,-4.57206 2.67975,-7.85136 2.67975,-25.30586 v -20.05312 h -6 -6 v -7.33333 -7.33334 h 19.3112 19.31118 l 0.35548,35 0.35547,35.00001 5.66667,0.41 5.66667,0.41 v 7.29429 7.29429 l -18.33334,-0.37096 -18.33333,-0.37096 -0.39506,-9.83038 -0.39505,-9.83039 -3.71413,5.85659 c -8.4311,13.29446 -21.41304,18.59388 -35.3367,14.42496 z m 109.7257,0.10493 c -6.02491,-1.82585 -10.6184,-5.63516 -13.58127,-11.26271 -2.60994,-4.95722 -2.92412,-7.96269 -3.39342,-32.463 l -0.51719,-27 h -7.19644 -7.19644 v -6.66667 -6.66666 h 8 8 v -9.89406 c 0,-11.31773 -1.08691,-10.50553 16.33333,-12.20517 l 9,-0.87809 v 11.48865 11.48867 h 14 14 v 6.62002 6.62002 l -13.66666,0.37998 -13.66667,0.37998 -0.36409,22.83228 c -0.39318,24.65516 0.39542,28.99457 5.70917,31.41568 4.65396,2.12048 9.84807,-1.8274 12.37396,-9.40507 1.79961,-5.39884 2.08188,-5.62053 6.08407,-4.7784 6.46865,1.36114 6.9332,2.47795 4.38856,10.55046 -4.32691,13.7265 -13.70343,20.7353 -27.525,20.5745 -4.03334,-0.0469 -8.88519,-0.55561 -10.78191,-1.13041 z m -313.2181,-7.36476 v -7.36095 h 6 6 v -28 -28 h -6 -6 v -7.37096 -7.37096 l 18.33333,0.37096 18.33333,0.37096 0.39804,9.16607 0.39804,9.16606 4.26863,-7.07992 c 11.91721,-19.76584 38.26863,-16.9094 38.26863,4.14824 0,7.34492 -6.72954,14.60216 -13.53334,14.59456 -6.78669,-0.008 -12.59869,-4.1878 -13.98753,-10.0604 l -1.17443,-4.96598 -4.3669,3.6745 c -7.54143,6.3457 -8.27114,9.10624 -8.27114,31.29066 v 20.06621 h 8.06968 8.06968 l -0.40301,7 -0.40301,7 -27,0.36095 -27,0.36093 z M -571.37952,90.938759 C -640.2348,78.647262 -691.10776,19.438594 -695.63006,-53.670676 l -0.78885,-12.752867 -6.05249,-3.247133 c -8.43224,-4.523867 -11.28508,-8.9278 -11.97663,-18.488321 -1.01752,-14.066983 5.64756,-23.381773 20.10229,-28.093973 6.53147,-2.12924 6.53158,-2.12937 11.58136,-14.37088 25.52416,-61.8747 85.4015,-102.96064 150.05153,-102.96064 41.44501,0 78.58443,16.08207 107.65584,46.61703 19.60271,20.58957 31.36544,42.0535 39.32359,71.75533 3.14801,11.74919 3.47887,15.32952 3.53872,38.294307 0.0729,27.957441 -1.81329,39.292775 -10.1878,61.225895 -3.17773,8.3225607 -3.70625,11.005614 -2.49515,12.666668 7.8397,10.752227 9.37038,16.33452 6.95511,25.364907 -4.16859,15.585894 -15.80093,22.498361 -31.51617,18.728334 l -7.20111,-1.72752 -9.90269,9.4066 c -36.09739,34.288988 -88.04657,50.544348 -134.83701,42.191698 z m 36.0532,-45.243898 c 13.8091,-3.5692 27.8848,-15.208014 23.58831,-19.504507 -1.11727,-1.117267 -2.6942,-0.460147 -6.12536,2.552467 -6.59605,5.7914 -13.15676,7.68668 -26.18281,7.563813 -19.58014,-0.184693 -40.64014,-8.452333 -54.70863,-21.477281 -8.88483,-8.225786 -12.74488,-14.526693 -14.1032,-23.0211603 -0.65672,-4.1069067 -1.43323,-5.4090407 -3.03532,-5.0900407 -1.6944,0.337374 -2.15163,2.125401 -2.14708,8.396347 0.008,10.516187 5.20714,21.181948 15.19024,31.159682 17.43818,17.428827 44.79202,25.29612 67.52385,19.42068 z m 44.9468,-66.075349 c 2.6791,-3.25252 3.03123,-11.517893 0.62427,-14.65288 -7.24455,-9.435747 -22.29093,-5.289494 -22.29093,6.1426 0,6.402613 2.009,9.825147 6.99884,11.923227 5.03678,2.1178 11.31556,0.65684 14.66782,-3.412947 z m -91.33333,-35.276921 c 4.60104,-5.228493 4.11738,-12.749814 -1.10231,-17.141894 -5.55656,-4.675533 -11.03161,-4.523067 -16.00025,0.445587 -8.70184,8.70184 -1.91484,22.632894 10.10256,20.736601 2.2,-0.34716 5.35,-2.165294 7,-4.040294 z m -307.54635,-200.927081 -0.12033,-54.33334 54.33334,0.12033 c 48.79558,0.10807 53.36053,0.29686 44.78876,1.85229 -36.89967,6.69582 -68.40455,29.86129 -85.32443,62.73889 -6.41105,12.45753 -9.44183,21.27702 -11.82505,34.41059 -1.55543,8.57177 -1.74422,4.00682 -1.85229,-44.78876 z m 681.21303,49.87995 c 0,-7.40221 -5.39542,-25.05969 -11.35922,-37.17511 -16.92772,-34.38855 -48.54583,-58.19118 -86.42955,-65.06556 -8.57177,-1.55543 -4.00682,-1.74422 44.78876,-1.85229 l 54.33334,-0.12033 v 54 c 0,29.7 -0.3,54 -0.66667,54 -0.36666,0 -0.66666,-1.70402 -0.66666,-3.78671 z"
     id="path953" />
  <path
     id="rect933"
     style="opacity:1;fill:#009eed;fill-opacity:1;stroke:none;stroke-width:4.79678;stroke-linecap:round;stroke-linejoin:round"
     d="m 155.04349,29.084039 c -17.44538,-17.445384 -45.53434,-17.445384 -62.979723,0 L 60.573903,60.573903 131.4261,131.4261 162.91596,99.936233 c 17.44539,-17.445384 17.44539,-45.534343 0,-62.979728 z" />
  <path
     id="path2351"
     style="opacity:0.2;fill:#ffffff;fill-opacity:1;stroke:none;stroke-width:4.79678;stroke-linecap:round;stroke-linejoin:round"
     d="M 123.55273 16 C 112.16915 16 100.78714 20.361292 92.064453 29.083984 L 60.574219 60.574219 L 29.083984 92.064453 C 20.233436 100.915 15.893707 112.50318 16.023438 124.05273 C 16.149476 112.83695 20.489206 101.65923 29.083984 93.064453 L 60.574219 61.574219 L 92.064453 30.083984 C 100.78714 21.361292 112.16915 17 123.55273 17 C 134.93632 17 146.32028 21.361292 155.04297 30.083984 L 162.91602 37.957031 C 171.5108 46.551809 175.85052 57.729525 175.97656 68.945312 C 176.10584 57.396325 171.76613 45.80714 162.91602 36.957031 L 155.04297 29.083984 C 146.32028 20.361292 134.93632 16 123.55273 16 z " />
  <circle
     id="circle2264"
     r="44"
     cy="142"
     cx="144"
     style="opacity:0.2;fill:#000000;fill-opacity:1;stroke-width:4;filter:url(#filter2302)" />
  <circle
     id="circle20"
     r="44"
     cy="140"
     cx="144"
     style="fill:#ed3939;fill-opacity:1;stroke-width:4" />
  <path
     style="fill:#ffffff;stroke-width:3.1713"
     d="m 143.99987,116 c 1.72858,0 3.04278,1.44001 3.04278,3.2 0,0.096 0,0.224 -0.0313,0.32001 7.19714,1.472 13.33544,7.91174 12.98865,15.68 v 6.4 7.99999 l 6,6.4 v 2 H 159.71429 128.28571 122 v -2 l 6,-6.4 v -14.39999 c 0,-7.776 5.79156,-14.208 12.9887,-15.68 -0.0314,-0.096 -0.0314,-0.224 -0.0314,-0.32001 0,-1.75999 1.31416,-3.2 3.04273,-3.2 z m 5.43714,45 c -1.13142,1.98401 -3.2057,3 -5.43714,3 -2.23143,0 -4.30571,-1.016 -5.43714,-3 z"
     id="path1948"
     sodipodi:nodetypes="cscscccccccccscscccscc" />
</svg>
