<?xml version="1.0" encoding="UTF-8" standalone="no"?>
<svg
   width="192"
   height="192"
   version="1"
   id="svg28"
   sodipodi:docname="apps_samsung_pass.svg"
   inkscape:version="1.1.2 (1:1.1+202202050950+0a00cf5339)"
   xmlns:inkscape="http://www.inkscape.org/namespaces/inkscape"
   xmlns:sodipodi="http://sodipodi.sourceforge.net/DTD/sodipodi-0.dtd"
   xmlns="http://www.w3.org/2000/svg"
   xmlns:svg="http://www.w3.org/2000/svg"
   xmlns:rdf="http://www.w3.org/1999/02/22-rdf-syntax-ns#"
   xmlns:cc="http://creativecommons.org/ns#"
   xmlns:dc="http://purl.org/dc/elements/1.1/">
  <metadata
     id="metadata34">
    <rdf:RDF>
      <cc:Work
         rdf:about="">
        <dc:format>image/svg+xml</dc:format>
        <dc:type
           rdf:resource="http://purl.org/dc/dcmitype/StillImage" />
      </cc:Work>
    </rdf:RDF>
  </metadata>
  <defs
     id="defs32">
    <filter
       inkscape:collect="always"
       style="color-interpolation-filters:sRGB"
       id="filter6495"
       x="-0.048000001"
       y="-0.048000001"
       width="1.096"
       height="1.096">
      <feGaussianBlur
         inkscape:collect="always"
         stdDeviation="3.2"
         id="feGaussianBlur6497" />
    </filter>
    <filter
       inkscape:collect="always"
       style="color-interpolation-filters:sRGB"
       id="filter21618"
       x="-0.050304878"
       y="-0.14732143"
       width="1.1006098"
       height="1.2946429">
      <feGaussianBlur
         inkscape:collect="always"
         stdDeviation="2.578125"
         id="feGaussianBlur21620" />
    </filter>
  </defs>
  <sodipodi:namedview
     pagecolor="#ffffff"
     bordercolor="#666666"
     borderopacity="1"
     objecttolerance="10"
     gridtolerance="10"
     guidetolerance="10"
     inkscape:pageopacity="0"
     inkscape:pageshadow="2"
     inkscape:window-width="1920"
     inkscape:window-height="1019"
     id="namedview30"
     showgrid="false"
     inkscape:zoom="1"
     inkscape:cx="117.5"
     inkscape:cy="65"
     inkscape:window-x="0"
     inkscape:window-y="34"
     inkscape:window-maximized="1"
     inkscape:current-layer="svg28"
     inkscape:pagecheckerboard="0">
    <inkscape:grid
       type="xygrid"
       id="grid841" />
  </sodipodi:namedview>
  <rect
     id="rect6457"
     transform="matrix(0,-1,-1,0,0,0)"
     ry="12"
     rx="12"
     y="-176"
     x="-180"
     height="160"
     width="160"
     style="opacity:0.2;fill:#000000;fill-opacity:1;stroke-width:4;filter:url(#filter6495)" />
  <rect
     id="rect2"
     transform="matrix(0,-1,-1,0,0,0)"
     ry="12"
     rx="12"
     y="-176"
     x="-176"
     height="160"
     width="160"
     style="fill:#3258cb;fill-opacity:1;stroke-width:4" />
  <path
     id="path21580"
     style="opacity:0.2;fill:#000000;stroke-width:8.51221;stroke-linecap:round;stroke-linejoin:round;filter:url(#filter21618)"
     d="m 35,74 v 21 21 H 39.005859 43 v -12 h 4.427734 c 6.695157,0 9.73597,-1.02018 13.197266,-4.427734 3.269183,-3.218445 4.911901,-8.132963 4.21875,-12.621094 C 64.11257,82.216836 61.249703,78.096847 57.224609,75.982422 53.829047,74.198712 52.435519,74 43.263672,74 Z m 8,7 4.111328,0.113281 c 3.650794,0.101248 4.289651,0.207599 5.707031,0.945313 5.641893,2.936486 5.556652,11.123147 -0.146484,14.046875 C 51.049355,96.937257 50.64952,97 46.962891,97 H 43 v -8 z m 40,1 c -8.836556,0 -16,7.611159 -16,17 0,9.38884 7.163444,17 16,17 4.098759,-0.0141 8.03613,-1.69892 11,-4.70703 V 116 h 8 V 82 h -8 v 4.662109 C 91.02952,83.670397 87.092927,82.001956 83,82 Z m 34.9375,0 c -1.62507,0 -3.18743,0.209519 -4.6875,0.626953 -1.50006,0.375691 -3.33328,0.979585 -4.5,1.814453 -1.12505,0.793125 -2.04163,1.816058 -2.75,3.06836 -0.66669,1.210559 -1,2.629819 -1,4.257812 0,1.711479 0.35413,3.151498 1.0625,4.320313 0.70836,1.127071 1.60412,2.108491 2.6875,2.943359 1.08338,0.793125 2.74994,1.44048 4,1.94141 1.29172,0.50092 2.52078,0.93876 3.6875,1.31445 1.66674,0.58441 3.04162,1.19026 4.125,1.81641 1.12505,0.58441 1.6875,1.37706 1.6875,2.3789 0,1.00185 -0.52079,1.71147 -1.5625,2.12891 -1.00004,0.37569 -2.12495,0.56445 -3.375,0.56445 -1.54174,0 -3.14576,-0.23027 -4.8125,-0.68945 -1.66674,-0.45918 -3.31438,-1.10654 -4.93945,-1.94141 l -2.5,6.19922 C 108.93572,114.9148 113.16646,116 117.75,116 c 1.7084,0 3.3541,-0.16605 4.9375,-0.5 1.62507,-0.33395 3.04162,-0.87753 4.25,-1.62891 1.25006,-0.79313 2.22914,-1.7953 2.9375,-3.00586 0.75003,-1.2523 1.125,-2.79611 1.125,-4.63281 0,-1.75323 -0.35413,-3.214 -1.0625,-4.38281 -0.66669,-1.16882 -1.54162,-2.150235 -2.625,-2.94336 -1.04171,-0.793125 -2.20828,-1.440485 -3.5,-1.941406 -1.29172,-0.500921 -2.52078,-0.938762 -3.6875,-1.314453 -1.62507,-0.542664 -3.02079,-1.106999 -4.1875,-1.691407 -1.12505,-0.626151 -1.6875,-1.439564 -1.6875,-2.441406 0,-0.918355 0.43746,-1.586472 1.3125,-2.003906 0.87504,-0.459177 1.91661,-0.689453 3.125,-0.689453 1.25005,0 2.60411,0.209519 4.0625,0.626953 1.4584,0.417434 3.06242,1.106308 4.8125,2.066406 L 130,85.318359 c -1.75008,-1.085328 -3.70824,-1.898741 -5.875,-2.441406 C 121.99991,82.292546 119.93759,82 117.9375,82 Z m 27,0 c -1.62507,0 -3.18743,0.209519 -4.6875,0.626953 -1.50006,0.375691 -3.33328,0.979585 -4.5,1.814453 -1.12505,0.793125 -2.04163,1.816058 -2.75,3.06836 -0.66669,1.210559 -1,2.629819 -1,4.257812 0,1.711479 0.35413,3.151498 1.0625,4.320313 0.70836,1.127071 1.60412,2.108491 2.6875,2.943359 1.08338,0.793125 2.74994,1.44048 4,1.94141 1.29172,0.50092 2.52078,0.93876 3.6875,1.31445 1.66674,0.58441 3.04162,1.19026 4.125,1.81641 1.12505,0.58441 1.6875,1.37706 1.6875,2.3789 0,1.00185 -0.52079,1.71147 -1.5625,2.12891 -1.00004,0.37569 -2.12495,0.56445 -3.375,0.56445 -1.54174,0 -3.14576,-0.23027 -4.8125,-0.68945 -1.66674,-0.45918 -3.31438,-1.10654 -4.93945,-1.94141 l -2.5,6.19922 C 135.93572,114.9148 140.16646,116 144.75,116 c 1.7084,0 3.3541,-0.16605 4.9375,-0.5 1.62507,-0.33395 3.04162,-0.87753 4.25,-1.62891 1.25006,-0.79313 2.22914,-1.7953 2.9375,-3.00586 0.75003,-1.2523 1.125,-2.79611 1.125,-4.63281 0,-1.75323 -0.35413,-3.214 -1.0625,-4.38281 -0.66669,-1.16882 -1.54162,-2.150235 -2.625,-2.94336 -1.04171,-0.793125 -2.20828,-1.440485 -3.5,-1.941406 -1.29172,-0.500921 -2.52078,-0.938762 -3.6875,-1.314453 -1.62507,-0.542664 -3.02079,-1.106999 -4.1875,-1.691407 -1.12505,-0.626151 -1.6875,-1.439564 -1.6875,-2.441406 0,-0.918355 0.43746,-1.586472 1.3125,-2.003906 0.87504,-0.459177 1.91661,-0.689453 3.125,-0.689453 1.25005,0 2.60411,0.209519 4.0625,0.626953 1.4584,0.417434 3.06242,1.106308 4.8125,2.066406 L 157,85.318359 c -1.75008,-1.085328 -3.70824,-1.898741 -5.875,-2.441406 C 148.99991,82.292546 146.93759,82 144.9375,82 Z M 84,89 c 5.522847,0 10,4.477153 10,10 0,5.52285 -4.477153,10 -10,10 -5.522847,0 -10,-4.47715 -10,-10 0,-5.522847 4.477153,-10 10,-10 z" />
  <path
     id="path9687"
     style="fill:#ffffff;stroke-width:8.51221;stroke-linecap:round;stroke-linejoin:round"
     d="m 35,72 v 21 21 H 39.005859 43 v -12 h 4.427734 c 6.695157,0 9.73597,-1.02018 13.197266,-4.427734 3.269183,-3.218445 4.911901,-8.132963 4.21875,-12.621094 C 64.11257,80.216836 61.249703,76.096847 57.224609,73.982422 53.829047,72.198712 52.435519,72 43.263672,72 Z m 8,7 4.111328,0.113281 c 3.650794,0.101248 4.289651,0.207599 5.707031,0.945313 5.641893,2.936486 5.556652,11.123147 -0.146484,14.046875 C 51.049355,94.937257 50.64952,95 46.962891,95 H 43 v -8 z m 40,1 c -8.836556,0 -16,7.611159 -16,17 0,9.38884 7.163444,17 16,17 4.098759,-0.0141 8.03613,-1.69892 11,-4.70703 V 114 h 8 V 80 h -8 v 4.662109 C 91.02952,81.670397 87.092927,80.001956 83,80 Z m 34.9375,0 c -1.62507,0 -3.18743,0.209519 -4.6875,0.626953 -1.50006,0.375691 -3.33328,0.979585 -4.5,1.814453 -1.12505,0.793125 -2.04163,1.816058 -2.75,3.06836 -0.66669,1.210559 -1,2.629819 -1,4.257812 0,1.711479 0.35413,3.151498 1.0625,4.320313 0.70836,1.127071 1.60412,2.108491 2.6875,2.943359 1.08338,0.793125 2.74994,1.440485 4,1.941406 1.29172,0.500921 2.52078,0.938766 3.6875,1.314454 1.66674,0.58441 3.04162,1.19026 4.125,1.81641 1.12505,0.58441 1.6875,1.37706 1.6875,2.3789 0,1.00185 -0.52079,1.71147 -1.5625,2.12891 -1.00004,0.37569 -2.12495,0.56445 -3.375,0.56445 -1.54174,0 -3.14576,-0.23027 -4.8125,-0.68945 -1.66674,-0.45918 -3.31438,-1.10654 -4.93945,-1.94141 l -2.5,6.19922 C 108.93572,112.9148 113.16646,114 117.75,114 c 1.7084,0 3.3541,-0.16605 4.9375,-0.5 1.62507,-0.33395 3.04162,-0.87753 4.25,-1.62891 1.25006,-0.79313 2.22914,-1.7953 2.9375,-3.00586 0.75003,-1.2523 1.125,-2.79611 1.125,-4.63281 0,-1.75323 -0.35413,-3.214 -1.0625,-4.382811 -0.66669,-1.168815 -1.54162,-2.150234 -2.625,-2.943359 -1.04171,-0.793125 -2.20828,-1.440485 -3.5,-1.941406 -1.29172,-0.500921 -2.52078,-0.938762 -3.6875,-1.314453 -1.62507,-0.542664 -3.02079,-1.106999 -4.1875,-1.691407 -1.12505,-0.626151 -1.6875,-1.439564 -1.6875,-2.441406 0,-0.918355 0.43746,-1.586472 1.3125,-2.003906 0.87504,-0.459177 1.91661,-0.689453 3.125,-0.689453 1.25005,0 2.60411,0.209519 4.0625,0.626953 1.4584,0.417434 3.06242,1.106308 4.8125,2.066406 L 130,83.318359 c -1.75008,-1.085328 -3.70824,-1.898741 -5.875,-2.441406 C 121.99991,80.292546 119.93759,80 117.9375,80 Z m 27,0 c -1.62507,0 -3.18743,0.209519 -4.6875,0.626953 -1.50006,0.375691 -3.33328,0.979585 -4.5,1.814453 -1.12505,0.793125 -2.04163,1.816058 -2.75,3.06836 -0.66669,1.210559 -1,2.629819 -1,4.257812 0,1.711479 0.35413,3.151498 1.0625,4.320313 0.70836,1.127071 1.60412,2.108491 2.6875,2.943359 1.08338,0.793125 2.74994,1.440485 4,1.941406 1.29172,0.500921 2.52078,0.938766 3.6875,1.314454 1.66674,0.58441 3.04162,1.19026 4.125,1.81641 1.12505,0.58441 1.6875,1.37706 1.6875,2.3789 0,1.00185 -0.52079,1.71147 -1.5625,2.12891 -1.00004,0.37569 -2.12495,0.56445 -3.375,0.56445 -1.54174,0 -3.14576,-0.23027 -4.8125,-0.68945 -1.66674,-0.45918 -3.31438,-1.10654 -4.93945,-1.94141 l -2.5,6.19922 C 135.93572,112.9148 140.16646,114 144.75,114 c 1.7084,0 3.3541,-0.16605 4.9375,-0.5 1.62507,-0.33395 3.04162,-0.87753 4.25,-1.62891 1.25006,-0.79313 2.22914,-1.7953 2.9375,-3.00586 0.75003,-1.2523 1.125,-2.79611 1.125,-4.63281 0,-1.75323 -0.35413,-3.214 -1.0625,-4.382811 -0.66669,-1.168815 -1.54162,-2.150234 -2.625,-2.943359 -1.04171,-0.793125 -2.20828,-1.440485 -3.5,-1.941406 -1.29172,-0.500921 -2.52078,-0.938762 -3.6875,-1.314453 -1.62507,-0.542664 -3.02079,-1.106999 -4.1875,-1.691407 -1.12505,-0.626151 -1.6875,-1.439564 -1.6875,-2.441406 0,-0.918355 0.43746,-1.586472 1.3125,-2.003906 0.87504,-0.459177 1.91661,-0.689453 3.125,-0.689453 1.25005,0 2.60411,0.209519 4.0625,0.626953 1.4584,0.417434 3.06242,1.106308 4.8125,2.066406 L 157,83.318359 c -1.75008,-1.085328 -3.70824,-1.898741 -5.875,-2.441406 C 148.99991,80.292546 146.93759,80 144.9375,80 Z M 84,87 c 5.522847,0 10,4.477153 10,10 0,5.52285 -4.477153,10 -10,10 -5.522847,0 -10,-4.47715 -10,-10 0,-5.522847 4.477153,-10 10,-10 z" />
  <path
     id="rect6416"
     style="opacity:0.1;fill:#ffffff;fill-opacity:1;stroke-width:4"
     d="m 28,16 c -6.648,0 -12,5.352 -12,12 v 1 c 0,-6.648 5.352,-12 12,-12 h 136 c 6.648,0 12,5.352 12,12 v -1 c 0,-6.648 -5.352,-12 -12,-12 z" />
</svg>
