<?xml version="1.0" encoding="UTF-8" standalone="no"?>
<svg
   width="192"
   height="192"
   version="1"
   id="svg20"
   sodipodi:docname="apps_pulse_sms.svg"
   inkscape:version="1.1-rc (1:1.1+rc+202105232036+f4db50c7c1)"
   xmlns:inkscape="http://www.inkscape.org/namespaces/inkscape"
   xmlns:sodipodi="http://sodipodi.sourceforge.net/DTD/sodipodi-0.dtd"
   xmlns="http://www.w3.org/2000/svg"
   xmlns:svg="http://www.w3.org/2000/svg">
  <defs
     id="defs24">
    <filter
       inkscape:collect="always"
       style="color-interpolation-filters:sRGB"
       id="filter941"
       x="-0.048000001"
       y="-0.048000001"
       width="1.096"
       height="1.096">
      <feGaussianBlur
         inkscape:collect="always"
         stdDeviation="3.2"
         id="feGaussianBlur943" />
    </filter>
    <filter
       inkscape:collect="always"
       style="color-interpolation-filters:sRGB"
       id="filter945"
       x="-0.048"
       y="-0.048000002"
       width="1.096"
       height="1.096">
      <feGaussianBlur
         inkscape:collect="always"
         stdDeviation="1.76"
         id="feGaussianBlur947" />
    </filter>
  </defs>
  <sodipodi:namedview
     id="namedview22"
     pagecolor="#ffffff"
     bordercolor="#666666"
     borderopacity="1.0"
     inkscape:pageshadow="2"
     inkscape:pageopacity="0.0"
     inkscape:pagecheckerboard="0"
     showgrid="false"
     inkscape:zoom="2.86"
     inkscape:cx="23.951049"
     inkscape:cy="79.895105"
     inkscape:window-width="1920"
     inkscape:window-height="1019"
     inkscape:window-x="0"
     inkscape:window-y="34"
     inkscape:window-maximized="1"
     inkscape:current-layer="svg20" />
  <rect
     style="opacity:0.2;stroke-width:4;filter:url(#filter941)"
     width="160"
     height="160"
     x="-180"
     y="-176"
     rx="8"
     ry="8"
     transform="matrix(0,-1,-1,0,0,0)"
     id="rect2" />
  <rect
     style="fill:#1775d2;stroke-width:4"
     width="160"
     height="160"
     x="-176"
     y="-176"
     rx="8"
     ry="8"
     transform="matrix(0,-1,-1,0,0,0)"
     id="rect4" />
  <path
     style="opacity:0.2;stroke-width:4;filter:url(#filter945)"
     d="m 60,54.000004 c -4.432,0 -8,3.776044 -8,8.468752 V 102 117.53125 142 l 16,-16 h 64 c 4.432,0 8,-3.77604 8,-8.46875 V 62.468756 c 0,-4.692708 -3.568,-8.468752 -8,-8.468752 z"
     id="path8" />
  <path
     style="opacity:0.15;stroke-width:4"
     d="m 24,16 c -4.432,0 -8,3.568 -8,8 v 144 c 0,2.216 0.889938,4.21806 2.335938,5.66406 L 52,140 135.25781,56.742188 173.66406,18.335938 C 172.21806,16.889938 170.216,16 168,16 Z"
     id="path10" />
  <rect
     style="fill:#ffffff;stroke-width:4"
     width="88"
     height="72"
     x="52"
     y="52"
     rx="8"
     ry="8.4720001"
     id="rect12" />
  <path
     style="fill:#ffffff;stroke-width:4"
     d="M 52,100 H 92 L 52,140 Z"
     id="path14" />
  <path
     style="fill:#b7b7b7;stroke-width:4"
     d="m 68,68 v 12 h 44 l 12,-12 z m 0,16 v 12 h 28 l 12,-12 z m 0,16 v 12 h 12 l 12,-12 z"
     id="path16" />
  <path
     id="path18"
     style="opacity:0.1;fill:#ffffff;stroke-width:4"
     d="M 24 16 C 19.568 16 16 19.568 16 24 L 16 25 C 16 20.568 19.568 17 24 17 L 168 17 C 172.432 17 176 20.568 176 25 L 176 24 C 176 19.568 172.432 16 168 16 L 24 16 z " />
  <path
     id="path1331"
     style="opacity:0.1;stroke-width:4;fill:#ffffff"
     d="M 173.11523 18.884766 L 135.25781 56.742188 L 52 140 L 18.335938 173.66406 C 16.889938 172.21806 16 170.216 16 168 L 16 169 C 16 171.216 16.889938 173.21806 18.335938 174.66406 L 52 141 L 135.25781 57.742188 L 173.66406 19.335938 C 173.49655 19.168424 173.29714 19.036835 173.11523 18.884766 z " />
</svg>
