<?xml version="1.0" encoding="UTF-8" standalone="no"?>
<svg
   width="192"
   height="192"
   version="1"
   id="svg12"
   sodipodi:docname="apps_master_for_amazfit.svg"
   inkscape:version="1.1.1 (1:1.1+202109281949+c3084ef5ed)"
   xmlns:inkscape="http://www.inkscape.org/namespaces/inkscape"
   xmlns:sodipodi="http://sodipodi.sourceforge.net/DTD/sodipodi-0.dtd"
   xmlns="http://www.w3.org/2000/svg"
   xmlns:svg="http://www.w3.org/2000/svg"
   xmlns:rdf="http://www.w3.org/1999/02/22-rdf-syntax-ns#"
   xmlns:cc="http://creativecommons.org/ns#"
   xmlns:dc="http://purl.org/dc/elements/1.1/">
  <metadata
     id="metadata18">
    <rdf:RDF>
      <cc:Work
         rdf:about="">
        <dc:format>image/svg+xml</dc:format>
        <dc:type
           rdf:resource="http://purl.org/dc/dcmitype/StillImage" />
      </cc:Work>
    </rdf:RDF>
  </metadata>
  <defs
     id="defs16">
    <filter
       inkscape:collect="always"
       style="color-interpolation-filters:sRGB"
       id="filter23237"
       x="-0.068461266"
       y="-0.082919653"
       width="1.1369225"
       height="1.1658393">
      <feGaussianBlur
         inkscape:collect="always"
         stdDeviation="2.7955017"
         id="feGaussianBlur23239" />
    </filter>
    <filter
       inkscape:collect="always"
       style="color-interpolation-filters:sRGB"
       id="filter23279"
       x="-0.10834612"
       y="-0.1597014"
       width="1.2166922"
       height="1.3194028">
      <feGaussianBlur
         inkscape:collect="always"
         stdDeviation="4.4325976"
         id="feGaussianBlur23281" />
    </filter>
    <filter
       inkscape:collect="always"
       style="color-interpolation-filters:sRGB"
       id="filter23710"
       x="-0.048000001"
       y="-0.048000001"
       width="1.096"
       height="1.096">
      <feGaussianBlur
         inkscape:collect="always"
         stdDeviation="3.2"
         id="feGaussianBlur23712" />
    </filter>
  </defs>
  <sodipodi:namedview
     pagecolor="#ffffff"
     bordercolor="#666666"
     borderopacity="1"
     objecttolerance="10"
     gridtolerance="10"
     guidetolerance="10"
     inkscape:pageopacity="0"
     inkscape:pageshadow="2"
     inkscape:window-width="1920"
     inkscape:window-height="1019"
     id="namedview14"
     showgrid="false"
     inkscape:zoom="1"
     inkscape:cx="100"
     inkscape:cy="13.5"
     inkscape:window-x="0"
     inkscape:window-y="34"
     inkscape:window-maximized="1"
     inkscape:current-layer="svg12"
     showguides="false"
     inkscape:document-rotation="0"
     inkscape:pagecheckerboard="0"
     inkscape:snap-bbox="true"
     inkscape:snap-bbox-midpoints="true"
     inkscape:snap-global="true">
    <inkscape:grid
       type="xygrid"
       id="grid852" />
  </sodipodi:namedview>
  <path
     id="path23672"
     style="opacity:0.2;fill:#000000;stroke-width:4;filter:url(#filter23710)"
     d="m 46,20 h 100 c 16.62,0 30,13.38 30,30 v 100 c 0,16.62 -13.38,30 -30,30 H 113.25736 L 76.911377,152.38752 C 63.677325,142.33345 54.58318,137.19724 40.336007,128.63906 L 16,114.02058 V 50 C 16,33.38 29.38,20 46,20 Z"
     sodipodi:nodetypes="ssssscsscss" />
  <path
     id="rect4"
     style="fill:#3f3f3f;stroke-width:4"
     d="m 46,16 h 100 c 16.62,0 30,13.38 30,30 v 100 c 0,16.62 -13.38,30 -30,30 H 113.25736 L 76.911377,148.38752 C 63.677325,138.33345 54.58318,133.19724 40.336007,124.63906 L 16,110.02058 V 46 C 16,29.38 29.38,16 46,16 Z"
     sodipodi:nodetypes="ssssscsscss" />
  <path
     id="path23241"
     style="opacity:0.2;fill:#000000;fill-opacity:1;stroke-width:4.62471;stroke-linecap:round;stroke-linejoin:round;filter:url(#filter23279)"
     d="M 16,111.38672 V 148 c 0,16.62 13.38,30 30,30 h 68.1875 A 110.81494,110.81494 0 0 0 16,111.38672 Z" />
  <path
     id="path2821"
     style="opacity:1;fill:#b1ff3c;stroke-width:4.62471;stroke-linecap:round;stroke-linejoin:round;fill-opacity:1"
     d="M 16 109.38672 L 16 146 C 16 162.62 29.38 176 46 176 L 114.1875 176 A 110.81494 110.81494 0 0 0 16 109.38672 z " />
  <path
     id="rect959"
     style="fill:#ffffff;fill-opacity:1;stroke-width:4;opacity:0.1"
     d="M 46 16 C 29.38 16 16 29.38 16 46 L 16 47 C 16 30.38 29.38 17 46 17 L 146 17 C 162.62 17 176 30.38 176 47 L 176 46 C 176 29.38 162.62 16 146 16 L 46 16 z " />
  <path
     id="path23196"
     style="opacity:0.2;fill:#000000;fill-opacity:1;stroke-width:4;stroke-linecap:round;stroke-linejoin:round;filter:url(#filter23237)"
     d="m 96,56.99989 c -27.061953,0 -49,21.938047 -49,49 0.0073,11.68863 4.192703,22.98965 11.800781,31.86328 l 0.09766,-0.12305 c 0.123733,-14.86361 1.70993,-55.738277 41.449222,-55.738277 8.28634,-8.584426 18.55078,-18.882812 18.55078,-18.882812 -4.21257,-2.12053 -9.59391,-4.501481 -14.20508,-5.335938 C 101.83367,57.265592 98.924813,57.001788 96,56.99989 Z m 30.24219,9.921875 -28.900393,28.808594 -7.316406,-7.417969 c -6.408098,1.806907 -10.830355,5.059823 -14.53125,9.447266 l 22.5,23.361324 40.187499,-40.103512 z m 15.67187,22 -15.28711,14.712895 c 6.04143,8.80397 6.53516,34.27734 6.53516,34.27734 7.63242,-8.88111 11.83192,-20.20195 11.83789,-31.91211 -0.004,-5.83098 -1.04934,-11.614375 -3.08594,-17.078125 z" />
  <path
     id="rect2375"
     style="opacity:1;fill:#b1ff3c;fill-opacity:1;stroke-width:4;stroke-linecap:round;stroke-linejoin:round"
     d="m 90.024968,86.311826 7.315871,7.418752 28.901221,-28.8086 11.93903,14.094645 L 97.993689,119.12191 75.493241,95.759031 c 3.700895,-4.387443 8.123629,-7.640298 14.531727,-9.447205 z"
     sodipodi:nodetypes="ccccccc" />
  <path
     id="path945"
     style="opacity:1;fill:#ffffff;stroke-width:4.07106;stroke-linecap:round;stroke-linejoin:round"
     d="m 96,55 c -27.061953,0 -49,21.938047 -49,49 0.0073,11.68863 4.192703,22.98965 11.800781,31.86328 l 0.09766,-0.12305 c 0.123733,-14.86361 1.709301,-55.73821 41.448589,-55.73821 8.28634,-8.584426 18.5507,-18.883615 18.5507,-18.883615 -4.21257,-2.12053 -9.59293,-4.500835 -14.2041,-5.335292 C 101.83394,55.265612 98.924813,55.001898 96,55 Z m 45.91406,31.921875 -15.28711,14.712895 c 6.04143,8.80397 6.53516,34.27734 6.53516,34.27734 C 140.79453,127.031 144.99403,115.71016 145,104 144.996,98.169024 143.95066,92.385625 141.91406,86.921875 Z"
     sodipodi:nodetypes="ccccccscccccc" />
</svg>
