<?xml version="1.0" encoding="UTF-8" standalone="no"?>
<svg
   width="192"
   height="192"
   version="1"
   id="svg14"
   sodipodi:docname="apps_scrcpy.svg"
   inkscape:version="1.1.1 (1:1.1+202109281949+c3084ef5ed)"
   xmlns:inkscape="http://www.inkscape.org/namespaces/inkscape"
   xmlns:sodipodi="http://sodipodi.sourceforge.net/DTD/sodipodi-0.dtd"
   xmlns="http://www.w3.org/2000/svg"
   xmlns:svg="http://www.w3.org/2000/svg">
  <defs
     id="defs18">
    <filter
       inkscape:collect="always"
       style="color-interpolation-filters:sRGB"
       id="filter1505"
       x="-0.095192308"
       y="-0.061875"
       width="1.1903846"
       height="1.12375">
      <feGaussianBlur
         inkscape:collect="always"
         stdDeviation="4.125"
         id="feGaussianBlur1507" />
    </filter>
    <filter
       inkscape:collect="always"
       style="color-interpolation-filters:sRGB"
       id="filter1512"
       x="-0.038942308"
       y="-1.0125"
       width="1.0778846"
       height="3.025">
      <feGaussianBlur
         inkscape:collect="always"
         stdDeviation="1.6875"
         id="feGaussianBlur1514" />
    </filter>
    <filter
       inkscape:collect="always"
       style="color-interpolation-filters:sRGB"
       id="filter1890"
       x="-0.085845438"
       y="-0.1455692"
       width="1.1716909"
       height="1.2911384">
      <feGaussianBlur
         inkscape:collect="always"
         stdDeviation="2.5038187"
         id="feGaussianBlur1892" />
    </filter>
  </defs>
  <sodipodi:namedview
     id="namedview16"
     pagecolor="#ffffff"
     bordercolor="#666666"
     borderopacity="1.0"
     inkscape:pageshadow="2"
     inkscape:pageopacity="0.0"
     inkscape:pagecheckerboard="0"
     showgrid="false"
     inkscape:zoom="1"
     inkscape:cx="86"
     inkscape:cy="91.5"
     inkscape:window-width="1920"
     inkscape:window-height="1019"
     inkscape:window-x="0"
     inkscape:window-y="34"
     inkscape:window-maximized="1"
     inkscape:current-layer="svg14">
    <inkscape:grid
       type="xygrid"
       id="grid1548" />
  </sodipodi:namedview>
  <rect
     style="opacity:0.2;stroke-width:4;filter:url(#filter1505)"
     width="104"
     height="160"
     x="44"
     y="20"
     rx="8"
     ry="8"
     id="rect2" />
  <rect
     style="fill:#077063;fill-opacity:1;stroke-width:4"
     width="104"
     height="120"
     x="44"
     y="32"
     id="rect8" />
  <rect
     style="opacity:0.15;stroke-width:4;filter:url(#filter1512)"
     width="104"
     height="4"
     x="44"
     y="30"
     id="rect12" />
  <path
     id="path4"
     style="fill:#30dd81;fill-opacity:1;stroke-width:4"
     d="M 52 16 C 47.568 16 44 19.568 44 24 L 44 32 L 148 32 L 148 24 C 148 19.568 144.432 16 140 16 L 52 16 z M 44 152 L 44 168 C 44 172.432 47.568 176 52 176 L 140 176 C 144.432 176 148 172.432 148 168 L 148 152 L 44 152 z " />
  <path
     style="opacity:0.3;fill:#000000;stroke-width:4"
     d="m 86,24 c -1.108,0 -2,0.892 -2,2 0,1.108 0.892,2 2,2 h 20 c 1.108,0 2,-0.892 2,-2 0,-1.108 -0.892,-2 -2,-2 z m 28,0 a 2,2 0 0 0 -2,2 2,2 0 0 0 2,2 2,2 0 0 0 2,-2 2,2 0 0 0 -2,-2 z M 92,156 c -2.216,0 -4,1.784 -4,4 v 8 c 0,2.216 1.784,4 4,4 h 8 c 2.216,0 4,-1.784 4,-4 v -8 c 0,-2.216 -1.784,-4 -4,-4 z m -28,4 c -2.216,0 -4,1.784 -4,4 0,2.216 1.784,4 4,4 h 8 c 2.216,0 4,-1.784 4,-4 0,-2.216 -1.784,-4 -4,-4 z m 56,0 c -2.216,0 -4,1.784 -4,4 0,2.216 1.784,4 4,4 h 8 c 2.216,0 4,-1.784 4,-4 0,-2.216 -1.784,-4 -4,-4 z"
     id="path6" />
  <path
     id="path10"
     style="opacity:0.2;fill:#ffffff;stroke-width:4"
     d="M 52 16 C 47.568 16 44 19.568 44 24 L 44 25 C 44 20.568 47.568 17 52 17 L 140 17 C 144.432 17 148 20.568 148 25 L 148 24 C 148 19.568 144.432 16 140 16 L 52 16 z " />
  <path
     id="path1852"
     style="color:#000000;opacity:0.2;fill:#000000;fill-opacity:1;stroke-linecap:round;-inkscape-stroke:none;filter:url(#filter1890)"
     d="m 67.832031,70.724609 a 3.28125,3.28125 0 0 0 -1.791015,0.644532 3.28125,3.28125 0 0 0 -0.671875,4.589843 l 7.330078,9.845704 C 66.223299,91.51836 61.875515,99.568306 61.005859,108.63281 60.845099,112.00144 64.400391,112 64.400391,112 h 63.113279 c 0,0 3.65779,-2.6e-4 3.48047,-3.53711 -0.90735,-8.999797 -5.24586,-16.989646 -11.6875,-22.667968 l 7.32422,-9.835938 a 3.28125,3.28125 0 0 0 -0.67188,-4.589843 3.28125,3.28125 0 0 0 -2.43359,-0.615235 3.28125,3.28125 0 0 0 -2.15625,1.28711 L 114,81.933594 C 108.73443,78.804955 102.58352,77 96.005859,77 c -6.582126,0 -12.73678,1.806603 -18.003906,4.939453 l -7.371094,-9.898437 a 3.28125,3.28125 0 0 0 -2.15625,-1.28711 3.28125,3.28125 0 0 0 -0.642578,-0.0293 z M 78.5,92 A 4.4999998,4.4999998 0 0 1 83,96.5 4.4999998,4.4999998 0 0 1 78.5,101 4.4999998,4.4999998 0 0 1 74,96.5 4.4999998,4.4999998 0 0 1 78.5,92 Z m 35,0 a 4.5000013,4.5000013 0 0 1 4.5,4.5 4.5000013,4.5000013 0 0 1 -4.5,4.5 4.5000013,4.5000013 0 0 1 -4.5,-4.5 4.5000013,4.5000013 0 0 1 4.5,-4.5 z" />
  <path
     id="path849"
     style="color:#000000;fill:#fbfefc;stroke-linecap:round;-inkscape-stroke:none;fill-opacity:1"
     d="M 67.832031 68.724609 A 3.28125 3.28125 0 0 0 66.041016 69.369141 A 3.28125 3.28125 0 0 0 65.369141 73.958984 L 72.699219 83.804688 C 66.223299 89.51836 61.875515 97.568306 61.005859 106.63281 C 60.845099 110.00144 64.400391 110 64.400391 110 L 127.51367 110 C 127.51367 110 131.17146 109.99974 130.99414 106.46289 C 130.08679 97.463093 125.74828 89.473244 119.30664 83.794922 L 126.63086 73.958984 A 3.28125 3.28125 0 0 0 125.95898 69.369141 A 3.28125 3.28125 0 0 0 123.52539 68.753906 A 3.28125 3.28125 0 0 0 121.36914 70.041016 L 114 79.933594 C 108.73443 76.804955 102.58352 75 96.005859 75 C 89.423733 75 83.269079 76.806603 78.001953 79.939453 L 70.630859 70.041016 A 3.28125 3.28125 0 0 0 68.474609 68.753906 A 3.28125 3.28125 0 0 0 67.832031 68.724609 z M 78.5 90 A 4.4999998 4.4999998 0 0 1 83 94.5 A 4.4999998 4.4999998 0 0 1 78.5 99 A 4.4999998 4.4999998 0 0 1 74 94.5 A 4.4999998 4.4999998 0 0 1 78.5 90 z M 113.5 90 A 4.5000013 4.5000013 0 0 1 118 94.5 A 4.5000013 4.5000013 0 0 1 113.5 99 A 4.5000013 4.5000013 0 0 1 109 94.5 A 4.5000013 4.5000013 0 0 1 113.5 90 z " />
</svg>
