<?xml version="1.0" encoding="UTF-8" standalone="no"?>
<svg
   width="192"
   height="192"
   version="1"
   id="svg16"
   sodipodi:docname="apps_ovia_fertility.svg"
   inkscape:version="1.1.1 (1:1.1+202109281949+c3084ef5ed)"
   xmlns:inkscape="http://www.inkscape.org/namespaces/inkscape"
   xmlns:sodipodi="http://sodipodi.sourceforge.net/DTD/sodipodi-0.dtd"
   xmlns="http://www.w3.org/2000/svg"
   xmlns:svg="http://www.w3.org/2000/svg"
   xmlns:rdf="http://www.w3.org/1999/02/22-rdf-syntax-ns#"
   xmlns:cc="http://creativecommons.org/ns#"
   xmlns:dc="http://purl.org/dc/elements/1.1/">
  <metadata
     id="metadata22">
    <rdf:RDF>
      <cc:Work
         rdf:about="">
        <dc:format>image/svg+xml</dc:format>
        <dc:type
           rdf:resource="http://purl.org/dc/dcmitype/StillImage" />
      </cc:Work>
    </rdf:RDF>
  </metadata>
  <defs
     id="defs20">
    <filter
       inkscape:collect="always"
       style="color-interpolation-filters:sRGB"
       id="filter867"
       x="-0.048000001"
       width="1.096"
       y="-0.048000001"
       height="1.096">
      <feGaussianBlur
         inkscape:collect="always"
         stdDeviation="3.2"
         id="feGaussianBlur869" />
    </filter>
    <filter
       inkscape:collect="always"
       style="color-interpolation-filters:sRGB"
       id="filter2344"
       x="-0.072374821"
       y="-0.077822784"
       width="1.1447496"
       height="1.1556456">
      <feGaussianBlur
         inkscape:collect="always"
         stdDeviation="3.015636"
         id="feGaussianBlur2346" />
    </filter>
  </defs>
  <sodipodi:namedview
     pagecolor="#ffffff"
     bordercolor="#666666"
     borderopacity="1"
     objecttolerance="10"
     gridtolerance="10"
     guidetolerance="10"
     inkscape:pageopacity="0"
     inkscape:pageshadow="2"
     inkscape:window-width="1920"
     inkscape:window-height="1014"
     id="namedview18"
     showgrid="false"
     inkscape:zoom="1"
     inkscape:cx="115.5"
     inkscape:cy="108"
     inkscape:window-x="0"
     inkscape:window-y="34"
     inkscape:window-maximized="1"
     inkscape:current-layer="svg16"
     inkscape:pagecheckerboard="0"
     inkscape:snap-bbox="true"
     inkscape:snap-bbox-midpoints="true">
    <inkscape:grid
       type="xygrid"
       id="grid7495" />
  </sodipodi:namedview>
  <rect
     id="rect849"
     ry="80"
     rx="80"
     height="160"
     width="160"
     y="-176"
     x="-180"
     transform="matrix(0,-1,-1,0,0,0)"
     style="opacity:0.2;fill:#000000;stroke-width:4;filter:url(#filter867)" />
  <rect
     style="fill:#ffbf28;fill-opacity:1;stroke-width:4"
     transform="matrix(0,-1,-1,0,0,0)"
     x="-176"
     y="-176"
     width="160"
     height="160"
     rx="80"
     ry="80"
     id="rect2" />
  <path
     style="opacity:0.2;fill:#ffffff;stroke-width:4"
     d="M 96 16 C 51.68 16 16 51.68 16 96 C 16 96.336 16.002 96.6675 16 97 C 16 52.68 51.68 17 96 17 C 140.32 17 176 52.68 176 97 C 175.998 96.6675 176 96.336 176 96 C 176 51.68 140.32 16 96 16 z "
     id="path4" />
  <path
     id="path2306"
     style="opacity:0.2;fill:#000000;stroke-width:0.26006;filter:url(#filter2344)"
     d="m 58.220703,57 c -4.624268,0.007 -6.791745,0.342458 -7.677734,1.189453 -2.129858,2.036117 -3.031067,7.266898 -2.285157,13.279297 0.658969,5.311601 2.712723,12.771584 4.404297,16 3.595186,6.861511 10.034037,11.367809 19.515625,14.4707 4.937086,1.6157 8.939643,2.03427 15.257813,2.85743 l 1.361328,0.17773 c -0.293053,-0.15491 -1.004345,-1.13595 -2.583984,-3.49414 -3.10007,-4.627986 -8.02076,-11.391854 -11.126953,-15.296876 -2.767022,-3.478625 -8.987245,-9.831243 -10.396485,-10.617188 -1.392666,-0.776706 -1.371721,-0.611787 0.05469,0.4375 2.735469,2.012245 8.682449,10.3258 15.332031,21.431641 1.769362,2.955113 2.193449,3.835933 1.847656,3.835933 -0.735096,0 -5.665247,-1.482572 -7.748047,-2.330074 C 64.389548,94.959339 58.884412,89.467591 56.880859,81.6875 55.431822,76.060685 54.733665,69.959706 55.091797,66.044922 L 55.279297,64 l 2.958984,0.175781 c 1.627407,0.09666 3.987074,0.344353 5.244141,0.550781 8.205325,1.347443 15.411851,5.715613 19.376953,11.744141 3.984283,6.05769 5.842439,12.965164 6.076172,22.589844 0.0695,2.861433 0.08566,5.473263 0.03516,5.802733 -0.01013,0.0661 -0.03098,0.10683 -0.0625,0.125 L 89,105 c 0,0 0.03421,5.5144 -0.0039,8.31445 -0.178459,5.92246 0.159725,9.52848 1.320312,14.09375 2.924798,11.50494 10.046924,19.64814 19.291014,22.05664 1.068,0.27827 2.62582,0.51349 3.46289,0.52149 l 1.52344,0.0137 -2.04102,-1.32812 C 106.38851,144.65784 101.6446,138.16223 99.626953,130.21875 98.136662,124.35149 98.02327,123.30771 98,109.18164 97.985353,100.29805 97.90905,95.39181 97.689453,93.808594 96.054463,82.021037 92.920884,74.212226 86.564453,67.826172 79.366693,60.594866 69.907228,56.98227 58.220703,57 Z m 77.476567,20.001953 c -3.16465,0.01858 -6.17267,0.224091 -8,0.613281 C 118.2926,79.61826 111.3081,84.040559 106.6543,90.935547 103.33634,95.85137 100.9506,103.02992 101,107.95312 l 0.0176,1.74024 0.33398,-1.03711 c 0.60344,-1.87668 2.2584,-5.67078 3.33789,-7.65039 5.20455,-9.544318 12.60254,-15.450924 22.37305,-17.460938 2.17731,-0.447928 10.83848,-0.801879 12.71875,-0.521484 1.1252,0.167807 1.20117,0.43023 1.20117,1.166015 0,1.357445 -1.03522,5.942935 -1.97461,8.746094 -2.39723,7.153353 -6.61998,13.037403 -12.07617,17.089843 -2.61047,1.93885 -7.87577,4.51968 -11.50195,5.63672 -1.70596,0.52551 -3.33618,1.06237 -3.62305,1.19336 -0.33488,0.1529 0.41155,0.1855 2.08594,0.0918 10.80671,-0.60469 19.60376,-5.04794 25.75781,-13.00977 4.70599,-6.088396 7.76202,-14.636761 8.19336,-22.919922 L 148,78.015625 l -3.36328,-0.5 c -2.45445,-0.364049 -5.77481,-0.532254 -8.93945,-0.513672 z" />
  <path
     id="path1513"
     style="opacity:1;fill:#fefcf9;stroke-width:0.26006"
     d="M 58.220703 55 C 53.596435 55.007017 51.428958 55.342458 50.542969 56.189453 C 48.413111 58.22557 47.511902 63.456351 48.257812 69.46875 C 48.916781 74.780351 50.970535 82.240334 52.662109 85.46875 C 56.257295 92.330261 62.696146 96.836559 72.177734 99.939453 C 77.11482 101.55515 81.117377 101.97372 87.435547 102.79688 L 88.796875 102.97461 C 88.503822 102.8197 87.79253 101.83866 86.212891 99.480469 C 83.112821 94.852484 78.192131 88.088616 75.085938 84.183594 C 72.318916 80.704969 66.098693 74.352351 64.689453 73.566406 C 63.296787 72.7897 63.317732 72.954619 64.744141 74.003906 C 67.47961 76.016151 73.42659 84.329706 80.076172 95.435547 C 81.845534 98.39066 82.269621 99.271484 81.923828 99.271484 C 81.188732 99.271484 76.258581 97.788908 74.175781 96.941406 C 64.389548 92.959339 58.884412 87.467591 56.880859 79.6875 C 55.431822 74.060685 54.733665 67.959706 55.091797 64.044922 L 55.279297 62 L 58.238281 62.175781 C 59.865688 62.272438 62.225355 62.520134 63.482422 62.726562 C 71.687747 64.074005 78.894273 68.442175 82.859375 74.470703 C 86.843658 80.528393 88.701814 87.435867 88.935547 97.060547 C 89.005047 99.921975 89.021203 102.53381 88.970703 102.86328 C 88.960571 102.92938 88.939719 102.97011 88.908203 102.98828 L 89 103 C 89 103 89.034209 108.5144 88.996094 111.31445 C 88.817635 117.23691 89.155819 120.84293 90.316406 125.4082 C 93.241204 136.91314 100.36333 145.05634 109.60742 147.46484 C 110.67542 147.74311 112.23324 147.97833 113.07031 147.98633 L 114.59375 148 L 112.55273 146.67188 C 106.38851 142.65784 101.6446 136.16223 99.626953 128.21875 C 98.136662 122.35149 98.02327 121.30771 98 107.18164 C 97.985353 98.298051 97.90905 93.39181 97.689453 91.808594 C 96.054463 80.021037 92.920884 72.212226 86.564453 65.826172 C 79.366693 58.594866 69.907228 54.98227 58.220703 55 z M 135.69727 75.001953 C 132.53262 75.020535 129.5246 75.226044 127.69727 75.615234 C 118.2926 77.61826 111.3081 82.040559 106.6543 88.935547 C 103.33634 93.85137 100.9506 101.02992 101 105.95312 L 101.01758 107.69336 L 101.35156 106.65625 C 101.955 104.77957 103.60996 100.98547 104.68945 99.005859 C 109.894 89.461542 117.29199 83.554936 127.0625 81.544922 C 129.23981 81.096994 137.90098 80.743043 139.78125 81.023438 C 140.90645 81.191245 140.98242 81.453668 140.98242 82.189453 C 140.98242 83.546898 139.9472 88.132388 139.00781 90.935547 C 136.61058 98.088896 132.38783 103.97295 126.93164 108.02539 C 124.32117 109.96424 119.05587 112.54507 115.42969 113.66211 C 113.72373 114.18762 112.09351 114.72448 111.80664 114.85547 C 111.47176 115.00837 112.21819 115.04097 113.89258 114.94727 C 124.69929 114.34258 133.49634 109.89933 139.65039 101.9375 C 144.35638 95.849104 147.41241 87.300739 147.84375 79.017578 L 148 76.015625 L 144.63672 75.515625 C 142.18227 75.151576 138.86191 74.983371 135.69727 75.001953 z " />
</svg>
