<?xml version="1.0" encoding="UTF-8" standalone="no"?>
<svg
   width="192"
   height="192"
   version="1"
   id="svg14"
   sodipodi:docname="apps_nitroshare.svg"
   inkscape:version="1.1-rc (1:1.1+rc+202105232036+f4db50c7c1)"
   xmlns:inkscape="http://www.inkscape.org/namespaces/inkscape"
   xmlns:sodipodi="http://sodipodi.sourceforge.net/DTD/sodipodi-0.dtd"
   xmlns="http://www.w3.org/2000/svg"
   xmlns:svg="http://www.w3.org/2000/svg">
  <defs
     id="defs18">
    <filter
       inkscape:collect="always"
       style="color-interpolation-filters:sRGB"
       id="filter849"
       x="-0.062769231"
       y="-0.038857142"
       width="1.1255385"
       height="1.0777143">
      <feGaussianBlur
         inkscape:collect="always"
         stdDeviation="2.72"
         id="feGaussianBlur851" />
    </filter>
    <filter
       inkscape:collect="always"
       style="color-interpolation-filters:sRGB"
       id="filter853"
       x="-0.045000002"
       y="-0.051428573"
       width="1.09"
       height="1.1028571">
      <feGaussianBlur
         inkscape:collect="always"
         stdDeviation="1.2"
         id="feGaussianBlur855" />
    </filter>
  </defs>
  <sodipodi:namedview
     id="namedview16"
     pagecolor="#ffffff"
     bordercolor="#666666"
     borderopacity="1.0"
     inkscape:pageshadow="2"
     inkscape:pageopacity="0.0"
     inkscape:pagecheckerboard="0"
     showgrid="false"
     inkscape:zoom="2.85"
     inkscape:cx="97.368421"
     inkscape:cy="88.245614"
     inkscape:window-width="1920"
     inkscape:window-height="1019"
     inkscape:window-x="0"
     inkscape:window-y="34"
     inkscape:window-maximized="1"
     inkscape:current-layer="svg14" />
  <path
     style="opacity:0.2;stroke-width:4;filter:url(#filter849)"
     d="m 111.52344,16.007197 c -4.07635,0.12206 -7.95226,1.795675 -10.83594,4.678943 L 69.375,51.99366 H 60 c -8.836192,8.84e-4 -15.999116,7.162668 -16,15.997452 v 71.988548 c 8.84e-4,8.83478 7.163808,15.99656 16,15.99745 h 4 v 11.99809 c 0.0056,14.24792 17.232588,21.382 27.3125,11.3107 L 122.625,147.97838 H 132 c 8.83619,-8.8e-4 15.99912,-7.16267 16,-15.99745 V 59.992384 C 147.99912,51.1576 140.83619,43.995816 132,43.994932 h -4 V 31.99684 c -0.001,-9.021164 -7.45794,-16.257412 -16.47656,-15.989643 z"
     id="path2" />
  <path
     style="fill:#4f4f4f;stroke-width:4"
     d="m 111.52344,12.007198 c -4.07635,0.12206 -7.95226,1.795675 -10.83594,4.678943 L 69.375,47.99366 H 60 c -8.836192,8.84e-4 -15.999116,7.162668 -16,15.997452 v 71.988548 c 8.84e-4,8.83478 7.163808,15.99656 16,15.99745 h 4 v 11.99809 c 0.0056,14.24792 17.232588,21.382 27.3125,11.3107 L 122.625,143.97838 H 132 c 8.83619,-8.8e-4 15.99912,-7.16267 16,-15.99745 V 55.992384 C 147.99912,47.1576 140.83619,39.995815 132,39.994931 h -4 V 27.99684 c -0.001,-9.021163 -7.45794,-16.257411 -16.47656,-15.989642 z"
     id="path4" />
  <path
     opacity="0.3"
     d="M 112,28 76,64 H 60.0004 v 72 H 80 v 28 l 36,-36 h 15.9996 V 56 H 112 Z"
     id="path6"
     style="stroke-width:4" />
  <path
     opacity="0.2"
     d="m 64,70 v 48 H 80 V 94 l 32,32 h 16 V 78 h -16 v 24 L 80,70 Z"
     id="path8"
     style="stroke-width:4;filter:url(#filter853)" />
  <path
     fill="#ffffff"
     d="m 64,68 v 48 H 80 V 92 l 32,32 h 16 V 76 h -16 v 24 L 80,68 Z"
     id="path10"
     style="stroke-width:4" />
  <path
     id="path12"
     style="opacity:0.1;fill:#ffffff;stroke-width:4"
     d="M 111.52344 12.007812 C 107.44709 12.129872 103.57118 13.804232 100.6875 16.6875 L 69.375 47.992188 L 60 47.992188 C 51.163808 47.993071 44.000884 55.157403 44 63.992188 L 44 64.992188 C 44.000884 56.157404 51.163808 48.993071 60 48.992188 L 69.375 48.992188 L 100.6875 17.6875 C 103.57118 14.804232 107.44709 13.129872 111.52344 13.007812 C 120.54206 12.740044 127.999 19.978837 128 29 L 128 28 C 127.999 18.978837 120.54206 11.740043 111.52344 12.007812 z M 128 39.992188 L 128 40.992188 L 132 40.992188 C 140.83619 40.993072 147.99912 48.157404 148 56.992188 L 148 55.992188 C 147.99912 47.157404 140.83619 39.993072 132 39.992188 L 128 39.992188 z " />
</svg>
