<?xml version="1.0" encoding="UTF-8" standalone="no"?>
<svg
   width="192"
   height="192"
   version="1"
   id="svg28"
   sodipodi:docname="apps_dailyart.svg"
   inkscape:version="1.1.1 (1:1.1+202109281949+c3084ef5ed)"
   xmlns:inkscape="http://www.inkscape.org/namespaces/inkscape"
   xmlns:sodipodi="http://sodipodi.sourceforge.net/DTD/sodipodi-0.dtd"
   xmlns:xlink="http://www.w3.org/1999/xlink"
   xmlns="http://www.w3.org/2000/svg"
   xmlns:svg="http://www.w3.org/2000/svg"
   xmlns:rdf="http://www.w3.org/1999/02/22-rdf-syntax-ns#"
   xmlns:cc="http://creativecommons.org/ns#"
   xmlns:dc="http://purl.org/dc/elements/1.1/">
  <metadata
     id="metadata34">
    <rdf:RDF>
      <cc:Work
         rdf:about="">
        <dc:format>image/svg+xml</dc:format>
        <dc:type
           rdf:resource="http://purl.org/dc/dcmitype/StillImage" />
      </cc:Work>
    </rdf:RDF>
  </metadata>
  <defs
     id="defs32">
    <linearGradient
       inkscape:collect="always"
       id="linearGradient46812">
      <stop
         style="stop-color:#ffdf49;stop-opacity:1;"
         offset="0"
         id="stop46808" />
      <stop
         style="stop-color:#ffdf49;stop-opacity:0;"
         offset="1"
         id="stop46810" />
    </linearGradient>
    <filter
       inkscape:collect="always"
       style="color-interpolation-filters:sRGB"
       id="filter6495"
       x="-0.048000001"
       y="-0.048000001"
       width="1.096"
       height="1.096">
      <feGaussianBlur
         inkscape:collect="always"
         stdDeviation="3.2"
         id="feGaussianBlur6497" />
    </filter>
    <filter
       inkscape:collect="always"
       style="color-interpolation-filters:sRGB"
       id="filter43890"
       x="-0.10175009"
       y="-0.063565487"
       width="1.2035002"
       height="1.127131">
      <feGaussianBlur
         inkscape:collect="always"
         stdDeviation="3.0951843"
         id="feGaussianBlur43892" />
    </filter>
    <filter
       inkscape:collect="always"
       style="color-interpolation-filters:sRGB"
       id="filter44221"
       x="-0.15506531"
       y="-0.16580226"
       width="1.3101306"
       height="1.3316045">
      <feGaussianBlur
         inkscape:collect="always"
         stdDeviation="9.0500192"
         id="feGaussianBlur44223" />
    </filter>
    <filter
       inkscape:collect="always"
       style="color-interpolation-filters:sRGB"
       id="filter44364"
       x="-0.068009076"
       y="-0.21425077"
       width="1.1360182"
       height="1.4285015">
      <feGaussianBlur
         inkscape:collect="always"
         stdDeviation="4.5339386"
         id="feGaussianBlur44366" />
    </filter>
    <filter
       inkscape:collect="always"
       style="color-interpolation-filters:sRGB"
       id="filter44368"
       x="-0.068009083"
       y="-0.11572319"
       width="1.1360182"
       height="1.2314464">
      <feGaussianBlur
         inkscape:collect="always"
         stdDeviation="4.5339387"
         id="feGaussianBlur44370" />
    </filter>
    <linearGradient
       inkscape:collect="always"
       xlink:href="#linearGradient46812"
       id="linearGradient46814"
       x1="96.074493"
       y1="151.02924"
       x2="96.074493"
       y2="-5.9933167"
       gradientUnits="userSpaceOnUse" />
  </defs>
  <sodipodi:namedview
     pagecolor="#ffffff"
     bordercolor="#666666"
     borderopacity="1"
     objecttolerance="10"
     gridtolerance="10"
     guidetolerance="10"
     inkscape:pageopacity="0"
     inkscape:pageshadow="2"
     inkscape:window-width="1920"
     inkscape:window-height="1022"
     id="namedview30"
     showgrid="false"
     inkscape:zoom="1"
     inkscape:cx="83"
     inkscape:cy="78"
     inkscape:window-x="0"
     inkscape:window-y="34"
     inkscape:window-maximized="1"
     inkscape:current-layer="svg28"
     inkscape:pagecheckerboard="0"
     inkscape:snap-global="true"
     showguides="false"
     inkscape:snap-bbox="true"
     inkscape:snap-bbox-midpoints="true">
    <inkscape:grid
       type="xygrid"
       id="grid841" />
  </sodipodi:namedview>
  <rect
     id="rect6457"
     transform="matrix(0,-1,-1,0,0,0)"
     ry="12"
     rx="12"
     y="-176"
     x="-180"
     height="160"
     width="160"
     style="opacity:0.2;fill:#000000;fill-opacity:1;stroke-width:4;filter:url(#filter6495)" />
  <path
     id="rect2"
     style="fill:#07705e;stroke-width:4"
     transform="matrix(0,-1,-1,0,0,0)"
     d="m -164,-176 h 52.09692 l 69.45857,14.11907 c 6.514767,1.32428 12.303383,1.57572 12.487862,8.22116 l 3.285575,118.355239 c 0.184479,6.64544 -4.755051,10.945925 -11.366943,11.63787 L -111.29691,-16 H -164 c -6.648,0 -12,-5.352 -12,-12 v -136 c 0,-6.648 5.352,-12 12,-12 z"
     sodipodi:nodetypes="scsssscssss" />
  <path
     id="path44324"
     style="opacity:0.2;fill:#000000;fill-opacity:1;stroke:none;stroke-width:169.153;stroke-linecap:round;stroke-linejoin:round;stroke-miterlimit:4;stroke-dasharray:none;stroke-opacity:1;filter:url(#filter44368)"
     d="M 45.714094,39.973371 C 39.077732,39.580173 38.542058,73.542364 35.524222,79.465925 L 16,117.78906 C 39.369884,128.28094 67.318799,133.94442 96,134 c 28.6812,-0.0556 56.63012,-5.71906 80,-16.21094 L 148.94957,68.298671 c -3.18847,-5.833489 -0.0388,-22.210998 -6.67516,-22.604196 z"
     sodipodi:nodetypes="sscccsss" />
  <path
     id="ellipse4513"
     style="opacity:1;fill:#0c8d6c;fill-opacity:1;stroke:none;stroke-width:169.153;stroke-linecap:round;stroke-linejoin:round;stroke-miterlimit:4;stroke-dasharray:none;stroke-opacity:1"
     d="m 34.082607,24.705427 c -6.635301,-0.410714 -8.332698,2.316217 -10.058472,8.736311 L 16,63.292515 V 115.78906 C 39.369884,126.28094 67.318799,131.94442 96,132 c 28.6812,-0.0556 56.63012,-5.71906 80,-16.21094 V 60.407924 L 160.19186,39.191459 c -3.97202,-5.330942 -11.02855,-7.362724 -17.66385,-7.773438 z"
     sodipodi:nodetypes="sscccccsss" />
  <path
     id="path44326"
     style="opacity:0.2;fill:#000000;fill-opacity:1;stroke:none;stroke-width:169.153;stroke-linecap:round;stroke-linejoin:round;stroke-miterlimit:4;stroke-dasharray:none;stroke-opacity:1;filter:url(#filter44364)"
     d="m 50.755319,37.898158 c -6.639483,0.336407 -13.055333,0.291058 -16.985945,5.652606 L 16,67.789062 C 39.369884,78.280946 67.318799,83.944422 96,84 c 28.6812,-0.05558 56.63012,-5.719054 80,-16.210938 L 158.27431,44.359201 C 154.26334,39.057497 149.6309,32.888378 142.99142,33.224784 Z"
     sodipodi:nodetypes="sscccsss" />
  <path
     id="path4391"
     style="opacity:1;fill:#70d39f;fill-opacity:1;stroke:none;stroke-width:169.153;stroke-linecap:round;stroke-linejoin:round;stroke-miterlimit:4;stroke-dasharray:none;stroke-opacity:1"
     d="M 28 16 C 21.352 16 16 21.352 16 28 L 16 65.789062 A 138.73114 87.539757 0 0 0 96 82 A 138.73114 87.539757 0 0 0 176 65.789062 L 176 28 C 176 21.352 170.648 16 164 16 L 28 16 z " />
  <path
     id="rect6416"
     style="opacity:0.2;fill:#ffffff;fill-opacity:1;stroke-width:4"
     d="m 28,16 c -6.648,0 -12,5.352 -12,12 v 1 c 0,-6.648 5.352,-12 12,-12 h 136 c 6.648,0 12,5.352 12,12 v -1 c 0,-6.648 -5.352,-12 -12,-12 z" />
  <path
     id="path44183"
     style="opacity:0.2;fill:#000000;fill-opacity:1;stroke-width:22.2764;stroke-linecap:round;stroke-linejoin:round;filter:url(#filter44221)"
     d="M 96,44 C 75.01318,44 58,61.01318 58,82 v 62.09375 c -13.841074,7.73184 -24.997382,16.49761 -31.982422,30.73017 0.646121,0.10682 1.308468,0.10838 1.982422,0.17578 h 30 76 30 c 0.71402,0 1.40879,-0.0729 2.08789,-0.1914 C 159.08304,160.54245 147.88752,151.7571 134,144.0293 V 82 C 134,61.01318 116.98682,44 96,44 Z"
     sodipodi:nodetypes="ssccsccsccss" />
  <path
     id="path2455"
     style="opacity:1;fill:#44191b;fill-opacity:1;stroke-width:22.2764;stroke-linecap:round;stroke-linejoin:round"
     d="M 96 42 A 38 38 0 0 0 58 80 L 58 142.09375 A 78 78 0 0 0 26.017578 175.82422 C 26.663699 175.93104 27.322684 176 28 176 L 58 176 L 134 176 L 164 176 C 164.71402 176 165.40879 175.92705 166.08789 175.80859 A 78 78 0 0 0 134 142.0293 L 134 80 A 38 38 0 0 0 96 42 z " />
  <path
     id="path43849"
     style="opacity:0.2;fill:#000000;fill-opacity:1;stroke-width:18.5637;stroke-linecap:round;stroke-linejoin:round;filter:url(#filter43890)"
     d="M 85.5,56 C 72.481,56 62,67.596 62,82 v 21 c 0,13.84595 9.685895,25.09233 22,25.94336 v 14.3125 C 65.747189,146.6845 50.488727,157.55 41.101428,172.36022 c -1.155089,1.82237 7.343439,-2.04497 6.371498,-0.10966 L 114,172.40121 V 144.55859 79.996094 C 114,68.619247 103.67795,56.858136 87.224609,56.076172 86.654672,56.030804 86.080742,56 85.5,56 Z"
     sodipodi:nodetypes="sssccscccscs" />
  <path
     id="circle2559"
     style="opacity:1;fill:url(#linearGradient46814);fill-opacity:1;stroke-width:18.5637;stroke-linecap:round;stroke-linejoin:round"
     d="M 85.5 54 L 84 102.28516 L 84 141.25586 C 63.501216 145.10639 46.779015 158.33656 37.908203 176 L 114 176 L 114 142.55859 L 114 77.996094 C 114 66.22257 102.96561 54 85.5 54 z " />
  <path
     id="rect2029"
     style="opacity:1;fill:#ffdf49;stroke-width:19.5935;stroke-linecap:round;stroke-linejoin:round;fill-opacity:1"
     d="M 85.5,54 C 98.519,54 109,65.596 109,80 v 21 c 0,14.404 -10.481,26 -23.5,26 C 72.481,127 62,115.404 62,101 V 80 C 62,65.596 72.481,54 85.5,54 Z" />
  <path
     style="color:#000000;fill:#44191b;stroke-linecap:round;stroke-linejoin:round;-inkscape-stroke:none;opacity:1;fill-opacity:1"
     d="m 88.800781,109.17773 c -2.356276,1.24046 -4.136886,1.8335 -6.425781,1.82227 -2.1065,-0.0103 -3.823097,-0.52624 -6.160156,-1.79297 a 1.5,1.5 0 0 0 -2.033203,0.60547 1.5,1.5 0 0 0 0.603515,2.0332 c 2.600686,1.40963 4.951022,2.14148 7.576172,2.1543 2.848832,0.014 5.260156,-0.81093 7.837891,-2.16797 a 1.5,1.5 0 0 0 0.628906,-2.02539 1.5,1.5 0 0 0 -2.027344,-0.62891 z"
     id="path39250" />
  <path
     id="path40026"
     style="color:#000000;opacity:1;fill:#44191b;fill-opacity:1;stroke-linecap:round;stroke-linejoin:round;-inkscape-stroke:none"
     d="m 71.753906,80.996094 c -0.121728,-0.0012 -0.243249,-7.6e-5 -0.365234,0.0039 -1.951756,0.06372 -2.735878,0.737459 -4.931316,2.160156 -0.463871,0.299847 -0.596794,0.918988 -0.296875,1.382813 0.299847,0.463871 0.918988,0.596794 1.382813,0.296875 2.105045,-1.364121 2.564889,-1.848672 3.909831,-1.892578 0.341035,-0.01113 0.688545,0.0032 1.052734,0.05664 C 72.180012,83.434844 72.002533,83.959743 72,84.5 c 0,1.380712 1.119288,2.5 2.5,2.5 1.186275,-0.0031 2.207034,-0.839452 2.443359,-2.001953 0.331347,0.0186 0.664318,-0.127701 0.871094,-0.417969 0.320317,-0.449822 0.21539,-1.074135 -0.234375,-1.394531 -2.189707,-1.561141 -4.000245,-2.17169 -5.826172,-2.189453 z"
     sodipodi:nodetypes="sscccsccccccs" />
  <path
     id="path40855"
     style="color:#000000;opacity:1;fill:#44191b;fill-opacity:1;stroke-linecap:round;stroke-linejoin:round;-inkscape-stroke:none"
     d="m 93.754132,80.996094 c -0.121728,-0.0012 -0.243249,-7.6e-5 -0.365234,0.0039 -1.951756,0.06372 -2.735879,0.737459 -4.931316,2.160156 -0.463871,0.299847 -0.596795,0.918988 -0.296875,1.382813 0.299847,0.463871 0.918988,0.596794 1.382813,0.296875 2.105045,-1.364121 2.564889,-1.848672 3.909831,-1.892578 0.341035,-0.01113 0.688545,0.0032 1.052734,0.05664 -0.325848,0.43094 -0.503327,0.955841 -0.505859,1.4961 0,1.380712 1.119288,2.5 2.5,2.5 1.186275,-0.0031 2.207034,-0.839452 2.443359,-2.001953 0.331347,0.0186 0.664318,-0.127701 0.871094,-0.417969 0.320311,-0.449822 0.215391,-1.074135 -0.234375,-1.394531 -2.189707,-1.561141 -4.000245,-2.17169 -5.826172,-2.189453 z"
     sodipodi:nodetypes="sccccsccccccs" />
  <path
     id="rect40879"
     style="opacity:0.3;fill:#44191b;stroke-width:1.76104;stroke-linecap:round;stroke-linejoin:round;fill-opacity:1"
     d="m 76.870486,101.00028 c -0.427754,-0.0112 -0.775725,0.30669 -0.870486,0.72236 0.03739,-0.24451 3.147554,4.17035 6,5.27736 2.852446,-1.10701 5.962615,-5.52187 6,-5.27736 -0.137834,-0.60461 -0.814095,-1.00149 -1.486924,-0.48157 -0.669989,0.51772 -1.634048,1.4165 -4.513076,1.25169 -2.879028,0.16481 -3.843087,-0.73397 -4.513076,-1.25169 -0.210258,-0.16248 -0.422005,-0.23571 -0.616438,-0.24079 z" />
</svg>
