<svg xmlns="http://www.w3.org/2000/svg" width="192" height="192" version="1">
 <g transform="scale(4)">
  <path style="opacity:0.2" d="M 4.0117,24 C 4.0076,24.167 4,24.332 4,24.5 c 0,11.08 8.92,20 20,20 11.08,0 20,-8.92 20,-20 C 44,24.332 43.992,24.167 43.988,24 43.724,34.846 34.912,43.5 24,43.5 13.088,43.5 4.276,34.846 4.012,24 Z"/>
  <rect style="fill:#604abf" width="40" height="39.996" x="-44" y="-44" rx="20" ry="19.998" transform="matrix(0,-1,-1,0,0,0)"/>
  <path style="opacity:0.1;fill:#ffffff" d="M 24,4 C 12.921,4 4.0019531,12.92 4.0019531,24 c 0,0.16772 -0.004,0.33329 0,0.5 0,-11.08 8.9190469,-20 19.9980469,-20 11.079,0 19.998047,8.92 19.998047,20 0.004,-0.16671 0,-0.33228 0,-0.5 C 43.998047,12.92 35.079,4 24,4 Z"/>
  <path style="opacity:0.2" d="m 24,12.5 a 12,12 0 0 0 -12,12 12,12 0 0 0 12,12 12,12 0 0 0 12,-12 A 12,12 0 0 0 35.92773,23.296875 7.6480603,7.6480603 0 0 1 30,15.851562 7.6480603,7.6480603 0 0 1 30.177734,14.228516 12,12 0 0 0 24,12.5 Z"/>
  <path style="fill:#ffffb4" d="M 24,12 A 12,12 0 0 0 12,24 12,12 0 0 0 24,36 12,12 0 0 0 36,24 12,12 0 0 0 35.927734,22.796875 7.6480603,7.6480603 0 0 1 30,15.351562 7.6480603,7.6480603 0 0 1 30.177734,13.728516 12,12 0 0 0 24,12 Z"/>
  <path style="opacity:0.2" d="M 22.5,16 A 3.5,3.5 0 0 0 19,19.5 3.5,3.5 0 0 0 22.5,23 3.5,3.5 0 0 0 26,19.5 3.5,3.5 0 0 0 22.5,16 Z m 5,1 A 1.5,1.5 0 0 0 26,18.5 1.5,1.5 0 0 0 27.5,20 1.5,1.5 0 0 0 29,18.5 1.5,1.5 0 0 0 27.5,17 Z m 2.5,2 a 2,2 0 0 0 -2,2 2,2 0 0 0 2,2 2,2 0 0 0 2,-2 2,2 0 0 0 -2,-2 z m -6,10 a 2,2 0 0 0 -2,2 2,2 0 0 0 2,2 2,2 0 0 0 2,-2 2,2 0 0 0 -2,-2 z"/>
  <path style="opacity:0.2;fill:#ffffff" d="M 24,12 A 12,12 0 0 0 12,24 12,12 0 0 0 12.0098,24.203125 12,12 0 0 1 24,12.5 12,12 0 0 1 30.101562,14.1875 7.6480603,7.6480603 0 0 1 30.177734,13.728516 12,12 0 0 0 24,12 Z m 6.007812,3.685547 A 7.6480603,7.6480603 0 0 0 30,15.851562 a 7.6480603,7.6480603 0 0 0 5.927734,7.445313 12,12 0 0 1 0.06055,1.021484 A 12,12 0 0 0 36,24 12,12 0 0 0 35.927734,22.796875 7.6480603,7.6480603 0 0 1 30.007812,15.685547 Z"/>
 </g>
</svg>
