<?xml version="1.0" encoding="UTF-8" standalone="no"?>
<svg
   width="192"
   height="192"
   version="1"
   id="svg28"
   sodipodi:docname="apps_incognito_browser.svg"
   inkscape:version="1.1.1 (1:1.1+202109281949+c3084ef5ed)"
   xmlns:inkscape="http://www.inkscape.org/namespaces/inkscape"
   xmlns:sodipodi="http://sodipodi.sourceforge.net/DTD/sodipodi-0.dtd"
   xmlns="http://www.w3.org/2000/svg"
   xmlns:svg="http://www.w3.org/2000/svg"
   xmlns:rdf="http://www.w3.org/1999/02/22-rdf-syntax-ns#"
   xmlns:cc="http://creativecommons.org/ns#"
   xmlns:dc="http://purl.org/dc/elements/1.1/">
  <metadata
     id="metadata34">
    <rdf:RDF>
      <cc:Work
         rdf:about="">
        <dc:format>image/svg+xml</dc:format>
        <dc:type
           rdf:resource="http://purl.org/dc/dcmitype/StillImage" />
      </cc:Work>
    </rdf:RDF>
  </metadata>
  <defs
     id="defs32">
    <filter
       inkscape:collect="always"
       style="color-interpolation-filters:sRGB"
       id="filter6495"
       x="-0.048000001"
       y="-0.048000001"
       width="1.096"
       height="1.096">
      <feGaussianBlur
         inkscape:collect="always"
         stdDeviation="3.2"
         id="feGaussianBlur6497" />
    </filter>
    <filter
       inkscape:collect="always"
       style="color-interpolation-filters:sRGB"
       id="filter2148"
       x="-0.042544961"
       y="-0.055059648"
       width="1.0850899"
       height="1.1101193">
      <feGaussianBlur
         inkscape:collect="always"
         stdDeviation="1.9499939"
         id="feGaussianBlur2150" />
    </filter>
  </defs>
  <sodipodi:namedview
     pagecolor="#ffffff"
     bordercolor="#666666"
     borderopacity="1"
     objecttolerance="10"
     gridtolerance="10"
     guidetolerance="10"
     inkscape:pageopacity="0"
     inkscape:pageshadow="2"
     inkscape:window-width="1920"
     inkscape:window-height="1014"
     id="namedview30"
     showgrid="false"
     inkscape:zoom="1"
     inkscape:cx="71.5"
     inkscape:cy="120"
     inkscape:window-x="0"
     inkscape:window-y="34"
     inkscape:window-maximized="1"
     inkscape:current-layer="svg28"
     inkscape:pagecheckerboard="0">
    <inkscape:grid
       type="xygrid"
       id="grid841" />
  </sodipodi:namedview>
  <rect
     id="rect6457"
     transform="matrix(0,-1,-1,0,0,0)"
     ry="12"
     rx="12"
     y="-176"
     x="-180"
     height="160"
     width="160"
     style="opacity:0.2;fill:#000000;fill-opacity:1;stroke-width:4;filter:url(#filter6495)" />
  <rect
     id="rect2"
     transform="matrix(0,-1,-1,0,0,0)"
     ry="12"
     rx="12"
     y="-176"
     x="-176"
     height="160"
     width="160"
     style="fill:#e4e4e4;fill-opacity:1;stroke-width:4" />
  <path
     id="rect2237"
     style="fill:#ffffff;fill-opacity:1;stroke-width:4;opacity:0.2"
     d="M 28 16 C 21.352 16 16 21.352 16 28 L 16 29 C 16 22.352 21.352 17 28 17 L 164 17 C 170.648 17 176 22.352 176 29 L 176 28 C 176 21.352 170.648 16 164 16 L 28 16 z " />
  <path
     id="path2110"
     style="opacity:0.2;fill:#000000;fill-opacity:1;stroke-width:0.296412;filter:url(#filter2148)"
     d="m 111.21875,56.002786 c -2.36722,-0.03814 -5.13901,0.795834 -9.24023,2.691406 -2.593176,1.198557 -4.430807,2.156485 -5.470708,2.263672 -1.4884,0.153416 -1.773382,-0.241486 -5.789062,-2.255859 -4.90659,-2.461226 -7.027708,-2.954796 -10.392578,-2.417969 -2.67307,0.426453 -3.425589,0.747425 -4.761719,2.027344 -4.10984,3.936956 -7.981422,13.65631 -11.169922,28.039062 -0.50443,2.275396 -0.957759,4.17657 -1.005859,4.22461 -0.04813,0.04807 -0.312701,-1.281337 -0.587891,-2.953125 -0.27518,-1.671788 -0.644275,-3.888761 -0.822265,-4.925782 l -0.324219,-1.884765 -1.818359,0.201172 c -2.55046,0.282534 -6.909527,1.248897 -9.310547,2.064453 -6.50718,2.210302 -9.907468,5.498305 -9.492188,9.177734 0.24167,2.141273 1.356113,4.011682 3.914063,6.580078 7.87204,7.904193 23.949302,13.694983 41.695312,15.017573 3.16593,0.23589 12.677401,0.18034 16.195312,-0.0957 15.52066,-1.21788 31.25334,-5.75701 40.16016,-11.58594 1.06039,-0.69395 3.00859,-2.335568 4.33007,-3.648433 2.57956,-2.562714 3.68518,-4.645083 3.67188,-6.916015 -0.014,-2.356747 -1.87622,-4.867373 -4.86914,-6.5625 -2.95926,-1.676062 -9.3487,-3.516874 -13.99219,-4.03125 -2.13019,-0.235976 -1.82195,-0.826797 -2.82031,5.402343 -0.37047,2.311499 -0.76621,4.145782 -0.87891,4.076172 -0.11271,-0.06956 -0.29306,-0.592692 -0.40039,-1.164062 -0.35587,-1.894432 -2.56673,-9.71857 -3.93554,-13.927734 -3.81075,-11.718275 -7.42253,-18.206448 -10.61914,-19.076172 -0.73303,-0.19944 -1.47656,-0.3076 -2.26563,-0.320313 z M 75.814453,117.00278 c -3.481465,-0.0244 -6.889953,0.168 -9.287109,0.58399 -4.84802,0.84131 -4.664343,0.71939 -4.433594,2.94336 0.37655,3.62934 0.500969,3.94012 1.640625,4.05078 1.207822,0.11727 1.454937,0.43536 1.460937,1.87695 0.01576,3.77018 1.656506,8.93523 3.519532,11.08399 1.085252,1.2517 3.944278,2.78545 5.917968,3.17578 2.138887,0.42301 5.634767,0.36323 7.527344,-0.12891 5.140655,-1.33676 7.398195,-3.49048 11.804688,-11.25781 1.07484,-1.89461 1.443437,-2.3125 2.035156,-2.3125 0.591718,0 0.960327,0.41789 2.035156,2.3125 2.522244,4.44595 3.870524,6.40254 5.406254,7.83789 2.9818,2.78691 6.73992,4.05209 11.27343,3.79492 7.36547,-0.41782 10.84479,-4.02845 11.81446,-12.25977 0.49648,-4.21459 0.41942,-4.02583 1.66015,-4.13085 1.22658,-0.10381 1.33444,-0.35769 1.7168,-4.04297 0.23075,-2.22397 0.41443,-2.10205 -4.43359,-2.94336 -4.79432,-0.83198 -13.63547,-0.77033 -19.00977,0.13281 -3.46327,0.53146 -7.298148,1.26909 -10.46289,1.28125 -3.576197,-0.0508 -7.244597,-0.74081 -10.462891,-1.28125 -2.687148,-0.45157 -6.241191,-0.69244 -9.722656,-0.7168 z m -3.652344,6.99805 c 0.679164,0 0.977294,0.94319 0.775391,2.45508 -0.158122,1.18405 -0.313125,1.45945 -0.865234,1.53125 C 71.266378,128.09185 71,127.57852 71,125.91294 c 0,-1.22479 0.4172,-1.91211 1.162109,-1.91211 z" />
  <path
     id="path1027"
     style="opacity:1;fill:#3f3f3f;stroke-width:0.296412;fill-opacity:1"
     d="M 111.21875 54.001953 C 108.85153 53.963815 106.07974 54.797787 101.97852 56.693359 C 99.385344 57.891916 97.547713 58.849844 96.507812 58.957031 C 95.019412 59.110447 94.73443 58.715545 90.71875 56.701172 C 85.81216 54.239946 83.691042 53.746376 80.326172 54.283203 C 77.653102 54.709656 76.900583 55.030628 75.564453 56.310547 C 71.454613 60.247503 67.583031 69.966857 64.394531 84.349609 C 63.890101 86.625005 63.436772 88.526179 63.388672 88.574219 C 63.340542 88.622285 63.075971 87.292882 62.800781 85.621094 C 62.525601 83.949306 62.156506 81.732333 61.978516 80.695312 L 61.654297 78.810547 L 59.835938 79.011719 C 57.285478 79.294253 52.926411 80.260616 50.525391 81.076172 C 44.018211 83.286474 40.617923 86.574477 41.033203 90.253906 C 41.274873 92.395179 42.389316 94.265588 44.947266 96.833984 C 52.819306 104.73818 68.896568 110.52897 86.642578 111.85156 C 89.808508 112.08745 99.319979 112.0319 102.83789 111.75586 C 118.35855 110.53798 134.09123 105.99885 142.99805 100.16992 C 144.05844 99.475971 146.00664 97.834349 147.32812 96.521484 C 149.90768 93.95877 151.0133 91.876401 151 89.605469 C 150.98603 87.248722 149.12378 84.738096 146.13086 83.042969 C 143.1716 81.366907 136.78216 79.526095 132.13867 79.011719 C 130.00848 78.775743 130.31672 78.184922 129.31836 84.414062 C 128.94789 86.725561 128.55215 88.559844 128.43945 88.490234 C 128.32674 88.420676 128.14639 87.897542 128.03906 87.326172 C 127.68319 85.43174 125.47233 77.607602 124.10352 73.398438 C 120.29277 61.680163 116.68099 55.19199 113.48438 54.322266 C 112.75135 54.122826 112.00782 54.014666 111.21875 54.001953 z M 75.814453 115.00195 C 72.332988 114.97755 68.9245 115.16995 66.527344 115.58594 C 61.679324 116.42725 61.863001 116.30533 62.09375 118.5293 C 62.4703 122.15864 62.594719 122.46942 63.734375 122.58008 C 64.942197 122.69735 65.189312 123.01544 65.195312 124.45703 C 65.211073 128.22721 66.851818 133.39226 68.714844 135.54102 C 69.800096 136.79272 72.659122 138.32647 74.632812 138.7168 C 76.771699 139.13981 80.267579 139.08003 82.160156 138.58789 C 87.300811 137.25113 89.558351 135.09741 93.964844 127.33008 C 95.039684 125.43547 95.408281 125.01758 96 125.01758 C 96.591718 125.01758 96.960327 125.43547 98.035156 127.33008 C 100.5574 131.77603 101.90568 133.73262 103.44141 135.16797 C 106.42321 137.95488 110.18133 139.22006 114.71484 138.96289 C 122.08031 138.54507 125.55963 134.93444 126.5293 126.70312 C 127.02578 122.48853 126.94872 122.67729 128.18945 122.57227 C 129.41603 122.46846 129.52389 122.21458 129.90625 118.5293 C 130.137 116.30533 130.32068 116.42725 125.47266 115.58594 C 120.67834 114.75396 111.83719 114.81561 106.46289 115.71875 C 102.99962 116.25021 99.164742 116.98784 96 117 C 92.423803 116.9492 88.755403 116.25919 85.537109 115.71875 C 82.849961 115.26718 79.295918 115.02631 75.814453 115.00195 z M 72.162109 122 C 72.841273 122 73.139403 122.94319 72.9375 124.45508 C 72.779378 125.63913 72.624375 125.91453 72.072266 125.98633 C 71.266378 126.09102 71 125.57769 71 123.91211 C 71 122.68732 71.4172 122 72.162109 122 z " />
</svg>
