<?xml version="1.0" encoding="UTF-8" standalone="no"?>
<svg
   width="192"
   height="192"
   version="1.1"
   id="svg16"
   sodipodi:docname="apps_repl.it.svg"
   inkscape:version="1.1-rc (1:1.1+rc+202105232036+f4db50c7c1)"
   xmlns:inkscape="http://www.inkscape.org/namespaces/inkscape"
   xmlns:sodipodi="http://sodipodi.sourceforge.net/DTD/sodipodi-0.dtd"
   xmlns="http://www.w3.org/2000/svg"
   xmlns:svg="http://www.w3.org/2000/svg">
  <defs
     id="defs20">
    <filter
       inkscape:collect="always"
       style="color-interpolation-filters:sRGB"
       id="filter853"
       x="-0.048364996"
       y="-0.048364934"
       width="1.09673"
       height="1.0967299">
      <feGaussianBlur
         inkscape:collect="always"
         stdDeviation="3.2243319"
         id="feGaussianBlur855" />
    </filter>
    <filter
       inkscape:collect="always"
       style="color-interpolation-filters:sRGB"
       id="filter875"
       x="-0.047996181"
       y="-0.047996181"
       width="1.0959924"
       height="1.0959924">
      <feGaussianBlur
         inkscape:collect="always"
         stdDeviation="0.95992348"
         id="feGaussianBlur877" />
    </filter>
  </defs>
  <sodipodi:namedview
     id="namedview18"
     pagecolor="#ffffff"
     bordercolor="#666666"
     borderopacity="1.0"
     inkscape:pageshadow="2"
     inkscape:pageopacity="0.0"
     inkscape:pagecheckerboard="0"
     showgrid="false"
     inkscape:zoom="1"
     inkscape:cx="24.5"
     inkscape:cy="58.5"
     inkscape:window-width="1920"
     inkscape:window-height="1019"
     inkscape:window-x="0"
     inkscape:window-y="34"
     inkscape:window-maximized="1"
     inkscape:current-layer="svg16" />
  <circle
     style="fill:#e4e4e4;stroke-width:4"
     cx="95.999992"
     cy="95.999847"
     r="75.999992"
     id="circle2" />
  <path
     style="fill:#56676e;stroke-width:4"
     d="M 175.62904,88.534199 C 175.8484,90.951835 176,93.390831 176,95.867215 v 0 c 0,-2.476384 -0.1516,-4.9136 -0.37096,-7.333016 z"
     id="path4" />
  <path
     style="opacity:0.2;stroke-width:4;filter:url(#filter853)"
     d="m 95.99999,19.999856 a 80.296042,80.155766 0 0 0 -14.50781,1.375 c 92.67288,11.356468 68.58766,119.605114 11.468746,118.796864 0,0 83.166694,10.83471 77.960934,-68.101559 C 159.60258,41.685957 130.37691,19.999856 95.99999,19.999856 Z M 74.617181,25.523293 C 72.061285,25.475167 69.403669,25.50947 66.640618,25.624855 36.991503,37.316019 16,66.110266 16,99.859222 a 80.449418,80.30887 0 0 0 0.820312,10.859378 c 18.608052,-93.525748 124.621648,-63.236703 118.593738,-6.125 0,0 18.43586,-77.578422 -60.796869,-79.070307 z m 9.218747,33.601558 C 59.395335,58.354815 20.426805,66.83067 21.304687,128.96078 a 80.228274,80.088114 0 0 0 19.343746,28.87499 c 0.35668,0.33648 0.725692,0.65324 1.08594,0.98438 a 80.283558,80.143306 0 0 0 7.593747,6.17188 c 0.411968,0.29376 0.797192,0.61962 1.21094,0.90624 a 79.67185,79.532666 0 0 0 8.757811,5.1875 c 0.879219,0.4522 1.780175,0.86714 2.671875,1.28907 a 79.167146,79.028842 0 0 0 7.999999,3.24218 c 0.668772,0.22788 1.306676,0.51471 1.984372,0.72657 a 79.30447,79.165926 0 0 0 9.960939,2.35156 c 1.018324,0.17804 2.047316,0.32632 3.078123,0.46875 a 80.253242,80.113038 0 0 0 10.539059,0.8125 c 0.13556,0 0.26288,0.0236 0.39844,0.0236 2.66084,0 5.291522,-0.14384 7.882812,-0.39844 C 10.658093,157.42449 46.067744,53.445892 103.05468,61.742039 c 0,0 -8.10939,-2.267172 -19.218752,-2.617188 z M 56.945307,92.109223 c 0,0 -22.250185,81.834747 66.921863,82.546857 27.97807,-10.39689 48.59422,-35.88581 51.71875,-66.61717 0.2158,-2.12567 0.27996,-4.2968 0.32812,-6.46875 0.009,-0.57147 0.0859,-1.12809 0.0859,-1.703126 0,-2.474604 -0.14783,-4.918299 -0.36719,-7.335939 C 152.07401,185.11151 47.84994,148.84884 56.945307,92.109223 Z"
     id="path6" />
  <path
     style="fill:#4b6a77;stroke-width:4"
     d="m 95.99999,15.999857 a 80.296042,80.155766 0 0 0 -14.50781,1.374999 c 92.67288,11.356469 68.58766,119.605114 11.468746,118.796864 0,0 83.166694,10.83471 77.960934,-68.101558 C 159.60258,37.685957 130.37691,15.999857 95.99999,15.999857 Z m -21.382809,5.523436 c -2.555896,-0.04812 -5.213512,-0.01382 -7.976563,0.101563 C 36.991503,33.316019 16,62.110267 16,95.859223 a 80.449418,80.30887 0 0 0 0.820312,10.859377 c 18.608052,-93.525748 124.621648,-63.236703 118.593738,-6.125 0,0 18.43586,-77.578422 -60.796869,-79.070307 z m 9.218747,33.601559 C 59.395335,54.354816 20.426805,62.830671 21.304687,124.96078 a 80.228274,80.088114 0 0 0 19.343746,28.875 c 0.35668,0.33648 0.725692,0.65324 1.08594,0.98437 a 80.283558,80.143306 0 0 0 7.593747,6.17188 c 0.411968,0.29376 0.797192,0.61962 1.21094,0.90624 a 79.67185,79.532666 0 0 0 8.757811,5.1875 c 0.879219,0.4522 1.780175,0.86714 2.671875,1.28907 a 79.167146,79.028842 0 0 0 7.999999,3.24219 c 0.668772,0.22788 1.306676,0.5147 1.984372,0.72656 a 79.30447,79.165926 0 0 0 9.960939,2.35156 c 1.018324,0.17804 2.047316,0.32632 3.078123,0.46875 a 80.253242,80.113038 0 0 0 10.539059,0.8125 c 0.13556,0 0.26288,0.0236 0.39844,0.0236 2.66084,0 5.291522,-0.14384 7.882812,-0.39844 C 10.658093,153.42449 46.067744,49.445892 103.05468,57.742039 c 0,0 -8.10939,-2.267171 -19.218752,-2.617187 z M 56.945307,88.109223 c 0,0 -22.250185,81.834747 66.921863,82.546867 27.97807,-10.3969 48.59422,-35.88582 51.71875,-66.61718 0.2158,-2.12567 0.27996,-4.296796 0.32812,-6.468752 0.009,-0.571472 0.0859,-1.128088 0.0859,-1.703123 0,-2.474604 -0.14783,-4.9183 -0.36719,-7.33594 C 152.07401,181.11151 47.84994,144.84884 56.945307,88.109223 Z"
     id="path8" />
  <path
     style="opacity:0.2;stroke-width:4;filter:url(#filter875)"
     d="M 119.99999,98.000004 A 23.999997,23.999997 0 1 1 96.007634,74.000007 23.998087,23.998087 0 0 1 119.99999,98.000004 Z"
     id="path10" />
  <path
     style="fill:#4b4c4d;stroke-width:4"
     d="M 119.99999,95.999847 A 23.999997,23.999997 0 1 1 96.007634,71.99985 23.998087,23.998087 0 0 1 119.99999,95.999847 Z"
     id="path12" />
  <path
     id="path959"
     style="fill:#ffffff;stroke-width:4;opacity:0.2"
     d="M 96 16 A 80.296042 80.155766 0 0 0 81.492188 17.375 C 82.697177 17.522664 83.871416 17.695026 85.037109 17.875 A 80.296042 80.155766 0 0 1 96 17 C 130.37692 17 159.6026 38.686108 170.92188 69.070312 C 171.07164 71.341247 171.14087 73.529568 171.14844 75.654297 C 171.16474 73.221087 171.09523 70.698901 170.92188 68.070312 C 159.6026 37.686108 130.37692 16 96 16 z M 70.707031 21.513672 C 69.377759 21.530655 68.02215 21.567308 66.640625 21.625 C 36.99151 33.316163 16 62.110419 16 95.859375 A 80.449418 80.30887 0 0 0 16.015625 96.0625 C 16.344297 62.658993 37.226019 34.223692 66.640625 22.625 C 69.403676 22.509617 72.061291 22.475317 74.617188 22.523438 C 128.51309 23.538252 137.20607 59.743615 137.26172 82.804688 C 137.45351 59.807219 129.29974 22.553063 74.617188 21.523438 C 73.339239 21.499378 72.036304 21.496689 70.707031 21.513672 z M 79.095703 55.099609 C 54.679279 55.623832 20.481673 66.71396 21.304688 124.96094 A 80.228274 80.088114 0 0 0 21.310547 124.97266 C 20.867561 63.760977 59.528471 55.359158 83.835938 56.125 C 88.537606 56.273133 92.502495 56.77525 95.742188 57.292969 C 98.133748 57.244325 100.5724 57.380817 103.05469 57.742188 C 103.05469 57.742188 94.945299 55.475016 83.835938 55.125 C 82.3084 55.076873 80.723465 55.064661 79.095703 55.099609 z M 143.46094 76.839844 C 143.90814 106.80913 123.02497 136.59729 92.960938 136.17188 C 92.960938 136.17188 95.811016 136.53377 100.375 136.64062 C 126.71987 132.50267 144.31742 104.61096 143.46094 76.839844 z M 56.945312 88.109375 C 56.945312 88.109375 54.301088 97.84791 54.492188 110.63281 C 54.4557 100.1856 56.091297 92.749421 56.632812 90.521484 C 56.716964 89.721521 56.815695 88.91797 56.945312 88.109375 z M 175.63281 88.53125 C 153.20187 176.67968 57.647361 148.02378 56.400391 96.103516 C 56.436551 148.65039 153.05866 178.24245 175.63281 89.53125 C 175.83295 91.737076 175.95932 93.967811 175.98242 96.220703 C 175.98775 96.102638 176 95.986542 176 95.867188 C 176 93.392584 175.85217 90.94889 175.63281 88.53125 z M 135.64453 96.058594 C 135.64031 97.5509 135.57585 99.060926 135.41406 100.59375 C 135.41406 100.59375 135.5185 100.02902 135.53906 99.9375 C 135.62837 98.630173 135.67032 97.335076 135.64453 96.058594 z M 46.414062 115.82227 C 46.511395 140.26499 61.768574 165.47819 100.80664 175.82812 C 101.81224 175.76491 102.81798 175.69928 103.8125 175.60156 C 63.084205 165.90546 46.932492 140.57191 46.414062 115.82227 z " />
</svg>
