<?xml version="1.0" encoding="UTF-8" standalone="no"?>
<svg
   xmlns:dc="http://purl.org/dc/elements/1.1/"
   xmlns:cc="http://creativecommons.org/ns#"
   xmlns:rdf="http://www.w3.org/1999/02/22-rdf-syntax-ns#"
   xmlns:svg="http://www.w3.org/2000/svg"
   xmlns="http://www.w3.org/2000/svg"
   xmlns:sodipodi="http://sodipodi.sourceforge.net/DTD/sodipodi-0.dtd"
   xmlns:inkscape="http://www.inkscape.org/namespaces/inkscape"
   width="192"
   height="192"
   version="1"
   id="svg14"
   sodipodi:docname="apps_whatsapp_business.svg"
   inkscape:version="0.92.3 (2405546, 2018-03-11)">
  <metadata
     id="metadata20">
    <rdf:RDF>
      <cc:Work
         rdf:about="">
        <dc:format>image/svg+xml</dc:format>
        <dc:type
           rdf:resource="http://purl.org/dc/dcmitype/StillImage" />
        <dc:title></dc:title>
      </cc:Work>
    </rdf:RDF>
  </metadata>
  <defs
     id="defs18">
    <filter
       inkscape:collect="always"
       style="color-interpolation-filters:sRGB"
       id="filter862"
       x="-0.04800018"
       width="1.0960004"
       y="-0.04799982"
       height="1.0959996">
      <feGaussianBlur
         inkscape:collect="always"
         stdDeviation="3.200012"
         id="feGaussianBlur864" />
    </filter>
    <filter
       inkscape:collect="always"
       style="color-interpolation-filters:sRGB"
       id="filter871"
       x="-0.054806362"
       width="1.1096127"
       y="-0.042697437"
       height="1.0853949">
      <feGaussianBlur
         inkscape:collect="always"
         stdDeviation="1.5299867"
         id="feGaussianBlur873" />
    </filter>
  </defs>
  <sodipodi:namedview
     pagecolor="#ffffff"
     bordercolor="#666666"
     borderopacity="1"
     objecttolerance="10"
     gridtolerance="10"
     guidetolerance="10"
     inkscape:pageopacity="0"
     inkscape:pageshadow="2"
     inkscape:window-width="1920"
     inkscape:window-height="1018"
     id="namedview16"
     showgrid="false"
     inkscape:zoom="1"
     inkscape:cx="121.07964"
     inkscape:cy="96"
     inkscape:window-x="0"
     inkscape:window-y="32"
     inkscape:window-maximized="1"
     inkscape:current-layer="svg14" />
  <path
     d="m 96,19.9988 c -1.928,0 -3.828,0.094 -5.72,0.2264 -0.236,0.0176 -0.472,0.0352 -0.708,0.0548 -28.58,2.2552 -52.784,19.4132 -65.008,43.736 -0.0044,0.004 -0.0068,0.012 -0.0092,0.016 -0.7912,1.572 -1.6008,3.14 -2.2892,4.772 -3.7452,8.456 -5.7788,17.432 -6.1484,26.828 -0.0164,0.304 -0.0184,0.612 -0.0312,0.916 -0.0248,0.896 -0.0764,1.788 -0.0704,2.696 C 16.0132,99.496 16,99.744 16,100 c 0,9.304 1.6532,18.184 4.5468,26.476 1.1648,3.716 2.5064,7.472 4.1252,11.276 4.032,9.472 4.5328,12.056 3.8984,19.968 -0.442,5.512 -1.9364,11.14 -3.8048,14.312 -1.6936,2.872 -3.078,5.84 -3.078,6.592 0,2.336 13.5088,1.52 25.4444,-1.54 13.984,-3.58 15.208,-3.572 26.672,0.024 5.244,1.648 11.232,2.536 17.984,2.784 0.284,0.012 0.568,0.012 0.852,0.024 0.924,0.024 1.812,0.084 2.768,0.084 0.076,0 0.148,-0.008 0.224,-0.008 0.124,0 0.244,0.008 0.368,0.008 2.232,0 4.44,-0.112 6.624,-0.288 19.78,-1.408 35.664,-8.728 49.96,-23 11.78,-11.76 19.08,-26.28 21.964,-41.468 0.264,-1.392 0.484,-2.792 0.68,-4.204 0.116,-0.868 0.24,-1.732 0.328,-2.604 0.192,-1.864 0.308,-3.76 0.372,-5.664 0.016,-0.48 0.036,-0.956 0.04,-1.436 C 175.976,100.888 176,100.448 176,100 176,56.42 141.492,21.22 98.204,20.056 97.868,20.0448 97.532,20.0364 97.196,20.0312 96.796,20.0256 96.4,20 96,20 Z"
     id="path832"
     inkscape:connector-curvature="0"
     style="opacity:0.2;fill:#000000;stroke-width:4;filter:url(#filter862)" />
  <path
     style="fill:#47ad5d;stroke-width:4"
     inkscape:connector-curvature="0"
     id="path2"
     d="m 96,16 c -1.928,0 -3.828,0.094 -5.72,0.2264 -0.236,0.0176 -0.472,0.0352 -0.708,0.0548 -28.58,2.2552 -52.784,19.4132 -65.008,43.736 -0.0044,0.004 -0.0068,0.012 -0.0092,0.016 -0.7912,1.572 -1.6008,3.14 -2.2892,4.772 -3.7452,8.456 -5.7788,17.432 -6.1484,26.828 -0.0164,0.304 -0.0184,0.612 -0.0312,0.916 -0.0248,0.896 -0.0764,1.788 -0.0704,2.696 -0.0024,0.252 -0.0156,0.5 -0.0156,0.756 0,9.304 1.6532,18.184 4.5468,26.476 1.1648,3.716 2.5064,7.472 4.1252,11.276 4.032,9.472 4.5328,12.056 3.8984,19.968 -0.442,5.512 -1.9364,11.14 -3.8048,14.312 -1.6936,2.872 -3.078,5.84 -3.078,6.592 0,2.336 13.5088,1.52 25.4444,-1.54 13.984,-3.58 15.208,-3.572 26.672,0.024 5.244,1.648 11.232,2.536 17.984,2.784 0.284,0.012 0.568,0.012 0.852,0.024 0.924,0.024 1.812,0.084 2.768,0.084 0.076,0 0.148,-0.008 0.224,-0.008 0.124,0 0.244,0.008 0.368,0.008 2.232,0 4.44,-0.112 6.624,-0.288 19.78,-1.408 35.664,-8.728 49.96,-23 11.78,-11.76 19.08,-26.28 21.964,-41.468 0.264,-1.392 0.484,-2.792 0.68,-4.204 0.116,-0.868 0.24,-1.732 0.328,-2.604 0.192,-1.864 0.308,-3.76 0.372,-5.664 0.016,-0.48 0.036,-0.956 0.04,-1.436 0.008,-0.448 0.032,-0.888 0.032,-1.336 0,-43.58 -34.508,-78.78 -77.796,-79.944 C 97.868,16.046 97.532,16.0376 97.196,16.0324 96.796,16.0268 96.4,16.0012 96,16.0012 Z" />
  <path
     inkscape:connector-curvature="0"
     style="opacity:0.2;fill:#ffffff;stroke-width:4"
     d="m 95.998047,16 c -1.927326,6.4e-5 -3.827393,0.09421 -5.71875,0.226562 -0.236,0.0176 -0.471031,0.03509 -0.707031,0.05469 -28.58,2.2552 -52.783813,19.413528 -65.007813,43.736328 -0.0044,0.004 -0.0074,0.01163 -0.0098,0.01563 -0.7912,1.572 -1.600663,3.139485 -2.289063,4.771485 -3.7452,8.456 -5.778837,17.432124 -6.148437,26.828124 -0.0164,0.304001 -0.01845,0.612016 -0.03125,0.916016 -0.0248,0.896 -0.07631,1.789266 -0.07031,2.697266 -0.0024,0.252 -0.01563,0.499859 -0.01563,0.755859 0,0.107683 0.0094,0.213299 0.01367,0.320313 4.37e-4,-0.02533 0.0017,-0.05077 0.002,-0.07617 -0.006,-0.908 0.04551,-1.801266 0.07031,-2.697266 0.0128,-0.304 0.01485,-0.612015 0.03125,-0.916016 0.3696,-9.396 2.403237,-18.372124 6.148437,-26.828124 0.6884,-1.632 1.497863,-3.199485 2.289063,-4.771485 0.0024,-0.004 0.0054,-0.01163 0.0098,-0.01563 12.224,-24.3228 36.427813,-41.481128 65.007813,-43.736328 0.236,-0.0196 0.471031,-0.03709 0.707031,-0.05469 1.891317,-0.132357 3.791384,-0.2265 5.71871,-0.226564 H 96 c 0.399335,8.3e-5 0.795965,0.02566 1.195312,0.03125 0.336,0.0052 0.671813,0.01419 1.007813,0.02539 43.071405,1.158175 77.444155,36.01315 77.787105,79.291015 0.003,-0.11578 0.008,-0.231074 0.008,-0.347656 0,-43.58 -34.50692,-78.779359 -77.794925,-79.943359 -0.336,-0.0112 -0.671813,-0.02019 -1.007813,-0.02539 C 96.795965,16.025659 96.399335,16.000083 96,16 Z M 28.703125,150.78711 c -0.0372,0.948 -0.04241,1.80159 -0.132813,2.93359 -0.442,5.512 -1.936287,11.13855 -3.804687,14.31055 -1.6936,2.872 -3.078125,5.8398 -3.078125,6.5918 0,0.12469 0.06424,0.23381 0.154297,0.33593 0.391664,-1.22069 1.548445,-3.59536 2.923828,-5.92773 1.8684,-3.172 3.362687,-8.79855 3.804687,-14.31055 0.0904,-1.132 0.09561,-1.98559 0.132813,-2.93359 0.04092,0.49497 0.06702,0.99817 0.08008,1.51562 0.0047,-0.87571 -0.01371,-1.71278 -0.08008,-2.51562 z"
     id="path6" />
  <path
     id="path852"
     d="m 87.957031,55.000302 c -6.941101,5.97e-4 -11.425388,0.0062 -14.382812,0.05078 -5.866846,0.07586 -8.23857,0.399761 -8.742188,4.865235 -0.446416,4.247163 -0.467878,13.88149 -0.664062,37.095703 -0.177941,21.05597 -0.220982,38.84898 -0.0957,39.53906 0.125246,0.69008 0.610483,1.74193 1.078125,2.33789 1.733196,2.20883 1.521468,2.19001 24.171875,2.06641 l 14.201171,-0.0762 c 8.26788,0.45326 16.02195,-2.65525 20.8125,-7.36914 5.02876,-4.99953 6.98481,-10.44128 6.62109,-18.42383 -0.37633,-8.25935 -2.75706,-12.47661 -9.87109,-17.476564 l -0.89258,-0.626953 2.42578,-2.46875 c 4.43418,-4.514643 6.35502,-10.134999 5.9375,-17.371094 -0.27167,-4.708388 -1.27211,-8.246468 -3.27344,-11.583984 -1.81088,-3.019892 -2.59767,-3.866413 -5.55078,-5.966797 -5.6964,-4.129869 -12.32306,-4.40311 -17.89062,-4.5 -3.61791,-0.06078 -8.320089,-0.09222 -13.884766,-0.0918 z m -0.339843,15.001953 c 1.496269,0.0057 3.348632,0.02632 5.642578,0.06055 12.299784,0.183504 13.184934,0.327447 15.791014,2.556641 2.04887,1.752537 2.94313,4.035496 2.94922,7.535156 0.008,4.780809 -2.10055,8.087486 -5.87305,9.207031 -2.67954,0.795185 -25.031814,0.873417 -25.06445,0.08789 -0.210537,-5.068683 0.155555,-18.572298 0.515625,-19.00586 0.279069,-0.336021 1.550251,-0.458594 6.039063,-0.441406 z m 12.628902,35.003905 c 6.04657,0.0498 7.23344,0.42565 9.26953,1.67187 3.07511,1.88225 4.50346,4.62845 4.48438,8.62305 -0.0226,4.72261 -1.65738,7.6072 -5.48828,9.6836 -1.50354,0.81491 -2.15683,0.85846 -14.41797,0.97656 -10.323449,0.0995 -12.880432,0.0225 -13.029297,-0.39649 -0.101869,-0.28671 -0.08091,-4.99437 0.04687,-10.46093 l 0.232422,-9.93946 11.025391,-0.11914 c 3.307082,-0.0358 5.861435,-0.0557 7.876944,-0.0391 z"
     style="opacity:0.2;fill:#000000;stroke-width:0.39800596;filter:url(#filter871)"
     inkscape:connector-curvature="0" />
  <path
     inkscape:connector-curvature="0"
     style="fill:#ffffff;stroke-width:0.39800596"
     d="m 87.957031,53 c -6.941101,5.97e-4 -11.425388,0.0062 -14.382812,0.05078 -5.866846,0.07586 -8.23857,0.399761 -8.742188,4.865235 -0.446416,4.247163 -0.467878,13.88149 -0.664062,37.095703 -0.177941,21.055972 -0.220982,38.848982 -0.0957,39.539062 0.125246,0.69008 0.610483,1.74193 1.078125,2.33789 1.733196,2.20883 1.521468,2.19001 24.171875,2.06641 l 14.201171,-0.0762 c 8.26788,0.45326 16.02195,-2.65525 20.8125,-7.36914 5.02876,-4.99953 6.98481,-10.44128 6.62109,-18.42383 -0.37633,-8.25935 -2.75706,-12.47661 -9.87109,-17.476566 l -0.89258,-0.626953 2.42578,-2.46875 c 4.43418,-4.514643 6.35502,-10.134999 5.9375,-17.371094 -0.27167,-4.708388 -1.27211,-8.246468 -3.27344,-11.583984 -1.81088,-3.019892 -2.59767,-3.866413 -5.55078,-5.966797 -5.6964,-4.129869 -12.32306,-4.40311 -17.89062,-4.5 C 98.223887,53.031017 93.521708,52.99958 87.957031,53 Z m -0.339843,15.001953 c 1.496269,0.0057 3.348632,0.02632 5.642578,0.06055 12.299784,0.183504 13.184934,0.327447 15.791014,2.556641 2.04887,1.752537 2.94313,4.035496 2.94922,7.535156 0.008,4.780809 -2.10055,8.087486 -5.87305,9.207031 -2.67954,0.795185 -25.031814,0.873417 -25.06445,0.08789 -0.210537,-5.068683 0.155555,-18.572298 0.515625,-19.00586 0.279069,-0.336021 1.550251,-0.458594 6.039063,-0.441406 z m 12.628902,35.003907 c 6.04657,0.0498 7.23344,0.42565 9.26953,1.67187 3.07511,1.88225 4.50346,4.62845 4.48438,8.62305 -0.0226,4.72261 -1.65738,7.6072 -5.48828,9.6836 -1.50354,0.81491 -2.15683,0.85846 -14.41797,0.97656 -10.323449,0.0995 -12.880432,0.0225 -13.029297,-0.39649 -0.101869,-0.28671 -0.08091,-4.99437 0.04687,-10.46093 l 0.232422,-9.93946 11.025391,-0.11914 c 3.307082,-0.0358 5.861435,-0.0557 7.876944,-0.0391 z"
     id="path837" />
</svg>
