<?xml version="1.0" encoding="UTF-8" standalone="no"?>
<svg
   width="192"
   height="192"
   version="1"
   id="svg28"
   sodipodi:docname="apps_xda_developers.svg"
   inkscape:version="1.1.1 (1:1.1+202109281949+c3084ef5ed)"
   xmlns:inkscape="http://www.inkscape.org/namespaces/inkscape"
   xmlns:sodipodi="http://sodipodi.sourceforge.net/DTD/sodipodi-0.dtd"
   xmlns="http://www.w3.org/2000/svg"
   xmlns:svg="http://www.w3.org/2000/svg"
   xmlns:rdf="http://www.w3.org/1999/02/22-rdf-syntax-ns#"
   xmlns:cc="http://creativecommons.org/ns#"
   xmlns:dc="http://purl.org/dc/elements/1.1/">
  <metadata
     id="metadata34">
    <rdf:RDF>
      <cc:Work
         rdf:about="">
        <dc:format>image/svg+xml</dc:format>
        <dc:type
           rdf:resource="http://purl.org/dc/dcmitype/StillImage" />
      </cc:Work>
    </rdf:RDF>
  </metadata>
  <defs
     id="defs32">
    <filter
       inkscape:collect="always"
       style="color-interpolation-filters:sRGB"
       id="filter6495"
       x="-0.048000001"
       y="-0.048000001"
       width="1.096"
       height="1.096">
      <feGaussianBlur
         inkscape:collect="always"
         stdDeviation="3.2"
         id="feGaussianBlur6497" />
    </filter>
    <filter
       inkscape:collect="always"
       style="color-interpolation-filters:sRGB"
       id="filter17792"
       x="-0.1212353"
       y="-0.097370082"
       width="1.2424706"
       height="1.1947402">
      <feGaussianBlur
         inkscape:collect="always"
         stdDeviation="5.1525"
         id="feGaussianBlur17794" />
    </filter>
  </defs>
  <sodipodi:namedview
     pagecolor="#ffffff"
     bordercolor="#666666"
     borderopacity="1"
     objecttolerance="10"
     gridtolerance="10"
     guidetolerance="10"
     inkscape:pageopacity="0"
     inkscape:pageshadow="2"
     inkscape:window-width="1920"
     inkscape:window-height="1022"
     id="namedview30"
     showgrid="false"
     inkscape:zoom="1"
     inkscape:cx="98"
     inkscape:cy="66"
     inkscape:window-x="0"
     inkscape:window-y="34"
     inkscape:window-maximized="1"
     inkscape:current-layer="svg28"
     inkscape:pagecheckerboard="0"
     inkscape:snap-global="true"
     showguides="false">
    <inkscape:grid
       type="xygrid"
       id="grid841" />
  </sodipodi:namedview>
  <rect
     id="rect6457"
     transform="matrix(0,-1,-1,0,0,0)"
     ry="12"
     rx="12"
     y="-176"
     x="-180"
     height="160"
     width="160"
     style="opacity:0.2;fill:#000000;fill-opacity:1;stroke-width:4;filter:url(#filter6495)" />
  <rect
     id="rect2"
     transform="matrix(0,-1,-1,0,0,0)"
     ry="12"
     rx="12"
     y="-176"
     x="-176"
     height="160"
     width="160"
     style="fill:#3f3f3f;fill-opacity:1;stroke-width:4" />
  <path
     id="rect6416"
     style="opacity:0.1;fill:#ffffff;fill-opacity:1;stroke-width:4"
     d="m 28,16 c -6.648,0 -12,5.352 -12,12 v 1 c 0,-6.648 5.352,-12 12,-12 h 136 c 6.648,0 12,5.352 12,12 v -1 c 0,-6.648 -5.352,-12 -12,-12 z" />
  <path
     id="path17751"
     style="opacity:0.2;fill:#000000;fill-opacity:1;stroke-width:9.87585;stroke-linecap:round;stroke-linejoin:round;filter:url(#filter17792)"
     d="m 45,51 v 18 58 18 H 71.470703 L 87,178 V 145 127 H 63 V 69 H 87 V 51 H 63 Z m 60,0 v 18 h 24 v 58 h -24 v 18 h 24 18 V 127 51 Z" />
  <path
     id="rect1055"
     style="opacity:1;fill:#ec7000;stroke-width:9.87585;stroke-linecap:round;stroke-linejoin:round;fill-opacity:1"
     d="M 45 49 L 45 67 L 45 125 L 45 143 L 71.470703 143 L 87 176 L 87 143 L 87 125 L 63 125 L 63 67 L 87 67 L 87 49 L 63 49 L 45 49 z " />
  <path
     id="rect1146"
     style="opacity:1;fill:#845326;stroke-width:9.87585;stroke-linecap:round;stroke-linejoin:round;fill-opacity:1"
     d="M 105 49 L 105 67 L 129 67 L 129 125 L 105 125 L 105 143 L 129 143 L 147 143 L 147 125 L 147 49 L 105 49 z " />
  <path
     id="path17796"
     style="opacity:0.2;fill:#ffffff;stroke-width:9.87585;stroke-linecap:round;stroke-linejoin:round;fill-opacity:1"
     d="M 45 49 L 45 50 L 63 50 L 87 50 L 87 49 L 63 49 L 45 49 z M 63 125 L 63 126 L 87 126 L 87 125 L 63 125 z " />
  <path
     id="path17798"
     style="opacity:0.1;fill:#ffffff;stroke-width:9.87585;stroke-linecap:round;stroke-linejoin:round;fill-opacity:1"
     d="M 105 49 L 105 50 L 147 50 L 147 49 L 105 49 z M 105 125 L 105 126 L 129 126 L 129 125 L 105 125 z " />
</svg>
