<?xml version="1.0" encoding="UTF-8" standalone="no"?>
<svg
   width="192"
   height="192"
   version="1"
   id="svg14"
   sodipodi:docname="apps_seriesguide.svg"
   inkscape:version="1.1.1 (1:1.1+202109281949+c3084ef5ed)"
   xmlns:inkscape="http://www.inkscape.org/namespaces/inkscape"
   xmlns:sodipodi="http://sodipodi.sourceforge.net/DTD/sodipodi-0.dtd"
   xmlns="http://www.w3.org/2000/svg"
   xmlns:svg="http://www.w3.org/2000/svg"
   xmlns:rdf="http://www.w3.org/1999/02/22-rdf-syntax-ns#"
   xmlns:cc="http://creativecommons.org/ns#"
   xmlns:dc="http://purl.org/dc/elements/1.1/">
  <metadata
     id="metadata20">
    <rdf:RDF>
      <cc:Work
         rdf:about="">
        <dc:format>image/svg+xml</dc:format>
        <dc:type
           rdf:resource="http://purl.org/dc/dcmitype/StillImage" />
      </cc:Work>
    </rdf:RDF>
  </metadata>
  <defs
     id="defs18">
    <filter
       inkscape:collect="always"
       style="color-interpolation-filters:sRGB"
       id="filter850"
       x="-0.048000001"
       width="1.096"
       y="-0.048000001"
       height="1.096">
      <feGaussianBlur
         inkscape:collect="always"
         stdDeviation="3.2"
         id="feGaussianBlur852" />
    </filter>
    <filter
       inkscape:collect="always"
       style="color-interpolation-filters:sRGB"
       id="filter5655"
       x="-0.092300109"
       y="-0.12602531"
       width="1.1846002"
       height="1.2520506">
      <feGaussianBlur
         inkscape:collect="always"
         stdDeviation="2.7305186"
         id="feGaussianBlur5657" />
    </filter>
  </defs>
  <sodipodi:namedview
     pagecolor="#ffffff"
     bordercolor="#666666"
     borderopacity="1"
     objecttolerance="10"
     gridtolerance="10"
     guidetolerance="10"
     inkscape:pageopacity="0"
     inkscape:pageshadow="2"
     inkscape:window-width="1920"
     inkscape:window-height="1022"
     id="namedview16"
     showgrid="false"
     inkscape:zoom="1.15"
     inkscape:cx="101.73913"
     inkscape:cy="86.956522"
     inkscape:window-x="0"
     inkscape:window-y="34"
     inkscape:window-maximized="1"
     inkscape:current-layer="svg14"
     inkscape:pagecheckerboard="0">
    <inkscape:grid
       type="xygrid"
       id="grid5193" />
  </sodipodi:namedview>
  <circle
     style="opacity:0.2;fill:#000000;stroke-width:4;filter:url(#filter850)"
     cx="96"
     cy="100"
     r="80"
     id="circle832" />
  <circle
     id="circle4"
     r="80"
     cy="96"
     cx="96"
     style="fill:#6a48a9;stroke-width:4;fill-opacity:1" />
  <path
     style="opacity:0.1;fill:#ffffff;stroke-width:4"
     d="M 96 16 A 80 80 0 0 0 16 96 A 80 80 0 0 0 16.019531 96.472656 A 80 80 0 0 1 96 17 A 80 80 0 0 1 175.97461 96.513672 A 80 80 0 0 0 176 96 A 80 80 0 0 0 96 16 z "
     id="path6" />
  <path
     style="color:#000000;opacity:0.2;fill:#000000;stroke-linecap:round;stroke-linejoin:round;-inkscape-stroke:none;filter:url(#filter5655)"
     d="m 125,72.000568 a 6,6 0 0 0 -4.24219,1.757812 L 84.886719,109.62752 70.126953,95.645099 a 6,6 0 0 0 -8.482422,0.228516 6,6 0 0 0 0.228516,8.482425 l 19,18 a 6.0006,6.0006 0 0 0 8.36914,-0.11328 L 129.24219,82.242755 a 6,6 0 0 0 0,-8.484375 A 6,6 0 0 0 125,72.000568 Z"
     id="path5617" />
  <path
     style="color:#000000;fill:#ffffff;stroke-linecap:round;stroke-linejoin:round;-inkscape-stroke:none;opacity:1"
     d="m 125,70 a 6,6 0 0 0 -4.24219,1.757812 L 84.886719,107.62695 70.126953,93.644531 a 6,6 0 0 0 -8.482422,0.228516 6,6 0 0 0 0.228516,8.482423 l 19,18 a 6.0006,6.0006 0 0 0 8.36914,-0.11328 L 129.24219,80.242187 a 6,6 0 0 0 0,-8.484375 A 6,6 0 0 0 125,70 Z"
     id="path989" />
</svg>
