<?xml version="1.0" encoding="UTF-8" standalone="no"?>
<svg
   width="192"
   height="192"
   version="1.1"
   id="svg14"
   sodipodi:docname="apps_verizon_call_filter.svg"
   inkscape:version="1.1.1 (1:1.1+202109281949+c3084ef5ed)"
   xmlns:inkscape="http://www.inkscape.org/namespaces/inkscape"
   xmlns:sodipodi="http://sodipodi.sourceforge.net/DTD/sodipodi-0.dtd"
   xmlns="http://www.w3.org/2000/svg"
   xmlns:svg="http://www.w3.org/2000/svg">
  <defs
     id="defs18">
    <filter
       inkscape:collect="always"
       style="color-interpolation-filters:sRGB"
       id="filter2893"
       x="-0.030915338"
       y="-0.10729313"
       width="1.0618307"
       height="1.2145863">
      <feGaussianBlur
         inkscape:collect="always"
         stdDeviation="1.5200053"
         id="feGaussianBlur2895" />
    </filter>
    <filter
       inkscape:collect="always"
       style="color-interpolation-filters:sRGB"
       id="filter3209"
       x="-0.032100002"
       y="-0.095111116"
       width="1.0642"
       height="1.1902222">
      <feGaussianBlur
         inkscape:collect="always"
         stdDeviation="2.14"
         id="feGaussianBlur3211" />
    </filter>
    <filter
       inkscape:collect="always"
       style="color-interpolation-filters:sRGB"
       id="filter3213"
       x="-0.039900001"
       y="-0.060226417"
       width="1.0798"
       height="1.1204528">
      <feGaussianBlur
         inkscape:collect="always"
         stdDeviation="2.66"
         id="feGaussianBlur3215" />
    </filter>
    <filter
       inkscape:collect="always"
       style="color-interpolation-filters:sRGB"
       id="filter4691"
       x="-0.047706788"
       y="-0.047706949"
       width="1.0954136"
       height="1.0954139">
      <feGaussianBlur
         inkscape:collect="always"
         stdDeviation="1.3517071"
         id="feGaussianBlur4693" />
    </filter>
  </defs>
  <sodipodi:namedview
     id="namedview16"
     pagecolor="#ffffff"
     bordercolor="#666666"
     borderopacity="1.0"
     inkscape:pageshadow="2"
     inkscape:pageopacity="0.0"
     inkscape:pagecheckerboard="0"
     showgrid="false"
     inkscape:zoom="3.52"
     inkscape:cx="82.244318"
     inkscape:cy="95.3125"
     inkscape:window-width="1920"
     inkscape:window-height="1019"
     inkscape:window-x="0"
     inkscape:window-y="34"
     inkscape:window-maximized="1"
     inkscape:current-layer="svg14"
     inkscape:snap-bbox="true"
     inkscape:snap-bbox-midpoints="true">
    <inkscape:grid
       type="xygrid"
       id="grid2601" />
  </sodipodi:namedview>
  <path
     id="path3166"
     style="opacity:0.2;fill:#000000;fill-opacity:1;stroke-width:12.1472;stroke-linecap:round;stroke-linejoin:round;filter:url(#filter3209)"
     d="m 16,126 v 22 c 0,17.728 14.272,32 32,32 h 48 48 c 17.728,0 32,-14.272 32,-32 V 126 H 96 Z" />
  <path
     id="rect949"
     style="opacity:1;fill:#01ac56;stroke-width:12.1472;stroke-linecap:round;stroke-linejoin:round;fill-opacity:1"
     d="m 16,122 v 22 c 0,17.728 14.272,32 32,32 h 48 v -54 z"
     sodipodi:nodetypes="cssccc" />
  <path
     id="path1387"
     style="opacity:1;fill:#e23c2f;stroke-width:12.1472;stroke-linecap:round;stroke-linejoin:round;fill-opacity:1"
     d="m 176,122 v 22 c 0,17.728 -14.272,32 -32,32 H 96 v -54 z"
     sodipodi:nodetypes="cssccc" />
  <path
     id="path2855"
     style="color:#000000;opacity:0.2;fill:#000000;fill-opacity:1;stroke-width:0.212502;-inkscape-stroke:none;filter:url(#filter2893)"
     d="m 44.802734,134.00019 c -0.611451,0.0132 -1.250539,0.23878 -2.367187,0.92773 l -1.613281,1.125 c -2.413147,1.67914 -2.047091,4.62013 -1.080078,8.72071 0.817264,2.79536 1.912133,5.24761 3.162109,7.50195 0.0106,-0.009 0.02067,-0.0185 0.03125,-0.0273 2.682012,5.04566 6.651278,8.97311 11.816406,11.81836 -0.0086,0.0102 -0.01882,0.0191 -0.02734,0.0293 2.254341,1.24997 4.706583,2.34485 7.501953,3.16211 4.100572,0.96701 7.04157,1.33307 8.720704,-1.08008 l 1.123046,-1.61328 c 1.837193,-2.97772 0.382813,-3.77539 0.382813,-3.77539 l -4.248047,-2.875 c -1.117278,-0.6453 -2.03762,-0.94045 -2.873047,-0.97265 -1.074118,-0.0414 -2.007856,0.35053 -3.041015,0.99023 -0.819628,0.51721 -1.62123,1.04862 -2.400391,1.5957 -6.231338,-2.7438 -10.018057,-6.5497 -12.369141,-12.48437 0.530275,-0.75808 1.044616,-1.53806 1.546875,-2.33399 1.137229,-1.83673 1.4945,-3.36027 0.01953,-5.91406 l -2.876953,-4.24804 c 0,0 -0.389119,-0.56893 -1.408204,-0.54688 z m 91.281246,9 c -2.74138,0.003 -5.50914,0.41289 -8.29492,1.22266 -0.001,-0.0123 -8.5e-4,-0.0249 -0.002,-0.0371 -2.43453,0.70032 -4.89647,1.64611 -7.40625,3.02539 -3.52055,2.18495 -5.82048,3.98054 -5.31055,6.83398 l 0.3418,1.9082 c 0.79236,3.35732 2.49609,3.03907 2.49609,3.03907 l 4.94922,-0.95703 c 1.2245,-0.3291 2.06912,-0.76611 2.67188,-1.32618 0.77498,-0.72009 1.15047,-1.6441 1.42382,-2.81054 0.22216,-0.98565 0.40586,-1.98145 0.55469,-2.97656 6.12744,-2.36052 11.33239,-2.34967 16.99414,0.0723 0.14717,0.97109 0.32814,1.94246 0.54493,2.9043 0.48595,2.07366 1.29684,3.38449 4.0957,4.13672 l 4.94922,0.95703 c 0,0 0.66476,0.1244 1.35742,-0.60157 0.41559,-0.43557 0.84154,-1.17849 1.13867,-2.4375 l 0.3418,-1.9082 c 0.50994,-2.85344 -1.78999,-4.64903 -5.31055,-6.83398 -2.50977,-1.37928 -4.97173,-2.32507 -7.40625,-3.02539 -0.001,0.0135 -7.6e-4,0.0275 -0.002,0.041 -2.68167,-0.82343 -5.39148,-1.22919 -8.12696,-1.22656 z" />
  <path
     id="path4480"
     style="color:#000000;opacity:1;fill:#ffffff;fill-opacity:1;stroke-width:0.212502;-inkscape-stroke:none"
     d="M 44.802734 132 C 44.191283 132.0132 43.552195 132.23878 42.435547 132.92773 L 40.822266 134.05273 C 38.409119 135.73187 38.775175 138.67286 39.742188 142.77344 C 40.559452 145.5688 41.654321 148.02105 42.904297 150.27539 C 42.914895 150.26655 42.924967 150.25691 42.935547 150.24805 C 45.617559 155.29371 49.586825 159.22116 54.751953 162.06641 C 54.743402 162.07661 54.733137 162.08548 54.724609 162.0957 C 56.97895 163.34567 59.431192 164.44055 62.226562 165.25781 C 66.327134 166.22482 69.268132 166.59088 70.947266 164.17773 L 72.070312 162.56445 C 73.907505 159.58673 72.453125 158.78906 72.453125 158.78906 L 68.205078 155.91406 C 67.0878 155.26876 66.167458 154.97361 65.332031 154.94141 C 64.257913 154.90001 63.324175 155.29194 62.291016 155.93164 C 61.471388 156.44885 60.669786 156.98026 59.890625 157.52734 C 53.659287 154.78354 49.872568 150.97764 47.521484 145.04297 C 48.051759 144.28489 48.5661 143.50491 49.068359 142.70898 C 50.205588 140.87225 50.562859 139.34871 49.087891 136.79492 L 46.210938 132.54688 C 46.210938 132.54688 45.821819 131.97795 44.802734 132 z M 136.08398 141 C 133.3426 141.00264 130.57484 141.41289 127.78906 142.22266 C 127.78798 142.2104 127.78821 142.19779 127.78711 142.18555 C 125.35258 142.88587 122.89064 143.83166 120.38086 145.21094 C 116.86031 147.39589 114.56038 149.19148 115.07031 152.04492 L 115.41211 153.95312 C 116.20447 157.31044 117.9082 156.99219 117.9082 156.99219 L 122.85742 156.03516 C 124.08192 155.70606 124.92654 155.26905 125.5293 154.70898 C 126.30428 153.98889 126.67977 153.06488 126.95312 151.89844 C 127.17528 150.91279 127.35898 149.91699 127.50781 148.92188 C 133.63525 146.56136 138.8402 146.57221 144.50195 148.99414 C 144.64912 149.96523 144.83009 150.9366 145.04688 151.89844 C 145.53283 153.9721 146.34372 155.28293 149.14258 156.03516 L 154.0918 156.99219 C 154.0918 156.99219 154.75656 157.11659 155.44922 156.39062 C 155.86481 155.95505 156.29076 155.21213 156.58789 153.95312 L 156.92969 152.04492 C 157.43963 149.19148 155.1397 147.39589 151.61914 145.21094 C 149.10937 143.83166 146.64741 142.88587 144.21289 142.18555 C 144.21167 142.19908 144.21213 142.21302 144.21094 142.22656 C 141.52927 141.40313 138.81946 140.99737 136.08398 141 z " />
  <path
     id="path3171"
     style="opacity:0.2;fill:#000000;fill-opacity:1;stroke-width:4;filter:url(#filter3213)"
     d="M 48,20 C 30.272,20 16,34.272 16,52 v 74 H 176 V 52 C 176,34.272 161.728,20 144,20 Z" />
  <path
     id="rect4"
     style="fill:#3f3f3f;fill-opacity:1;stroke-width:4"
     d="M 48 16 C 30.272 16 16 30.272 16 48 L 16 122 L 176 122 L 176 48 C 176 30.272 161.728 16 144 16 L 48 16 z " />
  <path
     id="path12"
     style="opacity:0.1;fill:#ffffff;stroke-width:4"
     d="M 48,16 C 30.272,16 16,30.272 16,48 v 1 C 16,31.272 30.272,17 48,17 h 96 c 17.728,0 32,14.272 32,32 V 48 C 176,30.272 161.728,16 144,16 Z" />
  <path
     style="color:#000000;opacity:0.2;fill:#000000;stroke-linecap:round;stroke-linejoin:round;-inkscape-stroke:none;filter:url(#filter4691)"
     d="m 128.93359,36.144415 a 4,4 0 0 0 -2.41406,1.882813 L 94.789062,94.021368 72.439453,76.829962 a 4,4 0 0 0 -5.609375,0.730469 4,4 0 0 0 0.730469,5.609375 l 26,19.999994 a 4.0004,4.0004 0 0 0 5.919922,-1.19726 l 34.000001,-60 a 4,4 0 0 0 -1.50781,-5.453125 4,4 0 0 0 -3.03907,-0.375 z"
     id="path4649" />
  <path
     style="fill:none;stroke:#ed3e31;stroke-width:8;stroke-linecap:round;stroke-linejoin:round;stroke-miterlimit:4;stroke-dasharray:none;stroke-opacity:1"
     d="M 70,78 96,98 130,38"
     id="path3250"
     sodipodi:nodetypes="ccc" />
  <path
     id="path4695"
     style="color:#000000;fill:#ffffff;stroke-linecap:round;stroke-linejoin:round;-inkscape-stroke:none;opacity:0.2"
     d="M 130.49023 34.029297 A 4 4 0 0 0 128.93359 34.144531 A 4 4 0 0 0 126.51953 36.027344 L 94.789062 92.021484 L 72.439453 74.830078 A 4 4 0 0 0 66.830078 75.560547 A 4 4 0 0 0 66.089844 78.681641 A 4 4 0 0 1 66.830078 76.560547 A 4 4 0 0 1 72.439453 75.830078 L 94.789062 93.021484 L 126.51953 37.027344 A 4 4 0 0 1 128.93359 35.144531 A 4 4 0 0 1 131.97266 35.519531 A 4 4 0 0 1 133.96094 38.509766 A 4 4 0 0 0 131.97266 34.519531 A 4 4 0 0 0 130.49023 34.029297 z " />
</svg>
