<?xml version="1.0" encoding="UTF-8" standalone="no"?>
<svg
   width="192"
   height="192"
   version="1"
   id="svg14"
   sodipodi:docname="apps_kinotrend.svg"
   inkscape:version="1.1-rc (1:1.1+rc+202105232036+f4db50c7c1)"
   xmlns:inkscape="http://www.inkscape.org/namespaces/inkscape"
   xmlns:sodipodi="http://sodipodi.sourceforge.net/DTD/sodipodi-0.dtd"
   xmlns="http://www.w3.org/2000/svg"
   xmlns:svg="http://www.w3.org/2000/svg"
   xmlns:rdf="http://www.w3.org/1999/02/22-rdf-syntax-ns#"
   xmlns:cc="http://creativecommons.org/ns#"
   xmlns:dc="http://purl.org/dc/elements/1.1/">
  <metadata
     id="metadata20">
    <rdf:RDF>
      <cc:Work
         rdf:about="">
        <dc:format>image/svg+xml</dc:format>
        <dc:type
           rdf:resource="http://purl.org/dc/dcmitype/StillImage" />
      </cc:Work>
    </rdf:RDF>
  </metadata>
  <defs
     id="defs18">
    <filter
       inkscape:collect="always"
       style="color-interpolation-filters:sRGB"
       id="filter852"
       x="-0.048000001"
       width="1.096"
       y="-0.048000001"
       height="1.096">
      <feGaussianBlur
         inkscape:collect="always"
         stdDeviation="3.2"
         id="feGaussianBlur854" />
    </filter>
    <filter
       inkscape:collect="always"
       style="color-interpolation-filters:sRGB"
       id="filter18759"
       x="-0.041825338"
       y="-0.056313547"
       width="1.0836507"
       height="1.1126271">
      <feGaussianBlur
         inkscape:collect="always"
         stdDeviation="2.3759571"
         id="feGaussianBlur18761" />
    </filter>
  </defs>
  <sodipodi:namedview
     pagecolor="#ffffff"
     bordercolor="#666666"
     borderopacity="1"
     objecttolerance="10"
     gridtolerance="10"
     guidetolerance="10"
     inkscape:pageopacity="0"
     inkscape:pageshadow="2"
     inkscape:window-width="1920"
     inkscape:window-height="1019"
     id="namedview16"
     showgrid="false"
     inkscape:zoom="1"
     inkscape:cx="122.5"
     inkscape:cy="95.5"
     inkscape:window-x="0"
     inkscape:window-y="34"
     inkscape:window-maximized="1"
     inkscape:current-layer="svg14"
     inkscape:pagecheckerboard="0">
    <inkscape:grid
       type="xygrid"
       id="grid862" />
  </sodipodi:namedview>
  <rect
     style="opacity:0.2;fill:#000000;stroke-width:4.0002;filter:url(#filter852)"
     width="160"
     height="160"
     x="-180"
     y="-176"
     rx="80"
     ry="80"
     transform="matrix(0,-1,-1,0,0,0)"
     id="rect834" />
  <rect
     id="rect2"
     transform="matrix(0,-1,-1,0,0,0)"
     ry="80"
     rx="80"
     y="-176"
     x="-176"
     height="160"
     width="160"
     style="fill:#fb6310;fill-opacity:1;stroke-width:4.0002" />
  <path
     style="opacity:0.2;fill:#ffffff;stroke-width:4.0002"
     d="m 96,16 c -44.32,0 -80,35.68 -80,80 0,0.167244 0.0048,0.333003 0.0059,0.5 C 16.273741,52.412589 51.847244,17 96,17 140.15276,17 175.72626,52.412589 175.99414,96.5 175.99516,96.333003 176,96.167244 176,96 176,51.68 140.32,16 96,16 Z"
     id="rect856" />
  <path
     id="path18721"
     style="font-size:54.7069px;line-height:1.25;opacity:0.2;fill:#000000;stroke-width:1.43497;filter:url(#filter18759)"
     d="M 34.140625,47.162229 C 32.299683,49.402529 30.591736,51.755751 29,54.191526 V 96.00012 h 5.140625 V 81.466917 L 37.746094,77.556761 48.736328,96.00012 H 55 L 41.291016,73.351682 54.113281,56.00012 H 48.027344 L 37.921875,69.810667 c -0.354546,0.491834 -0.786707,1.131035 -1.298828,1.917969 l -1.417969,2.21289 c -0.472727,0.73775 -0.82809,1.303798 -1.064453,1.697266 h -0.236328 c 0.03939,-0.934484 0.07975,-2.041545 0.119141,-3.320313 0.07879,-1.278766 0.117187,-2.312674 0.117187,-3.099609 z m 31.392578,9.837891 c -0.996765,0 -1.83406,0.291666 -2.513672,0.875 C 62.33992,58.416787 62,59.291787 62,60.50012 c 0,1.166666 0.33992,2.041666 1.019531,2.625 0.679612,0.583334 1.516909,0.875 2.513672,0.875 0.906149,0 1.699295,-0.291666 2.378906,-0.875 C 68.637029,62.541786 69,61.666786 69,60.50012 c 0,-1.208333 -0.362971,-2.083333 -1.087891,-2.625 -0.679611,-0.583334 -1.472757,-0.875 -2.378906,-0.875 z M 63,68.00012 v 28 h 5 v -28 z m 27.269531,0 c -1.88053,0 -3.669069,0.358223 -5.365234,1.076172 -1.696166,0.683761 -3.023721,1.74379 -3.982422,3.179687 h -0.275391 l -0.71875,-3.742187 H 76 V 96.00012 h 4.867188 V 81.744261 c -10e-7,-3.213676 0.627172,-5.675364 1.880859,-7.384766 1.253687,-1.709401 3.521024,-2.564453 6.802734,-2.564453 4.42478,0 6.636719,2.204978 6.636719,6.615234 V 96.00012 H 101 V 78.103636 c 0,-3.555556 -0.90415,-6.12071 -2.710938,-7.69336 -1.806777,-1.606838 -4.479707,-2.410156 -8.019531,-2.410156 z m 30.285159,0 c -4.1734,0 -7.47676,1.207734 -9.90821,3.625 C 108.21503,74.042387 107,77.484111 107,81.949339 c 0,2.988009 0.5809,5.539189 1.74219,7.654297 1.16129,2.081534 2.74036,3.677242 4.73633,4.785156 2.03225,1.074341 4.3355,1.611328 6.9121,1.611328 4.17342,0 7.47675,-1.224942 9.90821,-3.675781 2.46774,-2.45084 3.70117,-5.909772 3.70117,-10.375 0,-2.98801 -0.5809,-5.504773 -1.74219,-7.552735 -1.125,-2.081534 -2.70407,-3.660033 -4.73633,-4.734375 -1.99596,-1.107914 -4.3176,-1.662109 -6.96679,-1.662109 z m -0.10938,3.726562 c 2.97582,0 5.15418,0.9058 6.53321,2.71875 1.37903,1.812951 2.06834,4.314458 2.06836,7.503907 0,3.189448 -0.68933,5.725373 -2.06836,7.605469 -1.37903,1.846519 -3.539,2.769531 -6.47852,2.769531 -2.97581,0 -5.15417,-0.923008 -6.5332,-2.769531 -1.34274,-1.880096 -2.01367,-4.416021 -2.01368,-7.605469 0,-3.189449 0.67094,-5.690956 2.01368,-7.503907 1.34274,-1.81295 3.50271,-2.71875 6.47851,-2.71875 z M 42.951172,100.00012 c -2.297693,0 -4.175913,0.40068 -5.634766,1.20117 -1.458847,0.8005 -2.62664,1.76829 -3.501953,2.90235 h -0.21875 l -0.710937,-3.60352 H 29 v 41.30859 c 1.495075,2.28786 3.099005,4.49737 4.814453,6.61329 v -20.60547 c 0,-0.50032 -0.03643,-1.18358 -0.109375,-2.05079 -0.10942,-0.83383 -0.18228,-1.46678 -0.21875,-1.90039 h 0.328125 c 0.911787,1.10068 2.097794,2.03364 3.556641,2.80079 1.42238,0.76714 3.26417,1.15039 5.52539,1.15039 3.647127,0 6.581894,-1.18265 8.806641,-3.55079 2.188273,-2.3348 3.283203,-5.80339 3.283203,-10.40624 0,-4.60287 -1.09493,-8.07147 -3.283203,-10.40626 -2.188273,-2.30143 -5.104826,-3.45312 -8.751953,-3.45312 z m 19.048828,0 v 17.89648 c 0,3.55555 0.904151,6.12071 2.710938,7.69336 1.806786,1.60685 4.47971,2.41016 8.019531,2.41016 1.88053,0 3.669067,-0.35822 5.365234,-1.07617 1.69616,-0.68376 3.023719,-1.74379 3.982422,-3.17969 h 0.275391 l 0.71875,3.74219 H 87 v -27.48633 h -4.867188 v 14.25586 c 0,3.21367 -0.627175,5.67536 -1.880859,7.38476 -1.253691,1.70941 -3.521026,2.56446 -6.802734,2.56446 -4.42478,0 -6.636719,-2.20498 -6.636719,-6.61524 v -17.58984 z m 42.91797,0 c -2.00145,0 -3.73189,0.15097 -5.187501,0.45313 -1.455601,0.26858 -2.92793,0.70428 -4.419922,1.30859 v 3.8789 c 1.528378,-0.60432 3.019003,-1.07442 4.474609,-1.41015 1.419214,-0.30216 3.058174,-0.45313 4.914064,-0.45313 2.91121,0 5.18471,0.78926 6.82226,2.36719 1.60117,1.61151 2.43892,3.80031 2.51172,6.85547 H 94 v 2.8125 c 0,2.45084 0.492074,4.58354 1.474609,6.39648 0.946143,1.84653 2.328936,3.27211 4.148438,4.2793 1.783113,1.0072 3.928543,1.51172 6.439453,1.51172 2.5837,0 4.85915,-0.5714 6.82422,-1.71289 1.92867,-1.14149 3.43954,-2.76966 4.53125,-4.88477 1.05531,-2.1151 1.58203,-4.64907 1.58203,-7.60351 0,-2.98801 -0.58161,-5.52393 -1.74609,-7.60547 -1.20088,-2.04796 -2.85813,-3.59204 -4.96875,-4.63281 -2.14702,-1.04077 -4.60154,-1.56055 -7.36719,-1.56055 z m 28.30273,0 v 14.66602 c 0,1.84615 -0.38024,3.45278 -1.14062,4.82031 -0.79659,1.40171 -1.84687,2.48028 -3.15039,3.23242 -1.30352,0.78632 -2.69709,1.17773 -4.18164,1.17773 -0.50693,0 -1.03305,-0.0332 -1.57617,-0.10156 -0.57936,-0.0684 -1.10351,-0.15329 -1.57422,-0.25586 L 121,127.69153 c 0.47071,0.10256 1.03183,0.17087 1.68359,0.20507 0.61555,0.0684 1.19515,0.10352 1.73829,0.10352 2.02767,0 3.78301,-0.54661 5.26757,-1.64062 1.48456,-1.09404 2.69727,-2.39417 3.63867,-3.89844 h 0.21876 l 0.54296,5.02539 H 138 v -27.48633 z m 14.7793,0 v 38 h -25.92773 v 5 h 40.15039 c 1.10141,-1.6216 2.13103,-3.29544 3.11328,-5 H 153 v -38 z m -105.816406,3.65234 c 2.625933,0 4.595243,0.88458 5.908203,2.65235 1.2765,1.76777 1.916016,4.25112 1.916015,7.45312 10e-7,3.16864 -0.639515,5.68686 -1.916015,7.55469 -1.31296,1.90119 -3.264056,2.85352 -5.853516,2.85352 -3.245947,0 -5.470275,-0.90201 -6.673828,-2.70313 -1.203547,-1.76777 -1.804687,-4.31889 -1.804687,-7.6543 v -0.80078 c 0,-3.13528 0.637569,-5.48702 1.914062,-7.05469 1.24002,-1.53428 3.409706,-2.30078 6.509766,-2.30078 z m 56.83789,13.34766 h 14.902346 c -0.25474,2.41727 -1.03762,3.96567 -2.34766,5.30859 -1.34643,1.3765 -3.1664,2.06641 -5.45898,2.06641 -2.43814,0 -4.22152,-0.72237 -5.34961,-2.16602 -1.128107,-1.41007 -1.709706,-2.926 -1.746096,-5.20898 z" />
  <path
     id="path17424"
     style="font-size:54.7069px;line-height:1.25;fill:#ffffff;stroke-width:1.43497"
     d="M 34.140625,45.162109 C 32.299683,47.402409 30.591736,49.755631 29,52.191406 V 94 h 5.140625 V 79.466797 L 37.746094,75.556641 48.736328,94 H 55 L 41.291016,71.351562 54.113281,54 H 48.027344 L 37.921875,67.810547 c -0.354546,0.491834 -0.786707,1.131035 -1.298828,1.917969 l -1.417969,2.21289 c -0.472727,0.73775 -0.82809,1.303798 -1.064453,1.697266 h -0.236328 c 0.03939,-0.934484 0.07975,-2.041545 0.119141,-3.320313 0.07879,-1.278766 0.117187,-2.312674 0.117187,-3.099609 z M 65.533203,55 c -0.996765,0 -1.83406,0.291666 -2.513672,0.875 C 62.33992,56.416667 62,57.291667 62,58.5 c 0,1.166666 0.33992,2.041666 1.019531,2.625 0.679612,0.583334 1.516909,0.875 2.513672,0.875 0.906149,0 1.699295,-0.291666 2.378906,-0.875 C 68.637029,60.541666 69,59.666666 69,58.5 69,57.291667 68.637029,56.416667 67.912109,55.875 67.232498,55.291666 66.439352,55 65.533203,55 Z M 63,66 v 28 h 5 V 66 Z m 27.269531,0 c -1.88053,0 -3.669069,0.358223 -5.365234,1.076172 -1.696166,0.683761 -3.023721,1.74379 -3.982422,3.179687 h -0.275391 l -0.71875,-3.742187 H 76 V 94 h 4.867188 V 79.744141 c -10e-7,-3.213676 0.627172,-5.675364 1.880859,-7.384766 1.253687,-1.709401 3.521024,-2.564453 6.802734,-2.564453 4.42478,0 6.636719,2.204978 6.636719,6.615234 V 94 H 101 V 76.103516 c 0,-3.555556 -0.90415,-6.12071 -2.710938,-7.69336 C 96.482285,66.803318 93.809355,66 90.269531,66 Z m 30.285159,0 c -4.1734,0 -7.47676,1.207734 -9.90821,3.625 C 108.21503,72.042267 107,75.483991 107,79.949219 c 0,2.988009 0.5809,5.539189 1.74219,7.654297 1.16129,2.081534 2.74036,3.677242 4.73633,4.785156 2.03225,1.074341 4.3355,1.611328 6.9121,1.611328 4.17342,0 7.47675,-1.224942 9.90821,-3.675781 2.46774,-2.45084 3.70117,-5.909772 3.70117,-10.375 0,-2.98801 -0.5809,-5.504773 -1.74219,-7.552735 -1.125,-2.081534 -2.70407,-3.660033 -4.73633,-4.734375 C 125.52552,66.554195 123.20388,66 120.55469,66 Z m -0.10938,3.726562 c 2.97582,0 5.15418,0.9058 6.53321,2.71875 1.37903,1.812951 2.06834,4.314458 2.06836,7.503907 0,3.189448 -0.68933,5.725373 -2.06836,7.605469 -1.37903,1.846519 -3.539,2.769531 -6.47852,2.769531 -2.97581,0 -5.15417,-0.923008 -6.5332,-2.769531 -1.34274,-1.880096 -2.01367,-4.416021 -2.01368,-7.605469 0,-3.189449 0.67094,-5.690956 2.01368,-7.503907 1.34274,-1.81295 3.50271,-2.71875 6.47851,-2.71875 z M 42.951172,98 c -2.297693,0 -4.175913,0.40068 -5.634766,1.201172 -1.458847,0.800498 -2.62664,1.768288 -3.501953,2.902348 h -0.21875 L 32.884766,98.5 H 29 v 41.30859 c 1.495075,2.28786 3.099005,4.49737 4.814453,6.61329 v -20.60547 c 0,-0.50032 -0.03643,-1.18358 -0.109375,-2.05079 -0.10942,-0.83383 -0.18228,-1.46678 -0.21875,-1.90039 h 0.328125 c 0.911787,1.10068 2.097794,2.03364 3.556641,2.80079 1.42238,0.76714 3.26417,1.15039 5.52539,1.15039 3.647127,0 6.581894,-1.18265 8.806641,-3.55079 2.188273,-2.3348 3.283203,-5.80339 3.283203,-10.40624 0,-4.60287 -1.09493,-8.07147 -3.283203,-10.40626 C 49.514852,99.151688 46.598299,98 42.951172,98 Z M 62,98 v 17.89648 c 0,3.55555 0.904151,6.12071 2.710938,7.69336 1.806786,1.60685 4.47971,2.41016 8.019531,2.41016 1.88053,0 3.669067,-0.35822 5.365234,-1.07617 1.69616,-0.68376 3.023719,-1.74379 3.982422,-3.17969 h 0.275391 l 0.71875,3.74219 H 87 V 98 h -4.867188 v 14.25586 c 0,3.21367 -0.627175,5.67536 -1.880859,7.38476 -1.253691,1.70941 -3.521026,2.56446 -6.802734,2.56446 -4.42478,0 -6.636719,-2.20498 -6.636719,-6.61524 V 98 Z m 42.91797,0 c -2.00145,0 -3.73189,0.150968 -5.187501,0.453125 -1.455601,0.268588 -2.92793,0.70428 -4.419922,1.308594 v 3.878901 c 1.528378,-0.60432 3.019003,-1.07442 4.474609,-1.41015 1.419214,-0.30216 3.058174,-0.45313 4.914064,-0.45313 2.91121,0 5.18471,0.78926 6.82226,2.36719 1.60117,1.61151 2.43892,3.80031 2.51172,6.85547 H 94 v 2.8125 c 0,2.45084 0.492074,4.58354 1.474609,6.39648 0.946143,1.84653 2.328936,3.27211 4.148438,4.2793 1.783113,1.0072 3.928543,1.51172 6.439453,1.51172 2.5837,0 4.85915,-0.5714 6.82422,-1.71289 1.92867,-1.14149 3.43954,-2.76966 4.53125,-4.88477 1.05531,-2.1151 1.58203,-4.64907 1.58203,-7.60351 0,-2.98801 -0.58161,-5.52393 -1.74609,-7.60547 -1.20088,-2.04796 -2.85813,-3.59204 -4.96875,-4.632813 C 110.13814,98.519782 107.68362,98 104.91797,98 Z m 28.30273,0 v 14.66602 c 0,1.84615 -0.38024,3.45278 -1.14062,4.82031 -0.79659,1.40171 -1.84687,2.48028 -3.15039,3.23242 -1.30352,0.78632 -2.69709,1.17773 -4.18164,1.17773 -0.50693,0 -1.03305,-0.0332 -1.57617,-0.10156 -0.57936,-0.0684 -1.10351,-0.15329 -1.57422,-0.25586 L 121,125.69141 c 0.47071,0.10256 1.03183,0.17087 1.68359,0.20507 0.61555,0.0684 1.19515,0.10352 1.73829,0.10352 2.02767,0 3.78301,-0.54661 5.26757,-1.64062 1.48456,-1.09404 2.69727,-2.39417 3.63867,-3.89844 h 0.21876 l 0.54296,5.02539 H 138 V 98 Z M 148,98 v 38 h -25.92773 v 5 h 40.15039 c 1.10141,-1.6216 2.13103,-3.29544 3.11328,-5 H 153 V 98 Z m -105.816406,3.65234 c 2.625933,0 4.595243,0.88458 5.908203,2.65235 1.2765,1.76777 1.916016,4.25112 1.916015,7.45312 10e-7,3.16864 -0.639515,5.68686 -1.916015,7.55469 -1.31296,1.90119 -3.264056,2.85352 -5.853516,2.85352 -3.245947,0 -5.470275,-0.90201 -6.673828,-2.70313 -1.203547,-1.76777 -1.804687,-4.31889 -1.804687,-7.6543 v -0.80078 c 0,-3.13528 0.637569,-5.48702 1.914062,-7.05469 1.24002,-1.53428 3.409706,-2.30078 6.509766,-2.30078 z M 99.021484,115 h 14.902346 c -0.25474,2.41727 -1.03762,3.96567 -2.34766,5.30859 -1.34643,1.3765 -3.1664,2.06641 -5.45898,2.06641 -2.43814,0 -4.22152,-0.72237 -5.34961,-2.16602 -1.128107,-1.41007 -1.709706,-2.926 -1.746096,-5.20898 z" />
</svg>
