<?xml version="1.0" encoding="UTF-8" standalone="no"?>
<svg
   width="192"
   height="192"
   version="1"
   id="svg12"
   sodipodi:docname="apps_makemytrip.svg"
   inkscape:version="1.1.1 (1:1.1+202109281949+c3084ef5ed)"
   xmlns:inkscape="http://www.inkscape.org/namespaces/inkscape"
   xmlns:sodipodi="http://sodipodi.sourceforge.net/DTD/sodipodi-0.dtd"
   xmlns="http://www.w3.org/2000/svg"
   xmlns:svg="http://www.w3.org/2000/svg"
   xmlns:rdf="http://www.w3.org/1999/02/22-rdf-syntax-ns#"
   xmlns:cc="http://creativecommons.org/ns#"
   xmlns:dc="http://purl.org/dc/elements/1.1/">
  <metadata
     id="metadata18">
    <rdf:RDF>
      <cc:Work
         rdf:about="">
        <dc:format>image/svg+xml</dc:format>
        <dc:type
           rdf:resource="http://purl.org/dc/dcmitype/StillImage" />
      </cc:Work>
    </rdf:RDF>
  </metadata>
  <defs
     id="defs16">
    <filter
       inkscape:collect="always"
       style="color-interpolation-filters:sRGB"
       id="filter955"
       x="-0.048000001"
       width="1.096"
       y="-0.048000001"
       height="1.096">
      <feGaussianBlur
         inkscape:collect="always"
         stdDeviation="3.2"
         id="feGaussianBlur957" />
    </filter>
    <filter
       inkscape:collect="always"
       style="color-interpolation-filters:sRGB"
       id="filter3172"
       x="-0.066477555"
       y="-0.086028935"
       width="1.1329551"
       height="1.1720579">
      <feGaussianBlur
         inkscape:collect="always"
         stdDeviation="3.406926"
         id="feGaussianBlur3174" />
    </filter>
  </defs>
  <sodipodi:namedview
     pagecolor="#ffffff"
     bordercolor="#666666"
     borderopacity="1"
     objecttolerance="10"
     gridtolerance="10"
     guidetolerance="10"
     inkscape:pageopacity="0"
     inkscape:pageshadow="2"
     inkscape:window-width="1920"
     inkscape:window-height="1016"
     id="namedview14"
     showgrid="false"
     inkscape:zoom="1"
     inkscape:cx="60.5"
     inkscape:cy="83.5"
     inkscape:window-x="0"
     inkscape:window-y="32"
     inkscape:window-maximized="1"
     inkscape:current-layer="svg12"
     showguides="false"
     inkscape:document-rotation="0"
     inkscape:pagecheckerboard="0"
     inkscape:snap-bbox="true"
     inkscape:snap-bbox-midpoints="true"
     inkscape:snap-global="true">
    <inkscape:grid
       type="xygrid"
       id="grid852" />
  </sodipodi:namedview>
  <rect
     style="opacity:0.2;fill:#000000;fill-opacity:1;stroke-width:4;filter:url(#filter955)"
     width="160"
     height="160"
     x="16"
     y="20"
     rx="30"
     ry="30"
     id="rect953" />
  <rect
     style="fill:#f65032;fill-opacity:1;stroke-width:4"
     width="160"
     height="160"
     x="16"
     y="16"
     rx="30"
     ry="30"
     id="rect4" />
  <path
     id="rect959"
     style="fill:#ffffff;fill-opacity:1;stroke-width:4;opacity:0.2"
     d="M 46 16 C 29.38 16 16 29.38 16 46 L 16 47 C 16 30.38 29.38 17 46 17 L 146 17 C 162.62 17 176 30.38 176 47 L 176 46 C 176 29.38 162.62 16 146 16 L 46 16 z " />
  <path
     style="opacity:0.2;fill:#000000;stroke-width:0.292657;filter:url(#filter3172)"
     d="m 129.54045,160.28744 c 0.42832,-0.31617 0.95261,-1.11137 1.16509,-1.76711 0.34767,-1.07297 0.30737,-1.5384 -0.4028,-4.65211 -1.05007,-4.60405 -1.57066,-9.52719 -0.88066,-12.9624 1.42144,-7.0768 3.82748,-15.04254 6.97688,-23.09845 1.83545,-4.69494 12.98499,-27.126847 18.23856,-36.694386 4.26571,-7.768539 4.33747,-8.125337 4.36072,-9.756269 -0.0294,-2.110725 -1.37259,-2.787977 -3.11641,-3.307429 -1.55899,-0.254338 -3.32673,0.226081 -4.70377,1.408442 -0.81803,0.702379 -3.34889,5.20615 -10.3462,17.795349 -5.09478,9.166293 -9.78984,17.652973 -10.43345,18.492743 -2.88715,3.76706 -6.4805,4.41497 -8.05493,1.45236 -0.83741,-1.57578 -0.64784,-5.82511 0.46078,-9.899344 2.11389,-7.768579 4.50093,-13.522067 7.84966,-20.5499 2.47321,-5.190409 2.83855,-6.794854 1.92352,-8.447591 -0.72102,-1.302347 -2.66525,-2.34637 -4.3695,-2.34637 -3.20552,0 -4.41209,1.541463 -10.09739,12.900049 -4.64195,9.274084 -7.98461,14.537547 -14.29469,23.848266 -3.47845,5.13256 -5.318865,7.34819 -5.9284,7.13701 -0.283721,-0.0983 -0.368976,-0.8252 -0.328083,-2.79748 0.09388,-4.52935 1.46431,-13.873858 4.292813,-24.436119 1.30267,-4.864481 1.35098,-5.182267 1.02415,-6.737491 -0.5427,-2.582611 -2.17399,-3.873911 -4.893831,-3.873911 -1.912009,0 -3.18046,0.632856 -5.002853,2.496016 -2.354212,2.406857 -7.405362,10.008647 -13.462961,19.022949 -2.956357,4.399355 -5.498436,7.899456 -5.688694,7.832586 -0.203605,-0.0716 -0.307526,-0.5667 -0.254685,-1.2134 0.106091,-1.298391 2.566449,-9.636656 5.983876,-20.402863 1.361644,-4.289697 2.475711,-8.282387 2.475711,-8.87265 0,-2.094061 -1.524356,-3.516266 -4.144872,-3.867094 -1.478623,-0.197958 -3.397851,0.540903 -4.564018,1.757025 -0.499263,0.520654 -4.560469,5.946436 -9.024916,12.057289 -4.464436,6.110852 -8.771272,12.270048 -9.325777,12.953501 -1.03719,1.278367 -2.140699,1.657099 -2.140699,0.73471 0,-0.279373 0.737953,-4.654188 1.639887,-9.721817 1.461586,-8.212099 1.627337,-9.547689 1.524395,-12.283938 -0.08039,-2.137154 -0.265834,-3.3518 -0.610225,-3.997251 -1.968218,-3.688826 -8.195578,-3.206584 -12.422105,0.961959 -1.874245,1.84854 -3.830256,5.130609 -5.603049,8.842588 -1.143202,2.393724 -1.351146,3.101678 -1.360824,4.632941 -0.0102,1.611101 0.08248,1.905434 0.853401,2.709234 0.966153,1.007406 2.771741,1.618676 3.934589,1.332007 1.115037,-0.274882 2.267237,-1.480297 3.624481,-3.791867 1.333509,-2.271132 2.30901,-3.672358 2.986972,-3.672358 0.248987,0 0.452712,0.245063 0.452712,0.544595 0,0.299523 -1.977267,8.830665 -4.393919,18.958099 C 41.042276,109.135 39,117.6497 39,118.17386 c 0,2.0972 1.723082,4.11836 3.930168,4.71156 0.973332,0.26162 1.435272,0.23426 2.42675,-0.14369 1.623399,-0.61882 2.462703,-1.54431 4.687897,-5.16915 7.852229,-12.79135 14.536739,-22.031707 15.249166,-21.336328 0.119239,0.116384 -0.08418,5.195888 -0.941147,11.410228 -1.44858,10.50439 -1.528705,11.3831 -1.139603,12.49762 0.692421,1.98338 3.366237,3.22164 5.803004,2.68742 1.272199,-0.2789 3.484406,-2.37207 5.322497,-5.03609 0.86566,-1.25462 3.546775,-4.91261 5.958037,-8.12886 3.610644,-4.81602 6.732214,-9.815971 9.358919,-14.032776 0.234079,-0.375777 0.484215,-0.624722 0.555853,-0.553217 0.07169,0.07155 -0.06299,1.365779 -0.299128,2.876134 -0.506222,3.237419 -1.543957,10.777049 -1.82021,15.965709 -0.161002,3.02404 -0.109391,3.93811 0.29016,5.13884 0.523869,1.5743 1.877915,3.09319 3.201524,3.59129 1.054828,0.39694 3.437405,0.39937 4.50224,0.005 2.569165,-0.95253 3.578117,-2.03012 10.253673,-10.9511 6.0706,-8.11256 7.04635,-8.27289 6.83011,-7.05601 -0.1286,0.72365 -0.23247,2.76305 -0.23085,4.53198 0.004,4.1419 0.72885,6.64925 2.72187,8.86186 2.40064,2.66514 5.48365,3.54543 9.03894,2.47744 0.7506,-0.22548 1.36474,-0.31673 1.36474,-0.20276 0,0.11396 -0.79508,1.97334 -1.76686,4.37642 -5.55473,13.73637 -7.59259,24.68495 -5.65859,30.40128 0.94188,2.78388 2.66834,4.77778 4.85906,5.61173 1.41474,0.53855 5.07646,0.29236 6.04223,-0.42053 z"
     id="path3134"
     sodipodi:nodetypes="csssssccssssssssssscscsssssssssssssssssscssssssssssssssssscssscsscssscsscc" />
  <path
     style="fill:#ffffff;stroke-width:0.292657"
     d="m 129.54045,158.28744 c 0.42832,-0.31617 0.95261,-1.11137 1.16509,-1.76711 0.34767,-1.07297 0.30737,-1.5384 -0.4028,-4.65211 -1.05007,-4.60405 -1.57066,-9.52719 -0.88066,-12.9624 1.42144,-7.0768 3.82748,-15.04254 6.97688,-23.09845 1.83545,-4.69494 12.98499,-27.126847 18.23856,-36.694386 4.26571,-7.768539 4.33747,-8.125337 4.36072,-9.756269 -0.0294,-2.110725 -1.37259,-2.787977 -3.11641,-3.307429 -1.55899,-0.254338 -3.32673,0.226081 -4.70377,1.408442 -0.81803,0.702379 -3.34889,5.20615 -10.3462,17.795349 -5.09478,9.166293 -9.78984,17.652973 -10.43345,18.492743 -2.88715,3.76706 -6.4805,4.41497 -8.05493,1.45236 -0.83741,-1.57578 -0.64784,-5.82511 0.46078,-9.899344 2.11389,-7.768579 4.50093,-13.522067 7.84966,-20.5499 2.47321,-5.190409 2.83855,-6.794854 1.92352,-8.447591 -0.72102,-1.302347 -2.66525,-2.34637 -4.3695,-2.34637 -3.20552,0 -4.41209,1.541463 -10.09739,12.900049 -4.64195,9.274084 -7.98461,14.537547 -14.29469,23.848266 -3.47845,5.13256 -5.318865,7.34819 -5.9284,7.13701 -0.283721,-0.0983 -0.368976,-0.8252 -0.328083,-2.79748 0.09388,-4.52935 1.46431,-13.873858 4.292813,-24.436119 1.30267,-4.864481 1.35098,-5.182267 1.02415,-6.737491 -0.5427,-2.582611 -2.17399,-3.873911 -4.893831,-3.873911 -1.912009,0 -3.18046,0.632856 -5.002853,2.496016 -2.354212,2.406857 -7.405362,10.008647 -13.462961,19.022949 -2.956357,4.399355 -5.498436,7.899454 -5.688694,7.83259 -0.203605,-0.07156 -0.307526,-0.566701 -0.254685,-1.213409 0.106091,-1.298386 2.566449,-9.636651 5.983876,-20.402858 1.361644,-4.289697 2.475711,-8.282387 2.475711,-8.87265 0,-2.094061 -1.524356,-3.516266 -4.144872,-3.867094 -1.478623,-0.197958 -3.397851,0.540903 -4.564018,1.757025 -0.499263,0.520654 -4.560469,5.946436 -9.024916,12.057289 -4.464436,6.110852 -8.771272,12.270048 -9.325777,12.953501 -1.03719,1.278367 -2.140699,1.657099 -2.140699,0.73471 0,-0.279373 0.737953,-4.654188 1.639887,-9.721817 1.461586,-8.212099 1.627337,-9.547689 1.524395,-12.283938 -0.08039,-2.137154 -0.265834,-3.3518 -0.610225,-3.997251 -1.968218,-3.688826 -8.195578,-3.206584 -12.422105,0.961959 -1.874245,1.84854 -3.830256,5.130609 -5.603049,8.842588 -1.143202,2.393724 -1.351146,3.101678 -1.360824,4.632941 -0.0102,1.611101 0.08248,1.905434 0.853401,2.709234 0.966153,1.007406 2.771741,1.618676 3.934589,1.332007 1.115037,-0.274882 2.267237,-1.480297 3.624481,-3.791867 1.333509,-2.271132 2.30901,-3.672358 2.986972,-3.672358 0.248987,0 0.452712,0.245063 0.452712,0.544595 0,0.299523 -1.977267,8.830665 -4.393919,18.958099 C 41.042276,107.135 39,115.6497 39,116.17386 c 0,2.0972 1.723082,4.11836 3.930168,4.71156 0.973332,0.26162 1.435272,0.23426 2.42675,-0.14369 1.623399,-0.61882 2.462703,-1.54431 4.687897,-5.16915 7.852229,-12.79135 14.536739,-22.031707 15.249166,-21.336328 0.119239,0.116384 -0.08418,5.195885 -0.941147,11.410228 -1.44858,10.50439 -1.528705,11.3831 -1.139603,12.49762 0.692421,1.98338 3.366237,3.22164 5.803004,2.68742 1.272199,-0.2789 3.484406,-2.37207 5.322497,-5.03609 0.86566,-1.25462 3.546775,-4.91261 5.958037,-8.12886 3.610644,-4.81602 6.732214,-9.815971 9.358919,-14.032776 0.234079,-0.375777 0.484215,-0.624722 0.555853,-0.553217 0.07169,0.07155 -0.06299,1.365779 -0.299128,2.876134 -0.506222,3.237422 -1.543957,10.777049 -1.82021,15.965709 -0.161002,3.02404 -0.109391,3.93811 0.29016,5.13884 0.523869,1.5743 1.877915,3.09319 3.201524,3.59129 1.054828,0.39694 3.437405,0.39937 4.50224,0.005 2.569165,-0.95253 3.578117,-2.03012 10.253673,-10.9511 6.0706,-8.11256 7.04635,-8.27289 6.83011,-7.05601 -0.1286,0.72365 -0.23247,2.76305 -0.23085,4.53198 0.004,4.1419 0.72885,6.64925 2.72187,8.86186 2.40064,2.66514 5.48365,3.54543 9.03894,2.47744 0.7506,-0.22548 1.36474,-0.31673 1.36474,-0.20276 0,0.11396 -0.79508,1.97334 -1.76686,4.37642 -5.55473,13.73637 -7.59259,24.68495 -5.65859,30.40128 0.94188,2.78388 2.66834,4.77778 4.85906,5.61173 1.41474,0.53855 5.07646,0.29236 6.04223,-0.42053 z"
     id="path1127"
     sodipodi:nodetypes="csssssccssssssssssscscsssssssssssssssssscssssssssssssssssscssscsscssscsscc" />
</svg>
