<?xml version="1.0" encoding="UTF-8" standalone="no"?>
<svg
   width="192"
   height="192"
   version="1"
   id="svg12"
   sodipodi:docname="apps_wallabag.svg"
   inkscape:version="1.1.1 (1:1.1+202109281949+c3084ef5ed)"
   xmlns:inkscape="http://www.inkscape.org/namespaces/inkscape"
   xmlns:sodipodi="http://sodipodi.sourceforge.net/DTD/sodipodi-0.dtd"
   xmlns="http://www.w3.org/2000/svg"
   xmlns:svg="http://www.w3.org/2000/svg"
   xmlns:rdf="http://www.w3.org/1999/02/22-rdf-syntax-ns#"
   xmlns:cc="http://creativecommons.org/ns#"
   xmlns:dc="http://purl.org/dc/elements/1.1/">
  <metadata
     id="metadata18">
    <rdf:RDF>
      <cc:Work
         rdf:about="">
        <dc:format>image/svg+xml</dc:format>
        <dc:type
           rdf:resource="http://purl.org/dc/dcmitype/StillImage" />
      </cc:Work>
    </rdf:RDF>
  </metadata>
  <defs
     id="defs16">
    <filter
       inkscape:collect="always"
       style="color-interpolation-filters:sRGB"
       id="filter955"
       x="-0.048000001"
       width="1.096"
       y="-0.048000001"
       height="1.096">
      <feGaussianBlur
         inkscape:collect="always"
         stdDeviation="3.2"
         id="feGaussianBlur957" />
    </filter>
    <filter
       inkscape:collect="always"
       style="color-interpolation-filters:sRGB"
       id="filter1922"
       x="-0.077818746"
       y="-0.072378313"
       width="1.1556375"
       height="1.1447566">
      <feGaussianBlur
         inkscape:collect="always"
         stdDeviation="3.316362"
         id="feGaussianBlur1924" />
    </filter>
  </defs>
  <sodipodi:namedview
     pagecolor="#ffffff"
     bordercolor="#666666"
     borderopacity="1"
     objecttolerance="10"
     gridtolerance="10"
     guidetolerance="10"
     inkscape:pageopacity="0"
     inkscape:pageshadow="2"
     inkscape:window-width="1920"
     inkscape:window-height="1019"
     id="namedview14"
     showgrid="true"
     inkscape:zoom="2.49"
     inkscape:cx="88.955823"
     inkscape:cy="129.31727"
     inkscape:window-x="0"
     inkscape:window-y="34"
     inkscape:window-maximized="1"
     inkscape:current-layer="svg12"
     showguides="false"
     inkscape:document-rotation="0"
     inkscape:pagecheckerboard="0"
     inkscape:snap-bbox="true"
     inkscape:snap-bbox-midpoints="true"
     inkscape:snap-global="true">
    <inkscape:grid
       type="xygrid"
       id="grid852" />
  </sodipodi:namedview>
  <rect
     style="opacity:0.2;fill:#000000;fill-opacity:1;stroke-width:4;filter:url(#filter955)"
     width="160"
     height="160"
     x="16"
     y="20"
     rx="30"
     ry="30"
     id="rect953" />
  <rect
     style="fill:#e4e4e4;fill-opacity:1;stroke-width:4"
     width="160"
     height="160"
     x="16"
     y="16"
     rx="30"
     ry="30"
     id="rect4" />
  <path
     id="rect959"
     style="fill:#ffffff;fill-opacity:1;stroke-width:4;opacity:0.2"
     d="M 46 16 C 29.38 16 16 29.38 16 46 L 16 47 C 16 30.38 29.38 17 46 17 L 146 17 C 162.62 17 176 30.38 176 47 L 176 46 C 176 29.38 162.62 16 146 16 L 46 16 z " />
  <path
     id="path1884"
     style="opacity:0.2;fill:#000000;fill-opacity:1;stroke-width:0.653465;filter:url(#filter1922)"
     d="m 114.4375,43.035626 c -0.19864,-0.02109 -0.42189,0.06802 -0.64062,0.246094 -0.47181,0.382931 -4.57301,1.331506 -7.00586,3.228516 -3.92798,3.064752 -6.24984,9.491306 -7.347661,12.71289 -0.0209,0.04966 -0.167136,0.496819 -0.216797,0.652344 -0.511662,1.234396 -1.53125,1.230469 -1.53125,1.230469 v 0.002 c -0.493367,-0.05424 -0.989033,-0.08203 -1.488281,-0.08203 -0.445663,0 -0.888982,0.02394 -1.332031,0.06641 -0.0098,0.002 -0.01493,-6.54e-4 -0.02539,0 -1.302352,0.191476 -2.018977,-1.398334 -2.167968,-1.777344 C 91.160374,54.9452 86.566672,45.728467 77.367188,43.410626 c 0,0 -1.671813,-1.280165 -1.16211,0.884766 0.483564,2.068871 1.685069,4.159944 1.462891,7.201172 -0.101941,1.403643 -0.672977,8.803165 5.943359,12.548828 0.627981,0.355485 1.187592,0.654665 1.689453,0.90625 -3.330712,2.667445 -6.356283,6.378906 -8.945312,10.591797 1.316079,-0.808336 8.408731,-4.576763 19.851562,0.146484 11.770209,4.857862 19.072809,0.638853 19.978519,0.06445 -2.84519,-4.678159 -6.22897,-8.748961 -9.97071,-11.486328 0.24897,-0.06796 0.50226,-0.136421 0.77149,-0.216797 4.96241,-1.43501 6.22231,-5.636395 6.48828,-9.234375 0.29928,-4.080891 0.40816,-4.343803 1.29492,-8.015625 0.63811,-2.644573 0.2639,-3.702341 -0.33203,-3.765625 z M 96.568359,84.002423 c -2.047686,-0.04049 -3.256035,1.190606 -3.521484,3.308594 v 12.582031 c 0,1.797982 -0.297502,3.124672 -0.884766,3.941402 -0.563852,0.78302 -2.014508,1.16407 -3.408203,1.16407 -1.397598,0 -2.359993,-0.38361 -2.939453,-1.16797 C 85.21223,103.0145 85,101.691 85,99.895001 V 86.920392 c 0,-0.755931 -0.407565,-1.439853 -1.03125,-2.03125 -0.615878,-0.584128 -1.435964,-0.88086 -2.4375,-0.88086 -1.031452,0 -1.882201,0.294235 -2.529297,0.871094 C 78.337948,85.471434 78,86.158514 78,86.920392 v 13.166018 c 0,1.6559 0.159839,3.22239 0.472656,4.65429 0.321272,1.46362 0.882349,2.74919 1.667969,3.82032 0.793425,1.08169 1.869909,1.93574 3.201172,2.54101 1.317603,0.59602 2.965605,0.89844 4.898437,0.89844 2.014128,0 3.70127,-0.37962 5.013672,-1.12695 1.100388,-0.62774 2.027478,-1.45331 2.763672,-2.45899 0.71018,1.00568 1.615741,1.83062 2.701172,2.45703 1.29484,0.74866 3.00873,1.12891 5.0918,1.12891 1.93349,0 4.57235,-0.30305 5.875,-0.90039 1.3124,-0.60461 2.37911,-1.4587 3.17383,-2.53906 0.78691,-1.07444 1.34863,-2.36 1.66796,-3.82032 C 114.84015,103.3088 115,101.74232 115,100.08641 V 86.920392 c 0,-0.758574 -0.3262,-1.44439 -0.96875,-2.03711 -0.63149,-0.580162 -1.49462,-0.874999 -2.5625,-0.875 -0.96772,0 -1.7715,0.296072 -2.38672,0.88086 C 108.45964,85.4812 108,86.165122 108,86.920392 v 12.974609 c 0,1.795339 -0.16732,3.116249 -0.78516,3.931639 -0.59702,0.78832 -2.05158,1.17188 -3.41601,1.17188 -1.39563,0 -2.34629,-0.38041 -2.90821,-1.16211 -0.58727,-0.81606 -0.88476,-2.14144 -0.88476,-3.941409 V 87.467267 C 99.7397,85.149201 98.616046,84.042914 96.568359,84.002423 Z m -28.90039,26.849607 c 0.364633,1.65392 0.885604,3.22947 1.537109,4.72852 0.548258,3.08566 1.285073,10.35011 -2.203125,16.70898 -3.073901,5.60085 -18.245911,13.23827 -40.763672,8.85352 0,0 -0.905239,-0.63018 -1.177734,-0.11133 -0.403842,0.76717 1.249541,1.38831 2.953125,1.83789 6.228835,1.64944 13.718134,2.23707 20.949219,2.13086 10.968754,-0.1611 21.343594,-2.1008 25.822265,-5.79102 3.390178,-2.79095 4.698636,-6.55204 5.03125,-10.5996 l 0.002,0.006 c 0,0 0.09079,-1.05828 1.416016,-0.26171 0.379663,0.22872 1.751792,1.1206 1.970703,2.1289 0.190812,1.43566 0.20392,3.19855 -0.537109,4.4336 -1.059921,1.76501 -1.072884,2.01843 0.322265,3.01562 0.856693,0.61164 4.356294,3.18446 9.22461,6.10938 0.01307,0.008 0.01883,0.0143 0.03125,0.0215 1.030514,0.62014 2.460937,2.13867 2.460937,2.13867 2.191723,2.5361 6.962349,7.63963 9.039059,6.67969 0.98086,-0.4535 -0.041,-2.49805 -0.041,-2.49805 0,0 1.63151,2.11791 2.50781,1.39649 0.66588,-0.55087 -0.39062,-2.65821 -0.39062,-2.65821 0,0 1.42459,1.23477 2.27148,0.77735 1.0364,-0.55871 -0.15336,-3.80064 -8.302734,-8.75391 -8.151976,-4.95653 -10.361908,-5.71706 -10.556641,-7.92969 0,0 -0.0027,-0.11257 0.0039,-0.30273 0.06404,-0.48813 0.340658,-1.5206 1.525391,-1.41016 1.763703,0.28556 3.580983,0.49805 5.443359,0.49805 2.131604,0 4.207429,-0.25578 6.208989,-0.62891 v 0.002 c 0,0 0.10405,-0.0202 0.13476,-0.0254 0.23394,-0.0294 0.69139,-0.0138 0.69336,0.55273 -0.0738,0.71947 -0.27446,1.44296 -0.69726,2.07617 -1.19258,1.78592 -0.79954,2.0296 0.44531,3.17774 0.76913,0.7077 4.29133,3.80723 9.11914,6.80664 0.009,0.007 0.0155,0.0136 0.0273,0.0195 1.02921,0.61884 2.8086,2.32226 2.8086,2.32226 v -0.002 c 2.00026,2.03031 5.67811,5.43306 7.68359,5.22852 1.35464,-0.13919 0.25195,-2.47266 0.25195,-2.47266 0,0 1.71108,1.65155 2.55078,1.16602 0.94034,-0.54303 -0.38867,-2.26953 -0.38867,-2.26954 0,0 1.10193,0.58276 1.88086,0.38868 0.77697,-0.19669 0.97083,-2.17865 -7.13476,-7.19922 -8.10689,-5.02319 -10.83658,-6.78975 -10.66602,-8.71094 0,0 0.002,-0.31268 0.082,-0.78906 0.19604,-1.0194 0.82011,-2.7587 2.80664,-3.75 0.066,-0.032 0.12091,-0.0682 0.17188,-0.10547 6.3164,-3.66594 10.93081,-9.56773 12.55859,-16.93555 -1.64085,4.06978 -13.78577,7.14844 -28.539062,7.14844 -14.748058,0 -26.898218,-3.07866 -28.537109,-7.14844 z" />
  <path
     id="path2"
     style="stroke-width:0.653465;fill:#3f3f3f;fill-opacity:1"
     d="M 114.4375 41.035156 C 114.23886 41.014062 114.01561 41.103181 113.79688 41.28125 C 113.32507 41.664181 109.22387 42.612756 106.79102 44.509766 C 102.86304 47.574518 100.54118 54.001072 99.443359 57.222656 C 99.422459 57.272316 99.276223 57.719475 99.226562 57.875 C 98.7149 59.109396 97.695312 59.105469 97.695312 59.105469 L 97.695312 59.107422 C 97.201945 59.053182 96.706279 59.025391 96.207031 59.025391 C 95.761368 59.025391 95.318049 59.049327 94.875 59.091797 C 94.8652 59.093797 94.860069 59.091143 94.849609 59.091797 C 93.547257 59.283273 92.830632 57.693463 92.681641 57.314453 C 91.160374 52.94473 86.566672 43.727997 77.367188 41.410156 C 77.367188 41.410156 75.695375 40.129991 76.205078 42.294922 C 76.688642 44.363793 77.890147 46.454866 77.667969 49.496094 C 77.566028 50.899737 76.994992 58.299259 83.611328 62.044922 C 84.239309 62.400407 84.79892 62.699587 85.300781 62.951172 C 81.970069 65.618617 78.944498 69.330078 76.355469 73.542969 C 77.671548 72.734633 84.7642 68.966206 96.207031 73.689453 C 107.97724 78.547315 115.27984 74.328306 116.18555 73.753906 C 113.34036 69.075747 109.95658 65.004945 106.21484 62.267578 C 106.46381 62.199618 106.7171 62.131157 106.98633 62.050781 C 111.94874 60.615771 113.20864 56.414386 113.47461 52.816406 C 113.77389 48.735515 113.88277 48.472603 114.76953 44.800781 C 115.40764 42.156208 115.03343 41.09844 114.4375 41.035156 z M 96.568359 82.001953 C 94.520673 81.961463 93.312324 83.192559 93.046875 85.310547 L 93.046875 97.892578 C 93.046875 99.690555 92.749373 101.01725 92.162109 101.83398 C 91.598257 102.617 90.147601 102.99805 88.753906 102.99805 C 87.356308 102.99805 86.393913 102.61444 85.814453 101.83008 C 85.21223 101.01403 85 99.690526 85 97.894531 L 85 84.919922 C 85 84.163991 84.592435 83.480069 83.96875 82.888672 C 83.352872 82.304544 82.532786 82.007812 81.53125 82.007812 C 80.499798 82.007812 79.649049 82.302047 79.001953 82.878906 C 78.337948 83.470964 78 84.158044 78 84.919922 L 78 98.085938 C 78 99.741844 78.159839 101.30833 78.472656 102.74023 C 78.793928 104.20385 79.355005 105.48942 80.140625 106.56055 C 80.93405 107.64224 82.010534 108.49629 83.341797 109.10156 C 84.6594 109.69758 86.307402 110 88.240234 110 C 90.254362 110 91.941504 109.62038 93.253906 108.87305 C 94.354294 108.24531 95.281384 107.41974 96.017578 106.41406 C 96.727758 107.41974 97.633319 108.24468 98.71875 108.87109 C 100.01359 109.61975 101.72748 110 103.81055 110 C 105.74404 110 108.3829 109.69695 109.68555 109.09961 C 110.99795 108.495 112.06466 107.64091 112.85938 106.56055 C 113.64629 105.48611 114.20801 104.20055 114.52734 102.74023 C 114.84015 101.30833 115 99.741845 115 98.085938 L 115 84.919922 C 115 84.161348 114.6738 83.475532 114.03125 82.882812 C 113.39976 82.30265 112.53663 82.007813 111.46875 82.007812 C 110.50103 82.007812 109.69725 82.303884 109.08203 82.888672 C 108.45964 83.48073 108 84.164652 108 84.919922 L 108 97.894531 C 108 99.689866 107.83268 101.01078 107.21484 101.82617 C 106.61782 102.61449 105.16326 102.99805 103.79883 102.99805 C 102.4032 102.99805 101.45254 102.61764 100.89062 101.83594 C 100.30335 101.01988 100.00586 99.694496 100.00586 97.894531 L 100.00586 85.466797 C 99.7397 83.148731 98.616046 82.042444 96.568359 82.001953 z M 67.667969 108.85156 C 68.032602 110.50548 68.553573 112.08103 69.205078 113.58008 C 69.753336 116.66574 70.490151 123.93019 67.001953 130.28906 C 63.928052 135.88991 48.756042 143.52733 26.238281 139.14258 C 26.238281 139.14258 25.333042 138.5124 25.060547 139.03125 C 24.656705 139.79842 26.310088 140.41956 28.013672 140.86914 C 34.242507 142.51858 41.731806 143.10621 48.962891 143 C 59.931645 142.8389 70.306485 140.8992 74.785156 137.20898 C 78.175334 134.41803 79.483792 130.65694 79.816406 126.60938 L 79.818359 126.61523 C 79.818359 126.61523 79.909146 125.55695 81.234375 126.35352 C 81.614038 126.58224 82.986167 127.47412 83.205078 128.48242 C 83.39589 129.91808 83.408998 131.68097 82.667969 132.91602 C 81.608048 134.68103 81.595085 134.93445 82.990234 135.93164 C 83.846927 136.54328 87.346528 139.1161 92.214844 142.04102 C 92.227914 142.04902 92.233674 142.0553 92.246094 142.0625 C 93.276608 142.68264 94.707031 144.20117 94.707031 144.20117 C 96.898754 146.73727 101.66938 151.8408 103.74609 150.88086 C 104.72695 150.42736 103.70508 148.38281 103.70508 148.38281 C 103.70508 148.38281 105.33659 150.50072 106.21289 149.7793 C 106.87877 149.22843 105.82227 147.12109 105.82227 147.12109 C 105.82227 147.12109 107.24686 148.35586 108.09375 147.89844 C 109.13015 147.33973 107.94039 144.0978 99.791016 139.14453 C 91.63904 134.188 89.429108 133.42747 89.234375 131.21484 C 89.234375 131.21484 89.231681 131.10227 89.238281 130.91211 C 89.302321 130.42398 89.578939 129.39151 90.763672 129.50195 C 92.527375 129.78751 94.344655 130 96.207031 130 C 98.338635 130 100.41446 129.74422 102.41602 129.37109 L 102.41602 129.37305 C 102.41602 129.37305 102.52007 129.35286 102.55078 129.34766 C 102.78472 129.31826 103.24217 129.33386 103.24414 129.90039 C 103.17034 130.61986 102.96968 131.34335 102.54688 131.97656 C 101.3543 133.76248 101.74734 134.00616 102.99219 135.1543 C 103.76132 135.862 107.28352 138.96153 112.11133 141.96094 C 112.12033 141.96794 112.12687 141.97457 112.13867 141.98047 C 113.16788 142.59931 114.94727 144.30273 114.94727 144.30273 L 114.94727 144.30078 C 116.94753 146.33109 120.62538 149.73384 122.63086 149.5293 C 123.9855 149.39011 122.88281 147.05664 122.88281 147.05664 C 122.88281 147.05664 124.59389 148.70819 125.43359 148.22266 C 126.37393 147.67963 125.04492 145.95313 125.04492 145.95312 C 125.04492 145.95312 126.14685 146.53588 126.92578 146.3418 C 127.70275 146.14511 127.89661 144.16315 119.79102 139.14258 C 111.68413 134.11939 108.95444 132.35283 109.125 130.43164 C 109.125 130.43164 109.12673 130.11896 109.20703 129.64258 C 109.40307 128.62318 110.02714 126.88388 112.01367 125.89258 C 112.07967 125.86058 112.13458 125.82437 112.18555 125.78711 C 118.50195 122.12117 123.11636 116.21938 124.74414 108.85156 C 123.10329 112.92134 110.95837 116 96.205078 116 C 81.45702 116 69.30686 112.92134 67.667969 108.85156 z " />
</svg>
