<?xml version="1.0" encoding="UTF-8" standalone="no"?>
<svg
   width="192"
   height="192"
   version="1"
   id="svg16"
   sodipodi:docname="apps_huawei_backup.svg"
   inkscape:version="1.1-rc (1:1.1+rc+202105232036+f4db50c7c1)"
   xmlns:inkscape="http://www.inkscape.org/namespaces/inkscape"
   xmlns:sodipodi="http://sodipodi.sourceforge.net/DTD/sodipodi-0.dtd"
   xmlns="http://www.w3.org/2000/svg"
   xmlns:svg="http://www.w3.org/2000/svg">
  <defs
     id="defs20">
    <filter
       inkscape:collect="always"
       style="color-interpolation-filters:sRGB"
       id="filter971"
       x="-0.048000001"
       y="-0.048000001"
       width="1.096"
       height="1.096">
      <feGaussianBlur
         inkscape:collect="always"
         stdDeviation="3.2"
         id="feGaussianBlur973" />
    </filter>
    <filter
       inkscape:collect="always"
       style="color-interpolation-filters:sRGB"
       id="filter2433"
       x="-0.046294935"
       y="-0.049660197"
       width="1.0925899"
       height="1.0993204">
      <feGaussianBlur
         inkscape:collect="always"
         stdDeviation="2.2760153"
         id="feGaussianBlur2435" />
    </filter>
  </defs>
  <sodipodi:namedview
     id="namedview18"
     pagecolor="#ffffff"
     bordercolor="#666666"
     borderopacity="1.0"
     inkscape:pageshadow="2"
     inkscape:pageopacity="0.0"
     inkscape:pagecheckerboard="0"
     showgrid="false"
     inkscape:zoom="1"
     inkscape:cx="53.5"
     inkscape:cy="81.5"
     inkscape:window-width="1920"
     inkscape:window-height="1019"
     inkscape:window-x="0"
     inkscape:window-y="34"
     inkscape:window-maximized="1"
     inkscape:current-layer="svg16">
    <inkscape:grid
       type="xygrid"
       id="grid2010" />
  </sodipodi:namedview>
  <rect
     style="opacity:0.2;fill:#000000;stroke-width:4;filter:url(#filter971)"
     width="160"
     height="160"
     x="16"
     y="20"
     rx="80"
     ry="80"
     id="rect933" />
  <circle
     style="fill:#239df8;fill-opacity:1;stroke:none;stroke-width:0.887702;stroke-linecap:round;stroke-linejoin:round;stroke-miterlimit:4;stroke-dasharray:none;stop-color:#000000"
     id="path4799"
     cx="96"
     cy="96"
     r="80" />
  <path
     id="path2392"
     style="color:#000000;opacity:0.2;fill:#000000;stroke-linecap:round;stroke-linejoin:round;-inkscape-stroke:none;filter:url(#filter2433)"
     d="m 95.695312,43.004395 c -1.075783,0.0053 -2.152925,0.04249 -3.230468,0.111328 -5.746894,0.367156 -11.500818,1.642921 -17.046875,3.88086 -20.902678,8.434622 -34.421706,28.739145 -34.414063,51.011718 h -5.113281 a 2.8912622,2.7310239 0 0 0 -2.503906,4.095709 l 5.052734,8.26562 5.050781,8.26563 a 2.8912622,2.7310239 0 0 0 5.007813,0 l 5.052734,-8.26563 5.050781,-8.26562 A 2.8912622,2.7310239 0 0 0 56.099609,98.008301 H 51.009766 C 50.996,79.757632 62.024306,63.184658 79.160156,56.27002 c 18.184787,-7.337902 38.975554,-2.082817 51.488284,13.015625 12.51272,15.098442 13.81709,36.503565 3.23047,53.009765 -10.58663,16.5062 -30.5841,24.24718 -49.525394,19.17188 a 5,5 0 0 0 -6.125,3.53515 5,5 0 0 0 3.537109,6.12305 c 23.107115,6.19153 47.616265,-3.29517 60.531255,-23.43164 12.91497,-20.13647 11.31547,-46.369969 -3.94922,-64.789064 C 127.61467,49.953859 111.83207,42.924819 95.695312,43.004395 Z M 77,73.000489 c -1.662,0 -3,1.338 -3,3 v 8 c 0,1.662 1.338,3 3,3 h 38 c 1.662,0 3,-1.338 3,-3 v -8 c 0,-1.662 -1.338,-3 -3,-3 z m 7,4 a 3,3 0 0 1 3,3 3,3 0 0 1 -3,3 3,3 0 0 1 -3,-3 3,3 0 0 1 3,-3 z m -7,14 c -1.662,0 -3,1.338 -3,3 v 8.000001 c 0,1.662 1.338,3 3,3 h 38 c 1.662,0 3,-1.338 3,-3 v -8.000001 c 0,-1.662 -1.338,-3 -3,-3 z m 7,4 a 3,3 0 0 1 3,3 3,3 0 0 1 -3,3.000001 3,3 0 0 1 -3,-3.000001 3,3 0 0 1 3,-3 z m -7,14.000001 c -1.662,0 -3,1.338 -3,3 v 8 c 0,1.662 1.338,3 3,3 h 38 c 1.662,0 3,-1.338 3,-3 v -8 c 0,-1.662 -1.338,-3 -3,-3 z m 7,4 a 3,3 0 0 1 3,3 3,3 0 0 1 -3,3 3,3 0 0 1 -3,-3 3,3 0 0 1 3,-3 z" />
  <path
     id="path4"
     style="opacity:0.2;fill:#ffffff;stroke-width:4"
     d="M 95.998047,16 C 51.678957,16.001054 16,51.680655 16,96 c 0,0.173903 0.0083,0.344936 0.01172,0.517578 C 16.270953,52.423274 51.840776,17.00105 95.998047,17 H 96 c 44.15727,0.001 79.72709,35.423274 79.98633,79.517578 0.003,-0.172666 0.0117,-0.34381 0.0117,-0.517578 0,-44.319345 -35.67896,-79.998946 -79.99805,-80 z" />
  <path
     id="path1276"
     style="color:#000000;fill:#ffffff;stroke-linecap:round;stroke-linejoin:round;-inkscape-stroke:none"
     d="m 95.695312,41.003906 c -1.075783,0.0053 -2.152925,0.04249 -3.230468,0.111328 -5.746894,0.367156 -11.500818,1.642921 -17.046875,3.88086 -20.902678,8.434622 -34.421706,28.739145 -34.414063,51.011718 h -5.113281 a 2.8912622,2.7310239 0 0 0 -2.503906,4.095708 l 5.052734,8.26562 5.050781,8.26563 a 2.8912622,2.7310239 0 0 0 5.007813,0 l 5.052734,-8.26563 5.050781,-8.26562 a 2.8912622,2.7310239 0 0 0 -2.501953,-4.095708 h -5.089843 c -0.01377,-18.25067 11.01454,-34.823643 28.15039,-41.738281 18.184787,-7.337902 38.975554,-2.082817 51.488284,13.015625 12.51272,15.098442 13.81709,36.503564 3.23047,53.009764 -10.58663,16.5062 -30.5841,24.24718 -49.525394,19.17188 a 5,5 0 0 0 -6.125,3.53515 5,5 0 0 0 3.537109,6.12305 c 23.107115,6.19153 47.616275,-3.29517 60.531255,-23.43164 12.91497,-20.13647 11.31547,-46.369968 -3.94922,-64.789063 C 127.61467,47.95337 111.83207,40.92433 95.695312,41.003906 Z" />
  <path
     id="rect1684"
     style="fill:#196eae;fill-opacity:1;stroke:none;stroke-width:6.22126;stroke-linecap:round;stroke-linejoin:round;stroke-miterlimit:4;stroke-dasharray:none;stroke-opacity:1;stop-color:#000000"
     d="m 77,71 c -1.662,0 -3,1.338 -3,3 v 8 c 0,1.662 1.338,3 3,3 h 38 c 1.662,0 3,-1.338 3,-3 v -8 c 0,-1.662 -1.338,-3 -3,-3 z m 7,4 a 3,3 0 0 1 3,3 3,3 0 0 1 -3,3 3,3 0 0 1 -3,-3 3,3 0 0 1 3,-3 z m -7,14 c -1.662,0 -3,1.338 -3,3 v 8 c 0,1.662 1.338,3 3,3 h 38 c 1.662,0 3,-1.338 3,-3 v -8 c 0,-1.662 -1.338,-3 -3,-3 z m 7,4 a 3,3 0 0 1 3,3 3,3 0 0 1 -3,3 3,3 0 0 1 -3,-3 3,3 0 0 1 3,-3 z m -7,14 c -1.662,0 -3,1.338 -3,3 v 8 c 0,1.662 1.338,3 3,3 h 38 c 1.662,0 3,-1.338 3,-3 v -8 c 0,-1.662 -1.338,-3 -3,-3 z m 7,4 a 3,3 0 0 1 3,3 3,3 0 0 1 -3,3 3,3 0 0 1 -3,-3 3,3 0 0 1 3,-3 z" />
</svg>
