<?xml version="1.0" encoding="UTF-8" standalone="no"?>
<svg
   width="192"
   height="192"
   version="1"
   id="svg28"
   sodipodi:docname="apps_ncell_app.svg"
   inkscape:version="1.1.1 (1:1.1+202109281949+c3084ef5ed)"
   xmlns:inkscape="http://www.inkscape.org/namespaces/inkscape"
   xmlns:sodipodi="http://sodipodi.sourceforge.net/DTD/sodipodi-0.dtd"
   xmlns="http://www.w3.org/2000/svg"
   xmlns:svg="http://www.w3.org/2000/svg"
   xmlns:rdf="http://www.w3.org/1999/02/22-rdf-syntax-ns#"
   xmlns:cc="http://creativecommons.org/ns#"
   xmlns:dc="http://purl.org/dc/elements/1.1/">
  <metadata
     id="metadata34">
    <rdf:RDF>
      <cc:Work
         rdf:about="">
        <dc:format>image/svg+xml</dc:format>
        <dc:type
           rdf:resource="http://purl.org/dc/dcmitype/StillImage" />
      </cc:Work>
    </rdf:RDF>
  </metadata>
  <defs
     id="defs32">
    <filter
       inkscape:collect="always"
       style="color-interpolation-filters:sRGB"
       id="filter6495"
       x="-0.048000001"
       y="-0.048000001"
       width="1.096"
       height="1.096">
      <feGaussianBlur
         inkscape:collect="always"
         stdDeviation="3.2"
         id="feGaussianBlur6497" />
    </filter>
    <filter
       inkscape:collect="always"
       style="color-interpolation-filters:sRGB"
       id="filter36132"
       x="-0.091071429"
       y="-0.06375"
       width="1.1821429"
       height="1.1275">
      <feGaussianBlur
         inkscape:collect="always"
         stdDeviation="3.1875"
         id="feGaussianBlur36134" />
    </filter>
  </defs>
  <sodipodi:namedview
     pagecolor="#ffffff"
     bordercolor="#666666"
     borderopacity="1"
     objecttolerance="10"
     gridtolerance="10"
     guidetolerance="10"
     inkscape:pageopacity="0"
     inkscape:pageshadow="2"
     inkscape:window-width="1920"
     inkscape:window-height="1022"
     id="namedview30"
     showgrid="false"
     inkscape:zoom="1"
     inkscape:cx="44"
     inkscape:cy="66"
     inkscape:window-x="0"
     inkscape:window-y="34"
     inkscape:window-maximized="1"
     inkscape:current-layer="svg28"
     inkscape:pagecheckerboard="0"
     inkscape:snap-global="true"
     showguides="false">
    <inkscape:grid
       type="xygrid"
       id="grid841" />
  </sodipodi:namedview>
  <rect
     id="rect6457"
     transform="matrix(0,-1,-1,0,0,0)"
     ry="12"
     rx="12"
     y="-176"
     x="-180"
     height="160"
     width="160"
     style="opacity:0.2;fill:#000000;fill-opacity:1;stroke-width:4;filter:url(#filter6495)" />
  <rect
     id="rect2"
     transform="matrix(0,-1,-1,0,0,0)"
     ry="12"
     rx="12"
     y="-176"
     x="-176"
     height="160"
     width="160"
     style="fill:#e4e4e4;fill-opacity:1;stroke-width:4" />
  <path
     id="path36083"
     style="opacity:0.2;fill:#000000;fill-opacity:1;stroke-width:10.435;stroke-linecap:round;stroke-linejoin:round;filter:url(#filter36132)"
     d="m 54,38 v 48 l 42,24 -42,24 42,24 42,-24 V 86 L 96,62 Z" />
  <path
     id="rect6416"
     style="opacity:0.2;fill:#ffffff;fill-opacity:1;stroke-width:4"
     d="m 28,16 c -6.648,0 -12,5.352 -12,12 v 1 c 0,-6.648 5.352,-12 12,-12 h 136 c 6.648,0 12,5.352 12,12 v -1 c 0,-6.648 -5.352,-12 -12,-12 z" />
  <path
     id="rect945"
     style="opacity:1;stroke-width:10.435;stroke-linecap:round;stroke-linejoin:round;fill:#ffae29;fill-opacity:1"
     d="m 54,36 42,24 v 0 L 54,84 Z"
     sodipodi:nodetypes="ccccc" />
  <path
     id="path1243"
     style="opacity:1;stroke-width:10.435;stroke-linecap:round;stroke-linejoin:round;fill:#f7871a;fill-opacity:1"
     d="M 96,60 54,84 v 0 l 42,24 z"
     sodipodi:nodetypes="ccccc" />
  <path
     id="path1245"
     style="opacity:1;stroke-width:10.435;stroke-linecap:round;stroke-linejoin:round;fill:#f35d19;fill-opacity:1"
     d="m 96,60 42,24 v 0 l -42,24 z"
     sodipodi:nodetypes="ccccc" />
  <path
     id="path1247"
     style="opacity:1;stroke-width:10.435;stroke-linecap:round;stroke-linejoin:round;fill:#903190;fill-opacity:1"
     d="m 138,84 -42,24 v 0 l 42,24 z"
     sodipodi:nodetypes="ccccc" />
  <path
     id="path1249"
     style="opacity:1;stroke-width:10.435;stroke-linecap:round;stroke-linejoin:round;fill:#e438a6;fill-opacity:1"
     d="m 96,108 -42,24 v 0 l 42,24 z"
     sodipodi:nodetypes="ccccc" />
  <path
     id="path1251"
     style="opacity:1;stroke-width:10.435;stroke-linecap:round;stroke-linejoin:round;fill:#dc1d4f;fill-opacity:1"
     d="m 96,108 42,24 v 0 l -42,24 z"
     sodipodi:nodetypes="ccccc" />
</svg>
