<svg xmlns="http://www.w3.org/2000/svg" width="48" height="48" version="1">
 <g>
  <rect style="fill:#e05233" width="40" height="40" x="-44" y="-44" rx="2" ry="2" transform="matrix(0,-1,-1,0,0,0)"/>
  <path fill="#fff" style="opacity:0.1" d="m6 4c-1.108 0-2 0.892-2 2v1c0-1.108 0.892-2 2-2h36c1.108 0 2 0.892 2 2v-1c0-1.108-0.892-2-2-2h-36z"/>
  <path opacity=".2" d="m6 45c-1.108 0-2-0.892-2-2v-1c0 1.108 0.892 2 2 2h36c1.108 0 2-0.892 2-2v1c0 1.108-0.892 2-2 2h-36z"/>
  <g style="opacity:0.2" transform="matrix(.5 0 0 .5 12 15)">
   <path d="m42-6.0008-28 5v27.2668c-0.653-0.173-1.325-0.262-2-0.266-4.4183 0-8 3.5817-8 8s3.5817 8 8 8c4.0287-0.0038 7.4261-3.0029 7.9297-7 0 0 0.07031-0.72732 0.07031-1v-30.0708l16-2.8574v20.1938c-0.653-0.173-1.325-0.262-2-0.266-4.4183 0-8 3.5817-8 8s3.5817 8 8 8c4.0287-0.0038 7.4261-3.0029 7.9297-7l0.07-1v-35.0008z"/>
  </g>
  <g style="fill:#ffffff" transform="matrix(.5 0 0 .5 12 14)">
   <path style="fill:#ffffff" d="m42-6.0008-28 5v27.2668c-0.653-0.173-1.325-0.262-2-0.266-4.4183 0-8 3.5817-8 8s3.5817 8 8 8c4.0287-0.0038 7.4261-3.0029 7.9297-7 0 0 0.07031-0.72732 0.07031-1v-30.0708l16-2.8574v20.1938c-0.653-0.173-1.325-0.262-2-0.266-4.4183 0-8 3.5817-8 8s3.5817 8 8 8c4.0287-0.0038 7.4261-3.0029 7.9297-7l0.07-1v-35.0008z"/>
  </g>
 </g>
</svg>
