<?xml version="1.0" encoding="UTF-8" standalone="no"?>
<svg
   width="192"
   height="192"
   version="1.1"
   id="svg33"
   sodipodi:docname="apps_mediaget.svg"
   inkscape:version="1.1-rc (1:1.1+rc+202105232036+f4db50c7c1)"
   xmlns:inkscape="http://www.inkscape.org/namespaces/inkscape"
   xmlns:sodipodi="http://sodipodi.sourceforge.net/DTD/sodipodi-0.dtd"
   xmlns:xlink="http://www.w3.org/1999/xlink"
   xmlns="http://www.w3.org/2000/svg"
   xmlns:svg="http://www.w3.org/2000/svg">
  <sodipodi:namedview
     id="namedview35"
     pagecolor="#ffffff"
     bordercolor="#666666"
     borderopacity="1.0"
     inkscape:pageshadow="2"
     inkscape:pageopacity="0.0"
     inkscape:pagecheckerboard="0"
     showgrid="false"
     inkscape:zoom="4.97"
     inkscape:cx="67.706237"
     inkscape:cy="112.37425"
     inkscape:window-width="1920"
     inkscape:window-height="1019"
     inkscape:window-x="0"
     inkscape:window-y="34"
     inkscape:window-maximized="1"
     inkscape:current-layer="svg33" />
  <defs
     id="defs11">
    <linearGradient
       id="linearGradient845"
       x1="301.29599"
       x2="306.31799"
       y1="260.40601"
       y2="284.69"
       gradientTransform="matrix(2.1043574,0,0,3.6722348,-540.6934,-908.28752)"
       gradientUnits="userSpaceOnUse"
       xlink:href="#a" />
    <linearGradient
       id="a"
       x1="0.094999999"
       x2="0.28299999"
       y2="0.90899998"
       gradientUnits="objectBoundingBox">
      <stop
         offset="0"
         stop-color="#fff"
         id="stop3" />
      <stop
         offset="1"
         stop-color="#fff"
         stop-opacity="0"
         id="stop5" />
    </linearGradient>
    <linearGradient
       id="b"
       x1="95.098999"
       x2="89.650002"
       y1="289.35699"
       y2="265.077"
       gradientTransform="matrix(2.1040751,0,0,3.6727274,-99.7725,-918.72896)"
       gradientUnits="userSpaceOnUse"
       xlink:href="#a" />
    <linearGradient
       id="c"
       x1="0.37200001"
       x2="32.138"
       y1="418.54501"
       y2="412.646"
       gradientTransform="matrix(3.7391253,0,0,2.0667118,30.60714,-767.1506)"
       gradientUnits="userSpaceOnUse"
       xlink:href="#a" />
    <linearGradient
       id="d"
       x1="34.015999"
       x2="3.053"
       y1="694.50897"
       y2="702.24103"
       gradientTransform="matrix(3.7378602,0,0,2.0674113,32.017724,-1343.1431)"
       gradientUnits="userSpaceOnUse"
       xlink:href="#a" />
    <filter
       inkscape:collect="always"
       style="color-interpolation-filters:sRGB"
       id="filter874"
       x="-0.048000001"
       y="-0.048000001"
       width="1.096"
       height="1.096">
      <feGaussianBlur
         inkscape:collect="always"
         stdDeviation="3.2"
         id="feGaussianBlur876" />
    </filter>
    <filter
       inkscape:collect="always"
       style="color-interpolation-filters:sRGB"
       id="filter878"
       x="-0.049714303"
       y="-0.046399989"
       width="1.0994286"
       height="1.0928">
      <feGaussianBlur
         inkscape:collect="always"
         stdDeviation="1.1599997"
         id="feGaussianBlur880" />
    </filter>
  </defs>
  <circle
     style="opacity:0.2;stroke-width:4;filter:url(#filter874)"
     cx="96"
     cy="100"
     r="80"
     id="circle13" />
  <circle
     style="fill:#0099f2;stroke-width:4"
     cx="96"
     cy="96"
     r="80"
     id="circle15" />
  <path
     style="fill:url(#linearGradient845);stroke-width:4"
     d="m 104.57907,146.08776 -1.16199,-8.92896 A 40.586148,40.586148 0 0 0 94.6716,56.962248 c -0.569872,0 -1.136968,0.014 -1.70128,0.0388 v -0.07504 c -0.15012,0.014 -0.303,0.0224 -0.4559,0.0224 a 4.4811556,4.4811556 0 1 1 0.511496,-8.928952 c 0.555976,-0.0196 1.111948,-0.0304 1.654024,-0.0304 a 49.551236,49.551236 0 0 1 9.90747,98.098944 z"
     id="path17" />
  <path
     style="fill:url(#b);stroke-width:4"
     d="m 87.635424,45.903688 1.164764,8.928952 a 40.586148,40.586148 0 0 0 8.74548,80.19656 c 0.569876,0 1.136968,-0.014 1.701284,-0.0388 v 0.0723 a 4.4811556,4.4811556 0 1 1 0.4559,8.93729 4.4950548,4.4950548 0 0 1 -0.511496,-0.0332 c -0.555976,0.0196 -1.111952,0.0332 -1.654024,0.0332 A 49.551236,49.551236 0 0 1 87.629864,45.900908 Z"
     id="path19" />
  <path
     style="fill:url(#c);stroke-width:4"
     d="m 150.35851,85.572696 c -5.35724,-28.099492 -31.2069,-47.514852 -59.686198,-44.829592 -28.479296,2.68526 -50.244376,24.591424 -50.255,53.19704 0,0.515204 0.0076,1.028552 0.0224,1.540048 h -0.06116 c 0.594892,5.487468 -7.636313,6.379808 -8.231206,0.89234 h -0.09452 c -0.03056,-0.811724 -0.05282,-1.629004 -0.05282,-2.449068 C 31.977936,60.821176 57.24708,35.184878 90.219192,32.252092 123.1913,29.319306 152.94128,52.060492 158.76206,84.647 l -8.39522,0.909016 z"
     id="path21" />
  <path
     style="fill:url(#d);stroke-width:4"
     d="m 41.819556,106.4273 c 5.35724,28.0995 31.206904,47.51486 59.686204,44.8296 28.47929,-2.68526 50.24437,-24.59143 50.255,-53.197044 0,-0.515204 -0.008,-1.028552 -0.0224,-1.540048 h 0.0612 c -0.0208,-0.16324 -0.0316,-0.32752 -0.0332,-0.492036 9.4e-4,-5.260708 7.75519,-5.636296 8.26456,-0.400304 h 0.0945 c 0.0304,0.811724 0.0528,1.629004 0.0528,2.449068 0.0224,33.102584 -25.24678,58.739344 -58.2192,61.672144 -32.972404,2.93281 -62.722565,-19.8088 -68.543,-52.39568 l 8.39522,-0.90902 z"
     id="path23" />
  <path
     style="opacity:0.2;stroke-width:4;filter:url(#filter878)"
     d="M 123.56272,97.707028 99.34396,128.12508 c -0.72844,1.1376 -1.928096,1.8351 -3.224716,1.87492 v 0 h -0.12064 -0.12064 v 0 c -1.296508,-0.0402 -2.495988,-0.73766 -3.22472,-1.87492 L 68.434464,97.707028 c 0,0 -1.828024,-3.72262 2.015448,-3.72262 h 8.360592 c 0.646576,-2e-5 1.170724,-0.555572 1.170724,-1.240872 v -19.0318 C 79.986884,71.66004 81.557728,69.999992 83.493496,70 h 25.000984 c 1.93978,0 3.4149,1.66898 3.51228,3.72262 v 8.435752 0 10.590608 c 0,0.685312 0.52416,1.240872 1.17076,1.240872 h 8.36975 c 3.85117,0 2.01545,3.722616 2.01545,3.722616 z"
     id="path25" />
  <path
     style="fill:#52ff45;stroke-width:4"
     d="M 123.56272,95.707028 99.34396,126.12508 c -0.72844,1.1376 -1.928096,1.8351 -3.224716,1.87492 v 0 h -0.12064 -0.12064 v 0 c -1.296508,-0.0402 -2.495988,-0.73766 -3.22472,-1.87492 L 68.434464,95.707028 c 0,0 -1.828024,-3.72262 2.015448,-3.72262 h 8.360592 c 0.646576,-2e-5 1.170724,-0.555572 1.170724,-1.240872 v -19.0318 C 79.986884,69.66004 81.557728,67.999992 83.493496,68 h 25.000984 c 1.93978,0 3.4149,1.66898 3.51228,3.72262 v 8.435752 0 10.590608 c 0,0.685312 0.52416,1.240872 1.17076,1.240872 h 8.36975 c 3.85117,0 2.01545,3.722616 2.01545,3.722616 z"
     id="path27" />
  <path
     id="path29"
     style="opacity:0.2;fill:#ffffff;stroke-width:4"
     d="M 96 16 A 80 80 0 0 0 16 96 A 80 80 0 0 0 16.023438 96.638672 A 80 80 0 0 1 96 17 A 80 80 0 0 1 175.98438 96.302734 A 80 80 0 0 0 176 96 A 80 80 0 0 0 96 16 z " />
  <path
     id="path31"
     style="opacity:0.2;fill:#ffffff;stroke-width:4"
     d="M 83.492188 68 C 81.55642 67.999992 79.990031 69.659241 79.984375 71.710938 L 79.984375 72.710938 C 79.990031 70.659241 81.55642 68.999992 83.492188 69 L 108.49219 69 C 110.43196 69 111.91041 70.665106 112.00781 72.71875 L 112.00781 71.71875 C 111.91044 69.665106 110.43196 68 108.49219 68 L 83.492188 68 z M 79.984375 90.742188 C 79.984375 91.427487 79.459076 91.984355 78.8125 91.984375 L 70.453125 91.984375 C 68.109639 91.984375 67.877308 93.366198 68.050781 94.445312 C 68.205869 93.665893 68.807934 92.984375 70.453125 92.984375 L 78.8125 92.984375 C 79.459076 92.984355 79.984375 92.427487 79.984375 91.742188 L 79.984375 90.742188 z M 112.00781 90.75 L 112.00781 91.75 C 112.00781 92.435312 112.5331 92.992188 113.17969 92.992188 L 121.54688 92.992188 C 123.19164 92.992187 123.79492 93.669706 123.95117 94.445312 C 124.12553 93.368742 123.89354 91.992188 121.54688 91.992188 L 113.17969 91.992188 C 112.5331 91.992188 112.00781 91.435312 112.00781 90.75 z " />
</svg>
