<?xml version="1.0" encoding="UTF-8" standalone="no"?>
<svg
   width="192"
   height="192"
   version="1"
   id="svg18"
   sodipodi:docname="apps_authorizer.svg"
   inkscape:version="1.1-rc (1:1.1+rc+202105232036+f4db50c7c1)"
   xmlns:inkscape="http://www.inkscape.org/namespaces/inkscape"
   xmlns:sodipodi="http://sodipodi.sourceforge.net/DTD/sodipodi-0.dtd"
   xmlns="http://www.w3.org/2000/svg"
   xmlns:svg="http://www.w3.org/2000/svg"
   xmlns:rdf="http://www.w3.org/1999/02/22-rdf-syntax-ns#"
   xmlns:cc="http://creativecommons.org/ns#"
   xmlns:dc="http://purl.org/dc/elements/1.1/">
  <metadata
     id="metadata24">
    <rdf:RDF>
      <cc:Work
         rdf:about="">
        <dc:format>image/svg+xml</dc:format>
        <dc:type
           rdf:resource="http://purl.org/dc/dcmitype/StillImage" />
      </cc:Work>
    </rdf:RDF>
  </metadata>
  <defs
     id="defs22">
    <filter
       inkscape:collect="always"
       style="color-interpolation-filters:sRGB"
       id="filter873"
       x="-0.068000001"
       width="1.136"
       y="-0.037090909"
       height="1.0741818">
      <feGaussianBlur
         inkscape:collect="always"
         stdDeviation="1.36"
         id="feGaussianBlur875" />
    </filter>
    <filter
       inkscape:collect="always"
       style="color-interpolation-filters:sRGB"
       id="filter1984"
       x="-0.048000001"
       y="-0.048000001"
       width="1.096"
       height="1.096">
      <feGaussianBlur
         inkscape:collect="always"
         stdDeviation="3.2"
         id="feGaussianBlur1986" />
    </filter>
  </defs>
  <sodipodi:namedview
     pagecolor="#ffffff"
     bordercolor="#666666"
     borderopacity="1"
     objecttolerance="10"
     gridtolerance="10"
     guidetolerance="10"
     inkscape:pageopacity="0"
     inkscape:pageshadow="2"
     inkscape:window-width="1920"
     inkscape:window-height="1014"
     id="namedview20"
     showgrid="false"
     inkscape:zoom="1.63"
     inkscape:cx="96.01227"
     inkscape:cy="86.809816"
     inkscape:window-x="0"
     inkscape:window-y="34"
     inkscape:window-maximized="1"
     inkscape:current-layer="svg18"
     inkscape:pagecheckerboard="0" />
  <rect
     style="opacity:0.2;fill:#000000;fill-opacity:1;stroke-width:4.59352;stroke-linecap:round;stroke-linejoin:round;filter:url(#filter1984)"
     id="rect1946"
     width="160"
     height="160"
     x="16"
     y="20"
     rx="30"
     ry="30" />
  <rect
     style="fill:#e53ebd;stroke-width:4.59352;stroke-linecap:round;stroke-linejoin:round;fill-opacity:1"
     id="rect854"
     width="160"
     height="160"
     x="16"
     y="16"
     rx="30"
     ry="30" />
  <path
     inkscape:connector-curvature="0"
     id="path12"
     d="M 88,52 V 93.406248 C 78.422524,96.792388 72.014252,105.84156 72,116 c 0,13.25483 10.745168,24 24,24 13.25483,0 24,-10.74517 24,-24 -0.0108,-10.1613 -6.41982,-19.214468 -16,-22.601564 V 76 h 16 V 60 h -16 v -8 z m 8,56 c 4.41828,0 8,3.58172 8,8 0,4.41828 -3.58172,8 -8,8 -4.418276,0 -8,-3.58172 -8,-8 0,-4.41828 3.581724,-8 8,-8 z"
     style="opacity:0.2;stroke-width:4;filter:url(#filter873)" />
  <path
     inkscape:connector-curvature="0"
     id="path14"
     d="M 88,48 V 89.406248 C 78.422524,92.792388 72.014252,101.84156 72,112 c 0,13.25483 10.745168,24 24,24 13.25483,0 24,-10.74517 24,-24 -0.0108,-10.1613 -6.41982,-19.214468 -16,-22.601564 V 72 h 16 V 56 h -16 v -8 z m 8,56 c 4.41828,0 8,3.58172 8,8 0,4.41828 -3.58172,8 -8,8 -4.418276,0 -8,-3.58172 -8,-8 0,-4.41828 3.581724,-8 8,-8 z"
     style="fill:#ffffff;stroke-width:4" />
  <path
     id="rect1988"
     style="fill:#ffffff;stroke-width:4.59352;stroke-linecap:round;stroke-linejoin:round;fill-opacity:1;opacity:0.2"
     d="M 46 16 C 29.38 16 16 29.38 16 46 L 16 47 C 16 30.38 29.38 17 46 17 L 146 17 C 162.62 17 176 30.38 176 47 L 176 46 C 176 29.38 162.62 16 146 16 L 46 16 z " />
</svg>
