<?xml version="1.0" encoding="UTF-8" standalone="no"?>
<svg
   width="192"
   height="192"
   version="1.1"
   id="svg14"
   sodipodi:docname="apps_yoga.svg"
   inkscape:version="1.1.1 (1:1.1+202109281949+c3084ef5ed)"
   xmlns:inkscape="http://www.inkscape.org/namespaces/inkscape"
   xmlns:sodipodi="http://sodipodi.sourceforge.net/DTD/sodipodi-0.dtd"
   xmlns="http://www.w3.org/2000/svg"
   xmlns:svg="http://www.w3.org/2000/svg">
  <defs
     id="defs18">
    <filter
       inkscape:collect="always"
       style="color-interpolation-filters:sRGB"
       id="filter849"
       x="-0.048000001"
       y="-0.048000001"
       width="1.096"
       height="1.096">
      <feGaussianBlur
         inkscape:collect="always"
         stdDeviation="3.2"
         id="feGaussianBlur851" />
    </filter>
    <filter
       inkscape:collect="always"
       style="color-interpolation-filters:sRGB"
       id="filter2635"
       x="-0.048000002"
       y="-0.048000002"
       width="1.096"
       height="1.096">
      <feGaussianBlur
         inkscape:collect="always"
         stdDeviation="2.4"
         id="feGaussianBlur2637" />
    </filter>
  </defs>
  <sodipodi:namedview
     id="namedview16"
     pagecolor="#ffffff"
     bordercolor="#666666"
     borderopacity="1.0"
     inkscape:pageshadow="2"
     inkscape:pageopacity="0.0"
     inkscape:pagecheckerboard="0"
     showgrid="false"
     inkscape:zoom="1"
     inkscape:cx="100.5"
     inkscape:cy="106.5"
     inkscape:window-width="1920"
     inkscape:window-height="1019"
     inkscape:window-x="0"
     inkscape:window-y="34"
     inkscape:window-maximized="1"
     inkscape:current-layer="svg14"
     showguides="false">
    <inkscape:grid
       type="xygrid"
       id="grid1233" />
  </sodipodi:namedview>
  <circle
     style="opacity:0.2;stroke-width:4;filter:url(#filter849)"
     cx="96"
     cy="100"
     r="80"
     id="circle2" />
  <circle
     style="fill:#e4e4e4;fill-opacity:1;stroke-width:4"
     cx="96"
     cy="96"
     r="80"
     id="circle4" />
  <path
     id="path12"
     style="opacity:0.1;fill:#ffffff;stroke-width:4"
     d="M 96,16 A 80,80 0 0 0 16,96 80,80 0 0 0 16.023438,96.638672 80,80 0 0 1 96,17 80,80 0 0 1 175.98438,96.302734 80,80 0 0 0 176,96 80,80 0 0 0 96,16 Z" />
  <path
     id="path2597"
     style="opacity:0.2;fill:#000000;fill-opacity:1;stroke-width:0.252159;filter:url(#filter2635)"
     d="M 96,38 A 60,60 0 0 0 36,98 60,60 0 0 0 96,158 60,60 0 0 0 156,98 60,60 0 0 0 96,38 Z m 0,5 A 55,55 0 0 1 151,98 55,55 0 0 1 96,153 55,55 0 0 1 41,98 55,55 0 0 1 96,43 Z m -0.933594,18 c -1.010699,0.0021 -2.0264,0.151083 -2.583984,0.445312 -2.659493,1.403363 -3.304272,5.510391 -1.31836,8.400391 0.747534,1.087847 0.762245,1.163419 0.486329,2.494141 -0.209457,1.010226 -0.484011,1.540808 -1.042969,2.011718 -0.846609,0.713256 -1.434146,0.773273 -3.478516,0.351563 -1.12972,-0.233033 -1.843026,-0.214029 -3.68164,0.101563 -2.674224,0.45902 -6.349357,0.200017 -7.421875,-0.523438 -0.550189,-0.371133 -1.279031,-0.41542 -5.753907,-0.34375 -2.818229,0.04512 -6.558828,-0.05046 -8.314453,-0.212891 C 58.60875,73.414817 57,73.584981 57,74.25 c 0,0.446498 3.732779,1.432686 6.300781,1.664062 0.996008,0.08974 3.025806,0.584998 4.66211,1.138672 2.404788,0.813717 3.369693,1.007157 5.669921,1.134766 2.272649,0.126079 3.112569,0.291491 4.66211,0.917969 1.586268,0.641331 2.314374,0.779408 4.535156,0.861328 1.455323,0.05369 2.891981,0.21906 3.191406,0.367187 0.784759,0.388224 1.717856,1.811069 2.488282,6.515625 0.777313,4.746592 0.741055,7.400446 -0.134766,9.949219 -0.613004,1.78394 -1.790104,2.969368 -4.953125,7.224612 -1.323382,1.78035 -2.973873,4.20324 -3.666016,5.38281 -1.508831,2.57137 -2.255726,3.39825 -4.738281,5.24414 -2.379815,1.76947 -4.546264,4.03326 -6.439453,6.72852 -1.134806,1.6156 -1.798547,2.28939 -2.873047,2.91992 -2.102785,1.23396 -4.518724,3.08997 -4.689453,3.60156 -0.515293,1.54399 1.998862,1.52929 5.080078,-0.0293 1.452675,-0.73482 2.415054,-1.45717 3.554688,-2.66797 1.027449,-1.09159 2.078652,-1.90865 3.068359,-2.38867 1.894681,-0.91893 2.790323,-1.5544 4.724609,-3.34961 0.848728,-0.7877 2.208949,-1.85906 3.023438,-2.3789 0.814489,-0.51985 2.275885,-1.47614 3.246094,-2.125 2.651939,-1.77354 7.844909,-4.88633 9.691406,-5.72461 1.531754,-0.69539 1.714488,-0.72346 2.929687,-0.45117 0.713025,0.15976 2.134586,0.6941 3.158204,1.18945 2.980982,1.44255 4.418382,2.10335 7.570312,2.74609 3.30884,0.67472 4.68615,1.1663 4.91211,1.75586 0.0842,0.21959 -0.2235,1.04709 -0.44141,1.83985 -0.75063,2.73085 -0.78605,4.35256 -0.16211,7.66797 l 0.77735,3.07031 -0.55078,2.44336 c -0.30277,1.34464 -0.48239,2.62002 -0.40039,2.83398 0.17967,0.46879 0.89285,0.6835 2.28906,0.6875 0.57409,0.002 1.66957,0.29285 2.44531,0.64844 0.77332,0.35448 2.41902,0.80064 3.29102,0.99023 2.13853,0.46501 2.72476,0.45864 3.26757,-0.0332 1.08201,-0.98042 0.29623,-2.14832 -1.68164,-2.5 -1.31685,-0.23413 -3.60556,-1.24208 -4.36132,-2.05859 -0.79629,-0.86028 -0.7915,-2.53877 0.0176,-5.29883 1.51038,-5.15255 2.07337,-13.6649 1,-15.12696 -0.9217,-1.25548 -4.4091,-3.58753 -8.09765,-5.41406 -3.99808,-1.97977 -4.19701,-2.44775 -4.76367,-3.54492 -0.5843,-1.131279 -1.59652,-6.633569 -1.60352,-8.699218 -0.009,-2.85165 0.81919,-8.998495 1.53125,-11.339844 0.24162,-0.794489 1.07811,-1.361328 2.00781,-1.361328 0.76583,0 2.74981,-1.093782 4.33985,-2.390625 1.50061,-1.223904 2.82186,-1.599609 3.71289,-1.599609 0.49201,0 4.66236,-1.395982 8.60937,-2.88086 1.40271,-0.527735 1.95992,-0.609179 3.27735,-0.486328 1.70689,0.159162 2.5863,-0.110984 4.17187,-1.279297 0.45815,-0.337579 1.37824,-0.682637 2.08008,-0.779297 1.24205,-0.171036 2.55743,-0.923217 2.21484,-1.267578 -0.0969,-0.09738 -0.53885,-0.0513 -0.98242,0.103516 -0.4556,0.159018 -2.46344,0.281225 -4.61328,0.28125 -2.43146,2.6e-5 -4.5322,0.143616 -5.82031,0.396484 -1.10883,0.217667 -3.54686,0.484563 -5.41797,0.59375 -2.16273,0.126204 -3.87588,0.07227 -5.66992,1.439453 -3.14067,1.718932 -4.28729,1.811307 -6.1836,1.816407 -1.35065,0.0036 -1.84433,0.133656 -2.88867,0.753906 -1.38788,0.824276 -2.72789,0.964218 -3.513671,0.36914 -0.269048,-0.203751 -0.698061,-0.36914 -0.953125,-0.36914 -0.790093,0 -0.855785,-0.777334 -0.111328,-1.320313 0.511063,-0.372746 0.671875,-0.704936 0.671875,-1.394531 0,-0.497895 0.146942,-1.083649 0.326171,-1.302734 0.243628,-0.297807 0.289818,-1.136163 0.1875,-3.320313 C 99.849828,63.938807 99.788658,63.655019 99.134766,62.796875 98.746448,62.287251 98.066338,61.67341 97.623047,61.433594 97.083424,61.141674 96.077106,60.997887 95.066406,61 Z" />
  <path
     id="path1429"
     style="fill:#d13880;fill-opacity:1;stroke-width:0.252159"
     d="M 96 36 A 60 60 0 0 0 36 96 A 60 60 0 0 0 96 156 A 60 60 0 0 0 156 96 A 60 60 0 0 0 96 36 z M 96 41 A 55 55 0 0 1 151 96 A 55 55 0 0 1 96 151 A 55 55 0 0 1 41 96 A 55 55 0 0 1 96 41 z M 95.066406 59 C 94.055707 59.002113 93.040006 59.151083 92.482422 59.445312 C 89.822929 60.848675 89.17815 64.955703 91.164062 67.845703 C 91.911596 68.93355 91.926307 69.009122 91.650391 70.339844 C 91.440934 71.35007 91.16638 71.880652 90.607422 72.351562 C 89.760813 73.064818 89.173276 73.124835 87.128906 72.703125 C 85.999186 72.470092 85.28588 72.489096 83.447266 72.804688 C 80.773042 73.263708 77.097909 73.004705 76.025391 72.28125 C 75.475202 71.910117 74.74636 71.86583 70.271484 71.9375 C 67.453255 71.982619 63.712656 71.887043 61.957031 71.724609 C 58.60875 71.414817 57 71.584981 57 72.25 C 57 72.696498 60.732779 73.682686 63.300781 73.914062 C 64.296789 74.003806 66.326587 74.49906 67.962891 75.052734 C 70.367679 75.866451 71.332584 76.059891 73.632812 76.1875 C 75.905461 76.313579 76.745381 76.478991 78.294922 77.105469 C 79.88119 77.7468 80.609296 77.884877 82.830078 77.966797 C 84.285401 78.020483 85.722059 78.185857 86.021484 78.333984 C 86.806243 78.722208 87.73934 80.145053 88.509766 84.849609 C 89.287079 89.596201 89.250821 92.250055 88.375 94.798828 C 87.761996 96.582768 86.584896 97.768196 83.421875 102.02344 C 82.098493 103.80379 80.448002 106.22668 79.755859 107.40625 C 78.247028 109.97762 77.500133 110.8045 75.017578 112.65039 C 72.637763 114.41986 70.471314 116.68365 68.578125 119.37891 C 67.443319 120.99451 66.779578 121.6683 65.705078 122.29883 C 63.602293 123.53279 61.186354 125.3888 61.015625 125.90039 C 60.500332 127.44438 63.014487 127.42968 66.095703 125.87109 C 67.548378 125.13627 68.510757 124.41392 69.650391 123.20312 C 70.67784 122.11153 71.729043 121.29447 72.71875 120.81445 C 74.613431 119.89552 75.509073 119.26005 77.443359 117.46484 C 78.292087 116.67714 79.652308 115.60578 80.466797 115.08594 C 81.281286 114.56609 82.742682 113.6098 83.712891 112.96094 C 86.36483 111.1874 91.5578 108.07461 93.404297 107.23633 C 94.936051 106.54094 95.118785 106.51287 96.333984 106.78516 C 97.047009 106.94492 98.46857 107.47926 99.492188 107.97461 C 102.47317 109.41716 103.91057 110.07796 107.0625 110.7207 C 110.37134 111.39542 111.74865 111.887 111.97461 112.47656 C 112.05878 112.69615 111.75111 113.52365 111.5332 114.31641 C 110.78257 117.04726 110.74715 118.66897 111.37109 121.98438 L 112.14844 125.05469 L 111.59766 127.49805 C 111.29489 128.84269 111.11527 130.11807 111.19727 130.33203 C 111.37694 130.80082 112.09012 131.01553 113.48633 131.01953 C 114.06042 131.02143 115.1559 131.31238 115.93164 131.66797 C 116.70496 132.02245 118.35066 132.46861 119.22266 132.6582 C 121.36119 133.12321 121.94742 133.11684 122.49023 132.625 C 123.57224 131.64458 122.78646 130.47668 120.80859 130.125 C 119.49174 129.89087 117.20303 128.88292 116.44727 128.06641 C 115.65098 127.20613 115.65577 125.52764 116.46484 122.76758 C 117.97522 117.61503 118.53821 109.10268 117.46484 107.64062 C 116.54314 106.38514 113.05574 104.05309 109.36719 102.22656 C 105.36911 100.24679 105.17018 99.778809 104.60352 98.681641 C 104.01922 97.550361 103.007 92.048071 103 89.982422 C 102.99069 87.130772 103.81919 80.983927 104.53125 78.642578 C 104.77287 77.848089 105.60936 77.28125 106.53906 77.28125 C 107.30489 77.28125 109.28887 76.187468 110.87891 74.890625 C 112.37952 73.666721 113.70077 73.291016 114.5918 73.291016 C 115.08381 73.291016 119.25416 71.895034 123.20117 70.410156 C 124.60388 69.882421 125.16109 69.800977 126.47852 69.923828 C 128.18541 70.08299 129.06482 69.812844 130.65039 68.644531 C 131.10854 68.306952 132.02863 67.961894 132.73047 67.865234 C 133.97252 67.694198 135.2879 66.942017 134.94531 66.597656 C 134.84844 66.500278 134.40646 66.546358 133.96289 66.701172 C 133.50729 66.86019 131.49945 66.982397 129.34961 66.982422 C 126.91815 66.982448 124.81741 67.126038 123.5293 67.378906 C 122.42047 67.596573 119.98244 67.863469 118.11133 67.972656 C 115.9486 68.09886 114.23545 68.044926 112.44141 69.412109 C 109.30074 71.131041 108.15412 71.223416 106.25781 71.228516 C 104.90716 71.232087 104.41348 71.362172 103.36914 71.982422 C 101.98126 72.806698 100.64125 72.94664 99.855469 72.351562 C 99.586421 72.147811 99.157408 71.982422 98.902344 71.982422 C 98.112251 71.982422 98.046559 71.205088 98.791016 70.662109 C 99.302079 70.289363 99.462891 69.957173 99.462891 69.267578 C 99.462891 68.769683 99.609833 68.183929 99.789062 67.964844 C 100.03269 67.667037 100.07888 66.828681 99.976562 64.644531 C 99.849828 61.938807 99.788658 61.655019 99.134766 60.796875 C 98.746448 60.287251 98.066338 59.67341 97.623047 59.433594 C 97.083424 59.141674 96.077106 58.997887 95.066406 59 z " />
</svg>
