<?xml version="1.0" encoding="UTF-8" standalone="no"?>
<svg
   width="192"
   height="192"
   version="1"
   id="svg16"
   sodipodi:docname="apps_apus_launcher.svg"
   inkscape:version="1.1-rc (1:1.1+rc+202105232036+f4db50c7c1)"
   xmlns:inkscape="http://www.inkscape.org/namespaces/inkscape"
   xmlns:sodipodi="http://sodipodi.sourceforge.net/DTD/sodipodi-0.dtd"
   xmlns="http://www.w3.org/2000/svg"
   xmlns:svg="http://www.w3.org/2000/svg">
  <defs
     id="defs20">
    <filter
       inkscape:collect="always"
       style="color-interpolation-filters:sRGB"
       id="filter971"
       x="-0.048000001"
       y="-0.048000001"
       width="1.096"
       height="1.096">
      <feGaussianBlur
         inkscape:collect="always"
         stdDeviation="3.2"
         id="feGaussianBlur973" />
    </filter>
    <filter
       inkscape:collect="always"
       style="color-interpolation-filters:sRGB"
       id="filter4414"
       x="-0.063373768"
       y="-0.03862903"
       width="1.1267475"
       height="1.0772581">
      <feGaussianBlur
         inkscape:collect="always"
         stdDeviation="2.3743849"
         id="feGaussianBlur4416" />
    </filter>
    <filter
       inkscape:collect="always"
       style="color-interpolation-filters:sRGB"
       id="filter4418"
       x="-0.044341598"
       y="-0.052316356"
       width="1.0886832"
       height="1.1046327">
      <feGaussianBlur
         inkscape:collect="always"
         stdDeviation="1.6628099"
         id="feGaussianBlur4420" />
    </filter>
  </defs>
  <sodipodi:namedview
     id="namedview18"
     pagecolor="#ffffff"
     bordercolor="#666666"
     borderopacity="1.0"
     inkscape:pageshadow="2"
     inkscape:pageopacity="0.0"
     inkscape:pagecheckerboard="0"
     showgrid="false"
     inkscape:zoom="1"
     inkscape:cx="105.5"
     inkscape:cy="134.5"
     inkscape:window-width="1920"
     inkscape:window-height="1019"
     inkscape:window-x="0"
     inkscape:window-y="34"
     inkscape:window-maximized="1"
     inkscape:current-layer="svg16">
    <inkscape:grid
       type="xygrid"
       id="grid2010" />
  </sodipodi:namedview>
  <rect
     style="opacity:0.2;fill:#000000;stroke-width:4;filter:url(#filter971)"
     width="160"
     height="160"
     x="16"
     y="20"
     rx="80"
     ry="80"
     id="rect933" />
  <path
     id="path2973"
     style="fill:#0860d2;fill-opacity:1;stroke-width:4"
     d="M 95.882812 16.007812 A 80 80 0 0 0 16 96 A 80 80 0 0 0 96 176 A 80 80 0 0 0 97.234375 175.91211 C 98.801748 172.0949 100.44324 167.11801 102.13477 163.19922 C 105.22423 156.04177 108.26235 148.39037 110.42578 141.55078 C 112.58921 134.7112 113.86077 128.66099 113.48047 124.84375 C 112.30093 113.00415 104.58909 102.84491 96.988281 92.603516 C 89.387471 82.362123 81.894652 72.028528 81.462891 59.757812 C 81.14761 50.797534 87.060698 33.978761 93.015625 21.6875 C 93.989134 19.678128 94.93505 17.853186 95.882812 16.007812 z " />
  <path
     style="opacity:0.2;fill:#000000;fill-opacity:1;stroke-width:4;filter:url(#filter4414)"
     d="m 99.836999,26.501834 c -1.378948,2.632942 -6.460578,-2.990354 -7.920757,0.02353 -5.933197,12.246409 -11.753231,26.723697 -11.455078,35.197265 0.418104,11.88257 7.734345,22.050606 15.330078,32.285156 7.595738,10.234548 15.467208,20.526748 16.683598,32.736328 0.41164,4.13188 -0.91577,10.21566 -3.0957,17.10742 -2.17994,6.89176 -5.22852,14.56769 -8.32618,21.74414 -0.98993,2.29341 -1.965005,4.48352 -2.918613,6.58147 -0.917445,2.01839 4.360193,-0.90534 3.488363,0.95235 1.78688,-2.07419 -0.18541,0 0,0 21.18471,-2e-5 31.47262,-14.02867 43.07186,-26.5767 12.66724,-13.7034 25.67489,-26.92115 25.67489,-50.056443 0,-44.247274 -26.31356,-69.877681 -70.532461,-69.994513 z"
     id="path3720"
     sodipodi:nodetypes="cssssssscsssc" />
  <path
     style="fill:#ed34a5;fill-opacity:1;stroke-width:4"
     d="m 96.217023,16.005859 c -1.378948,2.632942 -2.840602,5.505651 -4.300781,8.519532 -5.933197,12.246409 -11.753231,26.723697 -11.455078,35.197265 0.418104,11.88257 7.734345,22.050606 15.330078,32.285156 7.595738,10.234548 15.467208,20.526748 16.683598,32.736328 0.41164,4.13188 -0.91577,10.21566 -3.0957,17.10742 -2.17994,6.89176 -5.22851,14.56769 -8.32618,21.74414 -1.942324,4.49985 -3.82744,8.60203 -5.605468,12.39063 0.185103,0.001 0.367326,0.0137 0.552734,0.0137 C 140.32023,176 176,140.32 176,96 176,51.752726 140.43592,16.122691 96.217023,16.005859 Z"
     id="rect2"
     sodipodi:nodetypes="csssssscssc" />
  <path
     style="opacity:0.2;fill:#000000;stroke-width:0.309616;filter:url(#filter4418)"
     d="m 108.26234,131.51665 c 9.85406,-1.19772 19.84558,-5.78105 28.58236,-13.11136 3.15003,-2.64293 9.56801,-9.22883 9.13438,-9.37338 -0.1603,-0.0534 -3.55703,0.0168 -7.5483,0.15598 -19.42191,0.67746 -30.90456,-1.19725 -38.34967,-6.26116 -1.265351,-0.86065 -2.310783,-1.6985 -2.323183,-1.86188 -0.01239,-0.16339 7.354163,-5.700989 16.370153,-12.305766 9.01598,-6.604773 16.53966,-12.161626 16.71928,-12.348548 0.36385,-0.378638 -0.2973,-0.0351 -18.25039,9.4833 -13.172248,6.983675 -23.221403,12.485556 -24.69191,13.518746 -0.468295,0.32903 -0.851445,0.864338 -0.851445,1.189568 0,0.95412 5.141793,5.92972 8.131273,7.86845 4.526424,2.93547 9.331062,4.68586 16.328422,5.94866 2.26594,0.40892 4.80299,0.53483 11.04848,0.5483 l 8.10713,0.0175 -0.64926,0.69276 c -2.08468,2.22437 -8.53461,5.75743 -13.39768,7.33879 -5.53932,1.80128 -8.14313,2.17294 -15.1712,2.16549 -5.546375,-0.006 -6.968313,-0.10813 -9.675215,-0.69573 -7.85133,-1.70434 -16.42128,-5.20217 -21.648152,-9.44642 -1.22514,-0.99484 -1.417334,-0.95311 -3.752827,-1.04797 h -2.462255 l 0.272459,-1.87087 c 0.118553,-0.81406 0.627138,-2.53902 1.060637,-3.84476 0.690107,-2.07869 0.800492,-3.00328 0.887129,-7.43081 0.186054,-9.507919 2.215467,-16.293557 7.022162,-23.479648 1.960249,-2.930596 7.112573,-8.437982 7.317855,-7.822137 0.06512,0.195349 -0.04184,0.885968 -0.237689,1.534705 -0.629794,2.086175 -0.74482,10.408949 -0.188046,13.606191 0.592807,3.404152 1.890908,7.64293 2.493854,8.14333 0.344576,0.28597 0.903641,0.12753 2.645887,-0.74985 1.21495,-0.61184 8.715277,-4.151852 16.667391,-7.8667 16.46075,-7.689665 19.35051,-9.12969 17.70936,-8.824917 -0.596,0.110684 -8.10204,2.070466 -16.68007,4.355067 -8.578033,2.284601 -15.674134,4.076116 -15.769115,3.981134 -0.661663,-0.661664 -0.90086,-10.883315 -0.349272,-14.925518 0.458956,-3.36339 1.632034,-7.877667 2.754301,-10.599185 0.520019,-1.261056 0.869678,-2.368645 0.777023,-2.461304 -0.341669,-0.341664 -9.055181,4.345634 -11.61104,6.245984 -12.723553,9.4603 -19.660115,23.534394 -19.484751,39.534038 0.03163,2.88565 -0.07719,3.85406 -0.574023,5.10868 -0.907749,2.29228 -2.234452,8.53381 -2.443447,11.49532 L 56,120.71297 h 5.405992 5.405996 l 3.386658,2.174 c 11.759441,7.54878 24.043543,10.3338 38.063694,8.6297 z"
     id="path3722"
     sodipodi:nodetypes="ssccsssssssssscsscssscsssssssssssssssssssscccsss" />
  <path
     style="fill:#ffffff;stroke-width:0.309616"
     d="m 108.26234,129.51668 c 9.85406,-1.19772 19.84558,-5.78105 28.58236,-13.11136 3.15003,-2.64293 9.56801,-9.22883 9.13438,-9.37338 -0.1603,-0.0534 -3.55703,0.0168 -7.5483,0.15598 -19.42191,0.67746 -30.90456,-1.19725 -38.34967,-6.26116 -1.265351,-0.86065 -2.310783,-1.698498 -2.323183,-1.861878 -0.01239,-0.16339 7.354163,-5.700991 16.370153,-12.305768 9.01598,-6.604773 16.53966,-12.161626 16.71928,-12.348548 0.36385,-0.378638 -0.2973,-0.0351 -18.25039,9.4833 -13.172248,6.983675 -23.221403,12.485556 -24.69191,13.518746 -0.468295,0.32903 -0.851445,0.86434 -0.851445,1.18957 0,0.95412 5.141793,5.929718 8.131273,7.868448 4.526424,2.93547 9.331062,4.68586 16.328422,5.94866 2.26594,0.40892 4.80299,0.53483 11.04848,0.5483 l 8.10713,0.0175 -0.64926,0.69276 c -2.08468,2.22437 -8.53461,5.75743 -13.39768,7.33879 -5.53932,1.80128 -8.14313,2.17294 -15.1712,2.16549 -5.546375,-0.006 -6.968313,-0.10813 -9.675215,-0.69573 -7.85133,-1.70434 -16.42128,-5.20217 -21.648152,-9.44642 -1.22514,-0.99484 -1.417334,-0.95311 -3.752827,-1.04797 h -2.462255 l 0.272459,-1.87087 c 0.118553,-0.81406 0.627138,-2.53902 1.060637,-3.84476 0.690107,-2.07869 0.800492,-3.00328 0.887129,-7.430808 0.186054,-9.507921 2.215467,-16.293559 7.022162,-23.47965 1.960249,-2.930596 7.112573,-8.437982 7.317855,-7.822137 0.06512,0.195349 -0.04184,0.885968 -0.237689,1.534705 -0.629794,2.086175 -0.74482,10.408949 -0.188046,13.606191 0.592807,3.404152 1.890908,7.64293 2.493854,8.14333 0.344576,0.28597 0.903641,0.12753 2.645887,-0.74985 1.21495,-0.61184 8.715277,-4.151852 16.667391,-7.8667 16.46075,-7.689665 19.35051,-9.12969 17.70936,-8.824917 -0.596,0.110684 -8.10204,2.070466 -16.68007,4.355067 -8.578033,2.284601 -15.674134,4.076116 -15.769115,3.981134 -0.661663,-0.661664 -0.90086,-10.883315 -0.349272,-14.925518 0.458956,-3.36339 1.632034,-7.877667 2.754301,-10.599185 0.520019,-1.261056 0.869678,-2.368645 0.777023,-2.461304 -0.341669,-0.341664 -9.055181,4.345634 -11.61104,6.245984 -12.723553,9.4603 -19.660115,23.534394 -19.484751,39.53404 0.03163,2.885648 -0.07719,3.854058 -0.574023,5.108678 -0.907749,2.29228 -2.234452,8.53381 -2.443447,11.49532 L 56,118.713 h 5.405992 5.405996 l 3.386658,2.174 c 11.759441,7.54878 24.043543,10.3338 38.063694,8.6297 z"
     id="path1571"
     sodipodi:nodetypes="ssccsssssssssscsscssscsssssssssssssssssssscccsss" />
  <path
     id="path4"
     style="opacity:0.1;fill:#ffffff;stroke-width:4"
     d="M 95.998047 16 C 51.678957 16.001054 16 51.680655 16 96 C 16 96.173903 16.008285 96.344936 16.011719 96.517578 C 16.270953 52.423274 51.840776 17.00105 95.998047 17 L 96 17 C 140.15727 17.00105 175.72709 52.423274 175.98633 96.517578 C 175.98966 96.344912 175.99805 96.173768 175.99805 96 C 175.99805 51.680655 140.31909 16.001054 96 16 L 95.998047 16 z " />
</svg>
