<?xml version="1.0" encoding="UTF-8" standalone="no"?>
<svg
   width="192"
   height="192"
   version="1"
   id="svg16"
   sodipodi:docname="apps_pregnancy_plus.svg"
   inkscape:version="1.1.1 (1:1.1+202109281949+c3084ef5ed)"
   xmlns:inkscape="http://www.inkscape.org/namespaces/inkscape"
   xmlns:sodipodi="http://sodipodi.sourceforge.net/DTD/sodipodi-0.dtd"
   xmlns="http://www.w3.org/2000/svg"
   xmlns:svg="http://www.w3.org/2000/svg"
   xmlns:rdf="http://www.w3.org/1999/02/22-rdf-syntax-ns#"
   xmlns:cc="http://creativecommons.org/ns#"
   xmlns:dc="http://purl.org/dc/elements/1.1/">
  <metadata
     id="metadata22">
    <rdf:RDF>
      <cc:Work
         rdf:about="">
        <dc:format>image/svg+xml</dc:format>
        <dc:type
           rdf:resource="http://purl.org/dc/dcmitype/StillImage" />
      </cc:Work>
    </rdf:RDF>
  </metadata>
  <defs
     id="defs20">
    <filter
       inkscape:collect="always"
       style="color-interpolation-filters:sRGB"
       id="filter867"
       x="-0.048000001"
       width="1.096"
       y="-0.048000001"
       height="1.096">
      <feGaussianBlur
         inkscape:collect="always"
         stdDeviation="3.2"
         id="feGaussianBlur869" />
    </filter>
    <filter
       inkscape:collect="always"
       style="color-interpolation-filters:sRGB"
       id="filter5009"
       x="-0.048000002"
       y="-0.048000002"
       width="1.096"
       height="1.096">
      <feGaussianBlur
         inkscape:collect="always"
         stdDeviation="2.4"
         id="feGaussianBlur5011" />
    </filter>
  </defs>
  <sodipodi:namedview
     pagecolor="#ffffff"
     bordercolor="#666666"
     borderopacity="1"
     objecttolerance="10"
     gridtolerance="10"
     guidetolerance="10"
     inkscape:pageopacity="0"
     inkscape:pageshadow="2"
     inkscape:window-width="1920"
     inkscape:window-height="1019"
     id="namedview18"
     showgrid="false"
     inkscape:zoom="1"
     inkscape:cx="95.5"
     inkscape:cy="94.5"
     inkscape:window-x="0"
     inkscape:window-y="34"
     inkscape:window-maximized="1"
     inkscape:current-layer="svg16"
     inkscape:pagecheckerboard="0">
    <inkscape:grid
       type="xygrid"
       id="grid7495" />
  </sodipodi:namedview>
  <rect
     id="rect849"
     ry="80"
     rx="80"
     height="160"
     width="160"
     y="-176"
     x="-180"
     transform="matrix(0,-1,-1,0,0,0)"
     style="opacity:0.2;fill:#000000;stroke-width:4;filter:url(#filter867)" />
  <rect
     style="fill:#fd6494;fill-opacity:1;stroke-width:4"
     transform="matrix(0,-1,-1,0,0,0)"
     x="-176"
     y="-176"
     width="160"
     height="160"
     rx="80"
     ry="80"
     id="rect2" />
  <path
     style="opacity:0.2;fill:#ffffff;stroke-width:4"
     d="M 96 16 C 51.68 16 16 51.68 16 96 C 16 96.336 16.002 96.6675 16 97 C 16 52.68 51.68 17 96 17 C 140.32 17 176 52.68 176 97 C 175.998 96.6675 176 96.336 176 96 C 176 51.68 140.32 16 96 16 z "
     id="path4" />
  <path
     id="path4971"
     style="opacity:0.2;fill:#000000;stroke-width:0.168728;filter:url(#filter5009)"
     d="M 96,38 A 60,60 0 0 0 36,98 60,60 0 0 0 96,158 60,60 0 0 0 156,98 60,60 0 0 0 96,38 Z m 0,6 a 54,54 0 0 1 48.22266,29.710938 c -0.18233,1.199473 -0.81564,2.349615 -1.60157,3.537109 -1.19187,1.80084 -3.46279,3.612767 -6.30273,5.029297 -0.76948,0.38382 -1.528,0.982336 -2.53906,2.003906 -2.41048,2.43554 -3.55712,5.229666 -3.87696,9.441406 -0.26543,3.49505 -0.86113,5.074866 -2.67382,6.041016 -1.52594,0.813318 -2.74473,1.203308 -6.26563,1.236328 -4.72755,0.0444 -6.41193,0.4917 -8.41016,1.7832 -0.93898,0.60689 -2.38671,1.53121 -2.38671,1.97657 0,0.13151 0.42815,0.19726 1.31054,0.19726 1.2649,0 1.34423,-0.0246 2.19532,-0.66406 1.82308,-1.36984 3.5464,-1.29883 8.89843,-1.29883 2.02813,0 3.99923,-0.0828 4.50196,-0.18945 1.19535,-0.25363 2.36427,-0.86195 3.2832,-1.70899 1.56961,-1.446807 2.19776,-3.414093 2.43359,-6.753903 0.30001,-4.24878 0.66608,-5.347725 2.33399,-7.015625 1.25323,-1.25323 2.66982,-1.843268 4.74414,-2.210938 3.21875,-0.57052 6.49503,0.233625 8.91406,2.515625 0.0954,0.08995 0.1625,0.163795 0.24414,0.246094 A 54,54 0 0 1 150,98 54,54 0 0 1 96,152 54,54 0 0 1 42,98 54,54 0 0 1 96,44 Z M 78.443359,55.046875 c -4.45436,-0.0187 -7.853377,0.73943 -11.388671,2.539063 C 59.740806,61.309027 55.656058,67.576716 56,75.191406 c 0.187282,4.14633 1.25995,7.197277 3.25,10.966797 2.471504,4.68148 3.476689,6.753776 3.902344,8.041016 0.934371,2.82567 0.677862,3.239328 0.816406,10.519531 0.112004,5.88541 0.175069,7.04472 0.464844,8.35352 1.545979,6.98258 6.037319,14.24407 11.890625,20.08398 6.9436,6.92772 15.134705,11.3368 21.984375,12.50781 2.238726,0.38273 5.387626,0.41692 7.244136,0.0801 2.56839,-0.46606 4.26687,-1.20561 6.0293,-2.625 2.80885,-2.26212 4.54253,-5.1946 5.29883,-8.76953 0.5095,-2.40832 0.20835,-6.94577 -0.5625,-8.45508 -0.14219,-0.2784 -0.84288,-1.11502 -1.55664,-1.85742 -2.91725,-3.03429 -4.48945,-5.50604 -5.38477,-7.50781 -0.46764,-1.04555 -0.95007,-2.92076 -0.71484,-2.77539 0.0847,0.0523 0.15447,0.22394 0.15625,0.38086 0.005,0.44486 1.58411,3.31279 2.65625,4.82421 0.53275,0.75102 2.03744,2.43443 3.34375,3.74219 3.29492,3.29856 4.2838,4.75074 4.79492,7.8086 0.31863,1.90629 0.95861,2.93164 2.09766,3.36328 0.60795,0.23037 1.15276,0.11776 2.78711,-0.58008 1.55785,-0.66518 2.44388,-0.67426 4.73242,-0.91016 0.97441,-0.10044 2.63129,-0.32554 3.4375,-0.5 2.21961,-0.48031 3.17383,-1.04552 3.17383,-1.88086 0,-0.26402 0.0807,-0.48047 0.17773,-0.48047 0.38118,0 1.00391,-0.53565 1.00391,-1.04687 0,-0.31136 0.10422,-0.55945 0.25976,-0.61914 0.42983,-0.16494 0.79138,-1.02187 0.58985,-1.39844 -0.28198,-0.52688 -0.70321,-0.54183 -2.20899,-0.082 -1.99282,0.60844 -3.26456,0.73552 -4.87304,0.55859 -3.81463,-0.41958 -7.10291,-2.95659 -8.88282,-6.34375 -0.32685,-0.62199 -0.9833,-2.26486 -1.46093,-3.65039 -1.9697,-5.71368 -4.19786,-9.0156 -6.81641,-10.51757 -1.68647,-0.96735 -3.86134,-0.5257 -5.67383,1.15234 -2.75705,2.55255 -4.27755,8.42554 -5.20508,20.59766 -0.18739,2.4592 -0.36734,4.77528 -0.40039,5.14648 -0.0331,0.3712 -0.0723,-0.65924 -0.0879,-2.28906 -0.0323,-3.37791 0.24942,-6.21695 1.06641,-12.14063 0.31337,-2.27213 0.54313,-4.15804 0.51172,-4.18945 -0.0314,-0.0314 -0.47466,0.22082 -0.98633,0.56055 -1.27155,0.84426 -1.99153,0.97713 -4.060548,0.75 -4.20058,-0.46111 -8.479128,-1.49156 -11.66211,-2.8086 -1.657899,-0.68599 -5.150113,-2.29714 -5.095703,-2.35156 0.0278,-0.0278 0.914376,0.25292 1.970703,0.625 3.2029,1.1282 9.236741,2.80005 11.5625,3.20312 3.96784,0.68764 5.112148,0.51688 6.517578,-0.96679 1.37472,-1.45125 4.98412,-6.52024 6.43945,-8.65235 0.85424,-1.2515 1.97199,-2.69532 2.48438,-3.20703 1.64859,-1.6464 5.85817,-4.357845 8.4668,-5.273435 1.89253,-0.66425 2.94149,-1.278669 3.00976,-1.761719 0.0559,-0.39518 0.0337,-0.40143 -0.88476,-0.30664 -0.51742,0.0534 -0.98173,0.02851 -1.03321,-0.05469 -0.0515,-0.0833 0.52016,-0.528511 1.15039,-0.83789 0.93093,-0.457 1.15698,-0.644314 1.19922,-1.001954 0.0676,-0.572559 -0.30922,-0.692453 -1.47851,-0.470703 -1.18174,0.22411 -1.45705,0.33881 -1.45703,0.05664 0,-0.13034 0.51694,-0.372096 1.02734,-0.660156 0.7882,-0.44483 0.92773,-0.595833 0.92773,-1.007813 0,-0.61764 -0.2541,-0.683254 -1.8164,-0.464844 -0.89728,0.12543 -1.37637,0.01811 -1.51758,-0.123047 -0.14468,-0.144678 -0.0541,-0.26716 0.36523,-0.49414 0.93461,-0.50588 1.21755,-0.849775 1.01172,-1.234375 -0.33743,-0.63049 -2.1842,0.01468 -4.54492,1.210937 -0.48083,0.24366 -0.94375,0.742188 -1.0293,0.742188 -0.0856,0 -0.20875,-0.282153 -0.27343,-0.626953 -0.25078,-1.33675 -0.90744,-1.953845 -1.42188,-1.333985 -0.10675,0.12862 -0.41001,1.290109 -0.67383,2.580078 -0.8723,4.26511 -2.03769,5.522999 -8.11718,10.548828 -2.58872,2.14006 -6.071758,5.64273 -7.064458,7.10352 -0.57751,0.84981 -0.713824,0.97603 -0.621094,0.58007 0.1875,-0.8007 0.549267,-1.46619 1.279297,-2.3496 0.37276,-0.4511 0.644182,-0.85388 0.601563,-0.89649 -0.0426,-0.0426 -0.898534,-0.43896 -1.902344,-0.88086 -2.2479,-0.98955 -3.855475,-1.74337 -6.140625,-2.87695 -3.64515,-1.80826 -7.316833,-3.405115 -8.550781,-3.720705 -1.50676,-0.38537 -3.936673,-0.431012 -5.1875,-0.09766 -1.541022,0.41064 -3.105403,1.399895 -3.779297,2.390621 -0.518219,0.76187 -0.645562,0.64218 -0.212891,-0.19921 2.329356,-2.61858 4.618081,-2.972565 7.667969,-3.332036 1.180088,-0.0681 2.237538,0.122903 4.214843,0.785156 4.31106,1.443891 5.38379,1.565837 6.69336,0.617188 0.634969,-0.45997 1.058594,-1.321535 1.058594,-2.146485 0,-0.27092 0.10992,-0.310868 0.71875,-0.267578 1.043,0.0742 1.675674,-0.479405 1.802734,-1.578125 0.003,-0.02574 0.0069,-0.03289 0.0098,-0.05664 0.07835,0.416486 0.346228,1.353516 0.68164,2.359375 0.848283,2.543894 0.992631,4.226136 0.347656,6.847656 l 3.072266,1.3457 c 0,0 2.386902,-2.33423 2.486332,-2.30468 0.72776,-2.06334 1.64153,-3.95116 2.68164,-5.162113 0.99534,-1.927602 -1.35557,-4.34459 -3.71485,-4.498047 -0.93912,-0.06108 -1.880223,-0.127507 -2.611325,0.894531 -0.294578,0.45143 -0.445443,1.113475 -0.519531,1.15625 -0.07413,0.0428 -0.322366,-0.139984 -0.550782,-0.40625 -0.470455,-0.548391 -0.937377,-0.862147 -1.292968,-0.917969 0.04802,-0.0093 0.07871,-0.01367 0.136718,-0.02734 0.862702,-0.20342 1.540319,-1.018678 1.423829,-1.710938 -0.0477,-0.28353 -0.136033,-0.637579 -0.195313,-0.787109 -0.0782,-0.19712 0.615175,-0.413726 1.203125,-0.791016 0.90838,-0.58291 1.475603,-1.389656 1.320313,-1.878906 -0.0564,-0.17785 -0.488888,-0.803975 -0.960938,-1.390625 -1.5211,-1.89033 -2.183612,-2.801873 -1.232422,-4.126953 1.342629,-1.8704 1.282353,-1.494918 1.101563,-6.75586 -0.17979,-5.2318 -0.413656,-6.794294 -1.359375,-9.083984 -1.51284,-3.66274 -3.407759,-6.187972 -7.355469,-8.80664 -3.466147,-2.494027 -7.708189,-3.305007 -10.728516,-3.320313 z m 59.406251,44.941406 c -0.30065,0.501079 -0.85624,0.407739 -1.35352,2.031249 -0.24295,0.79316 -0.73743,1.89483 -1.09765,2.44727 -1.24837,1.91455 -3.58397,3.37254 -5.55274,4.15429 -2.5081,0.71189 -5.29348,0.50029 -7.70117,-0.43164 -2.16552,-0.83882 -5.4013,-1.81384 -6.74805,-2.0332 l -0.75976,-0.12305 0.67969,0.49805 c 1.5662,1.14794 3.22073,3.63219 4.57812,6.87891 l 0.78711,1.88672 1.11133,-0.22852 c 0.61106,-0.12545 2.17347,-0.27076 3.47265,-0.32422 2.54776,-0.10482 3.5086,-0.21062 6.36524,0.80664 1.44876,0.51591 2.24568,0.55453 3.0625,0.14649 0.4053,-0.20248 0.7225,-0.55967 1.01172,-1.13868 0.2272,-2.71399 1.57307,-3.88466 2.59765,-5.64062 1.44629,-2.0539 1.96565,-3.48313 1.4336,-4.82813 -0.10334,-0.26125 -0.20405,-0.80952 -0.22461,-1.21875 -0.0283,-0.56404 -0.14388,-0.83492 -0.47656,-1.12109 -0.24138,-0.20762 -0.40138,-0.41501 -0.35547,-0.46094 0.0459,-0.0459 -0.032,-0.35853 -0.17188,-0.69336 -0.19182,-0.45907 -0.35334,-0.607419 -0.6582,-0.607419 z" />
  <path
     id="path944"
     style="opacity:1;fill:#ffffff;stroke-width:0.168728"
     d="M 96 36 A 60 60 0 0 0 36 96 A 60 60 0 0 0 96 156 A 60 60 0 0 0 156 96 A 60 60 0 0 0 96 36 z M 96 42 A 54 54 0 0 1 144.22266 71.710938 C 144.04033 72.910411 143.40702 74.060553 142.62109 75.248047 C 141.42922 77.048887 139.1583 78.860814 136.31836 80.277344 C 135.54888 80.661164 134.79036 81.25968 133.7793 82.28125 C 131.36882 84.71679 130.22218 87.510916 129.90234 91.722656 C 129.63691 95.217706 129.04121 96.797522 127.22852 97.763672 C 125.70258 98.576992 124.48379 98.96698 120.96289 99 C 116.23534 99.0444 114.55096 99.491702 112.55273 100.7832 C 111.61375 101.39009 110.16602 102.31441 110.16602 102.75977 C 110.16602 102.89128 110.59417 102.95703 111.47656 102.95703 C 112.74146 102.95703 112.82079 102.93243 113.67188 102.29297 C 115.49496 100.92313 117.21828 100.99414 122.57031 100.99414 C 124.59844 100.99414 126.56954 100.91134 127.07227 100.80469 C 128.26762 100.55106 129.43654 99.942743 130.35547 99.095703 C 131.92508 97.648893 132.55323 95.681607 132.78906 92.341797 C 133.08907 88.093017 133.45514 86.994072 135.12305 85.326172 C 136.37628 84.072942 137.79287 83.482904 139.86719 83.115234 C 143.08594 82.544714 146.36222 83.348859 148.78125 85.630859 C 148.87661 85.720812 148.94375 85.794654 149.02539 85.876953 A 54 54 0 0 1 150 96 A 54 54 0 0 1 96 150 A 54 54 0 0 1 42 96 A 54 54 0 0 1 96 42 z M 78.443359 53.046875 C 73.988999 53.028175 70.589982 53.786305 67.054688 55.585938 C 59.740806 59.309027 55.656058 65.576716 56 73.191406 C 56.187282 77.337736 57.25995 80.388683 59.25 84.158203 C 61.721504 88.839683 62.726689 90.911979 63.152344 92.199219 C 64.086715 95.024889 63.830206 95.438547 63.96875 102.71875 C 64.080754 108.60416 64.143819 109.76347 64.433594 111.07227 C 65.979573 118.05485 70.470913 125.31634 76.324219 131.15625 C 83.267819 138.08397 91.458924 142.49305 98.308594 143.66406 C 100.54732 144.04679 103.69622 144.08098 105.55273 143.74414 C 108.12112 143.27808 109.8196 142.53853 111.58203 141.11914 C 114.39088 138.85702 116.12456 135.92454 116.88086 132.34961 C 117.39036 129.94129 117.08921 125.40384 116.31836 123.89453 C 116.17617 123.61613 115.47548 122.77951 114.76172 122.03711 C 111.84447 119.00282 110.27227 116.53107 109.37695 114.5293 C 108.90931 113.48375 108.42688 111.60854 108.66211 111.75391 C 108.74681 111.80621 108.81658 111.97785 108.81836 112.13477 C 108.82336 112.57963 110.40247 115.44756 111.47461 116.95898 C 112.00736 117.71 113.51205 119.39341 114.81836 120.70117 C 118.11328 123.99973 119.10216 125.45191 119.61328 128.50977 C 119.93191 130.41606 120.57189 131.44141 121.71094 131.87305 C 122.31889 132.10342 122.8637 131.99081 124.49805 131.29297 C 126.0559 130.62779 126.94193 130.61871 129.23047 130.38281 C 130.20488 130.28237 131.86176 130.05727 132.66797 129.88281 C 134.88758 129.4025 135.8418 128.83729 135.8418 128.00195 C 135.8418 127.73793 135.9225 127.52148 136.01953 127.52148 C 136.40071 127.52148 137.02344 126.98583 137.02344 126.47461 C 137.02344 126.16325 137.12766 125.91516 137.2832 125.85547 C 137.71303 125.69053 138.07458 124.8336 137.87305 124.45703 C 137.59107 123.93015 137.16984 123.9152 135.66406 124.375 C 133.67124 124.98344 132.3995 125.11052 130.79102 124.93359 C 126.97639 124.51401 123.68811 121.977 121.9082 118.58984 C 121.58135 117.96785 120.9249 116.32498 120.44727 114.93945 C 118.47757 109.22577 116.24941 105.92385 113.63086 104.42188 C 111.94439 103.45453 109.76952 103.89618 107.95703 105.57422 C 105.19998 108.12677 103.67948 113.99976 102.75195 126.17188 C 102.56456 128.63108 102.38461 130.94716 102.35156 131.31836 C 102.31846 131.68956 102.27927 130.65912 102.26367 129.0293 C 102.23137 125.65139 102.51309 122.81235 103.33008 116.88867 C 103.64345 114.61654 103.87321 112.73063 103.8418 112.69922 C 103.8104 112.66782 103.36714 112.92004 102.85547 113.25977 C 101.58392 114.10403 100.86394 114.2369 98.794922 114.00977 C 94.594342 113.54866 90.315794 112.51821 87.132812 111.20117 C 85.474913 110.51518 81.982699 108.90403 82.037109 108.84961 C 82.064909 108.82181 82.951485 109.10253 84.007812 109.47461 C 87.210712 110.60281 93.244553 112.27466 95.570312 112.67773 C 99.538152 113.36537 100.68246 113.19461 102.08789 111.71094 C 103.46261 110.25969 107.07201 105.1907 108.52734 103.05859 C 109.38158 101.80709 110.49933 100.36327 111.01172 99.851562 C 112.66031 98.205163 116.86989 95.493715 119.47852 94.578125 C 121.37105 93.913875 122.42001 93.299456 122.48828 92.816406 C 122.54418 92.421226 122.52199 92.414976 121.60352 92.509766 C 121.0861 92.563166 120.62179 92.538278 120.57031 92.455078 C 120.51881 92.371778 121.09047 91.926567 121.7207 91.617188 C 122.65163 91.160188 122.87768 90.972874 122.91992 90.615234 C 122.98752 90.042675 122.6107 89.922781 121.44141 90.144531 C 120.25967 90.368641 119.98436 90.483341 119.98438 90.201172 C 119.98438 90.070832 120.50132 89.829076 121.01172 89.541016 C 121.79992 89.096186 121.93945 88.945183 121.93945 88.533203 C 121.93945 87.915563 121.68535 87.849949 120.12305 88.068359 C 119.22577 88.193789 118.74668 88.086464 118.60547 87.945312 C 118.46079 87.800634 118.55137 87.678152 118.9707 87.451172 C 119.90531 86.945292 120.18825 86.601397 119.98242 86.216797 C 119.64499 85.586307 117.79822 86.231477 115.4375 87.427734 C 114.95667 87.671394 114.49375 88.169922 114.4082 88.169922 C 114.3226 88.169922 114.19945 87.887769 114.13477 87.542969 C 113.88399 86.206219 113.22733 85.589124 112.71289 86.208984 C 112.60614 86.337604 112.30288 87.499093 112.03906 88.789062 C 111.16676 93.054172 110.00137 94.312061 103.92188 99.337891 C 101.33316 101.47795 97.850122 104.98062 96.857422 106.44141 C 96.279912 107.29122 96.143598 107.41744 96.236328 107.02148 C 96.423828 106.22078 96.785595 105.55529 97.515625 104.67188 C 97.888385 104.22078 98.159807 103.818 98.117188 103.77539 C 98.074588 103.73279 97.218654 103.33643 96.214844 102.89453 C 93.966944 101.90498 92.359369 101.15116 90.074219 100.01758 C 86.429069 98.209324 82.757386 96.612465 81.523438 96.296875 C 80.016678 95.911505 77.586765 95.865863 76.335938 96.199219 C 74.794916 96.609859 73.230535 97.599114 72.556641 98.589844 C 72.038422 99.351714 71.911079 99.232025 72.34375 98.390625 C 74.673106 95.77205 76.961831 95.418065 80.011719 95.058594 C 81.191807 94.990494 82.249257 95.181497 84.226562 95.84375 C 88.537622 97.287641 89.610352 97.409587 90.919922 96.460938 C 91.554891 96.000968 91.978516 95.139403 91.978516 94.314453 C 91.978516 94.043533 92.088436 94.003585 92.697266 94.046875 C 93.740266 94.121075 94.37294 93.56747 94.5 92.46875 C 94.502975 92.443013 94.506892 92.43586 94.509766 92.412109 C 94.58812 92.828595 94.855994 93.765625 95.191406 94.771484 C 96.039689 97.315378 96.184037 98.997617 95.539062 101.61914 L 98.611328 102.96484 C 98.611328 102.96484 100.99823 100.63061 101.09766 100.66016 C 101.82542 98.596816 102.73919 96.709 103.7793 95.498047 C 104.77464 93.570445 102.42373 91.153457 100.06445 91 C 99.12533 90.93892 98.184227 90.872493 97.453125 91.894531 C 97.158547 92.345961 97.007682 93.008006 96.933594 93.050781 C 96.859464 93.093581 96.611228 92.910797 96.382812 92.644531 C 95.912357 92.09614 95.445435 91.782384 95.089844 91.726562 C 95.137863 91.717309 95.168553 91.712897 95.226562 91.699219 C 96.089264 91.495799 96.766881 90.680541 96.650391 89.988281 C 96.602691 89.704751 96.514358 89.350702 96.455078 89.201172 C 96.376878 89.004052 97.070253 88.787446 97.658203 88.410156 C 98.566583 87.827246 99.133806 87.0205 98.978516 86.53125 C 98.922116 86.3534 98.489628 85.727275 98.017578 85.140625 C 96.496478 83.250295 95.833966 82.338752 96.785156 81.013672 C 98.127785 79.143272 98.067509 79.518754 97.886719 74.257812 C 97.706929 69.026012 97.473063 67.463518 96.527344 65.173828 C 95.014504 61.511088 93.119585 58.985856 89.171875 56.367188 C 85.705728 53.873161 81.463686 53.062181 78.443359 53.046875 z M 137.84961 97.988281 C 137.54896 98.489359 136.99337 98.396017 136.49609 100.01953 C 136.25314 100.81269 135.75866 101.91436 135.39844 102.4668 C 134.15007 104.38135 131.81447 105.83934 129.8457 106.62109 C 127.3376 107.33298 124.55222 107.12138 122.14453 106.18945 C 119.97901 105.35063 116.74323 104.37561 115.39648 104.15625 L 114.63672 104.0332 L 115.31641 104.53125 C 116.88261 105.67919 118.53714 108.16344 119.89453 111.41016 L 120.68164 113.29688 L 121.79297 113.06836 C 122.40403 112.94291 123.96644 112.7976 125.26562 112.74414 C 127.81338 112.63932 128.77422 112.53352 131.63086 113.55078 C 133.07962 114.06669 133.87654 114.10531 134.69336 113.69727 C 135.09866 113.49479 135.41586 113.1376 135.70508 112.55859 C 135.93228 109.8446 137.27815 108.67393 138.30273 106.91797 C 139.74902 104.86407 140.26838 103.43484 139.73633 102.08984 C 139.63299 101.82859 139.53228 101.28032 139.51172 100.87109 C 139.48342 100.30705 139.36784 100.03617 139.03516 99.75 C 138.79378 99.54238 138.63378 99.334985 138.67969 99.289062 C 138.72559 99.243162 138.64769 98.930533 138.50781 98.595703 C 138.31599 98.136633 138.15447 97.988281 137.84961 97.988281 z " />
</svg>
