<?xml version="1.0" encoding="UTF-8" standalone="no"?>
<svg
   width="192"
   height="192"
   version="1"
   id="svg12"
   sodipodi:docname="apps_call_log_analytics.svg"
   inkscape:version="1.1.1 (1:1.1+202109281949+c3084ef5ed)"
   xmlns:inkscape="http://www.inkscape.org/namespaces/inkscape"
   xmlns:sodipodi="http://sodipodi.sourceforge.net/DTD/sodipodi-0.dtd"
   xmlns="http://www.w3.org/2000/svg"
   xmlns:svg="http://www.w3.org/2000/svg"
   xmlns:rdf="http://www.w3.org/1999/02/22-rdf-syntax-ns#"
   xmlns:cc="http://creativecommons.org/ns#"
   xmlns:dc="http://purl.org/dc/elements/1.1/">
  <metadata
     id="metadata18">
    <rdf:RDF>
      <cc:Work
         rdf:about="">
        <dc:format>image/svg+xml</dc:format>
        <dc:type
           rdf:resource="http://purl.org/dc/dcmitype/StillImage" />
      </cc:Work>
    </rdf:RDF>
  </metadata>
  <defs
     id="defs16">
    <filter
       inkscape:collect="always"
       style="color-interpolation-filters:sRGB"
       id="filter955"
       x="-0.048000001"
       width="1.096"
       y="-0.048000001"
       height="1.096">
      <feGaussianBlur
         inkscape:collect="always"
         stdDeviation="3.2"
         id="feGaussianBlur957" />
    </filter>
    <filter
       inkscape:collect="always"
       style="color-interpolation-filters:sRGB"
       id="filter3994"
       x="-0.10799983"
       y="-0.10800016"
       width="1.2159997"
       height="1.2160003">
      <feGaussianBlur
         inkscape:collect="always"
         stdDeviation="4.3199664"
         id="feGaussianBlur3996" />
    </filter>
  </defs>
  <sodipodi:namedview
     pagecolor="#ffffff"
     bordercolor="#666666"
     borderopacity="1"
     objecttolerance="10"
     gridtolerance="10"
     guidetolerance="10"
     inkscape:pageopacity="0"
     inkscape:pageshadow="2"
     inkscape:window-width="1920"
     inkscape:window-height="1019"
     id="namedview14"
     showgrid="false"
     inkscape:zoom="1"
     inkscape:cx="98"
     inkscape:cy="102.5"
     inkscape:window-x="0"
     inkscape:window-y="34"
     inkscape:window-maximized="1"
     inkscape:current-layer="svg12"
     showguides="false"
     inkscape:document-rotation="0"
     inkscape:pagecheckerboard="0"
     inkscape:snap-bbox="true"
     inkscape:snap-bbox-midpoints="true"
     inkscape:snap-global="true">
    <inkscape:grid
       type="xygrid"
       id="grid852" />
  </sodipodi:namedview>
  <rect
     style="opacity:0.2;fill:#000000;fill-opacity:1;stroke-width:4;filter:url(#filter955)"
     width="160"
     height="160"
     x="16"
     y="20"
     rx="30"
     ry="30"
     id="rect953" />
  <rect
     style="fill:#66828f;fill-opacity:1;stroke-width:4"
     width="160"
     height="160"
     x="16"
     y="16"
     rx="30"
     ry="30"
     id="rect4" />
  <path
     id="rect959"
     style="fill:#ffffff;fill-opacity:1;stroke-width:4;opacity:0.1"
     d="M 46 16 C 29.38 16 16 29.38 16 46 L 16 47 C 16 30.38 29.38 17 46 17 L 146 17 C 162.62 17 176 30.38 176 47 L 176 46 C 176 29.38 162.62 16 146 16 L 46 16 z " />
  <path
     id="path3956"
     style="opacity:0.2;fill:#000000;stroke-width:0.309091;filter:url(#filter3994)"
     d="m 62.542969,50.000885 c -10.98927,0 -11.063066,0.0047 -12.101563,0.705078 -0.574762,0.387399 -1.377607,1.188986 -1.783203,1.78125 -0.728225,1.063365 -0.73473,1.147489 -0.570312,6.806641 0.580056,19.965174 7.594018,38.261691 20.605468,53.746086 17.49778,20.82341 41.817111,32.74642 67.210941,32.95313 3.99686,0.0325 4.56862,-0.0297 5.61718,-0.61914 0.64191,-0.36084 1.4615,-1.18027 1.82227,-1.82227 0.63384,-1.12798 0.65625,-1.53806 0.65625,-12.1543 0,-10.91438 -0.006,-10.99291 -0.70508,-12.03125 -1.14802,-1.70384 -2.53222,-2.45478 -4.5293,-2.45507 -5.61021,-9.3e-4 -13.03122,-1.214 -18.9082,-3.0918 -3.09073,-0.98752 -3.19806,-0.92078 -10.7539,6.58203 l -6.55664,6.50977 -2.580083,-1.51172 C 89.282707,119.13606 75.54342,105.45973 68.896484,94.471588 L 67.070312,91.45401 73.556641,85.012604 C 81.406274,77.216056 81.319646,77.373221 79.947266,73.311432 78.555586,69.192516 77.719805,64.516015 77.302734,58.522369 76.890246,52.594603 76.732187,52.1312 74.626953,50.698151 73.612329,50.007483 73.500962,50.000885 62.542969,50.000885 Z m 33.457031,0 v 5.277344 5.277344 l 1.777344,0.171874 c 10.901166,1.052254 17.916806,4.197818 24.703126,11.074219 6.68333,6.772022 9.88845,13.936891 10.78515,24.113281 l 0.1836,2.085938 H 138.72461 144 l -0.1875,-3.630859 C 143.27599,83.990101 139.20898,74.178044 132.20703,66.375885 123.19679,56.335939 112.12267,50.834043 99.630859,50.188385 Z m 0,21 v 5.375 5.376953 l 2.648438,0.5 c 3.421582,0.645962 5.613972,1.739894 8.048832,4.017578 3.15575,2.952037 4.78157,6.032007 5.27734,10 l 0.2168,1.730469 H 117.5957 123 l -0.19922,-1.9375 C 122.00193,88.271244 118.46551,81.66022 112.625,77.041901 108.32693,73.643249 103.6589,71.786656 97.9375,71.200104 Z" />
  <path
     id="path1212"
     style="fill:#ffffff;stroke-width:0.309091"
     d="M 62.542969 48 C 51.553699 48 51.479903 48.004721 50.441406 48.705078 C 49.866644 49.092477 49.063799 49.894064 48.658203 50.486328 C 47.929978 51.549693 47.923473 51.633817 48.087891 57.292969 C 48.667947 77.258143 55.681909 95.55466 68.693359 111.03906 C 86.191139 131.86247 110.51047 143.78548 135.9043 143.99219 C 139.90116 144.02469 140.47292 143.96249 141.52148 143.37305 C 142.16339 143.01221 142.98298 142.19278 143.34375 141.55078 C 143.97759 140.4228 144 140.01272 144 129.39648 C 144 118.4821 143.99415 118.40357 143.29492 117.36523 C 142.1469 115.66139 140.7627 114.91045 138.76562 114.91016 C 133.15541 114.90923 125.7344 113.69616 119.85742 111.81836 C 116.76669 110.83084 116.65936 110.89758 109.10352 118.40039 L 102.54688 124.91016 L 99.966797 123.39844 C 89.282707 117.13518 75.54342 103.45885 68.896484 92.470703 L 67.070312 89.453125 L 73.556641 83.011719 C 81.406274 75.215171 81.319646 75.372336 79.947266 71.310547 C 78.555586 67.191631 77.719805 62.51513 77.302734 56.521484 C 76.890246 50.593718 76.732187 50.130315 74.626953 48.697266 C 73.612329 48.006598 73.500962 48 62.542969 48 z M 96 48 L 96 53.277344 L 96 58.554688 L 97.777344 58.726562 C 108.67851 59.778816 115.69415 62.92438 122.48047 69.800781 C 129.1638 76.572803 132.36892 83.737672 133.26562 93.914062 L 133.44922 96 L 138.72461 96 L 144 96 L 143.8125 92.369141 C 143.27599 81.989216 139.20898 72.177159 132.20703 64.375 C 123.19679 54.335054 112.12267 48.833158 99.630859 48.1875 L 96 48 z M 96 69 L 96 74.375 L 96 79.751953 L 98.648438 80.251953 C 102.07002 80.897915 104.26241 81.991847 106.69727 84.269531 C 109.85302 87.221568 111.47884 90.301538 111.97461 94.269531 L 112.19141 96 L 117.5957 96 L 123 96 L 122.80078 94.0625 C 122.00193 86.270359 118.46551 79.659335 112.625 75.041016 C 108.32693 71.642364 103.6589 69.785771 97.9375 69.199219 L 96 69 z " />
</svg>
