<?xml version="1.0" encoding="UTF-8" standalone="no"?>
<svg
   xmlns:dc="http://purl.org/dc/elements/1.1/"
   xmlns:cc="http://creativecommons.org/ns#"
   xmlns:rdf="http://www.w3.org/1999/02/22-rdf-syntax-ns#"
   xmlns:svg="http://www.w3.org/2000/svg"
   xmlns="http://www.w3.org/2000/svg"
   xmlns:sodipodi="http://sodipodi.sourceforge.net/DTD/sodipodi-0.dtd"
   xmlns:inkscape="http://www.inkscape.org/namespaces/inkscape"
   width="48"
   height="48"
   version="1"
   id="svg46"
   sodipodi:docname="apps_icsimport.svg"
   inkscape:version="0.92.2 (unknown)">
  <metadata
     id="metadata52">
    <rdf:RDF>
      <cc:Work
         rdf:about="">
        <dc:format>image/svg+xml</dc:format>
        <dc:type
           rdf:resource="http://purl.org/dc/dcmitype/StillImage" />
        <dc:title></dc:title>
      </cc:Work>
    </rdf:RDF>
  </metadata>
  <defs
     id="defs50" />
  <sodipodi:namedview
     pagecolor="#ffffff"
     bordercolor="#666666"
     borderopacity="1"
     objecttolerance="10"
     gridtolerance="10"
     guidetolerance="10"
     inkscape:pageopacity="0"
     inkscape:pageshadow="2"
     inkscape:window-width="1920"
     inkscape:window-height="1016"
     id="namedview48"
     showgrid="false"
     inkscape:zoom="10.57"
     inkscape:cx="2.0983917"
     inkscape:cy="16.43141"
     inkscape:window-x="0"
     inkscape:window-y="34"
     inkscape:window-maximized="1"
     inkscape:current-layer="svg46" />
  <path
     d="m 4,39.5 v 1 c 0,1.108 0.892,2 2,2 h 36 c 1.108,0 2,-0.892 2,-2 v -1 c 0,1.108 -0.892,2 -2,2 H 6 c -1.108,0 -2,-0.892 -2,-2 z"
     id="path10"
     inkscape:connector-curvature="0"
     style="opacity:0.2" />
  <path
     inkscape:connector-curvature="0"
     d="M 4,15.9 V 40 c 0,1.108 0.892,2 2,2 h 36 c 1.108,0 2,-0.892 2,-2 V 15.9 Z"
     style="fill:#e4e4e4"
     id="path2" />
  <path
     d="m 44,16.5 v -8 c 0,-1.108 -0.892,-2 -2,-2 H 6 c -1.108,0 -2,0.892 -2,2 v 8 z"
     style="opacity:0.2"
     id="path4"
     inkscape:connector-curvature="0" />
  <path
     inkscape:connector-curvature="0"
     d="M 44,16 V 8 C 44,6.892 43.108,6 42,6 H 6 C 4.892,6 4,6.892 4,8 v 8 z"
     style="fill:#86c20a;fill-opacity:1"
     id="path6" />
  <path
     inkscape:connector-curvature="0"
     style="opacity:0.2;fill:#ffffff"
     d="M 6,6 C 4.892,6 4,6.892 4,8 v 0.5 c 0,-1.108 0.892,-2 2,-2 h 36 c 1.108,0 2,0.892 2,2 V 8 C 44,6.892 43.108,6 42,6 Z"
     id="path8" />
  <rect
     x="33"
     y="26"
     width="6"
     height="6"
     style="opacity:0.2;fill-rule:evenodd"
     id="rect12" />
  <rect
     x="17"
     y="26"
     width="6"
     height="6"
     style="opacity:0.2;fill-rule:evenodd"
     id="rect14" />
  <rect
     x="9"
     y="26"
     width="6"
     height="6"
     style="opacity:0.2;fill-rule:evenodd"
     id="rect16" />
  <rect
     x="25"
     y="34"
     width="6"
     height="6"
     style="opacity:0.2;fill-rule:evenodd"
     id="rect18" />
  <rect
     x="33"
     y="34"
     width="6"
     height="6"
     style="opacity:0.2;fill-rule:evenodd"
     id="rect20" />
  <rect
     x="17"
     y="34"
     width="6"
     height="6"
     style="opacity:0.2;fill-rule:evenodd"
     id="rect22" />
  <rect
     x="9"
     y="34"
     width="6"
     height="6"
     style="opacity:0.2;fill-rule:evenodd"
     id="rect24" />
  <rect
     x="25"
     y="18"
     width="6"
     height="6"
     style="opacity:0.2;fill-rule:evenodd"
     id="rect26" />
  <rect
     x="33"
     y="18"
     width="6"
     height="6"
     style="opacity:0.2;fill-rule:evenodd"
     id="rect28" />
  <rect
     x="17"
     y="18"
     width="6"
     height="6"
     style="opacity:0.2;fill-rule:evenodd"
     id="rect30" />
  <rect
     x="9"
     y="18"
     width="6"
     height="6"
     style="opacity:0.2;fill-rule:evenodd"
     id="rect32" />
  <circle
     cx="12"
     cy="11.499998"
     r="2"
     style="opacity:0.2;fill-rule:evenodd"
     id="circle38" />
  <circle
     cx="12"
     cy="11"
     r="2"
     style="fill:#ffffff;fill-rule:evenodd"
     id="circle40" />
  <circle
     cx="36"
     cy="11.499998"
     r="2"
     style="opacity:0.2;fill-rule:evenodd"
     id="circle42" />
  <circle
     cx="36"
     cy="11"
     r="2"
     style="fill:#ffffff;fill-rule:evenodd"
     id="circle44" />
  <circle
     cx="36"
     cy="36.5"
     r="11"
     id="circle16"
     style="opacity:0.2" />
  <rect
     id="rect851"
     style="opacity:0.2;fill-rule:evenodd"
     height="6"
     width="6"
     y="26"
     x="25" />
  <circle
     cx="36"
     cy="36"
     r="11"
     id="circle18"
     style="fill:#507dd6;fill-opacity:1" />
  <rect
     y="29"
     x="35"
     height="14"
     width="2"
     id="rect850"
     style="opacity:1;fill:#ffffff;fill-opacity:1;stroke:none;stroke-width:2.73251963;stroke-linecap:round;stroke-linejoin:round;stroke-miterlimit:4;stroke-dasharray:none;stroke-opacity:1" />
  <rect
     style="opacity:1;fill:#ffffff;fill-opacity:1;stroke:none;stroke-width:2.73251963;stroke-linecap:round;stroke-linejoin:round;stroke-miterlimit:4;stroke-dasharray:none;stroke-opacity:1"
     id="rect853"
     width="2"
     height="14"
     x="35"
     y="-43"
     transform="rotate(90)" />
</svg>
