<?xml version="1.0" encoding="UTF-8" standalone="no"?>
<svg
   width="192"
   height="192"
   version="1"
   id="svg28"
   sodipodi:docname="apps_apteka_ru.svg"
   inkscape:version="1.1.1 (1:1.1+202109281949+c3084ef5ed)"
   xmlns:inkscape="http://www.inkscape.org/namespaces/inkscape"
   xmlns:sodipodi="http://sodipodi.sourceforge.net/DTD/sodipodi-0.dtd"
   xmlns="http://www.w3.org/2000/svg"
   xmlns:svg="http://www.w3.org/2000/svg"
   xmlns:rdf="http://www.w3.org/1999/02/22-rdf-syntax-ns#"
   xmlns:cc="http://creativecommons.org/ns#"
   xmlns:dc="http://purl.org/dc/elements/1.1/">
  <metadata
     id="metadata34">
    <rdf:RDF>
      <cc:Work
         rdf:about="">
        <dc:format>image/svg+xml</dc:format>
        <dc:type
           rdf:resource="http://purl.org/dc/dcmitype/StillImage" />
      </cc:Work>
    </rdf:RDF>
  </metadata>
  <defs
     id="defs32">
    <filter
       inkscape:collect="always"
       style="color-interpolation-filters:sRGB"
       id="filter4368"
       x="-0.048000001"
       y="-0.048000001"
       width="1.096"
       height="1.096">
      <feGaussianBlur
         inkscape:collect="always"
         stdDeviation="3.2"
         id="feGaussianBlur4370" />
    </filter>
    <filter
       inkscape:collect="always"
       style="color-interpolation-filters:sRGB"
       id="filter4427"
       x="-0.046071423"
       y="-0.20156261"
       width="1.0921428"
       height="1.4031252">
      <feGaussianBlur
         inkscape:collect="always"
         stdDeviation="2.6875193"
         id="feGaussianBlur4429" />
    </filter>
  </defs>
  <sodipodi:namedview
     pagecolor="#ffffff"
     bordercolor="#666666"
     borderopacity="1"
     objecttolerance="10"
     gridtolerance="10"
     guidetolerance="10"
     inkscape:pageopacity="0"
     inkscape:pageshadow="2"
     inkscape:window-width="1920"
     inkscape:window-height="1016"
     id="namedview30"
     showgrid="false"
     inkscape:zoom="1"
     inkscape:cx="61.5"
     inkscape:cy="66"
     inkscape:window-x="0"
     inkscape:window-y="32"
     inkscape:window-maximized="1"
     inkscape:current-layer="svg28"
     inkscape:pagecheckerboard="0"
     inkscape:snap-global="false">
    <inkscape:grid
       type="xygrid"
       id="grid841" />
  </sodipodi:namedview>
  <path
     id="path4330"
     style="opacity:0.2;fill:#000000;fill-opacity:1;stroke-width:1.9376;stroke-linecap:round;stroke-linejoin:round;filter:url(#filter4368)"
     d="M 73,20 C 66.352,20 61,25.352 61,32 V 65 H 28 c -6.648,0 -12,5.352 -12,12 v 46 c 0,6.648 5.352,12 12,12 h 33 v 33 c 0,6.648 5.352,12 12,12 h 46 c 6.648,0 12,-5.352 12,-12 v -33 h 33 c 6.648,0 12,-5.352 12,-12 V 77 c 0,-6.648 -5.352,-12 -12,-12 H 131 V 32 c 0,-6.648 -5.352,-12 -12,-12 z" />
  <path
     id="rect4139"
     style="opacity:1;fill:#e4e4e4;fill-opacity:1;stroke-width:1.9376;stroke-linecap:round;stroke-linejoin:round"
     d="M 73 16 C 66.352 16 61 21.352 61 28 L 61 61 L 28 61 C 21.352 61 16 66.352 16 73 L 16 119 C 16 125.648 21.352 131 28 131 L 61 131 L 61 164 C 61 170.648 66.352 176 73 176 L 119 176 C 125.648 176 131 170.648 131 164 L 131 131 L 164 131 C 170.648 131 176 125.648 176 119 L 176 73 C 176 66.352 170.648 61 164 61 L 131 61 L 131 28 C 131 21.352 125.648 16 119 16 L 73 16 z " />
  <path
     id="path4372"
     style="opacity:0.2;fill:#000000;fill-opacity:1;fill-rule:nonzero;stroke:none;stroke-width:0.0115944;filter:url(#filter4427)"
     d="m 93.507812,81.99978 c -0.579969,9.43e-4 -1.162583,0.03652 -1.611328,0.109375 -0.337239,0.06722 -0.776978,0.16682 -0.876953,0.560547 -0.04059,0.538619 -0.0044,1.081209 -0.01563,1.621094 9.48e-4,7.630206 -0.0019,15.262173 0,22.892574 -0.03035,0.24612 0.119817,0.48047 0.34375,0.56836 0.49738,0.21045 1.046271,0.21587 1.576172,0.24024 0.714683,0 1.94909,0.0268 2.644531,-0.17774 0.277943,-0.0692 0.478614,-0.30988 0.433594,-0.6289 -0.0019,-2.89254 0.0094,-5.785 -0.0039,-8.677738 1.877004,2.964258 3.237235,5.979228 5.099613,8.955078 0.29257,0.39763 0.82113,0.42699 1.26562,0.48828 0.86536,0.0662 1.73952,0.0692 2.60352,-0.0195 0.32757,-0.0516 0.71528,-0.069 0.94922,-0.3457 0.23519,-0.47285 -0.0772,-0.99312 -0.30469,-1.40235 -1.82411,-2.90861 -3.65043,-5.81773 -5.48242,-8.720699 1.54627,-1.837032 2.72495,-3.549176 4.28125,-5.376953 0.32397,-0.401042 0.6334,-0.903284 0.5625,-1.445313 -0.0743,-0.337708 -0.45009,-0.437738 -0.73243,-0.5 -0.82147,-0.149269 -1.26327,-0.12512 -2.09375,-0.09375 -0.55815,0.04872 -1.20209,0.08748 -1.60156,0.548828 -1.677825,2.271592 -2.864553,4.484555 -4.546873,6.753906 0.01015,-4.854488 0.0067,-9.707325 0,-14.560547 -0.0076,-0.493701 -0.49867,-0.624659 -0.878906,-0.689453 -0.449558,-0.06713 -1.030583,-0.100554 -1.611329,-0.09961 z m -28.136718,3 c -0.613948,0.0012 -1.228267,0.03306 -1.710938,0.09961 v 0.01367 c -0.34726,0.06412 -0.626974,0.195108 -0.671875,0.609375 -0.03436,1.279598 0.01584,2.009762 -0.02539,3.289063 -0.704327,0 -1.607514,-0.0217 -2.310547,0 -0.361679,0.04242 -0.499392,0.484701 -0.558594,0.789062 -0.122883,0.768055 -0.127697,1.559301 0.0039,2.326172 0.071,0.331294 0.249625,0.893882 0.66211,0.880859 0.665103,0.0099 1.53009,0.01098 2.195312,-0.0098 0.05318,2.403318 0.0076,5.187296 0.02344,7.591793 -0.004,1.71617 -0.285767,3.53886 0.539062,5.10743 0.569406,1.12282 1.717175,1.86583 2.941406,2.11523 1.392962,0.27872 2.862565,0.25387 4.234375,-0.12891 0.445577,-0.1324 0.975404,-0.32685 1.117188,-0.81836 0.249431,-0.81375 0.209721,-1.68966 0.121094,-2.52539 -0.06263,-0.26924 -0.05778,-0.68811 -0.40625,-0.74414 -0.455027,0.0217 -0.852439,0.30189 -1.302735,0.36524 -0.714854,0.12164 -1.094692,0.1189 -1.613281,-0.46289 -0.487998,-0.62047 -0.549505,-1.44777 -0.5625,-2.20508 0.004,-2.637434 -0.01204,-5.653683 0.0078,-8.291017 1.264292,0 2.02987,0.01887 3.292968,-0.0098 0.517533,-0.132104 0.569401,-0.8932 0.619141,-1.332032 0.03785,-0.702546 0.07206,-1.426857 -0.123047,-2.109375 -0.0709,-0.252862 -0.275259,-0.559956 -0.5625,-0.550781 -1.245264,-0.01776 -1.991604,-0.0018 -3.238281,-0.01172 -0.005,-1.272296 0.01528,-1.992361 -0.0059,-3.263672 -0.04859,-0.45077 -0.579745,-0.575531 -0.953125,-0.638671 -0.483795,-0.05742 -1.098942,-0.08711 -1.71289,-0.08594 z m -33.496094,4 c -1.84611,0.0012 -3.674089,0.387473 -5.382812,1.189453 -0.462303,0.233856 -0.964264,0.476265 -1.248047,0.941406 -0.286079,0.487416 -0.237334,1.085299 -0.230469,1.632813 0.0435,0.506228 0.08753,1.116766 0.509766,1.455078 0.377617,0.214946 0.798361,-0.03807 1.140624,-0.210938 1.465742,-0.783551 2.464579,-1.436141 4.144532,-1.392578 0.930201,-0.0099 2.036717,0.117488 2.625,0.960938 0.630504,0.932856 0.506936,2.328178 0.519531,3.404297 -1.683386,0 -2.878003,-0.03036 -4.542969,0.269531 -1.587023,0.276234 -3.24458,0.84046 -4.326172,2.132812 -0.956519,1.128888 -1.196983,2.513628 -1.039062,3.960938 0.128159,1.36749 0.809451,2.69134 1.910156,3.49023 1.465963,1.07602 3.373075,1.31742 5.125,1.08594 1.581304,-0.20336 2.985945,-1.10855 4.09375,-2.24804 0.0019,0.47454 -0.02399,1.25083 0.0078,1.72656 0.03887,0.39832 0.479563,0.4956 0.798828,0.53906 0.762221,0.0673 1.536948,0.0815 2.296875,-0.0254 0.322697,-0.0495 0.747248,-0.22258 0.71875,-0.62891 0.0067,-3.83925 0.0029,-7.978127 0,-11.818356 -0.02874,-1.450966 -0.235368,-2.9888 -1.082032,-4.195313 C 37.093613,90.10647 35.735536,89.491576 34.394531,89.234155 33.557401,89.078557 32.714141,88.999251 31.875,88.99978 Z m 20.400391,0 c -0.585556,-0.0056 -1.171839,0.05393 -1.736329,0.164062 v 0.0039 c -1.798124,0.383394 -3.25878,1.594409 -4.533203,2.828125 -0.0069,-0.687247 0.02359,-1.675249 -0.01172,-2.361328 -0.05881,-0.356914 -0.446457,-0.471181 -0.75586,-0.53125 -0.813328,-0.113227 -1.649562,-0.115564 -2.46289,0 -0.347173,0.04965 -0.79161,0.239438 -0.771485,0.648437 -0.0069,7.700504 -0.002,15.699877 -0.002,23.400387 -0.02232,0.25761 0.152622,0.49972 0.392578,0.59571 0.56266,0.22976 1.184835,0.2393 1.785157,0.25195 0.696587,0 1.415534,0.0151 2.083984,-0.20508 0.284807,-0.0827 0.7693,-0.3365 0.730469,-0.64844 0.01061,-2.58065 -0.01665,-4.86064 0.01172,-7.4414 1.07435,1.03511 2.12943,1.99967 3.664063,2.20898 1.86061,0.2436 3.873383,-0.15525 5.333984,-1.36133 1.56405,-1.26369 2.361736,-3.50242 2.726563,-5.4121 0.393195,-2.200581 0.366204,-4.485015 -0.138672,-6.666021 -0.39773,-1.68321 -1.243158,-3.352859 -2.701172,-4.380859 -1.042922,-0.759225 -2.327011,-1.081528 -3.615234,-1.09375 z m 62.599609,0 c -1.84611,0.0012 -3.67408,0.387473 -5.38281,1.189453 -0.4623,0.233856 -0.96426,0.476265 -1.24805,0.941406 -0.28607,0.487416 -0.23734,1.085299 -0.23047,1.632813 0.0435,0.506228 0.0875,1.116766 0.50977,1.455078 0.37762,0.214946 0.79835,-0.03807 1.14062,-0.210938 1.46574,-0.783551 2.46457,-1.436141 4.14453,-1.392578 0.9302,-0.0099 2.03671,0.117488 2.625,0.960938 0.6305,0.932856 0.50693,2.328178 0.51953,3.404297 -1.68339,0 -2.878,-0.03036 -4.54296,0.269531 -1.58702,0.276234 -3.24459,0.84046 -4.32618,2.132812 -0.95652,1.128888 -1.19699,2.513628 -1.03906,3.960938 0.12815,1.36749 0.80946,2.69134 1.91016,3.49023 1.46596,1.07602 3.37308,1.31742 5.125,1.08594 1.58131,-0.20336 2.98595,-1.10855 4.09375,-2.24804 0.002,0.47454 -0.0242,1.25083 0.008,1.72656 0.0389,0.39832 0.47956,0.4956 0.79883,0.53906 0.76222,0.0673 1.53695,0.0815 2.29687,-0.0254 0.3227,-0.0495 0.74725,-0.22258 0.71875,-0.62891 0.007,-3.83925 0.003,-7.978127 0,-11.818356 -0.0287,-1.450966 -0.23536,-2.9888 -1.08203,-4.195313 -0.82045,-1.162841 -2.17852,-1.777735 -3.51953,-2.035156 -0.83733,-0.155598 -1.68039,-0.234904 -2.51953,-0.234375 z m 46.60156,0 c -0.56557,0.0011 -1.13132,0.03569 -1.61523,0.103516 -0.34012,0.06043 -0.81454,0.171999 -0.85547,0.59375 -0.0386,3.829598 0.0264,7.666315 -0.0332,11.492184 0,2.00958 -1.65948,2.7263 -3.23828,2.81055 -1.87494,0.10005 -2.64589,-2.19818 -2.70118,-3.9082 -0.0292,-3.424668 -0.002,-6.850931 -0.0137,-10.275394 0.035,-0.402718 -0.36998,-0.614854 -0.69726,-0.675781 -0.8112,-0.164854 -1.94588,-0.13862 -2.76758,-0.111328 v -0.0059 c -0.44416,0.03928 -0.91665,0.05268 -1.31055,0.287109 -0.21741,0.125377 -0.25659,0.392533 -0.24023,0.623047 0.006,3.62295 -0.0101,7.246188 0.006,10.869136 0.0375,1.27734 0.15124,2.5849 0.63281,3.77735 0.41611,1.02991 1.11493,1.96184 2.05469,2.54492 1.24484,0.80192 2.78301,0.97275 4.2207,0.82812 1.96016,-0.24147 3.63153,-1.49186 4.95117,-2.92578 0.0234,0.0101 0.0696,0.0173 0.0918,0.0234 0,0.65114 -0.0234,1.60469 0.004,2.25586 0.0315,0.39798 0.46649,0.53681 0.79493,0.5918 0.85093,0.12315 1.72993,0.13029 2.57617,-0.0332 0.3226,-0.0574 0.69251,-0.28039 0.66211,-0.66406 0.004,-5.69496 0.002,-11.692713 0.002,-17.38867 0.0269,-0.493553 -0.52169,-0.670652 -0.90625,-0.720703 -0.48566,-0.06218 -1.05161,-0.09291 -1.61719,-0.0918 z m -80.28906,0.002 c -0.227633,0.0036 -0.454476,0.01234 -0.679688,0.02734 -1.995952,0.129218 -3.991198,0.992793 -5.320312,2.568359 -1.417729,1.669335 -2.031681,3.913088 -2.160156,6.09375 -0.09086,1.836179 0.02477,3.718204 0.621094,5.462894 0.500979,1.4721 1.467848,2.78631 2.77539,3.58398 1.665371,1.03276 3.659771,1.28432 5.56836,1.25977 1.457491,-0.0208 2.911487,-0.25478 4.314453,-0.66016 0.505517,-0.16218 1.024754,-0.32036 1.474609,-0.61523 0.383966,-0.29151 0.408175,-0.82589 0.435547,-1.27344 0.01695,-0.56628 0.04218,-1.14064 -0.05664,-1.70117 -0.03868,-0.25487 -0.226116,-0.51346 -0.5,-0.48633 -0.450764,0.0168 -0.852804,0.25284 -1.27539,0.38672 -1.623351,0.5945 -3.362941,0.8895 -5.083985,0.72265 -1.026937,-0.10476 -2.084693,-0.51614 -2.734375,-1.38086 -0.705451,-0.92235 -0.887916,-1.84588 -0.892578,-2.99023 h 9.876953 c 0.343074,0 0.707973,-0.06169 0.972657,-0.304688 0.31013,-0.271405 0.433671,-0.70009 0.460937,-1.105468 0.05228,-1.427633 -0.0072,-3.177653 -0.40625,-4.554688 C 88.148711,92.439468 87.163154,90.983575 85.777344,90.130639 84.410493,89.250634 82.780928,88.97646 81.1875,89.001733 Z m 62.67578,0.002 c -0.70137,-0.02543 -1.40824,0.106047 -2.02148,0.458985 -1.12899,0.650977 -2.04934,1.712964 -2.83399,2.726562 -0.0108,-0.743077 0.0203,-1.787527 -0.0156,-2.529297 -0.0931,-0.427664 -0.4633,-0.534029 -0.83203,-0.578125 -0.81621,-0.07852 -1.65308,-0.09639 -2.46094,0.05664 -0.3186,0.06141 -0.70975,0.25446 -0.68945,0.636719 -0.008,5.693137 -0.002,11.687729 -0.004,17.380859 -0.043,0.30817 0.19495,0.55966 0.47656,0.63867 0.66825,0.20539 1.37701,0.19773 2.07031,0.20508 0.60977,-0.0141 1.43831,-0.0207 2.02539,-0.21094 0.27208,-0.0825 0.46722,-0.32592 0.42188,-0.62695 0.001,-3.46772 0.001,-6.93572 0,-10.402344 -0.0383,-0.258028 0.19739,-0.443788 0.32031,-0.644532 0.64197,-0.929326 1.14988,-1.901226 2.20117,-2.394531 0.78399,-0.363133 1.66663,-0.118954 2.4375,0.158203 0.27922,0.114668 0.70717,0.12163 0.83008,-0.21875 0.24104,-0.685693 0.19661,-1.430992 0.21094,-2.146484 -0.0155,-0.590155 0.0189,-1.192284 -0.13867,-1.765625 -0.0895,-0.344104 -0.45872,-0.456428 -0.75586,-0.544922 -0.4005,-0.112843 -0.82084,-0.183941 -1.24219,-0.199219 z M 50.798828,92.99978 c 0.639882,-0.0096 1.279324,0.19413 1.753906,0.65625 0.828476,0.770457 1.177382,1.94131 1.328125,3.056641 0.206266,1.692225 0.19737,3.480789 -0.439453,5.078129 -0.335586,0.83787 -0.901025,1.6322 -1.716797,2.00195 -0.836518,0.35906 -1.831453,0.24163 -2.583984,-0.27735 -0.836404,-0.5737 -1.503696,-1.36911 -2.132813,-2.17382 -0.01022,-1.816776 -0.002,-3.634403 -0.0059,-5.451175 -0.02608,-0.195362 0.134141,-0.327378 0.230469,-0.470703 0.675469,-0.87223 1.43488,-1.746675 2.449219,-2.181641 0.348966,-0.149779 0.733258,-0.232529 1.117187,-0.238281 z m 30.81836,0 c 0.892733,-5.1e-4 1.822051,0.236 2.429687,0.882812 0.793985,0.841268 0.980355,2.027083 0.949219,3.117188 H 78 c 0.05686,-0.947567 0.263711,-1.925425 0.851562,-2.712891 0.537036,-0.739309 1.439949,-1.224075 2.386719,-1.273437 0.125,-0.0092 0.251373,-0.0136 0.378907,-0.01367 z m -49.46875,7 c 0.620238,-0.0056 1.243019,0.01757 1.849609,0 0.0039,0.98207 -4.4e-5,1.96529 0.002,2.94727 -0.761467,0.87609 -1.659029,1.75221 -2.8125,1.98437 -0.941851,0.17454 -2.06701,0.0449 -2.714844,-0.76758 -0.82384,-1.07942 -0.553505,-2.94563 0.677735,-3.57617 h 0.002 c 0.936406,-0.48892 1.962362,-0.57856 2.996094,-0.58789 z m 83.000002,0 c 0.62024,-0.0056 1.24302,0.01757 1.84961,0 0.004,0.98207 -5e-5,1.96529 0.002,2.94727 -0.76147,0.87609 -1.65903,1.75221 -2.8125,1.98437 -0.94185,0.17454 -2.06701,0.0449 -2.71484,-0.76758 -0.82384,-1.07942 -0.55351,-2.94563 0.67773,-3.57617 h 0.002 c 0.93641,-0.48892 1.96237,-0.57856 2.9961,-0.58789 z m 14.05078,2 c -0.46289,-0.006 -0.92738,0.0379 -1.37695,0.10352 -0.5698,0.10385 -1.1774,0.35567 -1.44532,0.88476 -0.39871,0.79371 -0.39667,1.70871 -0.36523,2.57227 0.0541,0.71755 0.18185,1.56737 0.85351,2.00586 0.80499,0.46517 1.79444,0.45693 2.70508,0.41601 0.75468,-0.057 1.64788,-0.24134 2.03907,-0.93945 0.42766,-0.8216 0.41077,-1.77945 0.37304,-2.67578 -0.0604,-0.75981 -0.24523,-1.69446 -1.05273,-2.04102 -0.5455,-0.22959 -1.13533,-0.31887 -1.73047,-0.32617 z" />
  <path
     id="path2677"
     style="opacity:1;fill:#096dca;fill-opacity:1;fill-rule:nonzero;stroke:none;stroke-width:0.0115944"
     d="m 114.8748,87 c -1.84611,0.0012 -3.67408,0.387473 -5.38281,1.189453 -0.4623,0.233856 -0.96426,0.476265 -1.24805,0.941406 -0.28607,0.487416 -0.23733,1.085299 -0.23046,1.632813 0.0435,0.506228 0.0875,1.116766 0.50976,1.455078 0.37762,0.214946 0.79836,-0.03807 1.14063,-0.210938 1.46574,-0.783551 2.46471,-1.436141 4.14467,-1.392578 0.9302,-0.0099 2.03671,0.117488 2.625,0.960938 0.6305,0.932856 0.50693,2.328178 0.51953,3.404297 -1.68339,0 -2.87815,-0.03036 -4.54311,0.269531 -1.58702,0.276234 -3.24458,0.84046 -4.32617,2.132812 -0.95652,1.128891 -1.19699,2.513624 -1.03906,3.960938 0.12815,1.36749 0.80945,2.69134 1.91015,3.49023 1.46596,1.07602 3.37308,1.31742 5.125,1.08594 1.58131,-0.20336 2.98595,-1.10855 4.09375,-2.24804 0.002,0.47454 -0.024,1.25083 0.008,1.72656 0.0389,0.39832 0.47956,0.4956 0.79883,0.53906 0.76222,0.0673 1.53695,0.0815 2.29687,-0.0254 0.3227,-0.0495 0.74725,-0.22258 0.71875,-0.62891 0.007,-3.83925 0.003,-7.978127 0,-11.818356 -0.0287,-1.450966 -0.23536,-2.9888 -1.08203,-4.195313 -0.82045,-1.162841 -2.17851,-1.777725 -3.51952,-2.035146 C 116.5572,87.078777 115.71394,86.999471 114.8748,87 Z m 0.27344,11 c 0.62024,-0.0056 1.24302,0.01757 1.84961,0 0.004,0.982073 0,1.965298 0.002,2.94727 -0.76147,0.87609 -1.65903,1.75221 -2.8125,1.98437 -0.94185,0.17454 -2.06701,0.0449 -2.71484,-0.76758 -0.82384,-1.07942 -0.55351,-2.945627 0.67773,-3.576169 h 0.002 c 0.93641,-0.48892 1.96227,-0.578564 2.996,-0.587891 z"
     sodipodi:nodetypes="scccccccccccccccccccccssccccccs" />
  <path
     id="path1186"
     style="opacity:1;fill:#096dca;fill-opacity:1;fill-rule:nonzero;stroke:none;stroke-width:0.0115944"
     d="m 31.875,87 c -1.84611,0.0012 -3.674088,0.387473 -5.382812,1.189453 -0.462303,0.233856 -0.964264,0.476265 -1.248047,0.941406 -0.286079,0.487416 -0.237334,1.085299 -0.230469,1.632813 0.0435,0.506228 0.08753,1.116766 0.509766,1.455078 0.377618,0.214946 0.798361,-0.03807 1.140624,-0.210938 1.465742,-0.783551 2.464719,-1.436141 4.144672,-1.392578 0.930201,-0.0099 2.036717,0.117488 2.625,0.960938 0.630504,0.932856 0.506936,2.328178 0.519531,3.404297 -1.683386,0 -2.878143,-0.03036 -4.543109,0.269531 -1.587023,0.276234 -3.24458,0.84046 -4.326172,2.132812 -0.956519,1.128891 -1.196983,2.513624 -1.039062,3.960938 0.128159,1.36749 0.809451,2.69134 1.910156,3.49023 1.465963,1.07602 3.373075,1.31742 5.125,1.08594 1.581304,-0.20336 2.985945,-1.10855 4.09375,-2.24804 0.0019,0.47454 -0.024,1.25083 0.0078,1.72656 0.03887,0.39832 0.479563,0.4956 0.798828,0.53906 0.762221,0.0673 1.536948,0.0815 2.296875,-0.0254 0.322697,-0.0495 0.747248,-0.22258 0.71875,-0.62891 0.0067,-3.83925 0.0029,-7.978127 0,-11.818356 -0.02874,-1.450966 -0.235368,-2.9888 -1.082032,-4.195313 C 37.0936,88.10668 35.735536,87.491796 34.394531,87.234375 33.557401,87.078777 32.714141,86.999471 31.875,87 Z m 0.273438,11 c 0.620238,-0.0056 1.243019,0.01757 1.849609,0 0.0039,0.982073 3e-6,1.965298 0.002,2.94727 -0.761467,0.87609 -1.659029,1.75221 -2.8125,1.98437 -0.941851,0.17454 -2.06701,0.0449 -2.714844,-0.76758 -0.82384,-1.07942 -0.553505,-2.945627 0.677735,-3.576169 h 0.002 C 30.088844,98.098971 31.114707,98.009327 32.148438,98 Z"
     sodipodi:nodetypes="scccccccccccccccccccccssccccccs" />
  <path
     id="path1188"
     style="opacity:1;fill:#096dca;fill-opacity:1;fill-rule:nonzero;stroke:none;stroke-width:0.0116598"
     d="m 52.275391,87 c -0.585556,-0.0056 -1.171839,0.05393 -1.736329,0.164062 v 0.0039 c -1.798124,0.383394 -3.25878,1.594409 -4.533203,2.828125 -0.0069,-0.687247 0.02359,-1.675983 -0.01172,-2.362062 -0.05881,-0.356914 -0.446457,-0.471181 -0.75586,-0.53125 -0.813328,-0.113227 -1.649562,-0.115564 -2.46289,0 -0.347173,0.04965 -0.79161,0.239438 -0.771485,0.648437 -0.0069,7.700504 -0.002,15.700611 -0.002,23.401121 -0.02232,0.25761 0.152622,0.49972 0.392578,0.59571 0.56266,0.22976 1.184836,0.2393 1.785157,0.25195 0.696587,0 1.415534,0.0151 2.083984,-0.20508 0.284807,-0.0827 0.7693,-0.3365 0.730469,-0.64844 0.01061,-2.58065 -0.01665,-4.86064 0.01172,-7.4414 1.07435,1.03511 2.12943,1.99967 3.664063,2.20898 1.86061,0.2436 3.873383,-0.15525 5.333984,-1.36133 1.56405,-1.26369 2.361736,-3.50242 2.726563,-5.412105 0.393195,-2.200576 0.366204,-4.48501 -0.138672,-6.666016 C 58.19402,90.791392 57.348639,89.12175 55.890625,88.09375 54.847703,87.334525 53.563614,87.012222 52.275391,87 Z m -1.476563,4 c 0.639882,-0.0096 1.279324,0.19413 1.753906,0.65625 0.828476,0.770457 1.177382,1.94131 1.328125,3.056641 0.206266,1.692225 0.19737,3.480785 -0.439453,5.078125 -0.335586,0.837874 -0.901025,1.632204 -1.716797,2.001954 -0.836518,0.35906 -1.831453,0.24162 -2.583984,-0.27735 -0.836404,-0.5737 -1.503697,-1.36911 -2.132813,-2.173823 -0.01022,-1.816773 -0.002,-3.6344 -0.0059,-5.451172 -0.02608,-0.195362 0.134141,-0.327378 0.230469,-0.470703 0.675469,-0.87223 1.43488,-1.746675 2.449219,-2.181641 C 50.030566,91.088502 50.414899,91.005752 50.798828,91 Z"
     sodipodi:nodetypes="sccccccccccccccccccsscccccccccs" />
  <path
     id="path1190"
     style="opacity:1;fill:#096dca;fill-opacity:1;fill-rule:nonzero;stroke:none;stroke-width:0.0115528"
     d="M 81.1875 87.001953 C 80.959867 87.005564 80.733024 87.014296 80.507812 87.029297 C 78.51186 87.158515 76.516614 88.02209 75.1875 89.597656 C 73.769771 91.266991 73.155819 93.510744 73.027344 95.691406 C 72.936484 97.527585 73.052115 99.409612 73.648438 101.1543 C 74.149418 102.6264 75.116286 103.94061 76.423828 104.73828 C 78.089199 105.77104 80.083599 106.0226 81.992188 105.99805 C 83.449679 105.97725 84.903675 105.74327 86.306641 105.33789 C 86.812158 105.17571 87.331395 105.01753 87.78125 104.72266 C 88.165216 104.43115 88.189425 103.89677 88.216797 103.44922 C 88.233747 102.88294 88.258976 102.30858 88.160156 101.74805 C 88.121476 101.49318 87.93404 101.23459 87.660156 101.26172 C 87.209392 101.27852 86.807352 101.51456 86.384766 101.64844 C 84.761415 102.24294 83.021825 102.53794 81.300781 102.37109 C 80.273844 102.26633 79.216088 101.85495 78.566406 100.99023 C 77.860955 100.06788 77.67849 99.144345 77.673828 98 L 87.550781 98 C 87.893855 98 88.258755 97.938308 88.523438 97.695312 C 88.833568 97.423906 88.957109 96.995222 88.984375 96.589844 C 89.036655 95.162211 88.977209 93.412191 88.578125 92.035156 C 88.148711 90.439688 87.163154 88.983795 85.777344 88.130859 C 84.410493 87.250854 82.780928 86.97668 81.1875 87.001953 z M 81.617188 91 C 82.509921 90.99949 83.439239 91.236 84.046875 91.882812 C 84.84086 92.724079 85.02723 93.909895 84.996094 95 L 78 95 C 78.05686 94.052433 78.263711 93.074575 78.851562 92.287109 C 79.388597 91.5478 80.291511 91.063034 81.238281 91.013672 C 81.363281 91.004428 81.489654 91.000073 81.617188 91 z " />
  <path
     style="opacity:1;fill:#e74c3c;fill-opacity:1;fill-rule:nonzero;stroke:none;stroke-width:0.0123266"
     d="m 127.82132,100.10421 c -0.5698,0.10385 -1.17605,0.35512 -1.44397,0.88421 -0.39871,0.79371 -0.3962,1.70826 -0.36476,2.57182 0.0541,0.71755 0.18113,1.56685 0.85279,2.00534 0.80499,0.46517 1.79363,0.45773 2.70427,0.41681 0.75468,-0.057 1.64897,-0.24048 2.04015,-0.93859 0.42766,-0.8216 0.41004,-1.77942 0.37231,-2.67575 -0.0604,-0.75981 -0.24401,-1.69503 -1.05151,-2.04159 -0.96977,-0.408157 -2.08167,-0.372217 -3.10928,-0.22225 z"
     id="path1194" />
  <path
     style="opacity:1;fill:#e74c3c;fill-opacity:1;fill-rule:nonzero;stroke:none;stroke-width:0.0119392"
     d="m 141.84299,87.46171 c -1.13005,0.65086 -2.05065,1.712873 -2.83584,2.727168 -0.0108,-0.743077 0.0216,-1.78751 -0.0143,-2.52928 -0.0931,-0.427664 -0.46362,-0.533975 -0.83235,-0.578071 -0.81621,-0.07852 -1.65271,-0.09564 -2.46057,0.05739 -0.3186,0.06141 -0.7112,0.253298 -0.6909,0.635557 -0.008,5.693137 -0.002,11.687831 -0.004,17.380966 -0.043,0.30817 0.19569,0.56128 0.4773,0.64029 0.66825,0.20539 1.37706,0.19692 2.07036,0.20427 0.60977,-0.0141 1.4375,-0.0201 2.02459,-0.21031 0.27207,-0.0825 0.46806,-0.32728 0.42272,-0.62831 0.001,-3.46772 0.001,-6.934249 0,-10.400872 -0.0383,-0.258028 0.19779,-0.444377 0.32071,-0.645121 0.64197,-0.929326 1.14955,-1.90053 2.20084,-2.393835 0.78399,-0.363133 1.66583,-0.119501 2.4367,0.157656 0.27922,0.114668 0.70763,0.121815 0.83054,-0.218565 0.24104,-0.685693 0.19688,-1.431086 0.21121,-2.146578 -0.0155,-0.590155 0.0191,-1.192086 -0.13843,-1.765427 -0.0895,-0.344104 -0.45941,-0.457565 -0.75655,-0.546059 -1.06799,-0.300915 -2.28038,-0.306955 -3.26244,0.259338 z"
     id="path1184"
     sodipodi:nodetypes="ccccccccccccccccccccc" />
  <path
     style="opacity:1;fill:#e74c3c;fill-opacity:1;fill-rule:nonzero;stroke:none;stroke-width:0.0118181"
     d="m 149.55434,87.023906 c -0.44416,0.03928 -0.91638,0.05137 -1.31028,0.2858 -0.21741,0.125377 -0.25715,0.394259 -0.24079,0.624773 0.006,3.62295 -0.009,7.245902 0.007,10.868854 0.0375,1.277337 0.15078,2.584687 0.63235,3.777137 0.41611,1.02991 1.11392,1.96082 2.05368,2.5439 1.24484,0.80192 2.78305,0.97392 4.22074,0.8293 1.96016,-0.24148 3.63281,-1.49245 4.95245,-2.92637 0.0234,0.0101 0.069,0.0181 0.0912,0.0242 0,0.65114 -0.0223,1.60487 0.005,2.25604 0.0315,0.39798 0.46521,0.53524 0.79365,0.59023 0.85093,0.12315 1.73109,0.1303 2.57733,-0.0332 0.3226,-0.0574 0.69197,-0.28067 0.66157,-0.66434 0.004,-5.694966 9.8e-4,-11.691175 9.8e-4,-17.387132 0.0269,-0.493553 -0.5213,-0.670491 -0.90586,-0.720542 -0.97132,-0.124369 -2.26405,-0.125579 -3.23187,0.01007 -0.34012,0.06043 -0.81467,0.173413 -0.8556,0.595164 -0.0386,3.829598 0.0257,7.666547 -0.0339,11.492419 0,2.009581 -1.65822,2.724971 -3.23703,2.809221 -1.87493,0.10005 -2.64691,-2.198388 -2.7022,-3.908413 -0.0292,-3.424665 -0.002,-6.849227 -0.014,-10.27369 0.035,-0.402718 -0.36935,-0.616715 -0.69663,-0.677642 -0.8112,-0.164854 -1.94591,-0.138469 -2.76761,-0.111177 z"
     id="path1182"
     sodipodi:nodetypes="ccccccccccccccccccsccccc" />
  <path
     style="opacity:1;fill:#096dca;fill-opacity:1;fill-rule:nonzero;stroke:none;stroke-width:0.0117608"
     d="m 63.660594,83.113443 c -0.34726,0.06412 -0.627328,0.194357 -0.672229,0.608624 -0.03436,1.279598 0.01643,2.009388 -0.0248,3.288689 -0.704327,0 -1.608091,-0.0217 -2.311124,0 -0.361679,0.04242 -0.499808,0.486099 -0.55901,0.79046 -0.122883,0.768055 -0.127603,1.559196 0.004,2.326067 0.071,0.331294 0.249321,0.893272 0.661806,0.880249 0.665103,0.0099 1.531174,0.01085 2.196396,-0.0099 0.05318,2.403318 0.008,5.188598 0.0238,7.593099 -0.004,1.716169 -0.287184,3.538789 0.537645,5.107359 0.569406,1.12282 1.716711,1.86592 2.940942,2.11532 1.392962,0.27872 2.86284,0.25296 4.23465,-0.12982 0.445577,-0.1324 0.975986,-0.32666 1.11777,-0.81817 0.249431,-0.81375 0.210325,-1.68944 0.121698,-2.52517 -0.06263,-0.26924 -0.05905,-0.68834 -0.407516,-0.74437 -0.455027,0.0217 -0.850742,0.30188 -1.301038,0.36523 -0.714854,0.12164 -1.096081,0.11928 -1.61467,-0.46251 -0.487998,-0.62047 -0.549559,-1.44821 -0.562554,-2.205521 0.004,-2.637433 -0.01185,-5.653377 0.008,-8.290711 1.264293,0 2.029534,0.01874 3.292632,-0.0099 0.517533,-0.132104 0.569525,-0.894358 0.619265,-1.33319 0.03785,-0.702546 0.07329,-1.42581 -0.121817,-2.108328 -0.0709,-0.252862 -0.276368,-0.560981 -0.563609,-0.551806 -1.245264,-0.01776 -1.99042,0 -3.237097,-0.0099 -0.005,-1.272296 0.01414,-1.992714 -0.007,-3.264025 -0.04859,-0.45077 -0.580269,-0.575967 -0.953649,-0.639108 -0.96759,-0.114839 -2.456916,-0.119279 -3.422257,0.01381 z"
     id="path1180"
     sodipodi:nodetypes="cccccccccccccccccccccccccccc" />
  <path
     style="opacity:1;fill:#096dca;fill-opacity:1;fill-rule:nonzero;stroke:none;stroke-width:0.0114059"
     d="m 91.897876,80.109183 c -0.337473,0.06723 -0.777466,0.166321 -0.877616,0.560737 -0.04059,0.538619 -0.0057,1.080941 -0.01688,1.620826 9.48e-4,7.630206 -9.48e-4,15.261679 9.48e-4,22.892084 -0.03035,0.24612 0.119174,0.48191 0.343107,0.5698 0.49738,0.21045 1.046646,0.2161 1.576547,0.24047 0.714683,0 1.948822,0.0253 2.644263,-0.17928 0.277943,-0.0692 0.479625,-0.30983 0.434605,-0.62885 -0.0019,-2.89254 0.0076,-5.784988 -0.0057,-8.677726 1.877004,2.964254 3.237436,5.979376 5.09981,8.955226 0.29257,0.39763 0.82259,0.42774 1.26708,0.48903 0.86536,0.0662 1.73871,0.0692 2.60271,-0.0195 0.32757,-0.0516 0.71592,-0.0701 0.94986,-0.34677 0.23519,-0.47285 -0.0786,-0.99315 -0.30608,-1.40238 -1.82411,-2.90861 -3.64934,-5.816367 -5.48133,-8.719337 1.54627,-1.837032 2.72539,-3.549177 4.28169,-5.376955 0.32397,-0.401041 0.63229,-0.904096 0.56139,-1.446125 -0.0743,-0.337708 -0.45021,-0.437189 -0.73255,-0.499451 -0.82147,-0.149269 -1.26239,-0.12491 -2.09287,-0.09354 -0.55815,0.04872 -1.20295,0.08672 -1.60242,0.548069 -1.677827,2.271592 -2.86497,4.485526 -4.54729,6.754877 0.01015,-4.854488 0.0076,-9.708975 9.48e-4,-14.562196 -0.0076,-0.493701 -0.498868,-0.623095 -0.879104,-0.687889 -0.899116,-0.134265 -2.323547,-0.136409 -3.221535,0.0097 z"
     id="path1178"
     sodipodi:nodetypes="ccccccccccccccccccccccccc" />
  <path
     id="path4431"
     style="opacity:0.2;fill:#ffffff;fill-opacity:1;stroke-width:1.9376;stroke-linecap:round;stroke-linejoin:round"
     d="M 73 16 C 66.352 16 61 21.352 61 28 L 61 29 C 61 22.352 66.352 17 73 17 L 119 17 C 125.648 17 131 22.352 131 29 L 131 28 C 131 21.352 125.648 16 119 16 L 73 16 z M 28 61 C 21.352 61 16 66.352 16 73 L 16 74 C 16 67.352 21.352 62 28 62 L 61 62 L 61 61 L 28 61 z M 131 61 L 131 62 L 164 62 C 170.648 62 176 67.352 176 74 L 176 73 C 176 66.352 170.648 61 164 61 L 131 61 z " />
</svg>
