<?xml version="1.0" encoding="UTF-8" standalone="no"?>
<svg
   width="192"
   height="192"
   version="1"
   id="svg14"
   sodipodi:docname="apps_hh.svg"
   inkscape:version="1.1-rc (1:1.1+rc+202105232036+f4db50c7c1)"
   xmlns:inkscape="http://www.inkscape.org/namespaces/inkscape"
   xmlns:sodipodi="http://sodipodi.sourceforge.net/DTD/sodipodi-0.dtd"
   xmlns="http://www.w3.org/2000/svg"
   xmlns:svg="http://www.w3.org/2000/svg"
   xmlns:rdf="http://www.w3.org/1999/02/22-rdf-syntax-ns#"
   xmlns:cc="http://creativecommons.org/ns#"
   xmlns:dc="http://purl.org/dc/elements/1.1/">
  <metadata
     id="metadata20">
    <rdf:RDF>
      <cc:Work
         rdf:about="">
        <dc:format>image/svg+xml</dc:format>
        <dc:type
           rdf:resource="http://purl.org/dc/dcmitype/StillImage" />
      </cc:Work>
    </rdf:RDF>
  </metadata>
  <defs
     id="defs18">
    <filter
       inkscape:collect="always"
       style="color-interpolation-filters:sRGB"
       id="filter860"
       x="-0.048000001"
       width="1.096"
       y="-0.048000001"
       height="1.096">
      <feGaussianBlur
         inkscape:collect="always"
         stdDeviation="3.2"
         id="feGaussianBlur862" />
    </filter>
    <filter
       inkscape:collect="always"
       style="color-interpolation-filters:sRGB"
       id="filter11010"
       x="-0.041505883"
       y="-0.056903227"
       width="1.0830118"
       height="1.1138065">
      <feGaussianBlur
         inkscape:collect="always"
         stdDeviation="1.47"
         id="feGaussianBlur11012" />
    </filter>
  </defs>
  <sodipodi:namedview
     pagecolor="#ffffff"
     bordercolor="#666666"
     borderopacity="1"
     objecttolerance="10"
     gridtolerance="10"
     guidetolerance="10"
     inkscape:pageopacity="0"
     inkscape:pageshadow="2"
     inkscape:window-width="1920"
     inkscape:window-height="1019"
     id="namedview16"
     showgrid="false"
     inkscape:zoom="1"
     inkscape:cx="96"
     inkscape:cy="95.5"
     inkscape:window-x="0"
     inkscape:window-y="34"
     inkscape:window-maximized="1"
     inkscape:current-layer="svg14"
     inkscape:document-rotation="0"
     inkscape:pagecheckerboard="0" />
  <circle
     style="opacity:0.2;fill:#000000;fill-opacity:1;stroke-width:2.17702;filter:url(#filter860)"
     id="circle842"
     cx="96"
     cy="100"
     r="80" />
  <circle
     style="fill:#dd2b33;fill-opacity:1;stroke-width:2.17702"
     id="path840"
     cx="96"
     cy="96"
     r="80" />
  <path
     id="circle864"
     style="opacity:0.2;fill:#ffffff;fill-opacity:1;stroke-width:2.17702"
     d="M 95.941406,16 A 80,80 0 0 0 16,96 80,80 0 0 0 16.002,96.529297 80,80 0 0 1 96,17 80,80 0 0 1 175.99805,96.470703 80,80 0 0 0 176,96 80,80 0 0 0 96,16 80,80 0 0 0 95.94141,16 Z" />
  <path
     id="path10972"
     style="font-weight:bold;font-size:79.5093px;line-height:1.25;-inkscape-font-specification:'sans-serif Bold';opacity:0.2;fill:#000000;stroke-width:1.9863;filter:url(#filter11010)"
     d="m 54,65 v 62 h 12 v -20.96484 c 0,-4.73158 0.175162,-8.349812 1.464844,-10.851566 C 68.806114,92.627454 71.203807,91 74.660156,91 79.199839,91 82,94.55902 82,100.97656 V 127 H 94 V 97.957031 C 94,92.246505 92.60798,88.413562 89.822266,85.857422 87.088139,83.246895 82.425253,82 77.833984,82 75.254619,82 72.906096,82.458855 70.791016,83.492188 68.675937,84.525522 67.34127,86.18454 66,88.46875 V 84.226562 65 Z m 45,0 v 62 h 12 v -20.96484 c 0,-4.73158 0.17515,-8.349812 1.46484,-10.851566 C 113.8061,92.627454 116.20382,91 119.66016,91 124.19985,91 127,94.55902 127,100.97656 V 127 h 12 V 97.957031 c 0,-5.710526 -1.39201,-9.543469 -4.17773,-12.099609 C 132.08815,83.246895 127.42525,82 122.83398,82 c -2.57936,0 -4.92788,0.458855 -7.04296,1.492188 C 113.67594,84.525522 112.34127,86.18454 111,88.46875 V 84.226562 65 Z" />
  <path
     id="path9194"
     style="font-weight:bold;font-size:79.5093px;line-height:1.25;-inkscape-font-specification:'sans-serif Bold';fill:#ffffff;stroke-width:1.9863"
     d="m 54,63 v 62 H 66 V 104.03516 C 66,99.303578 66.175162,95.685348 67.464844,93.183594 68.806114,90.627454 71.203807,89 74.660156,89 79.199839,89 82,92.55902 82,98.976562 V 125 H 94 V 95.957031 C 94,90.246505 92.60798,86.413562 89.822266,83.857422 87.088139,81.246895 82.425253,80 77.833984,80 75.254619,80 72.906096,80.458855 70.791016,81.492188 68.675937,82.525522 67.34127,84.18454 66,86.46875 V 82.226562 63 Z m 45,0 v 62 h 12 v -20.96484 c 0,-4.731582 0.17515,-8.349812 1.46484,-10.851566 C 113.8061,90.627454 116.20382,89 119.66016,89 124.19985,89 127,92.55902 127,98.976562 V 125 h 12 V 95.957031 c 0,-5.710526 -1.39201,-9.543469 -4.17773,-12.099609 C 132.08815,81.246895 127.42525,80 122.83398,80 c -2.57936,0 -4.92788,0.458855 -7.04296,1.492188 C 113.67594,82.525522 112.34127,84.18454 111,86.46875 V 82.226562 63 Z" />
</svg>
