<svg width="48" height="48" version="1" xmlns="http://www.w3.org/2000/svg">
 <rect transform="matrix(0,-1,-1,0,0,0)" x="-44" y="-44" width="40" height="40" rx="20" ry="20" style="fill:#3f3f3f;stroke-width:1.0000501"/>
 <rect transform="matrix(0,-1,-1,0,0,0)" x="-45" y="-44" width="36" height="36" rx="18" ry="18" style="fill:#000000;opacity:.2;stroke-width:.90004504"/>
 <rect transform="matrix(0,-1,-1,0,0,0)" x="-44" y="-44" width="36" height="36" rx="18" ry="18" style="fill:#ea3e82;stroke-width:.90004504"/>
 <path d="m24 4c-11.079 0-19.998 8.92-19.998 20 0 0.16772-4e-3 0.33329 0 0.5 0.2642-10.846 9.087-19.5 19.998-19.5s19.734 8.6536 19.998 19.5c4e-3 -0.16671 0-0.33228 0-0.5 0-11.08-8.919-20-19.998-20z" fill="#fff" opacity=".2" style="opacity:.1"/>
 <path d="m4.0117 24.5c-0.0041 0.167-0.0117 0.332-0.0117 0.5 0 11.08 8.92 20 20 20s20-8.92 20-20c0-0.168-8e-3 -0.333-0.012-0.5-0.264 10.846-9.076 19.5-19.988 19.5s-19.724-8.654-19.988-19.5z" opacity=".2"/>
 <rect transform="matrix(0,-1,-1,0,0,0)" x="-45" y="-44" width="32" height="32" rx="16" ry="16" style="fill:#040404;opacity:.2;stroke-width:.80004001"/>
 <rect transform="matrix(0,-1,-1,0,0,0)" x="-44" y="-44" width="32" height="32" rx="16" ry="16" style="fill:#3f3f3f;stroke-width:.80004001"/>
 <path d="m25.515062 22.000444a1.4796156 1.5458069 0 0 0-1.515062 1.544981v10.910564a1.4796156 1.5458069 0 0 0 2.218255 1.337616l4.52388-2.725364 4.521745-2.729918a1.4796156 1.5458069 0 0 0 0-2.672953l-4.521745-2.72992-4.52388-2.725362a1.4796156 1.5458069 0 0 0-0.703193-0.209644z" style="fill:#000000;opacity:.2"/>
 <path d="m25.515062 21.000444a1.4796156 1.5458069 0 0 0-1.515062 1.544981v10.910564a1.4796156 1.5458069 0 0 0 2.218255 1.337616l4.52388-2.725364 4.521745-2.729918a1.4796156 1.5458069 0 0 0 0-2.672953l-4.521745-2.72992-4.52388-2.725362a1.4796156 1.5458069 0 0 0-0.703193-0.209644z" style="fill:#ea3e82"/>
 <path d="m26 8c-9.972 0-18 8.028-18 18 0 0.168847 0.020817 0.332297 0.0253906 0.5 0.2655438-9.736721 8.1714564-17.5 17.974609-17.5s17.709066 7.763279 17.974609 17.5c0.004574-0.167703 0.025391-0.331153 0.025391-0.5 0-9.972-8.028-18-18-18z" style="fill:#ffffff;opacity:.1;stroke-width:.90004504"/>
 <path d="m25.515625 21a1.4796156 1.5458069 0 0 0-1.515625 1.544922v1a1.4796156 1.5458069 0 0 1 1.515625-1.544922 1.4796156 1.5458069 0 0 1 0.703125 0.210938l4.523438 2.724609 4.521484 2.730469a1.4796156 1.5458069 0 0 1 0.65625 0.83789 1.4796156 1.5458069 0 0 0-0.65625-1.83789l-4.521484-2.730469-4.523438-2.724609a1.4796156 1.5458069 0 0 0-0.703125-0.210938z" style="fill:#ffffff;opacity:.1"/>
</svg>
