<svg xmlns="http://www.w3.org/2000/svg" width="48" height="48" version="1">
 <g>
  <path style="opacity:0.2" d="m 6,44.5 c -1.108,0 -2,-0.892 -2,-2 v -1 c 0,1.108 0.892,2 2,2 h 36 c 1.108,0 2,-0.892 2,-2 v 1 c 0,1.108 -0.892,2 -2,2 z"/>
  <rect style="fill:#4f4f4f" width="40" height="40" x="-44" y="-44" rx="2" ry="2" transform="matrix(0,-1,-1,0,0,0)"/>
  <path style="opacity:0.1;fill:#ffffff" d="M 6,4 C 4.892,4 4,4.892 4,6 v 0.5 c 0,-1.108 0.892,-2 2,-2 h 36 c 1.108,0 2,0.892 2,2 V 6 C 44,4.892 43.108,4 42,4 Z"/>
  <path style="opacity:0.2" d="m 20,10.5 v 16 h -4 v 12 h 16 v -12 h -8 v -4 h 4 v -4 h -4 v -4 h 4 v -4 h -4 z m 0,20 h 8 v 4 h -8 z"/>
  <path style="fill:#ffffff" d="M 20,10 V 26 H 16 V 38 H 32 V 26 h -8 v -4 h 4 v -4 h -4 v -4 h 4 v -4 h -4 z m 0,20 h 8 v 4 h -8 z"/>
 </g>
</svg>
