<?xml version="1.0" encoding="UTF-8" standalone="no"?>
<svg
   width="192"
   height="192"
   version="1.1"
   id="svg14"
   sodipodi:docname="apps_chronus.svg"
   inkscape:version="1.1.1 (1:1.1+202109281949+c3084ef5ed)"
   xmlns:inkscape="http://www.inkscape.org/namespaces/inkscape"
   xmlns:sodipodi="http://sodipodi.sourceforge.net/DTD/sodipodi-0.dtd"
   xmlns="http://www.w3.org/2000/svg"
   xmlns:svg="http://www.w3.org/2000/svg">
  <defs
     id="defs18">
    <filter
       inkscape:collect="always"
       style="color-interpolation-filters:sRGB"
       id="filter849"
       x="-0.048000001"
       y="-0.048000001"
       width="1.096"
       height="1.096">
      <feGaussianBlur
         inkscape:collect="always"
         stdDeviation="3.2"
         id="feGaussianBlur851" />
    </filter>
    <filter
       inkscape:collect="always"
       style="color-interpolation-filters:sRGB"
       id="filter4648"
       x="-0.108"
       y="-0.108"
       width="1.216"
       height="1.216">
      <feGaussianBlur
         inkscape:collect="always"
         stdDeviation="1.35"
         id="feGaussianBlur4650" />
    </filter>
    <filter
       inkscape:collect="always"
       style="color-interpolation-filters:sRGB"
       id="filter4652"
       x="-0.039620157"
       y="-0.060875425"
       width="1.0792403"
       height="1.1217508">
      <feGaussianBlur
         inkscape:collect="always"
         stdDeviation="1.5979799"
         id="feGaussianBlur4654" />
    </filter>
    <filter
       inkscape:collect="always"
       style="color-interpolation-filters:sRGB"
       id="filter4656"
       x="-0.045875855"
       y="-0.050330013"
       width="1.0917517"
       height="1.10066">
      <feGaussianBlur
         inkscape:collect="always"
         stdDeviation="2.1600011"
         id="feGaussianBlur4658" />
    </filter>
    <filter
       inkscape:collect="always"
       style="color-interpolation-filters:sRGB"
       id="filter4660"
       x="-0.14699999"
       y="-0.14699999"
       width="1.294"
       height="1.294">
      <feGaussianBlur
         inkscape:collect="always"
         stdDeviation="1.1025"
         id="feGaussianBlur4662" />
    </filter>
    <filter
       inkscape:collect="always"
       style="color-interpolation-filters:sRGB"
       id="filter4786"
       x="-0.096088008"
       y="-0.063631225"
       width="1.192176"
       height="1.1272624">
      <feGaussianBlur
         inkscape:collect="always"
         stdDeviation="1.7616135"
         id="feGaussianBlur4788" />
    </filter>
    <filter
       inkscape:collect="always"
       style="color-interpolation-filters:sRGB"
       id="filter4790"
       x="-0.096089062"
       y="-0.063631742"
       width="1.1921781"
       height="1.1272635">
      <feGaussianBlur
         inkscape:collect="always"
         stdDeviation="1.2411504"
         id="feGaussianBlur4792" />
    </filter>
  </defs>
  <sodipodi:namedview
     id="namedview16"
     pagecolor="#ffffff"
     bordercolor="#666666"
     borderopacity="1.0"
     inkscape:pageshadow="2"
     inkscape:pageopacity="0.0"
     inkscape:pagecheckerboard="0"
     showgrid="false"
     inkscape:zoom="1"
     inkscape:cx="63.5"
     inkscape:cy="84.5"
     inkscape:window-width="1920"
     inkscape:window-height="1019"
     inkscape:window-x="0"
     inkscape:window-y="34"
     inkscape:window-maximized="1"
     inkscape:current-layer="svg14">
    <inkscape:grid
       type="xygrid"
       id="grid2617" />
  </sodipodi:namedview>
  <rect
     style="opacity:0.2;stroke-width:4;filter:url(#filter849)"
     width="160"
     height="160"
     x="16"
     y="20"
     rx="32"
     ry="32"
     id="rect2" />
  <rect
     style="fill:#208ae7;fill-opacity:1;stroke-width:4"
     width="160"
     height="160"
     x="16"
     y="16"
     rx="32"
     ry="32"
     id="rect4" />
  <path
     id="path4604"
     style="opacity:0.2;fill:#000000;fill-opacity:1;stroke:none;stroke-width:26.8542;stroke-linecap:round;stroke-linejoin:round;stroke-miterlimit:4;stroke-dasharray:none;filter:url(#filter4652)"
     d="m 95,54 c 0,0 -21.446882,18.808059 -21.446882,40.899449 0,8.370761 -15.981861,15.241521 -11.586077,21.664451 0,0 21.704169,-16.26743 34.032959,-18.5639 13.8111,-0.0155 31.03051,23.59342 32.92773,17.11523 2.68784,1.23976 5.61229,1.88275 8.57227,1.88477 11.32184,0 20.5,-9.17816 20.5,-20.5 0,-11.321837 -9.17816,-20.5 -20.5,-20.5 -2.13547,0.01105 -4.2561,0.355703 -6.28516,1.021484 C 124.62942,62.973752 110.51472,54.001153 95,54 Z"
     sodipodi:nodetypes="csccccsccc" />
  <path
     id="circle3020"
     style="opacity:1;fill:#d9d9d9;fill-opacity:1;stroke:none;stroke-width:26.8542;stroke-linecap:round;stroke-linejoin:round;stroke-miterlimit:4;stroke-dasharray:none"
     d="m 95,52 c 0,0 -21.446882,18.808059 -21.446882,40.899449 0,8.370761 -15.981861,15.241521 -11.586077,21.664451 0,0 21.704169,-16.267429 34.032959,-18.5639 13.8111,-0.0155 31.03051,23.59342 32.92773,17.11523 2.68784,1.23976 5.61229,1.88275 8.57227,1.88477 11.32184,0 20.5,-9.17816 20.5,-20.5 0,-11.321837 -9.17816,-20.5 -20.5,-20.5 -2.13547,0.01105 -4.2561,0.355703 -6.28516,1.021484 C 124.62942,60.973752 110.51472,52.001153 95,52 Z"
     sodipodi:nodetypes="csccccsccc" />
  <path
     id="path12"
     style="opacity:0.2;fill:#ffffff;stroke-width:4"
     d="M 48,16 C 30.272,16 16,30.272 16,48 v 1 C 16,31.272 30.272,17 48,17 h 96 c 17.728,0 32,14.272 32,32 V 48 C 176,30.272 161.728,16 144,16 Z" />
  <path
     id="path4746"
     style="opacity:0.2;fill:#000000;fill-opacity:1;stroke:none;stroke-width:17.4121;stroke-linecap:round;stroke-linejoin:round;filter:url(#filter4786)"
     d="m 96,53.99964 a 44,44 0 0 0 -44,44 44,44 0 0 0 6.25,22.44336 L 96,97.99964 Z" />
  <path
     id="circle1594"
     style="opacity:1;fill:#ff9800;fill-opacity:1;stroke:none;stroke-width:17.4121;stroke-linecap:round;stroke-linejoin:round"
     d="M 96 52 A 44 44 0 0 0 52 96 A 44 44 0 0 0 58.25 118.44336 L 96 96 L 96 52 z " />
  <path
     id="path4794"
     style="opacity:0.2;fill:#ffffff;fill-opacity:1;stroke:none;stroke-width:17.4121;stroke-linecap:round;stroke-linejoin:round"
     d="M 96 52 A 44 44 0 0 0 52 96 A 44 44 0 0 0 52.029297 96.496094 A 44 44 0 0 1 96 53 L 96 52 z " />
  <path
     id="path4748"
     style="opacity:0.2;fill:#000000;fill-opacity:1;stroke:none;stroke-width:12.2676;stroke-linecap:round;stroke-linejoin:round;filter:url(#filter4790)"
     d="m 96,66.99964 a 31,31 0 0 0 -31,31 31,31 0 0 0 4.404297,15.8125 L 96,97.99964 Z" />
  <path
     id="circle1780"
     style="opacity:1;fill:#ffc107;fill-opacity:1;stroke:none;stroke-width:12.2676;stroke-linecap:round;stroke-linejoin:round"
     d="M 96 65 A 31 31 0 0 0 65 96 A 31 31 0 0 0 69.404297 111.8125 L 96 96 L 96 65 z " />
  <path
     id="path4796"
     style="opacity:0.2;fill:#ffffff;fill-opacity:1;stroke:none;stroke-width:12.2676;stroke-linecap:round;stroke-linejoin:round"
     d="M 96 65 A 31 31 0 0 0 65 96 A 31 31 0 0 0 65.029297 96.496094 A 31 31 0 0 1 96 66 L 96 65 z " />
  <path
     id="path4606"
     style="color:#000000;opacity:0.2;fill:#000000;fill-opacity:1;stroke-linecap:round;-inkscape-stroke:none;filter:url(#filter4656)"
     d="m 96,31 a 5,5 0 0 0 -5,5 V 95.105469 L 39.509766,124.66406 a 5,5 0 0 0 -1.845704,6.82617 5,5 0 0 0 6.826172,1.84571 l 53.47461,-30.69922 47.513676,27.94922 a 3,3 0 0 0 4.10742,-1.06446 3,3 0 0 0 -1.06446,-4.10742 L 101,97.460938 V 36 a 5,5 0 0 0 -5,-5 z" />
  <path
     id="path1922"
     style="color:#000000;fill:#f0f0f0;stroke-linecap:round;-inkscape-stroke:none;opacity:1;fill-opacity:1"
     d="M 96 29 A 5 5 0 0 0 91 34 L 91 93.105469 L 39.509766 122.66406 A 5 5 0 0 0 37.664062 129.49023 A 5 5 0 0 0 44.490234 131.33594 L 97.964844 100.63672 L 145.47852 128.58594 A 3 3 0 0 0 149.58594 127.52148 A 3 3 0 0 0 148.52148 123.41406 L 101 95.460938 L 101 34 A 5 5 0 0 0 96 29 z " />
  <path
     id="path4608"
     style="opacity:0.2;fill:#000000;fill-opacity:1;stroke:none;stroke-width:6.39553;stroke-linecap:round;stroke-linejoin:round;stroke-miterlimit:4;stroke-dasharray:none;filter:url(#filter4648)"
     d="m 92,124 v 11 H 81 v 8 h 11 v 11 h 8 v -11 h 11 v -8 h -11 v -11 z" />
  <path
     id="rect2809"
     style="opacity:1;fill:#0f50aa;fill-opacity:1;stroke:none;stroke-width:6.39553;stroke-linecap:round;stroke-linejoin:round;stroke-miterlimit:4;stroke-dasharray:none"
     d="M 92 122 L 92 133 L 81 133 L 81 141 L 92 141 L 92 152 L 100 152 L 100 141 L 111 141 L 111 133 L 100 133 L 100 122 L 92 122 z " />
  <circle
     style="opacity:0.2;fill:#000000;fill-opacity:1;stroke:none;stroke-width:3.56156;stroke-linecap:round;stroke-linejoin:round;filter:url(#filter4660)"
     id="circle4610"
     cx="96"
     cy="98"
     r="9" />
  <circle
     style="opacity:1;fill:#ffffff;fill-opacity:1;stroke:none;stroke-width:3.56156;stroke-linecap:round;stroke-linejoin:round"
     id="path1270"
     cx="96"
     cy="96"
     r="9" />
</svg>
