<svg width="48" height="48" version="1" xmlns="http://www.w3.org/2000/svg">
 <rect transform="matrix(0,-1,-1,0,0,0)" x="-44" y="-44" width="40" height="40" rx="20" ry="20" fill="#1da6e8" style="fill:#7c4c9c"/>
 <path d="m24 4c-11.08 0-20 8.92-20 20 0 0.168 8e-3 0.333 0.0117 0.5 0.2647-10.846 9.0763-19.5 19.988-19.5s19.724 8.6539 19.988 19.5c4e-3 -0.16686 0.0117-0.33213 0.0117-0.5 0-11.08-8.92-20-20-20z" fill="#fff" opacity=".2" style="opacity:.1"/>
 <path d="m4.0117 24.5c-0.0041 0.167-0.0117 0.332-0.0117 0.5 0 11.08 8.92 20 20 20s20-8.92 20-20c0-0.16787-0.0076-0.33314-0.01172-0.5-0.264 10.846-9.076 19.5-19.988 19.5s-19.724-8.654-19.988-19.5z" opacity=".2"/>
 <g transform="translate(0,3)" style="fill:#000000;opacity:.2">
  <path d="m24 8c-6.627417 0-12 5.372583-12 12 0.01054 3.838017 1.85269 7.411143 4.908203 9.648438 0.02455 0.01797 0.05106 0.02525 0.07617 0.03711a1 1 0 0 0 0.615234 0.214844 1 1 0 0 0 1-1 1 1 0 0 0-0.599607-0.91797v-2e-3c-2.512568-1.884369-3.993861-4.839724-4-7.980422 0-5.522847 4.477153-10 10-10s10 4.477153 10 10c-8e-3 3.138635-1.489077 6.091432-4 7.974609l-2e-3 0.0098a1 1 0 0 0-0.597656 0.916016 1 1 0 0 0 1 1 1 1 0 0 0 0.630859-0.226563c0.03086-0.01144 0.06345-0.01816 0.0918-0.03906 3.039113-2.240816 4.869604-5.806732 4.876997-9.634802 0-6.627417-5.372583-12-12-12z" style="fill:#000000;opacity:1"/>
  <path d="m24 12c-4.418278 0-8 3.581722-8 8 0.0036 2.407547 1.088815 4.659929 2.912109 6.162109 0.03917 0.03227 0.07929 0.05073 0.119141 0.06055a1 1 0 0 0 0.568359 0.177735 1 1 0 0 0 1-1 1 1 0 0 0-0.599609-0.917972v-0.01758c-1.270709-1.136552-1.997927-2.76001-2-4.464842 0-3.313708 2.686292-6 6-6s6 2.686292 6 6c-0.0026 1.704151-0.729797 3.326791-2 4.462891v0.01953a1 1 0 0 0-0.599609 0.917969 1 1 0 0 0 1 1 1 1 0 0 0 0.478515-0.123047c0.04639-0.0034 0.09317-0.01806 0.138672-0.05469 1.866791-1.502703 2.979896-3.782861 2.982422-6.222653 0-4.418278-3.581722-8-8-8z" style="fill:#000000;opacity:1"/>
  <path d="m24 17a3 3 0 0 0-3 3 3 3 0 0 0 3 3 3 3 0 0 0 3-3 3 3 0 0 0-3-3z" style="fill:#000000;opacity:1"/>
  <rect x="21" y="25" width="6" height="11" rx="3" ry="3" style="fill:#000000;opacity:1"/>
 </g>
 <g transform="translate(0,2)">
  <path d="m24 8c-6.627417 0-12 5.372583-12 12 0.01054 3.838017 1.85269 7.411143 4.908203 9.648438 0.02455 0.01797 0.05106 0.02525 0.07617 0.03711a1 1 0 0 0 0.615234 0.214844 1 1 0 0 0 1-1 1 1 0 0 0-0.599607-0.91797v-2e-3c-2.512568-1.884369-3.993861-4.839724-4-7.980422 0-5.522847 4.477153-10 10-10s10 4.477153 10 10c-8e-3 3.138635-1.489077 6.091432-4 7.974609l-2e-3 0.0098a1 1 0 0 0-0.597656 0.916016 1 1 0 0 0 1 1 1 1 0 0 0 0.630859-0.226563c0.03086-0.01144 0.06345-0.01816 0.0918-0.03906 3.039113-2.240816 4.869604-5.806732 4.876997-9.634802 0-6.627417-5.372583-12-12-12z" style="fill:#ffffff"/>
  <path d="m24 12c-4.418278 0-8 3.581722-8 8 0.0036 2.407547 1.088815 4.659929 2.912109 6.162109 0.03917 0.03227 0.07929 0.05073 0.119141 0.06055a1 1 0 0 0 0.568359 0.177735 1 1 0 0 0 1-1 1 1 0 0 0-0.599609-0.917972v-0.01758c-1.270709-1.136552-1.997927-2.76001-2-4.464842 0-3.313708 2.686292-6 6-6s6 2.686292 6 6c-0.0026 1.704151-0.729797 3.326791-2 4.462891v0.01953a1 1 0 0 0-0.599609 0.917969 1 1 0 0 0 1 1 1 1 0 0 0 0.478515-0.123047c0.04639-0.0034 0.09317-0.01806 0.138672-0.05469 1.866791-1.502703 2.979896-3.782861 2.982422-6.222653 0-4.418278-3.581722-8-8-8z" style="fill:#ffffff"/>
  <path d="m24 17a3 3 0 0 0-3 3 3 3 0 0 0 3 3 3 3 0 0 0 3-3 3 3 0 0 0-3-3z" style="fill:#ffffff"/>
  <rect x="21" y="25" width="6" height="11" rx="3" ry="3" style="fill:#ffffff"/>
 </g>
</svg>
