<?xml version="1.0" encoding="UTF-8" standalone="no"?>
<svg
   width="192"
   height="192"
   version="1"
   id="svg18"
   sodipodi:docname="apps_oneplus_community.svg"
   inkscape:version="1.1.1 (1:1.1+202109281949+c3084ef5ed)"
   xmlns:inkscape="http://www.inkscape.org/namespaces/inkscape"
   xmlns:sodipodi="http://sodipodi.sourceforge.net/DTD/sodipodi-0.dtd"
   xmlns="http://www.w3.org/2000/svg"
   xmlns:svg="http://www.w3.org/2000/svg">
  <sodipodi:namedview
     id="namedview20"
     pagecolor="#ffffff"
     bordercolor="#666666"
     borderopacity="1.0"
     inkscape:pageshadow="2"
     inkscape:pageopacity="0.0"
     inkscape:pagecheckerboard="0"
     showgrid="false"
     inkscape:snap-global="true"
     inkscape:zoom="1"
     inkscape:cx="143.5"
     inkscape:cy="156"
     inkscape:window-width="1920"
     inkscape:window-height="1016"
     inkscape:window-x="0"
     inkscape:window-y="32"
     inkscape:window-maximized="1"
     inkscape:current-layer="svg18">
    <inkscape:grid
       type="xygrid"
       id="grid1764" />
  </sodipodi:namedview>
  <defs
     id="defs6">
    <filter
       inkscape:collect="always"
       style="color-interpolation-filters:sRGB"
       id="filter4600"
       x="-0.065625"
       y="-0.0875"
       width="1.13125"
       height="1.175">
      <feGaussianBlur
         inkscape:collect="always"
         stdDeviation="4.375"
         id="feGaussianBlur4602" />
    </filter>
    <filter
       inkscape:collect="always"
       style="color-interpolation-filters:sRGB"
       id="filter4604"
       x="-0.135"
       y="-0.090000002"
       width="1.27"
       height="1.18">
      <feGaussianBlur
         inkscape:collect="always"
         stdDeviation="2.7"
         id="feGaussianBlur4606" />
    </filter>
    <filter
       inkscape:collect="always"
       style="color-interpolation-filters:sRGB"
       id="filter4646"
       x="-0.12039474"
       y="-0.054464286"
       width="1.2407895"
       height="1.1089286">
      <feGaussianBlur
         inkscape:collect="always"
         stdDeviation="0.953125"
         id="feGaussianBlur4648" />
    </filter>
  </defs>
  <path
     id="path4560"
     style="opacity:0.2;fill:#000000;fill-opacity:1;stroke-width:2.02432;stroke-linecap:round;stroke-linejoin:round;filter:url(#filter4604)"
     d="m 16,107 h 47.968316 v 68.39524 c 0,0.73969 0.500144,3.60476 -2.473777,3.60476 -2.359778,-0.31439 -5.520943,-2.86507 -5.520943,-2.86507 L 16,144.07235 Z"
     sodipodi:nodetypes="ccccccc" />
  <path
     id="rect1440"
     style="opacity:1;fill:#d91120;fill-opacity:1;stroke-width:2.02432;stroke-linecap:round;stroke-linejoin:round"
     d="m 16,103 h 47.968316 v 68.39524 c 0,0.73969 0.500144,3.60476 -2.473777,3.60476 -2.359778,-0.31439 -5.520943,-2.86507 -5.520943,-2.86507 L 16,140.07235 Z"
     sodipodi:nodetypes="ccccccc" />
  <path
     id="path4562"
     style="opacity:0.2;fill:#000000;fill-opacity:1;stroke-width:1.96884;stroke-linecap:round;stroke-linejoin:round;filter:url(#filter4600)"
     d="m 28,24 c -6.648,0 -12,5.352 -12,12 v 90 6 12 h 12 7 129 c 6.648,0 12,-5.352 12,-12 V 36 c 0,-6.648 -5.352,-12 -12,-12 z" />
  <path
     id="rect1269"
     style="opacity:1;stroke-width:1.96884;stroke-linecap:round;stroke-linejoin:round;fill:#ef313f;fill-opacity:1"
     d="M 28 20 C 21.352 20 16 25.352 16 32 L 16 122 L 16 128 L 16 140 L 28 140 L 35 140 L 164 140 C 170.648 140 176 134.648 176 128 L 176 32 C 176 25.352 170.648 20 164 20 L 28 20 z " />
  <path
     style="opacity:0.2;fill:#000000;stroke-width:1.35599;filter:url(#filter4646)"
     d="m 149.04603,82 c -0.85597,1.80777 -1.8262,4.718359 -2.91044,5.574673 -1.08422,0.808737 -2.62547,1.283565 -4.62275,1.426284 L 139,89.125327 V 96 h 8 v 28 h 11 V 82 Z"
     id="path4608"
     sodipodi:nodetypes="cccccccccc" />
  <path
     style="fill:#ffffff;stroke-width:1.35599;opacity:1"
     d="m 149.04603,80 c -0.85597,1.80777 -1.8262,4.718359 -2.91044,5.574673 -1.08422,0.808737 -2.62547,1.283565 -4.62275,1.426284 L 139,87.125327 V 94 h 8 v 28 h 11 V 80 Z"
     id="path2324"
     sodipodi:nodetypes="cccccccccc" />
  <path
     id="path4650"
     style="opacity:0.2;stroke-width:1.96884;stroke-linecap:round;stroke-linejoin:round;fill:#ffffff;fill-opacity:1"
     d="M 28 20 C 21.352 20 16 25.352 16 32 L 16 33 C 16 26.352 21.352 21 28 21 L 164 21 C 170.648 21 176 26.352 176 33 L 176 32 C 176 25.352 170.648 20 164 20 L 28 20 z " />
</svg>
