<?xml version="1.0" encoding="UTF-8" standalone="no"?>
<svg
   width="192"
   height="192"
   version="1.1"
   id="svg14"
   sodipodi:docname="apps_sber_market.svg"
   inkscape:version="1.1-rc (1:1.1+rc+202105232036+f4db50c7c1)"
   xmlns:inkscape="http://www.inkscape.org/namespaces/inkscape"
   xmlns:sodipodi="http://sodipodi.sourceforge.net/DTD/sodipodi-0.dtd"
   xmlns="http://www.w3.org/2000/svg"
   xmlns:svg="http://www.w3.org/2000/svg">
  <defs
     id="defs18">
    <filter
       inkscape:collect="always"
       style="color-interpolation-filters:sRGB"
       id="filter849"
       x="-0.048000001"
       y="-0.048000001"
       width="1.096"
       height="1.096">
      <feGaussianBlur
         inkscape:collect="always"
         stdDeviation="3.2"
         id="feGaussianBlur851" />
    </filter>
    <filter
       inkscape:collect="always"
       style="color-interpolation-filters:sRGB"
       id="filter10979"
       x="-0.23781824"
       y="-0.23781824"
       width="1.4756365"
       height="1.4756365">
      <feGaussianBlur
         inkscape:collect="always"
         stdDeviation="2.1800006"
         id="feGaussianBlur10981" />
    </filter>
    <filter
       inkscape:collect="always"
       style="color-interpolation-filters:sRGB"
       id="filter10983"
       x="-0.23781824"
       y="-0.23781824"
       width="1.4756365"
       height="1.4756365">
      <feGaussianBlur
         inkscape:collect="always"
         stdDeviation="2.1800006"
         id="feGaussianBlur10985" />
    </filter>
    <filter
       inkscape:collect="always"
       style="color-interpolation-filters:sRGB"
       id="filter10987"
       x="-0.12167641"
       y="-0.07266738"
       width="1.2433528"
       height="1.1453348">
      <feGaussianBlur
         inkscape:collect="always"
         stdDeviation="2.1800006"
         id="feGaussianBlur10989" />
    </filter>
    <filter
       inkscape:collect="always"
       style="color-interpolation-filters:sRGB"
       id="filter10991"
       x="-0.062313258"
       y="-0.37371438"
       width="1.1246265"
       height="1.7474288">
      <feGaussianBlur
         inkscape:collect="always"
         stdDeviation="2.1800006"
         id="feGaussianBlur10993" />
    </filter>
    <filter
       inkscape:collect="always"
       style="color-interpolation-filters:sRGB"
       id="filter10995"
       x="-0.065400016"
       y="-0.37371438"
       width="1.1308"
       height="1.7474288">
      <feGaussianBlur
         inkscape:collect="always"
         stdDeviation="2.1800006"
         id="feGaussianBlur10997" />
    </filter>
    <filter
       inkscape:collect="always"
       style="color-interpolation-filters:sRGB"
       id="filter10999"
       x="-0.2491391"
       y="-0.12167353"
       width="1.4982782"
       height="1.2433471">
      <feGaussianBlur
         inkscape:collect="always"
         stdDeviation="2.1800006"
         id="feGaussianBlur11001" />
    </filter>
  </defs>
  <sodipodi:namedview
     id="namedview16"
     pagecolor="#ffffff"
     bordercolor="#666666"
     borderopacity="1.0"
     inkscape:pageshadow="2"
     inkscape:pageopacity="0.0"
     inkscape:pagecheckerboard="0"
     showgrid="false"
     inkscape:zoom="1"
     inkscape:cx="80.5"
     inkscape:cy="76.5"
     inkscape:window-width="1920"
     inkscape:window-height="1019"
     inkscape:window-x="0"
     inkscape:window-y="34"
     inkscape:window-maximized="1"
     inkscape:current-layer="svg14" />
  <rect
     style="opacity:0.2;stroke-width:4;filter:url(#filter849)"
     width="160"
     height="160"
     x="16"
     y="20"
     rx="32"
     ry="32"
     id="rect2" />
  <rect
     style="fill:#546e7a;fill-opacity:1;stroke-width:4"
     width="160"
     height="160"
     x="16"
     y="16"
     rx="32"
     ry="32"
     id="rect4" />
  <path
     id="path12"
     style="opacity:0.1;fill:#ffffff;stroke-width:4"
     d="M 48,16 C 30.272,16 16,30.272 16,48 v 1 C 16,31.272 30.272,17 48,17 h 96 c 17.728,0 32,14.272 32,32 V 48 C 176,30.272 161.728,16 144,16 Z" />
  <path
     style="color:#000000;opacity:0.2;fill:#000000;stroke-width:16.421;stroke-linecap:round;stroke-linejoin:round;-inkscape-stroke:none;filter:url(#filter10983)"
     d="m 133,139 a 11,11 0 0 1 -11,11 11,11 0 0 1 -11,-11 11,11 0 0 1 11,-11 11,11 0 0 1 11,11 z"
     id="path10832" />
  <path
     style="color:#000000;fill:#f6446d;stroke-width:16.421;stroke-linecap:round;stroke-linejoin:round;-inkscape-stroke:none"
     d="m 133,137 a 11,11 0 0 1 -11,11 11,11 0 0 1 -11,-11 11,11 0 0 1 11,-11 11,11 0 0 1 11,11 z"
     id="circle2899" />
  <path
     style="color:#000000;opacity:0.2;fill:#000000;stroke-linecap:round;stroke-linejoin:round;-inkscape-stroke:none;filter:url(#filter10999)"
     d="m 143.64258,77.19515 a 7,7 0 0 0 -8.44727,5.16211 l -7,29 a 7,7 0 0 0 5.16211,8.44727 7,7 0 0 0 8.44727,-5.16211 l 7,-29.000004 a 7,7 0 0 0 -5.16211,-8.447266 z"
     id="path10834" />
  <path
     style="color:#000000;fill:#f04e23;stroke-linecap:round;stroke-linejoin:round;-inkscape-stroke:none;fill-opacity:1"
     d="m 143.64258,75.195312 a 7,7 0 0 0 -8.44727,5.16211 l -7,28.999998 a 7,7 0 0 0 5.16211,8.44727 7,7 0 0 0 8.44727,-5.16211 l 7,-29.000002 a 7,7 0 0 0 -5.16211,-8.447266 z"
     id="path954" />
  <path
     style="color:#000000;opacity:0.2;fill:#000000;stroke-linecap:round;-inkscape-stroke:none;filter:url(#filter10991)"
     d="m 62.037109,66.999838 a 7,7 0 0 0 -7,7 7,7 0 0 0 7,7 H 132 a 7,7 0 0 0 7,-7 7,7 0 0 0 -7,-7 z"
     id="path10836" />
  <path
     style="color:#000000;fill:#10b12d;stroke-linecap:round;-inkscape-stroke:none"
     d="m 62.037109,65 a 7,7 0 0 0 -7,7 7,7 0 0 0 7,7 H 132 a 7,7 0 0 0 7,-7 7,7 0 0 0 -7,-7 z"
     id="path2164" />
  <path
     style="color:#000000;opacity:0.2;fill:#000000;stroke-width:16.421;stroke-linecap:round;stroke-linejoin:round;-inkscape-stroke:none;filter:url(#filter10979)"
     d="M 90,139 A 11,11 0 0 1 79,150 11,11 0 0 1 68,139 11,11 0 0 1 79,128 11,11 0 0 1 90,139 Z"
     id="path10838" />
  <path
     style="color:#000000;fill:#ffd507;stroke-width:16.421;stroke-linecap:round;stroke-linejoin:round;-inkscape-stroke:none"
     d="M 90,137 A 11,11 0 0 1 79,148 11,11 0 0 1 68,137 11,11 0 0 1 79,126 11,11 0 0 1 90,137 Z"
     id="path2701" />
  <path
     style="color:#000000;opacity:0.2;fill:#000000;stroke-linecap:round;stroke-linejoin:round;-inkscape-stroke:none;filter:url(#filter10995)"
     d="m 69,105.99984 a 7,7 0 0 0 -7,7 7,7 0 0 0 7,7 h 66 a 7,7 0 0 0 7,-7 7,7 0 0 0 -7,-7 z"
     id="path10840" />
  <path
     id="path11993"
     style="color:#000000;fill:#ffffff;stroke-linecap:round;stroke-linejoin:round;-inkscape-stroke:none;fill-opacity:1;opacity:0.2"
     d="M 142.08789 75 A 7 7 0 0 0 135.19531 80.357422 L 128.19531 109.35742 A 7 7 0 0 0 128.05664 111.46875 A 7 7 0 0 1 128.19531 110.35742 L 135.19531 81.357422 A 7 7 0 0 1 143.64258 76.195312 A 7 7 0 0 1 148.97852 82.490234 A 7 7 0 0 0 143.64258 75.195312 A 7 7 0 0 0 142.08789 75 z " />
  <path
     style="color:#000000;fill:#ff8f14;stroke-linecap:round;stroke-linejoin:round;-inkscape-stroke:none;fill-opacity:1"
     d="m 69,104 a 7,7 0 0 0 -7,7 7,7 0 0 0 7,7 h 66 a 7,7 0 0 0 7,-7 7,7 0 0 0 -7,-7 z"
     id="path6618" />
  <path
     id="path11995"
     style="color:#000000;fill:#ffffff;stroke-linecap:round;-inkscape-stroke:none;opacity:0.2"
     d="M 62.037109 65 A 7 7 0 0 0 55.037109 72 A 7 7 0 0 0 55.103516 72.5 A 7 7 0 0 1 62.037109 66 L 132 66 A 7 7 0 0 1 138.96289 72.285156 A 7 7 0 0 0 139 72 A 7 7 0 0 0 132 65 L 62.037109 65 z " />
  <path
     style="color:#000000;opacity:0.2;fill:#000000;stroke-linecap:round;stroke-linejoin:round;-inkscape-stroke:none;filter:url(#filter10987)"
     d="m 40,47.999838 a 7,7 0 0 0 -7,7 7,7 0 0 0 7,7 c 4.480797,0 6.644728,1.112787 8.759766,3.25 2.115038,2.137213 4.039408,5.826632 5.570312,10.833984 3.061809,10.014705 4.374414,24.566588 7.878906,38.611328 a 7,7 0 0 0 8.486328,5.09571 7,7 0 0 0 5.095704,-8.48633 C 72.6669,98.784196 71.492697,84.336024 67.71875,71.992025 65.831777,65.820026 63.250329,59.989165 58.710937,55.402182 54.171546,50.815198 47.53336,47.999838 40,47.999838 Z"
     id="path10842" />
  <path
     id="path11999"
     style="color:#000000;fill:#ffffff;stroke-linecap:round;stroke-linejoin:round;-inkscape-stroke:none;fill-opacity:1;opacity:0.2"
     d="M 69 104 A 7 7 0 0 0 62 111 A 7 7 0 0 0 62.066406 111.5 A 7 7 0 0 1 69 105 L 135 105 A 7 7 0 0 1 141.96289 111.28516 A 7 7 0 0 0 142 111 A 7 7 0 0 0 135 104 L 69 104 z " />
  <path
     style="color:#000000;fill:#01c3d2;stroke-linecap:round;stroke-linejoin:round;-inkscape-stroke:none;fill-opacity:1"
     d="m 40,46 a 7,7 0 0 0 -7,7 7,7 0 0 0 7,7 c 4.480797,0 6.644728,1.112787 8.759766,3.25 2.115038,2.137213 4.039408,5.826632 5.570312,10.833984 3.061809,10.014705 4.374414,24.566585 7.878906,38.611326 a 7,7 0 0 0 8.486328,5.09571 7,7 0 0 0 5.095704,-8.48633 C 72.6669,96.784358 71.492697,82.336186 67.71875,69.992187 65.831777,63.820188 63.250329,57.989327 58.710937,53.402344 54.171546,48.81536 47.53336,46 40,46 Z"
     id="path6479" />
  <path
     id="path11991"
     style="color:#000000;fill:#ffffff;stroke-width:16.421;stroke-linecap:round;stroke-linejoin:round;-inkscape-stroke:none;opacity:0.2"
     d="M 122 126 A 11 11 0 0 0 111 137 A 11 11 0 0 0 111.03516 137.5 A 11 11 0 0 1 122 127 A 11 11 0 0 1 132.97656 137.32812 A 11 11 0 0 0 133 137 A 11 11 0 0 0 122 126 z " />
  <path
     id="path11997"
     style="color:#000000;fill:#ffffff;stroke-width:16.421;stroke-linecap:round;stroke-linejoin:round;-inkscape-stroke:none;opacity:0.2"
     d="M 79 126 A 11 11 0 0 0 68 137 A 11 11 0 0 0 68.035156 137.5 A 11 11 0 0 1 79 127 A 11 11 0 0 1 89.976562 137.32812 A 11 11 0 0 0 90 137 A 11 11 0 0 0 79 126 z " />
  <path
     id="path12001"
     style="color:#000000;fill:#ffffff;stroke-linecap:round;stroke-linejoin:round;-inkscape-stroke:none;fill-opacity:1;opacity:0.2"
     d="M 40 46 A 7 7 0 0 0 33 53 A 7 7 0 0 0 33.066406 53.5 A 7 7 0 0 1 40 47 C 47.53336 47 54.171546 49.81536 58.710938 54.402344 C 63.250329 58.989327 65.831777 64.820189 67.71875 70.992188 C 71.492697 83.336186 72.6669 97.784355 75.791016 110.30469 A 7 7 0 0 1 75.974609 111.50391 A 7 7 0 0 0 75.791016 109.30469 C 72.6669 96.784355 71.492697 82.336186 67.71875 69.992188 C 65.831777 63.820189 63.250329 57.989327 58.710938 53.402344 C 54.171546 48.81536 47.53336 46 40 46 z " />
</svg>
