<?xml version="1.0" encoding="UTF-8" standalone="no"?>
<svg
   width="192"
   height="192"
   version="1.1"
   id="svg34"
   sodipodi:docname="apps_redis.svg"
   inkscape:version="1.1-rc (1:1.1+rc+202105232036+f4db50c7c1)"
   xmlns:inkscape="http://www.inkscape.org/namespaces/inkscape"
   xmlns:sodipodi="http://sodipodi.sourceforge.net/DTD/sodipodi-0.dtd"
   xmlns="http://www.w3.org/2000/svg"
   xmlns:svg="http://www.w3.org/2000/svg">
  <defs
     id="defs38">
    <filter
       inkscape:collect="always"
       style="color-interpolation-filters:sRGB"
       id="filter889"
       x="-0.0384"
       y="-0.063999995"
       width="1.0768"
       height="1.128">
      <feGaussianBlur
         inkscape:collect="always"
         stdDeviation="2.5599993"
         id="feGaussianBlur891" />
    </filter>
    <filter
       inkscape:collect="always"
       style="color-interpolation-filters:sRGB"
       id="filter893"
       x="-0.038400001"
       y="-0.063999993"
       width="1.0768"
       height="1.128">
      <feGaussianBlur
         inkscape:collect="always"
         stdDeviation="2.5599993"
         id="feGaussianBlur895" />
    </filter>
    <filter
       inkscape:collect="always"
       style="color-interpolation-filters:sRGB"
       id="filter897"
       x="-0.0384"
       y="-0.063999996"
       width="1.0768"
       height="1.128">
      <feGaussianBlur
         inkscape:collect="always"
         stdDeviation="2.5599993"
         id="feGaussianBlur899" />
    </filter>
    <filter
       inkscape:collect="always"
       style="color-interpolation-filters:sRGB"
       id="filter905"
       x="-0.046736843"
       y="-0.049333334"
       width="1.0934737"
       height="1.0986667">
      <feGaussianBlur
         inkscape:collect="always"
         stdDeviation="1.48"
         id="feGaussianBlur907" />
    </filter>
  </defs>
  <sodipodi:namedview
     id="namedview36"
     pagecolor="#ffffff"
     bordercolor="#666666"
     borderopacity="1.0"
     inkscape:pageshadow="2"
     inkscape:pageopacity="0.0"
     inkscape:pagecheckerboard="0"
     showgrid="false"
     inkscape:zoom="2.02"
     inkscape:cx="24.009901"
     inkscape:cy="24.009901"
     inkscape:window-width="1920"
     inkscape:window-height="1019"
     inkscape:window-x="0"
     inkscape:window-y="34"
     inkscape:window-maximized="1"
     inkscape:current-layer="svg34" />
  <path
     style="opacity:0.2;stroke-width:4;filter:url(#filter889)"
     d="M 96.003692,82.000004 C 90.697334,81.99904 85.390711,83.181507 81.463904,85.537583 L 21.886583,121.27791 c -7.853623,4.71214 -7.846331,12.73549 0.0072,17.44764 l 59.570005,35.74033 c 7.853618,4.71214 21.225972,4.71213 29.079582,0 l 59.57015,-35.74033 c 7.8536,-4.71213 7.84621,-12.73551 -0.008,-17.44764 L 110.54348,85.537583 c -3.92681,-2.356076 -9.23343,-3.536615 -14.539788,-3.537579 z"
     id="path2" />
  <path
     style="fill:#af2d2c;stroke-width:4"
     d="m 96.003692,78.000005 c -5.306358,-9.64e-4 -10.612981,1.181503 -14.539788,3.537579 L 21.886583,117.27791 c -7.853623,4.71214 -7.846331,12.73549 0.0072,17.44765 l 59.570005,35.74032 c 7.853618,4.71214 21.225972,4.71213 29.079582,0 l 59.57015,-35.74032 c 7.8536,-4.71214 7.84621,-12.73552 -0.008,-17.44765 L 110.54348,81.537584 c -3.92681,-2.356076 -9.23343,-3.536615 -14.539788,-3.537579 z"
     id="path4" />
  <path
     style="opacity:0.2;stroke-width:4;filter:url(#filter893)"
     d="M 96.003696,50.000011 C 90.697338,49.999047 85.390715,51.181515 81.463908,53.53759 L 21.886584,89.277918 c -7.853622,4.712143 -7.84633,12.735492 0.0072,17.447642 l 59.570008,35.74033 c 7.853618,4.71214 21.225978,4.71213 29.079578,0 l 59.57015,-35.74033 c 7.8536,-4.71213 7.84621,-12.735515 -0.008,-17.447642 L 110.54348,53.53759 c -3.92681,-2.356075 -9.23342,-3.536615 -14.539784,-3.537579 z"
     id="path6" />
  <path
     style="fill:#da3837;stroke-width:4"
     d="m 96.003696,46.000012 c -5.306358,-9.64e-4 -10.612981,1.181504 -14.539788,3.537579 L 21.886584,85.277919 c -7.853622,4.712143 -7.84633,12.735493 0.0072,17.447641 l 59.570008,35.74033 c 7.853618,4.71214 21.225978,4.71213 29.079578,0 l 59.57015,-35.74033 c 7.8536,-4.712132 7.84621,-12.735514 -0.008,-17.447641 L 110.54348,49.537591 c -3.92681,-2.356075 -9.23342,-3.536615 -14.539784,-3.537579 z"
     id="path8" />
  <path
     style="opacity:0.2;stroke-width:4;filter:url(#filter897)"
     d="m 96.003692,18.000019 c -5.306358,-9.64e-4 -10.612981,1.181504 -14.539788,3.537579 L 21.886583,57.277925 c -7.853623,4.712143 -7.846331,12.735493 0.0072,17.447644 l 59.570005,35.740321 c 7.853618,4.71214 21.225972,4.71214 29.079582,0 l 59.57015,-35.740321 c 7.8536,-4.712135 7.84621,-12.735517 -0.008,-17.447644 L 110.54348,21.537598 c -3.92681,-2.356075 -9.23343,-3.536615 -14.539788,-3.537579 z"
     id="path10" />
  <path
     style="fill:#e0504d;stroke-width:4"
     d="m 96.003692,14.000019 c -5.306358,-9.64e-4 -10.612981,1.181504 -14.539788,3.53758 L 21.886583,53.277926 c -7.853623,4.712143 -7.846331,12.735493 0.0072,17.447644 l 59.570005,35.74032 c 7.853618,4.71214 21.225972,4.71214 29.079582,0 l 59.57015,-35.74032 c 7.8536,-4.712135 7.84621,-12.735517 -0.008,-17.447644 L 110.54348,17.537599 c -3.92681,-2.356076 -9.23343,-3.536616 -14.539788,-3.53758 z"
     id="path12" />
  <path
     id="path14"
     style="opacity:0.2;fill:#ffffff;stroke-width:4"
     d="M 96 14 C 90.693642 13.999036 85.387745 15.182986 81.460938 17.539062 L 21.882812 53.28125 C 17.686935 55.798763 15.784691 59.2541 16.083984 62.650391 C 16.20592 59.585623 18.098824 56.551631 21.882812 54.28125 L 81.460938 18.539062 C 85.387745 16.182986 90.693642 14.999036 96 15 C 101.30636 15.000964 106.62007 16.182987 110.54688 18.539062 L 170.10938 54.28125 C 173.89346 56.551624 175.78909 59.58562 175.91406 62.650391 C 176.20981 59.254091 174.30536 55.79876 170.10938 53.28125 L 110.54688 17.539062 C 106.62007 15.182987 101.30636 14.000964 96 14 z " />
  <path
     id="polygon16"
     style="opacity:0.2;stroke-width:0.143105;filter:url(#filter905)"
     d="M 84.804688,28 88.578125,38.226562 76,44.886719 92.855469,47.113281 98.134766,60 101.40234,48.451172 116,46.226562 104.67969,40 l 3,-10.574219 -11.101565,5.337891 z M 60,52 A 19.999996,11.999997 0 0 0 40,64 19.999996,11.999997 0 0 0 60,76 19.999996,11.999997 0 0 0 80,64 19.999996,11.999997 0 0 0 60,52 Z M 108,76 72,84.314453 97.123047,100 Z" />
  <polygon
     style="fill:#ffffff"
     transform="matrix(0.11808045,0,0,0.17343324,8.4056757,-7.2400262)"
     points="647,191.66 746.72,230.66 840.74,199.88 815.33,260.85 911.2,296.75 787.57,309.58 759.89,376.17 715.19,301.86 572.44,289.03 678.96,250.62 "
     id="polygon18" />
  <polygon
     style="fill:#ffffff"
     transform="matrix(0.10888894,0,0,0.16389744,15.183284,-3.5849475)"
     points="521.79,524.11 852.4,473.38 752.51,619.81 "
     id="polygon22" />
  <ellipse
     style="fill:#ffffff;stroke-width:4"
     cx="60.000008"
     cy="62.000008"
     rx="19.999996"
     ry="11.999997"
     id="ellipse26" />
  <g
     transform="matrix(4.1471791,0,0,4.0891835,-1.5928223,-3.8193478)"
     id="g32">
    <path
       style="opacity:0.25"
       transform="matrix(0.02808355,0,0,0.04204144,2.8125203,-1.0576208)"
       d="M 1046.891,477.818 840.825,400.575 1046.891,314.947 Z"
       id="path28" />
    <path
       style="opacity:0.4"
       transform="matrix(0.02808355,0,0,0.04204144,2.8125203,-1.0576208)"
       d="m 1252.957,392.274 -206.066,85.544 V 314.947 Z"
       id="path30" />
  </g>
</svg>
