<?xml version="1.0" encoding="UTF-8" standalone="no"?>
<svg
   width="192"
   height="192"
   version="1"
   id="svg28"
   sodipodi:docname="apps_octo_mobile.svg"
   inkscape:version="1.1.1 (1:1.1+202109281949+c3084ef5ed)"
   xmlns:inkscape="http://www.inkscape.org/namespaces/inkscape"
   xmlns:sodipodi="http://sodipodi.sourceforge.net/DTD/sodipodi-0.dtd"
   xmlns="http://www.w3.org/2000/svg"
   xmlns:svg="http://www.w3.org/2000/svg"
   xmlns:rdf="http://www.w3.org/1999/02/22-rdf-syntax-ns#"
   xmlns:cc="http://creativecommons.org/ns#"
   xmlns:dc="http://purl.org/dc/elements/1.1/">
  <metadata
     id="metadata34">
    <rdf:RDF>
      <cc:Work
         rdf:about="">
        <dc:format>image/svg+xml</dc:format>
        <dc:type
           rdf:resource="http://purl.org/dc/dcmitype/StillImage" />
      </cc:Work>
    </rdf:RDF>
  </metadata>
  <defs
     id="defs32">
    <filter
       inkscape:collect="always"
       style="color-interpolation-filters:sRGB"
       id="filter24985"
       x="-0.061157886"
       y="-0.096941057"
       width="1.1223158"
       height="1.1938821">
      <feGaussianBlur
         inkscape:collect="always"
         stdDeviation="4.3320171"
         id="feGaussianBlur24987" />
    </filter>
    <filter
       inkscape:collect="always"
       style="color-interpolation-filters:sRGB"
       id="filter25168"
       x="-0.051165859"
       y="-0.14040243"
       width="1.1023317"
       height="1.2808049">
      <feGaussianBlur
         inkscape:collect="always"
         stdDeviation="3.2464411"
         id="feGaussianBlur25170" />
    </filter>
    <filter
       inkscape:collect="always"
       style="color-interpolation-filters:sRGB"
       id="filter25210"
       x="-0.051267176"
       y="-0.13964513"
       width="1.1025344"
       height="1.2792903">
      <feGaussianBlur
         inkscape:collect="always"
         stdDeviation="2.5952544"
         id="feGaussianBlur25212" />
    </filter>
    <filter
       inkscape:collect="always"
       style="color-interpolation-filters:sRGB"
       id="filter25252"
       x="-0.052656906"
       y="-0.13027951"
       width="1.1053138"
       height="1.260559">
      <feGaussianBlur
         inkscape:collect="always"
         stdDeviation="1.9774192"
         id="feGaussianBlur25254" />
    </filter>
    <filter
       inkscape:collect="always"
       style="color-interpolation-filters:sRGB"
       id="filter25297"
       x="-0.054481132"
       y="-0.1203125"
       width="1.1089623"
       height="1.240625">
      <feGaussianBlur
         inkscape:collect="always"
         stdDeviation="1.203125"
         id="feGaussianBlur25299" />
    </filter>
    <filter
       inkscape:collect="always"
       style="color-interpolation-filters:sRGB"
       id="filter25339"
       x="-0.05895467"
       y="-0.10304517"
       width="1.1179093"
       height="1.2060903">
      <feGaussianBlur
         inkscape:collect="always"
         stdDeviation="1.6949461"
         id="feGaussianBlur25341" />
    </filter>
    <filter
       inkscape:collect="always"
       style="color-interpolation-filters:sRGB"
       id="filter25382"
       x="-0.058753584"
       y="-0.10366533"
       width="1.1175072"
       height="1.2073307">
      <feGaussianBlur
         inkscape:collect="always"
         stdDeviation="1.6134493"
         id="feGaussianBlur25384" />
    </filter>
    <filter
       inkscape:collect="always"
       style="color-interpolation-filters:sRGB"
       id="filter33897"
       x="-0.048000001"
       y="-0.048000001"
       width="1.096"
       height="1.096">
      <feGaussianBlur
         inkscape:collect="always"
         stdDeviation="3.2"
         id="feGaussianBlur33899" />
    </filter>
  </defs>
  <sodipodi:namedview
     pagecolor="#ffffff"
     bordercolor="#666666"
     borderopacity="1"
     objecttolerance="10"
     gridtolerance="10"
     guidetolerance="10"
     inkscape:pageopacity="0"
     inkscape:pageshadow="2"
     inkscape:window-width="1920"
     inkscape:window-height="1019"
     id="namedview30"
     showgrid="false"
     inkscape:zoom="3.28"
     inkscape:cx="95.121951"
     inkscape:cy="86.128049"
     inkscape:window-x="0"
     inkscape:window-y="34"
     inkscape:window-maximized="1"
     inkscape:current-layer="svg28"
     inkscape:pagecheckerboard="0"
     inkscape:snap-global="true"
     showguides="true"
     inkscape:snap-bbox="true"
     inkscape:snap-bbox-midpoints="true">
    <inkscape:grid
       type="xygrid"
       id="grid841" />
  </sodipodi:namedview>
  <circle
     style="opacity:0.2;fill:#000000;fill-opacity:1;stroke-width:14.5229;stroke-linecap:round;stroke-linejoin:round;stroke-miterlimit:4;stroke-dasharray:none;filter:url(#filter33897)"
     id="circle33859"
     cx="96"
     cy="100"
     r="80" />
  <circle
     style="opacity:1;fill:#bfbfbf;fill-opacity:1;stroke-width:14.5229;stroke-linecap:round;stroke-linejoin:round;stroke-miterlimit:4;stroke-dasharray:none"
     id="path19391"
     cx="96"
     cy="96"
     r="80" />
  <path
     id="path25344"
     style="opacity:0.2;fill:#000000;fill-opacity:1;stroke-width:3.11003;stroke-linecap:round;stroke-linejoin:round;filter:url(#filter25382)"
     d="M 65.695312,60.646484 C 64.639316,60.675649 64,65.43158 64,82.730469 64,91.163287 67.112411,98 70.951172,98 c 3.838761,0 6.951172,-6.836713 6.951172,-15.269531 0,-8.43282 -3.112411,-15.267578 -6.951172,-15.267578 -2.099323,0 -3.981381,-6.851606 -5.25586,-6.816407 z m 62.072268,2.275391 c -1.09004,0.0087 -2.48946,5.920516 -4.2832,5.984375 -3.27999,0.116775 -5.73113,6.052481 -5.47461,13.257812 0.25652,7.205327 3.12431,12.950756 6.40429,12.833985 3.27999,-0.116774 5.73113,-6.052486 5.47461,-13.257813 -0.52622,-14.780844 -1.21792,-18.825562 -2.12109,-18.818359 z" />
  <path
     id="path25214"
     style="opacity:0.2;fill:#000000;fill-opacity:1;stroke-width:1.62755;stroke-linecap:round;stroke-linejoin:round;filter:url(#filter25252)"
     d="m 87.289062,81.080124 c 6.113063,9.6917 10.970005,20.091636 -6.83789,25.804696 -14.55853,4.67061 -18.369098,-6.73264 -20.267578,-8.916024 -1.829274,-2.103782 -7.015511,-6.105211 -5.945313,-2.978516 3.918787,4.757973 4.766862,11.82198 8.503907,15.83204 3.473219,3.61334 9.429143,6.08718 14.425781,6.47851 5.920673,0.4637 14.344121,-2.66871 20.53125,-5.4668 l -0.796875,2.01563 c 0,0 20.124936,5.90222 30.097656,2.71289 4.77376,-1.52668 10.00258,-5.29978 12.55469,-9.61328 2.71793,-4.76013 1.9251,-11.831531 4.64843,-17.361333 0.32471,-3.288786 -3.80734,1.796477 -5.10546,4.263671 -1.34722,2.560542 -2.44003,14.533932 -17.68164,13.326172 -18.64344,-1.47734 -16.30006,-12.715554 -12.57227,-23.550781 l -7.16797,18.140621 z" />
  <path
     id="path7254"
     style="fill:#c62828;fill-opacity:1;stroke-width:1.62755;stroke-linecap:round;stroke-linejoin:round"
     d="M 87.289062 79.080078 C 93.402125 88.771778 98.259067 99.171711 80.451172 104.88477 C 65.892642 109.55538 62.082074 98.152134 60.183594 95.96875 C 58.35432 93.864968 53.168083 89.863539 54.238281 92.990234 C 58.157068 97.748207 59.005143 104.81221 62.742188 108.82227 C 66.215407 112.43561 72.171331 114.90945 77.167969 115.30078 C 83.088642 115.76448 91.51209 112.63207 97.699219 109.83398 L 96.902344 111.84961 C 96.902344 111.84961 117.02728 117.75183 127 114.5625 C 131.77376 113.03582 137.00258 109.26272 139.55469 104.94922 C 142.27262 100.18909 141.47979 93.117693 144.20312 87.587891 C 144.52783 84.299105 140.39578 89.384368 139.09766 91.851562 C 137.75044 94.412104 136.65763 106.38549 121.41602 105.17773 C 102.77258 103.70039 105.11596 92.46218 108.84375 81.626953 L 101.67578 99.767578 L 87.289062 79.080078 z " />
  <path
     id="path25172"
     style="opacity:0.2;fill:#000000;fill-opacity:1;stroke-width:2.0909;stroke-linecap:round;stroke-linejoin:round;filter:url(#filter25210)"
     d="m 82.806641,82.144867 c 5.850614,13.508124 9.967077,27.668673 -13.765625,31.412113 -19.402258,3.06038 -21.801157,-15.476837 -24.595704,-17.927738 -2.194011,-1.92421 -7.080353,-6.51808 -6.33789,-2.33789 0.489765,2.757472 2.309399,3.637348 2.699219,5.902343 1.077478,6.260535 1.749913,11.269625 4.978515,15.873055 3.697166,5.27152 10.769109,9.58302 17.035156,11.06445 13.090223,3.09479 38.281248,-6.46289 38.281248,-6.46289 z m 75.964839,0.550781 c -1.22003,-0.104102 -3.61989,3.487499 -4.89062,5.269532 -2.15807,3.026405 -0.2411,21.61959 -19.82813,23.08985 -23.95872,1.79841 -23.20071,-12.928198 -20.60351,-27.417975 l -9.20313,40.718755 c 0,0 26.71238,3.5277 38.74414,-2.48633 5.75938,-2.8788 11.65312,-8.69889 14.04297,-14.67773 2.08697,-5.22112 1.59386,-10.251026 1.20703,-16.591805 -0.13994,-2.294029 1.42904,-3.566977 1.27344,-6.363281 -0.059,-1.059764 -0.33551,-1.506315 -0.74219,-1.541016 z" />
  <path
     id="path7252"
     style="fill:#d32f2f;fill-opacity:1;stroke-width:2.0909;stroke-linecap:round;stroke-linejoin:round"
     d="M 82.806641 80.144531 C 88.657255 93.652655 92.773718 107.8132 69.041016 111.55664 C 49.638758 114.61702 47.239859 96.079807 44.445312 93.628906 C 42.251301 91.704696 37.364959 87.110826 38.107422 91.291016 C 38.597187 94.048488 40.416821 94.928364 40.806641 97.193359 C 41.884119 103.45389 42.556554 108.46298 45.785156 113.06641 C 49.482322 118.33793 56.554265 122.64943 62.820312 124.13086 C 75.910535 127.22565 101.10156 117.66797 101.10156 117.66797 L 82.806641 80.144531 z M 158.77148 80.695312 C 157.55145 80.59121 155.15159 84.182811 153.88086 85.964844 C 151.72279 88.991249 153.63976 107.58443 134.05273 109.05469 C 110.09401 110.8531 110.85202 96.126496 113.44922 81.636719 L 104.24609 122.35547 C 104.24609 122.35547 130.95847 125.88317 142.99023 119.86914 C 148.74961 116.99034 154.64335 111.17025 157.0332 105.19141 C 159.12017 99.97029 158.62706 94.940388 158.24023 88.599609 C 158.10029 86.30558 159.66927 85.032632 159.51367 82.236328 C 159.4547 81.176564 159.17816 80.730013 158.77148 80.695312 z " />
  <path
     id="path25130"
     style="opacity:0.2;fill:#000000;fill-opacity:1;stroke-width:2.42503;stroke-linecap:round;stroke-linejoin:round;filter:url(#filter25168)"
     d="M 123.64844,81.084242 103.93555,125.3069 c 0,0 29.5791,10.07548 44.6289,5.9668 7.20406,-1.96675 15.23119,-7.24828 19.30664,-13.50586 3.55894,-5.46452 4.13915,-11.29612 5.13868,-18.595707 0.36162,-2.64092 2.43472,-3.73348 2.89257,-6.949219 0.69408,-4.874898 -4.78549,0.645109 -7.25195,2.962891 -3.14157,2.952196 -5.18355,24.534205 -27.79492,21.759765 C 113.19741,113.55188 117.405,96.974778 123.64844,81.084242 Z m -51.353518,0.914063 c 9.720904,14.035442 17.617491,29.206095 -8.525391,38.851565 -21.372661,7.88549 -28.308147,-12.65154 -32.042969,-14.80469 -2.932224,-1.69044 -9.531719,-5.8085 -7.738281,-1.22265 1.183046,3.02506 3.450634,3.61393 4.408203,6.10156 2.646753,6.87588 4.548451,12.41905 9.265625,16.92187 5.401769,5.15631 14.42558,8.45635 21.888672,8.71875 15.590933,0.54816 42.072269,-16.04101 42.072269,-16.04101 z" />
  <path
     id="path7250"
     style="fill:#e53935;fill-opacity:1;stroke-width:2.42503;stroke-linecap:round;stroke-linejoin:round"
     d="M 123.64844 79.083984 L 103.93555 123.30664 C 103.93555 123.30664 133.51465 133.38212 148.56445 129.27344 C 155.76851 127.30669 163.79564 122.02516 167.87109 115.76758 C 171.43003 110.30306 172.01024 104.47146 173.00977 97.171875 C 173.37139 94.530955 175.44449 93.438395 175.90234 90.222656 C 176.59642 85.347758 171.11685 90.867765 168.65039 93.185547 C 165.50882 96.137743 163.46684 117.71975 140.85547 114.94531 C 113.19741 111.55162 117.405 94.97452 123.64844 79.083984 z M 72.294922 79.998047 C 82.015826 94.033489 89.912413 109.20414 63.769531 118.84961 C 42.39687 126.7351 35.461384 106.19807 31.726562 104.04492 C 28.794338 102.35448 22.194843 98.236418 23.988281 102.82227 C 25.171327 105.84733 27.438915 106.4362 28.396484 108.92383 C 31.043237 115.79971 32.944935 121.34288 37.662109 125.8457 C 43.063878 131.00201 52.087689 134.30205 59.550781 134.56445 C 75.141714 135.11261 101.62305 118.52344 101.62305 118.52344 L 72.294922 79.998047 z " />
  <path
     id="path9241"
     style="fill:#eaeaea;fill-opacity:1;stroke-width:3.11003;stroke-linecap:round;stroke-linejoin:round"
     d="M 65.695312 59.646484 C 64.639316 59.675649 64 64.43158 64 81.730469 C 64 90.163287 67.112411 97 70.951172 97 C 74.789933 97 77.902344 90.163287 77.902344 81.730469 C 77.902344 73.297649 74.789933 66.462891 70.951172 66.462891 C 68.851849 66.462891 66.969791 59.611285 65.695312 59.646484 z M 127.76758 61.921875 C 126.67754 61.930568 125.27812 67.842391 123.48438 67.90625 C 120.20439 68.023025 117.75325 73.958731 118.00977 81.164062 C 118.26629 88.369389 121.13408 94.114818 124.41406 93.998047 C 127.69405 93.881273 130.14519 87.945561 129.88867 80.740234 C 129.36245 65.95939 128.67075 61.914672 127.76758 61.921875 z " />
  <path
     id="path24947"
     style="opacity:0.2;fill:#000000;fill-opacity:1;stroke-width:2.42503;stroke-linecap:round;stroke-linejoin:round;filter:url(#filter24985)"
     d="M 93.078245,36.798349 C 78.607156,37.256424 66.809565,47.583781 66,70.945861 65.480405,85.940138 79.952193,99.96472 76.594466,114.58745 c -1.738628,7.57163 -12.419675,14.43006 -23.569404,16.09007 -3.159727,0.47043 -7.89579,0.84652 -10.963532,0.59915 -24.314051,-1.9606 -31.118674,0.48984 -31.06117,2.35576 10.32779,3.91903 20.613278,7.93052 32.033904,9.44197 13.809312,1.82757 43.500962,0.0535 53.523311,-17.1304 4.689555,20.09749 38.598255,18.95797 52.407565,17.1304 11.42063,-1.51145 21.70671,-5.52294 32.0345,-9.44197 0.0575,-1.86592 -6.74771,-4.31636 -31.06176,-2.35576 -3.06775,0.24737 -7.80322,-0.12872 -10.96294,-0.59915 -11.14973,-1.66001 -21.83137,-8.51844 -23.57,-16.09007 C 112.04722,99.96472 126.28296,85.931993 127,70.945861 128.39909,41.704995 111.71281,35.937404 95.999998,36.837422 c -0.98205,-0.05625 -1.957014,-0.06961 -2.921753,-0.03907 z"
     sodipodi:nodetypes="ssssscscscsssscss" />
  <path
     id="rect1141"
     style="fill:#f44336;fill-opacity:1;stroke-width:2.42503;stroke-linecap:round;stroke-linejoin:round"
     d="M 93.078245,34.798352 C 78.607156,35.256427 66.809565,45.583784 66,68.945864 c -0.519595,14.994277 13.952193,29.018859 10.594466,43.641586 -1.738628,7.57163 -12.419675,14.43006 -23.569404,16.09007 -3.159727,0.47043 -7.89579,0.84652 -10.963532,0.59915 -24.314051,-1.9606 -31.118674,0.48984 -31.06117,2.35576 10.32779,3.91903 20.613278,7.93052 32.033904,9.44197 13.809312,1.82757 43.500962,0.0535 53.523311,-17.1304 4.689555,20.09749 38.598255,18.95797 52.407565,17.1304 11.42063,-1.51145 21.70671,-5.52294 32.0345,-9.44197 0.0575,-1.86592 -6.74771,-4.31636 -31.06176,-2.35576 -3.06775,0.24737 -7.80322,-0.12872 -10.96294,-0.59915 -11.14973,-1.66001 -21.83137,-8.51844 -23.57,-16.09007 C 112.04722,97.964723 126.28296,83.931996 127,68.945864 128.39909,39.704998 111.71281,33.937407 95.999998,34.837425 c -0.98205,-0.05625 -1.957014,-0.06961 -2.921753,-0.03907 z"
     sodipodi:nodetypes="ssssscscscsssscss" />
  <path
     id="circle25256"
     style="opacity:0.2;fill:#000000;stroke-width:2.41715;stroke-linecap:round;stroke-linejoin:round;filter:url(#filter25297)"
     d="M 113,61 A 10,10 0 0 0 103,71 10,10 0 0 0 113,81 10,10 0 0 0 123,71 10,10 0 0 0 113,61 Z M 80,65 A 10,10 0 0 0 70,75 10,10 0 0 0 80,85 10,10 0 0 0 90,75 10,10 0 0 0 80,65 Z" />
  <circle
     style="fill:#ffffff;stroke-width:2.41715;stroke-linecap:round;stroke-linejoin:round"
     id="path7589"
     cx="80"
     cy="74"
     r="10" />
  <circle
     style="fill:#9b521e;fill-opacity:1;stroke-width:1.692;stroke-linecap:round;stroke-linejoin:round"
     id="circle7671"
     cx="81"
     cy="73"
     r="7" />
  <circle
     style="opacity:0.5;fill:#ffd720;fill-opacity:1;stroke-width:14.6636;stroke-linecap:round;stroke-linejoin:round;stroke-miterlimit:4;stroke-dasharray:none"
     id="path23847"
     cx="81"
     cy="73"
     r="5" />
  <circle
     style="fill:#3f3f3f;fill-opacity:1;stroke-width:0.725145;stroke-linecap:round;stroke-linejoin:round"
     id="circle7691"
     cx="81"
     cy="73"
     r="3" />
  <circle
     style="fill:#ffffff;stroke-width:2.41715;stroke-linecap:round;stroke-linejoin:round"
     id="circle23647"
     cx="-113"
     cy="70"
     r="10"
     transform="scale(-1,1)" />
  <circle
     style="fill:#9b521e;fill-opacity:1;stroke-width:1.692;stroke-linecap:round;stroke-linejoin:round"
     id="circle23649"
     cx="-112"
     cy="69"
     r="7"
     transform="scale(-1,1)" />
  <circle
     style="opacity:0.5;fill:#ffd720;fill-opacity:1;stroke-width:14.6636;stroke-linecap:round;stroke-linejoin:round;stroke-miterlimit:4;stroke-dasharray:none"
     id="circle24019"
     cx="112"
     cy="69"
     r="5" />
  <circle
     style="fill:#3f3f3f;fill-opacity:1;stroke-width:0.725145;stroke-linecap:round;stroke-linejoin:round"
     id="circle23653"
     cx="-112"
     cy="69"
     r="3"
     transform="scale(-1,1)" />
  <path
     id="path25301"
     style="opacity:0.2;fill:#000000;fill-opacity:1;stroke-width:2.49728;stroke-linecap:round;stroke-linejoin:round;filter:url(#filter25339)"
     d="m 96.473046,33.000465 c -17.950375,-1.5e-5 -32.501978,13.276371 -32.501765,29.083457 0.02548,0.496182 0.06563,0.991696 0.120395,1.486038 -1.2757,2.068704 -2.045444,4.413956 -2.091409,7.057204 -0.01727,1.004081 0.787968,1.83205 1.798768,1.849555 1.011037,0.01748 1.844916,-0.782489 1.862538,-1.786799 0.04775,-2.74586 1.101729,-5.095609 2.90914,-7.108711 6.1e-4,-6.07e-4 0.0012,-0.0012 0.0018,-0.0018 6.278817,-6.374486 19.375252,-8.737456 30.722666,-9.644449 5.196601,-0.09451 11.758851,0.1209 17.196751,1.521561 2.21487,0.570491 4.21469,1.342367 5.86595,2.310168 0.2925,0.17576 0.57446,0.354517 0.84754,0.536394 0.45275,0.30987 0.8807,0.632765 1.26115,0.978656 1.88446,1.713238 2.93715,3.775744 2.86922,6.852356 -0.022,1.004111 0.77958,1.835841 1.79041,1.857842 1.01084,0.02182 1.84815,-0.774395 1.87029,-1.778508 0.0654,-2.962381 -0.79591,-5.523429 -2.26723,-7.591825 -1.98699,-14.359519 -15.82903,-25.6181 -32.256171,-25.621182 z"
     sodipodi:nodetypes="ccccsccccsccscccccc" />
  <path
     id="rect21084"
     style="opacity:0.2;fill:#000000;stroke-width:12;stroke-linecap:round;stroke-linejoin:round"
     d="m 89.692058,85.526228 c 7.058613,4.492642 12.828302,2.636041 16.800132,-3.686758 0,0 -3.8785,6.770633 -8.083394,7.090985 -5.804212,0.644603 -8.716738,-3.404227 -8.716738,-3.404227 z"
     sodipodi:nodetypes="cccc" />
  <path
     id="circle33901"
     style="opacity:0.2;fill:#ffffff;fill-opacity:1;stroke-width:14.5229;stroke-linecap:round;stroke-linejoin:round;stroke-miterlimit:4;stroke-dasharray:none"
     d="M 96 16 A 80 80 0 0 0 16 96 A 80 80 0 0 0 16.035156 96.5 A 80 80 0 0 1 96 17 A 80 80 0 0 1 175.98242 96.253906 A 80 80 0 0 0 176 96 A 80 80 0 0 0 96 16 z " />
  <path
     id="path33942"
     style="fill:#ffffff;fill-opacity:1;stroke-width:2.42503;stroke-linecap:round;stroke-linejoin:round;opacity:0.1"
     d="M 98.953125 34.75 C 97.968122 34.750057 96.982051 34.781639 96 34.837891 C 95.01795 34.781641 94.042864 34.768288 93.078125 34.798828 C 78.607036 35.256903 66.809565 45.583232 66 68.945312 C 65.991598 69.187762 66.018279 69.427973 66.017578 69.669922 C 66.912786 46.508536 78.665931 36.255039 93.078125 35.798828 C 94.042864 35.768288 95.01795 35.781641 96 35.837891 C 111.07486 34.974414 127.0338 40.262128 127.07031 66.513672 C 127.42104 41.133352 113.27995 34.749164 98.953125 34.75 z M 114.92969 107.92773 C 114.84143 109.80685 114.96903 111.69231 115.4043 113.58789 C 117.14293 121.15952 127.82488 128.01772 138.97461 129.67773 C 142.13433 130.14816 146.86975 130.52471 149.9375 130.27734 C 170.7426 128.59969 178.70748 130.15272 180.54297 131.80469 C 180.69511 131.74692 180.84785 131.69055 181 131.63281 C 181.0575 129.76689 174.25155 127.31674 149.9375 129.27734 C 146.86975 129.52471 142.13433 129.14816 138.97461 128.67773 C 127.82488 127.01772 117.14293 120.15952 115.4043 112.58789 C 115.04616 111.0282 114.92527 109.47587 114.92969 107.92773 z M 77.064453 107.94727 C 77.070773 109.48879 76.950388 111.03475 76.59375 112.58789 C 74.855122 120.15952 64.17512 127.01772 53.025391 128.67773 C 49.865664 129.14816 45.130242 129.52471 42.0625 129.27734 C 17.748449 127.31674 10.942496 129.76689 11 131.63281 C 11.152152 131.69055 11.304894 131.74692 11.457031 131.80469 C 13.292389 130.15272 21.257395 128.59969 42.0625 130.27734 C 45.130242 130.52471 49.865664 130.14816 53.025391 129.67773 C 64.17512 128.01772 74.855122 121.15952 76.59375 113.58789 C 77.027506 111.6989 77.155016 109.81967 77.064453 107.94727 z " />
  <path
     id="path7744"
     style="fill:#f3f3f3;fill-opacity:1;stroke-width:2.49728;stroke-linecap:round;stroke-linejoin:round"
     d="m 96.473046,32.000019 c -17.950375,-1.5e-5 -32.501978,13.276371 -32.501765,29.083457 0.02548,0.496182 0.06563,0.991696 0.120395,1.486038 -1.2757,2.068704 -2.045444,4.413956 -2.091409,7.057204 -0.01727,1.004081 0.787968,1.83205 1.798768,1.849555 1.011037,0.01748 1.844916,-0.782489 1.862538,-1.786799 0.04775,-2.74586 1.101729,-5.095609 2.90914,-7.108711 6.1e-4,-6.07e-4 0.0012,-0.0012 0.0018,-0.0018 6.278817,-6.374486 19.375252,-8.737456 30.722666,-9.644449 5.196601,-0.09451 11.758851,0.1209 17.196751,1.521561 2.21487,0.570491 4.21469,1.342367 5.86595,2.310168 0.2925,0.17576 0.57446,0.354517 0.84754,0.536394 0.45275,0.30987 0.8807,0.632765 1.26115,0.978656 1.88446,1.713238 2.93715,3.775744 2.86922,6.852356 -0.022,1.004111 0.77958,1.835841 1.79041,1.857842 1.01084,0.02182 1.84815,-0.774395 1.87029,-1.778508 0.0654,-2.962381 -0.79591,-5.523429 -2.26723,-7.591825 -1.98699,-14.359519 -15.82903,-25.6181 -32.256171,-25.621182 z"
     sodipodi:nodetypes="ccccsccccsccscccccc" />
</svg>
