<?xml version="1.0" encoding="UTF-8" standalone="no"?>
<svg
   width="192"
   height="192"
   version="1"
   id="svg16"
   sodipodi:docname="apps_hound.svg"
   inkscape:version="1.1.1 (1:1.1+202109281949+c3084ef5ed)"
   xmlns:inkscape="http://www.inkscape.org/namespaces/inkscape"
   xmlns:sodipodi="http://sodipodi.sourceforge.net/DTD/sodipodi-0.dtd"
   xmlns="http://www.w3.org/2000/svg"
   xmlns:svg="http://www.w3.org/2000/svg"
   xmlns:rdf="http://www.w3.org/1999/02/22-rdf-syntax-ns#"
   xmlns:cc="http://creativecommons.org/ns#"
   xmlns:dc="http://purl.org/dc/elements/1.1/">
  <metadata
     id="metadata22">
    <rdf:RDF>
      <cc:Work
         rdf:about="">
        <dc:format>image/svg+xml</dc:format>
        <dc:type
           rdf:resource="http://purl.org/dc/dcmitype/StillImage" />
      </cc:Work>
    </rdf:RDF>
  </metadata>
  <defs
     id="defs20">
    <filter
       inkscape:collect="always"
       style="color-interpolation-filters:sRGB"
       id="filter867"
       x="-0.048000001"
       width="1.096"
       y="-0.048000001"
       height="1.096">
      <feGaussianBlur
         inkscape:collect="always"
         stdDeviation="3.2"
         id="feGaussianBlur869" />
    </filter>
    <filter
       inkscape:collect="always"
       style="color-interpolation-filters:sRGB"
       id="filter2672"
       x="-0.075"
       y="-0.075"
       width="1.15"
       height="1.15">
      <feGaussianBlur
         inkscape:collect="always"
         stdDeviation="3.5"
         id="feGaussianBlur2674" />
    </filter>
    <filter
       inkscape:collect="always"
       style="color-interpolation-filters:sRGB"
       id="filter2714"
       x="-0.093195805"
       y="-0.06274876"
       width="1.1863916"
       height="1.1254975">
      <feGaussianBlur
         inkscape:collect="always"
         stdDeviation="1.9347534"
         id="feGaussianBlur2716" />
    </filter>
  </defs>
  <sodipodi:namedview
     pagecolor="#ffffff"
     bordercolor="#666666"
     borderopacity="1"
     objecttolerance="10"
     gridtolerance="10"
     guidetolerance="10"
     inkscape:pageopacity="0"
     inkscape:pageshadow="2"
     inkscape:window-width="1920"
     inkscape:window-height="1014"
     id="namedview18"
     showgrid="false"
     inkscape:zoom="1"
     inkscape:cx="113.5"
     inkscape:cy="77"
     inkscape:window-x="0"
     inkscape:window-y="34"
     inkscape:window-maximized="1"
     inkscape:current-layer="svg16"
     inkscape:pagecheckerboard="0"
     inkscape:snap-bbox="true"
     inkscape:snap-bbox-midpoints="true"
     showguides="false"
     inkscape:snap-global="true">
    <inkscape:grid
       type="xygrid"
       id="grid7495" />
  </sodipodi:namedview>
  <rect
     id="rect849"
     ry="80"
     rx="80"
     height="160"
     width="160"
     y="-176"
     x="-180"
     transform="matrix(0,-1,-1,0,0,0)"
     style="opacity:0.2;fill:#000000;stroke-width:4;filter:url(#filter867)" />
  <rect
     style="fill:#97d8ff;fill-opacity:1;stroke-width:3.99636"
     transform="matrix(0.70710678,-0.70710678,-0.70710678,-0.70710678,0,0)"
     x="-79.927292"
     y="-215.6918"
     width="159.85458"
     height="159.85458"
     rx="79.927292"
     ry="79.927292"
     id="rect2" />
  <path
     id="path2538"
     style="fill:#0097f6;fill-opacity:1;stroke-width:3.99636"
     d="m 39.482875,152.51713 a 67.9382,67.9382 0 0 0 96.079125,0 67.9382,67.9382 0 0 0 0,-96.079125 z" />
  <path
     id="rect2010"
     style="fill:#0097f6;fill-opacity:1;stroke-width:3.99636"
     d="m 152.51714,39.482866 a 67.9382,67.9382 0 0 0 -96.079126,0 67.9382,67.9382 0 0 0 0,96.079124 z" />
  <circle
     style="opacity:0.2;fill:#000000;fill-opacity:1;stroke:none;stroke-width:11.6397;stroke-linecap:round;stroke-linejoin:round;stroke-miterlimit:4;stroke-dasharray:none;stroke-opacity:1;filter:url(#filter2672)"
     id="circle2634"
     cx="96"
     cy="98"
     r="56" />
  <circle
     style="opacity:1;fill:#ffffff;fill-opacity:1;stroke:none;stroke-width:11.6397;stroke-linecap:round;stroke-linejoin:round;stroke-miterlimit:4;stroke-dasharray:none;stroke-opacity:1"
     id="path2396"
     cx="96"
     cy="96"
     r="56" />
  <path
     id="path2676"
     style="opacity:0.2;fill:#000000;fill-opacity:1;stroke-width:4.66829;stroke-linecap:round;stroke-linejoin:round;filter:url(#filter2714)"
     d="M 96,61 A 12,12 0 0 0 84,73 v 25 a 12,12 0 0 0 12,12 12,12 0 0 0 12,-12 V 73 A 12,12 0 0 0 96,61 Z M 71.087891,98 C 72.033531,109.84571 81.289344,119.40077 93,120.8125 V 129 h -8 v 6 h 22 v -6 h -8 v -8.1875 C 110.71065,119.40077 119.96647,109.84571 120.91211,98 h -6.01563 C 113.90389,107.58153 105.85337,115 96,115 86.146629,115 78.09611,107.58153 77.103516,98 Z" />
  <path
     id="path945"
     style="opacity:1;fill:#0097f6;stroke-width:4.66829;stroke-linecap:round;stroke-linejoin:round;fill-opacity:1"
     d="M 96 59 A 12 12 0 0 0 84 71 L 84 96 A 12 12 0 0 0 96 108 A 12 12 0 0 0 108 96 L 108 71 A 12 12 0 0 0 96 59 z M 71.087891 96 C 72.033531 107.84571 81.289344 117.40077 93 118.8125 L 93 127 L 85 127 L 85 133 L 107 133 L 107 127 L 99 127 L 99 118.8125 C 110.71065 117.40077 119.96647 107.84571 120.91211 96 L 114.89648 96 C 113.90389 105.58153 105.85337 113 96 113 C 86.146629 113 78.09611 105.58153 77.103516 96 L 71.087891 96 z " />
  <path
     style="opacity:0.2;fill:#ffffff;stroke-width:4"
     d="M 96 16 C 51.68 16 16 51.68 16 96 C 16 96.336 16.002 96.6675 16 97 C 16 52.68 51.68 17 96 17 C 140.32 17 176 52.68 176 97 C 175.998 96.6675 176 96.336 176 96 C 176 51.68 140.32 16 96 16 z "
     id="path4" />
</svg>
