<?xml version="1.0" encoding="UTF-8" standalone="no"?>
<svg
   width="192"
   height="192"
   version="1"
   id="svg28"
   sodipodi:docname="apps_pegasus.svg"
   inkscape:version="1.1.1 (1:1.1+202109281949+c3084ef5ed)"
   xmlns:inkscape="http://www.inkscape.org/namespaces/inkscape"
   xmlns:sodipodi="http://sodipodi.sourceforge.net/DTD/sodipodi-0.dtd"
   xmlns="http://www.w3.org/2000/svg"
   xmlns:svg="http://www.w3.org/2000/svg"
   xmlns:rdf="http://www.w3.org/1999/02/22-rdf-syntax-ns#"
   xmlns:cc="http://creativecommons.org/ns#"
   xmlns:dc="http://purl.org/dc/elements/1.1/">
  <metadata
     id="metadata34">
    <rdf:RDF>
      <cc:Work
         rdf:about="">
        <dc:format>image/svg+xml</dc:format>
        <dc:type
           rdf:resource="http://purl.org/dc/dcmitype/StillImage" />
      </cc:Work>
    </rdf:RDF>
  </metadata>
  <defs
     id="defs32">
    <filter
       inkscape:collect="always"
       style="color-interpolation-filters:sRGB"
       id="filter6495"
       x="-0.048000001"
       y="-0.048000001"
       width="1.096"
       height="1.096">
      <feGaussianBlur
         inkscape:collect="always"
         stdDeviation="3.2"
         id="feGaussianBlur6497" />
    </filter>
    <filter
       inkscape:collect="always"
       style="color-interpolation-filters:sRGB"
       id="filter2515"
       x="-0.088613583"
       y="-0.065012259"
       width="1.1772272"
       height="1.1300245">
      <feGaussianBlur
         inkscape:collect="always"
         stdDeviation="1.6544064"
         id="feGaussianBlur2517" />
    </filter>
    <filter
       inkscape:collect="always"
       style="color-interpolation-filters:sRGB"
       id="filter2558"
       x="-0.043678484"
       y="-0.26510448"
       width="1.087357"
       height="1.530209">
      <feGaussianBlur
         inkscape:collect="always"
         stdDeviation="2.4302198"
         id="feGaussianBlur2560" />
    </filter>
  </defs>
  <sodipodi:namedview
     pagecolor="#ffffff"
     bordercolor="#666666"
     borderopacity="1"
     objecttolerance="10"
     gridtolerance="10"
     guidetolerance="10"
     inkscape:pageopacity="0"
     inkscape:pageshadow="2"
     inkscape:window-width="1920"
     inkscape:window-height="1019"
     id="namedview30"
     showgrid="false"
     inkscape:zoom="1"
     inkscape:cx="126.5"
     inkscape:cy="69"
     inkscape:window-x="0"
     inkscape:window-y="34"
     inkscape:window-maximized="1"
     inkscape:current-layer="svg28"
     inkscape:pagecheckerboard="0"
     inkscape:snap-global="false"
     showguides="true"
     inkscape:snap-bbox="true"
     inkscape:snap-bbox-midpoints="true">
    <inkscape:grid
       type="xygrid"
       id="grid841" />
  </sodipodi:namedview>
  <rect
     id="rect6457"
     transform="matrix(0,-1,-1,0,0,0)"
     ry="12"
     rx="12"
     y="-176"
     x="-180"
     height="160"
     width="160"
     style="opacity:0.2;fill:#000000;fill-opacity:1;stroke-width:4;filter:url(#filter6495)" />
  <rect
     id="rect2"
     transform="matrix(0,-1,-1,0,0,0)"
     ry="12"
     rx="12"
     y="-176"
     x="-176"
     height="160"
     width="160"
     style="fill:#e4e4e4;fill-opacity:1;stroke-width:4" />
  <path
     id="rect6416"
     style="opacity:0.2;fill:#ffffff;fill-opacity:1;stroke-width:4"
     d="m 28,16 c -6.648,0 -12,5.352 -12,12 v 1 c 0,-6.648 5.352,-12 12,-12 h 136 c 6.648,0 12,5.352 12,12 v -1 c 0,-6.648 -5.352,-12 -12,-12 z" />
  <path
     style="fill:#fcc200;stroke-width:0.0850748"
     d="m 66.989507,100.86793 c 0.180498,-0.22457 39.833953,-45.162726 40.149453,-45.500245 l 0.2786,-0.298057 -0.46775,-0.723852 c -0.25726,-0.398119 -0.68021,-1.155259 -0.93989,-1.682531 -0.41478,-0.842189 -0.46042,-0.984465 -0.37563,-1.170938 0.0719,-0.15814 0.16206,-0.212259 0.35358,-0.212259 h 0.25706 l -0.80495,-1.187807 c -0.44273,-0.653298 -0.83079,-1.290977 -0.86238,-1.417081 -0.0945,-0.377417 0.0575,-0.663661 0.39736,-0.748336 l 0.29947,-0.07459 -0.50151,-0.478943 c -0.5656,-0.540139 -0.90826,-1.137428 -0.90826,-1.583176 v -0.300884 l 0.4887,0.002 c 0.31648,0.0013 0.66224,0.07353 0.98121,0.204953 0.27088,0.111608 0.45871,0.158599 0.41739,0.104421 -0.15625,-0.20485 -1.7013,-2.089011 -2.33135,-2.843035 -0.73619,-0.881048 -0.83453,-1.10959 -0.61919,-1.438892 0.13196,-0.201792 0.1844,-0.218535 0.56882,-0.181525 0.51111,0.04922 1.80077,0.671412 2.96317,1.429609 1.48539,0.968863 4.12366,3.842556 5.64628,6.150103 0.17771,0.269316 0.34637,0.488925 0.37482,0.488013 0.0284,-9.37e-4 2.3082,-2.565639 5.06615,-5.69939 l 5.01444,-5.69774 20.42472,-0.0063 c 19.41586,-0.0059 20.42228,0.0011 20.37529,0.14276 -0.0272,0.08196 -5.58691,14.251374 -12.35493,31.487572 l -12.30552,31.33855 -35.85094,0.0213 c -33.777027,0.0201 -35.844188,0.013 -35.734213,-0.12384 z"
     id="path963" />
  <path
     id="path2474"
     style="opacity:0.2;fill:#000000;stroke-width:0.0849906;filter:url(#filter2515)"
     d="m 146.61328,40.820775 c -0.17226,0.0093 -0.36985,0.0267 -0.59375,0.05274 -1.51275,0.175862 -4.84245,1.096159 -6.6582,1.839844 -1.16636,0.477706 -4.29602,2.056457 -5.49805,2.773437 -1.54186,0.919675 -3.75799,2.545884 -5.33594,3.914063 -1.70483,1.47819 -4.37564,4.878628 -5.17382,6.58789 -0.37106,0.794603 -0.90898,2.907545 -1.08204,4.253907 -0.19644,1.528293 -0.17022,2.343618 0.125,4.070312 0.42255,2.471535 0.5125,3.427964 0.5625,5.929688 0.0454,2.268329 0.0395,2.404186 -0.13086,2.884765 -0.22791,0.642818 -0.62748,1.302899 -1.125,1.859375 l -0.39257,0.4375 -0.18164,-0.357422 c -0.10025,-0.196507 -0.23749,-0.59286 -0.30469,-0.880859 l -0.1211,-0.523438 0.30469,-0.732421 c 0.49346,-1.186954 0.54185,-1.45464 0.59375,-3.203126 0.0433,-1.459185 0.0294,-1.707316 -0.13867,-2.492187 -0.26836,-1.253408 -0.67188,-2.620452 -0.91797,-3.107422 -0.34401,-0.680724 -1.37706,-2.068376 -1.86133,-2.5 -0.52469,-0.467653 -1.61277,-1.129128 -2.15039,-1.308594 -0.37298,-0.124503 -0.37782,-0.13227 -0.51562,-0.710937 -0.1559,-0.654683 -1.1038,-3.21855 -1.55078,-4.195313 -0.4544,-0.99297 -1.86082,-3.553282 -2.36133,-4.298828 -1.73117,-2.578674 -4.23428,-5.321586 -5.77149,-6.322265 -1.1624,-0.756697 -2.45373,-1.378615 -2.96484,-1.427735 -0.38442,-0.03694 -0.4364,-0.01975 -0.56836,0.181641 -0.21534,0.32865 -0.11705,0.556243 0.61914,1.435547 0.63005,0.752532 2.17578,2.633445 2.33203,2.83789 0.0413,0.05407 -0.14709,0.0079 -0.41797,-0.103515 -0.31897,-0.131157 -0.66398,-0.203778 -0.98046,-0.205078 l -0.48829,-0.002 v 0.300782 c 0,0.444866 0.34261,1.039055 0.90821,1.578125 l 0.5,0.478515 -0.29883,0.07422 c -0.33986,0.08451 -0.49098,0.371377 -0.39649,0.748047 0.0316,0.125854 0.4186,0.762057 0.86133,1.414062 l 0.80469,1.185547 h -0.25586 c -0.19152,0 -0.28161,0.05311 -0.35351,0.210938 -0.0848,0.18607 -0.0391,0.329535 0.375,1.169922 0.25929,0.526228 0.778,1.433267 1.15429,2.017578 l 0.68555,1.0625 -0.37109,0.02539 c -0.52633,0.0364 -0.57895,0.139757 -0.39063,0.761718 0.1613,0.532729 0.88161,1.947692 1.46484,2.876953 0.1792,0.285518 0.32618,0.542693 0.32618,0.570313 0,0.02762 -0.13282,-0.0065 -0.29493,-0.07422 -0.40491,-0.169182 -0.44048,-0.158983 -0.54492,0.140625 -0.11323,0.324817 0.074,0.928283 0.62891,2.033203 l 0.37305,0.746094 -0.29297,0.05469 c -0.26264,0.04927 -0.29499,0.08475 -0.29493,0.328126 3e-5,0.149805 0.11566,0.514192 0.25586,0.810546 0.1402,0.296354 0.25586,0.550724 0.25586,0.564454 0,0.01372 -0.0817,0.04615 -0.18164,0.07227 -0.16617,0.04345 -0.1784,0.08545 -0.125,0.488281 0.0764,0.576168 0.2994,1.148404 0.63672,1.638672 l 0.27344,0.394532 -0.22461,0.193359 -0.22461,0.193359 0.14453,0.507813 c 0.0801,0.279169 0.21719,0.658387 0.30469,0.841797 0.0874,0.183401 0.14691,0.345245 0.13281,0.359375 -0.0141,0.01414 -0.16555,-0.05021 -0.33789,-0.142579 -0.17235,-0.09238 -0.38154,-0.167968 -0.46484,-0.167968 -0.31054,0 -0.71375,0.415164 -1.54297,1.58789 -0.46881,0.66302 -1.2307,1.67979 -1.69336,2.259766 -1.50452,1.885992 -1.54705,1.974412 -1.21484,2.597656 0.14815,0.277919 0.14754,0.291187 -0.0508,0.679688 -0.21664,0.424383 -0.21385,0.561096 0.0254,1.246094 0.41852,1.198256 0.5095,1.310488 1.15234,1.412109 0.23999,0.03794 0.45245,0.08531 0.47266,0.105469 0.0202,0.02016 -0.0625,0.337714 -0.1836,0.705078 -0.37418,1.136076 -0.37329,1.31278 0,1.875 l 0.32227,0.484375 -0.22657,0.429687 c -0.12379,0.236436 -0.2246,0.509519 -0.2246,0.605469 0,0.675986 0.91715,2.244141 1.3125,2.244141 0.32059,0 0.72494,-0.48019 1.1289,-1.34375 0.49688,-1.06218 0.51659,-1.198669 0.24414,-1.59961 -0.26918,-0.396071 -0.27853,-0.697616 -0.0391,-1.27539 0.17763,-0.428552 0.1798,-0.451401 0.0371,-0.851563 -0.36192,-1.01494 -0.37423,-0.887438 0.20898,-2.216797 0.61838,-1.409527 0.66089,-1.43636 1.27539,-0.798828 0.3886,0.403161 0.74883,1.06475 1.72657,3.177734 0.25111,0.542668 0.43053,0.830079 0.51953,0.830079 0.0747,0 0.37331,0.09868 0.66406,0.220703 1.10477,0.463662 1.63686,0.856183 3.13867,2.310547 1.44666,1.40096 2.23916,2.074337 2.74805,2.335937 0.28681,0.147438 1.35366,0.316406 1.99609,0.316406 h 0.41602 l 0.46679,0.980469 c 0.35679,0.750603 0.58263,1.102695 0.96876,1.507813 0.50029,0.524895 0.78124,0.956633 0.78124,1.201172 0,0.225429 -0.52976,0.532405 -1.53124,0.890624 -1.12921,0.403903 -2.0769,0.603516 -2.85938,0.603516 -0.65723,0 -0.80326,0.06784 -1.05859,0.488281 -0.10681,0.175885 -0.45342,0.638615 -0.77149,1.027344 -0.60979,0.745259 -0.66167,0.903038 -0.45703,1.386719 0.12438,0.29398 0.72202,0.919793 1.02539,1.074219 0.6266,0.318973 1.5702,0.176518 2.08203,-0.314453 0.27451,-0.26333 0.32616,-0.373432 0.37696,-0.814454 0.0931,-0.80861 0.0914,-0.80664 0.54687,-0.80664 0.29335,0 0.47904,-0.05612 0.68359,-0.207032 0.4971,-0.366756 1.33505,-0.636217 2.76172,-0.888671 1.49838,-0.265142 1.77003,-0.383192 2.09571,-0.910157 0.24113,-0.390153 0.206,-0.571459 -0.21875,-1.148437 -0.44857,-0.609335 -0.49245,-0.986498 -0.1875,-1.603516 0.1639,-0.331608 0.25279,-0.403012 0.69531,-0.572265 0.27877,-0.106622 0.55307,-0.195313 0.60937,-0.195313 0.0563,0 0.18453,0.258692 0.28516,0.574219 0.10063,0.315528 0.35946,0.922295 0.57422,1.347656 0.35898,0.711003 0.43742,0.805478 0.97265,1.173828 0.43296,0.297969 0.6333,0.503055 0.78516,0.802735 0.30842,0.608639 0.32834,0.892148 0.13672,2.009765 -0.25152,1.46698 -0.72015,2.432115 -1.7168,3.539063 -0.64435,0.715658 -0.74583,0.871078 -0.79882,1.224608 -0.0334,0.22271 -0.0259,0.54114 0.0156,0.70899 0.0605,0.24475 0.13252,0.32684 0.37109,0.4082 0.33492,0.11422 1.26202,0.12933 1.9375,0.0332 0.38396,-0.0546 0.5109,-0.12373 0.8711,-0.47851 0.40568,-0.39955 0.51583,-0.65054 0.33593,-0.76172 -0.14967,-0.0925 -0.091,-0.26365 0.25977,-0.775393 0.34101,-0.497496 0.34256,-0.501943 0.28906,-1.097656 -0.0456,-0.508453 -0.0227,-0.694649 0.16016,-1.232422 0.11846,-0.348399 0.26015,-0.883659 0.31445,-1.1875 0.0884,-0.494558 0.13939,-0.587404 0.48633,-0.900391 l 0.38867,-0.349609 0.0391,-0.898438 c 0.0219,-0.493209 0.0162,-1.023779 -0.0137,-1.179687 -0.0301,-0.157062 -0.26255,-0.540166 -0.51953,-0.859375 -0.52551,-0.652778 -0.67813,-1.08859 -0.61133,-1.740235 0.07,-0.683321 0.38825,-1.263823 1.14453,-2.089843 0.73357,-0.80121 1.2557,-1.686137 1.50391,-2.544922 0.10696,-0.369793 0.13654,-0.74133 0.11524,-1.496094 l -0.0293,-1.00586 0.24609,0.07031 c 0.13518,0.03885 0.48524,0.08101 0.77735,0.0918 0.46585,0.0172 0.56911,-0.01031 0.83984,-0.216797 0.49053,-0.374149 0.66704,-0.601985 1.04883,-1.349609 0.42959,-0.84123 0.57269,-1.370825 0.74414,-2.761719 0.22448,-1.821212 0.42731,-2.689846 0.77734,-3.337891 0.17483,-0.323754 0.29137,-0.614914 0.25977,-0.646484 -0.0316,-0.03157 -0.31636,0.07363 -0.63281,0.232422 -0.31644,0.158797 -0.61336,0.301266 -0.66016,0.316406 -0.14628,0.04738 0.31572,-0.317318 0.90625,-0.714844 0.81735,-0.550221 1.13718,-0.939041 1.33594,-1.625 0.22968,-0.792563 0.30476,-1.46985 0.16211,-1.46875 -0.06,4.59e-4 -0.27719,0.133727 -0.48243,0.296875 -0.26578,0.211272 -0.46003,0.296875 -0.67187,0.296875 -0.38713,0 -1.00729,0.313949 -1.22461,0.619141 -0.26358,0.37016 -0.28781,0.202032 -0.0332,-0.232422 0.15715,-0.268146 0.41408,-0.510538 0.83789,-0.791016 0.66804,-0.442104 1.18435,-1.040288 1.59375,-1.847656 0.1456,-0.287124 0.44748,-0.685509 0.6914,-0.910156 0.63598,-0.585721 0.44115,-0.832031 -0.65625,-0.832031 -0.52,0 -0.54687,-0.01 -0.54687,-0.203125 0,-0.232552 0.60503,-1.092412 1.00586,-1.429688 0.37685,-0.317095 0.34119,-0.408203 -0.15821,-0.408203 -0.45321,0 -1.13967,0.283382 -1.50976,0.623047 l -0.19531,0.179687 0.0586,-0.380859 c 0.0323,-0.208864 0.16698,-0.678664 0.30078,-1.044922 0.13384,-0.366259 0.22171,-0.70138 0.19531,-0.744141 -0.13891,-0.224756 -0.85088,0.07105 -1.27929,0.53125 -0.91307,0.980792 -1.39592,1.909353 -1.48242,2.847657 -0.0726,0.787192 -0.24413,1.134597 -1.23438,2.513672 -0.88578,1.233587 -1.2207,1.849601 -1.3125,2.410156 -0.15464,0.944279 -0.11124,1.20129 0.52344,3.103515 0.69064,2.069947 0.72711,2.386674 0.42187,3.671876 -0.18727,0.788501 -0.32795,1.122616 -0.66015,1.566406 -0.26161,0.349453 -0.39248,0.349376 -0.51953,-0.002 -0.13551,-0.37476 -0.81,-1.2911 -1.29688,-1.761719 -0.43235,-0.417907 -1.55459,-1.123038 -2.13672,-1.34375 -0.30759,-0.116622 -0.81164,-0.144143 -3.08594,-0.164063 -1.49584,-0.0131 -2.80179,-0.04237 -2.90039,-0.06445 -0.16308,-0.03652 -0.14017,-0.07909 0.23828,-0.486328 0.35919,-0.386503 0.40955,-0.484131 0.36915,-0.710937 -0.0454,-0.254861 -0.0287,-0.272464 0.59375,-0.580079 0.35279,-0.174357 0.79841,-0.465979 0.99023,-0.648437 0.32209,-0.306408 0.34533,-0.358002 0.30273,-0.675781 -0.0428,-0.318996 -0.0278,-0.354927 0.21875,-0.482422 0.14625,-0.07563 0.49025,-0.350526 0.76368,-0.611328 0.45434,-0.433698 0.49271,-0.49751 0.44531,-0.75 -0.0458,-0.244204 -0.0127,-0.31158 0.29101,-0.585938 0.24339,-0.219905 0.34375,-0.378409 0.34375,-0.544922 0,-0.177605 0.099,-0.315186 0.4043,-0.5625 0.5225,-0.423254 0.59842,-0.524517 0.66602,-0.882812 0.0398,-0.210989 0.23045,-0.477481 0.65234,-0.916016 0.59347,-0.616836 0.59353,-0.618736 0.54883,-1.015625 -0.0438,-0.388483 -0.034,-0.410698 0.44336,-0.93164 0.51819,-0.56551 1.02539,-1.415341 1.02539,-1.720703 0,-0.100867 -0.1,-0.276916 -0.22266,-0.390626 l -0.22461,-0.207031 0.57227,-0.701172 c 0.64421,-0.788517 0.74549,-0.990225 0.71289,-1.441406 -0.0204,-0.282747 0.0199,-0.352683 0.38477,-0.673828 0.22419,-0.197357 0.67106,-0.658742 0.99414,-1.025391 0.64734,-0.734617 0.73332,-1.031204 0.4414,-1.52539 l -0.14648,-0.248047 1.07226,-1.082031 c 1.15575,-1.166232 1.34571,-1.443079 1.34571,-1.964844 0,-0.333597 0.007,-0.34221 0.74218,-0.785156 0.81531,-0.491458 2.19341,-1.800576 2.28711,-2.173828 0.0318,-0.127002 -0.003,-0.330603 -0.0859,-0.503907 -0.0764,-0.160267 -0.13868,-0.308445 -0.13868,-0.328125 0,-0.01968 0.31553,-0.274997 0.70118,-0.568359 1.74682,-1.328803 2.52734,-2.183611 2.52734,-2.763672 0,-0.34507 -0.25241,-0.621247 -0.57227,-0.623047 -0.52583,-0.0029 -0.48323,-0.114175 0.37891,-0.982422 0.82842,-0.834302 1.65072,-1.855713 1.92969,-2.398437 0.33228,-0.646422 -0.0318,-1.169693 -0.80664,-1.158203 -0.2302,0.0034 -0.41992,-9.66e-4 -0.41992,-0.0098 -10e-6,-0.0088 0.40676,-0.356169 0.90429,-0.771484 0.49753,-0.415315 1.18743,-1.079827 1.53125,-1.476563 1.10501,-1.275108 1.14921,-1.65272 -0.0566,-1.587891 z m -2.25195,5.458985 c -0.1552,0.175538 -0.35934,0.388482 -0.60156,0.626953 0.24203,-0.238189 0.4464,-0.451574 0.60156,-0.626953 z m -16.71289,5.291015 c -0.72255,0.759448 -1.39159,1.519389 -1.94336,2.212891 0.55144,-0.692932 1.22154,-1.454217 1.94336,-2.212891 z m -1.94532,2.214844 c -0.55089,0.692577 -0.98411,1.318802 -1.23242,1.806641 0.24859,-0.488384 0.68068,-1.113166 1.23242,-1.806641 z m 14.40821,0.02734 c 0.0242,0.104477 0.002,0.227512 -0.0723,0.333984 0.0746,-0.106472 0.0964,-0.229454 0.0723,-0.333984 z m -7.4668,0.955078 c 2.5e-4,-2.46e-4 0.002,2.47e-4 0.002,0 -0.0485,0.04781 -0.0847,0.09021 -0.10742,0.126953 0.0228,-0.03671 0.0569,-0.07921 0.10547,-0.126953 z m 4.42188,2.220703 c 0.0203,0.05284 -0.003,0.143061 -0.0605,0.257813 0.0572,-0.114833 0.0808,-0.20497 0.0605,-0.257813 z m -29.34375,1.50586 c 0.0279,-0.02789 0.24491,0.0808 0.48242,0.240234 -0.23751,-0.159434 -0.45453,-0.268128 -0.48242,-0.240234 z m 3.25195,0.105468 c 0.0358,0.09298 -0.003,0.132995 -0.0879,0.203125 0.0845,-0.07013 0.12321,-0.110035 0.0879,-0.203125 z m 2.88477,0.359375 c 0.046,-0.0052 0.0921,0.01769 0.13867,0.06836 -0.0467,-0.0507 -0.0926,-0.07349 -0.13867,-0.06836 z m 17.25195,0.580078 c -0.25356,0.170923 -0.42977,0.29745 -0.54297,0.388672 0.1134,-0.09148 0.287,-0.216266 0.54297,-0.388672 z m -21.09571,0.498047 c 0.65053,1.035255 0.93869,1.551358 0.9043,1.63086 0.0342,-0.07926 -0.25377,-0.595605 -0.9043,-1.63086 z m 3.36719,0.13086 c 0,0.143337 -0.008,0.269917 -0.0215,0.363281 0.0127,-0.09313 0.0215,-0.222116 0.0215,-0.363281 z m 9.69336,0.384765 c -0.0808,0.713029 -0.10287,2.219681 -0.0645,3.216797 -0.0384,-0.996684 -0.0164,-2.503768 0.0645,-3.216797 z m -9.59179,0.574219 c -0.0495,-0.0144 -0.0943,0.0245 -0.18165,0.103516 0.0873,-0.07902 0.13224,-0.117787 0.18165,-0.103516 z m 2.08203,0.244141 c 0.0662,0.04827 0.16509,0.104767 0.29687,0.166015 0.51354,0.238682 1.01691,0.576786 1.47852,0.982422 -0.46204,-0.405953 -0.96455,-0.743542 -1.47852,-0.982422 -0.13304,-0.06183 -0.23075,-0.117432 -0.29687,-0.166015 z m -0.94532,0.03516 c -0.0237,0.126565 -0.031,0.200161 -0.0156,0.242188 -0.016,-0.04184 -0.008,-0.114184 0.0156,-0.242188 z m 0.0254,0.283203 c 0.0204,0.0079 0.047,0.01172 0.082,0.01172 -0.0358,0 -0.0615,-0.0034 -0.082,-0.01172 z m -1.63281,0.08984 c -0.0448,0.157347 -0.0874,0.262682 -0.15039,0.34375 0.0632,-0.0812 0.10559,-0.186403 0.15039,-0.34375 z m 5.32227,0.876953 c 0.47924,0.505331 0.90857,1.101446 1.21484,1.724609 0.30783,0.626317 0.51294,1.266815 0.65625,2.181641 -0.14327,-0.914755 -0.34842,-1.555324 -0.65625,-2.181641 -0.30627,-0.623163 -0.73568,-1.219043 -1.21484,-1.724609 z m -6.28321,0.132812 c -0.14124,0.200471 -0.24357,0.444505 -0.30273,0.726563 0.0592,-0.282058 0.16139,-0.526256 0.30273,-0.726563 z m 5.73633,0.158204 c 0.14411,0.14964 0.28246,0.30544 0.41406,0.466796 -0.13134,-0.160944 -0.27027,-0.317515 -0.41406,-0.466796 z m 14.25,0.236328 c -0.69231,0.494173 -2.0784,1.684293 -2.8125,2.386718 0.73413,-0.702568 2.12019,-1.892545 2.8125,-2.386718 z m -23.12304,0.158203 c 0.18491,0.438623 0.43104,0.951805 0.63476,1.291015 0.58061,0.966702 1.0293,1.796453 1.0293,1.904297 0,0.05072 -0.0159,0.0805 -0.043,0.0918 0.0261,-0.0117 0.043,-0.04196 0.043,-0.0918 0,-0.107844 -0.44869,-0.937596 -1.0293,-1.904297 -0.20372,-0.33921 -0.45026,-0.852223 -0.63476,-1.291015 z m 2.19531,0.744141 c -0.0359,0.54739 -0.0153,0.696405 0.14453,1.009765 -0.15986,-0.31336 -0.18043,-0.462376 -0.14453,-1.009765 z m 21.53515,0.134765 c -0.0805,0.117133 -0.1631,0.222666 -0.27539,0.34375 0.11183,-0.120596 0.19503,-0.226884 0.27539,-0.34375 z m -16.21484,0.896485 c -0.0376,0.02962 -0.0789,0.05474 -0.125,0.07227 0.0456,-0.01735 0.0878,-0.04308 0.125,-0.07227 z m 15.53711,1.25 c 0.0175,0.09944 -0.0114,0.23516 -0.0898,0.380859 0.0785,-0.145699 0.10688,-0.281542 0.0898,-0.380859 z m -3.36523,0.09375 c -0.006,0.05182 -0.001,0.0935 0.0137,0.123046 -0.0155,-0.02968 -0.0199,-0.07017 -0.0137,-0.123046 z m -14.6836,0.195312 c -0.007,0.03464 -0.007,0.06235 -0.002,0.08203 -0.006,-0.0199 -0.006,-0.04561 0.002,-0.08203 z m 15.9043,0.01563 c -0.94843,0.740965 -1.50924,1.19508 -1.83399,1.5 -0.24356,0.22869 -0.35465,0.374533 -0.39453,0.496094 0.04,-0.121787 0.1503,-0.266759 0.39453,-0.496094 0.32503,-0.305194 0.88634,-0.759643 1.83399,-1.5 z m -15.83203,0.136719 c 0.008,0.01404 0.01,0.03482 0.01,0.05859 1.1e-4,-0.02403 -0.002,-0.04429 -0.01,-0.05859 z m -0.0586,0.33789 c -0.0652,0.18488 -0.16525,0.740767 -0.22265,1.234375 0.0574,-0.493608 0.15742,-1.049495 0.22265,-1.234375 z m -2.17578,0.236328 c -0.0728,0.302385 -0.17643,0.51303 -0.33203,0.72461 0.1556,-0.21158 0.25895,-0.422236 0.33203,-0.72461 z m 3.22461,0.488282 c -0.008,0.343466 -0.0585,0.771353 -0.14648,1.091797 -0.10437,0.380407 -0.21966,0.70129 -0.36524,1.03125 0.14526,-0.329595 0.26102,-0.65137 0.36524,-1.03125 0.0879,-0.320444 0.13832,-0.748043 0.14648,-1.091797 z m 8.58985,0.208984 c 0.10545,0.858486 0.1738,1.57213 0.20312,2.175781 -0.0294,-0.603221 -0.0978,-1.318201 -0.20312,-2.175781 z m 15.44531,0.503906 c -0.0447,0.258722 -0.0555,0.544385 -0.0371,0.892578 -0.0183,-0.348193 -0.008,-0.634144 0.0371,-0.892578 z m -24.73828,0.367188 c 0.006,0.0083 0.0139,0.0157 0.0234,0.0059 -0.0103,0.01093 -0.0167,0.0044 -0.0234,-0.0059 z m -2.67969,0.09375 c 0.17786,0.166368 0.27858,0.288257 0.3418,0.388672 -0.0635,-0.100612 -0.16395,-0.222311 -0.3418,-0.388672 z m -1.47852,1.185547 c 0.0783,0.07247 0.16428,0.161494 0.25586,0.267578 0.25974,0.300844 0.4832,0.480502 0.57813,0.480469 -0.0952,2.88e-4 -0.31839,-0.179625 -0.57813,-0.480469 -0.091,-0.105467 -0.17799,-0.195202 -0.25586,-0.267578 z m 16.90821,0.08008 c -0.0323,0.05367 -0.0399,0.09491 -0.0176,0.117187 -0.0223,-0.02228 -0.0146,-0.0635 0.0176,-0.117187 z m 2.48437,0.183594 c 0.0268,0.02681 -0.1012,0.203185 -0.28515,0.392578 0.18395,-0.189393 0.31198,-0.365763 0.28515,-0.392578 z m 9.25586,0.255859 c -0.43974,0.311525 -0.72206,0.529543 -0.92969,0.736328 0.20768,-0.206799 0.48995,-0.424804 0.92969,-0.736328 z m -29.95117,0.847656 c 0.006,-0.0013 0.01,0.0029 0.0156,0.002 -0.0176,0.003 -0.0363,0.01141 -0.0547,0.01758 0.0127,-0.0043 0.0267,-0.01672 0.0391,-0.01953 z m -0.17188,0.08594 c -0.0202,0.01365 -0.0402,0.02837 -0.0605,0.04492 0.0208,-0.01695 0.0399,-0.03099 0.0605,-0.04492 z m -0.19531,0.179687 c -0.0193,0.02207 -0.0399,0.04013 -0.0586,0.06445 0.0189,-0.02451 0.0391,-0.04224 0.0586,-0.06445 z m 19.78321,0.410157 c 0.0231,0.02305 -0.0137,0.07462 -0.0996,0.148437 0.0853,-0.0735 0.12258,-0.125462 0.0996,-0.148437 z m 11.00195,0.939453 c 0.0381,0.008 0.0585,0.02784 0.0644,0.05664 -0.0126,-0.05603 -0.084,-0.07669 -0.22851,-0.04297 0.0723,-0.01686 0.12662,-0.02153 0.16406,-0.01367 z m -0.85352,0.335937 c -0.11247,0.0805 -0.22338,0.175666 -0.33398,0.283203 0.11091,-0.10792 0.22119,-0.202483 0.33398,-0.283203 z m -0.66406,0.646484 c -0.24596,0.303843 -0.49101,0.656609 -0.54492,0.785157 0.0539,-0.128548 0.29896,-0.481315 0.54492,-0.785157 z m -12.30664,0.126954 c -0.11406,0.02395 -0.19835,0.02656 -0.25586,0.0098 0.0576,0.01586 0.14359,0.01372 0.25586,-0.0098 z m -16.27344,0.15039 c 0.0437,0.0072 0.0888,0.03246 0.14649,0.06445 0.29094,0.161227 1.54882,1.815684 1.54882,2.03711 0,0.139495 -0.0975,0.100696 -0.6582,-0.259766 -0.36227,-0.232883 -0.80798,-0.464012 -0.99023,-0.513672 -0.30287,-0.08253 -0.38388,-0.06301 -0.93555,0.214844 -0.97448,0.490804 -0.94336,0.444489 -0.94336,1.365234 -2e-4,0.439758 -0.0382,0.838899 -0.0859,0.886719 -0.0591,0.05922 -0.16785,0.02192 -0.33984,-0.115234 l -0.25195,-0.201172 0.18945,-0.337891 c 0.13062,-0.232322 0.17442,-0.417061 0.14062,-0.585937 -0.0626,-0.312799 0.40887,-0.962963 1.40235,-1.939453 0.51575,-0.506916 0.64632,-0.636724 0.77734,-0.615235 z m 14.97266,1.253906 c -0.35368,0.156453 -0.47348,0.19589 -0.51172,0.121094 0.0387,0.07322 0.16004,0.03447 0.51172,-0.121094 z m -5.05469,1.351563 c -0.37473,0.06502 -0.67879,0.09855 -0.71094,0.06641 0.0322,0.03214 0.33588,-0.0016 0.71094,-0.06641 z m 16.66016,0.261719 c 0.16641,0.517003 0.24245,0.923937 0.24804,1.341797 -0.006,-0.417685 -0.0815,-0.824969 -0.24804,-1.341797 z m -13.58008,0.177734 c 0,0.01659 0.0109,0.02966 0.0293,0.03906 -0.0192,-0.0095 -0.0293,-0.0221 -0.0293,-0.03906 z m -14.57031,3.328125 c -0.0812,0.325213 -0.085,0.59887 -0.0117,0.886719 -0.0734,-0.288018 -0.0693,-0.561337 0.0117,-0.886719 z m -1.16602,3.933594 c -0.04,0.15196 -0.0555,0.250167 -0.0332,0.367187 -0.0229,-0.11784 -0.007,-0.214395 0.0332,-0.367187 z m 10.46875,0.755859 c 0.27649,0.327762 0.60259,0.651382 0.92969,0.927735 -0.32756,-0.276199 -0.65289,-0.599614 -0.92969,-0.927735 z m 4.77539,2.001953 c 0.76933,6.4e-5 1.41285,0.04437 1.9668,0.140625 -0.55383,-0.09613 -1.19747,-0.140561 -1.9668,-0.140625 z m 10.6543,0.244141 c -0.7732,0.926872 -1.10101,1.428657 -1.23242,1.996094 0.13094,-0.567418 0.45922,-1.069222 1.23242,-1.996094 z m -6.1875,0.121094 c 0.13213,0.180085 0.24455,0.357119 0.35547,0.570312 -0.11069,-0.212747 -0.22383,-0.390588 -0.35547,-0.570312 z m -1.82422,0.517578 c 0.43602,0.07485 0.84635,0.183061 1.17969,0.314453 -0.33285,-0.131197 -0.7443,-0.239405 -1.17969,-0.314453 z m 1.68164,0.392578 c 0.0315,0.04086 0.0342,0.06269 0.008,0.07031 0.0261,-0.0075 0.0232,-0.02996 -0.008,-0.07031 z m -2.13672,2.595703 c 0.0639,0.143436 0.0881,0.268438 0.084,0.396485 0.004,-0.128021 -0.0202,-0.253084 -0.084,-0.396485 z m 4.72461,0.101563 c 0.25177,0.452328 0.43732,0.642714 0.97852,1.138672 -0.5412,-0.495958 -0.72671,-0.686178 -0.97852,-1.138672 z m -3.37305,0.669922 c 0.0768,0.168548 0.17771,0.331791 0.30274,0.484374 -0.1254,-0.153026 -0.2259,-0.315299 -0.30274,-0.484374 z M 118.75,94.027807 c -0.23137,0.04006 -0.38562,0.120132 -0.46289,0.240234 0.0772,-0.120141 0.23157,-0.200132 0.46289,-0.240234 z m 9.3457,6.953123 c 0.0429,0.0801 0.0828,0.12315 0.21094,0.14258 -0.13003,-0.0189 -0.16779,-0.0619 -0.21094,-0.14258 z" />
  <path
     id="path1275"
     style="fill:#ffffff;stroke-width:0.0849906"
     d="M 146.83594 39.412109 C 146.81944 39.395619 145.49181 39.711225 143.88477 40.113281 C 140.98364 40.839083 139.80975 41.22693 138.01172 42.054688 C 136.74474 42.63796 133.59772 44.514881 132.08203 45.591797 C 129.41454 47.487095 125.46505 51.638263 124.4707 53.591797 C 123.93899 54.6364 123.23694 57.134165 123.07617 58.552734 C 122.96842 59.503439 122.96498 61.865903 123.07031 62.548828 C 123.90531 67.965881 123.97614 69.431662 123.49609 71.308594 C 123.25354 72.256995 123.05376 72.61605 122.40039 73.285156 C 121.57058 74.13496 120.86014 74.629667 120.19336 74.824219 C 119.56017 75.008971 118.40999 75.208818 118.3457 75.144531 C 118.3225 75.121381 118.71537 74.905309 119.2207 74.664062 C 119.72604 74.422809 120.29912 74.131703 120.49414 74.017578 L 120.84961 73.810547 L 120.61133 73.320312 C 120.47993 73.051361 120.25566 72.430274 120.11328 71.939453 L 119.85352 71.046875 L 119.77148 67.816406 C 119.68248 64.374109 119.63831 64.025902 119.17188 62.972656 C 118.5266 61.515578 117.23386 60.174122 115.86328 59.537109 C 115.33617 59.292115 115.33426 59.139024 115.85742 59.173828 C 117.04436 59.252828 118.73405 60.719089 119.55078 62.380859 C 120.16643 63.633492 120.37154 64.942336 120.49219 68.390625 C 120.51959 69.1736 120.57152 69.814453 120.60938 69.814453 C 120.71058 69.814453 121.02599 68.402024 121.08594 67.677734 C 121.19271 66.387458 120.8339 64.34478 120.25781 62.960938 C 119.25053 60.54134 117.44442 58.945664 115.44727 58.710938 L 114.99805 58.658203 L 114.99805 58.914062 C 114.99805 59.416952 114.90067 59.701172 114.72852 59.701172 C 114.58832 59.701172 114.57361 59.659381 114.62109 59.40625 C 114.68309 59.075739 114.4446 58.481935 114.13867 58.205078 L 113.96289 58.044922 L 114.02344 58.830078 C 114.09174 59.702523 114.0398 59.786364 113.69336 59.34375 C 113.48254 59.074372 113.47736 59.072438 113.30273 59.230469 C 113.20543 59.318499 113.07456 59.565367 113.01367 59.779297 C 112.92407 60.093991 112.84397 60.197609 112.58984 60.324219 C 112.15842 60.539152 111.86833 60.951509 111.75 61.515625 C 111.6647 61.922084 111.67224 62.077711 111.80664 62.595703 C 111.9344 63.088283 111.95332 63.370664 111.9082 64.107422 C 111.8373 65.265189 111.73698 65.684262 111.42578 66.107422 C 111.28766 66.295234 111.17383 66.492362 111.17383 66.546875 C 111.17383 66.601375 111.36588 66.826301 111.59961 67.044922 C 112.0728 67.487536 112.13742 67.689453 111.80859 67.689453 C 111.5024 67.689453 110.85818 67.071453 110.73438 66.658203 C 110.64208 66.350036 110.65178 66.309345 110.85742 66.09375 C 111.17094 65.7651 111.24308 65.518877 111.34961 64.427734 C 111.43981 63.503572 111.43576 63.448278 111.25586 63.095703 C 111.096 62.782343 111.07543 62.633328 111.11133 62.085938 C 111.13453 61.732563 111.2446 61.179088 111.35547 60.855469 C 111.52169 60.370317 111.61617 60.224784 111.89648 60.029297 C 112.08346 59.898896 112.32744 59.727631 112.43945 59.648438 L 112.64453 59.503906 L 112.38867 59.283203 C 112.01638 58.961921 111.76904 58.496442 111.71094 58.005859 C 111.66604 57.626954 111.67809 57.576172 111.81445 57.576172 C 112.13393 57.576172 112.70839 57.938658 112.97266 58.306641 C 113.12068 58.512761 113.27369 58.681641 113.3125 58.681641 C 113.3513 58.681641 113.38281 58.450299 113.38281 58.167969 C 113.38281 57.826086 113.44002 57.54531 113.55078 57.328125 C 113.7926 56.854116 113.93471 56.837957 114.14453 57.261719 C 114.24163 57.4578 114.43533 57.74261 114.57422 57.894531 C 114.80053 58.142066 114.8741 58.171875 115.29297 58.171875 L 115.76172 58.171875 L 115.58594 57.724609 C 113.62655 52.71914 111.96416 49.751674 109.2168 46.357422 C 108.24193 45.153012 106.47873 43.522561 105.30859 42.744141 C 104.87619 42.456482 103.74856 41.9375 103.55664 41.9375 C 103.43643 41.9375 103.56597 42.248516 103.76367 42.435547 C 104.33236 42.973792 107.22017 46.435291 108.20312 47.757812 C 110.54676 50.911091 111.20316 51.971338 110.8125 51.964844 C 110.7541 51.963909 110.55452 51.72478 110.36914 51.433594 C 110.18377 51.142416 109.63947 50.380502 109.1582 49.740234 C 108.30001 48.598538 107.27472 47.587202 106.17383 46.796875 C 105.61536 46.39594 104.81429 46.002224 104.62109 46.033203 C 104.44681 46.061153 104.41177 46.01678 106.46484 48.326172 C 108.30719 50.398514 111.25977 54.208649 111.25977 54.513672 C 111.25977 54.734911 111.05832 54.54786 110.58984 53.888672 C 109.90427 52.924029 107.9677 50.625597 107.17969 49.841797 C 106.82719 49.491176 106.35236 49.079621 106.12305 48.927734 C 105.71694 48.658739 105.39453 48.571715 105.39453 48.730469 C 105.39453 48.870678 106.97246 51.163735 107.83789 52.28125 C 108.30128 52.879635 109.02762 53.866927 109.45117 54.474609 C 109.87472 55.082292 110.39582 55.805081 110.61133 56.082031 C 111.04499 56.639331 111.05572 56.662474 110.88672 56.802734 C 110.79172 56.881614 110.70354 56.813974 110.44141 56.453125 C 109.02588 54.504554 107.60477 52.799176 106.97852 52.298828 C 106.37704 51.818275 106.20685 52.017301 106.6582 52.673828 C 106.79254 52.86923 107.39887 53.832811 108.00586 54.814453 C 108.61285 55.796094 109.51821 57.245506 110.01562 58.037109 C 110.88299 59.417449 111.10561 59.876275 110.7793 59.605469 C 110.7023 59.541559 110.18921 58.933906 109.63867 58.255859 C 108.99604 57.464402 108.48232 56.92047 108.20508 56.734375 C 107.96757 56.574941 107.75055 56.466247 107.72266 56.494141 C 107.61756 56.599223 109.57918 60.101627 110.33398 61.15625 C 110.65577 61.605858 110.91992 62.015461 110.91992 62.068359 C 110.91992 62.308679 110.60814 62.10481 109.83789 61.357422 C 109.06055 60.60313 108.76029 60.386201 108.65039 60.496094 C 108.56439 60.582124 109.14333 61.954392 109.55078 62.632812 C 110.13139 63.599513 110.58008 64.429265 110.58008 64.537109 C 110.58008 64.736472 110.33592 64.613808 110.12305 64.306641 C 109.76293 63.786975 109.31848 63.392454 109.21289 63.498047 C 109.14829 63.562627 109.2695 63.880633 109.62891 64.597656 C 110.28348 65.903468 110.42448 66.244141 110.31055 66.244141 C 110.26075 66.244141 110.08005 66.100549 109.91016 65.923828 C 109.74027 65.747107 109.51299 65.528295 109.4043 65.4375 L 109.20703 65.271484 L 109.26758 65.511719 C 109.30068 65.643718 109.45776 65.968365 109.61719 66.232422 C 109.92 66.733943 111.00391 68.831688 111.00391 68.916016 C 111.00391 69.085462 110.72326 68.899173 110.37695 68.498047 C 110.01274 68.076179 109.72852 67.903268 109.72852 68.105469 C 109.72852 68.147359 109.91378 68.580617 110.14062 69.066406 C 110.4142 69.652263 110.63152 69.998946 110.78516 70.099609 C 111.01991 70.253416 112.04408 70.664062 112.19336 70.664062 C 112.23806 70.664062 112.35783 70.501399 112.45898 70.302734 C 112.56012 70.104068 112.82085 69.674869 113.03906 69.347656 C 113.25727 69.020442 113.51814 68.618684 113.61719 68.455078 L 113.79688 68.158203 L 113.1875 68.183594 C 112.483 68.213964 112.21945 68.094583 112.31641 67.789062 C 112.36591 67.633207 112.43922 67.605469 112.7832 67.605469 C 113.46665 67.605469 113.5871 67.44625 113.71094 66.380859 C 113.76834 65.887251 113.86836 65.331364 113.93359 65.146484 C 114.02289 64.89351 114.02687 64.80133 113.95117 64.775391 C 113.88077 64.751291 113.90756 64.623423 114.03906 64.349609 C 114.20132 64.011856 114.27756 63.94646 114.5918 63.865234 C 114.79217 63.813454 115.02212 63.750173 115.10352 63.726562 C 115.18492 63.702953 115.42714 63.457132 115.64062 63.179688 C 115.98153 62.736657 116.06343 62.675781 116.32031 62.675781 C 116.48119 62.675781 116.61328 62.710986 116.61328 62.753906 C 116.61328 62.944131 116.48921 63.120041 116.30664 63.189453 C 116.19042 63.233653 116.01695 63.448766 115.88477 63.712891 C 115.63025 64.221458 115.36165 64.544922 115.19531 64.544922 C 115.13331 64.544922 115.08398 64.609367 115.08398 64.6875 C 115.08398 64.76563 114.90885 64.996574 114.69531 65.201172 L 114.30664 65.574219 L 114.26758 66.355469 C 114.22318 67.252035 114.29112 67.181747 114.60547 66.005859 C 114.70923 65.61769 114.83041 65.294317 114.875 65.285156 C 115.0364 65.252006 115.01182 66.322003 114.83594 66.962891 C 114.59133 67.854502 114.32424 68.416213 113.60938 69.544922 C 112.86262 70.724022 111.83314 72.745955 111.65234 73.390625 C 111.58134 73.643727 111.50183 74.137695 111.47461 74.488281 L 111.42383 75.126953 L 112.33984 75.910156 C 113.42477 76.838372 114.37299 77.777409 114.29883 77.851562 C 114.11242 78.037981 113.24114 77.551773 111.95898 76.542969 C 111.12297 75.88521 109.49482 74.75546 109.0625 74.535156 C 108.82415 74.413696 108.73622 74.407616 108.52734 74.494141 C 108.02196 74.703473 107.85937 74.89744 107.85938 75.292969 C 107.85938 76.261921 107.31341 78.078669 106.56836 79.587891 C 106.1536 80.428039 106.13647 80.690474 106.46094 81.244141 C 106.71545 81.678424 106.72117 81.560421 106.40039 82.779297 C 106.31809 83.091883 106.33453 83.172043 106.58594 83.671875 C 106.89241 84.281161 106.99295 84.383247 107.1582 84.246094 C 107.3156 84.115462 107.85938 83.126277 107.85938 82.970703 C 107.85938 82.899963 107.74085 82.611531 107.5957 82.330078 C 107.30001 81.756757 107.31017 81.638428 107.69336 81.15625 C 107.83175 80.982114 107.94381 80.798097 107.94336 80.746094 C 107.94251 80.694094 107.84358 80.44069 107.72266 80.183594 C 107.42291 79.546376 107.42802 79.097222 107.74609 78.310547 C 107.88838 77.958669 108.10935 77.309972 108.23633 76.867188 C 108.48677 75.993815 108.79174 75.59375 109.20898 75.59375 C 109.68939 75.59375 110.39599 76.610834 111.61133 79.056641 L 112.29688 80.439453 L 112.58789 80.439453 C 112.74842 80.439453 113.04147 80.52103 113.23828 80.621094 C 114.271 81.146204 116.07321 82.591648 116.86914 83.535156 C 117.42273 84.191397 118.17521 84.827652 118.73633 85.111328 C 119.3318 85.412368 120.19127 85.536994 121.64453 85.537109 C 123.69608 85.537279 124.85698 85.84648 125.79297 86.640625 C 126.14023 86.935263 126.04616 86.962733 125.4668 86.734375 C 124.80012 86.471592 123.82102 86.302734 122.95703 86.302734 C 122.27473 86.302734 122.1477 86.323908 122.09961 86.449219 C 122.00321 86.700457 122.4122 87.56594 122.90234 88.146484 C 123.93771 89.372827 124.03679 89.59358 123.82617 90.220703 C 123.63713 90.783588 123.32295 90.987664 121.92969 91.457031 C 120.88393 91.809329 119.92017 91.998047 119.1543 91.998047 C 118.53787 91.998047 118.22852 92.15836 118.22852 92.478516 C 118.22852 92.634184 117.93669 93.041982 117.4375 93.585938 C 116.99564 94.067436 117.03024 94.261638 117.61719 94.576172 C 117.90422 94.729989 118.25349 94.836506 118.57031 94.865234 C 119.03587 94.907454 119.08544 94.893071 119.31445 94.664062 C 119.51333 94.465188 119.57033 94.318183 119.61523 93.888672 C 119.64573 93.597036 119.72644 93.224439 119.79492 93.060547 L 119.91992 92.761719 L 120.51367 92.761719 C 120.95039 92.761719 121.18216 92.717527 121.38867 92.595703 C 122.10068 92.175668 123.62964 91.753345 124.94336 91.611328 C 125.50116 91.551028 125.79297 91.396684 125.79297 91.164062 C 125.79297 91.094323 125.65469 90.869525 125.48633 90.664062 C 124.48318 89.439851 125.07655 87.567121 126.58203 87.205078 L 126.81836 87.148438 L 126.4668 86.472656 C 126.1865 85.93388 125.93665 85.622153 125.22266 84.923828 C 124.15878 83.883294 123.66797 83.292296 123.66797 83.050781 L 123.66797 82.873047 L 123.85938 83.050781 C 123.96456 83.148091 124.35195 83.426867 124.7207 83.669922 C 125.53825 84.208795 126.41338 85.093563 126.83789 85.810547 C 127.01184 86.104346 127.2945 86.708268 127.46484 87.152344 C 127.63518 87.59642 127.9969 88.405227 128.26758 88.949219 C 128.72548 89.869464 128.81356 89.987161 129.53516 90.648438 C 130.01017 91.083739 130.38949 91.51424 130.51562 91.759766 C 130.94245 92.590527 130.72405 93.835054 129.74609 96.148438 C 129.33332 97.124833 129.16437 97.356678 128.36133 98.041016 C 127.9828 98.36359 127.90805 98.629851 128.0957 98.980469 C 128.182 99.14173 128.25185 99.1532 129.06641 99.123047 C 129.77616 99.096777 129.97614 99.059094 130.11914 98.929688 C 130.24701 98.813959 130.29688 98.666017 130.29688 98.396484 C 130.29688 98.014036 130.52035 97.468556 130.75781 97.271484 C 130.8607 97.186084 130.89258 96.99039 130.89258 96.419922 C 130.89258 95.922129 130.94351 95.527354 131.04883 95.21875 C 131.13513 94.966022 131.27279 94.47168 131.35547 94.121094 C 131.43817 93.770508 131.65361 93.211325 131.83398 92.876953 C 132.39875 91.82996 132.38591 91.252508 131.7793 90.507812 C 131.5706 90.251592 131.30138 89.821378 131.18164 89.552734 C 130.99508 89.134193 130.96848 88.967382 130.99219 88.384766 C 131.02829 87.49711 131.2679 87.017079 132.29883 85.78125 C 133.1301 84.784766 133.42995 84.269003 133.66602 83.419922 C 133.79558 82.953926 133.80129 82.800816 133.71094 82.175781 C 133.43321 80.254899 132.77172 79.01527 131.40625 77.855469 C 130.49569 77.082063 130.5196 77.086514 127.70703 77.107422 C 124.78767 77.129122 124.3945 77.083379 123.86133 76.646484 C 123.49001 76.342209 123.46934 76.334675 123.16992 76.441406 C 122.43548 76.703194 121.15768 77.746365 120.83594 78.347656 L 120.65039 78.695312 L 120.62305 78.326172 C 120.60395 78.059514 120.65981 77.827915 120.81836 77.503906 C 121.20329 76.717139 121.8832 76.250396 123.33594 75.773438 C 123.67738 75.661344 123.98921 75.489907 124.13672 75.335938 C 124.43834 75.021115 124.32932 75.013598 123.51367 75.291016 C 122.75635 75.548597 122.13672 75.650257 122.13672 75.517578 C 122.13672 75.465208 122.95003 75.025369 123.94336 74.539062 C 125.53207 73.761272 126.25529 73.30802 126.12109 73.173828 C 126.06209 73.114808 124.56036 73.527931 124.11133 73.726562 C 123.64243 73.933982 123.58203 73.935719 123.58203 73.738281 C 123.58203 73.472133 123.82566 73.336121 125.51758 72.660156 C 127.15022 72.007888 127.65685 71.747295 127.73047 71.523438 C 127.78917 71.345033 127.43128 71.459275 126.39258 71.949219 C 125.54188 72.350493 125.07031 72.449883 125.07031 72.226562 C 125.07031 72.173603 125.64258 71.839067 126.34375 71.484375 C 127.46555 70.916902 128.32628 70.365338 128.23438 70.273438 C 128.21748 70.256488 127.80425 70.396089 127.31641 70.582031 C 126.49825 70.893862 125.80327 71.023004 125.91406 70.84375 C 125.93956 70.8025 126.25045 70.631487 126.60547 70.462891 C 127.76796 69.910826 128.88783 69.237509 129.22852 68.886719 C 129.41247 68.697326 129.5405 68.520956 129.51367 68.494141 C 129.42537 68.405851 128.11847 68.962169 127.40234 69.392578 C 127.01588 69.624849 126.629 69.814453 126.54297 69.814453 C 126.26375 69.814453 126.37801 69.58262 126.83398 69.21875 C 127.36475 68.795182 127.92072 68.507002 129.05664 68.070312 C 129.70804 67.819887 129.98653 67.660323 130.28906 67.363281 C 130.59221 67.06561 130.64786 66.972483 130.53711 66.947266 C 130.3329 66.900756 129.40457 67.28263 128.15234 67.927734 C 127.55691 68.23449 127.04362 68.459639 127.01172 68.427734 C 126.92262 68.338624 127.31327 67.954987 127.83203 67.623047 C 128.08913 67.45854 128.43405 67.220606 128.59766 67.09375 C 128.76127 66.966893 129.31589 66.621895 129.83008 66.328125 C 130.92661 65.70166 131.6782 65.120757 131.87891 64.748047 C 132.03584 64.456649 131.99328 64.205078 131.78516 64.205078 C 131.3706 64.205078 129.21753 65.584168 128.2832 66.449219 C 127.95058 66.757174 127.65702 67.009766 127.62891 67.009766 C 127.60081 67.009766 127.57617 66.90808 127.57617 66.783203 C 127.57617 66.484096 127.92736 66.153805 129.82422 64.671875 C 131.97237 62.993617 132.32503 62.688168 132.64648 62.220703 C 132.80268 61.993557 132.93164 61.772106 132.93164 61.730469 C 132.93164 61.435237 131.72733 62.025725 130.60156 62.873047 C 129.94646 63.366112 129.5782 63.709297 129.09766 64.271484 C 128.92905 64.46873 128.7468 64.630859 128.69336 64.630859 C 128.54635 64.630859 128.57795 64.364604 128.75977 64.066406 C 128.96014 63.737824 131.11598 61.842492 132.03906 61.183594 C 133.03354 60.473736 134.69427 59.11712 134.75195 58.966797 C 134.86865 58.662684 134.8117 58.580335 134.52539 58.638672 C 133.97044 58.751744 133.18121 59.191075 131.52344 60.3125 C 129.6738 61.563723 129.37608 61.740234 129.10547 61.740234 C 128.80294 61.740234 128.94251 61.475483 129.38281 61.216797 C 129.60493 61.086294 130.40394 60.519229 131.1582 59.955078 C 131.91246 59.390936 133.12763 58.531491 133.85742 58.046875 C 134.58721 57.562258 135.47388 56.918032 135.82812 56.613281 C 136.53366 56.006312 137.14751 55.199653 137.06641 54.988281 C 136.97131 54.740389 136.46134 54.834248 135.67773 55.244141 C 134.61938 55.797752 132.24449 57.222598 131.44727 57.78125 C 130.76107 58.262109 130.34203 58.39213 130.39648 58.109375 C 130.42298 57.971783 131.16724 57.471036 133.72461 55.867188 C 134.325 55.490662 135.74191 54.707702 136.87109 54.126953 C 138.84167 53.113458 139.76759 52.534066 140.03906 52.146484 C 140.18821 51.93354 140.12438 51.655892 139.91016 51.587891 C 139.60934 51.492411 136.16704 53.030185 134.90039 53.826172 C 134.51106 54.070826 133.79541 54.45661 133.31055 54.683594 C 132.82569 54.910578 132.29924 55.19543 132.14062 55.316406 C 131.81412 55.565445 131.55808 55.596258 131.40039 55.40625 C 131.34129 55.335 131.30787 55.263915 131.32617 55.248047 C 131.41067 55.174997 135.21751 53.029976 136.20312 52.5 C 136.8108 52.173245 138.07291 51.493497 139.00781 50.990234 C 140.81203 50.018995 141.65332 49.447518 142.51367 48.609375 C 142.90996 48.223305 143.04492 48.033003 143.04492 47.859375 C 143.04492 47.731371 142.98757 47.604821 142.91797 47.578125 C 142.69383 47.492115 141.9922 47.715319 141.04102 48.175781 C 139.86881 48.743238 136.83008 50.483284 135.99023 51.068359 C 135.0739 51.706715 132.72604 53.15625 132.60742 53.15625 C 132.55212 53.15625 132.50586 53.081363 132.50586 52.990234 C 132.50586 52.767873 133.18595 52.294352 135.31836 51.025391 C 137.87555 49.503661 140.8269 47.513902 141.93945 46.5625 C 143.34165 45.363419 144.48375 44.23989 144.66992 43.875 C 144.83884 43.543928 144.88126 43.212891 144.75586 43.212891 C 144.58751 43.212891 142.93041 43.737029 142.51562 43.921875 C 141.6984 44.286068 136.08625 48.050015 134.55078 49.263672 C 134.1509 49.579752 133.79136 49.83913 133.75195 49.839844 C 133.64047 49.841844 134.33046 49.051064 134.86914 48.558594 C 135.46313 48.015555 137.58898 46.424576 140.19727 44.572266 C 143.81314 42.004412 146.97271 39.548875 146.83594 39.412109 z M 112.16602 58.212891 L 112.49805 58.609375 C 112.68081 58.826968 112.84805 58.987322 112.86914 58.966797 C 112.89024 58.946267 112.74095 58.769325 112.53711 58.572266 L 112.16602 58.212891 z M 138.29492 64.505859 L 137.93555 65.013672 C 137.56261 65.543053 137.18112 66.563492 137.17969 67.035156 C 137.17869 67.508154 136.57184 68.583047 135.68359 69.6875 C 135.53321 69.874479 135.25121 70.352669 135.05664 70.75 C 134.7165 71.444586 134.70456 71.494015 134.75391 72.0625 C 134.82101 72.835149 134.98167 73.432878 135.39648 74.466797 C 135.9241 75.78189 136.03948 76.413513 135.92383 77.332031 C 135.80524 78.27382 135.50233 78.921755 134.74219 79.863281 C 134.4414 80.235846 134.20803 80.550865 134.22266 80.5625 C 134.55797 80.829102 135.32998 80.817152 135.87891 80.537109 C 136.23697 80.35444 136.60791 79.863363 136.91602 79.162109 C 137.01877 78.928245 137.13518 78.320855 137.21875 77.591797 C 137.40121 76.000093 137.49513 75.430642 137.64844 74.996094 C 137.71914 74.795728 137.76024 74.613767 137.73828 74.591797 C 137.71628 74.569827 137.53536 74.805503 137.33789 75.115234 C 137.14043 75.424965 136.93215 75.679688 136.875 75.679688 C 136.8151 75.679688 136.74764 75.504074 136.71484 75.265625 C 136.5615 74.150718 137.26696 72.75263 138.23828 72.246094 C 139.0539 71.820751 139.65042 71.091673 139.07227 71.226562 C 138.60166 71.336371 138.1556 71.655665 137.71875 72.195312 C 137.47279 72.499154 137.22774 72.851921 137.17383 72.980469 C 137.02034 73.346413 136.94842 73.260546 136.88867 72.640625 C 136.81227 71.847739 137.006 70.813854 137.35547 70.158203 C 137.64273 69.619235 137.89004 69.373049 138.76953 68.75 C 139.25928 68.403043 140.32724 67.153392 140.22266 67.048828 C 140.12456 66.950708 139.74806 67.187801 139.39062 67.574219 L 139.00781 67.988281 L 138.98047 67.476562 C 138.94377 66.780175 139.02352 66.329892 139.26172 65.859375 L 139.46289 65.460938 L 139.23242 65.681641 C 139.10632 65.802446 138.88895 66.092669 138.75 66.326172 C 138.50556 66.736999 138.31583 66.898776 138.20898 66.791016 C 138.13738 66.718796 138.15307 65.350385 138.23047 64.886719 L 138.29492 64.505859 z M 108.86523 69.589844 C 108.6654 69.603155 108.40046 69.843742 108.22461 70.193359 C 107.96319 70.713085 107.34579 71.57638 106.58203 72.492188 C 106.27017 72.866146 105.74548 73.548403 105.41602 74.009766 L 104.81641 74.849609 L 104.97656 75.201172 C 105.17847 75.645818 105.17697 75.738725 104.96875 76.126953 C 104.73485 76.563371 104.75255 76.742787 105.09961 77.447266 L 105.40039 78.058594 L 105.84961 78.058594 C 106.0958 78.058594 106.35634 78.011553 106.42969 77.953125 C 106.50299 77.894695 106.63392 77.658712 106.71875 77.429688 L 106.87305 77.013672 L 106.55273 76.746094 C 106.15332 76.410772 106.00328 75.892718 106.19727 75.517578 C 106.26617 75.384304 106.38424 75.251331 106.45898 75.222656 C 106.5825 75.175256 106.58369 75.152727 106.46289 74.980469 C 106.38989 74.876219 106.33008 74.723897 106.33008 74.642578 C 106.33008 74.338932 108.53479 71.862871 108.96289 71.685547 C 109.34577 71.526954 109.67387 71.770156 110.35742 72.71875 L 110.94531 73.533203 L 111.17188 72.880859 C 111.29612 72.522046 111.51359 72.013386 111.65625 71.75 L 111.91602 71.271484 L 110.97461 70.818359 C 110.45727 70.56971 109.8219 70.212719 109.5625 70.023438 C 109.30312 69.834147 109.04712 69.65053 108.99219 69.617188 C 108.95507 69.594657 108.91135 69.586772 108.86523 69.589844 z " />
  <path
     id="path2520"
     style="opacity:0.2;fill:#000000;fill-opacity:1;fill-rule:evenodd;stroke:none;stroke-width:1.18164;filter:url(#filter2558)"
     d="m 11.304688,111.99993 c -0.440433,0 -0.798829,0.30378 -0.798829,0.67773 0,0.27359 0.174278,0.50182 0.445313,0.60938 0.116822,0.0526 0.301475,0.17966 0.296875,0.42578 -0.0012,0.0371 -0.01368,0.0786 -0.02539,0.11328 L 4,130.99993 h 7.710938 c 0.440431,0 0.796875,-0.30334 0.796874,-0.67969 2e-6,-0.27119 -0.171941,-0.50109 -0.445312,-0.60742 -0.114495,-0.0526 -0.210937,-0.17325 -0.210938,-0.31055 0,-0.0394 0.01954,-0.0811 0.03125,-0.11328 l 2.404297,-5.28906 h 5.429688 c 2.565481,0 4.942779,-1.80092 6.392578,-3.99805 0.676419,-1.02029 1.076172,-2.25197 1.076172,-3.57812 0,-0.8435 -0.150894,-1.63904 -0.439453,-2.375 C 26.24141,112.8385 25.0313,112.0136 23.662109,112.0136 l -4.5,-0.0137 z m 44.191406,0 c -7.482653,0 -13.628008,5.52507 -14.472656,12.5957 C 41.002478,124.78802 41,124.98626 41,125.18548 c 0,3.21143 2.693427,5.81445 5.990234,5.81445 2.073647,0 3.591864,-0.27988 5.376954,-1.00391 l 0.27539,1.00391 h 6.492188 l 3.195312,-7.93164 c 0.206781,-0.47245 0.429456,-0.70171 0.984375,-0.78711 0.30842,-0.0364 0.484646,-0.15561 0.572266,-0.37305 0.136685,-0.33241 -0.01315,-0.70877 -0.34961,-0.84765 -0.09347,-0.0384 -0.186996,-0.0528 -0.279297,-0.0488 l -7.876953,-0.002 c -0.511695,0 -0.796875,0.28902 -0.796875,0.64648 0,0.25955 0.180137,0.47173 0.451172,0.57422 0.116826,0.0512 0.431641,0.15639 0.431641,0.5332 0,0.0364 -0.01759,0.13998 -0.0293,0.17188 l -1.263672,3.08984 c -0.689268,1.49702 -1.673146,2.50977 -3.46875,2.50977 -1.464988,0 -2.630859,-1.17516 -2.630859,-2.60157 0,-0.1275 0.01053,-0.25127 0.0293,-0.37304 0.553752,-4.0106 2.527915,-7.30503 5.357422,-9.74805 1.308441,-1.13726 3.019138,-1.82617 4.908203,-1.82617 0.799083,0 1.587223,0.0266 2.757812,0.74609 0.233651,0.1571 0.602031,0.34178 0.878906,0.92578 0.169398,0.35518 0.08783,0.57036 0.445313,0.72852 0.285053,0.12865 0.630708,-0.01 0.833984,-0.29883 0.03388,-0.0478 0.06414,-0.0994 0.08984,-0.15625 l 0.796875,-1.85352 c -3.015259,-1.42984 -5.070556,-2.07812 -8.675781,-2.07812 z m 23.644531,0 -6.474609,0.002 -10.570313,17.10547 c -0.203277,0.31075 -0.424785,0.47908 -0.859375,0.55078 -0.308418,0.0383 -0.539005,0.13473 -0.646484,0.39649 -0.143695,0.3442 0.01394,0.74482 0.351562,0.89062 0.09229,0.0383 0.18663,0.0587 0.28125,0.0547 l 3.464844,-0.008 c 0.439263,-0.002 0.793416,-0.30951 0.791016,-0.6836 -0.0012,-0.27369 -0.175063,-0.49982 -0.447266,-0.60742 -0.115648,-0.0514 -0.301475,-0.17838 -0.296875,-0.42578 0,-0.025 0.0055,-0.052 0.03125,-0.10937 l 3.074219,-5.16602 h 6.132812 l 1.285156,5.19531 c 0.01013,0.0369 0.01247,0.0518 0.01367,0.0937 0.01169,0.24495 -0.181199,0.37404 -0.296875,0.42774 -0.27098,0.10636 -0.443359,0.33493 -0.443359,0.60742 0,0.37529 0.35058,0.67578 0.791016,0.67578 h 7.77539 L 82.75,131.99407 c 1.79677,1.38438 4.19138,2.18798 7.208984,1.9707 4.798002,-0.33647 7.782342,-3.81598 7.501954,-7.83593 -0.100474,-1.43345 -1.064993,-2.70841 -1.865235,-3.78321 l -0.912109,-1.10937 -1.984375,-2.37695 c -0.313092,-0.41823 -0.568996,-0.88434 -0.773438,-1.375 -0.09691,-0.24066 -0.163404,-0.49735 -0.183593,-0.76954 -0.09581,-1.39023 0.855686,-2.58988 2.5625,-2.70898 1.968506,-0.13904 3.34053,0.6832 4.068359,1.94726 0.04845,0.0782 0.06031,0.16312 0.06641,0.22852 0.0093,0.27687 0.156997,0.50174 0.396485,0.58594 0.327121,0.11448 0.703914,-0.11216 0.841796,-0.50586 l 0.794926,-2.26367 c -1.795603,-1.38322 -4.167968,-2.18019 -7.185551,-1.96289 -4.799193,0.3353 -7.783511,3.81558 -7.501953,7.83789 0.100455,1.43111 0.623954,2.73539 1.421875,3.8125 0,0 3.577616,4.29967 3.789063,4.57422 0.123831,0.17056 0.460964,0.67772 0.496094,1.17773 0.09345,1.33064 -0.579515,2.43632 -2.285157,2.55664 -1.980196,0.13904 -3.626459,-0.71334 -4.34375,-1.99023 -0.05047,-0.0783 -0.06031,-0.16237 -0.06641,-0.22657 -0.0093,-0.27804 -0.156976,-0.50369 -0.396484,-0.58789 -0.328273,-0.11451 -0.705601,0.11216 -0.845703,0.50586 l -0.433594,1.23828 -3.917969,-17.21289 c -0.0059,-0.2461 0.170222,-0.36993 0.287109,-0.42382 0.27094,-0.10757 0.445313,-0.33688 0.445313,-0.60938 0,-0.37528 -0.355657,-0.6875 -0.794922,-0.6875 z m 52.306645,0 c -0.35707,-0.004 -0.72452,0.008 -1.10157,0.0352 -4.7992,0.3353 -7.78154,3.81558 -7.5,7.83789 0.10048,1.43111 0.622,2.73539 1.41992,3.8125 0,0 3.57955,4.29967 3.79102,4.57422 0.12383,0.17056 0.46099,0.67772 0.49609,1.17773 0.0923,1.33064 -0.57951,2.43632 -2.28515,2.55664 -1.9802,0.13904 -3.62644,-0.71334 -4.34375,-1.99023 -0.0505,-0.0783 -0.0604,-0.16237 -0.0664,-0.22657 -0.009,-0.27804 -0.15817,-0.50369 -0.39648,-0.58789 -0.32945,-0.11451 -0.70783,0.11216 -0.84571,0.50586 l -0.80468,2.29883 c 1.79677,1.38438 4.19138,2.18798 7.20898,1.9707 4.79918,-0.33647 7.7827,-3.81598 7.5,-7.83593 -0.0981,-1.43345 -1.06536,-2.70841 -1.86328,-3.78321 l -0.91406,-1.10937 -1.98438,-2.37695 c -0.31192,-0.41823 -0.56782,-0.88434 -0.77343,-1.375 -0.0959,-0.24066 -0.16345,-0.49735 -0.18165,-0.76954 -0.097,-1.39023 0.85491,-2.58988 2.56055,-2.70898 1.96968,-0.13904 3.34053,0.6832 4.06836,1.94726 0.0492,0.0782 0.0624,0.16312 0.0664,0.22852 0.009,0.27687 0.15504,0.50174 0.39453,0.58594 0.32945,0.11448 0.70781,-0.11216 0.8457,-0.50586 l 0.79492,-2.26367 c -1.5732,-1.21032 -3.58644,-1.97221 -6.08593,-1.99805 z m -101.54102,0.043 c -0.511695,0 -0.816406,0.28634 -0.816406,0.66015 0,0.27351 0.171157,0.50382 0.443359,0.61133 0.115657,0.0525 0.41772,0.19417 0.4375,0.46289 0.0036,0.0382 -0.01123,0.25046 -0.01953,0.28516 l -7.164063,16.98047 h 16.5 l 0.923829,-2.17188 c 0.03856,-0.086 0.0625,-0.17973 0.0625,-0.28125 -10e-7,-0.37502 -0.298018,-0.67968 -0.666016,-0.67968 -0.275708,0 -0.573913,0.15185 -0.730469,0.42773 -0.297905,0.48729 -0.656712,0.66406 -1.183594,0.66406 l -6.617187,-0.004 3.027344,-7.00782 4.367187,0.004 c 0.03156,0.004 0.06531,0.007 0.08984,0.0176 0.221974,0.092 0.264425,0.31828 0.265625,0.44726 -0.01051,0.29738 0.06131,0.55069 0.30664,0.65821 0.336458,0.1469 0.750921,-0.0661 0.923829,-0.48047 l 1.078125,-2.52149 c 0.03856,-0.086 0.0625,-0.17974 0.0625,-0.28125 0,-0.37501 -0.233948,-0.67968 -0.59961,-0.67968 -0.276877,0 -0.578208,0.15304 -0.732422,0.42773 -0.269866,0.44188 -0.528738,0.38382 -0.978515,0.41602 l -3.978516,0.004 2.46875,-6.00195 h 4.734375 c 0.03505,0.003 0.09699,0.0833 0.13086,0.0977 0.223144,0.092 0.262471,0.31633 0.263671,0.44531 -0.0093,0.29859 0.128882,0.54943 0.373047,0.6582 0.336457,0.14809 0.748967,-0.0665 0.921875,-0.47851 l 1.132813,-2.67969 z m 86.27344,0.95703 -6.48633,14.96094 c -0.42407,0.97847 -1.41017,1.66211 -2.54688,1.66211 -0.22431,0 -0.48738,-0.0703 -0.69531,-0.11914 -0.69979,-0.18476 -1.23437,-0.79474 -1.23437,-1.65235 0.0374,-1.09236 0.70108,-2.66312 1.05273,-3.47656 l 4.03711,-9.26172 c 0.20676,-0.48343 0.42437,-0.73126 0.98047,-0.81836 0.30725,-0.0372 0.48151,-0.15692 0.57031,-0.3789 0.13435,-0.33816 -0.0128,-0.72226 -0.35156,-0.86524 -0.0911,-0.038 -0.18384,-0.0528 -0.27734,-0.0488 h -8.14063 c -0.43927,0 -0.79492,0.29332 -0.79492,0.65821 0,0.26496 0.17232,0.48913 0.44336,0.59375 0.11686,0.0512 0.30287,0.17388 0.29687,0.41211 0,0.0383 -0.0113,0.0788 -0.0234,0.11132 l -2.92579,6.74024 c -0.73834,1.57462 -1.162607,3.35532 -1.201168,5.1914 0,1.78963 1.035495,3.34047 2.533208,4.10743 1.5853,0.75651 3.3417,1.18359 5.20507,1.18359 5.63448,0 10.46652,-3.47392 12.39063,-8.40234 l 3.68555,-8.47657 c 0.20679,-0.4846 0.43609,-0.73907 0.99218,-0.82617 0.30725,-0.0372 0.48152,-0.15692 0.57032,-0.3789 0.13435,-0.33816 -0.0128,-0.72226 -0.35157,-0.86524 -0.0911,-0.038 -0.18384,-0.0528 -0.27734,-0.0488 z m -97.607424,1 c 0.141943,0 0.304941,0.004 0.386718,0.0156 0.334119,0.0519 0.58754,0.12878 0.851563,0.28126 1.219655,0.70905 1.31415,2.72115 0.208984,4.49609 -0.837636,1.34766 -2.055473,2.18883 -3.568359,2.19922 l -1.189453,0.008 3.046875,-6.99609 c 0,0 0.121729,-0.004 0.263672,-0.004 z m 53.8125,3.27344 1.068359,4.72656 h -3.919922 z" />
  <path
     id="path1614"
     style="opacity:1;fill:#e53935;fill-opacity:1;fill-rule:evenodd;stroke:none;stroke-width:1.18164"
     d="M 11.304688 110 C 10.864255 110 10.505859 110.30378 10.505859 110.67773 C 10.505859 110.95132 10.680137 111.17955 10.951172 111.28711 C 11.067994 111.33967 11.252647 111.46677 11.248047 111.71289 C 11.246877 111.75003 11.234366 111.79147 11.222656 111.82617 L 4 129 L 11.710938 129 C 12.151369 129 12.507813 128.69666 12.507812 128.32031 C 12.507814 128.04912 12.335871 127.81922 12.0625 127.71289 C 11.948005 127.66032 11.851563 127.53964 11.851562 127.40234 C 11.851562 127.3629 11.871102 127.32126 11.882812 127.28906 L 14.287109 122 L 19.716797 122 C 22.282278 122 24.659576 120.19908 26.109375 118.00195 C 26.785794 116.98166 27.185547 115.74998 27.185547 114.42383 C 27.185547 113.58033 27.034653 112.78479 26.746094 112.04883 C 26.24141 110.83857 25.0313 110.01367 23.662109 110.01367 L 19.162109 110 L 11.304688 110 z M 55.496094 110 C 48.013441 110 41.868086 115.52507 41.023438 122.5957 C 41.002478 122.78809 41 122.98633 41 123.18555 C 41 126.39698 43.693427 129 46.990234 129 C 49.063881 129 50.582098 128.72012 52.367188 127.99609 L 52.642578 129 L 59.134766 129 L 62.330078 121.06836 C 62.536859 120.59591 62.759534 120.36665 63.314453 120.28125 C 63.622873 120.24483 63.799099 120.12564 63.886719 119.9082 C 64.023404 119.57579 63.873566 119.19943 63.537109 119.06055 C 63.443644 119.02215 63.350113 119.00772 63.257812 119.01172 L 55.380859 119.00977 C 54.869164 119.00977 54.583984 119.29879 54.583984 119.65625 C 54.583984 119.9158 54.764121 120.12798 55.035156 120.23047 C 55.151982 120.28169 55.466797 120.38686 55.466797 120.76367 C 55.466797 120.80006 55.44921 120.90365 55.4375 120.93555 L 54.173828 124.02539 C 53.48456 125.52241 52.500682 126.53516 50.705078 126.53516 C 49.24009 126.53516 48.074219 125.36 48.074219 123.93359 C 48.074219 123.80609 48.084746 123.68232 48.103516 123.56055 C 48.657268 119.54995 50.631431 116.25552 53.460938 113.8125 C 54.769379 112.67524 56.480076 111.98633 58.369141 111.98633 C 59.168224 111.98633 59.956364 112.01295 61.126953 112.73242 C 61.360604 112.88952 61.728984 113.0742 62.005859 113.6582 C 62.175257 114.01338 62.093687 114.22856 62.451172 114.38672 C 62.736225 114.51537 63.08188 114.37705 63.285156 114.08789 C 63.319036 114.04008 63.3493 113.98844 63.375 113.93164 L 64.171875 112.07812 C 61.156616 110.64828 59.101319 110 55.496094 110 z M 79.140625 110 L 72.666016 110.00195 L 62.095703 127.10742 C 61.892426 127.41817 61.670918 127.5865 61.236328 127.6582 C 60.92791 127.69645 60.697323 127.79293 60.589844 128.05469 C 60.446149 128.39889 60.603782 128.79951 60.941406 128.94531 C 61.033694 128.98361 61.128036 129.004 61.222656 129 L 64.6875 128.99219 C 65.126763 128.98981 65.480916 128.68268 65.478516 128.30859 C 65.477347 128.0349 65.303453 127.80877 65.03125 127.70117 C 64.915602 127.64978 64.729775 127.52279 64.734375 127.27539 C 64.734375 127.25038 64.739925 127.22342 64.765625 127.16602 L 67.839844 122 L 73.972656 122 L 75.257812 127.19531 C 75.267943 127.23221 75.270284 127.24716 75.271484 127.28906 C 75.283173 127.53401 75.090285 127.6631 74.974609 127.7168 C 74.703629 127.82316 74.53125 128.05173 74.53125 128.32422 C 74.53125 128.69951 74.88183 129 75.322266 129 L 83.097656 129 L 82.75 129.99414 C 84.54677 131.37852 86.94138 132.18212 89.958984 131.96484 C 94.756986 131.62837 97.741326 128.14886 97.460938 124.12891 C 97.360464 122.69546 96.395945 121.4205 95.595703 120.3457 L 94.683594 119.23633 L 92.699219 116.85938 C 92.386127 116.44115 92.130223 115.97504 91.925781 115.48438 C 91.828875 115.24372 91.762377 114.98703 91.742188 114.71484 C 91.646377 113.32461 92.597874 112.12496 94.304688 112.00586 C 96.273194 111.86682 97.645218 112.68906 98.373047 113.95312 C 98.421497 114.03133 98.433353 114.11624 98.439453 114.18164 C 98.4488 114.45851 98.59645 114.68338 98.835938 114.76758 C 99.163059 114.88206 99.539852 114.65542 99.677734 114.26172 L 100.47266 111.99805 C 98.677057 110.61483 96.304692 109.81786 93.287109 110.03516 C 88.487916 110.37046 85.503598 113.85074 85.785156 117.87305 C 85.885611 119.30416 86.40911 120.60844 87.207031 121.68555 C 87.207031 121.68555 90.784647 125.98522 90.996094 126.25977 C 91.119925 126.43033 91.457058 126.93749 91.492188 127.4375 C 91.585636 128.76814 90.912673 129.87382 89.207031 129.99414 C 87.226835 130.13318 85.580572 129.2808 84.863281 128.00391 C 84.812811 127.92564 84.802975 127.84154 84.796875 127.77734 C 84.787529 127.4993 84.639899 127.27365 84.400391 127.18945 C 84.072118 127.07494 83.69479 127.30161 83.554688 127.69531 L 83.121094 128.93359 L 79.203125 111.7207 C 79.197271 111.4746 79.373347 111.35077 79.490234 111.29688 C 79.761174 111.18931 79.935547 110.96 79.935547 110.6875 C 79.935547 110.31222 79.57989 110 79.140625 110 z M 131.44727 110 C 131.0902 109.99631 130.72275 110.00799 130.3457 110.03516 C 125.5465 110.37046 122.56416 113.85074 122.8457 117.87305 C 122.94618 119.30416 123.4677 120.60844 124.26562 121.68555 C 124.26562 121.68555 127.84517 125.98522 128.05664 126.25977 C 128.18047 126.43033 128.51763 126.93749 128.55273 127.4375 C 128.64503 128.76814 127.97322 129.87382 126.26758 129.99414 C 124.28738 130.13318 122.64114 129.2808 121.92383 128.00391 C 121.87333 127.92564 121.86342 127.84154 121.85742 127.77734 C 121.84807 127.4993 121.69925 127.27365 121.46094 127.18945 C 121.13149 127.07494 120.75311 127.30161 120.61523 127.69531 L 119.81055 129.99414 C 121.60732 131.37852 124.00193 132.18212 127.01953 131.96484 C 131.81871 131.62837 134.80223 128.14886 134.51953 124.12891 C 134.42139 122.69546 133.45417 121.4205 132.65625 120.3457 L 131.74219 119.23633 L 129.75781 116.85938 C 129.44589 116.44115 129.18999 115.97504 128.98438 115.48438 C 128.88847 115.24372 128.82093 114.98703 128.80273 114.71484 C 128.70577 113.32461 129.65764 112.12496 131.36328 112.00586 C 133.33296 111.86682 134.70381 112.68906 135.43164 113.95312 C 135.48084 114.03133 135.49405 114.11624 135.49805 114.18164 C 135.50738 114.45851 135.65309 114.68338 135.89258 114.76758 C 136.22203 114.88206 136.60039 114.65542 136.73828 114.26172 L 137.5332 111.99805 C 135.96 110.78773 133.94676 110.02584 131.44727 110 z M 29.90625 110.04297 C 29.394555 110.04297 29.089844 110.32931 29.089844 110.70312 C 29.089844 110.97663 29.261001 111.20694 29.533203 111.31445 C 29.64886 111.367 29.950923 111.50862 29.970703 111.77734 C 29.974283 111.81556 29.959472 112.0278 29.951172 112.0625 L 22.787109 129.04297 L 39.287109 129.04297 L 40.210938 126.87109 C 40.249498 126.78509 40.273438 126.69136 40.273438 126.58984 C 40.273437 126.21482 39.97542 125.91016 39.607422 125.91016 C 39.331714 125.91016 39.033509 126.06201 38.876953 126.33789 C 38.579048 126.82518 38.220241 127.00195 37.693359 127.00195 L 31.076172 126.99805 L 34.103516 119.99023 L 38.470703 119.99414 C 38.502263 119.99834 38.536017 120.00142 38.560547 120.01172 C 38.782521 120.10368 38.824972 120.33 38.826172 120.45898 C 38.815658 120.75636 38.887479 121.00967 39.132812 121.11719 C 39.46927 121.26409 39.883733 121.05114 40.056641 120.63672 L 41.134766 118.11523 C 41.173326 118.02923 41.197266 117.93549 41.197266 117.83398 C 41.197266 117.45897 40.963318 117.1543 40.597656 117.1543 C 40.320779 117.1543 40.019448 117.30734 39.865234 117.58203 C 39.595368 118.02391 39.336496 117.96585 38.886719 117.99805 L 34.908203 118.00195 L 37.376953 112 L 42.111328 112 C 42.146375 112.0029 42.208317 112.08326 42.242188 112.09766 C 42.465332 112.18962 42.504659 112.41399 42.505859 112.54297 C 42.496512 112.84156 42.634741 113.0924 42.878906 113.20117 C 43.215363 113.34926 43.627873 113.13468 43.800781 112.72266 L 44.933594 110.04297 L 29.90625 110.04297 z M 116.17969 111 L 109.69336 125.96094 C 109.26929 126.93941 108.28319 127.62305 107.14648 127.62305 C 106.92217 127.62305 106.6591 127.55271 106.45117 127.50391 C 105.75138 127.31915 105.2168 126.70917 105.2168 125.85156 C 105.25419 124.7592 105.91788 123.18844 106.26953 122.375 L 110.30664 113.11328 C 110.5134 112.62985 110.73101 112.38202 111.28711 112.29492 C 111.59436 112.25772 111.76862 112.138 111.85742 111.91602 C 111.99177 111.57786 111.84465 111.19376 111.50586 111.05078 C 111.41471 111.01278 111.32202 110.99795 111.22852 111.00195 L 103.08789 111.00195 C 102.64862 111.00195 102.29297 111.29527 102.29297 111.66016 C 102.29297 111.92512 102.46529 112.14929 102.73633 112.25391 C 102.85319 112.30506 103.0392 112.42779 103.0332 112.66602 C 103.0332 112.70436 103.02187 112.74484 103.00977 112.77734 L 100.08398 119.51758 C 99.34564 121.0922 98.921373 122.8729 98.882812 124.70898 C 98.882812 126.49861 99.918307 128.04945 101.41602 128.81641 C 103.00132 129.57292 104.75772 130 106.62109 130 C 112.25557 130 117.08761 126.52608 119.01172 121.59766 L 122.69727 113.12109 C 122.90406 112.63649 123.13336 112.38202 123.68945 112.29492 C 123.9967 112.25772 124.17097 112.138 124.25977 111.91602 C 124.39412 111.57786 124.24701 111.19376 123.9082 111.05078 C 123.81711 111.01278 123.72436 110.99795 123.63086 111.00195 L 116.17969 111 z M 18.572266 112 C 18.714209 112 18.877207 112.00363 18.958984 112.01562 C 19.293103 112.06754 19.546524 112.1444 19.810547 112.29688 C 21.030202 113.00593 21.124697 115.01803 20.019531 116.79297 C 19.181895 118.14063 17.964058 118.9818 16.451172 118.99219 L 15.261719 119 L 18.308594 112.00391 C 18.308594 112.00391 18.430323 112 18.572266 112 z M 72.384766 115.27344 L 73.453125 120 L 69.533203 120 L 72.384766 115.27344 z " />
  <path
     style="fill:#e53935;stroke-width:0.0849906;fill-opacity:1"
     d="m 127.74701,99.79029 c -0.23857,-0.08136 -0.3124,-0.16186 -0.37288,-0.406614 -0.0415,-0.167844 -0.0481,-0.487392 -0.0147,-0.710105 0.053,-0.353528 0.15442,-0.508997 0.79877,-1.224658 0.99665,-1.106948 1.46484,-2.072444 1.71636,-3.539424 0.19162,-1.117617 0.17253,-1.399761 -0.13589,-2.0084 -0.15186,-0.29968 -0.35343,-0.505666 -0.78639,-0.803635 -0.53523,-0.36835 -0.61369,-0.46305 -0.97267,-1.174053 -0.21476,-0.425361 -0.4728,-1.031543 -0.57343,-1.347071 -0.10063,-0.315527 -0.22903,-0.573686 -0.28535,-0.573686 -0.0563,0 -0.33048,0.08724 -0.60925,0.193862 -0.44252,0.169253 -0.53069,0.242078 -0.69459,0.573686 -0.30495,0.617018 -0.26084,0.993742 0.18773,1.603077 0.42475,0.576978 0.45903,0.757552 0.2179,1.147705 -0.32568,0.526965 -0.59745,0.644979 -2.09583,0.910121 -1.42667,0.252454 -2.26415,0.522012 -2.76125,0.888768 -0.20455,0.150909 -0.39017,0.207169 -0.68352,0.207169 -0.4555,0 -0.45467,-0.0012 -0.54776,0.80741 -0.0508,0.441022 -0.10162,0.551096 -0.37613,0.814426 -0.51183,0.490972 -1.45589,0.633605 -2.08249,0.314632 -0.30337,-0.154426 -0.90174,-0.781714 -1.02612,-1.075694 -0.20464,-0.483681 -0.15273,-0.641099 0.45706,-1.386358 0.31807,-0.388729 0.6657,-0.850685 0.77251,-1.02657 0.25533,-0.420445 0.40112,-0.48762 1.05835,-0.48762 0.78248,0 1.73104,-0.200413 2.86024,-0.604316 1.00148,-0.358219 1.52983,-0.666136 1.52983,-0.891565 0,-0.244538 -0.28008,-0.675292 -0.78038,-1.200187 -0.38613,-0.405118 -0.61296,-0.75798 -0.96975,-1.508583 l -0.46572,-0.979775 h -0.41575 c -0.64243,0 -1.71006,-0.169396 -1.99687,-0.316834 -0.50889,-0.2616 -1.30114,-0.935147 -2.7478,-2.336107 -1.50181,-1.454364 -2.03398,-1.845961 -3.13875,-2.309623 -0.29075,-0.122023 -0.58976,-0.221861 -0.66448,-0.221861 -0.089,0 -0.26818,-0.285991 -0.51929,-0.828658 -0.97774,-2.112985 -1.33745,-2.775427 -1.72605,-3.178588 -0.6145,-0.637532 -0.65739,-0.610675 -1.27577,0.798852 -0.58321,1.329359 -0.57121,1.202297 -0.20929,2.217237 0.14269,0.400162 0.14173,0.422997 -0.0359,0.851549 -0.23947,0.577774 -0.23028,0.879776 0.0389,1.275847 0.27245,0.400941 0.25158,0.537005 -0.2453,1.599185 -0.40396,0.86356 -0.80718,1.344124 -1.12778,1.344124 -0.39534,0 -1.31303,-1.569096 -1.31303,-2.245082 0,-0.09595 0.10129,-0.367903 0.22508,-0.604339 l 0.22507,-0.429884 -0.3217,-0.484511 c -0.37329,-0.56222 -0.37318,-0.739991 0.001,-1.876067 0.12106,-0.367364 0.20362,-0.684433 0.18345,-0.704597 -0.0202,-0.02016 -0.23301,-0.0677 -0.473,-0.105636 -0.64284,-0.101621 -0.73399,-0.213256 -1.15251,-1.411513 -0.23925,-0.684998 -0.24204,-0.821893 -0.0254,-1.246276 0.19833,-0.388501 0.19935,-0.402006 0.0512,-0.679925 -0.33221,-0.623244 -0.29101,-0.71143 1.21351,-2.597422 0.46266,-0.579976 1.22477,-1.596973 1.69358,-2.259993 0.82922,-1.172726 1.23277,-1.587956 1.54331,-1.587956 0.0833,0 0.29245,0.07557 0.4648,0.16795 0.17234,0.09237 0.32493,0.156374 0.33907,0.142232 0.0141,-0.01413 -0.0459,-0.175769 -0.13332,-0.35917 -0.0875,-0.18341 -0.22459,-0.561873 -0.30474,-0.841042 l -0.14572,-0.507564 0.22467,-0.193251 0.22466,-0.193252 -0.27249,-0.396064 c -0.33732,-0.490268 -0.55942,-1.062731 -0.63585,-1.638899 -0.0534,-0.40283 -0.043,-0.444356 0.12317,-0.487804 0.0999,-0.02611 0.18159,-0.05871 0.18159,-0.07243 0,-0.01373 -0.11471,-0.267422 -0.25491,-0.563776 -0.1402,-0.296354 -0.25494,-0.661388 -0.25497,-0.811193 -6e-5,-0.243379 0.0312,-0.278233 0.29384,-0.327502 l 0.2939,-0.05514 -0.37441,-0.745504 c -0.55493,-1.10492 -0.74155,-1.709016 -0.62832,-2.033833 0.10444,-0.299608 0.14023,-0.30877 0.54514,-0.139588 0.16211,0.06773 0.29474,0.100544 0.29474,0.07292 0,-0.02762 -0.14662,-0.283826 -0.32582,-0.569344 -0.58323,-0.929261 -1.30409,-2.344788 -1.46539,-2.877517 -0.18832,-0.621961 -0.1358,-0.724239 0.39053,-0.76064 l 0.37059,-0.02562 -0.68416,-1.062382 c -0.37629,-0.584311 -0.89633,-1.492936 -1.15562,-2.019164 -0.41412,-0.840387 -0.45973,-0.982551 -0.37495,-1.168621 0.0719,-0.157827 0.16206,-0.211839 0.35358,-0.211839 h 0.25706 l -0.80495,-1.185457 c -0.44273,-0.652005 -0.83079,-1.288423 -0.86238,-1.414277 -0.0945,-0.37667 0.0575,-0.662348 0.39736,-0.746855 l 0.29947,-0.07444 -0.50151,-0.477995 c -0.5656,-0.53907 -0.90826,-1.135177 -0.90826,-1.580043 v -0.300289 l 0.4887,0.002 c 0.31648,0.0013 0.66224,0.07339 0.98121,0.204547 0.27088,0.111388 0.45871,0.158286 0.41739,0.104215 -0.15625,-0.204445 -1.7013,-2.084878 -2.33135,-2.83741 -0.73619,-0.879304 -0.83453,-1.107394 -0.61919,-1.436044 0.13196,-0.201393 0.1844,-0.218103 0.56882,-0.181166 0.51111,0.04912 1.80077,0.670083 2.96317,1.42678 1.53721,1.000679 4.04191,3.743707 5.77308,6.322381 0.50051,0.745546 1.90682,3.305836 2.36122,4.298806 0.44698,0.976763 1.39482,3.541668 1.55072,4.196351 0.1378,0.578667 0.14273,0.585457 0.51571,0.70996 0.53762,0.179466 1.62498,0.84184 2.14967,1.309493 0.48427,0.431624 1.51752,1.819231 1.86153,2.499955 0.24609,0.48697 0.65014,1.853882 0.9185,3.10729 0.16804,0.784871 0.18184,1.032975 0.13855,2.492161 -0.0519,1.748486 -0.1016,2.016138 -0.59506,3.203091 l -0.3046,0.732653 0.12216,0.523627 c 0.0672,0.287999 0.20418,0.684412 0.30443,0.880919 l 0.18227,0.357283 0.39178,-0.438211 c 0.49751,-0.556476 0.89704,-1.21698 1.12495,-1.859798 0.17039,-0.480579 0.17653,-0.615587 0.13117,-2.883917 -0.05,-2.501724 -0.14099,-3.458845 -0.56354,-5.93038 -0.29522,-1.726694 -0.31993,-2.541175 -0.12349,-4.069468 0.17306,-1.346361 0.71008,-3.459371 1.08114,-4.253974 0.79818,-1.709262 3.4682,-5.109378 5.17303,-6.587568 1.57795,-1.368179 3.79593,-2.994686 5.33779,-3.914361 1.20203,-0.71698 4.33156,-2.295604 5.49792,-2.77331 1.81575,-0.743685 5.14511,-1.66347 6.65786,-1.839332 1.79119,-0.208236 1.91218,0.0778 0.64931,1.535066 -0.34382,0.396736 -1.03219,1.061132 -1.52972,1.476447 -0.49753,0.415315 -0.9046,0.762315 -0.9046,0.77112 0,0.0088 0.18836,0.01322 0.41856,0.0098 0.77486,-0.01149 1.13876,0.510581 0.80648,1.157003 -0.27897,0.542724 -1.10033,1.564047 -1.92875,2.398349 -0.86214,0.868247 -0.90575,0.981208 -0.37992,0.98414 0.31986,0.0018 0.57369,0.277018 0.57369,0.622088 0,0.580061 -0.78165,1.434233 -2.52847,2.763036 -0.38565,0.293362 -0.70118,0.549489 -0.70118,0.569173 0,0.01968 0.0625,0.166913 0.13895,0.32718 0.0827,0.173304 0.11724,0.377902 0.0854,0.504903 -0.0937,0.373253 -1.47002,1.68255 -2.28533,2.174008 -0.73484,0.442946 -0.74367,0.452269 -0.74367,0.785866 0,0.521765 -0.18907,0.797917 -1.34482,1.964149 l -1.07283,1.082568 0.14645,0.2479 c 0.29192,0.494186 0.20634,0.790055 -0.441,1.524672 -0.32308,0.366649 -0.77087,0.828105 -0.99507,1.025462 -0.36484,0.321145 -0.40525,0.391985 -0.38484,0.674732 0.0326,0.451181 -0.0669,0.652931 -0.71111,1.441448 l -0.57238,0.700663 0.22307,0.206731 c 0.1227,0.113709 0.22308,0.289265 0.22308,0.390132 0,0.305363 -0.50587,1.155549 -1.02406,1.721059 -0.47735,0.520942 -0.48778,0.54281 -0.44399,0.931293 0.0447,0.396889 0.0435,0.39926 -0.54997,1.016096 -0.42189,0.438535 -0.61112,0.704759 -0.65092,0.915748 -0.0676,0.358295 -0.14444,0.460071 -0.66694,0.883325 -0.30531,0.247314 -0.40371,0.384259 -0.40371,0.561864 0,0.166513 -0.0999,0.32508 -0.34329,0.544985 -0.30368,0.274358 -0.33731,0.341993 -0.2915,0.586197 0.0474,0.25249 0.009,0.316539 -0.44534,0.750237 -0.27343,0.260802 -0.61679,0.536061 -0.76304,0.611694 -0.24655,0.127495 -0.26255,0.16257 -0.21977,0.481566 0.0426,0.317779 0.0195,0.369411 -0.30259,0.675819 -0.19182,0.182458 -0.6374,0.474409 -0.99019,0.648767 -0.62241,0.307615 -0.64006,0.324809 -0.59467,0.57967 0.0404,0.226806 -0.01,0.323729 -0.36918,0.710232 -0.37845,0.407241 -0.39978,0.451207 -0.2367,0.487727 0.0986,0.02208 1.40312,0.05087 2.89896,0.06397 2.2743,0.01992 2.77994,0.04667 3.08753,0.163292 0.58213,0.220712 1.70369,0.926737 2.13604,1.344644 0.48688,0.470619 1.16105,1.386323 1.29656,1.761083 0.12705,0.351329 0.25812,0.351953 0.51973,0.0025 0.3322,-0.44379 0.47279,-0.777298 0.66006,-1.5658 0.30524,-1.285202 0.2688,-1.602353 -0.42184,-3.672299 -0.63468,-1.902225 -0.67796,-2.158829 -0.52332,-3.103108 0.0918,-0.560555 0.42737,-1.176431 1.31315,-2.410018 0.99025,-1.379075 1.16072,-1.726541 1.23329,-2.513733 0.0865,-0.938304 0.57043,-1.867413 1.4835,-2.848204 0.42841,-0.460199 1.14057,-0.755753 1.27948,-0.530996 0.0264,0.04276 -0.0614,0.377409 -0.19524,0.743668 -0.1338,0.366258 -0.26969,0.836817 -0.30197,1.045681 l -0.0587,0.379755 0.1952,-0.179151 c 0.37009,-0.339665 1.05651,-0.622854 1.50973,-0.622854 0.49939,0 0.53458,0.09109 0.15773,0.408185 -0.40083,0.337276 -1.00481,1.19591 -1.00481,1.428462 0,0.193132 0.0269,0.203127 0.5469,0.203127 1.0974,0 1.2925,0.247663 0.65652,0.833384 -0.24392,0.224647 -0.5462,0.621799 -0.6918,0.908923 -0.4094,0.807368 -0.92614,1.406611 -1.59418,1.848715 -0.42381,0.280478 -0.67942,0.521859 -0.83657,0.790005 -0.25461,0.434454 -0.23118,0.602413 0.0324,0.232253 0.21732,-0.305192 0.83827,-0.618723 1.2254,-0.618723 0.21184,0 0.40484,-0.08537 0.67062,-0.296642 0.20524,-0.163148 0.42229,-0.297008 0.48233,-0.297467 0.14265,-0.0011 0.0682,0.676414 -0.16148,1.468977 -0.19876,0.685959 -0.51872,1.075207 -1.33607,1.625428 -0.59053,0.397526 -1.05264,0.761762 -0.90636,0.71438 0.0468,-0.01514 0.34391,-0.157445 0.66035,-0.316242 0.31645,-0.158788 0.60119,-0.262876 0.63276,-0.231302 0.0316,0.03157 -0.0857,0.322285 -0.26053,0.646039 -0.35003,0.648045 -0.55232,1.517499 -0.7768,3.338711 -0.17145,1.390894 -0.31392,1.920033 -0.74351,2.761263 -0.38179,0.747624 -0.55886,0.975342 -1.04939,1.349491 -0.27073,0.206492 -0.37395,0.233018 -0.8398,0.215818 -0.29211,-0.01079 -0.64173,-0.05139 -0.77691,-0.09024 l -0.2458,-0.07062 0.0283,1.004525 c 0.0213,0.754764 -0.007,1.126896 -0.11396,1.496689 -0.24821,0.858785 -0.77205,1.744505 -1.50561,2.545714 -0.75628,0.826021 -1.07388,1.406166 -1.14388,2.089487 -0.0668,0.651645 0.0865,1.087357 0.61201,1.740135 0.25698,0.319209 0.48803,0.702515 0.51813,0.859577 0.0299,0.155908 0.0364,0.687004 0.0145,1.180213 l -0.0399,0.896747 -0.38754,0.349617 c -0.34694,0.312987 -0.39791,0.407498 -0.48633,0.902056 -0.0543,0.303841 -0.19572,0.837492 -0.31418,1.185891 -0.18286,0.537773 -0.20727,0.723911 -0.16162,1.232363 0.0535,0.595713 0.0519,0.601583 -0.28911,1.099079 -0.3508,0.511745 -0.40754,0.682193 -0.25787,0.774691 0.17989,0.111183 0.069,0.362127 -0.33668,0.761678 -0.3602,0.354785 -0.48719,0.424651 -0.87115,0.479297 -0.67548,0.09613 -1.60191,0.07956 -1.93683,-0.03466 z m 2.37291,-0.860175 c 0.12787,-0.115728 0.17681,-0.263151 0.17681,-0.532684 0,-0.382448 0.22378,-0.928586 0.46124,-1.125658 0.10289,-0.0854 0.1337,-0.281695 0.1337,-0.852163 0,-0.497793 0.0515,-0.892105 0.15682,-1.200709 0.0863,-0.252728 0.22448,-0.746349 0.30716,-1.096935 0.0827,-0.350586 0.29792,-0.911007 0.47829,-1.245379 0.56477,-1.046993 0.55131,-1.624122 -0.0553,-2.368818 -0.2087,-0.256221 -0.47742,-0.685654 -0.59716,-0.954298 -0.18656,-0.418541 -0.21376,-0.585753 -0.19005,-1.168369 0.0361,-0.887656 0.27737,-1.367754 1.3083,-2.603583 0.83127,-0.996484 1.12971,-1.512537 1.36578,-2.361618 0.12956,-0.465996 0.13505,-0.618948 0.0447,-1.243983 -0.27773,-1.920882 -0.93874,-3.16015 -2.30421,-4.319951 -0.91056,-0.773406 -0.88712,-0.768663 -3.69969,-0.747755 -2.91936,0.0217 -3.31167,-0.02548 -3.84484,-0.462375 -0.37132,-0.304275 -0.39295,-0.31064 -0.69237,-0.203909 -0.73444,0.261788 -2.01077,1.304767 -2.33251,1.906058 l -0.18632,0.348189 -0.0266,-0.37066 c -0.0191,-0.26665 0.0352,-0.497051 0.19375,-0.82106 0.38493,-0.786767 1.06495,-1.254402 2.51769,-1.731361 0.34144,-0.112094 0.65456,-0.282483 0.80207,-0.436452 0.30162,-0.314822 0.19156,-0.322828 -0.62409,-0.04541 -0.75732,0.257581 -1.37549,0.359536 -1.37549,0.226857 0,-0.05237 0.81272,-0.493116 1.80605,-0.979423 1.58871,-0.777791 2.31072,-1.230502 2.17652,-1.364694 -0.059,-0.05902 -1.56044,0.353569 -2.00947,0.552192 -0.4689,0.20742 -0.52826,0.208678 -0.52826,0.01124 0,-0.266148 0.24252,-0.401189 1.93444,-1.077154 1.63264,-0.652268 2.13976,-0.912662 2.21338,-1.136519 0.0587,-0.178404 -0.29825,-0.06494 -1.33695,0.425004 -0.8507,0.401274 -1.32354,0.500186 -1.32354,0.276865 0,-0.05296 0.57369,-0.386494 1.27486,-0.741186 1.1218,-0.567473 1.98213,-1.118297 1.89022,-1.210198 -0.0169,-0.01695 -0.42996,0.121316 -0.9178,0.307258 -0.81816,0.311831 -1.51433,0.442317 -1.40354,0.263063 0.0255,-0.04125 0.33682,-0.212952 0.69184,-0.381548 1.16249,-0.552065 2.28274,-1.224918 2.62343,-1.575708 0.18395,-0.189393 0.31251,-0.366301 0.28568,-0.393116 -0.0883,-0.08829 -1.39571,0.46778 -2.11184,0.898189 -0.38646,0.232271 -0.77305,0.42231 -0.85908,0.42231 -0.27922,0 -0.16618,-0.232721 0.28979,-0.596591 0.53077,-0.423568 1.08671,-0.710513 2.22263,-1.147203 0.6514,-0.250425 0.92984,-0.410233 1.23237,-0.707275 0.30315,-0.297671 0.35879,-0.39105 0.24804,-0.416267 -0.20421,-0.04651 -1.13245,0.335008 -2.38468,0.980112 -0.59543,0.306756 -1.10872,0.531624 -1.14062,0.499727 -0.0891,-0.08912 0.30213,-0.472547 0.82089,-0.804487 0.2571,-0.164507 0.60131,-0.402898 0.76492,-0.529754 0.16361,-0.126857 0.71817,-0.47101 1.23236,-0.76478 1.09653,-0.626465 1.84984,-1.206687 2.05055,-1.579397 0.15693,-0.291398 0.11262,-0.543463 -0.0955,-0.543463 -0.41456,0 -2.566,1.37972 -3.50033,2.244771 -0.33262,0.307955 -0.62775,0.559918 -0.65586,0.559918 -0.0281,0 -0.0511,-0.102167 -0.0511,-0.227044 0,-0.299107 0.35057,-0.628267 2.24743,-2.110197 2.14815,-1.678258 2.50154,-1.985295 2.82299,-2.45276 0.1562,-0.227138 0.28399,-0.447059 0.28399,-0.488696 0,-0.295232 -1.20323,0.294849 -2.329,1.14218 -0.6551,0.493056 -1.02412,0.835959 -1.50466,1.398146 -0.16861,0.197246 -0.35027,0.358635 -0.40371,0.358635 -0.14701,0 -0.11602,-0.265477 0.0658,-0.563675 0.20037,-0.328582 2.35608,-2.223405 3.27916,-2.882303 0.99448,-0.709858 2.6547,-2.067149 2.71238,-2.217472 0.1167,-0.304113 0.0599,-0.386443 -0.22641,-0.328106 -0.55495,0.113072 -1.34403,0.553306 -3.0018,1.674731 -1.84964,1.251223 -2.14775,1.427145 -2.41836,1.427145 -0.30253,0 -0.16186,-0.264193 0.27844,-0.522879 0.22212,-0.130503 1.02098,-0.698852 1.77524,-1.263003 0.75426,-0.564142 1.96848,-1.422215 2.69827,-1.906831 0.72979,-0.484617 1.61672,-1.13046 1.97097,-1.435211 0.70553,-0.606969 1.32038,-1.412764 1.23928,-1.624136 -0.0951,-0.247892 -0.60551,-0.153799 -1.38912,0.256094 -1.05835,0.553611 -3.43435,1.977824 -4.23157,2.536476 -0.6862,0.480859 -1.10345,0.611694 -1.049,0.328939 0.0265,-0.137592 0.77084,-0.639248 3.32821,-2.243097 0.60039,-0.376525 2.01548,-1.159748 3.14466,-1.740497 1.97058,-1.013495 2.89818,-1.593157 3.16965,-1.980739 0.14915,-0.212944 0.0848,-0.490379 -0.12942,-0.55838 -0.30082,-0.09548 -3.74303,1.442826 -5.00968,2.238813 -0.38933,0.244654 -1.10458,0.630546 -1.58944,0.85753 -0.48486,0.226984 -1.01135,0.511677 -1.16996,0.632653 -0.3265,0.249039 -0.58379,0.280418 -0.74148,0.09041 -0.0591,-0.07125 -0.0925,-0.142521 -0.0742,-0.158389 0.0845,-0.07305 3.89221,-2.218823 4.87783,-2.748799 0.60768,-0.326755 1.86979,-1.005855 2.80469,-1.509118 1.80422,-0.971239 2.64551,-1.542511 3.50586,-2.380654 0.39629,-0.38607 0.53119,-0.576593 0.53119,-0.750221 0,-0.128004 -0.0569,-0.25458 -0.1265,-0.281276 -0.22414,-0.08601 -0.92635,0.13771 -1.87753,0.598172 -1.17221,0.567457 -4.21034,2.307724 -5.05019,2.892799 -0.91633,0.638356 -3.26545,2.087292 -3.38407,2.087292 -0.0553,0 -0.10054,-0.07456 -0.10054,-0.165689 0,-0.222361 0.67896,-0.697203 2.81137,-1.966164 2.55719,-1.52173 5.51003,-3.511725 6.62258,-4.463127 1.4022,-1.199081 2.54262,-2.321968 2.72879,-2.686858 0.16892,-0.331072 0.2124,-0.66206 0.087,-0.66206 -0.16835,0 -1.82539,0.525268 -2.24017,0.710114 -0.81723,0.364193 -6.42964,4.128222 -7.96511,5.341879 -0.39988,0.31608 -0.75931,0.575267 -0.79872,0.575981 -0.11148,0.002 0.57741,-0.788874 1.11609,-1.281344 0.59399,-0.543039 2.72158,-2.134496 5.32987,-3.986806 3.61587,-2.567854 6.77542,-5.024074 6.63865,-5.16084 -0.0165,-0.01649 -1.34482,0.298963 -2.95186,0.701019 -2.90113,0.725802 -4.07583,1.114158 -5.87386,1.941916 -1.26698,0.583273 -4.41385,2.460766 -5.92954,3.537682 -2.66749,1.895298 -6.61671,6.046178 -7.61106,7.999712 -0.53171,1.044603 -1.23407,3.542918 -1.39484,4.961487 -0.10775,0.950705 -0.11133,3.311632 -0.006,3.994557 0.835,5.417053 0.90636,6.883362 0.42631,8.760294 -0.24255,0.948401 -0.44123,1.307095 -1.0946,1.976201 -0.82981,0.849804 -1.54065,1.345843 -2.20743,1.540395 -0.63319,0.184752 -1.7847,0.38363 -1.84899,0.319343 -0.0232,-0.02315 0.37137,-0.239478 0.8767,-0.480724 0.50534,-0.241254 1.07836,-0.532015 1.27338,-0.64614 l 0.35458,-0.207505 -0.23886,-0.489002 c -0.1314,-0.268952 -0.35536,-0.890582 -0.49774,-1.381403 l -0.25887,-0.892401 -0.0835,-3.229642 c -0.089,-3.442297 -0.13207,-3.791217 -0.59851,-4.844463 -0.64528,-1.457078 -1.93736,-2.799292 -3.30794,-3.436305 -0.52711,-0.244994 -0.53016,-0.398198 -0.007,-0.363394 1.18694,0.079 2.87618,1.546599 3.69291,3.208369 0.61565,1.252633 0.8206,2.561191 0.94125,6.00948 0.0274,0.782975 0.0808,1.423592 0.11866,1.423592 0.10121,0 0.41538,-1.412178 0.47533,-2.136468 0.10677,-1.290276 -0.25194,-3.334189 -0.82803,-4.718031 -1.00728,-2.419597 -2.81345,-4.015286 -4.8106,-4.250013 l -0.44804,-0.05266 v 0.256051 c 0,0.502889 -0.0973,0.787242 -0.26945,0.787242 -0.1402,0 -0.15541,-0.04154 -0.10793,-0.294671 0.062,-0.330511 -0.17672,-0.924969 -0.48265,-1.201826 l -0.17581,-0.159103 0.0614,0.785305 c 0.0683,0.872445 0.0148,0.955124 -0.33164,0.51251 -0.21082,-0.269378 -0.21572,-0.270788 -0.39035,-0.112757 -0.0973,0.08803 -0.22666,0.335084 -0.28755,0.549014 -0.0896,0.314694 -0.17069,0.418859 -0.42482,0.545469 -0.43142,0.214933 -0.72193,0.626636 -0.84026,1.190752 -0.0853,0.406459 -0.077,0.56257 0.0574,1.080562 0.12776,0.49258 0.1467,0.774298 0.10158,1.511056 -0.0709,1.157767 -0.17218,1.576796 -0.48338,1.999956 -0.13812,0.187812 -0.25113,0.386078 -0.25113,0.440591 0,0.0545 0.19123,0.277979 0.42496,0.4966 0.47319,0.442614 0.53941,0.645656 0.21058,0.645656 -0.30619,0 -0.95048,-0.61919 -1.07429,-1.03244 -0.0923,-0.308167 -0.0838,-0.347484 0.12184,-0.563079 0.31352,-0.32865 0.38656,-0.57548 0.49309,-1.666623 0.0902,-0.924162 0.0864,-0.979304 -0.0935,-1.331879 -0.15986,-0.31336 -0.1814,-0.462901 -0.1455,-1.010291 0.0232,-0.353374 0.13283,-0.907266 0.2437,-1.230885 0.16622,-0.485152 0.26123,-0.629984 0.54154,-0.825471 0.18698,-0.130401 0.43159,-0.301887 0.5436,-0.381081 l 0.20362,-0.143982 -0.2554,-0.220406 c -0.37229,-0.321282 -0.61884,-0.78635 -0.67694,-1.276933 -0.0449,-0.378905 -0.0324,-0.430809 0.10396,-0.430809 0.31948,0 0.89394,0.362137 1.15821,0.73012 0.14802,0.20612 0.30089,0.374758 0.3397,0.374758 0.0388,0 0.0706,-0.230996 0.0706,-0.513326 0,-0.341883 0.0556,-0.622242 0.16636,-0.839427 0.24182,-0.474009 0.38466,-0.489902 0.59448,-0.06614 0.0971,0.196081 0.29017,0.480808 0.42906,0.632729 0.22631,0.247535 0.30108,0.276219 0.71995,0.276219 h 0.4674 l -0.17466,-0.4462 c -1.95939,-5.005469 -3.62238,-7.973238 -6.36974,-11.36749 -0.97487,-1.20441 -2.73795,-2.834198 -3.90809,-3.612618 -0.4324,-0.287659 -1.55936,-0.806892 -1.75128,-0.806892 -0.12021,0 0.008,0.310062 0.2057,0.497093 0.56869,0.538245 3.45644,4.001331 4.4394,5.323852 2.34364,3.153278 3.00113,4.212669 2.61047,4.206175 -0.0584,-9.35e-4 -0.2579,-0.240005 -0.44328,-0.531191 -0.18537,-0.291178 -0.7308,-1.053271 -1.21207,-1.693539 -0.85819,-1.141696 -1.88313,-2.15248 -2.98402,-2.942807 -0.55847,-0.400935 -1.35858,-0.794713 -1.55178,-0.763734 -0.17428,0.02795 -0.21073,-0.0174 1.84234,2.291992 1.84235,2.072342 4.79501,5.882478 4.79501,6.187501 0,0.221239 -0.20007,0.03421 -0.66855,-0.624978 -0.68557,-0.964643 -2.62219,-3.262491 -3.4102,-4.046291 -0.3525,-0.350621 -0.82853,-0.761762 -1.05784,-0.913649 -0.40611,-0.268995 -0.72776,-0.356306 -0.72776,-0.197552 0,0.140209 1.57756,2.432881 2.44299,3.550396 0.46339,0.598385 1.18908,1.58516 1.61263,2.192842 0.42355,0.607683 0.94641,1.33148 1.16192,1.60843 0.43366,0.5573 0.4426,0.580877 0.2736,0.721137 -0.095,0.07888 -0.18223,0.01005 -0.44436,-0.350799 -1.41553,-1.948571 -2.83675,-3.653193 -3.463,-4.153541 -0.60148,-0.480553 -0.771,-0.281871 -0.31965,0.374656 0.13434,0.195402 0.74088,1.158438 1.34787,2.14008 0.60699,0.981641 1.51059,2.432472 2.008,3.224075 0.86737,1.38034 1.09069,1.838312 0.76438,1.567506 -0.077,-0.06391 -0.59045,-0.670966 -1.14099,-1.349013 -0.64263,-0.791457 -1.1556,-1.336587 -1.43284,-1.522682 -0.23751,-0.159434 -0.45466,-0.267049 -0.48255,-0.239155 -0.1051,0.105082 1.85652,3.606507 2.61132,4.66113 0.32179,0.449608 0.58507,0.86075 0.58507,0.913648 0,0.24032 -0.31002,0.03623 -1.08027,-0.711158 -0.77734,-0.754292 -1.07779,-0.972505 -1.18769,-0.862612 -0.086,0.08603 0.4913,1.458974 0.89875,2.137394 0.58061,0.9667 1.02925,1.797007 1.02925,1.904851 0,0.199363 -0.24304,0.07629 -0.45591,-0.230877 -0.36012,-0.519666 -0.80463,-0.914881 -0.91022,-0.809288 -0.0646,0.06458 0.0557,0.383435 0.41511,1.100458 0.65457,1.305812 0.79582,1.646956 0.68189,1.646956 -0.0498,0 -0.22948,-0.144595 -0.39937,-0.321316 -0.16989,-0.176721 -0.39781,-0.395597 -0.5065,-0.486392 l -0.1976,-0.165069 0.0602,0.239996 c 0.0331,0.131999 0.19069,0.456051 0.35012,0.720108 0.30281,0.501521 1.38719,2.599471 1.38719,2.683799 0,0.169446 -0.27981,-0.01775 -0.62612,-0.418876 -0.36421,-0.421868 -0.64874,-0.593481 -0.64874,-0.39128 0,0.04189 0.18559,0.473627 0.41244,0.959416 0.27357,0.585857 0.49042,0.934353 0.64406,1.035016 0.23475,0.153807 1.25916,0.564108 1.40844,0.564108 0.0447,0 0.16407,-0.162545 0.26522,-0.36121 0.10114,-0.198666 0.36244,-0.628931 0.58065,-0.956144 0.21821,-0.327214 0.47778,-0.728795 0.57683,-0.892401 l 0.18008,-0.297467 -0.61027,0.0263 c -0.7045,0.03037 -0.96689,-0.08847 -0.86993,-0.393991 0.0495,-0.155855 0.12242,-0.184752 0.4664,-0.184752 0.68345,0 0.80402,-0.159128 0.92786,-1.224519 0.0574,-0.493608 0.1577,-1.048733 0.22293,-1.233613 0.0893,-0.252974 0.0937,-0.344662 0.018,-0.370601 -0.0704,-0.0241 -0.044,-0.152244 0.0875,-0.426058 0.16226,-0.337753 0.2382,-0.404521 0.55244,-0.485747 0.20037,-0.05178 0.43091,-0.113471 0.51231,-0.137081 0.0814,-0.02361 0.32266,-0.269938 0.53615,-0.547382 0.34091,-0.44303 0.42378,-0.504453 0.68066,-0.504453 0.16088,0 0.29251,0.03512 0.29251,0.07804 0,0.190225 -0.1234,0.365722 -0.30597,0.435134 -0.11622,0.0442 -0.29055,0.260556 -0.42273,0.524681 -0.25452,0.508567 -0.52212,0.831939 -0.68846,0.831939 -0.062,0 -0.11267,0.06392 -0.11267,0.142053 0,0.07813 -0.17471,0.309459 -0.38825,0.514057 l -0.38823,0.372004 -0.0387,0.782049 c -0.0444,0.896566 0.0226,0.827214 0.33695,-0.348674 0.10376,-0.388169 0.22513,-0.713258 0.26972,-0.722419 0.1614,-0.03315 0.13598,1.037998 -0.0399,1.678886 -0.24461,0.891611 -0.51163,1.453892 -1.22649,2.582601 -0.74676,1.1791 -1.77514,3.201051 -1.95594,3.845721 -0.071,0.253102 -0.15134,0.747034 -0.17856,1.09762 l -0.0495,0.637429 0.91579,0.783503 c 1.08493,0.928216 2.03239,1.867804 1.95823,1.941958 -0.18641,0.186418 -1.05686,-0.30102 -2.33902,-1.309824 -0.83601,-0.657759 -2.46562,-1.785941 -2.89794,-2.006245 -0.23835,-0.12146 -0.32579,-0.128285 -0.53467,-0.04176 -0.50538,0.209332 -0.66772,0.403637 -0.66772,0.799166 0,0.968952 -0.54605,2.785209 -1.2911,4.294431 -0.41476,0.840148 -0.43181,1.103431 -0.10734,1.657098 0.25451,0.434283 0.25928,0.31535 -0.0615,1.534226 -0.0823,0.312586 -0.0656,0.39257 0.18581,0.892402 0.30647,0.609286 0.40795,0.71085 0.5732,0.573697 0.1574,-0.130632 0.70093,-1.118923 0.70093,-1.274497 0,-0.07074 -0.11877,-0.358906 -0.26392,-0.640359 -0.29569,-0.573321 -0.28589,-0.691511 0.0973,-1.173689 0.13839,-0.174136 0.25124,-0.35916 0.25079,-0.411163 -8.5e-4,-0.052 -0.0998,-0.304904 -0.22072,-0.562 -0.29975,-0.637218 -0.29397,-1.085472 0.0241,-1.872147 0.14229,-0.351878 0.36259,-1.002056 0.48957,-1.44484 0.25044,-0.873372 0.55557,-1.272505 0.97281,-1.272505 0.48041,0 1.1859,1.017559 2.40124,3.463366 l 0.68628,1.381097 h 0.29187 c 0.16053,0 0.45289,0.08188 0.6497,0.181944 1.03272,0.52511 2.83403,1.971781 3.62996,2.915289 0.55359,0.656241 1.30648,1.291075 1.8676,1.574751 0.59547,0.30104 1.45539,0.427446 2.90865,0.427561 2.05155,1.7e-4 3.21177,0.308635 4.14776,1.10278 0.34726,0.294638 0.25426,0.321198 -0.3251,0.09284 -0.66668,-0.262783 -1.64542,-0.430813 -2.50941,-0.430813 -0.6823,0 -0.81033,0.02197 -0.85842,0.147281 -0.0964,0.251238 0.31311,1.116369 0.80325,1.696913 1.03537,1.226343 1.13348,1.446815 0.92286,2.073938 -0.18904,0.562885 -0.50171,0.766866 -1.89497,1.236233 -1.04576,0.352298 -2.011,0.540004 -2.77687,0.540004 -0.61643,0 -0.9255,0.160518 -0.9255,0.480674 0,0.155668 -0.29154,0.564278 -0.79073,1.108233 -0.44186,0.481499 -0.4064,0.676128 0.18055,0.990662 0.28703,0.153817 0.63449,0.258857 0.95131,0.287585 0.46556,0.04222 0.51562,0.02875 0.74463,-0.200258 0.19888,-0.198874 0.25605,-0.346252 0.30095,-0.775763 0.0305,-0.291636 0.11144,-0.66434 0.17992,-0.828232 l 0.1245,-0.297986 h 0.59442 c 0.43672,0 0.66898,-0.04399 0.87549,-0.165814 0.71201,-0.420035 2.23949,-0.84384 3.55321,-0.985857 0.5578,-0.0603 0.84991,-0.2137 0.84991,-0.446321 0,-0.06974 -0.13775,-0.294913 -0.30611,-0.500376 -1.00315,-1.224212 -0.41015,-3.096799 1.09533,-3.458842 l 0.23679,-0.05694 -0.3509,-0.674477 c -0.2803,-0.538776 -0.53074,-0.850366 -1.24473,-1.548691 -1.06388,-1.040534 -1.55514,-1.632536 -1.55514,-1.874051 v -0.177165 l 0.19122,0.176933 c 0.10518,0.09731 0.49294,0.375797 0.86169,0.618852 0.81755,0.538873 1.69374,1.424799 2.11825,2.141783 0.17395,0.293799 0.45564,0.897515 0.62598,1.341591 0.17034,0.444076 0.53118,1.252494 0.80186,1.796486 0.4579,0.920245 0.54612,1.038535 1.26772,1.699812 0.47501,0.435302 0.85539,0.86609 0.98153,1.111616 0.42683,0.830761 0.20871,2.07508 -0.76925,4.388464 -0.41277,0.976396 -0.58171,1.207165 -1.38475,1.891503 -0.37853,0.322574 -0.4544,0.590123 -0.26675,0.940741 0.0863,0.161261 0.156,0.171405 0.97056,0.141252 0.70975,-0.02627 0.91139,-0.06309 1.05439,-0.192497 z M 112.51245,67.46133 c -0.19075,-0.04986 -0.20053,-0.509569 -0.0164,-0.772411 0.17637,-0.251802 0.67171,-0.263471 0.8026,-0.01891 0.0617,0.115248 0.0626,0.169982 0.003,0.169982 -0.0484,0 -0.088,0.05737 -0.088,0.127485 0,0.07042 -0.0754,0.127486 -0.16836,0.127486 -0.10871,0 -0.18726,0.07529 -0.2217,0.212477 -0.0293,0.116862 -0.0779,0.20804 -0.10785,0.202617 -0.03,-0.0054 -0.12146,-0.02735 -0.20326,-0.04872 z m 0.29919,-4.52455 c 0.0313,-0.119743 0.009,-0.150484 -0.0849,-0.114627 -0.10103,0.03876 -0.11451,0.0064 -0.0646,-0.15509 0.16699,-0.540388 0.28873,-0.671536 0.62332,-0.671536 0.42881,0 0.73716,0.320176 0.59944,0.622428 -0.1198,0.262952 -0.50336,0.482449 -0.84304,0.482449 -0.22764,0 -0.26591,-0.0272 -0.23023,-0.163624 z m 23.06785,17.600273 c 0.35806,-0.182669 0.72756,-0.672952 1.03567,-1.374206 0.10275,-0.233864 0.22053,-0.842491 0.3041,-1.571549 0.18246,-1.591704 0.27661,-2.15984 0.42992,-2.594388 0.0707,-0.200366 0.11056,-0.38228 0.0886,-0.40425 -0.022,-0.02197 -0.2015,0.213471 -0.39897,0.523202 -0.19746,0.309731 -0.40578,0.563148 -0.46293,0.563148 -0.0599,0 -0.12803,-0.175438 -0.16083,-0.413887 -0.15334,-1.114907 0.55211,-2.513282 1.52343,-3.019818 0.81562,-0.425343 1.41169,-1.154393 0.83354,-1.019504 -0.47061,0.109808 -0.91654,0.428947 -1.35339,0.968595 -0.24596,0.303841 -0.49132,0.657615 -0.54523,0.786163 -0.15349,0.365944 -0.22569,0.279959 -0.28544,-0.339962 -0.0764,-0.792886 0.11842,-1.826618 0.46789,-2.482269 0.28726,-0.538968 0.53439,-0.785101 1.41388,-1.40815 0.48975,-0.346957 1.55674,-1.597729 1.45216,-1.702293 -0.0981,-0.09812 -0.47372,0.13958 -0.83115,0.525998 l -0.38246,0.413479 -0.0269,-0.509943 c -0.0367,-0.696387 0.0412,-1.147823 0.2794,-1.61834 l 0.20132,-0.397679 -0.22926,0.21965 c -0.1261,0.120805 -0.34294,0.4107 -0.48189,0.644203 -0.24444,0.410827 -0.43414,0.574485 -0.54099,0.466725 -0.0716,-0.07222 -0.0567,-1.441975 0.0207,-1.905641 l 0.0637,-0.381328 -0.35846,0.508813 c -0.37294,0.529381 -0.75426,1.548971 -0.75569,2.020635 -10e-4,0.472998 -0.60791,1.548264 -1.49616,2.652717 -0.15038,0.186979 -0.43261,0.665051 -0.62718,1.062382 -0.34014,0.694586 -0.35179,0.745198 -0.30244,1.313683 0.0671,0.772649 0.22645,1.37015 0.64126,2.404069 0.52762,1.315093 0.64393,1.945783 0.52828,2.864301 -0.11859,0.941789 -0.42129,1.590562 -1.18143,2.532088 -0.30079,0.372565 -0.53491,0.686909 -0.52028,0.698544 0.33531,0.266602 1.10837,0.254853 1.6573,-0.02519 z m -29.44924,-2.584545 c 0.0733,-0.05843 0.20278,-0.293626 0.28761,-0.52265 l 0.15427,-0.416402 -0.31912,-0.267916 c -0.39941,-0.335322 -0.5492,-0.853433 -0.35521,-1.228573 0.0689,-0.133274 0.18646,-0.265783 0.2612,-0.294458 0.12352,-0.0474 0.1238,-0.06943 0.003,-0.241688 -0.073,-0.10425 -0.13275,-0.256068 -0.13275,-0.337387 0,-0.303646 2.20504,-2.781011 2.63314,-2.958335 0.38288,-0.158593 0.71242,0.08552 1.39597,1.034114 l 0.58699,0.814601 0.2259,-0.652388 c 0.12424,-0.358813 0.34262,-0.86789 0.48528,-1.131276 l 0.25938,-0.478896 -0.94062,-0.452073 c -0.51734,-0.248649 -1.15284,-0.606961 -1.41224,-0.796243 -0.25938,-0.189291 -0.51655,-0.371443 -0.57148,-0.404785 -0.19795,-0.12016 -0.55132,0.144306 -0.76775,0.574604 -0.26142,0.519726 -0.87814,1.383299 -1.6419,2.299106 -0.31186,0.373959 -0.83659,1.05741 -1.16605,1.518773 l -0.59901,0.838857 0.15939,0.351011 c 0.20191,0.444646 0.20122,0.53743 -0.007,0.925658 -0.2339,0.436418 -0.21599,0.617023 0.13107,1.321502 l 0.30104,0.611082 h 0.44763 c 0.24619,0 0.50763,-0.04781 0.58098,-0.106238 z m 0.87686,-2.572002 c 0,-0.920745 -0.0313,-0.874859 0.94318,-1.365663 0.55167,-0.277851 0.63202,-0.296217 0.93489,-0.213683 0.18225,0.04966 0.62776,0.280826 0.99003,0.513709 0.56074,0.360462 0.65868,0.399047 0.65868,0.259552 0,-0.221426 -1.25858,-1.876787 -1.54952,-2.038014 -0.23092,-0.127979 -0.2358,-0.125064 -0.92347,0.550824 -0.99348,0.97649 -1.46366,1.62768 -1.4011,1.940479 0.0338,0.168876 -0.0105,0.352558 -0.14112,0.58488 l -0.19035,0.338679 0.25249,0.201325 c 0.17199,0.13715 0.28014,0.173619 0.33923,0.114398 0.0477,-0.04782 0.0869,-0.446728 0.0871,-0.886486 z m 5.23009,-16.808765 -0.37063,-0.358295 0.3323,0.395614 c 0.18276,0.217593 0.34954,0.37882 0.37063,0.358295 0.0211,-0.02053 -0.12846,-0.198555 -0.3323,-0.395614 z"
     id="path1332"
     sodipodi:nodetypes="ssssssssssssssssssssscssssssssssssssscsssssssssssssscccssssssscsssscsscscsscssscssccscssssssssssssscsscssssssssssssssssssssssssscssssscsssssssssssssssssssssssssssssssscsssssssssssssssssssssssscscssssscssssssssccssssssscsssssssssscsssssssssssssssssssscsssssssssssssssssssssssssssssssssssssssssssssssssssssssssssscsssssssscssssssccscsssssssssscsssscsssssssssssssssssssscsssssssssscsssscccscssssssssssssssssssssssssssssssssscssssssssssscssssssssssssssssccssssssscssssssssssssssccsssscsssssssssssssssssssscsssssscssscsssssssssssscsssssscscsscssssssssssssssssssssscsscsssscsssssssscscccssssssscsccsssssscscscscccssssscssccscscsssccssccscsss" />
</svg>
