<?xml version="1.0" encoding="UTF-8" standalone="no"?>
<svg
   width="192"
   height="192"
   version="1"
   id="svg16"
   sodipodi:docname="apps_smt_file_manager.svg"
   inkscape:version="1.1.1 (1:1.1+202109281949+c3084ef5ed)"
   xmlns:inkscape="http://www.inkscape.org/namespaces/inkscape"
   xmlns:sodipodi="http://sodipodi.sourceforge.net/DTD/sodipodi-0.dtd"
   xmlns="http://www.w3.org/2000/svg"
   xmlns:svg="http://www.w3.org/2000/svg"
   xmlns:rdf="http://www.w3.org/1999/02/22-rdf-syntax-ns#"
   xmlns:cc="http://creativecommons.org/ns#"
   xmlns:dc="http://purl.org/dc/elements/1.1/">
  <metadata
     id="metadata22">
    <rdf:RDF>
      <cc:Work
         rdf:about="">
        <dc:format>image/svg+xml</dc:format>
        <dc:type
           rdf:resource="http://purl.org/dc/dcmitype/StillImage" />
      </cc:Work>
    </rdf:RDF>
  </metadata>
  <defs
     id="defs20">
    <filter
       inkscape:collect="always"
       style="color-interpolation-filters:sRGB"
       id="filter879"
       x="-0.039600002"
       width="1.0792"
       y="-0.060923079"
       height="1.1218462">
      <feGaussianBlur
         inkscape:collect="always"
         stdDeviation="2.64"
         id="feGaussianBlur881" />
    </filter>
    <filter
       inkscape:collect="always"
       style="color-interpolation-filters:sRGB"
       id="filter887"
       x="-0.019800001"
       width="1.0396"
       y="-0.03046154"
       height="1.0609231">
      <feGaussianBlur
         inkscape:collect="always"
         stdDeviation="1.32"
         id="feGaussianBlur889" />
    </filter>
  </defs>
  <sodipodi:namedview
     pagecolor="#ffffff"
     bordercolor="#666666"
     borderopacity="1"
     objecttolerance="10"
     gridtolerance="10"
     guidetolerance="10"
     inkscape:pageopacity="0"
     inkscape:pageshadow="2"
     inkscape:window-width="1920"
     inkscape:window-height="1019"
     id="namedview18"
     showgrid="false"
     inkscape:zoom="1"
     inkscape:cx="103"
     inkscape:cy="73.5"
     inkscape:window-x="0"
     inkscape:window-y="34"
     inkscape:window-maximized="1"
     inkscape:current-layer="svg16"
     inkscape:pagecheckerboard="0"
     inkscape:snap-bbox="true"
     inkscape:snap-bbox-midpoints="true"
     inkscape:snap-global="true">
    <inkscape:grid
       type="xygrid"
       id="grid900" />
  </sodipodi:namedview>
  <rect
     style="opacity:0.2;stroke-width:4;filter:url(#filter879)"
     width="160"
     height="104"
     x="16"
     y="68"
     rx="8"
     ry="8"
     id="rect2" />
  <path
     style="fill:#f55a01;fill-opacity:1;stroke-width:4"
     d="m 16,136 c 0,4.432 3.568,8 8,8 h 144 c 4.432,0 8,-3.568 8,-8 V 48 c 0,-4.432 -3.568,-8 -8,-8 H 96 C 84,40 80,24 68,24 H 24 c -4.432,0 -8,3.568 -8,8"
     id="path4"
     inkscape:connector-curvature="0" />
  <rect
     style="opacity:0.2;stroke-width:4;filter:url(#filter887)"
     width="160"
     height="104"
     x="16"
     y="62"
     rx="8"
     ry="8"
     id="rect6" />
  <rect
     style="fill:#ffffff;stroke-width:4"
     width="144"
     height="64"
     x="24"
     y="52"
     rx="8"
     ry="8"
     id="rect8" />
  <rect
     style="fill:#f59101;fill-opacity:1;stroke-width:4"
     width="160"
     height="104"
     x="16"
     y="64"
     rx="8"
     ry="8"
     id="rect10" />
  <path
     style="opacity:0.1;fill:#ffffff;stroke-width:4"
     d="m 24,24 c -4.432,0 -8,3.568 -8,8 v 1 c 0,-4.432 3.568,-8 8,-8 h 44 c 12,0 16,16 28,16 h 72 c 4.432,0 8,3.568 8,8 v -1 c 0,-4.432 -3.568,-8 -8,-8 H 96 C 84,40 80,24 68,24 Z"
     id="path12" />
</svg>
