<?xml version="1.0" encoding="UTF-8" standalone="no"?>
<svg
   width="192"
   height="192"
   version="1"
   id="svg16"
   sodipodi:docname="apps_davx_5.svg"
   inkscape:version="1.1.1 (1:1.1+202109281949+c3084ef5ed)"
   xmlns:inkscape="http://www.inkscape.org/namespaces/inkscape"
   xmlns:sodipodi="http://sodipodi.sourceforge.net/DTD/sodipodi-0.dtd"
   xmlns="http://www.w3.org/2000/svg"
   xmlns:svg="http://www.w3.org/2000/svg"
   xmlns:rdf="http://www.w3.org/1999/02/22-rdf-syntax-ns#"
   xmlns:cc="http://creativecommons.org/ns#"
   xmlns:dc="http://purl.org/dc/elements/1.1/">
  <metadata
     id="metadata22">
    <rdf:RDF>
      <cc:Work
         rdf:about="">
        <dc:format>image/svg+xml</dc:format>
        <dc:type
           rdf:resource="http://purl.org/dc/dcmitype/StillImage" />
      </cc:Work>
    </rdf:RDF>
  </metadata>
  <defs
     id="defs20">
    <filter
       inkscape:collect="always"
       style="color-interpolation-filters:sRGB"
       id="filter867"
       x="-0.048000001"
       width="1.096"
       y="-0.048000001"
       height="1.096">
      <feGaussianBlur
         inkscape:collect="always"
         stdDeviation="3.2"
         id="feGaussianBlur869" />
    </filter>
    <filter
       inkscape:collect="always"
       style="color-interpolation-filters:sRGB"
       id="filter35126"
       x="-0.080516629"
       y="-0.077463186"
       width="1.1610333"
       height="1.1549264">
      <feGaussianBlur
         inkscape:collect="always"
         stdDeviation="3.0985274"
         id="feGaussianBlur35128" />
    </filter>
  </defs>
  <sodipodi:namedview
     pagecolor="#ffffff"
     bordercolor="#666666"
     borderopacity="1"
     objecttolerance="10"
     gridtolerance="10"
     guidetolerance="10"
     inkscape:pageopacity="0"
     inkscape:pageshadow="2"
     inkscape:window-width="1920"
     inkscape:window-height="1022"
     id="namedview18"
     showgrid="false"
     inkscape:zoom="2.02"
     inkscape:cx="104.9505"
     inkscape:cy="101.9802"
     inkscape:window-x="0"
     inkscape:window-y="34"
     inkscape:window-maximized="1"
     inkscape:current-layer="svg16"
     inkscape:pagecheckerboard="0"
     inkscape:snap-bbox="true"
     inkscape:snap-bbox-midpoints="true">
    <inkscape:grid
       type="xygrid"
       id="grid7495" />
  </sodipodi:namedview>
  <rect
     id="rect849"
     ry="80"
     rx="80"
     height="160"
     width="160"
     y="-176"
     x="-180"
     transform="matrix(0,-1,-1,0,0,0)"
     style="opacity:0.2;fill:#000000;stroke-width:4;filter:url(#filter867)" />
  <rect
     style="fill:#7cc134;fill-opacity:1;stroke-width:4"
     transform="matrix(0,-1,-1,0,0,0)"
     x="-176"
     y="-176"
     width="160"
     height="160"
     rx="80"
     ry="80"
     id="rect2" />
  <path
     id="path35083"
     style="opacity:0.2;fill:#000000;stroke-width:31.199;stroke-linecap:round;stroke-linejoin:round;filter:url(#filter35126)"
     d="M 96,50 A 48,48 0 0 0 62.638672,63.638672 L 50,51 V 84.513672 A 48,48 0 0 0 49.832031,85 H 50 63.591797 84 L 71.833984,72.833984 A 35,35 0 0 1 96,63 35,35 0 0 1 128.48047,85 h 13.71094 A 48,48 0 0 0 96,50 Z m 9,33 v 7.039062 l 1.39648,0.619141 c 0.25157,-0.06446 0.566,-0.128909 0.94336,-0.193359 0.37735,-0.07735 0.74155,-0.117188 1.09375,-0.117188 1.79874,0 2.69922,0.695626 2.69922,2.087891 0,0.747698 -0.22685,1.303104 -0.67969,1.664062 -0.44025,0.348066 -1.08301,0.521485 -1.92578,0.521485 -0.57861,0 -1.19356,-0.08241 -1.84765,-0.25 C 106.0256,94.190615 105.46541,93.977357 105,93.732422 v 2.513672 c 0.46541,0.244935 1.0067,0.431634 1.62305,0.560547 0.62893,0.12891 1.29559,0.193359 2,0.193359 1.77358,0 3.11191,-0.424562 4.01757,-1.275391 C 113.54629,94.860889 114,93.680943 114,92.185547 c 0,-0.915285 -0.18904,-1.681997 -0.56641,-2.300781 -0.36477,-0.618785 -0.86825,-1.089827 -1.50976,-1.41211 -0.64151,-0.322283 -1.36989,-0.484375 -2.1875,-0.484375 -0.44025,0 -0.78749,0.02656 -1.03906,0.07813 -0.23899,0.03867 -0.4639,0.07657 -0.67774,0.115235 L 108,85 h 5 v -2 z m -55,8 v 14 h 3.753906 c 2.291667,0 4.068517,-0.59561 5.332032,-1.78516 C 60.361838,102.01223 61,100.22929 61,97.863281 c 0,-1.503267 -0.285649,-2.759089 -0.855469,-3.765625 -0.557432,-1.019608 -1.3488,-1.789624 -2.376953,-2.3125 C 56.751812,91.262281 55.549497,91 54.162109,91 Z M 65.382812,91 61,105 h 2.833984 l 0.904297,-3 h 4.523438 l 0.904297,3 H 73 L 68.599609,91 Z M 73,91 l 4.466797,14 h 3.046875 L 85,91 h -2.824219 l -2.492187,8.333984 c -0.03692,0.143791 -0.104665,0.410578 -0.203125,0.802736 -0.09846,0.37908 -0.19646,0.78542 -0.294922,1.2168 -0.08616,0.4183 -0.148627,0.77101 -0.185547,1.05859 -0.03692,-0.28758 -0.104663,-0.64029 -0.203125,-1.05859 -0.09846,-0.43138 -0.196461,-0.83772 -0.294922,-1.2168 -0.08615,-0.392158 -0.153892,-0.658945 -0.203125,-0.802736 L 75.824219,91 Z m -20,2 h 1.425781 c 1.161972,0 2.047875,0.402211 2.658203,1.205078 C 57.694313,94.993609 58,96.239218 58,97.945312 58,101.31449 56.714953,103 54.144531,103 H 53 Z m 14,0.167969 c 0.05797,0.260344 0.133814,0.566504 0.226562,0.917969 0.09275,0.351465 0.184594,0.694756 0.277344,1.033203 0.09276,0.338447 0.168593,0.618551 0.226563,0.839843 L 68.634766,99 h -3.234375 l 0.886718,-3.041016 c 0.04638,-0.143189 0.110247,-0.384209 0.191407,-0.722656 0.09275,-0.351465 0.184593,-0.714298 0.277343,-1.091797 C 66.860206,93.754015 66.94203,93.428313 67,93.167969 Z M 86.759766,94 92.085938,102.23828 86.400391,111 h 4.486328 L 94.867188,104.57227 98.849609,111 h 4.750001 L 97.818359,102.42773 103.19141,94 H 98.681641 L 95.060547,100.11914 91.365234,94 Z m -36.927735,17 a 48,48 0 0 0 46.191407,35 48,48 0 0 0 33.361332,-13.63867 L 142.02344,145 V 111.48633 A 48,48 0 0 0 142.19141,111 h -0.16797 -13.5918 -20.4082 l 12.16601,12.16602 A 35,35 0 0 1 96.023438,133 35,35 0 0 1 63.542969,111 Z" />
  <path
     style="opacity:0.2;fill:#ffffff;stroke-width:4"
     d="M 96 16 C 51.68 16 16 51.68 16 96 C 16 96.336 16.002 96.6675 16 97 C 16 52.68 51.68 17 96 17 C 140.32 17 176 52.68 176 97 C 175.998 96.6675 176 96.336 176 96 C 176 51.68 140.32 16 96 16 z "
     id="path4" />
  <path
     id="path1780"
     style="opacity:1;fill:#ffffff;stroke-width:31.199;stroke-linecap:round;stroke-linejoin:round"
     d="M 96.023441,144 A 48,48 0 0 0 129.38477,130.36133 L 142.02344,143 V 109.48633 A 48,48 0 0 0 142.19141,109 h -0.16797 -13.5918 -20.4082 l 12.16602,12.16602 A 35,35 0 0 1 96.023441,131 35,35 0 0 1 63.542971,109 h -13.71094 a 48,48 0 0 0 46.19141,35 z" />
  <path
     id="path949"
     style="opacity:1;fill:#ffffff;stroke-width:31.199;stroke-linecap:round;stroke-linejoin:round"
     d="M 96 48 A 48 48 0 0 0 62.638672 61.638672 L 50 49 L 50 82.513672 A 48 48 0 0 0 49.832031 83 L 50 83 L 63.591797 83 L 84 83 L 71.833984 70.833984 A 35 35 0 0 1 96 61 A 35 35 0 0 1 128.48047 83 L 142.19141 83 A 48 48 0 0 0 96 48 z " />
  <path
     id="path31694"
     style="font-weight:bold;font-size:18.9543px;line-height:1.25;-inkscape-font-specification:'sans-serif Bold';fill:#14793a;fill-opacity:1;stroke-width:0.47719"
     d="m 105,81 v 7.039062 l 1.39648,0.619141 c 0.25157,-0.06446 0.566,-0.128909 0.94336,-0.193359 0.37735,-0.07735 0.74155,-0.117188 1.09375,-0.117188 1.79874,0 2.69922,0.695626 2.69922,2.087891 0,0.747698 -0.22685,1.303104 -0.67969,1.664062 -0.44025,0.348066 -1.08301,0.521485 -1.92578,0.521485 -0.57861,0 -1.19356,-0.08241 -1.84765,-0.25 C 106.0256,92.190615 105.46541,91.977357 105,91.732422 v 2.513672 c 0.46541,0.244935 1.0067,0.431634 1.62305,0.560547 0.62893,0.12891 1.29559,0.193359 2,0.193359 1.77358,0 3.11191,-0.424562 4.01757,-1.275391 C 113.54629,92.860889 114,91.680943 114,90.185547 c 0,-0.915285 -0.18904,-1.681997 -0.56641,-2.300781 -0.36477,-0.618785 -0.86825,-1.089827 -1.50976,-1.41211 -0.64151,-0.322283 -1.36989,-0.484375 -2.1875,-0.484375 -0.44025,0 -0.78749,0.02656 -1.03906,0.07813 -0.23899,0.03867 -0.4639,0.07657 -0.67774,0.115235 L 108,83 h 5 v -2 z m -55,8 v 14 h 3.753906 c 2.291667,0 4.068517,-0.59561 5.332032,-1.78516 C 60.361838,100.01223 61,98.229295 61,95.863281 c 0,-1.503267 -0.285649,-2.759089 -0.855469,-3.765625 -0.557432,-1.019608 -1.3488,-1.789624 -2.376953,-2.3125 C 56.751812,89.262281 55.549497,89 54.162109,89 Z M 65.382812,89 61,103 h 2.833984 l 0.904297,-3 h 4.523438 l 0.904297,3 H 73 L 68.599609,89 Z M 73,89 l 4.466797,14 h 3.046875 L 85,89 h -2.824219 l -2.492187,8.333984 c -0.03692,0.143791 -0.104665,0.410578 -0.203125,0.802735 -0.09846,0.379085 -0.19646,0.785424 -0.294922,1.216797 -0.08616,0.4183 -0.148627,0.771014 -0.185547,1.058594 -0.03692,-0.28758 -0.104663,-0.640294 -0.203125,-1.058594 -0.09846,-0.431373 -0.196461,-0.837712 -0.294922,-1.216797 -0.08615,-0.392157 -0.153892,-0.658944 -0.203125,-0.802735 L 75.824219,89 Z m -20,2 h 1.425781 c 1.161972,0 2.047875,0.402211 2.658203,1.205078 C 57.694313,92.993609 58,94.239218 58,95.945312 58,99.314487 56.714953,101 54.144531,101 H 53 Z m 14,0.167969 c 0.05797,0.260344 0.133813,0.566504 0.226562,0.917969 0.09275,0.351465 0.184594,0.694756 0.277344,1.033203 0.09276,0.338447 0.168593,0.618551 0.226563,0.839843 L 68.634766,97 h -3.234375 l 0.886718,-3.041016 c 0.04638,-0.143189 0.110247,-0.384209 0.191407,-0.722656 0.09275,-0.351465 0.184593,-0.714298 0.277343,-1.091797 C 66.860206,91.754015 66.94203,91.428313 67,91.167969 Z M 86.759766,92 92.085938,100.23828 86.400391,109 h 4.486328 L 94.867188,102.57227 98.849609,109 h 4.750001 L 97.818359,100.42773 103.19141,92 H 98.681641 L 95.060547,98.119141 91.365234,92 Z"
     sodipodi:nodetypes="ccccsscsccccscscssccccccccscsccscccccccccccccccccccccccccscsscccsscccccccccccccccccccc" />
</svg>
