<?xml version="1.0" encoding="UTF-8" standalone="no"?>
<svg
   width="192"
   height="192"
   version="1.1"
   id="svg20"
   sodipodi:docname="apps_clue.svg"
   inkscape:version="1.1-rc (1:1.1+rc+202105232036+f4db50c7c1)"
   xmlns:inkscape="http://www.inkscape.org/namespaces/inkscape"
   xmlns:sodipodi="http://sodipodi.sourceforge.net/DTD/sodipodi-0.dtd"
   xmlns="http://www.w3.org/2000/svg"
   xmlns:svg="http://www.w3.org/2000/svg"
   xmlns:rdf="http://www.w3.org/1999/02/22-rdf-syntax-ns#"
   xmlns:cc="http://creativecommons.org/ns#"
   xmlns:dc="http://purl.org/dc/elements/1.1/">
  <metadata
     id="metadata26">
    <rdf:RDF>
      <cc:Work
         rdf:about="">
        <dc:format>image/svg+xml</dc:format>
        <dc:type
           rdf:resource="http://purl.org/dc/dcmitype/StillImage" />
      </cc:Work>
    </rdf:RDF>
  </metadata>
  <defs
     id="defs24">
    <filter
       inkscape:collect="always"
       style="color-interpolation-filters:sRGB"
       id="filter857"
       x="-0.048000001"
       width="1.096"
       y="-0.048000001"
       height="1.096">
      <feGaussianBlur
         inkscape:collect="always"
         stdDeviation="3.2"
         id="feGaussianBlur859" />
    </filter>
    <filter
       inkscape:collect="always"
       style="color-interpolation-filters:sRGB"
       id="filter1037"
       x="-0.049675292"
       y="-0.046434023"
       width="1.0993506"
       height="1.092868">
      <feGaussianBlur
         inkscape:collect="always"
         stdDeviation="2.244311"
         id="feGaussianBlur1039" />
    </filter>
  </defs>
  <sodipodi:namedview
     pagecolor="#ffffff"
     bordercolor="#666666"
     borderopacity="1"
     objecttolerance="10"
     gridtolerance="10"
     guidetolerance="10"
     inkscape:pageopacity="0"
     inkscape:pageshadow="2"
     inkscape:window-width="1920"
     inkscape:window-height="1014"
     id="namedview22"
     showgrid="false"
     inkscape:zoom="1"
     inkscape:cx="92.5"
     inkscape:cy="116"
     inkscape:window-x="0"
     inkscape:window-y="34"
     inkscape:window-maximized="1"
     inkscape:current-layer="svg20"
     inkscape:document-rotation="0"
     inkscape:snap-bbox="false"
     inkscape:snap-bbox-midpoints="true"
     inkscape:pagecheckerboard="0">
    <inkscape:grid
       type="xygrid"
       id="grid849" />
  </sodipodi:namedview>
  <circle
     id="circle2"
     r="80"
     cy="100"
     cx="96"
     style="opacity:0.2;stroke-width:4;filter:url(#filter857)" />
  <circle
     id="circle4"
     r="80"
     cy="96"
     cx="96"
     style="fill:#e4e4e4;fill-opacity:1;stroke-width:4" />
  <path
     inkscape:connector-curvature="0"
     style="opacity:0.2;fill:#ffffff;stroke-width:4"
     d="M 96,16 A 80,80 0 0 0 16,96 80,80 0 0 0 16.019531,96.472656 80,80 0 0 1 96,17 80,80 0 0 1 175.97461,96.513672 80,80 0 0 0 176,96 80,80 0 0 0 96,16 Z"
     id="path8" />
  <path
     d="m 143.17286,125.24134 c 3.50885,-6.05069 4.45259,-13.25301 2.62066,-20.00304 -0.34015,-1.27066 -0.7734,-2.51434 -1.29552,-3.72098 -2.45244,3.38665 -5.59311,6.21785 -9.21569,8.30687 -3.71411,2.14879 -7.84876,3.46759 -12.12096,3.86646 1.73829,3.78499 2.71641,7.99264 2.71641,12.42407 0,4.31505 -0.92575,8.41426 -2.5794,12.12096 8.30529,-0.94955 15.67372,-5.76715 19.8745,-12.99434 M 120.15029,80.4367 c 1.46109,-3.32582 2.21492,-6.91931 2.21333,-10.55195 0.003,-4.27802 -1.0416,-8.49149 -3.0428,-12.27278 -8.00376,0.28883 -15.43726,4.21824 -20.183439,10.66833 8.618459,0.90564 16.159339,5.49471 21.012909,12.1564 m 0,28.11525 c 1.46109,-3.32635 2.21492,-6.91931 2.21333,-10.55195 0.002,-3.63264 -0.75224,-7.22613 -2.21333,-10.55195 -3.52049,4.83717 -8.40686,8.5116 -14.03065,10.55195 5.62485,2.03982 10.51227,5.71425 14.03382,10.55195 z m -0.82947,29.8382 c 2.00014,-3.78182 3.04439,-7.99688 3.03962,-12.27543 0.003,-3.63211 -0.75011,-7.2256 -2.21015,-10.55195 -4.97101,6.8442 -12.60976,11.26187 -21.021903,12.15588 4.750413,6.45167 12.186553,10.37949 20.192433,10.66832 z m -23.325165,14.09254 c 8.679815,0 16.392625,-4.2193 21.196995,-10.70906 -4.15687,-0.43484 -8.17515,-1.74094 -11.79245,-3.83472 -3.7178,-2.14297 -6.926184,-5.06622 -9.404545,-8.56926 -2.478891,3.50304 -5.6878,6.42629 -9.404548,8.56926 -3.617297,2.09325 -7.635575,3.39988 -11.792451,3.83472 4.964658,6.73257 12.831405,10.70747 21.196999,10.70906 M 69.630863,126.11472 c 0,4.42878 1.106137,8.60417 3.042274,12.27225 4.278017,-0.15764 8.45235,-1.35688 12.162221,-3.49351 3.140139,-1.81129 5.870833,-4.25421 8.01857,-7.17481 -8.407913,-0.89666 -16.041901,-5.31433 -21.010262,-12.15588 -1.461095,3.32635 -2.21439,6.91931 -2.212803,10.55195 M 56.711644,86.17581 c 3.713046,-2.14879 7.847175,-3.46812 12.118314,-3.86698 -1.791191,-3.89661 -2.71694,-8.13495 -2.713766,-12.42408 0,-4.31187 0.925749,-8.41479 2.576755,-12.12096 -8.304229,0.95061 -15.671601,5.76821 -19.871854,12.99487 -4.182797,7.24835 -4.673179,16.05248 -1.321969,23.72085 2.384728,-3.28984 5.474083,-6.14327 9.21252,-8.3037 m 11.987122,23.95361 C 66.994331,106.3127 66.114076,102.17962 66.116192,98 c 0,-4.31822 0.928923,-8.42061 2.582574,-12.13048 -3.604071,0.40045 -7.086473,1.5415 -10.228728,3.35174 -3.709871,2.13663 -6.838902,5.15139 -9.113598,8.77874 2.275225,3.62682 5.404255,6.64106 9.113598,8.77821 3.142255,1.80971 6.624657,2.95129 10.228728,3.35121 m -0.0058,28.10626 c -1.70179,-3.81408 -2.579929,-7.94398 -2.576755,-12.12096 0,-4.43143 0.975474,-8.63591 2.713766,-12.42407 -4.27114,-0.39887 -8.405268,-1.71819 -12.118314,-3.86646 -3.620999,-2.08902 -6.76008,-4.91916 -9.212521,-8.30423 -3.351209,7.66837 -2.860827,16.47304 1.321969,23.72138 4.200254,7.22666 11.567626,12.04426 19.871855,12.99434 M 71.84631,87.44805 C 70.385744,90.77387 69.63192,94.36736 69.633507,98 c 0,3.75008 0.794557,7.31976 2.212803,10.55195 C 75.3668,103.71478 80.251579,100.04088 85.874841,98 80.251579,95.95912 75.366271,92.28469 71.84631,87.44805 m 0.83,-29.83608 c -2.001732,3.78129 -3.045976,7.99476 -3.042802,12.27278 0,3.75061 0.794557,7.32029 2.212804,10.55195 C 76.816788,73.59251 84.454479,69.17536 92.865566,68.2803 88.11145,61.8355 80.679541,57.90821 72.676311,57.61197 M 90.937893,89.23872 C 89.891003,83.34461 90.630544,77.2717 93.060767,71.80079 85.76481,72.62285 79.14174,76.45016 74.787018,82.3612 c 5.949125,0.63162 11.573445,3.0264 16.150875,6.87752 m 2.125519,34.95997 c -2.429694,-5.47091 -3.169235,-11.5433 -2.122345,-17.43793 -4.577959,3.85111 -10.202278,6.24642 -16.151404,6.87752 4.355779,5.91103 10.977792,9.73781 18.273749,10.56041 m 7.995298,-34.95997 c 4.57795,-3.85006 10.2028,-6.24431 16.15087,-6.87435 -4.35366,-5.91104 -10.97515,-9.7394 -18.270574,-10.56358 2.430224,5.47196 3.168704,11.54593 2.119704,17.44057 z m 0,17.52521 c 1.04742,5.89305 0.30893,11.96438 -2.119704,17.43476 7.294904,-0.82366 13.915854,-4.65043 18.270574,-10.56041 -5.94807,-0.63004 -11.57292,-3.02429 -16.15087,-6.87435 M 95.998299,43.51679 c -8.365593,0.002 -16.232869,3.97807 -21.196998,10.71223 4.038909,0.41897 8.056658,1.67428 11.792451,3.83154 3.717277,2.14351 6.925657,5.06676 9.404547,8.56926 2.478891,-3.50303 5.687271,-6.42628 9.405071,-8.56926 3.61677,-2.09219 7.63558,-3.39829 11.79193,-3.83154 C 112.2317,47.49486 104.36442,43.5189 95.998299,43.51679 m 27.300061,42.35273 c 1.65365,3.70987 2.58258,7.81226 2.58258,12.13048 0,4.31769 -0.92893,8.42061 -2.58258,12.12942 7.9662,-0.87549 15.09393,-5.34871 19.34762,-12.14106 -4.26956,-6.7733 -11.39041,-11.23435 -19.34762,-12.12148 z m 0.003,-28.10573 c 1.65418,3.70935 2.57993,7.80909 2.57993,12.12096 0,4.43196 -0.97865,8.63591 -2.71694,12.42408 4.14947,0.38722 8.28095,1.651 12.12149,3.86698 3.62099,2.08849 6.76061,4.91811 9.21251,8.3037 3.35174,-7.66784 2.86136,-16.47303 -1.32196,-23.72085 -4.20091,-7.22825 -11.56934,-12.04584 -19.87516,-12.99487 m 22.92047,11.23912 c 5.33972,9.24743 5.15087,20.19507 0.47452,28.99709 4.67635,8.80149 4.86256,19.74966 -0.47716,28.99974 -5.3376,9.24743 -14.90773,14.54959 -24.86561,14.9019 C 116.07193,150.35717 106.6843,156 95.998521,156 85.313267,156 75.92882,150.35717 70.646763,141.90164 60.688883,141.54933 51.118229,136.24982 45.781685,126.99974 40.438264,117.74966 40.627646,106.80149 45.303999,98 40.627646,89.19798 40.441438,78.25034 45.778511,68.99974 51.118229,59.75547 60.686238,54.45332 70.644119,54.101 75.931465,45.64283 85.318556,40 96.001695,40 c 10.685785,0 20.072875,5.64283 25.354405,14.09783 9.95788,0.35231 19.52853,5.65447 24.8656,14.90508"
     style="opacity:0.2;fill:#000000;fill-opacity:1;fill-rule:nonzero;stroke:none;stroke-width:0.528998;filter:url(#filter1037)"
     id="path999"
     sodipodi:nodetypes="cccccsccccccccccccccccccccccccccccccccccccccccccccccccccccccccccccccccccccccccccccccccccccccccscccccscccccccccscccccscc" />
  <path
     d="m 143.17286,123.24134 c 3.50885,-6.05069 4.45259,-13.25301 2.62066,-20.00304 -0.34015,-1.27066 -0.7734,-2.51434 -1.29552,-3.72098 -2.45244,3.38665 -5.59311,6.21785 -9.21569,8.30687 -3.71411,2.14879 -7.84876,3.46759 -12.12096,3.86646 1.73829,3.78499 2.71641,7.99264 2.71641,12.42407 0,4.31505 -0.92575,8.41426 -2.5794,12.12096 8.30529,-0.94955 15.67372,-5.76715 19.8745,-12.99434 M 120.15029,78.4367 c 1.46109,-3.32582 2.21492,-6.91931 2.21333,-10.55195 0.003,-4.27802 -1.0416,-8.49149 -3.0428,-12.27278 -8.00376,0.28883 -15.43726,4.21824 -20.183439,10.66833 8.618459,0.90564 16.159339,5.49471 21.012909,12.1564 m 0,28.11525 c 1.46109,-3.32635 2.21492,-6.91931 2.21333,-10.55195 0.002,-3.63264 -0.75224,-7.22613 -2.21333,-10.55195 -3.52049,4.83717 -8.40686,8.5116 -14.03065,10.55195 5.62485,2.03982 10.51227,5.71425 14.03382,10.55195 z m -0.82947,29.8382 c 2.00014,-3.78182 3.04439,-7.99688 3.03962,-12.27543 0.003,-3.63211 -0.75011,-7.2256 -2.21015,-10.55195 -4.97101,6.8442 -12.60976,11.26187 -21.021903,12.15588 4.750413,6.45167 12.186553,10.37949 20.192433,10.66832 z m -23.325165,14.09254 c 8.679815,0 16.392625,-4.2193 21.196995,-10.70906 -4.15687,-0.43484 -8.17515,-1.74094 -11.79245,-3.83472 -3.7178,-2.14297 -6.926184,-5.06622 -9.404545,-8.56926 -2.478891,3.50304 -5.6878,6.42629 -9.404548,8.56926 -3.617297,2.09325 -7.635575,3.39988 -11.792451,3.83472 4.964658,6.73257 12.831405,10.70747 21.196999,10.70906 M 69.630863,124.11472 c 0,4.42878 1.106137,8.60417 3.042274,12.27225 4.278017,-0.15764 8.45235,-1.35688 12.162221,-3.49351 3.140139,-1.81129 5.870833,-4.25421 8.01857,-7.17481 -8.407913,-0.89666 -16.041901,-5.31433 -21.010262,-12.15588 -1.461095,3.32635 -2.21439,6.91931 -2.212803,10.55195 M 56.711644,84.17581 c 3.713046,-2.14879 7.847175,-3.46812 12.118314,-3.86698 -1.791191,-3.89661 -2.71694,-8.13495 -2.713766,-12.42408 0,-4.31187 0.925749,-8.41479 2.576755,-12.12096 -8.304229,0.95061 -15.671601,5.76821 -19.871854,12.99487 -4.182797,7.24835 -4.673179,16.05248 -1.321969,23.72085 2.384728,-3.28984 5.474083,-6.14327 9.21252,-8.3037 m 11.987122,23.95361 C 66.994331,104.3127 66.114076,100.17962 66.116192,96 c 0,-4.31822 0.928923,-8.42061 2.582574,-12.13048 -3.604071,0.40045 -7.086473,1.5415 -10.228728,3.35174 -3.709871,2.13663 -6.838902,5.15139 -9.113598,8.77874 2.275225,3.62682 5.404255,6.64106 9.113598,8.77821 3.142255,1.80971 6.624657,2.95129 10.228728,3.35121 m -0.0058,28.10626 c -1.70179,-3.81408 -2.579929,-7.94398 -2.576755,-12.12096 0,-4.43143 0.975474,-8.63591 2.713766,-12.42407 -4.27114,-0.39887 -8.405268,-1.71819 -12.118314,-3.86646 -3.620999,-2.08902 -6.76008,-4.91916 -9.212521,-8.30423 -3.351209,7.66837 -2.860827,16.47304 1.321969,23.72138 4.200254,7.22666 11.567626,12.04426 19.871855,12.99434 M 71.84631,85.44805 C 70.385744,88.77387 69.63192,92.36736 69.633507,96 c 0,3.75008 0.794557,7.31976 2.212803,10.55195 C 75.3668,101.71478 80.251579,98.04088 85.874841,96 80.251579,93.95912 75.366271,90.28469 71.84631,85.44805 m 0.83,-29.83608 c -2.001732,3.78129 -3.045976,7.99476 -3.042802,12.27278 0,3.75061 0.794557,7.32029 2.212804,10.55195 C 76.816788,71.59251 84.454479,67.17536 92.865566,66.2803 88.11145,59.8355 80.679541,55.90821 72.676311,55.61197 M 90.937893,87.23872 C 89.891003,81.34461 90.630544,75.2717 93.060767,69.80079 85.76481,70.62285 79.14174,74.45016 74.787018,80.3612 c 5.949125,0.63162 11.573445,3.0264 16.150875,6.87752 m 2.125519,34.95997 c -2.429694,-5.47091 -3.169235,-11.5433 -2.122345,-17.43793 -4.577959,3.85111 -10.202278,6.24642 -16.151404,6.87752 4.355779,5.91103 10.977792,9.73781 18.273749,10.56041 m 7.995298,-34.95997 c 4.57795,-3.85006 10.2028,-6.24431 16.15087,-6.87435 -4.35366,-5.91104 -10.97515,-9.7394 -18.270574,-10.56358 2.430224,5.47196 3.168704,11.54593 2.119704,17.44057 z m 0,17.52521 c 1.04742,5.89305 0.30893,11.96438 -2.119704,17.43476 7.294904,-0.82366 13.915854,-4.65043 18.270574,-10.56041 -5.94807,-0.63004 -11.57292,-3.02429 -16.15087,-6.87435 M 95.998299,41.51679 c -8.365593,0.002 -16.232869,3.97807 -21.196998,10.71223 4.038909,0.41897 8.056658,1.67428 11.792451,3.83154 3.717277,2.14351 6.925657,5.06676 9.404547,8.56926 2.478891,-3.50303 5.687271,-6.42628 9.405071,-8.56926 3.61677,-2.09219 7.63558,-3.39829 11.79193,-3.83154 C 112.2317,45.49486 104.36442,41.5189 95.998299,41.51679 m 27.300061,42.35273 c 1.65365,3.70987 2.58258,7.81226 2.58258,12.13048 0,4.31769 -0.92893,8.42061 -2.58258,12.12942 7.9662,-0.87549 15.09393,-5.34871 19.34762,-12.14106 -4.26956,-6.7733 -11.39041,-11.23435 -19.34762,-12.12148 z m 0.003,-28.10573 c 1.65418,3.70935 2.57993,7.80909 2.57993,12.12096 0,4.43196 -0.97865,8.63591 -2.71694,12.42408 4.14947,0.38722 8.28095,1.651 12.12149,3.86698 3.62099,2.08849 6.76061,4.91811 9.21251,8.3037 3.35174,-7.66784 2.86136,-16.47303 -1.32196,-23.72085 -4.20091,-7.22825 -11.56934,-12.04584 -19.87516,-12.99487 m 22.92047,11.23912 c 5.33972,9.24743 5.15087,20.19507 0.47452,28.99709 4.67635,8.80149 4.86256,19.74966 -0.47716,28.99974 -5.3376,9.24743 -14.90773,14.54959 -24.86561,14.9019 C 116.07193,148.35717 106.6843,154 95.998521,154 85.313267,154 75.92882,148.35717 70.646763,139.90164 60.688883,139.54933 51.118229,134.24982 45.781685,124.99974 40.438264,115.74966 40.627646,104.80149 45.303999,96 40.627646,87.19798 40.441438,76.25034 45.778511,66.99974 51.118229,57.75547 60.686238,52.45332 70.644119,52.101 75.931465,43.64283 85.318556,38 96.001695,38 c 10.685785,0 20.072875,5.64283 25.354405,14.09783 9.95788,0.35231 19.52853,5.65447 24.8656,14.90508"
     style="fill:#e63733;fill-opacity:1;fill-rule:nonzero;stroke:none;stroke-width:0.528998"
     id="path20"
     sodipodi:nodetypes="cccccsccccccccccccccccccccccccccccccccccccccccccccccccccccccccccccccccccccccccccccccccccccccccscccccscccccccccscccccscc" />
</svg>
