<?xml version="1.0" encoding="UTF-8" standalone="no"?>
<svg
   width="192"
   height="192"
   version="1"
   id="svg28"
   sodipodi:docname="apps_microsoft_translator.svg"
   inkscape:version="1.1.1 (1:1.1+202109281949+c3084ef5ed)"
   xmlns:inkscape="http://www.inkscape.org/namespaces/inkscape"
   xmlns:sodipodi="http://sodipodi.sourceforge.net/DTD/sodipodi-0.dtd"
   xmlns="http://www.w3.org/2000/svg"
   xmlns:svg="http://www.w3.org/2000/svg"
   xmlns:rdf="http://www.w3.org/1999/02/22-rdf-syntax-ns#"
   xmlns:cc="http://creativecommons.org/ns#"
   xmlns:dc="http://purl.org/dc/elements/1.1/">
  <metadata
     id="metadata34">
    <rdf:RDF>
      <cc:Work
         rdf:about="">
        <dc:format>image/svg+xml</dc:format>
        <dc:type
           rdf:resource="http://purl.org/dc/dcmitype/StillImage" />
      </cc:Work>
    </rdf:RDF>
  </metadata>
  <defs
     id="defs32">
    <filter
       inkscape:collect="always"
       style="color-interpolation-filters:sRGB"
       id="filter6067"
       x="-0.060593997"
       y="-0.039740284"
       width="1.121188"
       height="1.0794806">
      <feGaussianBlur
         inkscape:collect="always"
         stdDeviation="2.1857222"
         id="feGaussianBlur6069" />
    </filter>
    <filter
       inkscape:collect="always"
       style="color-interpolation-filters:sRGB"
       id="filter6071"
       x="-0.057522713"
       y="-0.041182381"
       width="1.1150454"
       height="1.0823648">
      <feGaussianBlur
         inkscape:collect="always"
         stdDeviation="2.3805926"
         id="feGaussianBlur6073" />
    </filter>
    <filter
       inkscape:collect="always"
       style="color-interpolation-filters:sRGB"
       id="filter6113"
       x="-0.11472824"
       y="-0.10244783"
       width="1.2294565"
       height="1.2048957">
      <feGaussianBlur
         inkscape:collect="always"
         stdDeviation="1.1796479"
         id="feGaussianBlur6115" />
    </filter>
    <filter
       inkscape:collect="always"
       style="color-interpolation-filters:sRGB"
       id="filter6333"
       x="-0.035032094"
       y="-0.076211301"
       width="1.0700642"
       height="1.1524226">
      <feGaussianBlur
         inkscape:collect="always"
         stdDeviation="1.8100094"
         id="feGaussianBlur6335" />
    </filter>
  </defs>
  <sodipodi:namedview
     pagecolor="#ffffff"
     bordercolor="#666666"
     borderopacity="1"
     objecttolerance="10"
     gridtolerance="10"
     guidetolerance="10"
     inkscape:pageopacity="0"
     inkscape:pageshadow="2"
     inkscape:window-width="1920"
     inkscape:window-height="1019"
     id="namedview30"
     showgrid="false"
     inkscape:zoom="1"
     inkscape:cx="133.5"
     inkscape:cy="150.5"
     inkscape:window-x="0"
     inkscape:window-y="34"
     inkscape:window-maximized="1"
     inkscape:current-layer="svg28"
     inkscape:pagecheckerboard="0"
     inkscape:snap-bbox="true"
     inkscape:snap-bbox-midpoints="true"
     inkscape:snap-global="true">
    <inkscape:grid
       type="xygrid"
       id="grid841" />
  </sodipodi:namedview>
  <path
     style="opacity:0.2;mix-blend-mode:normal;fill:#000000;stroke-width:0.312911;filter:url(#filter6113)"
     d="m 99.152358,177.88331 c 0,-0.0782 -1.761723,-6.18194 -3.914939,-13.56378 -2.153217,-7.38185 -3.91494,-13.82461 -3.91494,-13.95116 0,-0.12654 2.994929,-0.15824 6.655397,-0.0704 5.724774,0.064 11.868914,0.61853 16.038954,4.43408 1.23472,1.1581 1.38356,1.76584 1.73892,3.90029 0.45895,2.75668 0.25788,5.89635 -0.50203,7.83874 -1.90087,4.85889 -5.36451,2.77694 -11.99763,4.85168 -2.76596,0.86516 -4.103732,4.56054 -4.103732,6.56059 z"
     id="path6075"
     sodipodi:nodetypes="sssccsssss" />
  <path
     id="path6027"
     style="opacity:0.2;mix-blend-mode:normal;fill:#000000;fill-opacity:1;stroke-width:0.312684;filter:url(#filter6067)"
     d="m 98.966797,178.99954 2.511723,-0.20312 c 11.89055,-0.95779 21.76275,-3.74042 31.79101,-8.9629 7.39692,-3.85215 13.56917,-8.42327 19.72852,-14.61132 12.49097,-12.54917 20.00134,-27.85986 22.60156,-46.07422 0.53744,-3.76144 0.53355,-16.302044 -0.006,-20.138676 -2.04908,-14.574298 -7.39942,-27.513353 -15.94922,-38.576172 l -1.29286,-1.867238 c -1.38082,-1.633694 -3.04465,-1.566356 -3.04465,-1.566356 H 124.74205 92.115094 c -9.027099,22.869411 7.656404,95.310022 6.851703,132.000002 z"
     sodipodi:nodetypes="ccsscscccccc" />
  <path
     id="path1009"
     style="fill:#e4e4e4;stroke-width:0.312684;fill-opacity:1"
     d="m 98.966797,176 2.511723,-0.20312 c 11.89055,-0.95779 21.76275,-3.74042 31.79101,-8.9629 7.39692,-3.85215 13.56917,-8.42327 19.72852,-14.61132 12.49097,-12.54917 20.00134,-27.85986 22.60156,-46.07422 0.53744,-3.76144 0.53355,-16.302042 -0.006,-20.138674 -2.04908,-14.574298 -7.39942,-27.513353 -15.94922,-38.576172 l -1.29286,-1.867238 C 156.97071,43.932662 155.30688,44 155.30688,44 H 124.74205 92.115094 c -9.027099,22.869411 7.656404,95.31002 6.851703,132 z"
     sodipodi:nodetypes="ccsscscccccc" />
  <path
     id="path6337"
     style="fill:#ffffff;stroke-width:0.312684;fill-opacity:1;opacity:0.2"
     d="M 92.115234 44 C 90.113028 49.072425 89.379446 56.59062 89.435547 65.609375 C 89.439299 57.03764 90.187895 49.882755 92.115234 45 L 124.74219 45 L 155.30664 45 C 155.30664 45 156.97074 44.932712 158.35156 46.566406 L 159.64453 48.433594 C 168.19433 59.496413 173.54467 72.435468 175.59375 87.009766 C 175.85211 88.846902 175.98009 92.70227 175.99219 96.611328 C 176.003 92.355496 175.87515 88.010732 175.59375 86.009766 C 173.54467 71.435468 168.19433 58.496413 159.64453 47.433594 L 158.35156 45.566406 C 156.97074 43.932712 155.30664 44 155.30664 44 L 124.74219 44 L 92.115234 44 z M 98.986328 173.17773 C 98.987316 174.1346 98.986839 175.08617 98.966797 176 L 98.974609 176 C 98.986983 175.07545 98.994302 174.14395 98.986328 173.17773 z " />
  <path
     style="fill:#005ba7;stroke-width:0.312911"
     d="m 99.152358,175.8833 c 0,-0.0782 -1.761723,-6.18194 -3.914939,-13.56378 -2.153217,-7.38185 -3.91494,-13.82461 -3.91494,-13.95116 0,-0.12654 2.994929,-0.15824 6.655397,-0.0704 5.724774,0.064 11.868914,0.61853 16.038954,4.43408 1.23472,1.1581 1.38356,1.76584 1.73892,3.90029 0.45895,2.75668 0.25788,5.89635 -0.50203,7.83874 -1.90087,4.85889 -6.58736,8.66653 -13.22048,10.74127 -2.765959,0.86516 -2.880882,0.89193 -2.880882,0.671 z"
     id="path1005"
     sodipodi:nodetypes="sssccsssss" />
  <path
     id="path6029"
     style="opacity:0.2;fill:#000000;stroke-width:0.312911;filter:url(#filter6071)"
     d="M 84.496462,19.097127 C 71.115325,20.944111 58.163727,26.45553 46.696822,35.182062 42.976656,38.01318 36.528013,44.326011 33.569506,48.034366 24.603101,59.273352 18.777729,72.627582 16.589947,86.956976 c -0.442764,2.899987 -0.637458,8.202063 -0.580834,13.135454 -0.100963,5.70624 0.829297,11.82832 2.049681,16.91797 2.869143,11.87861 8.017304,22.2526 15.795922,31.92393 l 1.179864,1.52341 c 1.005425,1.28624 3.392403,1.5422 3.392403,1.5422 h 25.100939 34.449439 c 0,0 6.306699,-0.32766 8.978139,0.43296 1.60477,0.46688 2.98623,0.99822 4.16847,1.60641 1.14358,0.58832 2.10076,1.24855 2.89333,1.99193 0.7225,0.67766 1.06905,1.07149 1.30687,1.70333 -1.06276,-6.12748 -4.25826,-21.18665 -14.22321,-67.963484 C 95.127732,66.443766 92.32237,42.210317 86.016,18.999943 c 0,0 -1.120756,0.05051 -1.519538,0.09718 z"
     sodipodi:nodetypes="ssssccccccccssccccs" />
  <path
     id="path1007"
     style="fill:#176ed5;stroke-width:0.312911"
     d="m 84.496462,16.097184 c -13.381137,1.846984 -26.332735,7.358403 -37.79964,16.084935 -3.720166,2.831118 -10.168809,9.143949 -13.127316,12.852304 -8.966405,11.238986 -14.791777,24.593216 -16.979559,38.92261 -0.442764,2.899987 -0.637458,8.202063 -0.580834,13.135453 -0.100963,5.706244 0.829297,11.828324 2.049681,16.917974 2.869143,11.87861 8.017304,22.2526 15.795922,31.92393 l 1.179864,1.52341 C 36.040005,148.74404 38.426983,149 38.426983,149 h 25.100939 34.449439 c 0,0 6.306699,-0.32766 8.978139,0.43296 1.60477,0.46688 2.98623,0.99822 4.16847,1.60641 1.14358,0.58832 2.10076,1.24855 2.89333,1.99193 0.7225,0.67766 1.06905,1.07149 1.30687,1.70333 -1.06276,-6.12748 -4.25826,-21.18665 -14.22321,-67.963487 C 95.127732,63.443823 92.32237,39.210374 86.016,16 c 0,0 -1.120756,0.05051 -1.519538,0.09718 z"
     sodipodi:nodetypes="ssssccccccccssccccs" />
  <path
     id="path6292"
     style="opacity:0.2;fill:#000000;stroke-width:0.311857;filter:url(#filter6333)"
     d="m 61,63.000282 c -4.843838,0 -5.860652,3.090584 -7.697266,7.658203 L 39.289062,105.50809 c -0.823942,2.04949 0.169374,4.37889 2.21875,5.20313 2.049493,0.82394 4.37889,-0.16938 5.203126,-2.21875 l 3.816406,-9.492188 H 61 71.472656 l 3.816406,9.492188 c 0.824236,2.04937 3.153633,3.04269 5.203126,2.21875 2.049374,-0.82424 3.042692,-3.15364 2.21875,-5.20313 L 68.697266,70.658485 C 66.860652,66.090866 65.843838,63.000282 61,63.000282 Z m 0,9.955078 7.255859,18.044922 H 61 53.744141 Z m 88.79297,1.044922 c -1.02085,0.01303 -2.37232,0.436874 -4.29102,1.244141 -4.58015,1.927042 -8.97186,3.260191 -14.26757,4.332031 -6.94018,1.404681 -7.66664,2.47564 -7.13282,4.578125 0.27244,1.073053 0.9465,1.248378 3.99219,0.667969 1.43999,-0.274422 2.63456,-0.816895 2.89844,-0.716797 1.06913,0.405555 1.40844,3.180033 0.58203,4.759765 -0.85819,1.640542 -2.24756,2.15861 -6.44531,2.16211 -3.24454,0.0027 -4.39741,0.09314 -5.82032,0.748047 -1.80953,0.832852 -2.29882,1.388751 -2.29882,2.980468 0,0.809319 0.2161,1.250469 0.85351,1.746094 0.80288,0.624301 1.65484,0.559765 6.50195,0.490235 4.76587,-0.06837 4.88269,0.171251 5.29102,0.722656 1.15841,1.564332 -0.42265,4.251264 -7.41016,9.466794 -6.18073,4.61335 -7.24609,5.83356 -7.24609,8.29492 0,1.33189 0.14087,1.67298 1.06641,2.58789 1.43126,1.41484 2.32577,1.36446 5.72461,-0.32617 5.10207,-2.53784 7.52744,-5.4283 12.86523,-14.03516 0.89348,-1.44068 1.42698,-1.10903 4.35352,4.125 2.2508,4.02547 3.24769,5.46775 5.02734,7.2754 2.54719,2.58727 5.64989,4.26225 8.76953,4.73437 3.03151,0.45879 7.84148,-0.10384 9.47852,-1.10937 0.8867,-0.54463 0.96698,-2.25879 0.14062,-2.99805 -0.31064,-0.2779 -2.51931,-1.35254 -4.9082,-2.38672 -7.08349,-3.06652 -10.53117,-5.28606 -14.34766,-9.23633 -4.21303,-4.360737 -4.89878,-6.079037 -3.59765,-7.36523 0.44416,-0.43906 0.90181,-0.493636 2.74414,-0.328126 6.59287,0.592286 9.53016,0.803939 11.00781,0.246094 1.73486,-0.654944 2.64839,-2.143917 2.65039,-3.939453 0.003,-3.613194 -4.30534,-4.739244 -10.01172,-2.548828 -4.14721,1.591924 -6.23045,1.57116 -6.94141,-0.277344 -0.37539,-0.976032 0.74151,-4.980249 1.59571,-5.722656 0.40699,-0.353718 1.27319,-0.545928 3.51367,-0.667969 3.10131,-0.168931 5.39686,-0.878118 6.97852,-2.15625 1.55089,-1.253269 2.26901,-3.809943 1.49023,-5.304687 -0.72807,-1.397415 -1.49412,-2.05972 -2.80664,-2.042969 z" />
  <path
     style="fill:#575553;stroke-width:0.311857"
     d="m 152.80734,117.83825 c -3.11964,-0.47212 -6.22212,-2.14709 -8.76931,-4.73436 -1.77965,-1.80765 -2.77688,-3.2509 -5.02768,-7.27636 -2.92654,-5.23403 -3.46074,-5.56421 -4.35422,-4.12353 -5.33779,8.60686 -7.7638,11.49593 -12.86587,14.03377 -3.39884,1.69063 -4.29256,1.74166 -5.72382,0.32682 C 115.1409,115.14968 115,114.80761 115,113.47572 c 0,-2.46136 1.06548,-3.68096 7.24621,-8.29431 6.98751,-5.215538 8.5682,-7.902735 7.40979,-9.467067 -0.40833,-0.551405 -0.525,-0.790712 -5.29087,-0.722343 -4.84711,0.06953 -5.69971,0.134788 -6.50259,-0.489513 -0.63741,-0.495625 -0.85303,-0.937066 -0.85303,-1.746385 0,-1.591717 0.48945,-2.147044 2.29898,-2.979896 1.42291,-0.654904 2.57504,-0.746809 5.81958,-0.749467 4.19775,-0.0035 5.58778,-0.520566 6.44597,-2.161108 0.82641,-1.579732 0.48705,-4.355151 -0.58208,-4.760706 -0.26388,-0.100098 -1.45758,0.442134 -2.89757,0.716556 -3.04569,0.580409 -3.71995,0.406091 -3.99239,-0.666962 -0.53382,-2.102485 0.19212,-3.173155 7.13229,-4.577836 5.29571,-1.07184 9.68766,-2.405493 14.26781,-4.332535 4.38559,-1.84518 5.80373,-1.685612 7.09807,0.79868 0.77878,1.494744 0.0605,4.05111 -1.4904,5.304379 -1.58166,1.278132 -3.87752,1.987557 -6.97883,2.156488 -2.24048,0.122041 -3.10749,0.313762 -3.51448,0.66748 -0.8542,0.742407 -1.97031,4.748165 -1.59492,5.724197 0.71096,1.848504 2.79349,1.868552 6.9407,0.276628 5.70638,-2.190416 10.01644,-1.064666 10.01306,2.548528 -0.002,1.795536 -0.91575,3.285528 -2.65061,3.940472 -1.47765,0.557845 -4.41555,0.345164 -11.00842,-0.247122 -1.84233,-0.165511 -2.30038,-0.110708 -2.74454,0.328352 -1.30113,1.286194 -0.61522,3.004819 3.59781,7.36556 3.81649,3.95027 7.26413,6.16967 14.34762,9.23619 2.38889,1.03418 4.59759,2.1077 4.90823,2.3856 0.82636,0.73926 0.74576,2.45416 -0.14094,2.99879 -1.63704,1.00553 -6.4456,1.56867 -9.47711,1.10988 z"
     id="path1003"
     sodipodi:nodetypes="ssssssssssssscsssssssssssscssssssss" />
  <path
     id="path4484"
     style="color:#000000;opacity:1;fill:#ffffff;stroke-linecap:round;stroke-linejoin:round;-inkscape-stroke:none"
     d="M 61 61 C 56.156162 61 55.139348 64.090584 53.302734 68.658203 L 39.289062 103.50781 C 38.46512 105.5573 39.458436 107.8867 41.507812 108.71094 C 43.557305 109.53488 45.886702 108.54156 46.710938 106.49219 L 50.527344 97 L 61 97 L 71.472656 97 L 75.289062 106.49219 C 76.113298 108.54156 78.442695 109.53488 80.492188 108.71094 C 82.541563 107.8867 83.53488 105.5573 82.710938 103.50781 L 68.697266 68.658203 C 66.860652 64.090584 65.843838 61 61 61 z M 61 70.955078 L 68.255859 89 L 61 89 L 53.744141 89 L 61 70.955078 z " />
  <path
     id="path6339"
     style="fill:#ffffff;stroke-width:0.312911;opacity:0.2"
     d="M 86.015625 16 C 86.015625 16 84.894876 16.050986 84.496094 16.097656 C 71.114957 17.94464 58.164171 23.455109 46.697266 32.181641 C 42.9771 35.012759 36.528819 41.326801 33.570312 45.035156 C 24.603907 56.274142 18.777626 69.627637 16.589844 83.957031 C 16.14708 86.857018 15.953142 92.158407 16.009766 97.091797 C 16.008451 97.166096 16.010732 97.241969 16.009766 97.316406 C 15.980879 92.61051 16.170123 87.706088 16.589844 84.957031 C 18.777626 70.627637 24.603907 57.274142 33.570312 46.035156 C 36.528819 42.326801 42.9771 36.012759 46.697266 33.181641 C 58.164171 24.455109 71.114957 18.94464 84.496094 17.097656 C 84.894876 17.050986 86.015625 17 86.015625 17 C 92.321995 40.210374 95.128334 64.444164 101.10156 87.771484 C 110.49897 131.88418 113.78964 147.41696 115.03516 154.22461 C 115.1358 154.38817 115.25153 154.54125 115.32422 154.73438 C 114.26146 148.6069 111.06651 133.54832 101.10156 86.771484 C 95.128334 63.444164 92.321995 39.210374 86.015625 16 z " />
</svg>
