<?xml version="1.0" encoding="UTF-8" standalone="no"?>
<svg
   width="192"
   height="192"
   version="1"
   id="svg12"
   sodipodi:docname="apps_radiotunes.svg"
   inkscape:version="1.1-rc (1:1.1+rc+202105232036+f4db50c7c1)"
   xmlns:inkscape="http://www.inkscape.org/namespaces/inkscape"
   xmlns:sodipodi="http://sodipodi.sourceforge.net/DTD/sodipodi-0.dtd"
   xmlns="http://www.w3.org/2000/svg"
   xmlns:svg="http://www.w3.org/2000/svg">
  <defs
     id="defs16">
    <filter
       inkscape:collect="always"
       style="color-interpolation-filters:sRGB"
       id="filter1043"
       x="-0.048000001"
       y="-0.048000001"
       width="1.096"
       height="1.096">
      <feGaussianBlur
         inkscape:collect="always"
         stdDeviation="3.2"
         id="feGaussianBlur1045" />
    </filter>
    <filter
       inkscape:collect="always"
       style="color-interpolation-filters:sRGB"
       id="filter1086"
       x="-0.051692122"
       y="-0.044800145"
       width="1.1033842"
       height="1.0896003">
      <feGaussianBlur
         inkscape:collect="always"
         stdDeviation="2.2400116"
         id="feGaussianBlur1088" />
    </filter>
  </defs>
  <sodipodi:namedview
     id="namedview14"
     pagecolor="#ffffff"
     bordercolor="#666666"
     borderopacity="1.0"
     inkscape:pageshadow="2"
     inkscape:pageopacity="0.0"
     inkscape:pagecheckerboard="0"
     showgrid="false"
     inkscape:zoom="2.85"
     inkscape:cx="20.877193"
     inkscape:cy="80.175439"
     inkscape:window-width="1920"
     inkscape:window-height="1019"
     inkscape:window-x="0"
     inkscape:window-y="34"
     inkscape:window-maximized="1"
     inkscape:current-layer="svg12" />
  <rect
     fill="#2095f2"
     width="160"
     height="160"
     x="16"
     y="20"
     rx="8"
     ry="8"
     id="rect925"
     style="opacity:0.2;fill:#000000;stroke-width:4;filter:url(#filter1043)" />
  <rect
     fill="#2095f2"
     width="160"
     height="160"
     x="16"
     y="16"
     rx="8"
     ry="8"
     id="rect2"
     style="stroke-width:4" />
  <path
     id="path4"
     style="stroke-width:4;fill:#ffffff;opacity:0.2"
     d="M 24 16 C 19.568 16 16 19.568 16 24 L 16 25 C 16 20.568 19.568 17 24 17 L 168 17 C 172.432 17 176 20.568 176 25 L 176 24 C 176 19.568 172.432 16 168 16 L 24 16 z " />
  <path
     opacity="0.2"
     d="m 60.812,157.43306 c -17.0048,-5.5904 -22.4412,-20.9404 -10.1032,-28.5272 4.14,-2.54576 12.8568,-2.521 18.4816,0.0524 2.28384,1.04496 4.4936,1.55592 4.9104,1.13552 1.00952,-1.01808 2.90084,-11.3068 7.3856,-40.175999 3.86732,-24.8952 4.4668,-33.442 2.70352,-38.5432 -0.78512,-2.27144 -0.7584,-3.34176 0.11,-4.3968 2.885,-3.50584 28.1896,-8.99 41.428,-8.978 10.8976,0.0096 16.8276,3.07652 20.6824,10.6968 6.5608,12.97 -7.7636,35.256 -32.3124,50.272 l -2.5884,1.583239 2.00188,3.99916 c 3.90204,7.7952 11.8548,19.2816 16.6376,24.0296 2.66676,2.64736 4.8488,5.2964 4.8488,5.8872 0,0.6522 -1.784,1.0736 -4.5452,1.0736 -8.9056,0 -18.096,-6.582 -30.3924,-21.7664 -1.89108,-2.33524 -3.65668,-4.0256 -3.92356,-3.75648 -0.2668,0.26916 -1.7688,7.0808 -3.3376,15.1368 -3.62352,18.608 -6.8184,25.6312 -13.5392,29.762 -3.5284,2.16868 -5.8648,2.8576 -10.3296,3.04552 -3.17332,0.1336 -6.826,-0.1044 -8.1172,-0.52892 z m 50.24,-76.383999 c 7.2316,-5.176 13.426,-11.2256 17.2808,-16.8764 2.4686,-3.61852 3.4454,-4.3716 5.0944,-3.92832 1.41332,0.38008 1.17456,0.0356 -0.77704,-1.12176 -4.8336,-2.86608 -25.8756,-1.41524 -28.5024,1.9652 -1.01348,1.30432 -4.8244,25.3884 -4.184,26.4416 0.505,0.8306 2.51668,-0.34512 11.0884,-6.4804 z"
     id="path8"
     style="stroke-width:4;filter:url(#filter1086)" />
  <path
     fill="#ffffff"
     d="m 60.812,155.432 c -17.0048,-5.5904 -22.4412,-20.9404 -10.1032,-28.5272 4.14,-2.54576 12.8568,-2.521 18.4816,0.0524 2.28384,1.04496 4.4936,1.55592 4.9104,1.13552 1.00952,-1.01808 2.90084,-11.3068 7.3856,-40.176 3.86732,-24.8952 4.4668,-33.442 2.70352,-38.5432 -0.78512,-2.27144 -0.7584,-3.34176 0.11,-4.3968 2.885,-3.50584 28.1896,-8.99 41.428,-8.978 10.8976,0.0096 16.8276,3.07652 20.6824,10.6968 6.5608,12.97 -7.7636,35.256 -32.3124,50.272 l -2.5884,1.58324 2.00188,3.99916 c 3.90204,7.7952 11.8548,19.2816 16.6376,24.0296 2.66676,2.64736 4.8488,5.2964 4.8488,5.8872 0,0.6522 -1.784,1.0736 -4.5452,1.0736 -8.9056,0 -18.096,-6.582 -30.3924,-21.7664 -1.89108,-2.33524 -3.65668,-4.0256 -3.92356,-3.75648 -0.2668,0.26916 -1.7688,7.0808 -3.3376,15.1368 -3.62352,18.608 -6.8184,25.6312 -13.5392,29.762 -3.5284,2.16868 -5.8648,2.8576 -10.3296,3.04552 -3.17332,0.1336 -6.826,-0.1044 -8.1172,-0.52892 z m 50.24,-76.384 c 7.2316,-5.176 13.426,-11.2256 17.2808,-16.8764 2.4686,-3.61852 3.4454,-4.3716 5.0944,-3.92832 1.41332,0.38008 1.17456,0.0356 -0.77704,-1.12176 -4.8336,-2.86608 -25.8756,-1.41524 -28.5024,1.9652 -1.01348,1.30432 -4.8244,25.3884 -4.184,26.4416 0.505,0.8306 2.51668,-0.34512 11.0884,-6.4804 z"
     id="path10"
     style="stroke-width:4" />
</svg>
