<?xml version="1.0" encoding="UTF-8" standalone="no"?>
<svg
   width="192"
   height="192"
   version="1"
   id="svg14"
   sodipodi:docname="apps_dashlane.svg"
   inkscape:version="1.1-rc (1:1.1+rc+202105232036+f4db50c7c1)"
   xmlns:inkscape="http://www.inkscape.org/namespaces/inkscape"
   xmlns:sodipodi="http://sodipodi.sourceforge.net/DTD/sodipodi-0.dtd"
   xmlns="http://www.w3.org/2000/svg"
   xmlns:svg="http://www.w3.org/2000/svg"
   xmlns:rdf="http://www.w3.org/1999/02/22-rdf-syntax-ns#"
   xmlns:cc="http://creativecommons.org/ns#"
   xmlns:dc="http://purl.org/dc/elements/1.1/">
  <metadata
     id="metadata20">
    <rdf:RDF>
      <cc:Work
         rdf:about="">
        <dc:format>image/svg+xml</dc:format>
        <dc:type
           rdf:resource="http://purl.org/dc/dcmitype/StillImage" />
      </cc:Work>
    </rdf:RDF>
  </metadata>
  <defs
     id="defs18">
    <filter
       inkscape:collect="always"
       style="color-interpolation-filters:sRGB"
       id="filter848"
       x="-0.048000001"
       width="1.096"
       y="-0.048000001"
       height="1.096">
      <feGaussianBlur
         inkscape:collect="always"
         stdDeviation="3.2"
         id="feGaussianBlur850" />
    </filter>
    <filter
       inkscape:collect="always"
       style="color-interpolation-filters:sRGB"
       id="filter2156"
       x="-0.055902431"
       y="-0.042055052"
       width="1.1118049"
       height="1.0841101">
      <feGaussianBlur
         inkscape:collect="always"
         stdDeviation="1.9099997"
         id="feGaussianBlur2158" />
    </filter>
  </defs>
  <sodipodi:namedview
     pagecolor="#ffffff"
     bordercolor="#666666"
     borderopacity="1"
     objecttolerance="10"
     gridtolerance="10"
     guidetolerance="10"
     inkscape:pageopacity="0"
     inkscape:pageshadow="2"
     inkscape:window-width="1920"
     inkscape:window-height="1019"
     id="namedview16"
     showgrid="false"
     inkscape:zoom="1.52"
     inkscape:cx="77.302632"
     inkscape:cy="82.236842"
     inkscape:window-x="0"
     inkscape:window-y="34"
     inkscape:window-maximized="1"
     inkscape:current-layer="svg14"
     inkscape:pagecheckerboard="0">
    <inkscape:grid
       type="xygrid"
       id="grid7196" />
  </sodipodi:namedview>
  <rect
     id="rect2"
     transform="matrix(0,-1,-1,0,0,0)"
     ry="8"
     rx="8"
     y="-176"
     x="-180"
     height="160"
     width="160"
     style="opacity:0.2;stroke-width:4;filter:url(#filter848)" />
  <rect
     id="rect4"
     transform="matrix(0,-1,-1,0,0,0)"
     ry="8"
     rx="8"
     y="-176"
     x="-176"
     height="160"
     width="160"
     style="fill:#11404a;fill-opacity:1;stroke-width:4" />
  <path
     inkscape:connector-curvature="0"
     style="opacity:0.1;fill:#ffffff;stroke-width:4"
     d="m 24,16 c -4.432,0 -8,3.568 -8,8 v 1 c 0,-4.432 3.568,-8 8,-8 h 144 c 4.432,0 8,3.568 8,8 v -1 c 0,-4.432 -3.568,-8 -8,-8 z"
     id="path6" />
  <path
     id="path2118"
     style="opacity:0.2;fill:#000000;stroke-width:0.314892;filter:url(#filter2156)"
     class="cls-3"
     d="M 57.679688,45.001265 C 56.265982,45.035893 55,45.794013 55,46.83525 v 100.0664 c 0,0.67187 0.556104,1.29291 1.451172,1.61133 l 11.447266,4.26367 C 69.748244,153.43578 72,152.55364 72,151.16533 V 51.095015 c 0,-0.671868 -0.558058,-1.273803 -1.453125,-1.611328 L 59.101562,45.223921 c -0.462451,-0.165579 -0.950639,-0.234199 -1.421874,-0.222656 z m 22.001953,0 C 78.265924,45.03432 77,45.788194 77,46.819624 v 32.070313 c 0,0.673262 0.557064,1.296153 1.453125,1.615234 l 11.458984,4.269532 C 91.763968,85.438393 94,84.550663 94,83.159468 V 51.104781 C 94,50.431519 93.442935,49.813771 92.546875,49.4915 L 81.105469,45.223921 c -0.463751,-0.165922 -0.951923,-0.233674 -1.423828,-0.222656 z m 21.998049,12 C 100.26598,57.033972 99,57.779505 99,58.800093 V 87.95439 c 0,0.666184 0.559247,1.278772 1.45117,1.597656 l 11.44727,4.22461 C 113.74826,94.433368 116,93.555571 116,92.179 V 63.024703 c 0,-0.666184 -0.5561,-1.262398 -1.45117,-1.578125 l -11.44727,-4.22461 c -0.46245,-0.164178 -0.95064,-0.231605 -1.42187,-0.220703 z m 20.98437,17 C 121.25566,74.035758 120,74.790278 120,75.827437 v 48.103513 c 0,0.66923 0.5561,1.28438 1.45117,1.60156 l 11.44727,4.24219 C 134.74825,130.43442 137,129.55603 137,128.17314 V 80.071578 c 0,-0.669238 -0.55806,-1.285122 -1.45312,-1.605469 h -0.0176 l -11.44727,-4.244141 c -0.46245,-0.16493 -0.9485,-0.2322 -1.41797,-0.220703 z M 101.67969,109.00126 C 100.26598,109.03558 99,109.78568 99,110.81767 v 29.13672 c 0,0.66591 0.559247,1.27817 1.45117,1.59375 v 0.006 l 11.44727,4.22265 C 113.74826,146.43309 116,145.5589 116,144.1829 v -29.14257 c 0,-0.6659 -0.5561,-1.27697 -1.45117,-1.59571 l -11.44727,-4.22265 c -0.46245,-0.16411 -0.95064,-0.23215 -1.42187,-0.22071 z m -21.998049,5 C 78.265924,114.03514 77,114.79359 77,115.83915 v 32.03907 c 0,0.67466 0.557064,1.29425 1.453125,1.61718 l 11.458984,4.2793 C 91.763968,154.43977 94,153.55284 94,152.15556 v -32.03711 c 0,-0.67466 -0.557065,-1.29621 -1.453125,-1.61914 l -11.441406,-4.27539 c -0.463751,-0.16627 -0.951923,-0.23395 -1.423828,-0.22266 z" />
  <path
     id="path27"
     style="fill:#ffffff;stroke-width:0.314892"
     class="cls-3"
     d="M 57.679688,42.001953 C 56.265982,42.036581 55,42.794701 55,43.835938 V 143.90234 c 0,0.67187 0.556104,1.29291 1.451172,1.61133 l 11.447266,4.26367 C 69.748244,150.43647 72,149.55433 72,148.16602 V 48.095703 C 72,47.423835 71.441942,46.8219 70.546875,46.484375 L 59.101562,42.224609 C 58.639111,42.05903 58.150923,41.99041 57.679688,42.001953 Z m 22.001953,0 C 78.265924,42.035008 77,42.788882 77,43.820312 v 32.070313 c 0,0.673262 0.557064,1.296153 1.453125,1.615234 l 11.458984,4.269532 C 91.763968,82.439081 94,81.551351 94,80.160156 V 48.105469 c 0,-0.673262 -0.557065,-1.29101 -1.453125,-1.613281 L 81.105469,42.224609 c -0.463751,-0.165922 -0.951923,-0.233674 -1.423828,-0.222656 z m 21.998049,12 C 100.26598,54.03466 99,54.780193 99,55.800781 v 29.154297 c 0,0.666184 0.559247,1.278772 1.45117,1.597656 l 11.44727,4.22461 C 113.74826,91.434056 116,90.556259 116,89.179688 V 60.025391 c 0,-0.666184 -0.5561,-1.262398 -1.45117,-1.578125 l -11.44727,-4.22461 c -0.46245,-0.164178 -0.95064,-0.231605 -1.42187,-0.220703 z m 20.98437,17 C 121.25566,71.036446 120,71.790966 120,72.828125 v 48.103515 c 0,0.66923 0.5561,1.28438 1.45117,1.60156 l 11.44727,4.24219 C 134.74825,127.43511 137,126.55672 137,125.17383 V 77.072266 c 0,-0.669238 -0.55806,-1.285122 -1.45312,-1.605469 h -0.0176 l -11.44727,-4.244141 c -0.46245,-0.16493 -0.9485,-0.2322 -1.41797,-0.220703 z M 101.67969,106.00195 C 100.26598,106.03627 99,106.78637 99,107.81836 v 29.13672 c 0,0.66591 0.559247,1.27817 1.45117,1.59375 v 0.006 l 11.44727,4.22265 C 113.74826,143.43378 116,142.55959 116,141.18359 v -29.14257 c 0,-0.6659 -0.5561,-1.27697 -1.45117,-1.59571 l -11.44727,-4.22265 c -0.46245,-0.16411 -0.95064,-0.23215 -1.42187,-0.22071 z m -21.998049,5 C 78.265924,111.03583 77,111.79428 77,112.83984 v 32.03907 c 0,0.67466 0.557064,1.29425 1.453125,1.61718 l 11.458984,4.2793 C 91.763968,151.44046 94,150.55353 94,149.15625 v -32.03711 c 0,-0.67466 -0.557065,-1.29621 -1.453125,-1.61914 l -11.441406,-4.27539 c -0.463751,-0.16627 -0.951923,-0.23395 -1.423828,-0.22266 z" />
</svg>
