<?xml version="1.0" encoding="UTF-8" standalone="no"?>
<svg
   width="192"
   height="192"
   version="1"
   id="svg14"
   sodipodi:docname="apps_notification_widget.svg"
   inkscape:version="1.1.1 (1:1.1+202109281949+c3084ef5ed)"
   xmlns:inkscape="http://www.inkscape.org/namespaces/inkscape"
   xmlns:sodipodi="http://sodipodi.sourceforge.net/DTD/sodipodi-0.dtd"
   xmlns="http://www.w3.org/2000/svg"
   xmlns:svg="http://www.w3.org/2000/svg">
  <defs
     id="defs18">
    <filter
       inkscape:collect="always"
       style="color-interpolation-filters:sRGB"
       id="filter1359"
       x="-0.045279999"
       y="-0.051067668"
       width="1.09056"
       height="1.1021353">
      <feGaussianBlur
         inkscape:collect="always"
         stdDeviation="2.83"
         id="feGaussianBlur1361" />
    </filter>
    <filter
       inkscape:collect="always"
       style="color-interpolation-filters:sRGB"
       id="filter1401"
       x="-0.075"
       y="-0.075"
       width="1.15"
       height="1.15">
      <feGaussianBlur
         inkscape:collect="always"
         stdDeviation="3.0625"
         id="feGaussianBlur1403" />
    </filter>
  </defs>
  <sodipodi:namedview
     id="namedview16"
     pagecolor="#ffffff"
     bordercolor="#666666"
     borderopacity="1.0"
     inkscape:pageshadow="2"
     inkscape:pageopacity="0.0"
     inkscape:pagecheckerboard="0"
     showgrid="false"
     inkscape:zoom="1"
     inkscape:cx="24"
     inkscape:cy="120"
     inkscape:window-width="1920"
     inkscape:window-height="1022"
     inkscape:window-x="0"
     inkscape:window-y="34"
     inkscape:window-maximized="1"
     inkscape:current-layer="svg14">
    <inkscape:grid
       type="xygrid"
       id="grid1239" />
  </sodipodi:namedview>
  <path
     fill="#4f4f4f"
     d="M 37.333333,46 C 32.716667,46 29,49.707375 29,54.3125 v 99.75 c 0,4.60512 3.716725,7.91442 8.333333,7.9375 H 112.33333 L 129,179 145.66667,162 h 25 C 175.28333,162 179,158.66762 179,154.0625 v -99.75 C 179,49.707375 175.28333,46 170.66667,46 Z"
     id="path1321"
     style="opacity:0.2;fill:#000000;stroke-width:4.16146;filter:url(#filter1359)"
     sodipodi:nodetypes="sssscccsssss" />
  <path
     fill="#4f4f4f"
     d="M 37.333333,42 C 32.716667,42 29,45.707375 29,50.3125 v 99.75 c 0,4.60512 3.716725,7.91442 8.333333,7.9375 H 112.33333 L 129,175 145.66667,158 h 25 C 175.28333,158 179,154.66762 179,150.0625 v -99.75 C 179,45.707375 175.28333,42 170.66667,42 Z"
     id="path2"
     style="stroke-width:4.16146"
     sodipodi:nodetypes="sssscccsssss" />
  <path
     id="path1405"
     style="stroke-width:4.16146;fill:#ffffff;opacity:0.1"
     d="M 37.333984 42 C 32.717318 42 29 45.707375 29 50.3125 L 29 51.3125 C 29 46.707375 32.717318 43 37.333984 43 L 170.66602 43 C 175.28268 43 179 46.707375 179 51.3125 L 179 50.3125 C 179 45.707375 175.28268 42 170.66602 42 L 37.333984 42 z " />
  <circle
     fill="#4daaf5"
     cx="62"
     cy="70"
     id="circle1363"
     style="opacity:0.2;fill:#000000;stroke-width:4.08333;filter:url(#filter1401)"
     r="49" />
  <circle
     fill="#4daaf5"
     cx="62"
     cy="68"
     id="circle8"
     style="stroke-width:4.08333"
     r="49" />
  <path
     fill="#ffffff"
     d="m 58,39 v 42 h 8 V 39 Z m 0,50 v 8 h 8 v -8 z"
     id="path10"
     style="stroke-width:4.0708"
     sodipodi:nodetypes="cccccccccc" />
  <path
     id="circle1407"
     style="stroke-width:4.08333;fill:#ffffff;opacity:0.2"
     d="M 62 19 A 49 49 0 0 0 13 68 A 49 49 0 0 0 13.035156 68.5 A 49 49 0 0 1 62 20 A 49 49 0 0 1 110.98242 68.253906 A 49 49 0 0 0 111 68 A 49 49 0 0 0 62 19 z " />
</svg>
