<?xml version="1.0" encoding="UTF-8" standalone="no"?>
<svg
   width="192"
   height="192"
   version="1.1"
   id="svg14"
   sodipodi:docname="apps_extreme_assistant.svg"
   inkscape:version="1.1.1 (1:1.1+202109281949+c3084ef5ed)"
   xmlns:inkscape="http://www.inkscape.org/namespaces/inkscape"
   xmlns:sodipodi="http://sodipodi.sourceforge.net/DTD/sodipodi-0.dtd"
   xmlns="http://www.w3.org/2000/svg"
   xmlns:svg="http://www.w3.org/2000/svg">
  <defs
     id="defs18">
    <filter
       inkscape:collect="always"
       style="color-interpolation-filters:sRGB"
       id="filter849"
       x="-0.048000001"
       y="-0.048000001"
       width="1.096"
       height="1.096">
      <feGaussianBlur
         inkscape:collect="always"
         stdDeviation="3.2"
         id="feGaussianBlur851" />
    </filter>
    <filter
       inkscape:collect="always"
       style="color-interpolation-filters:sRGB"
       id="filter9822"
       x="-0.047524111"
       y="-0.048485519"
       width="1.0950482"
       height="1.096971">
      <feGaussianBlur
         inkscape:collect="always"
         stdDeviation="2.9711522"
         id="feGaussianBlur9824" />
    </filter>
    <filter
       inkscape:collect="always"
       style="color-interpolation-filters:sRGB"
       id="filter9913"
       x="-0.061199208"
       y="-0.45904452"
       width="1.1223984"
       height="1.918089">
      <feGaussianBlur
         inkscape:collect="always"
         stdDeviation="1.5300033"
         id="feGaussianBlur9915" />
    </filter>
  </defs>
  <sodipodi:namedview
     id="namedview16"
     pagecolor="#ffffff"
     bordercolor="#666666"
     borderopacity="1.0"
     inkscape:pageshadow="2"
     inkscape:pageopacity="0.0"
     inkscape:pagecheckerboard="0"
     showgrid="false"
     inkscape:zoom="1"
     inkscape:cx="42.5"
     inkscape:cy="47.5"
     inkscape:window-width="1920"
     inkscape:window-height="1019"
     inkscape:window-x="0"
     inkscape:window-y="34"
     inkscape:window-maximized="1"
     inkscape:current-layer="svg14"
     showguides="false">
    <inkscape:grid
       type="xygrid"
       id="grid1233" />
  </sodipodi:namedview>
  <circle
     style="opacity:0.2;stroke-width:4;filter:url(#filter849)"
     cx="96"
     cy="100"
     r="80"
     id="circle2" />
  <circle
     style="fill:#36285f;fill-opacity:1;stroke-width:4"
     cx="96"
     cy="96"
     r="80"
     id="circle4" />
  <path
     id="path9779"
     style="opacity:0.2;fill:#000000;fill-opacity:1;stroke-width:0.655657;stroke-linecap:round;stroke-linejoin:round;filter:url(#filter9822)"
     d="M 95.242188,32.931641 C 80.847551,32.830833 67.794264,37.364736 56,46.017578 v 5.933594 A 61,61 0 0 0 35,98 61,61 0 0 0 76.208984,155.55859 l 2.675782,5.01368 c 0,0 9.086267,3.27002 18.822265,3.42773 7.966369,0.12904 16.877909,-2.27013 22.945309,-6.53516 l 0.83008,-4.05468 a 61,61 0 0 0 35.12696,-49.94336 l 4.24218,-3.527347 C 161.69182,81.436672 160.06733,73.482592 150.58984,60 h -6.89062 A 61,61 0 0 0 107.13281,38.039062 l -3.7539,-4.570312 c -2.75815,-0.339791 -5.471049,-0.518441 -8.136722,-0.537109 z M 28.519531,40 21,51.640625 30.136719,57 38,45.017578 Z M 96,49 A 49,49 0 0 1 145,98 49,49 0 0 1 96,147 49,49 0 0 1 47,98 49,49 0 0 1 96,49 Z m 2.353516,8.171875 c -7.308449,0.01183 -14.357109,1.00536 -20.890625,3.957031 l -0.421875,2.900391 C 64.705098,70.891468 57.040179,83.883958 57,98 c 0,21.53911 17.460895,39 39,39 21.53911,0 39,-17.46089 39,-39 -0.005,-18.229064 -12.63748,-34.022772 -30.41992,-38.033203 l -1.5293,-2.658203 c -1.71096,-0.08981 -3.0107,-0.139448 -4.697264,-0.136719 z M 16.732422,63 13,76.486328 23.042969,79 27,65.083984 Z M 11,88 v 14 H 21 V 88 Z M 23.042969,111 13,113.51367 16.732422,127 27,124.91602 Z m 7.09375,22 L 21,138.35938 28.519531,150 38,144.98242 Z M 43.128906,151 36,158.58594 46.447266,168 54,160.6582 Z M 60.041016,164 55,173.70117 67.488281,180 73,170.41797 Z" />
  <path
     id="path12"
     style="opacity:0.1;fill:#ffffff;stroke-width:4"
     d="M 96,16 A 80,80 0 0 0 16,96 80,80 0 0 0 16.023438,96.638672 80,80 0 0 1 96,17 80,80 0 0 1 175.98438,96.302734 80,80 0 0 0 176,96 80,80 0 0 0 96,16 Z" />
  <path
     id="path1106"
     style="opacity:1;fill:#563dbc;stroke-width:0.655657;stroke-linecap:round;stroke-linejoin:round;fill-opacity:1"
     d="M 95.242188 30.931641 C 80.847552 30.830833 67.794264 35.364736 56 44.017578 L 56 49.951172 A 61 61 0 0 0 35 96 A 61 61 0 0 0 76.208984 153.55859 L 78.884766 158.57227 C 78.884766 158.57227 87.971033 161.84229 97.707031 162 C 105.6734 162.12904 114.58494 159.72987 120.65234 155.46484 L 121.48242 151.41016 A 61 61 0 0 0 156.60938 101.4668 L 160.85156 97.939453 C 161.69182 79.436672 160.06733 71.482592 150.58984 58 L 143.69922 58 A 61 61 0 0 0 107.13281 36.039062 L 103.37891 31.46875 C 100.62076 31.128959 97.907861 30.950309 95.242188 30.931641 z M 96 47 A 49 49 0 0 1 145 96 A 49 49 0 0 1 96 145 A 49 49 0 0 1 47 96 A 49 49 0 0 1 96 47 z " />
  <path
     id="path2631"
     style="opacity:1;fill:#6767cf;stroke-width:0.823892;stroke-linecap:round;stroke-linejoin:round;fill-opacity:1"
     d="m 98.353516,55.171875 c -7.308449,0.01183 -14.357109,1.00536 -20.890625,3.957031 l -0.421875,2.900391 C 64.705098,68.891468 57.040179,81.883958 57,96 c 0,21.53911 17.460895,39 39,39 21.53911,0 39,-17.46089 39,-39 -0.005,-18.229064 -12.63748,-34.022772 -30.41992,-38.033203 L 103.051,55.308594 c -1.71096,-0.08981 -3.01092,-0.139448 -4.697484,-0.136719 z"
     sodipodi:nodetypes="scccscccs" />
  <path
     id="path9872"
     style="opacity:0.2;fill:#000000;stroke-width:0.256228;stroke-linecap:round;stroke-linejoin:round;filter:url(#filter9913)"
     d="m 68.363281,96.00077 c 0,0 -1.998955,-0.02348 -2.3125,2.046875 -0.09441,0.812528 -0.06147,1.595927 0.125,2.341795 0.298796,0.87949 0.583065,1.38704 1.554688,1.6836 2.056488,0.90274 4.582684,1.47486 7.466797,1.79492 4.977285,0.53091 10.156573,-0.52703 10.800781,-3.39453 0.0491,-1.134956 -1.283203,-1.572269 -1.283203,-1.572269 z m 55.273439,0 -16.35156,2.900391 c 0,0 -1.33231,0.437313 -1.28321,1.572269 0.64421,2.8675 5.82349,3.92544 10.80078,3.39453 2.88411,-0.32006 5.41031,-0.89218 7.4668,-1.79492 0.97162,-0.29656 1.2559,-0.80411 1.55469,-1.6836 0.18648,-0.745868 0.21942,-1.529267 0.125,-2.341795 -0.31354,-2.070352 -2.3125,-2.046875 -2.3125,-2.046875 z" />
  <path
     id="rect3128"
     style="opacity:1;fill:#ffffff;stroke-width:0.256228;stroke-linecap:round;stroke-linejoin:round"
     d="m 68.364105,94.000012 16.351564,2.900084 c 0,0 1.332111,0.438208 1.283007,1.57316 -0.644208,2.867504 -5.823817,3.925624 -10.801102,3.394714 -2.884113,-0.32006 -5.410154,-0.89224 -7.466642,-1.79498 -0.971623,-0.296553 -1.25692,-0.804839 -1.555716,-1.684329 -0.186474,-0.74587 -0.217974,-1.528516 -0.123559,-2.341044 0.313545,-2.070352 2.312448,-2.047605 2.312448,-2.047605 z"
     sodipodi:nodetypes="cccccccc" />
  <path
     id="path4375"
     style="opacity:1;fill:#ffffff;stroke-width:0.256228;stroke-linecap:round;stroke-linejoin:round"
     d="m 123.6359,94.000012 -16.35157,2.900084 c 0,0 -1.33211,0.438208 -1.28301,1.57316 0.64421,2.867504 5.82382,3.925624 10.80111,3.394714 2.88411,-0.32006 5.41015,-0.89224 7.46664,-1.79498 0.97162,-0.296553 1.25692,-0.804839 1.55571,-1.684329 0.18648,-0.74587 0.21798,-1.528516 0.12356,-2.341044 -0.31354,-2.070352 -2.31244,-2.047605 -2.31244,-2.047605 z"
     sodipodi:nodetypes="cccccccc" />
  <path
     id="rect4485"
     style="opacity:1;fill:#4849bb;stroke-width:0.205595;stroke-linecap:round;stroke-linejoin:round;fill-opacity:1"
     d="M 28.519531 38 L 21 49.640625 L 30.136719 55 L 38 43.017578 L 28.519531 38 z M 16.732422 61 L 13 74.486328 L 23.042969 77 L 27 63.083984 L 16.732422 61 z M 11 86 L 11 100 L 21 100 L 21 86 L 11 86 z M 23.042969 109 L 13 111.51367 L 16.732422 125 L 27 122.91602 L 23.042969 109 z M 30.136719 131 L 21 136.35938 L 28.519531 148 L 38 142.98242 L 30.136719 131 z M 43.128906 149 L 36 156.58594 L 46.447266 166 L 54 158.6582 L 43.128906 149 z M 60.041016 162 L 55 171.70117 L 67.488281 178 L 73 168.41797 L 60.041016 162 z " />
  <path
     id="path9826"
     style="opacity:0.1;fill:#ffffff;stroke-width:0.655657;stroke-linecap:round;stroke-linejoin:round;fill-opacity:1"
     d="M 95.242188 30.931641 C 80.84755 30.830833 67.794264 35.364736 56 44.017578 L 56 45.017578 C 67.794264 36.364736 80.84755 31.830833 95.242188 31.931641 C 97.90786 31.950309 100.62076 32.128959 103.37891 32.46875 L 107.13281 37.039062 A 61 61 0 0 1 143.69922 59 L 150.58984 59 C 158.75505 70.615743 161.07616 78.163882 161.0293 91.853516 C 161.19404 77.51647 158.95377 69.898441 150.58984 58 L 143.69922 58 A 61 61 0 0 0 107.13281 36.039062 L 103.37891 31.46875 C 100.62076 31.128959 97.907861 30.950309 95.242188 30.931641 z M 28.519531 38 L 21 49.640625 L 21.46875 49.916016 L 28.519531 39 L 37.513672 43.759766 L 38 43.017578 L 28.519531 38 z M 56 49.951172 A 61 61 0 0 0 35 96 A 61 61 0 0 0 35.037109 96.472656 A 61 61 0 0 1 56 50.951172 L 56 49.951172 z M 98.353516 55.171875 C 91.045067 55.183705 83.996407 56.177235 77.462891 59.128906 L 77.041016 62.029297 C 64.705098 68.891468 57.040179 81.883958 57 96 C 57 96.141087 57.01999 96.277236 57.021484 96.417969 C 57.268344 82.528531 64.875544 69.796653 77.041016 63.029297 L 77.462891 60.128906 C 83.996407 57.177235 91.045067 56.183705 98.353516 56.171875 C 100.04008 56.169146 101.33982 56.218784 103.05078 56.308594 L 104.58008 58.966797 C 122.18561 62.937331 134.7236 78.462108 134.97656 96.460938 C 134.97838 96.305781 135 96.155587 135 96 C 134.995 77.770936 122.36252 61.977228 104.58008 57.966797 L 103.05078 55.308594 C 101.33982 55.218784 100.04008 55.169146 98.353516 55.171875 z M 16.732422 61 L 13 74.486328 L 13.259766 74.550781 L 16.732422 62 L 26.730469 64.029297 L 27 63.083984 L 16.732422 61 z M 11 86 L 11 87 L 21 87 L 21 86 L 11 86 z M 144.97656 96.257812 A 49 49 0 0 1 96 145 A 49 49 0 0 1 47.042969 96.5 A 49 49 0 0 0 47 97 A 49 49 0 0 0 96 146 A 49 49 0 0 0 145 97 A 49 49 0 0 0 144.97656 96.257812 z M 23.042969 109 L 13 111.51367 L 13.259766 112.44922 L 23.042969 110 L 26.730469 122.9707 L 27 122.91602 L 23.042969 109 z M 30.136719 131 L 21 136.35938 L 21.46875 137.08398 L 30.136719 132 L 37.513672 143.24023 L 38 142.98242 L 30.136719 131 z M 43.128906 149 L 36 156.58594 L 36.509766 157.04492 L 43.128906 150 L 53.462891 159.18164 L 54 158.6582 L 43.128906 149 z M 60.041016 162 L 55 171.70117 L 55.412109 171.9082 L 60.041016 163 L 72.552734 169.19531 L 73 168.41797 L 60.041016 162 z " />
</svg>
