<?xml version="1.0" encoding="UTF-8" standalone="no"?>
<svg
   xmlns:dc="http://purl.org/dc/elements/1.1/"
   xmlns:cc="http://creativecommons.org/ns#"
   xmlns:rdf="http://www.w3.org/1999/02/22-rdf-syntax-ns#"
   xmlns:svg="http://www.w3.org/2000/svg"
   xmlns="http://www.w3.org/2000/svg"
   xmlns:sodipodi="http://sodipodi.sourceforge.net/DTD/sodipodi-0.dtd"
   xmlns:inkscape="http://www.inkscape.org/namespaces/inkscape"
   width="192"
   height="192"
   version="1"
   id="svg30"
   sodipodi:docname="apps_boomcap.svg"
   inkscape:version="1.0.2 (1.0.2+r75+1)">
  <metadata
     id="metadata36">
    <rdf:RDF>
      <cc:Work
         rdf:about="">
        <dc:format>image/svg+xml</dc:format>
        <dc:type
           rdf:resource="http://purl.org/dc/dcmitype/StillImage" />
        <dc:title></dc:title>
      </cc:Work>
    </rdf:RDF>
  </metadata>
  <defs
     id="defs34">
    <filter
       inkscape:collect="always"
       style="color-interpolation-filters:sRGB"
       id="filter897"
       x="-0.043636364"
       width="1.0872727"
       y="-0.053333333"
       height="1.1066667">
      <feGaussianBlur
         inkscape:collect="always"
         stdDeviation="3.2"
         id="feGaussianBlur899" />
    </filter>
    <filter
       inkscape:collect="always"
       style="color-interpolation-filters:sRGB"
       id="filter902"
       x="-0.043967793"
       width="1.0879356"
       y="-0.052846452"
       height="1.1056929">
      <feGaussianBlur
         inkscape:collect="always"
         stdDeviation="1.7617049"
         id="feGaussianBlur904" />
    </filter>
  </defs>
  <sodipodi:namedview
     pagecolor="#ffffff"
     bordercolor="#666666"
     borderopacity="1"
     objecttolerance="10"
     gridtolerance="10"
     guidetolerance="10"
     inkscape:pageopacity="0"
     inkscape:pageshadow="2"
     inkscape:window-width="1920"
     inkscape:window-height="1018"
     id="namedview32"
     showgrid="false"
     inkscape:zoom="1"
     inkscape:cx="24.121059"
     inkscape:cy="97.53574"
     inkscape:window-x="0"
     inkscape:window-y="30"
     inkscape:window-maximized="1"
     inkscape:current-layer="svg30" />
  <path
     id="path2"
     style="opacity:0.2;stroke-width:4;filter:url(#filter902)"
     d="M 96.351562 95.998047 C 91.876266 95.865607 88.282371 98.680423 86.117188 102.43555 C 84.651768 101.48154 83.228111 100.33455 81.609375 100.11523 C 76.718619 99.452584 70.796101 102.41036 68.773438 107.77148 A 8.0008 8.0008 0 0 0 68.765625 107.78125 L 64 120.49414 L 64 106 C 64 102.676 61.324 100 58 100 L 54 100 C 50.676 100 48 102.676 48 106 L 48 134.21484 C 47.942911 134.59793 47.903207 134.99051 47.882812 135.39062 C 47.848665 136.0605 47.900553 136.74513 48 137.43164 L 48 166 C 48 169.324 50.676 172 54 172 L 58 172 C 61.324 172 64 169.324 64 166 L 64 155.16016 C 66.540259 155.92572 69.312518 155.77005 71.851562 154.89844 L 72.046875 157.07031 C 72.577299 163.03156 77.975888 167.57414 83.070312 167.96875 C 86.220624 168.21275 89.328865 166.53874 91.890625 164.13281 L 92.117188 165.69531 C 92.9727 171.66898 98.716335 175.939 103.85938 176 C 109.00446 176.061 114.84246 171.92426 115.83594 165.96875 L 116.375 162.74805 C 120.31837 164.01902 124.78507 163.63129 128 160.88867 L 128 166 C 128 169.324 130.676 172 134 172 L 138 172 C 141.324 172 144 169.324 144 166 L 144 136.60742 C 144.04276 135.99745 144.05222 135.39097 144 134.79688 L 144 106 C 144 102.676 141.324 100 138 100 L 134 100 C 130.676 100 128 102.676 128 106 L 128 124.69922 C 127.45322 124.91254 126.91183 125.15054 126.39062 125.43555 L 123.71875 113.39648 C 122.4451 107.65929 116.71422 103.86281 111.67969 103.99805 C 110.24431 104.03645 108.92059 105.01644 107.52344 105.64648 C 106.39429 100.2985 101.8736 96.159747 96.351562 95.998047 z " />
  <path
     style="opacity:0.2;stroke-width:4;filter:url(#filter897)"
     d="M 96,28 A 64,64 0 0 0 32,92 v 8.74219 C 18.302186,104.10679 8,118.61014 8,136 c 0,19.88224 13.466336,36 30.078125,36 h 6.578123 C 44.656252,172 48,172 48,168 V 136 104 92 a 48,48 0 0 1 48,-48 48,48 0 0 1 48,48 v 12 32 32 c 0,4 3.34375,4 3.34375,4 h 6.57813 C 170.53366,172 184,155.88224 184,136 184,118.61014 173.69781,104.10679 160,100.74219 V 92 A 64,64 0 0 0 96,28 Z"
     id="path8" />
  <path
     style="fill:#078bff;fill-opacity:1;stroke-width:4"
     d="M 96.351564,92 C 91.876268,91.86756 88.282372,94.682376 86.117188,98.4375 84.651768,97.483488 83.228112,96.336512 81.609376,96.117188 76.71862,95.45454 70.7961,98.412316 68.773436,103.77344 a 8.0008,8.0008 0 0 0 -0.008,0.008 l -6.25,16.67187 c -1.04692,-0.25416 -2.098276,-0.62265 -3.125,-0.57031 -3.254076,0.16588 -5.955272,1.58809 -7.9375,3.57031 -1.982224,1.98223 -3.404444,4.68343 -3.570312,7.9375 -0.16588,3.25408 1.316128,6.87419 3.75,9.21094 l 7.882812,7.88281 a 8.0008,8.0008 0 0 0 0.008,0.008 c 3.362164,3.35654 8.161068,3.83673 12.328128,2.40625 l 0.19532,2.17188 c 0.530424,5.96125 5.929012,10.50383 11.023436,10.89844 3.150312,0.244 6.258552,-1.43001 8.820312,-3.83594 l 0.22656,1.5625 c 0.855512,5.97367 6.599148,10.24369 11.742188,10.30469 5.14508,0.061 10.98308,-4.07574 11.97656,-10.03125 L 116.375,158.75 c 4.64934,1.49851 10.03462,0.70388 13.22656,-3.55469 l 0.008,-0.008 11.99219,-15.99219 a 8.0008,8.0008 0 0 0 0.008,0 c 1.99823,-2.66864 2.86895,-6.40104 2.22656,-9.54687 -0.64239,-3.14583 -2.41679,-5.59265 -4.64062,-7.25781 -2.22384,-1.66517 -5.06617,-2.6832 -8.26563,-2.41406 -1.5391,0.12948 -3.10105,0.67459 -4.53906,1.46093 l -2.67225,-12.03887 C 122.4451,103.66125 116.71422,99.864756 111.67969,100 c -1.43538,0.0386 -2.7591,1.0184 -4.15625,1.64844 C 106.39429,96.30046 101.8736,92.1617 96.351564,92 Z m 32.445316,37.60156 h 0.008 l -0.008,0.0156 c 0.002,-0.003 -0.002,-0.0132 0,-0.0156 z"
     id="path10" />
  <path
     style="fill:#878787;fill-opacity:1;stroke-width:4"
     d="M 38.078324,96 C 21.466535,96 8,112.11776 8,132 c 0,19.88224 13.466535,36 30.078324,36 h 6.579636 v 0 c 0,0 3.34204,0 3.34204,-4 V 99.999996 C 48,96.5 44.7624,96 44.7624,96 Z"
     id="path12" />
  <path
     style="fill:#878787;fill-opacity:1;stroke-width:4"
     d="M 153.92168,96 C 170.53346,96 184,112.11776 184,132 c 0,19.88224 -13.46654,36 -30.07832,36 h -6.57964 v 0 c 0,0 -3.34204,0 -3.34204,-4 V 99.999996 C 144,96.5 147.2376,96 147.2376,96 Z"
     id="path14" />
  <path
     style="fill:none;stroke:#ffffff;stroke-width:8;stroke-linecap:round;stroke-linejoin:round;stroke-opacity:1"
     d="m 60,132 8,8 12,-32 4,44 12,-48 8,56 8,-48 8,36 12,-16"
     id="path16" />
  <path
     id="path18"
     style="opacity:0.2;fill:#ffffff;stroke-width:4"
     d="M 96.351562 92 C 91.876266 91.86756 88.282371 94.682376 86.117188 98.4375 C 84.651768 97.483488 83.228111 96.336511 81.609375 96.117188 C 76.718619 95.454539 70.796101 98.412314 68.773438 103.77344 A 8.0008 8.0008 0 0 0 68.765625 103.78125 L 62.515625 120.45312 C 61.468705 120.19897 60.417349 119.83047 59.390625 119.88281 C 56.136549 120.04869 53.435353 121.4709 51.453125 123.45312 C 49.470901 125.43536 48.04868 128.13656 47.882812 131.39062 C 47.868774 131.66615 47.887442 131.94697 47.898438 132.22656 C 48.103674 129.0471 49.50495 126.40131 51.453125 124.45312 C 53.435353 122.4709 56.136549 121.04869 59.390625 120.88281 C 60.417349 120.83047 61.468705 121.19897 62.515625 121.45312 L 68.765625 104.78125 A 8.0008 8.0008 0 0 1 68.773438 104.77344 C 70.796101 99.412313 76.718619 96.45454 81.609375 97.117188 C 83.228111 97.336511 84.651768 98.483488 86.117188 99.4375 C 88.282371 95.682376 91.876266 92.86756 96.351562 93 C 101.8736 93.1617 106.39429 97.300457 107.52344 102.64844 C 108.92059 102.0184 110.24431 101.0386 111.67969 101 C 116.71422 100.86476 122.4451 104.66125 123.71875 110.39844 L 126.39062 122.4375 C 127.82864 121.65116 129.39058 121.10604 130.92969 120.97656 C 134.12914 120.70742 136.97148 121.72546 139.19531 123.39062 C 141.41915 125.05579 143.19355 127.5026 143.83594 130.64844 C 143.9286 131.10219 143.96944 131.56992 143.99023 132.04297 C 144.02665 131.22632 143.99334 130.41922 143.83594 129.64844 C 143.19355 126.5026 141.41915 124.05579 139.19531 122.39062 C 136.97148 120.72546 134.12914 119.70742 130.92969 119.97656 C 129.39058 120.10604 127.82864 120.65116 126.39062 121.4375 L 123.71875 109.39844 C 122.4451 103.66125 116.71422 99.864756 111.67969 100 C 110.24431 100.0386 108.92059 101.0184 107.52344 101.64844 C 106.39429 96.300458 101.8736 92.1617 96.351562 92 z M 128.79688 133.60156 C 128.79487 133.60356 128.79888 133.61479 128.79688 133.61719 L 128.80469 133.60156 L 128.79688 133.60156 z " />
  <rect
     style="fill:#3f3f3f;fill-opacity:1;stroke-width:4"
     width="16"
     height="72"
     x="48"
     y="96"
     rx="6"
     ry="6"
     id="rect20" />
  <rect
     style="fill:#3f3f3f;fill-opacity:1;stroke-width:4"
     width="16"
     height="72"
     x="128"
     y="96"
     rx="6"
     ry="6"
     id="rect22" />
  <path
     style="fill:#878787;fill-opacity:1;stroke-width:4"
     d="M 96,24 A 64,64 0 0 0 32,88 v 44 H 48 V 88 a 48,48 0 0 1 48,-48 48,48 0 0 1 48,48 v 44 h 16 V 88 A 64,64 0 0 0 96,24 Z"
     id="path24" />
  <path
     id="path26"
     style="opacity:0.2;fill:#ffffff;stroke-width:4"
     d="M 96 24 A 64 64 0 0 0 32 88 L 32 88.703125 A 64 64 0 0 1 96 25 A 64 64 0 0 1 160 89 L 160 88 A 64 64 0 0 0 96 24 z M 32 96.742188 C 18.302186 100.10679 8 114.61014 8 132 C 8 132.1009 8.0093178 132.19868 8.0117188 132.29883 C 8.2852034 115.22248 18.487329 101.06131 32 97.742188 L 32 96.742188 z M 160 96.742188 L 160 97.742188 C 173.51267 101.06131 183.7148 115.22248 183.98828 132.29883 C 183.99068 132.19868 184 132.1009 184 132 C 184 114.61014 173.69781 100.10679 160 96.742188 z " />
  <path
     id="path28"
     style="opacity:0.1;fill:#ffffff;stroke-width:4"
     d="M 54 96 C 50.676 96 48 98.676 48 102 L 48 103 C 48 99.676 50.676 97 54 97 L 58 97 C 61.324 97 64 99.676 64 103 L 64 102 C 64 98.676 61.324 96 58 96 L 54 96 z M 134 96 C 130.676 96 128 98.676 128 102 L 128 103 C 128 99.676 130.676 97 134 97 L 138 97 C 141.324 97 144 99.676 144 103 L 144 102 C 144 98.676 141.324 96 138 96 L 134 96 z " />
</svg>
