<?xml version="1.0" encoding="UTF-8" standalone="no"?>
<svg
   width="192"
   height="192"
   version="1"
   id="svg12"
   sodipodi:docname="apps_matlog.svg"
   inkscape:version="1.1.1 (1:1.1+202109281949+c3084ef5ed)"
   xmlns:inkscape="http://www.inkscape.org/namespaces/inkscape"
   xmlns:sodipodi="http://sodipodi.sourceforge.net/DTD/sodipodi-0.dtd"
   xmlns="http://www.w3.org/2000/svg"
   xmlns:svg="http://www.w3.org/2000/svg"
   xmlns:rdf="http://www.w3.org/1999/02/22-rdf-syntax-ns#"
   xmlns:cc="http://creativecommons.org/ns#"
   xmlns:dc="http://purl.org/dc/elements/1.1/">
  <metadata
     id="metadata18">
    <rdf:RDF>
      <cc:Work
         rdf:about="">
        <dc:format>image/svg+xml</dc:format>
        <dc:type
           rdf:resource="http://purl.org/dc/dcmitype/StillImage" />
      </cc:Work>
    </rdf:RDF>
  </metadata>
  <defs
     id="defs16">
    <filter
       inkscape:collect="always"
       style="color-interpolation-filters:sRGB"
       id="filter2482"
       x="-0.045804877"
       y="-0.050416109"
       width="1.0916098"
       height="1.1008322">
      <feGaussianBlur
         inkscape:collect="always"
         stdDeviation="3.1299999"
         id="feGaussianBlur2484" />
    </filter>
    <filter
       inkscape:collect="always"
       style="color-interpolation-filters:sRGB"
       id="filter2524"
       x="-0.081243242"
       y="-0.16103571"
       width="1.1624865"
       height="1.3220714">
      <feGaussianBlur
         inkscape:collect="always"
         stdDeviation="3.7575"
         id="feGaussianBlur2526" />
    </filter>
  </defs>
  <sodipodi:namedview
     pagecolor="#ffffff"
     bordercolor="#666666"
     borderopacity="1"
     objecttolerance="10"
     gridtolerance="10"
     guidetolerance="10"
     inkscape:pageopacity="0"
     inkscape:pageshadow="2"
     inkscape:window-width="1920"
     inkscape:window-height="1016"
     id="namedview14"
     showgrid="false"
     inkscape:zoom="1"
     inkscape:cx="100.5"
     inkscape:cy="91.5"
     inkscape:window-x="0"
     inkscape:window-y="32"
     inkscape:window-maximized="1"
     inkscape:current-layer="svg12"
     showguides="false"
     inkscape:document-rotation="0"
     inkscape:pagecheckerboard="0"
     inkscape:snap-bbox="true"
     inkscape:snap-bbox-midpoints="true"
     inkscape:snap-global="true">
    <inkscape:grid
       type="xygrid"
       id="grid852" />
  </sodipodi:namedview>
  <path
     id="path2444"
     style="opacity:0.2;fill:#000000;fill-opacity:1;stroke-width:0.366618;filter:url(#filter2482)"
     d="m 42.032796,25.000007 -3.308619,3.428072 C 27.990257,39.55204 19.664003,53.867268 16.335339,66.918202 c -2.48725,9.75201 -2.582422,20.406638 -0.263674,29.678708 0.560694,2.242079 0.554402,2.462471 -0.169924,4.96533 -4.481833,15.48671 -1.00367,30.72194 10.029372,43.92425 9.896575,11.84239 25.049493,20.70497 43.2972,25.32477 6.145466,1.55583 9.718882,2.12875 19.287254,3.09209 1.244586,0.1253 4.218936,0.11426 7.484431,0.0488 3.265494,0.0654 6.239842,0.0765 7.484432,-0.0488 9.56835,-0.96334 13.14178,-1.53626 19.28725,-3.09209 18.2477,-4.6198 33.40063,-13.48238 43.2972,-25.32477 11.03304,-13.20231 14.51121,-28.43754 10.02938,-43.92425 -0.72433,-2.502859 -0.73063,-2.723251 -0.16994,-4.96533 2.31875,-9.27207 2.22358,-19.926698 -0.26367,-29.678708 C 172.33599,53.867268 164.00973,39.55204 153.27581,28.428079 l -3.30861,-3.428072 -4.32035,2.424067 c -13.9686,7.83845 -25.58489,16.805432 -32.77564,25.299369 l -2.58595,3.053036 -2.4844,-0.353551 c -1.60982,-0.229132 -6.70355,-0.343574 -11.800862,-0.343784 -5.097322,2.1e-4 -10.191044,0.114652 -11.80087,0.343784 l -2.484393,0.353551 -2.585958,-3.053036 C 71.938033,44.229506 60.321736,35.262524 46.353142,27.424074 Z" />
  <path
     id="path1023"
     style="fill:#ed4034;stroke-width:0.366618;fill-opacity:1"
     d="m 42.032796,21.000003 -3.308619,3.428072 c -10.73392,11.123961 -19.060174,25.439189 -22.388838,38.490123 -2.48725,9.75201 -2.582422,20.406638 -0.263674,29.678708 0.560694,2.242079 0.554402,2.462471 -0.169924,4.965334 -4.481833,15.48671 -1.00367,30.72194 10.029372,43.92425 9.896575,11.84239 25.049493,20.70497 43.2972,25.32477 6.145466,1.55583 9.718882,2.12875 19.287254,3.09209 1.244586,0.1253 4.218936,0.11426 7.484431,0.0488 3.265494,0.0654 6.239842,0.0765 7.484432,-0.0488 9.56835,-0.96334 13.14178,-1.53626 19.28725,-3.09209 18.2477,-4.6198 33.40063,-13.48238 43.2972,-25.32477 11.03304,-13.20231 14.51121,-28.43754 10.02938,-43.92425 -0.72433,-2.502863 -0.73063,-2.723255 -0.16994,-4.965334 2.31875,-9.27207 2.22358,-19.926698 -0.26367,-29.678708 -3.32866,-13.050934 -11.65492,-27.366162 -22.38884,-38.490123 l -3.30861,-3.428072 -4.32035,2.424067 c -13.9686,7.83845 -25.58489,16.805432 -32.77564,25.299369 l -2.58595,3.053036 -2.4844,-0.353551 c -1.60982,-0.229132 -6.70355,-0.343574 -11.800862,-0.343784 -5.097322,2.1e-4 -10.191044,0.114652 -11.80087,0.343784 l -2.484393,0.353551 -2.585958,-3.053036 C 71.938033,40.229502 60.321736,31.26252 46.353142,23.42407 Z" />
  <path
     id="path2486"
     style="opacity:0.2;fill:#000000;stroke-width:33.0969;stroke-linecap:round;stroke-linejoin:round;filter:url(#filter2524)"
     d="m 42,78 v 8 h 24 v -8 z m 34,0 v 8 h 77 V 78 Z M 42,94 v 8 h 24 v -8 z m 34,0 v 8 h 77 v -8 z m -34,16 v 8 h 24 v -8 z m 34,0 v 8 h 77 v -8 z m -34,16 v 8 h 24 v -8 z m 34,0 v 8 h 77 v -8 z" />
  <path
     id="rect1647"
     style="opacity:1;fill:#ffffff;stroke-width:33.0969;stroke-linecap:round;stroke-linejoin:round"
     d="M 42 76 L 42 84 L 66 84 L 66 76 L 42 76 z M 76 76 L 76 84 L 153 84 L 153 76 L 76 76 z M 42 92 L 42 100 L 66 100 L 66 92 L 42 92 z M 76 92 L 76 100 L 153 100 L 153 92 L 76 92 z M 42 108 L 42 116 L 66 116 L 66 108 L 42 108 z M 76 108 L 76 116 L 153 116 L 153 108 L 76 108 z M 42 124 L 42 132 L 66 132 L 66 124 L 42 124 z M 76 124 L 76 132 L 153 132 L 153 124 L 76 124 z " />
  <path
     id="path2528"
     style="fill:#ffffff;stroke-width:0.366618;fill-opacity:1;opacity:0.2"
     d="M 42.033203 21 L 38.724609 24.427734 C 27.990689 35.551695 19.664601 49.867035 16.335938 62.917969 C 15.039097 68.00262 14.40722 73.330529 14.414062 78.582031 C 14.485396 73.656074 15.121495 68.679556 16.335938 63.917969 C 19.664602 50.867035 27.990689 36.551695 38.724609 25.427734 L 42.033203 22 L 46.353516 24.423828 C 60.32211 32.262278 71.938162 41.228719 79.128906 49.722656 L 81.714844 52.777344 L 84.199219 52.423828 C 85.809045 52.194696 90.902678 52.080288 96 52.080078 C 101.09731 52.080288 106.19096 52.194696 107.80078 52.423828 L 110.28516 52.777344 L 112.87109 49.722656 C 120.06184 41.228719 131.67788 32.262278 145.64648 24.423828 L 149.9668 22 L 153.27539 25.427734 C 164.00931 36.551695 172.3354 50.867035 175.66406 63.917969 C 176.87851 68.679556 177.5146 73.656074 177.58594 78.582031 C 177.59278 73.330529 176.9609 68.00262 175.66406 62.917969 C 172.3354 49.867035 164.00931 35.551695 153.27539 24.427734 L 149.9668 21 L 145.64648 23.423828 C 131.67788 31.262278 120.06184 40.228719 112.87109 48.722656 L 110.28516 51.777344 L 107.80078 51.423828 C 106.19096 51.194696 101.09731 51.080288 96 51.080078 C 90.902678 51.080288 85.809045 51.194696 84.199219 51.423828 L 81.714844 51.777344 L 79.128906 48.722656 C 71.938162 40.228719 60.32211 31.262278 46.353516 23.423828 L 42.033203 21 z M 16.414062 95.347656 C 16.349621 95.90687 16.202236 96.526241 15.902344 97.5625 C 14.497718 102.4161 13.874883 107.24478 14.021484 111.99414 C 13.985304 107.56691 14.595974 103.07658 15.902344 98.5625 C 16.377697 96.919946 16.514516 96.240701 16.414062 95.347656 z M 175.58594 95.347656 C 175.48549 96.240701 175.6223 96.919946 176.09766 98.5625 C 177.40403 103.07658 178.0147 107.56691 177.97852 111.99414 C 178.12512 107.24478 177.50228 102.4161 176.09766 97.5625 C 175.79776 96.526241 175.65038 95.90687 175.58594 95.347656 z " />
</svg>
