<svg xmlns="http://www.w3.org/2000/svg" width="192" height="192" version="1">
 <defs>
  <filter id="filter850" style="color-interpolation-filters:sRGB" width="1.096" height="1.096" x="-.05" y="-.05">
   <feGaussianBlur id="feGaussianBlur852" stdDeviation="3.2"/>
  </filter>
  <filter id="filter2764" style="color-interpolation-filters:sRGB" width="1.15" height="1.15" x="-.07" y="-.07">
   <feGaussianBlur id="feGaussianBlur2766" stdDeviation="2.5"/>
  </filter>
  <filter id="filter2809" style="color-interpolation-filters:sRGB" width="1.139" height="1.163" x="-.07" y="-.08">
   <feGaussianBlur id="feGaussianBlur2811" stdDeviation="3.188"/>
  </filter>
 </defs>
 <circle style="opacity:0.2;filter:url(#filter850)" cx="96" cy="100" r="80"/>
 <circle style="fill:#ffc50a" cx="96" cy="96" r="80"/>
 <circle style="opacity:0.2;filter:url(#filter2764)" cx="96" cy="99" r="40"/>
 <circle style="fill:#ababab" cx="96" cy="96" r="40"/>
 <path style="fill:#38adfa" d="m 688.80525,256.99648 c -0.33229,-0.33229 -1.1948,-0.36781 -1.91667,-0.0789 -0.79773,0.31922 -0.56078,0.55618 0.60417,0.60416 1.05416,0.0434 1.64479,-0.19293 1.3125,-0.52522 z"/>
 <path style="opacity:0.2;fill:#ffffff" d="M 96 16 A 80 80 0 0 0 16 96 A 80 80 0 0 0 16.019531 96.472656 A 80 80 0 0 1 96 17 A 80 80 0 0 1 175.97461 96.513672 A 80 80 0 0 0 176 96 A 80 80 0 0 0 96 16 z"/>
 <path style="opacity:0.2;filter:url(#filter2809)" d="m 144.8457,51.000346 c -1.68795,0.01116 -3.39893,0.510091 -4.95703,1.111328 -5.40982,2.14945 -10.26885,5.41693 -15.01758,8.71875 -1.98832,1.33275 -5.43579,4.284406 -5.74023,4.410156 0.17662,0.17537 0.0524,0.115325 0.24414,0.265625 2.1498,-1.82376 4.84527,-3.187284 7.26758,-4.615234 3.66374,-2.00414 7.28263,-4.263717 11.36523,-5.335937 2.02868,-0.4359 4.66754,-0.70701 6.15625,1.05664 1.17078,1.88388 0.21694,4.193035 -0.57031,6.046875 -2.91687,6.07254 -7.36233,11.244228 -11.75781,16.304688 -8.23485,9.075569 -17.10292,17.56392 -26.53906,25.402343 -1.21115,0.94194 -2.34791,2.00491 -3.69532,2.77149 L 93,99.000346 v 24.000004 c 0.0065,-10e-4 24,0 24,0 0,0 -5.5928,-5.63374 -8.18164,-8.35938 7.50028,-7.78683 14.77024,-15.806569 21.7793,-24.031249 2.91569,-3.4227 5.51241,-6.664847 8.33789,-10.154297 3.363,-4.341249 6.51121,-8.852274 9.11914,-13.683594 1.59973,-3.12145 3.23541,-6.492149 2.90234,-10.099609 -0.0707,-2.06927 -1.2827,-4.108078 -3.13476,-5.080078 -0.95946,-0.428385 -1.96379,-0.59849 -2.97657,-0.591797 z m -69.8457,22 c 0,0 5.5928,5.633744 8.181641,8.359375 -7.500285,7.786845 -14.770239,15.806573 -21.779297,24.031249 -2.915694,3.42271 -5.512407,6.66485 -8.337891,10.1543 -3.363002,4.34125 -6.511212,8.85228 -9.119141,13.6836 -1.599731,3.12145 -3.23541,6.49214 -2.902343,10.0996 0.07065,2.06927 1.282709,4.10808 3.134765,5.08008 2.558563,1.14236 5.440636,0.44245 7.933594,-0.51953 5.409822,-2.14945 10.268846,-5.41693 15.017578,-8.71875 1.988311,-1.33275 5.435789,-4.2844 5.740235,-4.41015 -0.176631,-0.17537 -0.05237,-0.11533 -0.244141,-0.26563 -2.149798,1.82376 -4.84527,3.18728 -7.267578,4.61524 -3.663741,2.00414 -7.282637,4.26371 -11.365234,5.33593 -2.028683,0.4359 -4.667539,0.70701 -6.15625,-1.05664 -1.170783,-1.88388 -0.216938,-4.19303 0.570312,-6.04687 2.916862,-6.07254 7.362333,-11.24423 11.757812,-16.30469 8.234854,-9.07557 17.102916,-17.563931 26.539063,-25.402348 1.211155,-0.941945 2.347903,-2.004901 3.695313,-2.771485 L 99,97.000346 v -24 c -0.0065,0.0011 -24,0 -24,0 z"/>
 <path style="fill:#0161b0" d="m 117,121 c 0,0 -23.993527,-0.001 -24,0 V 96.999997 l 8.6019,8.135753 c 1.34741,-0.76658 2.48287,-1.82878 3.69402,-2.77072 9.43615,-7.838423 18.30456,-16.326923 26.53941,-25.402492 4.39548,-5.06046 8.84142,-10.23115 11.75829,-16.30369 0.78725,-1.85384 1.74103,-4.16362 0.57025,-6.0475 -1.48871,-1.76365 -4.12802,-1.49308 -6.1567,-1.05718 -4.0826,1.07222 -7.70092,3.33188 -11.36466,5.33602 -2.42231,1.42795 -5.11769,2.79218 -7.26749,4.61594 -0.19177,-0.1503 -0.0669,-0.0903 -0.24352,-0.26567 0.30444,-0.12575 3.75138,-3.07764 5.7397,-4.41039 4.74873,-3.30182 9.60848,-6.56857 15.0183,-8.71802 2.49296,-0.96198 5.3745,-1.66343 7.93306,-0.52107 1.85206,0.972 3.06321,3.01122 3.13386,5.08049 0.33307,3.60746 -1.30199,6.97942 -2.90172,10.10087 -2.60793,4.83132 -5.75616,9.34133 -9.11916,13.682579 -2.82548,3.48945 -5.42305,6.73204 -8.33874,10.15474 -7.00906,8.22468 -14.27816,16.244763 -21.77844,24.031603 C 111.4072,115.3669 117,121 117,121 Z"/>
 <path style="fill:#e7333a" d="m 75,71 c 0,0 23.993527,0.0011 24,0 v 24 l -8.601902,-8.13575 c -1.34741,0.766584 -2.482866,1.82878 -3.694021,2.770725 -9.436147,7.838417 -18.304556,16.326915 -26.53941,25.402485 -4.395479,5.06046 -8.841424,10.23115 -11.758286,16.30369 -0.78725,1.85384 -1.741034,4.16362 -0.570252,6.0475 1.488711,1.76365 4.128017,1.49308 6.156699,1.05718 4.082598,-1.07222 7.700921,-3.33188 11.364662,-5.33602 2.422308,-1.42795 5.117691,-2.79218 7.267489,-4.61594 0.191766,0.1503 0.06689,0.0903 0.243521,0.26567 -0.304446,0.12575 -3.751387,3.07764 -5.739698,4.41039 -4.748732,3.30182 -9.608487,6.56857 -15.018309,8.71802 -2.492958,0.96198 -5.374495,1.66343 -7.933058,0.52107 -1.852056,-0.972 -3.06321,-3.01122 -3.133861,-5.08049 -0.333067,-3.60746 1.301991,-6.97942 2.901723,-10.10087 2.607929,-4.83132 5.756156,-9.34133 9.119158,-13.68258 2.825484,-3.48945 5.423051,-6.73204 8.338745,-10.15474 C 68.412258,95.165663 75.681353,87.145582 83.181638,79.358737 80.592797,76.633106 75,71 75,71 Z"/>
</svg>
