<?xml version="1.0" encoding="UTF-8" standalone="no"?>
<svg
   width="192"
   height="192"
   version="1"
   id="svg28"
   sodipodi:docname="apps_pek.svg"
   inkscape:version="1.1.1 (1:1.1+202109281949+c3084ef5ed)"
   xmlns:inkscape="http://www.inkscape.org/namespaces/inkscape"
   xmlns:sodipodi="http://sodipodi.sourceforge.net/DTD/sodipodi-0.dtd"
   xmlns="http://www.w3.org/2000/svg"
   xmlns:svg="http://www.w3.org/2000/svg"
   xmlns:rdf="http://www.w3.org/1999/02/22-rdf-syntax-ns#"
   xmlns:cc="http://creativecommons.org/ns#"
   xmlns:dc="http://purl.org/dc/elements/1.1/">
  <metadata
     id="metadata34">
    <rdf:RDF>
      <cc:Work
         rdf:about="">
        <dc:format>image/svg+xml</dc:format>
        <dc:type
           rdf:resource="http://purl.org/dc/dcmitype/StillImage" />
      </cc:Work>
    </rdf:RDF>
  </metadata>
  <defs
     id="defs32">
    <filter
       inkscape:collect="always"
       style="color-interpolation-filters:sRGB"
       id="filter6495"
       x="-0.048000001"
       y="-0.048000001"
       width="1.096"
       height="1.096">
      <feGaussianBlur
         inkscape:collect="always"
         stdDeviation="3.2"
         id="feGaussianBlur6497" />
    </filter>
    <filter
       inkscape:collect="always"
       style="color-interpolation-filters:sRGB"
       id="filter1390"
       x="-0.046802326"
       y="-0.18867187"
       width="1.0936047"
       height="1.3773437">
      <feGaussianBlur
         inkscape:collect="always"
         stdDeviation="2.515625"
         id="feGaussianBlur1392" />
    </filter>
  </defs>
  <sodipodi:namedview
     pagecolor="#ffffff"
     bordercolor="#666666"
     borderopacity="1"
     objecttolerance="10"
     gridtolerance="10"
     guidetolerance="10"
     inkscape:pageopacity="0"
     inkscape:pageshadow="2"
     inkscape:window-width="1920"
     inkscape:window-height="1022"
     id="namedview30"
     showgrid="false"
     inkscape:zoom="1"
     inkscape:cx="109"
     inkscape:cy="85"
     inkscape:window-x="0"
     inkscape:window-y="34"
     inkscape:window-maximized="1"
     inkscape:current-layer="svg28"
     inkscape:pagecheckerboard="0"
     inkscape:snap-global="false"
     showguides="false">
    <inkscape:grid
       type="xygrid"
       id="grid841" />
  </sodipodi:namedview>
  <rect
     id="rect6457"
     transform="matrix(0,-1,-1,0,0,0)"
     ry="12"
     rx="12"
     y="-176"
     x="-180"
     height="160"
     width="160"
     style="opacity:0.2;fill:#000000;fill-opacity:1;stroke-width:4;filter:url(#filter6495)" />
  <rect
     id="rect2"
     transform="matrix(0,-1,-1,0,0,0)"
     ry="12"
     rx="12"
     y="-176"
     x="-176"
     height="160"
     width="160"
     style="fill:#e4e4e4;fill-opacity:1;stroke-width:4" />
  <path
     id="path1343"
     style="opacity:0.2;fill:#000000;stroke-width:0.962139;filter:url(#filter1390)"
     d="m 31,82 v 31 H 42 V 91 h 13 v 22 H 66 V 82 Z m 55.607422,0 C 80.236465,82 70,82.791016 70,82.791016 l 1.574219,8.054687 c 0,0 7.945875,-0.917613 12.097656,-0.845703 4.080235,0 8.876953,0.916016 8.876953,0.916016 0,0 0.2865,1.070493 0.429688,3.083984 H 79 v 8 h 13.90625 c -0.143189,1.72592 -0.429688,3.1543 -0.429688,3.1543 10e-7,0 -2.29031,0.8457 -8.160156,0.8457 -5.869847,0 -12.742187,-0.8457 -12.742187,-0.8457 L 70,113.20898 c 0,0 9.806276,0.79102 16.535156,0.79102 6.728879,0 14.031254,-0.79102 14.031254,-0.79102 0,0 2.43359,-6.83215 2.43359,-15.533199 0,-8.701159 -2.36133,-14.884765 -2.36133,-14.884765 0,0 -7.660291,-0.791016 -14.031248,-0.791016 z M 107,82 v 31 h 11 v -12 h 3.77148 l 8.82032,12 H 144 L 130.87695,96.509766 143.21094,82 h -12.54883 l -8.74805,11 H 118 V 82 Z m 47.92969,0 C 152.25373,82 150,82.279297 150,82.279297 V 91 h 10 V 82.279297 C 160,82.279297 157.67584,82 154.92969,82 Z M 150,104 v 8.72461 c 0,0 2.81743,0.27539 5.07031,0.27539 C 157.32416,113 160,112.65625 160,112.65625 V 104 Z" />
  <path
     id="rect6416"
     style="opacity:0.2;fill:#ffffff;fill-opacity:1;stroke-width:4"
     d="m 28,16 c -6.648,0 -12,5.352 -12,12 v 1 c 0,-6.648 5.352,-12 12,-12 h 136 c 6.648,0 12,5.352 12,12 v -1 c 0,-6.648 -5.352,-12 -12,-12 z" />
  <path
     fill-rule="evenodd"
     clip-rule="evenodd"
     d="M 160,80.279069 C 160,80.279069 157.67596,80 154.92981,80 152.25385,80 150,80.279069 150,80.279069 V 89 h 10 z"
     fill="#e4003e"
     id="path2"
     style="stroke-width:0.962139" />
  <path
     fill-rule="evenodd"
     clip-rule="evenodd"
     d="m 160,102 h -10 v 8.72526 c 0,0 2.81731,0.27474 5.07019,0.27474 2.25385,0 4.92981,-0.34348 4.92981,-0.34348 z"
     fill="#e4003e"
     id="path4"
     style="stroke-width:0.954769" />
  <path
     fill-rule="evenodd"
     clip-rule="evenodd"
     d="m 143.21088,80 h -12.54849 l -8.74782,11 H 118 V 80 h -11 v 31 h 11 V 99 h 3.77114 l 8.81978,12 H 144 L 130.87778,94.51062 Z"
     fill="#242265"
     id="path6"
     style="stroke-width:0.995041"
     sodipodi:nodetypes="cccccccccccccc" />
  <path
     fill-rule="evenodd"
     clip-rule="evenodd"
     d="M 66,80 H 31 v 31 H 42 V 89 h 13 v 22 h 11 z"
     fill="#242265"
     id="path8"
     style="stroke-width:1.00657"
     sodipodi:nodetypes="ccccccccc" />
  <path
     fill-rule="evenodd"
     clip-rule="evenodd"
     d="M 71.57478,88.84494 70,80.791014 C 70,80.791014 80.236361,80 86.607318,80 c 6.370957,0 14.030412,0.791014 14.030412,0.791014 0,0 2.36227,6.18427 2.36227,14.885429 0,8.701047 -2.43391,15.532587 -2.43391,15.532587 0,0 -7.301438,0.79097 -14.030317,0.79097 C 79.806893,112 70,111.20903 70,111.20903 l 1.57478,-8.05396 c 0,0 6.872067,0.84493 12.741914,0.84493 5.869846,0 8.16047,-0.84493 8.16047,-0.84493 0,0 0.286377,-1.42915 0.429566,-3.15507 H 79 V 92 H 92.978275 C 92.835087,89.986509 92.548808,88.916853 92.548808,88.916853 92.548808,88.916853 87.75263,88 83.672395,88 79.520614,87.92809 71.57478,88.84494 71.57478,88.84494 Z"
     fill="#242265"
     id="path10"
     style="stroke-width:0.984823"
     sodipodi:nodetypes="ccscscsccscccccccc" />
</svg>
