<?xml version="1.0" encoding="UTF-8" standalone="no"?>
<svg
   width="192"
   height="192"
   version="1"
   id="svg28"
   sodipodi:docname="apps_microsoft_bing.svg"
   inkscape:version="1.1.1 (1:1.1+202109281949+c3084ef5ed)"
   xmlns:inkscape="http://www.inkscape.org/namespaces/inkscape"
   xmlns:sodipodi="http://sodipodi.sourceforge.net/DTD/sodipodi-0.dtd"
   xmlns="http://www.w3.org/2000/svg"
   xmlns:svg="http://www.w3.org/2000/svg"
   xmlns:rdf="http://www.w3.org/1999/02/22-rdf-syntax-ns#"
   xmlns:cc="http://creativecommons.org/ns#"
   xmlns:dc="http://purl.org/dc/elements/1.1/">
  <metadata
     id="metadata34">
    <rdf:RDF>
      <cc:Work
         rdf:about="">
        <dc:format>image/svg+xml</dc:format>
        <dc:type
           rdf:resource="http://purl.org/dc/dcmitype/StillImage" />
      </cc:Work>
    </rdf:RDF>
  </metadata>
  <defs
     id="defs32">
    <filter
       inkscape:collect="always"
       style="color-interpolation-filters:sRGB"
       id="filter1723"
       x="-0.11132076"
       y="-0.030596369"
       width="1.2226415"
       height="1.0611927">
      <feGaussianBlur
         inkscape:collect="always"
         stdDeviation="1.7625787"
         id="feGaussianBlur1725" />
    </filter>
    <filter
       inkscape:collect="always"
       style="color-interpolation-filters:sRGB"
       id="filter1727"
       x="-0.038089825"
       y="-0.064880573"
       width="1.0761796"
       height="1.1297611">
      <feGaussianBlur
         inkscape:collect="always"
         stdDeviation="1.6244776"
         id="feGaussianBlur1729" />
    </filter>
    <filter
       inkscape:collect="always"
       style="color-interpolation-filters:sRGB"
       id="filter1731"
       x="-0.089998262"
       y="-0.064286601"
       width="1.1799965"
       height="1.1285732">
      <feGaussianBlur
         inkscape:collect="always"
         stdDeviation="2.2124581"
         id="feGaussianBlur1733" />
    </filter>
  </defs>
  <sodipodi:namedview
     pagecolor="#ffffff"
     bordercolor="#666666"
     borderopacity="1"
     objecttolerance="10"
     gridtolerance="10"
     guidetolerance="10"
     inkscape:pageopacity="0"
     inkscape:pageshadow="2"
     inkscape:window-width="1920"
     inkscape:window-height="1019"
     id="namedview30"
     showgrid="false"
     inkscape:zoom="1"
     inkscape:cx="93.5"
     inkscape:cy="62.5"
     inkscape:window-x="0"
     inkscape:window-y="34"
     inkscape:window-maximized="1"
     inkscape:current-layer="svg28"
     inkscape:pagecheckerboard="0">
    <inkscape:grid
       type="xygrid"
       id="grid841" />
  </sodipodi:namedview>
  <path
     d="M 79.999937,50.021137 V 150.02277 l -5.015807,2.96402 -3.929433,2.33021 -0.966179,0.59187 c -0.02239,0.003 -0.04336,0.0127 -0.0601,0.028 -11.389431,6.18951 -25.451824,-0.64834 -27.73718,-13.48722 -0.07397,-0.41478 -0.129441,-0.84354 -0.17567,-1.25832 -0.06009,-0.78294 -0.101703,-1.55191 -0.115571,-2.3302 V 26.411495 c 0.0047,-5.136029 5.694494,-8.185801 9.920665,-5.317529 l 19.448387,12.806809 c 0.105993,0.08821 0.218846,0.167694 0.337469,0.237681 5.203706,3.582271 8.309577,9.53031 8.293416,15.882681 z"
     style="opacity:0.2;fill:#000000;fill-opacity:1;stroke-width:0.46416;filter:url(#filter1723)"
     id="path1681"
     sodipodi:nodetypes="cccccccccccccsc" />
  <path
     d="M 79.999937,46.021137 V 146.02277 l -5.015807,2.96402 -3.929433,2.33021 -0.966179,0.59187 c -0.02239,0.003 -0.04336,0.0127 -0.0601,0.028 -11.389431,6.18951 -25.451824,-0.64834 -27.73718,-13.48722 -0.07397,-0.41478 -0.129441,-0.84354 -0.17567,-1.25832 -0.06009,-0.78294 -0.101703,-1.55191 -0.115571,-2.3302 V 22.411495 c 0.0047,-5.136029 5.694494,-8.185801 9.920665,-5.317529 l 19.448387,12.806809 c 0.105993,0.08821 0.218846,0.167694 0.337469,0.237681 5.203706,3.582271 8.309577,9.53031 8.293416,15.882681 z"
     style="fill:#2863ed;fill-opacity:1;stroke-width:0.46416"
     id="path91"
     sodipodi:nodetypes="cccccccccccccsc" />
  <path
     d="m 144.66862,137.93289 c 7e-5,1.22253 -0.11225,2.44248 -0.33555,3.64444 -0.0653,0.31224 -0.13049,0.62915 -0.20506,0.93208 -0.13981,0.55925 -0.28895,1.09986 -0.46604,1.64512 -0.0979,0.27963 -0.19574,0.55925 -0.30293,0.82956 -0.10719,0.2703 -0.22836,0.54993 -0.34487,0.82955 -0.35767,0.81961 -0.77675,1.61102 -1.25365,2.36749 -0.61472,0.99245 -1.31655,1.92823 -2.09718,2.79625 -3.5792,3.95669 -15.92905,11.21278 -20.40771,14.08359 l -9.94065,6.05853 c -7.28423,4.48798 -14.172313,7.66638 -22.836017,7.88076 h -1.211707 c -0.55925,0 -1.113839,0 -1.663767,-0.0326 -14.241406,-0.54794 -27.300029,-8.07251 -34.915799,-20.119 -3.460437,-5.44795 -5.640255,-11.60977 -6.375443,-18.02181 2.301276,12.84083 16.478969,19.98141 27.962466,13.79174 l 0.06525,-0.0326 0.974026,-0.58256 3.956689,-2.3302 5.037904,-2.98266 v -0.13982 l 0.647797,-0.38682 45.270991,-27.19955 3.46735,-2.05524 0.34487,0.11651 h 0.0419 c 0.99307,0.24872 1.9629,0.58239 2.89878,0.99733 2.13709,0.92835 4.08861,2.23568 5.76026,3.85882 0.67194,0.6408 1.29506,1.33091 1.86417,2.06456 0.48649,0.61679 0.93026,1.2661 1.32822,1.94339 1.80946,3.03613 2.75538,6.5088 2.73566,10.04319 z"
     style="opacity:0.2;fill:#000000;fill-opacity:1;stroke-width:0.466041;filter:url(#filter1727)"
     id="path1683"
     sodipodi:nodetypes="ccccsccccccscccccccccccccccccccc" />
  <path
     d="m 144.66862,134.93263 c 7e-5,1.22253 -0.11225,2.44248 -0.33555,3.64444 -0.0653,0.31224 -0.13049,0.62915 -0.20506,0.93208 -0.13981,0.55925 -0.28895,1.09986 -0.46604,1.64512 -0.0979,0.27963 -0.19574,0.55925 -0.30293,0.82956 -0.10719,0.2703 -0.22836,0.54993 -0.34487,0.82955 -0.35767,0.81961 -0.77675,1.61102 -1.25365,2.36749 -0.61472,0.99245 -1.31655,1.92823 -2.09718,2.79625 -3.5792,3.95669 -15.92905,11.21278 -20.40771,14.08359 l -9.94065,6.05853 C 102.03075,172.60722 95.142667,175.78562 86.478963,176 h -1.211707 c -0.55925,0 -1.113839,0 -1.663767,-0.0326 -14.241406,-0.54794 -27.300029,-8.07251 -34.915799,-20.119 -3.460437,-5.44795 -5.640255,-11.60977 -6.375443,-18.02181 2.301276,12.84083 16.478969,19.98141 27.962466,13.79174 l 0.06525,-0.0326 0.974026,-0.58256 3.956689,-2.3302 5.037904,-2.98266 v -0.13982 l 0.647797,-0.38682 45.270991,-27.19955 3.46735,-2.05524 0.34487,0.11651 h 0.0419 c 0.99307,0.24872 1.9629,0.58239 2.89878,0.99733 2.13709,0.92835 4.08861,2.23568 5.76026,3.85882 0.67194,0.6408 1.29506,1.33091 1.86417,2.06456 0.48649,0.61679 0.93026,1.2661 1.32822,1.94339 1.80946,3.03613 2.75538,6.5088 2.73566,10.04319 z"
     style="fill:#0698ff;fill-opacity:1;stroke-width:0.466041"
     id="path89"
     sodipodi:nodetypes="ccccsccccccscccccccccccccccccccc" />
  <path
     id="path1737"
     style="opacity:0.2;fill:#ffffff;fill-opacity:1;stroke-width:0.466041"
     d="m 129.69531,115.9082 -3.46875,2.05664 -45.269529,27.19922 -0.648437,0.38672 v 0.13867 l -5.03711,2.98438 -3.957031,2.33008 -0.974609,0.58203 -0.06445,0.0332 c -11.4835,6.18967 -25.661618,-0.95214 -27.962894,-13.79297 0.111873,0.97571 0.269069,1.94376 0.447266,2.90625 3.292982,11.62151 16.614811,17.76232 27.515625,11.88672 l 0.06445,-0.0332 0.974609,-0.58203 3.957031,-2.33008 5.03711,-2.98438 v -0.13867 l 0.648437,-0.38672 45.269532,-27.19922 3.46875,-2.05664 0.34375,0.11719 h 0.043 c 0.99307,0.24872 1.96256,0.58311 2.89844,0.99805 2.13709,0.92835 4.08811,2.23428 5.75976,3.85742 0.67194,0.6408 1.29613,1.3308 1.86524,2.06445 0.48649,0.61679 0.93016,1.26607 1.32812,1.94336 1.70322,2.85786 2.62896,6.105 2.7168,9.42383 0.002,-0.12662 0.0176,-0.25221 0.0176,-0.37891 0.0197,-3.53439 -0.92492,-7.00879 -2.73438,-10.04492 -0.39796,-0.67729 -0.84163,-1.32657 -1.32812,-1.94336 -0.56911,-0.73365 -1.1933,-1.42365 -1.86524,-2.06445 -1.67165,-1.62314 -3.62267,-2.92907 -5.75976,-3.85742 -0.93588,-0.41494 -1.90537,-0.74933 -2.89844,-0.99805 h -0.043 z" />
  <path
     d="m 151.00002,121.74724 c -5.7e-4,10.92207 -4.53388,21.8391 -11.96775,29.83542 0.78081,-0.86737 1.48214,-1.80322 2.09553,-2.79625 0.47651,-0.75648 0.89525,-1.54789 1.25265,-2.36749 0.12984,-0.27005 0.24487,-0.54697 0.34459,-0.82955 0.11601,-0.27076 0.21706,-0.5477 0.30269,-0.82956 0.0978,-0.26098 0.18161,-0.53128 0.25612,-0.80159 0.0745,-0.2703 0.15367,-0.55925 0.21421,-0.84353 l 0.0326,-0.0979 c 0.0653,-0.27962 0.11642,-0.55925 0.17231,-0.84353 0.0558,-0.28429 0.15366,-0.87616 0.15366,-0.87616 v 0 c 0,0 0.0745,-0.54061 0.0978,-0.82023 0.0657,-0.63947 0.0984,-1.28191 0.0978,-1.92475 0.0102,-3.52871 -0.94649,-7.39295 -2.76609,-10.41549 -0.39702,-0.67768 -0.84047,-1.32703 -1.32714,-1.94339 -0.56857,-0.73373 -1.1912,-1.42384 -1.86269,-2.06456 -1.67033,-1.62314 -3.6203,-2.93047 -5.75569,-3.85882 -0.93553,-0.41394 -1.9045,-0.74758 -2.89646,-0.99733 h -0.0419 l -0.34459,-0.11651 -5.0339,-1.72901 v 0 l -12.76401,-4.52992 h -0.13039 l -0.82424,-0.30293 c -2.64172,-1.04904 -4.83523,-2.98719 -6.20273,-5.48064 l -4.791842,-12.294138 -5.50888,-14.0558 -1.057072,-2.712359 -0.270089,-0.549928 c -0.308109,-0.751189 -0.466307,-1.555475 -0.46567,-2.367489 -0.0118,-0.209553 -0.0118,-0.419603 0,-0.629156 0.424901,-4.110542 4.700382,-6.638973 8.503143,-5.028583 l 24.53618,12.58311 4.8383,2.474678 c 2.56175,1.522759 4.95609,3.311352 7.14339,5.33617 8.15151,7.472465 13.1186,17.796675 13.87232,28.833965 0.0559,1.02063 0.0978,2.02728 0.0978,3.04325 z"
     style="opacity:0.2;fill:#000000;fill-opacity:1;stroke-width:0.465856;filter:url(#filter1731)"
     id="path1685"
     sodipodi:nodetypes="ccccccscccsscccccccccccccccccccccccccccc" />
  <path
     d="m 151.00002,118.74685 c -5.7e-4,10.92207 -4.53388,21.8391 -11.96775,29.83542 0.78081,-0.86737 1.48214,-1.80322 2.09553,-2.79625 0.47651,-0.75648 0.89525,-1.54789 1.25265,-2.36749 0.12984,-0.27005 0.24487,-0.54697 0.34459,-0.82955 0.11601,-0.27076 0.21706,-0.5477 0.30269,-0.82956 0.0978,-0.26098 0.18161,-0.53128 0.25612,-0.80159 0.0745,-0.2703 0.15367,-0.55925 0.21421,-0.84353 l 0.0326,-0.0979 c 0.0653,-0.27962 0.11642,-0.55925 0.17231,-0.84353 0.0558,-0.28429 0.15366,-0.87616 0.15366,-0.87616 v 0 c 0,0 0.0745,-0.54061 0.0978,-0.82023 0.0657,-0.63947 0.0984,-1.28191 0.0978,-1.92475 0.0102,-3.52871 -0.94649,-7.39295 -2.76609,-10.41549 -0.39702,-0.67768 -0.84047,-1.32703 -1.32714,-1.94339 -0.56857,-0.73373 -1.1912,-1.42384 -1.86269,-2.06456 -1.67033,-1.62314 -3.6203,-2.93047 -5.75569,-3.85882 -0.93553,-0.41394 -1.9045,-0.74758 -2.89646,-0.99733 h -0.0419 l -0.34459,-0.11651 -5.0339,-1.72901 v 0 l -12.76401,-4.52992 h -0.13039 l -0.82424,-0.30293 c -2.64172,-1.04904 -4.83523,-2.98719 -6.20273,-5.48064 l -4.791842,-12.294134 -5.50888,-14.0558 -1.057072,-2.712359 -0.270089,-0.549928 c -0.308109,-0.751189 -0.466307,-1.555475 -0.46567,-2.367489 -0.0118,-0.209553 -0.0118,-0.419603 0,-0.629156 0.424901,-4.110542 4.700382,-6.638973 8.503143,-5.028583 l 24.53618,12.58311 4.8383,2.474678 c 2.56175,1.522759 4.95609,3.311352 7.14339,5.33617 8.15151,7.472465 13.1186,17.796671 13.87232,28.833961 0.0559,1.02063 0.0978,2.02728 0.0978,3.04325 z"
     style="fill:#0ed9ee;fill-opacity:1;stroke-width:0.465856"
     id="path87"
     sodipodi:nodetypes="ccccccscccsscccccccccccccccccccccccccccc" />
  <path
     id="path1735"
     style="opacity:0.1;fill:#ffffff;fill-opacity:1;stroke-width:0.46416"
     d="M 48.587891,15.992188 C 45.2045,15.880635 42.003525,18.560088 42,22.412109 v 1 c 0.0047,-5.136029 5.693751,-8.186631 9.919922,-5.318359 l 19.449219,12.806641 c 0.105993,0.08821 0.219267,0.168294 0.33789,0.238281 5.203706,3.582271 8.30913,9.530441 8.292969,15.882812 v -1 c 0.01616,-6.352371 -3.089263,-12.300541 -8.292969,-15.882812 -0.118623,-0.06999 -0.231897,-0.150071 -0.33789,-0.238281 L 51.919922,17.09375 c -1.056543,-0.717068 -2.204234,-1.064378 -3.332031,-1.101562 z" />
  <path
     id="path1739"
     style="opacity:0.2;fill:#ffffff;fill-opacity:1;stroke-width:0.465856"
     d="m 98.351562,65.990234 c -3.110282,-0.120425 -5.996564,2.173857 -6.341796,5.513672 -0.0118,0.209553 -0.0118,0.419354 0,0.628906 -7.7e-5,0.09727 0.0092,0.194048 0.01367,0.291016 0.472852,-4.062095 4.710859,-6.546925 8.488284,-4.947266 l 24.53711,12.582032 4.83789,2.474609 c 2.56175,1.522759 4.95528,3.31112 7.14258,5.335938 8.15151,7.472465 13.11932,17.796699 13.87304,28.833979 0.0477,0.87128 0.074,1.73227 0.084,2.59766 0.003,-0.18479 0.0137,-0.36988 0.0137,-0.55469 0,-1.01597 -0.0418,-2.02234 -0.0977,-3.04297 -0.75372,-11.03728 -5.72153,-21.361514 -13.87304,-28.833979 -2.1873,-2.024818 -4.58083,-3.813179 -7.14258,-5.335938 L 125.04883,79.058594 100.51172,66.476562 C 99.798699,66.174614 99.069318,66.018025 98.35156,65.990234 Z M 144.0332,135.92773 c -0.01,0.5168 -0.0253,1.03454 -0.0781,1.54883 -0.0233,0.27962 -0.0977,0.82032 -0.0977,0.82032 0,0 -0.0985,0.59266 -0.1543,0.87695 -0.0559,0.28428 -0.10657,0.56218 -0.17187,0.84179 l -0.0332,0.0996 c -0.0605,0.28428 -0.14035,0.5715 -0.21485,0.8418 -0.0745,0.27031 -0.15806,0.54176 -0.25586,0.80274 -0.0856,0.28186 -0.18672,0.55931 -0.30273,0.83007 -0.0997,0.28258 -0.21391,0.55808 -0.34375,0.82813 -0.3574,0.8196 -0.7774,1.61071 -1.25391,2.36719 -0.61339,0.99303 -1.31294,1.9295 -2.09375,2.79687 1.15316,-1.2404 2.22691,-2.55766 3.23438,-3.92773 0.0361,-0.0796 0.0783,-0.15619 0.11328,-0.23633 0.12984,-0.27005 0.24403,-0.54555 0.34375,-0.82813 0.11601,-0.27076 0.2171,-0.54821 0.30273,-0.83007 0.0978,-0.26098 0.18135,-0.53243 0.25586,-0.80274 0.0745,-0.2703 0.15431,-0.55752 0.21485,-0.8418 l 0.0332,-0.0996 c 0.0653,-0.27961 0.11598,-0.55751 0.17187,-0.84179 0.0558,-0.28429 0.1543,-0.87695 0.1543,-0.87695 0,0 0.0744,-0.5407 0.0977,-0.82032 0.0657,-0.63947 0.0982,-1.28294 0.0976,-1.92578 6e-4,-0.20572 -0.0136,-0.41528 -0.0195,-0.62305 z" />
</svg>
