<?xml version="1.0" encoding="UTF-8" standalone="no"?>
<svg
   width="192"
   height="192"
   version="1"
   id="svg22"
   sodipodi:docname="apps_pionex.svg"
   inkscape:version="1.1.1 (1:1.1+202109281949+c3084ef5ed)"
   xmlns:inkscape="http://www.inkscape.org/namespaces/inkscape"
   xmlns:sodipodi="http://sodipodi.sourceforge.net/DTD/sodipodi-0.dtd"
   xmlns="http://www.w3.org/2000/svg"
   xmlns:svg="http://www.w3.org/2000/svg">
  <sodipodi:namedview
     id="namedview24"
     pagecolor="#ffffff"
     bordercolor="#666666"
     borderopacity="1.0"
     inkscape:pageshadow="2"
     inkscape:pageopacity="0.0"
     inkscape:pagecheckerboard="0"
     showgrid="false"
     inkscape:zoom="3.5520833"
     inkscape:cx="96"
     inkscape:cy="96.140762"
     inkscape:window-width="1920"
     inkscape:window-height="1019"
     inkscape:window-x="0"
     inkscape:window-y="34"
     inkscape:window-maximized="1"
     inkscape:current-layer="svg22" />
  <defs
     id="defs4">
    <filter
       id="filter1351"
       style="color-interpolation-filters:sRGB"
       width="1.1389742"
       height="1.1628913"
       x="-0.069487106"
       y="-0.081445664">
      <feGaussianBlur
         id="feGaussianBlur1353"
         stdDeviation="4.751" />
    </filter>
  </defs>
  <path
     style="opacity:0.2;filter:url(#filter1351)"
     d="m 40.238281,29.000485 14.490235,26.904297 c 6.336756,11.765912 18.573767,19.095703 31.878906,19.095703 -2.50427,0 -4.970863,0.259718 -7.367188,0.759766 -10.374863,2.144891 -19.442923,8.782982 -24.59375,18.373046 -0.609756,1.135282 -1.207479,2.229383 -1.820312,3.363282 -0.480615,0.775038 -0.954115,1.557526 -1.392578,2.365236 L 41.105469,118.88915 c -0.178006,0.31996 -0.911969,1.64762 -0.947266,1.71094 h -0.06641 c 0.01944,2.6e-4 0.04487,0.002 0.06445,0.002 -0.008,0.0144 -0.216797,0.39258 -0.216797,0.39258 h 0.02344 l -26.056636,48.0019 38.949219,0.004 c 14.13831,7.8e-4 27.440814,-7.72112 34.173828,-20.11719 l 7.337891,-13.61133 c 3.442437,-6.30459 7.620972,-13.95628 7.792972,-14.27148 h 30.11718 c 25.26117,0 45.72266,-20.59435 45.72266,-45.999995 0,-25.405134 -20.46149,-46 -45.72266,-46 z"
     id="path6" />
  <path
     style="fill:#ff9f3b"
     d="M 54.728987,91.096014 C 61.065743,79.329962 73.301951,72 86.60709,72 H 178 c 0,25.405654 -20.4612,46 -45.72237,46 H 40.238762 Z"
     id="path8" />
  <path
     style="fill:#ff8631"
     d="M 54.728987,52.904475 C 61.065743,64.670387 73.301951,72 86.60709,72 H 178 C 178,46.594866 157.5388,26 132.27763,26 H 40.238762 Z"
     id="path10" />
  <path
     style="fill:#ff9e3a"
     d="M 51.434291,96.861395 C 59.751946,81.539259 75.821239,71.99515 93.294584,72.000002 l 33.562256,0.0094 L 87.028804,145.883 C 80.29579,158.27907 66.993527,166.00078 52.855217,166 l -38.949848,-0.003 z"
     id="path12" />
  <path
     style="opacity:0.278004;fill:#ff6445;fill-opacity:1"
     d="M 89.216108,141.70427 C 74.138049,120.34452 49.186078,117.71974 40.09129,117.60001 h 62.28791 c 0,0 -8.855186,16.22837 -13.163092,24.10426 z"
     id="path14" />
  <path
     style="fill:#ffb945"
     d="m 86.562355,72.011602 c -13.32633,0 -25.581373,7.32941 -31.914912,19.121507 C 47.573344,104.30411 39.939,117.99447 39.939,117.99447 h 62.14013 l 24.76516,-45.982868 z"
     id="path16" />
  <path
     style="fill:#ffffff;opacity:0.2"
     d="M 86.607422 72 C 84.103152 72 81.636559 72.259718 79.240234 72.759766 C 68.865371 74.904657 59.797311 81.542748 54.646484 91.132812 C 47.572385 104.30381 39.939453 117.99414 39.939453 117.99414 L 40.242188 117.99414 L 40.238281 118 L 40.490234 118 C 41.305199 116.53673 47.986528 104.53273 54.646484 92.132812 C 59.797311 82.542748 68.865371 75.904657 79.240234 73.759766 C 81.636559 73.259718 84.103152 73 86.607422 73 L 177.97461 73 C 177.98171 72.66632 178 72.335393 178 72 L 86.607422 72 z"
     id="path18" />
  <path
     style="fill:#ffffff;opacity:0.2"
     d="M 40.238281 26 L 40.777344 27 L 132.27734 27 C 157.20503 27 177.4442 47.058296 177.97461 72 L 178 72 C 178 46.594866 157.53851 26 132.27734 26 L 40.238281 26 z"
     id="path20" />
</svg>
