<?xml version="1.0" encoding="UTF-8" standalone="no"?>
<svg
   width="192"
   height="192"
   version="1"
   id="svg28"
   sodipodi:docname="apps_miracast.svg"
   inkscape:version="1.1.1 (1:1.1+202109281949+c3084ef5ed)"
   xmlns:inkscape="http://www.inkscape.org/namespaces/inkscape"
   xmlns:sodipodi="http://sodipodi.sourceforge.net/DTD/sodipodi-0.dtd"
   xmlns="http://www.w3.org/2000/svg"
   xmlns:svg="http://www.w3.org/2000/svg"
   xmlns:rdf="http://www.w3.org/1999/02/22-rdf-syntax-ns#"
   xmlns:cc="http://creativecommons.org/ns#"
   xmlns:dc="http://purl.org/dc/elements/1.1/">
  <metadata
     id="metadata34">
    <rdf:RDF>
      <cc:Work
         rdf:about="">
        <dc:format>image/svg+xml</dc:format>
        <dc:type
           rdf:resource="http://purl.org/dc/dcmitype/StillImage" />
      </cc:Work>
    </rdf:RDF>
  </metadata>
  <defs
     id="defs32">
    <filter
       inkscape:collect="always"
       style="color-interpolation-filters:sRGB"
       id="filter3631"
       x="-0.048000001"
       y="-0.048000001"
       width="1.096"
       height="1.096">
      <feGaussianBlur
         inkscape:collect="always"
         stdDeviation="3.2"
         id="feGaussianBlur3633" />
    </filter>
    <filter
       inkscape:collect="always"
       style="color-interpolation-filters:sRGB"
       id="filter3714"
       x="-0.050448978"
       y="-0.061799998"
       width="1.100898"
       height="1.1236">
      <feGaussianBlur
         inkscape:collect="always"
         stdDeviation="2.06"
         id="feGaussianBlur3716" />
    </filter>
  </defs>
  <sodipodi:namedview
     pagecolor="#ffffff"
     bordercolor="#666666"
     borderopacity="1"
     objecttolerance="10"
     gridtolerance="10"
     guidetolerance="10"
     inkscape:pageopacity="0"
     inkscape:pageshadow="2"
     inkscape:window-width="1920"
     inkscape:window-height="1019"
     id="namedview30"
     showgrid="false"
     inkscape:zoom="1"
     inkscape:cx="107.5"
     inkscape:cy="56.5"
     inkscape:window-x="0"
     inkscape:window-y="34"
     inkscape:window-maximized="1"
     inkscape:current-layer="svg28"
     inkscape:pagecheckerboard="0"
     inkscape:snap-bbox="true"
     inkscape:snap-bbox-midpoints="true">
    <inkscape:grid
       type="xygrid"
       id="grid841" />
  </sodipodi:namedview>
  <rect
     id="rect3593"
     transform="matrix(0,-1,-1,0,0,0)"
     ry="18"
     rx="18"
     y="-176"
     x="-180"
     height="160"
     width="160"
     style="opacity:0.2;fill:#000000;fill-opacity:1;stroke-width:4;filter:url(#filter3631)" />
  <rect
     id="rect2"
     transform="matrix(0,-1,-1,0,0,0)"
     ry="18"
     rx="18"
     y="-176"
     x="-176"
     height="160"
     width="160"
     style="fill:#1094fd;fill-opacity:1;stroke-width:4" />
  <path
     id="path3676"
     style="opacity:0.2;fill:#000000;stroke-width:11.1237;stroke-linecap:round;stroke-linejoin:round;filter:url(#filter3714)"
     d="m 57,58 c -5.54,0 -10,4.46 -10,10 v 12 h 9 V 67 h 80 v 62 h -31 v 9 h 30 c 5.54,0 10,-4.46 10,-10 V 68 c 0,-5.54 -4.46,-10 -10,-10 z M 47,88 v 10 c 22.150592,0 40.000001,17.84941 40,40 h 10 c 2e-6,-27.55499 -22.445012,-50 -50,-50 z m 0,18 v 10 c 12.209475,0 22,9.79052 22,22 H 79 C 79,120.38613 64.613871,106 47,106 Z m 0,18 v 14 H 61 A 14,14 0 0 0 47,124 Z" />
  <path
     id="rect1183"
     style="opacity:1;fill:#ffffff;stroke-width:11.1237;stroke-linecap:round;stroke-linejoin:round"
     d="M 57 56 C 51.46 56 47 60.46 47 66 L 47 78 L 56 78 L 56 65 L 136 65 L 136 127 L 105 127 L 105 136 L 135 136 C 140.54 136 145 131.54 145 126 L 145 66 C 145 60.46 140.54 56 135 56 L 57 56 z M 47 86 L 47 96 C 69.150592 96 87.000001 113.84941 87 136 L 97 136 C 97.000002 108.44501 74.554988 86 47 86 z M 47 104 L 47 114 C 59.209475 114 69 123.79052 69 136 L 79 136 C 79 118.38613 64.613871 104 47 104 z M 47 122 L 47 136 L 61 136 A 14 14 0 0 0 47 122 z " />
  <path
     id="rect3635"
     style="fill:#ffffff;fill-opacity:1;stroke-width:4;opacity:0.2"
     d="M 34 16 C 24.028 16 16 24.028 16 34 L 16 35 C 16 25.028 24.028 17 34 17 L 158 17 C 167.972 17 176 25.028 176 35 L 176 34 C 176 24.028 167.972 16 158 16 L 34 16 z " />
</svg>
