<?xml version="1.0" encoding="UTF-8" standalone="no"?>
<svg
   width="192"
   height="192"
   version="1"
   id="svg16"
   sodipodi:docname="apps_nasa.svg"
   inkscape:version="1.1.1 (1:1.1+202109281949+c3084ef5ed)"
   xmlns:inkscape="http://www.inkscape.org/namespaces/inkscape"
   xmlns:sodipodi="http://sodipodi.sourceforge.net/DTD/sodipodi-0.dtd"
   xmlns="http://www.w3.org/2000/svg"
   xmlns:svg="http://www.w3.org/2000/svg"
   xmlns:rdf="http://www.w3.org/1999/02/22-rdf-syntax-ns#"
   xmlns:cc="http://creativecommons.org/ns#"
   xmlns:dc="http://purl.org/dc/elements/1.1/">
  <metadata
     id="metadata22">
    <rdf:RDF>
      <cc:Work
         rdf:about="">
        <dc:format>image/svg+xml</dc:format>
        <dc:type
           rdf:resource="http://purl.org/dc/dcmitype/StillImage" />
      </cc:Work>
    </rdf:RDF>
  </metadata>
  <defs
     id="defs20">
    <filter
       inkscape:collect="always"
       style="color-interpolation-filters:sRGB"
       id="filter4816"
       x="-0.041964912"
       y="-0.0560625"
       width="1.0839298"
       height="1.112125">
      <feGaussianBlur
         inkscape:collect="always"
         stdDeviation="2.99"
         id="feGaussianBlur4818" />
    </filter>
    <filter
       inkscape:collect="always"
       style="color-interpolation-filters:sRGB"
       id="filter1372"
       x="-0.048"
       y="-0.048"
       width="1.096"
       height="1.096">
      <feGaussianBlur
         inkscape:collect="always"
         stdDeviation="3"
         id="feGaussianBlur1374" />
    </filter>
  </defs>
  <sodipodi:namedview
     pagecolor="#ffffff"
     bordercolor="#666666"
     borderopacity="1"
     objecttolerance="10"
     gridtolerance="10"
     guidetolerance="10"
     inkscape:pageopacity="0"
     inkscape:pageshadow="2"
     inkscape:window-width="1920"
     inkscape:window-height="1019"
     id="namedview18"
     showgrid="false"
     inkscape:zoom="3.52"
     inkscape:cx="93.039773"
     inkscape:cy="104.40341"
     inkscape:window-x="0"
     inkscape:window-y="34"
     inkscape:window-maximized="1"
     inkscape:current-layer="svg16"
     inkscape:pagecheckerboard="0"
     inkscape:snap-bbox="true"
     inkscape:snap-bbox-midpoints="true">
    <inkscape:grid
       type="xygrid"
       id="grid7495" />
  </sodipodi:namedview>
  <circle
     cx="92"
     cy="97"
     fill="#0b3d91"
     id="circle1334"
     style="opacity:0.2;fill:#000000;fill-opacity:1;stroke-width:1.86846;filter:url(#filter1372)"
     r="75" />
  <circle
     cx="92"
     cy="93"
     fill="#0b3d91"
     id="circle2"
     style="fill:#0058a9;fill-opacity:1;stroke-width:1.86846"
     r="75" />
  <path
     id="circle1376"
     style="fill:#ffffff;fill-opacity:1;stroke-width:1.86846;opacity:0.1"
     d="M 92 18 A 75 75 0 0 0 17 93 A 75 75 0 0 0 17.035156 93.5 A 75 75 0 0 1 92 19 A 75 75 0 0 1 166.98242 93.253906 A 75 75 0 0 0 167 93 A 75 75 0 0 0 92 18 z " />
  <path
     id="path4767"
     style="opacity:0.2;fill:#000000;fill-opacity:1;stroke-width:1.74371;filter:url(#filter4816)"
     d="M 181,34 C 169.07557,49.177542 154.97756,57.862407 146.58984,62.783203 137.12906,68.332839 122.25555,75.019625 107.7832,80.716797 93.299115,62.911718 76.547331,51.697522 65.714844,52.005859 63.1432,52.079059 60.905167,52.801194 59.111328,54.236328 51.722123,60.147163 54.703501,77.35938 64.808594,95.496094 61.378225,96.664688 57.781977,97.939312 54,99.328125 V 88.621094 C 54,87.042985 56.103127,85.129354 56.589844,85 H 48.648438 C 49.288856,85.284577 51,87.172338 51,88.621094 v 11.800786 c -0.176681,0.0664 -0.340501,0.12261 -0.517578,0.18945 L 41.476562,85 H 30 c 1.203985,0.983085 3,2.277359 3,3.855469 0,0.724377 0.102467,17.409591 0,18.703121 -0.0054,0.068 -0.01676,0.13739 -0.0293,0.20703 -8.284676,3.682 -16.283976,7.73243 -22.970703,12.0586 l 1.882812,0.73242 c 8.431753,-4.76642 15.0404,-7.5147 20.876954,-9.55664 h 5.949218 c -0.557832,-0.4529 -1.127164,-0.94036 -1.603515,-1.44922 2.027816,-0.64895 4.002828,-1.25625 5.943359,-1.86719 0.209556,-0.066 0.560816,-0.1604 0.791016,-0.23047 l 2.09375,3.4961 H 57 c -0.794118,-0.6209 -3,-2.22645 -3,-3.39063 v -2.89648 c 3.955688,-1.02835 8.457247,-2.16649 13.105469,-3.33398 -0.929436,3.32631 -1.763603,6.27128 -1.875,6.59375 C 64.836561,109.06019 62.814076,110.32736 62,111 h 8.429688 C 69.589349,110.06865 68.90689,109.16373 69.064453,108.12891 69.222015,107.09408 69.693359,105 69.693359,105 h 1.033203 c 1.506678,2.18763 3.097939,4.36436 4.789063,6.50781 1.925201,2.44036 3.675456,4.40502 4.572266,5.62696 0.136554,0.18593 0.455701,0.67048 0.771484,1.14453 0.557725,-0.37886 1.093107,-0.74225 1.660156,-1.12696 -0.449878,-0.50462 -0.897712,-1.01638 -1.330078,-1.56445 -1.083407,-1.37306 -2.430963,-3.04578 -3.707031,-4.63867 H 91.707031 C 80.664685,118.37383 68.676283,126.56274 64.492188,129.45312 57.068393,134.5815 36.06593,154.04755 30,159.69922 V 162 c 19.557399,-17.58299 25.882097,-21.91933 33.65625,-27.83789 5.030123,-3.83003 12.81504,-9.31761 20.119141,-14.3457 -0.467493,0.32294 -0.931547,0.64394 -1.410157,0.97461 2.051944,2.89234 5.089642,6.68839 7.236328,7.71093 3.296387,1.57229 4.184103,-1.25553 2.572266,-2.79297 -1.226026,-1.16818 -4.685897,-3.40637 -7.800781,-6.29882 C 89.85621,115.64137 94.672123,112.4039 98,110.22656 V 113 c 0.674713,-1.3396 1.649635,-2.53832 2.79492,-2.59961 0.49305,-0.0263 2.20709,1.99361 9.26563,1.59961 3.42546,-0.19087 10.04129,-4.30537 9.9375,-8.56055 -0.0594,-2.39614 -1.24529,-4.284345 -2.83985,-5.769528 -2.36652,1.575134 -5.2863,3.459648 -8.04492,5.267578 1.12926,0.60117 1.84879,1.34312 1.93945,2.28711 0.17993,1.89468 -3.37977,3.1108 -6.77929,2.7168 -0.6799,-0.0788 -1.34772,-0.25834 -1.98438,-0.5 -0.14081,0.0919 -0.28244,0.16912 -0.42383,0.24218 2.54779,-1.6438 4.76264,-3.11721 7.24805,-4.74609 2.75862,-1.80793 5.6784,-3.692444 8.04492,-5.267578 0.17558,-0.116861 0.42327,-0.277665 0.59571,-0.392578 2.5025,4.182446 4.58014,8.264486 6.19726,12.144536 C 123.25566,110.04974 122.44416,110.62061 122,111 h 2.57422 c 4.46212,11.45541 4.71633,20.95016 -0.48438,25.58008 -2.20048,1.95927 -8.92358,2.72807 -17.73242,-1.26367 -0.12291,0.15513 0.0745,0.57488 0.22852,0.67773 7.60385,3.07835 14.88718,4.2512 18.56445,1.31055 5.09735,-4.07838 4.96826,-14.12488 0.48242,-26.30469 h 4.52149 c -0.81287,-0.93135 -1.47274,-1.83627 -1.32032,-2.87109 C 128.98639,107.09408 129.44336,105 129.44336,105 h 8.43359 c 0.38103,1.03482 0.66517,1.98976 0.8125,2.87109 0.17782,1.06069 -0.8902,2.25027 -1.83007,3.07813 H 152 c -0.83827,-0.20697 -1.77906,-1.21528 -2.28711,-2.56055 C 149.20485,107.0434 141.17969,85 141.17969,85 h -5.64063 c -1.66333,1.196933 -3.47016,2.473161 -5.36914,3.800781 -0.005,0.04434 -0.008,0.09004 -0.0156,0.132813 -0.25064,1.552239 -4.75496,18.167326 -5.0293,18.988286 -0.0774,0.23137 -0.22362,0.46717 -0.4082,0.70312 -1.56755,-3.86399 -3.56065,-7.90679 -5.93946,-12.023438 4.23732,-2.839943 7.95413,-5.396886 11.39258,-7.800781 1.89898,-1.32762 3.70581,-2.603848 5.36914,-3.800781 5.52564,-3.97624 9.87445,-7.295887 12.93555,-9.869141 C 156.31849,68.537236 174.20198,53.780867 181,34 Z M 66.550781,53.402344 c 10.07653,0.0021 25.893497,10.901267 39.826169,27.849609 -7.807222,3.015309 -16.496991,6.156212 -22.886716,8.164063 C 82.967382,88.027747 81.826172,85 81.826172,85 H 68.171875 c 0.656512,0.595026 2.546678,2.198308 2.257813,3.931641 -0.08065,0.486441 -0.639481,2.598143 -1.314454,5.09375 -0.856841,0.284485 -1.843014,0.632235 -2.736328,0.933593 C 56.184708,77.294447 53.420129,60.925436 60.388672,55.349609 62.040003,54.028541 64.129507,53.40183 66.550781,53.402344 Z M 147.11523,71.572266 C 144.22753,74.310403 137.27353,79.703955 130.12695,85 h -2.1582 c 0.17734,0.166723 0.76982,0.412755 1.1875,0.716797 -4.19575,3.094702 -8.36583,6.108396 -11.8125,8.470703 -1.06227,-1.736998 -2.20111,-3.479497 -3.39844,-5.224609 1.47007,0.636174 2.58226,1.406588 3.05469,1.814453 v -3.982422 c 10.36233,-4.035498 21.24933,-9.125271 30.11523,-15.222656 z m -35.03125,17.101562 c 1.49223,2.085555 2.88971,4.163338 4.18946,6.222656 -0.53978,0.361249 -0.92148,0.592764 -1.47852,0.958985 -0.78324,-0.435079 -1.76493,-0.961757 -2.24609,-1.191407 -3.12063,-1.480607 -6.37787,-1.824544 -7.36328,-3.625 2.3146,-0.761857 4.6534,-1.564242 6.89843,-2.365234 z m -38.660152,3.570313 0.140625,0.351562 c -0.100634,0.03246 -0.172003,0.05512 -0.273437,0.08789 z m 59.626952,0 L 136.80859,102 h -6.60351 z m -36.009764,1.326171 c 0.451094,5.182908 4.851844,6.702858 7.412104,7.607418 0.16031,0.0564 0.86571,0.17874 1.52344,0.29493 -1.94657,1.26065 -4.33168,2.84284 -6.837888,4.50781 C 98.368035,105.29252 98.204396,104.23415 98,104.01758 v 2.72461 c -1.68737,1.12357 -3.408595,2.27417 -5.216797,3.48828 -0.605611,-0.36136 -1.649967,-0.60699 -2.132812,-1.84375 -0.256131,-0.65606 -2.406484,-6.35302 -4.496094,-11.896486 3.630694,-0.937581 7.264354,-1.875129 9.919922,-2.623046 0.274388,-0.07725 0.677905,-0.213493 0.966797,-0.296876 z M 36,94.365234 l 5.794922,9.673826 c -1.93821,0.78779 -3.86263,1.5711 -5.794922,2.40235 z m 75.24219,3.792969 c -0.65023,0.376185 -1.72545,1.054845 -2.81836,1.746094 1.14833,-0.730573 2.16476,-1.367962 2.81836,-1.746094 z M 76.134766,99.050781 77.310547,102 h -6.490235 c -0.07708,-0.11346 -0.159816,-0.22638 -0.236328,-0.33984 l 0.394532,-1.31055 c 1.748806,-0.438683 3.424723,-0.863143 5.15625,-1.298829 z M 72.902344,105 h 5.509765 c 0.393906,1.03482 0.689486,1.98781 0.841797,2.86914 0.179424,1.03529 -0.866601,2.19282 -1.820312,3.01758 -0.510449,-0.63736 -1.035323,-1.28769 -1.486328,-1.85938 C 74.892687,107.69083 73.878071,106.34651 72.902344,105 Z" />
  <path
     id="path84"
     style="fill:#ef3a42;fill-opacity:1;stroke-width:1.74371"
     d="m 181,32 c -11.92443,15.177542 -26.02244,23.862407 -34.41016,28.783203 -9.52769,5.58888 -24.54459,12.335398 -39.11328,18.058594 -8.13497,3.164241 -17.466922,6.534157 -24.162107,8.630859 C 69.709685,91.735835 32.48578,103.2764 10,117.82422 l 1.882812,0.73242 c 13.70064,-7.74489 22.605732,-10.17803 31.166016,-12.87305 9.308068,-2.93049 39.399705,-9.978845 53.025391,-13.816402 4.603481,-1.296048 11.342381,-3.485477 17.052731,-5.550782 -1.32823,-1.854238 -3.13472,-4.327611 -4.60937,-6.183594 1.62804,2.05135 3.16436,4.116545 4.60937,6.183594 11.45206,-4.221315 24.01783,-9.887122 33.98828,-16.74414 -4.74991,4.503897 -20.45453,16.25035 -30.02929,22.796875 0.4933,0.804143 0.97166,1.60755 1.43359,2.408203 14.50593,-9.714255 24.26739,-16.865237 29.95508,-21.646485 C 156.31849,66.537236 174.20198,51.780867 181,32 Z m -62.48047,62.777344 c -0.0855,-0.143037 -0.39115,-0.484126 -0.47656,-0.628906 -0.39394,-0.647151 -0.5474,-1.126912 -0.95703,-1.779297 -1.96968,1.330935 -4.68809,3.119234 -5.84375,3.789062 C 104.54875,100.03065 71.91598,122.32475 64.492188,127.45312 57.068393,132.5815 36.06593,152.04755 30,157.69922 V 160 c 19.557399,-17.58299 25.882097,-21.91933 33.65625,-27.83789 9.621822,-7.32624 29.526104,-20.87925 36.291016,-25.22266 6.466834,-4.15154 13.337784,-8.668185 18.572264,-12.162106 z"
     sodipodi:nodetypes="ccccccccccccccccccccsccccc" />
  <path
     id="path86"
     style="fill:#ffffff;stroke-width:1.7372"
     d="M 65.714844 50.005859 C 63.1432 50.079059 60.905167 50.801194 59.111328 52.236328 C 51.721073 58.148003 54.703947 75.364353 64.8125 93.503906 C 65.33382 93.32728 65.874464 93.139965 66.384766 92.96875 C 56.185834 75.300386 53.418813 58.926489 60.388672 53.349609 C 69.195773 46.303909 90.461169 58.999507 108.09961 81.351562 C 111.75092 85.977811 114.96156 90.621549 117.67969 95.148438 C 128.08824 112.4925 131.28164 128.1776 124.08984 134.58008 C 121.88936 136.53935 115.16626 137.30815 106.35742 133.31641 C 106.23451 133.47154 106.4319 133.89129 106.58594 133.99414 C 114.18979 137.07249 121.47312 138.24534 125.15039 135.30469 C 133.98693 128.23459 127.19795 103.26772 109.0332 80.248047 C 94.274343 61.544563 76.858632 49.688661 65.714844 50.005859 z M 70.046875 98.884766 C 69.458235 99.032931 68.870112 99.181911 68.283203 99.330078 C 70.461172 102.75183 72.880593 106.16798 75.515625 109.50781 C 77.440826 111.94817 79.191081 113.91283 80.087891 115.13477 C 80.224445 115.3207 80.543592 115.80525 80.859375 116.2793 C 81.4171 115.90044 81.952482 115.53705 82.519531 115.15234 C 82.069653 114.64772 81.621819 114.13596 81.189453 113.58789 C 79.657256 111.64605 77.538327 109.04413 75.947266 107.02734 C 73.819505 104.33074 71.850885 101.60578 70.046875 98.884766 z M 84.369141 117.40625 C 83.69704 117.86828 83.045331 118.32115 82.365234 118.79102 C 84.417178 121.68336 87.454876 125.47941 89.601562 126.50195 C 92.897949 128.07424 93.785665 125.24642 92.173828 123.70898 C 90.947261 122.54028 87.485095 120.30056 84.369141 117.40625 z " />
  <path
     id="path4820"
     style="fill:#ffffff;fill-opacity:1;stroke-width:1.74371;opacity:0.2"
     d="M 181 32 C 169.07557 47.177542 154.97756 55.862407 146.58984 60.783203 C 137.06215 66.372083 122.04525 73.118601 107.47656 78.841797 C 99.341593 82.006038 90.009638 85.375954 83.314453 87.472656 C 69.709685 91.735835 32.48578 103.2764 10 117.82422 L 10.996094 118.21094 C 33.567692 103.95523 69.903198 92.675196 83.314453 88.472656 C 90.009638 86.375954 99.341593 83.006038 107.47656 79.841797 C 122.04525 74.118601 137.06215 67.372083 146.58984 61.783203 C 154.8098 56.960829 168.5093 48.507234 180.27734 33.886719 C 180.51948 33.258048 180.7803 32.639272 181 32 z M 147.11523 70.572266 C 145.59551 71.617433 144.00023 72.626314 142.37305 73.615234 C 135.54077 79.143313 124.50224 87.298409 117.08594 92.369141 C 117.23038 92.604607 117.36401 92.838929 117.50586 93.074219 C 127.1106 86.481437 142.42707 75.017617 147.11523 70.572266 z M 117.08594 92.369141 C 115.11626 93.700076 112.39785 95.488375 111.24219 96.158203 C 104.54875 100.03065 71.91598 122.32475 64.492188 127.45312 C 57.068393 132.5815 36.06593 152.04755 30 157.69922 L 30 158.69922 C 36.06593 153.04755 57.068393 133.5815 64.492188 128.45312 C 71.91598 123.32475 104.54875 101.03065 111.24219 97.158203 C 112.39785 96.488375 115.11626 94.700076 117.08594 93.369141 C 117.20186 93.289881 117.35887 93.174512 117.47656 93.09375 C 117.36112 92.862252 117.25284 92.634955 117.08594 92.369141 z M 117.08594 93.369141 C 117.48564 94.005721 117.64622 94.481715 118.01953 95.105469 C 118.04018 95.091702 118.0712 95.07233 118.0918 95.058594 C 117.76094 94.495856 117.43202 93.9333 117.08594 93.369141 z M 108.51758 81.132812 C 109.80134 82.748547 111.29265 84.779907 112.54492 86.515625 C 112.54605 86.51522 112.5477 86.51603 112.54883 86.515625 C 111.27004 84.716347 109.93518 82.919012 108.51758 81.132812 z " />
  <path
     d="M 30,83 H 41.476281 L 51,99.505471 V 86.621891 C 51,85.173135 49.289374,83.284577 48.648956,83 h 7.941177 C 56.103416,83.129354 54,85.043782 54,86.621891 V 105.5592 c 0,1.16418 2.205882,2.76816 3,3.38906 H 45.933587 L 36,92.365174 v 13.038796 c 0,1.29354 1.403226,2.53533 2.709677,3.59603 H 30.256168 C 31.460152,108.48259 32.897534,106.85274 33,105.5592 33.102467,104.26567 33,87.579104 33,86.854727 33,85.276617 31.203985,83.983085 30,83 Z"
     id="path88"
     style="fill:#ffffff;stroke-width:1.71622"
     sodipodi:nodetypes="cccsccsscccsccssc" />
  <path
     id="path90"
     style="fill:#ffffff;stroke-width:1.70903"
     d="m 127.96875,83 c 0.17734,0.166723 0.76982,0.412755 1.1875,0.716797 0.32605,-0.240487 0.64516,-0.475553 0.9707,-0.716797 z m 7.57031,0 c -1.66333,1.196933 -3.47016,2.473161 -5.36914,3.800781 -0.005,0.04434 -0.008,0.09004 -0.0156,0.132813 -0.25064,1.552239 -4.75496,18.167326 -5.0293,18.988286 -0.38104,1.13831 -2.33753,2.40548 -3.125,3.07812 h 8.1543 c -0.81287,-0.93135 -1.47274,-1.83627 -1.32032,-2.87109 C 128.98639,105.09408 129.44336,103 129.44336,103 h 8.43359 c 0.38103,1.03482 0.66517,1.98976 0.8125,2.87109 0.17782,1.06069 -0.8902,2.25027 -1.83007,3.07813 H 152 c -0.83827,-0.20697 -1.77906,-1.21528 -2.28711,-2.56055 C 149.20485,105.0434 141.17969,83 141.17969,83 Z M 133.05078,90.244141 136.80859,100 h -6.60351 z" />
  <path
     id="path92"
     style="fill:#ffffff;stroke-width:1.73766"
     d="m 68.171875,83 c 0.656512,0.595026 2.546678,2.198308 2.257813,3.931641 C 70.172333,88.48388 65.514082,105.10091 65.230469,105.92188 64.836561,107.06019 62.814076,108.32736 62,109 h 8.429688 C 69.58935,108.06865 68.90689,107.16373 69.064453,106.12891 69.222015,105.09408 69.693359,103 69.693359,103 h 8.71875 c 0.393906,1.03482 0.689486,1.98781 0.841797,2.86914 0.183825,1.06069 -0.918987,2.25222 -1.890625,3.08008 h 14.34375 c 0.375904,-0.25275 0.703294,-0.46838 1.076172,-0.71875 -0.605611,-0.36136 -1.649967,-0.60699 -2.132812,-1.84375 C 90.125184,105.04145 81.826172,83 81.826172,83 Z M 73.423828,90.244141 77.310547,100 h -6.828125 z" />
  <path
     id="path94"
     style="fill:#ffffff;stroke-width:1.74054"
     d="m 105.43945,82 c -4.46348,0.02627 -8.303839,3.938989 -8.433591,8.353516 -0.181654,6.172634 4.696511,7.852354 7.447261,8.824218 0.16031,0.05639 0.86571,0.178737 1.52344,0.294922 2.2389,-1.449974 4.17768,-2.685027 5.26563,-3.314453 0.70251,-0.407181 2.21449,-1.422923 3.55273,-2.302734 -0.78324,-0.435079 -1.76493,-0.961758 -2.24609,-1.191407 -3.32166,-1.57599 -6.79878,-1.864598 -7.52539,-3.992187 -0.51209,-1.500695 0.93363,-2.788861 4.46289,-2.736328 3.52927,0.05254 6.63135,2.080067 7.51367,2.841797 V 82 c -0.2595,0.262666 -1.22999,1.584123 -2.27148,1.365234 C 112.73034,82.94497 109.33202,81.977237 105.43945,82 Z m 11.71875,13.669922 c -2.36652,1.575134 -5.2863,3.459649 -8.04492,5.267578 1.12926,0.60117 1.84879,1.34312 1.93945,2.28711 0.17993,1.89468 -3.37977,3.1108 -6.77929,2.7168 -0.6799,-0.0788 -1.34772,-0.25834 -1.98438,-0.5 -0.14081,0.0919 -0.28244,0.16912 -0.42383,0.24218 -0.67418,0.43498 -1.25015,0.82714 -1.917964,1.25586 -0.459143,0.2948 -1.374394,0.9123 -1.947266,1.28711 V 111 c 0.674713,-1.3396 1.649633,-2.53832 2.79492,-2.59961 0.49305,-0.0263 2.20709,1.99361 9.26563,1.59961 3.42546,-0.19087 10.04129,-4.30537 9.9375,-8.56055 -0.0594,-2.396144 -1.24529,-4.284345 -2.83985,-5.769528 z M 98,102.01758 v 2.72461 c 0.368352,-0.24528 0.77847,-0.52243 1.138672,-0.76172 C 98.368035,103.29252 98.204396,102.23415 98,102.01758 Z" />
</svg>
