<?xml version="1.0" encoding="UTF-8" standalone="no"?>
<svg
   width="192"
   height="192"
   version="1"
   id="svg28"
   sodipodi:docname="apps_bodbot.svg"
   inkscape:version="1.1.1 (1:1.1+202109281949+c3084ef5ed)"
   xmlns:inkscape="http://www.inkscape.org/namespaces/inkscape"
   xmlns:sodipodi="http://sodipodi.sourceforge.net/DTD/sodipodi-0.dtd"
   xmlns="http://www.w3.org/2000/svg"
   xmlns:svg="http://www.w3.org/2000/svg"
   xmlns:rdf="http://www.w3.org/1999/02/22-rdf-syntax-ns#"
   xmlns:cc="http://creativecommons.org/ns#"
   xmlns:dc="http://purl.org/dc/elements/1.1/">
  <metadata
     id="metadata34">
    <rdf:RDF>
      <cc:Work
         rdf:about="">
        <dc:format>image/svg+xml</dc:format>
        <dc:type
           rdf:resource="http://purl.org/dc/dcmitype/StillImage" />
      </cc:Work>
    </rdf:RDF>
  </metadata>
  <defs
     id="defs32">
    <filter
       inkscape:collect="always"
       style="color-interpolation-filters:sRGB"
       id="filter10908"
       x="-0.10004087"
       y="-0.060024522"
       width="1.2000817"
       height="1.120049">
      <feGaussianBlur
         inkscape:collect="always"
         stdDeviation="2.7511238"
         id="feGaussianBlur10910" />
    </filter>
    <filter
       inkscape:collect="always"
       style="color-interpolation-filters:sRGB"
       id="filter10991"
       x="-0.041999999"
       y="-0.055999999"
       width="1.084"
       height="1.112">
      <feGaussianBlur
         inkscape:collect="always"
         stdDeviation="2.8"
         id="feGaussianBlur10993" />
    </filter>
  </defs>
  <sodipodi:namedview
     pagecolor="#ffffff"
     bordercolor="#666666"
     borderopacity="1"
     objecttolerance="10"
     gridtolerance="10"
     guidetolerance="10"
     inkscape:pageopacity="0"
     inkscape:pageshadow="2"
     inkscape:window-width="1920"
     inkscape:window-height="1022"
     id="namedview30"
     showgrid="false"
     inkscape:zoom="1"
     inkscape:cx="97"
     inkscape:cy="63"
     inkscape:window-x="0"
     inkscape:window-y="34"
     inkscape:window-maximized="1"
     inkscape:current-layer="svg28"
     inkscape:pagecheckerboard="0"
     inkscape:snap-global="false"
     showguides="true"
     inkscape:snap-bbox="true"
     inkscape:snap-bbox-midpoints="true"
     inkscape:bbox-paths="false">
    <inkscape:grid
       type="xygrid"
       id="grid841" />
  </sodipodi:namedview>
  <rect
     id="rect10953"
     transform="matrix(0,-1,-1,0,0,0)"
     ry="12"
     rx="12"
     y="-156"
     x="-180"
     height="120"
     width="160"
     style="opacity:0.2;fill:#000000;fill-opacity:1;stroke-width:3.4641;filter:url(#filter10991)" />
  <rect
     id="rect2"
     transform="matrix(0,-1,-1,0,0,0)"
     ry="12"
     rx="12"
     y="-156"
     x="-176"
     height="120"
     width="160"
     style="fill:#0561b1;fill-opacity:1;stroke-width:3.4641" />
  <path
     id="path1662"
     style="opacity:1;fill:#16f4ff;fill-opacity:1;stroke-width:0.118118"
     d="m 82.863281,102.02148 c -0.05604,0.003 -0.08203,0.0598 -0.08203,0.16993 0,0.22387 -0.09929,0.22259 -0.654297,-0.01 -0.660007,-0.27632 -0.983835,-0.10112 -0.921875,0.50195 0.03039,0.29581 0.136957,0.51502 0.304688,0.63086 0.141237,0.0976 0.461602,0.34851 0.71289,0.5586 0.251289,0.2101 0.679993,0.44097 0.951172,0.51367 0.271182,0.0727 0.544475,0.17295 0.609375,0.22266 0.0649,0.0497 0.277444,0.12928 0.470703,0.17578 0.193257,0.0464 0.596045,0.31203 0.894532,0.59179 0.298485,0.27977 0.749305,0.63779 1.003906,0.79493 0.571655,0.35281 1.856264,0.88187 2.410156,0.99218 0.333975,0.0665 1.416016,0.70353 1.416016,0.83399 0,0.0184 0.483751,0.40139 0.255859,0.50976 -0.325546,0.15475 -0.802476,0.37554 -1.380859,0.30664 -0.733987,-0.0873 -1.864659,-0.16564 -3.935547,-0.11914 -1.008279,0.0227 -1.581201,0.1245 -1.78125,-0.12304 -0.178561,-0.2209 -0.344134,-0.27237 -0.94336,-0.28907 -0.605161,-0.0169 -0.722445,0.0118 -0.697265,0.16797 0.02384,0.14789 -0.102606,0.19456 -0.589844,0.22266 -0.107374,0.006 -0.192907,-0.002 -0.265625,-0.0176 0.0018,0.004 0.004,0.004 0.0059,0.008 0.19562,0.39024 0.287121,0.44484 1.097657,0.64844 0.735511,0.18478 1.038912,0.20428 1.798828,0.11328 0.918537,-0.1099 1.184725,-0.0782 2.273437,0.26758 0.659645,0.2095 2.013693,0.0223 2.769532,-0.1543 0.347494,-0.0812 0.658445,-0.0624 1.179687,0.0742 0.505233,0.1321 1.01418,0.1688 1.775391,0.125 0.586687,-0.0338 1.695897,-0.0529 1.800781,0.006 0.104884,0.0588 0.198588,1.04777 0.308594,1.42188 0.110008,0.37412 0.38833,1.1067 0.61914,1.62695 0.803909,1.81202 0.764472,3.15489 0.429688,4.26953 -0.09602,0.31972 -0.719637,0.9746 -1.148438,1.48633 -1.227787,1.46524 -1.892829,3.01708 -2.167969,5.06836 -0.07658,0.57095 -0.233526,1.19749 -0.349609,1.39258 -0.116083,0.1951 -0.381382,0.7023 -0.589844,1.125 -0.208464,0.42271 -0.508368,0.92224 -0.666015,1.11132 -0.487532,0.58478 -1.201245,2.14349 -1.626953,3.55079 -0.223757,0.73968 -0.676936,1.9049 -1.00586,2.58984 -0.477695,0.99475 -0.730043,1.36579 -1.251953,1.84375 -0.359368,0.32911 -0.702049,0.59961 -0.761719,0.59961 -0.05966,0 -0.107421,0.12344 -0.107421,0.27539 -1e-6,0.21967 0.138192,0.34419 0.677734,0.60351 0.373173,0.17935 0.819568,0.40049 0.992187,0.49219 0.172619,0.0917 0.389882,0.13716 0.482422,0.10156 0.217791,-0.0837 0.560547,-0.80672 0.560547,-1.18164 0,-0.16035 0.129228,-0.54457 0.28711,-0.85351 0.15788,-0.30893 0.481391,-0.9777 0.71875,-1.48633 0.432684,-0.92723 1.02224,-1.74322 2.072265,-2.87109 0.406971,-0.43714 0.872727,-1.22436 1.681641,-2.84375 0.61512,-1.23143 1.200295,-2.30703 1.300781,-2.39063 0.156723,-0.13033 0.7498,-0.78256 0.90998,-0.39844 0.151141,0.36251 0.972667,-2.56575 0.885622,-0.5773 0.748171,-1.22737 0.670369,0.27548 1.724943,0.27548 1.028325,0 -1.287708,-2.82241 -0.547762,-1.64955 -0.083,-1.92621 1.339573,1.48134 1.488843,1.12337 0.160182,-0.38417 1.787907,1.09611 1.944627,1.22644 0.10049,0.0836 0.68566,1.1592 1.30079,2.39063 0.8089,1.61939 1.27467,2.40465 1.68164,2.84179 1.05003,1.12787 1.63958,1.94582 2.07226,2.87305 0.23736,0.50863 0.56087,1.1774 0.71875,1.48633 0.15788,0.30894 0.28711,0.69621 0.28711,0.86133 0,0.36299 0.42633,1.23828 0.60352,1.23828 0.0698,0 0.29331,-0.0882 0.49804,-0.19531 0.95088,-0.49775 1.08333,-0.56237 1.11133,-0.53907 0.0165,0.0137 0.13608,-0.04 0.26563,-0.12109 0.23433,-0.14665 0.33394,-0.68164 0.12695,-0.68164 -0.0597,0 -0.40328,-0.26941 -0.76172,-0.59766 -0.78586,-0.71967 -1.6124,-2.32226 -2.19531,-4.25195 -0.44329,-1.46752 -1.09441,-2.92448 -1.61719,-3.61914 -0.20657,-0.27447 -0.54229,-0.83644 -0.74609,-1.24805 -0.20379,-0.41161 -0.46595,-0.90841 -0.58203,-1.10351 -0.11608,-0.19509 -0.27301,-0.82163 -0.34961,-1.39258 -0.27515,-2.05128 -0.94018,-3.60313 -2.16797,-5.06836 -0.4288,-0.51173 -1.027022,-1.26036 -1.123052,-1.58008 -0.334784,-1.11464 -0.05586,-2.3247 0.748052,-4.13672 0.2308,-0.52025 0.50914,-1.55166 0.61914,-1.92578 0.11002,-0.37411 0.28574,-0.72831 0.39062,-0.78711 0.10488,-0.0587 0.87037,-0.0787 1.45704,-0.0449 0.76122,0.0439 1.27015,0.007 1.77539,-0.125 0.52124,-0.1366 0.83219,-0.15542 1.17968,-0.0742 0.75802,0.17708 2.54917,0.13756 3.19727,-0.0703 1.08978,-0.34956 1.34647,-0.38077 2.25976,-0.27149 0.75992,0.0909 1.06528,0.0715 1.80079,-0.11328 0.81055,-0.2036 0.60125,-0.25819 0.79687,-0.64844 0.31738,-0.63314 0.13901,-0.18662 -0.65625,-0.23242 -0.48724,-0.0281 -0.31286,-0.0768 -0.28906,-0.22461 0.0252,-0.15626 -0.0901,-0.18291 -0.69531,-0.16601 -0.60101,0.0168 -0.76674,-0.13355 -0.94727,0.0898 -0.2023,0.25006 -0.29863,0.26834 -1.30859,0.24414 -2.03974,-0.049 -3.33074,-0.0312 -4.06836,0.0566 -0.57838,0.0688 -0.99868,0.1958 -1.32422,0.041 -0.2279,-0.10834 -1.10352,-0.30973 -1.10352,-0.32813 0,-0.13047 1.94531,-1.02129 2.2793,-1.08789 0.55388,-0.11031 1.83851,-0.63937 2.41016,-0.99218 0.2546,-0.15715 0.70542,-0.51517 1.0039,-0.79493 0.29849,-0.27977 0.70127,-0.54529 0.89453,-0.59179 0.19325,-0.0464 0.40571,-0.12608 0.47071,-0.17578 0.0649,-0.0497 0.33819,-0.14996 0.60937,-0.22266 0.27118,-0.0726 0.69989,-0.30357 0.95117,-0.51367 0.2513,-0.2101 0.57165,-0.4611 0.71289,-0.5586 0.16774,-0.11584 0.27439,-0.33506 0.30469,-0.63086 0.062,-0.60307 -0.26186,-0.77827 -0.92187,-0.50195 -0.55496,0.23246 -0.6543,0.23374 -0.6543,0.01 0,-0.22033 -0.10266,-0.2252 -0.34375,-0.0156 -0.10247,0.0891 -0.34631,0.21194 -0.54102,0.27344 -0.24981,0.079 -0.38604,0.22215 -0.46484,0.48437 -0.0918,0.30578 -0.26077,0.44138 -0.94922,0.77344 -0.46014,0.22193 -1.11523,0.46401 -1.45508,0.53711 -0.69645,0.14965 -1.6661,0.60768 -1.91015,0.90234 -0.28422,0.34315 -1.26689,0.76954 -1.77539,0.76954 -0.34193,0 -0.74896,0.14207 -1.37891,0.48046 -0.71342,0.38324 -1.08579,0.50169 -1.83984,0.5879 -0.685423,0.0783 -1.067916,0.18966 -1.394538,0.40624 -0.24765,0.16422 -0.470151,0.29883 -0.494141,0.29883 -0.02398,0 -0.966589,-0.25672 -1.083984,-0.51757 -0.191117,-0.42467 0.05424,-0.80175 0.193359,-1.38282 0.08545,-0.35692 0.190735,-0.64844 0.234375,-0.64844 0.04364,1e-5 0.158412,0.0701 0.226563,-0.15234 0.150237,-0.4905 -0.113302,-2.02578 -0.328126,-2.28516 -0.583978,-0.70506 -1.617192,-0.22459 -2.201171,0.48047 -0.2148,0.25937 -0.0038,1.28685 0.146484,1.77735 0.06532,0.21328 0.02933,0.48506 0.06445,0.50781 -0.02216,-0.005 -0.06523,0.0219 -0.0078,0.26172 0.13912,0.58107 0.335643,1.28236 0.144531,1.70703 -0.117395,0.26117 -0.708442,0.25195 -0.732422,0.25195 -0.02399,0 -0.246491,-0.1346 -0.494141,-0.29883 -0.326622,-0.21658 -0.709123,-0.32795 -1.394531,-0.40624 -0.754051,-0.0862 -1.126423,-0.20467 -1.839844,-0.5879 -0.629952,-0.3384 -1.036975,-0.48046 -1.378906,-0.48046 -0.508483,0 -1.491175,-0.42639 -1.775391,-0.76954 -0.244052,-0.29466 -1.213713,-0.75268 -1.910156,-0.90234 -0.339847,-0.073 -0.994943,-0.31518 -1.455078,-0.53711 -0.688447,-0.33206 -0.857449,-0.46766 -0.949219,-0.77344 -0.0787,-0.26222 -0.215021,-0.40547 -0.464843,-0.48437 -0.194698,-0.0615 -0.438556,-0.18434 -0.541016,-0.27344 -0.120548,-0.10479 -0.205679,-0.1568 -0.261719,-0.1543 z m -2.222656,6.63477 c -0.27167,-0.53096 -0.462762,-0.0987 0,0 z"
     sodipodi:nodetypes="cssssscscssssccsccssccccscccsssssssscssssssccssssscscscsssssssscccsssssscsssscsccsssscsscccsscsscccscccssccscssscssssssssscscsscssssssccsccc" />
  <path
     id="path10870"
     style="opacity:0.2;fill:#000000;stroke-width:14.7763;stroke-linecap:round;stroke-linejoin:round;filter:url(#filter10908)"
     d="m 64,43 v 77 33 h 12 v -7.60352 A 33,33 0 0 0 97,153 33,33 0 0 0 130,120 33,33 0 0 0 97,87 33,33 0 0 0 76,94.603516 V 43 Z m 33,53 a 24,24 0 0 1 24,24 24,24 0 0 1 -24,24 24,24 0 0 1 -24,-24 24,24 0 0 1 24,-24 z m 0,8 c -0.470044,0 -0.939522,0.0735 -1.162109,0.2207 -0.425573,0.2815 -0.525467,0.59156 -0.566407,1.76368 -0.02881,0.82477 0.0074,1.07713 0.22461,1.52343 0.426291,0.87579 0.40642,1.44501 -0.07031,2.02149 -0.299718,0.36245 -0.360564,0.3901 -0.537109,0.24218 -0.287996,-0.24129 -1.243094,-0.16395 -1.976563,0.16016 -0.340677,0.15056 -0.750316,0.25558 -0.912109,0.23438 -0.731658,-0.0959 -2.121191,-0.0322 -2.484375,0.11328 -0.437569,0.17523 -0.908576,0.16293 -1.816406,-0.0469 -0.326457,-0.0757 -0.883255,-0.10596 -1.236328,-0.0684 -0.353073,0.0377 -1.186549,0.10299 -1.853516,0.14649 -1.201367,0.0785 -1.216227,0.0758 -1.541016,-0.23828 -0.255366,-0.24704 -0.428932,-0.31022 -0.787109,-0.29102 -0.252912,0.0134 -0.539639,0.002 -0.636719,-0.0254 -0.116095,-0.033 -0.165318,0.0195 -0.142578,0.15625 0.02947,0.17718 -0.06119,0.20898 -0.617187,0.20898 -0.48435,0 -0.652344,0.043 -0.652344,0.16797 0,0.0925 -0.06558,0.19542 -0.146484,0.22852 -0.110971,0.0455 -0.113725,0.0851 -0.0098,0.16015 0.07577,0.0546 0.17458,0.24423 0.21875,0.42188 0.06992,0.28125 0.15421,0.33289 0.658203,0.40039 0.31836,0.0426 0.609114,0.12835 0.646484,0.18945 0.04014,0.0655 0.605678,0.0784 1.38086,0.0332 1.155385,-0.0675 1.395854,-0.0471 2.017578,0.17382 0.961154,0.34151 2.227075,0.43509 3.25,0.24024 0.733061,-0.13976 0.916353,-0.13324 1.619141,0.0508 0.558092,0.14616 1.119318,0.19692 1.902343,0.16992 l 1.111328,-0.0391 0.365235,1.06836 c 0.200326,0.588 0.501174,1.36333 0.669922,1.72266 0.870795,1.85429 0.90313,3.23413 0.134765,5.88085 -0.400974,1.3812 -0.521531,2.20831 -0.519531,3.55469 0.0019,1.31684 0.189953,2.30799 0.630859,3.31446 0.258523,0.59012 0.284968,0.78605 0.242188,1.82617 -0.02635,0.64052 -0.110597,1.67841 -0.185547,2.30664 -0.148797,1.2472 -0.09937,2.23457 0.189453,3.78711 0.103312,0.55534 0.196541,1.70535 0.207031,2.55468 0.01789,1.44894 -3.9e-4,1.59194 -0.308593,2.31641 -0.483205,1.13583 -0.501839,1.27833 -0.171875,1.32813 0.362045,0.0547 1.879212,-0.005 2.082031,-0.082 0.11926,-0.0452 0.139744,-0.22682 0.08398,-0.74218 -0.305808,-2.82663 -0.277522,-4.19588 0.115235,-5.55274 0.170205,-0.58801 0.337373,-1.27062 0.371093,-1.51562 0.03476,-0.25255 0.126841,-0.44532 0.212891,-0.44532 0.08562,0 0.178884,0.19405 0.214844,0.44532 0.03506,0.245 0.20433,0.95355 0.375,1.57422 0.386133,1.40424 0.415882,2.8894 0.109375,5.44726 -0.04383,0.36572 -0.02714,0.6831 0.03906,0.75 0.132924,0.1342 2.216994,0.18461 2.343749,0.0566 0.0467,-0.0471 0.0149,-0.25696 -0.0703,-0.46679 -0.654679,-1.61245 -0.683909,-1.75642 -0.642579,-3.23829 0.02196,-0.78756 0.123002,-1.88374 0.224609,-2.43554 0.286011,-1.55321 0.333781,-2.53874 0.185547,-3.78125 -0.07495,-0.62823 -0.157244,-1.66612 -0.183594,-2.30664 -0.04278,-1.04012 -0.01633,-1.23606 0.242188,-1.82617 0.440899,-1.00647 0.628859,-1.99567 0.630859,-3.3125 0.002,-1.34639 -0.11856,-2.17545 -0.519531,-3.55665 -0.776652,-2.67526 -0.746828,-4.01116 0.132811,-5.88085 0.16906,-0.35933 0.47155,-1.13271 0.67188,-1.72071 l 0.36328,-1.07031 1.11133,0.0391 c 0.78302,0.027 1.34621,-0.0238 1.90429,-0.16992 0.7028,-0.1839 0.88607,-0.18846 1.61914,-0.0488 1.02293,0.19485 2.28882,0.10128 3.25,-0.24023 0.62172,-0.22086 0.8622,-0.24328 2.01758,-0.17578 0.77519,0.0453 1.34076,0.0324 1.38086,-0.0332 0.0374,-0.061 0.32813,-0.14685 0.64649,-0.18945 0.504,-0.0675 0.5883,-0.11913 0.6582,-0.40039 0.0442,-0.17764 0.14295,-0.36718 0.21875,-0.42188 0.10429,-0.075 0.10123,-0.11475 -0.01,-0.16015 -0.0809,-0.0331 -0.14648,-0.13592 -0.14648,-0.22852 0,-0.12509 -0.168,-0.16797 -0.65235,-0.16797 -0.55595,0 -0.64668,-0.0298 -0.61718,-0.20703 0.0227,-0.13658 -0.0266,-0.1909 -0.14258,-0.1582 -0.0971,0.0273 -0.39019,0.0382 -0.65235,0.0254 -0.37542,-0.0182 -0.53585,0.0409 -0.75585,0.27734 -0.2473,0.26583 -0.37569,0.30079 -1.10743,0.30079 -0.45458,0 -1.25861,-0.0632 -1.78906,-0.14063 -0.75924,-0.11108 -1.09957,-0.10951 -1.5957,0.008 -0.92708,0.2193 -1.52106,0.23431 -1.9707,0.0527 -0.36285,-0.14649 -1.74992,-0.20958 -2.48438,-0.11328 -0.1618,0.0212 -0.57143,-0.0838 -0.91211,-0.23438 -0.73346,-0.32411 -1.688566,-0.40145 -1.976562,-0.16016 -0.176544,0.14792 -0.237391,0.12027 -0.537109,-0.24218 -0.476726,-0.57648 -0.496597,-1.1457 -0.07031,-2.02149 0.217284,-0.4463 0.25342,-0.69866 0.22461,-1.52343 -0.04094,-1.17211 -0.140833,-1.48218 -0.566407,-1.76368 C 97.939522,104.07347 97.470044,104 97,104 Z" />
  <path
     id="rect1982"
     style="opacity:1;fill:#ffffff;stroke-width:14.7763;stroke-linecap:round;stroke-linejoin:round"
     d="M 64 41 L 64 118 L 64 151 L 76 151 L 76 143.39648 A 33 33 0 0 0 97 151 A 33 33 0 0 0 130 118 A 33 33 0 0 0 97 85 A 33 33 0 0 0 76 92.603516 L 76 41 L 64 41 z M 97 94 A 24 24 0 0 1 121 118 A 24 24 0 0 1 97 142 A 24 24 0 0 1 73 118 A 24 24 0 0 1 97 94 z M 97 102 C 96.529956 102 96.060478 102.07347 95.837891 102.2207 C 95.412318 102.5022 95.312424 102.81226 95.271484 103.98438 C 95.242677 104.80915 95.278856 105.06151 95.496094 105.50781 C 95.922385 106.3836 95.902514 106.95282 95.425781 107.5293 C 95.126063 107.89175 95.065217 107.9194 94.888672 107.77148 C 94.600676 107.53019 93.645578 107.60753 92.912109 107.93164 C 92.571432 108.0822 92.161793 108.18722 92 108.16602 C 91.268342 108.0701 89.878809 108.13385 89.515625 108.2793 C 89.078056 108.45453 88.607049 108.44223 87.699219 108.23242 C 87.372762 108.15672 86.815964 108.12646 86.462891 108.16406 C 86.109818 108.20177 85.276342 108.26705 84.609375 108.31055 C 83.408008 108.38904 83.393148 108.3864 83.068359 108.07227 C 82.812993 107.82523 82.639427 107.76205 82.28125 107.78125 C 82.028338 107.79465 81.741611 107.78346 81.644531 107.75586 C 81.528436 107.7229 81.479213 107.77537 81.501953 107.91211 C 81.531421 108.08929 81.440758 108.12109 80.884766 108.12109 C 80.400416 108.12109 80.232422 108.1641 80.232422 108.28906 C 80.232422 108.38161 80.166837 108.48448 80.085938 108.51758 C 79.974967 108.56306 79.972213 108.60273 80.076172 108.67773 C 80.151937 108.73236 80.250752 108.92196 80.294922 109.09961 C 80.364845 109.38086 80.449132 109.4325 80.953125 109.5 C 81.271485 109.54264 81.562239 109.62835 81.599609 109.68945 C 81.639752 109.75495 82.205287 109.76786 82.980469 109.72266 C 84.135854 109.6552 84.376323 109.67557 84.998047 109.89648 C 85.959201 110.23799 87.225122 110.33157 88.248047 110.13672 C 88.981108 109.99696 89.1644 110.00348 89.867188 110.1875 C 90.42528 110.33366 90.986506 110.38442 91.769531 110.35742 L 92.880859 110.31836 L 93.246094 111.38672 C 93.44642 111.97472 93.747268 112.75005 93.916016 113.10938 C 94.786811 114.96367 94.819146 116.34351 94.050781 118.99023 C 93.649807 120.37143 93.52925 121.19854 93.53125 122.54492 C 93.533166 123.86176 93.721203 124.85291 94.162109 125.85938 C 94.420632 126.4495 94.447077 126.64543 94.404297 127.68555 C 94.37795 128.32607 94.2937 129.36396 94.21875 129.99219 C 94.069953 131.23939 94.119379 132.22676 94.408203 133.7793 C 94.511515 134.33464 94.604744 135.48465 94.615234 136.33398 C 94.63312 137.78292 94.614844 137.92592 94.306641 138.65039 C 93.823436 139.78622 93.804802 139.92872 94.134766 139.97852 C 94.496811 140.03317 96.013978 139.97348 96.216797 139.89648 C 96.336057 139.85126 96.356541 139.66966 96.300781 139.1543 C 95.994973 136.32767 96.023259 134.95842 96.416016 133.60156 C 96.586221 133.01355 96.753389 132.33094 96.787109 132.08594 C 96.821871 131.83339 96.91395 131.64062 97 131.64062 C 97.085616 131.64062 97.178884 131.83467 97.214844 132.08594 C 97.249904 132.33094 97.419174 133.03949 97.589844 133.66016 C 97.975977 135.0644 98.005726 136.54956 97.699219 139.10742 C 97.655389 139.47314 97.672081 139.79052 97.738281 139.85742 C 97.871205 139.99162 99.955275 140.04203 100.08203 139.91406 C 100.1287 139.867 100.09692 139.6571 100.01172 139.44727 C 99.357041 137.83482 99.327811 137.69085 99.369141 136.20898 C 99.391106 135.42142 99.492143 134.32524 99.59375 133.77344 C 99.879761 132.22023 99.927531 131.2347 99.779297 129.99219 C 99.704348 129.36396 99.622053 128.32607 99.595703 127.68555 C 99.55292 126.64543 99.579377 126.44949 99.837891 125.85938 C 100.27879 124.85291 100.46675 123.86371 100.46875 122.54688 C 100.47071 121.20049 100.35019 120.37143 99.949219 118.99023 C 99.172567 116.31497 99.202391 114.97907 100.08203 113.10938 C 100.25109 112.75005 100.55358 111.97667 100.75391 111.38867 L 101.11719 110.31836 L 102.22852 110.35742 C 103.01154 110.38438 103.57473 110.33364 104.13281 110.1875 C 104.83561 110.0036 105.01888 109.99904 105.75195 110.13867 C 106.77488 110.33352 108.04077 110.23995 109.00195 109.89844 C 109.62367 109.67758 109.86415 109.65516 111.01953 109.72266 C 111.79472 109.76796 112.36029 109.75505 112.40039 109.68945 C 112.43776 109.62841 112.72852 109.5426 113.04688 109.5 C 113.55088 109.43251 113.63518 109.38087 113.70508 109.09961 C 113.74925 108.92197 113.84803 108.73243 113.92383 108.67773 C 114.02812 108.60275 114.02506 108.56298 113.91406 108.51758 C 113.83319 108.48444 113.76758 108.38166 113.76758 108.28906 C 113.76758 108.16397 113.59958 108.12109 113.11523 108.12109 C 112.55928 108.12109 112.46855 108.09124 112.49805 107.91406 C 112.52077 107.77748 112.47146 107.72316 112.35547 107.75586 C 112.25839 107.78319 111.96528 107.79405 111.70312 107.78125 C 111.3277 107.763 111.16727 107.82216 110.94727 108.05859 C 110.69997 108.32442 110.57158 108.35938 109.83984 108.35938 C 109.38526 108.35938 108.58123 108.29615 108.05078 108.21875 C 107.29154 108.10767 106.95121 108.10924 106.45508 108.22656 C 105.528 108.44586 104.93402 108.46087 104.48438 108.2793 C 104.12153 108.13281 102.73446 108.06972 102 108.16602 C 101.8382 108.18722 101.42857 108.08217 101.08789 107.93164 C 100.35443 107.60753 99.399324 107.53019 99.111328 107.77148 C 98.934784 107.9194 98.873937 107.89175 98.574219 107.5293 C 98.097493 106.95282 98.077622 106.3836 98.503906 105.50781 C 98.72119 105.06151 98.757326 104.80915 98.728516 103.98438 C 98.687575 102.81227 98.587683 102.5022 98.162109 102.2207 C 97.939522 102.07347 97.470044 102 97 102 z " />
  <path
     id="rect10912"
     style="fill:#ffffff;fill-opacity:1;stroke-width:3.4641;opacity:0.1"
     d="M 48 16 C 41.352 16 36 21.352 36 28 L 36 29 C 36 22.352 41.352 17 48 17 L 144 17 C 150.648 17 156 22.352 156 29 L 156 28 C 156 21.352 150.648 16 144 16 L 48 16 z " />
</svg>
