<?xml version="1.0" encoding="UTF-8" standalone="no"?>
<svg
   width="192"
   height="192"
   version="1.1"
   id="svg20"
   sodipodi:docname="apps_nutstore.svg"
   inkscape:version="1.1-rc (1:1.1+rc+202105232036+f4db50c7c1)"
   xmlns:inkscape="http://www.inkscape.org/namespaces/inkscape"
   xmlns:sodipodi="http://sodipodi.sourceforge.net/DTD/sodipodi-0.dtd"
   xmlns="http://www.w3.org/2000/svg"
   xmlns:svg="http://www.w3.org/2000/svg">
  <defs
     id="defs24">
    <filter
       inkscape:collect="always"
       style="color-interpolation-filters:sRGB"
       id="filter861"
       x="-0.048220702"
       y="-0.047781305"
       width="1.0964414"
       height="1.0955626">
      <feGaussianBlur
         inkscape:collect="always"
         stdDeviation="2.9972354"
         id="feGaussianBlur863" />
    </filter>
    <filter
       inkscape:collect="always"
       style="color-interpolation-filters:sRGB"
       id="filter865"
       x="-0.051692305"
       y="-0.044799998"
       width="1.1033846"
       height="1.0896">
      <feGaussianBlur
         inkscape:collect="always"
         stdDeviation="2.3893252"
         id="feGaussianBlur867" />
    </filter>
    <filter
       inkscape:collect="always"
       style="color-interpolation-filters:sRGB"
       id="filter869"
       x="-0.040800001"
       y="-0.058285716"
       width="1.0816"
       height="1.1165714">
      <feGaussianBlur
         inkscape:collect="always"
         stdDeviation="0.67999766"
         id="feGaussianBlur871" />
    </filter>
  </defs>
  <sodipodi:namedview
     id="namedview22"
     pagecolor="#ffffff"
     bordercolor="#666666"
     borderopacity="1.0"
     inkscape:pageshadow="2"
     inkscape:pageopacity="0.0"
     inkscape:pagecheckerboard="0"
     showgrid="false"
     inkscape:zoom="4.04"
     inkscape:cx="125.12376"
     inkscape:cy="103.09406"
     inkscape:window-width="1920"
     inkscape:window-height="1019"
     inkscape:window-x="0"
     inkscape:window-y="34"
     inkscape:window-maximized="1"
     inkscape:current-layer="svg20" />
  <path
     style="opacity:0.2;stroke-width:3.99999;filter:url(#filter869)"
     d="m 139.99986,46.482062 c 6.99672,-5.091815 13.69989,-11.659205 21.65692,-13.768233 4.61591,-1.057345 8.9041,-1.246834 12.04663,1.59759 1.92354,2.930777 4.99923,6.029591 5.98316,10.390465 0.84112,3.727987 0.10556,9.005457 -3.65374,8.945329 -2.82532,-0.951384 -8.90772,-3.106893 -12.49086,-2.345784 C 154.10219,53.306567 151.62796,60 151.62796,60 Z"
     id="path2" />
  <path
     style="opacity:0.2;stroke-width:3.99999;filter:url(#filter861)"
     d="M 127.27811,162.42377 C 93.812683,184.98755 38.966224,182.88152 18.554419,157.11663 1.0229539,134.98746 20.490011,72.510198 55.248989,44.239989 90.007972,15.969778 123.52675,25.738775 147.25358,56.157693 170.98041,86.576614 164.4186,137.3821 127.27811,162.42377 Z"
     id="path4" />
  <path
     style="fill:#77451f;stroke-width:3.99999"
     d="m 139.99986,44.482468 c 6.99672,-5.091817 13.69989,-11.659206 21.65692,-13.768234 4.61591,-1.057345 8.9041,-1.246834 12.04663,1.59759 1.92354,2.930777 4.99923,6.02959 5.98316,10.390466 0.84112,3.727988 0.10556,9.005458 -3.65374,8.94533 -2.82532,-0.951385 -8.90772,-3.106894 -12.49086,-2.345784 -9.43978,2.005137 -11.91401,8.698571 -11.91401,8.698571 z"
     id="path6" />
  <path
     id="path8"
     style="opacity:0.1;fill:#ffffff;stroke-width:3.99999"
     d="M 166.66992 30.001953 C 165.07362 30.040061 163.38722 30.314433 161.65625 30.710938 C 153.69923 32.819966 146.99672 39.392557 140 44.484375 L 140.52539 45.095703 C 147.33327 40.062795 153.89871 33.767095 161.65625 31.710938 C 163.96421 31.182266 166.19251 30.870862 168.23438 31.046875 C 170.27622 31.222888 172.13186 31.890288 173.70312 33.3125 C 175.62665 36.243277 178.70357 39.34225 179.6875 43.703125 C 179.84894 44.418606 179.94471 45.189396 179.97461 45.966797 C 180.01761 44.85802 179.91817 43.725472 179.6875 42.703125 C 178.70357 38.34225 175.62665 35.243277 173.70312 32.3125 C 172.13186 30.890288 170.27622 30.222888 168.23438 30.046875 C 167.72391 30.002872 167.20202 29.989251 166.66992 30.001953 z " />
  <path
     style="fill:#ebbe63;stroke-width:3.99999"
     d="M 127.27811,158.42378 C 93.812683,180.98756 38.966224,178.88153 18.554419,153.11664 1.0229539,130.98747 20.490011,68.510207 55.248989,40.239998 90.007972,11.969786 123.52675,21.738782 147.25358,52.157702 170.98041,82.576624 164.4186,133.38211 127.27811,158.42378 Z"
     id="path10" />
  <path
     id="path12"
     style="opacity:0.2;fill:#ffffff;stroke-width:3.99999"
     d="M 96.806641 23.455078 C 83.557121 23.451684 69.506616 28.646983 55.25 40.242188 C 29.325515 61.327116 11.977224 101.38438 12.074219 129.5918 C 12.38409 101.44493 29.631307 62.078409 55.25 41.242188 C 70.457057 28.87397 85.429149 23.785954 99.445312 24.523438 C 117.4661 25.471632 133.90366 36.04561 147.25 53.15625 C 156.53287 65.057338 161.09049 80.086201 161.08008 95.464844 C 161.08125 95.494868 161.0848 95.524659 161.08594 95.554688 C 161.31832 79.79704 156.75234 64.338705 147.25 52.15625 C 133.90366 35.04561 117.4661 24.471631 99.445312 23.523438 C 98.569302 23.477345 97.689942 23.455304 96.806641 23.455078 z " />
  <path
     style="opacity:0.2;stroke-width:3.99999;filter:url(#filter865)"
     d="m 90.060984,22.001071 c -6.44239,-0.02524 -12.707617,0.831919 -18.549009,2.563823 -8.880574,3.510413 -16.170026,6.750049 -7.870666,11.130425 15.737359,8.222403 30.564417,19.420789 43.396601,33.628949 20.41682,22.606076 33.09032,49.698892 38.9011,76.418082 1.64483,9.24021 9.63908,1.06339 12.9165,-2.32258 17.92955,-18.63439 17.03116,-64.349079 -10.381,-94.700592 -16.08618,-17.81106 -38.1269,-26.638507 -58.413526,-26.718107 z"
     id="path14" />
  <path
     style="fill:#a9622c;stroke-width:3.99999"
     d="m 90.060984,18.001083 c -6.44239,-0.02524 -12.707617,0.831919 -18.549009,2.563823 -8.880574,3.510413 -16.170026,6.750049 -7.870666,11.130425 15.737359,8.222404 30.564417,19.420791 43.396601,33.628951 20.41682,22.606075 33.09032,49.698888 38.9011,76.418088 1.64483,9.2402 9.63908,1.06338 12.9165,-2.32259 17.92955,-18.63439 17.03116,-64.349075 -10.381,-94.700589 C 132.38833,26.90813 110.34761,18.080683 90.060984,18.001083 Z"
     id="path16" />
  <path
     id="path18"
     style="opacity:0.1;fill:#ffffff;stroke-width:3.99999"
     d="M 90.0625 18 C 83.62011 17.97476 77.357017 18.830596 71.515625 20.5625 C 65.032048 23.125401 59.440134 25.550322 60.105469 28.375 C 60.776837 25.966861 65.809082 23.818246 71.515625 21.5625 C 77.357017 19.830596 83.62011 18.97476 90.0625 19 C 110.34913 19.0796 132.39038 27.907687 148.47656 45.71875 C 163.43245 62.278328 170.44262 83.392705 170.85547 102.20312 C 170.67491 83.142564 163.69973 61.574279 148.47656 44.71875 C 132.39038 26.907687 110.34913 18.0796 90.0625 18 z " />
</svg>
