<?xml version="1.0" encoding="UTF-8" standalone="no"?>
<svg
   width="192"
   height="192"
   version="1.1"
   id="svg12"
   sodipodi:docname="apps_openlp.svg"
   inkscape:version="1.1-rc (1:1.1+rc+202105232036+f4db50c7c1)"
   xmlns:inkscape="http://www.inkscape.org/namespaces/inkscape"
   xmlns:sodipodi="http://sodipodi.sourceforge.net/DTD/sodipodi-0.dtd"
   xmlns="http://www.w3.org/2000/svg"
   xmlns:svg="http://www.w3.org/2000/svg">
  <defs
     id="defs16">
    <filter
       inkscape:collect="always"
       style="color-interpolation-filters:sRGB"
       id="filter845"
       x="-0.048000001"
       y="-0.048000001"
       width="1.096"
       height="1.096">
      <feGaussianBlur
         inkscape:collect="always"
         stdDeviation="3.2"
         id="feGaussianBlur847" />
    </filter>
    <filter
       inkscape:collect="always"
       style="color-interpolation-filters:sRGB"
       id="filter849"
       x="-0.049030957"
       y="-0.054750145"
       width="1.0980619"
       height="1.1095003">
      <feGaussianBlur
         inkscape:collect="always"
         stdDeviation="3.2101549"
         id="feGaussianBlur851" />
    </filter>
  </defs>
  <sodipodi:namedview
     id="namedview14"
     pagecolor="#ffffff"
     bordercolor="#666666"
     borderopacity="1.0"
     inkscape:pageshadow="2"
     inkscape:pageopacity="0.0"
     inkscape:pagecheckerboard="0"
     showgrid="false"
     inkscape:zoom="2.16"
     inkscape:cx="23.842593"
     inkscape:cy="23.842593"
     inkscape:window-width="1920"
     inkscape:window-height="1019"
     inkscape:window-x="0"
     inkscape:window-y="34"
     inkscape:window-maximized="1"
     inkscape:current-layer="svg12" />
  <circle
     style="opacity:0.2;stroke-width:4;filter:url(#filter845)"
     cx="96"
     cy="100"
     r="80"
     id="circle2" />
  <circle
     style="fill:#2a4986;stroke-width:4"
     cx="96"
     cy="96"
     r="80"
     id="circle4" />
  <path
     style="opacity:0.2;stroke-width:4;filter:url(#filter849)"
     d="m 58.195312,27.569248 a 80,80 0 0 0 -19.640624,14.875 L 149.55469,109.79581 30.585938,52.030184 A 80,80 0 0 0 19.539062,74.498936 L 153.14844,118.62394 17.03125,85.858312 A 80,80 0 0 0 16,97.998936 80,80 0 0 0 17.117188,111.19425 L 142.38281,123.61612 20.1875,123.2255 a 80,80 0 0 0 10.515625,20.82031 L 144.71875,133.73331 37.765625,152.77237 A 80,80 0 0 0 57.820312,168.288 L 167.32031,134.04581 a 80,80 0 0 0 5.8125,-15.14844 z"
     id="path6" />
  <path
     style="fill:#ffffff;stroke-width:4"
     d="m 58.195312,25.570312 a 80,80 0 0 0 -19.640624,14.875 L 149.55469,107.79688 30.585938,50.031248 A 80,80 0 0 0 19.539062,72.5 L 153.14844,116.625 17.03125,83.859376 A 80,80 0 0 0 16,96 80,80 0 0 0 17.117188,109.19531 L 142.38281,121.61719 20.1875,121.22656 a 80,80 0 0 0 10.515625,20.82032 L 144.71875,131.73438 37.765625,150.77344 a 80,80 0 0 0 20.054687,15.51562 L 167.32031,132.04688 a 80,80 0 0 0 5.8125,-15.14844 z"
     id="path8" />
  <path
     id="path10"
     style="opacity:0.1;fill:#ffffff;stroke-width:4"
     d="M 96 16 A 80 80 0 0 0 16 96 A 80 80 0 0 0 16.023438 96.638672 A 80 80 0 0 1 96 17 A 80 80 0 0 1 175.98438 96.302734 A 80 80 0 0 0 176 96 A 80 80 0 0 0 96 16 z " />
</svg>
