<svg xmlns="http://www.w3.org/2000/svg" width="192" height="192" version="1">
 <defs>
  <filter id="filter955" style="color-interpolation-filters:sRGB" width="1.096" height="1.096" x="-.05" y="-.05">
   <feGaussianBlur id="feGaussianBlur957" stdDeviation="3.2"/>
  </filter>
  <filter id="filter2158" style="color-interpolation-filters:sRGB" width="1.11" height="1.236" x="-.06" y="-.12">
   <feGaussianBlur id="feGaussianBlur2160" stdDeviation="2.289"/>
  </filter>
 </defs>
 <rect style="opacity:0.2;filter:url(#filter955)" width="160" height="160" x="16" y="20" rx="30" ry="30"/>
 <rect style="fill:#f46600" width="160" height="160" x="16" y="16" rx="30" ry="30"/>
 <path style="fill:#ffffff;opacity:0.2" d="M 46 16 C 29.38 16 16 29.38 16 46 L 16 47 C 16 30.38 29.38 17 46 17 L 146 17 C 162.62 17 176 30.38 176 47 L 176 46 C 176 29.38 162.62 16 146 16 L 46 16 z"/>
 <path style="opacity:0.2;filter:url(#filter2158)" d="m 75.992188,74.50023 c 0,0 -4.895379,0.519531 -7.798829,0.519531 H 53.642578 L 46,74.863511 v 2.476328 l 2.537109,0.53125 c 1.835643,0.363681 2.367188,0.727671 2.367188,2.339844 0,0 0.191406,4.869293 0.191406,12.958984 0,8.109643 -0.191406,12.978513 -0.191406,12.978513 0,1.4392 -0.531545,1.97614 -2.367188,2.33984 L 46,109.04101 v 2.15889 l 7.816406,-0.17383 h 13.101563 c 2.90345,0 9.810547,0.17383 9.810547,0.17383 0.174609,-1.78514 1.084826,-10.29957 1.277343,-11.199905 h -1.835937 l -1.976563,4.710935 C 72.722609,108.12376 70.361708,107.99999 68,107.99999 H 60.357422 C 57.821102,107.99999 57,107.39686 57,105.24804 V 94.074214 c 0,0 5.17836,-0.0013 6.996094,0.189453 1.452841,0.17297 2.186774,0.539178 2.728515,2.339844 l 0.541016,2.396484 h 1.888672 l -0.193359,-6.345703 0.367187,-6.654297 h -1.869141 l -0.734375,3.222656 c -0.367133,1.975853 -0.733932,2.167732 -2.728515,2.513672 C 61.459769,91.927034 57,91.925776 57,91.925776 V 78.70312 c 0,-0.554392 -0.280291,-0.700925 0.646484,-0.703125 h 11.4375 c 2.010258,0 3.096158,1.486694 3.8125,4.726562 l 0.734375,2.273438 H 75.625 C 75.817517,77.792896 75.992188,74.50023 75.992188,74.50023 Z m 10.451171,4.499765 C 85.358699,84.996219 82.643922,86.783316 79,87.150386 v 1.818359 h 4 v 15.683585 c 0,4.17879 3.286399,6.34766 6.910156,6.34766 2.924552,0 6.005184,-1.2766 7.089844,-3.8125 l -1.083984,-1.27539 c -0.542334,0.90872 -2.013352,2.00977 -3.992188,2.00977 -2.189492,0 -3.011719,-1.46759 -3.011719,-5.2793 V 88.777339 l 6.828125,0.560547 0.367188,-3.462891 -7.019531,0.367188 v -7.242188 z m 22.513671,7 c -4.93454,0 -8.95703,2.180487 -8.95703,6.847656 0,8.265469 12.43359,6.464853 12.43359,12.585929 0,1.97177 -1.28151,3.59766 -4.39062,3.59766 -2.91577,0 -4.19621,-1.45467 -4.74024,-2.88867 l -1.45703,-3.14258 H 100 c 0.19333,2.3524 0.36868,4.40445 0,6.54883 0,0 3.84729,1.45117 7.67578,1.45117 5.12787,0 9.32422,-2.50653 9.32422,-7.19141 0,-8.265461 -12.60938,-7.020029 -12.60938,-12.587882 0,-2.33469 2.19426,-3.234375 4.39063,-3.234375 1.80971,0 3.28366,0.72861 3.65234,1.609375 l 1.28125,3.496094 1.81055,-0.171875 c 0,-1.799151 0.19382,-4.035092 0.5625,-5.832031 -1.65009,-0.725856 -4.93447,-1.087891 -7.13086,-1.087891 z M 131,85.700378 124.18555,86.065612 119,85.874206 v 2.11993 l 0.63867,0.347656 c 1.26064,0.364282 1.43466,0.538533 2.34375,2.533203 3.46394,7.583298 7.27804,17.492475 8.57227,20.564445 -2.91985,5.05109 -6.01662,6.49024 -8.37891,6.49024 -1.4532,0 -1.99528,-0.72709 -2.16992,-1.62891 l -0.73438,-4.2832 -1.99609,0.17383 c -0.36721,2.36118 -0.73351,5.37439 -1.27539,7.35351 1.43529,0.90181 3.07828,1.45708 5.26367,1.45508 3.44827,0 8.36326,-0.90137 13.10352,-11.55664 l 7.99414,-18.568355 c 0.71877,-1.457131 0.91229,-1.628857 2.73047,-2.357422 L 146,87.806636 V 85.902081 L 141.27734,86.075909 136,85.902081 v 1.904555 l 1.46484,0.365234 c 1.26064,0.346513 1.80274,0.885097 1.80274,1.804687 0,0.537541 -0.17462,0.710889 -0.36719,1.439454 -0.54186,1.441581 -4.00607,9.926229 -5.80859,13.708979 -2.18763,-5.413132 -5.10968,-13.518476 -5.45899,-14.611323 -0.17465,-0.364284 -0.17578,-0.53749 -0.17578,-0.728516 0,-0.730787 0.52644,-1.441977 1.80274,-1.615234 L 131,87.806636 Z"/>
 <path style="fill:#ffffff" d="m 75.992188,72.500235 c 0,0 -4.895379,0.519531 -7.798829,0.519531 H 53.642578 L 46,72.863516 v 2.476328 l 2.537109,0.53125 c 1.835643,0.363681 2.367188,0.727671 2.367188,2.339844 0,0 0.191406,4.869293 0.191406,12.958984 0,8.109646 -0.191406,12.978518 -0.191406,12.978518 0,1.4392 -0.531545,1.97614 -2.367188,2.33984 L 46,107.04102 v 2.15889 l 7.816406,-0.17383 h 13.101563 c 2.90345,0 9.810547,0.17383 9.810547,0.17383 C 76.903125,107.41477 77.813342,98.900336 78.005859,98 h -1.835937 l -1.976563,4.71094 C 72.722609,106.12377 70.361708,106 68,106 H 60.357422 C 57.821102,106 57,105.39687 57,103.24805 V 92.074219 c 0,0 5.17836,-0.0013 6.996094,0.189453 1.452841,0.17297 2.186774,0.539178 2.728515,2.339844 L 67.265625,97 h 1.888672 L 68.960938,90.654297 69.328125,84 h -1.869141 l -0.734375,3.222656 c -0.367133,1.975853 -0.733932,2.167732 -2.728515,2.513672 C 61.459769,89.927039 57,89.925781 57,89.925781 V 76.703125 C 57,76.148733 56.719709,76.0022 57.646484,76 h 11.4375 c 2.010258,0 3.096158,1.486694 3.8125,4.726562 L 73.630859,83 H 75.625 c 0.192517,-7.207099 0.367188,-10.499765 0.367188,-10.499765 z M 86.443359,77 C 85.358699,82.996224 82.643922,84.783321 79,85.150391 v 1.818359 h 4 v 15.68359 C 83,106.83113 86.286399,109 89.910156,109 92.834708,109 95.91534,107.7234 97,105.1875 l -1.083984,-1.27539 c -0.542334,0.90872 -2.013352,2.00977 -3.992188,2.00977 -2.189492,0 -3.011719,-1.46759 -3.011719,-5.2793 V 86.777344 l 6.828125,0.560547 0.367188,-3.462891 -7.019531,0.367188 V 77 Z m 22.513671,7 C 104.02249,84 100,86.180487 100,90.847656 c 0,8.265472 12.43359,6.464853 12.43359,12.585934 0,1.97177 -1.28151,3.59766 -4.39062,3.59766 -2.91577,0 -4.19621,-1.45467 -4.74024,-2.88867 L 101.8457,101 H 100 c 0.19333,2.3524 0.36868,4.40445 0,6.54883 0,0 3.84729,1.45117 7.67578,1.45117 5.12787,0 9.32422,-2.50653 9.32422,-7.19141 0,-8.265466 -12.60938,-7.020034 -12.60938,-12.587887 0,-2.33469 2.19426,-3.234375 4.39063,-3.234375 1.80971,0 3.28366,0.72861 3.65234,1.609375 l 1.28125,3.496094 1.81055,-0.171875 c 0,-1.799151 0.19382,-4.035092 0.5625,-5.832031 C 114.4378,84.362035 111.15342,84 108.95703,84 Z M 131,83.700383 124.18555,84.065617 119,83.874211 v 2.11993 l 0.63867,0.347656 c 1.26064,0.364282 1.43466,0.538533 2.34375,2.533203 3.46394,7.583298 7.27804,17.49248 8.57227,20.56445 -2.91985,5.05109 -6.01662,6.49024 -8.37891,6.49024 -1.4532,0 -1.99528,-0.72709 -2.16992,-1.62891 l -0.73438,-4.2832 -1.99609,0.17383 c -0.36721,2.36118 -0.73351,5.37439 -1.27539,7.35351 1.43529,0.90181 3.07828,1.45708 5.26367,1.45508 3.44827,0 8.36326,-0.90137 13.10352,-11.55664 L 142.36133,88.875 c 0.71877,-1.457131 0.91229,-1.628857 2.73047,-2.357422 L 146,85.806641 V 83.902086 L 141.27734,84.075914 136,83.902086 v 1.904555 l 1.46484,0.365234 c 1.26064,0.346513 1.80274,0.885097 1.80274,1.804687 0,0.537541 -0.17462,0.710889 -0.36719,1.439454 -0.54186,1.441581 -4.00607,9.926229 -5.80859,13.708984 -2.18763,-5.413137 -5.10968,-13.518481 -5.45899,-14.611328 -0.17465,-0.364284 -0.17578,-0.53749 -0.17578,-0.728516 0,-0.730787 0.52644,-1.441977 1.80274,-1.615234 L 131,85.806641 Z"/>
 <g style="opacity:0.5;fill:#ffffff" transform="matrix(0.060332,0.03814384,-0.03814384,0.060332,34.860689,28.075809)">
  <g style="fill:#ffffff" transform="translate(1,1)">
   <g style="fill:#ffffff">
    <path style="fill:#ffffff" d="m 411.495,7.533 h -42.667 c -4.267,0 -8.533,1.707 -11.947,5.12 -3.414,3.413 -5.12,7.68 -5.12,11.947 -8.533,0 -10.24,-0.853 -15.36,-5.973 -1.707,-2.56 -5.12,-5.12 -8.533,-7.68 C 317.628,3.267 304.828,-1 292.028,-1 h -44.373 c -25.6,0 -37.547,0 -61.44,9.387 -50.347,18.773 -83.627,57.173 -112.64,132.266 -1.707,3.413 0,7.68 3.413,10.24 0.853,0.853 2.56,1.707 4.267,1.707 1.707,0 4.267,-0.853 5.973,-2.56 l 7.68,-7.68 c 26.453,-27.307 40.107,-40.96 88.747,-40.96 23.04,0 40.107,17.92 40.107,42.667 v 102.4 230.4 c 0,18.773 15.36,34.133 34.133,34.133 h 17.067 c 18.773,0 34.133,-15.36 34.133,-34.133 v -230.4 -94.63 c 6.313,-1.275 10.194,-4.073 14.507,-7.77 0.853,-0.853 1.707,-1.707 3.413,-2.56 4.267,-2.56 6.827,-5.12 9.387,-7.68 5.12,-5.12 6.827,-6.827 15.36,-6.827 0,4.267 1.707,8.533 4.267,11.947 3.413,3.413 7.68,5.12 12.8,5.12 h 42.667 c 14.507,0 25.6,-11.093 25.6,-25.6 V 33.133 c -10e-4,-14.506 -11.095,-25.6 -25.601,-25.6 z m -119.467,230.4 h -51.2 V 152.6 h 51.2 z m 0,238.934 c 0,9.387 -7.68,17.067 -17.067,17.067 h -17.067 c -9.387,0 -17.067,-7.68 -17.067,-17.067 v -8.533 h 17.067 c 4.267,0 8.533,-3.413 8.533,-8.533 0,-5.12 -3.413,-8.533 -8.533,-8.533 H 240.827 V 434.2 h 17.067 c 4.267,0 8.533,-3.413 8.533,-8.533 0,-5.12 -3.413,-8.533 -8.533,-8.533 H 240.827 V 255 h 51.2 v 221.867 z m 128,-358.4 c 0,5.12 -3.413,8.533 -8.533,8.533 h -42.667 c 0,-4.267 -1.707,-8.533 -5.12,-10.24 -3.413,-4.267 -7.68,-5.973 -12.8,-5.973 -14.507,0 -19.627,3.413 -26.453,10.24 -1.707,1.707 -4.267,4.267 -7.68,6.827 -0.853,0.853 -2.56,1.707 -3.413,2.56 -5.12,4.267 -6.827,5.12 -12.8,5.12 h -60.587 c -3.413,-29.013 -27.307,-51.2 -56.32,-51.2 -38.4,0 -58.88,8.533 -76.8,23.04 C 129.895,63 156.348,37.4 192.188,23.747 c 20.48,-7.68 29.867,-7.68 55.467,-7.68 h 44.373 c 9.387,0 18.773,3.413 25.6,8.533 3.413,2.56 5.973,5.12 7.68,6.827 6.827,5.973 11.947,10.24 26.453,10.24 4.267,0 9.387,-1.707 11.947,-5.12 3.413,-3.413 5.12,-7.68 5.12,-11.947 h 42.667 c 5.12,0 8.533,3.413 8.533,8.533 z"/>
   </g>
  </g>
 </g>
 <g style="opacity:0.5;fill:#ffffff" transform="matrix(-0.06908548,0,0,0.06908548,164.70407,124.92486)">
  <g style="fill:#ffffff" transform="translate(1,1)">
   <g style="fill:#ffffff">
    <g style="fill:#ffffff">
     <path style="fill:#ffffff" d="M 505.027,408.173 103.107,6.253 c -9.387,-9.387 -26.453,-9.387 -35.84,0 L 6.68,66.84 c -10.24,9.387 -10.24,25.6 0,35.84 L 24.6,120.6 v 0 0 l 48.64,48.64 c 0,0 0,0 0,0 0,0 0,0 0,0 l 47.786,47.786 c 0,0 0,0 0,0 0,0 0,0 0,0 l 24.746,24.746 c 0,0 0,0 0,0 0,0 0,0 0,0 l 23.893,23.893 c 0,0 0,0 0,0 0,0 0,0 0,0 l 23.893,23.893 c 0,0 0,0 0,0 0,0 0,0 0,0 l 72.532,72.532 c 0,0 0,0 0,0 0,0 0,0 0.001,0.001 l 23.892,23.892 c 0,0 0,0 0,0 0,0 0,0 10e-4,10e-4 L 408.6,504.6 c 4.267,4.267 9.387,5.973 14.507,5.973 5.12,0 10.24,-1.707 13.653,-5.973 l 68.267,-68.267 c 7.68,-7.68 7.68,-20.48 0,-28.16 z m -11.947,16.214 -68.267,68.267 c -1.707,1.707 -2.56,1.707 -4.267,0 l -88.32,-88.32 30.293,-30.293 c 3.413,-3.413 3.413,-8.533 0,-11.947 -3.413,-3.413 -8.533,-3.413 -11.947,0 l -30.293,30.293 -12.373,-12.373 17.92,-17.92 c 3.413,-3.413 3.413,-8.533 0,-11.947 -3.413,-3.413 -8.533,-3.413 -11.947,0 l -17.92,17.92 -11.947,-11.947 29.867,-29.867 c 3.413,-3.413 3.413,-8.533 0,-11.947 -3.413,-3.413 -8.533,-3.413 -11.947,0 l -29.867,29.867 -11.947,-11.947 17.92,-17.92 c 3.413,-3.413 3.413,-8.533 0,-11.947 -3.413,-3.414 -8.533,-3.413 -11.947,0 l -17.92,17.92 -12.371,-12.372 30.293,-30.293 c 3.413,-3.413 3.413,-8.533 0,-11.947 -3.413,-3.414 -8.533,-3.413 -11.947,0 l -30.293,30.293 -12.373,-12.373 17.92,-17.92 c 3.413,-3.413 3.413,-8.533 0,-11.947 -3.413,-3.414 -8.533,-3.413 -11.947,0 l -17.92,17.92 -11.947,-11.947 29.867,-29.867 c 3.413,-3.413 3.413,-8.533 0,-11.947 -3.413,-3.414 -8.533,-3.413 -11.947,0 l -29.867,29.867 -11.946,-11.946 17.92,-17.92 c 3.413,-3.413 3.413,-8.533 0,-11.947 -3.413,-3.414 -8.533,-3.413 -11.947,0 l -17.92,17.92 -12.8,-12.8 29.867,-29.867 c 3.413,-3.413 3.413,-8.533 0,-11.947 -3.413,-3.414 -8.533,-3.413 -11.947,0 L 127,199.107 115.053,187.16 l 17.92,-17.92 c 3.413,-3.413 3.413,-8.533 0,-11.947 -3.413,-3.414 -8.533,-3.413 -11.947,0 l -17.92,17.92 L 91.16,163.267 121.027,133.4 c 3.413,-3.413 3.413,-8.533 0,-11.947 -3.413,-3.414 -8.533,-3.413 -11.947,0 L 79.213,151.32 66.84,138.947 85.187,120.6 c 3.413,-3.413 3.413,-8.533 0,-11.947 -3.413,-3.414 -8.533,-3.413 -11.947,0 L 54.893,127 42.52,114.627 72.387,84.76 c 3.413,-3.413 3.413,-8.533 0,-11.947 -3.413,-3.414 -8.533,-3.413 -11.947,0 L 30.573,102.68 18.627,90.733 c -1.707,-1.707 -2.56,-3.413 -2.56,-5.973 0,-2.56 0.853,-4.267 2.56,-5.973 L 79.213,18.2 c 1.707,-1.707 3.413,-2.56 5.973,-2.56 2.56,0 4.267,0.853 5.973,2.56 l 401.92,401.92 c 0.854,0.853 0.854,3.413 10e-4,4.267 z"/>
     <path style="fill:#ffffff" d="m 399.213,397.933 c -13.653,12.8 -13.653,34.133 0,47.787 6.827,6.827 15.36,10.24 23.893,10.24 8.533,0 17.067,-2.56 23.893,-10.24 13.653,-12.8 12.8,-34.133 0,-47.787 -12.799,-13.653 -34.132,-12.8 -47.786,0 z m 35.84,36.694 c -6.827,6.827 -17.067,6.827 -23.893,0 -6.826,-6.827 -6.827,-17.067 0,-23.893 3.413,-3.413 7.68,-5.12 11.947,-5.12 4.267,0 8.533,1.707 11.947,5.12 6.826,6.826 6.826,17.066 -10e-4,23.893 z"/>
    </g>
   </g>
  </g>
 </g>
 <g style="opacity:0.5;fill:#ffffff" transform="matrix(0.05050876,-0.03039413,0.03039413,0.05050876,135.20753,62.802866)">
  <g style="fill:#ffffff" transform="translate(1,1)">
   <g style="fill:#ffffff">
    <path style="fill:#ffffff" d="M 424.813,154.307 C 416.28,73.24 351.427,8.387 271.213,-0.147 266.093,-0.147 260.973,-1 255,-1 c -5.973,0 -11.093,0.853 -16.213,0.853 -80.214,9.387 -145.067,74.24 -153.6,154.454 -5.973,54.613 13.653,108.373 52.907,145.92 21.333,20.48 34.987,44.373 40.107,67.413 v 100.693 c 0,5.12 3.413,8.533 8.533,8.533 h 12.8 l 15.36,20.48 C 221.72,505.88 231.107,511 242.2,511 h 25.6 c 11.093,0 21.333,-5.12 27.307,-13.653 l 15.36,-20.48 h 12.8 c 5.12,0 8.533,-3.413 8.533,-8.533 V 367.64 c 4.267,-23.04 18.773,-46.933 40.107,-67.413 39.253,-38.4 58.88,-91.307 52.906,-145.92 z M 220.867,212.333 H 203.8 c -9.387,0 -17.067,-7.68 -17.067,-17.067 0,-9.387 7.68,-17.067 17.067,-17.067 9.387,0 17.067,7.68 17.067,17.067 z m 51.2,145.067 h -34.133 v -128 h 34.133 z m 42.666,17.067 v 17.067 h -25.6 c -5.12,0 -8.533,3.413 -8.533,8.533 0,5.12 3.413,8.533 8.533,8.533 h 25.6 v 17.067 h -51.2 c -5.12,0 -8.533,3.413 -8.533,8.533 0,5.12 3.413,8.533 8.533,8.533 h 51.2 V 459.8 H 306.2 203.8 195.267 v -17.067 h 25.6 c 5.12,0 8.533,-3.413 8.533,-8.533 0,-5.12 -3.413,-8.533 -8.533,-8.533 h -25.6 V 408.6 h 51.2 c 5.12,0 8.533,-3.413 8.533,-8.533 0,-5.12 -3.413,-8.533 -8.533,-8.533 h -51.2 v -17.067 z m -33.28,112.64 c -3.413,4.267 -8.533,6.827 -13.653,6.827 h -25.6 c -5.12,0 -10.24,-2.56 -13.653,-6.827 l -7.68,-10.24 h 68.267 z m 78.507,-199.68 c -21.333,21.333 -36.693,45.227 -43.52,69.973 h -27.307 v -128 H 306.2 c 18.773,0 34.133,-15.36 34.133,-34.133 0,-18.773 -15.36,-34.133 -34.133,-34.133 -18.773,0 -34.133,15.36 -34.133,34.133 v 17.067 h -34.133 v -17.067 c 0,-18.773 -15.36,-34.133 -34.133,-34.133 -18.773,0 -34.133,15.36 -34.133,34.133 0,18.773 15.36,34.133 34.133,34.133 h 17.067 v 128 H 193.56 c -6.827,-24.747 -22.187,-48.64 -43.52,-69.973 -35.84,-34.133 -52.907,-81.92 -47.787,-131.413 8.533,-72.533 66.56,-130.56 139.093,-139.093 4.267,0 8.533,-0.853 13.653,-0.853 5.12,0 9.387,0.853 13.653,0.853 72.533,8.533 131.413,66.56 139.093,139.093 5.122,49.493 -11.945,97.279 -47.785,131.413 z m -70.827,-75.094 v -17.067 c 0,-9.387 7.68,-17.067 17.067,-17.067 9.387,0 17.067,7.68 17.067,17.067 0,9.387 -7.68,17.067 -17.067,17.067 z"/>
   </g>
  </g>
 </g>
 <g style="opacity:0.5;fill:#ffffff" transform="matrix(0,-0.07115978,0.07115978,0,32.854308,154.38346)">
  <g style="fill:#ffffff" transform="translate(1,1)">
   <g style="fill:#ffffff">
    <g style="fill:#ffffff">
     <path style="fill:#ffffff" d="M 374.467,144.067 V 24.6 c 0,-14.507 -11.093,-25.6 -25.6,-25.6 H 161.133 c -14.507,0 -25.6,11.093 -25.6,25.6 v 119.467 c -5.12,0 -8.533,3.413 -8.533,8.533 v 76.8 c 0,5.12 3.413,8.533 8.533,8.533 V 255 c 0,6.572 0.958,12.92 2.722,18.927 0.132,0.736 0.352,1.418 0.637,2.051 7.951,24.177 29.2,42.414 54.668,46.435 -4.267,28.16 -6.827,68.267 -6.827,119.467 0,37.547 29.867,68.267 66.56,69.12 0,0 0.853,0 1.707,0 0.854,0 1.707,0 1.707,0 36.693,0 66.56,-31.573 66.56,-69.12 0,-51.2 -2.56,-91.307 -6.827,-119.467 32.427,-5.12 58.027,-33.28 58.027,-67.413 v -17.067 c 5.12,0 8.533,-3.413 8.533,-8.533 v -76.8 c 0,-5.12 -3.413,-8.533 -8.533,-8.533 z m -230.4,17.066 h 221.867 v 59.733 H 144.067 Z M 152.6,24.6 c 0,-4.267 4.267,-8.533 8.533,-8.533 H 178.2 v 76.8 c 0,5.12 3.413,8.533 8.533,8.533 5.12,0 8.533,-3.413 8.533,-8.533 v -76.8 h 17.067 v 102.4 c 0,5.12 3.413,8.533 8.533,8.533 5.12,0 8.533,-3.413 8.533,-8.533 v -102.4 h 17.067 v 76.8 c 0,5.12 3.413,8.533 8.533,8.533 5.12,0 8.533,-3.413 8.533,-8.533 v -76.8 H 280.6 v 102.4 c 0,5.12 3.413,8.533 8.533,8.533 5.12,0 8.533,-3.413 8.533,-8.533 v -102.4 h 17.067 v 76.8 c 0,5.12 3.413,8.533 8.533,8.533 5.12,0 8.533,-3.413 8.533,-8.533 v -76.8 h 17.067 c 5.12,0 8.533,3.413 8.533,8.533 V 144.067 H 152.6 Z M 356.547,255 c 0,28.16 -23.04,51.2 -51.2,51.2 -2.56,0 -5.12,1.707 -6.827,3.413 -1.707,1.706 -2.56,4.267 -1.707,6.827 5.12,27.307 8.533,69.12 8.533,125.44 0.853,28.16 -22.187,51.2 -49.493,52.053 0,0 -1.707,0 -2.56,0 -27.307,0 -49.493,-23.893 -49.493,-52.053 0.853,-55.467 3.413,-97.28 8.533,-124.587 0,-0.853 0,-1.707 0,-2.56 0,-5.12 -3.413,-8.533 -8.533,-8.533 -18.848,0 -35.39,-10.33 -44.278,-25.6 H 203.8 c 5.12,0 8.533,-3.413 8.533,-8.533 0,-5.12 -3.413,-8.533 -8.533,-8.533 h -50.47 c -0.471,-2.778 -0.73,-5.626 -0.73,-8.533 v -17.067 h 203.947 z"/>
     <path style="fill:#ffffff" d="m 255,459.8 c 18.773,0 34.133,-15.36 34.133,-34.133 0,-18.773 -15.36,-34.133 -34.133,-34.133 -18.773,0 -34.133,15.36 -34.133,34.133 0,18.773 15.36,34.133 34.133,34.133 z m 0,-51.2 c 9.387,0 17.067,7.68 17.067,17.067 0,9.387 -7.68,17.067 -17.067,17.067 -9.387,0 -17.067,-7.68 -17.067,-17.067 0,-9.387 7.68,-17.067 17.067,-17.067 z"/>
    </g>
   </g>
  </g>
 </g>
 <g style="opacity:0.5;fill:#ffffff" transform="matrix(0.04661958,-0.04088296,0.04088296,0.04661958,74.25664,148.85951)">
  <g style="fill:#ffffff">
   <g id="Layer_3_24_" style="fill:#ffffff">
    <path style="fill:#ffffff" d="m 410.879,281.916 -45.644,12.23 -30.762,-17.762 50.451,-13.519 c 5.334,-1.431 8.5,-6.913 7.07,-12.247 -1.429,-5.334 -6.914,-8.504 -12.248,-7.071 l -69.769,18.694 -26.424,-15.256 c -0.892,-0.514 -1.828,-0.875 -2.781,-1.092 l 28.071,-12.354 c 3.626,-1.598 5.969,-5.184 5.972,-9.146 0.003,-3.961 -2.334,-7.553 -5.959,-9.154 l -28.14,-12.431 c 0.972,-0.216 1.93,-0.563 2.837,-1.088 l 26.426,-15.257 69.771,18.693 c 0.867,0.232 1.737,0.344 2.595,0.344 4.415,-0.001 8.456,-2.947 9.652,-7.415 1.43,-5.335 -1.735,-10.818 -7.07,-12.247 l -50.452,-13.518 30.761,-17.76 45.645,12.229 c 0.866,0.232 1.736,0.344 2.594,0.344 4.415,-0.001 8.456,-2.947 9.653,-7.415 1.429,-5.335 -1.736,-10.818 -7.071,-12.247 l -26.324,-7.053 25.258,-14.583 c 4.783,-2.762 6.422,-8.877 3.66,-13.66 -2.762,-4.783 -8.877,-6.423 -13.66,-3.66 l -25.26,14.584 7.053,-26.325 c 1.429,-5.335 -1.735,-10.818 -7.071,-12.247 -5.335,-1.43 -10.817,1.736 -12.246,7.071 l -12.229,45.643 -30.762,17.761 13.519,-50.451 c 1.431,-5.334 -1.735,-10.817 -7.07,-12.247 -5.336,-1.432 -10.818,1.736 -12.248,7.071 l -18.695,69.77 -26.425,15.256 c -0.882,0.51 -1.654,1.134 -2.314,1.842 l 3.335,-30.475 c 0.431,-3.939 -1.504,-7.761 -4.935,-9.745 -3.432,-1.983 -7.71,-1.754 -10.907,0.584 l -24.835,18.155 c 0.296,-0.945 0.457,-1.951 0.457,-2.994 v -30.513 l 51.075,-51.077 c 3.904,-3.905 3.904,-10.237 0,-14.143 -3.905,-3.904 -10.237,-3.904 -14.143,0 l -36.934,36.933 V 67.452 l 33.413,-33.415 c 3.904,-3.905 3.904,-10.237 0,-14.143 -3.905,-3.904 -10.237,-3.904 -14.143,0 L 234.355,39.166 V 10 c 0,-5.522 -4.478,-10 -10,-10 -5.523,0 -10,4.478 -10,10 V 39.167 L 195.084,19.896 c -3.905,-3.904 -10.237,-3.904 -14.143,0 -3.905,3.905 -3.905,10.237 0,14.143 l 33.414,33.413 v 35.52 L 177.421,66.04 c -3.905,-3.904 -10.237,-3.904 -14.142,0 -3.905,3.905 -3.905,10.237 0,14.143 l 51.075,51.073 v 30.513 c 0,1.008 0.152,1.979 0.43,2.897 l -24.696,-18.104 c -3.195,-2.343 -7.473,-2.576 -10.906,-0.599 -3.433,1.979 -5.374,5.799 -4.948,9.738 l 3.31,30.621 c -0.676,-0.741 -1.474,-1.394 -2.389,-1.922 L 148.73,169.143 130.034,99.373 c -1.429,-5.335 -6.912,-8.502 -12.248,-7.071 -5.334,1.43 -8.5,6.913 -7.071,12.247 L 124.235,155 93.473,137.24 81.243,91.596 c -1.429,-5.334 -6.914,-8.501 -12.248,-7.07 -5.335,1.43 -8.5,6.913 -7.071,12.248 l 7.054,26.323 -25.258,-14.583 c -4.782,-2.76 -10.898,-1.123 -13.66,3.66 -2.762,4.783 -1.123,10.898 3.66,13.66 l 25.26,14.584 -26.325,7.054 c -5.334,1.43 -8.5,6.913 -7.071,12.247 1.197,4.468 5.237,7.415 9.653,7.415 0.856,0 1.728,-0.111 2.595,-0.344 l 45.643,-12.229 30.762,17.76 -50.452,13.52 c -5.334,1.43 -8.5,6.913 -7.071,12.247 1.197,4.468 5.237,7.415 9.653,7.415 0.856,0 1.728,-0.111 2.595,-0.344 l 69.769,-18.694 26.424,15.256 c 0.878,0.507 1.803,0.851 2.741,1.069 l -28.024,12.333 c -3.626,1.597 -5.969,5.184 -5.972,9.146 -0.003,3.961 2.334,7.553 5.959,9.153 l 28.179,12.449 c -0.988,0.214 -1.961,0.579 -2.884,1.112 l -26.426,15.256 -69.771,-18.692 c -5.335,-1.433 -10.818,1.735 -12.247,7.071 -1.43,5.335 1.736,10.818 7.071,12.247 l 50.451,13.518 -30.761,17.761 -45.644,-12.229 c -5.336,-1.431 -10.818,1.735 -12.247,7.071 -1.429,5.334 1.737,10.818 7.071,12.246 l 26.324,7.054 -25.258,14.583 c -4.783,2.762 -6.422,8.877 -3.66,13.66 1.852,3.207 5.213,5.002 8.669,5.002 1.696,0 3.416,-0.434 4.991,-1.342 l 25.26,-14.584 -7.054,26.324 c -1.43,5.334 1.736,10.817 7.071,12.248 0.867,0.231 1.738,0.344 2.595,0.344 4.415,0 8.456,-2.947 9.653,-7.416 l 12.23,-45.643 30.762,-17.761 -13.518,50.45 c -1.43,5.334 1.736,10.818 7.071,12.248 0.867,0.231 1.738,0.344 2.595,0.344 4.415,0 8.456,-2.947 9.653,-7.415 l 18.695,-69.771 26.424,-15.256 c 0.883,-0.51 1.656,-1.135 2.317,-1.844 l -3.331,30.434 c -0.431,3.939 1.504,7.762 4.935,9.746 3.43,1.981 7.708,1.752 10.907,-0.584 l 24.848,-18.164 c -0.307,0.961 -0.476,1.982 -0.476,3.045 v 30.515 l -51.074,51.075 c -3.905,3.906 -3.905,10.238 0,14.145 1.953,1.951 4.512,2.928 7.071,2.928 2.559,0 5.119,-0.977 7.071,-2.928 l 36.933,-36.932 v 35.52 l -33.412,33.414 c -3.905,3.906 -3.905,10.236 0,14.143 1.953,1.953 4.512,2.93 7.071,2.93 2.559,0 5.119,-0.977 7.071,-2.93 l 19.27,-19.273 v 29.166 c 0,5.523 4.477,10 10,10 5.522,0 10,-4.477 10,-10 v -29.166 l 19.271,19.271 c 3.905,3.904 10.237,3.904 14.144,0 3.904,-3.906 3.904,-10.238 0,-14.143 l -33.414,-33.414 v -35.52 l 36.932,36.932 c 3.905,3.904 10.237,3.904 14.144,0 3.905,-3.904 3.905,-10.236 0,-14.143 l -51.075,-51.073 v -30.513 c 0,-1.029 -0.156,-2.022 -0.445,-2.957 l 24.719,18.121 c 1.752,1.283 3.829,1.935 5.913,1.935 1.718,0 3.442,-0.442 4.993,-1.337 3.433,-1.979 5.374,-5.799 4.948,-9.737 l -3.303,-30.562 c 0.673,0.734 1.466,1.381 2.375,1.904 l 26.426,15.258 18.697,69.771 c 1.196,4.468 5.236,7.414 9.652,7.414 0.856,-10e-4 1.729,-0.11 2.596,-0.345 5.334,-1.43 8.5,-6.912 7.07,-12.248 l -13.52,-50.449 30.762,17.761 12.23,45.642 c 1.196,4.47 5.236,7.416 9.652,7.416 0.856,-0.002 1.729,-0.111 2.596,-0.344 5.334,-1.431 8.5,-6.914 7.07,-12.248 l -7.054,-26.324 25.258,14.584 c 1.575,0.908 3.294,1.342 4.991,1.342 3.456,0 6.817,-1.795 8.669,-5.002 2.762,-4.783 1.123,-10.898 -3.66,-13.66 l -25.26,-14.584 26.325,-7.055 c 5.334,-1.43 8.5,-6.912 7.071,-12.246 -1.432,-5.336 -6.916,-8.504 -12.249,-7.072 z M 255.155,235.318 c -3.989,1.756 -6.382,5.895 -5.914,10.228 l 2.919,27.021 -21.919,-16.068 c -1.76,-1.29 -3.836,-1.936 -5.912,-1.936 -2.072,0 -4.144,0.644 -5.901,1.928 l -21.94,16.037 2.957,-27.014 c 0.475,-4.334 -1.913,-8.475 -5.899,-10.236 l -24.86,-10.981 24.875,-10.948 c 3.989,-1.755 6.382,-5.894 5.914,-10.227 l -2.919,-27.019 21.919,16.068 c 3.515,2.577 8.295,2.579 11.812,0.008 l 21.939,-16.038 -2.956,27.015 c -0.476,4.333 1.913,8.474 5.898,10.235 l 24.861,10.981 z"/>
   </g>
  </g>
 </g>
 <g style="opacity:0.5;fill:#ffffff" transform="matrix(0.06169696,-0.03400738,0.03400738,0.06169696,82.209523,35.956789)">
  <g style="fill:#ffffff">
   <path style="fill:#ffffff" d="M 335.954,169.698 V 58.679 H 144.918 v 111.02 H 335.954 Z M 159.918,73.679 h 161.036 v 81.02 H 159.918 Z"/>
   <rect style="fill:#ffffff" width="128.993" height="15" x="175.94" y="89.52"/>
   <rect style="fill:#ffffff" width="128.993" height="15" x="175.94" y="119.52"/>
   <path style="fill:#ffffff" d="M 391.076,0 H 104.224 C 82.542,0 64.902,17.64 64.902,39.323 c 0,0 0.003,332.512 0.003,332.514 0,21.68 17.638,39.318 39.318,39.318 h 22.913 v 44.823 h 55.897 V 411.155 H 391.07 Z m -15,332.506 H 111.724 V 15 H 376.076 Z M 96.724,16.189 v 317.032 c -6.142,1.18 -11.883,3.811 -16.822,7.715 V 39.323 c 0,-10.795 7.071,-19.965 16.822,-23.134 z m 7.499,379.966 c -13.409,0 -24.318,-10.909 -24.318,-24.318 0,-6.505 2.529,-12.617 7.122,-17.209 4.592,-4.592 10.699,-7.121 17.196,-7.121 h 22.913 v 48.648 z m 37.913,44.823 v -93.472 h 25.897 v 93.472 z M 376.071,396.155 H 183.034 v -48.648 h 193.037 z"/>
  </g>
 </g>
</svg>
