<?xml version="1.0" encoding="UTF-8" standalone="no"?>
<svg
   width="192"
   height="192"
   version="1"
   id="svg16"
   sodipodi:docname="apps_beatfind.svg"
   inkscape:version="1.1.1 (1:1.1+202109281949+c3084ef5ed)"
   xmlns:inkscape="http://www.inkscape.org/namespaces/inkscape"
   xmlns:sodipodi="http://sodipodi.sourceforge.net/DTD/sodipodi-0.dtd"
   xmlns="http://www.w3.org/2000/svg"
   xmlns:svg="http://www.w3.org/2000/svg"
   xmlns:rdf="http://www.w3.org/1999/02/22-rdf-syntax-ns#"
   xmlns:cc="http://creativecommons.org/ns#"
   xmlns:dc="http://purl.org/dc/elements/1.1/">
  <metadata
     id="metadata22">
    <rdf:RDF>
      <cc:Work
         rdf:about="">
        <dc:format>image/svg+xml</dc:format>
        <dc:type
           rdf:resource="http://purl.org/dc/dcmitype/StillImage" />
      </cc:Work>
    </rdf:RDF>
  </metadata>
  <defs
     id="defs20">
    <filter
       inkscape:collect="always"
       style="color-interpolation-filters:sRGB"
       id="filter867"
       x="-0.048000001"
       width="1.096"
       y="-0.048000001"
       height="1.096">
      <feGaussianBlur
         inkscape:collect="always"
         stdDeviation="3.2"
         id="feGaussianBlur869" />
    </filter>
    <filter
       inkscape:collect="always"
       style="color-interpolation-filters:sRGB"
       id="filter3846"
       x="-0.048000144"
       y="-0.047999855"
       width="1.0960003"
       height="1.0959997">
      <feGaussianBlur
         inkscape:collect="always"
         stdDeviation="3.2000103"
         id="feGaussianBlur3848" />
    </filter>
    <filter
       inkscape:collect="always"
       style="color-interpolation-filters:sRGB"
       id="filter3888"
       x="-0.075"
       y="-0.075"
       width="1.15"
       height="1.15">
      <feGaussianBlur
         inkscape:collect="always"
         stdDeviation="2.5"
         id="feGaussianBlur3890" />
    </filter>
    <filter
       inkscape:collect="always"
       style="color-interpolation-filters:sRGB"
       id="filter3930"
       x="-0.072383655"
       y="-0.077812585"
       width="1.1447673"
       height="1.1556252">
      <feGaussianBlur
         inkscape:collect="always"
         stdDeviation="2.5937549"
         id="feGaussianBlur3932" />
    </filter>
  </defs>
  <sodipodi:namedview
     pagecolor="#ffffff"
     bordercolor="#666666"
     borderopacity="1"
     objecttolerance="10"
     gridtolerance="10"
     guidetolerance="10"
     inkscape:pageopacity="0"
     inkscape:pageshadow="2"
     inkscape:window-width="1920"
     inkscape:window-height="1019"
     id="namedview18"
     showgrid="false"
     inkscape:zoom="1"
     inkscape:cx="136.5"
     inkscape:cy="137.5"
     inkscape:window-x="0"
     inkscape:window-y="34"
     inkscape:window-maximized="1"
     inkscape:current-layer="svg16"
     inkscape:pagecheckerboard="0"
     inkscape:snap-bbox="true"
     inkscape:snap-bbox-midpoints="true">
    <inkscape:grid
       type="xygrid"
       id="grid7495" />
  </sodipodi:namedview>
  <rect
     id="rect849"
     ry="80"
     rx="80"
     height="160"
     width="160"
     y="-176"
     x="-180"
     transform="matrix(0,-1,-1,0,0,0)"
     style="opacity:0.2;fill:#000000;stroke-width:4;filter:url(#filter867)" />
  <path
     id="rect2"
     style="fill:#3f2664;stroke-width:4"
     transform="matrix(0,-1,-1,0,0,0)"
     d="m -97.856764,-158.6304 c 44.32,0 71.013488,14.67534 71.013488,58.995336 0,44.32 -25.360963,71.617986 -69.680963,71.617986 -18.147531,0 -34.322221,6.034885 -47.716191,-4.073151 -6.93282,-5.231994 -12.98019,-11.569373 -17.88467,-18.754706 -8.76083,-12.835104 -2.8107,-25.108998 -2.8107,-41.88817 0,-44.320005 22.75904,-65.897295 67.079036,-65.897295 z"
     sodipodi:nodetypes="sssssss" />
  <path
     style="opacity:0.2;fill:#ffffff;stroke-width:4"
     d="M 96 16 C 51.68 16 16 51.68 16 96 C 16 96.336 16.002 96.6675 16 97 C 16 52.68 51.68 17 96 17 C 140.32 17 176 52.68 176 97 C 175.998 96.6675 176 96.336 176 96 C 176 51.68 140.32 16 96 16 z "
     id="path4" />
  <path
     id="path3808"
     style="opacity:0.2;fill:#000000;fill-opacity:1;stroke-width:0.375199;filter:url(#filter3846)"
     d="m 94.537109,20.001515 c -3.508591,0.02659 -6.870226,0.263196 -9.818359,0.71875 -26.53856,4.100803 -48.825457,20.305139 -60.458984,43.957031 -12.791892,26.006936 -10.607838,56.686544 5.738281,80.585934 1.237151,1.80882 2.365367,3.36122 2.507812,3.44922 0.142441,0.0881 3.496875,-2.99611 7.453125,-6.85351 8.234746,-8.02903 9.055475,-8.96843 9.046875,-13.39258 -0.0023,-1.16694 -0.133361,-1.98883 -0.43164,-2.92969 C 44.306131,117.69838 42.04738,108.92442 42,99.999562 c 0,-29.823376 24.176624,-54 54,-54 29.82338,0 54,24.176624 54,54 0,29.823378 -24.17662,53.999998 -54,53.999998 -7.400017,-0.0209 -14.716763,-1.56259 -21.496094,-4.5293 -1.938301,-0.49697 -3.468667,-0.676 -5.216797,-0.33203 -4.23728,0.83374 -5.204794,1.99369 -12.546875,9.03906 -3.821751,3.6673 -6.949218,6.79125 -6.949218,6.94336 0,0.40109 3.82698,2.93811 7.509765,4.97852 8.779506,4.86419 19.777549,8.40474 29.632813,9.53906 4.688471,0.53964 14.265676,0.46418 19.021486,-0.15039 18.5291,-2.39445 35.16235,-10.82335 48.05859,-24.35156 11.52039,-12.08495 18.71493,-26.85101 21.33008,-43.7793 0.79401,-5.13978 0.88834,-16.976783 0.17187,-21.539059 C 173.39102,76.288847 169.47285,65.910951 162.5918,55.5855 154.32549,44.257399 153.98051,44.321024 147.50391,38.780812 137.73724,30.412323 124.77763,24.122864 112.07031,21.583546 106.64037,20.498475 100.38476,19.957207 94.537109,20.001515 Z"
     sodipodi:nodetypes="ssssccsccssccssssscsssccss" />
  <path
     id="path1388"
     style="fill:#f4369f;stroke-width:0.375199;opacity:1;fill-opacity:1"
     d="m 94.537109,16.001953 c -3.508591,0.02659 -6.870226,0.263196 -9.818359,0.71875 -26.53856,4.100803 -48.825457,20.305139 -60.458984,43.957031 -12.791892,26.006936 -10.607838,56.686546 5.738281,80.585936 1.237151,1.80882 2.365367,3.36122 2.507812,3.44922 0.142441,0.0881 3.496875,-2.99611 7.453125,-6.85351 8.234746,-8.02903 9.055475,-8.96843 9.046875,-13.39258 -0.0023,-1.16694 -0.133361,-1.98883 -0.43164,-2.92969 C 44.306131,113.69882 42.04738,104.92486 42,96 42,66.176624 66.176624,42 96,42 c 29.82338,0 54,24.176624 54,54 0,29.82338 -24.17662,54 -54,54 -7.400017,-0.0209 -14.716763,-1.56259 -21.496094,-4.5293 -1.938301,-0.49697 -3.468667,-0.676 -5.216797,-0.33203 -4.23728,0.83374 -5.204794,1.99369 -12.546875,9.03906 -3.821751,3.6673 -6.949218,6.79125 -6.949218,6.94336 0,0.40109 3.82698,2.93811 7.509765,4.97852 8.779506,4.86419 19.777549,8.40474 29.632813,9.53906 4.688471,0.53964 14.265676,0.46418 19.021486,-0.15039 18.5291,-2.39445 35.16235,-10.82335 48.05859,-24.35156 11.52039,-12.08495 18.71493,-26.85101 21.33008,-43.7793 0.79401,-5.13978 0.88834,-16.976785 0.17187,-21.539061 -2.1246,-13.529074 -6.04277,-23.90697 -12.92382,-34.232421 -8.26631,-11.328101 -8.61129,-11.264476 -15.08789,-16.804688 -9.76667,-8.368489 -22.72628,-14.657948 -35.4336,-17.197266 -5.42994,-1.085071 -11.68555,-1.626339 -17.533201,-1.582031 z"
     sodipodi:nodetypes="ssssccsccssccssssscsssccss" />
  <path
     id="path3934"
     style="fill:#ffffff;stroke-width:0.375199;opacity:0.2;fill-opacity:1"
     d="M 94.537109 16.001953 C 91.028518 16.028543 87.666883 16.265149 84.71875 16.720703 C 58.18019 20.821506 35.893293 37.025842 24.259766 60.677734 C 18.599977 72.184536 15.884386 84.604942 16.017578 96.949219 C 16.038416 84.934989 18.75284 72.873752 24.259766 61.677734 C 35.893293 38.025842 58.18019 21.821506 84.71875 17.720703 C 87.666883 17.265149 91.028518 17.028543 94.537109 17.001953 C 100.38476 16.957645 106.64037 17.498913 112.07031 18.583984 C 124.77763 21.123302 137.73724 27.412761 147.50391 35.78125 C 153.98051 41.321462 154.32549 41.257836 162.5918 52.585938 C 169.47285 62.911388 173.39102 73.289285 175.51562 86.818359 C 175.85399 88.972976 175.99793 92.779058 175.98633 96.707031 C 176.0312 92.417307 175.88373 88.162371 175.51562 85.818359 C 173.39103 72.289285 169.47285 61.911388 162.5918 51.585938 C 154.32549 40.257836 153.98051 40.321462 147.50391 34.78125 C 137.73724 26.412761 124.77763 20.123302 112.07031 17.583984 C 106.64037 16.498913 100.38476 15.957645 94.537109 16.001953 z M 42.015625 96.410156 C 42.013503 96.607452 42 96.802202 42 97 C 42.04738 105.92486 44.306131 114.69882 48.574219 122.53711 C 48.841508 123.38022 48.957966 124.15859 48.984375 125.14453 C 48.990226 124.91717 49.00634 124.71408 49.005859 124.4668 C 49.003559 123.29986 48.872498 122.47797 48.574219 121.53711 C 44.371692 113.81922 42.129124 105.19318 42.015625 96.410156 z M 149.98828 96.5 C 149.71857 126.09201 125.65572 150 96 150 C 88.599983 149.9791 81.283237 148.43741 74.503906 145.4707 C 72.565605 144.97373 71.035239 144.7947 69.287109 145.13867 C 65.049829 145.97241 64.082315 147.13236 56.740234 154.17773 C 52.918483 157.84503 49.791016 160.96898 49.791016 161.12109 C 49.791016 161.19518 50.039259 161.40612 50.275391 161.60938 C 50.899579 160.88364 53.372188 158.40967 56.740234 155.17773 C 64.082315 148.13236 65.049829 146.97241 69.287109 146.13867 C 71.035239 145.7947 72.565605 145.97373 74.503906 146.4707 C 81.283237 149.43741 88.599983 150.9791 96 151 C 125.82338 151 150 126.82338 150 97 C 150 96.832343 149.98981 96.667297 149.98828 96.5 z " />
  <circle
     style="opacity:0.2;fill:#000000;fill-opacity:1;stroke:none;stroke-width:1.96946;stroke-linecap:round;stroke-linejoin:round;filter:url(#filter3888)"
     id="circle3850"
     cx="96"
     cy="98"
     r="40" />
  <circle
     style="opacity:1;fill:#8a65e5;fill-opacity:1;stroke:none;stroke-width:1.96946;stroke-linecap:round;stroke-linejoin:round"
     id="circle2020"
     cx="96"
     cy="96"
     r="40" />
  <path
     id="circle3936"
     style="opacity:0.2;fill:#ffffff;fill-opacity:1;stroke:none;stroke-width:1.96946;stroke-linecap:round;stroke-linejoin:round"
     d="M 96 56 A 40 40 0 0 0 56 96 A 40 40 0 0 0 56.035156 96.5 A 40 40 0 0 1 96 57 A 40 40 0 0 1 135.98242 96.257812 A 40 40 0 0 0 136 96 A 40 40 0 0 0 96 56 z " />
  <path
     id="path3892"
     style="opacity:0.2;fill:#000000;stroke-width:0.376645;filter:url(#filter3930)"
     d="m 138.71094,40 c -16.87546,0.0069 -17.19071,0.0502 -19.13477,2.673828 -0.57251,0.772633 -3.25316,8.124209 -6.90429,18.935547 -3.18629,9.434826 -5.67007,16.747633 -5.85352,17.242187 C 103.51822,76.984676 99.791596,76.002393 96,76 83.849736,76 74,85.849736 74,98 c 0,12.15026 9.849736,22 22,22 10.89767,-0.004 19.48077,-10.1517 21.75195,-18.76562 1.78147,-5.117791 4.45481,-13.182595 8.70117,-26.185552 4.51426,-13.82329 5.01389,-15.133366 5.76954,-15.134766 0.45499,-8.92e-4 4.81848,0.841858 9.69531,1.382219 10.1406,1.123597 11.0543,1.039171 13.32812,-1.226562 1.1533,-1.149198 1.67114,-2.652731 3.08399,-6.960344 C 159.26419,50.261432 160.0158,47.456515 160,46.875 159.9253,44.123372 157.64733,41.057345 155.16797,40.371094 154.35496,40.146069 147.69308,39.9963 138.71094,40 Z"
     sodipodi:nodetypes="cssccsccscsssssc" />
  <path
     id="path1386"
     style="fill:#ffffff;stroke-width:0.376645"
     d="m 138.71094,38 c -16.87546,0.0069 -17.19071,0.0502 -19.13477,2.673828 -0.57251,0.772633 -3.25316,8.124209 -6.90429,18.935547 -3.18629,9.434826 -5.67007,16.747633 -5.85352,17.242187 C 103.51822,74.984676 99.791596,74.002393 96,74 83.849736,74 74,83.849736 74,96 c 0,12.15026 9.849736,22 22,22 10.89767,-0.004 19.48077,-10.1517 21.75195,-18.765625 1.78147,-5.117786 4.45481,-13.18259 8.70117,-26.185547 4.51426,-13.82329 5.01389,-15.133366 5.76954,-15.134766 0.45499,-8.92e-4 4.81848,0.841858 9.69531,1.382219 10.1406,1.123597 11.0543,1.039171 13.32812,-1.226562 1.1533,-1.149198 1.67114,-2.652731 3.08399,-6.960344 C 159.26419,48.261432 160.0158,45.456515 160,44.875 159.9253,42.123372 157.64733,39.057345 155.16797,38.371094 154.35496,38.146069 147.69308,37.9963 138.71094,38 Z"
     sodipodi:nodetypes="cssccsccscsssssc" />
</svg>
