<?xml version="1.0" encoding="UTF-8" standalone="no"?>
<svg
   width="192"
   height="192"
   version="1"
   id="svg28"
   sodipodi:docname="apps_perfect_viewer.svg"
   inkscape:version="1.1.1 (1:1.1+202109281949+c3084ef5ed)"
   xmlns:inkscape="http://www.inkscape.org/namespaces/inkscape"
   xmlns:sodipodi="http://sodipodi.sourceforge.net/DTD/sodipodi-0.dtd"
   xmlns="http://www.w3.org/2000/svg"
   xmlns:svg="http://www.w3.org/2000/svg"
   xmlns:rdf="http://www.w3.org/1999/02/22-rdf-syntax-ns#"
   xmlns:cc="http://creativecommons.org/ns#"
   xmlns:dc="http://purl.org/dc/elements/1.1/">
  <metadata
     id="metadata34">
    <rdf:RDF>
      <cc:Work
         rdf:about="">
        <dc:format>image/svg+xml</dc:format>
        <dc:type
           rdf:resource="http://purl.org/dc/dcmitype/StillImage" />
      </cc:Work>
    </rdf:RDF>
  </metadata>
  <defs
     id="defs32">
    <filter
       inkscape:collect="always"
       style="color-interpolation-filters:sRGB"
       id="filter16527"
       x="-0.045804728"
       y="-0.05041629"
       width="1.0916095"
       height="1.1008326">
      <feGaussianBlur
         inkscape:collect="always"
         stdDeviation="3.1300197"
         id="feGaussianBlur16529" />
    </filter>
    <filter
       inkscape:collect="always"
       style="color-interpolation-filters:sRGB"
       id="filter16569"
       x="-0.060777709"
       y="-0.097911866"
       width="1.1215554"
       height="1.1958237">
      <feGaussianBlur
         inkscape:collect="always"
         stdDeviation="2.7433844"
         id="feGaussianBlur16571" />
    </filter>
  </defs>
  <sodipodi:namedview
     pagecolor="#ffffff"
     bordercolor="#666666"
     borderopacity="1"
     objecttolerance="10"
     gridtolerance="10"
     guidetolerance="10"
     inkscape:pageopacity="0"
     inkscape:pageshadow="2"
     inkscape:window-width="1920"
     inkscape:window-height="1022"
     id="namedview30"
     showgrid="false"
     inkscape:zoom="1.32"
     inkscape:cx="98.484848"
     inkscape:cy="95.454545"
     inkscape:window-x="0"
     inkscape:window-y="34"
     inkscape:window-maximized="1"
     inkscape:current-layer="svg28"
     inkscape:pagecheckerboard="0"
     inkscape:snap-global="true"
     showguides="false">
    <inkscape:grid
       type="xygrid"
       id="grid841" />
  </sodipodi:namedview>
  <path
     id="path16489"
     style="opacity:0.2;fill:#000000;fill-opacity:1;stroke-width:18.4899;stroke-linecap:round;stroke-linejoin:round;filter:url(#filter16527)"
     d="M 108.44141,25.107602 A 59.460932,82.391734 81.911403 0 0 87.039062,26.216977 59.460932,82.391734 81.911403 0 0 14.490234,97.021664 59.460932,82.391734 81.911403 0 0 53.310547,138.87323 L 52,167.61932 c 0,12.19933 11.814453,3.1543 11.814453,3.1543 l 30.103516,-25.91211 a 59.460932,82.391734 81.911403 0 0 11.042971,-1.07813 59.460932,82.391734 81.911403 0 0 72.54883,-70.804684 59.460932,82.391734 81.911403 0 0 -69.06836,-47.871094 z" />
  <path
     id="path1217"
     style="fill:#434cbe;fill-opacity:1;stroke-width:18.4899;stroke-linecap:round;stroke-linejoin:round"
     d="M 108.44141,21.107422 A 59.460932,82.391734 81.911403 0 0 87.039062,22.216797 59.460932,82.391734 81.911403 0 0 14.490234,93.021484 59.460932,82.391734 81.911403 0 0 53.310547,134.87305 L 52,163.61914 c 0,12.19933 11.814453,3.1543 11.814453,3.1543 L 93.917969,140.86133 A 59.460932,82.391734 81.911403 0 0 104.96094,139.7832 59.460932,82.391734 81.911403 0 0 177.50977,68.978516 59.460932,82.391734 81.911403 0 0 108.44141,21.107422 Z" />
  <path
     id="path16531"
     style="font-weight:bold;font-size:72.3873px;line-height:1.25;-inkscape-font-specification:'sans-serif Bold';opacity:0.2;fill:#000000;stroke-width:1.80968;filter:url(#filter16569)"
     d="m 41.834395,63.793481 8.03758,51.677519 10.67247,-1.65993 -2.8594,-18.384442 4.59515,-0.714698 c 4.90101,-0.762272 8.64158,-2.160285 11.22142,-4.192348 2.62699,-2.039396 4.34959,-4.4556 5.16959,-7.251738 0.8125,-2.844386 0.98738,-5.762965 0.52208,-8.754557 -0.78048,-5.018127 -2.89986,-8.716283 -6.35866,-11.094013 -3.41917,-2.433322 -8.38019,-3.143966 -14.88345,-2.132491 z m 38.02911,-5.914798 25.144395,49.016827 11.66251,-1.81392 9.14066,-54.349292 -10.8153,1.682139 -4.75938,32.243413 c -0.0588,0.552752 -0.16425,1.583011 -0.31611,3.089187 -0.15937,1.457923 -0.30371,3.012037 -0.43305,4.662965 -0.0897,1.595348 -0.12224,2.934436 -0.0985,4.017952 -0.30647,-1.039539 -0.76843,-2.30172 -1.38558,-3.787124 -0.62467,-1.533655 -1.23419,-2.970518 -1.82883,-4.311169 -0.55501,-1.396232 -0.96837,-2.345804 -1.23941,-2.847252 L 90.678785,56.196545 Z m 50.118105,-7.795046 7.13528,34.247779 8.41252,-1.308429 -3.60158,-34.797386 z m -76.078975,21.024052 4.87692,-0.758523 c 5.65501,-0.879544 8.87409,1.189024 9.65458,6.207161 0.42777,2.750323 -0.15639,4.892621 -1.75203,6.425675 -1.55601,1.477475 -3.84122,2.451496 -6.85722,2.920586 l -3.53562,0.549906 z m 81.988165,18.379662 1.92137,12.353429 12.35343,-1.921374 -1.92136,-12.353427 z" />
  <path
     id="path15580"
     style="font-weight:bold;font-size:72.3873px;line-height:1.25;-inkscape-font-specification:'sans-serif Bold';fill:#ffffff;stroke-width:1.80968"
     d="m 41.834395,61.793331 8.03758,51.677519 10.67247,-1.65993 -2.8594,-18.384442 4.59515,-0.714698 c 4.90101,-0.762272 8.64158,-2.160285 11.22142,-4.192348 2.62699,-2.039396 4.34959,-4.4556 5.16959,-7.251738 0.8125,-2.844386 0.98738,-5.762965 0.52208,-8.754557 -0.78048,-5.018127 -2.89986,-8.716283 -6.35866,-11.094013 -3.41917,-2.433322 -8.38019,-3.143966 -14.88345,-2.132491 z m 38.02911,-5.914798 25.144395,49.016827 11.66251,-1.81392 9.14066,-54.349292 -10.8153,1.682139 -4.75938,32.243413 c -0.0588,0.552752 -0.16425,1.583011 -0.31611,3.089187 -0.15937,1.457923 -0.30371,3.012037 -0.43305,4.662965 -0.0897,1.595348 -0.12224,2.934436 -0.0985,4.017952 -0.30647,-1.039539 -0.76843,-2.30172 -1.38558,-3.787124 -0.62467,-1.533655 -1.23419,-2.970518 -1.82883,-4.311169 -0.55501,-1.396232 -0.96837,-2.345804 -1.23941,-2.847252 L 90.678785,54.196395 Z m 50.118105,-7.795046 7.13528,34.247779 8.41252,-1.308429 -3.60158,-34.797386 z m -76.078975,21.024052 4.87692,-0.758523 c 5.65501,-0.879544 8.87409,1.189024 9.65458,6.207161 0.42777,2.750323 -0.15639,4.892621 -1.75203,6.425675 -1.55601,1.477475 -3.84122,2.451496 -6.85722,2.920586 l -3.53562,0.549906 z m 81.988165,18.379662 1.92137,12.353428 12.35343,-1.921373 -1.92136,-12.353427 z" />
  <path
     id="path16573"
     style="fill:#ffffff;fill-opacity:1;stroke-width:18.4899;stroke-linecap:round;stroke-linejoin:round;opacity:0.1"
     d="M 108.44141 21.107422 A 59.460932 82.391734 81.911403 0 0 87.039062 22.216797 A 59.460932 82.391734 81.911403 0 0 14.083984 85.263672 A 59.460932 82.391734 81.911403 0 1 87.039062 23.216797 A 59.460932 82.391734 81.911403 0 1 108.44141 22.107422 A 59.460932 82.391734 81.911403 0 1 177.50977 69.978516 A 59.460932 82.391734 81.911403 0 1 177.91602 77.736328 A 59.460932 82.391734 81.911403 0 0 177.50977 68.978516 A 59.460932 82.391734 81.911403 0 0 108.44141 21.107422 z M 53.265625 135.85352 L 52 163.61914 C 52 163.77281 52.023642 163.88426 52.027344 164.03125 L 53.310547 135.87305 A 59.460932 82.391734 81.911403 0 1 53.265625 135.85352 z " />
</svg>
