<?xml version="1.0" encoding="UTF-8" standalone="no"?>
<svg
   width="192"
   height="192"
   version="1.1"
   id="svg14"
   sodipodi:docname="apps_coub.svg"
   inkscape:version="1.1.1 (1:1.1+202109281949+c3084ef5ed)"
   xmlns:inkscape="http://www.inkscape.org/namespaces/inkscape"
   xmlns:sodipodi="http://sodipodi.sourceforge.net/DTD/sodipodi-0.dtd"
   xmlns="http://www.w3.org/2000/svg"
   xmlns:svg="http://www.w3.org/2000/svg">
  <defs
     id="defs18">
    <filter
       inkscape:collect="always"
       style="color-interpolation-filters:sRGB"
       id="filter849"
       x="-0.048000001"
       y="-0.048000001"
       width="1.096"
       height="1.096">
      <feGaussianBlur
         inkscape:collect="always"
         stdDeviation="3.2"
         id="feGaussianBlur851" />
    </filter>
    <filter
       inkscape:collect="always"
       style="color-interpolation-filters:sRGB"
       id="filter3545"
       x="-0.081605295"
       y="-0.057104082"
       width="1.1632106"
       height="1.1142082">
      <feGaussianBlur
         inkscape:collect="always"
         stdDeviation="3.2"
         id="feGaussianBlur3547" />
    </filter>
  </defs>
  <sodipodi:namedview
     id="namedview16"
     pagecolor="#ffffff"
     bordercolor="#666666"
     borderopacity="1.0"
     inkscape:pageshadow="2"
     inkscape:pageopacity="0.0"
     inkscape:pagecheckerboard="0"
     showgrid="false"
     inkscape:zoom="1"
     inkscape:cx="101.5"
     inkscape:cy="85.5"
     inkscape:window-width="1920"
     inkscape:window-height="1019"
     inkscape:window-x="0"
     inkscape:window-y="34"
     inkscape:window-maximized="1"
     inkscape:current-layer="svg14"
     inkscape:snap-global="false">
    <inkscape:grid
       type="xygrid"
       id="grid1233" />
  </sodipodi:namedview>
  <circle
     style="opacity:0.2;stroke-width:4;filter:url(#filter849)"
     cx="96"
     cy="100"
     r="80"
     id="circle2" />
  <circle
     style="fill:#2e4cd2;fill-opacity:1;stroke-width:4"
     cx="96"
     cy="96"
     r="80"
     id="circle4" />
  <path
     id="path12"
     style="opacity:0.1;fill:#ffffff;stroke-width:4"
     d="M 96,16 A 80,80 0 0 0 16,96 80,80 0 0 0 16.023438,96.638672 80,80 0 0 1 96,17 80,80 0 0 1 175.98438,96.302734 80,80 0 0 0 176,96 80,80 0 0 0 96,16 Z" />
  <path
     id="path3507"
     style="opacity:0.2;fill:#000000;stroke-width:3.3917;stroke-linecap:round;filter:url(#filter3545)"
     d="m 78.972656,39.00002 c -1.291869,-0.07618 -2.677937,0.480257 -3.927734,1.609375 -2.410462,2.177707 -2.568504,3.854372 -3.875,15.269531 -1.005995,8.789692 -1.215781,12.23536 -1.423828,23.490235 -0.19479,10.53765 -0.35432,13.413574 -0.800782,14.300781 -0.307359,0.610788 -2.001868,2.276678 -3.763671,3.701172 -4.540835,3.671416 -7.529038,6.657516 -8.191407,8.189456 -0.936801,2.16662 -1.214009,5.89569 -0.824218,11.07812 0.405754,5.39479 1.254867,8.46127 3.6875,13.33203 2.588604,5.18306 3.104555,8.80073 2.396484,11.95703 -0.322589,1.43796 -6.051518,13.52643 -8.464844,19.83985 11.004455,6.78889 23.490479,10.80927 36.388672,11.71679 0.374351,-1.47284 1.349432,-0.1837 3.550781,-6.19921 4.857159,-13.27294 4.817612,-13.20616 12.755861,-22.17383 4.71732,-5.32902 5.26153,-6.12155 11.91211,-17.38477 3.83271,-6.49093 8.48175,-14.09052 10.33203,-16.88867 4.73954,-7.16755 17.22699,-27.326628 18.2793,-29.583984 1.08328,-2.323809 1.1986,-5.759947 0.24804,-7.36914 -1.27518,-2.158703 -4.2318,-2.394098 -6.89453,-0.548828 -0.87834,0.608682 -3.94015,4.503138 -8.23437,10.472656 -5.63123,7.828162 -7.73264,10.289819 -11.45508,13.960937 -2.98463,2.943479 -4.54631,4.413249 -4.98633,4.328129 -0.59289,-0.11469 -0.66797,-0.62544 -0.66797,-4.644535 0,-4.234782 -0.0639,-4.92618 -1.02344,-6.558594 -2.28204,-3.881884 -6.1964,-3.930822 -9.92578,-0.130859 -1.62836,1.65916 -3.24723,2.453511 -3.80273,1.554687 -0.14642,-0.236919 -0.23432,-1.579441 -0.19336,-2.982421 0.11551,-3.955992 -0.875148,-6.455936 -3.718751,-7.761719 -2.829094,-1.299131 -5.700925,-0.684797 -8.478515,1.8125 -2.03306,1.8279 -3.240986,2.26943 -3.742188,0.951172 -0.182363,-0.47966 -0.637769,-3.929843 -1.009765,-7.667969 -0.652596,-6.557787 -0.651675,-7.23313 0.01758,-19.257813 0.381487,-6.854406 0.584501,-13.009134 0.451172,-13.675781 -0.570609,-2.85306 -2.462108,-4.609362 -4.615235,-4.736328 z"
     sodipodi:nodetypes="ssssscssssccscssssssssscsssssssssss" />
  <path
     id="rect1163"
     style="opacity:1;fill:#ffffff;stroke-width:3.3917;stroke-linecap:round"
     d="M 78.972656 37 C 77.680787 36.92382 76.294719 37.480257 75.044922 38.609375 C 72.63446 40.787082 72.476418 42.463747 71.169922 53.878906 C 70.163927 62.668598 69.954141 66.114266 69.746094 77.369141 C 69.551304 87.906791 69.391774 90.782715 68.945312 91.669922 C 68.637953 92.28071 66.943444 93.9466 65.181641 95.371094 C 60.640806 99.042508 57.652603 102.02861 56.990234 103.56055 C 56.053433 105.72717 55.776225 109.45624 56.166016 114.63867 C 56.57177 120.03346 57.420883 123.09994 59.853516 127.9707 C 62.44212 133.15376 62.958071 136.77143 62.25 139.92773 C 61.927411 141.36569 56.198482 157.55377 53.785156 163.86719 A 80 80 0 0 0 90.173828 175.58398 C 90.548179 174.11114 91.52326 171.30067 93.724609 165.28516 C 98.581768 152.01222 98.542221 152.079 106.48047 143.11133 C 111.19779 137.78231 111.742 136.98978 118.39258 125.72656 C 122.22529 119.23563 126.87433 111.63604 128.72461 108.83789 C 133.46415 101.67034 145.9516 81.511262 147.00391 79.253906 C 148.08719 76.930097 148.20251 73.493959 147.25195 71.884766 C 145.97677 69.726063 143.02015 69.490668 140.35742 71.335938 C 139.47908 71.94462 136.41727 75.839076 132.12305 81.808594 C 126.49182 89.636756 124.39041 92.098413 120.66797 95.769531 C 117.68334 98.713006 116.12166 100.18278 115.68164 100.09766 C 115.08875 99.982972 115.01367 99.472218 115.01367 95.453125 C 115.01367 91.218343 114.94981 90.526945 113.99023 88.894531 C 111.70819 85.012647 107.79383 84.963709 104.06445 88.763672 C 102.43609 90.422832 100.81722 91.217183 100.26172 90.318359 C 100.1153 90.08144 100.0274 88.738918 100.06836 87.335938 C 100.18387 83.379946 99.193212 80.880002 96.349609 79.574219 C 93.520515 78.275088 90.648684 78.889422 87.871094 81.386719 C 85.838034 83.214619 84.630108 83.656149 84.128906 82.337891 C 83.946543 81.858231 83.491137 78.408048 83.119141 74.669922 C 82.466545 68.112135 82.467466 67.436792 83.136719 55.412109 C 83.518206 48.557703 83.72122 42.402975 83.587891 41.736328 C 83.017282 38.883268 81.125783 37.126966 78.972656 37 z " />
</svg>
