<?xml version="1.0" encoding="UTF-8" standalone="no"?>
<svg
   width="192"
   height="192"
   version="1"
   id="svg19"
   sodipodi:docname="apps_oldschool_editor.svg"
   inkscape:version="1.1.2 (1:1.1+202202050950+0a00cf5339)"
   xmlns:inkscape="http://www.inkscape.org/namespaces/inkscape"
   xmlns:sodipodi="http://sodipodi.sourceforge.net/DTD/sodipodi-0.dtd"
   xmlns="http://www.w3.org/2000/svg"
   xmlns:svg="http://www.w3.org/2000/svg">
  <sodipodi:namedview
     id="namedview21"
     pagecolor="#ffffff"
     bordercolor="#666666"
     borderopacity="1.0"
     inkscape:pageshadow="2"
     inkscape:pageopacity="0.0"
     inkscape:pagecheckerboard="0"
     showgrid="false"
     inkscape:zoom="1"
     inkscape:cx="58.5"
     inkscape:cy="99"
     inkscape:window-width="1920"
     inkscape:window-height="1019"
     inkscape:window-x="0"
     inkscape:window-y="34"
     inkscape:window-maximized="1"
     inkscape:current-layer="svg19"
     inkscape:snap-global="true"
     inkscape:snap-bbox="true"
     inkscape:snap-bbox-midpoints="true">
    <inkscape:grid
       type="xygrid"
       id="grid7182" />
  </sodipodi:namedview>
  <defs
     id="defs5">
    <inkscape:path-effect
       effect="perspective-envelope"
       up_left_point="15.104952,30"
       up_right_point="279.31735,48.418788"
       down_left_point="15.104952,132.54914"
       down_right_point="286.41655,132.54914"
       id="path-effect1495"
       is_visible="true"
       lpeversion="1"
       deform_type="perspective"
       horizontal_mirror="false"
       vertical_mirror="false"
       overflow_perspective="true" />
    <filter
       inkscape:collect="always"
       style="color-interpolation-filters:sRGB"
       id="filter7038"
       x="-0.087980769"
       y="-0.065357143"
       width="1.1759615"
       height="1.1307143">
      <feGaussianBlur
         inkscape:collect="always"
         stdDeviation="3.8125"
         id="feGaussianBlur7040" />
    </filter>
    <filter
       inkscape:collect="always"
       style="color-interpolation-filters:sRGB"
       id="filter7080"
       x="-0.062837837"
       y="-0.092999993"
       width="1.1256757"
       height="1.186">
      <feGaussianBlur
         inkscape:collect="always"
         stdDeviation="3.8750001"
         id="feGaussianBlur7082" />
    </filter>
  </defs>
  <rect
     style="opacity:0.2;fill:#000000;fill-opacity:1;filter:url(#filter7038)"
     width="104"
     height="140"
     x="68"
     y="29"
     rx="8"
     id="rect7000" />
  <rect
     style="fill:#e4e4e4;fill-opacity:1"
     width="104"
     height="140"
     x="68"
     y="26"
     rx="8"
     id="rect7" />
  <path
     id="rect6419"
     style="fill:#c5c5c5;fill-opacity:1;stroke-width:7.50729;stroke-linecap:round;stroke-linejoin:round"
     d="m 80,41 v 6 h 80 v -6 z m 0,13 v 6 h 80 v -6 z m 0,13 v 6 h 80 v -6 z m 0,13 v 6 h 80 v -6 z m 0,13 v 6 h 80 v -6 z m 0,13 v 6 h 80 v -6 z m 0,13 v 6 h 80 v -6 z m 0,13 v 6 h 80 v -6 z m 0,13 v 6 h 80 v -6 z" />
  <path
     style="opacity:0.448205;fill:#ff00ff"
     d="m 73.154366,26.000524 h 87.860544 c 3.92426,0 7.40211,0.62463 4.58277,5.412103 L 122.0749,119.75836 c -2.15597,5.18657 -9.69861,6.24165 -11.57198,6.24165 H 25.051223 c -8.16283,0.0558 -5.860032,-4.44784 -4.713796,-6.77455 l 43.10902,-87.505848 c 1.005909,-1.708114 2.569975,-5.719088 9.707919,-5.719088 z"
     id="path9" />
  <path
     style="opacity:0.2;fill:#000000;fill-opacity:1;filter:url(#filter7080)"
     d="m 73.202873,27.999996 h 88.169247 c 3.93805,0 7.42812,0.62463 4.59887,5.412103 l -43.6757,88.345741 c -2.16354,5.18657 -9.73268,6.24165 -11.61264,6.24165 H 24.930718 c -8.191511,0.0558 -5.880622,-4.44784 -4.730358,-6.77455 L 63.460845,33.719084 c 1.009444,-1.708114 2.579005,-5.719088 9.742028,-5.719088 z"
     id="path7042" />
  <path
     style="fill:#01ffff;fill-opacity:1"
     d="m 73.202873,26 h 88.169247 c 3.93805,0 7.42812,0.62463 4.59887,5.412103 l -43.6757,88.345737 c -2.16354,5.18657 -9.73268,6.24165 -11.61264,6.24165 H 24.930718 c -8.191511,0.0558 -5.880622,-4.44784 -4.730358,-6.77455 L 63.460845,31.719088 C 64.470289,30.010974 66.03985,26 73.202873,26 Z"
     id="path11" />
  <path
     id="path17"
     style="fill:#49c2f9;fill-opacity:1"
     d="M 76.279297 26.126953 L 72.191406 34.984375 L 82.431641 34.988281 L 86.519531 26.134766 L 76.279297 26.126953 z M 82.431641 34.988281 L 78.34375 43 L 88.574219 43 L 92.660156 34.992188 L 82.431641 34.988281 z M 92.660156 34.992188 L 102.88086 34.996094 L 106.96875 26.150391 L 96.75 26.142578 L 92.660156 34.992188 z M 102.88086 34.996094 L 98.792969 43 L 109.00391 43 L 113.0918 35 L 102.88086 34.996094 z M 113.0918 35 L 123.29297 35.003906 L 127.38086 26.166016 L 117.17969 26.158203 L 113.0918 35 z M 123.29297 35.003906 L 119.20508 43 L 129.39648 43 L 133.48438 35.007812 L 123.29297 35.003906 z M 133.48438 35.007812 L 143.66602 35.011719 L 147.75586 26.181641 L 137.57227 26.173828 L 133.48438 35.007812 z M 143.66602 35.011719 L 139.57812 43 L 149.75 43 L 153.83789 35.015625 L 143.66602 35.011719 z M 153.83789 35.015625 L 164.1875 35.019531 L 165.9707 31.412109 C 168.06399 27.869986 166.69142 26.610931 164.24414 26.193359 L 164.24023 26.193359 L 157.92773 26.189453 L 153.83789 35.015625 z M 149.75 43 L 145.66406 50.984375 L 156.29688 50.980469 L 160.24219 43 L 149.75 43 z M 145.66406 50.984375 L 135.49219 50.988281 L 131.4082 59.976562 L 141.58008 59.966797 L 145.66406 50.984375 z M 141.58008 59.966797 L 137.49805 67.951172 L 147.91211 67.939453 L 151.85742 59.958984 L 141.58008 59.966797 z M 137.49805 67.951172 L 127.32812 67.962891 L 131.4082 59.978516 L 121.22656 59.986328 L 117.14453 67.978516 L 127.32422 67.964844 L 123.24414 75.951172 L 133.41602 75.935547 L 137.49805 67.951172 z M 133.41602 75.935547 L 129.33594 83.919922 L 140.02148 83.900391 L 143.9668 75.919922 L 133.41602 75.935547 z M 129.33594 83.919922 L 119.16797 83.939453 L 123.24414 75.953125 L 113.0625 75.96875 L 108.98438 83.960938 L 119.16602 83.941406 L 115.08789 92.927734 L 125.25977 92.904297 L 129.33594 83.919922 z M 125.25977 92.904297 L 121.18164 100.89062 L 131.63672 100.86328 L 135.58203 92.882812 L 125.25977 92.904297 z M 121.18164 100.89062 L 111.01172 100.91797 L 106.93555 108.9043 L 117.10742 108.87305 L 121.18164 100.89062 z M 117.10742 108.87305 L 113.03516 117.98242 L 123.24609 117.83398 L 127.69141 108.84375 L 117.10742 108.87305 z M 113.03516 117.98242 L 102.86328 118.01758 L 98.800781 126 L 103.87695 126 L 108.96289 125.98047 L 113.03516 117.98242 z M 102.86328 118.01758 L 106.93555 108.9043 L 96.757812 108.93555 L 100.83008 100.94531 L 90.638672 100.97266 L 86.564453 108.96875 L 96.755859 108.9375 L 92.681641 117.92773 L 102.86328 118.01758 z M 92.681641 117.92773 L 82.490234 117.96484 L 78.429688 126 L 83.515625 126 L 88.611328 125.98047 L 92.681641 117.92773 z M 82.490234 117.96484 L 86.564453 108.96875 L 76.363281 109.00195 L 72.291016 118.00195 L 82.490234 117.96484 z M 72.291016 118.00195 L 62.080078 118.03516 L 58.019531 126 L 63.113281 126 L 68.21875 125.98047 L 72.291016 118.00195 z M 62.080078 118.03516 L 66.154297 109.0332 L 76.363281 109.00195 L 80.4375 101 L 70.228516 101.02734 L 66.154297 109.03125 L 55.935547 109.0625 L 60.007812 101.05469 L 49.779297 101.08203 L 45.705078 109.0957 L 55.933594 109.06445 L 51.861328 118.07031 L 62.080078 118.03516 z M 45.705078 109.0957 L 35.464844 109.12695 L 31.392578 118.14062 L 41.632812 118.10742 L 45.705078 109.0957 z M 41.632812 118.10742 L 37.560547 125.9668 L 47.791016 125.92773 L 51.861328 118.07227 L 41.632812 118.10742 z M 35.464844 109.12695 L 39.539062 101.10938 L 29.142578 101.13867 L 25.177734 109.15625 L 35.464844 109.12695 z M 39.539062 101.10938 L 49.779297 101.08203 L 53.855469 93.072266 L 43.615234 93.095703 L 39.539062 101.10938 z M 43.615234 93.095703 L 47.693359 84.080078 L 37.566406 84.097656 L 33.107422 93.119141 L 43.615234 93.095703 z M 47.693359 84.080078 L 57.931641 84.060547 L 62.011719 76.046875 L 51.771484 76.0625 L 47.693359 84.080078 z M 51.771484 76.0625 L 55.851562 68.048828 L 45.494141 68.060547 L 41.53125 76.080078 L 51.771484 76.0625 z M 55.851562 68.048828 L 66.091797 68.037109 L 70.173828 60.025391 L 59.935547 60.033203 L 55.851562 68.048828 z M 59.935547 60.033203 L 64.017578 51.015625 L 53.919922 51.019531 L 49.458984 60.041016 L 59.935547 60.033203 z M 64.017578 51.015625 L 74.257812 51.011719 L 78.34375 43 L 68.103516 43 L 64.017578 51.015625 z M 68.103516 43 L 72.191406 34.984375 L 61.847656 34.980469 L 57.884766 43 L 68.103516 43 z M 74.257812 51.011719 L 70.173828 60.025391 L 80.404297 60.017578 L 84.488281 51.007812 L 74.257812 51.011719 z M 84.488281 51.007812 L 94.707031 51.003906 L 98.792969 43 L 88.574219 43 L 84.488281 51.007812 z M 94.707031 51.003906 L 90.623047 60.009766 L 100.83398 60.001953 L 104.91797 51 L 94.707031 51.003906 z M 104.91797 51 L 115.11914 50.996094 L 119.20508 43 L 109.00391 43 L 104.91797 51 z M 115.11914 50.996094 L 111.03516 59.994141 L 121.22656 59.986328 L 125.31055 50.992188 L 115.11914 50.996094 z M 125.31055 50.992188 L 135.49219 50.988281 L 139.57812 43 L 129.39648 43 L 125.31055 50.992188 z M 111.03516 59.994141 L 100.83398 60.001953 L 96.751953 68.001953 L 106.95312 67.990234 L 111.03516 59.994141 z M 106.95312 67.990234 L 102.87109 75.984375 L 113.0625 75.96875 L 117.14453 67.978516 L 106.95312 67.990234 z M 102.87109 75.984375 L 92.671875 76 L 88.591797 84.001953 L 98.792969 83.982422 L 102.87109 75.984375 z M 98.792969 83.982422 L 94.714844 92.976562 L 104.90625 92.953125 L 108.98438 83.960938 L 98.792969 83.982422 z M 104.90625 92.953125 L 100.83008 100.94531 L 111.01172 100.91797 L 115.08789 92.929688 L 104.90625 92.953125 z M 94.714844 92.976562 L 84.513672 93.001953 L 80.4375 101 L 90.638672 100.97266 L 94.714844 92.976562 z M 84.513672 93.001953 L 88.591797 84.001953 L 78.380859 84.021484 L 74.304688 93.025391 L 84.513672 93.001953 z M 74.304688 93.025391 L 64.083984 93.048828 L 60.007812 101.05469 L 70.228516 101.02734 L 74.304688 93.025391 z M 64.083984 93.048828 L 68.162109 84.041016 L 57.931641 84.060547 L 53.855469 93.072266 L 64.083984 93.048828 z M 68.162109 84.041016 L 78.380859 84.021484 L 82.460938 76.015625 L 72.242188 76.03125 L 68.162109 84.041016 z M 72.242188 76.03125 L 76.322266 68.025391 L 66.091797 68.037109 L 62.011719 76.046875 L 72.242188 76.03125 z M 76.322266 68.025391 L 86.541016 68.013672 L 90.623047 60.009766 L 80.404297 60.017578 L 76.322266 68.025391 z M 86.541016 68.013672 L 82.460938 76.015625 L 92.671875 76 L 96.751953 68.001953 L 86.541016 68.013672 z M 31.392578 118.14258 L 20.71875 118.17773 L 20.201172 119.22461 C 19.223521 121.20216 17.431066 124.74181 21.9375 125.72852 C 22.182653 125.77891 22.431185 125.82924 22.708984 125.86523 C 22.872406 125.88734 23.039901 125.90736 23.216797 125.92383 C 23.741093 125.97109 24.296979 126.00432 24.931641 126 L 27.326172 126 L 31.392578 118.14258 z " />
  <path
     id="path7084"
     style="fill:#ffffff;fill-opacity:1;opacity:0.2"
     d="M 73.203125 26 C 66.040102 26 64.470382 30.010636 63.460938 31.71875 L 20.201172 119.22461 C 19.646539 120.3465 18.831758 121.9726 19.044922 123.35156 C 19.199535 122.23877 19.77678 121.08305 20.201172 120.22461 L 63.460938 32.71875 C 64.470382 31.010636 66.040102 27 73.203125 27 L 161.37305 27 C 164.0749 27 166.56334 27.294653 166.94727 29.025391 C 167.38405 26.406597 164.52693 26 161.37305 26 L 73.203125 26 z " />
</svg>
