<?xml version="1.0" encoding="UTF-8" standalone="no"?>
<svg
   width="192"
   height="192"
   version="1"
   id="svg14"
   sodipodi:docname="apps_pixiv.svg"
   inkscape:version="1.1.1 (1:1.1+202109281949+c3084ef5ed)"
   xmlns:inkscape="http://www.inkscape.org/namespaces/inkscape"
   xmlns:sodipodi="http://sodipodi.sourceforge.net/DTD/sodipodi-0.dtd"
   xmlns="http://www.w3.org/2000/svg"
   xmlns:svg="http://www.w3.org/2000/svg"
   xmlns:rdf="http://www.w3.org/1999/02/22-rdf-syntax-ns#"
   xmlns:cc="http://creativecommons.org/ns#"
   xmlns:dc="http://purl.org/dc/elements/1.1/">
  <metadata
     id="metadata20">
    <rdf:RDF>
      <cc:Work
         rdf:about="">
        <dc:format>image/svg+xml</dc:format>
        <dc:type
           rdf:resource="http://purl.org/dc/dcmitype/StillImage" />
      </cc:Work>
    </rdf:RDF>
  </metadata>
  <defs
     id="defs18">
    <filter
       inkscape:collect="always"
       style="color-interpolation-filters:sRGB"
       id="filter850"
       x="-0.048000001"
       width="1.096"
       y="-0.048000001"
       height="1.096">
      <feGaussianBlur
         inkscape:collect="always"
         stdDeviation="3.2"
         id="feGaussianBlur852" />
    </filter>
    <filter
       inkscape:collect="always"
       style="color-interpolation-filters:sRGB"
       id="filter1689"
       x="-0.10309042"
       y="-0.1134006"
       width="1.2061808"
       height="1.2268012">
      <feGaussianBlur
         inkscape:collect="always"
         stdDeviation="4.2524957"
         id="feGaussianBlur1691" />
    </filter>
  </defs>
  <sodipodi:namedview
     pagecolor="#ffffff"
     bordercolor="#666666"
     borderopacity="1"
     objecttolerance="10"
     gridtolerance="10"
     guidetolerance="10"
     inkscape:pageopacity="0"
     inkscape:pageshadow="2"
     inkscape:window-width="1920"
     inkscape:window-height="1022"
     id="namedview16"
     showgrid="false"
     inkscape:zoom="1"
     inkscape:cx="104"
     inkscape:cy="81"
     inkscape:window-x="0"
     inkscape:window-y="34"
     inkscape:window-maximized="1"
     inkscape:current-layer="svg14"
     inkscape:pagecheckerboard="0">
    <inkscape:grid
       type="xygrid"
       id="grid5193" />
  </sodipodi:namedview>
  <circle
     style="opacity:0.2;fill:#000000;stroke-width:4;filter:url(#filter850)"
     cx="96"
     cy="100"
     r="80"
     id="circle832" />
  <circle
     id="circle4"
     r="80"
     cy="96"
     cx="96"
     style="fill:#0095f9;stroke-width:4;fill-opacity:1" />
  <path
     style="opacity:0.2;fill:#ffffff;stroke-width:4"
     d="M 96 16 A 80 80 0 0 0 16 96 A 80 80 0 0 0 16.019531 96.472656 A 80 80 0 0 1 96 17 A 80 80 0 0 1 175.97461 96.513672 A 80 80 0 0 0 176 96 A 80 80 0 0 0 96 16 z "
     id="path6" />
  <path
     id="path1651"
     style="opacity:0.2;fill:#000000;stroke-width:0.272263;filter:url(#filter1689)"
     d="m 99.699219,53.007793 c -3.956077,0.0617 -8.064395,0.517625 -12.326172,1.369141 C 73.60921,57.126983 59.143689,64.988969 47.673828,75.953106 L 45,78.507793 l 3.201172,5.107422 c 1.760644,2.808543 3.374348,5.105469 3.585937,5.105469 0.211589,0 0.683893,-0.299748 1.050782,-0.667969 0.523029,-0.524931 0.667968,-0.9535 0.667968,-1.980468 0,-0.720383 -0.11425,-1.708545 -0.253906,-2.197266 -0.231174,-0.808981 -0.129044,-1.079092 1.140625,-3 1.373133,-2.077437 6.025998,-6.992768 8.28711,-8.755859 L 64,71.216778 v 33.603512 33.60352 l -1.662109,0.51367 c -1.92185,0.59312 -3.220703,1.60179 -3.220703,2.50781 0,1.57775 0.149796,1.55469 10.175781,1.55469 8.814977,0 9.208879,-0.0218 9.478515,-0.52734 0.722183,-1.35433 -0.256464,-2.60529 -2.722656,-3.48438 L 75,138.50779 v -7.87695 c 0,-7.37244 -0.04471,-8.26947 0.400391,-8.14258 0.261578,0.0746 1.661918,0.56771 3.380859,1.0957 6.992132,2.14772 12.919928,3.16393 19.703125,3.38086 9.627285,0.30791 17.336105,-1.26265 25.001955,-5.09765 14.71018,-7.35908 22.37164,-20.8624 20.1289,-36.126955 -1.11614,-7.596698 -4.35071,-14.233162 -9.60156,-19.703125 -3.16036,-3.292257 -6.27292,-5.596453 -10.40429,-7.701171 -7.24082,-3.688826 -15.20679,-5.463869 -23.910161,-5.328126 z M 99.75,58.999981 c 1.88799,-0.0044 3.72118,0.119166 5.44922,0.378906 12.8653,1.933762 22.31125,10.957777 25.18945,24.064453 0.2404,1.094713 0.50276,3.77554 0.58203,5.957032 0.33533,9.227436 -2.20093,16.181938 -8.16601,22.388668 -4.14245,4.31026 -9.3898,7.16853 -15.88672,8.6543 -2.21946,0.50758 -11.360067,0.74578 -14.642579,0.38086 -5.838346,-0.64904 -11.401843,-1.94394 -15.28711,-3.55664 L 75,116.44139 V 91.244122 66.044903 l 1.029297,-0.648438 C 82.342179,61.422979 91.568692,59.019012 99.75,58.999981 Z" />
  <path
     id="path1186"
     style="opacity:1;fill:#ffffff;stroke-width:0.272263"
     d="M 99.699219 51.007812 C 95.743142 51.069514 91.634824 51.525437 87.373047 52.376953 C 73.60921 55.127002 59.143689 62.988988 47.673828 73.953125 L 45 76.507812 L 48.201172 81.615234 C 49.961816 84.423777 51.57552 86.720703 51.787109 86.720703 C 51.998698 86.720703 52.471002 86.420955 52.837891 86.052734 C 53.36092 85.527803 53.505859 85.099234 53.505859 84.072266 C 53.505859 83.351883 53.391609 82.363721 53.251953 81.875 C 53.020779 81.066019 53.122909 80.795908 54.392578 78.875 C 55.765711 76.797563 60.418576 71.882232 62.679688 70.119141 L 64 69.216797 L 64 102.82031 L 64 136.42383 L 62.337891 136.9375 C 60.416041 137.53062 59.117188 138.53929 59.117188 139.44531 C 59.117188 141.02306 59.266984 141 69.292969 141 C 78.107946 141 78.501848 140.97824 78.771484 140.47266 C 79.493667 139.11833 78.51502 137.86737 76.048828 136.98828 L 75 136.50781 L 75 128.63086 C 75 121.25842 74.955291 120.36139 75.400391 120.48828 C 75.661969 120.56288 77.062309 121.05599 78.78125 121.58398 C 85.773382 123.7317 91.701178 124.74791 98.484375 124.96484 C 108.11166 125.27275 115.82048 123.70219 123.48633 119.86719 C 138.19651 112.50811 145.85797 99.004792 143.61523 83.740234 C 142.49909 76.143536 139.26452 69.507072 134.01367 64.037109 C 130.85331 60.744852 127.74075 58.440656 123.60938 56.335938 C 116.36856 52.647112 108.40259 50.872069 99.699219 51.007812 z M 99.75 57 C 101.63799 56.995608 103.47118 57.119166 105.19922 57.378906 C 118.06452 59.312668 127.51047 68.336683 130.38867 81.443359 C 130.62907 82.538072 130.89143 85.218899 130.9707 87.400391 C 131.30603 96.627827 128.76977 103.58233 122.80469 109.78906 C 118.66224 114.09932 113.41489 116.95759 106.91797 118.44336 C 104.69851 118.95094 95.557903 119.18914 92.275391 118.82422 C 86.437045 118.17518 80.873548 116.88028 76.988281 115.26758 L 75 114.44141 L 75 89.244141 L 75 64.044922 L 76.029297 63.396484 C 82.342179 59.422998 91.568692 57.019031 99.75 57 z " />
</svg>
