<svg width="48" height="48" version="1" xmlns="http://www.w3.org/2000/svg">
 <path d="m44.049684 10.000007c-1.548614 0.892343-3.525201 1.397688-5.344993 1.762299 0.0019 0.0022 0.0043 4e-3 0.0062 0.0062 0.15727 0.181158 0.30614 0.262903 0.44742 0.456902 0.143137 0.196324 0.278035 0.39971 0.40402 0.608091 0.111459 0.184355 0.211858 1.174204 0.309198 1.367195 0.01277 0.02535 0.02871 0.04872 0.04122 0.0742l0.0021 0.0041c0.106944 0.217775 0.09905-0.463497 0.187238-0.235988 1.679093-0.99044 3.3383-2.191131 3.947644-4.0430131zm0.950317 2.999993c-1.461347 0.629753-3.243025 0.865715-4.889715 1.061571 0.364909 0.907327 0.609008 2.624842 0.66821 3.125429 1.6074-1.126748 3.118425-2.58396 4.221505-4.187z" style="opacity:.2"/>
 <path d="m32.529413 8.0000003c-4.678178 0-8.470589 3.7924117-8.470589 8.4705877 0.941669 6.235372-2.944654 13.486759-6.884421 16.570556-2.814165 2.150901-6.361571 4.002692-10.213925 4.002692-0.663689 0-1.3172101-0.0376-1.9604779-0.111672 3.6389816 2.275418 7.960636 3.067836 12.604551 3.067836 15.124571 1e-6 23.395449-12.454699 23.395449-23.051699 0-0.107355-0.0068-0.213548-0.0082-0.320542 0.0032-0.05236 6e-3 -0.104756 0.0082-0.157171-0.0048-4.211092-3.102476-7.7791644-7.27114-8.375459-0.09017-0.016407-0.182017-0.029473-0.275045-0.041361-0.101876-0.00943-0.203916-0.017014-0.306067-0.022748-0.133406-0.00953-0.259603-0.03102-0.399126-0.03102-0.03697 0-0.07276 0.00573-0.109605 0.0062-0.03652-0.00231-0.07306-0.00437-0.109604-0.0062z" style="opacity:.2"/>
 <path d="m44.049684 9.0000071c-1.548614 0.8923434-3.525201 1.3976879-5.344993 1.7622989 0.0019 0.0022 0.0043 4e-3 0.0062 0.0062 0.15727 0.181158 0.30614 0.262903 0.44742 0.456902 0.143137 0.196324 0.278035 0.39971 0.40402 0.608091 0.111459 0.184355 0.211858 1.174204 0.309198 1.367195 0.01277 0.02535 0.02871 0.04872 0.04122 0.0742l0.0021 0.0041c0.106944 0.217775 0.09905-0.463497 0.187238-0.235988 1.679093-0.99044 3.3383-2.191131 3.947644-4.0430131zm0.950317 2.9999929c-1.461347 0.629753-3.243025 0.865715-4.889715 1.061571 0.364909 0.907327 0.609008 2.624842 0.66821 3.125429 1.6074-1.126748 3.118425-2.58396 4.221505-4.187z" style="fill:#085585"/>
 <path d="m44.048828 9c-1.548614 0.8923434-3.523958 1.397108-5.34375 1.761719 0.0019 0.0022 0.003959 0.003659 0.00586 0.005859 0.157269 0.181158 0.305985 0.263032 0.447265 0.457031 0.089911 0.123321 0.170664 0.254432 0.253906 0.382813 1.358228-0.296963 2.739612-0.695477 3.955079-1.275391 0.286799-0.405018 0.521365-0.8449325 0.68164-1.332031zm0.951172 3c-0.929164 0.400414-1.989418 0.633713-3.060547 0.806641-0.492969 0.393842-1.032209 0.740897-1.576172 1.070312 0.012109 0.04807 0.019595 0.099537 0.03125 0.148438 1.169313-0.141933 2.38929-0.313529 3.507813-0.638672 0.394074-0.44797 0.768098-0.907793 1.097656-1.386719z" style="fill:#ffffff;opacity:.1"/>
 <path d="m32.529413 7.0000003c-4.678178 0-8.470589 3.7924117-8.470589 8.4705877 0.941669 6.235372-2.944654 13.486759-6.884421 16.570556-2.814165 2.150901-6.361571 4.002692-10.213925 4.002692-0.663689 0-1.3172101-0.0376-1.9604779-0.111672 3.6389816 2.275418 7.960636 3.067836 12.604551 3.067836 15.124571 1e-6 23.395449-12.454699 23.395449-23.051699 0-0.107355-0.0068-0.213548-0.0082-0.320542 0.0032-0.05236 6e-3 -0.104756 0.0082-0.157171-0.0048-4.211092-3.102476-7.7791644-7.27114-8.375459-0.09017-0.016407-0.182017-0.029473-0.275045-0.041361-0.101876-0.00943-0.203916-0.017014-0.306067-0.022748-0.133406-0.00953-0.259603-0.03102-0.399126-0.03102-0.03697 0-0.07276 0.00573-0.109605 0.0062-0.03652-0.00231-0.07306-0.00437-0.109604-0.0062z" style="fill:#0391e9"/>
 <path d="m32.529297 7c-4.678178 0-8.470703 3.792527-8.470703 8.470703 0.016763 0.111 0.021426 0.224323 0.035156 0.335938 0.340029-4.366487 3.981785-7.806641 8.435547-7.806641 0.036544 0.00183 0.072855 0.0035494 0.109375 0.0058594 0.036845-4.7e-4 0.072405-0.0058594 0.109375-0.0058594 0.139523 0 0.266984 0.02172 0.400391 0.03125 0.10215 0.005734 0.202811 0.0140075 0.304687 0.0234375 0.093028 0.011888 0.185221 0.0246086 0.275391 0.0410156 4.081393 0.5838113 7.129147 4.0177059 7.259765 8.1132809 0.001085-0.08608 0.011719-0.173921 0.011719-0.259765 0-0.107355-0.006412-0.215272-0.007812-0.322266 0.003199-0.05236 0.005612-0.103835 0.007812-0.15625-0.0048-4.211092-3.10282-7.7787053-7.271484-8.3749999-0.09017-0.016407-0.182363-0.0291276-0.275391-0.0410156-0.101876-0.00943-0.202537-0.0177035-0.304687-0.0234375-0.133407-0.00953-0.260868-0.03125-0.400391-0.03125-0.03697 0-0.07253 0.0053894-0.109375 0.0058594-0.03652-0.00231-0.072831-0.0040294-0.109375-0.0058594zm-8.345703 11.003906c-0.225245 5.559672-3.594805 11.364098-7.009766 14.03711-2.814165 2.150901-6.360536 4.001953-10.21289 4.001953-0.663689 0-1.3176697-0.037256-1.9609375-0.111328 0.6759487 0.422663 1.3827672 0.778764 2.1035156 1.103515 3.7967654-0.045348 7.2912234-1.870048 10.070312-3.99414 3.620709-2.834059 7.1853-9.186711 7.009766-15.03711z" style="fill:#ffffff;opacity:.1"/>
 <path d="m7.1015625 10c-0.7082359 1.180504-1.1015626 3.063694-1.1015625 4.52861 0 2.773201 3.013419 5.11759 5.221202 6.550781-1.3487234-0.04151-4.0826188-0.503586-5.1919051-1.102196-9.549e-4 0.03333-0.00195 0.0659-0.00195 0.09961 0 3.872677 5.1945001 7.890141 8.1274521 8.94554-2.932952 0-4.9880697-1.054687-6.0434678-1.054687 1.0471167 3.175468 5.4130478 5.967872 9.0136688 6.032342h6.816406c0.06389 0 0.11462-0.01315 0.173828-0.01758 0.118029 0.0088 0.235209 0.01405 0.353516 0.01758 0.088 0 0.172768-0.01082 0.259766-0.01367 0.09041 0.0061 0.180918 0.01065 0.271484 0.01367 4.418278 0 8-3.581722 8-8s-3.581722-8-8-8c-0.10749 0.0017-0.214934 0.0056-0.322266 0.01172-0.070153-0.001936-0.138186-0.01172-0.208984-0.01172-8.970884 0-13.355167-3.433138-17.367188-8z" style="opacity:.2"/>
 <path d="m7.1015625 9c-0.7082359 1.180504-1.1015626 3.063694-1.1015625 4.52861 0 2.773201 3.013419 5.11759 5.221202 6.550781-1.3487234-0.04151-4.0826188-0.503586-5.1919051-1.102196-9.549e-4 0.03333-0.00195 0.0659-0.00195 0.09961 0 3.872677 5.1945001 7.890141 8.1274521 8.94554-2.932952 0-4.9880697-1.054687-6.0434678-1.054687 1.0471167 3.175468 5.4130478 5.967872 9.0136688 6.032342h6.816406c0.06389 0 0.11462-0.01315 0.173828-0.01758 0.118029 0.0088 0.235209 0.01405 0.353516 0.01758 0.088 0 0.172768-0.01082 0.259766-0.01367 0.09041 0.0061 0.180918 0.01065 0.271484 0.01367 4.418278 0 8-3.581722 8-8s-3.581722-8-8-8c-0.10749 0.0017-0.214934 0.0056-0.322266 0.01172-0.070153-0.001936-0.138186-0.01172-0.208984-0.01172-8.970884 0-13.355167-3.433138-17.367188-8z" style="fill:#3cbbff"/>
 <circle cx="35" cy="13" r="2" style="fill-rule:evenodd;fill:#085585"/>
 <path d="m7.1015625 9c-0.7082359 1.180504-1.1015626 3.064381-1.1015625 4.529297 0 0.160817 0.0136808 0.318723 0.0332031 0.476562 0.0778415-1.370735 0.4400144-2.958519 1.0683594-4.005859 4.0120205 4.566862 8.3963035 8 17.367188 8 0.070798 0 0.138831 0.009783 0.208984 0.011719 0.107332-0.00612 0.214776-0.010019 0.322266-0.011719 4.249555 0 7.715353 3.315747 7.974609 7.5 0.010294-0.16613 0.025391-0.331277 0.025391-0.5 0-4.418278-3.581722-8-8-8-0.10749 0.0017-0.214934 0.005599-0.322266 0.011719-0.070153-0.001936-0.138186-0.011719-0.208984-0.011719-8.970884 0-13.355167-3.433138-17.367188-8zm-1.0722656 9.976562c-9.549e-4 0.03333-0.0019531 0.0659-0.0019531 0.09961 0 0.315692 0.0443775 0.633286 0.109375 0.949219 1.1637509 0.574497 3.7725659 1.014325 5.0839842 1.054687-0.526502-0.341781-1.097721-0.738854-1.6640624-1.177734-1.3032451-0.192326-2.7788157-0.521849-3.5273437-0.925782zm2.0820312 7.990235c0.1178718 0.357456 0.2843137 0.710284 0.4804688 1.054687 1.1439782 0.211625 3.0216121 1 5.5625001 1-0.702681-0.252854-1.536716-0.682252-2.396485-1.232422-1.672689-0.310236-2.9088567-0.822265-3.6464839-0.822265z" style="fill:#ffffff;opacity:.2"/>
</svg>
