<?xml version="1.0" encoding="UTF-8" standalone="no"?>
<svg
   width="192"
   height="192"
   version="1"
   id="svg28"
   sodipodi:docname="apps_2fas_auth.svg"
   inkscape:version="1.1.1 (1:1.1+202109281949+c3084ef5ed)"
   xmlns:inkscape="http://www.inkscape.org/namespaces/inkscape"
   xmlns:sodipodi="http://sodipodi.sourceforge.net/DTD/sodipodi-0.dtd"
   xmlns="http://www.w3.org/2000/svg"
   xmlns:svg="http://www.w3.org/2000/svg"
   xmlns:rdf="http://www.w3.org/1999/02/22-rdf-syntax-ns#"
   xmlns:cc="http://creativecommons.org/ns#"
   xmlns:dc="http://purl.org/dc/elements/1.1/">
  <metadata
     id="metadata34">
    <rdf:RDF>
      <cc:Work
         rdf:about="">
        <dc:format>image/svg+xml</dc:format>
        <dc:type
           rdf:resource="http://purl.org/dc/dcmitype/StillImage" />
      </cc:Work>
    </rdf:RDF>
  </metadata>
  <defs
     id="defs32">
    <filter
       inkscape:collect="always"
       style="color-interpolation-filters:sRGB"
       id="filter3780"
       x="-0.0703125"
       y="-0.080357143"
       width="1.140625"
       height="1.1607143">
      <feGaussianBlur
         inkscape:collect="always"
         stdDeviation="2.34375"
         id="feGaussianBlur3782" />
    </filter>
    <filter
       inkscape:collect="always"
       style="color-interpolation-filters:sRGB"
       id="filter3853"
       x="-0.053090912"
       y="-0.043800001"
       width="1.1061818"
       height="1.0876">
      <feGaussianBlur
         inkscape:collect="always"
         stdDeviation="2.92"
         id="feGaussianBlur3855" />
    </filter>
  </defs>
  <sodipodi:namedview
     pagecolor="#ffffff"
     bordercolor="#666666"
     borderopacity="1"
     objecttolerance="10"
     gridtolerance="10"
     guidetolerance="10"
     inkscape:pageopacity="0"
     inkscape:pageshadow="2"
     inkscape:window-width="1920"
     inkscape:window-height="1019"
     id="namedview30"
     showgrid="false"
     inkscape:zoom="1"
     inkscape:cx="107.5"
     inkscape:cy="102.5"
     inkscape:window-x="0"
     inkscape:window-y="34"
     inkscape:window-maximized="1"
     inkscape:current-layer="svg28"
     inkscape:pagecheckerboard="0"
     inkscape:snap-bbox="true"
     inkscape:snap-bbox-midpoints="true">
    <inkscape:grid
       type="xygrid"
       id="grid841" />
  </sodipodi:namedview>
  <path
     id="path3740"
     style="opacity:0.2;fill:#000000;fill-opacity:1;stroke-width:0.669456;filter:url(#filter3853)"
     d="M 95.972657,20.000027 C 84.480884,20.11641 73.612158,23.08963 62.567937,26.31376 39.290769,32.61755 36.353018,33.869335 33.241394,38.810339 c -3.285576,5.217239 -3.444547,7.461495 -3.1309,44.057427 0.251323,29.323664 0.441828,34.344834 1.46291,38.433274 1.563296,6.25952 4.40732,12.46577 8.109478,17.89413 4.720757,6.86336 12.296973,13.01816 19.959237,17.75541 12.439902,8.6093 29.980358,20.31378 33.580503,22.20551 0.952605,0.50055 1.859449,0.77401 2.777379,0.84391 0.917931,-0.0699 1.824775,-0.34336 2.77738,-0.84391 3.600139,-1.89173 21.140599,-13.59621 33.580499,-22.20551 7.66226,-4.73725 15.23848,-10.89205 19.95924,-17.75541 3.70216,-5.42836 6.54617,-11.63461 8.10947,-17.89413 1.02109,-4.08844 1.21159,-9.10961 1.46291,-38.433274 0.31365,-36.595932 0.15468,-38.840188 -3.1309,-44.057427 -3.11162,-4.941004 -6.04937,-6.192789 -29.32654,-12.496579 -11.04422,-3.22413 -21.91295,-6.19735 -33.404714,-6.313733 -0.0092,-9.3e-5 -0.01814,8.8e-5 -0.02734,0 -0.0092,8.8e-5 -0.01817,-9.3e-5 -0.02734,0 z" />
  <path
     id="path1103"
     style="fill:#ef3e44;fill-opacity:1;stroke-width:0.669456"
     d="M 95.972657,16.000027 C 84.480884,16.11641 73.612158,19.08963 62.567937,22.31376 39.290769,28.61755 36.353018,29.869335 33.241394,34.810339 c -3.285576,5.217239 -3.444547,7.461495 -3.1309,44.057427 0.251323,29.323664 0.441828,34.344834 1.46291,38.433274 1.563296,6.25952 4.40732,12.46577 8.109478,17.89413 4.720757,6.86336 12.296973,13.01816 19.959237,17.75541 12.439902,8.6093 29.980358,20.31378 33.580503,22.20551 0.952605,0.50055 1.859449,0.77401 2.777379,0.84391 0.917931,-0.0699 1.824775,-0.34336 2.77738,-0.84391 3.600139,-1.89173 21.140599,-13.59621 33.580499,-22.20551 7.66226,-4.73725 15.23848,-10.89205 19.95924,-17.75541 3.70216,-5.42836 6.54617,-11.63461 8.10947,-17.89413 1.02109,-4.08844 1.21159,-9.10961 1.46291,-38.433274 0.31365,-36.595932 0.15468,-38.840188 -3.1309,-44.057427 -3.11162,-4.941004 -6.04937,-6.192789 -29.32654,-12.496579 -11.04422,-3.22413 -21.91295,-6.19735 -33.404714,-6.313733 -0.0092,-9.3e-5 -0.01814,8.8e-5 -0.02734,0 -0.0092,8.8e-5 -0.01817,-9.3e-5 -0.02734,0 z" />
  <path
     id="path3742"
     style="color:#000000;opacity:0.2;fill:#000000;stroke-linecap:round;stroke-linejoin:round;-inkscape-stroke:none;filter:url(#filter3780)"
     d="m 65,54 a 9,9 0 0 0 -9,9 9,9 0 0 0 9,9 h 62 a 9,9 0 0 0 9,-9 9,9 0 0 0 -9,-9 z m 0,26 a 9,9 0 0 0 -9,9 9,9 0 0 0 9,9 h 22 a 9,9 0 0 0 9,-9 9,9 0 0 0 -9,-9 z m 0,26 a 9,9 0 0 0 -9,9 9,9 0 0 0 9,9 9,9 0 0 0 9,-9 9,9 0 0 0 -9,-9 z" />
  <path
     id="path2663"
     style="color:#000000;fill:#ffffff;stroke-linecap:round;stroke-linejoin:round;-inkscape-stroke:none;opacity:1"
     d="M 65 52 A 9 9 0 0 0 56 61 A 9 9 0 0 0 65 70 L 127 70 A 9 9 0 0 0 136 61 A 9 9 0 0 0 127 52 L 65 52 z M 65 78 A 9 9 0 0 0 56 87 A 9 9 0 0 0 65 96 L 87 96 A 9 9 0 0 0 96 87 A 9 9 0 0 0 87 78 L 65 78 z M 65 104 A 9 9 0 0 0 56 113 A 9 9 0 0 0 65 122 A 9 9 0 0 0 74 113 A 9 9 0 0 0 65 104 z " />
  <path
     id="path3784"
     style="fill:#ffffff;fill-opacity:1;stroke-width:0.669456;opacity:0.2"
     d="M 95.972656 16 C 84.480883 16.116383 73.61258 19.090323 62.568359 22.314453 C 39.291191 28.618243 36.353811 29.869543 33.242188 34.810547 C 30.750361 38.767374 30.062555 41.186835 30.009766 58.005859 C 30.083984 41.976443 30.793915 39.698212 33.242188 35.810547 C 36.353811 30.869543 39.291191 29.618243 62.568359 23.314453 C 73.61258 20.090323 84.480883 17.116383 95.972656 17 C 95.981826 16.999907 95.9908 17.000088 96 17 C 96.0092 17.000088 96.018144 16.999907 96.027344 17 C 107.51911 17.116383 118.38742 20.090323 129.43164 23.314453 C 152.70881 29.618243 155.64619 30.869543 158.75781 35.810547 C 161.20609 39.698212 161.91602 41.976443 161.99023 58.005859 C 161.93745 41.186835 161.24964 38.767374 158.75781 34.810547 C 155.64619 29.869543 152.70881 28.618243 129.43164 22.314453 C 118.38742 19.090323 107.51911 16.116383 96.027344 16 C 96.018144 15.999907 96.0092 16.000088 96 16 C 95.9908 16.000088 95.981826 15.999907 95.972656 16 z " />
</svg>
