<?xml version="1.0" encoding="UTF-8" standalone="no"?>
<svg
   width="192"
   height="192"
   version="1"
   id="svg20"
   sodipodi:docname="apps_arduino.svg"
   inkscape:version="1.1-rc (1:1.1+rc+202105232036+f4db50c7c1)"
   xmlns:inkscape="http://www.inkscape.org/namespaces/inkscape"
   xmlns:sodipodi="http://sodipodi.sourceforge.net/DTD/sodipodi-0.dtd"
   xmlns="http://www.w3.org/2000/svg"
   xmlns:svg="http://www.w3.org/2000/svg">
  <defs
     id="defs24">
    <filter
       inkscape:collect="always"
       style="color-interpolation-filters:sRGB"
       id="filter861"
       x="-0.048000002"
       y="-0.048000002"
       width="1.096"
       height="1.096">
      <feGaussianBlur
         inkscape:collect="always"
         stdDeviation="3.1999921"
         id="feGaussianBlur863" />
    </filter>
    <filter
       inkscape:collect="always"
       style="color-interpolation-filters:sRGB"
       id="filter883"
       x="-0.035999969"
       y="-0.072000118"
       width="1.0719999"
       height="1.1440002">
      <feGaussianBlur
         inkscape:collect="always"
         stdDeviation="2.399998"
         id="feGaussianBlur885" />
    </filter>
    <filter
       inkscape:collect="always"
       style="color-interpolation-filters:sRGB"
       id="filter887"
       x="-0.036024644"
       y="-0.07190162"
       width="1.0720493"
       height="1.1438032">
      <feGaussianBlur
         inkscape:collect="always"
         stdDeviation="2.3967148"
         id="feGaussianBlur889" />
    </filter>
  </defs>
  <sodipodi:namedview
     id="namedview22"
     pagecolor="#ffffff"
     bordercolor="#666666"
     borderopacity="1.0"
     inkscape:pageshadow="2"
     inkscape:pageopacity="0.0"
     inkscape:pagecheckerboard="0"
     showgrid="false"
     inkscape:zoom="2.66"
     inkscape:cx="23.87218"
     inkscape:cy="114.09774"
     inkscape:window-width="1920"
     inkscape:window-height="1019"
     inkscape:window-x="0"
     inkscape:window-y="34"
     inkscape:window-maximized="1"
     inkscape:current-layer="svg20" />
  <circle
     style="opacity:0.2;stroke-width:3.99999;filter:url(#filter861)"
     cx="96"
     cy="100.0002"
     r="79.999802"
     id="circle2" />
  <circle
     style="fill:#e4e4e4;stroke-width:3.99999"
     cx="96"
     cy="96.000214"
     r="79.999802"
     id="circle4" />
  <path
     style="opacity:0.2;stroke-width:3.99999;filter:url(#filter883)"
     d="m 135.9999,58.0002 c -10.66664,0 -19.62832,5.385307 -26.92962,12.12497 -7.3013,6.739663 -13.468715,15.078086 -19.4687,23.078066 -5.999985,7.999984 -11.832542,15.661514 -17.531208,20.921824 -5.698666,5.26031 -10.736953,7.87498 -16.070272,7.87498 -13.333299,0 -17.797761,-5.48622 -20.843698,-11.5781 C 32.110465,104.33007 32.00016,98.0001 32.00016,98.0001 H 16.0002 c 0,0 -0.110304,9.66999 4.843738,19.57808 C 25.797981,127.48626 37.33348,138 56.0001,138 c 10.666641,0 19.628319,-5.38531 26.929621,-12.12497 7.301301,-6.73966 13.468714,-15.07809 19.468699,-23.07807 5.99998,-7.999976 11.83254,-15.661513 17.53121,-20.92182 5.69866,-5.260307 10.73695,-7.87498 16.07027,-7.87498 13.3333,0 17.79776,5.486222 20.8437,11.578095 3.04593,6.091873 3.15624,12.421845 3.15624,12.421845 h 15.99996 c 0,0 0.11032,-9.669988 -4.84374,-19.578075 C 166.20202,68.513938 154.66652,58.0002 135.9999,58.0002 Z m -0.0625,23.945252 c -2.20604,0.03448 -3.96768,1.848556 -3.93747,4.054678 v 7.99998 h -7.99998 c -5.40928,-0.07648 -5.40928,8.07648 0,7.99998 h 7.99998 v 7.99998 c -0.0765,5.40928 8.07648,5.40928 7.99998,0 v -7.99998 h 7.99998 c 5.40928,0.0765 5.40928,-8.07648 0,-7.99998 h -7.99998 v -7.99998 c 0.0308,-2.255074 -1.80748,-4.089898 -4.06249,-4.054678 z M 44.00013,94.00011 c -5.409277,-0.07648 -5.409277,8.07648 0,7.99998 h 23.99994 c 5.409278,0.0765 5.409278,-8.07648 0,-7.99998 z"
     id="path6" />
  <path
     style="fill:none;stroke:#00797d;stroke-width:7.99998;stroke-linecap:round;stroke-linejoin:round"
     d="M 44.00013,96.00021 H 68.00007"
     id="path8" />
  <path
     style="fill:none;stroke:#009da2;stroke-width:7.99998;stroke-linecap:round;stroke-linejoin:round"
     d="m 135.9999,84.00024 v 23.99994 M 123.99993,96.00021 h 23.99994"
     id="path10" />
  <path
     style="fill:none;stroke:#00797d;stroke-width:16"
     d="m 24.00018,96.00021 c 0,0 0,31.99992 31.99992,31.99992 31.99992,0 47.99988,-63.99984 79.9998,-63.99984 31.99992,0 31.99992,31.99992 31.99992,31.99992 v 0 0"
     id="path12" />
  <path
     style="opacity:0.2;stroke-width:3.99999;filter:url(#filter887)"
     d="m 56.0001,58.0002 c -18.66662,0 -30.202119,10.513738 -35.156162,20.421825 -3.058929,6.117857 -4.100158,11.862162 -4.515614,15.578085 h 16.12496 c 0.411393,-2.336574 1.193549,-5.402714 2.703118,-8.421855 3.045937,-6.091873 7.510399,-11.578095 20.843698,-11.578095 5.333319,0 10.371606,2.614673 16.070272,7.87498 5.698666,5.260307 11.531223,12.921844 17.531208,20.92182 5.999985,7.99998 12.1674,16.33841 19.4687,23.07807 7.3013,6.73966 16.26298,12.12497 26.92962,12.12497 18.66662,0 30.20212,-10.51374 35.15616,-20.42182 4.95405,-9.90809 4.84374,-19.57808 4.84374,-19.57808 h -15.99996 c 0,0 -0.11032,6.32997 -3.15624,12.42184 -3.04594,6.09188 -7.5104,11.5781 -20.8437,11.5781 -5.33332,0 -10.37161,-2.61467 -16.07027,-7.87498 C 114.23096,108.86475 108.3984,101.20322 102.39842,93.203236 96.398435,85.203256 90.231022,76.864833 82.929721,70.12517 75.628419,63.385507 66.666741,58.0002 56.0001,58.0002 Z"
     id="path14" />
  <path
     style="fill:none;stroke:#009da2;stroke-width:16"
     d="m 24.00018,96.00021 c 0,0 0,-31.99992 31.99992,-31.99992 31.99992,0 47.99988,63.99984 79.9998,63.99984 31.99992,0 31.99992,-31.99992 31.99992,-31.99992 v 0 0"
     id="path16" />
  <path
     id="path18"
     style="opacity:0.2;fill:#ffffff;stroke-width:3.99999"
     d="M 96 16 A 79.9998 79.9998 0 0 0 16 96 A 79.9998 79.9998 0 0 0 16.023438 96.640625 A 79.9998 79.9998 0 0 1 96 17 A 79.9998 79.9998 0 0 1 175.98438 96.298828 A 79.9998 79.9998 0 0 0 176 96 A 79.9998 79.9998 0 0 0 96 16 z " />
</svg>
