<?xml version="1.0" encoding="UTF-8" standalone="no"?>
<svg
   width="192"
   height="192"
   version="1"
   id="svg21"
   sodipodi:docname="apps_reportador_vlc.svg"
   inkscape:version="1.1.1 (1:1.1+202109281949+c3084ef5ed)"
   xmlns:inkscape="http://www.inkscape.org/namespaces/inkscape"
   xmlns:sodipodi="http://sodipodi.sourceforge.net/DTD/sodipodi-0.dtd"
   xmlns="http://www.w3.org/2000/svg"
   xmlns:svg="http://www.w3.org/2000/svg">
  <defs
     id="defs25">
    <filter
       inkscape:collect="always"
       style="color-interpolation-filters:sRGB"
       id="filter1225"
       x="-0.049870882"
       y="-0.046264413"
       width="1.0997418"
       height="1.0925288">
      <feGaussianBlur
         inkscape:collect="always"
         stdDeviation="2.1610715"
         id="feGaussianBlur1227" />
    </filter>
    <filter
       inkscape:collect="always"
       style="color-interpolation-filters:sRGB"
       id="filter1229"
       x="-0.041722377"
       y="-0.052379279"
       width="1.0834448"
       height="1.1047586">
      <feGaussianBlur
         inkscape:collect="always"
         stdDeviation="3.0635321"
         id="feGaussianBlur1231" />
    </filter>
    <filter
       inkscape:collect="always"
       style="color-interpolation-filters:sRGB"
       id="filter1360"
       x="-0.049220469"
       y="-0.1574824"
       width="1.0984409"
       height="1.3149648">
      <feGaussianBlur
         inkscape:collect="always"
         stdDeviation="1.3125306"
         id="feGaussianBlur1362" />
    </filter>
    <filter
       inkscape:collect="always"
       style="color-interpolation-filters:sRGB"
       id="filter960"
       x="-0.048000001"
       y="-0.048000001"
       width="1.096"
       height="1.096">
      <feGaussianBlur
         inkscape:collect="always"
         stdDeviation="1.72"
         id="feGaussianBlur962" />
    </filter>
  </defs>
  <sodipodi:namedview
     id="namedview23"
     pagecolor="#ffffff"
     bordercolor="#666666"
     borderopacity="1.0"
     inkscape:pageshadow="2"
     inkscape:pageopacity="0.0"
     inkscape:pagecheckerboard="0"
     showgrid="true"
     inkscape:snap-bbox="true"
     inkscape:snap-bbox-midpoints="true"
     inkscape:zoom="11.42"
     inkscape:cx="145.18389"
     inkscape:cy="59.544658"
     inkscape:window-width="1920"
     inkscape:window-height="1022"
     inkscape:window-x="0"
     inkscape:window-y="34"
     inkscape:window-maximized="1"
     inkscape:current-layer="svg21">
    <inkscape:grid
       type="xygrid"
       id="grid1021" />
  </sodipodi:namedview>
  <path
     style="opacity:0.2;stroke-width:4;filter:url(#filter1229)"
     d="m 28.125,27.899741 a 8.0008,8.0008 0 0 0 -7.601562,10.953125 l 10.125,26.570314 a 8.0008,8.0008 0 0 0 4.257812,4.47656 l 28.320314,12.445316 a 36,30 0 0 0 1.992188,3.140624 L 32.703125,91.39974 A 8.0008,8.0008 0 0 0 28.71875,93.391928 L 10.578125,110.11849 a 8.0008,8.0008 0 1 0 10.84375,11.76563 l 16.4375,-15.15625 29.937501,-5.46094 -33.968751,28.58594 a 8.0008,8.0008 0 0 0 -2.132813,2.79687 l -10.96875,24.03125 a 8.0008,8.0008 0 1 0 14.546876,6.64063 L 45.507812,140.9388 94.234376,99.946616 A 36,30 0 0 0 96,100.0013 36,30 0 0 0 97.835936,99.92318 l 48.742184,41.01563 10.23438,22.38281 a 8.0008,8.0008 0 1 0 14.54688,-6.64062 l -10.96876,-24.03126 a 8.0008,8.0008 0 0 0 -2.13281,-2.79687 l -33.96875,-28.58594 29.9375,5.46094 16.4375,15.15625 A 8.0008,8.0008 0 1 0 181.50781,110.1185 L 163.36719,93.391932 a 8.0008,8.0008 0 0 0 -3.98438,-1.992188 L 126.79688,85.47006 a 36,30 0 0 0 1.9375,-3.070316 l 28.44531,-12.5 a 8.0008,8.0008 0 0 0 4.25781,-4.47656 l 10.125,-26.570314 a 8.0008,8.0008 0 0 0 -7.60156,-10.953125 8.0008,8.0008 0 0 0 -7.35156,5.25 l -8.92969,23.445315 -16.46094,7.234372 A 36,30 0 0 0 119.24219,47.095056 24,19.999998 0 0 0 96,32.001304 24,19.999998 0 0 0 72.75,47.141928 36,30 0 0 0 60.828124,63.805992 L 44.406248,56.595056 35.476562,33.149741 a 8.0008,8.0008 0 0 0 -7.351562,-5.25 z"
     id="path2" />
  <path
     style="fill:#445a64;stroke-width:4"
     d="m 28.125,23.898438 a 8.0008,8.0008 0 0 0 -7.601562,10.953124 l 10.125,26.570314 a 8.0008,8.0008 0 0 0 4.257812,4.47656 L 68.859376,80.820312 32.703125,87.398436 A 8.0008,8.0008 0 0 0 28.71875,89.390624 L 10.578125,106.11719 a 8.0008,8.0008 0 1 0 10.84375,11.76562 l 16.4375,-15.15625 29.937501,-5.460936 -33.968751,28.585936 a 8.0008,8.0008 0 0 0 -2.132813,2.79688 l -10.96875,24.03125 a 8.0008,8.0008 0 1 0 14.546876,6.64062 L 45.507812,136.9375 96.046876,94.421876 146.57812,136.9375 156.8125,159.32031 a 8.0008,8.0008 0 1 0 14.54688,-6.64062 l -10.96876,-24.03125 a 8.0008,8.0008 0 0 0 -2.13281,-2.79688 l -33.96875,-28.585936 29.9375,5.460936 16.4375,15.15625 a 8.0008,8.0008 0 1 0 10.84375,-11.76562 L 163.36719,89.390624 a 8.0008,8.0008 0 0 0 -3.98438,-1.992188 l -36.15625,-6.578124 33.95313,-14.921876 a 8.0008,8.0008 0 0 0 4.25781,-4.47656 l 10.125,-26.570314 a 8.0008,8.0008 0 0 0 -7.60156,-10.953124 8.0008,8.0008 0 0 0 -7.35156,5.25 L 147.67969,52.593752 96.046876,75.281248 44.406248,52.593752 35.476562,29.148438 a 8.0008,8.0008 0 0 0 -7.351562,-5.25 z"
     id="path4" />
  <path
     id="path1313"
     style="fill:#ffffff;stroke-width:4;opacity:0.1"
     d="M 28.125 23.898438 A 8.0008 8.0008 0 0 0 20.058594 32.3125 A 8.0008 8.0008 0 0 1 28.125 24.898438 A 8.0008 8.0008 0 0 1 35.476562 30.148438 L 44.40625 53.59375 L 96.046875 76.28125 L 147.67969 53.59375 L 156.60938 30.148438 A 8.0008 8.0008 0 0 1 163.96094 24.898438 A 8.0008 8.0008 0 0 1 172.07812 32.351562 A 8.0008 8.0008 0 0 0 163.96094 23.898438 A 8.0008 8.0008 0 0 0 156.60938 29.148438 L 147.67969 52.59375 L 96.046875 75.28125 L 44.40625 52.59375 L 35.476562 29.148438 A 8.0008 8.0008 0 0 0 28.125 23.898438 z M 67.25 81.113281 L 32.703125 87.398438 A 8.0008 8.0008 0 0 0 28.71875 89.390625 L 10.578125 106.11719 A 8.0008 8.0008 0 0 0 8.0546875 112.94141 A 8.0008 8.0008 0 0 1 10.578125 107.11719 L 28.71875 90.390625 A 8.0008 8.0008 0 0 1 32.703125 88.398438 L 68.859375 81.820312 L 67.25 81.113281 z M 124.83594 81.113281 L 123.22656 81.820312 L 159.38281 88.398438 A 8.0008 8.0008 0 0 1 163.36719 90.390625 L 181.50781 107.11719 A 8.0008 8.0008 0 0 1 184.03125 112.94141 A 8.0008 8.0008 0 0 0 181.50781 106.11719 L 163.36719 89.390625 A 8.0008 8.0008 0 0 0 159.38281 87.398438 L 124.83594 81.113281 z M 67.796875 98.265625 L 66.279297 98.542969 L 33.828125 125.85156 A 8.0008 8.0008 0 0 0 31.695312 128.64844 L 20.726562 152.67969 A 8.0008 8.0008 0 0 0 19.996094 156.73438 A 8.0008 8.0008 0 0 1 20.726562 153.67969 L 31.695312 129.64844 A 8.0008 8.0008 0 0 1 33.828125 126.85156 L 67.796875 98.265625 z M 124.28906 98.265625 L 158.25781 126.85156 A 8.0008 8.0008 0 0 1 160.39062 129.64844 L 171.35938 153.67969 A 8.0008 8.0008 0 0 1 172.08984 156.73438 A 8.0008 8.0008 0 0 0 171.35938 152.67969 L 160.39062 128.64844 A 8.0008 8.0008 0 0 0 158.25781 125.85156 L 125.80664 98.542969 L 124.28906 98.265625 z " />
  <path
     style="fill:#445a64;stroke-width:4"
     d="M 96,28 A 24,19.999998 0 0 0 72.75,43.140624 36,30 0 0 0 60,66 36,30 0 0 0 96,96 36,30 0 0 0 132,66 36,30 0 0 0 119.24219,43.093752 24,19.999998 0 0 0 96,28 Z"
     id="path6" />
  <path
     id="ellipse887"
     style="opacity:0.2;stroke-width:3.99983;filter:url(#filter1360)"
     d="m 74.642578,42.003612 a 6.915029,10.780623 29.11817 0 0 -8.607422,6.498047 6.915029,10.780623 29.11817 0 0 0.636719,12.867188 6.915029,10.780623 29.11817 0 0 11.296875,-5.873047 6.915029,10.780623 29.11817 0 0 -0.636719,-12.867188 6.915029,10.780623 29.11817 0 0 -2.689453,-0.625 z m 42.716802,0 a 10.780623,6.915029 60.88183 0 0 -2.68946,0.625 10.780623,6.915029 60.88183 0 0 -0.63672,12.867188 10.780623,6.915029 60.88183 0 0 11.29688,5.873047 10.780623,6.915029 60.88183 0 0 0.63672,-12.865235 10.780623,6.915029 60.88183 0 0 -8.60742,-6.5 z" />
  <ellipse
     style="fill:#e4e4e4;stroke-width:4"
     cx="87.311996"
     cy="6.7399998"
     rx="6.9159999"
     ry="10.78"
     transform="matrix(0.86278196,0.5055762,-0.49444444,0.86920924,0,0)"
     id="ellipse11" />
  <path
     style="opacity:0.2;stroke-width:4;filter:url(#filter1225)"
     d="M 57.371144,71.884444 C 49.064812,82.507612 44,96.56402 44,112 c 0,33.13708 23.281192,64 52,64 28.71881,0 52,-30.86292 52,-64 0,-16.422116 -5.73262,-31.28276 -15.00232,-42.108984 -4.91095,-5.079388 -5.8067,-8.506976 -11.47424,-3.672264 L 96,88 70.476564,66.218752 c -5.247196,-4.74258 -9.81968,1.500284 -13.10542,5.665692 z"
     id="path14" />
  <path
     style="fill:#ff5252;stroke-width:4"
     d="M 57.371144,67.884444 C 49.064812,78.507612 44,92.56402 44,108 c 0,33.13708 23.281192,64 52,64 28.71881,0 52,-30.86292 52,-64 0,-16.422116 -5.73262,-31.28276 -15.00232,-42.108984 -4.91095,-5.079388 -5.8067,-8.506976 -11.47424,-3.672264 L 96,84 70.476564,62.218752 c -5.247196,-4.74258 -9.81968,1.500284 -13.10542,5.665692 z"
     id="path16" />
  <ellipse
     id="ellipse872"
     style="fill:#e4e4e4;stroke-width:4"
     cx="-79.587997"
     cy="103.816"
     rx="6.9159999"
     ry="10.78"
     transform="matrix(-0.86278196,0.5055762,0.49444444,0.86920924,0,0)" />
  <path
     id="path19"
     style="opacity:0.2;fill:#ffffff;stroke-width:4"
     d="M 125.87305 59.892578 C 124.73012 59.933878 123.38309 60.632358 121.52344 62.21875 L 96 84 L 70.476562 62.21875 C 65.229366 57.47617 60.66074 63.717404 57.375 67.882812 C 49.068668 78.50598 44 92.56402 44 108 C 44 108.10604 44.010608 108.21075 44.013672 108.31641 C 44.161583 93.150424 49.192021 79.348221 57.375 68.882812 C 60.66074 64.717405 65.229366 58.47617 70.476562 63.21875 L 96 85 L 121.52344 63.21875 C 123.64876 61.40573 125.10492 60.751902 126.35156 60.914062 C 128.42929 61.184318 129.93066 63.716009 133 66.890625 C 142.14437 77.57047 147.83386 92.179903 147.98633 108.33789 C 147.98954 108.22508 148 108.11323 148 108 C 148 91.577884 142.2697 76.716849 133 65.890625 C 129.93066 62.716009 128.42929 60.184318 126.35156 59.914062 C 126.19573 59.893793 126.03632 59.886678 125.87305 59.892578 z " />
  <path
     id="path1315"
     style="fill:#ffffff;stroke-width:4;opacity:0.1"
     d="M 96 28 A 24 19.999998 0 0 0 72.75 43.140625 A 36 30 0 0 0 60 66 A 36 30 0 0 0 60.042969 66.507812 A 36 30 0 0 1 72.75 44.140625 A 24 19.999998 0 0 1 96 29 A 24 19.999998 0 0 1 119.24219 44.09375 A 36 30 0 0 1 131.95703 66.503906 A 36 30 0 0 0 132 66 A 36 30 0 0 0 119.24219 43.09375 A 24 19.999998 0 0 0 96 28 z " />
  <circle
     style="opacity:0.2;fill:#000000;fill-opacity:1;stroke-width:16.7787;stroke-linecap:round;stroke-linejoin:round;filter:url(#filter960)"
     id="circle922"
     cx="139"
     cy="143"
     r="43" />
  <circle
     style="opacity:1;fill:#ffa10f;fill-opacity:1;stroke-width:16.7787;stroke-linecap:round;stroke-linejoin:round"
     id="path1398"
     cx="139"
     cy="141"
     r="43" />
  <path
     style="fill:#ffffff;stroke-width:3.57142"
     d="m 138.87325,112 h -0.0715 c -2.42858,0 -4.10714,0.67858 -4.35715,1.64286 -0.10714,0.17857 -0.28571,0.35714 -0.32143,0.60714 l -2.32142,6.67859 c 1.73203,1.24992 4.47286,2.07133 7.2093,2.07141 2.73678,8e-5 5.46916,-0.82134 7.18356,-2.07141 L 143.90893,114.25 c -0.0357,-0.0715 -0.0715,-0.10714 -0.0715,-0.14285 v 0 c 0,-0.32143 -0.21428,-0.60715 -0.5,-0.85715 -0.28571,-0.28571 -0.64286,-0.53571 -1.03571,-0.67856 C 141.266,112.21429 140.15886,112 139.016,112 Z m -10.03572,19.686 -2.32143,9.28513 h -3.75 c -1.03571,0 -1.92855,0.60717 -2.32142,1.53573 l -6.24999,16.02886 C 113.51612,160.17857 114.73041,162 116.51612,162 h 44.99997 c 1.78572,0 2.96429,-1.82143 2.28571,-3.46428 l -6.24998,-16.02886 c -0.39286,-0.92857 -1.28607,-1.50932 -2.28571,-1.53573 h -3.78572 l -2.32143,-9.28513 c -6.89286,2.75 -12.64285,3.42857 -20.32143,0 z m 23.00001,9.38544 2.07142,6.92856 c 0.32143,1.10715 -0.14285,2.25 -1.10714,2.85714 -3.92857,2.39286 -8.92858,4.07144 -13.89286,4.14286 -4.96428,0.0357 -9.96428,-1.53572 -13.82143,-4.21429 -0.89285,-0.64286 -1.28571,-1.74999 -0.96428,-2.78571 l 1.96428,-6.64284 c 1.61929,0.97142 6.70964,2.58998 12.88894,2.64284 4.04321,0.0357 8.55392,-0.32928 12.86107,-2.92856 z"
     id="path1367"
     sodipodi:nodetypes="cscccsccssccscccsccssccscccccccccccc" />
</svg>
