<?xml version="1.0" encoding="UTF-8" standalone="no"?>
<svg
   width="192"
   height="192"
   version="1"
   id="svg22"
   sodipodi:docname="apps_digital_secure.svg"
   inkscape:version="1.1.1 (1:1.1+202109281949+c3084ef5ed)"
   xmlns:inkscape="http://www.inkscape.org/namespaces/inkscape"
   xmlns:sodipodi="http://sodipodi.sourceforge.net/DTD/sodipodi-0.dtd"
   xmlns="http://www.w3.org/2000/svg"
   xmlns:svg="http://www.w3.org/2000/svg">
  <defs
     id="defs26">
    <filter
       inkscape:collect="always"
       style="color-interpolation-filters:sRGB"
       id="filter865"
       x="-0.051682688"
       y="-0.045359793"
       width="1.1033654"
       height="1.0907196">
      <feGaussianBlur
         inkscape:collect="always"
         stdDeviation="6.6648732"
         id="feGaussianBlur867" />
    </filter>
    <filter
       inkscape:collect="always"
       style="color-interpolation-filters:sRGB"
       id="filter1625"
       x="-0.047706791"
       y="-0.047706951"
       width="1.0954136"
       height="1.0954139">
      <feGaussianBlur
         inkscape:collect="always"
         stdDeviation="1.3517071"
         id="feGaussianBlur1627" />
    </filter>
  </defs>
  <sodipodi:namedview
     id="namedview24"
     pagecolor="#ffffff"
     bordercolor="#666666"
     borderopacity="1.0"
     inkscape:pageshadow="2"
     inkscape:pageopacity="0.0"
     inkscape:pagecheckerboard="0"
     showgrid="false"
     inkscape:zoom="1"
     inkscape:cx="64.5"
     inkscape:cy="92.5"
     inkscape:window-width="1920"
     inkscape:window-height="1019"
     inkscape:window-x="0"
     inkscape:window-y="34"
     inkscape:window-maximized="1"
     inkscape:current-layer="svg22" />
  <path
     d="m 153.00034,26.585781 c -3.08843,0 -6.18237,0.51471 -9.1349,1.556119 L 16.566632,73.029934 c -10.9028258,3.845169 -18.3151784,14.32115 -18.3151784,25.885431 0,49.504535 12.7255444,104.519855 35.0423344,153.636785 18.116448,39.87821 50.50828,94.45406 107.138492,123.62164 3.92272,2.01865 8.25938,3.05239 12.56806,3.05239 4.30867,0 8.64534,-1.03374 12.56805,-3.05239 56.62579,-29.17286 89.00424,-83.7503 107.12337,-123.62164 a 23.108569,23.10857 0 0 0 0.0155,0 c 22.3156,-49.12005 35.04233,-104.13858 35.04233,-153.636785 0,-11.564281 -7.41235,-22.040262 -18.31518,-25.885431 a 23.108569,23.10857 0 0 0 -0.0302,0 L 162.13524,28.1419 c -2.95561,-1.043801 -6.04293,-1.556119 -9.1349,-1.556119 z"
     id="path2"
     transform="matrix(0.46526936,0,0,0.45372,24.813545,7.9374976)"
     style="opacity:0.2;filter:url(#filter865)" />
  <path
     style="fill:#3f3f3f;fill-opacity:1;stroke-width:0.459458"
     d="m 95.999915,15.999999 c -1.436952,0 -2.876467,0.233534 -4.250189,0.706042 L 32.521491,37.07264 C 27.44874,38.81727 24,43.570432 24,48.817378 c 0,22.461198 5.920806,47.422749 16.304124,69.708082 8.429029,18.09354 23.499956,42.8557 49.848258,56.08961 1.825121,0.9159 3.842836,1.38493 5.847533,1.38493 2.004692,0 4.022415,-0.46903 5.847525,-1.38493 26.34625,-13.23631 41.41095,-37.99919 49.84123,-56.08961 a 10.751709,10.48482 0 0 0 0.007,0 C 162.07864,96.238711 168,71.275703 168,48.817378 168,43.570432 164.55126,38.81727 159.47851,37.07264 a 10.751709,10.48482 0 0 0 -0.014,0 L 100.2501,16.706041 c -1.37515,-0.473593 -2.811586,-0.706042 -4.250185,-0.706042 z"
     id="path6" />
  <path
     style="opacity:0.1;fill:#ffffff;stroke-width:4"
     d="m 96,16 c -1.436952,0 -2.87628,0.230616 -4.25,0.703125 L 32.523438,37.070312 C 27.450687,38.814942 24,43.573368 24,48.820312 c 0,22.4612 5.921369,47.417792 16.304688,69.703128 8.429028,18.09354 23.50326,42.85983 49.85156,56.09375 C 91.981372,175.53309 93.995304,176 96,176 Z"
     id="path14" />
  <path
     id="path18"
     style="opacity:0.1;fill:#ffffff;stroke-width:4"
     d="m 96,16 c -1.436952,0 -2.87628,0.230616 -4.25,0.703125 L 32.523438,37.070312 C 27.450687,38.814943 24,43.573368 24,48.820312 c 0,0.138963 0.0096,0.280769 0.01563,0.421876 0.242723,-5.015442 3.622131,-9.491583 8.507813,-11.171876 L 91.75,17.703125 C 93.12372,17.230616 94.563048,17 96,17 c 1.4386,0 2.874844,0.229532 4.25,0.703125 l 59.21094,20.367187 a 10.751709,10.48482 0 0 1 0.0156,0 c 4.88569,1.680293 8.26509,6.156434 8.50782,11.171876 0.006,-0.141117 0.0156,-0.282868 0.0156,-0.421876 0,-5.246944 -3.45069,-10.005369 -8.52344,-11.75 a 10.751709,10.48482 0 0 0 -0.0156,0 L 100.25,16.703125 C 98.874844,16.229532 97.4386,16 96,16 Z" />
  <path
     style="color:#000000;opacity:0.2;fill:#000000;stroke-linecap:round;stroke-linejoin:round;-inkscape-stroke:none;filter:url(#filter1625)"
     d="m 124.93359,58.144318 a 4,4 0 0 0 -2.41406,1.882813 L 90.789062,116.02126 68.439453,98.829864 a 4,4 0 0 0 -5.609375,0.73047 4,4 0 0 0 0.730469,5.609366 l 26,20 a 4.0004,4.0004 0 0 0 5.919922,-1.19726 L 129.48047,63.972443 a 4,4 0 0 0 -1.50781,-5.453125 4,4 0 0 0 -3.03907,-0.375 z"
     id="path1583" />
  <path
     style="fill:none;stroke:#ed3e31;stroke-width:8;stroke-linecap:round;stroke-linejoin:round;stroke-miterlimit:4;stroke-dasharray:none;stroke-opacity:1"
     d="m 66,100.0001 26,20 34,-59.999998"
     id="path3250"
     sodipodi:nodetypes="ccc" />
  <path
     id="path4695"
     style="color:#000000;opacity:0.2;fill:#ffffff;stroke-linecap:round;stroke-linejoin:round;-inkscape-stroke:none"
     d="m 126.49023,56.029399 a 4,4 0 0 0 -1.55664,0.115234 4,4 0 0 0 -2.41406,1.882813 L 90.789062,114.02158 68.439453,96.83018 a 4,4 0 0 0 -5.609375,0.730469 4,4 0 0 0 -0.740234,3.121091 4,4 0 0 1 0.740234,-2.121096 4,4 0 0 1 5.609375,-0.730464 l 22.349609,17.1914 31.730468,-55.994134 a 4,4 0 0 1 2.41406,-1.882813 4,4 0 0 1 3.03907,0.375 4,4 0 0 1 1.98828,2.990235 4,4 0 0 0 -1.98828,-3.990235 4,4 0 0 0 -1.48243,-0.490234 z" />
</svg>
