<?xml version="1.0" encoding="UTF-8" standalone="no"?>
<svg
   width="192"
   height="192"
   version="1"
   id="svg22"
   sodipodi:docname="apps_python.svg"
   inkscape:version="1.1-rc (1:1.1+rc+202105232036+f4db50c7c1)"
   xmlns:inkscape="http://www.inkscape.org/namespaces/inkscape"
   xmlns:sodipodi="http://sodipodi.sourceforge.net/DTD/sodipodi-0.dtd"
   xmlns="http://www.w3.org/2000/svg"
   xmlns:svg="http://www.w3.org/2000/svg">
  <defs
     id="defs26">
    <filter
       inkscape:collect="always"
       style="color-interpolation-filters:sRGB"
       id="filter1049"
       x="-0.047999999"
       y="-0.047999999"
       width="1.096"
       height="1.096">
      <feGaussianBlur
         inkscape:collect="always"
         stdDeviation="0.16"
         id="feGaussianBlur1051" />
    </filter>
    <filter
       inkscape:collect="always"
       style="color-interpolation-filters:sRGB"
       id="filter1053"
       x="-0.047999999"
       y="-0.047999999"
       width="1.096"
       height="1.096">
      <feGaussianBlur
         inkscape:collect="always"
         stdDeviation="0.16"
         id="feGaussianBlur1055" />
    </filter>
    <filter
       inkscape:collect="always"
       style="color-interpolation-filters:sRGB"
       id="filter1097"
       x="-0.048000002"
       y="-0.048000002"
       width="1.096"
       height="1.096">
      <feGaussianBlur
         inkscape:collect="always"
         stdDeviation="2.4"
         id="feGaussianBlur1099" />
    </filter>
    <filter
       inkscape:collect="always"
       style="color-interpolation-filters:sRGB"
       id="filter1101"
       x="-0.048000002"
       y="-0.048000002"
       width="1.096"
       height="1.096">
      <feGaussianBlur
         inkscape:collect="always"
         stdDeviation="2.4"
         id="feGaussianBlur1103" />
    </filter>
  </defs>
  <sodipodi:namedview
     id="namedview24"
     pagecolor="#ffffff"
     bordercolor="#666666"
     borderopacity="1.0"
     inkscape:pageshadow="2"
     inkscape:pageopacity="0.0"
     inkscape:pagecheckerboard="0"
     showgrid="false"
     inkscape:zoom="3.06"
     inkscape:cx="24.019608"
     inkscape:cy="102.45098"
     inkscape:window-width="1920"
     inkscape:window-height="1019"
     inkscape:window-x="0"
     inkscape:window-y="34"
     inkscape:window-maximized="1"
     inkscape:current-layer="svg22" />
  <path
     fill="#ffa923"
     d="m 136,60 v 20 c 0,11.08 -8.92,20 -20,20 H 76 c 0,0 -20,0 -20,20 v 35 c 0,13.848 15.608,25 35,25 h 10 c 19.392,0 35,-11.152 35,-25 v -7 H 96 v -8 h 55 c 13.848,0 25,-15.608 25,-35 V 95 C 176,75.608 164.848,60 151,60 Z"
     id="path1057"
     style="opacity:0.2;fill:#000000;stroke-width:4;filter:url(#filter1097)" />
  <path
     fill="#ffa923"
     d="m 136,56 v 20 c 0,11.08 -8.92,20 -20,20 H 76 c 0,0 -20,0 -20,20 v 35 c 0,13.848 15.608,25 35,25 h 10 c 19.392,0 35,-11.152 35,-25 v -7 H 96 v -8 h 55 c 13.848,0 25,-15.608 25,-35 V 91 C 176,71.608 164.848,56 151,56 Z"
     id="path2"
     style="stroke-width:4" />
  <path
     opacity="0.2"
     d="m 116,161 a 4,4 0 0 1 4,4 4,4 0 0 1 -4,4 4,4 0 0 1 -4,-4 4,4 0 0 1 4,-4 z"
     id="path4"
     style="stroke-width:4;filter:url(#filter1049)" />
  <path
     fill="#ffffff"
     d="m 116,160 a 4,4 0 0 1 4,4 4,4 0 0 1 -4,4 4,4 0 0 1 -4,-4 4,4 0 0 1 4,-4 z"
     id="path6"
     style="stroke-width:4" />
  <path
     fill="#3084e0"
     d="M 91,20 C 71.608,20 56,31.15 56,45 v 7 h 40 v 8 H 41 C 27.15,60 16,75.608 16,95 v 10 c 0,19.392 11.15,35 25,35 h 15 v -20 c 0,-11.08 8.92,-20 20,-20 h 40 c 0,0 20,0 20,-20 V 45 C 136,31.15 120.392,20 101,20 Z"
     id="path1059"
     style="opacity:0.2;fill:#000000;stroke-width:4;filter:url(#filter1101)" />
  <path
     fill="#3084e0"
     d="M 91,16 C 71.608,16 56,27.15 56,41 v 7 h 40 v 8 H 41 C 27.15,56 16,71.608 16,91 v 10 c 0,19.392 11.15,35 25,35 h 15 v -20 c 0,-11.08 8.92,-20 20,-20 h 40 c 0,0 20,0 20,-20 V 41 C 136,27.15 120.392,16 101,16 Z"
     id="path8"
     style="stroke-width:4" />
  <path
     opacity="0.2"
     d="m 76,25 a 4,4 0 0 1 4,4 4,4 0 0 1 -4,4 4,4 0 0 1 -4,-4 4,4 0 0 1 4,-4 z"
     id="path10"
     style="stroke-width:4;filter:url(#filter1053)" />
  <path
     fill="#ffffff"
     d="m 76,24 a 4,4 0 0 1 4,4 4,4 0 0 1 -4,4 4,4 0 0 1 -4,-4 4,4 0 0 1 4,-4 z"
     id="path12"
     style="stroke-width:4" />
  <path
     id="path14"
     style="opacity:0.2;stroke-width:4;fill:#ffffff"
     d="M 91 16 C 71.608 16 56 27.15 56 41 L 56 42 C 56 28.15 71.608 17 91 17 L 101 17 C 120.392 17 136 28.15 136 42 L 136 41 C 136 27.15 120.392 16 101 16 L 91 16 z M 41 56 C 27.15 56 16 71.608 16 91 L 16 92 C 16 72.608 27.15 57 41 57 L 56 57 L 96 57 L 96 56 L 56 56 L 41 56 z " />
  <path
     id="path16"
     style="opacity:0.2;fill:#ffffff;stroke-width:4"
     d="M 136 56 L 136 57 L 151 57 C 164.848 57 176 72.608 176 92 L 176 91 C 176 71.608 164.848 56 151 56 L 136 56 z M 96 144 L 96 145 L 136 145 L 136 144 L 96 144 z " />
</svg>
