<?xml version="1.0" encoding="UTF-8" standalone="no"?>
<svg
   xmlns:dc="http://purl.org/dc/elements/1.1/"
   xmlns:cc="http://creativecommons.org/ns#"
   xmlns:rdf="http://www.w3.org/1999/02/22-rdf-syntax-ns#"
   xmlns:svg="http://www.w3.org/2000/svg"
   xmlns="http://www.w3.org/2000/svg"
   xmlns:sodipodi="http://sodipodi.sourceforge.net/DTD/sodipodi-0.dtd"
   xmlns:inkscape="http://www.inkscape.org/namespaces/inkscape"
   width="192"
   height="192"
   version="1.1"
   id="svg32"
   sodipodi:docname="apps_androidstudio.svg"
   inkscape:version="1.0.2 (1.0.2+r75+1)">
  <metadata
     id="metadata38">
    <rdf:RDF>
      <cc:Work
         rdf:about="">
        <dc:format>image/svg+xml</dc:format>
        <dc:type
           rdf:resource="http://purl.org/dc/dcmitype/StillImage" />
        <dc:title></dc:title>
      </cc:Work>
    </rdf:RDF>
  </metadata>
  <defs
     id="defs36">
    <filter
       inkscape:collect="always"
       style="color-interpolation-filters:sRGB"
       id="filter899"
       x="-0.16799999"
       width="1.336"
       y="-0.028"
       height="1.056">
      <feGaussianBlur
         inkscape:collect="always"
         stdDeviation="1.12"
         id="feGaussianBlur901" />
    </filter>
    <filter
       inkscape:collect="always"
       style="color-interpolation-filters:sRGB"
       id="filter903"
       x="-0.042966109"
       width="1.0859322"
       y="-0.054369961"
       height="1.1087399">
      <feGaussianBlur
         inkscape:collect="always"
         stdDeviation="2.2915264"
         id="feGaussianBlur905" />
    </filter>
    <filter
       inkscape:collect="always"
       style="color-interpolation-filters:sRGB"
       id="filter907"
       x="-0.056001608"
       width="1.1120032"
       y="-0.041999096"
       height="1.0839982">
      <feGaussianBlur
         inkscape:collect="always"
         stdDeviation="1.6799579"
         id="feGaussianBlur909" />
    </filter>
    <filter
       inkscape:collect="always"
       style="color-interpolation-filters:sRGB"
       id="filter911"
       x="-0.028863957"
       width="1.0577279"
       y="-0.14242209"
       height="1.2848442">
      <feGaussianBlur
         inkscape:collect="always"
         stdDeviation="0.47926178"
         id="feGaussianBlur913" />
    </filter>
    <filter
       inkscape:collect="always"
       style="color-interpolation-filters:sRGB"
       id="filter915"
       x="-0.03802165"
       width="1.0760433"
       y="-0.065079332"
       height="1.1301587">
      <feGaussianBlur
         inkscape:collect="always"
         stdDeviation="0.76030924"
         id="feGaussianBlur917" />
    </filter>
    <filter
       inkscape:collect="always"
       style="color-interpolation-filters:sRGB"
       id="filter919"
       x="-0.050358305"
       width="1.1007166"
       y="-0.045852695"
       height="1.0917054">
      <feGaussianBlur
         inkscape:collect="always"
         stdDeviation="1.6823881"
         id="feGaussianBlur921" />
    </filter>
  </defs>
  <sodipodi:namedview
     pagecolor="#ffffff"
     bordercolor="#666666"
     borderopacity="1"
     objecttolerance="10"
     gridtolerance="10"
     guidetolerance="10"
     inkscape:pageopacity="0"
     inkscape:pageshadow="2"
     inkscape:window-width="1920"
     inkscape:window-height="1018"
     id="namedview34"
     showgrid="false"
     inkscape:zoom="2.93"
     inkscape:cx="24.121059"
     inkscape:cy="124.83317"
     inkscape:window-x="0"
     inkscape:window-y="30"
     inkscape:window-maximized="1"
     inkscape:current-layer="svg32" />
  <path
     style="opacity:0.2;stroke-width:4;filter:url(#filter903)"
     d="M 160.00547,152 H 44.851468 c -7.0918,-0.0457 -12.82312,-5.78975 -12.84584,-12.87443 V 50.847392 c -0.04,7.470792 6.25728,13.6106 13.72172,13.152608 h 95.509842 c 0,0 18.76828,-1.819772 18.76828,12.304608 z"
     id="path2" />
  <path
     style="fill:#0a455f;stroke-width:4"
     d="M 79.627628,36 H 44.790268 A 12.826096,12.019384 0 0 0 32.005588,48.019388 12.412351,11.631662 0 0 0 44.417948,60 h 35.58204 z"
     id="path4" />
  <path
     style="opacity:0.1;stroke-width:4;filter:url(#filter915)"
     d="M 44.789052,36 A 12.826096,12.019384 0 0 0 32.0078,48.015624 12.412351,11.631662 0 0 0 32.16405,50.203124 12.826096,12.019384 0 0 1 44.789052,40 h 34.835936 l 0.31252,20 h 0.06248 l -0.375,-24 z"
     id="path6" />
  <path
     style="opacity:0.2;stroke-width:4;filter:url(#filter919)"
     d="M 70.046876,20 A 2.0002,2.0002 0 0 0 68.3125,23.078125 l 6.765624,10.875 A 40,40 0 0 0 56,68 40,40 0 0 0 96,108 40,40 0 0 0 136,68 40,40 0 0 0 116.91406,33.960938 L 123.6875,23.078125 A 2.0002,2.0002 0 0 0 121.95312,20 a 2.0002,2.0002 0 0 0 -1.65624,0.96875 l -6.89063,11.070312 A 40,40 0 0 0 96,28 40,40 0 0 0 78.585936,32.023438 L 71.703124,20.96875 A 2.0002,2.0002 0 0 0 70.046876,20 Z"
     id="path8" />
  <path
     style="fill:#3ddc84;stroke-width:4"
     d="M 70.046876,16 A 2.0002,2.0002 0 0 0 68.3125,19.078125 l 6.765624,10.875 A 40,40 0 0 0 56,64 40,40 0 0 0 96,104 40,40 0 0 0 136,64 40,40 0 0 0 116.91406,29.960938 L 123.6875,19.078125 A 2.0002,2.0002 0 0 0 121.95312,16 a 2.0002,2.0002 0 0 0 -1.65624,0.96875 l -6.89063,11.070312 A 40,40 0 0 0 96,24 40,40 0 0 0 78.585936,28.023438 L 71.703124,16.96875 A 2.0002,2.0002 0 0 0 70.046876,16 Z"
     id="path10" />
  <path
     id="path923"
     style="fill:#ffffff;stroke-width:4;opacity:0.2"
     d="M 69.927734 16 A 2.0002 2.0002 0 0 0 68.060547 18.498047 A 2.0002 2.0002 0 0 1 70.046875 17 A 2.0002 2.0002 0 0 1 71.703125 17.96875 L 78.585938 29.023438 A 40 40 0 0 1 96 25 A 40 40 0 0 1 113.40625 29.039062 L 120.29688 17.96875 A 2.0002 2.0002 0 0 1 121.95312 17 A 2.0002 2.0002 0 0 1 123.93945 18.501953 A 2.0002 2.0002 0 0 0 121.95312 16 A 2.0002 2.0002 0 0 0 120.29688 16.96875 L 113.40625 28.039062 A 40 40 0 0 0 96 24 A 40 40 0 0 0 78.585938 28.023438 L 71.703125 16.96875 A 2.0002 2.0002 0 0 0 70.046875 16 A 2.0002 2.0002 0 0 0 69.927734 16 z M 74.628906 30.232422 A 40 40 0 0 0 56 64 A 40 40 0 0 0 56.003906 64.521484 A 40 40 0 0 1 75.078125 30.953125 L 74.628906 30.232422 z M 117.36133 30.242188 L 116.91406 30.960938 A 40 40 0 0 1 135.99609 64.539062 A 40 40 0 0 0 136 64 A 40 40 0 0 0 117.36133 30.242188 z " />
  <path
     style="fill:#4285f4;stroke-width:4"
     d="M 160.00547,148 H 44.851468 c -7.0918,-0.0457 -12.82312,-5.78975 -12.84584,-12.87443 V 46.847392 c -0.04,7.470792 6.25728,13.6106 13.72172,13.152608 h 95.509842 c 0,0 18.76828,-1.819772 18.76828,12.304608 z"
     id="path14" />
  <path
     style="fill:#073042;stroke-width:4"
     d="M 98.995988,90.001996 A 6.9177596,6.9996356 0 1 0 101.65047,103.43153 6.8775404,6.9589404 0 0 0 98.995988,90.001996 Z"
     id="path16" />
  <path
     style="opacity:0.1;stroke-width:4;filter:url(#filter907)"
     d="m 95.937508,80.00082 a 4.0004,3.972556 0 0 0 -3.93752,4.023436 v 4.679688 a 12,12 0 0 0 -8,11.296876 12,12 0 0 0 4.32032,9.20312 l -27.64064,57.77344 c -1.05144,2.03332 -0.86984,4.45098 0.47656,6.32032 1.36604,1.85186 3.66148,2.86975 6.03128,2.67968 2.37056,-0.21656 4.43164,-1.64192 5.3828,-3.71875 l 18.4922,-37.375 c 0.89192,-1.73649 2.74164,-2.87474 4.7734,-2.88281 0.0568,-1.7e-4 0.1076,0.022 0.164,0.0236 0.0564,-0.002 0.1072,-0.0236 0.164,-0.0236 2.03176,0.008 3.881482,1.14632 4.773442,2.88281 l 18.49216,37.375 c 0.95116,2.07683 3.01224,3.50219 5.38284,3.71875 2.3698,0.19008 4.6652,-0.82782 6.03124,-2.67968 1.3464,-1.86934 1.528,-4.287 0.47656,-6.32032 l -27.6328,-57.75781 a 12,12 0 0 0 4.31264,-9.21875 12,12 0 0 0 -8.000002,-11.304688 v -4.671876 a 4.0004,3.972556 0 0 0 -4.06248,-4.023436 z m 0.0624,12 a 8,8 0 0 1 8.000002,8 8,8 0 0 1 -8.000002,8 8,8 0 0 1 -8,-8 8,8 0 0 1 8,-8 z"
     id="path18" />
  <path
     style="fill:#0a455f;stroke-width:4"
     d="m 95.937488,76.00082 a 4.0004,3.972556 0 0 0 -3.9375,4.023436 v 4.679688 a 12,12 0 0 0 -8,11.296876 12,12 0 0 0 4.320312,9.20312 l -27.640624,57.77344 c -1.05144,2.03332 -0.869832,4.45098 0.47656,6.32032 1.366048,1.85186 3.661452,2.86975 6.031252,2.67968 2.37056,-0.21656 4.431652,-1.64192 5.382812,-3.71875 l 18.492188,-37.375 c 0.89196,-1.73649 2.741676,-2.87474 4.773436,-2.88281 0.0566,-1.7e-4 0.10776,0.022 0.16408,0.0236 0.0564,-0.002 0.10728,-0.0236 0.16408,-0.0236 2.03176,0.008 3.881476,1.14632 4.773436,2.88281 l 18.49219,37.375 c 0.95116,2.07683 3.01225,3.50219 5.38281,3.71875 2.3698,0.19008 4.66521,-0.82782 6.03125,-2.67968 1.34639,-1.86934 1.528,-4.287 0.47656,-6.32032 l -27.63284,-57.75781 a 12,12 0 0 0 4.3125,-9.21875 12,12 0 0 0 -8.000002,-11.304688 v -4.671876 a 4.0004,3.972556 0 0 0 -4.0625,-4.023436 z m 0.06252,12 a 8,8 0 0 1 8.000002,8 8,8 0 0 1 -8.000002,8 8,8 0 0 1 -8,-8 8,8 0 0 1 8,-8 z"
     id="path20" />
  <path
     style="opacity:0.1;stroke-width:4;filter:url(#filter911)"
     d="m 80.195308,41.999263 a 3.8690982,3.8891271 0 0 0 -3.05468,1.421876 3.8213315,3.8411131 0 0 0 2.71872,6.578124 3.7735648,3.7930992 0 0 0 2.72656,-1.101564 3.8690982,3.8891271 0 0 0 -2.3906,-6.898436 z m 31.882802,0 a 4.0027756,4.0380688 0 0 0 -2.89844,1.171876 3.9533586,3.9882161 0 0 0 2.8672,6.828124 3.9533586,3.9882161 0 0 0 3.95312,-3.984376 4.0027756,4.0380688 0 0 0 -3.92188,-4.015624 z"
     id="path22" />
  <path
     style="fill:#ffffff;stroke-width:4"
     d="m 112.04663,48 a 3.9533586,3.9882161 0 0 1 -2.86612,-6.829812 4.0027756,4.0380688 0 0 1 6.81948,2.841604 A 3.9533586,3.9882161 0 0 1 112.04663,48"
     id="path24" />
  <path
     style="fill:#ffffff;stroke-width:4"
     d="m 79.862908,48 a 3.8213315,3.8411131 0 0 1 -2.72268,-6.5779 3.8690982,3.8891271 0 1 1 5.44548,5.473584 A 3.7735648,3.7930992 0 0 1 79.862908,48"
     id="path26" />
  <path
     style="opacity:0.1;stroke-width:4;filter:url(#filter899)"
     d="m 149.40899,88 h -4.8038 c -0.3344,0 -0.6052,0.22532 -0.6052,0.591748 V 171.3365 c -6.4e-4,0.35084 0.248,0.64159 0.5674,0.6635 h 4.95508 c 5.79268,-0.0228 10.47756,-5.17756 10.47752,-11.52829 V 76 c 1.6e-4,6.399428 -4.754,12.046036 -10.591,12 z"
     id="path28" />
  <path
     style="fill:#0a455f;stroke-width:4"
     d="m 149.40899,84 h -4.8038 c -0.3344,0 -0.6052,0.22532 -0.6052,0.591748 V 167.3365 c -6.4e-4,0.35084 0.248,0.64159 0.5674,0.6635 h 4.95508 c 5.79268,-0.0228 10.47756,-5.17756 10.47752,-11.52829 V 72 c 1.6e-4,6.399428 -4.754,12.046036 -10.591,12 z"
     id="path30" />
</svg>
