<svg xmlns="http://www.w3.org/2000/svg" width="192" height="192" version="1">
 <g transform="scale(4)">
  <rect style="opacity:0.2" width="40" height="32" x="-44.5" y="-40" rx="2" ry="2" transform="matrix(0,-1,-1,0,0,0)"/>
  <rect style="fill:#8e8e8e" width="40" height="32" x="-44" y="-40" rx="2" ry="2" transform="matrix(0,-1,-1,0,0,0)"/>
  <path style="opacity:0.5" d="m24 10c5.5228 0 10 4.4772 10 10s-4.4772 10-10 10h-10v-10c0-5.5228 4.4772-10 10-10zm0 5c-2.7614 0-5 2.2386-5 5s2.2386 5 5 5 5-2.2386 5-5-2.2386-5-5-5z"/>
  <path style="fill:#ffffff;opacity:0.2" d="M 10 4 C 8.892 4 8 4.892 8 6 L 8 6.5 C 8 5.392 8.892 4.5 10 4.5 L 38 4.5 C 39.108 4.5 40 5.392 40 6.5 L 40 6 C 40 4.892 39.108 4 38 4 L 10 4 z"/>
  <circle style="opacity:0.2" cx="36" cy="36.5" r="11"/>
  <circle style="fill:#d65050" cx="36" cy="36" r="11"/>
  <rect style="fill:#ffffff" width="10" height="7" x="31" y="34"/>
  <path style="fill:none;stroke:#ffffff;stroke-width:2" d="m 39,36.999579 c 0,0 1,-7.000001 -3,-7.000001 -4,0 -3,7.000001 -3,7.000001"/>
 </g>
</svg>
