<svg xmlns="http://www.w3.org/2000/svg" width="48" height="48" version="1">
 <g>
  <rect style="fill:#3d5074" width="40" height="40" x="-44" y="-44" rx="2" ry="2" transform="matrix(0,-1,-1,0,0,0)"/>
  <path fill="#fff" style="opacity:0.1" d="m6 4c-1.108 0-2 0.892-2 2v1c0-1.108 0.892-2 2-2h36c1.108 0 2 0.892 2 2v-1c0-1.108-0.892-2-2-2h-36z"/>
  <path opacity=".2" d="m6 45c-1.108 0-2-0.892-2-2v-1c0 1.108 0.892 2 2 2h36c1.108 0 2-0.892 2-2v1c0 1.108-0.892 2-2 2h-36z"/>
  <path style="opacity:0.2" d="m27.160156 11.001953c-1.000161 0.02059-0.989673-0.088081-1.142578 0.753906-0.146461 0.806499-0.393391 1.275391-0.671875 1.275391-0.101843 0-0.528899-0.292492-0.949219-0.648438-1.397665-1.183602-2.964259-1.506222-4.996093-1.25-0.602352 0.075961-1.204272 0.196137-1.337891 0.267579-1.044289 2.747956-1.511681 4.830054-2.0625 7.599609-1.845651 0.666341-3.857056 1.346542-5.431641 2.396484-0.381661 0.339882-0.5957028 0.704706-0.5957028 1.052735 0 0.589188 0.4344618 1.626849 1.6601558 2.425781 1.28317 0.836395 1.516231 1.10349 1.470704 1.148438-0.02152 0.021239-0.59181 0.131533-1.267578 0.246093-2.3252163 0.394185-4.6339891 0.480086-4.835938 1.00586-0.054668 0.14233 1.1380794 1.258867 2.9824219 3.716797 1.0531031 1.524186 3.2031031 3.698125 4.0175781 5.007812-0.962555-0.674805-1.96125-1.35509-3-2-0.274216 0-2.5913853 1.485954-3.4492188 2.332031-1.1760066 1.11867-1.3787648 2.409134-1.5507812 4.007813 3.3e-6 1.195064 1e-6 2.426949 0 3.660156h35.728516c-0.584009-3.073462-2.390165-5.953373-4.054688-8.039062l-0.673828-0.960938 2.433594-3.816406c1.411379-2.078202 2.566406-3.872301 2.566406-3.988282 0-0.242118-0.837682-0.613696-2.087891-0.925781-0.439249-0.109649-0.819389-0.217594-0.84375-0.240234-0.02436-0.02264 0.654745-0.361912 0.958985-0.753906 0.757039-0.975398 0.948465-1.399124 0.945312-2.087891-0.0077-1.676862-2.12176-3.362391-5.302734-4.533203-0.742131-0.273154-1.431838-0.543608-1.533203-0.599609-0.132007-0.07293-0.209703-0.427927-0.275391-1.253907-0.187958-2.363459-0.676969-3.654607-1.58789-4.646484-0.876326-0.954206-1.290651-1.081468-3.732422-1.134766-0.601346-0.01313-1.047473-0.024438-1.38086-0.017578z"/>
  <path style="fill:#ffffff" d="m27.159983 10.002002c-1.000161 0.02059-0.990092-0.08848-1.142997 0.753507-0.146461 0.806499-0.393445 1.274982-0.671929 1.274982-0.101843 0-0.529018-0.291135-0.949338-0.647081-1.397665-1.183602-2.963234-1.5075325-4.995068-1.251309-0.602352 0.07596-1.204718 0.196356-1.338337 0.267798-1.044289 2.747956-1.511495 4.830546-2.062314 7.600101-1.845651 0.666341-3.857285 1.345681-5.43187 2.395623-0.381661 0.339882-0.5962601 0.704657-0.5962601 1.052686 0 0.589188 0.4355941 1.627558 1.6612891 2.42649 1.283169 0.836395 1.516571 1.102782 1.471044 1.14773-0.02152 0.02124-0.592258 0.132381-1.268026 0.246941-2.3252158 0.394185-4.6342281 0.479919-4.836177 1.005693-0.054668 0.14233 1.1387527 1.258649 2.9830952 3.716579 1.0531028 1.524186 3.2024298 3.698571 4.0169048 5.008258-0.962555-0.674805-1.96125-1.35509-3-2-0.274216 0-2.5904921 1.4863-3.4483255 2.332377-1.1760066 1.11867-1.3796581 2.408475-1.5516745 4.007154 4.2e-6 1.521571 0 3.080689 0 4.660469h35.885294c-0.334097-3.444107-2.366439-6.727745-4.210591-9.038514l-0.674703-0.961486 2.433955-3.8155c1.411379-2.078202 2.566046-3.873433 2.566046-3.989413 0-0.242119-0.838528-0.613823-2.088737-0.925908-0.439249-0.109649-0.818429-0.218068-0.84279-0.240708-0.02436-0.02264 0.654416-0.361775 0.958656-0.753769 0.757039-0.975398 0.948893-1.398722 0.94574-2.087489-0.0077-1.676862-2.121699-3.362654-5.302673-4.533466-0.742131-0.273154-1.432312-0.542411-1.533677-0.598412-0.132007-0.07293-0.210283-0.429103-0.275971-1.255083-0.187958-2.363459-0.676029-3.654382-1.586951-4.646259-0.876326-0.954206-1.29151-1.080472-3.733281-1.13377-0.601346-0.01313-1.046947-0.025084-1.380334-0.01822z"/>
  <path style="opacity:0.2" d="m16.158203 18.24039c-0.052188 0.255671-0.105052 0.492517-0.158203 0.759766 0.429556 2.701221 4.503899 4.397367 9.335938 4.90625 1.627576 0.171406 3.606998 0.146868 4.46289-0.05469 1.940525-0.456979 3.244426-1.856139 3.867188-3.953124 0.108902-0.366697 0.333984-0.833386 0.333984-0.898436-2.439347 1.958-5.056482 2.312473-8.429688 1.949219-3.421503-0.364143-6.897405-0.722964-9.240234-2.591797-0.06267-0.04999-0.116097-0.08245-0.171875-0.117188zm5.027344 9.660157-0.119141 0.341797c-0.0663 0.18811-0.08567 0.796565-0.04297 1.230468 0.212614 2.16056 1.016751 3.256281 2.552734 3.47461 2.043802 0.290513 3.348994-0.03648 3.589844-1.951172 0.05197-0.41314 0.171515-0.802908 0.265625-0.867188 0.194107-0.13257 1.451589-0.162123 1.74414-0.04102 0.136888 0.05667 0.19336-0.146099 0.19336 0.28125 0 0.897955 0.391172 1.063403 1.011718 1.378906 1.515567 0.77056 2.9771 0.291337 3.423829-1.123047 0.20353-0.644397 0.269406-2.502674 0.0918-2.621094-0.05565-0.0371-0.398557-0.0802-0.761718 0.02539-3.105333 0.902895-6.661768 1.08419-10.447266 0.144531zm-1.412109 7.152343c-0.718753 0-1.031981 0.0581-1.363282 0.251954-0.383257 0.224254-0.43516 0.314464-0.46875 0.833984-0.06283 0.971578 0.51401 3.026325 1.148438 3.660156 0.204174 0.203984 0.432088 0.291016 0.761718 0.291016 0.738648 0 7.051508-2.146991 7.148438-2.4375 0.07159-0.214569-0.580672-0.373199-2.9375 0.02734-2.483175 0.422012-2.872656 0.439265-2.974609 0.173828-0.04102-0.106791-0.07422-0.88524-0.07422-1.445313 0-1.282494 0.0279-1.355469-1.240234-1.355469z"/>
  <path style="fill:#505050" d="m16.158203 17.240234c-0.052188 0.255671-0.105052 0.492517-0.158203 0.759766 0.429556 2.701221 4.503899 4.397367 9.335938 4.90625 1.627576 0.171406 3.606998 0.146868 4.46289-0.054688 1.940525-0.456979 3.244426-1.856139 3.867188-3.953124 0.108902-0.366699 0.333984-0.833388 0.333984-0.898438-2.439347 1.958-5.056482 2.312473-8.429688 1.949219-3.421503-0.364143-6.897405-0.722964-9.240234-2.591797-0.062666-0.049986-0.116097-0.082453-0.171875-0.117188zm5.027344 9.660157-0.119141 0.341797c-0.0663 0.18811-0.085668 0.796565-0.042968 1.230468 0.212614 2.16056 1.016751 3.256281 2.552734 3.47461 2.043802 0.290513 3.348994-0.036476 3.589844-1.951172 0.051969-0.41314 0.171515-0.802908 0.265625-0.867188 0.194107-0.13257 1.451589-0.162123 1.74414-0.041015 0.136888 0.056671 0.19336-0.146099 0.19336 0.28125 0 0.897955 0.391172 1.063403 1.011718 1.378906 1.515567 0.77056 2.9771 0.291337 3.423829-1.123047 0.20353-0.644397 0.269406-2.502674 0.091796-2.621094-0.055648-0.0371-0.398557-0.080196-0.761718 0.025391-3.105333 0.902895-6.661768 1.08419-10.447266 0.144531l-1.501953-0.273437zm-1.412109 7.152343c-0.718753 0-1.031981 0.058099-1.363282 0.251954-0.383257 0.224254-0.43516 0.314464-0.46875 0.833984-0.062825 0.971578 0.51401 3.026325 1.148438 3.660156 0.204174 0.203984 0.432088 0.291016 0.761718 0.291016 0.738648 0 7.051508-2.146991 7.148438-2.4375 0.071591-0.214569-0.580672-0.373199-2.9375 0.027344-2.483175 0.422012-2.872656 0.439265-2.974609 0.173828-0.04102-0.106791-0.074219-0.88524-0.074219-1.445313 0-1.282494 0.027904-1.355469-1.240234-1.355469z"/>
 </g>
</svg>
