<?xml version="1.0" encoding="UTF-8" standalone="no"?>
<svg
   width="192"
   height="192"
   version="1"
   id="svg14"
   sodipodi:docname="apps_connectips.svg"
   inkscape:version="1.1.1 (1:1.1+202109281949+c3084ef5ed)"
   xmlns:inkscape="http://www.inkscape.org/namespaces/inkscape"
   xmlns:sodipodi="http://sodipodi.sourceforge.net/DTD/sodipodi-0.dtd"
   xmlns="http://www.w3.org/2000/svg"
   xmlns:svg="http://www.w3.org/2000/svg"
   xmlns:rdf="http://www.w3.org/1999/02/22-rdf-syntax-ns#"
   xmlns:cc="http://creativecommons.org/ns#"
   xmlns:dc="http://purl.org/dc/elements/1.1/">
  <metadata
     id="metadata20">
    <rdf:RDF>
      <cc:Work
         rdf:about="">
        <dc:format>image/svg+xml</dc:format>
        <dc:type
           rdf:resource="http://purl.org/dc/dcmitype/StillImage" />
      </cc:Work>
    </rdf:RDF>
  </metadata>
  <defs
     id="defs18">
    <filter
       inkscape:collect="always"
       style="color-interpolation-filters:sRGB"
       id="filter850"
       x="-0.048000001"
       width="1.096"
       y="-0.048000001"
       height="1.096">
      <feGaussianBlur
         inkscape:collect="always"
         stdDeviation="3.2"
         id="feGaussianBlur852" />
    </filter>
    <filter
       inkscape:collect="always"
       style="color-interpolation-filters:sRGB"
       id="filter1433"
       x="-0.075"
       y="-0.074999999"
       width="1.15"
       height="1.15">
      <feGaussianBlur
         inkscape:collect="always"
         stdDeviation="3.125"
         id="feGaussianBlur1435" />
    </filter>
  </defs>
  <sodipodi:namedview
     pagecolor="#ffffff"
     bordercolor="#666666"
     borderopacity="1"
     objecttolerance="10"
     gridtolerance="10"
     guidetolerance="10"
     inkscape:pageopacity="0"
     inkscape:pageshadow="2"
     inkscape:window-width="1920"
     inkscape:window-height="1022"
     id="namedview16"
     showgrid="false"
     inkscape:zoom="1.52"
     inkscape:cx="100"
     inkscape:cy="103.94737"
     inkscape:window-x="0"
     inkscape:window-y="34"
     inkscape:window-maximized="1"
     inkscape:current-layer="svg14"
     inkscape:pagecheckerboard="0">
    <inkscape:grid
       type="xygrid"
       id="grid5193" />
  </sodipodi:namedview>
  <circle
     style="opacity:0.2;fill:#000000;stroke-width:4;filter:url(#filter850)"
     cx="96"
     cy="100"
     r="80"
     id="circle832" />
  <circle
     id="circle4"
     r="80"
     cy="96"
     cx="96"
     style="fill:#e4e4e4;stroke-width:4;fill-opacity:1" />
  <path
     style="opacity:0.2;fill:#ffffff;stroke-width:4"
     d="M 96 16 A 80 80 0 0 0 16 96 A 80 80 0 0 0 16.019531 96.472656 A 80 80 0 0 1 96 17 A 80 80 0 0 1 175.97461 96.513672 A 80 80 0 0 0 176 96 A 80 80 0 0 0 96 16 z "
     id="path6" />
  <path
     style="opacity:0.2;fill:#000000;stroke-width:0.573612;filter:url(#filter1433)"
     d="m 95.499305,147.44605 c -6.97753,-1.58685 -13.842609,-6.49944 -17.211403,-12.31635 -1.84788,-3.19075 -2.297273,-3.52903 -4.188977,-3.15328 -0.802577,0.15942 -3.332153,-0.10288 -5.621271,-0.58288 -13.785161,-2.89057 -22.477653,-14.92672 -22.477653,-31.12393 0,-10.307537 3.020864,-16.222628 11.928809,-23.357586 0.766576,-0.613991 1.247814,-1.64279 1.247814,-2.667566 0,-2.959016 2.238978,-9.045507 4.67005,-12.695157 7.816217,-11.73414 26.256929,-17.026199 38.725536,-11.113324 3.94255,1.869634 9.00395,6.558932 11.10205,10.285874 l 1.67737,2.979558 5.08924,0.243925 c 4.44139,0.212875 5.63412,0.513892 9.36952,2.364642 5.05599,2.505058 10.35484,7.783832 12.60665,12.55889 3.75531,7.963283 4.67226,18.706706 2.20999,25.893284 -1.595,4.65531 -5.33763,9.9384 -8.81302,12.44047 -2.42934,1.74897 -2.56576,2.0037 -3.17027,5.9189 -0.90279,5.84708 -3.85201,11.50566 -8.12754,15.59403 -7.28033,6.96161 -19.98573,10.78437 -29.016895,8.7305 z m 10.894245,-9.80679 c 7.53715,-2.18963 12.15886,-4.66071 16.19905,-8.6611 3.057,-3.02691 4.87281,-6.05892 4.09534,-6.83835 -0.12546,-0.12577 -1.25209,0.009 -2.50361,0.30021 -3.55504,0.82628 -9.32063,0.64837 -13.05815,-0.40295 l -3.41016,-0.95922 -1.55295,1.90752 c -0.92019,1.13029 -1.70631,1.65878 -1.92932,1.29706 -0.42551,-0.69022 -2.66277,-11.28736 -2.66277,-12.61267 0,-0.65636 0.44452,-0.78478 1.86191,-0.53795 1.02406,0.17834 3.98879,0.6245 6.58832,0.99148 5.05908,0.71421 5.75367,1.36524 3.15094,2.95333 l -1.57547,0.96128 2.12996,0.89473 c 3.66112,1.53792 12.70695,0.74093 13.44396,-1.18448 0.16201,-0.42326 -0.13325,-2.13156 -0.65612,-3.79622 -2.81532,-8.96312 -10.4163,-13.132788 -20.75357,-11.38482 l -4.02596,0.68075 -0.34445,4.41302 c -0.85114,10.90433 -6.545319,19.48776 -15.531618,23.41239 -2.071513,0.90471 -3.766392,1.87058 -3.766392,2.14638 0,0.92498 2.319983,3.77962 4.110448,5.05773 4.521588,3.22771 12.025792,3.73387 20.190612,1.36188 z M 74.242665,121.70407 c -0.142078,-2.9219 -0.349559,-5.60984 -0.46108,-5.97322 -0.111521,-0.36337 -1.251928,-0.83837 -2.53423,-1.05556 -1.28232,-0.21718 -2.33148,-0.6055 -2.33148,-0.86292 0,-0.63561 9.585577,-7.4716 10.476857,-7.4716 0.783832,0 4.883972,11.21134 4.310424,11.78632 -0.197117,0.19761 -1.143974,-0.0479 -2.10414,-0.54573 l -1.745753,-0.90502 -0.383192,2.04771 c -0.370673,1.98079 -0.04904,6.38019 0.507199,6.93781 0.438604,0.4397 4.462144,-1.42287 6.592359,-3.05172 2.621007,-2.00414 5.054198,-7.43819 5.541629,-12.37613 0.577897,-5.85438 0.400558,-6.11301 -3.951454,-5.7628 -7.588203,0.61063 -15.674445,-2.45129 -21.02969,-7.963062 -2.714189,-2.793517 -6.807697,-10.050707 -6.807697,-12.069049 0,-2.863708 -3.022991,0.551125 -4.297929,4.855024 -2.418902,8.165689 0.579394,24.398857 5.765519,31.215207 2.109102,2.77211 5.138287,4.88804 8.168852,5.70611 4.757656,1.28425 4.574962,1.47665 4.283806,-4.51137 z m 61.066755,-13.62203 c 2.34118,-5.45582 1.98139,-15.448017 -0.87956,-24.427266 -2.82569,-8.868632 -8.97002,-14.645398 -15.57723,-14.645398 -1.18519,0 -1.6868,0.239224 -1.50533,0.717916 0.14966,0.39485 0.46383,2.656266 0.69813,5.025382 l 0.42601,4.307467 2.14836,0.17825 c 1.1816,0.09804 2.14837,0.362759 2.14837,0.588275 0,0.544783 -7.9022,10.098649 -8.52974,10.312583 -0.44391,0.151324 -6.93848,-10.735791 -6.93848,-11.631266 0,-0.20885 1.12337,-0.210842 2.49637,-0.005 l 2.49638,0.375291 0.32659,-2.206666 c 0.17964,-1.213666 0.14184,-3.240466 -0.084,-4.503992 -0.48023,-2.686974 -1.21433,-2.757324 -5.1163,-0.490332 -4.94761,2.874508 -7.761118,8.95169 -7.450731,16.093598 l 0.170451,3.922099 4.11093,-0.19225 c 8.14,-0.380666 15.10571,2.216926 20.39609,7.605951 2.85233,2.905518 6.1725,8.596378 7.04235,12.070788 0.35852,1.43206 0.45175,1.47209 1.40799,0.60452 0.56323,-0.51098 1.55923,-2.17622 2.21332,-3.70052 z M 88.868324,96.045539 c 1.475819,-0.393782 1.544755,-0.594 1.906941,-5.538166 0.424032,-5.788557 0.813758,-7.287374 3.040009,-11.691657 2.256259,-4.463658 6.759726,-8.727924 11.651356,-11.03249 2.25621,-1.062959 4.10732,-2.166709 4.11356,-2.452775 0.0296,-1.359567 -3.17457,-4.43545 -6.14254,-5.896508 -2.93389,-1.444292 -3.869412,-1.615592 -8.454979,-1.5482 -8.082119,0.1188 -19.052574,4.1514 -24.781817,9.109491 -2.319419,2.007233 -5.726949,6.941782 -5.17541,7.49469 0.142467,0.142842 1.785069,-0.02684 3.650198,-0.377066 3.110906,-0.584142 9.341961,-0.3999 12.843955,0.379784 1.22281,0.27225 1.67261,-0.067 3.076093,-2.320042 0.904123,-1.4514 1.923956,-2.545308 2.266308,-2.430908 0.865171,0.289116 4.408711,12.402116 3.747889,12.811549 -0.577855,0.358025 -11.950598,-0.30865 -12.698718,-0.744408 -0.251621,-0.146567 -0.174647,-0.608125 0.171047,-1.025709 0.889718,-1.074724 -0.0016,-1.492808 -3.94714,-1.851474 -2.17517,-0.197734 -4.397273,0.02116 -6.532842,0.643541 -3.208669,0.935117 -3.233316,0.959117 -2.874929,2.798558 1.472768,7.55895 6.561371,13.034982 13.196008,14.200707 2.759486,0.484856 8.115644,0.226017 10.945011,-0.528917 z"
     id="path1395"
     sodipodi:nodetypes="sssssssssscssssssssssscscsssssscsssscsssssssssssscssssssssssscsssscssssccsssscssssccssssssssscssssssscsss" />
  <path
     style="fill:#ec1d25;stroke-width:0.573612"
     d="m 95.499305,145.44605 c -6.97753,-1.58685 -13.842609,-6.49944 -17.211403,-12.31635 -1.84788,-3.19075 -2.297273,-3.52903 -4.188977,-3.15328 -0.802577,0.15942 -3.332153,-0.10288 -5.621271,-0.58288 -13.785161,-2.89057 -22.477653,-14.92672 -22.477653,-31.123928 0,-10.307539 3.020864,-16.22263 11.928809,-23.357588 0.766576,-0.613991 1.247814,-1.64279 1.247814,-2.667566 0,-2.959016 2.238978,-9.045507 4.67005,-12.695157 7.816217,-11.73414 26.256929,-17.026199 38.725536,-11.113324 3.94255,1.869634 9.00395,6.558932 11.10205,10.285874 l 1.67737,2.979558 5.08924,0.243925 c 4.44139,0.212875 5.63412,0.513892 9.36952,2.364642 5.05599,2.505058 10.35484,7.783832 12.60665,12.55889 3.75531,7.963283 4.67226,18.706706 2.20999,25.893284 -1.595,4.65531 -5.33763,9.9384 -8.81302,12.44047 -2.42934,1.74897 -2.56576,2.0037 -3.17027,5.9189 -0.90279,5.84708 -3.85201,11.50566 -8.12754,15.59403 -7.28033,6.96161 -19.98573,10.78437 -29.016895,8.7305 z m 10.894245,-9.80679 c 7.53715,-2.18963 12.15886,-4.66071 16.19905,-8.6611 3.057,-3.02691 4.87281,-6.05892 4.09534,-6.83835 -0.12546,-0.12577 -1.25209,0.009 -2.50361,0.30021 -3.55504,0.82628 -9.32063,0.64837 -13.05815,-0.40295 l -3.41016,-0.95922 -1.55295,1.90752 c -0.92019,1.13029 -1.70631,1.65878 -1.92932,1.29706 -0.42551,-0.69022 -2.66277,-11.28736 -2.66277,-12.61267 0,-0.65636 0.44452,-0.78478 1.86191,-0.53795 1.02406,0.17834 3.98879,0.6245 6.58832,0.99148 5.05908,0.71421 5.75367,1.36524 3.15094,2.95333 l -1.57547,0.96128 2.12996,0.89473 c 3.66112,1.53792 12.70695,0.74093 13.44396,-1.18448 0.16201,-0.42326 -0.13325,-2.13156 -0.65612,-3.79622 -2.81532,-8.96312 -10.4163,-13.132788 -20.75357,-11.384818 l -4.02596,0.68075 -0.34445,4.413018 c -0.85114,10.90433 -6.545319,19.48776 -15.531618,23.41239 -2.071513,0.90471 -3.766392,1.87058 -3.766392,2.14638 0,0.92498 2.319983,3.77962 4.110448,5.05773 4.521588,3.22771 12.025792,3.73387 20.190612,1.36188 z M 74.242665,119.70407 c -0.142078,-2.9219 -0.349559,-5.60984 -0.46108,-5.97322 -0.111521,-0.36337 -1.251928,-0.83837 -2.53423,-1.05556 -1.28232,-0.21718 -2.33148,-0.6055 -2.33148,-0.86292 0,-0.63561 9.585577,-7.4716 10.476857,-7.4716 0.783832,0 4.883972,11.21134 4.310424,11.78632 -0.197117,0.19761 -1.143974,-0.0479 -2.10414,-0.54573 l -1.745753,-0.90502 -0.383192,2.04771 c -0.370673,1.98079 -0.04904,6.38019 0.507199,6.93781 0.438604,0.4397 4.462144,-1.42287 6.592359,-3.05172 2.621007,-2.00414 5.054198,-7.43819 5.541629,-12.37613 0.577897,-5.85438 0.400558,-6.11301 -3.951454,-5.7628 -7.588203,0.61063 -15.674445,-2.45129 -21.02969,-7.963062 -2.714189,-2.793517 -6.807697,-10.050707 -6.807697,-12.069049 0,-2.863708 -3.022991,0.551125 -4.297929,4.855024 -2.418902,8.165689 0.579394,24.398857 5.765519,31.215207 2.109102,2.77211 5.138287,4.88804 8.168852,5.70611 4.757656,1.28425 4.574962,1.47665 4.283806,-4.51137 z m 61.066755,-13.62203 c 2.34118,-5.45582 1.98139,-15.448017 -0.87956,-24.427266 -2.82569,-8.868632 -8.97002,-14.645398 -15.57723,-14.645398 -1.18519,0 -1.6868,0.239224 -1.50533,0.717916 0.14966,0.39485 0.46383,2.656266 0.69813,5.025382 l 0.42601,4.307467 2.14836,0.17825 c 1.1816,0.09804 2.14837,0.362759 2.14837,0.588275 0,0.544783 -7.9022,10.098649 -8.52974,10.312583 -0.44391,0.151324 -6.93848,-10.735791 -6.93848,-11.631266 0,-0.20885 1.12337,-0.210842 2.49637,-0.005 l 2.49638,0.375291 0.32659,-2.206666 c 0.17964,-1.213666 0.14184,-3.240466 -0.084,-4.503992 -0.48023,-2.686974 -1.21433,-2.757324 -5.1163,-0.490332 -4.94761,2.874508 -7.761118,8.95169 -7.450731,16.093598 l 0.170451,3.922099 4.11093,-0.19225 c 8.14,-0.380666 15.10571,2.216926 20.39609,7.605951 2.85233,2.905518 6.1725,8.596378 7.04235,12.070788 0.35852,1.43206 0.45175,1.47209 1.40799,0.60452 0.56323,-0.51098 1.55923,-2.17622 2.21332,-3.70052 z M 88.868324,94.045539 c 1.475819,-0.393782 1.544755,-0.594 1.906941,-5.538166 0.424032,-5.788557 0.813758,-7.287374 3.040009,-11.691657 2.256259,-4.463658 6.759726,-8.727924 11.651356,-11.03249 2.25621,-1.062959 4.10732,-2.166709 4.11356,-2.452775 0.0296,-1.359567 -3.17457,-4.43545 -6.14254,-5.896508 -2.93389,-1.444292 -3.869412,-1.615592 -8.454979,-1.5482 -8.082119,0.1188 -19.052574,4.1514 -24.781817,9.109491 -2.319419,2.007233 -5.726949,6.941782 -5.17541,7.49469 0.142467,0.142842 1.785069,-0.02684 3.650198,-0.377066 3.110906,-0.584142 9.341961,-0.3999 12.843955,0.379784 1.22281,0.27225 1.67261,-0.067 3.076093,-2.320042 0.904123,-1.4514 1.923956,-2.545308 2.266308,-2.430908 0.865171,0.289116 4.408711,12.402116 3.747889,12.811549 -0.577855,0.358025 -11.950598,-0.30865 -12.698718,-0.744408 -0.251621,-0.146567 -0.174647,-0.608125 0.171047,-1.025709 0.889718,-1.074724 -0.0016,-1.492808 -3.94714,-1.851474 -2.17517,-0.197734 -4.397273,0.02116 -6.532842,0.643541 -3.208669,0.935117 -3.233316,0.959117 -2.874929,2.798558 1.472768,7.55895 6.561371,13.034982 13.196008,14.200707 2.759486,0.484856 8.115644,0.226017 10.945011,-0.528917 z"
     id="path1158"
     sodipodi:nodetypes="sssssssssscssssssssssscscsssssscsssscsssssssssssscssssssssssscsssscssssccsssscssssccssssssssscssssssscsss" />
</svg>
