<?xml version="1.0" encoding="UTF-8" standalone="no"?>
<svg
   width="192"
   height="192"
   version="1.1"
   id="svg12"
   sodipodi:docname="apps_rememberthemilk.svg"
   inkscape:version="1.1-rc (1:1.1+rc+202105232036+f4db50c7c1)"
   xmlns:inkscape="http://www.inkscape.org/namespaces/inkscape"
   xmlns:sodipodi="http://sodipodi.sourceforge.net/DTD/sodipodi-0.dtd"
   xmlns="http://www.w3.org/2000/svg"
   xmlns:svg="http://www.w3.org/2000/svg">
  <defs
     id="defs16">
    <filter
       inkscape:collect="always"
       style="color-interpolation-filters:sRGB"
       id="filter848"
       x="-0.048000001"
       y="-0.047999998"
       width="1.096"
       height="1.096">
      <feGaussianBlur
         inkscape:collect="always"
         stdDeviation="3.2000001"
         id="feGaussianBlur850" />
    </filter>
    <filter
       inkscape:collect="always"
       style="color-interpolation-filters:sRGB"
       id="filter852"
       x="-0.048000168"
       y="-0.047999829"
       width="1.0960003"
       height="1.0959997">
      <feGaussianBlur
         inkscape:collect="always"
         stdDeviation="2.5600129"
         id="feGaussianBlur854" />
    </filter>
  </defs>
  <sodipodi:namedview
     id="namedview14"
     pagecolor="#ffffff"
     bordercolor="#666666"
     borderopacity="1.0"
     inkscape:pageshadow="2"
     inkscape:pageopacity="0.0"
     inkscape:pagecheckerboard="0"
     showgrid="false"
     inkscape:zoom="3.5"
     inkscape:cx="90.142857"
     inkscape:cy="92.714286"
     inkscape:window-width="1920"
     inkscape:window-height="1019"
     inkscape:window-x="0"
     inkscape:window-y="34"
     inkscape:window-maximized="1"
     inkscape:current-layer="svg12" />
  <path
     style="opacity:0.2;stroke-width:4;filter:url(#filter848)"
     d="m 81.735123,18.017784 c -1.039788,-0.04013 -2.0706,-0.0077 -3.099784,0.07805 -2.769916,0.230732 -5.518788,0.949473 -8.185624,2.224436 -9.716929,4.645497 -12.807153,9.417674 -15.833837,18.170126 -1.003316,-0.1364 -1.939544,-0.498576 -2.959596,-0.593182 -1.627472,-0.150944 -3.262496,-0.22844 -4.9067,-0.210736 -5.69472,0.06122 -11.382395,1.125554 -16.768451,4.121062 -5.386056,2.995508 -10.390739,8.501644 -12.344631,15.188604 -2.276936,7.792548 -2.034691,8.804648 -0.155772,15.976913 2.479037,9.462936 10.887943,17.51166 20.226504,19.80918 3.118946,0.767332 5.09595,0.887884 7.11861,0.983436 -0.426288,1.907928 -0.894188,3.853508 -1.214988,5.385476 -0.681112,3.252551 -2.126768,9.653991 -3.084216,13.674421 -3.066324,12.87589 -4.021724,18.96886 -3.987666,26.03761 0.04166,8.69907 4.009362,19.51102 9.883498,25.29612 2.369928,2.33403 6.42368,5.19558 9.50186,6.70453 4.587712,2.24894 9.708408,3.80671 15.421057,4.84693 6.588008,1.19961 14.532164,1.77777 22.306008,2.03711 7.773845,0.25936 13.499115,0.68355 20.826205,-0.90538 4.10422,-0.89002 8.13752,-2.20742 11.7605,-3.98837 9.31458,-4.57879 17.34062,-13.73649 20.24208,-23.68829 1.63743,-5.61626 2.13506,-8.5665 1.62778,-14.94665 -0.0533,-0.67058 -0.2334,-2.94356 -0.38944,-4.964 -0.19388,-2.51041 -0.7159,-8.05147 -1.22278,-13.12808 -0.75477,-7.55948 -0.93849,-12.73594 -1.32402,-18.334023 3.97361,0.2472 8.05337,0.04812 12.34463,-1.084904 5.53874,-1.462372 12.25983,-4.564564 16.13758,-11.90268 3.87776,-7.33812 2.34592,-15.793604 -0.26484,-21.159457 -4.7352,-9.732372 -15.05577,-15.314424 -24.7282,-17.030592 -1.67275,-0.2968 -3.14114,-0.16876 -4.68862,-0.25756 -0.0826,-2.09642 0.0852,-4.16922 -0.49846,-6.290864 -5.23388,-13.559289 -18.00906,-21.35341 -28.08501,-20.979942 -1.51032,0.07004 -3.41421,0.210932 -6.184,1.420517 -2.76974,1.209585 -6.88235,4.26679 -8.7697,9.124086 -1.179493,3.035287 -0.782113,3.058735 -0.716537,3.746418 -1.362448,-5.531433 -4.703172,-10.437006 -8.3336,-12.53489 -3.345224,-1.933076 -6.530472,-2.705035 -9.64984,-2.825423 z"
     id="path2" />
  <path
     style="fill:#4f4f4f;stroke-width:4"
     d="m 81.735123,14.017785 c -1.039788,-0.04013 -2.0706,-0.0077 -3.099784,0.07805 -2.769916,0.230732 -5.518788,0.949473 -8.185624,2.224436 -9.716929,4.645497 -12.807153,9.417674 -15.833837,18.170127 -1.003316,-0.1364 -1.939544,-0.498577 -2.959596,-0.593183 -1.627472,-0.150944 -3.262496,-0.22844 -4.9067,-0.210736 -5.69472,0.06122 -11.382395,1.125554 -16.768451,4.12106 -5.386056,2.995509 -10.390739,8.501645 -12.344631,15.188605 -2.276936,7.792548 -2.034691,8.804648 -0.155772,15.976913 2.479037,9.462936 10.887943,17.51166 20.226504,19.80918 3.118946,0.767332 5.09595,0.887884 7.11861,0.983436 -0.426288,1.907928 -0.894188,3.853508 -1.214988,5.385476 -0.681112,3.252556 -2.126768,9.653991 -3.084216,13.674421 -3.066324,12.87589 -4.021724,18.96886 -3.987666,26.03761 0.04166,8.69907 4.009362,19.51102 9.883498,25.29612 2.369928,2.33402 6.42368,5.19558 9.50186,6.70453 4.587712,2.24894 9.708408,3.80671 15.421057,4.84693 6.588008,1.19961 14.532164,1.77777 22.306008,2.03711 7.773845,0.25936 13.499115,0.68355 20.826205,-0.90538 4.10422,-0.89002 8.13752,-2.20742 11.7605,-3.98837 9.31458,-4.57879 17.34062,-13.73649 20.24208,-23.68829 1.63743,-5.61626 2.13506,-8.5665 1.62778,-14.94665 -0.0533,-0.67058 -0.2334,-2.94356 -0.38944,-4.964 -0.19388,-2.51041 -0.7159,-8.05147 -1.22278,-13.12808 -0.75477,-7.55948 -0.93849,-12.735939 -1.32402,-18.334023 3.97361,0.2472 8.05337,0.04812 12.34463,-1.084904 5.53874,-1.462372 12.25983,-4.564564 16.13758,-11.90268 3.87776,-7.33812 2.34592,-15.793605 -0.26484,-21.159457 -4.7352,-9.732372 -15.05577,-15.314424 -24.7282,-17.030592 -1.67275,-0.2968 -3.14114,-0.16876 -4.68862,-0.25756 -0.0826,-2.09642 0.0852,-4.16922 -0.49846,-6.290864 -5.23388,-13.559288 -18.00906,-21.353409 -28.08501,-20.979941 -1.51032,0.07004 -3.41421,0.210932 -6.184,1.420517 -2.76974,1.209585 -6.88235,4.26679 -8.7697,9.124086 -1.179493,3.035287 -0.782113,3.058735 -0.716537,3.746418 -1.362448,-5.531433 -4.703172,-10.437006 -8.3336,-12.53489 -3.345224,-1.933076 -6.530472,-2.705035 -9.64984,-2.825423 z"
     id="path4" />
  <path
     style="opacity:0.2;stroke-width:4;filter:url(#filter852)"
     d="m 79.554687,32.025245 c -0.875964,0.07281 -1.783472,0.306108 -2.64844,0.71875 -2.963564,1.41381 -6.667153,5.832424 -7.875001,9.398436 -1.267808,3.743048 -1.370456,8.200324 -0.28908,12.367188 0.516364,1.989656 1.688444,4.867188 1.984377,4.867188 0.08044,0 0.70996,-0.427416 1.398436,-0.945312 1.388084,-1.044164 3.541024,-2.152596 5.578124,-2.882812 1.946076,-0.697592 1.975152,-0.734784 1.679688,-2.171876 -0.1412,-0.68684 -0.26156,-2.432796 -0.26564,-3.882812 -0.0092,-3.294124 0.735984,-5.680748 2.828124,-9.031252 2.035936,-3.2605 2.578124,-4.402972 2.578124,-5.429686 0,-2.019124 -2.340852,-3.226249 -4.968748,-3.007812 z m 36.281253,1.03125 c -0.44166,0.02044 -0.74521,0.142 -0.83594,0.375 -0.0894,0.229468 0.1678,2.125198 0.57031,4.210936 1.47819,7.659432 0.56861,12.586908 -3.41406,18.4375 -0.81727,1.200576 -1.15786,1.914976 -0.98437,2.08594 0.42933,0.4231 8.11746,4.309372 8.59374,4.343748 0.24036,0.0172 0.84531,-0.41718 1.34376,-0.960936 2.1397,-2.334188 4.50947,-6.097772 5.67968,-9.02344 3.05004,-7.625412 1.35127,-13.786056 -4.79687,-17.398436 -2.21634,-1.30222 -4.83126,-2.131624 -6.15625,-2.070312 z M 46.414062,51.689307 c -7.34956,0.07884 -12.593108,2.943412 -14.02344,7.828124 -0.503771,1.720428 -0.520498,5.566101 -0.03124,7.429689 1.121396,4.271456 4.209487,7.267548 8.625,8.351564 2.106156,0.517056 7.244732,0.52502 10.125,0.0156 3.23758,-0.572584 8.366692,-2.323372 11.531248,-3.921876 1.458024,-0.736488 2.802568,-1.436544 2.992188,-1.570312 0.29884,-0.2108 1.92702,-4.205364 1.929688,-4.734376 5.36e-4,-0.10576 -0.589884,0.10068 -1.3125,0.468752 -1.650072,0.840528 -8.947976,2.98352 -12.171876,3.570312 -3.407248,0.620164 -7.710332,0.610892 -9.328124,-0.0156 -1.640608,-0.635436 -2.394452,-1.700464 -2.390624,-3.375 0.0044,-1.850277 0.728392,-3.407361 2.22656,-4.773441 1.943428,-1.772068 3.142804,-2.127228 7.859376,-2.265624 4.260408,-0.125 7.344472,0.21852 11.906252,1.304688 2.6557,0.63232 4.047692,1.41848 4.281248,2.421876 l 0.15624,0.66406 0.429688,-0.617184 c 0.402876,-0.58334 0.38852,-0.730544 -0.23436,-2.296876 -0.36628,-0.921072 -0.92308,-1.963816 -1.234376,-2.304688 -0.689176,-0.754672 -5.819896,-3.311388 -8.210936,-4.093752 -2.803464,-0.917312 -6.39408,-1.625328 -9.851564,-1.945312 -1.130624,-0.10464 -2.2235,-0.15192 -3.273436,-0.14064 z m 92.265628,8.351564 c -2.57109,0.10132 -5.19408,0.409428 -7.3125,0.906248 -3.36578,0.789356 -6.59171,1.951108 -8.14063,2.929688 l -0.91406,0.578125 1.45312,1.343752 c 0.79872,0.737788 1.65162,1.41164 1.89844,1.5 0.25164,0.09012 1.45428,-0.3286 2.73438,-0.96094 3.52623,-1.741932 6.78021,-2.512901 11.42968,-2.687501 3.47928,-0.13068 4.12733,-0.08244 5.78907,0.437501 2.85275,0.892608 4.37909,2.848316 3.96875,5.101564 -0.40961,2.249184 -2.07035,3.582628 -5.0625,4.0625 -1.81112,0.29048 -6.9082,-0.13508 -11.55469,-0.968752 -1.17571,-0.21096 -2.23003,-0.32972 -2.34375,-0.2578 -0.11372,0.07196 0.0718,0.63514 0.40625,1.25 2.79847,5.145152 14.02148,8.189292 22.24219,6.02344 6.26222,-1.649868 8.20136,-5.309364 5.61718,-10.609376 -2.13152,-4.371632 -6.50056,-7.116613 -13.21093,-8.304689 -1.90971,-0.33812 -4.42891,-0.445036 -7,-0.34376 z m -87.29688,2.171872 c -5.244712,0.14944 -7.094444,0.857432 -6.281248,2.398441 0.941636,1.784396 4.926344,1.95942 12.054684,0.523436 4.403764,-0.887128 5.532512,-1.243405 5.156252,-1.625001 -0.13944,-0.1414 -1.752408,-0.5123 -3.585936,-0.828124 C 56.03285,62.217503 54.62615,62.120343 51.38281,62.212743 Z m 89.29688,4.984377 c -3.94005,-0.12888 -8.68705,0.560704 -8.09375,1.171876 0.0714,0.07356 1.44608,0.32144 3.0625,0.554688 1.61642,0.23324 3.24153,0.471504 3.60937,0.531248 0.36784,0.05976 2.15553,0.1278 3.96875,0.14844 2.964,0.034 3.28931,-0.0184 3.21094,-0.4375 -0.048,-0.25644 -0.6905,-0.776348 -1.42188,-1.164064 -1.14478,-0.606884 -1.74496,-0.719964 -4.33593,-0.804688 z m -12.94531,3.781252 c -0.50429,0 -0.6929,0.17216 -0.8125,0.72656 -0.39332,1.823204 -1.07366,3.172264 -2.09376,4.156252 -2.52164,2.43238 -6.33516,2.282952 -11.64062,-0.46094 l -2.58594,-1.335936 -1.71875,1.835936 c -3.61773,3.875584 -8.56837,5.180008 -12.367187,3.257812 -1.2788,-0.647068 -2.296572,-2.255928 -2.671872,-4.218748 -0.14724,-0.770092 -0.26564,-1.43948 -0.26564,-1.492188 0,-0.3352 -0.765456,0.0228 -1.453124,0.679688 -2.288216,2.185968 -6.302868,3.79972 -9.445312,3.796876 -3.0951,-0.0028 -4.65418,-0.994456 -5.757812,-3.656252 -0.2692,-0.649232 -0.577368,-1.179144 -0.679688,-1.179688 -0.10228,-5.28e-4 -0.731044,0.36576 -1.398436,0.8125 -3.2927,2.204076 -7.822717,2.45834 -9.546877,0.539064 -1.011892,-1.126404 -1.491328,-0.610192 -1.5,1.632812 -0.0088,2.281512 -0.466032,4.771624 -2.117188,11.515624 -0.86978,3.552536 -2.184172,9.361528 -2.929688,12.914056 -0.74552,3.55254 -2.183956,9.90434 -3.1875,14.10938 -3.023688,12.6698 -3.591676,16.23089 -3.5625,22.27344 0.0336,7.0021 1.167912,10.09555 5.125,13.98437 1.9947,1.96029 2.693324,2.44969 5.351564,3.75 3.46608,1.69549 6.312596,2.57872 11.296873,3.48438 10.077148,1.83104 31.048347,2.52735 37.023437,1.23437 3.30444,-0.71506 5.61845,-1.48539 8.13282,-2.71875 6.4885,-3.18277 10.10072,-7.35437 11.99218,-13.82812 0.7032,-2.40676 1.21684,-6.97205 1.03906,-9.20313 -0.0578,-0.72501 -0.23356,-2.97779 -0.39064,-5.00781 -0.15712,-2.03002 -0.69476,-7.77869 -1.19531,-12.78125 -1.41927,-14.18451 -2.01627,-22.474988 -2.51562,-34.937496 -0.1278,-3.190032 -0.30712,-6.25542 -0.40625,-6.8125 -0.14332,-0.805012 -0.0651,-1.164752 0.3828,-1.765628 0.73472,-0.985656 0.70563,-1.304684 -0.10156,-1.304684 z m -22.45313,14.640624 c 2.86739,-0.016 4.96337,1.565912 6.24219,4.703124 0.43083,1.056936 0.56031,1.958176 0.57031,4.125 0.012,2.614376 -0.04,2.87536 -0.86719,4.531255 -1.01195,2.025715 -2.95616,3.912255 -5.00781,4.859365 -1.50205,0.6934 -2.56162,0.7603 -3.75,0.25 -1.18525,-0.50895 -2.44905,-2.0669 -2.960939,-3.64844 -0.679224,-2.098535 -0.811824,-6.57094 -0.25,-8.656244 0.25128,-0.932624 0.577832,-2.169988 0.718752,-2.75 0.507617,-2.08952 2.543827,-3.39846 5.304687,-3.41406 z M 86.468751,86.22056 c 1.484632,0.27448 4.1017,2.969644 4.882812,5.023436 1.30756,3.438 0.28884,7.677809 -2.570316,10.703124 -1.895156,2.0053 -3.394396,2.5013 -5.031248,1.66406 -1.32044,-0.67539 -2.179712,-1.6536 -2.960936,-3.36719 -1.163748,-2.552642 -1.045364,-6.096358 0.35156,-10.54687 0.782712,-2.493656 2.953424,-3.915588 5.328128,-3.47656 z m 17.640629,2.703124 c -0.66021,-0.0352 -1.25846,0.06748 -1.60938,0.32032 -0.89708,0.646436 -1.62563,5.496216 -0.97656,6.507812 0.21108,0.32896 0.37012,0.28232 1,-0.29688 1.07515,-0.988668 1.85681,-1.324948 3.11718,-1.343748 1.4622,-0.0216 2.62668,0.601548 3.25,1.742188 0.53802,0.9845 0.9375,1.026284 0.9375,0.10156 0,-2.266832 -1.91238,-5.599608 -3.73437,-6.515624 -0.60408,-0.30372 -1.32417,-0.480424 -1.98437,-0.515628 z m -19.984381,0.60156 c -0.89718,0 -1.257828,0.86922 -1.492188,3.601564 -0.23008,2.68246 -0.13592,2.81236 1.414064,2.039064 0.697352,-0.34792 1.642624,-0.632816 2.10156,-0.632816 0.458932,0 1.302156,0.23564 1.875,0.52344 0.572836,0.2878 1.091772,0.47762 1.156252,0.414064 0.28836,-0.28416 -0.29676,-2.021016 -1.070312,-3.171876 -0.954652,-1.42034 -2.89544,-2.77344 -3.984376,-2.77344 z m -7.242188,41.617186 c 0.29128,-0.048 0.518788,0.012 0.867188,0.15624 0.425176,0.1762 1.059864,0.75379 1.414064,1.28125 1.40948,2.09894 0.998616,5.18236 -0.968752,7.23437 -1.016732,1.06049 -1.181864,1.13094 -2.632812,1.23438 -1.526356,0.1088 -1.5588,0.0986 -2.554688,-0.88281 -0.949356,-0.93558 -1.010128,-1.08152 -1.007812,-2.45312 0.0018,-1.02731 0.184,-1.84768 0.625,-2.78125 0.891924,-1.88811 1.477512,-2.52056 3.007812,-3.28125 0.607604,-0.302 0.95868,-0.45977 1.25,-0.50781 z m 24.195309,0.85937 1.94532,0.1172 c 4.1827,0.25092 5.7856,2.3356 4.51562,5.88282 -1.21062,3.38146 -4.94038,6.36082 -7.46875,5.96875 -1.727995,-0.26796 -2.884451,-3.16625 -2.507811,-6.26563 0.23172,-1.907 0.580068,-2.58797 2.226564,-4.33594 z m -25.609369,2.20313 c -0.17512,0.0554 -0.54126,0.5022 -0.812504,0.99219 -0.415916,0.75134 -0.444056,0.99204 -0.18748,1.54687 0.16728,0.36184 0.674252,0.81473 1.125,1.00781 1.019776,0.4368 1.267356,0.44588 1.648436,0.0703 0.621992,-0.61296 0.36096,-1.93378 -0.570312,-2.85156 -0.48378,-0.47678 -1.028004,-0.82098 -1.203124,-0.76562 z m 24.921869,1.66406 -0.0938,0.99219 c -0.0523,0.54241 0.0475,1.46534 0.22656,2.05469 0.53894,1.77376 2.07879,1.88089 3.79688,0.26564 1.75099,-1.64618 0.58588,-3.29629 -2.33594,-3.30469 z"
     id="path6" />
  <path
     style="fill:#ffffff;stroke-width:4"
     d="m 79.554687,30.024151 c -0.875964,0.07281 -1.783472,0.306104 -2.64844,0.71875 -2.963564,1.413811 -6.667153,5.832424 -7.875001,9.398437 -1.267808,3.743048 -1.370456,8.200324 -0.28908,12.367188 0.516364,1.989656 1.688444,4.867188 1.984377,4.867188 0.08044,0 0.70996,-0.427416 1.398436,-0.945312 1.388084,-1.044164 3.541024,-2.152596 5.578124,-2.882812 1.946076,-0.697592 1.975152,-0.734784 1.679688,-2.171876 -0.1412,-0.68684 -0.26156,-2.432796 -0.26564,-3.882812 -0.0092,-3.294124 0.735984,-5.680748 2.828124,-9.031252 2.035936,-3.260501 2.578124,-4.402972 2.578124,-5.429686 0,-2.019124 -2.340852,-3.22625 -4.968748,-3.007813 z m 36.281253,1.03125 c -0.44166,0.02044 -0.74521,0.142 -0.83594,0.375 -0.0894,0.229468 0.1678,2.125198 0.57031,4.210938 1.47819,7.659431 0.56861,12.586907 -3.41406,18.437499 -0.81727,1.200576 -1.15786,1.914976 -0.98437,2.08594 0.42933,0.4231 8.11746,4.309372 8.59374,4.343748 0.24036,0.0172 0.84531,-0.41718 1.34376,-0.960936 2.1397,-2.334188 4.50947,-6.097772 5.67968,-9.02344 3.05004,-7.625412 1.35127,-13.786057 -4.79687,-17.398436 -2.21634,-1.302221 -4.83126,-2.131625 -6.15625,-2.070313 z M 46.414062,49.688214 c -7.34956,0.07884 -12.593108,2.943412 -14.02344,7.828124 -0.503771,1.720428 -0.520498,5.5661 -0.03124,7.429688 1.121396,4.271457 4.209487,7.267549 8.625,8.351565 2.106156,0.517056 7.244732,0.52502 10.125,0.0156 3.23758,-0.572584 8.366692,-2.323372 11.531248,-3.921876 1.458024,-0.736488 2.802568,-1.436544 2.992188,-1.570312 0.29884,-0.2108 1.92702,-4.205365 1.929688,-4.734377 5.36e-4,-0.10576 -0.589884,0.10068 -1.3125,0.468752 -1.650072,0.840528 -8.947976,2.983521 -12.171876,3.570313 -3.407248,0.620164 -7.710332,0.610892 -9.328124,-0.0156 -1.640608,-0.635436 -2.394452,-1.700465 -2.390624,-3.375001 0.0044,-1.850276 0.728392,-3.40736 2.22656,-4.77344 1.943428,-1.772068 3.142804,-2.127228 7.859376,-2.265624 4.260408,-0.125 7.344472,0.21852 11.906252,1.304688 2.6557,0.63232 4.047692,1.41848 4.281248,2.421876 l 0.15624,0.66406 0.429688,-0.617184 c 0.402876,-0.58334 0.38852,-0.730544 -0.23436,-2.296876 -0.36628,-0.921072 -0.92308,-1.963816 -1.234376,-2.304688 -0.689176,-0.754672 -5.819896,-3.311388 -8.210936,-4.093752 -2.803464,-0.917312 -6.39408,-1.625328 -9.851564,-1.945312 -1.130624,-0.10464 -2.2235,-0.15192 -3.273436,-0.14064 z m 92.265628,8.351564 c -2.57109,0.10132 -5.19408,0.409428 -7.3125,0.906248 -3.36578,0.789356 -6.59171,1.951108 -8.14063,2.929688 l -0.91406,0.578124 1.45312,1.343752 c 0.79872,0.737788 1.65162,1.41164 1.89844,1.5 0.25164,0.09012 1.45428,-0.3286 2.73438,-0.96094 3.52623,-1.741932 6.78021,-2.5129 11.42968,-2.6875 3.47928,-0.13068 4.12733,-0.08244 5.78907,0.4375 2.85275,0.892608 4.37909,2.848316 3.96875,5.101565 -0.40961,2.249184 -2.07035,3.582628 -5.0625,4.0625 -1.81112,0.29048 -6.9082,-0.13508 -11.55469,-0.968752 -1.17571,-0.21096 -2.23003,-0.32972 -2.34375,-0.2578 -0.11372,0.07196 0.0718,0.63514 0.40625,1.25 2.79847,5.145152 14.02148,8.189292 22.24219,6.02344 6.26222,-1.649868 8.20136,-5.309364 5.61718,-10.609376 -2.13152,-4.371633 -6.50056,-7.116613 -13.21093,-8.304689 -1.90971,-0.33812 -4.42891,-0.445036 -7,-0.34376 z M 51.38281,60.21165 c -5.244712,0.14944 -7.094444,0.857432 -6.281248,2.39844 0.941636,1.784396 4.926344,1.95942 12.054684,0.523436 4.403764,-0.887128 5.532512,-1.243404 5.156252,-1.625 -0.13944,-0.1414 -1.752408,-0.5123 -3.585936,-0.828124 C 56.03285,60.21641 54.62615,60.11925 51.38281,60.21165 Z m 89.29688,4.984376 c -3.94005,-0.12888 -8.68705,0.560704 -8.09375,1.171877 0.0714,0.07356 1.44608,0.32144 3.0625,0.554688 1.61642,0.23324 3.24153,0.471504 3.60937,0.531248 0.36784,0.05976 2.15553,0.1278 3.96875,0.14844 2.964,0.034 3.28931,-0.0184 3.21094,-0.4375 -0.048,-0.25644 -0.6905,-0.776348 -1.42188,-1.164065 -1.14478,-0.606884 -1.74496,-0.719964 -4.33593,-0.804688 z m -12.94531,3.781253 c -0.50429,0 -0.6929,0.17216 -0.8125,0.72656 -0.39332,1.823204 -1.07366,3.172264 -2.09376,4.156252 -2.52164,2.43238 -6.33516,2.282952 -11.64062,-0.46094 l -2.58594,-1.335936 -1.71875,1.835936 c -3.61773,3.875584 -8.56837,5.180008 -12.367187,3.257812 -1.2788,-0.647068 -2.296572,-2.255928 -2.671872,-4.218748 -0.14724,-0.770092 -0.26564,-1.43948 -0.26564,-1.492188 0,-0.3352 -0.765456,0.0228 -1.453124,0.679688 -2.288216,2.185968 -6.302868,3.79972 -9.445312,3.796876 -3.0951,-0.0028 -4.65418,-0.994456 -5.757812,-3.656252 -0.2692,-0.649232 -0.577368,-1.179144 -0.679688,-1.179688 -0.10228,-5.28e-4 -0.731044,0.36576 -1.398436,0.8125 -3.2927,2.204076 -7.822717,2.45834 -9.546877,0.539064 -1.011892,-1.126404 -1.491328,-0.610192 -1.5,1.632812 -0.0088,2.281512 -0.466032,4.771624 -2.117188,11.515624 -0.86978,3.552536 -2.184172,9.361528 -2.929688,12.914064 -0.74552,3.552545 -2.183956,9.904335 -3.1875,14.109375 -3.023688,12.6698 -3.591676,16.23089 -3.5625,22.27344 0.0336,7.0021 1.167912,10.09555 5.125,13.98437 1.9947,1.96029 2.693324,2.44969 5.351564,3.75 3.46608,1.69549 6.312596,2.57872 11.296873,3.48438 10.077148,1.83104 31.048347,2.52735 37.023437,1.23437 3.30444,-0.71506 5.61845,-1.48539 8.13282,-2.71875 6.4885,-3.18277 10.10072,-7.35437 11.99218,-13.82812 0.7032,-2.40676 1.21684,-6.97205 1.03906,-9.20313 -0.0578,-0.72501 -0.23356,-2.97779 -0.39064,-5.00781 -0.15712,-2.03002 -0.69476,-7.77869 -1.19531,-12.78125 -1.41927,-14.184511 -2.01627,-22.474991 -2.51562,-34.937499 -0.1278,-3.190032 -0.30712,-6.25542 -0.40625,-6.8125 -0.14332,-0.805012 -0.0651,-1.164752 0.3828,-1.765628 0.73472,-0.985656 0.70563,-1.304684 -0.10156,-1.304684 z m -22.45313,14.640624 c 2.86739,-0.016 4.96337,1.565912 6.24219,4.703124 0.43083,1.056936 0.56031,1.958176 0.57031,4.125 0.012,2.614376 -0.04,2.87536 -0.86719,4.531252 -1.01195,2.025724 -2.95616,3.912261 -5.00781,4.859371 -1.50205,0.6934 -2.56162,0.7603 -3.75,0.25 -1.18525,-0.50895 -2.44905,-2.0669 -2.960939,-3.648435 -0.679224,-2.098548 -0.811824,-6.570948 -0.25,-8.656252 0.25128,-0.932624 0.577832,-2.169988 0.718752,-2.75 0.507617,-2.08952 2.543827,-3.39846 5.304687,-3.41406 z m -18.812499,0.601564 c 1.484632,0.27448 4.1017,2.969644 4.882812,5.023436 1.30756,3.438 0.28884,7.677804 -2.570316,10.703124 -1.895156,2.005303 -3.394396,2.501303 -5.031248,1.664063 -1.32044,-0.67539 -2.179712,-1.653595 -2.960936,-3.367187 -1.163748,-2.552648 -1.045364,-6.096364 0.35156,-10.546876 0.782712,-2.493656 2.953424,-3.915588 5.328128,-3.47656 z m 17.640629,2.703124 c -0.66021,-0.0352 -1.25846,0.06748 -1.60938,0.32032 -0.89708,0.646436 -1.62563,5.496216 -0.97656,6.507812 0.21108,0.32896 0.37012,0.28232 1,-0.29688 1.07515,-0.988668 1.85681,-1.324948 3.11718,-1.343748 1.4622,-0.0216 2.62668,0.601548 3.25,1.742188 0.53802,0.9845 0.9375,1.026284 0.9375,0.10156 0,-2.266832 -1.91238,-5.599608 -3.73437,-6.515624 -0.60408,-0.30372 -1.32417,-0.480424 -1.98437,-0.515628 z m -19.984381,0.60156 c -0.89718,0 -1.257828,0.86922 -1.492188,3.601564 -0.23008,2.68246 -0.13592,2.81236 1.414064,2.039064 0.697352,-0.34792 1.642624,-0.632816 2.10156,-0.632816 0.458932,0 1.302156,0.23564 1.875,0.52344 0.572836,0.2878 1.091772,0.47762 1.156252,0.414064 0.28836,-0.28416 -0.29676,-2.021016 -1.070312,-3.171876 -0.954652,-1.42034 -2.89544,-2.77344 -3.984376,-2.77344 z m -7.242188,41.617189 c 0.29128,-0.048 0.518788,0.012 0.867188,0.15624 0.425176,0.1762 1.059864,0.75379 1.414064,1.28125 1.40948,2.09895 0.998616,5.18236 -0.968752,7.23437 -1.016732,1.0605 -1.181864,1.13094 -2.632812,1.23438 -1.526356,0.1088 -1.5588,0.0986 -2.554688,-0.88281 -0.949356,-0.93557 -1.010128,-1.08151 -1.007812,-2.45312 0.0018,-1.02731 0.184,-1.84767 0.625,-2.78125 0.891924,-1.88811 1.477512,-2.52056 3.007812,-3.28125 0.607604,-0.302 0.95868,-0.45977 1.25,-0.50781 z m 24.195309,0.85938 1.94532,0.1172 c 4.1827,0.25092 5.7856,2.33559 4.51562,5.88281 -1.21062,3.38146 -4.94038,6.36083 -7.46875,5.96875 -1.727995,-0.26796 -2.884451,-3.16624 -2.507811,-6.26563 0.23172,-1.907 0.580068,-2.58797 2.226564,-4.33593 z m -25.609369,2.20312 c -0.17512,0.0554 -0.54126,0.5022 -0.812504,0.99219 -0.415916,0.75135 -0.444056,0.99204 -0.18748,1.54687 0.16728,0.36184 0.674252,0.81474 1.125,1.00782 1.019776,0.4368 1.267356,0.44587 1.648436,0.0703 0.621992,-0.61296 0.36096,-1.93379 -0.570312,-2.85156 -0.48378,-0.47678 -1.028004,-0.82099 -1.203124,-0.76563 z m 24.921869,1.66406 -0.0938,0.99219 c -0.0523,0.54241 0.0475,1.46534 0.22656,2.05469 0.53894,1.77376 2.07879,1.88089 3.79688,0.26564 1.75099,-1.64618 0.58588,-3.29629 -2.33594,-3.30469 z"
     id="path8" />
  <path
     id="path10"
     style="opacity:0.1;fill:#ffffff;stroke-width:4"
     d="M 81.734375 14.015625 C 80.694587 13.975495 79.661997 14.00803 78.632812 14.09375 C 75.862897 14.324483 73.119961 15.045348 70.453125 16.320312 C 60.736196 20.965809 57.643871 25.739735 54.617188 34.492188 C 53.613872 34.355787 52.676302 33.993043 51.65625 33.898438 C 50.028782 33.747493 48.394204 33.669796 46.75 33.6875 C 41.05528 33.74872 35.37043 34.809182 29.984375 37.804688 C 24.598319 40.800196 19.586703 46.305228 17.632812 52.992188 C 16.441456 57.069465 16.027924 59.338751 16.113281 61.574219 C 16.174182 59.622595 16.613636 57.480198 17.632812 53.992188 C 19.586703 47.305228 24.598319 41.800196 29.984375 38.804688 C 35.37043 35.809181 41.05528 34.74872 46.75 34.6875 C 48.394204 34.669796 50.028782 34.747493 51.65625 34.898438 C 52.676302 34.993043 53.613872 35.355787 54.617188 35.492188 C 57.643871 26.739734 60.736196 21.965809 70.453125 17.320312 C 73.119961 16.045348 75.862897 15.324483 78.632812 15.09375 C 79.661997 15.00803 80.694587 14.975495 81.734375 15.015625 C 84.853743 15.136014 88.037588 15.910674 91.382812 17.84375 C 95.013241 19.941634 98.356298 24.843566 99.71875 30.375 C 99.682307 29.99285 99.571422 29.767601 99.658203 29.166016 C 98.263419 23.721619 94.966785 18.914789 91.382812 16.84375 C 88.037588 14.910674 84.853743 14.136014 81.734375 14.015625 z M 115.39062 15.085938 C 113.8803 15.155978 111.97292 15.298226 109.20312 16.507812 C 106.4334 17.717398 102.32485 20.775516 100.4375 25.632812 C 99.434387 28.214207 99.566532 28.622528 99.669922 29.107422 C 99.746472 28.624582 99.931007 27.936213 100.4375 26.632812 C 102.32485 21.775517 106.4334 18.717398 109.20312 17.507812 C 111.97292 16.298226 113.8803 16.155977 115.39062 16.085938 C 125.46658 15.712469 138.24269 23.503213 143.47656 37.0625 C 144.06025 39.184145 143.88615 41.262955 143.96875 43.359375 C 145.51623 43.448175 146.99132 43.320388 148.66406 43.617188 C 158.33649 45.333356 168.65542 50.916066 173.39062 60.648438 C 174.81224 63.570266 175.87752 67.410358 175.95312 71.484375 C 176.05357 67.040583 174.92828 62.808763 173.39062 59.648438 C 168.65542 49.916066 158.33649 44.333356 148.66406 42.617188 C 146.99132 42.320388 145.51623 42.448175 143.96875 42.359375 C 143.88615 40.262955 144.06025 38.184145 143.47656 36.0625 C 138.24269 22.503213 125.46658 14.712469 115.39062 15.085938 z M 99.669922 33.107422 C 99.66727 33.124151 99.660526 33.149909 99.658203 33.166016 C 99.676282 33.236587 99.701316 33.304218 99.71875 33.375 C 99.708946 33.272165 99.6881 33.192682 99.669922 33.107422 z M 43.9375 93.695312 C 43.83318 94.160217 43.695975 94.73493 43.609375 95.148438 C 42.928263 98.400993 41.480886 104.80768 40.523438 108.82812 C 37.457116 121.704 36.505005 127.79062 36.539062 134.85938 C 36.539353 134.92022 36.5489 134.98523 36.550781 135.04688 C 36.593191 128.31422 37.57602 122.20471 40.523438 109.82812 C 41.480886 105.80768 42.928263 99.400993 43.609375 96.148438 C 43.695975 95.734929 43.83318 95.160217 43.9375 94.695312 C 44.153248 94.707523 44.382166 94.730172 44.605469 94.748047 C 44.685105 94.400193 44.750319 94.11386 44.828125 93.765625 C 44.542005 93.752025 44.225164 93.711592 43.9375 93.695312 z M 145.17188 97.789062 C 145.19478 98.121614 145.21276 98.460839 145.23438 98.791016 C 145.2969 98.792886 145.3597 98.793275 145.42188 98.796875 C 145.67598 103.0333 145.91668 107.36093 146.49219 113.125 C 146.99906 118.2016 147.52487 123.7474 147.71875 126.25781 C 147.87479 128.27825 148.05607 130.54817 148.10938 131.21875 C 148.19476 132.29292 148.23005 133.23057 148.24609 134.12695 C 148.2542 132.95219 148.22753 131.70516 148.10938 130.21875 C 148.05607 129.54817 147.87479 127.27825 147.71875 125.25781 C 147.52487 122.7474 146.99906 117.2016 146.49219 112.125 C 145.91668 106.36093 145.67598 102.0333 145.42188 97.796875 C 145.33898 97.792075 145.25467 97.794362 145.17188 97.789062 z " />
</svg>
