<svg xmlns="http://www.w3.org/2000/svg" width="192" height="192" version="1">
 <g transform="scale(4)">
  <rect style="fill:#3f3f3f" width="40" height="40" x="-44" y="-44" rx="2" ry="2" transform="matrix(0,-1,-1,0,0,0)"/>
  <path fill="#fff" style="opacity:0.1" d="m6 4c-1.108 0-2 0.892-2 2v1c0-1.108 0.892-2 2-2h36c1.108 0 2 0.892 2 2v-1c0-1.108-0.892-2-2-2h-36z"/>
  <path opacity=".2" d="m6 45c-1.108 0-2-0.892-2-2v-1c0 1.108 0.892 2 2 2h36c1.108 0 2-0.892 2-2v1c0 1.108-0.892 2-2 2h-36z"/>
  <path style="opacity:0.3" d="m42 33a9.0000001 8.9999999 0 0 1-9 9 9.0000001 8.9999999 0 0 1-9-9 9.0000001 8.9999999 0 0 1 9-9 9.0000001 8.9999999 0 0 1 9 9z"/>
  <path style="opacity:0.2" d="m40.000001 34a7.0000001 6.9999999 0 0 1-7 7 7.0000001 6.9999999 0 0 1-7-7 7.0000001 6.9999999 0 0 1 7-7 7.0000001 6.9999999 0 0 1 7 7z"/>
  <path style="fill:#4f4f4f" d="m39.062179 36.5a7.0000001 6.9999999 30 0 1-9.562178 2.562178 7.0000001 6.9999999 30 0 1-2.562178-9.562178 7.0000001 6.9999999 30 0 1 9.562178-2.562178 7.0000001 6.9999999 30 0 1 2.562178 9.562178z"/>
  <path style="fill:#ffffff;opacity:0.1" d="M 32.669922,26.007812 A 7.0000001,6.9999999 30 0 0 26.9375,29.5 7.0000001,6.9999999 30 0 0 26.023438,33.494141 7.0000001,6.9999999 30 0 1 26.9375,30.5 7.0000001,6.9999999 30 0 1 36.5,27.9375 7.0000001,6.9999999 30 0 1 39.976562,33.505859 7.0000001,6.9999999 30 0 0 36.5,26.9375 7.0000001,6.9999999 30 0 0 32.669922,26.007812 Z"/>
  <rect style="fill:#ffe172" width="2" height="6" x="44.08" y="4.08" rx="1" ry="1" transform="rotate(30)"/>
  <path style="fill:#ffe172" d="m19.000001 25.000001h-13.246688c-0.417335 0-0.753312-0.355016-0.753312-0.796v-0.408c0-0.440984 0.335977-0.796 0.753312-0.796h13.246688z"/>
  <circle style="opacity:0.2" cx="19" cy="25" r="3"/>
  <circle style="fill:#4f4f4f" cx="19" cy="24" r="3"/>
  <path style="fill:#ffe172" d="m19.000001 37.000001h-13.246688c-0.417335 0-0.753312-0.355016-0.753312-0.796v-0.408c0-0.440984 0.335977-0.796 0.753312-0.796h13.246688z"/>
  <circle style="opacity:0.2" cx="19" cy="37" r="3"/>
  <circle style="fill:#4f4f4f" cx="19" cy="36" r="3"/>
  <path style="fill:#ffe172" d="m19.000001 13.000001h-13.246688c-0.417335 0-0.753312-0.355016-0.753312-0.796v-0.408c0-0.440984 0.335977-0.796 0.753312-0.796h13.246688z"/>
  <circle style="opacity:0.2" cx="19" cy="13" r="3"/>
  <circle style="fill:#4f4f4f" cx="19" cy="12" r="3"/>
  <path style="fill:#ffffff;opacity:0.1" d="M 19 21 A 3 3 0 0 0 16 24 A 3 3 0 0 0 16.042969 24.513672 A 3 3 0 0 1 19 22 A 3 3 0 0 1 21.957031 24.486328 A 3 3 0 0 0 22 24 A 3 3 0 0 0 19 21 z"/>
  <path style="fill:#ffffff;opacity:0.1" d="M 19 33 A 3 3 0 0 0 16 36 A 3 3 0 0 0 16.042969 36.513672 A 3 3 0 0 1 19 34 A 3 3 0 0 1 21.957031 36.486328 A 3 3 0 0 0 22 36 A 3 3 0 0 0 19 33 z"/>
  <path style="fill:#ffffff;opacity:0.1" d="M 19 9 A 3 3 0 0 0 16 12 A 3 3 0 0 0 16.042969 12.513672 A 3 3 0 0 1 19 10 A 3 3 0 0 1 21.957031 12.486328 A 3 3 0 0 0 22 12 A 3 3 0 0 0 19 9 z"/>
  <rect style="opacity:0.3" width="18" height="8" x="24" y="8" rx="4" ry="3.556"/>
  <circle style="opacity:0.2" cx="38" cy="13" r="4"/>
  <circle style="fill:#4f4f4f" cx="38" cy="12" r="4"/>
  <path style="fill:#ffffff;opacity:0.1" d="M 38 8 A 4 4 0 0 0 34 12 A 4 4 0 0 0 34.035156 12.494141 A 4 4 0 0 1 38 9 A 4 4 0 0 1 41.964844 12.505859 A 4 4 0 0 0 42 12 A 4 4 0 0 0 38 8 z"/>
 </g>
</svg>
