<?xml version="1.0" encoding="UTF-8" standalone="no"?>
<svg
   width="192"
   height="192"
   version="1"
   id="svg28"
   sodipodi:docname="apps_untappd.svg"
   inkscape:version="1.1.1 (1:1.1+202109281949+c3084ef5ed)"
   xmlns:inkscape="http://www.inkscape.org/namespaces/inkscape"
   xmlns:sodipodi="http://sodipodi.sourceforge.net/DTD/sodipodi-0.dtd"
   xmlns="http://www.w3.org/2000/svg"
   xmlns:svg="http://www.w3.org/2000/svg"
   xmlns:rdf="http://www.w3.org/1999/02/22-rdf-syntax-ns#"
   xmlns:cc="http://creativecommons.org/ns#"
   xmlns:dc="http://purl.org/dc/elements/1.1/">
  <metadata
     id="metadata34">
    <rdf:RDF>
      <cc:Work
         rdf:about="">
        <dc:format>image/svg+xml</dc:format>
        <dc:type
           rdf:resource="http://purl.org/dc/dcmitype/StillImage" />
      </cc:Work>
    </rdf:RDF>
  </metadata>
  <defs
     id="defs32">
    <filter
       inkscape:collect="always"
       style="color-interpolation-filters:sRGB"
       id="filter24848"
       x="-0.075825359"
       y="-0.074192415"
       width="1.1516507"
       height="1.1483848">
      <feGaussianBlur
         inkscape:collect="always"
         stdDeviation="3.7596741"
         id="feGaussianBlur24850" />
    </filter>
    <filter
       inkscape:collect="always"
       style="color-interpolation-filters:sRGB"
       id="filter24890"
       x="-0.065001923"
       y="-0.090237963"
       width="1.1300038"
       height="1.1804759">
      <feGaussianBlur
         inkscape:collect="always"
         stdDeviation="3.1959278"
         id="feGaussianBlur24892" />
    </filter>
  </defs>
  <sodipodi:namedview
     pagecolor="#b4b4b4"
     bordercolor="#666666"
     borderopacity="1"
     objecttolerance="10"
     gridtolerance="10"
     guidetolerance="10"
     inkscape:pageopacity="0"
     inkscape:pageshadow="2"
     inkscape:window-width="1920"
     inkscape:window-height="1019"
     id="namedview30"
     showgrid="false"
     inkscape:zoom="1.88"
     inkscape:cx="134.04255"
     inkscape:cy="122.07447"
     inkscape:window-x="0"
     inkscape:window-y="34"
     inkscape:window-maximized="1"
     inkscape:current-layer="svg28"
     inkscape:pagecheckerboard="0"
     inkscape:snap-global="true"
     showguides="true"
     inkscape:snap-bbox="true"
     inkscape:snap-bbox-midpoints="true">
    <inkscape:grid
       type="xygrid"
       id="grid841" />
  </sodipodi:namedview>
  <path
     id="path24810"
     style="opacity:0.2;mix-blend-mode:normal;fill:#000000;fill-opacity:1;stroke-width:38.0643;stroke-linecap:round;stroke-linejoin:round;filter:url(#filter24848)"
     d="m 63,56.380649 c -5.54,0 -10,4.46 -10,10 V 167.99979 c 0,5.54 4.46,10 10,10 h 71 c 5.54,0 10,-4.46 10,-10 v -6 h 17.51953 c 5.8065,0 10.48047,-4.67397 10.48047,-10.48047 V 96.480259 C 172,90.673765 167.32603,85.99979 161.51953,85.99979 H 144 V 66.380649 c 0,-5.54 -4.46,-10 -10,-10 z m 81,41.619141 h 8.55273 c 4.12567,0 7.44727,3.32159 7.44727,7.44727 v 37.10546 c 0,4.12568 -3.3216,7.44727 -7.44727,7.44727 H 144 Z" />
  <path
     id="rect1390"
     style="opacity:1;fill:#d7e5f2;stroke-width:38.0643;stroke-linecap:round;stroke-linejoin:round;fill-opacity:1"
     d="M 63 54.380859 C 57.46 54.380859 53 58.840859 53 64.380859 L 53 166 C 53 171.54 57.46 176 63 176 L 134 176 C 139.54 176 144 171.54 144 166 L 144 160 L 161.51953 160 C 167.32603 160 172 155.32603 172 149.51953 L 172 94.480469 C 172 88.673975 167.32603 84 161.51953 84 L 144 84 L 144 64.380859 C 144 58.840859 139.54 54.380859 134 54.380859 L 63 54.380859 z M 144 96 L 152.55273 96 C 156.6784 96 160 99.32159 160 103.44727 L 160 140.55273 C 160 144.67841 156.6784 148 152.55273 148 L 144 148 L 144 96 z " />
  <path
     id="path29791"
     style="opacity:0.2;fill:#ffffff;stroke-width:38.0643;stroke-linecap:round;stroke-linejoin:round;fill-opacity:1"
     d="M 63 54.380859 C 57.46 54.380859 53 58.840859 53 64.380859 L 53 65.380859 C 53 59.840859 57.46 55.380859 63 55.380859 L 134 55.380859 C 139.54 55.380859 144 59.840859 144 65.380859 L 144 64.380859 C 144 58.840859 139.54 54.380859 134 54.380859 L 63 54.380859 z M 144 84 L 144 85 L 161.51953 85 C 167.32603 85 172 89.673975 172 95.480469 L 172 94.480469 C 172 88.673975 167.32603 84 161.51953 84 L 144 84 z M 160 140.55273 C 160 144.67841 156.6784 148 152.55273 148 L 144 148 L 144 149 L 152.55273 149 C 156.6784 149 160 145.67841 160 141.55273 L 160 140.55273 z " />
  <path
     style="color:#000000;opacity:1;fill:#ab6d0b;fill-opacity:1;stroke-linecap:round;stroke-linejoin:round;-inkscape-stroke:none"
     d="m 63,64.380226 h 71 V 166 H 63 Z"
     id="path1743"
     sodipodi:nodetypes="ccccc" />
  <path
     id="path24852"
     style="opacity:0.2;fill:#000000;stroke-width:38;stroke-linecap:round;stroke-linejoin:round;filter:url(#filter24890)"
     d="M 116,18 A 14,14 0 0 0 103.25391,26.214844 10,10 0 0 0 94,20 10,10 0 0 0 84.232422,27.974609 16.5,16.5 0 0 0 73.5,24 16.5,16.5 0 0 0 57.001953,40.462891 10,10 0 0 0 54,40 10,10 0 0 0 44,50 10,10 0 0 0 46.136719,56.138672 13.865257,13.865257 0 0 0 37,69.134766 13.865257,13.865257 0 0 0 50.865234,83 13.865257,13.865257 0 0 0 60.478516,79.080078 11.5,11.5 0 0 0 70.5,85 11.5,11.5 0 0 0 82,73.5 11.5,11.5 0 0 0 81.990234,73.095703 10,10 0 0 0 82,73.103516 V 73.5 96 a 7,7 0 0 0 7,7 7,7 0 0 0 7,-7 V 73.546875 A 12,12 0 0 0 106,79 12,12 0 0 0 116.98438,71.802734 8,8 0 0 0 124,76 8,8 0 0 0 130.28711,72.916016 11.5,11.5 0 0 0 141.5,82 11.5,11.5 0 0 0 153,70.5 11.5,11.5 0 0 0 150.88672,63.861328 14,14 0 0 0 155,54 14,14 0 0 0 141,40 14,14 0 0 0 139.99023,40.072266 8.5,8.5 0 0 0 131.5,32 8.5,8.5 0 0 0 129.98828,32.152344 14,14 0 0 0 130,32 14,14 0 0 0 116,18 Z" />
  <path
     id="path1325"
     style="opacity:1;fill:#f8ddb1;stroke-width:38;stroke-linecap:round;stroke-linejoin:round;fill-opacity:1"
     d="M 116 16 A 14 14 0 0 0 103.25391 24.214844 A 10 10 0 0 0 94 18 A 10 10 0 0 0 84.232422 25.974609 A 16.5 16.5 0 0 0 73.5 22 A 16.5 16.5 0 0 0 57.001953 38.462891 A 10 10 0 0 0 54 38 A 10 10 0 0 0 44 48 A 10 10 0 0 0 46.136719 54.138672 A 13.865257 13.865257 0 0 0 37 67.134766 A 13.865257 13.865257 0 0 0 50.865234 81 A 13.865257 13.865257 0 0 0 60.478516 77.080078 A 11.5 11.5 0 0 0 70.5 83 A 11.5 11.5 0 0 0 82 71.5 A 11.5 11.5 0 0 0 81.990234 71.095703 A 10 10 0 0 0 82 71.103516 L 82 71.5 L 82 94 A 7 7 0 0 0 89 101 A 7 7 0 0 0 96 94 L 96 71.546875 A 12 12 0 0 0 106 77 A 12 12 0 0 0 116.98438 69.802734 A 8 8 0 0 0 124 74 A 8 8 0 0 0 130.28711 70.916016 A 11.5 11.5 0 0 0 141.5 80 A 11.5 11.5 0 0 0 153 68.5 A 11.5 11.5 0 0 0 150.88672 61.861328 A 14 14 0 0 0 155 52 A 14 14 0 0 0 141 38 A 14 14 0 0 0 139.99023 38.072266 A 8.5 8.5 0 0 0 131.5 30 A 8.5 8.5 0 0 0 129.98828 30.152344 A 14 14 0 0 0 130 30 A 14 14 0 0 0 116 16 z " />
  <circle
     style="opacity:0.2;fill:#ffffff;fill-opacity:1;stroke:none;stroke-width:19.5838;stroke-linecap:round;stroke-linejoin:round;stroke-miterlimit:4;stroke-dasharray:none;stroke-opacity:1"
     id="path23271"
     cx="112.5"
     cy="133.5"
     r="3.5" />
  <circle
     style="opacity:0.2;fill:#ffffff;fill-opacity:1;stroke:none;stroke-width:13.9884;stroke-linecap:round;stroke-linejoin:round;stroke-miterlimit:4;stroke-dasharray:none;stroke-opacity:1"
     id="circle23375"
     cx="95.5"
     cy="122.5"
     r="2.5" />
  <circle
     style="opacity:0.2;fill:#ffffff;fill-opacity:1;stroke:none;stroke-width:11.1907;stroke-linecap:round;stroke-linejoin:round;stroke-miterlimit:4;stroke-dasharray:none;stroke-opacity:1"
     id="circle23377"
     cx="111"
     cy="105"
     r="2" />
  <circle
     style="opacity:0.2;fill:#ffffff;fill-opacity:1;stroke:none;stroke-width:8.39305;stroke-linecap:round;stroke-linejoin:round;stroke-miterlimit:4;stroke-dasharray:none;stroke-opacity:1"
     id="circle23379"
     cx="81.5"
     cy="100.5"
     r="1.5" />
  <circle
     style="opacity:0.2;fill:#ffffff;fill-opacity:1;stroke:none;stroke-width:19.5838;stroke-linecap:round;stroke-linejoin:round;stroke-miterlimit:4;stroke-dasharray:none;stroke-opacity:1"
     id="circle23381"
     cx="77.5"
     cy="146.5"
     r="3.5" />
  <circle
     style="opacity:0.2;fill:#ffffff;fill-opacity:1;stroke:none;stroke-width:13.9884;stroke-linecap:round;stroke-linejoin:round;stroke-miterlimit:4;stroke-dasharray:none;stroke-opacity:1"
     id="circle23383"
     cx="124.5"
     cy="150.5"
     r="2.5" />
  <circle
     style="opacity:0.2;fill:#ffffff;fill-opacity:1;stroke:none;stroke-width:19.5838;stroke-linecap:round;stroke-linejoin:round;stroke-miterlimit:4;stroke-dasharray:none;stroke-opacity:1"
     id="circle23385"
     cx="95.5"
     cy="153.5"
     r="3.5" />
  <circle
     style="opacity:0.3;fill:#ffffff;fill-opacity:1;stroke:none;stroke-width:12.5448;stroke-linecap:round;stroke-linejoin:round;stroke-miterlimit:4;stroke-dasharray:none;stroke-opacity:1"
     id="path24996"
     cx="59"
     cy="64"
     r="10" />
  <circle
     style="opacity:0.3;fill:#ffffff;fill-opacity:1;stroke:none;stroke-width:8.78136;stroke-linecap:round;stroke-linejoin:round;stroke-miterlimit:4;stroke-dasharray:none;stroke-opacity:1"
     id="circle25100"
     cx="91"
     cy="36"
     r="7" />
  <circle
     style="opacity:0.3;fill:#ffffff;fill-opacity:1;stroke:none;stroke-width:13.172;stroke-linecap:round;stroke-linejoin:round;stroke-miterlimit:4;stroke-dasharray:none;stroke-opacity:1"
     id="circle25102"
     cx="133.5"
     cy="53.5"
     r="10.5" />
  <circle
     style="opacity:0.3;fill:#ffffff;fill-opacity:1;stroke:none;stroke-width:11.9175;stroke-linecap:round;stroke-linejoin:round;stroke-miterlimit:4;stroke-dasharray:none;stroke-opacity:1"
     id="circle25104"
     cx="106.5"
     cy="56.5"
     r="9.5" />
  <circle
     style="opacity:0.3;fill:#ffffff;fill-opacity:1;stroke:none;stroke-width:5.01792;stroke-linecap:round;stroke-linejoin:round;stroke-miterlimit:4;stroke-dasharray:none;stroke-opacity:1"
     id="circle25106"
     cx="85"
     cy="60"
     r="4" />
  <circle
     style="opacity:0.3;fill:#ffffff;fill-opacity:1;stroke:none;stroke-width:5.64516;stroke-linecap:round;stroke-linejoin:round;stroke-miterlimit:4;stroke-dasharray:none;stroke-opacity:1"
     id="circle25108"
     cx="69.5"
     cy="42.5"
     r="4.5" />
  <circle
     style="opacity:0.3;fill:#ffffff;fill-opacity:1;stroke:none;stroke-width:6.89964;stroke-linecap:round;stroke-linejoin:round;stroke-miterlimit:4;stroke-dasharray:none;stroke-opacity:1"
     id="circle25110"
     cx="113.5"
     cy="28.5"
     r="5.5" />
  <path
     id="path864"
     style="opacity:0.2;fill:#ffffff;stroke-width:38;stroke-linecap:round;stroke-linejoin:round;fill-opacity:1"
     d="M 116 16 A 14 14 0 0 0 103.25391 24.214844 A 10 10 0 0 0 94 18 A 10 10 0 0 0 84.232422 25.974609 A 16.5 16.5 0 0 0 73.5 22 A 16.5 16.5 0 0 0 57.001953 38.462891 A 10 10 0 0 0 54 38 A 10 10 0 0 0 44 48 A 10 10 0 0 0 44.082031 48.480469 A 10 10 0 0 1 54 39 A 10 10 0 0 1 57.001953 39.462891 A 16.5 16.5 0 0 1 73.5 23 A 16.5 16.5 0 0 1 84.232422 26.974609 A 10 10 0 0 1 94 19 A 10 10 0 0 1 103.25391 25.214844 A 14 14 0 0 1 116 17 A 14 14 0 0 1 130 31 A 14 14 0 0 1 129.98828 31.152344 A 8.5 8.5 0 0 1 131.5 31 A 8.5 8.5 0 0 1 139.99023 39.072266 A 14 14 0 0 1 141 39 A 14 14 0 0 1 154.96484 52.257812 A 14 14 0 0 0 155 52 A 14 14 0 0 0 141 38 A 14 14 0 0 0 139.99023 38.072266 A 8.5 8.5 0 0 0 131.5 30 A 8.5 8.5 0 0 0 129.98828 30.152344 A 14 14 0 0 0 130 30 A 14 14 0 0 0 116 16 z M 45.708984 54.355469 A 13.865257 13.865257 0 0 0 37 67.134766 A 13.865257 13.865257 0 0 0 37.064453 67.623047 A 13.865257 13.865257 0 0 1 46.136719 55.138672 A 10 10 0 0 1 45.708984 54.355469 z M 151.18945 62.46875 A 14 14 0 0 1 150.88672 62.861328 A 11.5 11.5 0 0 1 152.92188 68.996094 A 11.5 11.5 0 0 0 153 68.5 A 11.5 11.5 0 0 0 151.18945 62.46875 z " />
</svg>
