<?xml version="1.0" encoding="UTF-8" standalone="no"?>
<svg
   width="192"
   height="192"
   version="1"
   id="svg28"
   sodipodi:docname="apps_camera_zoom_fx.svg"
   inkscape:version="1.1.1 (1:1.1+202109281949+c3084ef5ed)"
   xmlns:inkscape="http://www.inkscape.org/namespaces/inkscape"
   xmlns:sodipodi="http://sodipodi.sourceforge.net/DTD/sodipodi-0.dtd"
   xmlns="http://www.w3.org/2000/svg"
   xmlns:svg="http://www.w3.org/2000/svg"
   xmlns:rdf="http://www.w3.org/1999/02/22-rdf-syntax-ns#"
   xmlns:cc="http://creativecommons.org/ns#"
   xmlns:dc="http://purl.org/dc/elements/1.1/">
  <metadata
     id="metadata34">
    <rdf:RDF>
      <cc:Work
         rdf:about="">
        <dc:format>image/svg+xml</dc:format>
        <dc:type
           rdf:resource="http://purl.org/dc/dcmitype/StillImage" />
      </cc:Work>
    </rdf:RDF>
  </metadata>
  <defs
     id="defs32">
    <filter
       inkscape:collect="always"
       style="color-interpolation-filters:sRGB"
       id="filter2627"
       x="-0.048000001"
       y="-0.048000001"
       width="1.096"
       height="1.096">
      <feGaussianBlur
         inkscape:collect="always"
         stdDeviation="3.2"
         id="feGaussianBlur2629" />
    </filter>
    <filter
       inkscape:collect="always"
       style="color-interpolation-filters:sRGB"
       id="filter6255"
       x="-0.048304631"
       y="-0.048304631"
       width="1.0966093"
       height="1.0966093">
      <feGaussianBlur
         inkscape:collect="always"
         stdDeviation="1.8114237"
         id="feGaussianBlur6257" />
    </filter>
    <filter
       inkscape:collect="always"
       style="color-interpolation-filters:sRGB"
       id="filter6297"
       x="-0.048"
       y="-0.048"
       width="1.096"
       height="1.096">
      <feGaussianBlur
         inkscape:collect="always"
         stdDeviation="2.24"
         id="feGaussianBlur6299" />
    </filter>
  </defs>
  <sodipodi:namedview
     pagecolor="#ffffff"
     bordercolor="#666666"
     borderopacity="1"
     objecttolerance="10"
     gridtolerance="10"
     guidetolerance="10"
     inkscape:pageopacity="0"
     inkscape:pageshadow="2"
     inkscape:window-width="1920"
     inkscape:window-height="1019"
     id="namedview30"
     showgrid="false"
     inkscape:zoom="1"
     inkscape:cx="165.5"
     inkscape:cy="89.5"
     inkscape:window-x="0"
     inkscape:window-y="34"
     inkscape:window-maximized="1"
     inkscape:current-layer="svg28"
     inkscape:pagecheckerboard="0">
    <inkscape:grid
       type="xygrid"
       id="grid841" />
  </sodipodi:namedview>
  <rect
     id="rect2587"
     transform="matrix(0,-1,-1,0,0,0)"
     ry="24.000002"
     rx="24.000002"
     y="-176"
     x="-180"
     height="160"
     width="160"
     style="opacity:0.2;fill:#000000;fill-opacity:1;stroke-width:4;filter:url(#filter2627)" />
  <rect
     id="rect2"
     transform="matrix(0,-1,-1,0,0,0)"
     ry="24.000002"
     rx="24.000002"
     y="-176"
     x="-176"
     height="160"
     width="160"
     style="fill:#3f3f3f;fill-opacity:1;stroke-width:4" />
  <circle
     style="opacity:0.2;fill:#000000;fill-opacity:1;stroke-width:31.988;stroke-linecap:round;stroke-linejoin:round;filter:url(#filter6297)"
     id="circle6259"
     cx="96"
     cy="99"
     r="56" />
  <circle
     style="fill:#747474;fill-opacity:1;stroke-width:31.988;stroke-linecap:round;stroke-linejoin:round"
     id="path5442"
     cx="96"
     cy="96"
     r="56" />
  <path
     id="circle6198"
     style="opacity:0.2;fill:#000000;stroke-width:12;stroke-linecap:round;stroke-linejoin:round;filter:url(#filter6255)"
     d="M 96,53 A 45,45 0 0 0 67.925781,62.949219 45,45 0 0 0 51,98 45,45 0 0 0 52.023438,107 45,45 0 0 0 80.228516,140.02344 45,45 0 0 0 96,143 45,45 0 0 0 124.17383,132.97656 45,45 0 0 0 141,98 45,45 0 0 0 140.08594,89 45,45 0 0 0 111.41406,55.728516 45,45 0 0 0 96,53 Z" />
  <path
     id="rect2715"
     style="opacity:0.1;fill:#ffffff;fill-opacity:1;stroke-width:4"
     d="M 40,16 C 26.703999,16 16,26.703999 16,40 v 1 C 16,27.703999 26.703999,17 40,17 h 112 c 13.296,0 24,10.703999 24,24 V 40 C 176,26.703999 165.296,16 152,16 Z" />
  <circle
     style="fill:#ffffff;stroke-width:12;stroke-linecap:round;stroke-linejoin:round"
     id="path1349"
     cx="96"
     cy="96"
     r="3.5714405" />
  <path
     id="rect1395"
     style="fill:#db6ded;fill-opacity:1;stroke-width:12;stroke-linecap:round;stroke-linejoin:round"
     d="M 96,51 A 45,45 0 0 0 67.925781,60.949219 L 81.121094,85.910156 96,96 100.11914,77.419922 111.41406,53.728516 A 45,45 0 0 0 96,51 Z" />
  <path
     id="rect2354"
     style="fill:#009aff;fill-opacity:1;stroke-width:12;stroke-linecap:round;stroke-linejoin:round"
     d="M 111.41406,53.728516 100.11914,77.419922 113.38867,87 h 26.69727 A 45,45 0 0 0 111.41406,53.728516 Z" />
  <path
     id="path2576"
     style="fill:#0b9b29;fill-opacity:1;stroke-width:12;stroke-linecap:round;stroke-linejoin:round"
     d="m 113.38867,87 -3.82226,18.63672 14.60742,25.33984 A 45,45 0 0 0 141,96 45,45 0 0 0 140.08594,87 Z" />
  <path
     id="path3037"
     style="fill:#fdea23;fill-opacity:1;stroke-width:12;stroke-linecap:round;stroke-linejoin:round"
     d="M 102.93164,99.832031 89.984375,115.45898 80.228516,138.02344 A 45,45 0 0 0 96,141 45,45 0 0 0 124.17383,130.97656 l -14.60742,-25.33984 z" />
  <path
     id="path3556"
     style="fill:#ff9311;fill-opacity:1;stroke-width:12;stroke-linecap:round;stroke-linejoin:round"
     d="m 52.023438,105 a 45,45 0 0 0 28.205078,33.02344 L 89.984375,115.45898 73.126953,105 Z" />
  <path
     id="path4075"
     style="fill:#ef2937;fill-opacity:1;stroke-width:12;stroke-linecap:round;stroke-linejoin:round"
     d="M 67.925781,60.949219 A 45,45 0 0 0 51,96 a 45,45 0 0 0 1.023438,9 h 21.103515 l 7.994141,-19.089844 z" />
  <circle
     style="fill:#323232;fill-opacity:1;stroke-width:7.01628;stroke-linecap:round;stroke-linejoin:round"
     id="path1025"
     cx="96"
     cy="96"
     r="27" />
  <circle
     style="opacity:0.5;fill:#ffffff;stroke-width:17.0883;stroke-linecap:round;stroke-linejoin:round"
     id="circle4410"
     cx="86"
     cy="83"
     r="5" />
  <circle
     style="opacity:0.5;fill:#ffffff;stroke-width:5.12648;stroke-linecap:round;stroke-linejoin:round"
     id="circle4412"
     cx="91.5"
     cy="89.5"
     r="1.5" />
  <path
     id="path6301"
     style="opacity:0.2;fill:#ffffff;fill-opacity:1;stroke-width:12;stroke-linecap:round;stroke-linejoin:round"
     d="M 96,51 C 85.783867,51.033463 75.883179,54.542167 67.925781,60.949219 57.261357,69.46226 51.035798,82.354468 51,96 c 0.01009,0.171286 0.02116,0.342513 0.0332,0.513672 C 51.207036,83.044598 57.405505,70.361708 67.925781,61.949219 75.883179,55.542167 85.783867,52.033463 96,52 c 5.25797,0.002 10.4749,0.925477 15.41406,2.728516 14.68816,5.356693 25.54331,17.953253 28.67188,33.271484 0.55985,2.777722 0.85608,5.602113 0.88476,8.435547 C 140.98117,96.290413 140.99094,96.145229 141,96 140.9984,92.976913 140.69216,89.961681 140.08594,87 136.95737,71.681769 126.10222,59.085209 111.41406,53.728516 106.4749,51.925477 101.25797,51.002003 96,51 Z"
     sodipodi:nodetypes="ccccccccccccc" />
</svg>
