<?xml version="1.0" encoding="UTF-8" standalone="no"?>
<svg
   width="192"
   height="192"
   version="1.1"
   id="svg14"
   sodipodi:docname="apps_audiobooks_com.svg"
   inkscape:version="1.1.1 (1:1.1+202109281949+c3084ef5ed)"
   xmlns:inkscape="http://www.inkscape.org/namespaces/inkscape"
   xmlns:sodipodi="http://sodipodi.sourceforge.net/DTD/sodipodi-0.dtd"
   xmlns="http://www.w3.org/2000/svg"
   xmlns:svg="http://www.w3.org/2000/svg">
  <defs
     id="defs18">
    <filter
       inkscape:collect="always"
       style="color-interpolation-filters:sRGB"
       id="filter2536"
       x="-0.048000001"
       y="-0.048000001"
       width="1.096"
       height="1.096">
      <feGaussianBlur
         inkscape:collect="always"
         stdDeviation="3.2"
         id="feGaussianBlur2538" />
    </filter>
    <filter
       inkscape:collect="always"
       style="color-interpolation-filters:sRGB"
       id="filter19008"
       x="-0.043392"
       y="-0.05370297"
       width="1.086784"
       height="1.1074059">
      <feGaussianBlur
         inkscape:collect="always"
         stdDeviation="2.26"
         id="feGaussianBlur19010" />
    </filter>
  </defs>
  <sodipodi:namedview
     id="namedview16"
     pagecolor="#ffffff"
     bordercolor="#666666"
     borderopacity="1.0"
     inkscape:pageshadow="2"
     inkscape:pageopacity="0.0"
     inkscape:pagecheckerboard="0"
     showgrid="false"
     inkscape:zoom="1"
     inkscape:cx="133.5"
     inkscape:cy="130.5"
     inkscape:window-width="1920"
     inkscape:window-height="1019"
     inkscape:window-x="0"
     inkscape:window-y="34"
     inkscape:window-maximized="1"
     inkscape:current-layer="svg14"
     inkscape:snap-global="true"
     inkscape:snap-bbox="true"
     inkscape:snap-bbox-midpoints="true">
    <inkscape:grid
       type="xygrid"
       id="grid2617" />
  </sodipodi:namedview>
  <rect
     style="opacity:0.2;fill:#000000;fill-opacity:1;stroke-width:4;filter:url(#filter2536)"
     width="160"
     height="160"
     x="16"
     y="20"
     rx="32"
     ry="32"
     id="rect2498" />
  <rect
     style="fill:#f07622;fill-opacity:1;stroke-width:4"
     width="160"
     height="160"
     x="16"
     y="16"
     rx="32"
     ry="32"
     id="rect4" />
  <path
     id="rect2540"
     style="fill:#ffffff;fill-opacity:1;stroke-width:4;opacity:0.2"
     d="M 48 16 C 30.272 16 16 30.272 16 48 L 16 49 C 16 31.272 30.272 17 48 17 L 144 17 C 161.728 17 176 31.272 176 49 L 176 48 C 176 30.272 161.728 16 144 16 L 48 16 z " />
  <path
     id="path18970"
     style="font-size:48.6699px;line-height:1.25;font-family:Meticula;-inkscape-font-specification:Meticula;opacity:0.2;fill:#000000;fill-opacity:1;stroke-width:1.33692;filter:url(#filter19008)"
     d="M 114,48 V 60.720703 C 111.53544,57.737178 107.86981,56.006743 104,56 c -7.179702,0 -13,5.820298 -13,13 0,7.179702 5.820298,13 13,13 3.86981,-0.0067 7.53544,-1.737178 10,-4.720703 V 82 h 3 V 69 68 48 Z m 9,8 v 26 h 3 V 56 Z m -77,0 c -7.179702,0 -13,5.820298 -13,13 0,7.179702 5.820298,13 13,13 3.86981,-0.0067 7.53544,-1.737178 10,-4.720703 V 82 h 3 V 69 68 H 58.95703 C 58.434715,61.229994 52.790125,56.002325 46,56 Z m 16,0 V 71.599609 C 62.047546,77.8733 68.704831,81.891746 74.853516,82 78.420054,81.977301 81.777211,80.566702 85,78.369141 V 82 h 3 V 56 h -3 v 16 c -0.13975,3.765944 -5.203952,6.9921 -9.853516,7 C 71.258719,78.979122 65.812491,76.465914 65,72 V 56 Z m 82,0 c -1.77861,0 -3.46034,0.351773 -5.04492,1.056641 -1.58458,0.672828 -2.97536,1.603603 -4.17188,2.789062 -1.16417,1.15342 -2.08456,2.530841 -2.76367,4.132813 C 131.34042,65.548448 131,67.246018 131,69.072266 c 0,1.794208 0.34042,3.476943 1.01953,5.046875 0.67911,1.569932 1.5995,2.947352 2.76367,4.132812 1.19652,1.153419 2.5873,2.065453 4.17188,2.738281 C 140.53966,81.663062 142.22139,82 144,82 c 1.81095,0 3.49269,-0.336938 5.04492,-1.009766 1.58458,-0.672828 2.95887,-1.584862 4.12305,-2.738281 1.19651,-1.18546 2.13339,-2.56288 2.8125,-4.132812 C 156.65958,72.549209 157,70.866474 157,69.072266 c 0,-1.826248 -0.34042,-3.523818 -1.01953,-5.09375 -0.67911,-1.601972 -1.61599,-2.979393 -2.8125,-4.132813 -1.16418,-1.185459 -2.53847,-2.116234 -4.12305,-2.789062 C 147.49269,56.351773 145.81095,56 144,56 Z m -98,3 c 5.522847,0 10,4.477153 10,10 0,5.522847 -4.477153,10 -10,10 -5.522847,0 -10,-4.477153 -10,-10 0,-5.522847 4.477153,-10 10,-10 z m 58,0 c 5.52285,0 10,4.477153 10,10 0,5.522847 -4.47715,10 -10,10 -5.522847,0 -10,-4.477153 -10,-10 0,-5.522847 4.477153,-10 10,-10 z m 37.27961,5 c 0.22493,-5.2e-5 0.44589,0.05923 0.64062,0.171875 l 6.43946,3.71875 c 0.85258,0.492736 0.85258,1.724061 0,2.216797 l -6.43946,3.720703 c -0.85341,0.493956 -1.92099,-0.122916 -1.91992,-1.109375 v -7.439453 c 5.9e-4,-0.457109 0.24477,-0.879211 0.64062,-1.107422 0.19416,-0.112314 0.41441,-0.171586 0.63868,-0.171875 z M 33,93 v 20 1 13 h 3 v -4.7207 c 2.464561,2.98352 6.13019,4.71396 10,4.7207 7.179702,0 13,-5.8203 13,-13 0,-7.1797 -5.820298,-13 -13,-13 -3.86981,0.007 -7.535439,1.73718 -10,4.7207 V 93 Z m 81,0 v 33.95117 h 3 v -11.03906 l 4.70508,-3.48438 L 131.51367,127 H 135 L 123.95117,110.75195 134.56641,102 h -4.54883 L 117,112.20703 V 93 Z m -41,8 c -1.77861,0 -3.460342,0.35177 -5.044922,1.05664 -1.58458,0.67283 -2.975355,1.6036 -4.171875,2.78906 -1.16417,1.15342 -2.084562,2.53084 -2.763672,4.13282 C 60.340421,110.54845 60,112.24602 60,114.07227 c 0,1.7942 0.340421,3.47694 1.019531,5.04687 0.67911,1.56993 1.599502,2.94735 2.763672,4.13281 1.19652,1.15342 2.587295,2.06546 4.171875,2.73828 C 69.539658,126.66306 71.22139,127 73,127 c 1.81095,0 3.492692,-0.33694 5.044922,-1.00977 1.58458,-0.67282 2.958867,-1.58486 4.123047,-2.73828 1.19651,-1.18546 2.13339,-2.56288 2.8125,-4.13281 C 85.659579,117.54921 86,115.86647 86,114.07227 c 0,-1.82625 -0.340421,-3.52382 -1.019531,-5.09375 -0.67911,-1.60198 -1.61599,-2.9794 -2.8125,-4.13282 -1.16418,-1.18546 -2.538467,-2.11623 -4.123047,-2.78906 C 76.492692,101.35177 74.81095,101 73,101 Z m 27,0 c -1.77861,0 -3.460342,0.35177 -5.044922,1.05664 -1.58458,0.67283 -2.975355,1.6036 -4.171875,2.78906 -1.16417,1.15342 -2.084562,2.53084 -2.763672,4.13282 C 87.340421,110.54845 87,112.24602 87,114.07227 c 0,1.7942 0.340421,3.47694 1.019531,5.04687 0.67911,1.56993 1.599502,2.94735 2.763672,4.13281 1.19652,1.15342 2.587295,2.06546 4.171875,2.73828 C 96.539658,126.66306 98.22139,127 100,127 c 1.81095,0 3.49269,-0.33694 5.04492,-1.00977 1.58458,-0.67282 2.95887,-1.58486 4.12305,-2.73828 1.19651,-1.18546 2.13339,-2.56288 2.8125,-4.13281 0.67911,-1.56993 1.01953,-3.25267 1.01953,-5.04687 0,-1.82625 -0.34042,-3.52382 -1.01953,-5.09375 -0.67911,-1.60198 -1.61599,-2.9794 -2.8125,-4.13282 -1.16418,-1.18546 -2.53847,-2.11623 -4.12305,-2.78906 C 103.49269,101.35177 101.81095,101 100,101 Z m 45.92383,0 c -1.36986,2e-4 -2.62956,0.1926 -3.78321,0.57227 l -0.006,0.002 -0.008,0.004 c -1.19478,0.36048 -2.64347,0.88378 -3.42773,1.4629 l -0.006,0.004 -0.004,0.004 c -0.84382,0.59196 -1.49938,1.29765 -1.98047,2.1289 C 136.23293,106.00095 136,106.8678 136,107.8125 c 0,1.22333 0.36085,2.14606 1.09375,2.87891 0.71896,0.71893 2.12353,1.42241 3.32813,1.98437 1.21862,0.51957 2.52424,0.96127 3.91796,1.32031 h 0.002 c 1.46326,0.36795 2.80415,0.75314 4.02929,1.15625 l 0.004,0.002 c 1.28182,0.41052 2.36796,0.91063 3.25195,1.51172 0.94268,0.64098 1.47461,1.58766 1.47461,2.67187 0,0.70709 -0.23227,1.39779 -0.66015,2.0332 v 0.002 c -0.38869,0.59437 -0.92364,1.12014 -1.58985,1.58203 l -0.002,0.002 -0.002,0.002 c -0.63929,0.43319 -1.39538,0.786 -2.26563,1.06446 l -0.008,0.002 -0.006,0.002 c -0.8486,0.24793 -1.7486,0.3711 -2.69531,0.3711 -1.63862,0 -3.16965,-0.37047 -4.5625,-1.10938 -1.21437,-0.64423 -2.1227,-1.51469 -2.79688,-2.5332 l -2.27734,1.25586 c 0.84415,1.488 1.97178,2.69476 3.5,3.55859 1.71631,0.95053 3.69964,1.42969 5.98047,1.42969 1.47355,0 2.83478,-0.19194 4.09375,-0.57227 1.26678,-0.41601 2.35585,-0.97289 3.27343,-1.66406 0.91815,-0.72517 1.6322,-1.54974 2.1504,-2.48242 0.51282,-0.923 0.76562,-1.91163 0.76562,-2.99414 0,-1.36608 -0.37416,-2.41811 -1.11523,-3.24805 l -0.002,-0.002 -0.004,-0.004 c -0.78215,-0.90725 -1.76047,-1.64428 -2.94922,-2.21484 l -0.008,-0.004 -0.006,-0.004 c -1.17625,-0.61297 -2.47399,-1.11374 -3.89649,-1.50391 -1.45779,-0.39981 -2.81367,-0.78351 -4.06445,-1.15039 h -0.002 l -0.002,-0.002 c -1.24015,-0.37416 -2.29631,-0.80072 -3.17187,-1.29102 -0.9344,-0.52322 -1.51172,-1.32365 -1.51172,-2.25 0,-0.59005 0.23225,-1.15349 0.64062,-1.62695 0.38949,-0.48368 0.88673,-0.9043 1.48242,-1.26172 l 0.006,-0.004 0.006,-0.004 c 0.63856,-0.36059 1.36333,-0.62285 2.16602,-0.79883 0.83664,-0.20887 1.69309,-0.31641 2.56445,-0.31641 1.52591,0 2.92868,0.31654 4.1836,0.95313 1.0796,0.51902 1.87516,1.28143 2.45703,2.1914 l 2.37695,-1.26757 c -0.67058,-1.27582 -1.70338,-2.33847 -3.28125,-3.13868 h -0.002 -0.002 c -1.719,-0.88818 -3.69017,-1.33956 -5.93945,-1.33984 z M 46,104 c 5.522847,0 10,4.47715 10,10 0,5.52285 -4.477153,10 -10,10 -5.522847,0 -10,-4.47715 -10,-10 0,-5.52285 4.477153,-10 10,-10 z m 27,0 c 1.34715,0 2.625004,0.26928 3.833984,0.80664 1.24353,0.53736 2.314791,1.27641 3.212891,2.2168 0.8981,0.9068 1.60686,1.96476 2.125,3.17383 0.55267,1.20906 0.828125,2.50191 0.828125,3.8789 0,1.34341 -0.275455,2.61906 -0.828125,3.82813 -0.51814,1.20907 -1.22691,2.26701 -2.125,3.17382 -0.8981,0.90682 -1.969361,1.62866 -3.212891,2.16602 C 75.625004,123.74792 74.34715,124 73,124 c -1.34715,0 -2.625004,-0.25208 -3.833984,-0.75586 -1.20898,-0.53736 -2.280241,-1.2592 -3.212891,-2.16602 -0.89809,-0.9068 -1.623101,-1.96475 -2.175781,-3.17382 C 63.259214,116.69523 63,115.41958 63,114.07617 c 0,-1.34341 0.259214,-2.62101 0.777344,-3.83008 0.55268,-1.24265 1.277691,-2.31585 2.175781,-3.22265 0.93265,-0.94039 2.003911,-1.67944 3.212891,-2.2168 C 70.374996,104.26928 71.65285,104 73,104 Z m 27,0 c 1.34715,0 2.625,0.26928 3.83398,0.80664 1.24353,0.53736 2.3148,1.27641 3.2129,2.2168 0.89807,0.9068 1.60685,1.96476 2.125,3.17383 0.55266,1.20906 0.82812,2.50191 0.82812,3.8789 0,1.34341 -0.27547,2.61906 -0.82812,3.82813 -0.51816,1.20907 -1.22693,2.26701 -2.125,3.17382 -0.8981,0.90682 -1.96937,1.62866 -3.2129,2.16602 C 102.625,123.74792 101.34715,124 100,124 c -1.34715,0 -2.625004,-0.25208 -3.833984,-0.75586 -1.20898,-0.53736 -2.280241,-1.2592 -3.212891,-2.16602 -0.89809,-0.9068 -1.623101,-1.96475 -2.175781,-3.17382 C 90.259214,116.69523 90,115.41958 90,114.07617 c 0,-1.34341 0.259214,-2.62101 0.777344,-3.83008 0.55268,-1.24265 1.277691,-2.31585 2.175781,-3.22265 0.93265,-0.94039 2.003911,-1.67944 3.212891,-2.2168 C 97.374996,104.26928 98.65285,104 100,104 Z m 17.40234,31 c -1.22449,0 -2.32163,0.24366 -3.29101,0.73047 -0.95238,0.48681 -1.70831,1.25025 -2.26953,2.29101 -0.56123,1.04077 -0.8418,2.39282 -0.8418,4.05469 0,1.59473 0.2638,2.90376 0.79102,3.92774 0.54421,1.02398 1.28337,1.77881 2.21875,2.26562 0.95238,0.48681 2.03274,0.73047 3.24023,0.73047 0.78231,0 1.44601,-0.0669 1.99023,-0.20117 0.56123,-0.11751 1.07012,-0.29429 1.5293,-0.5293 v -1.96289 c -0.47619,0.21822 -1.00184,0.40164 -1.58008,0.55274 -0.56122,0.15107 -1.21654,0.22656 -1.96484,0.22656 -1.29251,0 -2.27033,-0.42709 -2.93359,-1.28321 -0.64626,-0.8729 -0.96875,-2.12365 -0.96875,-3.75195 0,-3.40767 1.34222,-5.11133 4.02929,-5.11133 0.4762,0 0.98703,0.0669 1.53125,0.20117 0.54422,0.1343 1.01957,0.27666 1.42774,0.42774 L 121,135.73047 c -0.40816,-0.20144 -0.93577,-0.36961 -1.58203,-0.50391 C 118.77171,135.07548 118.09962,135 117.40234,135 Z m 11.6211,0 c -1.85484,0 -3.3217,0.60387 -4.40235,1.8125 -1.08064,1.20863 -1.62109,2.9295 -1.62109,5.16211 0,1.49401 0.25731,2.77057 0.77344,3.82812 0.51613,1.04077 1.21837,1.83668 2.10547,2.39063 0.90322,0.53717 1.9271,0.80664 3.07226,0.80664 1.85484,0 3.32365,-0.61247 4.4043,-1.83789 1.09677,-1.22542 1.64453,-2.95489 1.64453,-5.1875 0,-1.49401 -0.25731,-2.75336 -0.77344,-3.77734 -0.5,-1.04077 -1.20224,-1.83003 -2.10547,-2.36719 C 131.23399,135.27612 130.20086,135 129.02344,135 Z M 138,135 v 14 h 2 v -7.12891 c -0.065,-1.60552 0.5582,-2.8367 1.0957,-3.6914 0.53749,-0.8547 1.50769,-1.28321 2.91211,-1.28321 1.90724,0 2.99219,1.08688 2.99219,3.25782 V 149 h 2 v -7.58984 c 0,-1.47009 0.41806,-2.59015 0.99023,-3.35938 0.58951,-0.76923 1.5597,-1.1543 2.91211,-1.1543 1.88991,0 3.09766,1.08688 3.09766,3.25782 V 149 h 2 v -8.94922 c 0,-1.77777 -0.38969,-3.05937 -1.16992,-3.8457 C 156.04984,135.40166 154.87077,135 153.29297,135 c -0.90161,0 -1.75931,0.18838 -2.57422,0.56445 -0.79757,0.37607 -1.43225,0.95782 -1.90039,1.74414 h -0.12891 C 148.03058,135.77013 146.60848,135 144.42383,135 c -0.83225,0 -1.62163,0.18009 -2.36719,0.53906 -0.72823,0.34188 -1.30873,0.8719 -1.74219,1.58985 h -0.1289 L 139.8457,135 Z m -9.02344,2 c 1.32258,0 2.48958,0.31618 3.10248,1.22266 0.6129,0.90647 0.91992,2.15722 0.91992,3.75195 0,1.59473 -0.30702,2.86269 -0.91992,3.80273 C 131.46614,146.7006 130.30645,147 129,147 c -1.32258,0 -2.48985,-0.2994 -3.10275,-1.22266 -0.59678,-0.94004 -0.89649,-2.208 -0.89649,-3.80273 0,-1.59473 0.29971,-2.84548 0.89649,-3.75195 C 126.49403,137.31618 127.65398,137 128.97656,137 Z m -22.5,9 c -0.40322,0 -0.75069,0.11176 -1.04101,0.33398 -0.29032,0.22223 -0.43555,0.60615 -0.43555,1.1543 0,0.53333 0.14523,0.91922 0.43555,1.15625 0.29032,0.23704 0.63779,0.35547 1.04101,0.35547 0.41936,0 0.77414,-0.11843 1.06446,-0.35547 0.30645,-0.23703 0.45898,-0.62292 0.45898,-1.15625 0,-0.54815 -0.15253,-0.93207 -0.45898,-1.1543 C 107.2507,146.11176 106.89592,146 106.47656,146 Z"
     sodipodi:nodetypes="cccsccccccccccccccscccccccccccccccccccccscscsscsscssscccsssssssssssccccccccccccccccscccccccccccccccccscscsscsscssscccsscscsscsscssscccsssccccccsscccccssccccccccsscccsccssccccccccccsscccccsccccccsssssssscccscscscccsccssscccscscscccsccssscssccsccccscssccccssssccscsccsccccsssccscssccscscccscccccssscscsssssssscscs" />
  <path
     id="path9848"
     style="font-size:48.6699px;line-height:1.25;font-family:Meticula;-inkscape-font-specification:Meticula;opacity:1;fill:#ffffff;fill-opacity:1;stroke-width:1.33692"
     d="M 114,46 V 58.720703 C 111.53544,55.737178 107.86981,54.006743 104,54 c -7.179702,0 -13,5.820298 -13,13 0,7.179702 5.820298,13 13,13 3.86981,-0.0067 7.53544,-1.737178 10,-4.720703 V 80 h 3 V 67 66 46 Z m 9,8 v 26 h 3 V 54 Z m -77,0 c -7.179702,0 -13,5.820298 -13,13 0,7.179702 5.820298,13 13,13 3.86981,-0.0067 7.53544,-1.737178 10,-4.720703 V 80 h 3 V 67 66 H 58.95703 C 58.434715,59.229994 52.790125,54.002325 46,54 Z m 16,0 V 69.599609 C 62.047546,75.8733 68.704831,79.891746 74.853516,80 78.420054,79.977301 81.777211,78.566702 85,76.369141 V 80 h 3 V 54 h -3 v 16 c -0.13975,3.765944 -5.203952,6.9921 -9.853516,7 C 71.258719,76.979122 65.812491,74.465914 65,70 V 54 Z m 82,0 c -1.77861,0 -3.46034,0.351773 -5.04492,1.056641 -1.58458,0.672828 -2.97536,1.603603 -4.17188,2.789062 -1.16417,1.15342 -2.08456,2.530841 -2.76367,4.132813 C 131.34042,63.548448 131,65.246018 131,67.072266 c 0,1.794208 0.34042,3.476943 1.01953,5.046875 0.67911,1.569932 1.5995,2.947352 2.76367,4.132812 1.19652,1.153419 2.5873,2.065453 4.17188,2.738281 C 140.53966,79.663062 142.22139,80 144,80 c 1.81095,0 3.49269,-0.336938 5.04492,-1.009766 1.58458,-0.672828 2.95887,-1.584862 4.12305,-2.738281 1.19651,-1.18546 2.13339,-2.56288 2.8125,-4.132812 C 156.65958,70.549209 157,68.866474 157,67.072266 c 0,-1.826248 -0.34042,-3.523818 -1.01953,-5.09375 -0.67911,-1.601972 -1.61599,-2.979393 -2.8125,-4.132813 -1.16418,-1.185459 -2.53847,-2.116234 -4.12305,-2.789062 C 147.49269,54.351773 145.81095,54 144,54 Z m -98,3 c 5.522847,0 10,4.477153 10,10 0,5.522847 -4.477153,10 -10,10 -5.522847,0 -10,-4.477153 -10,-10 0,-5.522847 4.477153,-10 10,-10 z m 58,0 c 5.52285,0 10,4.477153 10,10 0,5.522847 -4.47715,10 -10,10 -5.522847,0 -10,-4.477153 -10,-10 0,-5.522847 4.477153,-10 10,-10 z m 37.27961,5 c 0.22493,-5.2e-5 0.44589,0.05923 0.64062,0.171875 l 6.43946,3.71875 c 0.85258,0.492736 0.85258,1.724061 0,2.216797 l -6.43946,3.720703 c -0.85341,0.493956 -1.92099,-0.122916 -1.91992,-1.109375 v -7.439453 c 5.9e-4,-0.457109 0.24477,-0.879211 0.64062,-1.107422 0.19416,-0.112314 0.41441,-0.171586 0.63868,-0.171875 z M 33,91 v 20 1 13 h 3 v -4.7207 c 2.464561,2.98352 6.13019,4.71396 10,4.7207 7.179702,0 13,-5.8203 13,-13 0,-7.1797 -5.820298,-13 -13,-13 -3.86981,0.007 -7.535439,1.73718 -10,4.7207 V 91 Z m 81,0 v 33.95117 h 3 v -11.03906 l 4.70508,-3.48438 L 131.51367,125 H 135 L 123.95117,108.75195 134.56641,100 h -4.54883 L 117,110.20703 V 91 Z m -41,8 c -1.77861,0 -3.460342,0.35177 -5.044922,1.05664 -1.58458,0.67283 -2.975355,1.6036 -4.171875,2.78906 -1.16417,1.15342 -2.084562,2.53084 -2.763672,4.13282 C 60.340421,108.54845 60,110.24602 60,112.07227 c 0,1.7942 0.340421,3.47694 1.019531,5.04687 0.67911,1.56993 1.599502,2.94735 2.763672,4.13281 1.19652,1.15342 2.587295,2.06546 4.171875,2.73828 C 69.539658,124.66306 71.22139,125 73,125 c 1.81095,0 3.492692,-0.33694 5.044922,-1.00977 1.58458,-0.67282 2.958867,-1.58486 4.123047,-2.73828 1.19651,-1.18546 2.13339,-2.56288 2.8125,-4.13281 C 85.659579,115.54921 86,113.86647 86,112.07227 c 0,-1.82625 -0.340421,-3.52382 -1.019531,-5.09375 -0.67911,-1.60198 -1.61599,-2.9794 -2.8125,-4.13282 -1.16418,-1.18546 -2.538467,-2.11623 -4.123047,-2.78906 C 76.492692,99.35177 74.81095,99 73,99 Z m 27,0 c -1.77861,0 -3.460342,0.35177 -5.044922,1.05664 -1.58458,0.67283 -2.975355,1.6036 -4.171875,2.78906 -1.16417,1.15342 -2.084562,2.53084 -2.763672,4.13282 C 87.340421,108.54845 87,110.24602 87,112.07227 c 0,1.7942 0.340421,3.47694 1.019531,5.04687 0.67911,1.56993 1.599502,2.94735 2.763672,4.13281 1.19652,1.15342 2.587295,2.06546 4.171875,2.73828 C 96.539658,124.66306 98.22139,125 100,125 c 1.81095,0 3.49269,-0.33694 5.04492,-1.00977 1.58458,-0.67282 2.95887,-1.58486 4.12305,-2.73828 1.19651,-1.18546 2.13339,-2.56288 2.8125,-4.13281 0.67911,-1.56993 1.01953,-3.25267 1.01953,-5.04687 0,-1.82625 -0.34042,-3.52382 -1.01953,-5.09375 -0.67911,-1.60198 -1.61599,-2.9794 -2.8125,-4.13282 -1.16418,-1.18546 -2.53847,-2.11623 -4.12305,-2.78906 C 103.49269,99.35177 101.81095,99 100,99 Z m 45.92383,0 c -1.36986,2e-4 -2.62956,0.1926 -3.78321,0.57227 l -0.006,0.002 -0.008,0.004 c -1.19478,0.36048 -2.64347,0.88378 -3.42773,1.4629 l -0.006,0.004 -0.004,0.004 c -0.84382,0.59196 -1.49938,1.29765 -1.98047,2.1289 C 136.23293,104.00095 136,104.8678 136,105.8125 c 0,1.22333 0.36085,2.14606 1.09375,2.87891 0.71896,0.71893 2.12353,1.42241 3.32813,1.98437 1.21862,0.51957 2.52424,0.96127 3.91796,1.32031 h 0.002 c 1.46326,0.36795 2.80415,0.75314 4.02929,1.15625 l 0.004,0.002 c 1.28182,0.41052 2.36796,0.91063 3.25195,1.51172 0.94268,0.64098 1.47461,1.58766 1.47461,2.67187 0,0.70709 -0.23227,1.39779 -0.66015,2.0332 v 0.002 c -0.38869,0.59437 -0.92364,1.12014 -1.58985,1.58203 l -0.002,0.002 -0.002,0.002 c -0.63929,0.43319 -1.39538,0.786 -2.26563,1.06446 l -0.008,0.002 -0.006,0.002 c -0.8486,0.24793 -1.7486,0.3711 -2.69531,0.3711 -1.63862,0 -3.16965,-0.37047 -4.5625,-1.10938 -1.21437,-0.64423 -2.1227,-1.51469 -2.79688,-2.5332 l -2.27734,1.25586 c 0.84415,1.488 1.97178,2.69476 3.5,3.55859 1.71631,0.95053 3.69964,1.42969 5.98047,1.42969 1.47355,0 2.83478,-0.19194 4.09375,-0.57227 1.26678,-0.41601 2.35585,-0.97289 3.27343,-1.66406 0.91815,-0.72517 1.6322,-1.54974 2.1504,-2.48242 0.51282,-0.923 0.76562,-1.91163 0.76562,-2.99414 0,-1.36608 -0.37416,-2.41811 -1.11523,-3.24805 l -0.002,-0.002 -0.004,-0.004 c -0.78215,-0.90725 -1.76047,-1.64428 -2.94922,-2.21484 l -0.008,-0.004 -0.006,-0.004 c -1.17625,-0.61297 -2.47399,-1.11374 -3.89649,-1.50391 -1.45779,-0.39981 -2.81367,-0.78351 -4.06445,-1.15039 h -0.002 l -0.002,-0.002 c -1.24015,-0.37416 -2.29631,-0.80072 -3.17187,-1.29102 -0.9344,-0.52322 -1.51172,-1.32365 -1.51172,-2.25 0,-0.59005 0.23225,-1.15349 0.64062,-1.62695 0.38949,-0.48368 0.88673,-0.9043 1.48242,-1.26172 l 0.006,-0.004 0.006,-0.004 c 0.63856,-0.36059 1.36333,-0.62285 2.16602,-0.79883 0.83664,-0.20887 1.69309,-0.31641 2.56445,-0.31641 1.52591,0 2.92868,0.31654 4.1836,0.95313 1.0796,0.51902 1.87516,1.28143 2.45703,2.1914 l 2.37695,-1.26757 c -0.67058,-1.27582 -1.70338,-2.33847 -3.28125,-3.13868 h -0.002 -0.002 c -1.719,-0.88818 -3.69017,-1.33956 -5.93945,-1.33984 z M 46,102 c 5.522847,0 10,4.47715 10,10 0,5.52285 -4.477153,10 -10,10 -5.522847,0 -10,-4.47715 -10,-10 0,-5.52285 4.477153,-10 10,-10 z m 27,0 c 1.34715,0 2.625004,0.26928 3.833984,0.80664 1.24353,0.53736 2.314791,1.27641 3.212891,2.2168 0.8981,0.9068 1.60686,1.96476 2.125,3.17383 0.55267,1.20906 0.828125,2.50191 0.828125,3.8789 0,1.34341 -0.275455,2.61906 -0.828125,3.82813 -0.51814,1.20907 -1.22691,2.26701 -2.125,3.17382 -0.8981,0.90682 -1.969361,1.62866 -3.212891,2.16602 C 75.625004,121.74792 74.34715,122 73,122 c -1.34715,0 -2.625004,-0.25208 -3.833984,-0.75586 -1.20898,-0.53736 -2.280241,-1.2592 -3.212891,-2.16602 -0.89809,-0.9068 -1.623101,-1.96475 -2.175781,-3.17382 C 63.259214,114.69523 63,113.41958 63,112.07617 c 0,-1.34341 0.259214,-2.62101 0.777344,-3.83008 0.55268,-1.24265 1.277691,-2.31585 2.175781,-3.22265 0.93265,-0.94039 2.003911,-1.67944 3.212891,-2.2168 C 70.374996,102.26928 71.65285,102 73,102 Z m 27,0 c 1.34715,0 2.625,0.26928 3.83398,0.80664 1.24353,0.53736 2.3148,1.27641 3.2129,2.2168 0.89807,0.9068 1.60685,1.96476 2.125,3.17383 0.55266,1.20906 0.82812,2.50191 0.82812,3.8789 0,1.34341 -0.27547,2.61906 -0.82812,3.82813 -0.51816,1.20907 -1.22693,2.26701 -2.125,3.17382 -0.8981,0.90682 -1.96937,1.62866 -3.2129,2.16602 C 102.625,121.74792 101.34715,122 100,122 c -1.34715,0 -2.625004,-0.25208 -3.833984,-0.75586 -1.20898,-0.53736 -2.280241,-1.2592 -3.212891,-2.16602 -0.89809,-0.9068 -1.623101,-1.96475 -2.175781,-3.17382 C 90.259214,114.69523 90,113.41958 90,112.07617 c 0,-1.34341 0.259214,-2.62101 0.777344,-3.83008 0.55268,-1.24265 1.277691,-2.31585 2.175781,-3.22265 0.93265,-0.94039 2.003911,-1.67944 3.212891,-2.2168 C 97.374996,102.26928 98.65285,102 100,102 Z m 17.40234,31 c -1.22449,0 -2.32163,0.24366 -3.29101,0.73047 -0.95238,0.48681 -1.70831,1.25025 -2.26953,2.29101 -0.56123,1.04077 -0.8418,2.39282 -0.8418,4.05469 0,1.59473 0.2638,2.90376 0.79102,3.92774 0.54421,1.02398 1.28337,1.77881 2.21875,2.26562 0.95238,0.48681 2.03274,0.73047 3.24023,0.73047 0.78231,0 1.44601,-0.0669 1.99023,-0.20117 0.56123,-0.11751 1.07012,-0.29429 1.5293,-0.5293 v -1.96289 c -0.47619,0.21822 -1.00184,0.40164 -1.58008,0.55274 -0.56122,0.15107 -1.21654,0.22656 -1.96484,0.22656 -1.29251,0 -2.27033,-0.42709 -2.93359,-1.28321 -0.64626,-0.8729 -0.96875,-2.12365 -0.96875,-3.75195 0,-3.40767 1.34222,-5.11133 4.02929,-5.11133 0.4762,0 0.98703,0.0669 1.53125,0.20117 0.54422,0.1343 1.01957,0.27666 1.42774,0.42774 L 121,133.73047 c -0.40816,-0.20144 -0.93577,-0.36961 -1.58203,-0.50391 C 118.77171,133.07548 118.09962,133 117.40234,133 Z m 11.6211,0 c -1.85484,0 -3.3217,0.60387 -4.40235,1.8125 -1.08064,1.20863 -1.62109,2.9295 -1.62109,5.16211 0,1.49401 0.25731,2.77057 0.77344,3.82812 0.51613,1.04077 1.21837,1.83668 2.10547,2.39063 0.90322,0.53717 1.9271,0.80664 3.07226,0.80664 1.85484,0 3.32365,-0.61247 4.4043,-1.83789 1.09677,-1.22542 1.64453,-2.95489 1.64453,-5.1875 0,-1.49401 -0.25731,-2.75336 -0.77344,-3.77734 -0.5,-1.04077 -1.20224,-1.83003 -2.10547,-2.36719 C 131.23399,133.27612 130.20086,133 129.02344,133 Z M 138,133 v 14 h 2 v -7.12891 c -0.065,-1.60552 0.5582,-2.8367 1.0957,-3.6914 0.53749,-0.8547 1.50769,-1.28321 2.91211,-1.28321 1.90724,0 2.99219,1.08688 2.99219,3.25782 V 147 h 2 v -7.58984 c 0,-1.47009 0.41806,-2.59015 0.99023,-3.35938 0.58951,-0.76923 1.5597,-1.1543 2.91211,-1.1543 1.88991,0 3.09766,1.08688 3.09766,3.25782 V 147 h 2 v -8.94922 c 0,-1.77777 -0.38969,-3.05937 -1.16992,-3.8457 C 156.04984,133.40166 154.87077,133 153.29297,133 c -0.90161,0 -1.75931,0.18838 -2.57422,0.56445 -0.79757,0.37607 -1.43225,0.95782 -1.90039,1.74414 h -0.12891 C 148.03058,133.77013 146.60848,133 144.42383,133 c -0.83225,0 -1.62163,0.18009 -2.36719,0.53906 -0.72823,0.34188 -1.30873,0.8719 -1.74219,1.58985 h -0.1289 L 139.8457,133 Z m -9.02344,2 c 1.32258,0 2.48958,0.31618 3.10248,1.22266 0.6129,0.90647 0.91992,2.15722 0.91992,3.75195 0,1.59473 -0.30702,2.86269 -0.91992,3.80273 C 131.46614,144.7006 130.30645,145 129,145 c -1.32258,0 -2.48985,-0.2994 -3.10275,-1.22266 -0.59678,-0.94004 -0.89649,-2.208 -0.89649,-3.80273 0,-1.59473 0.29971,-2.84548 0.89649,-3.75195 C 126.49403,135.31618 127.65398,135 128.97656,135 Z m -22.5,9 c -0.40322,0 -0.75069,0.11176 -1.04101,0.33398 -0.29032,0.22223 -0.43555,0.60615 -0.43555,1.1543 0,0.53333 0.14523,0.91922 0.43555,1.15625 0.29032,0.23704 0.63779,0.35547 1.04101,0.35547 0.41936,0 0.77414,-0.11843 1.06446,-0.35547 0.30645,-0.23703 0.45898,-0.62292 0.45898,-1.15625 0,-0.54815 -0.15253,-0.93207 -0.45898,-1.1543 C 107.2507,144.11176 106.89592,144 106.47656,144 Z"
     sodipodi:nodetypes="cccsccccccccccccccscccccccccccccccccccccscscsscsscssscccsssssssssssccccccccccccccccscccccccccccccccccscscsscsscssscccsscscsscsscssscccsssccccccsscccccssccccccccsscccsccssccccccccccsscccccsccccccsssssssscccscscscccsccssscccscscscccsccssscssccsccccscssccccssssccscsccsccccsssccscssccscscccscccccssscscsssssssscscs" />
</svg>
