<?xml version="1.0" encoding="UTF-8" standalone="no"?>
<svg
   xmlns:dc="http://purl.org/dc/elements/1.1/"
   xmlns:cc="http://creativecommons.org/ns#"
   xmlns:rdf="http://www.w3.org/1999/02/22-rdf-syntax-ns#"
   xmlns:svg="http://www.w3.org/2000/svg"
   xmlns="http://www.w3.org/2000/svg"
   xmlns:sodipodi="http://sodipodi.sourceforge.net/DTD/sodipodi-0.dtd"
   xmlns:inkscape="http://www.inkscape.org/namespaces/inkscape"
   width="192"
   height="192"
   version="1"
   id="svg30"
   sodipodi:docname="apps_ellen_mp3_player.svg"
   inkscape:version="1.0.2 (1.0.2+r75+1)">
  <metadata
     id="metadata36">
    <rdf:RDF>
      <cc:Work
         rdf:about="">
        <dc:format>image/svg+xml</dc:format>
        <dc:type
           rdf:resource="http://purl.org/dc/dcmitype/StillImage" />
        <dc:title></dc:title>
      </cc:Work>
    </rdf:RDF>
  </metadata>
  <defs
     id="defs34">
    <filter
       inkscape:collect="always"
       style="color-interpolation-filters:sRGB"
       id="filter897"
       x="-0.043636364"
       width="1.0872727"
       y="-0.053333333"
       height="1.1066667">
      <feGaussianBlur
         inkscape:collect="always"
         stdDeviation="3.2"
         id="feGaussianBlur899" />
    </filter>
    <filter
       inkscape:collect="always"
       style="color-interpolation-filters:sRGB"
       id="filter902"
       x="-0.043967793"
       width="1.0879356"
       y="-0.052846452"
       height="1.1056929">
      <feGaussianBlur
         inkscape:collect="always"
         stdDeviation="1.7617049"
         id="feGaussianBlur904" />
    </filter>
  </defs>
  <sodipodi:namedview
     pagecolor="#ffffff"
     bordercolor="#666666"
     borderopacity="1"
     objecttolerance="10"
     gridtolerance="10"
     guidetolerance="10"
     inkscape:pageopacity="0"
     inkscape:pageshadow="2"
     inkscape:window-width="1920"
     inkscape:window-height="1018"
     id="namedview32"
     showgrid="false"
     inkscape:zoom="2.86"
     inkscape:cx="24.121059"
     inkscape:cy="97.53574"
     inkscape:window-x="0"
     inkscape:window-y="30"
     inkscape:window-maximized="1"
     inkscape:current-layer="svg30"
     inkscape:document-rotation="0" />
  <path
     id="path2"
     style="opacity:0.2;stroke-width:4;filter:url(#filter902)"
     d="m 96.351562,95.998047 c -4.475296,-0.13244 -8.069191,2.682376 -10.234374,6.437503 -1.46542,-0.95401 -2.889077,-2.101 -4.507813,-2.32032 -4.890756,-0.662646 -10.813274,2.29513 -12.835937,7.65625 a 8.0008,8.0008 0 0 0 -0.0078,0.01 L 64,120.49414 V 106 c 0,-3.324 -2.676,-6 -6,-6 h -4 c -3.324,0 -6,2.676 -6,6 v 28.21484 c -0.05709,0.38309 -0.09679,0.77567 -0.117188,1.17578 -0.03415,0.66988 0.01774,1.35451 0.117188,2.04102 V 166 c 0,3.324 2.676,6 6,6 h 4 c 3.324,0 6,-2.676 6,-6 v -10.83984 c 2.540259,0.76556 5.312518,0.60989 7.851562,-0.26172 l 0.195313,2.17187 c 0.530424,5.96125 5.929013,10.50383 11.023437,10.89844 3.150312,0.244 6.258553,-1.43001 8.820313,-3.83594 l 0.226563,1.5625 C 92.9727,171.66898 98.716335,175.939 103.85938,176 c 5.14508,0.061 10.98308,-4.07574 11.97656,-10.03125 l 0.53906,-3.2207 c 3.94337,1.27097 8.41007,0.88324 11.625,-1.85938 V 166 c 0,3.324 2.676,6 6,6 h 4 c 3.324,0 6,-2.676 6,-6 v -29.39258 c 0.0428,-0.60997 0.0522,-1.21645 0,-1.81054 V 106 c 0,-3.324 -2.676,-6 -6,-6 h -4 c -3.324,0 -6,2.676 -6,6 v 18.69922 c -0.54678,0.21332 -1.08817,0.45132 -1.60938,0.73633 l -2.67187,-12.03907 c -1.27365,-5.73719 -7.00453,-9.53367 -12.03906,-9.39843 -1.43538,0.0384 -2.7591,1.01839 -4.15625,1.64843 -1.12915,-5.34798 -5.64984,-9.486733 -11.171878,-9.648433 z" />
  <path
     style="opacity:0.2;stroke-width:4;filter:url(#filter897)"
     d="M 96,28 A 64,64 0 0 0 32,92 v 8.74219 C 18.302186,104.10679 8,118.61014 8,136 c 0,19.88224 13.466336,36 30.078125,36 h 6.578123 C 44.656252,172 48,172 48,168 V 136 104 92 a 48,48 0 0 1 48,-48 48,48 0 0 1 48,48 v 12 32 32 c 0,4 3.34375,4 3.34375,4 h 6.57813 C 170.53366,172 184,155.88224 184,136 184,118.61014 173.69781,104.10679 160,100.74219 V 92 A 64,64 0 0 0 96,28 Z"
     id="path8" />
  <path
     style="fill:#cf4bff;fill-opacity:1;stroke-width:4"
     d="M 96.351564,92 C 91.876268,91.86756 88.282372,94.682376 86.117188,98.4375 84.651768,97.483488 83.228112,96.336512 81.609376,96.117188 76.71862,95.45454 70.7961,98.412316 68.773436,103.77344 a 8.0008,8.0008 0 0 0 -0.008,0.008 l -6.25,16.67187 c -1.04692,-0.25416 -2.098276,-0.62265 -3.125,-0.57031 -3.254076,0.16588 -5.955272,1.58809 -7.9375,3.57031 -1.982224,1.98223 -3.404444,4.68343 -3.570312,7.9375 -0.16588,3.25408 1.316128,6.87419 3.75,9.21094 l 7.882812,7.88281 a 8.0008,8.0008 0 0 0 0.008,0.008 c 3.362164,3.35654 8.161068,3.83673 12.328128,2.40625 l 0.19532,2.17188 c 0.530424,5.96125 5.929012,10.50383 11.023436,10.89844 3.150312,0.244 6.258552,-1.43001 8.820312,-3.83594 l 0.22656,1.5625 c 0.855512,5.97367 6.599148,10.24369 11.742188,10.30469 5.14508,0.061 10.98308,-4.07574 11.97656,-10.03125 L 116.375,158.75 c 4.64934,1.49851 10.03462,0.70388 13.22656,-3.55469 l 0.008,-0.008 11.99219,-15.99219 a 8.0008,8.0008 0 0 0 0.008,0 c 1.99823,-2.66864 2.86895,-6.40104 2.22656,-9.54687 -0.64239,-3.14583 -2.41679,-5.59265 -4.64062,-7.25781 -2.22384,-1.66517 -5.06617,-2.6832 -8.26563,-2.41406 -1.5391,0.12948 -3.10105,0.67459 -4.53906,1.46093 l -2.67225,-12.03887 C 122.4451,103.66125 116.71422,99.864756 111.67969,100 c -1.43538,0.0386 -2.7591,1.0184 -4.15625,1.64844 C 106.39429,96.30046 101.8736,92.1617 96.351564,92 Z m 32.445316,37.60156 h 0.008 l -0.008,0.0156 c 0.002,-0.003 -0.002,-0.0132 0,-0.0156 z"
     id="path10" />
  <path
     style="fill:#399bff;fill-opacity:1;stroke-width:4"
     d="M 38.078324,96 C 21.466535,96 8,112.11776 8,132 c 0,19.88224 13.466535,36 30.078324,36 h 6.579636 v 0 c 0,0 3.34204,0 3.34204,-4 V 99.999996 C 48,96.5 44.7624,96 44.7624,96 Z"
     id="path12" />
  <path
     style="fill:#399bff;fill-opacity:1;stroke-width:4"
     d="M 153.92168,96 C 170.53346,96 184,112.11776 184,132 c 0,19.88224 -13.46654,36 -30.07832,36 h -6.57964 v 0 c 0,0 -3.34204,0 -3.34204,-4 V 99.999996 C 144,96.5 147.2376,96 147.2376,96 Z"
     id="path14" />
  <path
     style="fill:none;stroke:#ffffff;stroke-width:8;stroke-linecap:round;stroke-linejoin:round;stroke-opacity:1"
     d="m 60,132 8,8 12,-32 4,44 12,-48 8,56 8,-48 8,36 12,-16"
     id="path16" />
  <path
     id="path18"
     style="opacity:0.2;fill:#ffffff;stroke-width:4"
     d="m 96.351562,92 c -4.475296,-0.13244 -8.069191,2.682376 -10.234374,6.4375 -1.46542,-0.954012 -2.889077,-2.100989 -4.507813,-2.320312 -4.890756,-0.662649 -10.813274,2.295126 -12.835937,7.656252 a 8.0008,8.0008 0 0 0 -0.0078,0.008 l -6.25,16.67187 c -1.04692,-0.25415 -2.098276,-0.62265 -3.125,-0.57031 -3.254076,0.16588 -5.955272,1.58809 -7.9375,3.57031 -1.982224,1.98224 -3.404445,4.68344 -3.570313,7.9375 -0.01404,0.27553 0.0046,0.55635 0.01563,0.83594 0.205236,-3.17946 1.606512,-5.82525 3.554687,-7.77344 1.982228,-1.98222 4.683424,-3.40443 7.9375,-3.57031 1.026724,-0.0523 2.07808,0.31616 3.125,0.57031 l 6.25,-16.67187 a 8.0008,8.0008 0 0 1 0.0078,-0.008 c 2.022663,-5.361127 7.945181,-8.3189 12.835937,-7.656252 1.618736,0.219323 3.042393,1.3663 4.507813,2.320312 2.165183,-3.755124 5.759078,-6.56994 10.234374,-6.4375 5.522034,0.1617 10.042724,4.300457 11.171874,9.64844 1.39715,-0.63004 2.72087,-1.60984 4.15625,-1.64844 5.03453,-0.13524 10.76541,3.66125 12.03906,9.39844 l 2.67187,12.03906 c 1.43802,-0.78634 2.99996,-1.33146 4.53907,-1.46094 3.19945,-0.26914 6.04179,0.7489 8.26562,2.41406 2.22384,1.66517 3.99824,4.11198 4.64063,7.25782 0.0927,0.45375 0.1335,0.92148 0.15429,1.39453 0.0364,-0.81665 0.003,-1.62375 -0.15429,-2.39453 -0.64239,-3.14584 -2.41679,-5.59265 -4.64063,-7.25782 -2.22383,-1.66516 -5.06617,-2.6832 -8.26562,-2.41406 -1.53911,0.12948 -3.10105,0.6746 -4.53907,1.46094 l -2.67187,-12.03906 C 122.4451,103.66125 116.71422,99.864756 111.67969,100 c -1.43538,0.0386 -2.7591,1.0184 -4.15625,1.64844 C 106.39429,96.300458 101.8736,92.1617 96.351562,92 Z m 32.445318,41.60156 c -0.002,0.002 0.002,0.0132 0,0.0156 l 0.008,-0.0156 z" />
  <rect
     style="fill:#622caa;fill-opacity:1;stroke-width:4"
     width="16"
     height="72"
     x="48"
     y="96"
     rx="6"
     ry="6"
     id="rect20" />
  <rect
     style="fill:#622caa;fill-opacity:1;stroke-width:4"
     width="16"
     height="72"
     x="128"
     y="96"
     rx="6"
     ry="6"
     id="rect22" />
  <path
     style="fill:#399bff;fill-opacity:1;stroke-width:4"
     d="M 96,24 A 64,64 0 0 0 32,88 v 44 H 48 V 88 a 48,48 0 0 1 48,-48 48,48 0 0 1 48,48 v 44 h 16 V 88 A 64,64 0 0 0 96,24 Z"
     id="path24" />
  <path
     id="path26"
     style="opacity:0.2;fill:#ffffff;stroke-width:4"
     d="M 96,24 A 64,64 0 0 0 32,88 v 0.703125 A 64,64 0 0 1 96,25 64,64 0 0 1 160,89 V 88 A 64,64 0 0 0 96,24 Z M 32,96.742188 C 18.302186,100.10679 8,114.61014 8,132 c 0,0.1009 0.00932,0.19868 0.011719,0.29883 C 8.2852034,115.22248 18.487329,101.06131 32,97.742188 Z m 128,0 v 1 c 13.51267,3.319122 23.7148,17.480292 23.98828,34.556642 C 183.99068,132.19868 184,132.1009 184,132 184,114.61014 173.69781,100.10679 160,96.742188 Z" />
  <path
     id="path28"
     style="opacity:0.1;fill:#ffffff;stroke-width:4"
     d="m 54,96 c -3.324,0 -6,2.676 -6,6 v 1 c 0,-3.324 2.676,-6 6,-6 h 4 c 3.324,0 6,2.676 6,6 v -1 c 0,-3.324 -2.676,-6 -6,-6 z m 80,0 c -3.324,0 -6,2.676 -6,6 v 1 c 0,-3.324 2.676,-6 6,-6 h 4 c 3.324,0 6,2.676 6,6 v -1 c 0,-3.324 -2.676,-6 -6,-6 z" />
</svg>
