<svg xmlns="http://www.w3.org/2000/svg" width="48" height="48" version="1">
 <g>
  <rect style="opacity:0.2" width="42" height="40" x="-45.5" y="-44" rx="2.1" ry="2" transform="matrix(0,-1,-1,0,0,0)"/>
  <path style="fill:#6767cf" d="m 4,38 v 4.900391 C 4,44.063791 4.892,45 6,45 h 36 c 1.108,0 2,-0.936209 2,-2.099609 V 38 Z"/>
  <path style="fill:#e4e4e4" d="M 6,3 C 4.892,3 4,3.9362094 4,5.0996094 V 10 H 44 V 5.0996094 C 44,3.9362094 43.108,3 42,3 Z"/>
  <rect style="fill:#ffea00" width="40" height="7" x="4" y="31"/>
  <rect style="fill:#4c872e" width="40" height="7" x="4" y="24"/>
  <rect style="fill:#ec5454" width="40" height="7" x="4" y="17"/>
  <rect style="fill:#4f4f4f" width="40" height="7" x="4" y="10"/>
  <rect style="opacity:0.1" width="40" height=".5" x="4" y="10"/>
  <rect style="opacity:0.1" width="40" height=".5" x="4" y="17"/>
  <rect style="opacity:0.1" width="40" height=".5" x="4" y="24"/>
  <rect style="opacity:0.1" width="40" height=".5" x="4" y="31"/>
  <rect style="opacity:0.1" width="40" height=".5" x="4" y="38"/>
  <path style="opacity:0.2;fill:#ffffff" d="M 6,3 C 4.892,3 4,3.9362094 4,5.0996094 v 0.5 C 4,4.4362094 4.892,3.5 6,3.5 h 36 c 1.108,0 2,0.9362094 2,2.0996094 v -0.5 C 44,3.9362094 43.108,3 42,3 Z"/>
  <path style="opacity:0.1" d="M 12 3 L 12 10 L 20 10 L 20 3 L 12 3 z M 20 10 L 20 17 L 28 17 L 28 10 L 20 10 z M 28 10 L 36 10 L 36 3 L 28 3 L 28 10 z M 36 10 L 36 17 L 44 17 L 44 10 L 36 10 z M 36 17 L 28 17 L 28 24 L 36 24 L 36 17 z M 36 24 L 36 31 L 44 31 L 44 24 L 36 24 z M 36 31 L 28 31 L 28 38 L 36 38 L 36 31 z M 36 38 L 36 45 L 42 45 C 43.108 45 44 44.063791 44 42.900391 L 44 38 L 36 38 z M 28 38 L 20 38 L 20 45 L 28 45 L 28 38 z M 20 38 L 20 31 L 12 31 L 12 38 L 20 38 z M 12 38 L 4 38 L 4 42.900391 C 4 44.063791 4.892 45 6 45 L 12 45 L 12 38 z M 12 31 L 12 24 L 4 24 L 4 31 L 12 31 z M 12 24 L 20 24 L 20 17 L 12 17 L 12 24 z M 12 17 L 12 10 L 4 10 L 4 17 L 12 17 z M 20 24 L 20 31 L 28 31 L 28 24 L 20 24 z"/>
 </g>
</svg>
