<?xml version="1.0" encoding="UTF-8" standalone="no"?>
<svg
   width="192"
   height="192"
   version="1"
   id="svg28"
   sodipodi:docname="apps_vanced_manager.svg"
   inkscape:version="1.1.1 (1:1.1+202109281949+c3084ef5ed)"
   xmlns:inkscape="http://www.inkscape.org/namespaces/inkscape"
   xmlns:sodipodi="http://sodipodi.sourceforge.net/DTD/sodipodi-0.dtd"
   xmlns="http://www.w3.org/2000/svg"
   xmlns:svg="http://www.w3.org/2000/svg"
   xmlns:rdf="http://www.w3.org/1999/02/22-rdf-syntax-ns#"
   xmlns:cc="http://creativecommons.org/ns#"
   xmlns:dc="http://purl.org/dc/elements/1.1/">
  <metadata
     id="metadata34">
    <rdf:RDF>
      <cc:Work
         rdf:about="">
        <dc:format>image/svg+xml</dc:format>
        <dc:type
           rdf:resource="http://purl.org/dc/dcmitype/StillImage" />
      </cc:Work>
    </rdf:RDF>
  </metadata>
  <defs
     id="defs32">
    <filter
       inkscape:collect="always"
       style="color-interpolation-filters:sRGB"
       id="filter6599"
       x="-0.048000001"
       y="-0.048000001"
       width="1.096"
       height="1.096">
      <feGaussianBlur
         inkscape:collect="always"
         stdDeviation="3.2"
         id="feGaussianBlur6601" />
    </filter>
    <filter
       inkscape:collect="always"
       style="color-interpolation-filters:sRGB"
       id="filter6823"
       x="-0.045626561"
       y="-0.05063456"
       width="1.0912531"
       height="1.1012691">
      <feGaussianBlur
         inkscape:collect="always"
         stdDeviation="1.4639755"
         id="feGaussianBlur6825" />
    </filter>
    <filter
       inkscape:collect="always"
       style="color-interpolation-filters:sRGB"
       id="filter6876"
       x="-0.040969756"
       y="-0.057943136"
       width="1.0819395"
       height="1.1158863">
      <feGaussianBlur
         inkscape:collect="always"
         stdDeviation="1.6900024"
         id="feGaussianBlur6878" />
    </filter>
    <filter
       inkscape:collect="always"
       style="color-interpolation-filters:sRGB"
       id="filter3199"
       x="-0.073977148"
       y="-0.076051539"
       width="1.1479543"
       height="1.1521031">
      <feGaussianBlur
         inkscape:collect="always"
         stdDeviation="3.3906392"
         id="feGaussianBlur3201" />
    </filter>
  </defs>
  <sodipodi:namedview
     pagecolor="#ffffff"
     bordercolor="#666666"
     borderopacity="1"
     objecttolerance="10"
     gridtolerance="10"
     guidetolerance="10"
     inkscape:pageopacity="0"
     inkscape:pageshadow="2"
     inkscape:window-width="1920"
     inkscape:window-height="1022"
     id="namedview30"
     showgrid="false"
     inkscape:zoom="1"
     inkscape:cx="99"
     inkscape:cy="110"
     inkscape:window-x="0"
     inkscape:window-y="34"
     inkscape:window-maximized="1"
     inkscape:current-layer="svg28"
     inkscape:pagecheckerboard="0">
    <inkscape:grid
       type="xygrid"
       id="grid841" />
  </sodipodi:namedview>
  <rect
     id="rect6561"
     transform="matrix(0,-1,-1,0,0,0)"
     ry="60"
     rx="60"
     y="-176"
     x="-180"
     height="160"
     width="160"
     style="opacity:0.2;fill:#000000;fill-opacity:1;stroke-width:4;filter:url(#filter6599)" />
  <rect
     id="rect2"
     transform="matrix(0,-1,-1,0,0,0)"
     ry="60"
     rx="60"
     y="-176"
     x="-176"
     height="160"
     width="160"
     style="opacity:1;fill:#3f3f3f;fill-opacity:1;stroke-width:4" />
  <path
     id="path6045"
     style="color:#000000;fill:#fa1449;fill-opacity:1;stroke-linecap:round;stroke-linejoin:round;-inkscape-stroke:none"
     d="m 98.011719,52.086398 a 6,6 0 0 0 -2.339844,0.0625 6,6 0 0 0 -3.748047,2.652343 6,6 0 0 0 1.876953,8.275391 l 11.351559,7.152344 h 22.51172 L 100.19922,52.924288 a 6,6 0 0 0 -2.187501,-0.83789 z" />
  <path
     id="path3161"
     style="opacity:0.2;fill:#000000;fill-opacity:1;stroke-width:2.9161;filter:url(#filter3199)"
     d="m 75,38.000473 c 0,0 -3.002513,-0.08273 -6.183594,1.507812 C 65.635326,41.098827 62,45.500478 62,51.000473 v 12.90625 c -3.464587,0.222352 -6.099612,0.471256 -7.345703,0.742188 -2.867148,0.623379 -5.139034,1.803539 -7.207031,3.746093 -1.645426,1.545618 -2.55002,2.948836 -3.541016,5.490235 -1.088151,2.79066 -1.667115,5.421064 -2.064453,9.380859 -0.757711,7.553245 -0.893832,11.282384 -0.826172,22.662102 0.05743,9.67662 0.101176,10.8011 0.654297,17.01172 0.49014,5.5034 1.024288,8.10624 2.335937,11.38282 1.434619,3.58389 3.420764,5.80648 6.617188,7.40039 1.935329,0.96506 3.652345,1.41596 7.146484,1.8789 4.764699,0.63125 12.55663,0.95622 31.753907,1.32422 15.448502,0.29617 36.117112,-0.33865 44.898442,-1.20898 2.83384,-0.28089 4.59051,-0.71707 6.43554,-1.59571 1.82209,-0.86772 4.00166,-2.59078 5.10547,-4.03711 1.60885,-2.10813 3.03516,-5.81525 3.76172,-9.77539 0.28262,-1.54035 0.70883,-5.84568 1.05469,-10.67968 0.29553,-4.13219 0.29559,-23.162655 0,-27.296876 -0.6225,-8.705715 -1.04318,-11.648454 -2.13868,-14.972656 -1.06318,-3.226178 -1.95681,-4.814541 -3.6914,-6.5625 -2.21627,-2.233338 -4.4871,-3.475519 -7.58203,-4.148437 -1.43751,-0.312549 -3.9671,-0.598397 -7.36719,-0.84375 V 51.000473 c 0,-5.499995 -3.63533,-9.901646 -6.81641,-11.492188 C 120.00251,37.917745 117,38.000473 117,38.000473 Z m 0,12 h 42 c 0,0 0.49749,0.08273 0.81641,0.242188 C 118.13532,50.402119 118,49.500474 118,51.000473 v 12.246094 c -5.35835,-0.153848 -11.64091,-0.246094 -18.916016,-0.246094 -9.10074,0 -17.681393,0.154434 -25.083984,0.386719 V 51.000473 C 74,49.500475 73.864678,50.402119 74.183594,50.242661 74.50251,50.083202 75,50.000473 75,50.000473 Z" />
  <path
     id="path4"
     style="opacity:1;fill:#ffffff;fill-opacity:1;stroke-width:2.9161"
     d="m 75,36.00046 c 0,0 -3.002513,-0.08273 -6.183594,1.507812 C 65.635326,39.098814 62,43.500465 62,49.00046 v 12.90625 c -3.464587,0.222352 -6.099612,0.471256 -7.345703,0.742188 -2.867148,0.623379 -5.139034,1.803539 -7.207031,3.746093 -1.645426,1.545618 -2.55002,2.948836 -3.541016,5.490235 -1.088151,2.79066 -1.667115,5.421064 -2.064453,9.380859 -0.757711,7.553245 -0.893832,11.282384 -0.826172,22.662105 0.05743,9.67662 0.101176,10.8011 0.654297,17.01172 0.49014,5.5034 1.024288,8.10624 2.335937,11.38282 1.434619,3.58389 3.420764,5.80648 6.617188,7.40039 1.935329,0.96506 3.652345,1.41596 7.146484,1.8789 4.764699,0.63125 12.55663,0.95622 31.753907,1.32422 15.448502,0.29617 36.117112,-0.33865 44.898442,-1.20898 2.83384,-0.28089 4.59051,-0.71707 6.43554,-1.59571 1.82209,-0.86772 4.00166,-2.59078 5.10547,-4.03711 1.60885,-2.10813 3.03516,-5.81525 3.76172,-9.77539 0.28262,-1.54035 0.70883,-5.84568 1.05469,-10.67968 0.29553,-4.13219 0.29559,-23.162658 0,-27.296879 -0.6225,-8.705715 -1.04318,-11.648454 -2.13868,-14.972656 -1.06318,-3.226178 -1.95681,-4.814541 -3.6914,-6.5625 -2.21627,-2.233338 -4.4871,-3.475519 -7.58203,-4.148437 -1.43751,-0.312549 -3.9671,-0.598397 -7.36719,-0.84375 V 49.00046 c 0,-5.499995 -3.63533,-9.901646 -6.81641,-11.492188 C 120.00251,35.917732 117,36.00046 117,36.00046 Z m 0,12 h 42 c 0,0 0.49749,0.08273 0.81641,0.242188 C 118.13532,48.402106 118,47.500461 118,49.00046 V 61.246554 C 112.64165,61.092706 106.35909,61.00046 99.083984,61.00046 89.983244,61.00046 81.402591,61.154894 74,61.387179 V 49.00046 C 74,47.500462 73.864678,48.402106 74.183594,48.242648 74.50251,48.083189 75,48.00046 75,48.00046 Z" />
  <path
     id="path6785"
     style="color:#000000;opacity:0.2;fill:#000000;stroke-linecap:round;stroke-linejoin:round;-inkscape-stroke:none;filter:url(#filter6823)"
     d="m 150.48242,86.610277 c 0.0972,1.165479 0.19241,2.261506 0.29688,3.722656 0.12418,1.736843 0.17743,6.239376 0.19726,11.025387 0.97291,0.69734 1.87276,1.36805 2.58399,1.97657 2.14548,1.83564 2.43575,2.88233 2.43554,2.75 -0.0285,0.10494 -0.19054,0.54352 -1.07812,1.53515 -1.24684,1.393 -3.76047,3.43913 -7.55664,5.80469 l -53.402346,31.40429 a 6,6 0 0 0 -2.130859,8.2129 6,6 0 0 0 8.212895,2.13086 l 53.49804,-31.45899 a 6.0006,6.0006 0 0 0 0.12891,-0.0781 c 4.36812,-2.71806 7.69106,-5.22021 10.19141,-8.01368 2.50036,-2.79346 4.33146,-6.28571 4.13281,-10.13671 -0.26054,-5.05084 -3.41239,-8.513919 -6.63086,-11.267581 -3.1611,-2.704573 -6.91325,-5.068155 -10.87891,-7.607422 z" />
  <path
     id="path1711"
     style="color:#000000;fill:#356ef7;stroke-linecap:round;stroke-linejoin:round;-inkscape-stroke:none"
     d="m 150.48242,84.609835 c 0.0972,1.165479 0.19241,2.261506 0.29688,3.722656 0.12418,1.736843 0.17743,6.239376 0.19726,11.025391 0.97291,0.697328 1.87276,1.368048 2.58399,1.976558 2.14548,1.83564 2.43575,2.88234 2.43554,2.75 -0.0285,0.10495 -0.19054,0.54353 -1.07812,1.53516 -1.24684,1.393 -3.76047,3.43913 -7.55664,5.80469 l -53.402346,31.40429 a 6,6 0 0 0 -2.130859,8.2129 6,6 0 0 0 8.212895,2.13086 l 53.49804,-31.45899 a 6.0006,6.0006 0 0 0 0.12891,-0.0781 c 4.36812,-2.71806 7.69106,-5.22021 10.19141,-8.01368 2.50036,-2.79346 4.33146,-6.28571 4.13281,-10.13671 -0.26054,-5.050843 -3.41239,-8.513921 -6.63086,-11.267583 -3.1611,-2.704573 -6.91325,-5.068155 -10.87891,-7.607422 z" />
  <path
     id="path6827"
     style="color:#000000;opacity:0.2;fill:#000000;fill-opacity:1;stroke-width:8;stroke-linecap:round;stroke-linejoin:round;-inkscape-stroke:none;filter:url(#filter6876)"
     d="m 131.26367,69.018132 a 2,2 0 0 0 -2.24609,1.71875 2,2 0 0 0 1.71875,2.246094 c 2.37828,0.31631 4.41246,0.651478 6.05664,1.705078 1.64418,1.0536 3.14259,2.860528 4.2832,6.861328 a 2,2 0 0 0 1.95508,1.451172 2,2 0 0 0 0.51758,-0.07617 2,2 0 0 0 1.375,-2.472656 c -1.31876,-4.62565 -3.42793,-7.50017 -5.97266,-9.13086 -2.54472,-1.630679 -5.2808,-1.982654 -7.6875,-2.302734 z M 144,84.000554 a 2,2 0 0 0 -2,2 2,2 0 0 0 2,2 2,2 0 0 0 2,-2 2,2 0 0 0 -2,-2 z m -54.035156,7 C 87.887687,91.036499 85.999972,92.677904 86,94.961492 v 9.039058 9.03907 c -4.3e-5,3.04479 3.357126,4.94771 6.042969,3.42578 l 7.970701,-4.51953 7.97266,-4.51953 c 2.68447,-1.52279 2.68447,-5.32682 0,-6.84961 l -7.97266,-4.521488 -7.970701,-4.519532 c -0.67146,-0.380484 -1.38574,-0.547138 -2.078125,-0.535156 z M 49,120.00056 a 2,2 0 0 0 -2,2 2,2 0 0 0 2,2 2,2 0 0 0 2,-2 2,2 0 0 0 -2,-2 z m 0.96875,5 a 2,2 0 0 0 -0.517578,0.0762 2,2 0 0 0 -1.375,2.47266 c 1.318758,4.62565 3.427927,7.50017 5.972656,9.13086 2.544729,1.63068 5.280808,1.98265 7.6875,2.30273 a 2,2 0 0 0 2.246094,-1.71875 2,2 0 0 0 -1.71875,-2.24609 c -2.378282,-0.31631 -4.412462,-0.65148 -6.056641,-1.70508 -1.644178,-1.0536 -3.142589,-2.86053 -4.283203,-6.86133 a 2,2 0 0 0 -1.955078,-1.45117 z" />
  <g
     id="path3606"
     inkscape:transform-center-x="-2.638684"
     inkscape:transform-center-y="1.6584048e-06"
     style="opacity:1;fill:#fa1449;fill-opacity:1"
     transform="translate(0,6.0004602)">
    <path
       style="color:#000000;fill:#fa1449;fill-opacity:1;stroke-width:8;stroke-linecap:round;stroke-linejoin:round;-inkscape-stroke:none"
       d="m 106.2767,96.068611 -7.91606,4.570339 -7.916057,4.57034 v -9.140679 -9.140674 l 7.916057,4.570337 z"
       id="path3690" />
    <path
       style="color:#000000;fill:#fa1449;fill-opacity:1;stroke-width:0.997907;stroke-linecap:round;stroke-linejoin:round;-inkscape-stroke:none"
       d="M 92.042494,83.535515 C 89.356654,82.013579 85.999963,83.916822 86,86.961606 v 9.038392 9.038392 c -4.3e-5,3.04479 3.356651,4.94803 6.042494,3.4261 l 7.972086,-4.5192 7.97207,-4.5192 c 2.68447,-1.522789 2.68447,-5.327462 0,-6.850251 l -7.97207,-4.521128 z"
       id="path3692"
       sodipodi:nodetypes="cccccccccc" />
  </g>
  <path
     id="path3858"
     style="color:#000000;opacity:1;fill:#f4053c;fill-opacity:1;stroke-linecap:round;stroke-linejoin:round;-inkscape-stroke:none"
     d="m 49,118.00046 a 2,2 0 0 0 -2,2 2,2 0 0 0 2,2 2,2 0 0 0 2,-2 2,2 0 0 0 -2,-2 z m 0.96875,5 a 2,2 0 0 0 -0.517578,0.0762 2,2 0 0 0 -1.375,2.47266 c 1.318758,4.62565 3.427927,7.50017 5.972656,9.13086 2.544729,1.63068 5.280808,1.98265 7.6875,2.30273 a 2,2 0 0 0 2.246094,-1.71875 2,2 0 0 0 -1.71875,-2.24609 c -2.378282,-0.31631 -4.412462,-0.65148 -6.056641,-1.70508 -1.644178,-1.0536 -3.142589,-2.86053 -4.283203,-6.86133 a 2,2 0 0 0 -1.955078,-1.45117 z" />
  <path
     id="path4687"
     style="color:#000000;opacity:1;fill:#356ef7;fill-opacity:1;stroke-linecap:round;stroke-linejoin:round;-inkscape-stroke:none"
     d="m 143.99986,86.00046 a 2,2 0 0 0 2,-2 2,2 0 0 0 -2,-2 2,2 0 0 0 -2,2 2,2 0 0 0 2,2 z m -0.96875,-5 a 2,2 0 0 0 0.51758,-0.0762 2,2 0 0 0 1.375,-2.47266 c -1.31876,-4.62565 -3.42793,-7.50017 -5.97266,-9.13086 -2.54472,-1.63068 -5.2808,-1.98265 -7.6875,-2.30273 a 2,2 0 0 0 -2.24609,1.71875 2,2 0 0 0 1.71875,2.24609 c 2.37828,0.31631 4.41246,0.65148 6.05664,1.70508 1.64418,1.0536 3.14259,2.86053 4.2832,6.86133 a 2,2 0 0 0 1.95508,1.45117 z" />
  <path
     id="rect6603"
     style="opacity:0.1;fill:#ffffff;fill-opacity:1;stroke-width:4"
     d="M 76 16 C 42.76 16 16 42.76 16 76 L 16 77 C 16 43.76 42.76 17 76 17 L 116 17 C 149.24 17 176 43.76 176 77 L 176 76 C 176 42.76 149.24 16 116 16 L 76 16 z " />
</svg>
