<?xml version="1.0" encoding="UTF-8" standalone="no"?>
<svg
   width="192"
   height="192"
   version="1"
   id="svg28"
   sodipodi:docname="apps_foxfi.svg"
   inkscape:version="1.1-rc (1:1.1+rc+202105232036+f4db50c7c1)"
   xmlns:inkscape="http://www.inkscape.org/namespaces/inkscape"
   xmlns:sodipodi="http://sodipodi.sourceforge.net/DTD/sodipodi-0.dtd"
   xmlns="http://www.w3.org/2000/svg"
   xmlns:svg="http://www.w3.org/2000/svg"
   xmlns:rdf="http://www.w3.org/1999/02/22-rdf-syntax-ns#"
   xmlns:cc="http://creativecommons.org/ns#"
   xmlns:dc="http://purl.org/dc/elements/1.1/">
  <metadata
     id="metadata34">
    <rdf:RDF>
      <cc:Work
         rdf:about="">
        <dc:format>image/svg+xml</dc:format>
        <dc:type
           rdf:resource="http://purl.org/dc/dcmitype/StillImage" />
      </cc:Work>
    </rdf:RDF>
  </metadata>
  <defs
     id="defs32">
    <filter
       inkscape:collect="always"
       style="color-interpolation-filters:sRGB"
       id="filter6495"
       x="-0.048000001"
       y="-0.048000001"
       width="1.096"
       height="1.096">
      <feGaussianBlur
         inkscape:collect="always"
         stdDeviation="3.2"
         id="feGaussianBlur6497" />
    </filter>
    <filter
       inkscape:collect="always"
       style="color-interpolation-filters:sRGB"
       id="filter12436"
       x="-0.038702702"
       y="-0.063176469"
       width="1.0774054"
       height="1.1263529">
      <feGaussianBlur
         inkscape:collect="always"
         stdDeviation="1.79"
         id="feGaussianBlur12438" />
    </filter>
  </defs>
  <sodipodi:namedview
     pagecolor="#ffffff"
     bordercolor="#666666"
     borderopacity="1"
     objecttolerance="10"
     gridtolerance="10"
     guidetolerance="10"
     inkscape:pageopacity="0"
     inkscape:pageshadow="2"
     inkscape:window-width="1920"
     inkscape:window-height="1019"
     id="namedview30"
     showgrid="false"
     inkscape:zoom="1"
     inkscape:cx="105.5"
     inkscape:cy="99.5"
     inkscape:window-x="0"
     inkscape:window-y="34"
     inkscape:window-maximized="1"
     inkscape:current-layer="svg28"
     inkscape:pagecheckerboard="0">
    <inkscape:grid
       type="xygrid"
       id="grid841" />
  </sodipodi:namedview>
  <rect
     id="rect6457"
     transform="matrix(0,-1,-1,0,0,0)"
     ry="12"
     rx="12"
     y="-176"
     x="-180"
     height="160"
     width="160"
     style="opacity:0.2;fill:#000000;fill-opacity:1;stroke-width:4;filter:url(#filter6495)" />
  <rect
     id="rect2"
     transform="matrix(0,-1,-1,0,0,0)"
     ry="12"
     rx="12"
     y="-176"
     x="-180"
     height="160"
     width="160"
     style="fill:#e4e4e4;fill-opacity:1;stroke-width:4" />
  <path
     id="path12359"
     style="font-weight:bold;font-size:40px;line-height:1.25;-inkscape-font-specification:'sans-serif Bold';opacity:0.2;fill:#000000;fill-opacity:1;stroke-width:1.1332;filter:url(#filter12436)"
     d="M 101.98828,64 C 84.492627,64.066134 72.337891,76.919922 72.337891,76.919922 l 4.324218,4.160156 c 0,0 10.826114,-11.025179 25.349611,-11.080078 z m 0.0234,6 c 14.52349,0.0549 25.34961,11.080078 25.34961,11.080078 l 4.32422,-4.160156 c 0,0 -12.15473,-12.853792 -29.65039,-12.919922 z m -0.0234,9 c -8.361677,0.03161 -14.754555,4.064014 -19.224608,8.404297 l 4.388672,4.244141 C 90.771475,88.188944 95.75934,85.039257 101.96484,85 c 0.0158,6e-5 0.0312,-9.9e-5 0.0469,0 6.21182,0.0393 11.2042,3.194564 14.82422,6.658203 l 4.38867,-4.242187 C 116.754,83.071371 110.35732,79.031637 101.98828,79 Z M 102,93 a 12,12 0 0 0 -9.107422,4.195312 L 102,106 111.10938,97.195312 A 12,12 0 0 0 102,93 Z m -62,9 v 30 h 7 v -12 h 13 v -6 H 47 v -6 h 13 v -6 z m 79,0 v 30 h 7 v -12 h 13 v -6 h -13 v -6 h 13 v -6 z m 25,0 v 6 h 7 v -6 z m -67.931641,6 c -3.750472,0 -6.700208,1.0321 -8.847656,3.0957 C 65.073255,113.1593 64,116.1125 64,119.95703 c 0,2.57243 0.514613,4.76307 1.542969,6.57227 1.028355,1.78091 2.43425,3.1394 4.21875,4.07226 1.814744,0.93286 3.871245,1.39844 6.169922,1.39844 3.720226,0 6.655286,-1.0468 8.802734,-3.13867 C 86.912069,126.76945 88,123.80155 88,119.95703 c 0,-2.57244 -0.514613,-4.73367 -1.542969,-6.48633 -1.028355,-1.78091 -2.43425,-3.1394 -4.21875,-4.07226 C 80.453782,108.46558 78.397281,108 76.068359,108 Z m 13.34375,0 8.056641,11.73633 L 89,132 h 7.736328 L 102,123.7793 107.26367,132 H 115 L 106.48633,119.73633 114.63477,108 h -7.73633 L 102,115.64844 97.148438,108 Z M 144,111 v 21 h 7 v -21 z m -68.021484,2 c 1.777777,0 3.051895,0.58594 3.822265,1.75977 0.8,1.14519 1.199219,2.87824 1.199219,5.19726 0,2.31902 -0.399219,4.08076 -1.199219,5.2832 C 79.030411,126.41406 77.769632,127 76.021484,127 74.243707,127 72.95625,126.41406 72.15625,125.24023 71.385879,124.03779 71,122.27605 71,119.95703 c 0,-2.31902 0.385879,-4.05207 1.15625,-5.19726 0.8,-1.17383 2.074118,-1.75977 3.822266,-1.75977 z" />
  <path
     id="rect6416"
     style="opacity:0.2;fill:#ffffff;fill-opacity:1;stroke-width:4"
     d="m 28,16 c -6.648,0 -12,5.352 -12,12 v 1 c 0,-6.648 5.352,-12 12,-12 h 136 c 6.648,0 12,5.352 12,12 v -1 c 0,-6.648 -5.352,-12 -12,-12 z" />
  <path
     id="path8563"
     style="font-weight:bold;font-size:40px;line-height:1.25;-inkscape-font-specification:'sans-serif Bold';fill:#15a8fb;fill-opacity:1;stroke-width:1.1332"
     d="m 40,100 v 30 h 7 v -12 h 13 v -6 H 47 v -6 h 13 v -6 z m 79,0 v 30 h 7 v -12 h 13 v -6 h -13 v -6 h 13 v -6 z m 25,0 v 6 h 7 v -6 z m -67.931641,6 c -3.750472,0 -6.700208,1.0321 -8.847656,3.0957 C 65.073255,111.1593 64,114.1125 64,117.95703 c 0,2.57243 0.514613,4.76307 1.542969,6.57227 1.028355,1.78091 2.43425,3.1394 4.21875,4.07226 1.814744,0.93286 3.871245,1.39844 6.169922,1.39844 3.720226,0 6.655286,-1.0468 8.802734,-3.13867 C 86.912069,124.76945 88,121.80155 88,117.95703 c 0,-2.57244 -0.514613,-4.73367 -1.542969,-6.48633 -1.028355,-1.78091 -2.43425,-3.1394 -4.21875,-4.07226 C 80.453782,106.46558 78.397281,106 76.068359,106 Z m 13.34375,0 8.056641,11.73633 L 89,130 h 7.736328 L 102,121.7793 107.26367,130 H 115 L 106.48633,117.73633 114.63477,106 h -7.73633 L 102,113.64844 97.148438,106 Z M 144,109 v 21 h 7 v -21 z m -68.021484,2 c 1.777777,0 3.051895,0.58594 3.822265,1.75977 0.8,1.14519 1.199219,2.87824 1.199219,5.19726 0,2.31902 -0.399219,4.08076 -1.199219,5.2832 C 79.030411,124.41406 77.769632,125 76.021484,125 74.243707,125 72.95625,124.41406 72.15625,123.24023 71.385879,122.03779 71,120.27605 71,117.95703 c 0,-2.31902 0.385879,-4.05207 1.15625,-5.19726 0.8,-1.17383 2.074118,-1.75977 3.822266,-1.75977 z" />
  <path
     id="path9746"
     style="color:#000000;fill:#355ade;fill-opacity:1;-inkscape-stroke:none"
     d="M 101.98828,62 C 84.492626,62.066134 72.337891,74.919922 72.337891,74.919922 l 4.324218,4.160156 c 0,0 10.826115,-11.025179 25.349611,-11.080078 z m 0.0234,6 c 14.52349,0.0549 25.34961,11.080078 25.34961,11.080078 l 4.32422,-4.160156 c 0,0 -12.15473,-12.853792 -29.65039,-12.919922 z m -0.0234,9 c -8.361678,0.03161 -14.754555,4.064014 -19.224608,8.404297 l 4.388672,4.244141 C 90.771475,86.188944 95.759336,83.039257 101.96484,83 c 0.0158,6e-5 0.0312,-9.9e-5 0.0469,0 6.21182,0.0393 11.2042,3.194564 14.82422,6.658203 l 4.38867,-4.242187 C 116.75402,81.071371 110.35732,77.031637 101.98828,77 Z M 102,91 a 12,12 0 0 0 -9.107422,4.195312 L 102,104 111.10938,95.195312 A 12,12 0 0 0 102,91 Z" />
</svg>
