<?xml version="1.0" encoding="UTF-8" standalone="no"?>
<svg
   width="192"
   height="192"
   version="1"
   id="svg28"
   sodipodi:docname="apps_lawnchair_launcher.svg"
   inkscape:version="1.1-rc (1:1.1+rc+202105232036+f4db50c7c1)"
   xmlns:inkscape="http://www.inkscape.org/namespaces/inkscape"
   xmlns:sodipodi="http://sodipodi.sourceforge.net/DTD/sodipodi-0.dtd"
   xmlns="http://www.w3.org/2000/svg"
   xmlns:svg="http://www.w3.org/2000/svg"
   xmlns:rdf="http://www.w3.org/1999/02/22-rdf-syntax-ns#"
   xmlns:cc="http://creativecommons.org/ns#"
   xmlns:dc="http://purl.org/dc/elements/1.1/">
  <rect
     id="rect2"
     transform="matrix(0,-1,-1,0,0,0)"
     ry="10.5"
     rx="10.5"
     y="-166"
     x="-166"
     height="140"
     width="140"
     style="fill:#3981eb;fill-opacity:1;stroke-width:3.5" />
  <path
     id="rect5113"
     style="opacity:0.2;fill:#ffffff;fill-opacity:1;stroke-width:3.5"
     d="M 36.5,26 C 30.683,26 26,30.683 26,36.5 v 1 C 26,31.683 30.683,27 36.5,27 h 119 c 5.817,0 10.5,4.683 10.5,10.5 v -1 C 166,30.683 161.317,26 155.5,26 Z" />
  <path
     id="path5068"
     style="opacity:0.2;fill:#000000;fill-opacity:1;stroke-width:11.6645;stroke-linecap:round;stroke-linejoin:round;filter:url(#filter5109);stop-color:#000000"
     d="m 145,20 a 31,31 0 0 0 -31,31 31,31 0 0 0 31,31 31,31 0 0 0 31,-31 31,31 0 0 0 -31,-31 z m -49,86.07617 c -20.322131,0 -84,9.54204 -84,43.92383 v 14.70508 C 12,173.17845 19.053103,180 27.814453,180 H 96 164.18555 C 172.9469,180 180,173.17845 180,164.70508 V 150 c 0,-34.38179 -63.67787,-43.92383 -84,-43.92383 z" />
  <path
     id="rect1227"
     style="fill:#1ecc56;fill-opacity:1;stroke-width:11.6645;stroke-linecap:round;stroke-linejoin:round;stop-color:#000000"
     d="m 96,102.07617 c -20.322131,0 -84,9.54204 -84,43.92383 v 14.70508 C 12,169.17845 19.053103,176 27.814453,176 H 96 164.18555 C 172.9469,176 180,169.17845 180,160.70508 V 146 c 0,-34.38179 -63.67787,-43.92383 -84,-43.92383 z" />
  <path
     id="path5115"
     style="opacity:0.2;fill:#ffffff;fill-opacity:1;stroke-width:11.6645;stroke-linecap:round;stroke-linejoin:round;stop-color:#000000"
     d="m 96,102.07617 c -20.322131,0 -84,9.54204 -84,43.92383 v 1 c 0,-34.38179 63.677869,-43.92383 84,-43.92383 20.32213,0 84,9.54204 84,43.92383 v -1 c 0,-34.38179 -63.67787,-43.92383 -84,-43.92383 z" />
  <path
     style="color:#000000;fill:#dfdfdf;fill-opacity:1;stroke-linecap:round;stroke-linejoin:round;-inkscape-stroke:none"
     d="M 96.271484,86.046875 A 7,7 0 0 0 91.3125,88.076172 L 58.072266,121.0293 a 7,7 0 0 0 -0.04297,9.89843 7,7 0 0 0 9.898437,0.043 L 101.16992,98.017578 a 7,7 0 0 0 0.043,-9.898437 7,7 0 0 0 -4.941406,-2.072266 z"
     id="path2277" />
  <path
     style="color:#000000;opacity:0.2;fill:#000000;fill-opacity:1;stroke-linecap:round;stroke-linejoin:round;-inkscape-stroke:none;filter:url(#filter5060)"
     d="M 128.33398,93.527068 60.333984,121.52706 a 7,7 0 0 0 -3.80664,9.13868 7,7 0 0 0 9.138672,3.80664 l 68.000004,-28 a 7,7 0 0 0 3.80664,-9.138672 7,7 0 0 0 -9.13868,-3.80664 z"
     id="path4940" />
  <path
     style="color:#000000;fill:#f2f2f2;fill-opacity:1;stroke-linecap:round;stroke-linejoin:round;-inkscape-stroke:none"
     d="M 128.33398,91.527344 60.333984,119.52734 a 7,7 0 0 0 -3.80664,9.13868 7,7 0 0 0 9.138672,3.80664 l 68.000004,-28 a 7,7 0 0 0 3.80664,-9.138676 7,7 0 0 0 -9.13868,-3.80664 z"
     id="path2587" />
  <circle
     style="fill:#fec735;fill-opacity:1;stroke-width:13.9671;stroke-linecap:round;stroke-linejoin:round;stroke-miterlimit:4;stroke-dasharray:none;stop-color:#000000"
     id="path3020"
     cx="145"
     cy="47"
     r="31" />
  <path
     style="color:#000000;opacity:0.2;fill:#000000;stroke-linecap:round;stroke-linejoin:round;-inkscape-stroke:none;filter:url(#filter5064)"
     d="m 63,53.999724 a 7,7 0 0 0 -4.949219,2.050781 7,7 0 0 0 0,9.898438 l 66.999999,66.999997 a 7,7 0 0 0 9.89844,0 7,7 0 0 0 0,-9.89844 L 67.949219,56.050505 A 7,7 0 0 0 63,53.999724 Z"
     id="path4942" />
  <path
     style="color:#000000;fill:#ffffff;stroke-linecap:round;stroke-linejoin:round;-inkscape-stroke:none"
     d="m 63,52 a 7,7 0 0 0 -4.949219,2.050781 7,7 0 0 0 0,9.898438 l 66.999999,67.000001 a 7,7 0 0 0 9.89844,0 7,7 0 0 0 0,-9.89844 L 67.949219,54.050781 A 7,7 0 0 0 63,52 Z"
     id="path1782" />
  <path
     id="circle5117"
     style="opacity:0.2;fill:#ffffff;fill-opacity:1;stroke-width:13.9671;stroke-linecap:round;stroke-linejoin:round;stroke-miterlimit:4;stroke-dasharray:none;stop-color:#000000"
     d="m 145,16 a 31,31 0 0 0 -31,31 31,31 0 0 0 0.0352,0.5 A 31,31 0 0 1 145,17 31,31 0 0 1 175.98242,47.253906 31,31 0 0 0 176,47 31,31 0 0 0 145,16 Z" />
  <metadata
     id="metadata34">
    <rdf:RDF>
      <cc:Work
         rdf:about="">
        <dc:format>image/svg+xml</dc:format>
        <dc:type
           rdf:resource="http://purl.org/dc/dcmitype/StillImage" />
      </cc:Work>
    </rdf:RDF>
  </metadata>
  <defs
     id="defs32">
    <filter
       inkscape:collect="always"
       style="color-interpolation-filters:sRGB"
       id="filter5060"
       x="-0.036292439"
       y="-0.070856221"
       width="1.0725849"
       height="1.1417124">
      <feGaussianBlur
         inkscape:collect="always"
         stdDeviation="1.24"
         id="feGaussianBlur5062" />
    </filter>
    <filter
       inkscape:collect="always"
       style="color-interpolation-filters:sRGB"
       id="filter5064"
       x="-0.048001562"
       y="-0.048000938"
       width="1.0960031"
       height="1.0960019">
      <feGaussianBlur
         inkscape:collect="always"
         stdDeviation="1.6200105"
         id="feGaussianBlur5066" />
    </filter>
    <filter
       inkscape:collect="always"
       style="color-interpolation-filters:sRGB"
       id="filter5109"
       x="-0.046857142"
       y="-0.0492"
       width="1.0937143"
       height="1.0984">
      <feGaussianBlur
         inkscape:collect="always"
         stdDeviation="3.28"
         id="feGaussianBlur5111" />
    </filter>
  </defs>
  <sodipodi:namedview
     pagecolor="#ffffff"
     bordercolor="#666666"
     borderopacity="1"
     objecttolerance="10"
     gridtolerance="10"
     guidetolerance="10"
     inkscape:pageopacity="0"
     inkscape:pageshadow="2"
     inkscape:window-width="1920"
     inkscape:window-height="1019"
     id="namedview30"
     showgrid="false"
     inkscape:zoom="2.16"
     inkscape:cx="46.527778"
     inkscape:cy="86.342593"
     inkscape:window-x="0"
     inkscape:window-y="34"
     inkscape:window-maximized="1"
     inkscape:current-layer="svg28"
     inkscape:pagecheckerboard="0">
    <inkscape:grid
       type="xygrid"
       id="grid841" />
  </sodipodi:namedview>
</svg>
