<svg width="48" height="48" version="1" xmlns="http://www.w3.org/2000/svg">
 <rect transform="matrix(0,-1,-1,0,0,0)" x="-45" y="-44" width="40" height="40" rx="20" ry="20" style="fill:#000000;opacity:.2"/>
 <path transform="matrix(0,-1,-1,0,0,0)" d="m-25.066667-42.488889c2.105023 0 5.19875-1.189153 7.101492-0.591593 6.985374 2.193773 12.295213 8.102069 13.635866 15.431237 0.2163273 1.182632-1.7151353 2.846703-1.7151353 4.093689 0 11.08-6.6088886 18.488889-17.688889 18.488889-1.861579 0-3.928852 0.814871-5.636424 0.3433403-7.301718-2.0163033-12.902329-8.0504326-14.295094-15.595647-0.220133-1.192559 1.709295-2.689534 1.709295-3.947694 0-11.08 5.808889-18.222222 16.888889-18.222222z" style="fill:#5257c9"/>
 <path d="m21.441 4.1669c-2.6007 0.3296-5.0387 1.1589-7.2246 2.3828l1.4199 0.35547 0.91797 0.64258v0.55078l1.5625 1.0117-0.366 1.4707-0.826-0.6425-0.553 0.6425-0.643 0.3672-0.367-1.1035 0.184-0.6426-0.184-0.4589-0.91992-0.82812h-0.36719l0.36719 0.91992v0.82617c-0.361-0.1007-0.733-0.1366-1.103-0.1837l1.0117 0.73633 0.0918 0.45898 1.1953 1.0117 1.1934-0.27539v-0.73633l0.55273 0.36719-0.27539 0.64453h0.91797l0.46094 0.82617 0.55078 0.64453 1.1035 0.18359-0.64453 0.64258-0.18359 0.64453h0.82812l1.0098 0.55078v1.6543h-0.45898l-0.45898 0.45898-1.0117-0.45898-0.36719-1.0117-0.73633-0.45898-0.0918-0.36719-1.1934-0.27539-0.64453 0.73438-0.73438 0.36719 0.45898 0.82812-0.64258-0.18359-0.36914-0.82812 0.82812-0.91797h-0.36719l-0.73633 0.64258-0.18359 0.91992-0.64258 0.82617-0.18359-1.1934-0.36914-0.18555c-0.38921 0.41226-0.68194 0.91494-1.0098 1.3789l-1.2871 0.0918-0.64453 0.46094 0.27734 0.45898 0.73438 0.64258h1.0117l1.3789-0.45898 0.64258 0.0918 0.55078 0.55078 1.4707-1.4707 1.0117-0.27539 1.4707 0.18359 1.3789 0.36914c0.75091 0.86861 1.4943 1.762 2.2051 2.6641l0.82812 2.1152-0.36914 0.36719 0.73633 1.1035-0.82812 1.9297c-0.66939 0.77259-1.3531 1.5238-2.0215 2.2969l-1.0117-0.82617-0.36719 0.45898-1.1035-0.64258-0.36719 0.36719h-1.0098l-0.64453 0.73438 0.36719 1.2871-0.73438 0.82812 0.0918 1.4707-0.64258 1.1016 0.45898 0.91992c0.03918 0.66893 0.0918 1.3524 0.0918 2.0215-0.32261 0.90638-0.70707 1.7531-1.0117 2.666l-0.18359 1.4707v0.73438h-0.55078l-0.91992-0.55078h-0.87695c3.2752 2.3409 7.2806 3.7324 11.631 3.7324 3.2668 0 6.3367-0.79238 9.0547-2.1699l0.04492-0.0918-0.64453-0.64258-0.18359-0.64453-1.0098-0.27539-0.73633-2.0215 0.18359-0.45898-0.45898-0.82812-1.1953-0.27539-0.55078-1.3789 0.0918-1.8379-0.91992-1.2871-0.0918-1.2871c1.2542-0.63455 2.4329-1.2763 3.6777-1.9297l0.64258-1.2871 1.1035-0.27539 0.64258-1.6543 1.4707 0.18359 1.3789-1.0098 1.3789 1.2852v0.18359c0.41618-0.12265 0.91654-0.13483 1.2871-0.36719l0.27539-0.91797v-0.91992l0.91797 0.0918c-0.07647-0.61788-0.19863-1.3119-0.27539-1.9297h0.55274l0.55078 0.73438 0.55078 0.27539 0.73633-0.45898 0.0918-0.91797-0.0918-1.1035-1.1953-0.82812h-0.91797l-0.18555-0.55078-1.1016 0.27539-0.82812 1.0117-0.18359-1.7461-1.4707-1.1953-0.45898-1.3789-1.1035-0.45898-0.64258-0.82812-1.3789-0.27539-0.64453-1.1035h2.0234l-1.2871-0.55078h-0.91992l-1.1934-0.45898-0.18555 1.1934-0.55078-0.82617 0.64258-0.45898-0.18359-0.46094 0.46094-0.45898 0.55078-0.0918-0.18359-0.55078 0.45898-0.82813 0.91992 0.36719-0.18359-0.73438 1.1016-0.64453 0.82812 1.5625-0.0918 0.46094 0.82617 0.36719 0.55274 1.1953 0.18359-1.1035 1.4707-0.55078 0.27539-0.82813-1.9297-1.1035-0.82812-0.82617-0.0918-1.0117 0.04883-0.029297c-0.212-0.1415-0.437-0.2652-0.655-0.3986l0.33203 0.79688h-0.91992l-0.27539-0.73633-0.82617 0.64258h-0.73633v-0.73438l0.82812-0.36914 0.73438 0.46094-0.0918-0.18359c-0.37-0.2668-0.725-0.5713-1.102-0.8282l-0.92 0.2774c-0.571 0.396-1.082 0.7979-1.654 1.1933l-0.92-0.8261 1.012-0.3672 0.367-0.9199 0.717-0.0801c-0.387-0.1432-0.772-0.2886-1.17-0.4082l-1.8438 1.3164v0.82617l0.734 0.8281-1.009 2.0215-0.737-0.3672-0.826-1.3789c-1.234-0.3892-2.421-0.8406-3.586-1.3789l0.0918 0.55078-0.55078 0.36914-1.0117-0.73633 0.46094-0.55078 0.73438 0.36719 0.0918-0.091797-0.9043-2.4629zm-9.1953 3.6562c-0.31232 0.22688-0.62953 0.44721-0.92774 0.69141l0.36524 0.41211 1.0117-1.1035h-0.44922zm7.6172 1.0117h0.55274v0.55078l-0.36719 0.45898v0.82812l0.18359 1.1953-0.921-0.184-0.734-0.644 0.643-0.6426c0.20147-0.54769 0.39028-1.0372 0.64258-1.5625zm1.3789 1.1953 0.55273 0.18359-0.0918 1.1016-0.828-0.4587 0.367-0.8261zm-14.338 9.375-0.8281 0.918-0.918-0.092c-0.3231 0.3-0.6443 0.557-0.9453 0.856-0.1377 0.951-0.2129 1.924-0.2129 2.914 0 6.5672 3.1481 12.356 8.0078 15.998l-1.244-1.477 0.186-0.642-1.1038-0.92 0.8258-0.828-0.9176-0.735-0.9199-0.55-0.3672-0.461 0.27539-1.0098v-2.5742l-0.73438-1.5625-0.82812-0.91992-1.0117-2.3887v-0.64453c0.47308 0.06082 0.916 0.15202 1.3789 0.18555l-0.9184-1.011-1.2871-0.92-0.7363-0.826v-0.82812c0.15765-0.30321 0.30229-0.70657 0.46094-1.0098l0.64258 0.82617 0.45898-0.64258 0.73633-0.55273v-1.1016zm3.584 0.45898-0.82617 1.0098-1.1035 2.2988-0.64258 0.73438 0.36719 0.82812-0.64258 0.73438c0.26853 0.01765 0.55022 0 0.82617 0 0.50128-1.0748 0.90537-2.1842 1.2871-3.3086l0.64258-0.73437 0.36914-1.3789-0.27734-0.18359zm33.498 3.6113c-0.03666 0.06408-0.13281 0.24805-0.13281 0.24805l-1.5625 0.91992-1.6543 0.45898-0.64453 0.91992-1.1016 0.82617-0.55273-0.18359-0.45898 0.27539v0.0918l0.55078 1.7461 0.46094 0.64453-0.0918 0.36719 0.36719 1.3789-1.3789 2.4824-1.3789 1.2852-0.64258 0.82812 0.0918 1.9297-0.46094 1.0117 0.33789 1.4844c5.0068-3.628 8.2656-9.5065 8.2656-16.189 0-0.17608-0.0092-0.35043-0.01367-0.52539z" opacity=".2"/>
 <path d="M 24,5 C 12.92,5 4,13.92 4,25 c 0,2.474049 0.4650832,4.830268 1.2792969,7.013672 L 5.3398438,32 l 0.1875,-1.75 c 0.4107121,-3.840488 1.4566506,-6.12726 3.9863281,-8.720703 2.6032751,-2.314828 4.8537901,-4.002472 8.3007811,-5.166016 1.672662,-0.549186 2.976775,-0.803113 6.431641,-1.253906 4.110973,-0.536402 5.429418,-1.016485 6.677734,-2.4375 C 31.518701,11.994703 32,10.845718 32,10.105469 32,9.3122198 31.516944,8.2057839 30.839844,7.4511719 30.317535,6.8690697 29.237572,6.0356249 28.128906,5.4277344 26.796892,5.1501783 25.41678,5 24,5 Z" style="fill:#000000;opacity:.2;stroke-width:.1518821"/>
 <path d="m24 4c-11.08 0-20 8.92-20 20 0 2.474049 0.4650832 4.830268 1.2792969 7.013672l0.0605469-0.013672 0.1875-1.75c0.4107121-3.840488 1.4566506-6.12726 3.9863281-8.720703 2.6032751-2.314828 4.8537901-4.002472 8.3007811-5.166016 1.672662-0.549186 2.976775-0.803113 6.431641-1.253906 4.110973-0.536402 5.429418-1.016485 6.677734-2.4375 0.594873-0.677172 1.076172-1.8261572 1.076172-2.5664062 0-0.793249-0.483056-1.8996849-1.160156-2.6542969-0.522309-0.5821022-1.602272-1.415547-2.710938-2.0234375-1.332014-0.2775561-2.712126-0.4277344-4.128906-0.4277344z" style="fill:#fbb829;stroke-width:.1518821"/>
 <path d="m24 4c-11.08 0-20 8.92-20 20 0 0.168-4e-3 0.333 0 0.5 0.2644-10.846 9.088-19.5 20-19.5s19.736 8.654 20 19.5c4e-3 -0.167 0-0.332 0-0.5 0-11.08-8.92-20-20-20z" fill="#fff" opacity=".2"/>
 <path d="m24 44c11.08 0 20-8.92 20-20 0-2.474049-0.465083-4.830268-1.279297-7.013672l-0.06055 0.01367-0.1875 1.75c-0.410712 3.840488-1.456651 6.12726-3.986328 8.720703-2.603275 2.314828-4.85379 4.002472-8.300781 5.166016-1.672662 0.549186-2.976775 0.803113-6.431641 1.253906-4.110973 0.536402-5.429418 1.016485-6.677734 2.4375-0.59487 0.677172-1.076169 1.826157-1.076169 2.566406 0 0.793249 0.483056 1.899685 1.160156 2.654297 0.522309 0.582102 1.602272 1.415547 2.710938 2.023438 1.332014 0.277556 2.712126 0.427734 4.128906 0.427734z" style="fill:#63d0fc;stroke-width:.1518821"/>
 <path d="m42.720703 16.986328-0.060547 0.013672-0.1875 1.75c-0.410712 3.840488-1.456651 6.12726-3.986328 8.720703-2.603275 2.314828-4.85379 4.002472-8.300781 5.166016-1.672662 0.549186-2.976775 0.803113-6.431641 1.253906-4.110973 0.536402-5.429418 1.016485-6.677734 2.4375-0.59487 0.677172-1.076172 1.826157-1.076172 2.566406 0 0.155555 0.033387 0.32928 0.068359 0.503907 0.14272-0.694322 0.532509-1.52925 1.007813-2.070313 1.248316-1.421015 2.566761-1.901098 6.677734-2.4375 3.454866-0.450793 4.758979-0.70472 6.431641-1.253906 3.446991-1.163544 5.697506-2.851188 8.300781-5.166016 2.529677-2.593443 3.575616-4.880215 3.986328-8.720703l0.1875-1.75 0.060547-0.013672c0.776023 2.080991 1.222332 4.322569 1.263672 6.669922 0.007002-0.218575 0.015625-0.435913 0.015625-0.65625 0-2.474049-0.465083-4.830268-1.279297-7.013672z" style="fill:#ffffff;opacity:.1;stroke-width:.1518821"/>
</svg>
