<svg width="48" height="48" version="1" xmlns="http://www.w3.org/2000/svg">
 <path d="m4.0117 24.5c-0.0041 0.167-0.0117 0.332-0.0117 0.5 0 11.08 8.92 20 20 20s20-8.92 20-20c0-0.16787-0.0076-0.33314-0.01172-0.5-0.264 10.846-9.076 19.5-19.988 19.5s-19.724-8.654-19.988-19.5z" opacity=".2"/>
 <rect transform="matrix(0,-1,-1,0,0,0)" x="-44" y="-44" width="40" height="40" rx="20" ry="20" fill="#e4e4e4"/>
 <path d="m24 4c-11.08 0-20 8.92-20 20 0 0.168 8e-3 0.333 0.0117 0.5 0.2647-10.846 9.0763-19.5 19.988-19.5s19.724 8.6539 19.988 19.5c4e-3 -0.16686 0.0117-0.33213 0.0117-0.5 0-11.08-8.92-20-20-20z" fill="#fff" opacity=".2"/>
 <path d="m24 43.00003v-17m-15-13 15 13 15-13" style="fill:none;opacity:.2;stroke-linecap:round;stroke-linejoin:round;stroke-width:8;stroke:#000000"/>
 <path d="m24 42v-17m-15-13 15 13 15-13" style="fill:none;stroke-linecap:round;stroke-linejoin:round;stroke-width:8;stroke:#e34241"/>
</svg>
