<?xml version="1.0" encoding="UTF-8" standalone="no"?>
<svg
   width="192"
   height="192"
   version="1.1"
   id="svg14"
   sodipodi:docname="apps_magnit.svg"
   inkscape:version="1.1-rc (1:1.1+rc+202105232036+f4db50c7c1)"
   xmlns:inkscape="http://www.inkscape.org/namespaces/inkscape"
   xmlns:sodipodi="http://sodipodi.sourceforge.net/DTD/sodipodi-0.dtd"
   xmlns="http://www.w3.org/2000/svg"
   xmlns:svg="http://www.w3.org/2000/svg">
  <defs
     id="defs18">
    <filter
       inkscape:collect="always"
       style="color-interpolation-filters:sRGB"
       id="filter849"
       x="-0.048000001"
       y="-0.048000001"
       width="1.096"
       height="1.096">
      <feGaussianBlur
         inkscape:collect="always"
         stdDeviation="3.2"
         id="feGaussianBlur851" />
    </filter>
    <filter
       inkscape:collect="always"
       style="color-interpolation-filters:sRGB"
       id="filter3273"
       x="-0.048"
       y="-0.048"
       width="1.096"
       height="1.096">
      <feGaussianBlur
         inkscape:collect="always"
         stdDeviation="2"
         id="feGaussianBlur3275" />
    </filter>
  </defs>
  <sodipodi:namedview
     id="namedview16"
     pagecolor="#ffffff"
     bordercolor="#666666"
     borderopacity="1.0"
     inkscape:pageshadow="2"
     inkscape:pageopacity="0.0"
     inkscape:pagecheckerboard="0"
     showgrid="false"
     inkscape:zoom="2.49"
     inkscape:cx="81.325301"
     inkscape:cy="76.907631"
     inkscape:window-width="1920"
     inkscape:window-height="1019"
     inkscape:window-x="0"
     inkscape:window-y="34"
     inkscape:window-maximized="1"
     inkscape:current-layer="svg14" />
  <rect
     style="opacity:0.2;stroke-width:4;filter:url(#filter849)"
     width="160"
     height="160"
     x="16"
     y="20"
     rx="32"
     ry="32"
     id="rect2" />
  <rect
     style="fill:#ca1f28;fill-opacity:1;stroke-width:4"
     width="160"
     height="160"
     x="16"
     y="16"
     rx="32"
     ry="32"
     id="rect4" />
  <path
     id="path12"
     style="opacity:0.2;fill:#ffffff;stroke-width:4"
     d="M 48,16 C 30.272,16 16,30.272 16,48 v 1 C 16,31.272 30.272,17 48,17 h 96 c 17.728,0 32,14.272 32,32 V 48 C 176,30.272 161.728,16 144,16 Z" />
  <path
     id="path3235"
     style="opacity:0.2;fill:#000000;stroke-width:5.30232;filter:url(#filter3273)"
     d="M 76.220703,48 C 68.210653,48.01738 60.534754,51.216184 54.871094,56.896484 49.206894,62.576784 46.017,70.275364 46,78.308594 V 118 l 2.740234,-0.41211 c 3.5057,-0.55628 6.300522,-2.34445 8.613282,-5.04492 C 59.666276,109.84251 60.9808,106.40548 61,102.8457 V 78.308594 c 0.01921,-3.94735 1.556844,-7.72783 4.339844,-10.519532 C 68.123374,64.997903 71.893628,63.0189 75.830078,63 H 146 V 48 Z M 146,78 l -2.74023,0.412109 c -3.5057,0.556283 -6.30053,2.344461 -8.61329,5.044922 -2.31276,2.700464 -3.62728,6.137489 -3.64648,9.697266 v 24.537113 c -0.0192,3.94735 -1.55684,7.72783 -4.33984,10.51953 -2.78353,2.79116 -6.55379,4.77016 -10.49024,4.78906 H 46 v 15 h 69.7793 c 8.01005,-0.0174 15.68595,-3.21618 21.34961,-8.89648 5.6642,-5.6803 8.85409,-13.37888 8.87109,-21.41211 z m -71,1 v 39 H 87 V 98.181641 l 9,10.843749 9,-10.843749 V 118 h 12 V 79 H 105.3125 L 96,91.541016 86.681641,79 Z" />
  <path
     id="path2844"
     style="fill:#ffffff;stroke-width:5.30232"
     d="M 76.220703 46 C 68.210653 46.01738 60.534754 49.216184 54.871094 54.896484 C 49.206894 60.576784 46.017 68.275364 46 76.308594 L 46 116 L 48.740234 115.58789 C 52.245934 115.03161 55.040756 113.24344 57.353516 110.54297 C 59.666276 107.84251 60.9808 104.40548 61 100.8457 L 61 76.308594 C 61.01921 72.361244 62.556844 68.580764 65.339844 65.789062 C 68.123374 62.997903 71.893628 61.0189 75.830078 61 L 146 61 L 146 46 L 76.220703 46 z M 146 76 L 143.25977 76.412109 C 139.75407 76.968392 136.95924 78.75657 134.64648 81.457031 C 132.33372 84.157495 131.0192 87.59452 131 91.154297 L 131 115.69141 C 130.9808 119.63876 129.44316 123.41924 126.66016 126.21094 C 123.87663 129.0021 120.10637 130.9811 116.16992 131 L 46 131 L 46 146 L 115.7793 146 C 123.78935 145.9826 131.46525 142.78382 137.12891 137.10352 C 142.79311 131.42322 145.983 123.72464 146 115.69141 L 146 76 z M 75 77 L 75 116 L 87 116 L 87 96.181641 L 96 107.02539 L 105 96.181641 L 105 116 L 117 116 L 117 77 L 105.3125 77 L 96 89.541016 L 86.681641 77 L 75 77 z " />
</svg>
