<svg xmlns="http://www.w3.org/2000/svg" width="192" height="192" version="1">
 <g transform="scale(4)">
  <circle style="fill:#c2434e" cx="24" cy="24" r="20"/>
  <rect style="fill:#32424a" width="30" height="30" x="-39" y="-39" rx="15" ry="15" transform="matrix(0,-1,-1,0,0,0)"/>
  <g style="opacity:0.2" transform="translate(-469,-164.9975)">
   <path d="m489 183v8.1875c-0.32-0.12-0.64-0.19-1-0.19-1.6568 0-3 1.3432-3 3s1.3432 3 3 3 3-1.3432 3-3v-7.7995l6-1.2005v4.1875c-0.32-0.12-0.64-0.19-1-0.19-1.6568 0-3 1.3432-3 3s1.3432 3 3 3 3-1.3432 3-3v-11z"/>
  </g>
  <g fill="#fff" style="enable-background:new" transform="translate(-469 -166)">
   <path d="m489 183v8.1875c-0.32-0.12-0.64-0.19-1-0.19-1.6568 0-3 1.3432-3 3s1.3432 3 3 3 3-1.3432 3-3v-7.7995l6-1.2005v4.1875c-0.32-0.12-0.64-0.19-1-0.19-1.6568 0-3 1.3432-3 3s1.3432 3 3 3 3-1.3432 3-3v-11z"/>
  </g>
  <path fill="#fff" style="opacity:0.1" d="m24 4a20 20 0 0 0-20 20 20 20 0 0 0 0.0215 0.582 20 20 0 0 1 19.978-19.582 20 20 0 0 1 19.979 19.418 20 20 0 0 0 0.021-0.418 20 20 0 0 0-20-20z"/>
  <path opacity=".2" d="m43.979 24.418a20 20 0 0 1-19.979 19.582 20 20 0 0 1-19.978-19.418 20 20 0 0 0-0.022 0.418 20 20 0 0 0 20 20 20 20 0 0 0 20-20 20 20 0 0 0-0.021-0.582z"/>
 </g>
</svg>
