<?xml version="1.0" encoding="UTF-8" standalone="no"?>
<svg
   width="192"
   height="192"
   version="1.1"
   id="svg28"
   sodipodi:docname="apps_xnretro.svg"
   inkscape:version="1.1-rc (1:1.1+rc+202105232036+f4db50c7c1)"
   xmlns:inkscape="http://www.inkscape.org/namespaces/inkscape"
   xmlns:sodipodi="http://sodipodi.sourceforge.net/DTD/sodipodi-0.dtd"
   xmlns="http://www.w3.org/2000/svg"
   xmlns:svg="http://www.w3.org/2000/svg">
  <defs
     id="defs32">
    <filter
       inkscape:collect="always"
       style="color-interpolation-filters:sRGB"
       id="filter877"
       x="-0.048000001"
       y="-0.048000001"
       width="1.096"
       height="1.096">
      <feGaussianBlur
         inkscape:collect="always"
         stdDeviation="3.2"
         id="feGaussianBlur879" />
    </filter>
    <filter
       inkscape:collect="always"
       style="color-interpolation-filters:sRGB"
       id="filter881"
       x="-0.048"
       y="-0.048"
       width="1.096"
       height="1.096">
      <feGaussianBlur
         inkscape:collect="always"
         stdDeviation="2.24"
         id="feGaussianBlur883" />
    </filter>
    <filter
       inkscape:collect="always"
       style="color-interpolation-filters:sRGB"
       id="filter885"
       x="-0.047999999"
       y="-0.047999999"
       width="1.096"
       height="1.096">
      <feGaussianBlur
         inkscape:collect="always"
         stdDeviation="0.32"
         id="feGaussianBlur887" />
    </filter>
  </defs>
  <sodipodi:namedview
     id="namedview30"
     pagecolor="#ffffff"
     bordercolor="#666666"
     borderopacity="1.0"
     inkscape:pageshadow="2"
     inkscape:pageopacity="0.0"
     inkscape:pagecheckerboard="0"
     showgrid="false"
     inkscape:zoom="3.06"
     inkscape:cx="55.718954"
     inkscape:cy="88.398693"
     inkscape:window-width="1920"
     inkscape:window-height="1019"
     inkscape:window-x="0"
     inkscape:window-y="34"
     inkscape:window-maximized="1"
     inkscape:current-layer="svg28" />
  <rect
     style="opacity:0.2;stroke-width:4;filter:url(#filter877)"
     width="160"
     height="160"
     x="16"
     y="20"
     rx="48"
     ry="48"
     id="rect2" />
  <rect
     style="fill:#4f4f4f;stroke-width:4"
     width="160"
     height="160"
     x="16"
     y="16"
     rx="48"
     ry="48"
     id="rect4" />
  <circle
     style="opacity:0.2;stroke-width:4;filter:url(#filter881)"
     cx="96"
     cy="98.000008"
     r="56"
     id="circle6" />
  <path
     id="path8"
     style="opacity:0.1;fill:#ffffff;stroke-width:4"
     d="M 64 16 C 37.408 16 16 37.408 16 64 L 16 65 C 16 38.408 37.408 17 64 17 L 128 17 C 154.592 17 176 38.408 176 65 L 176 64 C 176 37.408 154.592 16 128 16 L 64 16 z " />
  <path
     style="fill:#ffc42e;stroke-width:4"
     d="m 126.09453,48.848436 c -3.06055,0.570236 -6.11702,1.230472 -7.69453,1.230472 -12.92923,0 -27.976168,5.442204 -36.892188,16.362496 -7.613156,9.324552 -10.051256,23.28804 -10.603908,34.190626 0.549404,-5.409874 7.780444,-6.486998 11.484376,-9.526562 4.029552,-3.306776 7.568564,-15.26328 13.61172,-15.26328 0.757964,-1.4e-4 1.515452,0.038 2.269532,0.11484 0.0224,0.0011 0.04336,0.004 0.06564,0.0056 C 121.98524,77.184248 139.4,94.44584 139.4,118.4 c 0,4.80055 -0.77839,9.41304 -2.17656,13.74844 0.39276,0.17456 0.76535,0.30936 1.1375,0.4375 a 56,56 0 0 0 0.022,-0.0276 c 0.78998,-0.91482 1.51128,-1.8741 2.23672,-2.83282 a 56,56 0 0 0 1.04453,-1.37265 c 0.61325,-0.86455 1.17215,-1.76282 1.73359,-2.65781 a 56,56 0 0 0 1.13203,-1.84844 c 0.49045,-0.85354 0.94503,-1.72649 1.38906,-2.60313 a 56,56 0 0 0 1.01719,-2.10547 c 0.40285,-0.88524 0.78147,-1.78063 1.1375,-2.68515 a 56,56 0 0 0 0.83125,-2.26407 c 0.30092,-0.87312 0.59561,-1.74847 0.85313,-2.63593 a 56,56 0 0 0 0.67265,-2.65235 c 0.18988,-0.79834 0.39204,-1.59361 0.54688,-2.40078 a 56,56 0 0 0 0.47578,-3.14453 c 0.0936,-0.70115 0.21732,-1.39419 0.28436,-2.1 A 56,56 0 0 0 152,96 c -0.005,-1.176812 -0.0468,-2.353176 -0.12576,-3.527344 -3.5e-4,-0.0052 3.6e-4,-0.0108 0,-0.0164 -0.022,-0.33272 -0.06,-0.663548 -0.0875,-0.995316 -0.12288,-1.556652 -0.3108,-3.107484 -0.56328,-4.648436 -0.0582,-0.34656 -0.13104,-0.688968 -0.19688,-1.033592 a 56,56 0 0 0 -0.0108,-0.06016 c -0.239,-1.267196 -0.52174,-2.52576 -0.84766,-3.77344 -10e-4,-0.0039 -0.004,-0.0068 -0.006,-0.0108 -0.16768,-0.641724 -0.34584,-1.279536 -0.53594,-1.91406 -0.31568,-1.05084 -0.66219,-2.092176 -1.03906,-3.122656 -0.2926,-0.801888 -0.601,-1.5972 -0.92969,-2.384376 -0.37572,-0.90354 -0.77509,-1.797076 -1.19765,-2.679684 -0.3132,-0.651732 -0.62485,-1.307144 -0.9625,-1.946876 a 56,56 0 0 0 -0.0164,-0.0384 l -0.006,-0.0056 c -0.52007,-0.974756 -1.06914,-1.93416 -1.6461,-2.876564 -0.0104,-0.0168 -0.0228,-0.0324 -0.0328,-0.04924 -0.4507,-0.738864 -0.91469,-1.46928 -1.4,-2.1875 l -0.0108,-0.0164 a 56,56 0 0 0 -0.0108,-0.022 c -0.56648,-0.83622 -1.16045,-1.660192 -1.77235,-2.466452 -0.56735,-0.747544 -1.15489,-1.478364 -1.76094,-2.198436 a 56,56 0 0 0 -0.022,-0.0276 c -0.20044,-0.23132 -0.40281,-0.46104 -0.60703,-0.689064 -1.12943,-1.296564 -2.31171,-2.550236 -3.56563,-3.746092 -0.016,-0.0152 -0.0332,-0.0288 -0.0492,-0.04376 a 56,56 0 0 0 -0.27316,-0.25664 c -0.67213,-0.630972 -1.35551,-1.253768 -2.06172,-1.853904 0.0136,-0.0136 0.0192,-0.0244 0.0328,-0.0384 a 56,56 0 0 0 -6.20157,-4.522656 z m 10.52187,84.043754 c -0.27192,0.3056 -0.54721,0.60823 -0.82577,0.90781 0.27856,-0.2996 0.55384,-0.6022 0.82577,-0.90781 z m -3.17734,3.28671 c -0.3458,0.33076 -0.69583,0.65711 -1.05,0.97891 -0.02,0.0428 -0.0348,0.0885 -0.0547,0.13124 0.3734,-0.36488 0.74166,-0.73499 1.10469,-1.11015 z"
     id="path10" />
  <path
     style="fill:#ff8514;stroke-width:4"
     d="m 98.291404,73.714844 c 11.295336,1.147104 16.466406,10.96608 16.466406,22.56406 1.4e-4,0.757968 -0.038,1.515452 -0.11484,2.269532 -0.001,0.0224 -0.004,0.04336 -0.006,0.06564 C 113.41575,122.26416 97.55416,139.6789 73.6,139.6789 c -4.800548,0 -11.775544,-3.63854 -16.110936,-5.03671 0.14204,0.12104 -0.05796,0.71465 -0.404692,1.54218 A 56,56 0 0 0 96,152 c 1.176812,-0.005 2.353176,-0.0468 3.527344,-0.12576 0.0052,-3.5e-4 0.0108,3.6e-4 0.0164,0 0.33272,-0.022 0.663546,-0.06 0.995316,-0.0875 1.55665,-0.12288 3.10748,-0.3108 4.64844,-0.56328 0.34656,-0.0582 0.68896,-0.13104 1.03359,-0.19688 a 56,56 0 0 0 0.0602,-0.0108 c 1.26719,-0.239 2.52576,-0.52174 3.77344,-0.84766 0.004,-10e-4 0.007,-0.004 0.0108,-0.006 0.64172,-0.16768 1.27953,-0.34584 1.91406,-0.53594 1.05084,-0.31568 2.09217,-0.66219 3.12265,-1.03906 0.80189,-0.2926 1.5972,-0.601 2.38438,-0.92969 0.90354,-0.37572 1.79708,-0.77509 2.67968,-1.19765 0.65174,-0.3132 1.30715,-0.62485 1.94688,-0.9625 a 56,56 0 0 0 0.0384,-0.0164 l 0.006,-0.006 c 0.97488,-0.5202 1.93416,-1.06914 2.87656,-1.6461 0.0168,-0.0104 0.0324,-0.0228 0.0492,-0.0328 0.73886,-0.4507 1.46928,-0.91469 2.1875,-1.4 l 0.0164,-0.0108 a 56,56 0 0 0 0.022,-0.0108 c 0.83618,-0.56597 1.66015,-1.15997 2.46641,-1.77187 0.74755,-0.56735 1.47837,-1.15489 2.19844,-1.76094 a 56,56 0 0 0 0.0276,-0.022 c 0.23132,-0.20044 0.46104,-0.40281 0.68906,-0.60703 1.29657,-1.12943 2.55024,-2.31171 3.74609,-3.56563 0.0152,-0.016 0.0288,-0.0332 0.0438,-0.0492 a 56,56 0 0 0 0.25704,-0.27344 c 0.63097,-0.67213 1.25377,-1.35551 1.8539,-2.06172 C 140.01177,127.89517 140.8,123.24231 140.8,118.4 140.8,94.43084 121.96238,74.914728 98.291404,73.714844 Z M 54.710936,132.61328 c 0.36488,0.3734 0.734976,0.74165 1.110156,1.10469 -0.33076,-0.3458 -0.657104,-0.69583 -0.978904,-1.05 -0.04284,-0.02 -0.08848,-0.0348 -0.13124,-0.0547 z"
     id="path12" />
  <path
     style="fill:#ff5757;stroke-width:4"
     d="m 59.38672,54.710936 c -0.3734,0.36488 -0.741652,0.734976 -1.104688,1.110156 0.3458,-0.33076 0.695832,-0.657104 1.05,-0.978904 0.02,-0.04284 0.0348,-0.08848 0.05468,-0.13124 z M 55.930468,58.2 c -0.27856,0.29956 -0.553844,0.6022 -0.82578,0.907812 0.27192,-0.3056 0.547212,-0.608232 0.82578,-0.907812 z m -1.815624,0.705468 A 56,56 0 0 0 40,96 a 56,56 0 0 0 0.12576,3.527344 c 0.022,0.3382 0.05956,0.674526 0.08748,1.011716 a 56,56 0 0 0 0.563284,4.64844 c 0.06156,0.36668 0.13904,0.72881 0.2078,1.09375 a 56,56 0 0 0 0.847656,3.77344 c 0.16856,0.64565 0.35016,1.28664 0.541408,1.925 a 56,56 0 0 0 1.03906,3.12265 c 0.2926,0.80189 0.600996,1.5972 0.929688,2.38438 a 56,56 0 0 0 1.197656,2.67968 c 0.3192,0.66422 0.633644,1.33386 0.978904,1.98516 0.0011,0.002 0.0044,0.003 0.0056,0.006 a 56,56 0 0 0 1.646096,2.87657 c 0.460252,0.75614 0.936452,1.50214 1.432812,2.23671 0.573524,0.84877 1.17294,1.6867 1.793752,2.50469 0.5744,0.75684 1.16874,1.49704 1.782812,2.22578 a 56,56 0 0 0 0.607032,0.68907 c 1.12942,1.29656 2.3117,2.55023 3.565624,3.74609 a 56,56 0 0 0 0.32264,0.3008 c 0.672124,0.63097 1.355504,1.25377 2.06172,1.85391 4.36814,1.42111 9.020904,2.20922 13.863216,2.20922 23.96916,0 43.48527,-18.83762 44.68516,-42.508596 C 117.13805,109.58674 107.59798,117.55781 96,117.55781 c -0.757964,1.4e-4 -1.515452,-0.038 -2.269532,-0.11484 -0.0224,-0.001 -0.04336,-0.004 -0.06564,-0.006 C 70.014744,116.21561 52.321092,97.55416 52.321092,73.6 c 0,-4.800548 0.778392,-9.413044 2.176564,-13.748436 -0.12708,-0.35048 -0.2554,-0.616072 -0.3828,-0.946096 z"
     id="path14" />
  <path
     style="fill:#baff41;stroke-width:4"
     d="m 93.708596,118.28516 c -2.98076,-0.30272 12.898294,-3.78651 10.494414,-5.14176 C 97.497584,109.36303 74.72,104.53736 74.72,96 c -1.4e-4,-0.757964 -1.081808,-1.515452 -1.005144,-2.269532 0.0011,-0.0224 0.004,-0.04336 0.0056,-0.06564 C 74.942348,70.014736 94.44584,51.2 118.4,51.2 c 4.80055,0 9.41304,0.778392 13.74844,2.176564 C 122.06138,44.780796 109.2527,40.041004 96,40 79.5978,40.024 64.030752,47.237956 53.409372,59.73672 51.988108,64.104924 51.2,68.757688 51.2,73.6 c 0,23.96916 18.837624,43.48527 42.508596,44.68516 z M 137.28906,58.265628 c -0.36488,-0.3734 -0.73497,-0.741656 -1.11016,-1.104692 0.33076,0.3458 0.65711,0.695832 0.97891,1.05 0.0428,0.02 0.0885,0.0348 0.13124,0.05468 z M 133.8,54.809372 c -0.2996,-0.27856 -0.6022,-0.55384 -0.90781,-0.825776 0.3056,0.27192 0.60823,0.547212 0.90781,0.825776 z"
     id="path16" />
  <circle
     style="fill:#3f3f3f;stroke-width:4"
     cx="96"
     cy="96"
     r="24"
     id="circle18" />
  <path
     id="path20"
     style="opacity:0.2;fill:#ffffff;stroke-width:4"
     d="M 96 40 A 56 56 0 0 0 40 96 A 56 56 0 0 0 40.023438 96.640625 A 56 56 0 0 1 96 41 A 56 56 0 0 1 151.98438 96.292969 A 56 56 0 0 0 152 96 A 56 56 0 0 0 96 40 z " />
  <circle
     style="opacity:0.2;stroke-width:4;filter:url(#filter885)"
     cx="148"
     cy="45"
     r="8"
     id="circle22" />
  <circle
     style="fill:#f44336;stroke-width:4"
     cx="148"
     cy="44"
     r="8"
     id="circle24" />
  <path
     id="path26"
     style="opacity:0.2;fill:#ffffff;stroke-width:4"
     d="M 148 36 A 8 8 0 0 0 140 44 A 8 8 0 0 0 140.03125 44.507812 A 8 8 0 0 1 148 37 A 8 8 0 0 1 155.97461 44.376953 A 8 8 0 0 0 156 44 A 8 8 0 0 0 148 36 z " />
</svg>
