<?xml version="1.0" encoding="UTF-8" standalone="no"?>
<svg
   width="192"
   height="192"
   version="1"
   id="svg14"
   sodipodi:docname="apps_game_launcher.svg"
   inkscape:version="1.1.1 (1:1.1+202109281949+c3084ef5ed)"
   xmlns:inkscape="http://www.inkscape.org/namespaces/inkscape"
   xmlns:sodipodi="http://sodipodi.sourceforge.net/DTD/sodipodi-0.dtd"
   xmlns="http://www.w3.org/2000/svg"
   xmlns:svg="http://www.w3.org/2000/svg"
   xmlns:rdf="http://www.w3.org/1999/02/22-rdf-syntax-ns#"
   xmlns:cc="http://creativecommons.org/ns#"
   xmlns:dc="http://purl.org/dc/elements/1.1/">
  <metadata
     id="metadata20">
    <rdf:RDF>
      <cc:Work
         rdf:about="">
        <dc:format>image/svg+xml</dc:format>
        <dc:type
           rdf:resource="http://purl.org/dc/dcmitype/StillImage" />
      </cc:Work>
    </rdf:RDF>
  </metadata>
  <defs
     id="defs18">
    <filter
       inkscape:collect="always"
       style="color-interpolation-filters:sRGB"
       id="filter850"
       x="-0.048000001"
       width="1.096"
       y="-0.048000001"
       height="1.096">
      <feGaussianBlur
         inkscape:collect="always"
         stdDeviation="3.2"
         id="feGaussianBlur852" />
    </filter>
    <filter
       inkscape:collect="always"
       style="color-interpolation-filters:sRGB"
       id="filter8717"
       x="-0.10545882"
       y="-0.11066666"
       width="1.2109176"
       height="1.2213333">
      <feGaussianBlur
         inkscape:collect="always"
         stdDeviation="3.735"
         id="feGaussianBlur8719" />
    </filter>
  </defs>
  <sodipodi:namedview
     pagecolor="#ffffff"
     bordercolor="#666666"
     borderopacity="1"
     objecttolerance="10"
     gridtolerance="10"
     guidetolerance="10"
     inkscape:pageopacity="0"
     inkscape:pageshadow="2"
     inkscape:window-width="1920"
     inkscape:window-height="1016"
     id="namedview16"
     showgrid="false"
     inkscape:zoom="2.16"
     inkscape:cx="70.138889"
     inkscape:cy="84.490741"
     inkscape:window-x="0"
     inkscape:window-y="32"
     inkscape:window-maximized="1"
     inkscape:current-layer="svg14"
     inkscape:pagecheckerboard="0"
     inkscape:snap-bbox="true"
     inkscape:snap-bbox-midpoints="true"
     inkscape:snap-global="true">
    <inkscape:grid
       type="xygrid"
       id="grid5193" />
  </sodipodi:namedview>
  <circle
     style="opacity:0.2;fill:#000000;stroke-width:4;filter:url(#filter850)"
     cx="96"
     cy="100"
     r="80"
     id="circle832" />
  <circle
     id="circle4"
     r="80"
     cy="96"
     cx="96"
     style="fill:#7054e0;stroke-width:4;fill-opacity:1" />
  <path
     id="path8670"
     style="color:#000000;opacity:0.2;fill:#000000;stroke-linecap:round;stroke-linejoin:round;-inkscape-stroke:none;filter:url(#filter8717)"
     d="m 71,57 c -9.893737,0 -18,8.106263 -18,18 0,9.893737 8.106263,18 18,18 9.893737,0 18,-8.106263 18,-18 0,-9.893737 -8.106263,-18 -18,-18 z m 38,3 a 4,4 0 0 0 -2.82812,1.171875 4,4 0 0 0 0,5.65625 l 8.67187,8.671875 -8.67187,8.671875 a 4,4 0 0 0 0,5.65625 4,4 0 0 0 5.65624,0 L 120.5,81.15625 l 8.67188,8.671875 a 4,4 0 0 0 5.65624,0 4,4 0 0 0 0,-5.65625 L 126.15625,75.5 l 8.67187,-8.671875 a 4,4 0 0 0 0,-5.65625 A 4,4 0 0 0 132,60 4,4 0 0 0 129.17188,61.171875 L 120.5,69.84375 111.82812,61.171875 A 4,4 0 0 0 109,60 Z m -38,5 c 5.57022,0 10,4.42978 10,10 0,5.57022 -4.42978,10 -10,10 -5.57022,0 -10,-4.42978 -10,-10 0,-5.57022 4.42978,-10 10,-10 z m 0,37 c -9.893737,0 -18,8.10626 -18,18 0,9.89374 8.106263,18 18,18 9.893737,0 18,-8.10626 18,-18 0,-9.89374 -8.106263,-18 -18,-18 z m 49,0 c -9.89374,0 -18,8.10626 -18,18 0,9.89374 8.10626,18 18,18 9.89374,0 18,-8.10626 18,-18 0,-9.89374 -8.10626,-18 -18,-18 z m -49,8 c 5.57022,0 10,4.42978 10,10 0,5.57022 -4.42978,10 -10,10 -5.57022,0 -10,-4.42978 -10,-10 0,-5.57022 4.42978,-10 10,-10 z m 49,0 c 5.57022,0 10,4.42978 10,10 0,5.57022 -4.42978,10 -10,10 -5.57022,0 -10,-4.42978 -10,-10 0,-5.57022 4.42978,-10 10,-10 z" />
  <path
     style="opacity:0.1;fill:#ffffff;stroke-width:4"
     d="M 96 16 A 80 80 0 0 0 16 96 A 80 80 0 0 0 16.019531 96.472656 A 80 80 0 0 1 96 17 A 80 80 0 0 1 175.97461 96.513672 A 80 80 0 0 0 176 96 A 80 80 0 0 0 96 16 z "
     id="path6" />
  <path
     style="color:#000000;fill:#ffffff;stroke-linecap:round;stroke-linejoin:round;-inkscape-stroke:none;opacity:1"
     d="m 71,55 c -9.893737,0 -18,8.106263 -18,18 0,9.893737 8.106263,18 18,18 9.893737,0 18,-8.106263 18,-18 0,-9.893737 -8.106263,-18 -18,-18 z m 0,8 c 5.57022,0 10,4.42978 10,10 0,5.57022 -4.42978,10 -10,10 -5.57022,0 -10,-4.42978 -10,-10 0,-5.57022 4.42978,-10 10,-10 z"
     id="path1025" />
  <path
     style="color:#000000;fill:#ffffff;stroke-linecap:round;stroke-linejoin:round;-inkscape-stroke:none;opacity:1"
     d="m 71,100 c -9.893737,0 -18,8.10626 -18,18 0,9.89374 8.106263,18 18,18 9.893737,0 18,-8.10626 18,-18 0,-9.89374 -8.106263,-18 -18,-18 z m 0,8 c 5.57022,0 10,4.42978 10,10 0,5.57022 -4.42978,10 -10,10 -5.57022,0 -10,-4.42978 -10,-10 0,-5.57022 4.42978,-10 10,-10 z"
     id="circle1143" />
  <path
     style="color:#000000;fill:#ffffff;stroke-linecap:round;stroke-linejoin:round;-inkscape-stroke:none;opacity:1"
     d="m 120,100 c -9.89374,0 -18,8.10626 -18,18 0,9.89374 8.10626,18 18,18 9.89374,0 18,-8.10626 18,-18 0,-9.89374 -8.10626,-18 -18,-18 z m 0,8 c 5.57022,0 10,4.42978 10,10 0,5.57022 -4.42978,10 -10,10 -5.57022,0 -10,-4.42978 -10,-10 0,-5.57022 4.42978,-10 10,-10 z"
     id="circle1145" />
  <path
     style="color:#000000;fill:#fff764;stroke-linecap:round;stroke-linejoin:round;-inkscape-stroke:none;opacity:1;fill-opacity:1"
     d="m 132,58 a 4,4 0 0 0 -2.82813,1.171875 l -22.99999,23 a 4,4 0 0 0 0,5.65625 4,4 0 0 0 5.65625,0 l 22.99999,-23 a 4,4 0 0 0 0,-5.65625 A 4,4 0 0 0 132,58 Z"
     id="path1180" />
  <path
     style="color:#000000;fill:#fff764;stroke-linecap:round;stroke-linejoin:round;-inkscape-stroke:none;opacity:1;fill-opacity:1"
     d="m 109,58 a 4,4 0 0 0 -2.82812,1.171875 4,4 0 0 0 0,5.65625 l 22.99999,23 a 4,4 0 0 0 5.65625,0 4,4 0 0 0 0,-5.65625 l -22.99999,-23 A 4,4 0 0 0 109,58 Z"
     id="path1484" />
</svg>
