<?xml version="1.0" encoding="UTF-8" standalone="no"?>
<svg
   width="192"
   height="192"
   version="1"
   id="svg22"
   sodipodi:docname="apps_idle_daddy.svg"
   inkscape:version="1.1.1 (1:1.1+202109281949+c3084ef5ed)"
   xmlns:inkscape="http://www.inkscape.org/namespaces/inkscape"
   xmlns:sodipodi="http://sodipodi.sourceforge.net/DTD/sodipodi-0.dtd"
   xmlns="http://www.w3.org/2000/svg"
   xmlns:svg="http://www.w3.org/2000/svg">
  <sodipodi:namedview
     id="namedview24"
     pagecolor="#ffffff"
     bordercolor="#666666"
     borderopacity="1.0"
     inkscape:pageshadow="2"
     inkscape:pageopacity="0.0"
     inkscape:pagecheckerboard="0"
     showgrid="false"
     inkscape:zoom="1"
     inkscape:cx="85"
     inkscape:cy="65"
     inkscape:window-width="1920"
     inkscape:window-height="1022"
     inkscape:window-x="0"
     inkscape:window-y="34"
     inkscape:window-maximized="1"
     inkscape:current-layer="svg22">
    <inkscape:grid
       type="xygrid"
       id="grid1033" />
  </sodipodi:namedview>
  <defs
     id="defs6">
    <filter
       id="filter2582"
       style="color-interpolation-filters:sRGB"
       width="1.1539986"
       height="1.1462045"
       x="-0.076999292"
       y="-0.073102264">
      <feGaussianBlur
         id="feGaussianBlur2584"
         stdDeviation="3.046" />
    </filter>
    <filter
       id="filter2665"
       style="color-interpolation-filters:sRGB"
       width="1.096"
       height="1.096"
       x="-0.047999997"
       y="-0.048000008">
      <feGaussianBlur
         id="feGaussianBlur2667"
         stdDeviation="3.2" />
    </filter>
    <filter
       inkscape:collect="always"
       style="color-interpolation-filters:sRGB"
       id="filter1821"
       x="-0.11433151"
       y="-0.11215384"
       width="1.228663"
       height="1.2243077">
      <feGaussianBlur
         inkscape:collect="always"
         stdDeviation="6.0750006"
         id="feGaussianBlur1823" />
    </filter>
  </defs>
  <path
     style="opacity:0.2;fill-rule:evenodd;filter:url(#filter2665)"
     d="m 36.738324,20.207487 c 1.323855,-0.194147 2.662121,-0.222965 3.997949,-0.201363 37.19836,0 74.396697,0.0024 111.595047,-0.0024 7.74268,0.09106 15.26312,4.236253 19.5837,10.668729 1.75649,2.594012 3.01584,5.538101 3.62044,8.618847 0.46597,2.289629 0.46597,4.636749 0.46125,6.962269 0,35.003045 0,70.003641 0,105.006641 -0.0263,3.27259 0.16006,6.59303 -0.56876,9.81283 -1.31917,6.09434 -5.14506,11.5702 -10.34986,14.96262 -4.16052,2.75229 -9.18846,4.16435 -14.16863,3.94146 -37.282,0 -74.564012,-0.002 -111.845965,0 -8.19673,-0.17744 -16.032637,-5.05629 -19.987618,-12.2367 -1.443341,-2.56052 -2.392107,-5.39667 -2.81265,-8.30725 -0.344119,-2.38545 -0.246164,-4.79973 -0.258089,-7.19959 0,-34.76567 0,-69.528944 0,-104.294616 0.01668,-3.035145 -0.143407,-6.113517 0.542466,-9.095991 1.135116,-5.408638 4.275204,-10.340276 8.614906,-13.732692 3.333632,-2.625226 7.369912,-4.353776 11.575814,-4.90282 z"
     id="path8" />
  <path
     style="fill:#3f3f3f;fill-rule:evenodd;fill-opacity:1"
     d="m 36.738324,16.207471 c 1.323855,-0.194147 2.662121,-0.222965 3.997949,-0.201363 37.19836,0 74.396697,0.0024 111.595047,-0.0024 7.74268,0.09106 15.26312,4.236253 19.5837,10.668729 1.75649,2.594012 3.01584,5.538101 3.62044,8.618847 0.46597,2.289629 0.46597,4.636749 0.46125,6.962269 0,35.003045 0,70.003637 0,105.006637 -0.0263,3.27259 0.16006,6.59303 -0.56876,9.81283 -1.31917,6.09434 -5.14506,11.5702 -10.34986,14.96262 -4.16052,2.75229 -9.18846,4.16435 -14.16863,3.94146 -37.282,0 -74.564012,-0.002 -111.845965,0 -8.19673,-0.17744 -16.032637,-5.05629 -19.987618,-12.2367 -1.443341,-2.56052 -2.392107,-5.39667 -2.81265,-8.30725 -0.344119,-2.38545 -0.246164,-4.79973 -0.258089,-7.19959 0,-34.76567 0,-69.52894 0,-104.294612 0.01668,-3.035145 -0.143407,-6.113517 0.542466,-9.095991 1.135116,-5.408638 4.275204,-10.340276 8.614906,-13.732692 3.333632,-2.625226 7.369912,-4.353776 11.575814,-4.90282 z"
     id="path10" />
  <path
     style="fill:#ffffff;fill-rule:evenodd;opacity:0.1"
     d="M 152.33203 16.003906 C 115.13368 16.008706 77.934688 16.005859 40.736328 16.005859 C 39.4005 15.984257 38.062136 16.012884 36.738281 16.207031 C 32.532379 16.756075 28.495741 18.484149 25.162109 21.109375 C 20.822407 24.501791 17.681991 29.435112 16.546875 34.84375 C 15.861002 37.826224 16.022539 40.904308 16.005859 43.939453 L 16.005859 44.939453 C 16.022539 41.904308 15.861002 38.826224 16.546875 35.84375 C 17.681991 30.435112 20.822407 25.501791 25.162109 22.109375 C 28.495741 19.484149 32.532379 17.756075 36.738281 17.207031 C 38.062136 17.012884 39.4005 16.984257 40.736328 17.005859 C 77.934688 17.005859 115.13368 17.008706 152.33203 17.003906 C 160.07471 17.094966 167.59348 21.239399 171.91406 27.671875 C 173.67055 30.265887 174.93056 33.21027 175.53516 36.291016 C 176.00113 38.580645 176.00081 40.928386 175.99609 43.253906 L 175.99609 42.253906 C 176.00081 39.928386 176.00113 37.580645 175.53516 35.291016 C 174.93056 32.21027 173.67055 29.265887 171.91406 26.671875 C 167.59348 20.239399 160.07471 16.094966 152.33203 16.003906 z"
     id="path20" />
  <path
     id="path1783"
     style="opacity:0.2;fill:#000000;stroke-width:15.6744;stroke-linecap:round;stroke-linejoin:round;filter:url(#filter1821)"
     d="m 28.476085,70.074558 v 43.437292 l 2.068447,2.99486 c 4.324246,7.04764 -1.505025,13.16931 5.334254,17.93846 3.637125,2.53624 5.873974,3.67966 11.349347,5.8033 2.812328,1.09075 5.954356,2.37448 6.981977,2.85309 1.027631,0.4786 1.955632,0.8701 2.062637,0.8701 0.106995,0 1.815057,0.90783 3.796027,2.016 7.872462,4.40398 10.266369,5.67757 17.587612,9.36529 8.89468,4.48024 13.535811,6.54332 16.402323,7.28907 1.867162,0.48577 2.252631,0.48195 4.045868,-0.0408 7.203013,-2.09987 22.877063,-15.48688 28.958263,-24.73197 5.18592,-7.88405 11.98415,-21.79089 16.45655,-33.6622 0.55176,-1.46454 1.74168,-4.578728 2.64366,-6.921996 0.90197,-2.343258 2.43379,-6.418352 3.40286,-9.054534 0.9691,-2.636168 2.01168,-5.432008 2.3183,-6.213094 1.83542,-4.675757 4.10075,-11.92762 4.11559,-13.173939 0.0332,-2.787409 -3.98409,-8.908183 -14.06467,-21.426343 -5.78832,-7.187985 -9.70209,-10.784816 -14.35906,-13.197245 -3.5703,-1.849506 -4.5034,-1.712331 -8.2428,1.215817 -6.08366,4.763832 -10.52041,10.036821 -10.52041,12.499995 0,2.465331 1.23756,4.231501 2.01809,2.880281 0.64455,-1.115793 6.04816,-6.711177 8.06656,-8.353399 2.25404,-1.833963 5.74591,-3.80131 6.10656,-3.439634 0.11359,0.113909 -0.65725,1.126742 -1.71401,2.251008 -3.82775,4.072242 -11.27433,13.666057 -11.28543,14.539304 -0.004,0.32889 1.07881,2.492733 1.62879,3.253185 0.05,0.06921 2.29171,-2.114641 4.98132,-4.851615 4.92103,-5.007699 7.97271,-7.351574 10.1079,-7.76297 1.13895,-0.219455 1.125,-0.190985 -1.04005,1.977159 -3.31343,3.318174 -11.43649,13.752096 -11.43649,14.690795 0,0.199508 0.58694,1.08089 1.30343,1.957737 l 1.30343,1.592604 0.66817,-0.846799 c 1.84215,-2.333643 8.08918,-8.295629 9.98008,-9.524546 2.29908,-1.494214 4.09428,-2.142697 4.09428,-1.479956 0,0.216453 -0.15327,0.394265 -0.34087,0.394267 -0.49347,0 -5.24635,5.536656 -8.76572,10.212084 l -3.02907,4.024237 1.0226,1.083748 c 1.54899,1.640778 5.06066,4.028076 6.99166,4.752561 l 1.72177,0.644811 0.66044,-0.862337 c 0.76575,-0.999011 0.87012,-2.214791 0.23435,-2.734617 -0.24341,-0.199011 -1.1208,-0.563553 -1.94838,-0.809897 -0.82757,-0.246354 -1.49677,-0.540913 -1.48742,-0.656463 0.009,-0.11554 0.89532,-0.841053 1.96774,-1.612026 1.07242,-0.770983 2.61188,-2.129348 3.42029,-3.018178 2.08449,-2.291867 2.73291,-2.729566 3.12592,-2.107286 0.49455,0.783085 0.36427,3.948918 -0.20723,5.047776 -0.46214,0.888542 -0.46135,1.124897 0.008,2.035425 1.29484,2.510995 5.96451,5.654988 8.39774,5.655684 1.48005,3.58e-4 1.1658,0.577887 -0.70885,1.303216 -2.79306,1.080691 -5.40202,0.720566 -8.23893,-1.138128 -0.87955,-0.576269 -0.92051,-0.558805 -2.57007,1.0954 -1.66456,1.66923 -1.6896,1.678794 -3.5733,1.48384 -1.88738,-0.195351 -1.89992,-0.191328 -2.62816,1.10317 -1.37805,2.44958 -4.53924,6.272861 -6.28088,7.593999 -1.47856,1.121571 -5.81145,3.604558 -14.14795,8.108683 -13.821376,7.467546 -20.404194,13.905426 -22.849755,22.350826 -0.894882,3.09038 -1.34341,11.40292 -0.78051,14.46356 0.364598,1.98242 0.196859,2.25786 -0.741775,1.21776 -1.37892,-1.52797 -2.099973,-4.67105 -2.256311,-9.82753 -0.135752,-4.47743 -0.05999,-5.32432 0.761142,-8.52236 0.620414,-2.41637 1.299255,-4.11721 2.126549,-5.32552 3.891198,-5.68331 4.731537,-11.283447 2.432557,-16.203768 C 82.192618,86.614098 73.923981,78.456735 65.313489,74.254474 57.85805,70.615903 47.6536,68.513395 35.52436,68.117124 c -5.8906,-0.192447 -1.666426,1.100401 -5.694488,1.74185 z M 108.97941,58.289596 c -0.12908,-0.04552 -0.18842,0.149045 -0.29438,0.545758 -0.74948,2.805856 -0.0236,4.596417 2.12462,5.241996 1.9415,0.583458 2.00836,0.445139 0.81731,-1.676118 -0.63044,-1.122814 -1.50063,-2.567294 -1.93481,-3.210455 -0.38459,-0.569671 -0.58362,-0.855661 -0.71274,-0.901181 z m -75.161324,12.900088 2.180779,0.04079 c 1.199735,0.02267 1.901785,0.114624 1.56102,0.203931 -0.542395,0.142139 -0.617824,0.645592 -0.617824,4.041717 v 3.878572 H 35.365547 33.790971 L 33.68445,77.313442 C 33.62604,76.190629 33.63206,74.353753 33.698,73.230939 Z m 5.093649,0.419515 c 0.751353,-0.0126 1.695644,0.873904 2.256311,2.18109 0.608375,1.418411 0.610449,1.536133 0.01355,2.724905 -0.343149,0.683455 -0.920645,1.508866 -1.282128,1.835379 -0.809158,0.730869 -2.833687,1.30802 -2.459669,0.701134 0.137903,-0.223751 0.568007,-0.405919 0.954816,-0.405919 0.38681,0 1.079917,-0.37989 1.541652,-0.842916 1.58819,-1.59267 0.756121,-5.840945 -1.162049,-5.931476 -0.335701,-0.01581 -0.409503,-0.102525 -0.170433,-0.200046 0.09774,-0.03987 0.200606,-0.06035 0.307943,-0.06215 z m 7.28992,0.07187 c 0.209795,0.0036 0.47521,0.042 0.828929,0.09516 1.753771,0.263596 2.140993,0.589539 1.485486,1.246891 -0.603815,0.605514 -1.661731,2.591153 -1.661731,3.119172 0,0.204967 0.485773,0.372902 1.078769,0.372902 1.041742,0 1.071887,-0.04589 0.898651,-1.332348 -0.09856,-0.732271 -0.09124,-1.012047 0.01743,-0.621504 0.108701,0.390543 0.341289,0.863281 0.517113,1.048787 0.175822,0.185507 0.319562,0.933206 0.319562,1.662523 0,0.729327 0.156775,1.736521 0.346678,2.237414 0.261847,0.690625 0.231996,0.910891 -0.120077,0.910891 -0.299439,0 -0.483702,-0.525952 -0.520986,-1.479955 -0.03183,-0.813504 -0.12582,-1.545913 -0.207232,-1.627564 -0.08141,-0.08164 -0.763901,-0.230626 -1.51841,-0.332116 -1.223813,-0.164604 -1.417766,-0.08406 -1.79924,0.755516 -0.235191,0.517638 -0.428022,1.19494 -0.428022,1.505204 0,0.467381 -0.283819,0.526274 -1.653983,0.337943 -0.909559,-0.125016 -1.704746,-0.278142 -1.766314,-0.339885 -0.123923,-0.124271 1.706782,-3.862411 2.029712,-4.144653 0.111715,-0.09765 0.509996,-0.932787 0.885094,-1.8548 0.511027,-1.256137 0.639186,-1.570418 1.26857,-1.559587 z m -10.853538,0.04079 c -1.000976,0 -1.069203,0.08954 -1.173669,1.549876 -0.152174,2.127303 0.09197,2.603357 1.260822,2.468535 0.932951,-0.107614 0.974184,-0.199194 0.974184,-2.0665 0,-1.932996 -0.0099,-1.951911 -1.061337,-1.951911 z m 11.517843,0.532163 c -0.967747,0 -1.182676,0.194206 -1.795366,1.627563 -0.851351,1.991726 -0.857283,2.188843 -0.07553,2.365599 0.771228,0.174379 1.414687,-0.298754 2.014218,-1.481898 0.254577,-0.502404 0.573703,-1.273661 0.708851,-1.71302 0.218323,-0.709747 0.123867,-0.798244 -0.85217,-0.798244 z m 7.103994,0.848741 c 0.08066,-0.0042 0.171965,0.01722 0.278891,0.06215 0.314293,0.132047 1.367902,0.537476 2.341529,0.90118 1.868134,0.697854 3.370529,2.083283 3.352511,3.090039 -0.0089,0.50311 -0.07531,0.485136 -0.402844,-0.108763 -1.464625,-2.655591 -2.913291,-2.984605 -3.511323,-0.798244 -0.227002,0.829901 -0.613957,1.9876 -0.859917,2.573414 -0.968233,2.306048 -0.965208,2.564979 0.02518,2.814247 0.509313,0.128189 1.271152,0.12802 1.692718,0 1.086939,-0.329944 2.358959,-1.583121 2.358959,-2.32287 0,-0.856412 0.625368,-1.184086 0.778573,-0.407863 0.0714,0.361676 -0.429124,1.188097 -1.185291,1.957737 -1.539175,1.566608 -2.907044,1.698317 -5.785067,0.559354 -0.971089,-0.384298 -1.807219,-0.740211 -1.859278,-0.792418 -0.05206,-0.05221 0.141556,-0.570033 0.429958,-1.149782 0.288401,-0.579748 0.582501,-1.364599 0.654622,-1.744094 0.07209,-0.379496 0.326868,-1.167992 0.565529,-1.753806 0.238652,-0.585815 0.523644,-1.514916 0.633318,-2.062615 0.111928,-0.558996 0.249966,-0.805071 0.491935,-0.817667 z m 0.732091,0.730267 c -0.598112,-0.01705 -1.022623,0.506704 -1.229837,1.53628 -0.107193,0.532614 -0.30248,1.246312 -0.433831,1.586777 -0.171798,0.445315 -0.0052,0.712764 0.594582,0.953619 1.227946,0.493216 1.215524,0.501796 1.686908,-1.075978 0.239436,-0.801412 0.517309,-1.669061 0.615886,-1.926662 0.09856,-0.25761 -0.162094,-0.65213 -0.579088,-0.875931 -0.23612,-0.126725 -0.455251,-0.192419 -0.65462,-0.198105 z m 8.622403,2.769576 1.692719,0.9711 c 2.39597,1.376139 3.535273,3.00452 3.313777,4.737025 -0.203443,1.591237 -1.026715,2.632459 -2.612674,3.305622 -1.186439,0.503568 -1.264973,0.51185 -2.366707,0.22918 -0.533004,-0.136751 -3.728041,-1.920388 -4.433218,-2.474362 -0.0831,-0.06533 0.09815,-0.315343 0.402844,-0.557411 0.304724,-0.242078 0.977768,-1.221558 1.497107,-2.175263 0.519349,-0.953705 1.296462,-2.252732 1.725643,-2.886109 z m 0.391224,0.728325 c -0.413186,-0.126552 -0.603152,0.244316 -1.706276,1.988812 l -0.763079,1.206106 0.809561,0.658406 c 0.444938,0.361287 0.854781,0.656463 0.910272,0.656463 0.05553,0 0.615812,-0.80498 1.24533,-1.788766 0.629526,-0.983786 1.084719,-1.841537 1.010981,-1.905297 -0.07367,-0.06374 -0.513224,-0.31359 -0.97612,-0.555469 -0.229473,-0.11991 -0.392941,-0.218071 -0.530669,-0.260255 z m 2.101371,0.934198 -0.623633,0.811839 c -0.343415,0.446041 -0.728788,1.130199 -0.856042,1.520742 -0.127264,0.390543 -0.687834,1.378408 -1.24533,2.194685 -0.557496,0.816268 -1.012919,1.640801 -1.012919,1.833436 0,0.896099 3.364593,1.034068 4.309265,0.176741 0.356099,-0.323172 0.646874,-0.73388 0.646874,-0.912834 0,-0.178953 0.253546,-0.578606 0.563594,-0.889527 0.768065,-0.770227 0.395604,-2.455234 -0.825055,-3.732907 z m 3.933536,2.179147 c 0.0704,-0.08432 0.667259,0.370963 1.326673,1.011886 1.074961,1.044832 1.165414,1.281622 0.879284,2.282084 -0.696542,2.435539 0.03169,3.008621 2.308604,1.817899 0.621317,-0.324912 1.162111,-0.411674 1.355724,-0.217526 0.193602,0.194147 -0.430892,0.497416 -1.564892,0.761342 -1.869791,0.435172 -4.298237,2.238751 -4.841872,3.595011 -0.196856,0.491118 -0.43023,0.41574 -1.566829,-0.510798 l -1.332484,-1.087632 1.260824,-1.295447 c 1.058976,-1.087552 1.324072,-1.68723 1.653983,-3.748445 0.216061,-1.349926 0.450561,-2.524078 0.520985,-2.608374 z m 0.586835,0.914776 c -0.316444,0.109012 -0.518425,0.847107 -0.765015,2.425807 -0.281747,1.803694 -0.243947,2.186363 0.247904,2.561761 1.065837,0.813474 1.367343,0.494061 1.615248,-1.703308 0.202071,-1.791065 0.138591,-2.283785 -0.369919,-2.847265 -0.307387,-0.34062 -0.538351,-0.502402 -0.728218,-0.436995 z"
     sodipodi:nodetypes="sccccsssscsscssssscssssssssccsssscccsssccccccsscssssccssssssssssssssssscsssscsccssccccscssssssccssssssscssssscssssssssssssssssssssscsscssscsssssscsssscsssssscsccscssccsccssssssccsssssscccsssssscccscssssssss" />
  <path
     id="rect1066"
     style="opacity:1;fill:#ffffff;stroke-width:15.6744;stroke-linecap:round;stroke-linejoin:round"
     d="m 16,67.158143 v 43.437297 l 2.068447,2.99486 c 4.324246,7.04764 10.97106,14.08572 17.810339,18.85487 3.637125,2.53624 5.873974,3.67966 11.349347,5.8033 2.812328,1.09075 5.954356,2.37448 6.981977,2.85309 1.027631,0.4786 1.955632,0.8701 2.062637,0.8701 0.106995,0 1.815057,0.90783 3.796027,2.016 7.872462,4.40398 10.266369,5.67757 17.587612,9.36529 8.89468,4.48024 13.535811,6.54332 16.402323,7.28907 1.867162,0.48577 2.252631,0.48195 4.045868,-0.0408 7.203013,-2.09987 22.877063,-15.48688 28.958263,-24.73197 5.18592,-7.88405 11.98415,-21.79089 16.45655,-33.6622 0.55176,-1.46454 1.74168,-4.578728 2.64366,-6.921996 0.90197,-2.343258 2.43379,-6.418352 3.40286,-9.054534 0.9691,-2.636168 2.01168,-5.432008 2.3183,-6.213094 1.83542,-4.675757 4.10075,-11.92762 4.11559,-13.173939 0.0332,-2.787409 -3.98409,-8.908183 -14.06467,-21.426343 -5.78832,-7.187985 -9.70209,-10.784816 -14.35906,-13.197245 -3.5703,-1.849506 -4.5034,-1.712331 -8.2428,1.215817 -6.08366,4.763832 -10.52041,10.036821 -10.52041,12.499995 0,2.465331 1.23756,4.231501 2.01809,2.880281 0.64455,-1.115793 6.04816,-6.711177 8.06656,-8.353399 2.25404,-1.833963 5.74591,-3.80131 6.10656,-3.439634 0.11359,0.113909 -0.65725,1.126742 -1.71401,2.251008 -3.82775,4.072242 -11.27433,13.666057 -11.28543,14.539304 -0.004,0.32889 1.07881,2.492733 1.62879,3.253185 0.05,0.06921 2.29171,-2.114641 4.98132,-4.851615 4.92103,-5.007699 7.97271,-7.351574 10.1079,-7.76297 1.13895,-0.219455 1.125,-0.190985 -1.04005,1.977159 -3.31343,3.318174 -11.43649,13.752096 -11.43649,14.690795 0,0.199508 0.58694,1.08089 1.30343,1.957737 l 1.30343,1.592604 0.66817,-0.846799 c 1.84215,-2.333643 8.08918,-8.295629 9.98008,-9.524546 2.29908,-1.494214 4.09428,-2.142697 4.09428,-1.479956 0,0.216453 -0.15327,0.394265 -0.34087,0.394267 -0.49347,0 -5.24635,5.536656 -8.76572,10.212084 l -3.02907,4.024237 1.0226,1.083748 c 1.54899,1.640778 5.06066,4.028076 6.99166,4.752561 l 1.72177,0.644811 0.66044,-0.862337 c 0.76575,-0.999011 0.87012,-2.214791 0.23435,-2.734617 -0.24341,-0.199011 -1.1208,-0.563553 -1.94838,-0.809897 -0.82757,-0.246354 -1.49677,-0.540913 -1.48742,-0.656463 0.009,-0.11554 0.89532,-0.841053 1.96774,-1.612026 1.07242,-0.770983 2.61188,-2.129348 3.42029,-3.018178 2.08449,-2.291867 2.73291,-2.729566 3.12592,-2.107286 0.49455,0.783085 0.36427,3.948918 -0.20723,5.047776 -0.46214,0.888542 -0.46135,1.124897 0.008,2.035425 1.29484,2.510995 5.96451,5.654988 8.39774,5.655684 1.48005,3.58e-4 1.1658,0.577887 -0.70885,1.303216 -2.79306,1.080691 -5.40202,0.720566 -8.23893,-1.138128 -0.87955,-0.576269 -0.92051,-0.558805 -2.57007,1.0954 -1.66456,1.66923 -1.6896,1.678794 -3.5733,1.48384 -1.88738,-0.195351 -1.89992,-0.191328 -2.62816,1.10317 -1.37805,2.44958 -4.53924,6.272861 -6.28088,7.593999 -1.47856,1.121571 -5.81145,3.604558 -14.14795,8.108683 -13.821376,7.467546 -20.404194,13.905426 -22.849755,22.350826 -0.894882,3.09038 -1.34341,11.40292 -0.78051,14.46356 0.364598,1.98242 0.196859,2.25786 -0.741775,1.21776 -1.37892,-1.52797 -2.099973,-4.67105 -2.256311,-9.82753 -0.135752,-4.47743 -0.05999,-5.32432 0.761142,-8.52236 0.620414,-2.41637 1.299255,-4.11721 2.126549,-5.32552 3.891198,-5.68331 4.731537,-11.283447 2.432557,-16.203768 C 82.192618,84.614098 73.923981,76.456735 65.313489,72.254474 57.85805,68.615903 47.6536,66.513395 35.52436,66.117124 29.63376,65.924677 21.381708,66.300222 17.353787,66.942559 Z m 92.97941,-10.868547 c -0.12908,-0.04552 -0.18842,0.149045 -0.29438,0.545758 -0.74948,2.805856 -0.0236,4.596417 2.12462,5.241996 1.9415,0.583458 2.00836,0.445139 0.81731,-1.676118 -0.63044,-1.122814 -1.50063,-2.567294 -1.93481,-3.210455 -0.38459,-0.569671 -0.58362,-0.855661 -0.71274,-0.901181 z m -75.161324,12.900088 2.180779,0.04079 c 1.199735,0.02267 1.901785,0.114624 1.56102,0.203931 -0.542395,0.142139 -0.617824,0.645592 -0.617824,4.041717 v 3.878572 H 35.365547 33.790971 L 33.68445,75.313442 C 33.62604,74.190629 33.63206,72.353753 33.698,71.230939 Z m 5.093649,0.419515 c 0.751353,-0.0126 1.695644,0.873904 2.256311,2.18109 0.608375,1.418411 0.610449,1.536133 0.01355,2.724905 -0.343149,0.683455 -0.920645,1.508866 -1.282128,1.835379 -0.809158,0.730869 -2.833687,1.30802 -2.459669,0.701134 0.137903,-0.223751 0.568007,-0.405919 0.954816,-0.405919 0.38681,0 1.079917,-0.37989 1.541652,-0.842916 1.58819,-1.59267 0.756121,-5.840945 -1.162049,-5.931476 -0.335701,-0.01581 -0.409503,-0.102525 -0.170433,-0.200046 0.09774,-0.03987 0.200606,-0.06035 0.307943,-0.06215 z m 7.28992,0.07187 c 0.209795,0.0036 0.47521,0.042 0.828929,0.09516 1.753771,0.263596 2.140993,0.589539 1.485486,1.246891 -0.603815,0.605514 -1.661731,2.591153 -1.661731,3.119172 0,0.204967 0.485773,0.372902 1.078769,0.372902 1.041742,0 1.071887,-0.04589 0.898651,-1.332348 -0.09856,-0.732271 -0.09124,-1.012047 0.01743,-0.621504 0.108701,0.390543 0.341289,0.863281 0.517113,1.048787 0.175822,0.185507 0.319562,0.933206 0.319562,1.662523 0,0.729327 0.156775,1.736521 0.346678,2.237414 0.261847,0.690625 0.231996,0.910891 -0.120077,0.910891 -0.299439,0 -0.483702,-0.525952 -0.520986,-1.479955 -0.03183,-0.813504 -0.12582,-1.545913 -0.207232,-1.627564 -0.08141,-0.08164 -0.763901,-0.230626 -1.51841,-0.332116 -1.223813,-0.164604 -1.417766,-0.08406 -1.79924,0.755516 -0.235191,0.517638 -0.428022,1.19494 -0.428022,1.505204 0,0.467381 -0.283819,0.526274 -1.653983,0.337943 -0.909559,-0.125016 -1.704746,-0.278142 -1.766314,-0.339885 -0.123923,-0.124271 1.706782,-3.862411 2.029712,-4.144653 0.111715,-0.09765 0.509996,-0.932787 0.885094,-1.8548 0.511027,-1.256137 0.639186,-1.570418 1.26857,-1.559587 z m -10.853538,0.04079 c -1.000976,0 -1.069203,0.08954 -1.173669,1.549876 -0.152174,2.127303 0.09197,2.603357 1.260822,2.468535 0.932951,-0.107614 0.974184,-0.199194 0.974184,-2.0665 0,-1.932996 -0.0099,-1.951911 -1.061337,-1.951911 z m 11.517843,0.532163 c -0.967747,0 -1.182676,0.194206 -1.795366,1.627563 -0.851351,1.991726 -0.857283,2.188843 -0.07553,2.365599 0.771228,0.174379 1.414687,-0.298754 2.014218,-1.481898 0.254577,-0.502404 0.573703,-1.273661 0.708851,-1.71302 0.218323,-0.709747 0.123867,-0.798244 -0.85217,-0.798244 z m 7.103994,0.848741 c 0.08066,-0.0042 0.171965,0.01722 0.278891,0.06215 0.314293,0.132047 1.367902,0.537476 2.341529,0.90118 1.868134,0.697854 3.370529,2.083283 3.352511,3.090039 -0.0089,0.50311 -0.07531,0.485136 -0.402844,-0.108763 -1.464625,-2.655591 -2.913291,-2.984605 -3.511323,-0.798244 -0.227002,0.829901 -0.613957,1.9876 -0.859917,2.573414 -0.968233,2.306048 -0.965208,2.564979 0.02518,2.814247 0.509313,0.128189 1.271152,0.12802 1.692718,0 1.086939,-0.329944 2.358959,-1.583121 2.358959,-2.32287 0,-0.856412 0.625368,-1.184086 0.778573,-0.407863 0.0714,0.361676 -0.429124,1.188097 -1.185291,1.957737 -1.539175,1.566608 -2.907044,1.698317 -5.785067,0.559354 -0.971089,-0.384298 -1.807219,-0.740211 -1.859278,-0.792418 -0.05206,-0.05221 0.141556,-0.570033 0.429958,-1.149782 0.288401,-0.579748 0.582501,-1.364599 0.654622,-1.744094 0.07209,-0.379496 0.326868,-1.167992 0.565529,-1.753806 0.238652,-0.585815 0.523644,-1.514916 0.633318,-2.062615 0.111928,-0.558996 0.249966,-0.805071 0.491935,-0.817667 z m 0.732091,0.730267 c -0.598112,-0.01705 -1.022623,0.506704 -1.229837,1.53628 -0.107193,0.532614 -0.30248,1.246312 -0.433831,1.586777 -0.171798,0.445315 -0.0052,0.712764 0.594582,0.953619 1.227946,0.493216 1.215524,0.501796 1.686908,-1.075978 0.239436,-0.801412 0.517309,-1.669061 0.615886,-1.926662 0.09856,-0.25761 -0.162094,-0.65213 -0.579088,-0.875931 -0.23612,-0.126725 -0.455251,-0.192419 -0.65462,-0.198105 z m 8.622403,2.769576 1.692719,0.9711 c 2.39597,1.376139 3.535273,3.00452 3.313777,4.737025 -0.203443,1.591237 -1.026715,2.632459 -2.612674,3.305622 -1.186439,0.503568 -1.264973,0.51185 -2.366707,0.22918 -0.533004,-0.136751 -3.728041,-1.920388 -4.433218,-2.474362 -0.0831,-0.06533 0.09815,-0.315343 0.402844,-0.557411 0.304724,-0.242078 0.977768,-1.221558 1.497107,-2.175263 0.519349,-0.953705 1.296462,-2.252732 1.725643,-2.886109 z m 0.391224,0.728325 c -0.413186,-0.126552 -0.603152,0.244316 -1.706276,1.988812 l -0.763079,1.206106 0.809561,0.658406 c 0.444938,0.361287 0.854781,0.656463 0.910272,0.656463 0.05553,0 0.615812,-0.80498 1.24533,-1.788766 0.629526,-0.983786 1.084719,-1.841537 1.010981,-1.905297 -0.07367,-0.06374 -0.513224,-0.31359 -0.97612,-0.555469 -0.229473,-0.11991 -0.392941,-0.218071 -0.530669,-0.260255 z m 2.101371,0.934198 -0.623633,0.811839 c -0.343415,0.446041 -0.728788,1.130199 -0.856042,1.520742 -0.127264,0.390543 -0.687834,1.378408 -1.24533,2.194685 -0.557496,0.816268 -1.012919,1.640801 -1.012919,1.833436 0,0.896099 3.364593,1.034068 4.309265,0.176741 0.356099,-0.323172 0.646874,-0.73388 0.646874,-0.912834 0,-0.178953 0.253546,-0.578606 0.563594,-0.889527 0.768065,-0.770227 0.395604,-2.455234 -0.825055,-3.732907 z m 3.933536,2.179147 c 0.0704,-0.08432 0.667259,0.370963 1.326673,1.011886 1.074961,1.044832 1.165414,1.281622 0.879284,2.282084 -0.696542,2.435539 0.03169,3.008621 2.308604,1.817899 0.621317,-0.324912 1.162111,-0.411674 1.355724,-0.217526 0.193602,0.194147 -0.430892,0.497416 -1.564892,0.761342 -1.869791,0.435172 -4.298237,2.238751 -4.841872,3.595011 -0.196856,0.491118 -0.43023,0.41574 -1.566829,-0.510798 l -1.332484,-1.087632 1.260824,-1.295447 c 1.058976,-1.087552 1.324072,-1.68723 1.653983,-3.748445 0.216061,-1.349926 0.450561,-2.524078 0.520985,-2.608374 z m 0.586835,0.914776 c -0.316444,0.109012 -0.518425,0.847107 -0.765015,2.425807 -0.281747,1.803694 -0.243947,2.186363 0.247904,2.561761 1.065837,0.813474 1.367343,0.494061 1.615248,-1.703308 0.202071,-1.791065 0.138591,-2.283785 -0.369919,-2.847265 -0.307387,-0.34062 -0.538351,-0.502402 -0.728218,-0.436995 z"
     sodipodi:nodetypes="sccccsssscsscssssscssssssssccsssscccsssccccccsscssssccssssssssssssssssscsssscsccssccccscssssssccssssssscssssscsssssssssssssssssssssssscssscsssssscsssscsssssscsscscssccsccssssssccsssssscccsssssscccscsssssss" />
</svg>
