<?xml version="1.0" encoding="UTF-8" standalone="no"?>
<svg
   width="192"
   height="192"
   version="1"
   id="svg12"
   sodipodi:docname="apps_disney_star_plus.svg"
   inkscape:version="1.1.1 (1:1.1+202109281949+c3084ef5ed)"
   xmlns:inkscape="http://www.inkscape.org/namespaces/inkscape"
   xmlns:sodipodi="http://sodipodi.sourceforge.net/DTD/sodipodi-0.dtd"
   xmlns="http://www.w3.org/2000/svg"
   xmlns:svg="http://www.w3.org/2000/svg"
   xmlns:rdf="http://www.w3.org/1999/02/22-rdf-syntax-ns#"
   xmlns:cc="http://creativecommons.org/ns#"
   xmlns:dc="http://purl.org/dc/elements/1.1/">
  <metadata
     id="metadata18">
    <rdf:RDF>
      <cc:Work
         rdf:about="">
        <dc:format>image/svg+xml</dc:format>
        <dc:type
           rdf:resource="http://purl.org/dc/dcmitype/StillImage" />
      </cc:Work>
    </rdf:RDF>
  </metadata>
  <defs
     id="defs16">
    <filter
       inkscape:collect="always"
       style="color-interpolation-filters:sRGB"
       id="filter955"
       x="-0.048000001"
       width="1.096"
       y="-0.048000001"
       height="1.096">
      <feGaussianBlur
         inkscape:collect="always"
         stdDeviation="3.2"
         id="feGaussianBlur957" />
    </filter>
    <mask
       id="d"
       fill="#ffffff">
      <path
         id="use17"
         d="m 0.297,0.281 h 40.595 v 18.35 H 0.297 Z" />
    </mask>
    <filter
       inkscape:collect="always"
       style="color-interpolation-filters:sRGB"
       id="filter12159"
       x="-0.068758593"
       y="-0.25157983"
       width="1.1375172"
       height="1.5031597">
      <feGaussianBlur
         inkscape:collect="always"
         stdDeviation="3.4379296"
         id="feGaussianBlur12161" />
    </filter>
  </defs>
  <sodipodi:namedview
     pagecolor="#ffffff"
     bordercolor="#666666"
     borderopacity="1"
     objecttolerance="10"
     gridtolerance="10"
     guidetolerance="10"
     inkscape:pageopacity="0"
     inkscape:pageshadow="2"
     inkscape:window-width="1920"
     inkscape:window-height="1019"
     id="namedview14"
     showgrid="false"
     inkscape:zoom="1"
     inkscape:cx="126.5"
     inkscape:cy="88"
     inkscape:window-x="0"
     inkscape:window-y="34"
     inkscape:window-maximized="1"
     inkscape:current-layer="svg12"
     showguides="true"
     inkscape:document-rotation="0"
     inkscape:pagecheckerboard="0"
     inkscape:snap-bbox="true"
     inkscape:snap-bbox-midpoints="true"
     inkscape:snap-global="true">
    <inkscape:grid
       type="xygrid"
       id="grid852" />
  </sodipodi:namedview>
  <rect
     style="opacity:0.2;fill:#000000;fill-opacity:1;stroke-width:4;filter:url(#filter955)"
     width="160"
     height="160"
     x="16"
     y="20"
     rx="30"
     ry="30"
     id="rect953" />
  <rect
     style="fill:#3d364e;fill-opacity:1;stroke-width:4"
     width="160"
     height="160"
     x="16"
     y="16"
     rx="30"
     ry="30"
     id="rect4" />
  <path
     id="path12112"
     style="opacity:0.2;fill:#000000;fill-opacity:1;stroke-width:0.0680839;filter:url(#filter12159)"
     d="M 89.949219,81.387129 85.507812,94.00041 H 72.347656 l 10.673828,7.72656 c 3.484746,-1.746969 6.742362,-3.668322 11.279297,-4.609372 -5.638594,4.077452 -10.34736,8.608812 -14.183593,13.568362 l -1.134766,3.49804 10.966797,-7.45312 10.968751,7.45312 -4.039064,-12.45703 10.673824,-7.72656 H 94.392578 Z M 45.126953,84.00041 c -4.690007,0 -8.154297,3.116527 -8.154297,7.306641 0,2.862592 1.351362,5.212312 4.816406,6.96289 l 3.464844,1.749999 c 1.943677,0.98271 2.873047,1.70926 2.873047,3.16211 0,1.53772 -1.267087,2.64844 -2.873047,2.64844 -1.732523,0 -3.295613,-0.98305 -4.013672,-3.20508 L 36,104.16447 c 1.180371,4.31543 4.690461,6.83594 9.253906,6.83594 4.943786,0 8.746094,-3.20387 8.746094,-7.81836 0,-3.546253 -1.858348,-5.938176 -5.619141,-7.691406 l -3.298828,-1.539062 c -1.647274,-0.76853 -2.28125,-1.580852 -2.28125,-2.648438 0,-1.239329 1.056433,-2.263142 2.623047,-2.220703 1.436775,0.04244 2.492912,0.811585 3.296875,2.652344 l 4.943359,-2.179687 C 52.311882,86.05129 49.564492,84.00041 45.126953,84.00041 Z m 10.873047,0 v 5 h 6 v 22 h 6 v -22 h 6 v -5 z m 54,0 v 27 h 6 v -10.68555 l 7.08398,10.68555 H 130 l -7.79102,-10.81836 C 125.97316,99.698861 129,96.444015 129,92.310957 c 0,-5.364921 -3.55173,-8.310547 -9.41602,-8.310547 z m 33,3 v 9 h -9 v 4 h 9 v 9 h 4 v -9 h 9 v -4 h -9 v -9 z m -27,2 h 3.45703 c 2.16077,0 3.54297,1.06853 3.54297,2.835938 0,1.849687 -1.3822,3.164062 -3.54297,3.164062 H 116 Z" />
  <path
     id="path2421"
     style="opacity:1;stroke-width:0.0680839;fill:#ffffff;fill-opacity:1"
     d="M 110 82 L 110 109 L 116 109 L 116 98.314453 L 123.08398 109 L 130 109 L 122.20898 98.181641 C 125.97316 97.698451 129 94.443605 129 90.310547 C 129 84.945626 125.44827 82 119.58398 82 L 110 82 z M 116 87 L 119.45703 87 C 121.6178 87 123 88.068531 123 89.835938 C 123 91.685625 121.6178 93 119.45703 93 L 116 93 L 116 87 z " />
  <path
     id="rect959"
     style="fill:#ffffff;fill-opacity:1;stroke-width:4;opacity:0.1"
     d="M 46 16 C 29.38 16 16 29.38 16 46 L 16 47 C 16 30.38 29.38 17 46 17 L 146 17 C 162.62 17 176 30.38 176 47 L 176 46 C 176 29.38 162.62 16 146 16 L 46 16 z " />
  <path
     style="fill:#ffffff;stroke-width:0.0697541;opacity:1;fill-opacity:1"
     d="m 156,98 v -4 h -9 v -8.999995 h -4 V 94 h -9 v 4 h 9 v 9 h 4 v -9 z"
     id="polygon21"
     sodipodi:nodetypes="ccccccccccccc" />
  <path
     style="opacity:1;stroke-width:0.0659419;fill:#ffffff;fill-opacity:1"
     d="m 45.082954,91.951767 c -1.647274,-0.76853 -2.281394,-1.580825 -2.281394,-2.648411 0,-1.239329 1.056431,-2.264479 2.623045,-2.22204 1.436775,0.04244 2.491895,0.811631 3.295858,2.65239 l 4.943131,-2.178939 C 52.311414,84.05096 49.565084,82 45.127545,82 c -4.690007,0 -8.155051,3.116557 -8.155051,7.306671 0,2.862592 1.352181,5.211946 4.817225,6.962524 l 3.463733,1.750578 c 1.943677,0.98271 2.873548,1.708807 2.873548,3.161657 0,1.53772 -1.267588,2.64906 -2.873548,2.64906 -1.732523,0 -3.295858,-0.98271 -4.013917,-3.20474 L 36,102.16414 C 37.180371,106.47957 40.690007,109 45.253452,109 50.197238,109 54,105.79592 54,101.18143 54,97.635176 52.140916,95.24272 48.380123,93.48949 Z"
     id="path2425" />
  <path
     style="opacity:1;stroke-width:0.0686172;fill:#ffffff;fill-opacity:1"
     d="M 74,82 H 56 v 5 h 6 v 22 h 6 V 87 h 6 z"
     id="path2423"
     sodipodi:nodetypes="ccccccccc" />
  <path
     id="rect982"
     style="opacity:1;fill:#fd4e21;stroke-width:8;stroke-linecap:round;stroke-linejoin:round;fill-opacity:1"
     d="M 89.949219,79.386719 85.507812,92 H 72.347656 l 10.673828,7.726562 C 86.50623,97.979591 89.76306,96.058049 94.299995,95.116998 88.661401,99.194453 83.952553,103.72694 80.11632,108.68649 l -1.133898,3.4971 10.966797,-7.45312 10.968751,7.45312 L 96.878906,99.726562 107.55273,92 H 94.392578 Z"
     sodipodi:nodetypes="ccccccccccccc" />
</svg>
