<?xml version="1.0" encoding="UTF-8" standalone="no"?>
<svg
   width="192"
   height="192"
   version="1"
   id="svg28"
   sodipodi:docname="apps_bible_strongs.svg"
   inkscape:version="1.1.1 (1:1.1+202109281949+c3084ef5ed)"
   xmlns:inkscape="http://www.inkscape.org/namespaces/inkscape"
   xmlns:sodipodi="http://sodipodi.sourceforge.net/DTD/sodipodi-0.dtd"
   xmlns="http://www.w3.org/2000/svg"
   xmlns:svg="http://www.w3.org/2000/svg"
   xmlns:rdf="http://www.w3.org/1999/02/22-rdf-syntax-ns#"
   xmlns:cc="http://creativecommons.org/ns#"
   xmlns:dc="http://purl.org/dc/elements/1.1/">
  <metadata
     id="metadata34">
    <rdf:RDF>
      <cc:Work
         rdf:about="">
        <dc:format>image/svg+xml</dc:format>
        <dc:type
           rdf:resource="http://purl.org/dc/dcmitype/StillImage" />
      </cc:Work>
    </rdf:RDF>
  </metadata>
  <defs
     id="defs32">
    <filter
       inkscape:collect="always"
       style="color-interpolation-filters:sRGB"
       id="filter2177"
       x="-0.045"
       y="-0.051428571"
       width="1.09"
       height="1.1028571">
      <feGaussianBlur
         inkscape:collect="always"
         stdDeviation="3"
         id="feGaussianBlur2179" />
    </filter>
    <filter
       inkscape:collect="always"
       style="color-interpolation-filters:sRGB"
       id="filter2107"
       x="-0.13371428"
       y="-0.090580642"
       width="1.2674286"
       height="1.1811613">
      <feGaussianBlur
         inkscape:collect="always"
         stdDeviation="2.34"
         id="feGaussianBlur2109" />
    </filter>
  </defs>
  <sodipodi:namedview
     pagecolor="#ffffff"
     bordercolor="#666666"
     borderopacity="1"
     objecttolerance="10"
     gridtolerance="10"
     guidetolerance="10"
     inkscape:pageopacity="0"
     inkscape:pageshadow="2"
     inkscape:window-width="1920"
     inkscape:window-height="1022"
     id="namedview30"
     showgrid="false"
     inkscape:zoom="1"
     inkscape:cx="120"
     inkscape:cy="56"
     inkscape:window-x="0"
     inkscape:window-y="34"
     inkscape:window-maximized="1"
     inkscape:current-layer="svg28"
     inkscape:pagecheckerboard="0"
     inkscape:snap-global="true"
     showguides="true"
     inkscape:snap-bbox="true"
     inkscape:snap-bbox-midpoints="true"
     inkscape:bbox-paths="false">
    <inkscape:grid
       type="xygrid"
       id="grid841" />
  </sodipodi:namedview>
  <rect
     id="rect2139"
     transform="matrix(0,-1,-1,0,0,0)"
     ry="12"
     rx="12"
     y="-166"
     x="-180"
     height="140"
     width="160"
     style="opacity:0.2;fill:#000000;fill-opacity:1;stroke-width:3.74166;filter:url(#filter2177)" />
  <rect
     id="rect2"
     transform="matrix(0,-1,-1,0,0,0)"
     ry="12"
     rx="12"
     y="-166"
     x="-176"
     height="140"
     width="160"
     style="fill:#9c4cb9;fill-opacity:1;stroke-width:3.74166" />
  <path
     id="rect1216"
     style="opacity:0.25;fill:#000000;fill-opacity:1;stroke:none;stroke-width:12;stroke-linecap:round;stroke-linejoin:round"
     d="M 38 16 C 31.352 16 26 21.352 26 28 L 26 164 C 26 170.648 31.352 176 38 176 L 50 176 L 50 16 L 38 16 z " />
  <path
     id="path2069"
     style="opacity:0.2;fill:#000000;fill-opacity:1;stroke-width:10;stroke-linecap:round;stroke-linejoin:round;filter:url(#filter2107)"
     d="m 122,100 v 14 h -15 v 12 h 15 v 36 h 12 v -36 h 15 v -12 h -15 v -14 z" />
  <path
     id="rect1756"
     style="opacity:1;fill:#ffffff;fill-opacity:1;stroke-width:10;stroke-linecap:round;stroke-linejoin:round"
     d="M 122 98 L 122 112 L 107 112 L 107 124 L 122 124 L 122 160 L 134 160 L 134 124 L 149 124 L 149 112 L 134 112 L 134 98 L 122 98 z " />
  <path
     id="rect2181"
     style="fill:#ffffff;fill-opacity:1;stroke-width:3.74166;opacity:0.1"
     d="M 38 16 C 31.352 16 26 21.352 26 28 L 26 29 C 26 22.352 31.352 17 38 17 L 154 17 C 160.648 17 166 22.352 166 29 L 166 28 C 166 21.352 160.648 16 154 16 L 38 16 z " />
</svg>
