<?xml version="1.0" encoding="UTF-8" standalone="no"?>
<svg
   width="192"
   height="192"
   version="1"
   id="svg14"
   sodipodi:docname="apps_naukricom.svg"
   inkscape:version="1.1.1 (1:1.1+202109281949+c3084ef5ed)"
   xmlns:inkscape="http://www.inkscape.org/namespaces/inkscape"
   xmlns:sodipodi="http://sodipodi.sourceforge.net/DTD/sodipodi-0.dtd"
   xmlns="http://www.w3.org/2000/svg"
   xmlns:svg="http://www.w3.org/2000/svg"
   xmlns:rdf="http://www.w3.org/1999/02/22-rdf-syntax-ns#"
   xmlns:cc="http://creativecommons.org/ns#"
   xmlns:dc="http://purl.org/dc/elements/1.1/">
  <metadata
     id="metadata20">
    <rdf:RDF>
      <cc:Work
         rdf:about="">
        <dc:format>image/svg+xml</dc:format>
        <dc:type
           rdf:resource="http://purl.org/dc/dcmitype/StillImage" />
      </cc:Work>
    </rdf:RDF>
  </metadata>
  <defs
     id="defs18">
    <filter
       inkscape:collect="always"
       style="color-interpolation-filters:sRGB"
       id="filter850"
       x="-0.048000001"
       width="1.096"
       y="-0.048000001"
       height="1.096">
      <feGaussianBlur
         inkscape:collect="always"
         stdDeviation="3.2"
         id="feGaussianBlur852" />
    </filter>
    <filter
       inkscape:collect="always"
       style="color-interpolation-filters:sRGB"
       id="filter6218"
       x="-0.082884865"
       y="-0.068485001"
       width="1.1657697"
       height="1.13697">
      <feGaussianBlur
         inkscape:collect="always"
         stdDeviation="2.8820791"
         id="feGaussianBlur6220" />
    </filter>
  </defs>
  <sodipodi:namedview
     pagecolor="#ffffff"
     bordercolor="#666666"
     borderopacity="1"
     objecttolerance="10"
     gridtolerance="10"
     guidetolerance="10"
     inkscape:pageopacity="0"
     inkscape:pageshadow="2"
     inkscape:window-width="1920"
     inkscape:window-height="1019"
     id="namedview16"
     showgrid="false"
     inkscape:zoom="1"
     inkscape:cx="90"
     inkscape:cy="95.5"
     inkscape:window-x="0"
     inkscape:window-y="34"
     inkscape:window-maximized="1"
     inkscape:current-layer="svg14"
     inkscape:pagecheckerboard="0"
     inkscape:snap-bbox="true"
     inkscape:snap-bbox-midpoints="true"
     inkscape:snap-global="true">
    <inkscape:grid
       type="xygrid"
       id="grid5193" />
  </sodipodi:namedview>
  <circle
     style="opacity:0.2;fill:#000000;stroke-width:4;filter:url(#filter850)"
     cx="96"
     cy="100"
     r="80"
     id="circle832" />
  <circle
     id="circle4"
     r="80"
     cy="96"
     cx="96"
     style="fill:#e4e4e4;stroke-width:4;fill-opacity:1" />
  <path
     id="path6177"
     style="opacity:0.2;fill:#000000;fill-opacity:1;stroke-width:0.30179;filter:url(#filter6218)"
     d="m 64.533203,47.000466 c -6.747604,0.06331 -11.943062,5.642814 -10.189453,11.689453 0.904605,3.119184 3.638611,5.828463 6.957031,6.894531 2.311482,0.742584 5.98303,0.463375 8.175781,-0.621093 C 72.866406,63.286845 74.98385,60.141609 75,56.754372 c 0.01395,-2.924703 -0.111062,-3.111328 -2.074219,-3.111328 -0.924687,0 -1.681894,-0.104455 -1.683593,-0.232422 -0.0015,-0.127958 0.438762,-0.596296 0.978515,-1.041015 0.649606,-0.535219 0.915768,-0.97764 0.789063,-1.308594 -0.175473,-0.458439 -0.30697,-0.457576 -1.585938,0.01758 -1.750742,0.650414 -2.093775,0.34577 -0.953125,-0.847656 0.485814,-0.508296 0.791083,-1.017233 0.677735,-1.13086 -0.113348,-0.11362 -0.925515,0.02593 -1.804688,0.310547 -0.879165,0.28462 -1.662814,0.454553 -1.740234,0.376953 -0.07747,-0.07764 0.169315,-0.575921 0.546875,-1.107421 0.377558,-0.531502 0.631866,-1.020318 0.566406,-1.085938 -0.06543,-0.06558 -0.985412,-0.258651 -2.044922,-0.429688 -0.725257,-0.117078 -1.440644,-0.170611 -2.138672,-0.164062 z m 50.134767,1.683594 -3.77149,0.138672 c -4.31496,0.159116 -7.25941,0.711408 -11.769527,2.203125 -10.884617,3.600083 -24.063113,13.05567 -30.669922,22.007812 -3.344633,4.531951 -5.582456,9.719439 -5.99414,13.894531 -0.113308,1.1491 -0.620657,3.651726 -1.128907,5.560547 -1.873816,7.03752 -0.928371,13.600303 2.876954,19.962893 4.472926,7.47885 14.701189,15.33404 28.066406,21.55469 9.057716,4.21579 23.058376,8.93055 37.179686,12.52148 5.52467,1.40489 7.99609,1.7835 7.99609,1.22461 0,-0.4566 -0.68415,-0.81816 -2.86523,-1.51367 -2.35798,-0.75195 -9.56794,-4.15415 -13.27539,-6.26562 -3.03494,-1.72846 -11.65914,-7.41119 -11.49609,-7.57422 0.0667,-0.0667 2.5428,0.62785 5.5039,1.54297 6.94561,2.14654 12.3149,3.63669 15.34375,4.25781 1.32787,0.27231 2.67195,0.54848 2.98633,0.61328 1.03164,0.21284 0.0812,-0.31484 -3.28906,-1.82422 -17.42076,-7.802 -30.938805,-17.19128 -38.863283,-26.99609 -3.692833,-4.56909 -7.205361,-10.357382 -8.408203,-13.853522 -2.084666,-6.059176 1.870583,-16.098784 9.474609,-24.052734 5.3032,-5.547242 11.044797,-9.602215 22.859377,-16.144532 3.27534,-1.813717 3.41888,-1.932779 2.56445,-2.117187 -1.84219,-0.397575 -5.92602,-0.249449 -9.37305,0.339843 -1.95135,0.333609 -3.60653,0.547733 -3.67773,0.476563 -0.0712,-0.0712 1.54619,-1.111333 3.59375,-2.3125 2.04755,-1.201167 4.26576,-2.512712 4.92969,-2.914063 z m 0.0957,5.785156 c 0.23068,0.0094 0.35742,0.04327 0.35742,0.105469 0,0.07069 -1.79874,1.181825 -3.99804,2.46875 -8.30741,4.861142 -12.616814,8.014472 -17.689456,12.941406 -3.999808,3.884916 -6.928589,7.65624 -8.675782,11.175781 -0.760508,1.531967 -1.686876,3.960593 -2.058593,5.396485 -0.371717,1.435892 -0.764766,2.520389 -0.875,2.410156 -0.352675,-0.352675 -0.214919,-4.198327 0.232422,-6.486328 1.542375,-7.888675 5.892192,-14.271325 15.1875,-22.28125 3.214619,-2.770092 3.543629,-2.971949 6.037109,-3.712891 3.2086,-0.953444 9.86769,-2.083406 11.48242,-2.017578 z m -52.984373,39.376953 0.667969,2.263672 c 2.872,9.737949 9.363387,17.493099 19.851562,23.718749 6.219076,3.69161 17.184661,8.91523 20.830082,9.92188 1.2443,0.3436 2.49089,1.05345 4.37695,2.49414 4.5676,3.48903 13.38843,8.77187 20.11328,12.04492 1.48398,0.72228 2.50452,1.30588 2.26758,1.29688 -0.85254,-0.0335 -14.04946,-3.93341 -19.70313,-5.82227 -27.79171,-9.28506 -44.160988,-21.03152 -47.874996,-34.35547 -0.749742,-2.68986 -1.06608,-6.654641 -0.757813,-9.468751 z" />
  <path
     id="path1022"
     style="fill:#137fcf;stroke-width:0.30179;opacity:1;fill-opacity:1"
     d="M 114.66797 46.683594 L 110.89648 46.822266 C 106.58152 46.981382 103.63707 47.533674 99.126953 49.025391 C 88.242336 52.625474 75.06384 62.081061 68.457031 71.033203 C 65.112398 75.565154 62.874575 80.752642 62.462891 84.927734 C 62.349583 86.076834 61.842234 88.57946 61.333984 90.488281 C 59.460168 97.525801 60.405613 104.08858 64.210938 110.45117 C 68.683864 117.93002 78.912127 125.78521 92.277344 132.00586 C 101.33506 136.22165 115.33572 140.93641 129.45703 144.52734 C 134.9817 145.93223 137.45312 146.31084 137.45312 145.75195 C 137.45312 145.29535 136.76897 144.93379 134.58789 144.23828 C 132.22991 143.48633 125.01995 140.08413 121.3125 137.97266 C 118.27756 136.2442 109.65336 130.56147 109.81641 130.39844 C 109.88313 130.33171 112.35921 131.02629 115.32031 131.94141 C 122.26592 134.08795 127.63521 135.5781 130.66406 136.19922 C 131.99193 136.47153 133.33601 136.7477 133.65039 136.8125 C 134.68203 137.02534 133.73157 136.49766 130.36133 134.98828 C 112.94057 127.18628 99.422525 117.797 91.498047 107.99219 C 87.805214 103.4231 84.292686 97.634812 83.089844 94.138672 C 81.005178 88.079496 84.960427 78.039888 92.564453 70.085938 C 97.867653 64.538696 103.60925 60.483723 115.42383 53.941406 C 118.69917 52.127689 118.84271 52.008627 117.98828 51.824219 C 116.14609 51.426644 112.06226 51.57477 108.61523 52.164062 C 106.66388 52.497671 105.0087 52.711795 104.9375 52.640625 C 104.8663 52.569425 106.48369 51.529292 108.53125 50.328125 C 110.5788 49.126958 112.79701 47.815413 113.46094 47.414062 L 114.66797 46.683594 z M 114.76367 52.46875 C 114.99435 52.478154 115.12109 52.512021 115.12109 52.574219 C 115.12109 52.644911 113.32235 53.756044 111.12305 55.042969 C 102.81564 59.904111 98.506236 63.057441 93.433594 67.984375 C 89.433786 71.869291 86.505004 75.640615 84.757812 79.160156 C 83.997304 80.692123 83.070936 83.120749 82.699219 84.556641 C 82.327502 85.992533 81.934453 87.07703 81.824219 86.966797 C 81.471544 86.614122 81.6093 82.76847 82.056641 80.480469 C 83.599016 72.591794 87.948833 66.209144 97.244141 58.199219 C 100.45876 55.429127 100.78777 55.22727 103.28125 54.486328 C 106.48985 53.532884 113.14894 52.402922 114.76367 52.46875 z M 61.779297 91.845703 L 62.447266 94.109375 C 65.319266 103.84732 71.810653 111.60246 82.298828 117.82812 C 88.517904 121.51972 99.483493 126.74335 103.12891 127.75 C 104.37321 128.0936 105.6198 128.80345 107.50586 130.24414 C 112.07346 133.73317 120.89429 139.01601 127.61914 142.28906 C 129.10312 143.01134 130.12366 143.59494 129.88672 143.58594 C 129.03418 143.5524 115.83726 139.65253 110.18359 137.76367 C 82.391876 128.47861 66.022602 116.73215 62.308594 103.4082 C 61.558852 100.71834 61.242514 96.753563 61.550781 93.939453 L 61.779297 91.845703 z " />
  <path
     style="fill:#38adfa"
     d="m 688.80525,256.99648 c -0.33229,-0.33229 -1.1948,-0.36781 -1.91667,-0.0789 -0.79773,0.31922 -0.56078,0.55618 0.60417,0.60416 1.05416,0.0434 1.64479,-0.19293 1.3125,-0.52522 z"
     id="path1063" />
  <path
     style="opacity:0.2;fill:#ffffff;stroke-width:4"
     d="M 96 16 A 80 80 0 0 0 16 96 A 80 80 0 0 0 16.019531 96.472656 A 80 80 0 0 1 96 17 A 80 80 0 0 1 175.97461 96.513672 A 80 80 0 0 0 176 96 A 80 80 0 0 0 96 16 z "
     id="path6" />
  <path
     style="fill:#e43138;fill-opacity:1;stroke-width:0.309845"
     d="m 61.300909,63.584004 c -3.31842,-1.066068 -6.052719,-3.7759 -6.957324,-6.895084 -1.935017,-6.672154 4.592039,-12.774219 12.328109,-11.525379 1.05951,0.171036 1.979915,0.364635 2.045348,0.430216 0.06546,0.06562 -0.18995,0.554115 -0.567508,1.085617 -0.37756,0.5315 -0.623098,1.029893 -0.545633,1.107535 0.07742,0.0776 0.860151,-0.0917 1.739316,-0.37632 0.879173,-0.284613 1.691239,-0.424521 1.804586,-0.310901 0.113349,0.113627 -0.191393,0.622462 -0.677207,1.130758 -1.14065,1.193426 -0.79777,1.498598 0.952972,0.848184 1.278968,-0.475154 1.41098,-0.476679 1.586453,-0.01824 0.126705,0.330954 -0.140351,0.773343 -0.789957,1.308562 -0.539753,0.444719 -0.980105,0.913278 -0.978575,1.041236 0.0017,0.127967 0.759356,0.232659 1.684043,0.232659 1.963157,0 2.087521,0.186609 2.073566,3.111312 -0.01615,3.387237 -2.131924,6.532769 -5.521767,8.209281 -2.192751,1.084468 -5.86494,1.363197 -8.176422,0.620613 z"
     id="path1048" />
</svg>
