<?xml version="1.0" encoding="UTF-8" standalone="no"?>
<svg
   xmlns:dc="http://purl.org/dc/elements/1.1/"
   xmlns:cc="http://creativecommons.org/ns#"
   xmlns:rdf="http://www.w3.org/1999/02/22-rdf-syntax-ns#"
   xmlns:svg="http://www.w3.org/2000/svg"
   xmlns="http://www.w3.org/2000/svg"
   xmlns:sodipodi="http://sodipodi.sourceforge.net/DTD/sodipodi-0.dtd"
   xmlns:inkscape="http://www.inkscape.org/namespaces/inkscape"
   width="192"
   height="192"
   version="1.1"
   id="svg14"
   sodipodi:docname="apps_redmoon1.svg"
   inkscape:version="0.92.5 (2060ec1f9f, 2020-04-08)">
  <metadata
     id="metadata20">
    <rdf:RDF>
      <cc:Work
         rdf:about="">
        <dc:format>image/svg+xml</dc:format>
        <dc:type
           rdf:resource="http://purl.org/dc/dcmitype/StillImage" />
        <dc:title></dc:title>
      </cc:Work>
    </rdf:RDF>
  </metadata>
  <defs
     id="defs18">
    <filter
       inkscape:collect="always"
       style="color-interpolation-filters:sRGB"
       id="filter836"
       x="-0.048"
       width="1.096"
       y="-0.048"
       height="1.096">
      <feGaussianBlur
         inkscape:collect="always"
         stdDeviation="3.2"
         id="feGaussianBlur838" />
    </filter>
    <filter
       inkscape:collect="always"
       style="color-interpolation-filters:sRGB"
       id="filter852"
       x="-0.048516722"
       width="1.0970334"
       y="-0.047494168"
       height="1.0949883">
      <feGaussianBlur
         inkscape:collect="always"
         stdDeviation="2.2917518"
         id="feGaussianBlur854" />
    </filter>
  </defs>
  <sodipodi:namedview
     pagecolor="#ffffff"
     bordercolor="#666666"
     borderopacity="1"
     objecttolerance="10"
     gridtolerance="10"
     guidetolerance="10"
     inkscape:pageopacity="0"
     inkscape:pageshadow="2"
     inkscape:window-width="1280"
     inkscape:window-height="745"
     id="namedview16"
     showgrid="true"
     inkscape:snap-global="true"
     inkscape:zoom="2.4583334"
     inkscape:cx="78.749758"
     inkscape:cy="96.302469"
     inkscape:window-x="-12"
     inkscape:window-y="-2"
     inkscape:window-maximized="1"
     inkscape:current-layer="svg14">
    <inkscape:grid
       type="xygrid"
       id="grid909" />
  </sodipodi:namedview>
  <circle
     id="circle2"
     cy="100"
     cx="96"
     style="opacity:0.2;stroke-width:4;filter:url(#filter836)"
     r="80" />
  <path
     style="fill:#9f1413;stroke-width:4"
     d="m 96,16 a 80,80 0 0 0 -80,80 80,80 0 0 0 9.40625,37.5078 L 91.015624,175.75 A 80,80 0 0 0 96,176 80,80 0 0 0 176,96 80,80 0 0 0 96,16 Z"
     id="circle4"
     inkscape:connector-curvature="0" />
  <path
     inkscape:connector-curvature="0"
     style="opacity:0.2;stroke-width:4.44444418"
     d="m 88.443984,16.4296 a 80,80 0 0 0 -28.952,8.3984 c 0.404,1.2804 -0.068,2.7248 -1.54,4 -0.996,0.8632 -1.812,2.2076 -1.812,2.9924 0,2.3988 2.168,6.082 3.9,6.6172 2.3,0.712 1.528,3.1664 -1.432,4.5224 -1.368,0.628 -3.052,2.436 -3.74,4.016 -0.692,1.584 -1.708,3.144 -2.26,3.468 -0.548,0.328 -1,1.564 -1,2.752 0,1.66 0.76,2.464 3.252,3.46 1.784,0.716 3.92,1.236 4.748,1.156 4.764,-0.448 5.096,2.328 0.932,7.752 -2.212,2.88 -3.276,3.604 -4.784,3.24 -1.404,-0.336 -2.172,0.06 -2.812,1.452 -0.672,1.476 -1.776,1.976 -4.74,2.18 -2.916,0.204 -4.22,0.796 -5.312,2.392 -0.8,1.164 -1.952,2.108 -2.564,2.108 -0.6136,0 -2.0544,0.784 -3.2032,1.736 -2.3376,1.94 -3.2504,2.136 -4.07,0.868 -1.0832,-1.68 -3.4204,-0.832 -6.8984,2.5 -3.076,2.944 -3.4484,3.732 -2.9844,6.288 0.8256,4.548 3.2924,8.584 6.1092,9.992 2.458,1.228 2.506,1.36 1.0156,2.936 -0.8572,0.908 -2.328,1.88 -3.2656,2.164 -2.708,0.824 -1.1836,1.856 3.6484,2.472 4.9456,0.628 6.4824,2.42 4.172,4.864 -1.2884,1.364 -1.216,1.62 0.8516,2.916 4.04,2.536 7.2528,0.984 3.4608,-1.672 -2.4372,-1.708 -0.7328,-2.404 2.844,-1.164 2.852,0.988 3.416,0.932 5.1,-0.532 3.46,-2.996 7.22,1.436 4.056,4.78 -2.012,2.132 -1.404,4.7 1.204,5.056 1.152,0.156 3.544,1.228 5.32,2.384 1.776,1.152 3.712,2.1 4.296,2.1 0.584,0 2.232,1.172 3.664,2.604 2.904,2.9 4.516,3.268 5.336,1.224 0.984,-2.456 0.588,-3.724 -2.064,-6.616 -2.108,-2.304 -5.536,-8.424 -5.536,-9.892 0,-0.904 3.484,-0.136 5.436,1.196 1.22,0.836 3.196,1.912 4.392,2.4 1.272,0.52 2.592,2.136 3.196,3.904 0.94,2.776 1.312,3.016 4.64,3.016 h 3.616 l 0.548,6.5 c 0.656,7.82 1.284,9.404 3.968,10.048 1.976,0.476 4.084,3.536 4.084,5.928 0,0.636 -1.42,2.196 -3.156,3.464 -2.152,1.572 -3.08,2.908 -2.936,4.216 0.18,1.636 -0.192,1.892 -2.508,1.72 -1.492,-0.112 -4.084,0.412 -5.748,1.164 -1.972,0.888 -4.108,1.172 -6.112,0.812 -2.304,-0.412 -3.084,-0.252 -3.084,0.648 0,0.664 -0.808,1.904 -1.792,2.76 -2.432,2.108 -1.428,3.224 2.308,2.552 2.32,-0.416 3.224,-0.232 3.624,0.768 0.852,2.124 -1.308,5.164 -3.312,4.664 -1.272,-0.32 -1.88,0.116 -2.276,1.616 -0.136,0.532 -0.388,0.984 -0.688,1.368 a 80,80 0 0 0 12.66,3.74 c -0.4,-0.764 -0.856,-1.46 -1.3,-1.772 -2.06,-1.456 -0.68,-5.24 2.156,-5.92 2.892,-0.696 2.436,-2.572 -0.708,-2.932 -2.756,-0.312 -5.688,-3.104 -4.768,-4.532 0.62,-0.956 3.256,-0.816 8.588,0.448 2.408,0.568 4.052,-0.576 9.632,-6.68 3.228,-3.536 5.712,-5.008 8.435996,-5.008 1.04,0 4.748,-0.956 8.244,-2.124 6.6,-2.212 9.18,-2.132 8.936,0.28 -0.504,5.016 2.724,4.848 7.984,-0.408 2.192,-2.188 4.196,-3.772 4.456,-3.524 1.004,0.964 -0.804,5.656 -2.916,7.556 -2.676,2.408 -2.808,3.928 -0.452,5.132 1.288,0.664 1.836,2.004 2.04,5.016 l 0.272,4.112 h 3.344 c 1.172,0 2.144,0.16 2.928,0.46 a 80,80 0 0 0 38.76,-66.024 c -1.224,-2.616 -1.136,-4.196 0,-5.976 a 80,80 0 0 0 -0.36,-4.484 c -0.728,-0.036 -1.472,-0.068 -2.328,-0.032 -4.032,0.168 -7.484,-1.42 -7.484,-3.444 0,-0.428 -1.432,-2.192 -3.18,-3.916 -1.984,-1.952 -3,-3.68 -2.704,-4.576 0.272,-0.816 -0.312,-2.132 -1.344,-3.024 -1.004,-0.872 -1.828,-2.272 -1.828,-3.112 0,-1.34 -0.852,-1.508 -7.016,-1.36 l -7.016,0.172 0.12,6.916 c 0.208,12.112 2.012,15.256 7.576,13.228 2.548,-0.932 8.808,-0.228 10.588,1.184 0.644,0.512 1.576,2.368 2.068,4.128 0.496,1.756 2.328,4.8 4.08,6.756 3.544,3.968 3.82,5.516 1.788,10.172 -1.772,4.064 -3.684,3.596 -3.304,-0.812 l 0.28,-3.28 -3,0.56 c -1.66,0.316 -3.74,1.54 -4.672,2.752 -1.328,1.724 -1.948,1.976 -2.944,1.188 -0.696,-0.552 -1.26,-1.716 -1.26,-2.58 0,-0.864 -0.856,-1.824 -1.896,-2.14 -1.044,-0.316 -2.472,-1.888 -3.172,-3.5 -1.124,-2.576 -1.096,-3.364 0.212,-6.492 1.324,-3.172 1.336,-3.696 0.116,-4.868 -1.12,-1.072 -1.7,-1.108 -3.172,-0.224 -1.48,0.884 -2.18,0.82 -3.94,-0.36 -1.172,-0.788 -3.224,-1.44 -4.552,-1.44 -2.7,0 -3.516,-1.312 -3.516,-5.656 0,-4.012 -2.392,-5.468 -8.088,-4.944 -3.952,0.364 -4.824,0.104 -8.012,-2.352 -1.972,-1.516 -5.084,-5.164 -6.924,-8.116 -1.84,-2.952 -3.82,-6.036 -4.4,-6.852 -0.832,-1.18 -0.628,-2.312 1,-5.524 l 2.056,-4.04 -4.344,0.588 c -7.727996,1.044 -9.291996,2.044 -5.967996,3.828 1.295996,0.692 1.351996,1.048 0.352,2.204 -0.656,0.752 -0.964,1.948 -0.68,2.656 0.284,0.704 -0.076,2.368 -0.796,3.692 -0.724,1.328 -1.328,3.188 -1.352,4.144 -0.076,2.98 -5.18,5.352 -10.868,5.036 -8.616,-0.476 -9.316,-0.34 -12.376,2.5 -3.824,3.552 -4.316,5.204 -2.536,8.5 1.724,3.2 4.788,4.476 10.092,4.212 4.744,-0.236 5.28,0.184 4.196,3.32 -0.924,2.664 -4.02,3.688 -6.12,2.024 -1.616,-1.284 -7.188,-0.292 -8.896,1.588 -0.716,0.784 -1.78,2.848 -2.36,4.576 -1,2.984 -1.292,3.168 -5.772,3.6 -4.472,0.436 -4.904,0.292 -8.12,-2.672 -3.588,-3.304 -4.196,-5.832 -2.468,-10.184 0.768,-1.928 1.336,-2.244 3.384,-1.868 4.056,0.74 5.656,-0.668 5.656,-5 0,-2.1 -0.408,-4.064 -0.908,-4.36 -0.496,-0.296 -0.904,-1.408 -0.904,-2.476 0,-1.068 -0.512,-2.444 -1.132,-3.048 -0.908,-0.88 -0.776,-1.352 0.672,-2.376 0.992,-0.7 2.624,-1.172 3.624,-1.052 0.996,0.12 3.752,-0.312 6.124,-0.956 3.428,-0.924 4.436,-1.624 4.9,-3.428 0.88,-3.424 3.028,-6.172 4.828,-6.172 2.844,0 2.904,-6.688 0.14,-16.416 -0.408,-1.436 -1.532,-2.348 -3.516,-2.84 -1.608,-0.4 -3.356,-1.496 -3.884,-2.4392 -0.524,-0.9432 -1.488,-1.7112 -2.14,-1.7112 -0.652,0 -1.928,-0.7808 -2.828,-1.7344 -0.908,-0.96 -2.784,-1.7344 -4.212,-1.7344 -3.38,0 -3.436,-2.3272 -0.084,-3.5544 3.54,-1.2976 9.052,0.4032 10.384,3.2028 1.804,3.7964 3.808,2.2124 4.452,-3.5232 0.796,-7.094 3.244,-9.1328 10.96,-9.1328 h 5.548 l -2.432,-2.4296 c -0.756,-0.7584 -1.384,-1.6852 -1.82,-2.594 z m 28.759996,2.5156 c -0.156,0.1408 -0.308,0.256 -0.46,0.414 -1.856,1.8944 -2.728,2.1644 -5.596,1.7268 -5.008,-0.7636 -4.364,1.2528 1.18,3.6876 2.996,1.3164 4.924,2.8172 5.58,4.3356 3.16,7.3264 5.336,11.2708 6.428,11.6708 2.208,0.812 3.524,-0.8176 4.016,-4.9832 0.564,-4.7792 2.18,-5.7924 5.084,-3.1796 1.128,1.014 2.704,1.8436 3.5,1.8436 2.484,0 4.32,0.9972 4.32,2.344 0,0.7096 0.84,2.4196 1.868,3.8032 1.516,2.036 2.544,2.524 5.376,2.524 3.476,0 5.608,0.652 9.96,3.056 0.068,0.036 0.136,0.048 0.204,0.084 a 80,80 0 0 0 -41.46,-27.3268 z M 16.015984,95.6572 a 80,80 0 0 0 -0.0156,0.344 80,80 0 0 0 1.5624,15.368 c 2.8984,1.18 3.6992,0.712 4,-1.984 0.1556,-1.396 0.8844,-2.976 1.6252,-3.524 1.1444,-0.844 0.938,-1.276 -1.4064,-2.876 -1.5176,-1.036 -3.0132,-2.844 -3.3204,-4.016 -0.2976,-1.136 -1.304,-2.376 -2.4452,-3.312 z m 25.1804,26.444 c -0.748,-0.076 -1.6492,0.324 -2.6492,1.284 -2.1156,2.024 -1.796,6.092 0.6016,7.7 2.7476,1.844 3.8076,1.308 4.1556,-2.092 0.428,-4.192 -0.468,-6.72 -2.108,-6.892 z m 13.576,12.096 c -0.816,0.028 -1.716,0.612 -2.616,1.844 -0.956,1.304 -1.216,2.988 -0.852,5.544 0.452,3.144 0.256,3.816 -1.388,4.66 -2.116,1.08 -2.568,4.296 -0.836,5.952 1.72,1.648 3.36,1.216 3.952,-1.04 0.84,-3.216 5.548,-3.592 8.764,-0.704 1.372,1.232 2.492,1.856 2.492,1.384 0,-0.472 -1.428,-2.188 -3.172,-3.804 -2.668,-2.48 -3.164,-3.536 -3.164,-6.728 0,-4.504 -1.38,-7.164 -3.18,-7.108 z m -22.2956,10.328 a 80,80 0 0 0 1.8516,2.336 c -0.5452,-0.844 -1.1676,-1.652 -1.8516,-2.336 z m 26.9596,12.28 c -0.404,0.14 -0.576,0.648 -0.576,1.54 0,0.904 -0.576,1.852 -1.28,2.108 -0.936,0.344 -1.152,1.428 -0.792,4.016 0.068,0.484 0.088,0.872 0.112,1.276 a 80,80 0 0 0 3.328,1.708 c -0.056,-1.384 0.196,-3.012 0.92,-5.052 1.228,-3.464 1.272,-4.332 0.272,-4.94 -0.936,-0.568 -1.576,-0.796 -1.984,-0.656 z"
     id="path839" />
  <path
     style="opacity:0.2;stroke-width:4;filter:url(#filter852)"
     d="m 129.23438,60.09376 c -0.373,-0.0624 -0.78529,0.028 -1.23438,0.3048 -26.04836,16 -32,21.60156 -36,21.60156 -2.981424,0 -4,-2 -8,-2 -8.944272,0 -24,12 -24,12 0,0 -25.746931,-1.26032 -28,4 -1.713258,4 12,16 12,16 0,0 -4,4 -8,12 -2.007032,4.01404 -5.861158,6.73308 -9.367188,11.66408 13.811016,24.12768 39.157836,39.35528 66.945312,40.21872 2.47674,-3.88748 5.059736,-8.40352 6.02344,-11.8828 C 101.02521,158.8602 100,153.33332 100,148 c 0,-4 6.77019,-16.74404 12,-24 5.5127,-7.64848 8,-12 20,-20 4.70679,-3.13788 8,-7.1926 8,-12 0,-4 0,-8 -4,-8 -1.14575,0 -1.62683,0.174 -2.14844,0.4922 -0.71941,-0.89116 -1.54242,-1.738 -2.57812,-2.17972 C 130.71234,85.16088 128,88 128,88 c 4,-12 3.18644,-11.31584 4,-16 0.6219,-3.58068 -0.15448,-11.46928 -2.76562,-11.90624 z"
     id="path911-3"
     inkscape:connector-curvature="0"
     sodipodi:nodetypes="ccsscscsccsssssscccsc" />
  <path
     style="fill:#ffffff;stroke-width:4"
     d="m 129.23438,56.09376 c -0.373,-0.0624 -0.78529,0.028 -1.23438,0.3048 -26.04836,16 -32,21.60156 -36,21.60156 -2.981424,0 -4,-2 -8,-2 -8.944272,0 -24,12 -24,12 0,0 -25.746931,-1.26032 -28,4 -1.713258,4 12,16 12,16 0,0 -4,4 -8,12 -2.245555,4.49112 -6.799375,7.3356 -10.59375,13.5078 13.054276,24.51512 37.889578,40.50516 65.609374,42.2422 2.981868,-4.3056 7.25052,-10.92872 8.58594,-15.75 C 101.02521,154.8602 100,149.33332 100,144 c 0,-4 6.77019,-16.74404 12,-24 5.5127,-7.64848 8,-12 20,-20 4.70679,-3.13788 8,-8 8,-12 0,-2.98144 0,-8 -4,-8 -1.14575,0 -1.62683,0.174 -2.14844,0.4922 -0.71941,-0.89116 -1.54242,-1.738 -2.57812,-2.17972 C 130.71234,81.16088 128,84 128,84 c 4,-12 3.18644,-11.31584 4,-16 0.6219,-3.58068 -0.15448,-11.46928 -2.76562,-11.90624 z"
     id="path911"
     inkscape:connector-curvature="0"
     sodipodi:nodetypes="ccsscscsccsssssscccsc" />
  <path
     style="fill:#ffffff;stroke-width:4;opacity:0.1"
     d="M 96 16 A 80 80 0 0 0 16 96 A 80 80 0 0 0 16.021484 96.408203 A 80 80 0 0 1 96 17 A 80 80 0 0 1 175.97852 96.585938 A 80 80 0 0 0 176 96 A 80 80 0 0 0 96 16 z "
     id="circle4-3" />
</svg>
