<svg xmlns="http://www.w3.org/2000/svg" width="48" height="48" version="1">
 <g>
  <path style="opacity:0.2" d="m 24,3.500183 c -0.526621,0 -1.053507,0.2019447 -1.457031,0.6054688 L 17.148438,9.500183 H 11 c -1.108,0 -2,0.892 -2,2 v 6.148438 l -5.3945312,5.394531 c -0.8070481,0.807048 -0.8070481,2.107014 0,2.914062 L 9,31.351745 v 6.148438 c 0,1.108 0.892,2 2,2 h 6.148438 l 5.394531,5.394531 c 0.807048,0.807048 2.107014,0.807048 2.914062,0 l 5.394531,-5.394531 H 37 c 1.108,0 2,-0.892 2,-2 v -6.148438 l 5.394531,-5.394531 c 0.807048,-0.807048 0.807048,-2.107014 0,-2.914062 L 39,17.648621 v -6.148438 c 0,-1.108 -0.892,-2 -2,-2 H 30.851562 L 25.457031,4.1056518 C 25.053507,3.7021277 24.526621,3.500183 24,3.500183 Z"/>
  <rect style="fill:#ffc107" width="30" height="30" x="9" y="9" rx="2" ry="2"/>
  <rect style="fill:#ffc107" width="30.903" height="30.903" x="18.49" y="-15.45" rx="2.06" ry="2.06" transform="rotate(45)"/>
  <path style="opacity:0.1" d="m 24,13 -2.5,2 -2.5,2 0.01563,0.01172 a 9,9 0 0 0 -0.002,0.002 l 2.527344,2.021484 a 6,6 0 0 1 0.002,0 L 24,21 v -2.5 a 6,6 0 0 1 6,6 6,6 0 0 1 -0.634766,2.667969 l 2.376954,1.90039 A 9,9 0 0 0 33,24.5 a 9,9 0 0 0 -9,-9 z m -7.742188,6.931641 A 9,9 0 0 0 15,24.5 a 9,9 0 0 0 9,9 V 36 l 2.5,-2 2.5,-2 -0.01563,-0.01172 a 9,9 0 0 0 0.002,-0.002 l -2.527344,-2.021484 a 6,6 0 0 1 -0.002,0 L 24,28 v 2.5 a 6,6 0 0 1 -6,-6 6,6 0 0 1 0.634766,-2.667969 z"/>
  <path style="opacity:0.2;fill:#ffffff" d="M 24,3 C 23.473379,3 22.946493,3.2019447 22.542969,3.6054688 L 17.148438,9 H 11 C 9.892,9 9,9.892 9,11 v 0.5 c 0,-1.108 0.892,-2 2,-2 h 6.148438 L 22.542969,4.1054688 C 22.946493,3.7019447 23.473379,3.5 24,3.5 c 0.526621,0 1.053507,0.2019446 1.457031,0.6054688 L 30.851562,9.5 H 37 c 1.108,0 2,0.892 2,2 V 11 C 39,9.892 38.108,9 37,9 H 30.851562 L 25.457031,3.6054688 C 25.053507,3.2019446 24.526621,3 24,3 Z M 9,17.148438 3.6054688,22.542969 C 3.1377067,23.010731 2.9489734,23.643011 3.0234375,24.25 3.0774493,23.809727 3.2661827,23.382255 3.6054688,23.042969 L 9,17.648438 Z m 30,0 v 0.5 l 5.394531,5.394531 c 0.339286,0.339286 0.52802,0.766758 0.582031,1.207031 0.07446,-0.606989 -0.114269,-1.239269 -0.582031,-1.707031 z"/>
  <path style="fill:#486ad6" d="M 24 15 A 9 9 0 0 0 19.013672 16.513672 L 21.541016 18.535156 A 6 6 0 0 1 24 18 A 6 6 0 0 1 30 24 A 6 6 0 0 1 29.365234 26.667969 L 31.742188 28.568359 A 9 9 0 0 0 33 24 A 9 9 0 0 0 24 15 z M 16.257812 19.431641 A 9 9 0 0 0 15 24 A 9 9 0 0 0 24 33 A 9 9 0 0 0 28.986328 31.486328 L 26.458984 29.464844 A 6 6 0 0 1 24 30 A 6 6 0 0 1 18 24 A 6 6 0 0 1 18.634766 21.332031 L 16.257812 19.431641 z"/>
  <path style="fill:#486ad6" transform="matrix(1.1111111,0,0,1.5396007,16.777778,-3.5148092)" d="M 2,13 4.25,11.700962 6.5000001,10.401924 6.5,13 l -1e-7,2.598076 L 4.25,14.299038 Z"/>
  <path style="fill:#486ad6" transform="matrix(-1.1111111,0,0,-1.5396007,31.222222,51.514809)" d="M 2,13 4.25,11.700962 6.5000001,10.401924 6.5,13 l -1e-7,2.598076 L 4.25,14.299038 Z"/>
 </g>
</svg>
