<?xml version="1.0" encoding="UTF-8" standalone="no"?>
<svg
   width="192"
   height="192"
   version="1"
   id="svg12"
   sodipodi:docname="apps_mapmyrun.svg"
   inkscape:version="1.1.1 (1:1.1+202109281949+c3084ef5ed)"
   xmlns:inkscape="http://www.inkscape.org/namespaces/inkscape"
   xmlns:sodipodi="http://sodipodi.sourceforge.net/DTD/sodipodi-0.dtd"
   xmlns="http://www.w3.org/2000/svg"
   xmlns:svg="http://www.w3.org/2000/svg"
   xmlns:rdf="http://www.w3.org/1999/02/22-rdf-syntax-ns#"
   xmlns:cc="http://creativecommons.org/ns#"
   xmlns:dc="http://purl.org/dc/elements/1.1/">
  <metadata
     id="metadata18">
    <rdf:RDF>
      <cc:Work
         rdf:about="">
        <dc:format>image/svg+xml</dc:format>
        <dc:type
           rdf:resource="http://purl.org/dc/dcmitype/StillImage" />
      </cc:Work>
    </rdf:RDF>
  </metadata>
  <defs
     id="defs16">
    <filter
       inkscape:collect="always"
       style="color-interpolation-filters:sRGB"
       id="filter955"
       x="-0.048000001"
       width="1.096"
       y="-0.048000001"
       height="1.096">
      <feGaussianBlur
         inkscape:collect="always"
         stdDeviation="3.2"
         id="feGaussianBlur957" />
    </filter>
    <filter
       inkscape:collect="always"
       style="color-interpolation-filters:sRGB"
       id="filter16797"
       x="-0.10584"
       y="-0.11025"
       width="1.21168"
       height="1.2205">
      <feGaussianBlur
         inkscape:collect="always"
         stdDeviation="4.41"
         id="feGaussianBlur16799" />
    </filter>
  </defs>
  <sodipodi:namedview
     pagecolor="#ffffff"
     bordercolor="#666666"
     borderopacity="1"
     objecttolerance="10"
     gridtolerance="10"
     guidetolerance="10"
     inkscape:pageopacity="0"
     inkscape:pageshadow="2"
     inkscape:window-width="1920"
     inkscape:window-height="1016"
     id="namedview14"
     showgrid="false"
     inkscape:zoom="1"
     inkscape:cx="117.5"
     inkscape:cy="52.5"
     inkscape:window-x="0"
     inkscape:window-y="32"
     inkscape:window-maximized="1"
     inkscape:current-layer="svg12"
     showguides="false"
     inkscape:document-rotation="0"
     inkscape:pagecheckerboard="0"
     inkscape:snap-bbox="true"
     inkscape:snap-bbox-midpoints="true"
     inkscape:snap-global="true">
    <inkscape:grid
       type="xygrid"
       id="grid852" />
  </sodipodi:namedview>
  <rect
     style="opacity:0.2;fill:#000000;fill-opacity:1;stroke-width:4;filter:url(#filter955)"
     width="160"
     height="160"
     x="16"
     y="20"
     rx="30"
     ry="30"
     id="rect953" />
  <rect
     style="fill:#1db8f2;fill-opacity:1;stroke-width:4"
     width="160"
     height="160"
     x="16"
     y="16"
     rx="30"
     ry="30"
     id="rect4" />
  <path
     id="rect959"
     style="fill:#ffffff;fill-opacity:1;stroke-width:4;opacity:0.2"
     d="M 46 16 C 29.38 16 16 29.38 16 46 L 16 47 C 16 30.38 29.38 17 46 17 L 146 17 C 162.62 17 176 30.38 176 47 L 176 46 C 176 29.38 162.62 16 146 16 L 46 16 z " />
  <path
     id="path16759"
     style="opacity:0.2;fill:#000000;stroke-width:0.331451;filter:url(#filter16797)"
     d="m 72.027344,50 -0.744141,0.0039 c -1.19816,0.005 -6.91704,1.507866 -10.404297,2.636719 -3.998759,1.29442 -8.864455,3.313106 -12.277344,5.091797 L 46,59.087891 l 0.189453,1.847656 c 0.257787,2.510615 2.35005,6.657213 4.646485,9.207031 2.50878,2.785592 6.019978,5.41473 10.089843,7.556641 L 64.345703,79.5 60.925781,81.300781 c -4.069865,2.141911 -7.581063,4.771048 -10.089843,7.556641 -2.296434,2.549818 -4.388698,6.696415 -4.646485,9.207031 L 46,99.912109 l 2.601562,1.357421 c 3.412887,1.77869 8.278585,3.79542 12.277344,5.08985 3.487257,1.12883 9.206137,2.63366 10.404297,2.63867 L 72.027344,109 v -9.234375 c 0,-10.145397 0.233941,-11.422647 1.93164,-14.191406 1.087826,-1.774107 1.522933,-1.766653 7.494141,-0.726563 10.19469,1.775768 22.208855,1.599252 32.521485,-0.492187 l 2.76562,-0.5625 0.62305,0.808593 c 1.03785,1.346401 1.9196,2.892129 2.27344,4.767579 0.18454,0.978089 0.33594,5.793326 0.33594,10.703129 V 109 l 0.74414,-0.002 c 1.19816,-0.005 6.91703,-1.50983 10.40429,-2.63867 3.99876,-1.29444 8.86446,-3.31117 12.27735,-5.08985 L 146,99.912109 145.81055,98.064453 c -0.25856,-2.518162 -2.34954,-6.658809 -4.66211,-9.226562 -2.44708,-2.717086 -6.1332,-5.462596 -10.20117,-7.603516 L 127.6543,79.5 l 3.29297,-1.734375 c 4.06797,-2.14092 7.75409,-4.886429 10.20117,-7.603516 2.31257,-2.567752 4.40355,-6.7084 4.66211,-9.226562 L 146,59.087891 143.39844,57.732422 c -3.41289,-1.778681 -8.27859,-3.797367 -12.27735,-5.091797 -3.48726,-1.128853 -9.20613,-2.631875 -10.40429,-2.636719 L 119.97266,50 v 8.927734 c 0,4.909799 -0.1514,9.725037 -0.33594,10.703125 -0.35384,1.875451 -1.23558,3.42118 -2.27344,4.767579 l -0.62305,0.808593 -2.76562,-0.5625 c -10.31263,-2.091449 -22.326795,-2.267955 -32.521485,-0.492187 -5.971208,1.04009 -6.406315,1.047542 -7.494141,-0.726563 -1.697699,-2.768759 -1.93164,-4.046009 -1.93164,-14.191406 z m 24.009765,25 c 3.142442,-0.0079 6.301841,0.419742 9.291011,1.273438 2.24636,0.641548 6.44727,3.226562 6.44727,3.226562 0,0 -4.20091,2.585014 -6.44727,3.226562 -4.78267,1.365916 -10.005236,1.64222 -14.888667,0.78711 -3.163067,-0.553862 -5.564599,-1.403382 -8.242187,-2.91211 L 80.224609,79.5 82.197266,78.398438 c 2.677588,-1.508729 5.07912,-2.358247 8.242187,-2.91211 C 92.27074,75.165662 94.151643,75.0047 96.037109,75 Z M 65,129 v 17 h 4 v -7 h 1.130859 c 0.650841,0 1.168908,0.22197 1.556641,0.5332 0.39466,0.31123 0.783254,0.892 1.164062,1.74219 L 74.742188,146 H 79 l -2.169922,-4.82812 c -0.443127,-0.97926 -0.884111,-1.70732 -1.320312,-2.18555 -0.429279,-0.48583 -0.915908,-0.79696 -1.462891,-0.9336 0.997032,-0.34159 1.731064,-0.8726 2.222656,-1.59375 0.498516,-0.72115 0.748047,-1.64411 0.748047,-2.76757 0,-1.62448 -0.478105,-2.81296 -1.433594,-3.56446 C 74.635418,129.37544 73.149953,129 71.107422,129 Z m 24,0 v 9.99609 c 0,2.36049 0.534762,4.11926 1.605469,5.27344 1.070707,1.15419 2.70012,1.73047 4.888672,1.73047 2.195288,0 3.829685,-0.57628 4.900389,-1.73047 C 101.46524,143.11535 102,141.35658 102,138.99609 V 129 h -4 v 10.09766 c 0,1.37757 -0.09508,2.36327 -0.505859,2.95898 -0.404039,0.58826 -1.070705,0.88281 -2,0.88281 -0.922559,0 -1.589225,-0.29455 -2,-0.88281 C 93.090102,141.46093 93,140.47523 93,139.09766 V 129 Z m 25,0 v 17 h 4 v -9.66016 L 122.82227,146 H 127 v -17 h -4 v 10.66016 L 118.17773,129 Z m -45,3 h 1.669922 c 0.831616,0 1.425814,0.15263 1.783203,0.45898 0.364261,0.30636 0.546875,0.81521 0.546875,1.5254 0,0.71712 -0.182614,1.2316 -0.546875,1.54492 C 72.095736,135.84261 71.501538,136 70.669922,136 H 69 Z" />
  <path
     id="path5756"
     style="fill:#ffffff;stroke-width:0.331451"
     d="M 72.027344 48 L 71.283203 48.003906 C 70.085043 48.008906 64.366163 49.511772 60.878906 50.640625 C 56.880147 51.935045 52.014451 53.953731 48.601562 55.732422 L 46 57.087891 L 46.189453 58.935547 C 46.44724 61.446162 48.539503 65.59276 50.835938 68.142578 C 53.344718 70.92817 56.855916 73.557308 60.925781 75.699219 L 64.345703 77.5 L 60.925781 79.300781 C 56.855916 81.442692 53.344718 84.071829 50.835938 86.857422 C 48.539504 89.40724 46.44724 93.553837 46.189453 96.064453 L 46 97.912109 L 48.601562 99.269531 C 52.014449 101.04822 56.880147 103.06495 60.878906 104.35938 C 64.366163 105.48821 70.085043 106.99304 71.283203 106.99805 L 72.027344 107 L 72.027344 97.765625 C 72.027344 87.620228 72.261285 86.342978 73.958984 83.574219 C 75.04681 81.800112 75.481917 81.807566 81.453125 82.847656 C 91.647815 84.623424 103.66198 84.446908 113.97461 82.355469 L 116.74023 81.792969 L 117.36328 82.601562 C 118.40113 83.947963 119.28288 85.493691 119.63672 87.369141 C 119.82126 88.34723 119.97266 93.162467 119.97266 98.072266 L 119.97266 107 L 120.7168 106.99805 C 121.91496 106.99305 127.63383 105.48822 131.12109 104.35938 C 135.11985 103.06494 139.98555 101.04821 143.39844 99.269531 L 146 97.912109 L 145.81055 96.064453 C 145.55199 93.546291 143.46101 89.405644 141.14844 86.837891 C 138.70136 84.120805 135.01524 81.375295 130.94727 79.234375 L 127.6543 77.5 L 130.94727 75.765625 C 135.01524 73.624705 138.70136 70.879196 141.14844 68.162109 C 143.46101 65.594357 145.55199 61.453709 145.81055 58.935547 L 146 57.087891 L 143.39844 55.732422 C 139.98555 53.953741 135.11985 51.935055 131.12109 50.640625 C 127.63383 49.511772 121.91496 48.00875 120.7168 48.003906 L 119.97266 48 L 119.97266 56.927734 C 119.97266 61.837533 119.82126 66.652771 119.63672 67.630859 C 119.28288 69.50631 118.40114 71.052039 117.36328 72.398438 L 116.74023 73.207031 L 113.97461 72.644531 C 103.66198 70.553082 91.647815 70.376576 81.453125 72.152344 C 75.481917 73.192434 75.04681 73.199886 73.958984 71.425781 C 72.261285 68.657022 72.027344 67.379772 72.027344 57.234375 L 72.027344 48 z M 96.037109 73 C 99.179551 72.992129 102.33895 73.419742 105.32812 74.273438 C 107.57448 74.914986 111.77539 77.5 111.77539 77.5 C 111.77539 77.5 107.57448 80.085014 105.32812 80.726562 C 100.54545 82.092478 95.322884 82.368782 90.439453 81.513672 C 87.276386 80.95981 84.874854 80.11029 82.197266 78.601562 L 80.224609 77.5 L 82.197266 76.398438 C 84.874854 74.889709 87.276386 74.040191 90.439453 73.486328 C 92.27074 73.165662 94.151643 73.0047 96.037109 73 z M 65 127 L 65 144 L 69 144 L 69 137 L 70.130859 137 C 70.7817 137 71.299767 137.22197 71.6875 137.5332 C 72.08216 137.84443 72.470754 138.4252 72.851562 139.27539 L 74.742188 144 L 79 144 L 76.830078 139.17188 C 76.386951 138.19262 75.945967 137.46456 75.509766 136.98633 C 75.080487 136.5005 74.593858 136.18937 74.046875 136.05273 C 75.043907 135.71114 75.777939 135.18013 76.269531 134.45898 C 76.768047 133.73783 77.017578 132.81487 77.017578 131.69141 C 77.017578 130.06693 76.539473 128.87845 75.583984 128.12695 C 74.635418 127.37544 73.149953 127 71.107422 127 L 65 127 z M 89 127 L 89 136.99609 C 89 139.35658 89.534762 141.11535 90.605469 142.26953 C 91.676176 143.42372 93.305589 144 95.494141 144 C 97.689429 144 99.323826 143.42372 100.39453 142.26953 C 101.46524 141.11535 102 139.35658 102 136.99609 L 102 127 L 98 127 L 98 137.09766 C 98 138.47523 97.904915 139.46093 97.494141 140.05664 C 97.090102 140.6449 96.423436 140.93945 95.494141 140.93945 C 94.571582 140.93945 93.904916 140.6449 93.494141 140.05664 C 93.090102 139.46093 93 138.47523 93 137.09766 L 93 127 L 89 127 z M 114 127 L 114 144 L 118 144 L 118 134.33984 L 122.82227 144 L 127 144 L 127 127 L 123 127 L 123 137.66016 L 118.17773 127 L 114 127 z M 69 130 L 70.669922 130 C 71.501538 130 72.095736 130.15263 72.453125 130.45898 C 72.817386 130.76534 73 131.27419 73 131.98438 C 73 132.7015 72.817386 133.21598 72.453125 133.5293 C 72.095736 133.84261 71.501538 134 70.669922 134 L 69 134 L 69 130 z " />
</svg>
