<?xml version="1.0" encoding="UTF-8" standalone="no"?>
<svg
   width="192"
   height="192"
   version="1"
   id="svg28"
   sodipodi:docname="apps_actiondirector.svg"
   inkscape:version="1.1.1 (1:1.1+202109281949+c3084ef5ed)"
   xmlns:inkscape="http://www.inkscape.org/namespaces/inkscape"
   xmlns:sodipodi="http://sodipodi.sourceforge.net/DTD/sodipodi-0.dtd"
   xmlns="http://www.w3.org/2000/svg"
   xmlns:svg="http://www.w3.org/2000/svg"
   xmlns:rdf="http://www.w3.org/1999/02/22-rdf-syntax-ns#"
   xmlns:cc="http://creativecommons.org/ns#"
   xmlns:dc="http://purl.org/dc/elements/1.1/">
  <metadata
     id="metadata34">
    <rdf:RDF>
      <cc:Work
         rdf:about="">
        <dc:format>image/svg+xml</dc:format>
        <dc:type
           rdf:resource="http://purl.org/dc/dcmitype/StillImage" />
      </cc:Work>
    </rdf:RDF>
  </metadata>
  <defs
     id="defs32">
    <filter
       inkscape:collect="always"
       style="color-interpolation-filters:sRGB"
       id="filter4711"
       x="-0.066916166"
       y="-0.037421515"
       width="1.1338323"
       height="1.074843">
      <feGaussianBlur
         inkscape:collect="always"
         stdDeviation="2.4947677"
         id="feGaussianBlur4713" />
    </filter>
    <filter
       inkscape:collect="always"
       style="color-interpolation-filters:sRGB"
       id="filter4795"
       x="-0.054000002"
       y="-0.043200002"
       width="1.108"
       height="1.0864">
      <feGaussianBlur
         inkscape:collect="always"
         stdDeviation="2.88"
         id="feGaussianBlur4797" />
    </filter>
    <filter
       inkscape:collect="always"
       style="color-interpolation-filters:sRGB"
       id="filter5544"
       x="-0.058352061"
       y="-0.040767553"
       width="1.1167041"
       height="1.0815351">
      <feGaussianBlur
         inkscape:collect="always"
         stdDeviation="2.7178369"
         id="feGaussianBlur5546" />
    </filter>
    <filter
       inkscape:collect="always"
       style="color-interpolation-filters:sRGB"
       id="filter5548"
       x="-0.064550781"
       y="-0.038204412"
       width="1.1291016"
       height="1.0764088">
      <feGaussianBlur
         inkscape:collect="always"
         stdDeviation="1.2910156"
         id="feGaussianBlur5550" />
    </filter>
    <filter
       inkscape:collect="always"
       style="color-interpolation-filters:sRGB"
       id="filter5590"
       x="-0.060923079"
       y="-0.039600002"
       width="1.1218462"
       height="1.0792">
      <feGaussianBlur
         inkscape:collect="always"
         stdDeviation="1.32"
         id="feGaussianBlur5592" />
    </filter>
    <filter
       inkscape:collect="always"
       style="color-interpolation-filters:sRGB"
       id="filter5632"
       x="-0.053412506"
       y="-0.043583508"
       width="1.106825"
       height="1.087167">
      <feGaussianBlur
         inkscape:collect="always"
         stdDeviation="1.4527836"
         id="feGaussianBlur5634" />
    </filter>
    <filter
       inkscape:collect="always"
       style="color-interpolation-filters:sRGB"
       id="filter5791"
       x="-0.048935067"
       y="-0.047100002"
       width="1.0978701"
       height="1.0942">
      <feGaussianBlur
         inkscape:collect="always"
         stdDeviation="1.57"
         id="feGaussianBlur5793" />
    </filter>
  </defs>
  <sodipodi:namedview
     pagecolor="#ffffff"
     bordercolor="#666666"
     borderopacity="1"
     objecttolerance="10"
     gridtolerance="10"
     guidetolerance="10"
     inkscape:pageopacity="0"
     inkscape:pageshadow="2"
     inkscape:window-width="1920"
     inkscape:window-height="1019"
     id="namedview30"
     showgrid="false"
     inkscape:zoom="1"
     inkscape:cx="114.5"
     inkscape:cy="77.5"
     inkscape:window-x="0"
     inkscape:window-y="34"
     inkscape:window-maximized="1"
     inkscape:current-layer="svg28"
     inkscape:pagecheckerboard="0"
     inkscape:snap-smooth-nodes="true"
     inkscape:snap-midpoints="true">
    <inkscape:grid
       type="xygrid"
       id="grid841" />
  </sodipodi:namedview>
  <path
     id="path4667"
     style="opacity:0.2;fill:#000000;stroke-width:4;filter:url(#filter4711)"
     d="M 104.1086,19 H 28 c -6.648,0 -12,5.352 -12,12 v 136 c 0,6.648 5.352,12 12,12 h 77.47677 z"
     sodipodi:nodetypes="csssscc" />
  <path
     id="rect2"
     style="fill:#222961;stroke-width:4"
     d="M 104.1086,16 H 28 c -6.648,0 -12,5.352 -12,12 v 136 c 0,6.648 5.352,12 12,12 h 77.47677 z"
     sodipodi:nodetypes="csssscc" />
  <path
     id="path5506"
     style="opacity:0.2;fill:#000000;fill-opacity:1;stroke-width:34.2717;stroke-linecap:round;stroke-linejoin:round;filter:url(#filter5544)"
     d="M 100.69531,19 37.77877,72.15348 45.506005,86.774149 40.232327,107.13223 35.655404,124.05265 100.69531,179 h 46.74378 L 145.87651,19 Z"
     sodipodi:nodetypes="ccccccccc" />
  <path
     id="rect6416"
     style="opacity:0.1;fill:#ffffff;fill-opacity:1;stroke-width:4"
     d="m 28,16 c -6.648,0 -12,5.352 -12,12 v 1 c 0,-6.648 5.352,-12 12,-12 h 136 c 6.648,0 12,5.352 12,12 v -1 c 0,-6.648 -5.352,-12 -12,-12 z" />
  <path
     id="path1986"
     style="fill:#2d377f;fill-opacity:1;stroke-width:34.2717;stroke-linecap:round;stroke-linejoin:round"
     d="M 100.69531,16 37.77877,69.15348 45.506005,83.774149 40.232327,104.13223 35.655404,121.05265 100.69531,176 h 46.74378 L 145.87651,16 Z"
     sodipodi:nodetypes="ccccccccc" />
  <path
     id="path5594"
     style="opacity:0.2;fill:#000000;stroke-width:27.5343;stroke-linecap:round;stroke-linejoin:round;filter:url(#filter5632)"
     d="m 33,58 h 65.278356 l -0.01848,80 H 33 Z"
     sodipodi:nodetypes="ccccc" />
  <path
     id="path4671"
     style="opacity:0.2;fill:#000000;fill-opacity:1;stroke-width:34.2717;stroke-linecap:round;stroke-linejoin:round;filter:url(#filter4795)"
     d="M 142.69531,19 48,99 142.69531,179 H 164 c 6.648,0 12,-5.352 12,-12 V 31 c 0,-6.648 -5.352,-12 -12,-12 z" />
  <path
     id="rect877"
     style="fill:#0da9fa;stroke-width:27.5343;stroke-linecap:round;stroke-linejoin:round"
     d="m 33,56 h 65.278356 l -0.01848,80 H 33 Z"
     sodipodi:nodetypes="ccccc" />
  <path
     id="rect1684"
     style="fill:#3b48a7;fill-opacity:1;stroke-width:34.2717;stroke-linecap:round;stroke-linejoin:round"
     d="M 142.69531,16 48,96 142.69531,176 H 164 c 6.648,0 12,-5.352 12,-12 V 28 c 0,-6.648 -5.352,-12 -12,-12 z" />
  <path
     id="path5735"
     style="opacity:0.2;fill:#000000;fill-opacity:1;stroke-width:34.2717;stroke-linecap:round;stroke-linejoin:round;filter:url(#filter5791)"
     d="M 95.347656,58 48,98 95.347656,138 H 125 V 58 Z"
     sodipodi:nodetypes="cccccc" />
  <path
     id="path2647"
     style="fill:#0364f5;fill-opacity:1;stroke-width:34.2717;stroke-linecap:round;stroke-linejoin:round"
     d="M 95.347656,56 48,96 95.347656,136 H 125 V 56 Z"
     sodipodi:nodetypes="cccccc" />
  <path
     id="path5552"
     style="opacity:0.2;fill:#000000;fill-opacity:1;stroke-width:34.2717;stroke-linecap:round;stroke-linejoin:round;filter:url(#filter5590)"
     d="M 124.34766,58 77,98 124.34766,138 H 129 V 58 Z" />
  <path
     id="path2171"
     style="fill:#9f6fff;fill-opacity:1;stroke-width:34.2717;stroke-linecap:round;stroke-linejoin:round"
     d="M 124.34766,56 77,96 124.34766,136 H 129 V 56 Z" />
  <path
     id="path4673"
     style="opacity:0.2;fill:#000000;fill-opacity:1;stroke-width:34.2717;stroke-linecap:round;stroke-linejoin:round;filter:url(#filter5548)"
     d="m 156,57.449008 -48,40.550781 48,40.550781 z" />
  <path
     id="path2166"
     style="fill:#22fafd;fill-opacity:1;stroke-width:34.2717;stroke-linecap:round;stroke-linejoin:round"
     d="M 156,55.449219 108,96 l 48,40.55078 z" />
  <path
     id="rect1113"
     style="fill:#222961;fill-opacity:1;stroke-width:27.2751;stroke-linecap:round;stroke-linejoin:round"
     d="m 38,61 v 5 h 10 v -5 z m 15,0 v 5 h 10 v -5 z m 15,0 v 5 h 10 v -5 z m 15,0 v 5 h 10 v -5 z m 15,0 v 5 h 10 v -5 z m 15,0 v 5 h 10 v -5 z m -75,65 v 5 h 10 v -5 z m 15,0 v 5 h 10 v -5 z m 15,0 v 5 h 10 v -5 z m 15,0 v 5 h 10 v -5 z m 15,0 v 5 h 10 v -5 z m 15,0 v 5 h 10 v -5 z" />
</svg>
