<?xml version="1.0" encoding="UTF-8" standalone="no"?>
<svg
   width="192"
   height="192"
   version="1"
   id="svg28"
   sodipodi:docname="apps_memrise.svg"
   inkscape:version="1.1.1 (1:1.1+202109281949+c3084ef5ed)"
   xmlns:inkscape="http://www.inkscape.org/namespaces/inkscape"
   xmlns:sodipodi="http://sodipodi.sourceforge.net/DTD/sodipodi-0.dtd"
   xmlns="http://www.w3.org/2000/svg"
   xmlns:svg="http://www.w3.org/2000/svg"
   xmlns:rdf="http://www.w3.org/1999/02/22-rdf-syntax-ns#"
   xmlns:cc="http://creativecommons.org/ns#"
   xmlns:dc="http://purl.org/dc/elements/1.1/">
  <metadata
     id="metadata34">
    <rdf:RDF>
      <cc:Work
         rdf:about="">
        <dc:format>image/svg+xml</dc:format>
        <dc:type
           rdf:resource="http://purl.org/dc/dcmitype/StillImage" />
      </cc:Work>
    </rdf:RDF>
  </metadata>
  <defs
     id="defs32">
    <filter
       inkscape:collect="always"
       style="color-interpolation-filters:sRGB"
       id="filter6495"
       x="-0.048000001"
       y="-0.048000001"
       width="1.096"
       height="1.096">
      <feGaussianBlur
         inkscape:collect="always"
         stdDeviation="3.2"
         id="feGaussianBlur6497" />
    </filter>
    <filter
       inkscape:collect="always"
       style="color-interpolation-filters:sRGB"
       id="filter7513"
       x="-0.1020601"
       y="-0.11467404"
       width="1.2041202"
       height="1.2293481">
      <feGaussianBlur
         inkscape:collect="always"
         stdDeviation="4.2525323"
         id="feGaussianBlur7515" />
    </filter>
  </defs>
  <sodipodi:namedview
     pagecolor="#ffffff"
     bordercolor="#666666"
     borderopacity="1"
     objecttolerance="10"
     gridtolerance="10"
     guidetolerance="10"
     inkscape:pageopacity="0"
     inkscape:pageshadow="2"
     inkscape:window-width="1920"
     inkscape:window-height="1016"
     id="namedview30"
     showgrid="false"
     inkscape:zoom="1"
     inkscape:cx="126.5"
     inkscape:cy="59.5"
     inkscape:window-x="0"
     inkscape:window-y="32"
     inkscape:window-maximized="1"
     inkscape:current-layer="svg28"
     inkscape:pagecheckerboard="0"
     inkscape:snap-global="false"
     showguides="false"
     inkscape:snap-bbox="true"
     inkscape:snap-bbox-midpoints="true">
    <inkscape:grid
       type="xygrid"
       id="grid841" />
  </sodipodi:namedview>
  <rect
     id="rect6457"
     transform="matrix(0,-1,-1,0,0,0)"
     ry="12"
     rx="12"
     y="-176"
     x="-180"
     height="160"
     width="160"
     style="opacity:0.2;fill:#000000;fill-opacity:1;stroke-width:4;filter:url(#filter6495)" />
  <rect
     id="rect2"
     transform="matrix(0,-1,-1,0,0,0)"
     ry="12"
     rx="12"
     y="-176"
     x="-176"
     height="160"
     width="160"
     style="fill:#ffbe00;fill-opacity:1;stroke-width:4" />
  <path
     id="path7475"
     style="opacity:0.2;fill:#000000;fill-opacity:1;stroke-width:0.298877;filter:url(#filter7513)"
     d="m 71.982422,52.999281 c -1.224233,-0.001 -1.388206,0.161442 -1.935547,0.789062 -0.406749,0.466415 -1.862271,2.723805 -3.234375,5.017579 -2.496288,4.173086 -4.931388,7.894531 -5.166016,7.894531 -0.299196,0 -4.396781,-7.213738 -5.300781,-9.332031 -0.547568,-1.283063 -1.35275,-2.857774 -1.789062,-3.376953 -0.778624,-0.92651 -0.841625,-0.943648 -3.449219,-0.960938 -2.886329,-0.01911 -4.379393,0.379159 -4.876953,1.302734 -0.36042,0.669022 -0.273913,39.579808 0.08984,40.402344 0.230249,0.520635 1.190327,1.076007 2.107422,1.21875 0.485446,0.07559 4.126865,0.05245 5.410157,-0.0332 0.214573,-0.01432 0.594918,-0.515058 0.845703,-1.111328 0.389333,-0.92567 0.428711,-2.449174 0.271484,-10.425781 -0.148545,-7.53567 -0.1095,-9.339432 0.203125,-9.332032 0.213165,0.0051 1.462482,0.947363 2.287109,2.09375 2.617219,3.638377 2.658211,3.853516 3.898438,3.853516 1.303763,0 1.565552,-0.433603 4.792969,-4.857422 1.151239,-1.578015 2.299116,-2.762524 2.429687,-2.632812 0.130571,0.129704 0.295635,4.102274 0.365235,8.828125 0.15528,10.5461 -0.250433,9.776486 4.341797,9.646484 1.685304,-0.04771 3.279378,-0.150196 3.542968,-0.228516 1.119134,-0.332542 1.169922,-1.077068 1.169922,-19.355468 V 56.202406 c 0,-1.079454 0.178252,-1.67984 -0.773437,-2.333984 -0.684133,-0.638943 -1.098718,-0.732839 -3.59961,-0.824219 -0.69736,-0.02548 -1.222781,-0.04459 -1.630859,-0.04492 z m 12.826172,0 c -1.41256,0 -2.739692,0.435917 -2.707032,1.375 l -0.07422,17.726562 c -0.07906,18.93168 -0.08547,18.836895 1.384765,19.578126 1.083867,0.546439 25.520671,0.34057 26.189451,-0.220704 0.41451,-0.347911 0.46617,-0.860511 0.33203,-3.322265 -0.17201,-3.156713 -0.48582,-3.583488 -1.52343,-3.982422 -0.36955,-0.14211 -3.15283,-0.1844 -6.18555,-0.09375 -9.451608,0.282506 -10.220704,-0.569039 -10.220704,-4.296875 0,-3.355822 -0.247347,-3.731444 6.285156,-3.833984 6.907848,-0.108442 6.431408,0.409301 6.599608,-4.185547 0.15186,-4.148765 0.63584,-3.727575 -5.902342,-3.765625 -5.074748,-0.02951 -6.449724,-0.312585 -6.703125,-1.1875 -0.393382,-1.358171 -0.429592,-3.221239 -0.09766,-4.179688 0.580612,-1.676518 1.13917,-1.841128 8.199223,-1.623047 6.30066,0.194631 7.07008,0.02818 7.49023,-1.046875 0.10765,-0.275356 0.18126,-1.589133 0.16406,-3.164062 -0.0232,-2.121753 -0.14755,-2.98158 -0.48242,-3.320313 -0.38873,-0.393209 -1.64082,-0.457031 -12.023437,-0.457031 z m 34.208986,0 c -0.40808,3.37e-4 -0.9335,0.01944 -1.63086,0.04492 -2.50089,0.09138 -2.91547,0.185276 -3.59961,0.824219 -0.95169,0.654144 -0.77344,1.25453 -0.77344,2.333984 v 16.197266 c 0,18.2784 0.0508,19.022926 1.16992,19.355468 0.26359,0.07832 1.85767,0.180805 3.54297,0.228516 4.59223,0.130002 4.18652,0.899616 4.3418,-9.646484 0.0696,-4.725851 0.23466,-8.698421 0.36523,-8.828125 0.13057,-0.129712 1.27845,1.054797 2.42969,2.632812 3.22746,4.423819 3.4892,4.857422 4.79297,4.857422 1.24022,0 1.28122,-0.215139 3.89844,-3.853516 0.82462,-1.146387 2.07394,-2.088614 2.28711,-2.09375 0.31262,-0.0074 0.35167,1.796362 0.20312,9.332032 -0.15723,7.976607 -0.11784,9.500111 0.27149,10.425781 0.25079,0.59627 0.63113,1.097007 0.8457,1.111328 1.28329,0.08565 4.92472,0.108796 5.41016,0.0332 0.91709,-0.142743 1.87717,-0.698115 2.10742,-1.21875 0.36376,-0.822536 0.4503,-39.733322 0.0898,-40.402344 -0.49756,-0.923575 -1.99063,-1.321847 -4.87695,-1.302734 -2.6076,0.01729 -2.67059,0.03443 -3.44922,0.960938 -0.43631,0.519179 -1.24149,2.09389 -1.78906,3.376953 -0.904,2.118293 -5.00159,9.332031 -5.30078,9.332031 -0.23463,0 -2.66973,-3.721445 -5.16602,-7.894531 -1.3721,-2.293774 -2.82762,-4.551164 -3.23438,-5.017579 -0.54734,-0.62762 -0.71131,-0.790072 -1.93554,-0.789062 z m -12.40235,43 c -2.3862,0.0013 -4.79644,0.250269 -6.25,0.775391 -3.835958,1.385814 -5.884225,3.439548 -6.902339,6.921878 -1.16651,3.98994 -0.05708,9.64391 2.537109,12.91992 0.839804,1.06053 2.7725,2.83274 7.55078,6.92773 2.77028,2.37413 3.30921,5.08532 1.42774,7.19141 -0.76698,0.85855 -1.04074,1.15934 -2.90235,1.26367 -1.27757,0.0716 -2.751442,-0.26562 -3.894529,-0.5625 -2.128678,-0.55286 -3.798331,-0.60628 -4.617188,-0.16797 -0.531041,0.28426 -0.578419,0.66125 -0.574219,4.56445 0.0025,2.34034 0.103668,4.40284 0.22461,4.58399 0.384481,0.57592 1.927079,1.09058 3.492187,1.32031 0.834728,0.12253 2.870753,0.23917 4.523439,0.25977 5.11983,0.0636 8.21114,-1.12658 11.13672,-4.28711 2.36171,-2.55137 3.42985,-5.00431 3.59961,-8.26367 0.16457,-3.15962 -0.27434,-5.37779 -1.58594,-8 -0.8167,-1.63277 -1.60763,-2.5628 -4.12305,-4.85938 -1.71138,-1.56247 -3.74998,-3.36376 -4.53125,-4.00195 -0.78126,-0.63818 -1.67668,-1.58141 -1.99023,-2.09571 -1.13499,-1.86163 -0.50672,-4.21402 1.36328,-5.10156 0.92817,-0.44051 1.42797,-0.46431 3.89258,-0.18945 5.35595,0.59733 5.04492,0.68448 5.04492,-4.16016 0,-2.651391 -0.10401,-3.619917 -0.41602,-3.878903 -0.90914,-0.754658 -3.93787,-1.161831 -7.00586,-1.160156 z m -22.804683,2.001953 c -0.221439,0.0051 -0.436078,0.02525 -0.644531,0.06445 -1.484796,0.279241 -3.023615,1.395898 -3.652344,2.650393 -1.278945,2.55189 -0.05218,6.54679 2.40625,7.83203 v -0.002 c 1.183731,0.61887 3.478679,0.6004 4.429687,-0.0371 3.11095,-2.08543 4.38523,-4.90999 3.228516,-7.15235 -0.990784,-1.920711 -3.627,-3.405195 -5.767578,-3.355466 z m -23.617188,1.999996 c -1.172514,-0.0058 -2.617109,6.7e-4 -4.423828,0.0137 -7.886278,0.0568 -8.424789,0.0945 -8.980469,0.64648 -0.554549,0.55086 -0.594136,1.04764 -0.628906,8.00586 -0.0204,4.07961 -0.0692,12.94675 -0.109375,19.70508 -0.04012,6.75834 -0.06177,12.46052 -0.04687,12.67187 0.01491,0.21136 0.32,0.49142 0.675782,0.62305 0.355781,0.13157 2.520614,0.22247 4.8125,0.20117 3.285572,-0.0304 4.225992,-0.12952 4.443359,-0.47266 0.1516,-0.23936 0.199782,-1.85124 0.107422,-3.58203 -0.151084,-2.83143 -0.106028,-3.04548 0.449219,-3.92187 0.521346,-0.82288 0.796672,-0.97266 1.769531,-0.97266 1.505696,0 3.134307,0.88847 6.761719,4.32227 3.706439,3.5086 6.076661,4.77061 8.107421,4.75781 2.55077,-0.0161 2.689256,-0.25808 2.863282,-4.9707 0.08242,-2.23138 0.06208,-4.2961 -0.04687,-4.58789 -0.108941,-0.29178 -1.189005,-1.00616 -2.398438,-1.58789 -4.256221,-2.04721 -4.782552,-2.91913 -1.908203,-6.1504 1.062726,-1.19468 2.267697,-2.74799 2.679687,-3.45117 1.700212,-2.90189 2.212917,-8.83434 1.058594,-12.26172 -0.714682,-2.12203 -2.524273,-4.9113 -3.783203,-5.83203 -1.368944,-1.00118 -3.701286,-2.10753 -5.650391,-2.67968 -1.153198,-0.33848 -2.234409,-0.45927 -5.751953,-0.47657 z m 71.718751,0.002 c -11.123,0.0286 -11.49726,0.0486 -12.08008,0.63867 -0.56957,0.57663 -0.60896,1.07271 -0.75781,9.36719 -0.0865,4.81701 -0.1,13.61056 -0.0293,19.54101 l 0.12891,10.7832 c 0.22982,1.27202 0.293,1.42223 1.63867,1.66016 h 12.09766 c 14.39498,0 13.24416,0.33645 12.93359,-3.80273 -0.25335,-3.37663 -0.61351,-4.75404 -1.5,-5.09571 -0.38388,-0.14789 -3.13144,-0.19647 -6.10547,-0.10937 -6.63196,0.19417 -8.08221,0.11892 -8.90039,-1.48242 -0.4161,-0.81447 -0.50612,-1.51376 -0.4043,-3.13086 0.11328,-1.79924 0.23864,-2.0761 0.92188,-2.67188 0.76833,-0.66987 0.9598,-0.68945 6.70703,-0.68945 3.60437,0 5.84412,-0.12467 6.20117,-0.31836 0.86052,-0.46686 1.10171,-1.49382 1.19531,-4.67578 0.12396,-4.21828 0.77518,-4.02035 -6.9121,-4.06446 -6.80828,-0.0391 -7.33293,-0.15629 -7.95313,-1.77148 -0.48904,-1.27357 -0.12323,-3.82167 0.61719,-4.57031 0.59727,-0.60381 0.91173,-0.63281 6.96289,-0.63281 6.19894,0 6.05,-0.0156 6.71094,-0.6836 0.63313,-0.63994 0.67018,-1.28316 0.58398,-4.29492 -0.0618,-2.16055 -0.22198,-3.3461 -0.48633,-3.61914 -0.31837,-0.32885 -2.27522,-0.400813 -11.57031,-0.37695 z m -73.218751,8.99609 c 0.482118,-0.006 1.045053,0.0359 1.703125,0.10352 3.174508,0.32614 4.628802,1.34757 5.398438,3.79101 0.879247,2.79146 -1.165847,7.36393 -4.097656,9.16406 -1.213757,0.74525 -3.020822,1.12884 -4.019532,0.85157 -1.390475,-0.386 -1.476893,-0.70919 -1.630859,-6.13477 -0.179229,-6.31556 0.04305,-7.74363 2.646484,-7.77539 z m 25.169922,3 c -0.499552,9.1e-4 -1.037464,0.006 -1.615234,0.0156 -2.37886,0.04 -2.295583,-0.53293 -2.220703,15.25782 0.06352,13.38948 0.09108,13.98677 0.664062,14.39844 0.472364,0.33939 1.340747,0.39394 4.138672,0.26171 2.024626,-0.0957 3.731041,-0.31959 3.986328,-0.52343 1.165131,-0.93027 1.214428,-1.56974 1.173828,-15.00782 -0.0355,-11.75846 -0.09271,-13.17209 -0.55664,-13.69336 -0.445507,-0.50057 -2.073446,-0.71537 -5.570313,-0.70898 z" />
  <path
     id="path6156"
     style="opacity:1;fill:#3c4862;stroke-width:0.298877;fill-opacity:1"
     d="M 71.982422 51 C 70.758189 50.99899 70.594216 51.161442 70.046875 51.789062 C 69.640126 52.255477 68.184604 54.512867 66.8125 56.806641 C 64.316212 60.979727 61.881112 64.701172 61.646484 64.701172 C 61.347288 64.701172 57.249703 57.487434 56.345703 55.369141 C 55.798135 54.086078 54.992953 52.511367 54.556641 51.992188 C 53.778017 51.065678 53.715016 51.04854 51.107422 51.03125 C 48.221093 51.012137 46.728029 51.410409 46.230469 52.333984 C 45.870049 53.003006 45.956556 91.913792 46.320312 92.736328 C 46.550561 93.256963 47.510639 93.812335 48.427734 93.955078 C 48.91318 94.030671 52.554599 94.007525 53.837891 93.921875 C 54.052464 93.907554 54.432809 93.406817 54.683594 92.810547 C 55.072927 91.884877 55.112305 90.361373 54.955078 82.384766 C 54.806533 74.849096 54.845578 73.045334 55.158203 73.052734 C 55.371368 73.05787 56.620685 74.000097 57.445312 75.146484 C 60.062531 78.784861 60.103523 79 61.34375 79 C 62.647513 79 62.909302 78.566397 66.136719 74.142578 C 67.287958 72.564563 68.435835 71.380054 68.566406 71.509766 C 68.696977 71.63947 68.862041 75.61204 68.931641 80.337891 C 69.086921 90.883991 68.681208 90.114377 73.273438 89.984375 C 74.958742 89.936664 76.552816 89.834179 76.816406 89.755859 C 77.93554 89.423317 77.986328 88.678791 77.986328 70.400391 L 77.986328 54.203125 C 77.986328 53.123671 78.16458 52.523285 77.212891 51.869141 C 76.528758 51.230198 76.114173 51.136302 73.613281 51.044922 C 72.915921 51.019441 72.3905 51.000337 71.982422 51 z M 84.808594 51 C 83.396034 51 82.068902 51.435917 82.101562 52.375 L 82.027344 70.101562 C 81.948279 89.033242 81.941872 88.938457 83.412109 89.679688 C 84.495976 90.226127 108.93278 90.020258 109.60156 89.458984 C 110.01607 89.111073 110.06773 88.598473 109.93359 86.136719 C 109.76158 82.980006 109.44777 82.553231 108.41016 82.154297 C 108.04061 82.012187 105.25733 81.969897 102.22461 82.060547 C 92.773002 82.343053 92.003906 81.491508 92.003906 77.763672 C 92.003906 74.40785 91.756559 74.032228 98.289062 73.929688 C 105.19691 73.821246 104.72047 74.338989 104.88867 69.744141 C 105.04053 65.595376 105.52451 66.016566 98.986328 65.978516 C 93.91158 65.949007 92.536604 65.665931 92.283203 64.791016 C 91.889821 63.432845 91.853611 61.569777 92.185547 60.611328 C 92.766159 58.93481 93.324717 58.7702 100.38477 58.988281 C 106.68543 59.182912 107.45485 59.016461 107.875 57.941406 C 107.98265 57.66605 108.05626 56.352273 108.03906 54.777344 C 108.01584 52.655591 107.89151 51.795764 107.55664 51.457031 C 107.16791 51.063822 105.91582 51 95.533203 51 L 84.808594 51 z M 119.01758 51 C 118.6095 51.000337 118.08408 51.019441 117.38672 51.044922 C 114.88583 51.136302 114.47125 51.230198 113.78711 51.869141 C 112.83542 52.523285 113.01367 53.123671 113.01367 54.203125 L 113.01367 70.400391 C 113.01367 88.678791 113.06449 89.423317 114.18359 89.755859 C 114.44718 89.834179 116.04126 89.936664 117.72656 89.984375 C 122.31879 90.114377 121.91308 90.883991 122.06836 80.337891 C 122.13796 75.61204 122.30302 71.63947 122.43359 71.509766 C 122.56416 71.380054 123.71204 72.564563 124.86328 74.142578 C 128.09074 78.566397 128.35248 79 129.65625 79 C 130.89647 79 130.93747 78.784861 133.55469 75.146484 C 134.37931 74.000097 135.62863 73.05787 135.8418 73.052734 C 136.15442 73.045334 136.19347 74.849096 136.04492 82.384766 C 135.88769 90.361373 135.92708 91.884877 136.31641 92.810547 C 136.5672 93.406817 136.94754 93.907554 137.16211 93.921875 C 138.4454 94.007525 142.08683 94.030671 142.57227 93.955078 C 143.48936 93.812335 144.44944 93.256963 144.67969 92.736328 C 145.04345 91.913792 145.12999 53.003006 144.76953 52.333984 C 144.27197 51.410409 142.7789 51.012137 139.89258 51.03125 C 137.28498 51.04854 137.22199 51.065678 136.44336 51.992188 C 136.00705 52.511367 135.20187 54.086078 134.6543 55.369141 C 133.7503 57.487434 129.65271 64.701172 129.35352 64.701172 C 129.11889 64.701172 126.68379 60.979727 124.1875 56.806641 C 122.8154 54.512867 121.35988 52.255477 120.95312 51.789062 C 120.40578 51.161442 120.24181 50.99899 119.01758 51 z M 106.61523 94 C 104.22903 94.001303 101.81879 94.250269 100.36523 94.775391 C 96.529272 96.161205 94.481005 98.214939 93.462891 101.69727 C 92.296381 105.68721 93.405809 111.34118 96 114.61719 C 96.839804 115.67772 98.7725 117.44993 103.55078 121.54492 C 106.32106 123.91905 106.85999 126.63024 104.97852 128.73633 C 104.21154 129.59488 103.93778 129.89567 102.07617 130 C 100.7986 130.07162 99.324728 129.73438 98.181641 129.4375 C 96.052963 128.88464 94.38331 128.83122 93.564453 129.26953 C 93.033412 129.55379 92.986034 129.93078 92.990234 133.83398 C 92.992751 136.17432 93.093902 138.23682 93.214844 138.41797 C 93.599325 138.99389 95.141923 139.50855 96.707031 139.73828 C 97.541759 139.86081 99.577784 139.97745 101.23047 139.99805 C 106.3503 140.06168 109.44161 138.87147 112.36719 135.71094 C 114.7289 133.15957 115.79704 130.70663 115.9668 127.44727 C 116.13137 124.28765 115.69246 122.06948 114.38086 119.44727 C 113.56416 117.8145 112.77323 116.88447 110.25781 114.58789 C 108.54643 113.02542 106.50783 111.22413 105.72656 110.58594 C 104.9453 109.94776 104.04988 109.00453 103.73633 108.49023 C 102.60134 106.6286 103.22961 104.27621 105.09961 103.38867 C 106.02778 102.94816 106.52758 102.92436 108.99219 103.19922 C 114.34814 103.79655 114.03711 103.8837 114.03711 99.039062 C 114.03711 96.387668 113.9331 95.419142 113.62109 95.160156 C 112.71195 94.405498 109.68322 93.998325 106.61523 94 z M 83.810547 96.001953 C 83.589108 96.007097 83.374469 96.027203 83.166016 96.066406 C 81.68122 96.345647 80.142401 97.462304 79.513672 98.716797 C 78.234727 101.26869 79.461497 105.26359 81.919922 106.54883 L 81.919922 106.54688 C 83.103653 107.16575 85.398601 107.14728 86.349609 106.50977 C 89.460559 104.42434 90.734839 101.59978 89.578125 99.357422 C 88.587341 97.436708 85.951125 95.952224 83.810547 96.001953 z M 60.193359 98.001953 C 59.020845 97.996189 57.57625 98.00262 55.769531 98.015625 C 47.883253 98.072398 47.344742 98.11013 46.789062 98.662109 C 46.234513 99.21297 46.194926 99.709752 46.160156 106.66797 C 46.139754 110.74758 46.090961 119.61472 46.050781 126.37305 C 46.010661 133.13139 45.989016 138.83357 46.003906 139.04492 C 46.018813 139.25628 46.323906 139.53634 46.679688 139.66797 C 47.035469 139.79954 49.200302 139.89044 51.492188 139.86914 C 54.77776 139.83871 55.71818 139.73962 55.935547 139.39648 C 56.087147 139.15712 56.135329 137.54524 56.042969 135.81445 C 55.891885 132.98302 55.936941 132.76897 56.492188 131.89258 C 57.013534 131.0697 57.28886 130.91992 58.261719 130.91992 C 59.767415 130.91992 61.396026 131.80839 65.023438 135.24219 C 68.729877 138.75079 71.100099 140.0128 73.130859 140 C 75.681629 139.98395 75.820115 139.74192 75.994141 135.0293 C 76.076561 132.79792 76.056216 130.7332 75.947266 130.44141 C 75.838325 130.14963 74.758261 129.43525 73.548828 128.85352 C 69.292607 126.80631 68.766276 125.93439 71.640625 122.70312 C 72.703351 121.50844 73.908322 119.95513 74.320312 119.25195 C 76.020524 116.35006 76.533229 110.41761 75.378906 106.99023 C 74.664224 104.8682 72.854633 102.07893 71.595703 101.1582 C 70.226759 100.15702 67.894417 99.050664 65.945312 98.478516 C 64.792114 98.140038 63.710903 98.019246 60.193359 98.001953 z M 131.91211 98.003906 C 120.78911 98.03248 120.41485 98.052518 119.83203 98.642578 C 119.26246 99.219209 119.22307 99.715292 119.07422 108.00977 C 118.98772 112.82678 118.97422 121.62033 119.04492 127.55078 L 119.17383 138.33398 C 119.40365 139.606 119.46683 139.75621 120.8125 139.99414 L 132.91016 139.99414 C 147.30514 139.99414 146.15432 140.33059 145.84375 136.19141 C 145.5904 132.81478 145.23024 131.43737 144.34375 131.0957 C 143.95987 130.94781 141.21231 130.89923 138.23828 130.98633 C 131.60632 131.1805 130.15607 131.10525 129.33789 129.50391 C 128.92179 128.68944 128.83177 127.99015 128.93359 126.37305 C 129.04687 124.57381 129.17223 124.29695 129.85547 123.70117 C 130.6238 123.0313 130.81527 123.01172 136.5625 123.01172 C 140.16687 123.01172 142.40662 122.88705 142.76367 122.69336 C 143.62419 122.2265 143.86538 121.19954 143.95898 118.01758 C 144.08294 113.7993 144.73416 113.99723 137.04688 113.95312 C 130.2386 113.91403 129.71395 113.79683 129.09375 112.18164 C 128.60471 110.90807 128.97052 108.35997 129.71094 107.61133 C 130.30821 107.00752 130.62267 106.97852 136.67383 106.97852 C 142.87277 106.97852 142.72383 106.96291 143.38477 106.29492 C 144.0179 105.65498 144.05495 105.01176 143.96875 102 C 143.90695 99.839448 143.74677 98.653894 143.48242 98.380859 C 143.16405 98.052009 141.2072 97.980046 131.91211 98.003906 z M 58.693359 107 C 59.175477 106.99412 59.738412 107.03591 60.396484 107.10352 C 63.570992 107.42966 65.025286 108.45109 65.794922 110.89453 C 66.674169 113.68599 64.629075 118.25846 61.697266 120.05859 C 60.483509 120.80384 58.676444 121.18743 57.677734 120.91016 C 56.287259 120.52416 56.200841 120.20097 56.046875 114.77539 C 55.867646 108.45983 56.089922 107.03176 58.693359 107 z M 83.863281 110 C 83.363729 110.00091 82.825817 110.0059 82.248047 110.01562 C 79.869187 110.05565 79.952464 109.48269 80.027344 125.27344 C 80.090869 138.66292 80.11842 139.26021 80.691406 139.67188 C 81.16377 140.01127 82.032153 140.06582 84.830078 139.93359 C 86.854704 139.8379 88.561119 139.614 88.816406 139.41016 C 89.981537 138.47989 90.030834 137.84042 89.990234 124.40234 C 89.954735 112.64388 89.897527 111.23025 89.433594 110.70898 C 88.988087 110.20841 87.360148 109.99361 83.863281 110 z " />
  <path
     id="rect6416"
     style="opacity:0.2;fill:#ffffff;fill-opacity:1;stroke-width:4"
     d="m 28,16 c -6.648,0 -12,5.352 -12,12 v 1 c 0,-6.648 5.352,-12 12,-12 h 136 c 6.648,0 12,5.352 12,12 v -1 c 0,-6.648 -5.352,-12 -12,-12 z" />
</svg>
