<?xml version="1.0" encoding="UTF-8" standalone="no"?>
<svg
   width="192"
   height="192"
   version="1"
   id="svg12"
   sodipodi:docname="apps_hepsiburada.svg"
   inkscape:version="1.1.1 (1:1.1+202109281949+c3084ef5ed)"
   xmlns:inkscape="http://www.inkscape.org/namespaces/inkscape"
   xmlns:sodipodi="http://sodipodi.sourceforge.net/DTD/sodipodi-0.dtd"
   xmlns="http://www.w3.org/2000/svg"
   xmlns:svg="http://www.w3.org/2000/svg"
   xmlns:rdf="http://www.w3.org/1999/02/22-rdf-syntax-ns#"
   xmlns:cc="http://creativecommons.org/ns#"
   xmlns:dc="http://purl.org/dc/elements/1.1/">
  <metadata
     id="metadata18">
    <rdf:RDF>
      <cc:Work
         rdf:about="">
        <dc:format>image/svg+xml</dc:format>
        <dc:type
           rdf:resource="http://purl.org/dc/dcmitype/StillImage" />
      </cc:Work>
    </rdf:RDF>
  </metadata>
  <defs
     id="defs16">
    <filter
       inkscape:collect="always"
       style="color-interpolation-filters:sRGB"
       id="filter28063"
       x="-0.041999999"
       y="-0.055999999"
       width="1.084"
       height="1.112">
      <feGaussianBlur
         inkscape:collect="always"
         stdDeviation="2.8"
         id="feGaussianBlur28065" />
    </filter>
    <filter
       inkscape:collect="always"
       style="color-interpolation-filters:sRGB"
       id="filter28116"
       x="-0.03"
       y="-0.12"
       width="1.06"
       height="1.24">
      <feGaussianBlur
         inkscape:collect="always"
         stdDeviation="2"
         id="feGaussianBlur28118" />
    </filter>
    <filter
       inkscape:collect="always"
       style="color-interpolation-filters:sRGB"
       id="filter28158"
       x="-0.043455882"
       y="-0.27361111"
       width="1.0869118"
       height="1.5472222">
      <feGaussianBlur
         inkscape:collect="always"
         stdDeviation="3.078125"
         id="feGaussianBlur28160" />
    </filter>
  </defs>
  <sodipodi:namedview
     pagecolor="#ffffff"
     bordercolor="#666666"
     borderopacity="1"
     objecttolerance="10"
     gridtolerance="10"
     guidetolerance="10"
     inkscape:pageopacity="0"
     inkscape:pageshadow="2"
     inkscape:window-width="1920"
     inkscape:window-height="1019"
     id="namedview14"
     showgrid="false"
     inkscape:zoom="1"
     inkscape:cx="55.5"
     inkscape:cy="88"
     inkscape:window-x="0"
     inkscape:window-y="34"
     inkscape:window-maximized="1"
     inkscape:current-layer="svg12"
     showguides="false"
     inkscape:document-rotation="0"
     inkscape:pagecheckerboard="0"
     inkscape:snap-bbox="true"
     inkscape:snap-bbox-midpoints="true"
     inkscape:snap-global="true">
    <inkscape:grid
       type="xygrid"
       id="grid852" />
  </sodipodi:namedview>
  <path
     id="path28067"
     style="opacity:0.2;fill:#000000;fill-opacity:1;stroke-width:13.3409;stroke-linecap:round;stroke-linejoin:round;filter:url(#filter28116)"
     d="m 16,138 v 10 c 0,15.60697 11.799299,28.35332 27,29.84961 V 178 h 26 27 26 27 v -0.15039 C 164.2007,176.35332 176,163.60697 176,148 V 138 H 149 122 96 69 43 Z" />
  <path
     id="rect957"
     style="opacity:1;fill:#8643de;stroke-width:13.3409;stroke-linecap:round;stroke-linejoin:round;fill-opacity:1"
     d="M 16 135 L 16 145 C 16 160.60697 27.799299 173.35332 43 174.84961 L 43 135 L 16 135 z " />
  <path
     id="path1168"
     style="opacity:1;fill:#50bde2;stroke-width:13.0915;stroke-linecap:round;stroke-linejoin:round;fill-opacity:1"
     d="m 43,135 h 26 v 40 H 43 Z" />
  <path
     id="path1188"
     style="opacity:1;fill:#f75f1f;stroke-width:13.3409;stroke-linecap:round;stroke-linejoin:round;fill-opacity:1"
     d="m 69,135 h 27 v 40 H 69 Z" />
  <path
     id="path1190"
     style="opacity:1;fill:#f09f28;stroke-width:13.0915;stroke-linecap:round;stroke-linejoin:round;fill-opacity:1"
     d="m 96,135 h 26 v 40 H 96 Z" />
  <path
     id="path1192"
     style="opacity:1;fill:#a92f90;stroke-width:13.3409;stroke-linecap:round;stroke-linejoin:round;fill-opacity:1"
     d="m 122,135 h 27 v 40 h -27 z" />
  <path
     id="path1194"
     style="opacity:1;fill:#2acda6;stroke-width:13.3409;stroke-linecap:round;stroke-linejoin:round;fill-opacity:1"
     d="M 149 135 L 149 174.84961 C 164.2007 173.35332 176 160.60697 176 145 L 176 135 L 149 135 z " />
  <path
     id="path27827"
     style="opacity:0.2;fill:#000000;fill-opacity:1;stroke-width:4;filter:url(#filter28063)"
     d="M 46,18 C 29.38,18 16,31.38 16,48 v 90 H 176 V 48 C 176,31.38 162.62,18 146,18 Z"
     sodipodi:nodetypes="ssccsss" />
  <path
     id="rect4"
     style="fill:#e4e4e4;fill-opacity:1;stroke-width:4"
     d="M 46 15 C 29.38 15 16 28.38 16 45 L 16 135.88281 L 176 135.88281 L 176 45 C 176 28.38 162.62 15 146 15 L 46 15 z " />
  <path
     id="rect959"
     style="opacity:0.2;fill:#ffffff;fill-opacity:1;stroke-width:4"
     d="M 46,15 C 29.38,15 16,28.38 16,45 v 1 C 16,29.38 29.38,16 46,16 h 100 c 16.62,0 30,13.38 30,30 V 45 C 176,28.38 162.62,15 146,15 Z" />
  <path
     id="path28120"
     style="opacity:0.2;fill:#000000;fill-opacity:1;stroke-width:0.859483;stroke-miterlimit:4;stroke-dasharray:none;filter:url(#filter28158)"
     d="m 11,68 v 22 h 4 v -8.732422 c 0,-1.381265 0.654179,-2.444692 1.246094,-3.189453 0.591913,-0.745763 1.458161,-1.117187 2.601562,-1.117187 1.102971,0 2.152957,0.373274 2.546875,1.123046 C 21.698264,78.617245 22,79.319448 22,80.1875 V 90 h 4 v -9.470703 c 0,-1.440405 -0.05167,-2.87912 -0.154297,-3.515625 -0.100552,-0.635502 -0.37982,-1.254047 -0.835937,-1.855469 -0.53801,-0.711682 -1.224904,-1.239169 -2.0625,-1.583984 -0.837595,-0.345818 -1.768661,-0.517578 -2.794922,-0.517578 -0.912232,0 -1.93042,0.147888 -2.777344,0.472656 -0.806496,0.309732 -1.568505,0.560257 -2.375,1.330078 V 68 Z m 75,0 v 22 h 4 v -2.402344 c 0.538618,0.772255 1.00571,1.311991 1.46875,1.621094 C 92.243672,89.739802 93.270645,90 94.546875,90 c 2.033931,0 3.616321,-0.804775 4.75,-2.416016 C 100.43247,85.972744 101,83.941439 101,81.490234 c 0,-2.363872 -0.57566,-4.695955 -1.726562,-6.191406 -1.149943,-1.49545 -2.7415,-2.242187 -4.777344,-2.242187 -1.126986,0 -2.056156,0.240854 -2.785156,0.722656 C 91.095782,74.165916 90.510874,74.724998 90,75.458984 V 68 Z m 74,0 v 7.458984 c -0.51087,-0.733986 -1.09578,-1.293068 -1.71094,-1.679687 -0.729,-0.481802 -1.65817,-0.722656 -2.78515,-0.722656 -2.03585,0 -3.6274,0.746737 -4.77735,2.242187 C 149.57566,76.794279 149,79.126362 149,81.490234 c 0,2.451205 0.56753,4.48251 1.70312,6.09375 1.13367,1.611241 2.71606,2.416016 4.75,2.416016 1.27624,0 2.30321,-0.260198 3.07813,-0.78125 0.46304,-0.309103 0.93013,-0.848839 1.46875,-1.621094 V 90 h 4 V 68 Z M 80.851562,69.007812 A 1.9997681,1.9792663 0 0 0 79,70.980469 a 2,1.9794958 0 1 0 4,0 1.9997681,1.9792663 0 0 0 -2.148438,-1.972657 z M 34.947266,73 c -2.352033,0 -4.264394,0.7411 -5.738282,2.222656 C 27.736094,76.705208 27,78.832704 27,81.609375 c 0,2.964109 0.814714,5.101915 2.447266,6.417969 C 31.079819,89.3414 32.964118,90 35.099609,90 37.686147,90 39.6978,89.220438 41.134766,87.662109 42.057816,86.682047 42.576692,85.951146 42.689453,85 H 38.40625 c -0.249473,0.470588 -0.537968,0.60297 -0.863281,0.867188 -0.596741,0.490525 -1.373141,0.736328 -2.328125,0.736328 -0.901097,0 -1.671852,-0.200733 -2.3125,-0.603516 -1.053774,-0.647058 -1.613828,-1.391824 -1.679688,-3 h 11.685547 c 0.02096,-1.383849 -0.02396,-2.826707 -0.136719,-3.5625 C 42.576895,78.180272 42.148801,77.075192 41.492188,76.123047 40.763727,75.043286 39.839341,74.251495 38.720703,73.75 h -0.002 C 37.601111,73.249501 36.343318,73 34.947266,73 Z M 45,73 v 22 h 4 v -7.337891 c 0.428709,0.669624 0.863575,1.176788 1.310547,1.525391 0.818007,0.629243 1.844928,0.945312 3.082031,0.945312 1.940725,0 3.527469,-0.732979 4.759766,-2.195312 C 59.384641,86.475166 60,83.851275 60,81.0625 60,78.419467 59.370509,76.414657 58.109375,75.048828 56.849202,73.683983 55.310867,73 53.494141,73 52.248387,73 51.171134,73.354491 50.267578,74.060547 49.773505,74.45838 49.437359,75.001138 49,75.6875 V 73 Z m 23.824219,0 c -2.017409,0 -4.08331,0.498515 -5.195313,1.498047 -1.111051,0.999532 -1.666015,2.194835 -1.666015,3.585937 0.06045,5.243073 9.684428,4.221926 9.992187,7.494141 0,0.460885 -0.230759,0.807595 -0.697266,1.037109 -0.464604,0.230443 -1.094559,0.34375 -1.884765,0.34375 -1.345258,0 -2.267701,-0.262519 -2.765625,-0.787109 C 66.32466,85.877728 66.143324,85.699766 66.058594,85 H 62 c 0,1.54754 0.57257,2.502422 1.722656,3.501953 C 64.870836,89.500554 66.651892,90 69.0625,90 71.426458,90 73.173645,89.528241 74.304688,88.583984 75.434781,87.639717 76,86.421955 76,84.929688 75.715565,80.3803 66.064453,80.152592 66.064453,77.351562 c 0,-0.358783 0.185339,-0.672473 0.556641,-0.939453 0.371302,-0.266978 1.391636,-0.40039 2.265625,-0.40039 1.05964,0 1.812152,0.266823 2.253906,0.800781 0.234206,0.296019 0.379377,0.696333 0.435547,1.203125 h 4.001953 C 75.40009,76.173001 74.707257,74.875351 73.501953,74.125 72.296648,73.373711 70.737854,73 68.824219,73 Z M 79,74 v 16 h 4 V 74 Z m 25,0 v 9.4375 c 0,1.790762 0.2224,3.145206 0.66797,4.064453 C 105.46342,89.168068 107.00919,90 109.30273,90 c 0.79641,0 1.49053,-0.10509 2.08204,-0.314453 0.59343,-0.211305 1.20679,-0.603207 1.84179,-1.177735 0.20994,-0.183132 0.39272,-0.396264 0.54102,-0.632812 0.0901,-0.146532 0.1839,-0.291311 0.2832,-0.431641 V 90 H 118 V 74 h -4 v 8.818359 c 0,1.005903 -0.25276,1.814261 -0.51758,2.427735 -0.51032,1.129568 -1.45576,1.695312 -2.83594,1.695312 -1.07767,0 -1.80168,-0.396813 -2.16992,-1.191406 C 108.2678,85.300118 108,84.627327 108,83.736328 V 74 Z m 18,0 v 16 h 4 v -7.568359 c 0,-1.252005 0.23556,-2.18053 0.54883,-2.783203 0.56003,-1.070232 1.65518,-1.605469 3.28515,-1.605469 0.38975,0.0035 0.77875,0.02779 1.16602,0.07227 v -4.08789 c -0.18025,-0.0097 -0.29661,-0.01659 -0.34961,-0.02148 -0.0511,-0.0049 -0.11425,-0.0059 -0.18945,-0.0059 -1.21356,0 -2.20039,0.320354 -2.95899,0.960938 -0.46364,0.382017 -0.87541,1.093696 -1.50195,2.134765 V 74 Z m 18.31836,0 c -2.66848,0 -4.55055,0.668146 -5.64648,2.001953 -0.68927,0.855488 -1.07647,1.671803 -1.16407,2.998047 h 3.98438 c 0.0975,-0.58419 0.29348,-0.975219 0.58789,-1.318359 0.41061,-0.463194 1.11196,-0.69336 2.10156,-0.69336 0.88227,0 1.549,0.117193 2.00391,0.353516 0.45591,0.236323 0.68554,0.865271 0.68554,1.486328 0,0.510457 -0.29979,0.885904 -0.89257,1.126953 -0.33085,0.139903 -0.88137,0.255016 -1.6504,0.347656 l -1.41601,0.167969 c -1.60601,0.193785 -2.82131,0.51797 -3.64844,0.972656 C 133.75516,82.278051 133,83.627128 133,85.492188 c 0,1.437781 0.46884,2.548387 1.40625,3.332031 C 135.34464,89.60881 136.53309,90 137.9707,90 c 1.12745,0 2.13913,-0.246724 3.03321,-0.738281 0.73568,-0.407831 1.40405,-0.918264 1.98242,-1.515625 0.0295,0.343146 0,2.253906 0,2.253906 H 147 c -0.0205,-0.686281 -0.0293,-3.844082 -0.0293,-4.326172 v -6.957031 c 0,-1.827248 -0.67444,-3.070655 -2.02343,-3.730469 C 143.59827,74.32935 142.05531,74 140.31836,74 Z m 34,0 c -2.66848,0 -4.55054,0.668146 -5.64648,2.001953 -0.68927,0.855488 -1.07647,1.671803 -1.16407,2.998047 h 3.98438 c 0.0975,-0.58419 0.29348,-0.975219 0.58789,-1.318359 0.41061,-0.463194 1.11196,-0.69336 2.10156,-0.69336 0.88227,0 1.549,0.117193 2.00391,0.353516 0.45591,0.236323 0.68554,0.865271 0.68554,1.486328 0,0.510457 -0.29979,0.885904 -0.89257,1.126953 -0.33085,0.139903 -0.88137,0.255016 -1.6504,0.347656 l -1.41601,0.167969 c -1.60601,0.193785 -2.82131,0.51797 -3.64844,0.972656 C 167.75516,82.278051 167,83.627128 167,85.492188 c 0,1.437781 0.46884,2.548387 1.40625,3.332031 C 169.34464,89.60881 170.53309,90 171.9707,90 c 1.12745,0 2.13913,-0.246724 3.03321,-0.738281 0.73568,-0.407831 1.40405,-0.918264 1.98242,-1.515625 0.0295,0.343146 0,2.253906 0,2.253906 H 181 c -0.0205,-0.686281 -0.0293,-3.844082 -0.0293,-4.326172 v -6.957031 c 0,-1.827248 -0.67444,-3.070655 -2.02343,-3.730469 C 177.59827,74.32935 176.05531,74 174.31836,74 Z M 34.947266,77 c 0.990907,0 1.819693,0.25472 2.488281,0.763672 0.668588,0.508953 1.041347,1.254525 1.117187,2.236328 h -7.226562 c 0.152678,-0.921045 0.526392,-1.652516 1.11914,-2.191406 v 0.002 C 33.038061,77.270776 33.87054,77 34.947266,77 Z m 17.544922,0 c 1.236769,0 2.130785,0.442986 2.68164,1.328125 C 55.724682,79.214192 56,80.232968 56,81.382812 56,82.780644 55.701641,83.900605 55.103516,84.740234 54.503461,85.580787 53.632484,86 52.492188,86 51.705941,86 51.026144,85.794263 50.451172,85.382812 49.483559,84.680647 49,83.462475 49,81.726562 49,80.630589 49.144155,79.726056 49.431641,79.013672 49.987319,77.670638 51.00652,77 52.492188,77 Z m 41.029296,0 c 1.478353,0 2.492365,0.654657 3.042969,1.964844 C 96.853886,79.657437 97,80.533362 97,81.589844 c 0,1.320372 -0.295179,2.3842 -0.884766,3.195312 C 95.526621,85.59626 94.699924,86 93.636719,86 92.409795,86 91.497769,85.582104 90.898438,84.744141 90.299108,83.906177 90,82.850146 90,81.574219 90,80.490885 90.145139,79.60819 90.435547,78.925781 90.9959,77.641521 92.023641,77 93.521484,77 Z m 62.957036,0 c 1.49784,0 2.52558,0.641521 3.08593,1.925781 0.29041,0.682409 0.43555,1.565104 0.43555,2.648438 0,1.275927 -0.29911,2.331958 -0.89844,3.169922 C 158.50223,85.582104 157.59021,86 156.36328,86 c -1.0632,0 -1.8899,-0.40374 -2.47851,-1.214844 C 153.29518,83.974044 153,82.910216 153,81.589844 c 0,-1.056482 0.14611,-1.932407 0.43555,-2.625 C 153.98615,77.654657 155.00016,77 156.47852,77 Z M 143,82.033203 v 1.474609 c -0.031,1.326246 -0.44337,2.241187 -1.24023,2.742188 -0.79787,0.501011 -1.66873,0.75 -2.61524,0.75 -0.59659,0 -1.10356,-0.148684 -1.51953,-0.451172 -0.41699,-0.30155 -0.625,-0.791927 -0.625,-1.46875 0,-0.760013 0.34117,-1.320541 1.02344,-1.68164 0.40255,-0.213636 1.06644,-0.396511 1.99023,-0.544922 l 0.98438,-0.166016 c 0.49338,-0.08319 0.87931,-0.174114 1.16211,-0.271484 0.2818,-0.09642 0.56322,-0.224949 0.83984,-0.382813 z m 34,0 v 1.474609 c -0.031,1.326246 -0.44337,2.241187 -1.24023,2.742188 -0.79787,0.501011 -1.66873,0.75 -2.61524,0.75 -0.59659,0 -1.10356,-0.148684 -1.51953,-0.451172 -0.41699,-0.30155 -0.625,-0.791927 -0.625,-1.46875 0,-0.760013 0.34117,-1.320541 1.02344,-1.68164 0.40255,-0.213636 1.06644,-0.396511 1.99023,-0.544922 l 0.98438,-0.166016 c 0.49338,-0.08319 0.87931,-0.174114 1.16211,-0.271484 0.2818,-0.09642 0.56322,-0.224949 0.83984,-0.382813 z" />
  <path
     id="path25404"
     style="opacity:1;fill:#ff6000;fill-opacity:1;stroke-width:0.859483;stroke-miterlimit:4;stroke-dasharray:none"
     d="M 11 66 L 11 88 L 15 88 L 15 79.267578 C 15 77.886313 15.654179 76.822886 16.246094 76.078125 C 16.838007 75.332362 17.704255 74.960938 18.847656 74.960938 C 19.950627 74.960938 21.000613 75.334212 21.394531 76.083984 C 21.698264 76.617245 22 77.319448 22 78.1875 L 22 88 L 26 88 L 26 78.529297 C 26 77.088892 25.948328 75.650177 25.845703 75.013672 C 25.745151 74.37817 25.465883 73.759625 25.009766 73.158203 C 24.471756 72.446521 23.784862 71.919034 22.947266 71.574219 C 22.109671 71.228401 21.178605 71.056641 20.152344 71.056641 C 19.240112 71.056641 18.221924 71.204529 17.375 71.529297 C 16.568504 71.839029 15.806495 72.089554 15 72.859375 L 15 66 L 11 66 z M 86 66 L 86 88 L 90 88 L 90 85.597656 C 90.538618 86.369911 91.00571 86.909647 91.46875 87.21875 C 92.243672 87.739802 93.270645 88 94.546875 88 C 96.580806 88 98.163196 87.195225 99.296875 85.583984 C 100.43247 83.972744 101 81.941439 101 79.490234 C 101 77.126362 100.42434 74.794279 99.273438 73.298828 C 98.123495 71.803378 96.531938 71.056641 94.496094 71.056641 C 93.369108 71.056641 92.439938 71.297495 91.710938 71.779297 C 91.095782 72.165916 90.510874 72.724998 90 73.458984 L 90 66 L 86 66 z M 160 66 L 160 73.458984 C 159.48913 72.724998 158.90422 72.165916 158.28906 71.779297 C 157.56006 71.297495 156.63089 71.056641 155.50391 71.056641 C 153.46806 71.056641 151.87651 71.803378 150.72656 73.298828 C 149.57566 74.794279 149 77.126362 149 79.490234 C 149 81.941439 149.56753 83.972744 150.70312 85.583984 C 151.83679 87.195225 153.41918 88 155.45312 88 C 156.72936 88 157.75633 87.739802 158.53125 87.21875 C 158.99429 86.909647 159.46138 86.369911 160 85.597656 L 160 88 L 164 88 L 164 66 L 160 66 z M 80.851562 67.007812 A 1.9997681 1.9792663 0 0 0 79 68.980469 A 1.9997681 1.9792663 0 1 0 83 68.980469 A 1.9997681 1.9792663 0 0 0 80.851562 67.007812 z M 34.947266 71 C 32.595233 71 30.682872 71.7411 29.208984 73.222656 C 27.736094 74.705208 27 76.832704 27 79.609375 C 27 82.573484 27.814714 84.71129 29.447266 86.027344 C 31.079819 87.3414 32.964118 88 35.099609 88 C 37.686147 88 39.6978 87.220438 41.134766 85.662109 C 42.057816 84.682047 42.576692 83.951146 42.689453 83 L 38.40625 83 C 38.156777 83.470588 37.868282 83.60297 37.542969 83.867188 C 36.946228 84.357713 36.169828 84.603516 35.214844 84.603516 C 34.313747 84.603516 33.542992 84.402783 32.902344 84 C 31.84857 83.352942 31.288516 82.608176 31.222656 81 L 42.908203 81 C 42.929159 79.616151 42.884246 78.173293 42.771484 77.4375 C 42.576895 76.180272 42.148801 75.075192 41.492188 74.123047 C 40.763727 73.043286 39.839341 72.251495 38.720703 71.75 L 38.71875 71.75 C 37.601111 71.249501 36.343318 71 34.947266 71 z M 45 71 L 45 93 L 49 93 L 49 85.662109 C 49.428709 86.331733 49.863575 86.838897 50.310547 87.1875 C 51.128554 87.816743 52.155475 88.132812 53.392578 88.132812 C 55.333303 88.132812 56.920047 87.399833 58.152344 85.9375 C 59.384641 84.475166 60 81.851275 60 79.0625 C 60 76.419467 59.370509 74.414657 58.109375 73.048828 C 56.849202 71.683983 55.310867 71 53.494141 71 C 52.248387 71 51.171134 71.354491 50.267578 72.060547 C 49.773505 72.45838 49.437359 73.001138 49 73.6875 L 49 71 L 45 71 z M 68.824219 71 C 66.80681 71 64.740909 71.498515 63.628906 72.498047 C 62.517855 73.497579 61.962891 74.692882 61.962891 76.083984 C 62.023337 81.327057 71.647319 80.30591 71.955078 83.578125 C 71.955078 84.03901 71.724319 84.38572 71.257812 84.615234 C 70.793208 84.845677 70.163253 84.958984 69.373047 84.958984 C 68.027789 84.958984 67.105346 84.696465 66.607422 84.171875 C 66.32466 83.877728 66.143324 83.699766 66.058594 83 L 62 83 C 62 84.54754 62.57257 85.502422 63.722656 86.501953 C 64.870836 87.500554 66.651892 88 69.0625 88 C 71.426458 88 73.173645 87.528241 74.304688 86.583984 C 75.434781 85.639717 76 84.421955 76 82.929688 C 75.715565 78.3803 66.064453 78.152592 66.064453 75.351562 C 66.064453 74.992779 66.249792 74.679089 66.621094 74.412109 C 66.992396 74.145131 68.01273 74.011719 68.886719 74.011719 C 69.946359 74.011719 70.698871 74.278542 71.140625 74.8125 C 71.374831 75.108519 71.520002 75.508833 71.576172 76.015625 L 75.578125 76.015625 C 75.40009 74.173001 74.707257 72.875351 73.501953 72.125 C 72.296648 71.373711 70.737854 71 68.824219 71 z M 79 72 L 79 88 L 83 88 L 83 72 L 79 72 z M 104 72 L 104 81.4375 C 104 83.228262 104.2224 84.582706 104.66797 85.501953 C 105.46342 87.168068 107.00919 88 109.30273 88 C 110.09914 88 110.79326 87.89491 111.38477 87.685547 C 111.9782 87.474242 112.59156 87.08234 113.22656 86.507812 C 113.4365 86.32468 113.61928 86.111548 113.76758 85.875 C 113.85764 85.728468 113.95148 85.583689 114.05078 85.443359 L 114.05078 88 L 118 88 L 118 72 L 114 72 L 114 80.818359 C 114 81.824262 113.74724 82.63262 113.48242 83.246094 C 112.9721 84.375662 112.02666 84.941406 110.64648 84.941406 C 109.56881 84.941406 108.8448 84.544593 108.47656 83.75 C 108.2678 83.300118 108 82.627327 108 81.736328 L 108 72 L 104 72 z M 122 72 L 122 88 L 126 88 L 126 80.431641 C 126 79.179636 126.23556 78.251111 126.54883 77.648438 C 127.10886 76.578206 128.20401 76.042969 129.83398 76.042969 C 130.22373 76.046419 130.61273 76.070764 131 76.115234 L 131 72.027344 C 130.81975 72.017624 130.70339 72.010759 130.65039 72.005859 C 130.59931 72.000959 130.53614 72 130.46094 72 C 129.24738 72 128.26055 72.320354 127.50195 72.960938 C 127.03831 73.342955 126.62654 74.054634 126 75.095703 L 126 72 L 122 72 z M 140.31836 72 C 137.64988 72 135.76781 72.668146 134.67188 74.001953 C 133.98261 74.857441 133.59541 75.673756 133.50781 77 L 137.49219 77 C 137.58969 76.41581 137.78567 76.024781 138.08008 75.681641 C 138.49069 75.218447 139.19204 74.988281 140.18164 74.988281 C 141.06391 74.988281 141.73064 75.105474 142.18555 75.341797 C 142.64146 75.57812 142.87109 76.207068 142.87109 76.828125 C 142.87109 77.338582 142.5713 77.714029 141.97852 77.955078 C 141.64767 78.094981 141.09715 78.210094 140.32812 78.302734 L 138.91211 78.470703 C 137.3061 78.664488 136.0908 78.988673 135.26367 79.443359 C 133.75516 80.278051 133 81.627128 133 83.492188 C 133 84.929969 133.46884 86.040575 134.40625 86.824219 C 135.34464 87.60881 136.53309 88 137.9707 88 C 139.09815 88 140.10983 87.753276 141.00391 87.261719 C 141.73959 86.853888 142.40796 86.343455 142.98633 85.746094 C 143.01583 86.08924 142.98633 88 142.98633 88 L 147 88 C 146.9795 87.313719 146.9707 84.155918 146.9707 83.673828 L 146.9707 76.716797 C 146.9707 74.889549 146.29626 73.646142 144.94727 72.986328 C 143.59827 72.32935 142.05531 72 140.31836 72 z M 174.31836 72 C 171.64988 72 169.76782 72.668146 168.67188 74.001953 C 167.98261 74.857441 167.59541 75.673756 167.50781 77 L 171.49219 77 C 171.58969 76.41581 171.78567 76.024781 172.08008 75.681641 C 172.49069 75.218447 173.19204 74.988281 174.18164 74.988281 C 175.06391 74.988281 175.73064 75.105474 176.18555 75.341797 C 176.64146 75.57812 176.87109 76.207068 176.87109 76.828125 C 176.87109 77.338582 176.5713 77.714029 175.97852 77.955078 C 175.64767 78.094981 175.09715 78.210094 174.32812 78.302734 L 172.91211 78.470703 C 171.3061 78.664488 170.0908 78.988673 169.26367 79.443359 C 167.75516 80.278051 167 81.627128 167 83.492188 C 167 84.929969 167.46884 86.040575 168.40625 86.824219 C 169.34464 87.60881 170.53309 88 171.9707 88 C 173.09815 88 174.10983 87.753276 175.00391 87.261719 C 175.73959 86.853888 176.40796 86.343455 176.98633 85.746094 C 177.01583 86.08924 176.98633 88 176.98633 88 L 181 88 C 180.9795 87.313719 180.9707 84.155918 180.9707 83.673828 L 180.9707 76.716797 C 180.9707 74.889549 180.29626 73.646142 178.94727 72.986328 C 177.59827 72.32935 176.05531 72 174.31836 72 z M 34.947266 75 C 35.938173 75 36.766959 75.25472 37.435547 75.763672 C 38.104135 76.272625 38.476894 77.018197 38.552734 78 L 31.326172 78 C 31.47885 77.078955 31.852564 76.347484 32.445312 75.808594 L 32.445312 75.810547 C 33.038061 75.270776 33.87054 75 34.947266 75 z M 52.492188 75 C 53.728957 75 54.622973 75.442986 55.173828 76.328125 C 55.724682 77.214192 56 78.232968 56 79.382812 C 56 80.780644 55.701641 81.900605 55.103516 82.740234 C 54.503461 83.580787 53.632484 84 52.492188 84 C 51.705941 84 51.026144 83.794263 50.451172 83.382812 C 49.483559 82.680647 49 81.462475 49 79.726562 C 49 78.630589 49.144155 77.726056 49.431641 77.013672 C 49.987319 75.670638 51.00652 75 52.492188 75 z M 93.521484 75 C 94.999837 75 96.013849 75.654657 96.564453 76.964844 C 96.853886 77.657437 97 78.533362 97 79.589844 C 97 80.910216 96.704821 81.974044 96.115234 82.785156 C 95.526621 83.59626 94.699924 84 93.636719 84 C 92.409795 84 91.497769 83.582104 90.898438 82.744141 C 90.299108 81.906177 90 80.850146 90 79.574219 C 90 78.490885 90.145139 77.60819 90.435547 76.925781 C 90.9959 75.641521 92.023641 75 93.521484 75 z M 156.47852 75 C 157.97636 75 159.0041 75.641521 159.56445 76.925781 C 159.85486 77.60819 160 78.490885 160 79.574219 C 160 80.850146 159.70089 81.906177 159.10156 82.744141 C 158.50223 83.582104 157.59021 84 156.36328 84 C 155.30008 84 154.47338 83.59626 153.88477 82.785156 C 153.29518 81.974044 153 80.910216 153 79.589844 C 153 78.533362 153.14611 77.657437 153.43555 76.964844 C 153.98615 75.654657 155.00016 75 156.47852 75 z M 143 80.033203 L 143 81.507812 C 142.969 82.834058 142.55663 83.748999 141.75977 84.25 C 140.9619 84.751011 140.09104 85 139.14453 85 C 138.54794 85 138.04097 84.851316 137.625 84.548828 C 137.20801 84.247278 137 83.756901 137 83.080078 C 137 82.320065 137.34117 81.759537 138.02344 81.398438 C 138.42599 81.184802 139.08988 81.001927 140.01367 80.853516 L 140.99805 80.6875 C 141.49143 80.60431 141.87736 80.513386 142.16016 80.416016 C 142.44196 80.319596 142.72338 80.191067 143 80.033203 z M 177 80.033203 L 177 81.507812 C 176.969 82.834058 176.55663 83.748999 175.75977 84.25 C 174.9619 84.751011 174.09104 85 173.14453 85 C 172.54794 85 172.04097 84.851316 171.625 84.548828 C 171.20801 84.247278 171 83.756901 171 83.080078 C 171 82.320065 171.34117 81.759537 172.02344 81.398438 C 172.42599 81.184802 173.08988 81.001927 174.01367 80.853516 L 174.99805 80.6875 C 175.49143 80.60431 175.87736 80.513386 176.16016 80.416016 C 176.44196 80.319596 176.72338 80.191067 177 80.033203 z " />
</svg>
