<?xml version="1.0" encoding="UTF-8" standalone="no"?>
<svg
   width="192"
   height="192"
   version="1"
   id="svg28"
   sodipodi:docname="apps_lawnchair_launcher.svg"
   inkscape:version="1.1-rc (1:1.1+rc+202105232036+f4db50c7c1)"
   xmlns:inkscape="http://www.inkscape.org/namespaces/inkscape"
   xmlns:sodipodi="http://sodipodi.sourceforge.net/DTD/sodipodi-0.dtd"
   xmlns="http://www.w3.org/2000/svg"
   xmlns:svg="http://www.w3.org/2000/svg"
   xmlns:rdf="http://www.w3.org/1999/02/22-rdf-syntax-ns#"
   xmlns:cc="http://creativecommons.org/ns#"
   xmlns:dc="http://purl.org/dc/elements/1.1/">
  <metadata
     id="metadata34">
    <rdf:RDF>
      <cc:Work
         rdf:about="">
        <dc:format>image/svg+xml</dc:format>
        <dc:type
           rdf:resource="http://purl.org/dc/dcmitype/StillImage" />
      </cc:Work>
    </rdf:RDF>
  </metadata>
  <defs
     id="defs32">
    <filter
       inkscape:collect="always"
       style="color-interpolation-filters:sRGB"
       id="filter5109"
       x="-0.046857142"
       y="-0.10648799"
       width="1.0937143"
       height="1.212976">
      <feGaussianBlur
         inkscape:collect="always"
         stdDeviation="3.28"
         id="feGaussianBlur5111" />
    </filter>
    <filter
       inkscape:collect="always"
       style="color-interpolation-filters:sRGB"
       id="filter1624"
       x="-0.047991797"
       y="-0.048008204"
       width="1.0959836"
       height="1.0960164">
      <feGaussianBlur
         inkscape:collect="always"
         stdDeviation="1.5997266"
         id="feGaussianBlur1626" />
    </filter>
  </defs>
  <sodipodi:namedview
     pagecolor="#ffffff"
     bordercolor="#666666"
     borderopacity="1"
     objecttolerance="10"
     gridtolerance="10"
     guidetolerance="10"
     inkscape:pageopacity="0"
     inkscape:pageshadow="2"
     inkscape:window-width="1920"
     inkscape:window-height="1019"
     id="namedview30"
     showgrid="false"
     inkscape:zoom="1"
     inkscape:cx="97.5"
     inkscape:cy="63.5"
     inkscape:window-x="0"
     inkscape:window-y="34"
     inkscape:window-maximized="1"
     inkscape:current-layer="svg28"
     inkscape:pagecheckerboard="0"
     inkscape:snap-bbox="true"
     inkscape:snap-bbox-midpoints="true">
    <inkscape:grid
       type="xygrid"
       id="grid841" />
  </sodipodi:namedview>
  <rect
     id="rect2"
     transform="matrix(0,-1,-1,0,0,0)"
     ry="10.5"
     rx="10.5"
     y="-166"
     x="-166"
     height="140"
     width="140"
     style="fill:#3981eb;fill-opacity:1;stroke-width:3.5" />
  <path
     id="rect5113"
     style="opacity:0.1;fill:#ffffff;fill-opacity:1;stroke-width:3.5"
     d="M 36.5,26 C 30.683,26 26,30.683 26,36.5 v 1 C 26,31.683 30.683,27 36.5,27 h 119 c 5.817,0 10.5,4.683 10.5,10.5 v -1 C 166,30.683 161.317,26 155.5,26 Z" />
  <path
     id="path5068"
     style="opacity:0.2;fill:#000000;fill-opacity:1;stroke-width:11.6645;stroke-linecap:round;stroke-linejoin:round;filter:url(#filter5109);stop-color:#000000"
     d="m 96,106.07617 c -20.322131,0 -84,9.54204 -84,43.92383 v 14.70508 C 12,173.17845 19.053103,180 27.814453,180 H 96 164.18555 C 172.9469,180 180,173.17845 180,164.70508 V 150 c 0,-34.38179 -63.67787,-43.92383 -84,-43.92383 z"
     sodipodi:nodetypes="sssscssss" />
  <path
     id="rect1227"
     style="fill:#1ecc56;fill-opacity:1;stroke-width:11.6645;stroke-linecap:round;stroke-linejoin:round;stop-color:#000000"
     d="m 96,102.07617 c -20.322131,0 -84,9.54204 -84,43.92383 v 14.70508 C 12,169.17845 19.053103,176 27.814453,176 H 96 164.18555 C 172.9469,176 180,169.17845 180,160.70508 V 146 c 0,-34.38179 -63.67787,-43.92383 -84,-43.92383 z" />
  <path
     id="path5115"
     style="opacity:0.2;fill:#ffffff;fill-opacity:1;stroke-width:11.6645;stroke-linecap:round;stroke-linejoin:round;stop-color:#000000"
     d="m 96,102.07617 c -20.322131,0 -84,9.54204 -84,43.92383 v 1 c 0,-34.38179 63.677869,-43.92383 84,-43.92383 20.32213,0 84,9.54204 84,43.92383 v -1 c 0,-34.38179 -63.67787,-43.92383 -84,-43.92383 z" />
  <path
     id="path1586"
     style="opacity:0.2;fill:#000000;stroke-width:6.66664;filter:url(#filter1624)"
     d="M 85.925781,65.027001 85.041016,75.53286 a 31.716471,31.423274 0 0 0 -9.271485,5.324219 l -9.664062,-4.517578 -10.091797,17.328125 8.763672,6.027341 a 31.716471,31.423274 0 0 0 -0.482422,5.298833 31.716471,31.423274 0 0 0 0.46875,5.33789 L 56,116.34536 l 10.09375,17.31446 9.636719,-4.50391 a 31.716471,31.423274 0 0 0 9.285156,5.28516 l 0.884766,10.55859 h 20.185549 l 0.89844,-10.53125 a 31.716471,31.423274 0 0 0 9.25976,-5.3125 l 9.66211,4.50391 L 136,116.34536 l -8.76367,-6.04101 a 31.716471,31.423274 0 0 0 0.48047,-5.29688 31.716471,31.423274 0 0 0 -0.46875,-5.326173 L 136,93.681298 125.91992,76.353173 l -9.65039,4.503906 a 31.716471,31.423274 0 0 0 -9.28515,-5.273438 l -0.88477,-10.55664 z M 96,91.013329 a 14.001616,14.002445 0 0 1 14,14.000001 14.001616,14.002445 0 0 1 -14,14 14.001616,14.002445 0 0 1 -14,-14 14.001616,14.002445 0 0 1 14,-14.000001 z" />
  <path
     id="path1545"
     style="fill:#ffffff;stroke-width:6.66664"
     d="m 85.925781,63.027344 -0.884765,10.505859 a 31.716471,31.423274 0 0 0 -9.271485,5.324219 l -9.664062,-4.517578 -10.091797,17.328125 8.763672,6.027343 a 31.716471,31.423274 0 0 0 -0.482422,5.298828 31.716471,31.423274 0 0 0 0.46875,5.33789 L 56,114.3457 l 10.09375,17.31446 9.636719,-4.50391 a 31.716471,31.423274 0 0 0 9.285156,5.28516 L 85.900391,143 h 20.185549 l 0.89844,-10.53125 a 31.716471,31.423274 0 0 0 9.25976,-5.3125 l 9.66211,4.50391 L 136,114.3457 l -8.76367,-6.04101 a 31.716471,31.423274 0 0 0 0.48047,-5.29688 31.716471,31.423274 0 0 0 -0.46875,-5.326169 l 8.75195,-6 -10.08008,-17.328125 -9.65039,4.503906 a 31.716471,31.423274 0 0 0 -9.28515,-5.273438 l -0.88477,-10.55664 z M 96,89.013672 a 14.001616,14.002445 0 0 1 14,13.999998 14.001616,14.002445 0 0 1 -14,14 14.001616,14.002445 0 0 1 -14,-14 14.001616,14.002445 0 0 1 14,-13.999998 z" />
  <path
     style="fill:#ffffff;stroke-width:6.66664"
     d="m 85.926721,63.000002 -0.01333,0.02666 h 0.01333 z"
     id="path32" />
</svg>
