<svg xmlns="http://www.w3.org/2000/svg" width="192" height="192" version="1">
 <defs>
  <filter id="filter6495" style="color-interpolation-filters:sRGB" width="1.096" height="1.096" x="-.05" y="-.05">
   <feGaussianBlur id="feGaussianBlur6497" stdDeviation="3.2"/>
  </filter>
  <filter id="filter19714" style="color-interpolation-filters:sRGB" width="1.095" height="1.359" x="-.05" y="-.18">
   <feGaussianBlur id="feGaussianBlur19716" stdDeviation="2.172"/>
  </filter>
 </defs>
 <rect style="opacity:0.2;filter:url(#filter6495)" width="160" height="160" x="-180" y="-176" rx="12" ry="12" transform="matrix(0,-1,-1,0,0,0)"/>
 <rect style="fill:#ffe141" width="160" height="160" x="-176" y="-176" rx="12" ry="12" transform="matrix(0,-1,-1,0,0,0)"/>
 <path style="opacity:0.2;filter:url(#filter19714)" d="m 41,83 v 29 h 7 v -2.84766 C 48.89662,110.88719 51.233874,112 53.595703,112 59.653357,112 63,107.67318 63,101.16211 63,94.651029 59.653357,90.025391 53.595703,90.025391 c -2.055666,0 -4.458525,0.834325 -5.595703,2.205078 V 83 Z m 24,0 v 29 h 7 V 83 Z m 9,0 v 6 h 7 v -6 z m 30,0 v 29 h 7 v -6.02148 l 1.75195,-1.82618 L 117.67969,112 H 126 L 117.80859,99.630859 125.91406,91 h -8.70898 L 111,97.738281 V 83 Z m 24,0 v 6 h 7 v -6 z m 12,3 v 5 h -3 v 6 h 3 v 9.77539 C 140,110.29403 141.27557,112 145.41797,112 H 151 v -6 h -3.12305 C 147.27884,106 147,105.74228 147,105.15234 V 97 h 4 v -6 h -4 v -5 z m -66,5 v 21 h 7 V 91 Z m 9,0 v 21 h 7 V 99.875 c 0,-1.905242 0.845982,-2.835937 2.5,-2.835938 1.654018,0 2.5,0.930696 2.5,2.835938 V 112 h 7 V 98.875 C 102,94.111895 99.497488,91 95.001953,91 92.542132,91 90.805803,92.079888 90,93.773438 V 91 Z m 45,0 v 21 h 7 V 91 Z M 51.478516,96 C 53.707683,96 55,97.818181 55,101 c 0,3.16018 -1.292317,5 -3.521484,5 C 49.270184,106 48,104.18181 48,101 c 0,-3.203463 1.24935,-5 3.478516,-5 z"/>
 <path style="opacity:0.2;fill:#ffffff" d="m 28,16 c -6.648,0 -12,5.352 -12,12 v 1 c 0,-6.648 5.352,-12 12,-12 h 136 c 6.648,0 12,5.352 12,12 v -1 c 0,-6.648 -5.352,-12 -12,-12 z"/>
 <path style="fill:#3f3f3f" d="M 41 81 L 41 110 L 48 110 L 48 107.15234 C 48.89662 108.88719 51.233874 110 53.595703 110 C 59.653357 110 63 105.67318 63 99.162109 C 63 92.651029 59.653357 88.025391 53.595703 88.025391 C 51.540037 88.025391 49.137178 88.859716 48 90.230469 L 48 81 L 41 81 z M 65 81 L 65 110 L 72 110 L 72 81 L 65 81 z M 74 81 L 74 87 L 81 87 L 81 81 L 74 81 z M 104 81 L 104 110 L 111 110 L 111 103.97852 L 112.75195 102.15234 L 117.67969 110 L 126 110 L 117.80859 97.630859 L 125.91406 89 L 117.20508 89 L 111 95.738281 L 111 81 L 104 81 z M 74 89 L 74 110 L 81 110 L 81 89 L 74 89 z M 83 89 L 83 110 L 90 110 L 90 97.875 C 90 95.969758 90.845982 95.039062 92.5 95.039062 C 94.154018 95.039062 95 95.969758 95 97.875 L 95 110 L 102 110 L 102 96.875 C 102 92.111895 99.497488 89 95.001953 89 C 92.542132 89 90.805803 90.079889 90 91.773438 L 90 89 L 83 89 z M 51.478516 94 C 53.707683 94 55 95.818181 55 99 C 55 102.16018 53.707683 104 51.478516 104 C 49.270184 104 48 102.18181 48 99 C 48 95.796537 49.24935 94 51.478516 94 z"/>
 <path style="fill:#0c831f" d="M 128 81 L 128 87 L 135 87 L 135 81 L 128 81 z M 140 84 L 140 89 L 137 89 L 137 95 L 140 95 L 140 104.77539 C 140 108.29403 141.27557 110 145.41797 110 L 151 110 L 151 104 L 147.87695 104 C 147.27884 104 147 103.74228 147 103.15234 L 147 95 L 151 95 L 151 89 L 147 89 L 147 84 L 140 84 z M 128 89 L 128 110 L 135 110 L 135 89 L 128 89 z"/>
</svg>
