<?xml version="1.0" encoding="UTF-8" standalone="no"?>
<svg
   width="192"
   height="192"
   version="1"
   id="svg28"
   sodipodi:docname="apps_bibi_mob_passageiro.svg"
   inkscape:version="1.1.1 (1:1.1+202109281949+c3084ef5ed)"
   xmlns:inkscape="http://www.inkscape.org/namespaces/inkscape"
   xmlns:sodipodi="http://sodipodi.sourceforge.net/DTD/sodipodi-0.dtd"
   xmlns="http://www.w3.org/2000/svg"
   xmlns:svg="http://www.w3.org/2000/svg"
   xmlns:rdf="http://www.w3.org/1999/02/22-rdf-syntax-ns#"
   xmlns:cc="http://creativecommons.org/ns#"
   xmlns:dc="http://purl.org/dc/elements/1.1/">
  <metadata
     id="metadata34">
    <rdf:RDF>
      <cc:Work
         rdf:about="">
        <dc:format>image/svg+xml</dc:format>
        <dc:type
           rdf:resource="http://purl.org/dc/dcmitype/StillImage" />
      </cc:Work>
    </rdf:RDF>
  </metadata>
  <defs
     id="defs32">
    <filter
       inkscape:collect="always"
       style="color-interpolation-filters:sRGB"
       id="filter6495"
       x="-0.048000001"
       y="-0.048000001"
       width="1.096"
       height="1.096">
      <feGaussianBlur
         inkscape:collect="always"
         stdDeviation="3.2"
         id="feGaussianBlur6497" />
    </filter>
    <filter
       inkscape:collect="always"
       style="color-interpolation-filters:sRGB"
       id="filter34135"
       x="-0.067647059"
       y="-0.084146341"
       width="1.1352941"
       height="1.1682927">
      <feGaussianBlur
         inkscape:collect="always"
         stdDeviation="2.875"
         id="feGaussianBlur34137" />
    </filter>
  </defs>
  <sodipodi:namedview
     pagecolor="#ffffff"
     bordercolor="#666666"
     borderopacity="1"
     objecttolerance="10"
     gridtolerance="10"
     guidetolerance="10"
     inkscape:pageopacity="0"
     inkscape:pageshadow="2"
     inkscape:window-width="1920"
     inkscape:window-height="1019"
     id="namedview30"
     showgrid="false"
     inkscape:zoom="1"
     inkscape:cx="96"
     inkscape:cy="71.5"
     inkscape:window-x="0"
     inkscape:window-y="34"
     inkscape:window-maximized="1"
     inkscape:current-layer="svg28"
     inkscape:pagecheckerboard="0"
     inkscape:snap-global="true"
     showguides="true"
     inkscape:snap-bbox="true"
     inkscape:snap-bbox-midpoints="true">
    <inkscape:grid
       type="xygrid"
       id="grid841" />
  </sodipodi:namedview>
  <rect
     id="rect6457"
     transform="matrix(0,-1,-1,0,0,0)"
     ry="12"
     rx="12"
     y="-176"
     x="-180"
     height="160"
     width="160"
     style="opacity:0.2;fill:#000000;fill-opacity:1;stroke-width:4;filter:url(#filter6495)" />
  <rect
     id="rect2"
     transform="matrix(0,-1,-1,0,0,0)"
     ry="12"
     rx="12"
     y="-176"
     x="-176"
     height="160"
     width="160"
     style="fill:#3f3f3f;fill-opacity:1;stroke-width:4" />
  <path
     id="path34084"
     style="font-size:40px;line-height:1.25;font-family:Azonix;-inkscape-font-specification:Azonix;opacity:0.2;fill:#000000;stroke-width:1.03163;filter:url(#filter34135)"
     d="m 46,57 v 48 h 17.677734 c 5.496067,0 9.5905,-1.13626 12.283204,-3.4082 C 78.65364,99.319861 80,95.869839 80,91.240234 80,88.218132 79.373277,85.666927 78.119141,83.587891 76.865006,81.508856 75.093596,80.084101 72.806641,79.3125 75.333337,78.128561 76.830911,73.127818 77,69.699219 77,65.262515 75.720716,62.036219 73.138672,60.021484 70.575068,58.006748 67.726063,57 61.990234,57 Z m 36,0 v 48 H 94 V 57 Z m 15,0 v 48 h 17.67773 c 5.49607,0 9.59052,-1.13626 12.28321,-3.4082 C 129.65365,99.319861 131,95.869839 131,91.240234 c 0,-3.022102 -0.62673,-5.573307 -1.88086,-7.652343 -1.25414,-2.079035 -3.02555,-3.50379 -5.3125,-4.275391 2.52669,-1.183939 4.02427,-6.184682 4.19336,-9.613281 0,-4.436704 -1.27928,-7.663 -3.86133,-9.677735 C 121.57506,58.006748 118.72605,57 112.99023,57 Z m 36,0 v 48 h 12 V 57 Z m -75,9 h 4.28125 c 1.21943,0 2.143619,0.431896 2.773438,1.296875 C 65.684503,68.140756 66,69.375528 66,71 66,72.645569 65.684503,73.890492 65.054688,74.734375 64.424869,75.578256 63.50068,76 62.28125,76 H 58 Z m 51,0 h 4.28125 c 1.21943,0 2.14362,0.431896 2.77344,1.296875 C 116.68451,68.140756 117,69.375528 117,71 c 0,1.645569 -0.31548,2.890492 -0.94531,3.734375 C 115.42487,75.578256 114.50068,76 113.28125,76 H 109 Z M 58,86 h 5.416016 c 1.869281,0 3.266707,0.459895 4.193359,1.378906 C 68.536027,88.279162 69,89.637765 69,91.457031 69,93.313809 68.528568,94.702082 67.585938,95.621094 66.659285,96.540104 65.26932,97 63.416016,97 H 58 Z m 51,0 h 5.41602 c 1.86928,0 3.2667,0.459895 4.19336,1.378906 0.92664,0.900256 1.39062,2.258859 1.39062,4.078125 0,1.856778 -0.47142,3.245051 -1.41406,4.164063 C 117.65929,96.540104 116.26932,97 114.41602,97 H 109 Z m -64,27 v 26 h 6 V 121.59961 L 61.707031,139 h 4.585938 L 77,121.59961 V 139 h 6 V 113 H 75.246094 L 64,131.27539 52.753906,113 Z m 52,0 c -7.150101,0 -13,5.8499 -13,13 0,7.1501 5.849899,13 13,13 h 4 c 7.1501,0 13,-5.8499 13,-13 0,-7.1501 -5.8499,-13 -13,-13 z m 18,0 v 26 h 21.79102 C 142.42192,139 147,135.31739 147,130.70508 c 0,-2.86409 -1.78446,-5.39302 -4.53125,-6.88086 0.86982,-1.11588 2.47266,-1.40693 2.47266,-4.63086 0,-3.90558 -4.99087,-6.19336 -9.75196,-6.19336 z m 6,5 h 14.97656 C 137.6301,118 139,119.12419 139,120.51953 139,121.87611 137.6301,123 135.97656,123 H 121 Z m -24,1 h 4 c 3.92989,0 7,3.07011 7,7 0,3.92989 -3.07011,7 -7,7 h -4 c -3.929888,0 -7,-3.07011 -7,-7 0,-3.92989 3.070112,-7 7,-7 z m 24,8 h 15.60938 C 139.00405,127 141,128.56364 141,130.48242 141,132.43673 139.00405,134 136.60938,134 H 121 Z" />
  <path
     id="rect6416"
     style="opacity:0.1;fill:#ffffff;fill-opacity:1;stroke-width:4"
     d="m 28,16 c -6.648,0 -12,5.352 -12,12 v 1 c 0,-6.648 5.352,-12 12,-12 h 136 c 6.648,0 12,5.352 12,12 v -1 c 0,-6.648 -5.352,-12 -12,-12 z" />
  <path
     id="path24545"
     style="font-size:40px;line-height:1.25;font-family:Azonix;-inkscape-font-specification:Azonix;fill:#ffffff;stroke-width:1.03163"
     d="m 115,111 v 26 h 21.79102 C 142.42192,137 147,133.31739 147,128.70508 c 0,-2.86409 -1.78446,-5.39302 -4.53125,-6.88086 0.86982,-1.11588 2.47266,-1.40693 2.47266,-4.63086 0,-3.90558 -4.99087,-6.19336 -9.75196,-6.19336 z m 6,5 h 14.97656 C 137.6301,116 139,117.12419 139,118.51953 139,119.87611 137.6301,121 135.97656,121 H 121 Z m 0,9 h 15.60938 C 139.00405,125 141,126.56364 141,128.48242 141,130.43673 139.00405,132 136.60938,132 H 121 Z" />
  <path
     id="path15874"
     style="font-weight:bold;font-size:52.3201px;line-height:1.25;font-family:'Bitstream Vera Sans';-inkscape-font-specification:'Bitstream Vera Sans Bold';fill:#ffd710;fill-opacity:1;stroke-width:1.52694"
     d="m 46,55 v 48 h 17.677734 c 5.496067,0 9.5905,-1.13626 12.283204,-3.4082 C 78.653641,97.319864 80,93.869839 80,89.240234 80,86.218132 79.373277,83.666927 78.119141,81.587891 76.865006,79.508856 75.093596,78.084101 72.806641,77.3125 75.333337,76.128561 76.830911,71.127818 77,67.699219 77,63.262515 75.720716,60.036219 73.138672,58.021484 70.575068,56.006748 67.726063,55 61.990234,55 Z m 12,9 h 4.28125 c 1.21943,0 2.14362,0.431896 2.773438,1.296875 C 65.684503,66.140756 66,67.375528 66,69 66,70.645569 65.684503,71.890492 65.054688,72.734375 64.42487,73.578256 63.50068,74 62.28125,74 H 58 Z m 0,20 h 5.416016 c 1.869281,0 3.266707,0.459895 4.193359,1.378906 C 68.536027,86.279162 69,87.637765 69,89.457031 69,91.313809 68.528568,92.702082 67.585938,93.621094 66.659286,94.540104 65.26932,95 63.416016,95 H 58 Z" />
  <path
     d="M 82,55.000004 H 94 V 103 H 82 Z"
     style="font-weight:bold;font-size:52.3201px;line-height:1.25;font-family:'Bitstream Vera Sans';-inkscape-font-specification:'Bitstream Vera Sans Bold';fill:#ffd710;fill-opacity:1;stroke-width:1.62076"
     id="path15823" />
  <path
     id="path16173"
     style="font-weight:bold;font-size:52.3201px;line-height:1.25;font-family:'Bitstream Vera Sans';-inkscape-font-specification:'Bitstream Vera Sans Bold';fill:#ffd710;fill-opacity:1;stroke-width:1.52694"
     d="m 97,55 v 48 h 17.67774 c 5.49607,0 9.5905,-1.13626 12.28319,-3.4082 C 129.65364,97.319864 131,93.869839 131,89.240234 c 0,-3.022102 -0.62673,-5.573307 -1.88086,-7.652343 -1.25414,-2.079035 -3.02555,-3.50379 -5.3125,-4.275391 2.52669,-1.183939 4.02427,-6.184682 4.19336,-9.613281 0,-4.436704 -1.27928,-7.663 -3.86133,-9.677735 C 121.57506,56.006748 118.72606,55 112.99024,55 Z m 12,9 h 4.28125 c 1.21943,0 2.14361,0.431896 2.77343,1.296875 C 116.6845,66.140756 117,67.375528 117,69 c 0,1.645569 -0.31549,2.890492 -0.94532,3.734375 C 115.42486,73.578256 114.50068,74 113.28125,74 H 109 Z m 0,20 h 5.41602 c 1.86928,0 3.26671,0.459895 4.19336,1.378906 0.92664,0.900256 1.39062,2.258859 1.39062,4.078125 0,1.856778 -0.47143,3.245051 -1.41407,4.164063 C 117.65928,94.540104 116.26931,95 114.41601,95 h -5.41602 z" />
  <path
     d="m 133,55.000004 h 12 V 103 h -12 z"
     style="font-weight:bold;font-size:52.3201px;line-height:1.25;font-family:'Bitstream Vera Sans';-inkscape-font-specification:'Bitstream Vera Sans Bold';fill:#ffd710;fill-opacity:1;stroke-width:1.62076"
     id="path16175" />
  <path
     id="path25308"
     style="color:#000000;fill:#ffffff;-inkscape-stroke:none"
     d="m 45,111 v 26 h 6 V 119.59961 L 61.707031,137 h 4.585938 L 77,119.59961 V 137 h 6 V 111 H 75.246094 L 64,129.27539 52.753906,111 Z" />
  <path
     style="color:#000000;fill:#ffffff;stroke-linecap:round;stroke-linejoin:round;-inkscape-stroke:none"
     d="m 97,111 c -7.150101,0 -13,5.8499 -13,13 0,7.1501 5.849899,13 13,13 h 4 c 7.1501,0 13,-5.8499 13,-13 0,-7.1501 -5.8499,-13 -13,-13 z m 0,6 h 4 c 3.92989,0 7,3.07011 7,7 0,3.92989 -3.07011,7 -7,7 h -4 c -3.929888,0 -7,-3.07011 -7,-7 0,-3.92989 3.070112,-7 7,-7 z"
     id="rect26468" />
  <path
     id="path34139"
     style="font-weight:bold;font-size:52.3201px;line-height:1.25;font-family:'Bitstream Vera Sans';-inkscape-font-specification:'Bitstream Vera Sans Bold';fill:#ffffff;fill-opacity:1;stroke-width:1.52694;opacity:0.2"
     d="M 46 55 L 46 56 L 61.990234 56 C 67.726063 56 70.575068 57.006748 73.138672 59.021484 C 75.577962 60.92483 76.838953 63.923314 76.972656 67.988281 C 76.979083 67.89432 76.995472 67.791029 77 67.699219 C 77 63.262515 75.720716 60.036219 73.138672 58.021484 C 70.575068 56.006748 67.726063 55 61.990234 55 L 46 55 z M 82 55 L 82 56 L 94 56 L 94 55 L 82 55 z M 97 55 L 97 56 L 112.99023 56 C 118.72605 56 121.57506 57.006748 124.13867 59.021484 C 126.57797 60.92483 127.83895 63.923314 127.97266 67.988281 C 127.97908 67.89432 127.99547 67.791029 128 67.699219 C 128 63.262515 126.72072 60.036219 124.13867 58.021484 C 121.57506 56.006748 118.72605 55 112.99023 55 L 97 55 z M 133 55 L 133 56 L 145 56 L 145 55 L 133 55 z M 65.974609 69.503906 C 65.913455 70.892811 65.615999 71.982279 65.054688 72.734375 C 64.424869 73.578256 63.50068 74 62.28125 74 L 58 74 L 58 75 L 62.28125 75 C 63.50068 75 64.424869 74.578256 65.054688 73.734375 C 65.684503 72.890492 66 71.645569 66 70 C 66 69.823969 65.982017 69.670783 65.974609 69.503906 z M 116.97461 69.503906 C 116.91346 70.892811 116.61601 71.982279 116.05469 72.734375 C 115.42487 73.578256 114.50068 74 113.28125 74 L 109 74 L 109 75 L 113.28125 75 C 114.50068 75 115.42487 74.578256 116.05469 73.734375 C 116.68452 72.890492 117 71.645569 117 70 C 117 69.823969 116.98202 69.670783 116.97461 69.503906 z M 73.728516 77.675781 C 73.438415 77.942591 73.131374 78.160339 72.806641 78.3125 C 75.093596 79.084101 76.865006 80.508856 78.119141 82.587891 C 79.290622 84.529906 79.907207 86.889352 79.984375 89.654297 C 79.986926 89.514038 80 89.382728 80 89.240234 C 80 86.218132 79.373277 83.666927 78.119141 81.587891 C 77.039347 79.79787 75.574114 78.496488 73.728516 77.675781 z M 124.72852 77.675781 C 124.43842 77.942591 124.13137 78.160339 123.80664 78.3125 C 126.09359 79.084101 127.865 80.508856 129.11914 82.587891 C 130.29062 84.529906 130.90721 86.889352 130.98438 89.654297 C 130.98693 89.514038 131 89.382728 131 89.240234 C 131 86.218132 130.37327 83.666927 129.11914 81.587891 C 128.03934 79.79787 126.57411 78.496488 124.72852 77.675781 z M 68.966797 89.962891 C 68.884273 91.55769 68.437208 92.791152 67.585938 93.621094 C 66.659284 94.540104 65.26932 95 63.416016 95 L 58 95 L 58 96 L 63.416016 96 C 65.26932 96 66.659284 95.540104 67.585938 94.621094 C 68.528568 93.702082 69 92.313809 69 90.457031 C 69 90.281105 68.975473 90.130204 68.966797 89.962891 z M 119.9668 89.962891 C 119.88428 91.55769 119.43722 92.791152 118.58594 93.621094 C 117.65929 94.540104 116.26932 95 114.41602 95 L 109 95 L 109 96 L 114.41602 96 C 116.26932 96 117.65929 95.540104 118.58594 94.621094 C 119.52858 93.702082 120 92.313809 120 90.457031 C 120 90.281105 119.97547 90.130204 119.9668 89.962891 z " />
</svg>
