<?xml version="1.0" encoding="UTF-8" standalone="no"?>
<svg
   width="192"
   height="192"
   version="1"
   id="svg28"
   sodipodi:docname="apps_money_manager.svg"
   inkscape:version="1.1.1 (1:1.1+202109281949+c3084ef5ed)"
   xmlns:inkscape="http://www.inkscape.org/namespaces/inkscape"
   xmlns:sodipodi="http://sodipodi.sourceforge.net/DTD/sodipodi-0.dtd"
   xmlns="http://www.w3.org/2000/svg"
   xmlns:svg="http://www.w3.org/2000/svg"
   xmlns:rdf="http://www.w3.org/1999/02/22-rdf-syntax-ns#"
   xmlns:cc="http://creativecommons.org/ns#"
   xmlns:dc="http://purl.org/dc/elements/1.1/">
  <metadata
     id="metadata34">
    <rdf:RDF>
      <cc:Work
         rdf:about="">
        <dc:format>image/svg+xml</dc:format>
        <dc:type
           rdf:resource="http://purl.org/dc/dcmitype/StillImage" />
      </cc:Work>
    </rdf:RDF>
  </metadata>
  <defs
     id="defs32">
    <filter
       inkscape:collect="always"
       style="color-interpolation-filters:sRGB"
       id="filter27452"
       x="-0.04163829"
       y="-0.056656227"
       width="1.0832766"
       height="1.1133125">
      <feGaussianBlur
         inkscape:collect="always"
         stdDeviation="2.775886"
         id="feGaussianBlur27454" />
    </filter>
    <filter
       inkscape:collect="always"
       style="color-interpolation-filters:sRGB"
       id="filter27494"
       x="-0.065166864"
       y="-0.088327951"
       width="1.1303337"
       height="1.1766559">
      <feGaussianBlur
         inkscape:collect="always"
         stdDeviation="1.7920887"
         id="feGaussianBlur27496" />
    </filter>
    <filter
       inkscape:collect="always"
       style="color-interpolation-filters:sRGB"
       id="filter27536"
       x="-0.192"
       y="-0.192"
       width="1.384"
       height="1.384">
      <feGaussianBlur
         inkscape:collect="always"
         stdDeviation="0.56"
         id="feGaussianBlur27538" />
    </filter>
  </defs>
  <sodipodi:namedview
     pagecolor="#ffffff"
     bordercolor="#666666"
     borderopacity="1"
     objecttolerance="10"
     gridtolerance="10"
     guidetolerance="10"
     inkscape:pageopacity="0"
     inkscape:pageshadow="2"
     inkscape:window-width="1920"
     inkscape:window-height="1019"
     id="namedview30"
     showgrid="false"
     inkscape:zoom="1"
     inkscape:cx="103"
     inkscape:cy="119.5"
     inkscape:window-x="0"
     inkscape:window-y="34"
     inkscape:window-maximized="1"
     inkscape:current-layer="svg28"
     inkscape:pagecheckerboard="0"
     inkscape:snap-global="true"
     showguides="false"
     inkscape:snap-bbox="true"
     inkscape:snap-bbox-midpoints="true">
    <inkscape:grid
       type="xygrid"
       id="grid841" />
  </sodipodi:namedview>
  <path
     style="opacity:0.2;fill:#000000;stroke-width:0.562485;filter:url(#filter27452)"
     d="m 82.76699,170.45321 c 0.974212,-0.98407 1.78161,-2.67836 2.219223,-4.65695 L 85.674092,163 h 32.701028 l 1.36248,2.81265 c 2.62043,5.40951 3.00848,6.18735 10.14118,6.18735 5.71652,0 5.9692,-0.0526 7.42158,-1.54684 1.12407,-1.15642 2.00046,-3.37648 3.47227,-8.79591 l 1.9687,-7.24906 4.49989,-3.39697 c 10.81703,-8.1658 15.55411,-14.10542 18.50214,-23.19907 0.61352,-1.89252 1.77571,-3.68166 3.47114,-5.34362 3.26844,-3.20394 5.0887,-6.33551 6.1969,-10.66116 1.32368,-5.167 0.29205,-6.78962 -1.87051,-2.94191 -1.51964,2.70383 -3.50502,4.56459 -5.08089,4.76199 -1.21067,0.15165 -1.24383,-0.007 -1.43548,-6.87583 -0.21794,-7.811714 -1.23206,-11.881213 -4.6832,-18.792471 -3.07076,-6.149494 -5.72801,-9.817635 -10.87266,-15.008855 -5.20237,-5.249467 -9.25827,-8.209335 -15.67154,-11.436607 C 115.04395,51.07036 82.707406,52.288396 64.061873,64.215805 l -3.21827,2.058699 -8.268662,-4.227989 C 45.234815,58.293321 44.530857,57.620588 43.935657,58.424 c -1.143974,1.544163 -1.140011,6.943588 -0.757314,12.94008 l 0.36499,5.719048 -1.722152,2.037703 c -3.276238,3.876538 -8.034317,11.338768 -9.607585,15.067835 l -1.579587,3.744052 -6.32504,3.442862 c -9.262503,5.04179 -9.538128,5.81241 -6.786146,18.97363 1.779298,8.50942 2.778678,10.5934 6.358443,13.25904 12.206417,9.08942 21.158538,14.74725 31.511928,19.91585 l 6.024546,3.00756 2.270065,5.62486 c 4.007933,9.93101 3.875914,9.82299 12.020329,9.83521 5.288882,0.008 5.59362,-0.0585 7.058856,-1.53854 z"
     id="path27414"
     sodipodi:nodetypes="csccsscscssscssssssscssscsscsscscsccc" />
  <path
     style="fill:#ea4233;stroke-width:0.562485;fill-opacity:1"
     d="m 82.76699,167.45321 c 0.974212,-0.98407 1.78161,-2.67836 2.219223,-4.65695 L 85.674092,160 h 32.701028 l 1.36248,2.81265 c 2.62043,5.40951 3.00848,6.18735 10.14118,6.18735 5.71652,0 5.9692,-0.0526 7.42158,-1.54684 1.12407,-1.15642 2.00046,-3.37648 3.47227,-8.79591 l 1.9687,-7.24906 4.49989,-3.39697 c 10.81703,-8.1658 15.55411,-14.10542 18.50214,-23.19907 0.61352,-1.89252 1.77571,-3.68166 3.47114,-5.34362 3.26844,-3.20394 5.0887,-6.33551 6.1969,-10.66116 1.32368,-5.167 0.29205,-6.78962 -1.87051,-2.94191 -1.51964,2.70383 -3.50502,4.56459 -5.08089,4.76199 -1.21067,0.15165 -1.24383,-0.007 -1.43548,-6.87583 -0.21794,-7.811714 -1.23206,-11.881213 -4.6832,-18.792471 -3.07076,-6.149494 -5.72801,-9.817635 -10.87266,-15.008855 -5.20237,-5.249467 -9.25827,-8.209335 -15.67154,-11.436607 C 115.04395,48.07036 82.707406,49.288396 64.061873,61.215805 l -3.21827,2.058699 -8.268662,-4.227989 C 45.234815,55.293321 44.530857,54.620588 43.935657,55.424 c -1.143974,1.544163 -1.140011,6.943588 -0.757314,12.94008 l 0.36499,5.719048 -1.722152,2.037703 c -3.276238,3.876538 -8.034317,11.338768 -9.607585,15.067835 l -1.579587,3.744052 -6.32504,3.442866 c -9.262503,5.041786 -9.538128,5.812406 -6.786146,18.973626 1.779298,8.50942 2.778678,10.5934 6.358443,13.25904 12.206417,9.08942 21.158538,14.74725 31.511928,19.91585 l 6.024546,3.00756 2.270065,5.62486 c 4.007933,9.93101 3.875914,9.82299 12.020329,9.83521 5.288882,0.008 5.59362,-0.0585 7.058856,-1.53854 z"
     id="path1043"
     sodipodi:nodetypes="csccsscscssscssssssscssscsscsscscsccc" />
  <path
     id="path27540"
     style="fill:#ffffff;stroke-width:0.562485;opacity:0.2"
     d="M 104.02344 51.423828 C 89.36978 51.186537 74.550612 54.505676 64.0625 61.214844 L 60.84375 63.275391 L 52.574219 59.046875 C 45.234093 55.293681 44.530747 54.620416 43.935547 55.423828 C 43.074088 56.586645 42.86457 59.938143 42.976562 64.082031 C 42.927602 60.432814 43.148771 57.485837 43.935547 56.423828 C 44.530747 55.620416 45.234093 56.293681 52.574219 60.046875 L 60.84375 64.275391 L 64.0625 62.214844 C 82.708033 50.287435 115.0437 49.070345 135.79688 59.513672 C 142.21014 62.740944 146.26638 65.701705 151.46875 70.951172 C 156.6134 76.142392 159.27104 79.80949 162.3418 85.958984 C 165.79294 92.870242 166.80745 96.940239 167.02539 104.75195 C 167.21704 111.62078 167.25027 111.7786 168.46094 111.62695 C 170.03681 111.42955 172.02138 109.56906 173.54102 106.86523 C 174.92271 104.40687 175.83362 104.20158 175.97266 105.70703 C 176.16316 103.18492 175.17825 102.95221 173.54102 105.86523 C 172.02138 108.56906 170.03681 110.42955 168.46094 110.62695 C 167.25027 110.7786 167.21704 110.62078 167.02539 103.75195 C 166.80745 95.940239 165.79294 91.870242 162.3418 84.958984 C 159.27104 78.80949 156.6134 75.142392 151.46875 69.951172 C 146.26638 64.701705 142.21014 61.740944 135.79688 58.513672 C 126.71736 53.944716 115.42073 51.608388 104.02344 51.423828 z M 43.484375 74.154297 L 41.820312 76.121094 C 38.544075 79.997632 33.786159 87.460386 32.212891 91.189453 L 30.634766 94.933594 L 24.308594 98.375 C 17.916553 101.85433 15.806427 103.30436 16.015625 108.19141 C 16.142904 104.09387 18.379353 102.60242 24.308594 99.375 L 30.634766 95.933594 L 32.212891 92.189453 C 33.786159 88.460386 38.544075 80.997632 41.820312 77.121094 L 43.542969 75.083984 L 43.484375 74.154297 z " />
  <circle
     style="opacity:0.2;fill:#000000;fill-opacity:1;stroke-width:1.88829;stroke-linecap:round;stroke-linejoin:round;filter:url(#filter27536)"
     id="circle27498"
     cx="44.5"
     cy="100.5"
     r="3.5" />
  <circle
     style="opacity:1;fill:#ffffff;fill-opacity:1;stroke-width:1.88829;stroke-linecap:round;stroke-linejoin:round"
     id="path26307"
     cx="44.5"
     cy="99.5"
     r="3.5" />
  <path
     id="path27456"
     style="opacity:0.2;fill:#000000;fill-opacity:1;stroke-width:5.40955;stroke-linecap:round;stroke-linejoin:round;filter:url(#filter27494)"
     d="m 104,22.99932 c -18.225397,0 -33,14.980002 -33,33.205399 0.01368,4.950815 1.141133,9.835108 3.298828,14.291016 0.568776,-0.310405 1.241957,-0.653424 2.160156,-1.105469 8.150025,-4.012396 17.371637,-5.466922 26.623046,-5.390625 8.71129,0.07184 17.45026,1.443013 25.3457,5.148438 2.14332,1.005884 3.60553,1.79894 4.61719,2.544921 C 135.61268,66.932393 136.97089,61.613594 137,56.204719 137,37.979322 122.2254,22.99932 104,22.99932 Z"
     sodipodi:nodetypes="sccsssccs" />
  <path
     style="fill:#ca3124;stroke-width:0.565714;fill-opacity:1"
     d="m 125.05377,70.485264 c -7.24552,-3.493304 -13.67807,-4.914527 -22.16587,-4.897398 -7.935907,0.01601 -12.848238,0.946127 -20.33893,3.851025 -2.880392,1.117017 -6.026875,2.15509 -6.992194,2.306833 -2.416336,0.37983 -3.757691,-1.024045 -3.532264,-3.696894 0.16283,-1.930622 0.403773,-2.15555 4.434854,-4.140119 15.824232,-7.790538 35.687034,-7.8833 51.967444,-0.242705 5.24784,2.462873 6.57319,3.665456 6.57319,5.964328 0,1.55935 -1.96936,3.426756 -3.55222,3.368329 -0.70334,-0.02598 -3.58065,-1.156994 -6.39401,-2.513399 z"
     id="path1047" />
  <path
     id="path4640"
     style="fill:#ffb522;fill-opacity:1;stroke-width:5.40955;stroke-linecap:round;stroke-linejoin:round"
     d="m 104,20.999679 c -18.225397,0 -33,14.980002 -33,33.205399 0.01368,4.950815 1.141133,9.835108 3.298828,14.291016 0.568776,-0.310405 1.241957,-0.653424 2.160156,-1.105469 C 84.609009,63.378229 93.830621,61.923703 103.08203,62 c 8.71129,0.07184 17.45026,1.443013 25.3457,5.148438 2.14332,1.005884 3.60553,1.79894 4.61719,2.544921 C 135.61268,64.932752 136.97089,59.613953 137,54.205078 137,35.979681 122.2254,20.999679 104,20.999679 Z"
     sodipodi:nodetypes="sccsssccs" />
  <path
     id="circle4766"
     style="fill:#ff8b15;fill-opacity:1;stroke-width:4.26207;stroke-linecap:round;stroke-linejoin:round"
     d="m 104,27.999679 c -14.359403,0 -26,11.845996 -26,26.205399 0.01333,3.945326 0.92435,7.835883 2.664062,11.376953 3.540545,-1.327674 7.236579,-2.239392 11.013672,-2.810547 C 91.246369,61.806744 91,60.531944 91,59.40007 v -0.400391 h 4.876953 v 0.400391 c 0,1.251168 0.862921,2.493353 2.017578,2.744461 1.365407,-0.07916 2.733549,-0.124212 4.105469,-0.130859 v -5.013993 c -1.06113,0 -2.548891,0.01473 -3.605469,0 -2.006053,0 -3.815247,-1.119451 -5.113281,-2.439453 -0.354009,-0.32 -0.707081,-0.720156 -0.982422,-1.160156 C 91.472806,52.200069 91,50.718821 91,49.11882 v -0.158203 c 0,-4.160004 3.310379,-8.193606 7.394531,-7.960938 H 102 v -5 h 4 v 5 h 3.56641 c 4.13011,0 7.43359,3.800927 7.43359,7.960938 v 0.03906 h -4.87695 v -0.03906 c 0,-1.400001 -1.1406,-2.960938 -2.55664,-2.960938 H 106 v 6 h 2.30664 0.27539 1.02344 c 2.00605,0 3.77591,0.480781 5.11328,1.800781 0.35401,0.36 0.70708,0.760157 0.98242,1.160157 C 116.5272,56.200618 117,57.678975 117,59.278976 v 0.121094 c 0,1.309374 -0.32078,2.745598 -0.88672,3.820633 3.6826,0.707768 7.28879,1.757314 10.74805,3.228516 C 128.89882,62.688162 129.9769,58.482505 130,54.205078 130,39.845675 118.3594,27.999679 104,27.999679 Z m -5.333984,18 C 97.207683,45.999679 96,47.316973 96,48.907882 v 0.183594 c 0,1.590908 1.207683,2.908203 2.666016,2.908203 H 102 v -6 z m 7.333984,11 v 5.080399 c 0.67403,0.02903 1.34675,0.07853 2.01953,0.125 h 1.31445 c 1.45833,0 2.66602,-1.274713 2.66602,-2.648758 v -0.113281 c 0,-1.374046 -1.21045,-2.533034 -2.66602,-2.44336 z"
     sodipodi:nodetypes="scccsccsccccccsssccccssccssccccsccsscccsssssccscccssssc" />
  <path
     id="path27542"
     style="fill:#ffffff;fill-opacity:1;stroke-width:5.40955;stroke-linecap:round;stroke-linejoin:round;opacity:0.2"
     d="M 104 21 C 85.774603 21 71 35.979681 71 54.205078 C 71.000418 54.356366 71.011176 54.50705 71.013672 54.658203 C 71.306737 36.681905 85.957903 22 104 22 C 122.029 22 136.67068 36.660685 136.98438 54.619141 C 136.98686 54.480902 136.99926 54.343443 137 54.205078 C 137 35.979681 122.2254 21 104 21 z " />
</svg>
