<svg width="48" height="48" version="1" xmlns="http://www.w3.org/2000/svg">
 <rect transform="matrix(0,-1,-1,0,0,0)" x="-44" y="-44" width="40" height="40" rx="20" ry="20" style="fill:#fc7e39;stroke-width:1.0000501"/>
 <path d="m24 4c-11.079 0-19.998 8.92-19.998 20 0 0.16772-4e-3 0.33329 0 0.5 0.2642-10.846 9.087-19.5 19.998-19.5s19.734 8.6536 19.998 19.5c4e-3 -0.16671 0-0.33228 0-0.5 0-11.08-8.919-20-19.998-20z" fill="#fff" opacity=".2" style="opacity:.1"/>
 <path d="m4.0117 24.5c-0.0041 0.167-0.0117 0.332-0.0117 0.5 0 11.08 8.92 20 20 20s20-8.92 20-20c0-0.168-8e-3 -0.333-0.012-0.5-0.264 10.846-9.076 19.5-19.988 19.5s-19.724-8.654-19.988-19.5z" opacity=".2"/>
 <path d="m22.775391 10.000745c-1.933972-0.0046405-2.812025 0.31493-3.994141 1.453125-0.587639 0.565802-1.78125 2.114687-1.78125 2.554687 0 0.116926 2.221654 3.038549 4.582031 6.494141 2.360378 3.455592 4.313607 6.396105 4.341797 6.533203 0.03987 0.193748-0.233342 9e-3 -1.228516-0.03516-1.722139-0.07646-3.029557 0.432065-4.607421 1.21875-3.229772 1.610282-4.78536 4.791142-3.791016 7.757812 0.570506 1.702132 2.304464 3.149622 4.486328 3.746094 4.814294 1.316128 10.233733-2.252187 10.216797-6.728511-0.0023-0.626948-0.142025-1.367638-0.339844-1.806641-0.184279-0.408962-2.143815-3.712259-4.355468-7.341797-2.211654-3.629538-4.119526-6.78949-4.240235-7.021484-0.318179-0.61153 0.08439-2.003576 0.974609-2.445313 0.656445-0.325731 0.851379-0.436968 2.203126-0.238281 2.028438 0.298149 2.46523 1.224622 3.167968 0.789063 0.661321-0.409884 1.299777-1.662279 1.480469-2.902344l0.109375-1.035157-1.330078 0.01563c-1.022199 0.01175-1.47899 0.179219-2.69336-0.357422-1.327177-0.586488-1.625155-0.646605-3.201171-0.65039zm-0.957032 21c0.398723 0.0015 3.919147 2.302207 4.115235 2.689453 0.247997 0.489756-0.161714 0.939139-1.886719 2.072266-2.076119 1.363759-2.286152 1.441034-2.708984 0.99414-0.30133-0.318473-0.337891-0.603183-0.337891-2.65625 0-2.419412 0.179855-3.101823 0.818359-3.099609z" style="fill:#000000;opacity:.2;stroke-width:.18436819"/>
 <path d="m22.775391 9c-1.933972-0.00464-2.812025 0.3149301-3.994141 1.453125-0.587639 0.565802-1.78125 2.114687-1.78125 2.554687 0 0.116926 2.221654 3.038549 4.582031 6.494141 2.360378 3.455592 4.313607 6.396105 4.341797 6.533203 0.03987 0.193748-0.233342 0.009014-1.228516-0.035156-1.722139-0.07646-3.029557 0.432065-4.607421 1.21875-3.229772 1.610282-4.78536 4.791142-3.791016 7.757812 0.570506 1.702132 2.304464 3.149622 4.486328 3.746094 4.814294 1.316124 10.233733-2.252191 10.216797-6.728515-0.0023-0.626948-0.142025-1.367638-0.339844-1.806641-0.184279-0.408962-2.143815-3.712259-4.355468-7.341797-2.211654-3.629538-4.119526-6.78949-4.240235-7.021484-0.318179-0.61153 0.084385-2.003576 0.974609-2.445313 0.656445-0.325731 0.851379-0.436968 2.203126-0.238281 2.028438 0.298149 2.46523 1.224622 3.167968 0.789063 0.661321-0.409884 1.299777-1.662279 1.480469-2.902344l0.109375-1.0351565-1.330078 0.0156245c-1.022199 0.011748-1.47899 0.179219-2.69336-0.3574214-1.327177-0.5864886-1.625155-0.6466049-3.201171-0.6503906zm-0.957032 21c0.398723 0.0015 3.919147 2.302207 4.115235 2.689453 0.247997 0.489756-0.161714 0.939139-1.886719 2.072266-2.076119 1.363759-2.286152 1.441034-2.708984 0.99414-0.30133-0.318473-0.337891-0.603183-0.337891-2.65625 0-2.419412 0.179855-3.101823 0.818359-3.099609z" style="fill:#ffffff;stroke-width:.18436819"/>
</svg>
