<?xml version="1.0" encoding="UTF-8" standalone="no"?>
<svg
   width="192"
   height="192"
   version="1"
   id="svg26"
   sodipodi:docname="apps_miui_backup.svg"
   inkscape:version="1.1-rc (1:1.1+rc+202105232036+f4db50c7c1)"
   xmlns:inkscape="http://www.inkscape.org/namespaces/inkscape"
   xmlns:sodipodi="http://sodipodi.sourceforge.net/DTD/sodipodi-0.dtd"
   xmlns="http://www.w3.org/2000/svg"
   xmlns:svg="http://www.w3.org/2000/svg"
   xmlns:rdf="http://www.w3.org/1999/02/22-rdf-syntax-ns#"
   xmlns:cc="http://creativecommons.org/ns#"
   xmlns:dc="http://purl.org/dc/elements/1.1/">
  <metadata
     id="metadata32">
    <rdf:RDF>
      <cc:Work
         rdf:about="">
        <dc:format>image/svg+xml</dc:format>
        <dc:type
           rdf:resource="http://purl.org/dc/dcmitype/StillImage" />
      </cc:Work>
    </rdf:RDF>
  </metadata>
  <defs
     id="defs30">
    <filter
       inkscape:collect="always"
       style="color-interpolation-filters:sRGB"
       id="filter868"
       x="-0.048000001"
       width="1.096"
       y="-0.048000001"
       height="1.096">
      <feGaussianBlur
         inkscape:collect="always"
         stdDeviation="3.2"
         id="feGaussianBlur870" />
    </filter>
    <filter
       inkscape:collect="always"
       style="color-interpolation-filters:sRGB"
       id="filter5110"
       x="-0.032834032"
       y="-0.086403754"
       width="1.0656681"
       height="1.1728075">
      <feGaussianBlur
         inkscape:collect="always"
         stdDeviation="1.3680723"
         id="feGaussianBlur5112" />
    </filter>
    <filter
       inkscape:collect="always"
       style="color-interpolation-filters:sRGB"
       id="filter5114"
       x="-0.032834027"
       y="-0.086403744"
       width="1.0656681"
       height="1.1728075">
      <feGaussianBlur
         inkscape:collect="always"
         stdDeviation="1.3680722"
         id="feGaussianBlur5116" />
    </filter>
  </defs>
  <sodipodi:namedview
     pagecolor="#ffffff"
     bordercolor="#666666"
     borderopacity="1"
     objecttolerance="10"
     gridtolerance="10"
     guidetolerance="10"
     inkscape:pageopacity="0"
     inkscape:pageshadow="2"
     inkscape:window-width="1920"
     inkscape:window-height="1014"
     id="namedview28"
     showgrid="true"
     inkscape:zoom="1"
     inkscape:cx="88.5"
     inkscape:cy="94.5"
     inkscape:window-x="0"
     inkscape:window-y="34"
     inkscape:window-maximized="1"
     inkscape:current-layer="svg26"
     inkscape:pagecheckerboard="0"
     showguides="false" />
  <rect
     style="opacity:0.2;fill:#000000;stroke-width:4;filter:url(#filter868)"
     width="160"
     height="160"
     x="-180"
     y="-176"
     rx="8"
     ry="8"
     transform="matrix(0,-1,-1,0,0,0)"
     id="rect850" />
  <rect
     id="rect2"
     transform="matrix(0,-1,-1,0,0,0)"
     ry="8"
     rx="8"
     y="-176"
     x="-176"
     height="160"
     width="160"
     style="fill:#e4e4e4;stroke-width:4;fill-opacity:1" />
  <path
     style="opacity:0.2;fill:#ffffff;stroke-width:4"
     d="M 24 16 C 19.568 16 16 19.568 16 24 L 16 25 C 16 20.568 19.568 17 24 17 L 168 17 C 172.432 17 176 20.568 176 25 L 176 24 C 176 19.568 172.432 16 168 16 L 24 16 z "
     id="path8" />
  <path
     style="color:#000000;opacity:1;fill:#ffc500;-inkscape-stroke:none;fill-opacity:1"
     d="m 55.776438,71.628343 -7.745954,3.944325 2.378524,8.477442 78.228172,36.83195 5.91315,-1.25086 9.73438,-6.46137 -2.88394,-5.06901 -79.872298,-37.606043 z"
     id="path3550"
     sodipodi:nodetypes="ccccccccc" />
  <path
     id="path5070"
     style="color:#000000;opacity:0.15;fill:#000000;fill-opacity:1;stroke:none;stroke-width:0.862904;stroke-linecap:round;stroke-linejoin:round;-inkscape-stroke:none;filter:url(#filter5114)"
     d="M 105.04492,49.031254 A 3.5274432,3.3781011 0 0 0 104.07617,49.298832 3.5274432,3.3781011 0 0 0 102,52.376957 V 70.000004 H 54.5 c -4.69442,0 -8.5,3.80558 -8.5,8.5 0,4.69442 3.80558,8.5 8.5,8.5 h 51.02734 14.16993 22.77343 a 3.5274432,3.3781011 0 0 0 2.33594,-5.910156 L 107.86133,49.845707 a 3.5274432,3.3781011 0 0 0 -2.81641,-0.814453 z" />
  <path
     id="path3248"
     style="color:#000000;opacity:1;fill:#00c6a8;stroke:none;stroke-width:0.862904;stroke-linecap:round;stroke-linejoin:round;-inkscape-stroke:none;fill-opacity:1"
     d="M 105.04492 47.03125 A 3.5274432 3.3781011 0 0 0 104.07617 47.298828 A 3.5274432 3.3781011 0 0 0 102 50.376953 L 102 68 L 54.5 68 C 49.80558 68 46 71.80558 46 76.5 C 46 81.19442 49.80558 85 54.5 85 L 105.52734 85 L 119.69727 85 L 142.4707 85 A 3.5274432 3.3781011 0 0 0 144.80664 79.089844 L 107.86133 47.845703 A 3.5274432 3.3781011 0 0 0 105.04492 47.03125 z " />
  <path
     id="path5072"
     style="color:#000000;opacity:0.15;fill:#000000;fill-opacity:1;stroke:none;stroke-width:0.862904;stroke-linecap:round;stroke-linejoin:round;-inkscape-stroke:none;filter:url(#filter5110)"
     d="m 86.954179,146.96839 a 3.5274432,3.3781011 0 0 0 0.96875,-0.26758 3.5274432,3.3781011 0 0 0 2.07617,-3.07813 V 125.99964 H 137.4991 c 4.69442,0 8.5,-3.80558 8.5,-8.5 0,-4.69442 -3.80558,-8.5 -8.5,-8.5 H 86.471759 72.301829 49.528399 a 3.5274432,3.3781011 0 0 0 -2.33594,5.91015 l 36.94531,31.24414 a 3.5274432,3.3781011 0 0 0 2.81641,0.81446 z" />
  <path
     id="path3515"
     style="color:#000000;opacity:1;fill:#ff9100;stroke:none;stroke-width:0.862904;stroke-linecap:round;stroke-linejoin:round;-inkscape-stroke:none;fill-opacity:1"
     d="m 86.954179,144.96839 a 3.5274432,3.3781011 0 0 0 0.96875,-0.26758 3.5274432,3.3781011 0 0 0 2.07617,-3.07813 V 123.99964 H 137.4991 c 4.69442,0 8.5,-3.80558 8.5,-8.5 0,-4.69442 -3.80558,-8.5 -8.5,-8.5 H 86.471759 72.301829 49.528399 a 3.5274432,3.3781011 0 0 0 -2.33594,5.91015 l 36.94531,31.24414 a 3.5274432,3.3781011 0 0 0 2.81641,0.81446 z" />
</svg>
