<?xml version="1.0" encoding="UTF-8" standalone="no"?>
<svg
   width="192"
   height="192"
   version="1"
   id="svg28"
   sodipodi:docname="apps_bima_plus.svg"
   inkscape:version="1.1.1 (1:1.1+202109281949+c3084ef5ed)"
   xmlns:inkscape="http://www.inkscape.org/namespaces/inkscape"
   xmlns:sodipodi="http://sodipodi.sourceforge.net/DTD/sodipodi-0.dtd"
   xmlns="http://www.w3.org/2000/svg"
   xmlns:svg="http://www.w3.org/2000/svg"
   xmlns:rdf="http://www.w3.org/1999/02/22-rdf-syntax-ns#"
   xmlns:cc="http://creativecommons.org/ns#"
   xmlns:dc="http://purl.org/dc/elements/1.1/">
  <metadata
     id="metadata34">
    <rdf:RDF>
      <cc:Work
         rdf:about="">
        <dc:format>image/svg+xml</dc:format>
        <dc:type
           rdf:resource="http://purl.org/dc/dcmitype/StillImage" />
      </cc:Work>
    </rdf:RDF>
  </metadata>
  <defs
     id="defs32">
    <filter
       inkscape:collect="always"
       style="color-interpolation-filters:sRGB"
       id="filter10417"
       x="-0.045951222"
       y="-0.050240002"
       width="1.0919024"
       height="1.10048">
      <feGaussianBlur
         inkscape:collect="always"
         stdDeviation="3.14"
         id="feGaussianBlur10419" />
    </filter>
    <filter
       inkscape:collect="always"
       style="color-interpolation-filters:sRGB"
       id="filter10459"
       x="-0.071082017"
       y="-0.079375087"
       width="1.142164"
       height="1.1587502">
      <feGaussianBlur
         inkscape:collect="always"
         stdDeviation="3.9687696"
         id="feGaussianBlur10461" />
    </filter>
  </defs>
  <sodipodi:namedview
     pagecolor="#ffffff"
     bordercolor="#666666"
     borderopacity="1"
     objecttolerance="10"
     gridtolerance="10"
     guidetolerance="10"
     inkscape:pageopacity="0"
     inkscape:pageshadow="2"
     inkscape:window-width="1920"
     inkscape:window-height="1016"
     id="namedview30"
     showgrid="false"
     inkscape:zoom="1"
     inkscape:cx="71.5"
     inkscape:cy="92.5"
     inkscape:window-x="0"
     inkscape:window-y="32"
     inkscape:window-maximized="1"
     inkscape:current-layer="svg28"
     inkscape:pagecheckerboard="0"
     inkscape:snap-global="true"
     showguides="false"
     inkscape:snap-bbox="true"
     inkscape:snap-bbox-midpoints="true">
    <inkscape:grid
       type="xygrid"
       id="grid841" />
  </sodipodi:namedview>
  <path
     id="path10379"
     style="color:#000000;opacity:0.2;fill:#000000;fill-opacity:1;stroke-width:1.00168;stroke-linecap:round;stroke-linejoin:round;-inkscape-stroke:none;filter:url(#filter10417)"
     d="m 67.791934,25.004774 c -11.916171,-0.186932 -18.518822,5.092034 -21.29965,19.939287 -0.907843,4.850586 -2.109733,11.439773 -3.39755,18.652185 -1.822153,10.204954 -2.650159,14.807311 -3.458116,19.318263 -3.42606,1.201534 -6.713538,2.55117 -9.905451,4.094431 -2.52806,1.222289 -4.833148,2.578669 -7.035409,4.231564 -2.202262,1.652895 -4.399041,3.059092 -6.806824,7.581551 -1.303406,2.448155 -2.472015,6.634215 -1.570804,10.898235 0.90121,4.26402 3.515672,7.42287 5.550569,9.10374 4.069795,3.36174 6.471644,3.53084 8.739069,4.05329 2.585551,0.59576 5.257206,0.92626 8.164671,1.17739 C 41.261824,152.76059 66.183816,175 96.000001,175 c 29.816179,0 54.738179,-22.23941 59.227559,-50.94529 2.90747,-0.25113 5.57912,-0.58163 8.16467,-1.17739 2.26743,-0.52245 4.66927,-0.69155 8.73907,-4.05329 2.0349,-1.68087 4.64936,-4.83972 5.55057,-9.10374 0.90121,-4.26402 -0.26739,-8.45009 -1.5708,-10.898235 -2.40779,-4.522459 -4.60457,-5.928656 -6.80683,-7.581551 -2.20226,-1.652895 -4.50735,-3.009275 -7.0354,-4.231564 -3.19191,-1.543261 -6.4794,-2.892897 -9.90546,-4.094431 -0.80795,-4.510952 -1.63596,-9.113309 -3.45811,-19.318263 -1.28782,-7.212412 -2.48971,-13.801599 -3.39755,-18.652185 -3.70777,-19.796337 -14.2099,-22.581704 -35.04224,-18.0821 L 96.000001,28.840609 81.534525,26.861961 C 76.326439,25.73706 71.763991,25.067086 67.791934,25.004774 Z" />
  <path
     id="path2257"
     style="color:#000000;fill:#f8404d;fill-opacity:1;stroke-width:1.00168;stroke-linecap:round;stroke-linejoin:round;-inkscape-stroke:none"
     d="m 67.791934,21.004774 c -11.916171,-0.186932 -18.518822,5.092034 -21.29965,19.939287 -0.907843,4.850586 -2.109733,11.439773 -3.39755,18.652185 -1.822153,10.204954 -2.650159,14.807311 -3.458116,19.318263 -3.42606,1.201534 -6.713538,2.55117 -9.905451,4.094431 -2.52806,1.222289 -4.833148,2.578669 -7.035409,4.231564 -2.202262,1.652895 -4.399041,3.059092 -6.806824,7.581551 -1.303406,2.44815 -2.472015,6.634215 -1.570804,10.898235 0.90121,4.26402 3.515672,7.42287 5.550569,9.10374 4.069795,3.36174 6.471644,3.53084 8.739069,4.05329 2.585551,0.59576 5.257206,0.92626 8.164671,1.17739 C 41.261824,148.76059 66.183816,171 96.000001,171 c 29.816179,0 54.738179,-22.23941 59.227559,-50.94529 2.90747,-0.25113 5.57912,-0.58163 8.16467,-1.17739 2.26743,-0.52245 4.66927,-0.69155 8.73907,-4.05329 2.0349,-1.68087 4.64936,-4.83972 5.55057,-9.10374 0.90121,-4.26402 -0.26739,-8.450085 -1.5708,-10.898235 -2.40779,-4.522459 -4.60457,-5.928656 -6.80683,-7.581551 -2.20226,-1.652895 -4.50735,-3.009275 -7.0354,-4.231564 -3.19191,-1.543261 -6.4794,-2.892897 -9.90546,-4.094431 -0.80795,-4.510952 -1.63596,-9.113309 -3.45811,-19.318263 -1.28782,-7.212412 -2.48971,-13.801599 -3.39755,-18.652185 -3.70777,-19.796337 -14.2099,-22.581704 -35.04224,-18.0821 L 96.000001,24.840609 81.534525,22.861961 C 76.326439,21.73706 71.763991,21.067086 67.791934,21.004774 Z" />
  <path
     id="path10421"
     style="opacity:0.2;fill:#000000;stroke-width:1.35295;stroke-linecap:round;stroke-linejoin:round;filter:url(#filter10459)"
     d="m 129.18918,38.001952 c -0.0572,-0.0573 -7.57426,0.913666 -16.70312,2.158203 L 95.888405,42.423827 79.495827,40.169921 c -9.016423,-1.240068 -16.520378,-2.111995 -16.675782,-1.935547 -0.155408,0.176444 -2.380808,12.03117 -4.943359,26.34375 -2.562551,14.31258 -4.763428,26.577042 -4.892578,27.253906 -0.177177,0.9286 -0.586474,1.307006 -1.664063,1.542969 -2.927793,0.641104 -11.70075,3.795856 -15.052734,5.412109 -3.489892,1.682742 -6.294841,3.782372 -7.121094,5.330082 -1.043466,1.95459 3.412602,2.97875 15.623047,3.58984 11.294639,0.56526 103.918826,0.24616 109.419916,-0.37695 5.79711,-0.65664 8.5929,-1.45425 8.79493,-2.50586 0.42356,-2.20484 -7.47341,-6.767727 -16.7461,-9.677737 -2.89473,-0.908439 -5.67859,-1.814468 -6.18555,-2.013672 -0.82798,-0.325332 -1.42117,-3.1445 -5.83984,-27.695312 -2.70554,-15.032405 -4.96628,-27.378246 -5.02344,-27.435547 z M 50.999733,113 c 0,24.79357 20.206434,45 45,45 24.793567,0 44.999997,-20.20643 44.999997,-45 h -10 c 0,19.38917 -15.61083,35 -34.999997,35 -19.38917,0 -35,-15.61083 -35,-35 z m 39.804688,9.00195 c -4.925526,-0.0134 -8.851415,0.0301 -8.804688,0.20117 0,7.61997 6.268014,13.79688 14,13.79688 7.731987,0 13.999997,-6.17691 13.999997,-13.79688 0,1e-5 -10.9861,-0.17888 -19.195309,-0.20117 z" />
  <path
     id="circle1412"
     style="opacity:1;fill:#ffffff;stroke-width:1.35295;stroke-linecap:round;stroke-linejoin:round"
     d="m 129.18918,36.002182 c -0.0572,-0.0573 -7.57426,0.913666 -16.70312,2.158203 L 95.888405,40.424057 79.495827,38.170151 c -9.016423,-1.240068 -16.520378,-2.111995 -16.675782,-1.935547 -0.155408,0.176444 -2.380808,12.03117 -4.943359,26.34375 -2.562551,14.31258 -4.763428,26.577042 -4.892578,27.253906 -0.177177,0.9286 -0.586474,1.307006 -1.664063,1.542969 -2.927793,0.641104 -11.70075,3.795856 -15.052734,5.412109 -3.489892,1.682744 -6.294841,3.782372 -7.121094,5.330082 -1.043466,1.95459 3.412602,2.97875 15.623047,3.58984 11.294639,0.56526 103.918826,0.24616 109.419916,-0.37695 5.79711,-0.65664 8.5929,-1.45425 8.79493,-2.50586 0.42356,-2.20484 -7.47341,-6.767727 -16.7461,-9.677737 -2.89473,-0.908439 -5.67859,-1.814468 -6.18555,-2.013672 -0.82798,-0.325332 -1.42117,-3.1445 -5.83984,-27.695312 -2.70554,-15.032405 -4.96628,-27.378246 -5.02344,-27.435547 z M 50.999733,111.00023 c 0,24.79357 20.206434,45 45,45 24.793567,0 44.999997,-20.20643 44.999997,-45 h -10 c 0,19.38917 -15.61083,35 -34.999997,35 -19.38917,0 -35,-15.61083 -35,-35 z m 39.804688,9.00195 c -4.925526,-0.0134 -8.851415,0.0301 -8.804688,0.20117 0,7.61997 6.268014,13.79688 14,13.79688 7.731987,0 13.999997,-6.17691 13.999997,-13.79688 0,1e-5 -10.9861,-0.17888 -19.195309,-0.20117 z" />
  <path
     id="path10543"
     style="color:#000000;fill:#ffffff;fill-opacity:1;stroke-width:1.00168;stroke-linecap:round;stroke-linejoin:round;-inkscape-stroke:none;opacity:0.2"
     d="M 67.791016 21.003906 C 55.874845 20.816974 49.273015 26.096106 46.492188 40.943359 C 45.584345 45.793945 44.38352 52.383291 43.095703 59.595703 C 41.27355 69.800657 40.444676 74.40311 39.636719 78.914062 C 36.210659 80.115596 32.922382 81.466505 29.730469 83.009766 C 27.202409 84.232055 24.897574 85.587339 22.695312 87.240234 C 20.49305 88.893129 18.296455 90.299807 15.888672 94.822266 C 14.857694 96.758723 13.928116 99.78652 14.023438 103.07617 C 14.120393 100.17995 14.963257 97.560446 15.888672 95.822266 C 18.296455 91.299807 20.49305 89.893129 22.695312 88.240234 C 24.897574 86.587339 27.202409 85.232055 29.730469 84.009766 C 32.922382 82.466505 36.210659 81.115596 39.636719 79.914062 C 40.444676 75.40311 41.27355 70.800657 43.095703 60.595703 C 44.38352 53.383291 45.584345 46.793945 46.492188 41.943359 C 49.273015 27.096106 55.874845 21.816974 67.791016 22.003906 C 71.763073 22.066218 76.32707 22.736427 81.535156 23.861328 L 96 25.839844 L 110.46484 23.861328 C 131.29718 19.361724 141.80004 22.147022 145.50781 41.943359 C 146.41565 46.793945 147.61648 53.383291 148.9043 60.595703 C 150.72645 70.800657 151.55533 75.40311 152.36328 79.914062 C 155.78934 81.115597 159.07762 82.466505 162.26953 84.009766 C 164.79758 85.232055 167.10243 86.587339 169.30469 88.240234 C 171.50695 89.893129 173.70354 91.299807 176.11133 95.822266 C 177.03675 97.560446 177.87961 100.17995 177.97656 103.07617 C 178.07189 99.78652 177.14231 96.758723 176.11133 94.822266 C 173.70354 90.299807 171.50695 88.893129 169.30469 87.240234 C 167.10243 85.587339 164.79758 84.232055 162.26953 83.009766 C 159.07762 81.466505 155.78934 80.115597 152.36328 78.914062 C 151.55533 74.40311 150.72645 69.800657 148.9043 59.595703 C 147.61648 52.383291 146.41565 45.793945 145.50781 40.943359 C 141.80004 21.147022 131.29718 18.361724 110.46484 22.861328 L 96 24.839844 L 81.535156 22.861328 C 76.32707 21.736427 71.763073 21.066218 67.791016 21.003906 z " />
</svg>
