<?xml version="1.0" encoding="UTF-8" standalone="no"?>
<svg
   width="192"
   height="192"
   version="1"
   id="svg28"
   sodipodi:docname="apps_password_store.svg"
   inkscape:version="1.1.1 (1:1.1+202109281949+c3084ef5ed)"
   xmlns:inkscape="http://www.inkscape.org/namespaces/inkscape"
   xmlns:sodipodi="http://sodipodi.sourceforge.net/DTD/sodipodi-0.dtd"
   xmlns="http://www.w3.org/2000/svg"
   xmlns:svg="http://www.w3.org/2000/svg"
   xmlns:rdf="http://www.w3.org/1999/02/22-rdf-syntax-ns#"
   xmlns:cc="http://creativecommons.org/ns#"
   xmlns:dc="http://purl.org/dc/elements/1.1/">
  <metadata
     id="metadata34">
    <rdf:RDF>
      <cc:Work
         rdf:about="">
        <dc:format>image/svg+xml</dc:format>
        <dc:type
           rdf:resource="http://purl.org/dc/dcmitype/StillImage" />
      </cc:Work>
    </rdf:RDF>
  </metadata>
  <defs
     id="defs32">
    <filter
       inkscape:collect="always"
       style="color-interpolation-filters:sRGB"
       id="filter5831"
       x="-0.065757044"
       y="-0.087266355"
       width="1.1315141"
       height="1.1745327">
      <feGaussianBlur
         inkscape:collect="always"
         stdDeviation="3.890625"
         id="feGaussianBlur5833" />
    </filter>
    <filter
       inkscape:collect="always"
       style="color-interpolation-filters:sRGB"
       id="filter5874"
       x="-0.083035714"
       y="-0.068382353"
       width="1.1660714"
       height="1.1367647">
      <feGaussianBlur
         inkscape:collect="always"
         stdDeviation="2.421875"
         id="feGaussianBlur5876" />
    </filter>
    <filter
       inkscape:collect="always"
       style="color-interpolation-filters:sRGB"
       id="filter5919"
       x="-0.10498047"
       y="-0.058339361"
       width="1.2099609"
       height="1.1166787">
      <feGaussianBlur
         inkscape:collect="always"
         stdDeviation="3.4118653"
         id="feGaussianBlur5921" />
    </filter>
  </defs>
  <sodipodi:namedview
     pagecolor="#ffffff"
     bordercolor="#666666"
     borderopacity="1"
     objecttolerance="10"
     gridtolerance="10"
     guidetolerance="10"
     inkscape:pageopacity="0"
     inkscape:pageshadow="2"
     inkscape:window-width="1920"
     inkscape:window-height="1022"
     id="namedview30"
     showgrid="true"
     inkscape:zoom="0.87"
     inkscape:cx="89.655172"
     inkscape:cy="100"
     inkscape:window-x="0"
     inkscape:window-y="34"
     inkscape:window-maximized="1"
     inkscape:current-layer="svg28"
     inkscape:pagecheckerboard="0"
     inkscape:snap-bbox="true"
     inkscape:snap-bbox-midpoints="true">
    <inkscape:grid
       type="xygrid"
       id="grid841" />
  </sodipodi:namedview>
  <path
     id="path5793"
     style="opacity:0.2;fill:#000000;fill-opacity:1;stroke-width:12.3001;stroke-linecap:round;stroke-linejoin:round;filter:url(#filter5831)"
     d="m 43.318464,73 c -5.383935,0 -20.695387,0.92134 -18.003846,23.753906 l 4.468559,58.947264 C 31.387639,176.86386 41.062884,180 51.838833,180 h 44.161162 44.161165 c 10.77595,0 20.45119,-3.13614 22.05566,-24.29883 l 4.46856,-58.947264 C 169.37692,73.92134 154.06546,73 148.68153,73 H 95.999995 Z" />
  <path
     id="rect1168"
     style="opacity:1;stroke-width:12.3001;stroke-linecap:round;stroke-linejoin:round;fill:#14c8b3;fill-opacity:1"
     d="m 43.318464,69 c -5.383935,0 -20.695387,0.92134 -18.003846,23.753906 l 4.468559,58.947264 C 31.387639,172.86386 41.062884,176 51.838833,176 h 44.161162 44.161165 c 10.77595,0 20.45119,-3.13614 22.05566,-24.29883 l 4.46856,-58.947264 C 169.37692,69.92134 154.06546,69 148.68153,69 H 95.999995 Z" />
  <path
     id="path5878"
     style="color:#000000;opacity:0.2;fill:#000000;fill-opacity:1;stroke-linecap:round;stroke-linejoin:round;-inkscape-stroke:none;filter:url(#filter5919)"
     d="m 96,18.99962 c -21.456171,0 -39,17.543829 -39,39 v 13 h 14 v -13 c 0,-13.890017 11.109983,-25 25,-25 13.89002,0 25,11.109983 25,25 V 97.995714 L 83.179688,133.9254 92.820312,144.07384 121,117.30235 V 159.359 h 14 V 57.99962 c 0,-21.456171 -17.54383,-39 -39,-39 z" />
  <path
     id="path2176"
     style="color:#000000;fill:#72e7ff;stroke-linecap:round;stroke-linejoin:round;-inkscape-stroke:none;opacity:1;fill-opacity:1"
     d="M 96 17 C 74.543829 17 57 34.543829 57 56 L 57 69 L 71 69 L 71 56 C 71 42.109983 82.109983 31 96 31 C 109.89002 31 121 42.109983 121 56 L 121 157.35938 L 135 157.35938 L 135 56 C 135 34.543829 117.45617 17 96 17 z " />
  <path
     style="color:#000000;fill:#72e7ff;-inkscape-stroke:none;opacity:1;fill-opacity:1"
     d="m 123.17969,93.925781 -40.000003,37.999999 9.640625,10.14844 39.999998,-38 z"
     id="path2950" />
  <path
     id="path5836"
     style="opacity:0.2;fill:#000000;fill-opacity:1;stroke:none;stroke-width:13.2076;stroke-linecap:round;stroke-linejoin:round;stroke-miterlimit:4;stroke-dasharray:none;stroke-opacity:1;filter:url(#filter5874)"
     d="m 128,86 a 15,15 0 0 0 -15,15 15,15 0 0 0 15,15 15,15 0 0 0 15,-15 15,15 0 0 0 -15,-15 z m -40,38 a 15,15 0 0 0 -15,15 15,15 0 0 0 15,15 15,15 0 0 0 15,-15 15,15 0 0 0 -15,-15 z m 40,17 a 15,15 0 0 0 -15,15 15,15 0 0 0 15,15 15,15 0 0 0 15,-15 15,15 0 0 0 -15,-15 z" />
  <path
     id="path2594"
     style="opacity:1;fill:#ffffff;fill-opacity:1;stroke:none;stroke-width:13.2076;stroke-linecap:round;stroke-linejoin:round;stroke-miterlimit:4;stroke-dasharray:none;stroke-opacity:1"
     d="M 128 84 A 15 15 0 0 0 113 99 A 15 15 0 0 0 128 114 A 15 15 0 0 0 143 99 A 15 15 0 0 0 128 84 z M 88 122 A 15 15 0 0 0 73 137 A 15 15 0 0 0 88 152 A 15 15 0 0 0 103 137 A 15 15 0 0 0 88 122 z M 128 139 A 15 15 0 0 0 113 154 A 15 15 0 0 0 128 169 A 15 15 0 0 0 143 154 A 15 15 0 0 0 128 139 z " />
  <rect
     style="opacity:1;fill:#14c8b3;fill-opacity:1;stroke:none;stroke-width:14;stroke-linecap:round;stroke-linejoin:round;stroke-miterlimit:4;stroke-dasharray:none;stroke-opacity:1"
     id="rect5945"
     width="50"
     height="19"
     x="44"
     y="69" />
  <path
     id="path6117"
     style="color:#000000;fill:#ffffff;stroke-linecap:round;stroke-linejoin:round;-inkscape-stroke:none;opacity:0.2;fill-opacity:1"
     d="M 96 17 C 74.543829 17 57 34.543829 57 56 L 57 57 C 57 35.543829 74.543829 18 96 18 C 117.45617 18 135 35.543829 135 57 L 135 56 C 135 34.543829 117.45617 17 96 17 z " />
</svg>
