<?xml version="1.0" encoding="UTF-8" standalone="no"?>
<svg
   xmlns:dc="http://purl.org/dc/elements/1.1/"
   xmlns:cc="http://creativecommons.org/ns#"
   xmlns:rdf="http://www.w3.org/1999/02/22-rdf-syntax-ns#"
   xmlns:svg="http://www.w3.org/2000/svg"
   xmlns="http://www.w3.org/2000/svg"
   xmlns:sodipodi="http://sodipodi.sourceforge.net/DTD/sodipodi-0.dtd"
   xmlns:inkscape="http://www.inkscape.org/namespaces/inkscape"
   width="48"
   height="48"
   version="1"
   id="svg16"
   sodipodi:docname="apps_bitmask.svg"
   inkscape:version="0.92.2 (unknown)">
  <metadata
     id="metadata22">
    <rdf:RDF>
      <cc:Work
         rdf:about="">
        <dc:format>image/svg+xml</dc:format>
        <dc:type
           rdf:resource="http://purl.org/dc/dcmitype/StillImage" />
        <dc:title></dc:title>
      </cc:Work>
    </rdf:RDF>
  </metadata>
  <defs
     id="defs20" />
  <sodipodi:namedview
     pagecolor="#ffffff"
     bordercolor="#666666"
     borderopacity="1"
     objecttolerance="10"
     gridtolerance="10"
     guidetolerance="10"
     inkscape:pageopacity="0"
     inkscape:pageshadow="2"
     inkscape:window-width="1920"
     inkscape:window-height="1016"
     id="namedview18"
     showgrid="true"
     inkscape:zoom="12.120099"
     inkscape:cx="9.5402873"
     inkscape:cy="23.75955"
     inkscape:window-x="0"
     inkscape:window-y="34"
     inkscape:window-maximized="1"
     inkscape:current-layer="svg16"
     showguides="false">
    <inkscape:grid
       type="xygrid"
       id="grid832" />
  </sodipodi:namedview>
  <path
     d="m 6,44.5 c -1.108,0 -2,-0.892 -2,-2 v -1 c 0,1.108 0.892,2 2,2 h 36 c 1.108,0 2,-0.892 2,-2 v 1 c 0,1.108 -0.892,2 -2,2 z"
     style="opacity:0.2"
     id="path8"
     inkscape:connector-curvature="0" />
  <path
     style="opacity:1;fill:#53e1e0;fill-opacity:1"
     d="m 42,44 c 0.554,0 1.054516,-0.222484 1.416016,-0.583984 L 24,24 v 20 z"
     id="path864"
     inkscape:connector-curvature="0"
     sodipodi:nodetypes="scccs" />
  <path
     style="opacity:1;fill:#dd4d3e;fill-opacity:1"
     d="M 6,4 C 5.446,4 4.9454844,4.2224844 4.5839844,4.5839844 L 24,24 V 4 Z"
     id="rect829"
     inkscape:connector-curvature="0"
     sodipodi:nodetypes="scccs" />
  <path
     sodipodi:nodetypes="scccs"
     inkscape:connector-curvature="0"
     id="path852"
     d="m 42,4 c 0.554,0 1.054516,0.2224844 1.416016,0.5839844 L 24,24 V 4 Z"
     style="opacity:1;fill:#ea5bf5;fill-opacity:1" />
  <path
     inkscape:connector-curvature="0"
     style="opacity:0.2;fill:#ffffff"
     d="M 6,4 C 4.892,4 4,4.892 4,6 v 0.5 c 0,-1.108 0.892,-2 2,-2 h 36 c 1.108,0 2,0.892 2,2 V 6 C 44,4.892 43.108,4 42,4 Z"
     id="path6" />
  <path
     inkscape:connector-curvature="0"
     style="opacity:1;fill:#ff9028;fill-opacity:1;stroke:none;stroke-width:2;stroke-linecap:round;stroke-linejoin:round;stroke-miterlimit:4;stroke-dasharray:none;stroke-opacity:1"
     d="M 4.5839844,4.5839844 C 4.2224844,4.9454844 4,5.446 4,6 V 23.800781 L 4.1992188,24 H 24 Z"
     id="rect840" />
  <path
     inkscape:connector-curvature="0"
     id="path854"
     d="M 43.416016,4.5839844 C 43.777516,4.9454844 44,5.446 44,6 V 23.800781 L 43.800781,24 H 24 Z"
     style="opacity:1;fill:#963edd;fill-opacity:1;stroke:none;stroke-width:2;stroke-linecap:round;stroke-linejoin:round;stroke-miterlimit:4;stroke-dasharray:none;stroke-opacity:1" />
  <path
     sodipodi:nodetypes="scccs"
     inkscape:connector-curvature="0"
     id="path858"
     d="M 6,44 C 5.446,44 4.9454844,43.777516 4.5839844,43.416016 L 24,24 v 20 z"
     style="opacity:1;fill:#6da933;fill-opacity:1" />
  <path
     inkscape:connector-curvature="0"
     id="path860"
     d="M 4.5839844,43.416016 C 4.2224844,43.054516 4,42.554 4,42 V 24.199219 L 4.1992188,24 H 24 Z"
     style="opacity:1;fill:#ffe950;fill-opacity:1;stroke:none;stroke-width:2;stroke-linecap:round;stroke-linejoin:round;stroke-miterlimit:4;stroke-dasharray:none;stroke-opacity:1" />
  <path
     style="opacity:1;fill:#539ae1;fill-opacity:1;stroke:none;stroke-width:2;stroke-linecap:round;stroke-linejoin:round;stroke-miterlimit:4;stroke-dasharray:none;stroke-opacity:1"
     d="M 43.416016,43.416016 C 43.777516,43.054516 44,42.554 44,42 V 24.199219 L 43.800781,24 H 24 Z"
     id="path866"
     inkscape:connector-curvature="0" />
  <path
     sodipodi:nodetypes="ccccccsccccccccssscccc"
     inkscape:connector-curvature="0"
     id="path901"
     d="m 13.27792,16.505433 c -0.397059,0.0069 -0.788307,0.06713 -1.167907,0.179817 -3.1445417,0.934352 -4.8469796,5.19504 -3.8025303,9.516587 0.8160405,3.368949 3.1095763,5.891814 5.6930543,6.262301 0,0 0.654499,0.04736 0.939403,0.03323 0.06054,0.01957 1.623229,-0.105663 2.425651,-0.424133 2.215895,-0.87943 4.460013,-2.558476 6.63441,-2.558476 2.174396,0 4.418515,1.679046 6.63441,2.558476 0.802422,0.31847 2.365107,0.443709 2.425651,0.424131 0.284903,0.01413 0.939402,-0.03323 0.939402,-0.03323 2.583479,-0.370487 4.877012,-2.893352 5.693054,-6.262301 1.044449,-4.321547 -0.657988,-8.582235 -3.80253,-9.516587 -0.3796,-0.112689 -0.770848,-0.172912 -1.167907,-0.179817 -0.671636,-0.03713 -1.124813,0.122111 -1.689362,0.295133 -0.06268,0.02281 -0.125183,0.04692 -0.18749,0.07232 -0.332456,0.130193 -0.697437,0.286371 -1.10541,0.51404 -2.106993,1.175801 -5.218982,3.121379 -7.739818,3.121379 -2.520837,0 -5.632826,-1.945578 -7.739819,-3.121379 -0.407973,-0.227669 -0.772954,-0.383847 -1.10541,-0.51404 -0.06231,-0.0254 -0.124816,-0.0495 -0.18749,-0.07232 -0.627913,-0.307782 -1.093614,-0.251625 -1.689362,-0.295133 z"
     style="opacity:0.1;fill:#000000;fill-opacity:1;stroke:none;stroke-width:0.83997476;stroke-linecap:round;stroke-linejoin:round;stroke-miterlimit:4;stroke-dasharray:none;stroke-opacity:1" />
  <path
     style="opacity:1;fill:#454545;fill-opacity:1;stroke:none;stroke-width:0.83997476;stroke-linecap:round;stroke-linejoin:round;stroke-miterlimit:4;stroke-dasharray:none;stroke-opacity:1"
     d="m 13.27792,16.005432 c -0.397059,0.0069 -0.788307,0.06713 -1.167907,0.179817 -3.1445417,0.934352 -4.8469796,5.19504 -3.8025303,9.516587 0.8160405,3.368949 3.1095763,5.891814 5.6930543,6.262301 0,0 0.654499,0.04736 0.939403,0.03323 0.06054,0.01957 1.623229,-0.105663 2.425651,-0.424133 2.215895,-0.87943 4.460013,-2.558476 6.63441,-2.558476 2.174396,0 4.418515,1.679046 6.63441,2.558476 0.802422,0.31847 2.365107,0.443709 2.425651,0.424131 0.284903,0.01413 0.939402,-0.03323 0.939402,-0.03323 2.583479,-0.370487 4.877012,-2.893352 5.693054,-6.262301 1.044449,-4.321547 -0.657988,-8.582235 -3.80253,-9.516587 -0.3796,-0.112689 -0.770848,-0.172912 -1.167907,-0.179817 -0.671636,-0.03713 -1.124813,0.122111 -1.689362,0.295133 -0.06268,0.02281 -0.125183,0.04692 -0.18749,0.07232 -0.332456,0.130193 -0.697437,0.286371 -1.10541,0.51404 -2.106993,1.175801 -5.218982,3.121379 -7.739818,3.121379 -2.520837,0 -5.632826,-1.945578 -7.739819,-3.121379 -0.407973,-0.227669 -0.772954,-0.383847 -1.10541,-0.51404 -0.06231,-0.0254 -0.124816,-0.0495 -0.18749,-0.07232 -0.627913,-0.307782 -1.093614,-0.251625 -1.689362,-0.295133 z"
     id="path878"
     inkscape:connector-curvature="0"
     sodipodi:nodetypes="ccccccsccccccccssscccc" />
  <path
     id="path899"
     d="M 14.351562,22.507812 C 12.909273,22.541822 12,23.710938 12,23.710938 c 0,1.270047 1.849974,2.779296 4.072266,2.779296 C 18.294558,26.490234 20,25.500349 20,25.410156 19.88071,23.384905 16.345694,22.372235 14.351562,22.507812 Z m 19.296876,0 C 31.654306,22.372235 28.11929,23.384905 28,25.410156 c 0,0.09019 1.705442,1.080078 3.927734,1.080078 2.222292,0 4.072266,-1.509249 4.072266,-2.779296 0,0 -0.909273,-1.169116 -2.351562,-1.203126 z"
     style="opacity:0.2;fill:#000000;fill-opacity:1;stroke:none;stroke-width:1.92387831;stroke-linecap:round;stroke-linejoin:round;stroke-miterlimit:4;stroke-dasharray:none;stroke-opacity:1"
     inkscape:connector-curvature="0" />
  <path
     style="opacity:1;fill:#ffffff;fill-opacity:1;stroke:none;stroke-width:1.92387831;stroke-linecap:round;stroke-linejoin:round;stroke-miterlimit:4;stroke-dasharray:none;stroke-opacity:1"
     d="M 14.351562,22.007812 C 12.909273,22.041822 12,23.210938 12,23.210938 c 0,1.270047 1.849974,2.779296 4.072266,2.779296 C 18.294558,25.990234 20,25.000349 20,24.910156 19.88071,22.884905 16.345694,21.872235 14.351562,22.007812 Z m 19.296876,0 C 31.654306,21.872235 28.11929,22.884905 28,24.910156 c 0,0.09019 1.705442,1.080078 3.927734,1.080078 2.222292,0 4.072266,-1.509249 4.072266,-2.779296 0,0 -0.909273,-1.169116 -2.351562,-1.203126 z"
     id="path888"
     inkscape:connector-curvature="0" />
</svg>
