<?xml version="1.0" encoding="UTF-8" standalone="no"?>
<svg
   width="192"
   height="192"
   version="1"
   id="svg30"
   sodipodi:docname="apps_audacity.svg"
   inkscape:version="1.1-rc (1:1.1+rc+202105232036+f4db50c7c1)"
   xmlns:inkscape="http://www.inkscape.org/namespaces/inkscape"
   xmlns:sodipodi="http://sodipodi.sourceforge.net/DTD/sodipodi-0.dtd"
   xmlns="http://www.w3.org/2000/svg"
   xmlns:svg="http://www.w3.org/2000/svg">
  <defs
     id="defs34">
    <filter
       inkscape:collect="always"
       style="color-interpolation-filters:sRGB"
       id="filter898"
       x="-0.044181909"
       y="-0.052540413"
       width="1.0883638"
       height="1.1050808">
      <feGaussianBlur
         inkscape:collect="always"
         stdDeviation="3.2400067"
         id="feGaussianBlur900" />
    </filter>
  </defs>
  <sodipodi:namedview
     id="namedview32"
     pagecolor="#ffffff"
     bordercolor="#666666"
     borderopacity="1.0"
     inkscape:pageshadow="2"
     inkscape:pageopacity="0.0"
     inkscape:pagecheckerboard="0"
     showgrid="false"
     inkscape:zoom="3.52"
     inkscape:cx="89.0625"
     inkscape:cy="114.0625"
     inkscape:window-width="1920"
     inkscape:window-height="1019"
     inkscape:window-x="0"
     inkscape:window-y="34"
     inkscape:window-maximized="1"
     inkscape:current-layer="svg30" />
  <path
     id="path2"
     style="opacity:0.2;stroke-width:4;filter:url(#filter898)"
     d="M 96 26 A 64 64 0 0 0 32 90 L 32 98.742188 C 18.302186 102.10679 8 116.61014 8 134 C 8 153.88224 21.466336 170 38.078125 170 L 44.65625 170 C 44.656254 170 48 170 48 166 L 48 164 C 48 167.324 50.676 170 54 170 L 58 170 C 61.324 170 64 167.324 64 164 L 64 153.1543 C 66.540549 153.92022 69.312164 153.77017 71.851562 152.89844 L 72.046875 155.07031 C 72.577299 161.03156 77.975888 165.57414 83.070312 165.96875 C 86.220624 166.21275 89.328865 164.53874 91.890625 162.13281 L 92.117188 163.69531 C 92.9727 169.66897 98.716335 173.93901 103.85938 174 C 109.00446 174.061 114.84246 169.92426 115.83594 163.96875 L 116.375 160.74805 C 120.31837 162.01902 124.78507 161.63128 128 158.88867 L 128 164 C 128 167.324 130.676 170 134 170 L 138 170 C 141.324 170 144 167.324 144 164 L 144 166 C 144 170 147.34375 170 147.34375 170 L 153.92188 170 C 170.53366 170 184 153.88224 184 134 C 184 116.61014 173.69781 102.10679 160 98.742188 L 160 90 A 64 64 0 0 0 96 26 z M 96 42 A 48 48 0 0 1 144 90 L 144 102 L 144 104 C 144 100.676 141.324 98 138 98 L 134 98 C 130.676 98 128 100.676 128 104 L 128 122.69922 C 127.45322 122.91254 126.91183 123.15054 126.39062 123.43555 L 123.71875 111.39648 C 122.4451 105.6593 116.71422 101.8628 111.67969 101.99805 C 110.24431 102.03645 108.92059 103.01644 107.52344 103.64648 C 106.39429 98.298512 101.8736 94.159747 96.351562 93.998047 C 91.876266 93.865607 88.282371 96.680421 86.117188 100.43555 C 84.651768 99.481533 83.228111 98.334558 81.609375 98.115234 C 76.718619 97.452586 70.796101 100.41036 68.773438 105.77148 A 8.0008 8.0008 0 0 0 68.765625 105.78125 L 64 118.49414 L 64 104 C 64 100.676 61.324 98 58 98 L 54 98 C 50.676 98 48 100.676 48 104 L 48 102 L 48 90 A 48 48 0 0 1 96 42 z " />
  <path
     style="fill:#ffc107;stroke-width:4"
     d="m 96.351564,89.999998 c -4.475296,-0.13244 -8.069192,2.682376 -10.234376,6.4375 -1.46542,-0.954012 -2.889076,-2.100988 -4.507812,-2.320312 -4.890756,-0.662648 -10.813276,2.295128 -12.83594,7.656244 a 8.0008,8.0008 0 0 0 -0.008,0.008 l -6.25,16.67188 c -1.04692,-0.25416 -2.098276,-0.62265 -3.125,-0.57031 -3.254076,0.16588 -5.955272,1.58809 -7.9375,3.57031 -1.982224,1.98223 -3.404444,4.68342 -3.570312,7.9375 -0.16588,3.25408 1.316128,6.87418 3.75,9.21094 l 7.882812,7.88281 a 8.0008,8.0008 0 0 0 0.008,0.008 c 3.362164,3.35653 8.161068,3.83673 12.328128,2.40625 l 0.19532,2.17188 c 0.530424,5.96125 5.929012,10.50383 11.023436,10.89844 3.150312,0.244 6.258552,-1.43001 8.820312,-3.83594 l 0.22656,1.5625 c 0.855512,5.97366 6.599148,10.24369 11.742188,10.30468 5.14508,0.061 10.98308,-4.07573 11.97656,-10.03124 L 116.375,156.75 c 4.64934,1.49851 10.03462,0.70387 13.22656,-3.55469 l 0.008,-0.008 11.99219,-15.99219 a 8.0008,8.0008 0 0 0 0.008,0 c 1.99823,-2.66864 2.86895,-6.40104 2.22656,-9.54687 -0.64239,-3.14584 -2.41679,-5.59265 -4.64062,-7.25782 -2.22384,-1.66516 -5.06617,-2.6832 -8.26563,-2.41406 -1.5391,0.12948 -3.10105,0.6746 -4.53906,1.46094 l -2.67225,-12.03888 c -1.27365,-5.73718 -7.00453,-9.533676 -12.03906,-9.398432 -1.43538,0.03856 -2.7591,1.018396 -4.15625,1.648436 -1.12915,-5.347976 -5.64984,-9.486736 -11.171876,-9.648436 z m 32.445316,37.601562 h 0.008 l -0.008,0.0156 c 0.002,-0.003 -0.002,-0.0132 0,-0.0156 z"
     id="path10" />
  <path
     style="fill:#3f51b5;stroke-width:4"
     d="M 38.078324,93.999998 C 21.466535,93.999998 8,110.11776 8,130 c 0,19.88224 13.466535,36 30.078324,36 h 6.579636 v 0 c 0,0 3.34204,0 3.34204,-4 V 97.999994 c 0,-3.499996 -3.2376,-3.999996 -3.2376,-3.999996 z"
     id="path12" />
  <path
     style="fill:#3f51b5;stroke-width:4"
     d="M 153.92168,93.999998 C 170.53346,93.999998 184,110.11776 184,130 c 0,19.88224 -13.46654,36 -30.07832,36 h -6.57964 v 0 c 0,0 -3.34204,0 -3.34204,-4 V 97.999994 c 0,-3.499996 3.2376,-3.999996 3.2376,-3.999996 z"
     id="path14" />
  <path
     style="fill:none;stroke:#f8382a;stroke-width:8;stroke-linecap:round;stroke-linejoin:round"
     d="m 60,130 8,8 12,-32 4,44 12,-48 8,56 8,-48 8,36 12,-16"
     id="path16" />
  <path
     id="path18"
     style="opacity:0.2;fill:#ffffff;stroke-width:4"
     d="M 96.351562 90 C 91.876266 89.86756 88.282371 92.682376 86.117188 96.4375 C 84.651768 95.483488 83.228111 94.336511 81.609375 94.117188 C 76.718619 93.454539 70.796101 96.412322 68.773438 101.77344 A 8.0008 8.0008 0 0 0 68.765625 101.78125 L 62.515625 118.45312 C 61.468705 118.19897 60.417349 117.83047 59.390625 117.88281 C 56.136549 118.04869 53.435353 119.4709 51.453125 121.45312 C 49.470901 123.43536 48.04868 126.13655 47.882812 129.39062 C 47.868774 129.66615 47.887442 129.94697 47.898438 130.22656 C 48.103674 127.04709 49.50495 124.40131 51.453125 122.45312 C 53.435353 120.4709 56.136549 119.04869 59.390625 118.88281 C 60.417349 118.83047 61.468705 119.19897 62.515625 119.45312 L 68.765625 102.78125 A 8.0008 8.0008 0 0 1 68.773438 102.77344 C 70.796101 97.412322 76.718619 94.454539 81.609375 95.117188 C 83.228111 95.336511 84.651768 96.483488 86.117188 97.4375 C 88.282371 93.682376 91.876266 90.86756 96.351562 91 C 101.8736 91.1617 106.39429 95.300466 107.52344 100.64844 C 108.92059 100.0184 110.24431 99.03856 111.67969 99 C 116.71422 98.864756 122.4451 102.66126 123.71875 108.39844 L 126.39062 120.4375 C 127.82864 119.65115 129.39058 119.10604 130.92969 118.97656 C 134.12914 118.70742 136.97148 119.72546 139.19531 121.39062 C 141.41915 123.0558 143.19355 125.50261 143.83594 128.64844 C 143.9286 129.10219 143.96944 129.56992 143.99023 130.04297 C 144.02665 129.22632 143.99334 128.41923 143.83594 127.64844 C 143.19355 124.50261 141.41915 122.0558 139.19531 120.39062 C 136.97148 118.72546 134.12914 117.70742 130.92969 117.97656 C 129.39058 118.10604 127.82864 118.65115 126.39062 119.4375 L 123.71875 107.39844 C 122.4451 101.66126 116.71422 97.864756 111.67969 98 C 110.24431 98.03856 108.92059 99.018397 107.52344 99.648438 C 106.39429 94.300461 101.8736 90.1617 96.351562 90 z M 128.79688 131.60156 C 128.79487 131.60356 128.79888 131.61479 128.79688 131.61719 L 128.80469 131.60156 L 128.79688 131.60156 z " />
  <rect
     style="fill:#2196f3;stroke-width:4"
     width="16"
     height="72"
     x="48"
     y="94"
     rx="6"
     ry="6"
     id="rect20" />
  <rect
     style="fill:#2196f3;stroke-width:4"
     width="16"
     height="72"
     x="128"
     y="94"
     rx="6"
     ry="6"
     id="rect22" />
  <path
     style="fill:#3f51b5;stroke-width:4"
     d="m 96,21.999998 a 64,64 0 0 0 -64,64 V 130 H 48 V 85.999998 a 48,48 0 0 1 48,-48 48,48 0 0 1 48,48 V 130 h 16 V 85.999998 a 64,64 0 0 0 -64,-64 z"
     id="path24" />
  <path
     id="path26"
     style="opacity:0.1;fill:#ffffff;stroke-width:4"
     d="M 96 22 A 64 64 0 0 0 32 86 L 32 87 A 64 64 0 0 1 96 23 A 64 64 0 0 1 160 87 L 160 86 A 64 64 0 0 0 96 22 z M 32 94.742188 C 18.302186 98.106787 8 112.61014 8 130 C 8 130.15697 8.0141666 130.30955 8.0195312 130.46484 C 8.2302945 113.31549 18.444264 99.071889 32 95.742188 L 32 94.742188 z M 160 94.742188 L 160 95.742188 C 173.55573 99.071889 183.76971 113.31549 183.98047 130.46484 C 183.98583 130.30955 184 130.15697 184 130 C 184 112.61014 173.69781 98.106787 160 94.742188 z " />
  <path
     id="path28"
     style="opacity:0.2;fill:#ffffff;stroke-width:4"
     d="M 54 94 C 50.676 94 48 96.676 48 100 L 48 101 C 48 97.675998 50.676 95 54 95 L 58 95 C 61.324 95 64 97.675998 64 101 L 64 100 C 64 96.676 61.324 94 58 94 L 54 94 z M 134 94 C 130.676 94 128 96.676 128 100 L 128 101 C 128 97.675998 130.676 95 134 95 L 138 95 C 141.324 95 144 97.675998 144 101 L 144 100 C 144 96.676 141.324 94 138 94 L 134 94 z " />
</svg>
