<?xml version="1.0" encoding="UTF-8" standalone="no"?>
<svg
   width="192"
   height="192"
   version="1"
   id="svg18"
   sodipodi:docname="apps_speedtest.svg"
   inkscape:version="1.1-rc (1:1.1+rc+202105232036+f4db50c7c1)"
   xmlns:inkscape="http://www.inkscape.org/namespaces/inkscape"
   xmlns:sodipodi="http://sodipodi.sourceforge.net/DTD/sodipodi-0.dtd"
   xmlns="http://www.w3.org/2000/svg"
   xmlns:svg="http://www.w3.org/2000/svg">
  <sodipodi:namedview
     id="namedview20"
     pagecolor="#ffffff"
     bordercolor="#666666"
     borderopacity="1.0"
     inkscape:pageshadow="2"
     inkscape:pageopacity="0.0"
     inkscape:pagecheckerboard="0"
     showgrid="false"
     inkscape:zoom="1"
     inkscape:cx="95.5"
     inkscape:cy="108.5"
     inkscape:window-width="1920"
     inkscape:window-height="1019"
     inkscape:window-x="0"
     inkscape:window-y="34"
     inkscape:window-maximized="1"
     inkscape:current-layer="svg18">
    <inkscape:grid
       type="xygrid"
       id="grid1189" />
  </sodipodi:namedview>
  <defs
     id="defs6">
    <filter
       id="filter963"
       style="color-interpolation-filters:sRGB"
       width="1.096"
       height="1.096"
       x="-0.048000001"
       y="-0.048000001">
      <feGaussianBlur
         id="feGaussianBlur965"
         stdDeviation="3.2" />
    </filter>
    <filter
       inkscape:collect="always"
       style="color-interpolation-filters:sRGB"
       id="filter4982"
       x="-0.049994545"
       y="-0.046158523"
       width="1.0999891"
       height="1.092317">
      <feGaussianBlur
         inkscape:collect="always"
         stdDeviation="2.0020731"
         id="feGaussianBlur4984" />
    </filter>
  </defs>
  <path
     style="opacity:0.2;filter:url(#filter963)"
     d="M 176,100 A 80,80 0 0 1 96,180 80,80 0 0 1 16,100 80,80 0 0 1 96,20 80,80 0 0 1 176,100 Z"
     id="path8" />
  <path
     style="fill:#37474f;fill-opacity:1"
     d="M 176,96 A 80,80 0 0 1 96,176 80,80 0 0 1 16,96 80,80 0 0 1 96,16 80,80 0 0 1 176,96 Z"
     id="path10" />
  <path
     style="opacity:0.1;fill:#ffffff"
     d="M 95.998047,16 A 80,80 0 0 0 16,96 80,80 0 0 0 16.023438,96.638672 80,80 0 0 1 95.998047,17 H 96 A 80,80 0 0 1 175.98242,96.292969 80,80 0 0 0 175.99805,96 80,80 0 0 0 96,16 Z"
     id="path12" />
  <path
     style="color:#000000;opacity:0.3;fill:#000000;stroke-linecap:round;stroke-linejoin:round;-inkscape-stroke:none"
     d="M 95.947266,35.042969 C 80.715982,35.056261 65.489572,40.716738 53.728516,52.021484 30.206403,74.630977 28.695577,111.98423 50.314453,136.41992 a 8,8 0 0 0 11.291016,0.69141 8,8 0 0 0 0.691406,-11.29297 C 46.252786,107.68382 47.359862,80.335899 64.816406,63.556641 82.27295,46.777382 109.64115,46.753188 127.12695,63.501953 c 17.48581,16.748765 18.64132,44.095297 2.62891,62.257817 a 8,8 0 0 0 0.70898,11.29101 8,8 0 0 0 11.29102,-0.71094 C 163.33205,111.86645 161.75685,74.51567 138.19531,51.947266 126.41454,40.663064 111.17855,35.029677 95.947266,35.042969 Z"
     id="path1019" />
  <path
     id="path4941"
     style="color:#000000;opacity:0.2;fill:#000000;stroke-linecap:round;stroke-linejoin:round;-inkscape-stroke:none;filter:url(#filter4982)"
     d="M 96.212891,38.021941 C 78.48775,37.980853 61.001064,45.635647 49.033203,60.076629 29.884625,83.182199 30.429939,116.94502 50.314453,139.42037 a 8,8 0 0 0 11.291016,0.69141 8,8 0 0 0 0.691406,-11.29297 C 47.56235,112.16446 47.162371,87.406958 61.351562,70.285613 75.540756,53.164269 99.940524,48.961937 119.04102,60.348113 a 8,8 0 0 0 10.96875,-2.77539 8,8 0 0 0 -2.77539,-10.96875 C 117.5682,40.841777 106.84798,38.046594 96.212891,38.021941 Z M 118.4375,67.000457 c -0.88403,0.0025 -2.25781,1.109375 -2.25781,1.109375 L 88.791016,89.779754 C 85.787721,91.995081 84.0118,95.492457 84,99.213344 c 0,6.509806 5.302091,11.787106 11.841797,11.787106 4.841783,-0.0118 9.187323,-2.95628 10.974613,-7.43555 3.89241,-8.063513 10.30748,-23.536718 13.10351,-30.353505 0.64373,-1.557846 1.53815,-3.720582 0.80664,-5.06836 -0.41347,-0.761772 -1.3524,-1.142175 -2.28906,-1.142578 z" />
  <path
     style="color:#000000;fill:#00ead0;stroke-linecap:round;stroke-linejoin:round;-inkscape-stroke:none"
     d="M 96.212891,35.021484 C 78.48775,34.980396 61.001064,42.63519 49.033203,57.076172 29.884625,80.181742 30.429939,113.94457 50.314453,136.41992 a 8,8 0 0 0 11.291016,0.69141 8,8 0 0 0 0.691406,-11.29297 C 47.56235,109.16401 47.16237,84.406501 61.351562,67.285156 75.540755,50.163812 99.940528,45.96148 119.04102,57.347656 a 8,8 0 0 0 10.96875,-2.77539 8,8 0 0 0 -2.77539,-10.96875 C 117.5682,37.84132 106.84798,35.046137 96.212891,35.021484 Z"
     id="path1271" />
  <path
     id="path4000"
     style="fill:#ffffff;stroke-width:18.9026;stroke-linecap:round;stroke-linejoin:round;stop-color:#000000"
     d="m 118.43658,64 c -0.88403,0.0025 -2.25684,1.108873 -2.25684,1.108873 L 88.79121,86.779856 C 85.787915,88.995183 84.0118,92.492059 84,96.21295 84,102.72276 89.30148,108 95.841186,108 c 4.841784,-0.0118 9.188554,-2.9567 10.975844,-7.43597 3.89241,-8.063523 10.30746,-23.536127 13.10349,-30.352915 0.64373,-1.557845 1.53683,-3.721091 0.80532,-5.068869 C 120.31237,64.380474 119.37321,64.000403 118.43655,64 Z"
     sodipodi:nodetypes="cccccccscc" />
  <path
     id="path4986"
     style="color:#000000;opacity:0.2;fill:#ffffff;stroke-linecap:round;stroke-linejoin:round;-inkscape-stroke:none"
     d="M 96.212891,35.021484 C 78.48775,34.980396 61.001064,42.63519 49.033203,57.076172 39.431559,68.661964 34.784083,82.927226 35.041016,97.105469 35.015502,83.258131 39.657349,69.389516 49.033203,58.076172 61.001064,43.63519 78.48775,35.980396 96.212891,36.021484 c 10.635089,0.02465 21.355309,2.819836 31.021489,8.582032 a 8,8 0 0 1 3.88671,6.355468 8,8 0 0 0 -3.88671,-7.355468 C 117.5682,37.84132 106.84798,35.046137 96.212891,35.021484 Z M 50.982422,96.845703 c -0.0369,10.706877 3.739319,21.410527 11.314453,29.972657 a 8,8 0 0 1 1.978516,4.79883 8,8 0 0 0 -1.978516,-5.79883 C 54.957724,117.52296 51.177427,107.21684 50.982422,96.845703 Z" />
</svg>
