<?xml version="1.0" encoding="UTF-8" standalone="no"?>
<svg
   width="192"
   height="192"
   version="1.1"
   id="svg14"
   sodipodi:docname="apps_cricket_line_guru.svg"
   inkscape:version="1.1.1 (1:1.1+202109281949+c3084ef5ed)"
   xmlns:inkscape="http://www.inkscape.org/namespaces/inkscape"
   xmlns:sodipodi="http://sodipodi.sourceforge.net/DTD/sodipodi-0.dtd"
   xmlns="http://www.w3.org/2000/svg"
   xmlns:svg="http://www.w3.org/2000/svg">
  <defs
     id="defs18">
    <filter
       inkscape:collect="always"
       style="color-interpolation-filters:sRGB"
       id="filter849"
       x="-0.048000001"
       y="-0.048000001"
       width="1.096"
       height="1.096">
      <feGaussianBlur
         inkscape:collect="always"
         stdDeviation="3.2"
         id="feGaussianBlur851" />
    </filter>
    <filter
       inkscape:collect="always"
       style="color-interpolation-filters:sRGB"
       id="filter1815"
       x="-0.11756246"
       y="-0.05506441"
       width="1.2351249"
       height="1.1101288">
      <feGaussianBlur
         inkscape:collect="always"
         stdDeviation="2.8443318"
         id="feGaussianBlur1817" />
    </filter>
  </defs>
  <sodipodi:namedview
     id="namedview16"
     pagecolor="#ffffff"
     bordercolor="#666666"
     borderopacity="1.0"
     inkscape:pageshadow="2"
     inkscape:pageopacity="0.0"
     inkscape:pagecheckerboard="0"
     showgrid="false"
     inkscape:zoom="1"
     inkscape:cx="76.5"
     inkscape:cy="84"
     inkscape:window-width="1920"
     inkscape:window-height="1014"
     inkscape:window-x="0"
     inkscape:window-y="34"
     inkscape:window-maximized="1"
     inkscape:current-layer="svg14">
    <inkscape:grid
       type="xygrid"
       id="grid2617" />
  </sodipodi:namedview>
  <rect
     style="opacity:0.2;stroke-width:4;filter:url(#filter849)"
     width="160"
     height="160"
     x="16"
     y="20"
     rx="32"
     ry="32"
     id="rect2" />
  <rect
     style="fill:#4e367c;fill-opacity:1;stroke-width:4"
     width="160"
     height="160"
     x="16"
     y="16"
     rx="32"
     ry="32"
     id="rect4" />
  <path
     id="path12"
     style="opacity:0.1;fill:#ffffff;stroke-width:4"
     d="M 48,16 C 30.272,16 16,30.272 16,48 v 1 C 16,31.272 30.272,17 48,17 h 96 c 17.728,0 32,14.272 32,32 V 48 C 176,30.272 161.728,16 144,16 Z" />
  <path
     style="opacity:0.2;fill:#000000;stroke-width:0.272671;filter:url(#filter1815)"
     d="m 91.347942,160.73799 c -0.676476,-0.1198 -2.137173,-0.22688 -2.879123,-0.23797 -0.961888,-0.0143 -1.519411,-0.17949 -1.94284,-0.57539 -0.578629,-0.541 -0.598841,-0.98745 -0.128798,-2.84504 0.217141,-0.85813 0.269235,-2.5842 -0.07124,-2.5842 -0.206526,0 -1.126284,-0.64265 -2.043907,-1.42811 -0.917626,-0.78546 -1.974308,-1.67292 -2.348187,-1.97215 -1.549804,-1.24034 -0.822051,-3.33226 1.465584,-4.2128 l 1.207828,-0.4649 0.07146,-2.14083 c 0.04192,-1.25584 -0.0951,-2.76289 -0.331456,-3.64561 -0.315815,-1.17948 -0.363115,-2.39634 -0.218801,-5.62899 0.127986,-2.86688 0.08032,-4.67163 -0.156317,-5.91984 -0.322461,-1.70084 -0.210784,-2.94719 0.407834,-4.5516 0.08157,-0.21154 -0.11099,-0.66158 -0.427889,-1.00011 -1.305132,-1.39422 -1.379899,-3.28201 -0.201699,-5.09258 0.647393,-0.99487 0.883736,-1.68097 0.907204,-2.6336 0.01746,-0.70853 0.101656,-1.35784 0.187113,-1.44289 0.08547,-0.0851 -0.324653,-0.87007 -0.911361,-1.74447 -0.586704,-0.87442 -1.67676,-2.77513 -2.422346,-4.22383 -1.594377,-3.09791 -2.979419,-5.05183 -4.281823,-6.04049 -0.516927,-0.3924 -1.522137,-1.52078 -2.111638,-2.507504 -0.72584,-1.214932 -1.835887,-2.013564 -2.599908,-2.474099 -0.62051,-0.374029 -1.239335,-0.963441 -1.37517,-1.309808 -0.436932,-1.114159 0.23498,-2.982794 0.948152,-4.868487 0.482082,-1.274671 0.597439,-1.87084 0.376202,-1.944234 -0.17549,-0.05821 -0.67387,-0.427233 -1.107506,-0.820031 -0.744888,-0.674738 -1.358253,-2.451479 -1.373439,-3.978435 -0.01112,-1.119742 -0.253822,-1.768136 -0.661799,-1.768136 -0.231499,0 -0.343652,-0.124406 -0.24923,-0.276458 0.09442,-0.152052 0.293167,-0.201734 0.44165,-0.110403 0.148487,0.09134 0.570469,0.091 0.937749,-8.16e-4 C 70.99855,82.158218 71,81.956422 71,81.202737 71,80.000116 71.01154,79.735954 68.913007,79.911052 66.801876,80.087196 66.329826,79.757047 67.738,78.95718 c 0.890084,-0.505581 1.470748,-1.837626 1.470748,-3.242317 0,-0.495704 0.250534,-1.567697 0.556744,-2.382212 1.340119,-3.564726 5.197795,-5.015213 9.862704,-4.019535 2.001651,0.427231 3.567926,1.9068 4.574631,4.340226 0.646206,1.562009 0.747445,2.165564 0.714465,4.259388 -0.02112,1.341724 -0.114484,2.810637 -0.207447,3.264252 -0.15931,0.777359 -0.146017,0.79349 0.231328,0.280708 0.579075,-0.786915 1.898085,-2.745844 2.841743,-4.624355 0.866219,-1.724355 2.538448,-5.879725 2.410527,-5.989989 -0.0415,-0.03577 -0.712473,-0.383457 -1.491056,-0.772638 -1.629024,-0.814284 -1.90331,-1.131567 -1.449094,-1.676255 0.240042,-0.287859 0.249221,-0.608448 0.03493,-1.220243 -0.230966,-0.659387 -0.180986,-1.177309 0.243356,-2.521876 0.293706,-0.930639 0.637943,-1.85131 0.76497,-2.045935 0.162103,-0.248371 -1.158967,-1.77742 -4.431308,-5.128939 -2.564244,-2.626292 -5.599047,-5.66561 -6.254613,-6.510176 -0.655569,-0.844565 -1.297369,-1.64394 -1.426221,-1.77639 -0.232331,-0.238814 -1.487643,0.619535 -3.71311,2.538926 -4.572686,3.943792 -4.645674,3.746633 -0.268595,-0.725558 2.03753,-2.081806 2.561237,-2.481084 3.083242,-2.350694 0.345844,0.08639 0.62881,0.08015 0.62881,-0.01386 0,-0.09401 -0.53725,-1.239571 -1.19389,-2.545683 -2.107539,-4.192071 -3.22598,-8.164278 -2.473733,-8.785613 0.60432,-0.499151 2.283278,-0.100201 3.182508,0.756219 0.964202,0.918297 2.398378,3.026237 2.398378,3.525115 0,0.637757 -0.904002,0.387057 -1.831919,-0.50803 -0.495725,-0.478113 -0.901314,-0.721769 -0.901314,-0.541387 0,0.41565 2.292108,4.689669 3.382514,6.307259 0.453831,0.673252 1.862748,2.096874 2.641537,2.919737 0.778789,0.822863 2.855978,3.209847 4.615979,5.304408 1.759998,2.094562 3.31247,3.849097 3.449935,3.898966 0.681008,0.247061 -0.0062,-0.825072 -2.718199,-4.240887 -3.421243,-4.309089 -4.462516,-6.050571 -3.617775,-6.050571 0.135947,0 1.921396,2.186212 3.967667,4.85825 2.046272,2.672037 3.969124,5.082185 4.273005,5.355884 0.407438,0.36697 0.904928,0.479018 1.894685,0.426735 1.764023,-0.09318 3.039095,0.529209 3.783045,1.846595 0.32391,0.573584 0.77455,1.196186 1.0014,1.383559 0.61743,0.509974 0.50991,1.14013 -0.54283,3.181781 -0.96689,1.875121 -1.39538,3.826186 -0.58448,2.661238 0.20543,-0.295111 0.72035,-1.424033 1.14429,-2.508717 0.42393,-1.084683 0.88261,-1.972152 1.01926,-1.972152 0.27296,0 1.06659,0.526037 3.754063,2.488279 1.60195,1.169667 3.54856,3.617072 3.54853,4.461476 -1e-5,0.142341 -0.4376,0.606302 -0.97245,1.031025 -1.43396,1.138693 -1.21552,1.735192 1.03045,2.813894 1.37091,0.658434 2.07725,1.210346 2.79479,2.183776 0.5281,0.716457 0.96324,1.444989 0.96697,1.618957 0.008,0.376392 -4.18168,4.479543 -6.19244,6.064448 -1.34842,1.062852 -1.49201,1.111386 -3.00655,1.016296 -2.329873,-0.14628 -3.041703,0.285806 -3.147113,1.910332 l -0.0834,1.284235 -2.45991,1.294848 c -1.35295,0.712164 -2.318794,1.297479 -2.146321,1.300697 0.666751,0.01244 7.060421,-3.480919 9.448654,-5.162544 3.18747,-2.244382 8.55429,-7.37606 10.66823,-10.200786 1.87084,-2.499908 4.56705,-7.404908 5.18409,-9.792754 1.41348,-5.469901 1.03389,-10.292598 -1.16483,-14.799456 -2.36835,-4.854541 -6.76107,-8.432231 -12.42349,-9.855021 -5.464673,-1.3731 -13.559085,0.02662 -20.332084,3.062281 -2.057056,0.921975 -2.260996,0.94174 -2.864864,0.277651 -0.438724,-0.482473 -0.370684,-0.555948 1.529247,-1.651358 2.881916,-1.661576 6.086683,-3.131808 9.148204,-4.222387 4.506376,-1.807758 9.692297,-2.062183 12.792807,-1.998773 6.00882,-0.05619 11.59438,1.829969 15.58691,5.771031 3.26359,3.273193 4.51552,6.55012 4.53554,11.871814 0.0346,9.189691 -5.85714,20.900079 -14.1934,28.210871 -2.6404,2.315605 -4.18331,3.316126 -8.73022,5.661213 -1.91689,0.988649 -3.569853,1.877752 -3.673243,1.975783 -0.10339,0.09803 0.11072,0.790284 0.47581,1.538342 0.36509,0.748057 0.66671,1.604923 0.67027,1.904147 0.009,0.789189 0.688683,2.613253 1.766183,4.742688 0.76373,1.509341 1.19621,2.016401 2.29243,2.687691 1.51991,0.93075 2.30484,2.4288 1.67093,3.18897 -0.27226,0.32648 -0.23222,0.3975 0.2241,0.3975 0.88035,0 3.10836,2.00956 3.74566,3.3198 0.86158,1.7713 0.91283,6.24482 0.47126,12.04938 l -0.35179,4.62436 -1.059,1.00709 c -0.60365,0.57402 -1.14327,1.39281 -1.25496,1.90414 -0.10776,0.49339 -0.79994,2.16124 -1.53818,3.70634 -1.03472,2.16562 -1.40439,3.30256 -1.61351,4.96232 -0.31896,2.53158 -1.43767,6.5508 -2.1684,7.79041 -0.40906,0.69393 -0.46176,1.05604 -0.25708,1.76634 0.50088,1.73814 0.33991,2.26898 -1.07077,3.53127 -1.173043,1.04964 -1.313133,1.29103 -1.198853,2.06588 0.1462,0.99134 -0.44552,2.10272 -1.25576,2.35866 -0.40525,0.12801 -0.59105,0.61941 -0.8564,2.26481 -0.37894,2.34991 -0.58578,2.86051 -1.59506,3.93746 -0.756833,0.80759 -1.643812,0.90631 -4.151976,0.46215 z m 3.469403,-2.68391 c -0.53206,-0.58613 -1.178011,-1.38561 -1.435446,-1.77662 -0.257436,-0.39103 -0.524758,-0.65454 -0.594049,-0.58557 -0.194724,0.19379 1.50189,2.53581 2.178874,3.00772 0.931983,0.64969 0.899703,0.51014 -0.149379,-0.64553 z m -5.929315,-3.29451 c 0,-0.11728 -0.245991,-0.14923 -0.546647,-0.0709 -0.559013,0.14548 -0.686613,0.39288 -0.366803,0.71117 0.198884,0.19794 0.91345,-0.30287 0.91345,-0.6402 z m 8.933057,-1.67529 c -0.0873,-0.21699 -0.15201,-0.15254 -0.16512,0.16435 -0.0119,0.28676 0.0526,0.44742 0.14355,0.35703 0.0908,-0.0903 0.10053,-0.32502 0.0216,-0.52138 z m -5.5085,-17.87281 c 0.37141,-1.27502 0.675296,-2.96985 0.675296,-3.76629 0,-0.90879 0.242497,-2.02751 0.651154,-3.00399 0.5882,-1.40549 1.288744,-6.31629 0.901043,-6.31629 -0.465604,0 -1.269871,2.68502 -1.548137,5.1684 -0.354306,3.16199 -0.993352,6.63484 -1.345664,7.31289 -0.125654,0.24184 -0.310343,1.05175 -0.410416,1.79981 -0.100077,0.74805 -0.242591,1.72734 -0.316712,2.17616 -0.134519,0.8146 -0.133994,0.81439 0.29169,-0.1182 0.234548,-0.51384 0.730335,-1.97747 1.101746,-3.25249 z M 73.580589,88.12413 c 0.623314,-0.87119 0.51706,-1.462208 -0.226667,-1.260768 -0.250422,0.06782 -0.946137,0.20629 -1.546033,0.307691 l -1.090718,0.184365 0.890039,0.791461 c 0.48952,0.435302 1.002717,0.791458 1.140437,0.791458 0.137719,0 0.512544,-0.366392 0.832942,-0.814207 z m -0.364195,-1.571514 c 0.237415,-0.150329 0.219071,-0.43488 -0.07252,-1.125078 -0.214671,-0.508122 -0.419173,-0.873383 -0.454447,-0.811692 -0.03528,0.0617 -0.488,0.569854 -1.006055,1.129246 l -0.941916,1.017078 1.078577,-0.0042 c 0.593219,-0.0022 1.221584,-0.09472 1.396367,-0.205391 z m -1.440272,-1.2217 c 0.377611,-0.595789 0.110446,-0.809712 -0.744531,-0.596148 -0.611037,0.152628 -0.659562,0.24218 -0.376044,0.694001 0.367513,0.585678 0.706088,0.556112 1.120575,-0.09785 z m -0.149949,-1.199491 c -0.248858,-0.0657 -0.52794,-0.418724 -0.620187,-0.784508 -0.213348,-0.846001 -0.70395,-0.867148 -0.70395,-0.03034 0,0.819026 0.205583,1.004511 1.070518,0.965857 0.41514,-0.01855 0.519645,-0.08078 0.253619,-0.151002 z m 23.548295,-7.050236 c 0.526159,-0.110476 1.791079,-0.175763 2.810939,-0.145086 1.73583,0.05221 1.83431,0.02394 1.54151,-0.442676 -0.17203,-0.274148 -0.8045,-0.780104 -1.4055,-1.124346 -1.17269,-0.671702 -1.11329,-1.02491 0.19627,-1.166948 0.74557,-0.08087 0.82736,-0.189128 0.90148,-1.193171 0.0759,-1.027456 -0.024,-1.203508 -1.43537,-2.53199 -1.47796,-1.391123 -2.06268,-1.569937 -2.06268,-0.630785 0,0.644774 -1.459937,5.172691 -2.007335,6.225652 -0.580558,1.116738 -0.572989,1.512023 0.02575,1.344246 0.263075,-0.07371 0.908801,-0.22442 1.434949,-0.334896 z m -3.866167,-9.339092 c 0.623112,-1.334736 1.132935,-2.549437 1.132935,-2.699337 0,-0.1499 0.301207,-0.628803 0.669349,-1.06423 l 0.66935,-0.791687 -0.713003,-0.997321 c -0.392153,-0.548529 -0.908601,-0.993734 -1.147665,-0.989349 -0.975572,0.0179 -3.30456,2.989766 -3.30456,4.216727 0,0.219812 -0.09224,0.399719 -0.204993,0.399798 -0.112745,7.6e-5 -0.204993,0.755619 -0.204993,1.678981 0,1.573865 0.05127,1.709839 0.819971,2.174596 0.450984,0.272663 0.894377,0.496396 0.985322,0.497185 0.09094,8.17e-4 0.675172,-1.090627 1.298287,-2.425363 z"
     id="path1777"
     sodipodi:nodetypes="ccsssssscsssssssssssssssssssssscsssssssssssssssssssssssssssscssssssssssssssssssssscssccsssssssssscccssssscsssssscsssssssssssccsssssscssssccssssssssssssssscsssssssccsssssssssssssssssscssssssssscssssssss" />
  <path
     style="fill:#faf9fa;stroke-width:0.272671"
     d="m 91.347942,157.73787 c -0.676476,-0.1198 -2.137173,-0.22688 -2.879123,-0.23797 -0.961888,-0.0143 -1.519411,-0.17949 -1.94284,-0.57539 -0.578629,-0.541 -0.598841,-0.98745 -0.128798,-2.84504 0.217141,-0.85813 0.269235,-2.5842 -0.07124,-2.5842 -0.206526,0 -1.126284,-0.64265 -2.043907,-1.42811 -0.917626,-0.78546 -1.974308,-1.67292 -2.348187,-1.97215 -1.549804,-1.24034 -0.822051,-3.33226 1.465584,-4.2128 l 1.207828,-0.4649 0.07146,-2.14083 c 0.04192,-1.25584 -0.0951,-2.76289 -0.331456,-3.64561 -0.315815,-1.17948 -0.363115,-2.39634 -0.218801,-5.62899 0.127986,-2.86688 0.08032,-4.67163 -0.156317,-5.91984 -0.322461,-1.70084 -0.210784,-2.94719 0.407834,-4.5516 0.08157,-0.21154 -0.11099,-0.66158 -0.427889,-1.00011 -1.305132,-1.39422 -1.379899,-3.28201 -0.201699,-5.09258 0.647393,-0.99487 0.883736,-1.68097 0.907204,-2.6336 0.01746,-0.70853 0.101656,-1.35784 0.187113,-1.44289 0.08547,-0.0851 -0.324653,-0.87007 -0.911361,-1.74447 -0.586704,-0.87442 -1.67676,-2.77513 -2.422346,-4.22383 -1.594377,-3.09791 -2.979419,-5.05183 -4.281823,-6.040492 -0.516927,-0.392399 -1.522137,-1.520772 -2.111638,-2.507498 -0.72584,-1.214932 -1.835887,-2.013564 -2.599908,-2.474099 -0.62051,-0.374029 -1.239335,-0.963441 -1.37517,-1.309808 -0.436932,-1.114159 0.23498,-2.982794 0.948152,-4.868487 0.482082,-1.274671 0.597439,-1.87084 0.376202,-1.944234 -0.17549,-0.05821 -0.67387,-0.427233 -1.107506,-0.820031 -0.744888,-0.674738 -1.358253,-2.451479 -1.373439,-3.978435 -0.01112,-1.119742 -0.253822,-1.768136 -0.661799,-1.768136 -0.231499,0 -0.343652,-0.124406 -0.24923,-0.276458 0.09442,-0.152052 0.293167,-0.201734 0.44165,-0.110403 0.148487,0.09134 0.570469,0.091 0.937749,-8.16e-4 C 70.99855,79.158102 71,78.956306 71,78.202621 71,77 71.01154,76.735838 68.913007,76.910936 66.801876,77.08708 66.329826,76.756931 67.738,75.957064 c 0.890084,-0.505581 1.470748,-1.837626 1.470748,-3.242317 0,-0.495704 0.250534,-1.567697 0.556744,-2.382212 1.340119,-3.564726 5.197795,-5.015213 9.862704,-4.019535 2.001651,0.427231 3.567926,1.9068 4.574631,4.340226 0.646206,1.562009 0.747445,2.165564 0.714465,4.259388 -0.02112,1.341724 -0.114484,2.810637 -0.207447,3.264252 -0.15931,0.777359 -0.146017,0.79349 0.231328,0.280708 0.579075,-0.786915 1.898085,-2.745844 2.841743,-4.624355 0.866219,-1.724355 2.538448,-5.879725 2.410527,-5.989989 -0.0415,-0.03577 -0.712473,-0.383457 -1.491056,-0.772638 -1.629024,-0.814284 -1.90331,-1.131567 -1.449094,-1.676255 0.240042,-0.287859 0.249221,-0.608448 0.03493,-1.220243 -0.230966,-0.659387 -0.180986,-1.177309 0.243356,-2.521876 0.293706,-0.930639 0.637943,-1.85131 0.76497,-2.045935 0.162103,-0.248371 -1.158967,-1.77742 -4.431308,-5.128939 -2.564244,-2.626292 -5.599047,-5.66561 -6.254613,-6.510176 -0.655569,-0.844565 -1.297369,-1.64394 -1.426221,-1.77639 -0.232331,-0.238814 -1.487643,0.619535 -3.71311,2.538926 -4.572686,3.943792 -4.645674,3.746633 -0.268595,-0.725558 2.03753,-2.081806 2.561237,-2.481084 3.083242,-2.350694 0.345844,0.08639 0.62881,0.08015 0.62881,-0.01386 0,-0.09401 -0.53725,-1.239571 -1.19389,-2.545683 -2.107539,-4.192071 -3.22598,-8.164278 -2.473733,-8.785613 0.60432,-0.499151 2.283278,-0.100201 3.182508,0.756219 0.964202,0.918297 2.398378,3.026237 2.398378,3.525115 0,0.637757 -0.904002,0.387057 -1.831919,-0.50803 -0.495725,-0.478113 -0.901314,-0.721769 -0.901314,-0.541387 0,0.41565 2.292108,4.689669 3.382514,6.307259 0.453831,0.673252 1.862748,2.096874 2.641537,2.919737 0.778789,0.822863 2.855978,3.209847 4.615979,5.304408 1.759998,2.094562 3.31247,3.849097 3.449935,3.898966 0.681008,0.247061 -0.0062,-0.825072 -2.718199,-4.240887 -3.421243,-4.309089 -4.462516,-6.050571 -3.617775,-6.050571 0.135947,0 1.921396,2.186212 3.967667,4.85825 2.046272,2.672037 3.969124,5.082185 4.273005,5.355884 0.407438,0.36697 0.904928,0.479018 1.894685,0.426735 1.764023,-0.09318 3.039095,0.529209 3.783045,1.846595 0.32391,0.573584 0.77455,1.196186 1.0014,1.383559 0.61743,0.509974 0.50991,1.14013 -0.54283,3.181781 -0.96689,1.875121 -1.39538,3.826186 -0.58448,2.661238 0.20543,-0.295111 0.72035,-1.424033 1.14429,-2.508717 0.42393,-1.084683 0.88261,-1.972152 1.01926,-1.972152 0.27296,0 1.06659,0.526037 3.754063,2.488279 1.60195,1.169667 3.54856,3.617072 3.54853,4.461476 -1e-5,0.142341 -0.4376,0.606302 -0.97245,1.031025 -1.43396,1.138693 -1.21552,1.735192 1.03045,2.813894 1.37091,0.658434 2.07725,1.210346 2.79479,2.183776 0.5281,0.716457 0.96324,1.444989 0.96697,1.618957 0.008,0.376392 -4.18168,4.479543 -6.19244,6.064448 -1.34842,1.062852 -1.49201,1.111386 -3.00655,1.016296 -2.329873,-0.14628 -3.041703,0.285806 -3.147113,1.910332 l -0.0834,1.284235 -2.45991,1.294848 c -1.35295,0.712164 -2.318794,1.297479 -2.146321,1.300697 0.666751,0.01244 7.060421,-3.480919 9.448654,-5.162544 3.18747,-2.244382 8.55429,-7.37606 10.66823,-10.200786 1.87084,-2.499908 4.56705,-7.404908 5.18409,-9.792754 1.41348,-5.469901 1.03389,-10.292598 -1.16483,-14.799456 -2.36835,-4.854541 -6.76107,-8.432231 -12.42349,-9.855021 -5.464673,-1.3731 -13.559085,0.02662 -20.332084,3.062281 -2.057056,0.921975 -2.260996,0.94174 -2.864864,0.277651 -0.438724,-0.482473 -0.370684,-0.555948 1.529247,-1.651358 2.881916,-1.661576 6.086683,-3.131808 9.148204,-4.222387 4.506376,-1.807758 9.692297,-2.062183 12.792807,-1.998773 6.00882,-0.05619 11.59438,1.829969 15.58691,5.771031 3.26359,3.273193 4.51552,6.55012 4.53554,11.871814 0.0346,9.189691 -5.85714,20.900079 -14.1934,28.210871 -2.6404,2.315605 -4.18331,3.316126 -8.73022,5.661213 -1.91689,0.988649 -3.569853,1.877752 -3.673243,1.975783 -0.10339,0.09803 0.11072,0.790284 0.47581,1.538342 0.36509,0.748057 0.66671,1.604923 0.67027,1.904147 0.009,0.789189 0.688683,2.613253 1.766183,4.742688 0.76373,1.509343 1.19621,2.016398 2.29243,2.687686 1.51991,0.930752 2.30484,2.428801 1.67093,3.188971 -0.27226,0.32648 -0.23222,0.3975 0.2241,0.3975 0.88035,0 3.10836,2.00956 3.74566,3.3198 0.86158,1.7713 0.91283,6.24482 0.47126,12.04938 l -0.35179,4.62436 -1.059,1.00709 c -0.60365,0.57402 -1.14327,1.39281 -1.25496,1.90414 -0.10776,0.49339 -0.79994,2.16124 -1.53818,3.70634 -1.03472,2.16562 -1.40439,3.30256 -1.61351,4.96232 -0.31896,2.53158 -1.43767,6.5508 -2.1684,7.79041 -0.40906,0.69393 -0.46176,1.05604 -0.25708,1.76634 0.50088,1.73814 0.33991,2.26898 -1.07077,3.53127 -1.173043,1.04964 -1.313133,1.29103 -1.198853,2.06588 0.1462,0.99134 -0.44552,2.10272 -1.25576,2.35866 -0.40525,0.12801 -0.59105,0.61941 -0.8564,2.26481 -0.37894,2.34991 -0.58578,2.86051 -1.59506,3.93746 -0.756833,0.80759 -1.643812,0.90631 -4.151976,0.46215 z m 3.469403,-2.68391 c -0.53206,-0.58613 -1.178011,-1.38561 -1.435446,-1.77662 -0.257436,-0.39103 -0.524758,-0.65454 -0.594049,-0.58557 -0.194724,0.19379 1.50189,2.53581 2.178874,3.00772 0.931983,0.64969 0.899703,0.51014 -0.149379,-0.64553 z m -5.929315,-3.29451 c 0,-0.11728 -0.245991,-0.14923 -0.546647,-0.0709 -0.559013,0.14548 -0.686613,0.39288 -0.366803,0.71117 0.198884,0.19794 0.91345,-0.30287 0.91345,-0.6402 z m 8.933057,-1.67529 c -0.0873,-0.21699 -0.15201,-0.15254 -0.16512,0.16435 -0.0119,0.28676 0.0526,0.44742 0.14355,0.35703 0.0908,-0.0903 0.10053,-0.32502 0.0216,-0.52138 z m -5.5085,-17.87281 c 0.37141,-1.27502 0.675296,-2.96985 0.675296,-3.76629 0,-0.90879 0.242497,-2.02751 0.651154,-3.00399 0.5882,-1.40549 1.288744,-6.31629 0.901043,-6.31629 -0.465604,0 -1.269871,2.68502 -1.548137,5.1684 -0.354306,3.16199 -0.993352,6.63484 -1.345664,7.31289 -0.125654,0.24184 -0.310343,1.05175 -0.410416,1.79981 -0.100077,0.74805 -0.242591,1.72734 -0.316712,2.17616 -0.134519,0.8146 -0.133994,0.81439 0.29169,-0.1182 0.234548,-0.51384 0.730335,-1.97747 1.101746,-3.25249 z M 73.580589,85.124014 c 0.623314,-0.87119 0.51706,-1.462208 -0.226667,-1.260768 -0.250422,0.06782 -0.946137,0.20629 -1.546033,0.307691 l -1.090718,0.184365 0.890039,0.791461 c 0.48952,0.435302 1.002717,0.791458 1.140437,0.791458 0.137719,0 0.512544,-0.366392 0.832942,-0.814207 z M 73.216394,83.5525 c 0.237415,-0.150329 0.219071,-0.43488 -0.07252,-1.125078 -0.214671,-0.508122 -0.419173,-0.873383 -0.454447,-0.811692 -0.03528,0.0617 -0.488,0.569854 -1.006055,1.129246 l -0.941916,1.017078 1.078577,-0.0042 c 0.593219,-0.0022 1.221584,-0.09472 1.396367,-0.205391 z m -1.440272,-1.2217 c 0.377611,-0.595789 0.110446,-0.809712 -0.744531,-0.596148 -0.611037,0.152628 -0.659562,0.24218 -0.376044,0.694001 0.367513,0.585678 0.706088,0.556112 1.120575,-0.09785 z m -0.149949,-1.199491 c -0.248858,-0.0657 -0.52794,-0.418724 -0.620187,-0.784508 -0.213348,-0.846001 -0.70395,-0.867148 -0.70395,-0.03034 0,0.819026 0.205583,1.004511 1.070518,0.965857 0.41514,-0.01855 0.519645,-0.08078 0.253619,-0.151002 z m 23.548295,-7.050236 c 0.526159,-0.110476 1.791079,-0.175763 2.810939,-0.145086 1.73583,0.05221 1.83431,0.02394 1.54151,-0.442676 -0.17203,-0.274148 -0.8045,-0.780104 -1.4055,-1.124346 -1.17269,-0.671702 -1.11329,-1.02491 0.19627,-1.166948 0.74557,-0.08087 0.82736,-0.189128 0.90148,-1.193171 0.0759,-1.027456 -0.024,-1.203508 -1.43537,-2.53199 -1.47796,-1.391123 -2.06268,-1.569937 -2.06268,-0.630785 0,0.644774 -1.459937,5.172691 -2.007335,6.225652 -0.580558,1.116738 -0.572989,1.512023 0.02575,1.344246 0.263075,-0.07371 0.908801,-0.22442 1.434949,-0.334896 z m -3.866167,-9.339092 c 0.623112,-1.334736 1.132935,-2.549437 1.132935,-2.699337 0,-0.1499 0.301207,-0.628803 0.669349,-1.06423 l 0.66935,-0.791687 -0.713003,-0.997321 c -0.392153,-0.548529 -0.908601,-0.993734 -1.147665,-0.989349 -0.975572,0.0179 -3.30456,2.989766 -3.30456,4.216727 0,0.219812 -0.09224,0.399719 -0.204993,0.399798 -0.112745,7.6e-5 -0.204993,0.755619 -0.204993,1.678981 0,1.573865 0.05127,1.709839 0.819971,2.174596 0.450984,0.272663 0.894377,0.496396 0.985322,0.497185 0.09094,8.17e-4 0.675172,-1.090627 1.298287,-2.425363 z"
     id="path944"
     sodipodi:nodetypes="ccsssssscsssssssssssssssssssssscsssssssssssssssssssssssssssscssssssssssssssssssssscssccsssssssssscccssssscsssssscsssssssssssccsssssscssssccssssssssssssssscsssssssccsssssssssssssssssscssssssssscssssssss" />
</svg>
