<?xml version="1.0" encoding="UTF-8" standalone="no"?>
<svg
   width="192"
   height="192"
   version="1"
   id="svg12"
   sodipodi:docname="apps_syphon.svg"
   inkscape:version="1.1.1 (1:1.1+202109281949+c3084ef5ed)"
   xmlns:inkscape="http://www.inkscape.org/namespaces/inkscape"
   xmlns:sodipodi="http://sodipodi.sourceforge.net/DTD/sodipodi-0.dtd"
   xmlns="http://www.w3.org/2000/svg"
   xmlns:svg="http://www.w3.org/2000/svg"
   xmlns:rdf="http://www.w3.org/1999/02/22-rdf-syntax-ns#"
   xmlns:cc="http://creativecommons.org/ns#"
   xmlns:dc="http://purl.org/dc/elements/1.1/">
  <metadata
     id="metadata18">
    <rdf:RDF>
      <cc:Work
         rdf:about="">
        <dc:format>image/svg+xml</dc:format>
        <dc:type
           rdf:resource="http://purl.org/dc/dcmitype/StillImage" />
      </cc:Work>
    </rdf:RDF>
  </metadata>
  <defs
     id="defs16">
    <filter
       inkscape:collect="always"
       style="color-interpolation-filters:sRGB"
       id="filter2795"
       x="-0.050709725"
       y="-0.045638815"
       width="1.1014194"
       height="1.0912776">
      <feGaussianBlur
         inkscape:collect="always"
         stdDeviation="3.0425877"
         id="feGaussianBlur2797" />
    </filter>
    <filter
       inkscape:collect="always"
       style="color-interpolation-filters:sRGB"
       id="filter3202"
       x="-0.082270223"
       y="-0.068910384"
       width="1.1645404"
       height="1.1378208">
      <feGaussianBlur
         inkscape:collect="always"
         stdDeviation="3.3593836"
         id="feGaussianBlur3204" />
    </filter>
  </defs>
  <sodipodi:namedview
     pagecolor="#ffffff"
     bordercolor="#666666"
     borderopacity="1"
     objecttolerance="10"
     gridtolerance="10"
     guidetolerance="10"
     inkscape:pageopacity="0"
     inkscape:pageshadow="2"
     inkscape:window-width="1920"
     inkscape:window-height="1022"
     id="namedview14"
     showgrid="false"
     inkscape:zoom="1"
     inkscape:cx="102"
     inkscape:cy="99"
     inkscape:window-x="0"
     inkscape:window-y="34"
     inkscape:window-maximized="1"
     inkscape:current-layer="svg12"
     showguides="false"
     inkscape:document-rotation="0"
     inkscape:pagecheckerboard="0"
     inkscape:snap-bbox="true"
     inkscape:snap-bbox-midpoints="true"
     inkscape:snap-global="true">
    <inkscape:grid
       type="xygrid"
       id="grid852" />
  </sodipodi:namedview>
  <path
     id="path2757"
     style="color:#000000;opacity:0.2;fill:#000000;fill-opacity:1;stroke-width:0.893859;stroke-linecap:round;stroke-linejoin:round;-inkscape-stroke:none;filter:url(#filter2795)"
     d="m 96.188747,20.000074 c -2.926194,0.0088 -5.849461,0.769856 -8.459579,2.274375 L 32.690361,53.990127 a 8.9480207,8.930956 0 0 0 -0.0018,0 c -5.218338,3.008428 -8.479462,8.586588 -8.498012,14.61949 l -0.190475,63.105203 c -0.01785,6.03374 3.238017,11.66166 8.482295,14.66309 l 54.850078,31.38778 c 5.243925,3.00039 11.713626,2.96979 16.933133,-0.0366 a 8.9480207,8.930956 0 0 0 0.002,0 l 55.03881,-31.71743 c 5.221,-3.00771 8.4847,-8.58465 8.50327,-14.61949 a 8.9480207,8.930956 0 0 0 0,-0.002 l 0.19047,-63.103457 a 8.9480207,8.930956 0 0 0 0,-0.0018 c 0.0179,-6.033737 -3.23801,-11.65991 -8.48229,-14.66135 a 8.9480207,8.930956 0 0 0 0,-0.0018 l -54.8501,-31.38743 c -2.62279,-1.500692 -5.5526,-2.243045 -8.478793,-2.234259 z" />
  <path
     id="path1323"
     style="color:#000000;fill:#31c8b7;stroke-width:0.893859;stroke-linecap:round;stroke-linejoin:round;-inkscape-stroke:none;fill-opacity:1"
     d="m 96.188747,16.000077 c -2.926194,0.0088 -5.849461,0.769856 -8.459579,2.274375 L 32.690361,49.99013 a 8.9480207,8.930956 0 0 0 -0.0018,0 c -5.218338,3.008428 -8.479462,8.586588 -8.498012,14.61949 l -0.190475,63.1052 c -0.01785,6.03374 3.238017,11.66166 8.482295,14.66309 l 54.850078,31.38778 c 5.243925,3.00039 11.713626,2.96979 16.933133,-0.0366 a 8.9480207,8.930956 0 0 0 0.002,0 l 55.03881,-31.71743 c 5.221,-3.00771 8.4847,-8.58465 8.50327,-14.61949 a 8.9480207,8.930956 0 0 0 0,-0.002 l 0.19047,-63.103454 a 8.9480207,8.930956 0 0 0 0,-0.0018 c 0.0179,-6.033737 -3.23801,-11.65991 -8.48229,-14.66135 a 8.9480207,8.930956 0 0 0 0,-0.0018 l -54.8501,-31.38743 c -2.62279,-1.500692 -5.5526,-2.243045 -8.478793,-2.234259 z" />
  <path
     id="path3146"
     style="opacity:0.2;fill:#000000;stroke-width:0.308175;filter:url(#filter3202)"
     d="m 96.308594,41.999964 c -1.636451,-0.0089 -3.579267,1.174455 -4.404297,1.414062 -0.811796,0.235782 -6.705868,3.449177 -13.097656,7.140626 L 67,57.267542 v 5.59961 5.601562 l 1.025391,-0.609375 c 0.557298,-0.331231 6.349401,-3.69619 12.875,-7.46875 12.896796,-7.455853 13.907042,-7.987939 15.1875,-7.998047 1.130513,-0.0089 1.960055,0.430104 14.195309,7.513672 l 10.43164,6.09375 h 9.28125 c 4.52259,0 8.83008,0 8.83008,0 0,0 -35.87975,-21.162489 -37.74023,-22.205078 -1.472411,-0.825121 -2.36389,-1.782111 -4.777346,-1.794922 z M 56,63.486292 54.396484,64.693323 C 52.149683,66.38249 50.486745,67.645477 49.041016,70.056605 46.915568,73.601343 47,71.703009 47,115.7109 c 0,39.09315 0.0093,39.64537 0.621094,40.84375 0.655203,1.2843 2.355182,2.42117 3.658203,2.44531 0.404325,0.008 9.072539,-1.30475 19.261719,-2.91602 10.189189,-1.61126 18.906928,-3.0083 19.373046,-3.10546 L 91,152.70113 v -6.4375 -6.53711 L 74.5625,130.37105 56,119.14449 V 91.16598 Z m 40.074219,2.513672 c -1.13796,0.003 -2.275966,0.304079 -3.291016,0.896484 L 71.378906,79.382776 c -2.029353,1.184577 -3.297473,3.382362 -3.304687,5.757813 L 68,109.98824 c -0.0069,2.37578 1.259389,4.59161 3.298828,5.77344 l 21.330078,12.35937 c 2.0393,1.18139 4.556138,1.16813 6.585938,-0.0156 l 21.404296,-12.48828 c 2.03039,-1.18429 3.29942,-3.37964 3.30664,-5.75586 a 3.47978,3.5165641 0 0 0 0,-0.002 L 124,85.013636 a 3.47978,3.5165641 0 0 0 0,-0.002 c 0.007,-2.375795 -1.25939,-4.589673 -3.29883,-5.771485 a 3.47978,3.5165641 0 0 0 0,-0.002 L 99.371094,66.87887 c -1.01997,-0.590896 -2.158915,-0.882359 -3.296875,-0.878906 z m 39.925781,10 v 21.080078 c 0,22.418678 0.46283,22.983488 -1.08008,24.365228 -0.37855,0.33899 -8.89792,4.83922 -17.76172,9.90821 L 101,140.64644 v 10.04688 c 0,0 6.94054,-3.76046 14.89648,-8.35547 7.95594,-4.595 16.32452,-9.414 18.59766,-10.70898 4.79424,-2.73124 7.24123,-4.83008 8.59766,-7.375 C 145.02361,120.62942 145,120.95821 145,97.468714 v -21.46875 h -4.77734 z M 56,131.02144 c 0,0 24.088784,13.92097 23.998047,14.01172 -0.123605,0.1236 -23.833984,3.81055 -23.833985,3.81055 z" />
  <path
     id="path1346"
     style="fill:#ffffff;stroke-width:0.308175"
     d="M 96.308594 40 C 94.672143 39.9911 92.729327 41.174455 91.904297 41.414062 C 91.092501 41.649844 85.198429 44.863239 78.806641 48.554688 L 67 55.267578 L 67 60.867188 L 67 66.46875 L 68.025391 65.859375 C 68.582689 65.528144 74.374792 62.163185 80.900391 58.390625 C 93.797187 50.934772 94.807433 50.402686 96.087891 50.392578 C 97.218404 50.383678 98.047946 50.822682 110.2832 57.90625 L 120.71484 64 L 129.99609 64 C 134.51868 64 138.82617 64 138.82617 64 C 138.82617 64 102.94642 42.837511 101.08594 41.794922 C 99.613529 40.969801 98.72205 40.012811 96.308594 40 z M 56 61.486328 L 54.396484 62.693359 C 52.149683 64.382526 50.486745 65.645513 49.041016 68.056641 C 46.915568 71.601379 47 69.703045 47 113.71094 C 47 152.80409 47.009252 153.35631 47.621094 154.55469 C 48.276297 155.83899 49.976276 156.97586 51.279297 157 C 51.683622 157.008 60.351836 155.69525 70.541016 154.08398 C 80.730205 152.47272 89.447944 151.07568 89.914062 150.97852 L 91 150.70117 L 91 144.26367 L 91 137.72656 L 74.5625 128.37109 L 56 117.14453 L 56 89.166016 L 56 61.486328 z M 96.074219 64 C 94.936259 64.003 93.798253 64.304079 92.783203 64.896484 L 71.378906 77.382812 C 69.349553 78.567389 68.081433 80.765174 68.074219 83.140625 L 68 107.98828 C 67.9931 110.36406 69.259389 112.57989 71.298828 113.76172 L 92.628906 126.12109 C 94.668206 127.30248 97.185044 127.28922 99.214844 126.10547 L 120.61914 113.61719 C 122.64953 112.4329 123.91856 110.23755 123.92578 107.86133 A 3.47978 3.5165641 0 0 0 123.92578 107.85938 L 124 83.013672 A 3.47978 3.5165641 0 0 0 124 83.011719 C 124.007 80.635924 122.74061 78.422046 120.70117 77.240234 A 3.47978 3.5165641 0 0 0 120.70117 77.238281 L 99.371094 64.878906 C 98.351124 64.28801 97.212179 63.996547 96.074219 64 z M 136 74 L 136 95.080078 C 136 117.49876 136.46283 118.06357 134.91992 119.44531 C 134.54137 119.7843 126.022 124.28453 117.1582 129.35352 L 101 138.64648 L 101 148.69336 C 101 148.69336 107.94054 144.9329 115.89648 140.33789 C 123.85242 135.74289 132.221 130.92389 134.49414 129.62891 C 139.28838 126.89767 141.73537 124.79883 143.0918 122.25391 C 145.02361 118.62946 145 118.95825 145 95.46875 L 145 74 L 140.22266 74 L 136 74 z M 56 129.02148 C 56 129.02148 80.088784 142.94245 79.998047 143.0332 C 79.874442 143.1568 56.164063 146.84375 56.164062 146.84375 L 56 129.02148 z " />
  <path
     id="path2799"
     style="color:#000000;fill:#ffffff;stroke-width:0.893859;stroke-linecap:round;stroke-linejoin:round;-inkscape-stroke:none;fill-opacity:1;opacity:0.2"
     d="M 96.189453 16 C 93.263259 16.0088 90.338634 16.770872 87.728516 18.275391 L 32.689453 49.990234 C 27.471115 52.998662 24.209956 58.576473 24.191406 64.609375 L 24 127.71484 C 23.999955 127.72995 24.001957 127.74467 24.001953 127.75977 L 24.191406 65.609375 C 24.209956 59.576473 27.471115 53.998662 32.689453 50.990234 L 87.728516 19.275391 C 90.338634 17.770872 93.263259 17.0088 96.189453 17 C 99.115646 16.991214 102.04518 17.733683 104.66797 19.234375 L 159.51758 50.621094 A 8.9480207 8.930956 0 0 0 159.51758 50.623047 C 164.74873 53.616974 167.99956 59.22365 167.99805 65.240234 L 168 64.287109 A 8.9480207 8.930956 0 0 0 168 64.285156 C 168.0179 58.251419 164.76186 52.624487 159.51758 49.623047 A 8.9480207 8.930956 0 0 0 159.51758 49.621094 L 104.66797 18.234375 C 102.04518 16.733683 99.115646 15.991214 96.189453 16 z " />
</svg>
