<?xml version="1.0" encoding="UTF-8" standalone="no"?>
<svg
   width="192"
   height="192"
   version="1"
   id="svg16"
   sodipodi:docname="apps_zdfmediathek.svg"
   inkscape:version="1.1.1 (1:1.1+202109281949+c3084ef5ed)"
   xmlns:inkscape="http://www.inkscape.org/namespaces/inkscape"
   xmlns:sodipodi="http://sodipodi.sourceforge.net/DTD/sodipodi-0.dtd"
   xmlns="http://www.w3.org/2000/svg"
   xmlns:svg="http://www.w3.org/2000/svg"
   xmlns:rdf="http://www.w3.org/1999/02/22-rdf-syntax-ns#"
   xmlns:cc="http://creativecommons.org/ns#"
   xmlns:dc="http://purl.org/dc/elements/1.1/">
  <metadata
     id="metadata22">
    <rdf:RDF>
      <cc:Work
         rdf:about="">
        <dc:format>image/svg+xml</dc:format>
        <dc:type
           rdf:resource="http://purl.org/dc/dcmitype/StillImage" />
      </cc:Work>
    </rdf:RDF>
  </metadata>
  <defs
     id="defs20">
    <filter
       inkscape:collect="always"
       style="color-interpolation-filters:sRGB"
       id="filter864"
       x="-0.048000001"
       width="1.096"
       y="-0.048000001"
       height="1.096">
      <feGaussianBlur
         inkscape:collect="always"
         stdDeviation="3.2"
         id="feGaussianBlur866" />
    </filter>
    <filter
       inkscape:collect="always"
       style="color-interpolation-filters:sRGB"
       id="filter1533"
       x="-0.05945122"
       y="-0.1015625"
       width="1.1189024"
       height="1.203125">
      <feGaussianBlur
         inkscape:collect="always"
         stdDeviation="3.046875"
         id="feGaussianBlur1535" />
    </filter>
    <filter
       inkscape:collect="always"
       style="color-interpolation-filters:sRGB"
       id="filter1575"
       x="-0.11571426"
       y="-0.10125001"
       width="1.2314285"
       height="1.2025">
      <feGaussianBlur
         inkscape:collect="always"
         stdDeviation="1.3500002"
         id="feGaussianBlur1577" />
    </filter>
  </defs>
  <sodipodi:namedview
     pagecolor="#ffffff"
     bordercolor="#666666"
     borderopacity="1"
     objecttolerance="10"
     gridtolerance="10"
     guidetolerance="10"
     inkscape:pageopacity="0"
     inkscape:pageshadow="2"
     inkscape:window-width="1920"
     inkscape:window-height="1022"
     id="namedview18"
     showgrid="false"
     inkscape:zoom="1"
     inkscape:cx="118"
     inkscape:cy="96"
     inkscape:window-x="0"
     inkscape:window-y="34"
     inkscape:window-maximized="1"
     inkscape:current-layer="svg16"
     inkscape:pagecheckerboard="0">
    <inkscape:grid
       type="xygrid"
       id="grid1024" />
  </sodipodi:namedview>
  <rect
     style="opacity:0.2;fill:#000000;stroke-width:4;filter:url(#filter864)"
     width="160"
     height="160"
     x="-180"
     y="-176"
     rx="80"
     ry="80"
     transform="matrix(0,-1,-1,0,0,0)"
     id="rect846" />
  <rect
     id="rect2"
     transform="matrix(0,-1,-1,0,0,0)"
     ry="80"
     rx="80"
     y="-176"
     x="-176"
     height="160"
     width="160"
     style="fill:#3f3f3f;stroke-width:4;fill-opacity:1" />
  <path
     id="path1495"
     style="opacity:0.2;fill:#000000;fill-opacity:1;stroke-width:0.246323;filter:url(#filter1533)"
     d="M 70.988281,62 C 51.134705,62 35,78.133512 35,98.011719 35,117.88992 51.134705,134 70.988281,134 c 14.040369,0 26.182774,-8.29969 32.119139,-20 h 14.95313 c 3.57168,0 6.79813,0.0719 10.07422,-2.53906 2.3647,-1.87206 4.15013,-4.53271 4.83984,-8.00586 V 114 H 140 v -12 h 16 v -6 h -16.00977 l 0.0977,-2.373047 C 140.11249,89.907486 140.74616,88 146.14062,88 H 158 v -6.048828 h -14.29883 c -7.78379,0 -10.67578,4.360467 -10.67578,11.183594 v 0.666015 C 131.71988,85.770675 126.63117,82 117.88672,82 H 103.23047 C 97.318735,70.17653 85.127179,62 70.988281,62 Z M 110,88 h 7.73633 C 123.80877,88 126,90.426326 126,98.011719 126,105.57356 123.83396,108 117.73633,108 H 110 Z" />
  <path
     style="opacity:0.1;fill:#ffffff;stroke-width:4"
     d="M 96 16 C 51.684 16 16.007812 51.68 16.007812 96 C 16.007812 96.33544 16.009812 96.667215 16.007812 97 C 16.007812 52.68 51.684 17 96 17 C 140.316 17 175.99219 52.68 175.99219 97 C 175.99019 96.667215 175.99219 96.33544 175.99219 96 C 175.99219 51.68 140.316 16 96 16 z "
     id="path4" />
  <path
     id="path7"
     style="fill:#fa7d19;fill-opacity:1;stroke-width:0.246323"
     d="M 70.988281 60 C 51.134705 60 35 76.133512 35 96.011719 C 35 115.88992 51.134705 132 70.988281 132 C 85.02865 132 97.171055 123.70031 103.10742 112 L 118.06055 112 C 121.63223 112 124.85868 112.07192 128.13477 109.46094 C 130.49947 107.58888 132.2849 104.92823 132.97461 101.45508 L 132.97461 112 L 140 112 L 140 100 L 156 100 L 156 94 L 139.99023 94 L 140.08789 91.626953 C 140.11249 87.907486 140.74616 86 146.14062 86 L 158 86 L 158 79.951172 L 143.70117 79.951172 C 135.91738 79.951172 133.02539 84.311639 133.02539 91.134766 L 133.02539 91.800781 C 131.71988 83.770675 126.63117 80 117.88672 80 L 103.23047 80 C 97.318735 68.17653 85.127179 60 70.988281 60 z M 110 86 L 117.73633 86 C 123.80877 86 126 88.426326 126 96.011719 C 126 103.57356 123.83396 106 117.73633 106 L 110 106 L 110 86 z " />
  <path
     class="st3"
     d="m 86.939421,94.000001 h 4.4741 c 3.539948,0 5.629501,-0.444275 5.629501,-3.424427 0,-3.077863 -2.089553,-3.575573 -5.727832,-3.575573 H 76 v -6 h 17.79807 c 8.92362,0 10.20194,6.204581 10.20194,9.673283 0,3.68855 -1.52416,9.326716 -10.20194,9.326716 h -4.326603 c -5.408254,0 -6.563653,2.12978 -6.563653,5.81832 V 107 H 103 v 6 H 76 v -7.93893 c 0,-6.790839 3.195785,-11.061069 10.939421,-11.061069 z"
     id="path1537"
     style="opacity:0.2;fill:#000000;stroke-width:0.245052;filter:url(#filter1575)"
     sodipodi:nodetypes="ssssccsssssccccss" />
  <path
     class="st3"
     d="m 86.939421,93 h 4.4741 c 3.539948,0 5.629501,-0.444275 5.629501,-3.424427 C 97.043022,86.49771 94.953469,86 91.31519,86 H 76 v -6 h 17.79807 c 8.92362,0 10.20194,6.204581 10.20194,9.673283 0,3.68855 -1.52416,9.326717 -10.20194,9.326717 h -4.326603 c -5.408254,0 -6.563653,2.12978 -6.563653,5.81832 V 106 H 103 v 6 H 76 v -7.93893 C 76,97.27023 79.195785,93 86.939421,93 Z"
     id="path9"
     style="fill:#ffffff;stroke-width:0.245052"
     sodipodi:nodetypes="ssssccsssssccccss" />
</svg>
