<?xml version="1.0" encoding="UTF-8" standalone="no"?>
<svg
   width="192"
   height="192"
   version="1"
   id="svg14"
   sodipodi:docname="apps_pulse_music.svg"
   inkscape:version="1.1.1 (1:1.1+202109281949+c3084ef5ed)"
   xmlns:inkscape="http://www.inkscape.org/namespaces/inkscape"
   xmlns:sodipodi="http://sodipodi.sourceforge.net/DTD/sodipodi-0.dtd"
   xmlns="http://www.w3.org/2000/svg"
   xmlns:svg="http://www.w3.org/2000/svg"
   xmlns:rdf="http://www.w3.org/1999/02/22-rdf-syntax-ns#"
   xmlns:cc="http://creativecommons.org/ns#"
   xmlns:dc="http://purl.org/dc/elements/1.1/">
  <metadata
     id="metadata20">
    <rdf:RDF>
      <cc:Work
         rdf:about="">
        <dc:format>image/svg+xml</dc:format>
        <dc:type
           rdf:resource="http://purl.org/dc/dcmitype/StillImage" />
      </cc:Work>
    </rdf:RDF>
  </metadata>
  <defs
     id="defs18">
    <filter
       inkscape:collect="always"
       style="color-interpolation-filters:sRGB"
       id="filter850"
       x="-0.048000001"
       width="1.096"
       y="-0.048000001"
       height="1.096">
      <feGaussianBlur
         inkscape:collect="always"
         stdDeviation="3.2"
         id="feGaussianBlur852" />
    </filter>
    <filter
       inkscape:collect="always"
       style="color-interpolation-filters:sRGB"
       id="filter1444"
       x="-0.094658822"
       y="-0.12571875"
       width="1.1893176"
       height="1.2514375">
      <feGaussianBlur
         inkscape:collect="always"
         stdDeviation="3.3525"
         id="feGaussianBlur1446" />
    </filter>
  </defs>
  <sodipodi:namedview
     pagecolor="#ffffff"
     bordercolor="#666666"
     borderopacity="1"
     objecttolerance="10"
     gridtolerance="10"
     guidetolerance="10"
     inkscape:pageopacity="0"
     inkscape:pageshadow="2"
     inkscape:window-width="1920"
     inkscape:window-height="1019"
     id="namedview16"
     showgrid="false"
     inkscape:zoom="1"
     inkscape:cx="93.5"
     inkscape:cy="88"
     inkscape:window-x="0"
     inkscape:window-y="34"
     inkscape:window-maximized="1"
     inkscape:current-layer="svg14"
     inkscape:pagecheckerboard="0"
     inkscape:snap-bbox="true"
     inkscape:snap-bbox-midpoints="true"
     inkscape:snap-global="false"
     showguides="false">
    <inkscape:grid
       type="xygrid"
       id="grid5193" />
  </sodipodi:namedview>
  <circle
     style="opacity:0.2;fill:#000000;stroke-width:4;filter:url(#filter850)"
     cx="96"
     cy="100"
     r="80"
     id="circle832" />
  <circle
     id="circle4"
     r="80"
     cy="96"
     cx="96"
     style="fill:#6c5ce7;stroke-width:4;fill-opacity:1" />
  <path
     style="fill:#38adfa"
     d="m 688.80525,256.99648 c -0.33229,-0.33229 -1.1948,-0.36781 -1.91667,-0.0789 -0.79773,0.31922 -0.56078,0.55618 0.60417,0.60416 1.05416,0.0434 1.64479,-0.19293 1.3125,-0.52522 z"
     id="path1063" />
  <path
     style="opacity:0.1;fill:#ffffff;stroke-width:4"
     d="M 96 16 A 80 80 0 0 0 16 96 A 80 80 0 0 0 16.019531 96.472656 A 80 80 0 0 1 96 17 A 80 80 0 0 1 175.97461 96.513672 A 80 80 0 0 0 176 96 A 80 80 0 0 0 96 16 z "
     id="path6" />
  <path
     d="m 53,66 h 53.06633 C 127.39966,66.296477 138,76.963143 138,98 136.51848,119.33333 124.73299,130 102.51089,130 85.176187,128.22222 74.153964,117.07696 69.444221,97 h 16.000001 c 2.339445,11.18807 9.213481,17 20.622108,17 C 116.733,113.40748 122,107.83718 122,97.28911 122,87.428295 116.733,82.331925 106.06633,82 H 69 V 95.866667 L 53,82 Z"
     fill="#ffffff"
     id="path1406"
     style="opacity:0.2;isolation:isolate;fill:#000000;stroke-width:0.328205;filter:url(#filter1444)"
     sodipodi:nodetypes="cccccccsccccc" />
  <path
     d="m 53,64 h 53.06633 C 127.39966,64.296477 138,74.963143 138,96 136.51848,117.33333 124.73299,128 102.51089,128 85.176187,126.22222 74.153964,115.07696 69.444221,95 h 16.000001 c 2.339445,11.18807 9.213481,17 20.622108,17 C 116.733,111.40748 122,105.83718 122,95.28911 122,85.428295 116.733,80.331925 106.06633,80 H 69 V 93.866667 L 53,80 Z"
     fill="#ffffff"
     id="path25"
     style="isolation:isolate;stroke-width:0.328205"
     sodipodi:nodetypes="cccccccsccccc" />
</svg>
