<?xml version="1.0" encoding="UTF-8" standalone="no"?>
<svg
   xmlns:dc="http://purl.org/dc/elements/1.1/"
   xmlns:cc="http://creativecommons.org/ns#"
   xmlns:rdf="http://www.w3.org/1999/02/22-rdf-syntax-ns#"
   xmlns:svg="http://www.w3.org/2000/svg"
   xmlns="http://www.w3.org/2000/svg"
   xmlns:sodipodi="http://sodipodi.sourceforge.net/DTD/sodipodi-0.dtd"
   xmlns:inkscape="http://www.inkscape.org/namespaces/inkscape"
   width="192"
   height="192"
   version="1"
   id="svg20"
   sodipodi:docname="apps_opera_beta.svg"
   inkscape:version="0.92.5 (2060ec1f9f, 2020-04-08)">
  <metadata
     id="metadata26">
    <rdf:RDF>
      <cc:Work
         rdf:about="">
        <dc:format>image/svg+xml</dc:format>
        <dc:type
           rdf:resource="http://purl.org/dc/dcmitype/StillImage" />
        <dc:title></dc:title>
      </cc:Work>
    </rdf:RDF>
  </metadata>
  <defs
     id="defs24">
    <filter
       inkscape:collect="always"
       style="color-interpolation-filters:sRGB"
       id="filter875"
       x="-0.048"
       width="1.096"
       y="-0.048"
       height="1.096">
      <feGaussianBlur
         inkscape:collect="always"
         stdDeviation="1.76"
         id="feGaussianBlur877" />
    </filter>
    <filter
       inkscape:collect="always"
       style="color-interpolation-filters:sRGB"
       id="filter842"
       x="-0.051128821"
       width="1.1022576"
       y="-0.045232032"
       height="1.0904641">
      <feGaussianBlur
         inkscape:collect="always"
         stdDeviation="3.0154688"
         id="feGaussianBlur844" />
    </filter>
  </defs>
  <sodipodi:namedview
     pagecolor="#ffffff"
     bordercolor="#666666"
     borderopacity="1"
     objecttolerance="10"
     gridtolerance="10"
     guidetolerance="10"
     inkscape:pageopacity="0"
     inkscape:pageshadow="2"
     inkscape:window-width="1920"
     inkscape:window-height="1018"
     id="namedview22"
     showgrid="false"
     inkscape:zoom="2.86"
     inkscape:cx="-24.97902"
     inkscape:cy="123.97203"
     inkscape:window-x="0"
     inkscape:window-y="30"
     inkscape:window-maximized="1"
     inkscape:current-layer="svg20" />
  <path
     inkscape:connector-curvature="0"
     style="fill:#cccccc;stroke-width:4;fill-opacity:1"
     d="M 94.874296,20.12758 C 50.691516,20.12758 21.253283,51.81722 21.253283,96 21.253283,140.18278 51.441984,169.62101 95.624764,169.62101 113.29202,169.62101 129.99692,170.27304 143.23381,160.57428 163.10011,146.01811 176,122.51552 176,96 176,74.09772 167.19834,54.251176 152.93911,39.804455 138.43365,25.108264 117.1548,20.12758 94.874296,20.12758 Z M 98,36 C 121.19596,36 140,62.862916 140,96 140,129.13708 121.19596,156 98,156 74.80404,156 48.495308,128.76185 48.495308,95.624764 48.495308,62.48768 74.80404,36 98,36 Z"
     id="path823" />
  <path
     sodipodi:nodetypes="cscccsccc"
     id="path824"
     d="M 96,20 C 51.81722,20 16,55.81722 16,100 16,144.18278 51.81722,180 96,180 119.70459,179.96952 142.17507,169.42817 157.35156,151.21875 146.44968,162.00864 132.47377,167.96859 118,168 80.642741,166.46478 54.848702,129.79083 56,100 57.450315,62.471852 82.393623,32.451386 118,32 132.55799,32.018968 146.61334,38.035947 157.54688,48.929688 142.35519,30.612377 119.7973,20.009194 96,20 Z"
     style="opacity:0.2;fill:#000000;stroke-width:4;filter:url(#filter842)"
     inkscape:connector-curvature="0" />
  <path
     inkscape:connector-curvature="0"
     style="fill:#f23845;stroke-width:4"
     d="M 96,16 C 51.81722,16 16,51.81722 16,96 16,140.18278 51.81722,176 96,176 119.70459,175.96952 142.17507,165.42817 157.35156,147.21875 146.44968,158.00864 132.47377,163.96859 118,164 80.642741,162.46478 54.848702,125.79083 56,96 57.450315,58.471852 82.393623,28.451386 118,28 132.55799,28.018968 146.61334,34.035947 157.54688,44.929688 142.35519,26.612377 119.7973,16.009194 96,16 Z"
     id="path827"
     sodipodi:nodetypes="cscccsccc" />
  <path
     style="fill:#ffffff;stroke-width:4;opacity:0.2"
     d="M 96 16 C 51.81722 16 16 51.81722 16 96 C 16 96.167199 16.004835 96.333042 16.005859 96.5 C 16.275526 52.547887 51.984419 17 96 17 C 117.37806 17.008259 137.75359 25.570401 152.68945 40.589844 C 154.36453 41.939519 155.99072 43.379199 157.54688 44.929688 C 142.35519 26.612376 119.7973 16.009194 96 16 z M 55.978516 99.003906 C 56.018592 128.41074 81.474526 163.49896 118 165 C 130.4076 164.97307 142.44313 160.57759 152.49609 152.5293 C 154.18457 150.83857 155.80767 149.07118 157.35156 147.21875 C 146.44968 158.00864 132.47377 163.96859 118 164 C 81.88872 162.51598 56.586546 128.19977 55.978516 99.003906 z "
     id="path846" />
  <circle
     style="opacity:0;stroke-width:8"
     id="circle4"
     r="80"
     cy="94.000008"
     cx="96" />
  <circle
     style="opacity:0;stroke-width:8"
     id="circle6"
     r="80"
     cy="94.000008"
     cx="96" />
  <circle
     id="circle12"
     r="44"
     cy="144"
     cx="144"
     style="opacity:0.2;stroke-width:4;filter:url(#filter875)" />
  <circle
     id="circle14"
     r="44"
     cy="140"
     cx="144"
     style="fill:#439f46;stroke-width:4" />
  <path
     inkscape:connector-curvature="0"
     id="path16"
     d="m 162,158 v -36 m -36,0 18,20 18,-20 m -36,36 v -36"
     style="fill:none;stroke:#ffffff;stroke-width:11.99923992;stroke-linecap:round;stroke-linejoin:round" />
</svg>
