<?xml version="1.0" encoding="UTF-8" standalone="no"?>
<svg
   width="192"
   height="192"
   version="1.1"
   id="svg20"
   sodipodi:docname="apps_piwigo.svg"
   inkscape:version="1.1-rc (1:1.1+rc+202105232036+f4db50c7c1)"
   xmlns:inkscape="http://www.inkscape.org/namespaces/inkscape"
   xmlns:sodipodi="http://sodipodi.sourceforge.net/DTD/sodipodi-0.dtd"
   xmlns="http://www.w3.org/2000/svg"
   xmlns:svg="http://www.w3.org/2000/svg">
  <defs
     id="defs24">
    <filter
       inkscape:collect="always"
       style="color-interpolation-filters:sRGB"
       id="filter861"
       x="-0.0408"
       y="-0.058285715"
       width="1.0816"
       height="1.1165714">
      <feGaussianBlur
         inkscape:collect="always"
         stdDeviation="2.72"
         id="feGaussianBlur863" />
    </filter>
    <filter
       inkscape:collect="always"
       style="color-interpolation-filters:sRGB"
       id="filter865"
       x="-0.047999999"
       y="-0.047999999"
       width="1.096"
       height="1.096">
      <feGaussianBlur
         inkscape:collect="always"
         stdDeviation="1.52"
         id="feGaussianBlur867" />
    </filter>
    <filter
       inkscape:collect="always"
       style="color-interpolation-filters:sRGB"
       id="filter869"
       x="-0.047999998"
       y="-0.047999998"
       width="1.096"
       height="1.096">
      <feGaussianBlur
         inkscape:collect="always"
         stdDeviation="1.04"
         id="feGaussianBlur871" />
    </filter>
    <filter
       inkscape:collect="always"
       style="color-interpolation-filters:sRGB"
       id="filter873"
       x="-0.030000001"
       y="-0.12"
       width="1.06"
       height="1.24">
      <feGaussianBlur
         inkscape:collect="always"
         stdDeviation="0.6"
         id="feGaussianBlur875" />
    </filter>
  </defs>
  <sodipodi:namedview
     id="namedview22"
     pagecolor="#ffffff"
     bordercolor="#666666"
     borderopacity="1.0"
     inkscape:pageshadow="2"
     inkscape:pageopacity="0.0"
     inkscape:pagecheckerboard="0"
     showgrid="false"
     inkscape:zoom="3.28"
     inkscape:cx="23.932927"
     inkscape:cy="93.140244"
     inkscape:window-width="1920"
     inkscape:window-height="1019"
     inkscape:window-x="0"
     inkscape:window-y="34"
     inkscape:window-maximized="1"
     inkscape:current-layer="svg20" />
  <path
     style="opacity:0.2;stroke-width:4;filter:url(#filter861)"
     d="M 92,44 84,56 H 24 c -4.432,0 -8,3.568 -8,8 v 84 c 0,4.432 3.568,8 8,8 h 144 c 4.432,0 8,-3.568 8,-8 V 64 c 0,-4.432 -3.568,-8 -8,-8 h -12 l -8,-12 z"
     id="path2" />
  <path
     style="fill:#ff6c3a;stroke-width:4"
     d="M 92,40 84,52 H 24 c -4.432,0 -8,3.568 -8,8 v 84 c 0,4.432 3.568,8 8,8 h 144 c 4.432,0 8,-3.568 8,-8 V 60 c 0,-4.432 -3.568,-8 -8,-8 h -12 l -8,-12 z"
     id="path4" />
  <circle
     style="opacity:0.2;stroke-width:4;filter:url(#filter865)"
     cx="66"
     cy="104"
     r="38"
     id="circle6" />
  <circle
     style="fill:#ffffff;stroke-width:4"
     cx="66"
     cy="102"
     r="38"
     id="circle8" />
  <path
     id="path10"
     style="opacity:0.2;fill:#ffffff;stroke-width:4"
     d="M 92 40 L 84 52 L 24 52 C 19.568 52 16 55.568 16 60 L 16 61 C 16 56.568 19.568 53 24 53 L 84 53 L 92 41 L 148 41 L 156 53 L 168 53 C 172.432 53 176 56.568 176 61 L 176 60 C 176 55.568 172.432 52 168 52 L 156 52 L 148 40 L 92 40 z " />
  <rect
     style="opacity:0.2;stroke-width:4;filter:url(#filter873)"
     width="48"
     height="12"
     x="96"
     y="49"
     id="rect12" />
  <rect
     style="fill:#ffffff;stroke-width:4"
     width="48"
     height="12"
     x="96"
     y="48"
     id="rect14" />
  <circle
     style="opacity:0.2;stroke-width:4;filter:url(#filter869)"
     cx="66"
     cy="104"
     r="26"
     id="circle16" />
  <circle
     style="fill:#4f4f4f;stroke-width:4"
     cx="66"
     cy="102"
     r="26"
     id="circle18" />
</svg>
