<?xml version="1.0" encoding="UTF-8" standalone="no"?>
<svg
   width="192"
   height="192"
   version="1"
   id="svg14"
   sodipodi:docname="apps_walmart.svg"
   inkscape:version="1.1.1 (1:1.1+202109281949+c3084ef5ed)"
   xmlns:inkscape="http://www.inkscape.org/namespaces/inkscape"
   xmlns:sodipodi="http://sodipodi.sourceforge.net/DTD/sodipodi-0.dtd"
   xmlns="http://www.w3.org/2000/svg"
   xmlns:svg="http://www.w3.org/2000/svg"
   xmlns:rdf="http://www.w3.org/1999/02/22-rdf-syntax-ns#"
   xmlns:cc="http://creativecommons.org/ns#"
   xmlns:dc="http://purl.org/dc/elements/1.1/">
  <metadata
     id="metadata20">
    <rdf:RDF>
      <cc:Work
         rdf:about="">
        <dc:format>image/svg+xml</dc:format>
        <dc:type
           rdf:resource="http://purl.org/dc/dcmitype/StillImage" />
      </cc:Work>
    </rdf:RDF>
  </metadata>
  <defs
     id="defs18">
    <filter
       inkscape:collect="always"
       style="color-interpolation-filters:sRGB"
       id="filter850"
       x="-0.048000001"
       width="1.096"
       y="-0.048000001"
       height="1.096">
      <feGaussianBlur
         inkscape:collect="always"
         stdDeviation="3.2"
         id="feGaussianBlur852" />
    </filter>
    <filter
       inkscape:collect="always"
       style="color-interpolation-filters:sRGB"
       id="filter2069"
       x="-0.050926673"
       y="-0.045391429"
       width="1.1018533"
       height="1.0907829">
      <feGaussianBlur
         inkscape:collect="always"
         stdDeviation="1.7400218"
         id="feGaussianBlur2071" />
    </filter>
  </defs>
  <sodipodi:namedview
     pagecolor="#ffffff"
     bordercolor="#666666"
     borderopacity="1"
     objecttolerance="10"
     gridtolerance="10"
     guidetolerance="10"
     inkscape:pageopacity="0"
     inkscape:pageshadow="2"
     inkscape:window-width="1920"
     inkscape:window-height="1019"
     id="namedview16"
     showgrid="false"
     inkscape:zoom="3.32"
     inkscape:cx="97.138554"
     inkscape:cy="95.331325"
     inkscape:window-x="0"
     inkscape:window-y="34"
     inkscape:window-maximized="1"
     inkscape:current-layer="svg14"
     inkscape:document-rotation="0"
     inkscape:pagecheckerboard="0"
     showguides="false">
    <inkscape:grid
       type="xygrid"
       id="grid1485" />
  </sodipodi:namedview>
  <rect
     style="opacity:0.2;fill:#000000;stroke-width:4;filter:url(#filter850)"
     width="160"
     height="160"
     x="-180"
     y="-176"
     rx="80"
     ry="80"
     transform="matrix(0,-1,-1,0,0,0)"
     id="rect832" />
  <rect
     id="rect4"
     transform="matrix(0,-1,-1,0,0,0)"
     ry="80"
     rx="80"
     y="-176"
     x="-176"
     height="160"
     width="160"
     style="fill:#1d7edf;fill-opacity:1;stroke-width:4" />
  <path
     style="opacity:0.2;fill:#ffffff;stroke-width:4"
     d="m 96,16 c -44.32,0 -80,35.68 -80,80 0,0.116813 0.0054,0.231684 0.0078,0.347656 C 16.356433,52.330881 51.897996,17 96,17 140.102,17 175.64357,52.330881 175.99219,96.347656 175.99459,96.231684 176,96.11681 176,96 176,51.68 140.32,16 96,16 Z"
     id="path6" />
  <path
     id="path2031"
     style="opacity:0.2;fill:#000000;fill-opacity:1;stroke-width:0.16978;filter:url(#filter2069)"
     d="m 96.121094,51.999545 c -0.192266,-0.0018 -0.386916,0.0022 -0.583985,0.01172 -2.877213,0.138325 -5.054889,1.505999 -5.486328,3.441406 -0.07226,0.324252 -0.06646,1.305495 0.01563,2.183594 0.230496,2.463324 0.979331,10.998144 1.248047,14.234375 0.544068,6.552167 0.709478,7.920698 1.037109,8.488281 0.918066,1.59038 3.895443,2.14908 5.970704,1.121094 1.346898,-0.667175 1.653724,-1.292662 1.855469,-3.796875 0.0872,-1.08227 0.38378,-4.486284 0.6582,-7.5625 1.29851,-14.554798 1.26807,-14.137777 1.04687,-14.884766 -0.57289,-1.934578 -2.877709,-3.209598 -5.761711,-3.236328 z M 61.046875,71.001498 c -1.628934,0.04837 -3.374886,1.215907 -4.646484,3.193359 -0.107235,0.166676 -0.207735,0.333772 -0.302735,0.501954 -1.424876,2.522604 -1.472997,5.168474 -0.07813,6.638672 0.538596,0.567673 0.160126,0.385068 13.470703,6.566406 2.813243,1.306462 5.923151,2.758791 6.908204,3.226562 2.279265,1.082377 2.975846,1.129683 4.232421,0.292969 1.936068,-1.289175 2.945633,-4.160195 2.023438,-5.757813 C 82.325175,85.093453 81.218306,84.262193 75.792964,80.497592 73.113288,78.638197 66.06572,73.699165 64.039057,72.261264 63.31657,71.748779 62.466724,71.249947 62.148433,71.149936 61.792202,71.038033 61.422778,70.990337 61.04687,71.001498 Z m 69.906245,0 c -0.3759,-0.01116 -0.74533,0.03654 -1.10156,0.148438 -0.31829,0.100011 -1.16813,0.598843 -1.89062,1.111328 -2.02666,1.437901 -9.07424,6.376933 -11.75391,8.236328 -5.42535,3.764601 -6.53222,4.595861 -6.86133,5.166015 -0.9222,1.597618 0.0874,4.468638 2.02344,5.757813 1.25658,0.836714 1.95315,0.789408 4.23242,-0.292969 0.98505,-0.467771 4.09497,-1.9201 6.90821,-3.226562 13.31058,-6.181338 12.93211,-5.998732 13.4707,-6.566406 1.39488,-1.470198 1.34672,-4.116068 -0.0781,-6.638672 -0.095,-0.168182 -0.19549,-0.335278 -0.30273,-0.501954 -1.2716,-1.977452 -3.01755,-3.144994 -4.64649,-3.193359 z M 79.009766,103.99955 c -0.658803,6e-5 -1.932568,0.54413 -7.910157,3.36133 -2.95243,1.39147 -10.759184,5.02593 -13.019531,6.0625 -0.805699,0.36959 -1.664176,0.85633 -1.910156,1.08203 -1.468051,1.34722 -1.564021,3.92788 -0.238281,6.5 0.09113,0.17599 0.184825,0.34938 0.283203,0.51562 1.47284,2.49514 3.742716,3.85798 5.714844,3.38477 0.761487,-0.18272 0.413315,0.0539 12.43164,-8.38477 2.540123,-1.78355 5.35359,-3.75173 6.251953,-4.37109 2.078691,-1.43307 2.469211,-2.01292 2.373047,-3.51953 -0.05556,-0.87051 -0.368338,-1.73843 -0.835937,-2.48438 -0.779319,-1.24326 -1.986893,-2.14655 -3.140625,-2.14648 z m 33.980464,0 c -1.15373,-7e-5 -2.36129,0.90322 -3.14062,2.14648 -0.46759,0.74595 -0.78034,1.61387 -0.83594,2.48438 -0.0962,1.50661 0.29436,2.08646 2.37305,3.51953 0.89836,0.61936 3.71182,2.58754 6.25195,4.37109 12.01832,8.43868 11.67015,8.20205 12.43164,8.38477 1.97212,0.47321 4.24201,-0.88963 5.71485,-3.38477 0.0984,-0.16624 0.1921,-0.33963 0.2832,-0.51562 1.32575,-2.57212 1.22977,-5.15278 -0.23828,-6.5 -0.24598,-0.2257 -1.10446,-0.71244 -1.91016,-1.08203 -2.26034,-1.03657 -10.0671,-4.67103 -13.01953,-6.0625 -5.97759,-2.8172 -7.25135,-3.36127 -7.91016,-3.36133 z M 96.09375,114.0015 c -0.110069,-0.002 -0.220607,-0.002 -0.330078,0.002 -1.459621,0.0525 -2.838318,0.64273 -3.41211,1.63671 -0.327631,0.56759 -0.493041,1.93612 -1.037109,8.48829 -0.268716,3.23623 -1.017551,11.77105 -1.248047,14.23437 -0.08207,0.8781 -0.08787,1.85932 -0.01563,2.1836 0.431439,1.93539 2.609115,3.30308 5.486328,3.4414 0.197069,0.009 0.391719,0.0137 0.583985,0.0117 2.884002,-0.0267 5.188831,-1.30176 5.761711,-3.23633 0.2212,-0.74699 0.25163,-0.32996 -1.04687,-14.88476 -0.27443,-3.07621 -0.57101,-6.48023 -0.65821,-7.5625 -0.201735,-2.50421 -0.508561,-3.12971 -1.855459,-3.79688 -0.680945,-0.3373 -1.458031,-0.50247 -2.228516,-0.51758 z" />
  <path
     id="path1732"
     style="fill:#ffb818;fill-opacity:1;stroke-width:0.16978"
     d="m 96.121094,50 c -0.192266,-0.0018 -0.386916,0.0022 -0.583985,0.01172 -2.877213,0.138325 -5.054889,1.505999 -5.486328,3.441406 -0.07226,0.324252 -0.06646,1.305495 0.01563,2.183594 0.230496,2.463324 0.979331,10.998144 1.248047,14.234375 0.544068,6.552167 0.709478,7.920698 1.037109,8.488281 0.918066,1.59038 3.895443,2.14908 5.970704,1.121094 1.346898,-0.667175 1.653724,-1.292662 1.855469,-3.796875 0.0872,-1.08227 0.38378,-4.486284 0.6582,-7.5625 1.29851,-14.554798 1.26807,-14.137777 1.04687,-14.884766 C 101.30992,51.30175 99.005096,50.02673 96.121094,50 Z M 61.046875,69.001953 c -1.628934,0.04837 -3.374886,1.215907 -4.646484,3.193359 -0.107235,0.166676 -0.207735,0.333772 -0.302735,0.501954 -1.424876,2.522604 -1.472997,5.168474 -0.07813,6.638672 0.538596,0.567673 0.160126,0.385068 13.470703,6.566406 2.813243,1.306462 5.923151,2.758791 6.908204,3.226562 2.279265,1.082377 2.975846,1.129683 4.232421,0.292969 C 82.566927,88.1327 83.576492,85.26168 82.654297,83.664062 82.32518,83.093908 81.218311,82.262648 75.792969,78.498047 73.113293,76.638652 66.065725,71.69962 64.039062,70.261719 63.316575,69.749234 62.466729,69.250402 62.148438,69.150391 61.792207,69.038488 61.422783,68.990792 61.046875,69.001953 Z m 69.906245,0 c -0.3759,-0.01116 -0.74533,0.03654 -1.10156,0.148438 -0.31829,0.100011 -1.16813,0.598843 -1.89062,1.111328 -2.02666,1.437901 -9.07424,6.376933 -11.75391,8.236328 -5.42535,3.764601 -6.53222,4.595861 -6.86133,5.166015 -0.9222,1.597618 0.0874,4.468638 2.02344,5.757813 1.25658,0.836714 1.95315,0.789408 4.23242,-0.292969 0.98505,-0.467771 4.09497,-1.9201 6.90821,-3.226562 13.31058,-6.181338 12.93211,-5.998732 13.4707,-6.566406 1.39488,-1.470198 1.34672,-4.116068 -0.0781,-6.638672 -0.095,-0.168182 -0.19549,-0.335278 -0.30273,-0.501954 -1.2716,-1.977452 -3.01755,-3.144994 -4.64649,-3.193359 z M 79.009766,102 c -0.658803,6e-5 -1.932568,0.54413 -7.910157,3.36133 -2.95243,1.39147 -10.759184,5.02593 -13.019531,6.0625 -0.805699,0.36959 -1.664176,0.85633 -1.910156,1.08203 -1.468051,1.34722 -1.564021,3.92788 -0.238281,6.5 0.09113,0.17599 0.184825,0.34938 0.283203,0.51562 1.47284,2.49514 3.742716,3.85798 5.714844,3.38477 0.761487,-0.18272 0.413315,0.0539 12.43164,-8.38477 2.540123,-1.78355 5.35359,-3.75173 6.251953,-4.37109 2.078691,-1.43307 2.469211,-2.01292 2.373047,-3.51953 -0.05556,-0.87051 -0.368338,-1.73843 -0.835937,-2.48438 C 81.371072,102.90322 80.163498,101.99993 79.009766,102 Z m 33.980464,0 c -1.15373,-7e-5 -2.36129,0.90322 -3.14062,2.14648 -0.46759,0.74595 -0.78034,1.61387 -0.83594,2.48438 -0.0962,1.50661 0.29436,2.08646 2.37305,3.51953 0.89836,0.61936 3.71182,2.58754 6.25195,4.37109 12.01832,8.43868 11.67015,8.20205 12.43164,8.38477 1.97212,0.47321 4.24201,-0.88963 5.71485,-3.38477 0.0984,-0.16624 0.1921,-0.33963 0.2832,-0.51562 1.32575,-2.57212 1.22977,-5.15278 -0.23828,-6.5 -0.24598,-0.2257 -1.10446,-0.71244 -1.91016,-1.08203 -2.26034,-1.03657 -10.0671,-4.67103 -13.01953,-6.0625 -5.97759,-2.8172 -7.25135,-3.36127 -7.91016,-3.36133 z m -16.89648,10.00195 c -0.110069,-0.002 -0.220607,-0.002 -0.330078,0.002 -1.459621,0.0525 -2.838318,0.64273 -3.41211,1.63671 -0.327631,0.56759 -0.493041,1.93612 -1.037109,8.48829 -0.268716,3.23623 -1.017551,11.77105 -1.248047,14.23437 -0.08207,0.8781 -0.08787,1.85932 -0.01563,2.1836 0.431439,1.93539 2.609115,3.30308 5.486328,3.4414 0.197069,0.009 0.391719,0.0137 0.583985,0.0117 2.884002,-0.0267 5.188831,-1.30176 5.761711,-3.23633 0.2212,-0.74699 0.25163,-0.32996 -1.04687,-14.88476 -0.27443,-3.07621 -0.57101,-6.48023 -0.65821,-7.5625 -0.201735,-2.50421 -0.508561,-3.12971 -1.855459,-3.79688 -0.680945,-0.3373 -1.458031,-0.50247 -2.228516,-0.51758 z" />
  <path
     id="path2073"
     style="opacity:0.2;fill:#ffffff;fill-opacity:1;stroke-width:0.16978"
     d="m 96.121094,50 c -0.192266,-0.0018 -0.386916,0.0022 -0.583985,0.01172 -2.877213,0.138325 -5.054889,1.505999 -5.486328,3.441406 -0.05085,0.228197 -0.04929,0.800026 -0.02344,1.414063 0.0084,-0.138492 0.0065,-0.338026 0.02344,-0.414063 0.431439,-1.935407 2.609115,-3.303081 5.486328,-3.441406 0.197069,-0.0095 0.391719,-0.01352 0.583985,-0.01172 2.884002,0.02673 5.188826,1.30175 5.761716,3.236328 0.0393,0.132665 0.0592,0.27225 0.0801,0.421875 0.0302,-0.797738 0.003,-1.142517 -0.0801,-1.421875 C 101.30992,51.30175 99.005096,50.02673 96.121094,50 Z M 61.046875,69.001953 c -1.628934,0.04837 -3.374886,1.215907 -4.646484,3.193359 -0.107235,0.166676 -0.207735,0.333772 -0.302735,0.501954 -0.834333,1.477106 -1.183598,2.990163 -1.060547,4.291015 0.08726,-1.048868 0.432278,-2.178726 1.060547,-3.291015 0.095,-0.168182 0.1955,-0.335278 0.302735,-0.501954 1.271598,-1.977451 3.01755,-3.144989 4.646484,-3.193359 0.375908,-0.01116 0.745331,0.03654 1.101563,0.148438 0.31829,0.100011 1.168137,0.598843 1.890624,1.111328 2.026663,1.437901 9.074231,6.376933 11.753907,8.236328 5.425342,3.764601 6.532211,4.595861 6.861328,5.166015 0.163939,0.28401 0.247432,0.61639 0.294922,0.964844 0.09415,-0.726386 0.01902,-1.420965 -0.294922,-1.964844 C 82.32518,83.093908 81.218311,82.262648 75.792969,78.498047 73.113293,76.638652 66.065725,71.69962 64.039062,70.261719 63.316575,69.749234 62.466728,69.250402 62.148438,69.150391 61.792206,69.038488 61.422783,68.990792 61.046875,69.001953 Z m 69.906245,0 c -0.3759,-0.01116 -0.74533,0.03654 -1.10156,0.148438 -0.31829,0.100011 -1.16813,0.598843 -1.89062,1.111328 -2.02666,1.437901 -9.07424,6.376933 -11.75391,8.236328 -5.42535,3.764601 -6.53222,4.595862 -6.86133,5.166015 -0.31394,0.543879 -0.38907,1.238458 -0.29492,1.964844 0.0475,-0.348454 0.13098,-0.680834 0.29492,-0.964844 0.32911,-0.570153 1.43598,-1.401414 6.86133,-5.166015 2.67967,-1.859395 9.72725,-6.798427 11.75391,-8.236328 0.72249,-0.512485 1.57233,-1.011317 1.89062,-1.111328 0.35623,-0.111898 0.72566,-0.159598 1.10156,-0.148438 1.62894,0.04837 3.37489,1.215908 4.64649,3.193359 0.10724,0.166677 0.20773,0.333772 0.30273,0.501954 0.62825,1.112289 0.97329,2.242147 1.06055,3.291015 0.12305,-1.300852 -0.22623,-2.813909 -1.06055,-4.291015 -0.095,-0.168182 -0.19549,-0.335278 -0.30273,-0.501954 -1.2716,-1.977451 -3.01754,-3.144994 -4.64649,-3.193359 z M 79.009766,102 c -0.658803,6e-5 -1.932568,0.54413 -7.910157,3.36133 -2.95243,1.39147 -10.759184,5.02593 -13.019531,6.0625 -0.805699,0.36959 -1.664176,0.85633 -1.910156,1.08203 -0.892198,0.81876 -1.269222,2.09575 -1.136719,3.54687 0.08676,-1.0287 0.457329,-1.9234 1.136719,-2.54687 0.24598,-0.2257 1.104457,-0.71244 1.910156,-1.08203 2.260347,-1.03657 10.067101,-4.67103 13.019531,-6.0625 5.977589,-2.8172 7.251354,-3.36127 7.910157,-3.36133 1.153732,-7e-5 2.361306,0.90322 3.140625,2.14648 0.438816,0.70004 0.732961,1.50802 0.814453,2.32422 0.03416,-0.25174 0.04174,-0.5225 0.02148,-0.83984 -0.05556,-0.87051 -0.368338,-1.73843 -0.835937,-2.48438 C 81.371072,102.90322 80.163498,101.99993 79.009766,102 Z m 33.980464,0 c -1.15373,-7e-5 -2.36129,0.90322 -3.14062,2.14648 -0.46759,0.74595 -0.78034,1.61387 -0.83594,2.48438 -0.0203,0.31734 -0.0127,0.5881 0.0215,0.83984 0.0815,-0.8162 0.37564,-1.62418 0.81445,-2.32422 0.77933,-1.24326 1.98689,-2.14655 3.14062,-2.14648 0.65881,6e-5 1.93257,0.54413 7.91016,3.36133 2.95243,1.39147 10.75919,5.02593 13.01953,6.0625 0.8057,0.36959 1.66418,0.85633 1.91016,1.08203 0.67939,0.62347 1.04996,1.51817 1.13672,2.54687 0.1325,-1.45112 -0.24452,-2.72811 -1.13672,-3.54687 -0.24598,-0.2257 -1.10446,-0.71244 -1.91016,-1.08203 -2.26034,-1.03657 -10.0671,-4.67103 -13.01953,-6.0625 -5.97759,-2.8172 -7.25135,-3.36127 -7.91016,-3.36133 z m -16.89648,10.00195 c -0.110069,-0.002 -0.220607,-0.002 -0.330078,0.002 -1.459621,0.0525 -2.838318,0.64273 -3.41211,1.63671 -0.32763,0.56759 -0.493041,1.93612 -1.037109,8.48829 -0.268716,3.23623 -1.017551,11.77105 -1.248047,14.23437 -0.06287,0.67264 -0.0665,1.31751 -0.03906,1.76953 0.01088,-0.25846 0.01475,-0.5094 0.03906,-0.76953 0.230496,-2.46332 0.979331,-10.99814 1.248047,-14.23437 0.544068,-6.55217 0.709479,-7.9207 1.037109,-8.48829 0.573792,-0.99397 1.952489,-1.58421 3.41211,-1.63671 0.109471,-0.004 0.220009,-0.004 0.330078,-0.002 0.770485,0.0151 1.547571,0.18028 2.228516,0.51758 1.346898,0.66717 1.653728,1.29267 1.855464,3.79688 0.0872,1.08227 0.38378,4.48629 0.65821,7.5625 0.81307,9.11372 1.07655,12.12809 1.12695,13.46289 0.0967,-0.69286 -0.0591,-2.49302 -1.12695,-14.46289 -0.27443,-3.07621 -0.57101,-6.48023 -0.65821,-7.5625 -0.201736,-2.50421 -0.508566,-3.12971 -1.855464,-3.79688 -0.680945,-0.3373 -1.458031,-0.50247 -2.228516,-0.51758 z" />
</svg>
