<?xml version="1.0" encoding="UTF-8" standalone="no"?>
<svg
   width="192"
   height="192"
   version="1"
   id="svg14"
   sodipodi:docname="apps_starmoney.svg"
   inkscape:version="1.1.1 (1:1.1+202109281949+c3084ef5ed)"
   xmlns:inkscape="http://www.inkscape.org/namespaces/inkscape"
   xmlns:sodipodi="http://sodipodi.sourceforge.net/DTD/sodipodi-0.dtd"
   xmlns="http://www.w3.org/2000/svg"
   xmlns:svg="http://www.w3.org/2000/svg"
   xmlns:rdf="http://www.w3.org/1999/02/22-rdf-syntax-ns#"
   xmlns:cc="http://creativecommons.org/ns#"
   xmlns:dc="http://purl.org/dc/elements/1.1/">
  <metadata
     id="metadata20">
    <rdf:RDF>
      <cc:Work
         rdf:about="">
        <dc:format>image/svg+xml</dc:format>
        <dc:type
           rdf:resource="http://purl.org/dc/dcmitype/StillImage" />
      </cc:Work>
    </rdf:RDF>
  </metadata>
  <defs
     id="defs18">
    <filter
       inkscape:collect="always"
       style="color-interpolation-filters:sRGB"
       id="filter850"
       x="-0.048000001"
       width="1.096"
       y="-0.048000001"
       height="1.096">
      <feGaussianBlur
         inkscape:collect="always"
         stdDeviation="3.2"
         id="feGaussianBlur852" />
    </filter>
    <filter
       inkscape:collect="always"
       style="color-interpolation-filters:sRGB"
       id="filter2667"
       x="-0.11617029"
       y="-0.10090344"
       width="1.2323406"
       height="1.2018069">
      <feGaussianBlur
         inkscape:collect="always"
         stdDeviation="3.9696242"
         id="feGaussianBlur2669" />
    </filter>
  </defs>
  <sodipodi:namedview
     pagecolor="#ffffff"
     bordercolor="#666666"
     borderopacity="1"
     objecttolerance="10"
     gridtolerance="10"
     guidetolerance="10"
     inkscape:pageopacity="0"
     inkscape:pageshadow="2"
     inkscape:window-width="1920"
     inkscape:window-height="1022"
     id="namedview16"
     showgrid="false"
     inkscape:zoom="2.32"
     inkscape:cx="106.89655"
     inkscape:cy="92.672414"
     inkscape:window-x="0"
     inkscape:window-y="34"
     inkscape:window-maximized="1"
     inkscape:current-layer="svg14"
     inkscape:pagecheckerboard="0"
     inkscape:snap-bbox="true"
     inkscape:snap-bbox-midpoints="true">
    <inkscape:grid
       type="xygrid"
       id="grid5193" />
  </sodipodi:namedview>
  <circle
     style="opacity:0.2;fill:#000000;stroke-width:4;filter:url(#filter850)"
     cx="96"
     cy="100"
     r="80"
     id="circle832" />
  <circle
     id="circle4"
     r="80"
     cy="96"
     cx="96"
     style="fill:#005890;stroke-width:4;fill-opacity:1" />
  <path
     id="path2629"
     style="opacity:0.2;fill:#000000;stroke-width:0.525707;filter:url(#filter2667)"
     d="m 137.20508,51.191026 c 0,0 -47.050968,33.224445 -48.365236,33.171875 -1.314269,-0.05257 -17.400391,-10.302734 -17.400391,-10.302734 0,0 6.466623,17.294616 5.783203,18.451172 -0.683419,1.156557 -21.291015,15.140621 -21.291015,15.140621 0,0 20.133958,-2.10268 20.501953,-1.20898 C 76.906731,107.54697 64.5,145.609 64.5,145.609 c 0,0 25.44338,-39.90252 26.705078,-40.58594 1.209127,-0.68342 24.867192,-1.47071 24.867192,-1.47071 0,0 -15.98275,-10.040868 -16.087895,-11.249996 C 99.87923,91.093227 137.20508,51.191026 137.20508,51.191026 Z m -33.27735,15.876953 c -5.572492,0 -11.565688,0.892774 -17.611324,2.837891 -0.841132,0.262854 -1.682305,0.579106 -2.523437,0.894531 4.25823,-1.103986 8.463607,-1.628906 12.458984,-1.628906 3.679956,0 7.150437,0.420587 10.304687,1.261719 l 4.15234,-2.892578 c -2.1554,-0.315425 -4.46814,-0.472657 -6.78125,-0.472657 z m 19.92383,4.835938 c -1.62969,1.734834 -3.36444,3.575875 -4.99414,5.363281 2.1554,2.260542 3.73293,4.888396 4.52149,7.9375 3.67995,13.826106 -9.46258,30.228782 -29.439457,36.589842 -3.837665,1.20913 -7.622781,1.99707 -11.302734,2.3125 l -2.996094,4.73242 c 1.314269,0.10514 2.629254,0.15625 3.996094,0.15625 5.62507,0 11.616479,-0.89293 17.662111,-2.89062 22.39514,-7.20219 37.22145,-25.60296 33.06836,-41.111329 -1.47198,-5.5725 -5.25855,-9.98817 -10.51563,-13.089844 z M 55.195312,115.74767 c 2.786251,4.88908 7.569599,8.56937 13.615235,10.77734 l 0.947265,-3.10156 c -6.045636,-1.2617 -11.1454,-3.83812 -14.5625,-7.67578 z" />
  <path
     id="path849"
     style="fill:#ffffff;stroke-width:0.525707"
     d="M 137.20508 49.191406 C 137.20508 49.191406 90.154112 82.415851 88.839844 82.363281 C 87.525575 82.31071 71.439453 72.060547 71.439453 72.060547 C 71.439453 72.060547 77.906076 89.355163 77.222656 90.511719 C 76.539237 91.668276 55.931641 105.65234 55.931641 105.65234 C 55.931641 105.65234 76.065599 103.54966 76.433594 104.44336 C 76.906731 105.54735 64.5 143.60938 64.5 143.60938 C 64.5 143.60938 89.94338 103.70686 91.205078 103.02344 C 92.414205 102.34002 116.07227 101.55273 116.07227 101.55273 C 116.07227 101.55273 100.08952 91.511862 99.984375 90.302734 C 99.87923 89.093607 137.20508 49.191406 137.20508 49.191406 z M 103.92773 65.068359 C 98.355238 65.068359 92.362042 65.961133 86.316406 67.90625 C 85.475274 68.169104 84.634101 68.485356 83.792969 68.800781 C 88.051199 67.696795 92.256576 67.171875 96.251953 67.171875 C 99.931909 67.171875 103.40239 67.592462 106.55664 68.433594 L 110.70898 65.541016 C 108.55358 65.225591 106.24084 65.068359 103.92773 65.068359 z M 123.85156 69.904297 C 122.22187 71.639131 120.48712 73.480172 118.85742 75.267578 C 121.01282 77.52812 122.59035 80.155974 123.37891 83.205078 C 127.05886 97.031184 113.91633 113.43386 93.939453 119.79492 C 90.101788 121.00405 86.316672 121.79199 82.636719 122.10742 L 79.640625 126.83984 C 80.954894 126.94498 82.269879 126.99609 83.636719 126.99609 C 89.261789 126.99609 95.253198 126.10316 101.29883 124.10547 C 123.69397 116.90328 138.52028 98.502511 134.36719 82.994141 C 132.89521 77.421641 129.10864 73.005971 123.85156 69.904297 z M 55.195312 113.74805 C 57.981563 118.63713 62.764911 122.31742 68.810547 124.52539 L 69.757812 121.42383 C 63.712176 120.16213 58.612412 117.58571 55.195312 113.74805 z " />
  <path
     style="opacity:0.1;fill:#ffffff;stroke-width:4"
     d="M 96 16 A 80 80 0 0 0 16 96 A 80 80 0 0 0 16.019531 96.472656 A 80 80 0 0 1 96 17 A 80 80 0 0 1 175.97461 96.513672 A 80 80 0 0 0 176 96 A 80 80 0 0 0 96 16 z "
     id="path6" />
</svg>
