<svg xmlns="http://www.w3.org/2000/svg" width="192" height="192" version="1">
 <g transform="scale(4)">
  <path style="opacity:0.2" d="m 24,8.5 c -4.432,0 -8,3.568 -8,8 v 1 c 0,-4.432 3.568,-8 8,-8 4.432,0 8,3.568 8,8 v -1 c 0,-4.432 -3.568,-8 -8,-8 z"/>
  <path style="opacity:0.2" d="m 8,41.5 v 1 c 0,1.108 0.892,2 2,2 h 28 c 1.108,0 2,-0.892 2,-2 v -1 c 0,1.108 -0.892,2 -2,2 H 10 c -1.108,0 -2,-0.892 -2,-2 z"/>
  <path fill="#d2d2d2" d="m24 4c-6.648 0-12 5.352-12 12v4h4v-3c0-4.432 3.568-8 8-8s8 3.568 8 8v3h4v-4c0-6.648-5.352-12-12-12z"/>
  <rect fill="#fecd38" width="24" height="32" x="-44" y="-40" rx="2" ry="2" transform="matrix(0,-1,-1,0,0,0)"/>
  <path style="fill:#ffffff;opacity:0.2" d="M 24 4 C 17.352 4 12 9.352 12 16 L 12 16.5 C 12 9.852 17.352 4.5 24 4.5 C 30.648 4.5 36 9.852 36 16.5 L 36 16 C 36 9.352 30.648 4 24 4 z"/>
  <path style="fill:#ffffff;opacity:0.2" d="M 10 20 C 8.892 20 8 20.892 8 22 L 8 22.5 C 8 21.392 8.892 20.5 10 20.5 L 38 20.5 C 39.108 20.5 40 21.392 40 22.5 L 40 22 C 40 20.892 39.108 20 38 20 L 10 20 z"/>
  <path fill="#cb9a05" d="m8 40v2c0 1.108 0.892 2 2 2h28c1.108 0 2-0.892 2-2v-2c0 1.108-0.892 2-2 2h-28c-1.108 0-2-0.892-2-2z"/>
  <rect fill="#fed96a" width="32" height="14" x="8" y="24" rx="0" ry="0"/>
 </g>
</svg>
