<?xml version="1.0" encoding="UTF-8" standalone="no"?>
<svg
   width="192"
   height="192"
   version="1"
   id="svg40"
   sodipodi:docname="apps_microsoft_swiftkey.svg"
   inkscape:version="1.1-rc (1:1.1+rc+202105232036+f4db50c7c1)"
   xmlns:inkscape="http://www.inkscape.org/namespaces/inkscape"
   xmlns:sodipodi="http://sodipodi.sourceforge.net/DTD/sodipodi-0.dtd"
   xmlns="http://www.w3.org/2000/svg"
   xmlns:svg="http://www.w3.org/2000/svg"
   xmlns:rdf="http://www.w3.org/1999/02/22-rdf-syntax-ns#"
   xmlns:cc="http://creativecommons.org/ns#"
   xmlns:dc="http://purl.org/dc/elements/1.1/">
  <metadata
     id="metadata46">
    <rdf:RDF>
      <cc:Work
         rdf:about="">
        <dc:format>image/svg+xml</dc:format>
        <dc:type
           rdf:resource="http://purl.org/dc/dcmitype/StillImage" />
      </cc:Work>
    </rdf:RDF>
  </metadata>
  <defs
     id="defs44">
    <filter
       inkscape:collect="always"
       style="color-interpolation-filters:sRGB"
       id="filter3888"
       x="-0.06573913"
       y="-0.0378"
       width="1.1314783"
       height="1.0756">
      <feGaussianBlur
         inkscape:collect="always"
         stdDeviation="2.52"
         id="feGaussianBlur3890" />
    </filter>
    <filter
       inkscape:collect="always"
       style="color-interpolation-filters:sRGB"
       id="filter3930"
       x="-0.048000002"
       y="-0.048000002"
       width="1.096"
       height="1.096">
      <feGaussianBlur
         inkscape:collect="always"
         stdDeviation="2.16"
         id="feGaussianBlur3932" />
    </filter>
    <filter
       inkscape:collect="always"
       style="color-interpolation-filters:sRGB"
       id="filter3972"
       x="-0.036196722"
       y="-0.071225808"
       width="1.0723934"
       height="1.1424516">
      <feGaussianBlur
         inkscape:collect="always"
         stdDeviation="1.84"
         id="feGaussianBlur3974" />
    </filter>
    <filter
       inkscape:collect="always"
       style="color-interpolation-filters:sRGB"
       id="filter4014"
       x="-0.041349398"
       y="-0.0572"
       width="1.0826988"
       height="1.1144">
      <feGaussianBlur
         inkscape:collect="always"
         stdDeviation="1.4300001"
         id="feGaussianBlur4016" />
    </filter>
  </defs>
  <sodipodi:namedview
     pagecolor="#ffffff"
     bordercolor="#666666"
     borderopacity="1"
     objecttolerance="10"
     gridtolerance="10"
     guidetolerance="10"
     inkscape:pageopacity="0"
     inkscape:pageshadow="2"
     inkscape:window-width="1920"
     inkscape:window-height="1019"
     id="namedview42"
     showgrid="false"
     inkscape:zoom="1"
     inkscape:cx="190.5"
     inkscape:cy="48.5"
     inkscape:window-x="0"
     inkscape:window-y="34"
     inkscape:window-maximized="1"
     inkscape:current-layer="svg40"
     inkscape:document-rotation="0"
     inkscape:snap-bbox="true"
     inkscape:snap-bbox-midpoints="true"
     inkscape:pagecheckerboard="0">
    <inkscape:grid
       type="xygrid"
       id="grid870" />
  </sodipodi:namedview>
  <rect
     id="rect3850"
     transform="matrix(0,-1,-1,0,0,0)"
     ry="8"
     rx="8"
     y="-176"
     x="-180"
     height="160"
     width="92"
     style="opacity:0.2;fill:#000000;fill-opacity:1;stroke-width:4.12759;filter:url(#filter3888)" />
  <rect
     id="rect4"
     transform="matrix(0,-1,-1,0,0,0)"
     ry="8"
     rx="8"
     y="-176"
     x="-176"
     height="160"
     width="92"
     style="fill:#b6b7ce;fill-opacity:1;stroke-width:4.12759" />
  <path
     id="rect4018"
     style="opacity:0.2;fill:#ffffff;fill-opacity:1;stroke-width:4.12759"
     d="m 24,84 c -4.432,0 -8,3.568 -8,8 v 1 c 0,-4.432 3.568,-8 8,-8 h 144 c 4.432,0 8,3.568 8,8 v -1 c 0,-4.432 -3.568,-8 -8,-8 z" />
  <path
     id="path3934"
     style="opacity:0.2;fill:#000000;fill-opacity:1;stroke-width:4.24264;filter:url(#filter3972)"
     d="m 39.5,108 c -2.493,0 -4.5,1.784 -4.5,4 v 8 c 0,2.216 2.007,4 4.5,4 h 9 c 2.493,0 4.5,-1.784 4.5,-4 v -8 c 0,-2.216 -2.007,-4 -4.5,-4 z m 26,0 c -2.493,0 -4.5,1.784 -4.5,4 v 8 c 0,2.216 2.007,4 4.5,4 h 9 c 2.493,0 4.5,-1.784 4.5,-4 v -8 c 0,-2.216 -2.007,-4 -4.5,-4 z m 26,0 c -2.493,0 -4.5,1.784 -4.5,4 v 8 c 0,2.216 2.007,4 4.5,4 h 9 c 2.493,0 4.5,-1.784 4.5,-4 v -8 c 0,-2.216 -2.007,-4 -4.5,-4 z m 26,0 c -2.493,0 -4.5,1.784 -4.5,4 v 8 c 0,2.216 2.007,4 4.5,4 h 9 c 2.493,0 4.5,-1.784 4.5,-4 v -8 c 0,-2.216 -2.007,-4 -4.5,-4 z m 26,0 c -2.493,0 -4.5,1.784 -4.5,4 v 8 c 0,2.216 2.007,4 4.5,4 h 9 c 2.493,0 4.5,-1.784 4.5,-4 v -8 c 0,-2.216 -2.007,-4 -4.5,-4 z m -91,23 c -2.493,0 -4.5,1.784 -4.5,4 v 8 c 0,2.216 2.007,4 4.5,4 h 9 c 2.493,0 4.5,-1.784 4.5,-4 v -8 c 0,-2.216 -2.007,-4 -4.5,-4 z m 26,0 c -2.493,0 -4.5,1.784 -4.5,4 v 8 c 0,2.216 2.007,4 4.5,4 h 9 c 2.493,0 4.5,-1.784 4.5,-4 v -8 c 0,-2.216 -2.007,-4 -4.5,-4 z m 26,0 c -2.493,0 -4.5,1.784 -4.5,4 v 8 c 0,2.216 2.007,4 4.5,4 h 9 c 2.493,0 4.5,-1.784 4.5,-4 v -8 c 0,-2.216 -2.007,-4 -4.5,-4 z m 26,0 c -2.493,0 -4.5,1.784 -4.5,4 v 8 c 0,2.216 2.007,4 4.5,4 h 9 c 2.493,0 4.5,-1.784 4.5,-4 v -8 c 0,-2.216 -2.007,-4 -4.5,-4 z M 71,154 c -2.216,0 -4,1.784 -4,4 v 8 c 0,2.216 1.784,4 4,4 h 50 c 2.216,0 4,-1.784 4,-4 v -8 c 0,-2.216 -1.784,-4 -4,-4 z" />
  <path
     id="rect28"
     style="fill:#ffffff;fill-opacity:1;stroke-width:4.24264"
     d="m 39.5,106 c -2.493,0 -4.5,1.784 -4.5,4 v 8 c 0,2.216 2.007,4 4.5,4 h 9 c 2.493,0 4.5,-1.784 4.5,-4 v -8 c 0,-2.216 -2.007,-4 -4.5,-4 z m 26,0 c -2.493,0 -4.5,1.784 -4.5,4 v 8 c 0,2.216 2.007,4 4.5,4 h 9 c 2.493,0 4.5,-1.784 4.5,-4 v -8 c 0,-2.216 -2.007,-4 -4.5,-4 z m 26,0 c -2.493,0 -4.5,1.784 -4.5,4 v 8 c 0,2.216 2.007,4 4.5,4 h 9 c 2.493,0 4.5,-1.784 4.5,-4 v -8 c 0,-2.216 -2.007,-4 -4.5,-4 z m 26,0 c -2.493,0 -4.5,1.784 -4.5,4 v 8 c 0,2.216 2.007,4 4.5,4 h 9 c 2.493,0 4.5,-1.784 4.5,-4 v -8 c 0,-2.216 -2.007,-4 -4.5,-4 z m 26,0 c -2.493,0 -4.5,1.784 -4.5,4 v 8 c 0,2.216 2.007,4 4.5,4 h 9 c 2.493,0 4.5,-1.784 4.5,-4 v -8 c 0,-2.216 -2.007,-4 -4.5,-4 z m -91,23 c -2.493,0 -4.5,1.784 -4.5,4 v 8 c 0,2.216 2.007,4 4.5,4 h 9 c 2.493,0 4.5,-1.784 4.5,-4 v -8 c 0,-2.216 -2.007,-4 -4.5,-4 z m 26,0 c -2.493,0 -4.5,1.784 -4.5,4 v 8 c 0,2.216 2.007,4 4.5,4 h 9 c 2.493,0 4.5,-1.784 4.5,-4 v -8 c 0,-2.216 -2.007,-4 -4.5,-4 z m 26,0 c -2.493,0 -4.5,1.784 -4.5,4 v 8 c 0,2.216 2.007,4 4.5,4 h 9 c 2.493,0 4.5,-1.784 4.5,-4 v -8 c 0,-2.216 -2.007,-4 -4.5,-4 z m 26,0 c -2.493,0 -4.5,1.784 -4.5,4 v 8 c 0,2.216 2.007,4 4.5,4 h 9 c 2.493,0 4.5,-1.784 4.5,-4 v -8 c 0,-2.216 -2.007,-4 -4.5,-4 z M 71,152 c -2.216,0 -4,1.784 -4,4 v 8 c 0,2.216 1.784,4 4,4 h 50 c 2.216,0 4,-1.784 4,-4 v -8 c 0,-2.216 -1.784,-4 -4,-4 z" />
  <circle
     style="opacity:0.2;fill:#000000;fill-opacity:1;stroke-width:18.5954;stroke-linecap:round;stroke-linejoin:round;filter:url(#filter3930);stop-color:#000000"
     id="circle3892"
     cx="96"
     cy="72"
     r="54" />
  <circle
     style="fill:#3b7ff3;fill-opacity:1;stroke-width:18.5954;stroke-linecap:round;stroke-linejoin:round;stop-color:#000000"
     id="path3043"
     cx="96"
     cy="70"
     r="54" />
  <path
     id="path3976"
     style="opacity:0.2;fill:#000000;stroke-width:0.16349;filter:url(#filter4014)"
     d="m 90.018727,42.00084 c -1.313054,0 -2.593324,0.03126 -3.801385,0.08128 -4.246885,0.175064 -9.544339,0.573754 -10.68185,0.805506 -1.114893,0.227168 -0.495507,0.436829 1.394395,0.47205 19.606597,0.365135 35.465553,4.125069 45.637163,10.819838 8.46887,5.574147 12.63732,12.723877 13.07639,22.428303 0.1245,2.759771 0.3264,2.973183 0.73932,0.783206 1.00596,-5.334265 0.77085,-11.118907 -0.62146,-15.295661 -3.66465,-10.992818 -15.35182,-17.70176 -34.11245,-19.582248 -3.456315,-0.346378 -7.690544,-0.52707 -11.630123,-0.512274 z m -22.034544,4.137365 c -3.082401,-0.02917 -4.553156,0.07086 -4.553156,0.303446 0,0.147972 0.390514,0.246758 1.264294,0.321785 10.49925,0.902835 21.718939,3.210981 30.954726,6.3684 10.747003,3.674068 18.470743,8.100915 24.328863,13.94412 3.31169,3.303306 5.41241,6.27649 7.0087,9.919505 1.40021,3.195559 2.26216,6.753134 2.44123,10.074154 0.0498,0.902418 0.12449,1.880279 0.17015,2.173096 0.1411,0.930137 0.5009,0.628567 0.78414,-0.65545 1.45457,-6.591816 1.38361,-11.714554 -0.23158,-16.678683 C 128.34943,66.369236 124.36918,61.469088 118.53513,57.60766 108.2467,50.797847 91.651538,46.767397 71.610439,46.21094 70.219363,46.17134 69.012755,46.14842 67.98522,46.138 Z m -13.481015,3.117196 c -0.257299,0 -0.413961,0.02917 -0.450896,0.06461 -0.190898,0.189653 0.17015,0.469132 0.612123,0.473092 0.528086,0 5.994236,1.162305 8.98762,1.90383 16.254033,4.02524 31.018014,10.52973 40.934185,18.034384 9.8944,7.488188 15.62531,15.582027 18.22321,25.73724 0.0975,0.383061 0.27556,0.69651 0.39488,0.69651 0.27866,0 0.39257,-0.798842 0.52538,-3.686572 C 124.1374,83.61167 121.07742,75.892137 114.56795,69.366388 105.44587,60.221961 89.03705,53.599301 67.917368,50.538375 63.021424,49.828738 56.303224,49.203507 54.503168,49.254984 Z M 103.40617,75.30421 c -0.0291,0 -0.0498,0 -0.0643,0 -0.10375,0.06252 -0.92213,0.611685 -1.81936,1.219827 -11.016546,7.467355 -27.01079,13.747597 -43.707833,17.161988 -2.201152,0.450167 -3.766942,0.8476 -3.806158,0.965563 -0.08923,0.268853 0.952629,0.258017 4.514767,-0.04584 13.98088,-1.196065 27.05146,-4.084009 37.505891,-8.28744 3.952653,-1.589547 9.139303,-4.319307 12.426303,-6.539929 0.20127,-0.135467 0.0373,-0.36055 -0.89703,-1.237542 -1.60854,-1.510559 -3.71838,-3.146789 -4.15267,-3.238282 z m 8.46409,8.25098 c -0.0519,0 -1.00533,0.52165 -2.12064,1.166681 -8.54025,4.939537 -20.2845,8.81514 -33.691645,11.118281 -3.405683,0.585008 -8.532158,1.252754 -10.796389,1.406152 -1.657089,0.112539 -1.960453,0.214032 -1.733863,0.582292 0.157699,0.256559 10.625618,0.07091 14.911721,-0.26426 10.558595,-0.826347 19.387062,-2.454871 27.081336,-4.995604 3.99354,-1.318819 9.46051,-3.678026 9.46051,-4.082759 0,-0.323036 -2.89814,-4.916611 -3.11103,-4.930783 z m 5.32754,9.538325 c -0.0456,-0.04584 -0.76443,0.217369 -1.59796,0.58396 -9.38788,4.129658 -22.192028,6.585145 -35.923495,6.889425 -3.365013,0.075 -4.735753,0.1584 -4.78078,0.29533 -0.03527,0.1042 0.07055,0.2305 0.231361,0.27906 0.408359,0.12295 5.20574,0.57438 7.961951,0.75048 3.484742,0.22279 14.696959,0.0792 17.699893,-0.22654 6.82132,-0.69463 13.00459,-1.966352 17.16328,-3.529848 l 0.93189,-0.350342 -0.80199,-2.304189 c -0.44114,-1.267546 -0.83891,-2.341693 -0.88415,-2.387336 z" />
  <path
     id="path3649"
     style="fill:#ffffff;stroke-width:0.16349"
     d="m 90.018727,40.000841 c -1.313054,0 -2.593324,0.03126 -3.801385,0.08128 -4.246885,0.175064 -9.544339,0.573754 -10.68185,0.805506 -1.114893,0.227168 -0.495507,0.436829 1.394395,0.47205 19.606597,0.365135 35.465553,4.125069 45.637163,10.819838 8.46887,5.574147 12.63732,12.723877 13.07639,22.428303 0.1245,2.759771 0.3264,2.973183 0.73932,0.783206 1.00596,-5.334265 0.77085,-11.118907 -0.62146,-15.295661 -3.66465,-10.992818 -15.35182,-17.70176 -34.11245,-19.582248 -3.456315,-0.346378 -7.690544,-0.52707 -11.630123,-0.512274 z m -22.034544,4.137365 c -3.082401,-0.02917 -4.553156,0.07086 -4.553156,0.303446 0,0.147972 0.390514,0.246758 1.264294,0.321785 10.49925,0.902835 21.718939,3.210981 30.954726,6.3684 10.747003,3.674068 18.470743,8.100915 24.328863,13.94412 3.31169,3.303306 5.41241,6.27649 7.0087,9.919505 1.40021,3.195559 2.26216,6.753134 2.44123,10.074154 0.0498,0.902418 0.12449,1.880279 0.17015,2.173096 0.1411,0.930137 0.5009,0.628567 0.78414,-0.65545 1.45457,-6.591816 1.38361,-11.714554 -0.23158,-16.678683 -1.80212,-5.539342 -5.78237,-10.43949 -11.61642,-14.300918 -10.28843,-6.809813 -26.883592,-10.840263 -46.924691,-11.39672 -1.391076,-0.0396 -2.597684,-0.06252 -3.625219,-0.07294 z m -13.481015,3.117196 c -0.257299,0 -0.413961,0.02917 -0.450896,0.06461 -0.190898,0.189653 0.17015,0.469132 0.612123,0.473092 0.528086,0 5.994236,1.162305 8.98762,1.90383 16.254033,4.02524 31.018014,10.52973 40.934185,18.034384 9.8944,7.488188 15.62531,15.582027 18.22321,25.73724 0.0975,0.383061 0.27556,0.69651 0.39488,0.69651 0.27866,0 0.39257,-0.798842 0.52538,-3.686572 0.40773,-8.866825 -2.65225,-16.586358 -9.16172,-23.112107 -9.12208,-9.144427 -25.5309,-15.767087 -46.650582,-18.828013 -4.895944,-0.709637 -11.614144,-1.334868 -13.4142,-1.283391 z m 48.903002,26.048809 c -0.0291,0 -0.0498,0 -0.0643,0 -0.10375,0.06252 -0.92213,0.611685 -1.81936,1.219827 -11.016546,7.467355 -27.01079,13.747597 -43.707833,17.161988 -2.201152,0.450167 -3.766942,0.8476 -3.806158,0.965563 -0.08923,0.268853 0.952629,0.258017 4.514767,-0.04584 13.98088,-1.196065 27.05146,-4.084009 37.505891,-8.28744 3.952653,-1.589547 9.139303,-4.319307 12.426303,-6.539929 0.20127,-0.135467 0.0373,-0.36055 -0.89703,-1.237542 -1.60854,-1.510559 -3.71838,-3.146789 -4.15267,-3.238282 z m 8.46409,8.25098 c -0.0519,0 -1.00533,0.52165 -2.12064,1.166681 -8.54025,4.939537 -20.2845,8.81514 -33.691645,11.118281 -3.405683,0.585008 -8.532158,1.252754 -10.796389,1.406152 -1.657089,0.112539 -1.960453,0.214032 -1.733863,0.582292 0.157699,0.256559 10.625618,0.07091 14.911721,-0.26426 10.558595,-0.826347 19.387062,-2.454871 27.081336,-4.995604 3.99354,-1.318819 9.46051,-3.678026 9.46051,-4.082759 0,-0.323036 -2.89814,-4.916611 -3.11103,-4.930783 z m 5.32754,9.538325 c -0.0456,-0.04584 -0.76443,0.217369 -1.59796,0.58396 -9.38788,4.129658 -22.192028,6.585148 -35.923495,6.889423 -3.365013,0.075 -4.735753,0.1584 -4.78078,0.29533 -0.03527,0.1042 0.07055,0.2305 0.231361,0.27906 0.408359,0.12295 5.20574,0.57438 7.961951,0.75048 3.484742,0.222791 14.696959,0.0792 17.699893,-0.22654 6.82132,-0.69463 13.00459,-1.96635 17.16328,-3.529846 l 0.93189,-0.350342 -0.80199,-2.304189 c -0.44114,-1.267546 -0.83891,-2.341693 -0.88415,-2.387336 z" />
  <path
     id="circle4020"
     style="opacity:0.2;fill:#ffffff;fill-opacity:1;stroke-width:18.5954;stroke-linecap:round;stroke-linejoin:round;stop-color:#000000"
     d="M 96,16 A 54,54 0 0 0 42,70 54,54 0 0 0 42.035156,70.5 54,54 0 0 1 96,17 54,54 0 0 1 149.98242,70.253906 54,54 0 0 0 150,70 54,54 0 0 0 96,16 Z" />
</svg>
