<svg width="48" height="48" version="1" xmlns="http://www.w3.org/2000/svg">
 <rect transform="matrix(0,-1,-1,0,0,0)" x="-45" y="-44" width="40" height="40" rx="20" ry="20" style="fill:#000000;opacity:.2;stroke-width:1.0009008"/>
 <path transform="matrix(0,-1,-1,0,0,0)" d="m-24-44c0.562626 0 1.550717 0.885069 2.101319 0.930183 10.292604 0.843344 16.174543 8.552443 16.174543 19.069817 0 7.671031-2.6122522 14.325839-8.9200621 17.68289-2.80316 1.4918572-5.946831 2.3171103-9.3558 2.3171103-11.08 0-20-8.92-20-20s8.92-20 20-20z" style="fill:#3878b7;stroke-width:1.0009008"/>
 <path d="m24 4.9994392c-8.213387 0-15.230403 4.9075696-18.316406 11.957031-0.1571361 0.465952-0.3519534 1.109378-0.5019532 1.705078-1.8547536 7.365886 0.4753781 14.210551 6.2597654 18.891126 1.419705 1.148794 4.1986 2.490205 6.257813 3.019531 1.220174 0.313646 2.5097 0.437256 3.791677 0.427234 9.509104 0 14.366084-7.187107 14.509104-13.269531 0-6.730469-3.466322-9.474124-7.482422-10.447266-2.813925-0.67347-5.800913 0.191703-7.583984 2.197266-0.754245 0.848358-1.431089 2.242505-1.511719 3.115234l-0.06055 0.654297 0.314453-0.419922c1.329197-1.779624 2.694477-2.519084 4.464844-2.417969 3.674517 0.660304 4.861094 3.313413 4.859375 5.498047 0.161776 2.906419-1.972132 5.063567-4.496094 6.354547-1.806278 0.887607-3.274428 1.045878-5.179687 0.558594-3.402825-0.870293-6.309529-3.702407-7.132813-7.385797-0.286159-1.280233-0.302567-3.683957-0.0332-5.091797 1.039994-5.435545 4.92245-9.653781 10.072266-10.945312 3.955675-0.99204 8.533499-0.372606 11.779297 1.5937502 4.552539 2.758003 7.561144 6.756027 8.664062 11.511718 0.342358 1.476227 0.545776 3.859808 0.441406 5.19336-0.130253 1.664986-0.655759 4.108995-1.193359 5.560547-0.374933 1.012339-0.863869 2.053666-1.410156 3.046875 2.199286-3.212962 3.488281-7.102368 3.488281-11.306641 0-11.08-8.92-20-20-20z" style="fill:#000000;opacity:.2;stroke-width:.14"/>
 <path d="m24 4c-8.213387 0-15.230403 4.9075696-18.316406 11.957031-0.1571361 0.465952-0.3519534 1.109378-0.5019532 1.705078-1.8547536 7.365886 0.4753781 14.210551 6.2597654 18.891126 1.419705 1.148794 4.1986 2.490205 6.257813 3.019531 1.220174 0.313646 2.5097 0.437256 3.791677 0.427234 9.509104 0 14.366084-7.187107 14.509104-13.269531 0-6.730469-3.466322-9.474124-7.482422-10.447266-2.813925-0.67347-5.800913 0.191703-7.583984 2.197266-0.754245 0.848358-1.431089 2.242505-1.511719 3.115234l-0.060547 0.654297 0.314453-0.419922c1.329197-1.779624 2.694477-2.519084 4.464844-2.417969 3.674517 0.660304 4.861094 3.313413 4.859375 5.498047 0.161776 2.906419-1.972132 5.063567-4.496094 6.354547-1.806278 0.887607-3.274428 1.045878-5.179687 0.558594-3.402825-0.870293-6.309529-3.702407-7.132813-7.385797-0.286159-1.280233-0.302567-3.683957-0.0332-5.091797 1.039994-5.435545 4.92245-9.6537809 10.072266-10.945312 3.955675-0.99204 8.533499-0.372606 11.779297 1.59375 4.552539 2.7580034 7.561144 6.7560274 8.664062 11.511718 0.342358 1.476227 0.545776 3.859808 0.441406 5.19336-0.130253 1.664986-0.655759 4.108995-1.193359 5.560547-0.374933 1.012339-0.863869 2.053666-1.410156 3.046875 2.199283-3.212962 3.488278-7.102368 3.488278-11.306641 0-11.08-8.92-20-20-20z" style="fill:#df6040;stroke-width:.14"/>
 <path d="m24 4c-11.08 0-20 8.92-20 20 0 0.167874 0.007647 0.333141 0.0117188 0.5 0.2646716-10.846137 9.0761552-19.5 19.988281-19.5s19.72361 8.653863 19.988281 19.5c0.004072-0.166859 0.011719-0.332126 0.011719-0.5 0-11.08-8.92-20-20-20z" style="fill:#ffffff;opacity:.1;stroke-width:1.0009008"/>
 <circle cx="24" cy="24.999439" r="5" style="fill:#000000;opacity:.2"/>
 <circle cx="24" cy="24" r="5" style="fill:#ffffff"/>
</svg>
