<?xml version="1.0" encoding="UTF-8" standalone="no"?>
<svg
   width="192"
   height="192"
   version="1"
   id="svg14"
   sodipodi:docname="apps_tokocrypto.svg"
   inkscape:version="1.1.1 (1:1.1+202109281949+c3084ef5ed)"
   xmlns:inkscape="http://www.inkscape.org/namespaces/inkscape"
   xmlns:sodipodi="http://sodipodi.sourceforge.net/DTD/sodipodi-0.dtd"
   xmlns="http://www.w3.org/2000/svg"
   xmlns:svg="http://www.w3.org/2000/svg"
   xmlns:rdf="http://www.w3.org/1999/02/22-rdf-syntax-ns#"
   xmlns:cc="http://creativecommons.org/ns#"
   xmlns:dc="http://purl.org/dc/elements/1.1/">
  <metadata
     id="metadata20">
    <rdf:RDF>
      <cc:Work
         rdf:about="">
        <dc:format>image/svg+xml</dc:format>
        <dc:type
           rdf:resource="http://purl.org/dc/dcmitype/StillImage" />
      </cc:Work>
    </rdf:RDF>
  </metadata>
  <defs
     id="defs18">
    <filter
       inkscape:collect="always"
       style="color-interpolation-filters:sRGB"
       id="filter850"
       x="-0.048000001"
       width="1.096"
       y="-0.048000001"
       height="1.096">
      <feGaussianBlur
         inkscape:collect="always"
         stdDeviation="3.2"
         id="feGaussianBlur852" />
    </filter>
    <filter
       inkscape:collect="always"
       style="color-interpolation-filters:sRGB"
       id="filter7492"
       x="-0.071591115"
       y="-0.078749754"
       width="1.1431822"
       height="1.1574995">
      <feGaussianBlur
         inkscape:collect="always"
         stdDeviation="3.9375142"
         id="feGaussianBlur7494" />
    </filter>
  </defs>
  <sodipodi:namedview
     pagecolor="#ffffff"
     bordercolor="#666666"
     borderopacity="1"
     objecttolerance="10"
     gridtolerance="10"
     guidetolerance="10"
     inkscape:pageopacity="0"
     inkscape:pageshadow="2"
     inkscape:window-width="1920"
     inkscape:window-height="1019"
     id="namedview16"
     showgrid="false"
     inkscape:zoom="1"
     inkscape:cx="134"
     inkscape:cy="87.5"
     inkscape:window-x="0"
     inkscape:window-y="34"
     inkscape:window-maximized="1"
     inkscape:current-layer="svg14"
     inkscape:pagecheckerboard="0"
     inkscape:snap-bbox="true"
     inkscape:snap-bbox-midpoints="true"
     inkscape:snap-global="true">
    <inkscape:grid
       type="xygrid"
       id="grid5193" />
  </sodipodi:namedview>
  <circle
     style="opacity:0.2;fill:#000000;stroke-width:4;filter:url(#filter850)"
     cx="96"
     cy="100"
     r="80"
     id="circle832" />
  <circle
     id="circle4"
     r="80"
     cy="96"
     cx="96"
     style="fill:#e4e4e4;stroke-width:4;fill-opacity:1" />
  <path
     id="path7449"
     style="opacity:0.2;fill:#000000;fill-opacity:1;stroke-width:0.257192;filter:url(#filter7492)"
     d="m 98.267578,38.003439 c -11.87733,-0.136946 -24.368518,3.03792 -33.808594,8.90625 -5.699784,3.543226 -6.960746,5.225343 -5.78125,7.710938 0.5029,1.059785 9.940873,10.782699 12.035157,12.398437 2.260006,1.743579 2.62589,1.306149 7.443359,-1.1875 7.135157,-3.693337 11.124238,-4.736097 18.017578,-4.710937 3.48465,0.01273 4.919972,0.131783 7.072262,0.585937 10.54859,2.225879 17.99016,8.016635 24.49414,17.689453 0.85736,1.275071 2.04882,2.796133 2.64844,3.378907 1.23133,1.19672 3.67345,2.583203 5.16602,2.933593 4.05513,0.95198 9.17187,-0.515525 12.44922,-3.798828 1.24998,-1.252245 1.84223,-2.085775 2.24218,-3.158203 1.52093,-4.078202 0.80861,-7.576071 -2.75586,-12.96875 -9.33304,-14.119971 -22.60003,-23.223804 -37.68554,-26.515625 -3.68664,-0.804463 -7.578,-1.218023 -11.537112,-1.263672 z M 51.435547,59.870627 c -1.217653,-0.116016 -2.320128,0.562254 -3.521485,2.074218 -3.65247,4.596807 -7.434437,12.01449 -9.353515,18.345704 -1.099116,3.626091 -1.41847,4.255712 -2.609375,5.164062 -0.888596,0.677716 -1.127929,0.526741 -4.435547,0.681641 -2.696237,0.12627 -3.837528,0.293128 -4.980469,0.730469 -2.986591,1.14284 -5.720819,4.074183 -6.904297,7.095703 -0.834727,2.13114 -0.842286,5.706333 -0.01563,8.099606 1.171477,3.39156 3.721448,5.96474 7.078125,7.14453 0.876386,0.30802 2.944729,0.65987 5.048829,0.85742 5.042563,0.47342 4.86649,0.30914 6.976562,6.5586 1.399686,4.14549 4.279071,10.21859 6.527344,13.77148 9.036426,14.28006 22.118544,23.26041 39.353515,27.01172 4.722319,1.02786 6.87458,0.76441 7.84961,-1.12109 0.51244,-0.99089 0.809054,-11.62471 0.464843,-16.67383 -0.221459,-3.24875 -0.268283,-3.44482 -0.964843,-4.17188 -0.52615,-0.54918 -1.422042,-0.97915 -3.197266,-1.53125 -3.706093,-1.1526 -7.542849,-3.39668 -11.789062,-7.4375 -6.311411,-6.00612 -12.028652,-14.67253 -10.613282,-16.08789 0.269465,-0.26947 2.255825,-0.27269 9.041016,-0.38281 11.353851,-0.18427 12.999866,-0.63622 15.996094,-3.49414 2.73563,-2.60936 4.041012,-6.32112 3.445312,-9.798826 -0.38666,-2.25731 -1.825303,-5.206818 -3.314453,-6.798828 -1.39475,-1.49111 -4.116895,-2.946987 -6.246094,-3.341797 -0.762431,-0.14137 -5.650684,-0.566406 -10.873046,-0.566406 -10.172456,0 -10.885232,0.229512 -11.539063,-0.992188 -0.513091,-0.958719 0.395881,-3.323047 2.574219,-6.693359 0.562753,-0.870685 1.095613,-1.966597 1.183594,-2.435547 0.337218,-1.797533 -0.172282,-2.508823 -6.035157,-8.429687 -3.057384,-3.087634 -6.110886,-6.01967 -6.785156,-6.517578 -0.85924,-0.63449 -1.630737,-0.990938 -2.361328,-1.060547 z M 137.5293,111.00148 c -2.84736,-0.0225 -5.36226,0.84261 -7.24219,2.54102 -0.59732,0.53963 -2.10974,2.49427 -3.35938,4.34375 -5.95457,8.81289 -12.53682,13.65922 -22.45507,16.2539 -3.2684,0.85502 -4.0941,1.49229 -4.3711,3.375 -0.0895,0.61018 -0.126429,4.92962 -0.082,9.59766 0.0886,9.31596 0.14888,9.69038 1.69141,10.52734 1.37132,0.74408 4.86992,0.33344 10.63672,-1.24804 14.53099,-3.98495 27.16052,-13.73505 34.92187,-26.73242 2.75565,-4.61471 3.32084,-7.1279 2.32422,-10.33008 -1.17261,-3.76756 -4.21823,-6.71323 -8.00391,-7.74219 -1.40343,-0.38146 -2.76629,-0.57572 -4.06054,-0.58594 z" />
  <path
     style="fill:#38adfa"
     d="m 688.80525,256.99648 c -0.33229,-0.33229 -1.1948,-0.36781 -1.91667,-0.0789 -0.79773,0.31922 -0.56078,0.55618 0.60417,0.60416 1.05416,0.0434 1.64479,-0.19293 1.3125,-0.52522 z"
     id="path1063" />
  <path
     style="opacity:0.2;fill:#ffffff;stroke-width:4"
     d="M 96 16 A 80 80 0 0 0 16 96 A 80 80 0 0 0 16.019531 96.472656 A 80 80 0 0 1 96 17 A 80 80 0 0 1 175.97461 96.513672 A 80 80 0 0 0 176 96 A 80 80 0 0 0 96 16 z "
     id="path6" />
  <path
     style="fill:#10b046;fill-opacity:1;stroke-width:0.257192"
     d="m 135.55445,83.708937 c -1.49257,-0.35039 -3.93441,-1.7373 -5.16574,-2.93402 -0.59962,-0.582774 -1.7917,-2.10282 -2.64906,-3.377891 -6.50398,-9.672818 -13.94452,-15.464822 -24.49311,-17.690701 -2.15229,-0.454154 -3.588144,-0.573081 -7.072794,-0.585812 -6.89334,-0.02516 -10.881527,1.017638 -18.016684,4.710975 -4.817469,2.493649 -5.184402,2.932564 -7.444408,1.188985 C 68.61837,63.404735 59.17979,53.681515 58.67689,52.62173 c -1.179496,-2.485595 0.08206,-4.168155 5.781844,-7.711381 12.586767,-7.824441 30.599662,-10.860226 45.346206,-7.642373 15.08551,3.291821 28.35264,12.395809 37.68568,26.51578 3.56447,5.392679 4.27569,8.889105 2.75476,12.967307 -0.39995,1.072428 -0.9918,1.906326 -2.24178,3.158571 -3.27735,3.283303 -8.39402,4.751283 -12.44915,3.799303 z"
     id="path1161"
     sodipodi:nodetypes="ssssssssssssss" />
  <path
     style="fill:#10b046;fill-opacity:1;stroke-width:0.257192"
     d="m 101.71012,155.64089 c -1.54253,-0.83696 -1.6028,-1.2121 -1.6914,-10.52806 -0.0444,-4.66804 -0.007,-8.98657 0.0825,-9.59674 0.277,-1.88271 1.10209,-2.51985 4.37049,-3.37487 9.91825,-2.59469 16.50221,-7.44227 22.45678,-16.25516 1.24964,-1.84948 2.76077,-3.80422 3.35809,-4.34385 2.73444,-2.47041 6.81157,-3.17561 11.30255,-1.95494 3.78568,1.02896 6.83178,3.97567 8.00439,7.74323 0.99662,3.20218 0.43104,5.71552 -2.32461,10.33023 -7.76135,12.99737 -20.39101,22.74736 -34.922,26.73231 -5.7668,1.58148 -9.26547,1.99193 -10.63679,1.24785 z"
     id="path1159"
     sodipodi:nodetypes="ssccscsscss" />
  <path
     style="fill:#0084cd;fill-opacity:1;stroke-width:0.257192"
     d="m 84.600099,155.40584 c -17.234971,-3.75131 -30.317882,-12.73077 -39.354308,-27.01083 -2.248273,-3.55289 -5.126549,-9.62701 -6.526235,-13.7725 -2.110072,-6.24946 -1.935437,-6.08532 -6.978,-6.55874 -2.1041,-0.19755 -4.171948,-0.54831 -5.048334,-0.85633 -3.356677,-1.17979 -5.90592,-3.75334 -7.077397,-7.1449 -0.826661,-2.393276 -0.820287,-5.968316 0.01444,-8.099456 1.183478,-3.02152 3.918423,-5.952714 6.905014,-7.095554 1.142941,-0.43734 2.283559,-0.60479 4.979796,-0.73106 3.307618,-0.1549 3.548242,-0.0027 4.436838,-0.680416 1.190905,-0.90835 1.508954,-1.53811 2.60807,-5.164201 1.919078,-6.331214 5.700924,-13.748914 9.353394,-18.34572 1.922171,-2.419143 3.592352,-2.707375 5.883658,-1.015403 0.67427,0.497908 3.727445,3.431524 6.784829,6.519158 5.862875,5.920864 6.371585,6.631446 6.034366,8.428979 -0.08798,0.46895 -0.620388,1.565015 -1.183141,2.4357 -2.178338,3.370312 -3.087481,5.733757 -2.57439,6.692477 C 63.51253,84.228744 64.225177,84 74.397632,84 c 5.222362,0 10.112206,0.424674 10.874637,0.566044 2.129199,0.39481 4.851367,1.85163 6.246117,3.34274 1.48915,1.59201 2.92636,4.54131 3.31302,6.79862 0.5957,3.47771 -0.70883,7.188476 -3.44446,9.797836 -2.996228,2.85792 -4.642613,3.31049 -15.996464,3.49476 -6.785191,0.11012 -8.771077,0.11342 -9.040542,0.38289 -1.41537,1.41536 4.301838,10.08159 10.613249,16.08771 4.246213,4.04082 8.083356,6.28537 11.789449,7.43797 1.775224,0.5521 2.671194,0.98085 3.197344,1.53003 0.69656,0.72706 0.74192,0.92347 0.96338,4.17222 0.34421,5.04912 0.0481,15.68285 -0.46434,16.67374 -0.97503,1.8855 -3.126606,2.14914 -7.848925,1.12128 z"
     id="path931"
     sodipodi:nodetypes="sssscsssssssssssssssssscsssccss" />
</svg>
