<?xml version="1.0" encoding="UTF-8" standalone="no"?>
<svg
   width="192"
   height="192"
   version="1.1"
   id="svg18"
   sodipodi:docname="apps_electron_cash.svg"
   inkscape:version="1.1-rc (1:1.1+rc+202105232036+f4db50c7c1)"
   xmlns:inkscape="http://www.inkscape.org/namespaces/inkscape"
   xmlns:sodipodi="http://sodipodi.sourceforge.net/DTD/sodipodi-0.dtd"
   xmlns="http://www.w3.org/2000/svg"
   xmlns:svg="http://www.w3.org/2000/svg">
  <defs
     id="defs22">
    <filter
       inkscape:collect="always"
       style="color-interpolation-filters:sRGB"
       id="filter857"
       x="-0.036571428"
       y="-0.06981818"
       width="1.0731429"
       height="1.1396364">
      <feGaussianBlur
         inkscape:collect="always"
         stdDeviation="2.56"
         id="feGaussianBlur859" />
    </filter>
    <filter
       inkscape:collect="always"
       style="color-interpolation-filters:sRGB"
       id="filter861"
       x="-0.047999999"
       y="-0.047999999"
       width="1.096"
       height="1.096">
      <feGaussianBlur
         inkscape:collect="always"
         stdDeviation="2.56"
         id="feGaussianBlur863" />
    </filter>
    <filter
       inkscape:collect="always"
       style="color-interpolation-filters:sRGB"
       id="filter865"
       x="-0.053637345"
       y="-0.043434943"
       width="1.1072747"
       height="1.0868699">
      <feGaussianBlur
         inkscape:collect="always"
         stdDeviation="1.7518762"
         id="feGaussianBlur867" />
    </filter>
  </defs>
  <sodipodi:namedview
     id="namedview20"
     pagecolor="#ffffff"
     bordercolor="#666666"
     borderopacity="1.0"
     inkscape:pageshadow="2"
     inkscape:pageopacity="0.0"
     inkscape:pagecheckerboard="0"
     showgrid="false"
     inkscape:zoom="3.75"
     inkscape:cx="68.933333"
     inkscape:cy="88.133333"
     inkscape:window-width="1920"
     inkscape:window-height="1019"
     inkscape:window-x="0"
     inkscape:window-y="34"
     inkscape:window-maximized="1"
     inkscape:current-layer="svg18" />
  <rect
     style="opacity:0.2;stroke-width:4;filter:url(#filter857)"
     width="168"
     height="88"
     x="12"
     y="56"
     rx="12"
     ry="12"
     id="rect2" />
  <rect
     style="fill:#0056c0;stroke-width:4"
     width="168"
     height="88"
     x="12"
     y="52"
     rx="12"
     ry="12"
     id="rect4" />
  <path
     id="path6"
     style="opacity:0.1;fill:#ffffff;stroke-width:4"
     d="M 24 52 C 17.352 52 12 57.352 12 64 L 12 65 C 12 58.352 17.352 53 24 53 L 168 53 C 174.648 53 180 58.352 180 65 L 180 64 C 180 57.352 174.648 52 168 52 L 24 52 z " />
  <circle
     style="opacity:0.2;stroke-width:4;filter:url(#filter861)"
     cx="96"
     cy="100"
     r="64"
     id="circle8" />
  <circle
     style="fill:#0086f4;stroke-width:4"
     cx="96"
     cy="96"
     r="64"
     id="circle10" />
  <path
     style="opacity:0.2;stroke-width:4;filter:url(#filter865)"
     d="M 118.14815,71.154068 C 114.379,61.581428 104.93512,60.718008 93.936988,62.854456 l -3.915656,-13.654468 -8.311144,2.384128 3.812684,13.294512 c -2.184868,0.626816 -4.405932,1.3104 -6.6122,1.99096 l -3.8362,-13.383036 -8.307008,2.381736 3.9112,13.651528 c -1.78892,0.552732 -3.546488,1.092868 -5.269276,1.5881 l -0.0128,-0.042 -11.464588,3.283188 2.547588,8.876224 c 0,0 6.1041,-1.876952 6.034488,-1.734672 3.366856,-0.964332 5.022976,0.675928 5.825296,2.271084 l 4.461184,15.55517 c 2.08484,7.26838 4.177132,14.57069 6.263996,21.85106 0.15604,1.10188 0.0176,2.96976 -2.333248,3.64829 0.13336,0.0638 -6.042216,1.73085 -6.042216,1.73085 l 1.194824,10.39948 10.816,-3.10188 c 2.013492,-0.57477 4.003748,-1.10855 5.951568,-1.65368 L 92.614952,146 l 8.302868,-2.37935 -3.918372,-13.66394 c 2.293144,-0.60655 4.504442,-1.22103 6.657632,-1.84059 l 3.89637,13.6021 8.31113,-2.38412 -3.95032,-13.78621 c 13.74326,-4.80849 22.51376,-11.13309 19.96558,-24.60307 -2.04923,-10.847076 -8.37137,-14.136424 -16.84946,-13.766712 4.1152,-3.83554 5.88823,-9.022856 3.11811,-16.024016 z m -3.16079,32.863332 c 2.96391,10.31899 -15.043752,14.21223 -20.675068,15.83278 l -5.2446,-18.29803 c 5.6349,-1.61434 22.833728,-8.299242 25.919668,2.46525 z M 103.71942,79.310668 c 2.68977,9.390124 -12.361824,12.520344 -17.053624,13.8661 l -4.758048,-16.59506 c 4.691796,-1.345756 19.002452,-7.06402 21.811672,2.72896 z"
     id="path12" />
  <path
     style="fill:#ffffff;stroke-width:4"
     d="M 118.14815,69.1541 C 114.379,59.58146 104.93512,58.71804 93.936988,60.854488 L 90.021332,47.20002 81.710188,49.584148 85.522872,62.87866 c -2.184868,0.626816 -4.405932,1.3104 -6.6122,1.99096 l -3.8362,-13.383036 -8.307008,2.381736 3.9112,13.651528 c -1.78892,0.552732 -3.546488,1.092868 -5.269276,1.5881 l -0.0128,-0.042 -11.464588,3.283188 2.547588,8.876224 c 0,0 6.1041,-1.876952 6.034488,-1.734672 3.366856,-0.964332 5.022976,0.675928 5.825296,2.271084 l 4.461184,15.555168 c 2.08484,7.26838 4.177132,14.57069 6.263996,21.85106 0.15604,1.10188 0.0176,2.96976 -2.333248,3.6483 0.13336,0.0638 -6.042216,1.73084 -6.042216,1.73084 l 1.194824,10.39948 10.816,-3.10188 c 2.013492,-0.57477 4.003748,-1.10854 5.951568,-1.65368 l 3.963472,13.80897 8.302868,-2.37935 -3.918372,-13.66394 c 2.293144,-0.60655 4.504442,-1.22103 6.657632,-1.84058 l 3.89637,13.6021 8.31113,-2.38413 -3.95032,-13.78621 c 13.74326,-4.80848 22.51376,-11.13309 19.96558,-24.603072 -2.04923,-10.847072 -8.37137,-14.13642 -16.84946,-13.766708 4.1152,-3.83554 5.88823,-9.022856 3.11811,-16.024016 z m -3.16079,32.86334 c 2.96391,10.31898 -15.043752,14.21222 -20.675068,15.83278 l -5.2446,-18.29804 c 5.6349,-1.614336 22.833728,-8.29924 25.919668,2.46526 z M 103.71942,77.3107 c 2.68977,9.390124 -12.361824,12.520344 -17.053624,13.8661 L 81.907748,74.58174 c 4.691796,-1.345756 19.002452,-7.06402 21.811672,2.72896 z"
     id="path14" />
  <path
     id="path16"
     style="opacity:0.2;fill:#ffffff;stroke-width:4"
     d="M 96 32 A 63.999996 63.999996 0 0 0 32 96 A 63.999996 63.999996 0 0 0 32.011719 96.810547 A 63.999996 63.999996 0 0 1 96 33 A 63.999996 63.999996 0 0 1 159.99023 96.574219 A 63.999996 63.999996 0 0 0 160 96 A 63.999996 63.999996 0 0 0 96 32 z " />
</svg>
