<svg xmlns="http://www.w3.org/2000/svg" width="48" height="48" version="1">
 <g>
  <path style="opacity:0.2" d="m 4,37.5 v 1 c 0,1.108 0.892,2 2,2 h 36 c 1.108,0 2,-0.892 2,-2 v -1 c 0,1.108 -0.892,2 -2,2 H 6 c -1.108,0 -2,-0.892 -2,-2 z"/>
  <rect style="fill:#0fa0e6" width="32" height="40" x="-40" y="-44" rx="2" ry="2" transform="matrix(0,-1,-1,0,0,0)"/>
  <path style="opacity:0.2;fill:#ffffff" d="M 6,8 C 4.892,8 4,8.892 4,10 v 0.5 c 0,-1.108 0.892,-2 2,-2 h 36 c 1.108,0 2,0.892 2,2 V 10 C 44,8.892 43.108,8 42,8 Z"/>
  <path style="opacity:0.2" d="m 11,18.5 v 3.267578 l -2.8300781,-1.632812 -1,1.730468 2.8320311,1.634766 -2.8320311,1.634766 1,1.730468 L 11,25.232422 V 28.5 h 2 v -3.267578 l 2.830078,1.632812 1,-1.730468 L 13.998047,23.5 l 2.832031,-1.634766 -1,-1.730468 L 13,21.767578 V 18.5 Z m 12,0 v 3.267578 l -2.830078,-1.632812 -1,1.730468 2.832031,1.634766 -2.832031,1.634766 1,1.730468 L 23,25.232422 V 28.5 h 2 v -3.267578 l 2.830078,1.632812 1,-1.730468 L 25.998047,23.5 l 2.832031,-1.634766 -1,-1.730468 L 25,21.767578 V 18.5 Z m 12,0 v 3.267578 l -2.830078,-1.632812 -1,1.730468 2.832031,1.634766 -2.832031,1.634766 1,1.730468 L 35,25.232422 V 28.5 h 2 v -3.267578 l 2.830078,1.632812 1,-1.730468 L 37.998047,23.5 l 2.832031,-1.634766 -1,-1.730468 L 37,21.767578 V 18.5 Z m -29,12 v 2 h 36 v -2 z"/>
  <path style="fill:#ffffff" d="m 11,18 v 3.267578 l -2.8300781,-1.632812 -1,1.730468 L 10.001953,23 l -2.8320311,1.634766 1,1.730468 L 11,24.732422 V 28 h 2 v -3.267578 l 2.830078,1.632812 1,-1.730468 L 13.998047,23 l 2.832031,-1.634766 -1,-1.730468 L 13,21.267578 V 18 Z m 12,0 v 3.267578 l -2.830078,-1.632812 -1,1.730468 L 22.001953,23 l -2.832031,1.634766 1,1.730468 L 23,24.732422 V 28 h 2 v -3.267578 l 2.830078,1.632812 1,-1.730468 L 25.998047,23 l 2.832031,-1.634766 -1,-1.730468 L 25,21.267578 V 18 Z m 12,0 v 3.267578 l -2.830078,-1.632812 -1,1.730468 L 34.001953,23 l -2.832031,1.634766 1,1.730468 L 35,24.732422 V 28 h 2 v -3.267578 l 2.830078,1.632812 1,-1.730468 L 37.998047,23 l 2.832031,-1.634766 -1,-1.730468 L 37,21.267578 V 18 Z M 6,30 v 2 h 36 v -2 z"/>
 </g>
</svg>
