<?xml version="1.0" encoding="UTF-8" standalone="no"?>
<svg
   xmlns:dc="http://purl.org/dc/elements/1.1/"
   xmlns:cc="http://creativecommons.org/ns#"
   xmlns:rdf="http://www.w3.org/1999/02/22-rdf-syntax-ns#"
   xmlns:svg="http://www.w3.org/2000/svg"
   xmlns="http://www.w3.org/2000/svg"
   xmlns:sodipodi="http://sodipodi.sourceforge.net/DTD/sodipodi-0.dtd"
   xmlns:inkscape="http://www.inkscape.org/namespaces/inkscape"
   width="48"
   height="48"
   version="1.1"
   viewBox="0 0 48 48"
   id="svg12"
   sodipodi:docname="apps_simpletextcrypt.svg"
   inkscape:version="0.92.2 (unknown)">
  <metadata
     id="metadata18">
    <rdf:RDF>
      <cc:Work
         rdf:about="">
        <dc:format>image/svg+xml</dc:format>
        <dc:type
           rdf:resource="http://purl.org/dc/dcmitype/StillImage" />
        <dc:title></dc:title>
      </cc:Work>
    </rdf:RDF>
  </metadata>
  <defs
     id="defs16" />
  <sodipodi:namedview
     pagecolor="#ffffff"
     bordercolor="#666666"
     borderopacity="1"
     objecttolerance="10"
     gridtolerance="10"
     guidetolerance="10"
     inkscape:pageopacity="0"
     inkscape:pageshadow="2"
     inkscape:window-width="1920"
     inkscape:window-height="1016"
     id="namedview14"
     showgrid="false"
     inkscape:zoom="6.97"
     inkscape:cx="24"
     inkscape:cy="24"
     inkscape:window-x="0"
     inkscape:window-y="34"
     inkscape:window-maximized="1"
     inkscape:current-layer="svg12" />
  <path
     style="opacity:0.2"
     inkscape:connector-curvature="0"
     d="M 4.0215,23.914 A 11,11 0 0 0 4,24.5 a 11,11 0 0 0 11,11 11,11 0 0 0 10.572,-8 H 34 v -1 H 25.572 A 11,11 0 0 1 15,34.5 11,11 0 0 1 4.022,23.914 Z m 36.944,2.586 v 1 h 3.035 v -1 z m -6.965,5.027 v 1 h 6.965 v -1 z"
     id="path10" />
  <path
     inkscape:connector-curvature="0"
     d="M 15,13 A 11,11 0 0 0 4,24 11,11 0 0 0 15,35 11,11 0 0 0 25.572,27 h 8.4277 v 5.0273 h 6.9648 V 27 h 3.0352 v -7 h -18.754 a 11,11 0 0 0 -10.246,-7 z"
     id="path2"
     style="fill:#31c0d5;fill-opacity:1" />
  <circle
     style="opacity:0.2"
     cx="15"
     cy="24.499998"
     r="4"
     id="circle4" />
  <circle
     style="fill:#f9f9f9"
     cx="15"
     cy="24"
     r="4"
     id="circle6" />
  <path
     inkscape:connector-curvature="0"
     style="opacity:0.2;fill:#ffffff"
     d="M 15,13 A 11,11 0 0 0 4,24 11,11 0 0 0 4.0097656,24.201172 11,11 0 0 1 15,13.5 a 11,11 0 0 1 10.246094,7 H 44 V 20 H 25.246094 A 11,11 0 0 0 15,13 Z"
     id="path8" />
</svg>
