<?xml version="1.0" encoding="UTF-8" standalone="no"?>
<svg
   width="192"
   height="192"
   version="1.1"
   id="svg14"
   sodipodi:docname="apps_bandlab.svg"
   inkscape:version="1.1.1 (1:1.1+202109281949+c3084ef5ed)"
   xmlns:inkscape="http://www.inkscape.org/namespaces/inkscape"
   xmlns:sodipodi="http://sodipodi.sourceforge.net/DTD/sodipodi-0.dtd"
   xmlns="http://www.w3.org/2000/svg"
   xmlns:svg="http://www.w3.org/2000/svg">
  <defs
     id="defs18">
    <filter
       inkscape:collect="always"
       style="color-interpolation-filters:sRGB"
       id="filter849"
       x="-0.048000001"
       y="-0.048000001"
       width="1.096"
       height="1.096">
      <feGaussianBlur
         inkscape:collect="always"
         stdDeviation="3.2"
         id="feGaussianBlur851" />
    </filter>
    <filter
       inkscape:collect="always"
       style="color-interpolation-filters:sRGB"
       id="filter4080"
       x="-0.047999728"
       y="-0.048000272"
       width="1.0959995"
       height="1.0960005">
      <feGaussianBlur
         inkscape:collect="always"
         stdDeviation="1.880015"
         id="feGaussianBlur4082" />
    </filter>
  </defs>
  <sodipodi:namedview
     id="namedview16"
     pagecolor="#ffffff"
     bordercolor="#666666"
     borderopacity="1.0"
     inkscape:pageshadow="2"
     inkscape:pageopacity="0.0"
     inkscape:pagecheckerboard="0"
     showgrid="false"
     inkscape:zoom="1"
     inkscape:cx="77.5"
     inkscape:cy="68.5"
     inkscape:window-width="1920"
     inkscape:window-height="1019"
     inkscape:window-x="0"
     inkscape:window-y="34"
     inkscape:window-maximized="1"
     inkscape:current-layer="svg14">
    <inkscape:grid
       type="xygrid"
       id="grid2617" />
  </sodipodi:namedview>
  <rect
     style="opacity:0.2;stroke-width:4;filter:url(#filter849)"
     width="160"
     height="160"
     x="16"
     y="20"
     rx="32"
     ry="32"
     id="rect2" />
  <rect
     style="fill:#ef4130;fill-opacity:1;stroke-width:4"
     width="160"
     height="160"
     x="16"
     y="16"
     rx="32"
     ry="32"
     id="rect4" />
  <path
     id="path12"
     style="opacity:0.2;fill:#ffffff;stroke-width:4"
     d="M 48,16 C 30.272,16 16,30.272 16,48 v 1 C 16,31.272 30.272,17 48,17 h 96 c 17.728,0 32,14.272 32,32 V 48 C 176,30.272 161.728,16 144,16 Z" />
  <path
     id="path4042"
     style="opacity:0.2;fill:#000000;stroke-width:0.313914;filter:url(#filter4080)"
     d="m 78.833984,50.999786 c 0,0 4.130352,10.90093 8.984375,22.880859 4.854019,11.979924 8.824219,21.954449 8.824219,22.166016 0,0.211564 -0.458306,0.475887 -1.019531,0.587891 -0.561222,0.112002 -2.339278,0.845286 -3.951172,1.628906 -5.335926,2.594062 -9.225271,7.347882 -9.689453,11.843752 -0.474194,4.59286 2.040811,8.24418 6.498047,9.4375 2.39085,0.64009 4.198444,0.60871 7.060547,-0.12304 6.107254,-1.56142 11.173434,-6.39356 12.876954,-12 0.55213,-1.81713 0.63627,-2.70293 0.49805,-5.2168 -0.20689,-3.763182 -0.0923,-3.437036 -8.23243,-23.27149 -3.577666,-8.717457 -6.683916,-16.933594 -6.662106,-16.933594 h 11.246096 11.20312 l -2.91601,-5.349609 -2.91797,-5.650391 H 94.65625 Z m -11.654296,24 -7.306641,12.673828 c -4.01878,6.970885 -7.726501,13.666726 -8.238281,14.878906 -2.30259,5.45386 -3.141431,11.42928 -2.337891,16.66016 2.08063,13.54453 12.302397,23.12229 26.992187,25.29297 2.27715,0.33649 10.767438,0.50114 19.710938,0.49414 8.9435,0.007 17.43379,-0.15765 19.71094,-0.49414 14.68979,-2.17068 24.91156,-11.74844 26.99218,-25.29297 0.80354,-5.23088 -0.0353,-11.2063 -2.33789,-16.66016 -0.51178,-1.21218 -4.2195,-7.908021 -8.23828,-14.878906 l -7.30664,-12.673828 h -5.6582 -6.55664 l 0.37695,0.703125 c 0.2468,0.363055 3.83064,6.678659 8.05078,13.982422 8.58342,14.855297 9.14827,15.903687 10.11133,18.757817 0.93246,2.76346 1.16986,7.82249 0.52539,10.83203 -1.51298,7.06527 -6.44768,11.93638 -14.3418,13.96484 -2.5177,0.64695 -6.77261,0.62896 -21.32812,0.75977 -14.55551,-0.13081 -18.810415,-0.11282 -21.328125,-0.75977 -7.89411,-2.02846 -12.828817,-6.89957 -14.341797,-13.96484 -0.64447,-3.00954 -0.407069,-8.06857 0.525391,-10.83203 0.96306,-2.85413 1.527908,-3.90252 10.111328,-18.757817 4.22014,-7.303763 7.803981,-13.619367 8.050781,-13.982422 l 0.376953,-0.703125 h -6.55664 z" />
  <path
     id="path3857"
     style="fill:#fdfcfc;stroke-width:0.313914"
     d="M 78.833984 49 C 78.833984 49 82.964336 59.90093 87.818359 71.880859 C 92.672378 83.860783 96.642578 93.835308 96.642578 94.046875 C 96.642578 94.258439 96.184272 94.522762 95.623047 94.634766 C 95.061825 94.746768 93.283769 95.480052 91.671875 96.263672 C 86.335949 98.857733 82.446604 103.61155 81.982422 108.10742 C 81.508228 112.70028 84.023233 116.3516 88.480469 117.54492 C 90.871319 118.18501 92.678913 118.15363 95.541016 117.42188 C 101.64827 115.86046 106.71445 111.02832 108.41797 105.42188 C 108.9701 103.60475 109.05424 102.71895 108.91602 100.20508 C 108.70913 96.441902 108.82372 96.768048 100.68359 76.933594 C 97.105924 68.216137 93.999674 60 94.021484 60 L 105.26758 60 L 116.4707 60 L 113.55469 54.650391 L 110.63672 49 L 94.65625 49 L 78.833984 49 z M 67.179688 73 L 59.873047 85.673828 C 55.854267 92.644713 52.146546 99.340552 51.634766 100.55273 C 49.332176 106.00659 48.493335 111.98201 49.296875 117.21289 C 51.377505 130.75742 61.599272 140.33518 76.289062 142.50586 C 78.566212 142.84235 87.0565 143.007 96 143 C 104.9435 143.007 113.43379 142.84235 115.71094 142.50586 C 130.40073 140.33518 140.6225 130.75742 142.70312 117.21289 C 143.50666 111.98201 142.66782 106.00659 140.36523 100.55273 C 139.85345 99.340552 136.14573 92.644713 132.12695 85.673828 L 124.82031 73 L 119.16211 73 L 112.60547 73 L 112.98242 73.703125 C 113.22922 74.06618 116.81306 80.381784 121.0332 87.685547 C 129.61662 102.54084 130.18147 103.58923 131.14453 106.44336 C 132.07699 109.20682 132.31439 114.26585 131.66992 117.27539 C 130.15694 124.34066 125.22224 129.21177 117.32812 131.24023 C 114.81042 131.88718 110.55551 131.86919 96 132 C 81.44449 131.86919 77.189585 131.88718 74.671875 131.24023 C 66.777765 129.21177 61.843058 124.34066 60.330078 117.27539 C 59.685608 114.26585 59.923009 109.20682 60.855469 106.44336 C 61.818529 103.58923 62.383377 102.54084 70.966797 87.685547 C 75.186937 80.381784 78.770778 74.06618 79.017578 73.703125 L 79.394531 73 L 72.837891 73 L 67.179688 73 z " />
</svg>
