<?xml version="1.0" encoding="UTF-8" standalone="no"?>
<svg
   width="192"
   height="192"
   version="1.1"
   id="svg14"
   sodipodi:docname="apps_ikea.svg"
   inkscape:version="1.1.1 (1:1.1+202109281949+c3084ef5ed)"
   xmlns:inkscape="http://www.inkscape.org/namespaces/inkscape"
   xmlns:sodipodi="http://sodipodi.sourceforge.net/DTD/sodipodi-0.dtd"
   xmlns="http://www.w3.org/2000/svg"
   xmlns:svg="http://www.w3.org/2000/svg">
  <defs
     id="defs18">
    <filter
       inkscape:collect="always"
       style="color-interpolation-filters:sRGB"
       id="filter849"
       x="-0.048000001"
       y="-0.048000001"
       width="1.096"
       height="1.096">
      <feGaussianBlur
         inkscape:collect="always"
         stdDeviation="3.2"
         id="feGaussianBlur851" />
    </filter>
    <filter
       inkscape:collect="always"
       style="color-interpolation-filters:sRGB"
       id="filter2044"
       x="-0.0515625"
       y="-0.1375"
       width="1.103125"
       height="1.275">
      <feGaussianBlur
         inkscape:collect="always"
         stdDeviation="3.4375"
         id="feGaussianBlur2046" />
    </filter>
  </defs>
  <sodipodi:namedview
     id="namedview16"
     pagecolor="#ffffff"
     bordercolor="#666666"
     borderopacity="1.0"
     inkscape:pageshadow="2"
     inkscape:pageopacity="0.0"
     inkscape:pagecheckerboard="0"
     showgrid="false"
     inkscape:zoom="1"
     inkscape:cx="135.5"
     inkscape:cy="93"
     inkscape:window-width="1920"
     inkscape:window-height="1016"
     inkscape:window-x="0"
     inkscape:window-y="32"
     inkscape:window-maximized="1"
     inkscape:current-layer="svg14">
    <inkscape:grid
       type="xygrid"
       id="grid1233" />
  </sodipodi:namedview>
  <circle
     style="opacity:0.2;stroke-width:4;filter:url(#filter849)"
     cx="96"
     cy="100"
     r="80"
     id="circle2" />
  <circle
     style="fill:#006ac5;fill-opacity:1;stroke-width:4"
     cx="96"
     cy="96"
     r="80"
     id="circle4" />
  <path
     id="path12"
     style="opacity:0.2;fill:#ffffff;stroke-width:4"
     d="M 96,16 A 80,80 0 0 0 16,96 80,80 0 0 0 16.023438,96.638672 80,80 0 0 1 96,17 80,80 0 0 1 175.98438,96.302734 80,80 0 0 0 176,96 80,80 0 0 0 96,16 Z" />
  <path
     id="path2006"
     style="opacity:0.2;fill:#000000;fill-opacity:1;fill-rule:evenodd;stroke:none;stroke-width:1.66667;filter:url(#filter2044)"
     d="M 96.011719,68 C 49.550718,68 16,81.6125 16,98 16,114.3875 49.526885,128 96.011719,128 142.49639,128 176,114.3875 176,98 176,81.6125 142.47255,68 96.011719,68 Z M 94.451172,86 H 123 v 6.636719 C 122.28334,92.312965 121.64245,92 120.92578,92 H 109 v 3 h 12 v 6 h -12 v 3 h 11.92578 c 0.71651,0 1.35756,-0.33491 2.07422,-0.68164 v 6.6582 H 94.451172 C 94.809504,109.28279 95,108.61354 95,107.91992 V 88.080078 C 95,87.386461 94.809504,86.716756 94.451172,86 Z m -65.117188,0.02344 H 45.671875 C 45.313541,86.717057 45,87.386461 45,88.080078 v 19.839842 c 0,0.69362 0.313541,1.36287 0.671875,2.05664 H 29.333984 C 29.692318,109.28279 30,108.61354 30,107.91992 V 88.080078 c 0,-0.693617 -0.307682,-1.363022 -0.666016,-2.05664 z m 23.257813,0 H 67.816406 C 67.458074,86.717056 67,87.386461 67,88.080078 v 8.671875 c 0,0 5.26054,-6.058209 6.359375,-7.46875 0.835999,-1.063482 1.863281,-2.566312 1.863281,-3.259765 h 15.669922 c -1.075002,0.693618 -2.270498,1.941624 -3.25,3.097656 -0.86,1.017372 -5.732422,6.77539 -5.732422,6.77539 0,0 7.214423,10.659346 8.169922,12.023436 0.525502,0.73989 1.098743,1.43228 1.767578,2.05664 H 73.8125 c 0,-0.69377 -0.692531,-2.10314 -1.457031,-3.21289 C 71.591135,105.65374 67,99.572266 67,99.572266 v 8.347654 c 0,0.69362 0.458074,1.36287 0.816406,2.05664 H 52.591797 C 52.950131,109.28279 53,108.61354 53,107.91992 V 88.080078 c 0,-0.693617 -0.04987,-1.363021 -0.408203,-2.05664 z m 81.775393,0.02344 h 20.94922 c -0.191,0.693618 0.19223,1.363022 0.45507,2.056641 0.621,1.502924 7.33372,18.475284 7.85938,19.816404 0.23883,0.76304 0.64442,1.45541 1.16992,2.05664 h -15.71875 c 0.0717,-0.69377 -0.1899,-1.36302 -0.47656,-2.05664 0,0 -0.23989,-0.55609 -0.57422,-1.36523 L 147.88867,106 h -9.05469 l -0.14257,0.57812 c 0,0 -0.26313,0.66968 -0.50196,1.36329 -0.23883,0.69362 -0.50192,1.36498 -0.40625,2.05859 h -12.39648 c 0.50646,-0.60645 0.88817,-1.30644 1.12305,-2.05859 l 7.42773,-19.837894 c 0.26282,-0.693619 0.52519,-1.363023 0.42969,-2.056641 z m 8.86328,7.976563 c -0.0956,0.535759 -0.2392,1.062023 -0.42969,1.572265 -0.0717,0.231372 -1.00312,2.514137 -2.07812,5.404297 h 5.18359 l -2.19922,-5.404297 c -0.19116,-0.508521 -0.35706,-1.040441 -0.47656,-1.572265 z" />
  <path
     id="path7"
     style="fill-rule:evenodd;stroke:none;stroke-width:1.66667;fill:#fbd914;fill-opacity:1"
     d="M 96.011719 66 C 49.550718 66 16 79.6125 16 96 C 16 112.3875 49.526885 126 96.011719 126 C 142.49639 126 176 112.3875 176 96 C 176 79.6125 142.47255 66 96.011719 66 z M 94.451172 84 L 123 84 L 123 90.636719 C 122.28334 90.312965 121.64245 90 120.92578 90 L 109 90 L 109 93 L 121 93 L 121 99 L 109 99 L 109 102 L 120.92578 102 C 121.64229 102 122.28334 101.66509 123 101.31836 L 123 107.97656 L 94.451172 107.97656 C 94.809504 107.28279 95 106.61354 95 105.91992 L 95 86.080078 C 95 85.386461 94.809504 84.716756 94.451172 84 z M 29.333984 84.023438 L 45.671875 84.023438 C 45.313541 84.717057 45 85.386461 45 86.080078 L 45 105.91992 C 45 106.61354 45.313541 107.28279 45.671875 107.97656 L 29.333984 107.97656 C 29.692318 107.28279 30 106.61354 30 105.91992 L 30 86.080078 C 30 85.386461 29.692318 84.717056 29.333984 84.023438 z M 52.591797 84.023438 L 67.816406 84.023438 C 67.458074 84.717056 67 85.386461 67 86.080078 L 67 94.751953 C 67 94.751953 72.26054 88.693744 73.359375 87.283203 C 74.195374 86.219721 75.222656 84.716891 75.222656 84.023438 L 90.892578 84.023438 C 89.817576 84.717056 88.62208 85.965062 87.642578 87.121094 C 86.782578 88.138466 81.910156 93.896484 81.910156 93.896484 C 81.910156 93.896484 89.124579 104.55583 90.080078 105.91992 C 90.60558 106.65981 91.178821 107.3522 91.847656 107.97656 L 73.8125 107.97656 C 73.8125 107.28279 73.119969 105.87342 72.355469 104.76367 C 71.591135 103.65374 67 97.572266 67 97.572266 L 67 105.91992 C 67 106.61354 67.458074 107.28279 67.816406 107.97656 L 52.591797 107.97656 C 52.950131 107.28279 53 106.61354 53 105.91992 L 53 86.080078 C 53 85.386461 52.950127 84.717057 52.591797 84.023438 z M 134.36719 84.046875 L 155.31641 84.046875 C 155.12541 84.740493 155.50864 85.409897 155.77148 86.103516 C 156.39248 87.60644 163.1052 104.5788 163.63086 105.91992 C 163.86969 106.68296 164.27528 107.37533 164.80078 107.97656 L 149.08203 107.97656 C 149.15373 107.28279 148.89213 106.61354 148.60547 105.91992 C 148.60547 105.91992 148.36558 105.36383 148.03125 104.55469 L 147.88867 104 L 138.83398 104 L 138.69141 104.57812 C 138.69141 104.57812 138.42828 105.2478 138.18945 105.94141 C 137.95062 106.63503 137.68753 107.30639 137.7832 108 L 125.38672 108 C 125.89318 107.39355 126.27489 106.69356 126.50977 105.94141 L 133.9375 86.103516 C 134.20032 85.409897 134.46269 84.740493 134.36719 84.046875 z M 143.23047 92.023438 C 143.13487 92.559197 142.99127 93.085461 142.80078 93.595703 C 142.72908 93.827075 141.79766 96.10984 140.72266 99 L 145.90625 99 L 143.70703 93.595703 C 143.51587 93.087182 143.34997 92.555262 143.23047 92.023438 z " />
  <path
     id="path2048"
     style="fill-rule:evenodd;stroke:none;stroke-width:1.66667;fill:#ffffff;fill-opacity:1;opacity:0.2"
     d="M 96.011719 66 C 49.550718 66 16 79.6125 16 96 C 16 96.167632 16.024256 96.332961 16.03125 96.5 C 16.708488 80.337446 50.025979 67 96.011719 67 C 141.99729 67 175.29198 80.337446 175.96875 96.5 C 175.97574 96.332961 176 96.167632 176 96 C 176 79.6125 142.47255 66 96.011719 66 z M 94.451172 85 C 94.809504 85.716756 95 86.386461 95 87.080078 L 95 86.080078 C 95 85.717065 94.940952 85.360086 94.839844 85 L 94.451172 85 z M 29.333984 85.023438 C 29.692318 85.717056 30 86.386461 30 87.080078 L 30 86.080078 C 30 85.72335 29.914912 85.373945 29.787109 85.023438 L 29.333984 85.023438 z M 45.214844 85.023438 C 45.085545 85.373931 45 85.723363 45 86.080078 L 45 87.080078 C 45 86.386461 45.313541 85.717055 45.671875 85.023438 L 45.214844 85.023438 z M 52.591797 85.023438 C 52.95013 85.717056 53 86.386461 53 87.080078 L 53 86.080078 C 53 85.723319 52.983449 85.373975 52.921875 85.023438 L 52.591797 85.023438 z M 67.289062 85.023438 C 67.122637 85.37392 67 85.723375 67 86.080078 L 67 87.080078 C 67 86.386461 67.458074 85.717054 67.816406 85.023438 L 67.289062 85.023438 z M 89.644531 85.023438 C 88.947807 85.658855 88.252975 86.400689 87.642578 87.121094 C 86.782578 88.138466 81.910156 93.896484 81.910156 93.896484 C 81.910156 93.896484 82.257721 94.407755 82.287109 94.451172 C 82.849738 93.786277 86.839113 89.071585 87.642578 88.121094 C 88.62208 86.965062 89.817576 85.717056 90.892578 85.023438 L 89.644531 85.023438 z M 109 90 L 109 91 L 120.92578 91 C 121.64245 91 122.28334 91.312965 123 91.636719 L 123 90.636719 C 122.28334 90.312965 121.64245 90 120.92578 90 L 109 90 z M 143.23047 92.023438 C 143.13487 92.559196 142.99127 93.085461 142.80078 93.595703 C 142.72908 93.827075 141.79766 96.10984 140.72266 99 L 141.10742 99 C 141.9202 96.868169 142.74235 94.784259 142.80078 94.595703 C 142.99127 94.085461 143.13487 93.559196 143.23047 93.023438 C 143.34997 93.555261 143.51587 94.087182 143.70703 94.595703 L 145.5 99 L 145.90625 99 L 143.70703 93.595703 C 143.51587 93.087182 143.34997 92.555261 143.23047 92.023438 z M 67 97.572266 L 67 98.572266 C 67 98.572266 71.591135 104.65374 72.355469 105.76367 C 73.119969 106.87342 73.8125 108.28279 73.8125 108.97656 L 91.847656 108.97656 C 91.508423 108.65989 91.194732 108.32556 90.898438 107.97656 L 73.8125 107.97656 C 73.8125 107.28279 73.119969 105.87342 72.355469 104.76367 C 71.591135 103.65374 67 97.572266 67 97.572266 z M 109 99 L 109 100 L 121 100 L 121 99 L 109 99 z M 138.83398 104 L 138.69141 104.57812 C 138.69141 104.57812 138.42828 105.2478 138.18945 105.94141 C 137.95062 106.63503 137.68753 107.30639 137.7832 108 L 126.0625 108 C 125.87159 108.35389 125.64596 108.68958 125.38672 109 L 137.7832 109 C 137.68753 108.30639 137.95062 107.63503 138.18945 106.94141 C 138.42828 106.2478 138.69141 105.57812 138.69141 105.57812 L 138.83398 105 L 147.88867 105 L 148.03125 105.55469 C 148.36558 106.36383 148.60547 106.91992 148.60547 106.91992 C 148.89213 107.61354 149.15373 108.28279 149.08203 108.97656 L 164.80078 108.97656 C 164.5301 108.66687 164.2944 108.33181 164.09375 107.97656 L 149.08203 107.97656 C 149.15373 107.28279 148.89213 106.61354 148.60547 105.91992 C 148.60547 105.91992 148.36558 105.36383 148.03125 104.55469 L 147.88867 104 L 138.83398 104 z M 29.787109 107.97656 C 29.666415 108.30756 29.508027 108.6396 29.333984 108.97656 L 45.671875 108.97656 C 45.497826 108.63959 45.336961 108.30757 45.214844 107.97656 L 29.787109 107.97656 z M 52.921875 107.97656 C 52.863736 108.30753 52.765823 108.63963 52.591797 108.97656 L 67.816406 108.97656 C 67.642352 108.63957 67.446255 108.30758 67.289062 107.97656 L 52.921875 107.97656 z M 94.847656 107.97656 C 94.755396 108.30759 94.625232 108.63956 94.451172 108.97656 L 123 108.97656 L 123 107.97656 L 94.847656 107.97656 z " />
</svg>
