<?xml version="1.0" encoding="UTF-8" standalone="no"?>
<svg
   version="1.1"
   width="192"
   height="192"
   id="svg6"
   sodipodi:docname="apps_bitdefender.svg"
   inkscape:version="1.1-rc (1:1.1+rc+202105232036+f4db50c7c1)"
   xmlns:inkscape="http://www.inkscape.org/namespaces/inkscape"
   xmlns:sodipodi="http://sodipodi.sourceforge.net/DTD/sodipodi-0.dtd"
   xmlns="http://www.w3.org/2000/svg"
   xmlns:svg="http://www.w3.org/2000/svg">
  <defs
     id="defs10">
    <filter
       inkscape:collect="always"
       style="color-interpolation-filters:sRGB"
       id="filter2327"
       x="-0.048000001"
       y="-0.048000001"
       width="1.096"
       height="1.096">
      <feGaussianBlur
         inkscape:collect="always"
         stdDeviation="3.2"
         id="feGaussianBlur2329" />
    </filter>
    <filter
       inkscape:collect="always"
       style="color-interpolation-filters:sRGB"
       id="filter2020"
       x="-0.051180722"
       y="-0.045191489"
       width="1.1023614"
       height="1.090383">
      <feGaussianBlur
         inkscape:collect="always"
         stdDeviation="1.77"
         id="feGaussianBlur2022" />
    </filter>
  </defs>
  <sodipodi:namedview
     id="namedview8"
     pagecolor="#ffffff"
     bordercolor="#666666"
     borderopacity="1.0"
     inkscape:pageshadow="2"
     inkscape:pageopacity="0.0"
     inkscape:pagecheckerboard="0"
     showgrid="false"
     showguides="false"
     inkscape:zoom="1"
     inkscape:cx="96.5"
     inkscape:cy="93.5"
     inkscape:window-width="1920"
     inkscape:window-height="1019"
     inkscape:window-x="0"
     inkscape:window-y="34"
     inkscape:window-maximized="1"
     inkscape:current-layer="svg6">
    <inkscape:grid
       type="xygrid"
       id="grid1313" />
  </sodipodi:namedview>
  <rect
     style="opacity:0.2;fill:#000000;fill-opacity:1;stroke-width:3.90389;stroke-linecap:square;stroke-linejoin:round;filter:url(#filter2327);stop-color:#000000"
     id="rect2289"
     width="160"
     height="160"
     x="16"
     y="20"
     rx="20"
     ry="20" />
  <rect
     style="fill:#e0302b;fill-opacity:1;stroke-width:3.90389;stroke-linecap:square;stroke-linejoin:round;stop-color:#000000"
     id="rect849"
     width="160"
     height="160"
     x="16"
     y="16"
     rx="20"
     ry="20" />
  <path
     id="path1982"
     style="opacity:0.2;fill:#000000;fill-opacity:1;fill-rule:evenodd;stroke:none;stroke-width:0.390205;filter:url(#filter2020)"
     d="m 54,51 v 1.400391 L 58.955078,56.5 C 64.90009,61.215026 66,62.132272 66,66.394531 V 145 h 34.46484 C 119.41943,145 137,138.62252 137,118.17773 137,106.10523 128.67486,96.799738 116.55469,95.476562 V 95.207031 C 126.51376,92.287461 133,85.126374 133,74.498047 133,57.37485 117.89418,51.011719 103.33203,51.011719 H 68.042969 V 51 Z m 31,15 h 12.308594 c 8.675756,0 12.370216,0.302967 15.298826,2.984375 2.22495,2.031487 3.38472,4.8266 3.39258,8.083984 0,3.023882 -1.21798,5.728539 -3.50977,7.830079 C 109.62845,87.540927 105.98853,88 98.818359,88 H 85 Z m 0,38 H 99.351562 C 108.93874,104 119,107.47029 119,117.36719 119,129.52018 107.42137,130 98.677734,130 H 85 Z" />
  <path
     id="path1523"
     style="fill:#ffffff;fill-opacity:1;fill-rule:evenodd;stroke:none;stroke-width:0.390205"
     d="m 54,49 v 1.400391 L 58.955078,54.5 C 64.90009,59.215026 66,60.132272 66,64.394531 V 143 h 34.46484 C 119.41943,143 137,136.62252 137,116.17773 137,104.10523 128.67486,94.799738 116.55469,93.476562 V 93.207031 C 126.51376,90.287461 133,83.126374 133,72.498047 133,55.37485 117.89418,49.011719 103.33203,49.011719 H 68.042969 V 49 Z m 31,15 h 12.308594 c 8.675756,0 12.370216,0.302967 15.298826,2.984375 2.22495,2.031487 3.38472,4.8266 3.39258,8.083984 0,3.023882 -1.21798,5.728539 -3.50977,7.830079 C 109.62845,85.540927 105.98853,86 98.818359,86 H 85 Z m 0,38 H 99.351562 C 108.93874,102 119,105.47029 119,115.36719 119,127.52018 107.42137,128 98.677734,128 H 85 Z" />
  <path
     id="rect2331"
     style="opacity:0.2;fill:#ffffff;fill-opacity:1;stroke-width:3.90389;stroke-linecap:square;stroke-linejoin:round;stop-color:#000000"
     d="M 36,16 C 24.92,16 16,24.92 16,36 v 1 C 16,25.92 24.92,17 36,17 h 120 c 11.08,0 20,8.92 20,20 v -1 c 0,-11.08 -8.92,-20 -20,-20 z" />
  <g
     aria-label="n"
     id="text2661"
     style="font-size:153.977px;line-height:1.25;opacity:0.599126;stroke-width:3.84944"
     transform="matrix(0.99221167,0,0,0.91109556,0.91503574,12.030913)" />
</svg>
