<?xml version="1.0" encoding="UTF-8" standalone="no"?>
<svg
   width="192"
   height="192"
   version="1"
   id="svg16"
   sodipodi:docname="apps_fairemail.svg"
   inkscape:version="1.1.1 (1:1.1+202109281949+c3084ef5ed)"
   xmlns:inkscape="http://www.inkscape.org/namespaces/inkscape"
   xmlns:sodipodi="http://sodipodi.sourceforge.net/DTD/sodipodi-0.dtd"
   xmlns="http://www.w3.org/2000/svg"
   xmlns:svg="http://www.w3.org/2000/svg"
   xmlns:rdf="http://www.w3.org/1999/02/22-rdf-syntax-ns#"
   xmlns:cc="http://creativecommons.org/ns#"
   xmlns:dc="http://purl.org/dc/elements/1.1/">
  <metadata
     id="metadata22">
    <rdf:RDF>
      <cc:Work
         rdf:about="">
        <dc:format>image/svg+xml</dc:format>
        <dc:type
           rdf:resource="http://purl.org/dc/dcmitype/StillImage" />
      </cc:Work>
    </rdf:RDF>
  </metadata>
  <defs
     id="defs20">
    <filter
       inkscape:collect="always"
       style="color-interpolation-filters:sRGB"
       id="filter867"
       x="-0.048000001"
       width="1.096"
       y="-0.048000001"
       height="1.096">
      <feGaussianBlur
         inkscape:collect="always"
         stdDeviation="3.2"
         id="feGaussianBlur869" />
    </filter>
    <filter
       inkscape:collect="always"
       style="color-interpolation-filters:sRGB"
       id="filter1663"
       x="-0.095142855"
       y="-0.124875"
       width="1.1902857"
       height="1.24975">
      <feGaussianBlur
         inkscape:collect="always"
         stdDeviation="3.33"
         id="feGaussianBlur1665" />
    </filter>
  </defs>
  <sodipodi:namedview
     pagecolor="#ffffff"
     bordercolor="#666666"
     borderopacity="1"
     objecttolerance="10"
     gridtolerance="10"
     guidetolerance="10"
     inkscape:pageopacity="0"
     inkscape:pageshadow="2"
     inkscape:window-width="1920"
     inkscape:window-height="1022"
     id="namedview18"
     showgrid="false"
     inkscape:zoom="1"
     inkscape:cx="45"
     inkscape:cy="102"
     inkscape:window-x="0"
     inkscape:window-y="34"
     inkscape:window-maximized="1"
     inkscape:current-layer="svg16"
     inkscape:pagecheckerboard="0"
     inkscape:snap-bbox="true"
     inkscape:snap-bbox-midpoints="true">
    <inkscape:grid
       type="xygrid"
       id="grid7495" />
  </sodipodi:namedview>
  <rect
     id="rect849"
     ry="80"
     rx="80"
     height="160"
     width="160"
     y="-176"
     x="-180"
     transform="matrix(0,-1,-1,0,0,0)"
     style="opacity:0.2;fill:#000000;stroke-width:4;filter:url(#filter867)" />
  <rect
     style="fill:#029be6;fill-opacity:1;stroke-width:4"
     transform="matrix(0,-1,-1,0,0,0)"
     x="-176"
     y="-176"
     width="160"
     height="160"
     rx="80"
     ry="80"
     id="rect2" />
  <path
     style="opacity:0.2;fill:#ffffff;stroke-width:4"
     d="M 96 16 C 51.68 16 16 51.68 16 96 C 16 96.336 16.002 96.6675 16 97 C 16 52.68 51.68 17 96 17 C 140.32 17 176 52.68 176 97 C 175.998 96.6675 176 96.336 176 96 C 176 51.68 140.32 16 96 16 z "
     id="path4" />
  <path
     style="opacity:0.2;fill:#000000;stroke-width:5.25;filter:url(#filter1663)"
     d="M 64.5,66 C 58.682999,66 54,70.682998 54,76.5 v 43 c 0,5.817 4.682999,10.5 10.5,10.5 h 62.99999 C 133.31699,130 138,125.317 138,119.5 v -43 C 138,70.682998 133.31699,66 127.49999,66 Z M 64,76.5 96,92.250004 128,76.5 V 86.999999 L 96,102.75 64,86.999999 Z"
     id="path1625"
     sodipodi:nodetypes="sssssssssccccccc" />
  <path
     style="fill:#ffffff;stroke-width:5.25"
     d="M 64.5,64 C 58.682999,64 54,68.682998 54,74.5 v 43 c 0,5.817 4.682999,10.5 10.5,10.5 h 62.99999 C 133.31699,128 138,123.317 138,117.5 v -43 C 138,68.682998 133.31699,64 127.49999,64 Z M 64,74.5 96,90.250004 128,74.5 V 84.999999 L 96,100.75 64,84.999999 Z"
     id="path1035"
     sodipodi:nodetypes="sssssssssccccccc" />
</svg>
