<?xml version="1.0" encoding="UTF-8" standalone="no"?>
<!-- Generator: Adobe Illustrator 16.0.0, SVG Export Plug-In . SVG Version: 6.00 Build 0) -->

<svg
   version="1.1"
   id="Layer_1"
   x="0px"
   y="0px"
   width="192"
   height="192"
   viewBox="147.553 39.286 191.99999 192.00001"
   xml:space="preserve"
   sodipodi:docname="apps_adidas_running.svg"
   inkscape:version="1.1-rc (1:1.1+rc+202105232036+f4db50c7c1)"
   xmlns:inkscape="http://www.inkscape.org/namespaces/inkscape"
   xmlns:sodipodi="http://sodipodi.sourceforge.net/DTD/sodipodi-0.dtd"
   xmlns="http://www.w3.org/2000/svg"
   xmlns:svg="http://www.w3.org/2000/svg"><defs
     id="defs13"><filter
       inkscape:collect="always"
       style="color-interpolation-filters:sRGB"
       id="filter1442"
       x="-0.048000001"
       y="-0.048000002"
       width="1.096"
       height="1.096"><feGaussianBlur
         inkscape:collect="always"
         stdDeviation="3.2"
         id="feGaussianBlur1444" /></filter><filter
       inkscape:collect="always"
       style="color-interpolation-filters:sRGB"
       id="filter5326"
       x="-0.054399968"
       y="-0.042947385"
       width="1.1087999"
       height="1.0858948"><feGaussianBlur
         inkscape:collect="always"
         stdDeviation="2.0399974"
         id="feGaussianBlur5328" /></filter></defs><sodipodi:namedview
     id="namedview11"
     pagecolor="#ffffff"
     bordercolor="#666666"
     borderopacity="1.0"
     inkscape:pageshadow="2"
     inkscape:pageopacity="0.0"
     inkscape:pagecheckerboard="0"
     showgrid="false"
     inkscape:zoom="1"
     inkscape:cx="89.5"
     inkscape:cy="86"
     inkscape:window-width="1920"
     inkscape:window-height="1014"
     inkscape:window-x="0"
     inkscape:window-y="34"
     inkscape:window-maximized="1"
     inkscape:current-layer="Layer_1"><inkscape:grid
       type="xygrid"
       id="grid1366" /></sodipodi:namedview><rect
     x="147.55299"
     y="-283.18799"
     style="fill:none"
     width="514.23102"
     height="514.22998"
     id="rect8" /><path
     style="opacity:0.2;fill:#000000;fill-opacity:1;stroke-width:0.311023;filter:url(#filter1442)"
     d="m 163.553,178.59028 v 0.007 c 0.0959,3.55175 0.1254,7.12402 0.72497,10.654 0.63536,3.73456 1.54359,7.37616 3.27636,10.76562 2.3426,4.58768 5.55985,8.46183 9.6209,11.62651 2.91574,2.27239 6.10093,4.07624 9.62682,5.21414 5.14137,1.65711 10.44545,2.29229 15.82701,2.32338 3.35757,0.0211 6.71295,0.10508 10.07176,0.0911 24.39219,-0.1026 48.78501,0.17597 73.17783,-0.15047 3.23684,-0.0438 6.42078,-0.43838 9.59757,-1.01883 6.08879,-1.11365 11.47004,-3.70969 16.07405,-7.81391 5.3657,-4.78199 8.98587,-10.63442 10.62,-17.69781 1.06941,-4.6169 1.33698,-9.30096 1.38273,-14.00149 v -0.93768 c 0,-0.36376 -0.13847,-79.868346 -0.15122,-80.919197 -0.0358,-2.886729 -0.2486,-5.751694 -0.7903,-8.592099 -0.6587,-3.461276 -1.58933,-6.833946 -3.24804,-9.965355 -1.75144,-3.308313 -3.94533,-6.283027 -6.65882,-8.882482 -4.15658,-3.98266 -8.95319,-6.799125 -14.53731,-8.28897 -5.04365,-1.345274 -10.18905,-1.643119 -15.3721,-1.638455 -0.008,-0.0012 -0.028,-0.05379 -0.0292,-0.07928 h -78.45083 c -0.002,0.02674 -0.002,0.05348 -0.004,0.07928 -2.94157,0.05379 -5.88749,0.03171 -8.81412,0.394224 -3.20603,0.398266 -6.38127,0.997997 -9.41586,2.117867 -4.7798,1.766548 -8.93265,4.518034 -12.48001,8.191346 -4.01906,4.16174 -6.85204,8.97482 -8.35518,14.579458 -1.34104,5.000555 -1.63288,10.100598 -1.64004,15.236706"
     id="path1368" /><path
     style="fill:#00b3b9;fill-opacity:1;stroke-width:0.311023"
     d="m 163.553,174.59028 v 0.007 c 0.0959,3.55175 0.1254,7.12402 0.72497,10.654 0.63536,3.73456 1.54359,7.37616 3.27636,10.76562 2.3426,4.58768 5.55985,8.46183 9.6209,11.62651 2.91574,2.27239 6.10093,4.07624 9.62682,5.21414 5.14137,1.65711 10.44545,2.29229 15.82701,2.32338 3.35757,0.0211 6.71295,0.10508 10.07176,0.0911 24.39219,-0.1026 48.78501,0.17597 73.17783,-0.15047 3.23684,-0.0438 6.42078,-0.43838 9.59757,-1.01883 6.08879,-1.11365 11.47004,-3.70969 16.07405,-7.81391 5.3657,-4.78199 8.98587,-10.63442 10.62,-17.69781 1.06941,-4.6169 1.33698,-9.30096 1.38273,-14.00149 v -0.93768 c 0,-0.36376 -0.13847,-79.868347 -0.15122,-80.919198 -0.0358,-2.886729 -0.2486,-5.751694 -0.7903,-8.592099 -0.6587,-3.461276 -1.58933,-6.833946 -3.24804,-9.965355 -1.75144,-3.308313 -3.94533,-6.283027 -6.65882,-8.882482 -4.15658,-3.98266 -8.95319,-6.799125 -14.53731,-8.28897 -5.04365,-1.345274 -10.18905,-1.643119 -15.3721,-1.638455 -0.008,-0.0012 -0.028,-0.05379 -0.0292,-0.07928 h -78.45083 c -0.002,0.02674 -0.002,0.05348 -0.004,0.07928 -2.94157,0.05379 -5.88749,0.03171 -8.81412,0.394224 -3.20603,0.398266 -6.38127,0.997997 -9.41586,2.117867 -4.7798,1.766548 -8.93265,4.518034 -12.48001,8.191346 -4.01906,4.16174 -6.85204,8.97482 -8.35518,14.579458 -1.34104,5.000555 -1.63288,10.100598 -1.64004,15.236706"
     id="path2" /><path
     id="path1446"
     style="opacity:0.2;fill:#ffffff;fill-opacity:1;stroke-width:0.311023"
     d="m 204.31472,55.286 c -0.002,0.02674 -0.002,0.05428 -0.004,0.08008 -2.94157,0.05379 -5.88782,0.03006 -8.81445,0.392578 -3.20603,0.398266 -6.38143,0.999271 -9.41602,2.119141 -4.7798,1.766548 -8.93116,4.518094 -12.47852,8.191406 -4.01906,4.16174 -6.85232,8.973487 -8.35546,14.578125 -1.34104,5.000555 -1.63347,10.102173 -1.64063,15.238281 v 1 c 0.007,-5.136108 0.29959,-10.237726 1.64063,-15.238281 1.50314,-5.604638 4.3364,-10.416385 8.35546,-14.578125 3.54736,-3.673312 7.69872,-6.424858 12.47852,-8.191406 3.03459,-1.11987 6.20999,-1.720875 9.41602,-2.119141 2.92663,-0.362514 5.87288,-0.338788 8.81445,-0.392578 0.002,-0.0258 0.002,-0.05334 0.004,-0.08008 h 78.45117 c 10e-4,0.02549 0.0213,0.07888 0.0293,0.08008 5.18305,-0.0047 10.32939,0.291445 15.37304,1.636719 5.58412,1.489845 10.38053,4.306402 14.53711,8.289062 2.71349,2.599455 4.90677,5.5745 6.65821,8.882813 1.65871,3.131409 2.58934,6.505521 3.24804,9.966797 0.5417,2.840405 0.75522,5.705068 0.79102,8.591797 0.0127,1.050039 0.15018,80.369922 0.15039,80.855462 v -0.9375 c 0,-0.36376 -0.13764,-79.867111 -0.15039,-80.917962 -0.0358,-2.886729 -0.24932,-5.751392 -0.79102,-8.591797 -0.6587,-3.461276 -1.58933,-6.835388 -3.24804,-9.966797 -1.75144,-3.308313 -3.94472,-6.283358 -6.65821,-8.882813 -4.15658,-3.98266 -8.95299,-6.799217 -14.53711,-8.289062 -5.04365,-1.345274 -10.18999,-1.641383 -15.37304,-1.636719 -0.008,-0.0012 -0.0281,-0.05459 -0.0293,-0.08008 z" /><path
     id="path5288"
     style="opacity:0.2;fill:#000000;stroke-width:0.15718;filter:url(#filter5326)"
     d="m 248.86994,80.304668 c -0.65281,0.03243 -1.27165,0.107867 -1.80746,0.23034 -3.68211,0.841626 -5.18279,3.034582 -5.22048,7.632713 -0.0137,1.663466 0.18562,2.379433 0.99979,3.590939 0.66895,0.995426 0.86797,2.377041 0.63712,4.41583 -0.25708,2.270494 -0.44024,2.685439 -1.45852,3.293664 -0.46948,0.280423 -1.38865,0.646556 -2.04467,0.815046 -2.18222,0.56049 -4.25746,1.82657 -6.08892,3.71497 -0.76234,0.78604 -2.28813,1.89536 -6.04776,4.40008 -5.45552,3.63454 -5.56812,3.73641 -6.6045,5.88843 -0.52593,1.09207 -0.54618,1.18926 -0.37443,1.87422 0.24864,0.99164 1.71408,4.22009 2.77589,6.1168 1.16206,2.07578 5.40159,8.15981 6.83582,9.80814 0.62672,0.72027 1.56433,1.84832 2.08192,2.50815 1.05285,1.34216 1.94912,1.93131 2.94449,1.93131 0.61913,0 0.62224,0.003 0.51753,0.51187 -0.27426,1.33403 -0.27915,3.1694 -0.0157,5.25844 0.2711,2.14926 0.26988,2.23019 -0.0686,5.2545 -0.47345,4.22968 -1.32879,9.19639 -1.68984,9.81799 -0.0416,0.0715 -0.22669,-0.009 -0.41168,-0.17916 -0.99623,-0.91549 -2.62035,-1.34964 -5.98306,-1.60056 -1.29399,-0.0966 -2.91697,-0.30907 -3.60709,-0.47052 -1.88233,-0.44035 -5.09649,-0.77759 -7.48471,-0.78749 -1.12311,-0.005 -1.35118,-0.0464 -1.28013,-0.2323 0.0573,-0.14992 -0.12722,-0.33721 -0.54498,-0.55125 -0.40478,-0.20737 -0.83767,-0.63533 -1.20759,-1.19501 -0.31713,-0.47981 -0.90387,-1.13372 -1.30365,-1.45291 -0.39978,-0.31918 -1.04747,-0.92002 -1.44088,-1.33479 -0.40164,-0.42346 -0.85777,-0.75402 -1.039,-0.75402 -0.46529,0 -2.26168,1.44602 -3.15032,2.53571 -0.41872,0.51346 -1.1068,1.51677 -1.53105,2.23055 -0.42424,0.71379 -1.29463,1.90171 -1.93293,2.63809 -1.65516,1.90947 -2.63228,3.33503 -3.39929,4.96116 -0.805,1.70664 -1.16187,3.03199 -1.28209,4.75445 l -0.0902,1.28754 0.53126,0.32681 c 0.8397,0.5141 1.44532,0.43083 2.24463,-0.30909 0.37766,-0.34959 0.92253,-0.98313 1.21151,-1.40566 0.47673,-0.69705 0.83417,-0.93761 3.85606,-2.60855 2.22801,-1.23198 3.78517,-1.98453 4.7049,-2.27191 1.20722,-0.37721 1.37175,-0.47184 1.33894,-0.77173 -0.0206,-0.18784 7e-4,-0.34058 0.047,-0.34058 0.0464,0 2.14474,0.71459 4.66373,1.58875 2.51899,0.87416 6.48467,2.25151 8.81385,3.05938 6.45547,2.23905 8.10759,2.84448 8.70602,3.19523 0.8714,0.51076 1.81537,0.70866 2.42106,0.50792 0.62721,-0.20787 1.89972,-1.53248 4.31675,-4.49457 2.50035,-3.0642 4.1352,-5.27031 5.02444,-6.78223 0.70874,-1.20503 1.55368,-2.99562 1.79766,-3.8075 0.18695,-0.62214 0.55502,-0.45239 2.28188,1.06114 0.56072,0.49145 1.76032,1.37515 2.66611,1.96281 0.90579,0.58766 2.93035,2.03129 4.49905,3.20901 l 2.85235,2.14196 0.0882,1.18714 c 0.23052,3.05626 0.45598,4.89254 0.73318,5.98096 0.29266,1.14917 1.67956,4.11537 4.05601,8.67416 0.96119,1.84388 2.86805,6.47131 3.09935,7.5205 0.0573,0.25998 0.007,0.35437 -0.19015,0.35437 -0.23197,0 -0.25261,0.10841 -0.15879,0.79339 0.069,0.50348 0.0454,0.86705 -0.0647,1.00011 -0.36712,0.44425 -0.79787,2.06801 -0.79787,3.00425 0,0.53223 -0.0671,1.03594 -0.14898,1.11824 -0.2157,0.21689 -0.35633,1.37331 -0.19604,1.61238 0.2164,0.32282 2.18189,0.94008 3.63845,1.14185 0.78626,0.10893 2.07286,0.14688 3.1366,0.0925 1.23525,-0.0631 2.22359,-0.0225 3.1366,0.1319 1.87408,0.31682 5.99023,0.23496 7.42395,-0.14766 1.45992,-0.38963 3.88505,-1.63171 4.15795,-2.13015 0.26733,-0.48824 0.0102,-1.64633 -0.41756,-1.87619 -0.15156,-0.0814 -1.015,-0.22938 -1.91725,-0.32877 l -1.63887,-0.18113 -3.45222,-1.74625 c -2.31599,-1.17262 -3.83106,-2.04965 -4.60884,-2.6676 -0.88639,-0.70422 -1.20634,-0.87988 -1.36442,-0.74812 -0.27683,0.23073 -0.48223,0.0796 -0.83316,-0.61423 -0.5261,-1.04013 -1.07111,-3.05326 -1.50165,-5.54194 -0.62509,-3.61314 -1.25769,-6.84832 -2.2113,-11.32209 -0.77405,-3.63125 -0.85054,-4.17823 -0.85277,-5.98489 -0.004,-3.33794 -0.0998,-3.56214 -3.88742,-9.22738 -3.59612,-5.3787 -4.46683,-6.45836 -8.38256,-10.38498 l -3.59533,-3.60472 0.18232,-1.98643 c 0.31133,-3.41406 1.54286,-12.0113 2.12896,-14.85594 l 0.0882,-0.42524 5.17344,0.0492 5.17539,0.0473 0.53126,0.51777 0.53322,0.51778 1.38011,-0.10435 c 1.81518,-0.13786 2.28337,-0.27495 2.50535,-0.73826 0.1011,-0.211 0.30449,-1.42721 0.45285,-2.70305 0.30597,-2.63138 0.29268,-2.68756 -0.77239,-2.97276 -0.35657,-0.0955 -1.1323,-0.37852 -1.72316,-0.62999 -0.59086,-0.25147 -1.13908,-0.41676 -1.2174,-0.36815 -0.0783,0.0486 -0.24738,0.29284 -0.3764,0.54336 -0.16572,0.32184 -0.39461,0.48487 -0.77826,0.55715 -0.29866,0.0562 -0.61514,0.19002 -0.70378,0.29728 -0.11427,0.13827 -0.37846,0.16063 -0.90764,0.0748 -0.41045,-0.0665 -1.80538,-0.17214 -3.09936,-0.23428 l -2.35246,-0.11222 -0.0117,-3.16766 c -0.018,-4.76081 -0.49252,-7.04207 -1.7859,-8.59345 -0.91534,-1.09791 -1.89986,-1.77758 -3.53456,-2.43727 -2.00798,-0.81033 -1.88036,-0.66048 -1.64867,-1.925402 0.27487,-1.500665 0.53566,-2.07839 0.97234,-2.16362 2.01651,-0.39357 2.18267,-0.450488 2.42695,-0.824891 0.33584,-0.514748 0.63842,-1.864448 0.76846,-3.431473 0.0716,-0.862318 0.19481,-1.377862 0.37835,-1.590723 0.49302,-0.571795 0.48995,-0.681955 -0.0686,-2.358523 -0.30473,-0.914667 -0.55479,-1.869335 -0.55479,-2.122275 0,-0.699454 -0.44073,-2.651062 -0.76259,-3.378318 -0.41961,-0.948133 -1.02108,-1.588184 -1.86431,-1.986435 -1.2271,-0.579549 -3.48749,-0.870998 -5.44592,-0.773705 z m -11.66227,32.326322 c 0.0463,-0.004 0.0835,0.001 0.10978,0.0177 0.0699,0.0433 0.17218,1.65792 0.22937,3.58897 0.0572,1.93105 0.18078,5.682 0.27445,8.33358 0.0936,2.65157 0.1468,4.9564 0.11762,5.1226 -0.0491,0.27959 -0.11503,0.26494 -0.87433,-0.19294 -0.98157,-0.59191 -1.73203,-0.73787 -2.68375,-0.52368 -0.67129,0.15108 -0.72472,0.1367 -1.0586,-0.28152 -0.19325,-0.24206 -0.97495,-1.89141 -1.73689,-3.66575 -1.35451,-3.15424 -2.4122,-5.05268 -3.24442,-5.81953 -0.22793,-0.21002 -0.4135,-0.45805 -0.41168,-0.55124 0.002,-0.0931 0.78849,-0.5945 1.74669,-1.11429 2.25085,-1.22101 4.70849,-2.82944 5.70077,-3.73072 0.72915,-0.66228 1.5072,-1.15721 1.83099,-1.1832 z" /><path
     id="path2296"
     style="fill:#ffffff;stroke-width:0.15718"
     d="m 248.86994,78.304626 c -0.65281,0.03243 -1.27165,0.107867 -1.80746,0.23034 -3.68211,0.841626 -5.18279,3.034582 -5.22048,7.632713 -0.0137,1.663466 0.18562,2.379433 0.99979,3.590939 0.66895,0.995426 0.86797,2.377041 0.63712,4.41583 -0.25708,2.270494 -0.44024,2.685439 -1.45852,3.293664 -0.46948,0.280423 -1.38865,0.646553 -2.04467,0.815047 -2.18222,0.560493 -4.25746,1.826571 -6.08892,3.714971 -0.76234,0.78604 -2.28813,1.89536 -6.04776,4.40008 -5.45552,3.63454 -5.56812,3.73641 -6.6045,5.88843 -0.52593,1.09207 -0.54618,1.18926 -0.37443,1.87422 0.24864,0.99164 1.71408,4.22009 2.77589,6.1168 1.16206,2.07578 5.40159,8.15981 6.83582,9.80814 0.62672,0.72027 1.56433,1.84832 2.08192,2.50815 1.05285,1.34216 1.94912,1.93131 2.94449,1.93131 0.61913,0 0.62224,0.003 0.51753,0.51187 -0.27426,1.33403 -0.27915,3.1694 -0.0157,5.25844 0.2711,2.14926 0.26988,2.23019 -0.0686,5.2545 -0.47345,4.22968 -1.32879,9.19639 -1.68984,9.81799 -0.0416,0.0715 -0.22669,-0.009 -0.41168,-0.17916 -0.99623,-0.91549 -2.62035,-1.34964 -5.98306,-1.60056 -1.29399,-0.0966 -2.91697,-0.30907 -3.60709,-0.47052 -1.88233,-0.44035 -5.09649,-0.77759 -7.48471,-0.78749 -1.12311,-0.005 -1.35118,-0.0464 -1.28013,-0.2323 0.0573,-0.14992 -0.12722,-0.33721 -0.54498,-0.55125 -0.40478,-0.20737 -0.83767,-0.63533 -1.20759,-1.19501 -0.31713,-0.47981 -0.90387,-1.13372 -1.30365,-1.45291 -0.39978,-0.31918 -1.04747,-0.92002 -1.44088,-1.33479 -0.40164,-0.42346 -0.85777,-0.75402 -1.039,-0.75402 -0.46529,0 -2.26168,1.44602 -3.15032,2.53571 -0.41872,0.51346 -1.1068,1.51677 -1.53105,2.23055 -0.42424,0.71379 -1.29463,1.90171 -1.93293,2.63809 -1.65516,1.90947 -2.63228,3.33503 -3.39929,4.96116 -0.805,1.70664 -1.16187,3.03199 -1.28209,4.75445 l -0.0902,1.28754 0.53126,0.32681 c 0.8397,0.5141 1.44532,0.43083 2.24463,-0.30909 0.37766,-0.34959 0.92253,-0.98313 1.21151,-1.40566 0.47673,-0.69705 0.83417,-0.93761 3.85606,-2.60855 2.22801,-1.23198 3.78517,-1.98453 4.7049,-2.27191 1.20722,-0.37721 1.37175,-0.47184 1.33894,-0.77173 -0.0206,-0.18784 7e-4,-0.34058 0.047,-0.34058 0.0464,0 2.14474,0.71459 4.66373,1.58875 2.51899,0.87416 6.48467,2.25151 8.81385,3.05938 6.45547,2.23905 8.10759,2.84448 8.70602,3.19523 0.8714,0.51076 1.81537,0.70866 2.42106,0.50792 0.62721,-0.20787 1.89972,-1.53248 4.31675,-4.49457 2.50035,-3.0642 4.1352,-5.27031 5.02444,-6.78223 0.70874,-1.20503 1.55368,-2.99562 1.79766,-3.8075 0.18695,-0.62214 0.55502,-0.45239 2.28188,1.06114 0.56072,0.49145 1.76032,1.37515 2.66611,1.96281 0.90579,0.58766 2.93035,2.03129 4.49905,3.20901 l 2.85235,2.14196 0.0882,1.18714 c 0.23052,3.05626 0.45598,4.89254 0.73318,5.98096 0.29266,1.14917 1.67956,4.11537 4.05601,8.67416 0.96119,1.84388 2.86805,6.47131 3.09935,7.5205 0.0573,0.25998 0.007,0.35437 -0.19015,0.35437 -0.23197,0 -0.25261,0.10841 -0.15879,0.79339 0.069,0.50348 0.0454,0.86705 -0.0647,1.00011 -0.36712,0.44425 -0.79787,2.06801 -0.79787,3.00425 0,0.53223 -0.0671,1.03594 -0.14898,1.11824 -0.2157,0.21689 -0.35633,1.37331 -0.19604,1.61238 0.2164,0.32282 2.18189,0.94008 3.63845,1.14185 0.78626,0.10893 2.07286,0.14688 3.1366,0.0925 1.23525,-0.0631 2.22359,-0.0225 3.1366,0.1319 1.87408,0.31682 5.99023,0.23496 7.42395,-0.14766 1.45992,-0.38963 3.88505,-1.63171 4.15795,-2.13015 0.26733,-0.48824 0.0102,-1.64633 -0.41756,-1.87619 -0.15156,-0.0814 -1.015,-0.22938 -1.91725,-0.32877 l -1.63887,-0.18113 -3.45222,-1.74625 c -2.31599,-1.17262 -3.83106,-2.04965 -4.60884,-2.6676 -0.88639,-0.70422 -1.20634,-0.87988 -1.36442,-0.74812 -0.27683,0.23073 -0.48223,0.0796 -0.83316,-0.61423 -0.5261,-1.04013 -1.07111,-3.05326 -1.50165,-5.54194 -0.62509,-3.61314 -1.25769,-6.84832 -2.2113,-11.32209 -0.77405,-3.63125 -0.85054,-4.17823 -0.85277,-5.98489 -0.004,-3.33794 -0.0998,-3.56214 -3.88742,-9.22738 -3.59612,-5.3787 -4.46683,-6.45836 -8.38256,-10.38498 l -3.59533,-3.60472 0.18232,-1.98643 c 0.31133,-3.41406 1.54286,-12.0113 2.12896,-14.85594 l 0.0882,-0.42524 5.17344,0.0492 5.17539,0.0473 0.53126,0.51777 0.53322,0.51778 1.38011,-0.10435 c 1.81518,-0.13786 2.28337,-0.27495 2.50535,-0.73826 0.1011,-0.211 0.30449,-1.42721 0.45285,-2.70305 0.30597,-2.63138 0.29268,-2.68756 -0.77239,-2.97276 -0.35657,-0.0955 -1.1323,-0.37852 -1.72316,-0.62999 -0.59086,-0.25147 -1.13908,-0.41676 -1.2174,-0.36815 -0.0783,0.0486 -0.24738,0.29284 -0.3764,0.54336 -0.16572,0.32184 -0.39461,0.48487 -0.77826,0.55715 -0.29866,0.0562 -0.61514,0.19002 -0.70378,0.29728 -0.11427,0.13827 -0.37846,0.16063 -0.90764,0.0748 -0.41045,-0.0665 -1.80538,-0.17214 -3.09936,-0.23428 l -2.35246,-0.11222 -0.0117,-3.16766 c -0.018,-4.76081 -0.49252,-7.04207 -1.7859,-8.59345 -0.91534,-1.09791 -1.89986,-1.777578 -3.53456,-2.437269 -2.00798,-0.810329 -1.88036,-0.660482 -1.64867,-1.925405 0.27487,-1.500665 0.53566,-2.07839 0.97234,-2.16362 2.01651,-0.39357 2.18267,-0.450488 2.42695,-0.824891 0.33584,-0.514748 0.63842,-1.864448 0.76846,-3.431473 0.0716,-0.862318 0.19481,-1.377862 0.37835,-1.590723 0.49302,-0.571795 0.48995,-0.681955 -0.0686,-2.358523 -0.30473,-0.914667 -0.55479,-1.869335 -0.55479,-2.122275 0,-0.699454 -0.44073,-2.651062 -0.76259,-3.378318 -0.41961,-0.948133 -1.02108,-1.588184 -1.86431,-1.986435 -1.2271,-0.579549 -3.48749,-0.870998 -5.44592,-0.773705 z m -11.66227,32.326324 c 0.0463,-0.004 0.0835,0.001 0.10978,0.0177 0.0699,0.0433 0.17218,1.65792 0.22937,3.58897 0.0572,1.93105 0.18078,5.682 0.27445,8.33358 0.0936,2.65157 0.1468,4.9564 0.11762,5.1226 -0.0491,0.27959 -0.11503,0.26494 -0.87433,-0.19294 -0.98157,-0.59191 -1.73203,-0.73787 -2.68375,-0.52368 -0.67129,0.15108 -0.72472,0.1367 -1.0586,-0.28152 -0.19325,-0.24206 -0.97495,-1.89141 -1.73689,-3.66575 -1.35451,-3.15424 -2.4122,-5.05268 -3.24442,-5.81953 -0.22793,-0.21002 -0.4135,-0.45805 -0.41168,-0.55124 0.002,-0.0931 0.78849,-0.5945 1.74669,-1.11429 2.25085,-1.22101 4.70849,-2.82944 5.70077,-3.73072 0.72915,-0.66228 1.5072,-1.15721 1.83099,-1.1832 z" /><path
     id="path1242"
     style="fill:#8ed3db;fill-opacity:1;stroke-width:0.15718"
     d="m 258.20339,101.29772 -0.33789,0.26758 c 0.80623,1.52394 1.03746,2.68115 0.9375,4.70117 -0.10657,2.1525 -0.5271,4.23075 -1.43555,7.11719 -0.38654,1.22814 -0.8762,2.89344 -1.08984,3.70117 -0.44142,1.66886 -1.48911,7.7994 -1.97266,11.54101 -0.22118,1.71149 -0.40485,2.59896 -0.57617,2.78907 -0.50259,0.55771 -2.81458,1.07302 -4.8418,1.08007 l -1.09765,0.004 1.2832,0.52149 c 1.308,0.53279 3.64014,1.91883 4.4082,2.61914 l 0.30079,-0.0547 0.18164,-1.98633 c 0.31133,-3.41406 1.5428,-12.01083 2.1289,-14.85547 l 0.0879,-0.42578 5.17383,0.0488 5.13672,0.0469 -0.87305,-0.80469 -0.10547,-1.63281 -0.10351,-1.63086 0.51758,-0.53711 c 0.28493,-0.29523 0.78024,-0.60647 1.10156,-0.69336 0.21494,-0.0581 0.38,-0.15897 0.50586,-0.26562 -0.12564,0.0895 -0.27762,0.14758 -0.46875,0.18359 -0.29866,0.0562 -0.61644,0.19157 -0.70508,0.29883 -0.11427,0.13827 -0.37707,0.16005 -0.90625,0.0742 -0.41045,-0.0665 -1.80563,-0.17223 -3.09961,-0.23437 l -2.35351,-0.11133 -0.0117,-3.16797 c -0.018,-4.7608 -0.49178,-7.04237 -1.78516,-8.59375 z m -16.40234,7.21484 -0.8125,0.5586 c -0.94192,0.65069 -2.0985,1.11677 -3.36328,1.35156 -0.35353,0.0656 -0.60669,0.13089 -0.83594,0.20898 h 0.41797 c 0.0463,-0.004 0.0831,8.8e-4 0.10937,0.0176 0.0699,0.0433 0.17329,1.65684 0.23047,3.58789 0.0572,1.93105 0.17978,5.68241 0.27344,8.33399 0.0267,0.75511 0.0141,0.8015 0.0332,1.45898 l 1.59961,-5.17578 c 2.07737,-6.72459 2.12608,-6.90789 2.24804,-8.78711 z m 26.41797,3.41992 c -0.0377,0.0235 -0.11626,0.16839 -0.18164,0.26172 0.23678,-0.12537 0.60462,-0.0481 1.35351,0.25977 0.62745,0.25795 1.35253,0.51714 1.61133,0.57812 0.98202,0.23123 0.99599,0.29196 0.6914,2.91407 -0.15046,1.29535 -0.31689,2.49647 -0.37109,2.66797 -0.0587,0.18582 -0.30011,0.35709 -0.59961,0.42382 -0.27646,0.0616 -1.11595,0.15537 -1.86328,0.20899 l -1.35742,0.0977 -0.29688,-0.27149 0.38868,0.375 1.3789,-0.10351 c 1.81518,-0.13786 2.28388,-0.27496 2.50586,-0.73828 0.1011,-0.21099 0.30477,-1.42728 0.45313,-2.70313 0.30597,-2.63137 0.29163,-2.68745 -0.77344,-2.97265 -0.35657,-0.0954 -1.1318,-0.37939 -1.72266,-0.63086 -0.59086,-0.25146 -1.13846,-0.41579 -1.21679,-0.36719 z m -0.4961,0.6875 c -0.0568,0.0771 -0.10665,0.16497 -0.17969,0.21875 0.0681,-0.06 0.14277,-0.1205 0.16211,-0.18164 0.005,-0.0163 0.0123,-0.0216 0.0176,-0.0371 z m -29.89062,15.23633 c -0.0703,0.0622 -0.14437,0.1219 -0.22266,0.17969 0.10297,0.0514 0.20171,0.0997 0.21875,0.0859 0.006,-0.005 -7.2e-4,-0.23249 0.004,-0.26563 z m 1.03125,1.64453 c -0.0394,0 0.071,0.42082 0.24414,0.93555 0.44499,1.32329 0.36039,1.75213 -0.41407,2.11719 -0.34456,0.16241 -0.99226,0.63056 -1.43945,1.04101 -1.06923,0.98136 -1.77169,1.1162 -2.95898,0.57032 -0.19963,-0.0918 -0.34952,-0.21016 -0.51172,-0.32032 0.57164,0.44512 1.12675,0.68164 1.71484,0.68164 0.61913,0 0.62229,0.003 0.51758,0.51172 -0.0276,0.13426 -0.0404,0.29333 -0.0625,0.4375 0.0846,-0.34891 0.20418,-0.51012 0.66016,-0.69336 0.34811,-0.13987 0.92269,-0.45121 1.27734,-0.6914 0.35466,-0.24018 0.87768,-0.53204 1.16211,-0.64649 1.08612,-0.43701 1.23132,-1.80621 0.3418,-3.21484 -0.2533,-0.4011 -0.4919,-0.72852 -0.53125,-0.72852 z m -2.81446,11.22071 c 0.16884,1.37702 0.18299,1.98032 0.0156,3.59179 0.0401,0.005 0.2535,0.22593 0.48243,0.50196 0.23165,0.27935 0.89319,1.03108 1.4707,1.66992 2.6797,2.96428 4.60877,6.88898 5.25586,10.69726 l 0.26758,1.58399 -1.24805,1.52148 c -0.68644,0.83741 -1.62091,1.99677 -2.07813,2.57617 -1.08094,1.36977 -2.5101,2.83003 -3.04492,3.11329 -0.50615,0.26807 -1.24279,0.23552 -1.98437,-0.0449 0.71159,0.3102 1.41873,0.41744 1.90625,0.25586 0.62721,-0.20787 1.89937,-1.53205 4.3164,-4.49414 2.50034,-3.0642 4.13615,-5.27128 5.02539,-6.7832 0.70874,-1.20503 1.5529,-2.99476 1.79688,-3.80664 0.0584,-0.19442 0.14176,-0.30131 0.27149,-0.32422 -0.31632,-0.15733 -0.60133,-0.30815 -1.07227,-0.49414 -2.46212,-0.97228 -5.00159,-2.24271 -6.6543,-3.33203 -1.63226,-1.07587 -3.57011,-2.87503 -4.13281,-3.83594 -0.24314,-0.41521 -0.43867,-1.34945 -0.59375,-2.39648 z m 14.30469,11.30859 c 0.061,0.053 0.0935,0.078 0.1582,0.13477 0.14358,0.10548 0.17676,0.13392 0.30469,0.22851 -0.17135,-0.13536 -0.27003,-0.20874 -0.46289,-0.36328 z m 0.46289,0.36328 c 2.06915,1.63452 2.49646,1.84588 0,0 z m -38.29492,4.19922 c -1.15946,0 -3.01591,1.09287 -6.49414,3.82227 -1.82234,1.43001 -3.29697,2.83275 -4.14453,3.94336 -0.31734,0.41583 -0.7615,0.90248 -0.98633,1.08007 -0.48252,0.38115 -1.30872,0.41217 -1.84766,0.084 l 0.0352,0.0215 c 0.8397,0.5141 1.44482,0.43133 2.24414,-0.30859 0.37766,-0.34959 0.92391,-0.98372 1.21289,-1.40625 0.47672,-0.69705 0.83358,-0.93648 3.85547,-2.60742 2.22801,-1.23198 3.78535,-1.98411 4.70508,-2.27149 1.20722,-0.37721 1.37071,-0.47355 1.33789,-0.77344 -0.0206,-0.18783 5.9e-4,-0.33984 0.0469,-0.33984 0.0464,0 2.14506,0.71569 4.66406,1.58984 2.51899,0.87416 6.48528,2.25073 8.81446,3.0586 6.45547,2.23905 8.10665,2.84456 8.70508,3.19531 -0.10597,-0.0578 -0.21312,-0.10003 -0.31641,-0.16797 -0.20369,-0.13402 -0.65244,-0.34466 -0.99609,-0.46679 -0.34365,-0.12214 -2.46022,-1.03935 -4.70313,-2.03907 -9.38829,-4.18458 -14.99585,-6.41406 -16.13281,-6.41406 z m -13.90039,7.63672 -0.0684,0.98828 0.44141,0.27148 c -0.32309,-0.21706 -0.37223,-0.3783 -0.37305,-1.25976 z" /></svg>
