<?xml version="1.0" encoding="UTF-8" standalone="no"?>
<svg
   width="192"
   height="192"
   version="1.1"
   id="svg14"
   sodipodi:docname="apps_battery_monitor.svg"
   inkscape:version="1.1.1 (1:1.1+202109281949+c3084ef5ed)"
   xmlns:inkscape="http://www.inkscape.org/namespaces/inkscape"
   xmlns:sodipodi="http://sodipodi.sourceforge.net/DTD/sodipodi-0.dtd"
   xmlns="http://www.w3.org/2000/svg"
   xmlns:svg="http://www.w3.org/2000/svg">
  <defs
     id="defs18">
    <filter
       inkscape:collect="always"
       style="color-interpolation-filters:sRGB"
       id="filter8489"
       x="-0.047915506"
       y="-0.048084562"
       width="1.095831"
       height="1.0961691">
      <feGaussianBlur
         inkscape:collect="always"
         stdDeviation="3.1944852"
         id="feGaussianBlur8491" />
    </filter>
    <filter
       inkscape:collect="always"
       style="color-interpolation-filters:sRGB"
       id="filter8572"
       x="-0.062837838"
       y="-0.093"
       width="1.1256757"
       height="1.186">
      <feGaussianBlur
         inkscape:collect="always"
         stdDeviation="1.9375"
         id="feGaussianBlur8574" />
    </filter>
  </defs>
  <sodipodi:namedview
     id="namedview16"
     pagecolor="#ffffff"
     bordercolor="#666666"
     borderopacity="1.0"
     inkscape:pageshadow="2"
     inkscape:pageopacity="0.0"
     inkscape:pagecheckerboard="0"
     showgrid="false"
     inkscape:zoom="1"
     inkscape:cx="101.5"
     inkscape:cy="85.5"
     inkscape:window-width="1920"
     inkscape:window-height="1019"
     inkscape:window-x="0"
     inkscape:window-y="34"
     inkscape:window-maximized="1"
     inkscape:current-layer="svg14">
    <inkscape:grid
       type="xygrid"
       id="grid2617" />
  </sodipodi:namedview>
  <circle
     style="opacity:1;fill:#323232;fill-opacity:1;stroke:none;stroke-width:54.8123;stroke-linecap:round;stroke-linejoin:round;stroke-miterlimit:4;stroke-dasharray:none;stroke-opacity:1"
     id="path6048"
     cx="96"
     cy="96"
     r="69" />
  <path
     style="color:#000000;opacity:0.2;fill:#000000;fill-opacity:1;stroke-linecap:round;stroke-linejoin:round;-inkscape-stroke:none;filter:url(#filter8489)"
     d="m 85.833984,20.648794 c -43.464209,5.567896 -74.49878,45.410939 -69.259765,88.916016 5.239014,43.50508 44.845216,74.84148 88.388671,69.93164 43.54346,-4.90983 75.17998,-44.27807 70.59961,-87.857421 a 11,11 0 0 0 -12.08984,-9.791016 11,11 0 0 0 -9.79102,12.089844 C 157.02535,125.75118 134.28517,154.0509 102.49805,157.63513 70.710929,161.21935 42.240544,138.69306 38.416016,106.93395 34.591488,75.174849 56.901591,46.535675 88.630859,42.47106 A 11,11 0 0 0 98.142578,30.162466 11,11 0 0 0 85.833984,20.648794 Z"
     id="path8451" />
  <path
     style="color:#000000;fill:#3f51b5;stroke-linecap:round;stroke-linejoin:round;-inkscape-stroke:none;opacity:1;fill-opacity:1"
     d="m 85.833984,16.648437 c -43.464209,5.567896 -74.49878,45.410939 -69.259765,88.916013 5.239014,43.50508 44.845216,74.84148 88.388671,69.93164 43.54346,-4.90983 75.17998,-44.27807 70.59961,-87.857418 A 11,11 0 0 0 163.47266,77.847656 11,11 0 0 0 153.68164,89.9375 c 3.34371,31.81332 -19.39647,60.11304 -51.18359,63.69727 C 70.710929,157.21899 42.240544,134.6927 38.416016,102.93359 34.591488,71.174492 56.901591,42.535318 88.630859,38.470703 A 11,11 0 0 0 98.142578,26.162109 11,11 0 0 0 85.833984,16.648437 Z"
     id="path1119" />
  <path
     id="path8534"
     style="font-weight:bold;font-size:72.0461px;line-height:1.25;font-family:Ubuntu;-inkscape-font-specification:'Ubuntu Bold';opacity:0.2;fill:#000000;fill-opacity:1;stroke-width:1.80264;filter:url(#filter8572)"
     d="m 59,73 v 9 h 21.720703 c -1.68385,2.353506 -3.485355,5.313988 -5.121094,8.580078 -1.635739,3.218059 -3.12753,6.652395 -4.474609,10.302732 -1.29897,3.65034 -2.406222,7.37159 -3.320312,11.16602 C 66.8906,115.84326 66.290613,119.49375 66.001953,123 h 10.990235 c 0.288658,-4.32277 1.035531,-8.64598 2.238281,-12.96875 1.250859,-4.32277 2.692386,-8.35713 4.328125,-12.103516 1.68385,-3.794431 3.441352,-7.180298 5.269531,-10.158203 C 90.704413,84.791626 92.460481,82.462326 94,80.78125 V 73 Z m 39,0 v 9 h 21.7207 c -1.68385,2.353506 -3.48535,5.313988 -5.12109,8.580078 -1.63574,3.218059 -3.12753,6.652395 -4.47461,10.302732 -1.29897,3.65034 -2.40622,7.37159 -3.32031,11.16602 -0.91409,3.79443 -1.51408,7.44492 -1.80274,10.95117 h 10.99024 c 0.28866,-4.32277 1.03553,-8.64598 2.23828,-12.96875 1.25086,-4.32277 2.69238,-8.35713 4.32812,-12.103516 1.68385,-3.794431 3.44135,-7.180298 5.26953,-10.158203 1.87629,-2.977905 3.63236,-5.307205 5.17188,-6.988281 V 73 Z" />
  <path
     id="path7946"
     style="font-weight:bold;font-size:72.0461px;line-height:1.25;font-family:Ubuntu;-inkscape-font-specification:'Ubuntu Bold';fill:#10caff;stroke-width:1.80264;fill-opacity:1"
     d="M 59 71 L 59 80 L 80.720703 80 C 79.036853 82.353506 77.235348 85.313988 75.599609 88.580078 C 73.96387 91.798137 72.472079 95.232473 71.125 98.882812 C 69.82603 102.53315 68.718778 106.2544 67.804688 110.04883 C 66.8906 113.84326 66.290613 117.49375 66.001953 121 L 76.992188 121 C 77.280846 116.67723 78.027719 112.35402 79.230469 108.03125 C 80.481328 103.70848 81.922855 99.674124 83.558594 95.927734 C 85.242444 92.133303 86.999946 88.747436 88.828125 85.769531 C 90.704413 82.791626 92.460481 80.462326 94 78.78125 L 94 71 L 59 71 z M 98 71 L 98 80 L 119.7207 80 C 118.03685 82.353506 116.23535 85.313988 114.59961 88.580078 C 112.96387 91.798137 111.47208 95.232473 110.125 98.882812 C 108.82603 102.53315 107.71878 106.2544 106.80469 110.04883 C 105.8906 113.84326 105.29061 117.49375 105.00195 121 L 115.99219 121 C 116.28085 116.67723 117.02772 112.35402 118.23047 108.03125 C 119.48133 103.70848 120.92285 99.674124 122.55859 95.927734 C 124.24244 92.133303 125.99994 88.747436 127.82812 85.769531 C 129.70441 82.791626 131.46048 80.462326 133 78.78125 L 133 71 L 98 71 z " />
  <path
     id="path8493"
     style="color:#000000;fill:#ffffff;stroke-linecap:round;stroke-linejoin:round;-inkscape-stroke:none;opacity:0.1;fill-opacity:1"
     d="M 85.833984 16.648438 C 45.044268 21.873723 15.205584 57.285686 16.017578 97.582031 C 15.715845 57.702463 45.382973 22.830334 85.833984 17.648438 A 11 11 0 0 1 98.142578 27.162109 A 11 11 0 0 1 98.199219 28.072266 A 11 11 0 0 0 98.142578 26.162109 A 11 11 0 0 0 85.833984 16.648438 z M 163.47266 77.847656 A 11 11 0 0 0 153.68164 89.9375 C 153.7004 90.115945 153.70749 90.292483 153.72461 90.470703 A 11 11 0 0 1 163.47266 78.847656 A 11 11 0 0 1 175.5625 88.638672 C 175.83356 91.217648 175.96781 93.781007 175.99023 96.324219 C 176.00095 93.453453 175.86915 90.556264 175.5625 87.638672 A 11 11 0 0 0 163.47266 77.847656 z M 153.99609 96.455078 C 153.83723 125.53124 132.09449 150.29755 102.49805 153.63477 C 70.710926 157.21899 42.240544 134.6927 38.416016 102.93359 C 38.180865 100.98089 38.047297 99.041312 38.005859 97.117188 C 38.015886 99.368923 38.139969 101.64128 38.416016 103.93359 C 42.240544 135.6927 70.710926 158.21899 102.49805 154.63477 C 132.43408 151.25926 154.33847 125.96268 153.99609 96.455078 z " />
  <path
     id="path8576"
     style="font-weight:bold;font-size:72.0461px;line-height:1.25;font-family:Ubuntu;-inkscape-font-specification:'Ubuntu Bold';fill:#ffffff;stroke-width:1.80264;fill-opacity:1;opacity:0.2"
     d="M 59 71 L 59 72 L 94 72 L 94 71 L 59 71 z M 98 71 L 98 72 L 133 72 L 133 71 L 98 71 z M 80.037109 81 C 78.554974 83.175316 77.017223 85.74952 75.599609 88.580078 C 73.96387 91.798137 72.472079 95.232474 71.125 98.882812 C 69.82603 102.53315 68.718778 106.2544 67.804688 110.04883 C 66.8906 113.84326 66.290613 117.49375 66.001953 121 L 66.105469 121 C 66.42007 117.79915 66.97663 114.48614 67.804688 111.04883 C 68.718778 107.2544 69.82603 103.53315 71.125 99.882812 C 72.472079 96.232474 73.96387 92.798137 75.599609 89.580078 C 77.235348 86.313988 79.036853 83.353506 80.720703 81 L 80.037109 81 z M 119.03711 81 C 117.55497 83.175316 116.01722 85.74952 114.59961 88.580078 C 112.96387 91.798137 111.47208 95.232474 110.125 98.882812 C 108.82603 102.53315 107.71878 106.2544 106.80469 110.04883 C 105.8906 113.84326 105.29061 117.49375 105.00195 121 L 105.10547 121 C 105.42007 117.79915 105.97663 114.48614 106.80469 111.04883 C 107.71878 107.2544 108.82603 103.53315 110.125 99.882812 C 111.47208 96.232474 112.96387 92.798137 114.59961 89.580078 C 116.23535 86.313988 118.03685 83.353506 119.7207 81 L 119.03711 81 z " />
</svg>
