<?xml version="1.0" encoding="UTF-8" standalone="no"?>
<svg
   xmlns:dc="http://purl.org/dc/elements/1.1/"
   xmlns:cc="http://creativecommons.org/ns#"
   xmlns:rdf="http://www.w3.org/1999/02/22-rdf-syntax-ns#"
   xmlns:svg="http://www.w3.org/2000/svg"
   xmlns="http://www.w3.org/2000/svg"
   xmlns:sodipodi="http://sodipodi.sourceforge.net/DTD/sodipodi-0.dtd"
   xmlns:inkscape="http://www.inkscape.org/namespaces/inkscape"
   width="192"
   height="192"
   version="1.1"
   id="svg18"
   sodipodi:docname="apps_ms_onedrive.svg"
   inkscape:version="1.0.2 (1.0.2+r75+1)">
  <metadata
     id="metadata24">
    <rdf:RDF>
      <cc:Work
         rdf:about="">
        <dc:format>image/svg+xml</dc:format>
        <dc:type
           rdf:resource="http://purl.org/dc/dcmitype/StillImage" />
        <dc:title></dc:title>
      </cc:Work>
    </rdf:RDF>
  </metadata>
  <defs
     id="defs22">
    <filter
       inkscape:collect="always"
       style="color-interpolation-filters:sRGB"
       id="filter871"
       x="-0.039280189"
       width="1.0785604"
       y="-0.061695869"
       height="1.1233917">
      <feGaussianBlur
         inkscape:collect="always"
         stdDeviation="2.8805462"
         id="feGaussianBlur873" />
    </filter>
  </defs>
  <sodipodi:namedview
     pagecolor="#ffffff"
     bordercolor="#666666"
     borderopacity="1"
     objecttolerance="10"
     gridtolerance="10"
     guidetolerance="10"
     inkscape:pageopacity="0"
     inkscape:pageshadow="2"
     inkscape:window-width="1920"
     inkscape:window-height="1018"
     id="namedview20"
     showgrid="false"
     inkscape:zoom="1.93"
     inkscape:cx="24.121059"
     inkscape:cy="115.89922"
     inkscape:window-x="0"
     inkscape:window-y="30"
     inkscape:window-maximized="1"
     inkscape:current-layer="svg18" />
  <path
     style="opacity:0.2;stroke-width:4;filter:url(#filter871)"
     d="M 96.000028,39.999995 A 56,56 0 0 0 49.992216,64.10156 44,44 0 0 0 13.375028,87.023432 l -0.07812,0.0236 C 9.918356,93.275608 8.000032,100.416 8.000032,108 c 0.0044,8.98535 2.748784,17.35836 7.421876,24.35937 l -0.0156,0.008 c 0.06012,0.0903 0.13456,0.168 0.19532,0.2578 0.79918,1.17867 1.654992,2.31217 2.5625,3.40625 0.14432,0.17428 0.28288,0.35164 0.429688,0.52344 0.91744,1.07212 1.882404,2.09834 2.898436,3.07812 0.1194,0.11516 0.23096,0.23784 0.35156,0.35156 2.296228,2.16499 4.826708,4.082 7.554688,5.71875 0.12316,0.0739 0.25112,0.13824 0.375,0.21092 1.19452,0.70088 2.422592,1.34902 3.6875,1.9375 0.27076,0.12612 0.546904,0.23872 0.820312,0.35936 1.132024,0.49873 2.28746,0.9551 3.468752,1.35938 0.3384,0.11624 0.674068,0.23568 1.015624,0.34376 1.180592,0.37196 2.386268,0.67956 3.609376,0.95312 0.32484,0.0732 0.641732,0.16848 0.968752,0.23436 1.526388,0.30512 3.073948,0.55087 4.656248,0.69531 V 152 h 4 44 51.999996 c 1.53016,0 3.02788,-0.1272 4.50782,-0.31252 0.35224,-0.0447 0.69717,-0.10912 1.04687,-0.16408 1.24424,-0.1932 2.46541,-0.4406 3.66407,-0.75781 0.23736,-0.0632 0.47523,-0.1196 0.71093,-0.18748 2.93134,-0.84062 5.70003,-2.04094 8.27344,-3.55469 0.2292,-0.13472 0.45351,-0.27432 0.67969,-0.41406 1.208,-0.74701 2.3769,-1.54936 3.48437,-2.42968 0.0352,-0.028 0.0744,-0.0501 0.10936,-0.0781 0.0116,-0.009 0.0196,-0.022 0.0312,-0.0312 1.19636,-0.96062 2.32676,-1.99834 3.39064,-3.10156 0.1328,-0.13808 0.252,-0.28936 0.3828,-0.42969 0.9458,-1.01251 1.83116,-2.07878 2.65624,-3.19531 0.1084,-0.1472 0.2216,-0.28844 0.328,-0.43751 4.22188,-5.89808 6.73448,-13.09981 6.73448,-20.90629 0,-19.325532 -15.24037,-35.046132 -34.35158,-35.91406 A 56,56 0 0 0 96.000028,39.999995 Z"
     id="path2" />
  <circle
     style="fill:#056ab6;stroke-width:4"
     cx="96"
     cy="92"
     r="56"
     id="circle4" />
  <path
     id="path6"
     style="opacity:0.1;fill:#ffffff;stroke-width:4"
     d="M 96 36 A 56 56 0 0 0 40 92 A 56 56 0 0 0 40.005859 92.261719 A 56 56 0 0 1 96 37 A 56 56 0 0 1 151.99219 92.177734 A 56 56 0 0 0 152 92 A 56 56 0 0 0 96 36 z " />
  <path
     style="fill:#138fe6;stroke-width:4"
     d="m 148,76 c -5.09367,0.25236 -9.51828,1.196924 -13.67967,2.718792 l -0.008,0.008 C 120.97804,84.287444 107.12265,90.075888 95.085936,95.101556 L 15.40625,128.36718 C 22.776393,139.43649 34.757483,146.57862 48,147.79688 V 148 h 4 96 c 19.88225,0 36,-16.11775 36,-36 0,-19.882252 -16.11775,-36 -36,-36 z"
     id="path8" />
  <path
     style="fill:#1581d9;stroke-width:4"
     d="M 52,60 A 44,44 0 0 0 13.375,83.023436 l -0.07812,0.0236 C 9.9183256,89.275612 8,96.416 8,104 c 0.0108,22.74259 17.35158,41.72937 40,43.79688 V 148 h 4 96 c 13.30646,-0.01 25.52245,-7.35844 31.76562,-19.10938 L 118.03125,92.093752 73.6875,65.664064 l -0.14064,0.0392 A 44,44 0 0 0 52,60 Z"
     id="path10" />
  <path
     style="fill:#38afec;stroke-width:4"
     d="m 111.54688,88.226564 c -5.51911,2.30458 -11.40951,4.765884 -16.460944,6.875 L 15.421875,128.35938 c 0.05929,0.0888 0.119768,0.17724 0.179688,0.26564 0.800632,1.18345 1.660022,2.31648 2.5625,3.40624 0.144456,0.17416 0.282592,0.35156 0.429688,0.52344 0.920287,1.07701 1.885515,2.10107 2.898437,3.07813 0.119256,0.115 0.231,0.23788 0.351564,0.35156 2.31052,2.17878 4.846641,4.09411 7.554688,5.71875 0.122784,0.0737 0.251424,0.13844 0.375,0.21092 1.196939,0.70224 2.428075,1.35077 3.6875,1.9375 0.27034,0.12576 0.546935,0.23892 0.820312,0.35936 1.134516,0.50067 2.292085,0.95514 3.46875,1.35937 0.337844,0.11564 0.673986,0.23612 1.015625,0.34376 1.183872,0.37464 2.391065,0.67874 3.609377,0.95313 0.32512,0.0727 0.640804,0.16884 0.968752,0.23436 1.532104,0.30864 3.082912,0.55057 4.656248,0.69531 V 148 h 4 H 148 c 1.52092,-0.001 3.02268,-0.12404 4.50782,-0.31252 0.35184,-0.044 0.69827,-0.10992 1.04687,-0.16408 1.23948,-0.19472 2.4618,-0.43787 3.66407,-0.75781 0.23716,-0.0628 0.47573,-0.12004 0.71093,-0.18748 2.90671,-0.83763 5.68559,-2.0339 8.27344,-3.55469 0.2288,-0.1346 0.45415,-0.2746 0.67969,-0.41406 1.20528,-0.74466 2.37308,-1.54664 3.48437,-2.42969 0.0352,-0.028 0.0744,-0.0501 0.10936,-0.0781 0.0116,-0.009 0.0196,-0.022 0.0312,-0.0312 1.19173,-0.95665 2.32427,-1.99444 3.39063,-3.10156 0.13308,-0.13804 0.25192,-0.28956 0.3828,-0.42969 0.94057,-1.00834 1.83049,-2.07462 2.65625,-3.19531 0.10836,-0.14664 0.22192,-0.28916 0.32812,-0.4375 0.9099,-1.27519 1.75283,-2.60929 2.5,-4.01563 l -61.7343,-36.796908 z"
     id="path12" />
  <path
     id="path14"
     style="opacity:0.2;fill:#ffffff;stroke-width:4"
     d="M 148 76 C 142.90633 76.25236 138.48171 77.196882 134.32031 78.71875 L 134.3125 78.726562 C 120.97821 84.287215 107.12265 90.075895 95.085938 95.101562 L 15.40625 128.36719 C 15.582094 128.63129 15.774383 128.88038 15.958984 129.13672 L 95.085938 96.101562 C 107.12265 91.075895 120.97821 85.287215 134.3125 79.726562 L 134.32031 79.71875 C 138.48171 78.196882 142.90633 77.25236 148 77 C 167.68321 77 183.66613 92.798878 183.98438 112.40625 C 183.98892 112.27077 184 112.13666 184 112 C 184 92.117748 167.88225 76 148 76 z " />
  <path
     id="path16"
     style="opacity:0.1;fill:#ffffff;stroke-width:4"
     d="M 52 60 A 44 44 0 0 0 13.375 83.023438 L 13.296875 83.046875 C 9.9183198 89.275291 8 96.416 8 104 C 8.0000747 104.1574 8.0124606 104.31247 8.0175781 104.46875 C 8.1054839 97.083836 9.9978184 90.128734 13.296875 84.046875 L 13.375 84.023438 A 44 44 0 0 1 52 61 A 44 44 0 0 1 73.546875 66.703125 L 73.6875 66.664062 L 118.03125 93.09375 L 179.33008 129.63086 C 179.47567 129.38436 179.63032 129.14529 179.76562 128.89062 L 118.03125 92.09375 L 73.6875 65.664062 L 73.546875 65.703125 A 44 44 0 0 0 52 60 z " />
</svg>
