<?xml version="1.0" encoding="UTF-8" standalone="no"?>
<svg
   width="192"
   height="192"
   version="1.1"
   id="svg12"
   sodipodi:docname="apps_yelp.svg"
   inkscape:version="1.1-rc (1:1.1+rc+202105232036+f4db50c7c1)"
   xmlns:inkscape="http://www.inkscape.org/namespaces/inkscape"
   xmlns:sodipodi="http://sodipodi.sourceforge.net/DTD/sodipodi-0.dtd"
   xmlns="http://www.w3.org/2000/svg"
   xmlns:svg="http://www.w3.org/2000/svg">
  <defs
     id="defs16">
    <filter
       inkscape:collect="always"
       style="color-interpolation-filters:sRGB"
       id="filter845"
       x="-0.048000001"
       y="-0.048000001"
       width="1.096"
       height="1.096">
      <feGaussianBlur
         inkscape:collect="always"
         stdDeviation="3.2"
         id="feGaussianBlur847" />
    </filter>
    <filter
       inkscape:collect="always"
       style="color-interpolation-filters:sRGB"
       id="filter1100"
       x="-0.053409562"
       y="-0.043741101"
       width="1.1068191"
       height="1.0874822">
      <feGaussianBlur
         inkscape:collect="always"
         stdDeviation="2.1141296"
         id="feGaussianBlur1102" />
    </filter>
  </defs>
  <sodipodi:namedview
     id="namedview14"
     pagecolor="#ffffff"
     bordercolor="#666666"
     borderopacity="1.0"
     inkscape:pageshadow="2"
     inkscape:pageopacity="0.0"
     inkscape:pagecheckerboard="0"
     showgrid="false"
     inkscape:zoom="1"
     inkscape:cx="87.5"
     inkscape:cy="80.5"
     inkscape:window-width="1920"
     inkscape:window-height="1014"
     inkscape:window-x="0"
     inkscape:window-y="34"
     inkscape:window-maximized="1"
     inkscape:current-layer="svg12" />
  <circle
     style="opacity:0.2;stroke-width:4;filter:url(#filter845)"
     cx="96"
     cy="100"
     r="80"
     id="circle2" />
  <circle
     style="fill:#fe2f4e;fill-opacity:1;stroke-width:4"
     cx="96"
     cy="96"
     r="80"
     id="circle4" />
  <path
     id="path6"
     style="opacity:0.2;fill:#ffffff;stroke-width:4"
     d="M 96,15.998047 A 79.999996,79.99496 0 0 0 16,95.994141 79.999996,79.99496 0 0 0 16.023438,96.632812 79.999996,79.99496 0 0 1 96,17 79.999996,79.99496 0 0 1 175.98438,96.292969 79.999996,79.99496 0 0 0 176,95.994141 79.999996,79.99496 0 0 0 96,15.998047 Z" />
  <path
     id="path1062"
     style="opacity:0.2;fill:#000000;stroke-width:4.36356;filter:url(#filter1100)"
     d="m 90.455078,42.002303 c -1.648637,0.0141 -3.264399,0.17606 -4.673828,0.367188 a 43.167354,42.006632 0 0 0 -4.138672,0.757812 c -1.372083,0.318734 -2.734678,0.668153 -4.0625,1.085938 -4.328678,1.378242 -10.414562,3.909619 -11.441406,8.763671 -0.584236,2.743592 0.797117,5.547975 1.859375,8.054688 1.296831,3.032159 3.062721,5.767455 4.673828,8.623047 4.262274,7.54165 8.599573,15.040098 12.923828,22.542969 1.296832,2.239647 2.700455,5.073434 5.201172,6.236328 0.168304,0.06897 0.335195,0.129391 0.507813,0.185547 1.119816,0.413447 2.345716,0.491133 3.509765,0.228515 l 0.208985,-0.04297 c 1.079949,-0.288568 2.052656,-0.862196 2.818359,-1.650391 0.141602,-0.129156 0.270078,-0.258145 0.398437,-0.400391 h -0.0039 c 1.726167,-2.110451 1.726473,-5.254451 1.876956,-7.830078 0.52228,-8.592554 1.06768,-17.184399 1.50586,-25.78125 0.16372,-3.256129 0.52145,-6.469994 0.32227,-9.751953 -0.16372,-2.704843 -0.18238,-5.814685 -1.93946,-8.037109 -2.130049,-2.694589 -5.919874,-3.382584 -9.546876,-3.351563 z m 38.500002,34.003906 c -0.76863,0.0425 -1.52133,0.25451 -2.20313,0.607422 -1.02922,0.501568 -2.14373,1.308791 -3.6289,2.65625 -0.20403,0.199777 -0.46083,0.426135 -0.69532,0.638672 -1.22028,1.126421 -2.58333,2.515611 -4.20312,4.130859 -2.50571,2.47815 -4.9683,4.970271 -7.42188,7.482422 l -4.38671,4.455078 a 20.453739,20.020648 0 0 0 -2.17969,2.621094 7.5387883,7.3791602 0 0 0 -1.16016,2.615234 6.123094,5.9934424 0 0 0 0.0527,2.16797 l 0.0215,0.0937 a 5.962417,5.8361675 0 0 0 6.93945,4.41992 5.5585534,5.4408552 0 0 0 0.54297,-0.10156 l 23.3711,-5.28906 c 1.84561,-0.41657 3.71265,-0.79854 5.36718,-1.74219 1.11173,-0.62485 2.16738,-1.249618 2.89258,-2.507814 a 5.7756846,5.6533888 0 0 0 0.68555,-2.24414 c 0.36042,-3.119993 -1.30115,-6.660989 -2.63867,-9.398438 a 30.711009,30.060727 0 0 0 -5.8711,-8.191406 9.0326491,8.8413901 0 0 0 -1,-0.841797 11.646907,11.400292 0 0 0 -1.01562,-0.666016 11.577425,11.332281 0 0 0 -1.11133,-0.523437 5.723573,5.6023808 0 0 0 -2.35742,-0.382813 z M 55.898438,92.004256 a 5.4157764,5.3472824 0 0 0 -2.294922,0.41211 5.8907669,5.8162652 0 0 0 -1.998047,1.402343 12.145545,11.991938 0 0 0 -0.78125,0.972657 11.617284,11.470359 0 0 0 -1.16211,2.289062 A 31.451454,31.053685 0 0 0 48,107.27379 c 0.02164,3.12949 0.107001,7.14876 1.851562,9.875 0.421707,0.70126 0.985938,1.30643 1.65625,1.77539 1.242943,0.84594 2.495146,0.96068 3.804688,1.05273 1.953238,0.13579 3.839926,-0.33367 5.726562,-0.76758 l 18.359376,-4.18554 0.01367,0.004 5.527344,-1.26172 c 0.11551,-0.0272 0.310184,-0.0702 0.541016,-0.14453 a 6.0994074,6.022267 0 0 0 4.363281,-7.17187 l -0.02148,-0.0957 a 6.090529,6.0135011 0 0 0 -0.941407,-2.0293 7.6975051,7.6001535 0 0 0 -2.253906,-1.91016 20.886254,20.622101 0 0 0 -3.205078,-1.46484 l -6.06055,-2.187601 C 73.960936,97.512876 70.56091,96.299487 67.125,95.111678 64.900976,94.331502 63.014985,93.64307 61.376953,93.139022 a 17.840989,17.61535 0 0 1 -0.927734,-0.28125 c -1.979856,-0.59609 -3.374413,-0.844751 -4.550781,-0.853516 z m 52.574222,20.996094 a 6.4152266,6.2403421 0 0 0 -0.82422,0.0469 5.517095,5.3666941 0 0 0 -4.60156,4.42968 c -0.0841,0.7101 -0.0575,1.4278 0.084,2.125 0.27872,1.48907 0.96008,2.95734 1.66797,4.24414 l 3.0625,5.58985 c 1.70778,3.15031 3.43343,6.28371 5.20312,9.4082 1.14148,2.03562 2.09313,3.77856 2.98243,5.22461 0.16796,0.27111 0.35789,0.56445 0.5039,0.81836 1.08393,1.73439 1.95159,2.82766 2.83203,3.61523 a 5.517095,5.3666941 0 0 0 4.45899,1.46289 11.857108,11.533873 0 0 0 1.25195,-0.21484 11.556256,11.241223 0 0 0 2.4375,-0.93555 30.38163,29.5534 0 0 0 6.38477,-4.64648 c 2.2918,-2.19488 4.3175,-4.58902 5.89257,-7.32617 0.22108,-0.38731 0.40715,-0.78763 0.56641,-1.20508 a 12.564996,12.222463 0 0 0 0.38477,-1.16602 c 0.093,-0.40455 0.16408,-0.80796 0.21289,-1.21679 a 5.9285543,5.7669369 0 0 0 -0.2793,-2.38086 5.4374577,5.289228 0 0 0 -1.23828,-1.96289 v 0.004 c -0.79637,-0.85644 -1.92939,-1.70381 -3.7168,-2.7539 -0.25668,-0.14216 -0.56109,-0.3267 -0.83984,-0.49024 -1.48655,-0.87364 -3.27841,-1.78652 -5.3711,-2.89258 -3.21649,-1.72146 -6.43369,-3.39151 -9.68554,-5.05273 l -5.73828,-2.96094 c -0.29644,-0.0861 -0.5977,-0.29236 -0.88086,-0.42578 a 14.308168,13.918115 0 0 0 -3.48633,-1.20898 7.388571,7.1871525 0 0 0 -1.26367,-0.12891 z m -16.513676,4.00781 a 5.4750467,5.3695821 0 0 0 -1.349609,0.23633 5.5849876,5.477405 0 0 0 -0.755859,0.30664 7.3440383,7.2025719 0 0 0 -1.078125,0.66016 14.217531,13.943662 0 0 0 -2.572266,2.58203 c -0.189197,0.23725 -0.365078,0.55273 -0.59375,0.75976 l -3.808594,5.13282 c -2.154844,2.881 -4.286105,5.76683 -6.392578,8.69531 -1.380849,1.89336 -2.568165,3.49203 -3.513672,4.90234 -0.175798,0.26752 -0.362208,0.56123 -0.529297,0.80274 -1.130202,1.70791 -1.767819,2.95952 -2.097656,4.07226 a 5.4222753,5.3178272 0 0 0 -0.228516,2.29297 c 0.105587,0.8022 0.383994,1.57515 0.810547,2.26953 0.228591,0.34504 0.474423,0.68045 0.738282,1.00391 A 11.627329,11.403354 0 0 0 72.5,152.45152 c 2.629796,1.79416 5.505694,3.0838 8.53125,4.08008 2.519841,0.81946 5.137781,1.31039 7.785156,1.45703 0.452949,0.0214 0.904962,0.0128 1.353516,-0.0273 a 13.148907,12.895623 0 0 0 1.240234,-0.17188 11.829619,11.601748 0 0 0 1.214844,-0.3457 5.8928214,5.7793094 0 0 0 2.066406,-1.29297 c 0.558509,-0.54775 0.98956,-1.20667 1.257813,-1.93555 0.439764,-1.07825 0.730342,-2.44169 0.923828,-4.46875 0.0134,-0.28899 0.05707,-0.63434 0.08789,-0.94921 0.149535,-1.68203 0.218792,-3.666 0.324218,-5.98633 0.189197,-3.57541 0.334869,-7.13438 0.449219,-10.70117 l 0.246094,-6.34766 c 0.05708,-1.45778 0.0083,-3.07976 -0.404297,-4.5332 a 6.9218665,6.7885321 0 0 0 -0.871094,-1.97071 5.4750467,5.3695821 0 0 0 -4.746094,-2.25 z" />
  <path
     id="path1041"
     style="fill:#ffffff;stroke-width:4.36356"
     d="m 90.455078,38.001953 c -1.648637,0.0141 -3.264399,0.17606 -4.673828,0.367188 a 43.167354,42.006632 0 0 0 -4.138672,0.757812 c -1.372083,0.318734 -2.734678,0.668153 -4.0625,1.085938 -4.328678,1.378242 -10.414562,3.909619 -11.441406,8.763671 -0.584236,2.743592 0.797117,5.547975 1.859375,8.054688 1.296831,3.032159 3.062721,5.767455 4.673828,8.623047 4.262274,7.54165 8.599573,15.040098 12.923828,22.542969 1.296832,2.239647 2.700455,5.073434 5.201172,6.236328 0.168304,0.06897 0.335195,0.129391 0.507813,0.185547 1.119816,0.413447 2.345716,0.491133 3.509765,0.228515 l 0.208985,-0.04297 c 1.079949,-0.288568 2.052656,-0.862196 2.818359,-1.650391 0.141602,-0.129156 0.270078,-0.258145 0.398437,-0.400391 h -0.0039 c 1.726167,-2.110451 1.726473,-5.254451 1.876956,-7.830078 0.52228,-8.592554 1.06768,-17.184399 1.50586,-25.78125 0.16372,-3.256129 0.52145,-6.469994 0.32227,-9.751953 -0.16372,-2.704843 -0.18238,-5.814685 -1.93946,-8.037109 -2.130049,-2.694589 -5.919874,-3.382584 -9.546876,-3.351563 z m 38.500002,34.003906 c -0.76863,0.0425 -1.52133,0.25451 -2.20313,0.607422 -1.02922,0.501568 -2.14373,1.308791 -3.6289,2.65625 -0.20403,0.199777 -0.46083,0.426135 -0.69532,0.638672 -1.22028,1.126421 -2.58333,2.515611 -4.20312,4.130859 -2.50571,2.47815 -4.9683,4.970271 -7.42188,7.482422 l -4.38671,4.455078 a 20.453739,20.020648 0 0 0 -2.17969,2.621094 7.5387883,7.3791602 0 0 0 -1.16016,2.615235 6.123094,5.9934424 0 0 0 0.0527,2.167968 l 0.0215,0.09375 a 5.962417,5.8361675 0 0 0 6.93945,4.419921 5.5585534,5.4408552 0 0 0 0.54297,-0.10156 l 23.3711,-5.289064 c 1.84561,-0.416565 3.71265,-0.798533 5.36718,-1.742187 1.11173,-0.624853 2.16738,-1.249617 2.89258,-2.507813 a 5.7756846,5.6533888 0 0 0 0.68555,-2.24414 c 0.36042,-3.119993 -1.30115,-6.660989 -2.63867,-9.398438 a 30.711009,30.060727 0 0 0 -5.8711,-8.191406 9.0326491,8.8413901 0 0 0 -1,-0.841797 11.646907,11.400292 0 0 0 -1.01562,-0.666016 11.577425,11.332281 0 0 0 -1.11133,-0.523437 5.723573,5.6023808 0 0 0 -2.35742,-0.382813 z M 55.898438,88.003906 a 5.4157764,5.3472824 0 0 0 -2.294922,0.41211 5.8907669,5.8162652 0 0 0 -1.998047,1.402343 12.145545,11.991938 0 0 0 -0.78125,0.972657 11.617284,11.470359 0 0 0 -1.16211,2.289062 A 31.451454,31.053685 0 0 0 48,103.27344 c 0.02164,3.12949 0.107001,7.14876 1.851562,9.875 0.421707,0.70126 0.985938,1.30643 1.65625,1.77539 1.242943,0.84594 2.495146,0.96068 3.804688,1.05273 1.953238,0.13579 3.839926,-0.33367 5.726562,-0.76758 l 18.359376,-4.18554 0.01367,0.004 5.527344,-1.26172 c 0.11551,-0.0272 0.310184,-0.0702 0.541016,-0.14453 a 6.0994074,6.022267 0 0 0 4.363281,-7.17187 l -0.02148,-0.0957 a 6.090529,6.0135011 0 0 0 -0.941407,-2.0293 7.6975051,7.6001535 0 0 0 -2.253906,-1.910158 20.886254,20.622101 0 0 0 -3.205078,-1.464843 l -6.060547,-2.1875 C 73.960936,93.512526 70.56091,92.299137 67.125,91.111328 64.900976,90.331152 63.014985,89.64272 61.376953,89.138672 a 17.840989,17.61535 0 0 1 -0.927734,-0.28125 c -1.979856,-0.59609 -3.374413,-0.844751 -4.550781,-0.853516 z M 108.47266,109 a 6.4152266,6.2403421 0 0 0 -0.82422,0.0469 5.517095,5.3666941 0 0 0 -4.60156,4.42968 c -0.0841,0.7101 -0.0575,1.4278 0.084,2.125 0.27872,1.48907 0.96008,2.95734 1.66797,4.24414 l 3.0625,5.58985 c 1.70778,3.15031 3.43343,6.28371 5.20312,9.4082 1.14148,2.03562 2.09313,3.77856 2.98243,5.22461 0.16796,0.27111 0.35789,0.56445 0.5039,0.81836 1.08393,1.73439 1.95159,2.82766 2.83203,3.61523 a 5.517095,5.3666941 0 0 0 4.45899,1.46289 11.857108,11.533873 0 0 0 1.25195,-0.21484 11.556256,11.241223 0 0 0 2.4375,-0.93555 30.38163,29.5534 0 0 0 6.38477,-4.64648 c 2.2918,-2.19488 4.3175,-4.58902 5.89257,-7.32617 0.22108,-0.38731 0.40715,-0.78763 0.56641,-1.20508 a 12.564996,12.222463 0 0 0 0.38477,-1.16602 c 0.093,-0.40455 0.16408,-0.80796 0.21289,-1.21679 a 5.9285543,5.7669369 0 0 0 -0.2793,-2.38086 5.4374577,5.289228 0 0 0 -1.23828,-1.96289 v 0.004 c -0.79637,-0.85644 -1.92939,-1.70381 -3.7168,-2.7539 -0.25668,-0.14216 -0.56109,-0.3267 -0.83984,-0.49024 -1.48655,-0.87364 -3.27841,-1.78652 -5.3711,-2.89258 -3.21649,-1.72146 -6.43369,-3.39151 -9.68554,-5.05273 l -5.73828,-2.96094 c -0.29644,-0.0861 -0.5977,-0.29236 -0.88086,-0.42578 a 14.308168,13.918115 0 0 0 -3.48635,-1.2091 A 7.388571,7.1871525 0 0 0 108.47266,109 Z m -16.513676,4.00781 a 5.4750467,5.3695821 0 0 0 -1.349609,0.23633 5.5849876,5.477405 0 0 0 -0.755859,0.30664 7.3440383,7.2025719 0 0 0 -1.078125,0.66016 14.217531,13.943662 0 0 0 -2.572266,2.58203 c -0.189197,0.23725 -0.365078,0.55273 -0.59375,0.75976 l -3.808594,5.13282 c -2.154844,2.881 -4.286105,5.76683 -6.392578,8.69531 -1.380849,1.89336 -2.568165,3.49203 -3.513672,4.90234 -0.175798,0.26752 -0.362208,0.56123 -0.529297,0.80274 -1.130202,1.70791 -1.767819,2.95952 -2.097656,4.07226 a 5.4222753,5.3178272 0 0 0 -0.228516,2.29297 c 0.105587,0.8022 0.383994,1.57515 0.810547,2.26953 0.228591,0.34504 0.474423,0.68045 0.738282,1.00391 A 11.627329,11.403354 0 0 0 72.5,148.45117 c 2.629796,1.79416 5.505694,3.0838 8.53125,4.08008 2.519841,0.81946 5.137781,1.31039 7.785156,1.45703 0.452949,0.0214 0.904962,0.0128 1.353516,-0.0273 a 13.148907,12.895623 0 0 0 1.240234,-0.17188 11.829619,11.601748 0 0 0 1.214844,-0.3457 5.8928214,5.7793094 0 0 0 2.066406,-1.29297 c 0.558509,-0.54775 0.98956,-1.20667 1.257813,-1.93555 0.439764,-1.07825 0.730342,-2.44169 0.923828,-4.46875 0.0134,-0.28899 0.05707,-0.63434 0.08789,-0.94921 0.149535,-1.68203 0.218792,-3.666 0.324218,-5.98633 0.189197,-3.57541 0.334869,-7.13438 0.449219,-10.70117 l 0.246094,-6.34766 c 0.05708,-1.45778 0.0083,-3.07976 -0.404297,-4.5332 a 6.9218665,6.7885321 0 0 0 -0.871094,-1.97071 5.4750467,5.3695821 0 0 0 -4.746094,-2.25 z" />
</svg>
