<?xml version="1.0" encoding="UTF-8" standalone="no"?>
<svg
   width="192"
   height="192"
   version="1"
   id="svg14"
   sodipodi:docname="apps_lemmur.svg"
   inkscape:version="1.1.1 (1:1.1+202109281949+c3084ef5ed)"
   xmlns:inkscape="http://www.inkscape.org/namespaces/inkscape"
   xmlns:sodipodi="http://sodipodi.sourceforge.net/DTD/sodipodi-0.dtd"
   xmlns="http://www.w3.org/2000/svg"
   xmlns:svg="http://www.w3.org/2000/svg"
   xmlns:rdf="http://www.w3.org/1999/02/22-rdf-syntax-ns#"
   xmlns:cc="http://creativecommons.org/ns#"
   xmlns:dc="http://purl.org/dc/elements/1.1/">
  <metadata
     id="metadata20">
    <rdf:RDF>
      <cc:Work
         rdf:about="">
        <dc:format>image/svg+xml</dc:format>
        <dc:type
           rdf:resource="http://purl.org/dc/dcmitype/StillImage" />
      </cc:Work>
    </rdf:RDF>
  </metadata>
  <defs
     id="defs18">
    <filter
       inkscape:collect="always"
       style="color-interpolation-filters:sRGB"
       id="filter850"
       x="-0.048000001"
       width="1.096"
       y="-0.048000001"
       height="1.096">
      <feGaussianBlur
         inkscape:collect="always"
         stdDeviation="3.2"
         id="feGaussianBlur852" />
    </filter>
    <filter
       inkscape:collect="always"
       style="color-interpolation-filters:sRGB"
       id="filter3169"
       x="-0.067875183"
       y="-0.083796012"
       width="1.1357504"
       height="1.167592">
      <feGaussianBlur
         inkscape:collect="always"
         stdDeviation="2.8281162"
         id="feGaussianBlur3171" />
    </filter>
  </defs>
  <sodipodi:namedview
     pagecolor="#ffffff"
     bordercolor="#666666"
     borderopacity="1"
     objecttolerance="10"
     gridtolerance="10"
     guidetolerance="10"
     inkscape:pageopacity="0"
     inkscape:pageshadow="2"
     inkscape:window-width="1920"
     inkscape:window-height="1019"
     id="namedview16"
     showgrid="false"
     inkscape:zoom="1"
     inkscape:cx="88.5"
     inkscape:cy="98"
     inkscape:window-x="0"
     inkscape:window-y="34"
     inkscape:window-maximized="1"
     inkscape:current-layer="svg14"
     inkscape:pagecheckerboard="0"
     inkscape:snap-bbox="true"
     inkscape:snap-bbox-midpoints="true"
     inkscape:snap-global="false">
    <inkscape:grid
       type="xygrid"
       id="grid5193" />
  </sodipodi:namedview>
  <circle
     style="opacity:0.2;fill:#000000;stroke-width:4;filter:url(#filter850)"
     cx="96"
     cy="100"
     r="80"
     id="circle832" />
  <circle
     id="circle4"
     r="80"
     cy="96"
     cx="96"
     style="fill:#e4e4e4;stroke-width:4;fill-opacity:1" />
  <path
     id="path3131"
     style="opacity:0.2;fill:#000000;fill-opacity:1;stroke-width:0.223178;filter:url(#filter3169)"
     d="m 143.00195,58.999498 -1.73828,0.142578 c -6.07588,0.498615 -15.38556,4.896384 -21.69922,9.718141 l -1.86133,1.421874 -2.29687,-0.896484 c -6.69492,-2.610313 -15.36253,-3.767581 -24.119141,-3.220703 -6.42222,0.401094 -10.59736,1.233853 -15.09375,3.011719 l -2.300781,0.910156 -1.183594,-0.912109 c -2.079275,-1.602344 -5.12499,-3.811424 -8.96289,-5.724 -5.20948,-2.596076 -10.340657,-4.175781 -13.566406,-4.175781 h -1.191407 l -0.699219,2.53125 C 46.598963,67.928087 45.999,71.93103 46,77.054186 c 0.002,8.718697 2.495994,15.952698 7.558594,21.927734 l 1.251953,1.47656 h -3.914063 c -3.63552,0 -3.941825,0.0322 -4.322265,0.45313 -0.5336,0.59042 -0.522892,1.71057 0.02148,2.25 0.38542,0.38191 0.946643,0.443 5.320313,0.58398 l 4.888672,0.15821 v 1.60742 1.60742 l -4.777344,0.85742 c -3.7273,0.66848 -4.88659,0.95878 -5.28125,1.32227 -0.84124,0.77481 -0.563214,2.23049 0.503906,2.63672 0.37998,0.14465 1.867088,-0.0521 5.173828,-0.68555 2.55229,-0.4889 4.820766,-0.88867 5.041016,-0.88867 0.27946,0 0.547869,0.38295 0.886718,1.26953 0.267061,0.69874 0.457429,1.28865 0.423829,1.31055 -0.03357,0.022 -2.018087,0.94466 -4.410157,2.04882 -4.61244,2.12906 -5.193199,2.58408 -4.880859,3.83008 0.05596,0.22324 0.299995,0.49964 0.599609,0.73242 0.856546,0.65744 1.379047,0.3739 2.126954,0.0645 0.884697,-0.38035 2.236506,-0.98193 3.710937,-1.65625 l 4.542969,-2.07813 0.361328,0.5586 c 2.5704,3.95952 7.924457,9.68129 11.710937,12.51562 3.42686,2.56514 7.689413,5.2773 11.914063,7.58008 3.96962,2.16379 5.757112,2.90701 7.919922,3.29492 1.98007,0.35514 7.007929,0.11564 8.88477,-0.42383 2.23653,-0.64285 9.26771,-4.11802 12.41992,-6.13867 6.8168,-4.36974 12.27117,-9.36879 16.09375,-14.75 0.8133,-1.14493 1.54325,-2.08308 1.62305,-2.08398 0.0798,-8.3e-4 1.98485,0.8244 4.23242,1.83398 3.81359,1.71301 4.13212,1.81811 4.75781,1.55859 0.92513,-0.38365 1.30071,-1.33704 0.86133,-2.18554 -0.26946,-0.52039 -1.07152,-0.98106 -4.23242,-2.42774 -2.14478,-0.98162 -3.93321,-1.80849 -3.97461,-1.83789 -0.16851,-0.11974 0.99088,-2.78411 1.21289,-2.78711 0.13198,-0.002 2.13846,0.34565 4.45703,0.77149 2.31856,0.42586 4.38451,0.71402 4.5918,0.64062 0.75568,-0.26737 1.16406,-0.81501 1.16406,-1.5625 -0.44424,-1.87615 -1.65471,-1.72933 -3.05664,-1.97656 -2.55193,-0.45082 -6.64014,-1.22106 -6.67578,-1.27734 -0.0306,-0.0483 -0.0198,-0.80533 0.0234,-1.6836 l 0.0781,-1.59765 4.42188,-0.14844 c 4.37731,-0.14599 4.42712,-0.15157 4.92773,-0.7207 0.78616,-2.8303 -1.7916,-2.585 -3.79492,-2.57618 h -3.36914 l 1.28906,-1.519529 c 4.80293,-5.656896 7.31979,-12.373581 7.65234,-20.421875 0.21574,-5.221288 -0.4175,-10.019798 -2.21289,-16.736328 z m -92.134762,2.771484 c 0.129269,-0.132792 3.121306,1.88306 4.779296,3.21875 3.19811,2.576441 5.149743,6.290158 6.320313,12.027344 0.43445,2.129299 0.43528,2.135504 -0.01563,2.769531 -1.32302,1.860351 -3.385741,7.332365 -4.144531,10.994141 -0.21801,1.052093 -0.45765,2.874912 -0.53125,4.050781 L 57.142578,96.970201 55.5625,95.394029 c -3.72567,-3.716114 -6.081194,-8.518303 -6.833984,-13.9375 -0.37886,-2.727311 -0.291045,-7.530315 0.197265,-10.853515 0.38181,-2.598329 1.696917,-8.580873 1.941407,-8.832032 z m 90.603512,0.107422 c 0.0316,-0.0014 0.0537,0.0057 0.0664,0.01953 0.0967,0.105061 0.4891,1.50615 0.87109,3.115234 2.61978,11.035552 2.01187,19.025911 -1.96484,25.867187 h 0.002 c -0.6366,1.095157 -1.84221,2.621237 -3.11133,3.939453 l -2.07031,2.150391 -0.01,-1.349609 c -0.0259,-3.998079 -2.24563,-11.643395 -4.42969,-15.253906 l -0.78711,-1.300782 0.47656,-2.228515 c 1.22078,-5.708931 2.99791,-9.123819 6.08399,-11.695313 1.88792,-1.573126 4.39882,-3.243135 4.87304,-3.263672 z m -45.212888,8.038453 c 3.166866,5.79e-4 6.331868,0.100419 7.748048,0.298828 14.8433,2.079556 23.31965,8.583533 26.50195,21.184204 1.19994,4.751337 1.76572,13.769611 1.05274,16.791021 -0.99455,4.2146 -3.25524,8.11764 -7.42578,12.82031 -2.57908,2.90815 -7.86012,7.22713 -12.00391,9.81445 v -0.002 c -2.5496,1.59195 -2.41999,1.5804 -2.59961,0.22461 -0.42908,-3.23866 -2.6307,-6.33934 -6.12305,-8.62891 -0.86006,-0.56384 -0.99712,-0.8001 -1.75781,-3.01562 -0.96585,-2.81308 -2.583729,-6.33433 -3.406249,-7.41407 -0.31798,-0.41742 -0.921407,-0.92231 -1.341797,-1.12304 -0.7049,-0.33656 -0.824397,-0.33656 -1.529297,0 -0.42038,0.20073 -1.019731,0.70118 -1.332031,1.11133 -0.84578,1.11073 -2.27992,4.24438 -3.25,7.09765 l -0.859375,2.52539 -1.583985,1.11524 c -2.95998,2.08134 -5.12264,5.27039 -5.40039,7.96484 -0.07277,0.70604 -0.184294,1.2832 -0.246094,1.2832 -0.06176,0 -1.386403,-0.84394 -2.945313,-1.875 -6.58386,-4.35455 -12.820764,-10.33281 -15.865234,-15.20898 -1.16003,-1.85794 -2.352911,-4.47077 -2.851563,-6.24219 -0.563549,-2.00194 -0.634548,-5.3117 -0.203124,-9.53125 0.982148,-9.605974 3.601595,-16.165923 8.353515,-20.923828 4.5189,-4.524591 10.599081,-6.761881 19.306641,-7.971313 1.42509,-0.197725 4.594859,-0.295501 7.761718,-0.294922 z M 76.664062,98.001451 C 71.384399,97.909295 67,103.32571 67,110.28661 c 0,2.52443 0.527188,4.54651 1.699219,6.52148 1.122673,1.89181 2.276074,2.68459 4.496093,3.09375 5.630208,0.85301 13.564734,-4.00855 13.804688,-10.58007 -0.0048,-2.32249 -0.48742,-3.81303 -1.964844,-6.07422 -1.841693,-2.81869 -4.535345,-4.720021 -7.304687,-5.154302 -0.358903,-0.05628 -0.714427,-0.08565 -1.066407,-0.0918 z m 38.671878,0 c -0.35198,0.0062 -0.70751,0.03552 -1.06641,0.0918 -2.76934,0.434281 -5.46299,2.335619 -7.30469,5.154299 -1.47742,2.26119 -1.95984,3.75173 -1.96484,6.07422 0.23995,6.57152 8.17448,11.43308 13.80469,10.58007 2.22002,-0.40916 3.37342,-1.20194 4.49609,-3.09375 1.17203,-1.97497 1.69922,-3.99705 1.69922,-6.52148 0,-6.96089 -4.3844,-12.377316 -9.66406,-12.285156 z M 77.5,105.9995 c 3.037566,0 5.5,2.46243 5.5,5.5 0,3.03757 -2.462434,5.5 -5.5,5.5 -3.037566,0 -5.5,-2.46243 -5.5,-5.5 0,-3.03757 2.462434,-5.5 5.5,-5.5 z m 37,0 c 3.03757,0 5.5,2.46243 5.5,5.5 0,3.03757 -2.46243,5.5 -5.5,5.5 -3.03757,0 -5.5,-2.46243 -5.5,-5.5 0,-3.03757 2.46243,-5.5 5.5,-5.5 z m -37,3 c -1.380712,0 -2.5,1.11929 -2.5,2.5 0,1.38071 1.119288,2.5 2.5,2.5 1.380712,0 2.5,-1.11929 2.5,-2.5 0,-1.38071 -1.119288,-2.5 -2.5,-2.5 z m 37,0 c -1.38071,0 -2.5,1.11929 -2.5,2.5 0,1.38071 1.11929,2.5 2.5,2.5 1.38071,0 2.5,-1.11929 2.5,-2.5 0,-1.38071 -1.11929,-2.5 -2.5,-2.5 z m -24.113281,14.67188 c 0.05736,-0.006 0.143522,0.0249 0.265625,0.0781 2.43345,1.06179 3.585945,1.28845 6.046875,1.18945 2.00175,-0.0806 2.749792,-0.21125 3.923831,-0.6914 0.79754,-0.32617 1.49127,-0.5518 1.54297,-0.5 0.20698,0.20723 -0.22395,1.67984 -0.6504,2.22265 -0.24961,0.31775 -1.07896,0.91183 -1.843745,1.31836 -0.76478,0.40652 -1.840905,1.16926 -2.390625,1.69532 -0.54972,0.52603 -1.009438,0.95507 -1.023438,0.95507 -0.01395,0 -0.469378,-0.45256 -1.011718,-1.00586 -0.54233,-0.5533 -1.677818,-1.36953 -2.523438,-1.81445 -1.68522,-0.88668 -2.153308,-1.42353 -2.361328,-2.70703 -0.08621,-0.53191 -0.100806,-0.72631 0.02539,-0.74023 z m 5.791015,7.61523 0.966797,1.07031 c 1.17385,1.30046 2.986239,2.42016 4.499999,2.7793 1.83563,0.4355 1.86474,0.45357 1.125,0.7832 -1.67744,0.74745 -3.973174,0.12968 -5.666014,-1.52734 l -0.945313,-0.92578 -0.996094,0.91797 c -0.54741,0.50521 -1.321793,1.08642 -1.720703,1.29296 -0.89509,0.46346 -2.785647,0.62502 -3.773437,0.32227 -0.93147,-0.28548 -0.773654,-0.56172 0.410156,-0.7207 1.46141,-0.19627 3.367409,-1.26405 4.787109,-2.68164 z"
     sodipodi:nodetypes="cccccsccssscccccscscccccsscsscsscccccsssssscscssccscccscccccccsccssssscccsssscsccsccccssssssssccssssssccccssssssscssssccssssssccssssssssssssssssssssssscccscssssssscccsscccssssc" />
  <path
     id="path970"
     style="opacity:1;fill:#3f3f3f;fill-opacity:1;stroke-width:0.223178"
     d="m 143.00195,56.999519 -1.73828,0.142578 c -6.07588,0.498615 -15.38556,4.896384 -21.69922,9.718141 l -1.86133,1.421874 -2.29687,-0.896484 c -6.69492,-2.610313 -15.36253,-3.767581 -24.119141,-3.220703 -6.42222,0.401094 -10.59736,1.233853 -15.09375,3.011719 L 73.892578,68.0868 72.708984,67.174691 c -2.079275,-1.602344 -5.12499,-3.811424 -8.96289,-5.724 C 58.536614,58.854615 53.405437,57.27491 50.179688,57.27491 h -1.191407 l -0.699219,2.53125 C 46.598963,65.928108 45.999,69.931051 46,75.054207 c 0.002,8.718697 2.495994,15.952698 7.558594,21.927734 l 1.251953,1.476562 h -3.914063 c -3.63552,0 -3.941825,0.03221 -4.322265,0.453125 -0.5336,0.590422 -0.522892,1.710572 0.02148,2.250002 0.38542,0.38191 0.946643,0.443 5.320313,0.58398 l 4.888672,0.15821 v 1.60742 1.60742 l -4.777344,0.85742 c -3.7273,0.66848 -4.88659,0.95878 -5.28125,1.32227 -0.84124,0.77481 -0.563214,2.23049 0.503906,2.63672 0.37998,0.14465 1.867088,-0.0521 5.173828,-0.68555 2.55229,-0.4889 4.820766,-0.88867 5.041016,-0.88867 0.27946,0 0.547869,0.38295 0.886718,1.26953 0.267061,0.69874 0.457429,1.28865 0.423829,1.31055 -0.03357,0.022 -2.018087,0.94466 -4.410157,2.04882 -4.61244,2.12906 -5.193199,2.58408 -4.880859,3.83008 0.05596,0.22324 0.299995,0.49964 0.599609,0.73242 0.856546,0.65744 1.379047,0.3739 2.126954,0.0645 0.884697,-0.38035 2.236506,-0.98193 3.710937,-1.65625 l 4.542969,-2.07813 0.361328,0.5586 c 2.5704,3.95952 7.924457,9.68129 11.710937,12.51562 3.42686,2.56514 7.689413,5.2773 11.914063,7.58008 3.96962,2.16379 5.757112,2.90701 7.919922,3.29492 1.98007,0.35514 7.007929,0.11564 8.88477,-0.42383 2.23653,-0.64285 9.26771,-4.11802 12.41992,-6.13867 6.8168,-4.36974 12.27117,-9.36879 16.09375,-14.75 0.8133,-1.14493 1.54325,-2.08308 1.62305,-2.08398 0.0798,-8.3e-4 1.98485,0.8244 4.23242,1.83398 3.81359,1.71301 4.13212,1.81811 4.75781,1.55859 0.92513,-0.38365 1.30071,-1.33704 0.86133,-2.18554 -0.26946,-0.52039 -1.07152,-0.98106 -4.23242,-2.42774 -2.14478,-0.98162 -3.93321,-1.80849 -3.97461,-1.83789 -0.16851,-0.11974 0.99088,-2.78411 1.21289,-2.78711 0.13198,-0.002 2.13846,0.34565 4.45703,0.77149 2.31856,0.42586 4.38451,0.71402 4.5918,0.64062 0.75568,-0.26737 1.16406,-0.81501 1.16406,-1.5625 -0.44424,-1.87615 -1.65471,-1.72933 -3.05664,-1.97656 -2.55193,-0.45082 -6.64014,-1.22106 -6.67578,-1.27734 -0.0306,-0.0483 -0.0198,-0.80533 0.0234,-1.6836 l 0.0781,-1.59765 4.42188,-0.14844 c 4.37731,-0.14599 4.42712,-0.15157 4.92773,-0.72071 0.78616,-2.830284 -1.7916,-2.584986 -3.79492,-2.576167 h -3.36914 l 1.28906,-1.519531 c 4.80293,-5.656896 7.31979,-12.373581 7.65234,-20.421875 0.21574,-5.221288 -0.4175,-10.019798 -2.21289,-16.736328 z m -92.134762,2.771484 c 0.129269,-0.132792 3.121306,1.88306 4.779296,3.21875 3.19811,2.576441 5.149743,6.290158 6.320313,12.027344 0.43445,2.129299 0.43528,2.135504 -0.01563,2.769531 -1.32302,1.860351 -3.385741,7.332365 -4.144531,10.994141 -0.21801,1.052093 -0.45765,2.874912 -0.53125,4.050781 L 57.142578,94.970222 55.5625,93.39405 c -3.72567,-3.716114 -6.081194,-8.518303 -6.833984,-13.9375 -0.37886,-2.727311 -0.291045,-7.530315 0.197265,-10.853515 0.38181,-2.598329 1.696917,-8.580873 1.941407,-8.832032 z m 90.603512,0.107422 c 0.0316,-0.0014 0.0537,0.0057 0.0664,0.01953 0.0967,0.105061 0.4891,1.50615 0.87109,3.115234 2.61978,11.035552 2.01187,19.025911 -1.96484,25.867187 h 0.002 c -0.6366,1.095157 -1.84221,2.621237 -3.11133,3.939453 l -2.07031,2.150391 -0.01,-1.349609 c -0.0259,-3.998079 -2.24563,-11.643395 -4.42969,-15.253906 l -0.78711,-1.300782 0.47656,-2.228515 c 1.22078,-5.708931 2.99791,-9.123819 6.08399,-11.695313 1.88792,-1.573126 4.39882,-3.243135 4.87304,-3.263672 z m -45.212888,8.038453 c 3.166866,5.79e-4 6.331868,0.100419 7.748048,0.298828 14.8433,2.079556 23.31965,8.583533 26.50195,21.184204 1.19994,4.751337 1.76572,13.76961 1.05274,16.79102 -0.99455,4.2146 -3.25524,8.11764 -7.42578,12.82031 -2.57908,2.90815 -7.86012,7.22713 -12.00391,9.81445 v -0.002 c -2.5496,1.59195 -2.41999,1.5804 -2.59961,0.22461 -0.42908,-3.23866 -2.6307,-6.33934 -6.12305,-8.62891 -0.86006,-0.56384 -0.99712,-0.8001 -1.75781,-3.01562 -0.96585,-2.81308 -2.583729,-6.33433 -3.406249,-7.41407 -0.31798,-0.41742 -0.921407,-0.92231 -1.341797,-1.12304 -0.7049,-0.33656 -0.824397,-0.33656 -1.529297,0 -0.42038,0.20073 -1.019731,0.70118 -1.332031,1.11133 -0.84578,1.11073 -2.27992,4.24438 -3.25,7.09765 l -0.859375,2.52539 -1.583985,1.11524 c -2.95998,2.08134 -5.12264,5.27039 -5.40039,7.96484 -0.07277,0.70604 -0.184294,1.2832 -0.246094,1.2832 -0.06176,0 -1.386403,-0.84394 -2.945313,-1.875 -6.58386,-4.35455 -12.820764,-10.33281 -15.865234,-15.20898 -1.16003,-1.85794 -2.352911,-4.47077 -2.851563,-6.24219 -0.563549,-2.00194 -0.634548,-5.3117 -0.203124,-9.531249 0.982148,-9.605974 3.601595,-16.165923 8.353515,-20.923828 4.5189,-4.524591 10.599081,-6.761881 19.306641,-7.971313 1.42509,-0.197725 4.594859,-0.295501 7.761718,-0.294922 z M 76.664062,96.001472 C 71.384399,95.909316 67,101.32573 67,108.28663 c 0,2.52443 0.527188,4.54651 1.699219,6.52148 1.122673,1.89181 2.276074,2.68459 4.496093,3.09375 5.630208,0.85301 13.564734,-4.00855 13.804688,-10.58007 -0.0048,-2.32249 -0.48742,-3.81303 -1.964844,-6.07422 -1.841693,-2.818685 -4.535345,-4.72002 -7.304687,-5.154301 -0.358903,-0.05628 -0.714427,-0.08565 -1.066407,-0.0918 z m 38.671878,0 c -0.35198,0.0062 -0.70751,0.03552 -1.06641,0.0918 -2.76934,0.434281 -5.46299,2.335616 -7.30469,5.154298 -1.47742,2.26119 -1.95984,3.75173 -1.96484,6.07422 0.23995,6.57152 8.17448,11.43308 13.80469,10.58007 2.22002,-0.40916 3.37342,-1.20194 4.49609,-3.09375 1.17203,-1.97497 1.69922,-3.99705 1.69922,-6.52148 0,-6.96089 -4.3844,-12.377315 -9.66406,-12.285155 z M 77.5,103.99952 c 3.037566,0 5.5,2.46243 5.5,5.5 0,3.03757 -2.462434,5.5 -5.5,5.5 -3.037566,0 -5.5,-2.46243 -5.5,-5.5 0,-3.03757 2.462434,-5.5 5.5,-5.5 z m 37,0 c 3.03757,0 5.5,2.46243 5.5,5.5 0,3.03757 -2.46243,5.5 -5.5,5.5 -3.03757,0 -5.5,-2.46243 -5.5,-5.5 0,-3.03757 2.46243,-5.5 5.5,-5.5 z m -37,3 c -1.380712,0 -2.5,1.11929 -2.5,2.5 0,1.38071 1.119288,2.5 2.5,2.5 1.380712,0 2.5,-1.11929 2.5,-2.5 0,-1.38071 -1.119288,-2.5 -2.5,-2.5 z m 37,0 c -1.38071,0 -2.5,1.11929 -2.5,2.5 0,1.38071 1.11929,2.5 2.5,2.5 1.38071,0 2.5,-1.11929 2.5,-2.5 0,-1.38071 -1.11929,-2.5 -2.5,-2.5 z M 90.386719,121.6714 c 0.05736,-0.006 0.143522,0.0249 0.265625,0.0781 2.43345,1.06179 3.585945,1.28845 6.046875,1.18945 2.00175,-0.0806 2.749792,-0.21125 3.923831,-0.6914 0.79754,-0.32617 1.49127,-0.5518 1.54297,-0.5 0.20698,0.20723 -0.22395,1.67984 -0.6504,2.22265 -0.24961,0.31775 -1.07896,0.91183 -1.843745,1.31836 -0.76478,0.40652 -1.840905,1.16926 -2.390625,1.69532 -0.54972,0.52603 -1.009438,0.95507 -1.023438,0.95507 -0.01395,0 -0.469378,-0.45256 -1.011718,-1.00586 -0.54233,-0.5533 -1.677818,-1.36953 -2.523438,-1.81445 -1.68522,-0.88668 -2.153308,-1.42353 -2.361328,-2.70703 -0.08621,-0.53191 -0.100806,-0.72631 0.02539,-0.74023 z m 5.791015,7.61523 0.966797,1.07031 c 1.17385,1.30046 2.986239,2.42016 4.499999,2.7793 1.83563,0.4355 1.86474,0.45357 1.125,0.7832 -1.67744,0.74745 -3.973174,0.12968 -5.666014,-1.52734 l -0.945313,-0.92578 -0.996094,0.91797 c -0.54741,0.50521 -1.321793,1.08642 -1.720703,1.29296 -0.89509,0.46346 -2.785647,0.62502 -3.773437,0.32227 -0.93147,-0.28548 -0.773654,-0.56172 0.410156,-0.7207 1.46141,-0.19627 3.367409,-1.26405 4.787109,-2.68164 z"
     sodipodi:nodetypes="cccccsccssscccccscscccccsscsscsscccccsssssscscssccscccscccccccsccssssscccsssscsccsccccssssssssccssssssccccssssssscssssccssssssccssssssssssssssssssssssscccscssssssscccsscccssssc" />
  <path
     style="fill:#38adfa"
     d="m 688.80525,256.99648 c -0.33229,-0.33229 -1.1948,-0.36781 -1.91667,-0.0789 -0.79773,0.31922 -0.56078,0.55618 0.60417,0.60416 1.05416,0.0434 1.64479,-0.19293 1.3125,-0.52522 z"
     id="path1063" />
  <path
     style="opacity:0.2;fill:#ffffff;stroke-width:4"
     d="M 96 16 A 80 80 0 0 0 16 96 A 80 80 0 0 0 16.019531 96.472656 A 80 80 0 0 1 96 17 A 80 80 0 0 1 175.97461 96.513672 A 80 80 0 0 0 176 96 A 80 80 0 0 0 96 16 z "
     id="path6" />
</svg>
