<?xml version="1.0" encoding="UTF-8" standalone="no"?>
<svg
   width="192"
   height="192"
   version="1"
   id="svg28"
   sodipodi:docname="apps_anlinux.svg"
   inkscape:version="1.1.1 (1:1.1+202109281949+c3084ef5ed)"
   xmlns:inkscape="http://www.inkscape.org/namespaces/inkscape"
   xmlns:sodipodi="http://sodipodi.sourceforge.net/DTD/sodipodi-0.dtd"
   xmlns="http://www.w3.org/2000/svg"
   xmlns:svg="http://www.w3.org/2000/svg"
   xmlns:rdf="http://www.w3.org/1999/02/22-rdf-syntax-ns#"
   xmlns:cc="http://creativecommons.org/ns#"
   xmlns:dc="http://purl.org/dc/elements/1.1/">
  <metadata
     id="metadata34">
    <rdf:RDF>
      <cc:Work
         rdf:about="">
        <dc:format>image/svg+xml</dc:format>
        <dc:type
           rdf:resource="http://purl.org/dc/dcmitype/StillImage" />
      </cc:Work>
    </rdf:RDF>
  </metadata>
  <defs
     id="defs32">
    <filter
       inkscape:collect="always"
       style="color-interpolation-filters:sRGB"
       id="filter25851"
       x="-0.059645789"
       y="-0.040158991"
       width="1.1192916"
       height="1.080318">
      <feGaussianBlur
         inkscape:collect="always"
         stdDeviation="2.6592081"
         id="feGaussianBlur25853" />
    </filter>
    <filter
       inkscape:collect="always"
       style="color-interpolation-filters:sRGB"
       id="filter25898"
       x="-0.073307709"
       y="-0.076772279"
       width="1.1466154"
       height="1.1535446">
      <feGaussianBlur
         inkscape:collect="always"
         stdDeviation="4.0625155"
         id="feGaussianBlur25900" />
    </filter>
    <filter
       inkscape:collect="always"
       style="color-interpolation-filters:sRGB"
       id="filter25940"
       x="-0.10753066"
       y="-0.058187468"
       width="1.2150613"
       height="1.1163749">
      <feGaussianBlur
         inkscape:collect="always"
         stdDeviation="1.8662714"
         id="feGaussianBlur25942" />
    </filter>
  </defs>
  <sodipodi:namedview
     pagecolor="#868686"
     bordercolor="#666666"
     borderopacity="1"
     objecttolerance="10"
     gridtolerance="10"
     guidetolerance="10"
     inkscape:pageopacity="0"
     inkscape:pageshadow="2"
     inkscape:window-width="1920"
     inkscape:window-height="1019"
     id="namedview30"
     showgrid="false"
     inkscape:zoom="1"
     inkscape:cx="84"
     inkscape:cy="90.5"
     inkscape:window-x="0"
     inkscape:window-y="34"
     inkscape:window-maximized="1"
     inkscape:current-layer="svg28"
     inkscape:pagecheckerboard="0"
     inkscape:snap-global="false"
     showguides="true"
     inkscape:snap-bbox="true"
     inkscape:snap-bbox-midpoints="true">
    <inkscape:grid
       type="xygrid"
       id="grid841" />
  </sodipodi:namedview>
  <path
     id="path25813"
     style="opacity:0.2;fill:#000000;fill-opacity:1;stroke-width:0.234159;stroke-linecap:round;stroke-linejoin:round;filter:url(#filter25851)"
     d="m 49.297237,131.30508 c 2.854233,-14.50569 8.910822,-30.0315 15.462351,-43.359843 3.7857,-7.701576 7.692807,-14.119175 8.738783,-22.597461 1.461377,-11.845369 0.239602,-27.055331 7.064875,-37.185102 3.006139,-4.461581 6.600104,-7.165272 15.128974,-8.016028 10.61916,-1.059264 22.6251,3.265103 27.71678,24.944722 4.3219,18.40199 -2.11456,22.843756 2.35331,27.876573 8.991,10.127851 22.73833,27.097129 24.98623,48.798919 2.84038,27.4216 -19.26918,52.23701 -21.66009,51.73679 -18.26824,-0.73072 -39.824696,-1.34503 -54.287412,5.41735 0,0 -24.419131,-7.59196 -27.158389,-10.98149 -7.940553,-9.82554 -0.78418,-24.24018 1.654588,-36.63443 z"
     sodipodi:nodetypes="ssssssssccss" />
  <path
     id="rect2411"
     style="fill:#3f3f3f;fill-opacity:1;stroke-width:0.234159;stroke-linecap:round;stroke-linejoin:round"
     d="m 49.297237,127.30489 c 2.854233,-14.50569 8.910822,-30.031499 15.462351,-43.359843 3.7857,-7.701576 7.692807,-14.119175 8.738783,-22.597461 1.461377,-11.845369 0.239602,-27.055331 7.064875,-37.185102 3.006139,-4.461581 6.600104,-7.165272 15.128974,-8.016028 10.61916,-1.059264 22.6251,3.265103 27.71678,24.944722 4.3219,18.40199 -2.11456,22.843756 2.35331,27.876573 8.991,10.127851 22.73833,27.097126 24.98623,48.798919 2.84038,27.4216 -19.26918,52.23701 -21.66009,51.73679 -18.26824,-0.73072 -39.824696,-1.34503 -54.287412,5.41735 0,0 -24.419131,-7.59196 -27.158389,-10.98149 -7.940553,-9.82554 -0.78418,-24.24018 1.654588,-36.63443 z"
     sodipodi:nodetypes="ssssssssccss" />
  <ellipse
     style="fill:#ffffff;stroke-width:0.210986;stroke-linecap:round;stroke-linejoin:round"
     id="path6462"
     cx="85"
     cy="47.5"
     rx="7"
     ry="10.5" />
  <ellipse
     style="fill:#3f3f3f;fill-opacity:1;stroke-width:0.104412;stroke-linecap:round;stroke-linejoin:round"
     id="ellipse6544"
     cx="85"
     cy="50"
     rx="3"
     ry="6" />
  <ellipse
     style="fill:#ffffff;stroke-width:0.210986;stroke-linecap:round;stroke-linejoin:round"
     id="ellipse6564"
     cx="104"
     cy="47.5"
     rx="7"
     ry="10.5" />
  <ellipse
     style="fill:#3f3f3f;fill-opacity:1;stroke-width:0.104412;stroke-linecap:round;stroke-linejoin:round"
     id="ellipse6566"
     cx="104"
     cy="50"
     rx="3"
     ry="6" />
  <path
     id="rect8852"
     style="fill:#ffffff;stroke-width:0.234129;stroke-linecap:round;stroke-linejoin:round"
     d="m 82.562594,64.183763 c 8.34992,-9.811548 14.291948,-8.740483 24.331576,-0.666238 9.76508,7.853439 21.95895,45.284595 18.8466,73.930245 -0.43453,3.99943 4.28959,9.68106 2.4675,13.77382 -11.36448,11.58239 -61.433319,21.71447 -72.965562,-5.98627 C 53.77658,114.41867 80.231895,66.922445 82.562594,64.183763 Z"
     sodipodi:nodetypes="sssccs" />
  <path
     id="path25855"
     style="opacity:0.2;fill:#000000;fill-opacity:1;stroke-width:0.231475;stroke-linecap:round;stroke-linejoin:round;filter:url(#filter25898)"
     d="m 93.84375,51.002213 c -0.157373,-0.0032 -0.304553,-0.0021 -0.4375,0.0059 -4.145862,0.247041 -18.831792,5.117315 -19.390625,12.890626 -0.529111,7.35989 12.969946,14.168342 16.435547,14.101562 1.28432,-0.02475 22.726838,-7.087007 23.511718,-13.730469 0.91706,-7.762229 -15.240568,-13.167702 -20.11914,-13.267578 z m 38.75586,73.080077 c -4.32825,0.24794 -9.7142,6.59078 -11.68555,12.7207 -1.65614,5.28512 -5.91747,25.60802 -2.80664,35.32227 2.30925,6.85577 11.24633,6.71977 16.81836,4.56055 5.46374,-2.20484 7.6414,-9.22274 14.10352,-12.86133 4.54198,-2.55743 9.03174,-2.98183 11.58008,-7.47656 4.00679,-7.06713 -1.29245,-9.41804 -7.61915,-14.11914 -1.08228,-0.55423 1.47559,-8.83369 -2.04296,-11.15235 -4.24577,-2.79789 -10.88943,-2.79528 -13.52149,-2.96094 -1.11017,-2.99889 -2.85878,-4.1459 -4.82617,-4.0332 z m -79.455079,0.91797 c -0.479298,-0.003 -0.975069,0.0512 -1.492187,0.16797 -8.07354,1.82224 -4.325503,8.53573 -7.794922,10.66015 -2.229205,1.36502 -9.681958,1.31053 -12.439453,5.53516 -2.092275,3.20548 1.355897,9.60251 1.220703,13.96484 -0.06233,2.01116 -1.896031,2.69675 -2.949219,4.51368 -1.863493,3.25974 0.323969,6.0175 3.248047,7.91211 7.167517,4.27955 16.596271,2.60661 21.017578,3.85156 6.936213,1.95311 7.768109,3.86207 14.744141,5.73047 7.466184,1.99966 11.923591,-0.7143 13.876953,-5.55469 C 88.649684,156.73148 73.68264,152.607 67.998047,144.41042 63.452295,137.85594 60.334006,125.03808 53.144531,125.00026 Z" />
  <path
     id="path6650"
     style="fill:#ffb81d;fill-opacity:1;stroke-width:0.233702;stroke-linecap:round;stroke-linejoin:round"
     d="m 120.9136,134.80361 c -1.65614,5.28512 -5.9173,25.60621 -2.80647,35.32046 2.30925,6.85577 11.24621,6.72148 16.81824,4.56226 5.46374,-2.20484 7.64249,-9.22304 14.10461,-12.86163 4.54198,-2.55743 9.03019,-2.98263 11.57853,-7.47736 4.0068,-7.06713 -1.29103,-9.41855 -7.61773,-14.11965 -1.08228,-0.55423 1.47545,-8.83219 -2.0431,-11.15085 -4.24577,-2.79789 -10.88989,-2.79635 -13.52195,-2.96201 -3.55255,-9.59647 -13.64472,-0.22748 -16.51213,8.68878 z"
     sodipodi:nodetypes="cccsscscc" />
  <path
     id="path25902"
     style="opacity:0.2;fill:#000000;fill-opacity:1;stroke-width:0.234159;stroke-linecap:round;stroke-linejoin:round;filter:url(#filter25940)"
     d="m 108.53179,67.997785 c 2.93785,7.631001 15.46464,28.152397 15.53832,65.570405 0.0203,10.31201 8.21699,12.15772 14.96612,11.17259 3.51771,-0.51346 8.95836,-1.63084 11.11253,-10.79076 0.81256,-4.56372 -12.11658,-6.77631 -12.61925,-11.62915 -1.57472,-15.20271 -3.49187,-25.318972 -10.76469,-35.151828 z"
     sodipodi:nodetypes="csscscc" />
  <path
     id="rect8137"
     style="fill:#3f3f3f;fill-opacity:1;stroke-width:0.234159;stroke-linecap:round;stroke-linejoin:round"
     d="m 108.53179,65.998009 c 2.93785,7.631001 15.46464,28.152397 15.53832,65.570401 0.0203,10.31201 8.21699,12.15772 14.96612,11.17259 3.51771,-0.51346 8.95836,-1.63084 11.11253,-10.79076 0.81256,-4.56372 1.10232,-9.33074 0.59965,-14.18358 -1.57472,-15.20271 -8.79518,-28.013786 -16.068,-37.846642 z"
     sodipodi:nodetypes="csscscc" />
  <path
     id="rect6092"
     style="fill:#ffb81d;fill-opacity:1;stroke-width:0.233875;stroke-linecap:round;stroke-linejoin:round"
     d="m 74.015134,61.898164 c 0.558833,-7.77331 15.246024,-12.642714 19.391886,-12.889755 4.254309,-0.253504 21.50211,5.249348 20.55547,13.261972 -0.78488,6.643462 -22.227873,13.704383 -23.512193,13.729132 -3.465601,0.06678 -16.964274,-6.741459 -16.435163,-14.101349 z"
     sodipodi:nodetypes="sssss" />
  <path
     id="path26347"
     style="fill:#ffffff;fill-opacity:1;stroke-width:0.234159;stroke-linecap:round;stroke-linejoin:round;opacity:0.1"
     d="M 97.697266 16.013672 C 97.024761 16.034893 96.355104 16.08028 95.691406 16.146484 C 87.162536 16.99724 83.568639 19.700528 80.5625 24.162109 C 73.737227 34.29188 74.959424 49.502287 73.498047 61.347656 C 72.452071 69.825942 68.545466 76.243736 64.759766 83.945312 C 58.208237 97.273657 52.151108 112.799 49.296875 127.30469 C 47.615144 135.85154 43.6944 145.35915 44.023438 153.66016 C 44.022045 145.60002 47.68192 136.51217 49.296875 128.30469 C 52.151108 113.799 58.208237 98.273657 64.759766 84.945312 C 68.545466 77.243736 72.452071 70.825942 73.498047 62.347656 C 74.959424 50.502287 73.737227 35.29188 80.5625 25.162109 C 83.568639 20.700528 87.162536 17.99724 95.691406 17.146484 C 106.31057 16.08722 118.31652 20.412178 123.4082 42.091797 C 124.48673 46.684015 124.89743 50.404771 124.97266 53.484375 C 124.96856 50.213984 124.60956 46.206985 123.4082 41.091797 C 118.63475 20.767154 107.78484 15.695348 97.697266 16.013672 z M 124.11523 64.869141 C 124.02658 66.820034 124.33988 68.367119 125.76172 69.96875 C 134.75272 80.096601 148.50015 97.065785 150.74805 118.76758 C 150.90566 120.28925 150.97669 121.80099 150.98828 123.30273 C 151.01127 121.47371 150.94072 119.62767 150.74805 117.76758 C 148.50015 96.065785 134.75272 79.094648 125.76172 68.966797 C 124.59208 67.649264 124.17891 66.366727 124.11523 64.869141 z " />
  <path
     id="rect4902"
     style="fill:#ffb81d;fill-opacity:1;stroke-width:0.231475;stroke-linecap:round;stroke-linejoin:round"
     d="m 51.651616,123.16856 c 8.273889,-1.86747 11.498292,12.24978 16.347094,19.24122 5.684593,8.19658 20.650514,12.32138 14.577002,27.37141 -1.953362,4.84039 -6.411122,7.55521 -13.877306,5.55555 -6.976032,-1.8684 -7.806694,-3.779 -14.742907,-5.73211 -4.421307,-1.24495 -13.849667,0.4285 -21.017184,-3.85105 -2.924078,-1.89461 -5.111468,-4.65154 -3.247975,-7.91128 1.053188,-1.81693 2.88527,-2.50246 2.947598,-4.51361 0.135194,-4.36233 -3.31225,-10.76036 -1.219975,-13.96584 2.757495,-4.22463 10.209663,-4.16978 12.438868,-5.5348 3.469419,-2.12443 -0.278755,-8.83725 7.794785,-10.65949 z"
     sodipodi:nodetypes="sssssccssss" />
</svg>
