<?xml version="1.0" encoding="UTF-8" standalone="no"?>
<svg
   width="192"
   height="192"
   version="1.1"
   id="svg12"
   sodipodi:docname="apps_joplin.svg"
   inkscape:version="1.1-rc (1:1.1+rc+202105232036+f4db50c7c1)"
   xmlns:inkscape="http://www.inkscape.org/namespaces/inkscape"
   xmlns:sodipodi="http://sodipodi.sourceforge.net/DTD/sodipodi-0.dtd"
   xmlns="http://www.w3.org/2000/svg"
   xmlns:svg="http://www.w3.org/2000/svg">
  <defs
     id="defs16">
    <filter
       inkscape:collect="always"
       style="color-interpolation-filters:sRGB"
       id="filter845"
       x="-0.048000001"
       y="-0.048000001"
       width="1.096"
       height="1.096">
      <feGaussianBlur
         inkscape:collect="always"
         stdDeviation="3.2"
         id="feGaussianBlur847" />
    </filter>
    <filter
       inkscape:collect="always"
       style="color-interpolation-filters:sRGB"
       id="filter849"
       x="-0.056727271"
       y="-0.041599998"
       width="1.1134545"
       height="1.0832">
      <feGaussianBlur
         inkscape:collect="always"
         stdDeviation="2.08"
         id="feGaussianBlur851" />
    </filter>
  </defs>
  <sodipodi:namedview
     id="namedview14"
     pagecolor="#ffffff"
     bordercolor="#666666"
     borderopacity="1.0"
     inkscape:pageshadow="2"
     inkscape:pageopacity="0.0"
     inkscape:pagecheckerboard="0"
     showgrid="false"
     inkscape:zoom="2.66"
     inkscape:cx="23.87218"
     inkscape:cy="65.977444"
     inkscape:window-width="1920"
     inkscape:window-height="1019"
     inkscape:window-x="0"
     inkscape:window-y="34"
     inkscape:window-maximized="1"
     inkscape:current-layer="svg12" />
  <rect
     width="160"
     height="160"
     x="16"
     y="20"
     rx="48"
     ry="48"
     style="opacity:0.2;stroke-width:4;filter:url(#filter845)"
     id="rect2" />
  <rect
     width="160"
     height="160"
     x="16"
     y="16"
     rx="48"
     ry="48"
     style="fill:#176fd0;stroke-width:4"
     id="rect4" />
  <path
     d="M 96,54 V 38 h 44 v 16 h -8 c 0,0 -4,0 -4,4 v 72 c 0,8 -4,28 -36,28 C 64,158 52,135.82142 52,116 52,76 96,88 96,88 v 22 c 0,0 -4,-4 -12,-4 -4.8074,0 -12,4 -12,12 0,10.41367 12,16 20,16 12,0 16,-8 16,-12 V 58 c 0,-4 -4,-4 -4,-4 z"
     style="opacity:0.2;stroke-width:4;filter:url(#filter849)"
     id="path6" />
  <path
     d="M 96,52 V 36 h 44 v 16 h -8 c 0,0 -4,0 -4,4 v 72 c 0,8 -4,28 -36,28 C 64,156 52,133.82142 52,114 52,74 96,86 96,86 v 22 c 0,0 -4,-4 -12,-4 -4.8074,0 -12,4 -12,12 0,10.41367 12,16 20,16 12,0 16,-8 16,-12 V 56 c 0,-4 -4,-4 -4,-4 z"
     style="fill:#ffffff;stroke-width:4"
     id="path8" />
  <path
     id="path10"
     style="opacity:0.1;fill:#ffffff;stroke-width:4"
     d="M 64 16 C 37.408 16 16 37.408 16 64 L 16 65 C 16 38.408 37.408 17 64 17 L 128 17 C 154.592 17 176 38.408 176 65 L 176 64 C 176 37.408 154.592 16 128 16 L 64 16 z " />
</svg>
