<?xml version="1.0" encoding="UTF-8" standalone="no"?>
<svg
   width="192"
   height="192"
   version="1"
   id="svg12"
   sodipodi:docname="apps_duolingo.svg"
   inkscape:version="1.1-rc (1:1.1+rc+202105232036+f4db50c7c1)"
   xmlns:inkscape="http://www.inkscape.org/namespaces/inkscape"
   xmlns:sodipodi="http://sodipodi.sourceforge.net/DTD/sodipodi-0.dtd"
   xmlns="http://www.w3.org/2000/svg"
   xmlns:svg="http://www.w3.org/2000/svg">
  <defs
     id="defs16">
    <filter
       inkscape:collect="always"
       style="color-interpolation-filters:sRGB"
       id="filter11013"
       x="-0.044551349"
       y="-0.052027356"
       width="1.0891027"
       height="1.1040547">
      <feGaussianBlur
         inkscape:collect="always"
         stdDeviation="2.9700837"
         id="feGaussianBlur11015" />
    </filter>
    <filter
       inkscape:collect="always"
       style="color-interpolation-filters:sRGB"
       id="filter11058"
       x="-0.029379309"
       y="-0.13107692"
       width="1.0587586"
       height="1.2621538">
      <feGaussianBlur
         inkscape:collect="always"
         stdDeviation="0.71"
         id="feGaussianBlur11060" />
    </filter>
    <filter
       inkscape:collect="always"
       style="color-interpolation-filters:sRGB"
       id="filter11142"
       x="-0.039692308"
       y="-0.060705879"
       width="1.0793846"
       height="1.1214118">
      <feGaussianBlur
         inkscape:collect="always"
         stdDeviation="1.7199999"
         id="feGaussianBlur11144" />
    </filter>
    <filter
       inkscape:collect="always"
       style="color-interpolation-filters:sRGB"
       id="filter11185"
       x="-0.034933332"
       y="-0.076682923"
       width="1.0698667"
       height="1.1533658">
      <feGaussianBlur
         inkscape:collect="always"
         stdDeviation="1.31"
         id="feGaussianBlur11187" />
    </filter>
    <filter
       inkscape:collect="always"
       style="color-interpolation-filters:sRGB"
       id="filter11602"
       x="-0.058830885"
       y="-0.12354636"
       width="1.1176618"
       height="1.2470927">
      <feGaussianBlur
         inkscape:collect="always"
         stdDeviation="1.0295533"
         id="feGaussianBlur11604" />
    </filter>
    <filter
       inkscape:collect="always"
       style="color-interpolation-filters:sRGB"
       id="filter11606"
       x="-0.13727377"
       y="-0.13727377"
       width="1.2745475"
       height="1.2745475">
      <feGaussianBlur
         inkscape:collect="always"
         stdDeviation="1.0295533"
         id="feGaussianBlur11608" />
    </filter>
    <filter
       inkscape:collect="always"
       style="color-interpolation-filters:sRGB"
       id="filter11610"
       x="-0.11230454"
       y="-0.22462982"
       width="1.2246091"
       height="1.4492596">
      <feGaussianBlur
         inkscape:collect="always"
         stdDeviation="1.0295533"
         id="feGaussianBlur11612" />
    </filter>
  </defs>
  <sodipodi:namedview
     id="namedview14"
     pagecolor="#ffffff"
     bordercolor="#666666"
     borderopacity="1.0"
     inkscape:pageshadow="2"
     inkscape:pageopacity="0.0"
     inkscape:pagecheckerboard="0"
     showgrid="false"
     inkscape:zoom="1"
     inkscape:cx="84.5"
     inkscape:cy="98"
     inkscape:window-width="1920"
     inkscape:window-height="1014"
     inkscape:window-x="0"
     inkscape:window-y="34"
     inkscape:window-maximized="1"
     inkscape:current-layer="svg12">
    <inkscape:grid
       type="xygrid"
       id="grid6770" />
  </sodipodi:namedview>
  <path
     id="rect11017"
     style="opacity:0.2;fill:#000000;fill-opacity:1;stroke:none;stroke-width:3.10711;stroke-linecap:square;stroke-linejoin:round;stop-color:#000000;filter:url(#filter11058)"
     d="m 74,157 c -3.878,0 -7,2.899 -7,6.5 0,3.601 3.122,6.5 7,6.5 h 12 c 3.878,0 7,-2.899 7,-6.5 0,-3.601 -3.122,-6.5 -7,-6.5 z m 32,0 c -3.878,0 -7,2.899 -7,6.5 0,3.601 3.122,6.5 7,6.5 h 12 c 3.878,0 7,-2.899 7,-6.5 0,-3.601 -3.122,-6.5 -7,-6.5 z" />
  <rect
     style="opacity:1;fill:#f39000;fill-opacity:1;stroke:none;stroke-width:3.10711;stroke-linecap:square;stroke-linejoin:round;stop-color:#000000"
     id="rect7253"
     width="26"
     height="13"
     x="67"
     y="155"
     rx="7"
     ry="7" />
  <rect
     style="opacity:1;fill:#f39000;fill-opacity:1;stroke:none;stroke-width:3.10711;stroke-linecap:square;stroke-linejoin:round;stop-color:#000000"
     id="rect7437"
     width="26"
     height="13"
     x="-125"
     y="155"
     rx="7"
     ry="7"
     transform="scale(-1,1)" />
  <path
     id="path10975"
     style="opacity:0.2;fill:#000000;fill-opacity:1;stroke-width:0.231191;filter:url(#filter11013)"
     d="M 57.378906,28 C 46.43403,27.645691 37.330409,38.160326 38.431641,48.869141 38.012353,65.596887 38.582486,82.361273 37.740234,99.068359 30.499198,111.63411 23.397862,124.73293 16.476562,137.58789 c -2.948537,8.91501 8.506953,9.94939 14.666016,9.32422 9.83953,-0.99875 15.114477,-3.03507 21.328125,-2.81641 0.420407,0.47358 0.852806,0.8232 1.275391,1.25977 C 64.257041,157.79809 79.712009,164.98336 96,165 c 16.28799,-0.0166 31.74296,-7.20191 42.25391,-19.64453 0.42258,-0.43657 0.85498,-0.78619 1.27539,-1.25977 6.21365,-0.21866 11.48859,1.81766 21.32812,2.81641 6.15907,0.62517 17.61456,-0.40921 14.66602,-9.32422 C 168.60214,124.73293 161.5008,111.63411 154.25977,99.068359 153.41751,82.361273 153.98765,65.596887 153.56836,48.869141 154.66959,38.160326 145.56597,27.645691 134.62109,28 l -1.53711,0.04492 -1.60156,0.173828 c -7.59765,1.879177 -14.55146,5.911825 -22.1289,7.943359 C 105.24399,37.778581 100.88173,38.90525 96.511719,39 96.340949,39.0037 96.17078,38.979816 96,38.980469 95.82922,38.979816 95.659051,39.003702 95.488281,39 91.118275,38.90525 86.756009,37.778581 82.646484,36.162109 75.069042,34.130575 68.115227,30.097927 60.517578,28.21875 l -1.601562,-0.173828 z" />
  <path
     id="path1936"
     style="fill:#77c700;fill-opacity:1;stroke-width:0.231191"
     d="M 57.378906 24 C 46.43403 23.645691 37.330409 34.160326 38.431641 44.869141 C 38.012353 61.596887 38.582486 78.361273 37.740234 95.068359 C 30.499198 107.63411 23.397862 120.73293 16.476562 133.58789 C 13.528025 142.5029 24.983515 143.53728 31.142578 142.91211 C 40.982108 141.91336 46.257055 139.87704 52.470703 140.0957 C 52.89111 140.56928 53.323509 140.9189 53.746094 141.35547 C 64.257041 153.79809 79.712009 160.98336 96 161 C 112.28799 160.98336 127.74296 153.79809 138.25391 141.35547 C 138.67649 140.9189 139.10889 140.56928 139.5293 140.0957 C 145.74295 139.87704 151.01789 141.91336 160.85742 142.91211 C 167.01649 143.53728 178.47198 142.5029 175.52344 133.58789 C 168.60214 120.73293 161.5008 107.63411 154.25977 95.068359 C 153.41751 78.361273 153.98765 61.596887 153.56836 44.869141 C 154.66959 34.160326 145.56597 23.645691 134.62109 24 L 133.08398 24.044922 L 131.48242 24.21875 C 123.88477 26.097927 116.93096 30.130575 109.35352 32.162109 C 105.24399 33.778581 100.88173 34.90525 96.511719 35 C 96.340949 35.0037 96.17078 34.979816 96 34.980469 C 95.82922 34.979816 95.659051 35.003702 95.488281 35 C 91.118275 34.90525 86.756009 33.778581 82.646484 32.162109 C 75.069042 30.130575 68.115227 26.097927 60.517578 24.21875 L 58.916016 24.044922 L 57.378906 24 z " />
  <path
     id="path11104"
     style="opacity:0.15;fill:#000000;fill-opacity:1;stroke-width:0.230759;filter:url(#filter11142)"
     d="m 67.051805,36.001846 c -3.197078,-0.132587 -3.239271,6.913105 -3.793736,9.499584 -2.338553,-1.902652 -5.725614,-8.514377 -8.334134,-3.368619 -2.02926,3.184226 -0.08074,8.549566 -3.897061,10.20138 -1.022968,1.120953 -1.980627,2.31373 -2.842377,3.569411 -2.567684,3.336608 -4.088112,7.489151 -4.088112,12.002656 0.266432,4.814918 -0.315089,10.00975 0,14.46089 v 1.670663 C 44.096385,95.096864 53.213389,104 64.538893,104 h 3.033429 c 8.955872,0 16.526121,-5.569065 19.303997,-13.367258 1.95653,0.269624 6.083398,-2.953277 9.123683,-2.764295 3.040285,-0.188982 7.167138,3.033919 9.123678,2.764295 C 107.90156,98.430935 115.47181,104 124.42768,104 h 3.03343 c 11.3255,0 20.4425,-8.903136 20.4425,-19.962189 v -1.670663 c 0.31509,-4.45114 -0.26643,-9.645972 0,-14.46089 0,-4.513505 -1.52042,-8.666048 -4.0881,-12.002656 -0.86175,-1.255681 -1.81942,-2.448458 -2.84239,-3.569411 -3.81631,-1.651814 -1.8678,-7.017154 -3.89706,-10.20138 -2.60851,-5.145758 -5.99558,1.465967 -8.33413,3.368619 -0.55446,-2.586479 -0.59665,-9.632171 -3.79374,-9.499584 -0.45672,0.01894 -0.97701,0.184386 -1.57325,0.530246 -4.36821,4.786664 -8.77153,9.569077 -13.30926,14.211362 -3.07457,3.622724 -7.25628,6.444182 -12.270184,6.203911 -0.598841,0.06659 -1.198194,0.09719 -1.795494,0.10527 -0.5973,-0.0081 -1.196653,-0.03868 -1.795494,-0.10527 -5.013913,0.240271 -9.195617,-2.581187 -12.270184,-6.203911 -4.537736,-4.642285 -8.941048,-9.424698 -13.309269,-14.211362 -0.596227,-0.34586 -1.116525,-0.511305 -1.57325,-0.530246 z"
     sodipodi:nodetypes="sccccccssscccsssccccccscccccccs" />
  <path
     id="path1870"
     style="fill:#8edf00;fill-opacity:1;stroke-width:0.230759"
     d="m 67.051805,34.001846 c -3.197078,-0.132587 -3.239271,6.913105 -3.793736,9.499584 -2.338553,-1.902652 -5.725614,-8.514377 -8.334134,-3.368619 -2.02926,3.184226 -0.08074,8.549566 -3.897061,10.20138 -1.022968,1.120953 -1.980627,2.31373 -2.842377,3.569411 -2.567684,3.336608 -4.088112,7.489151 -4.088112,12.002656 0.266432,4.814918 -0.315089,10.00975 0,14.46089 v 1.670663 C 44.096385,93.096864 53.213389,102 64.538893,102 h 3.033429 c 8.955872,0 16.526121,-5.569065 19.303997,-13.367258 1.95653,0.269624 6.083398,-2.953277 9.123683,-2.764295 3.040285,-0.188982 7.167138,3.033919 9.123678,2.764295 C 107.90156,96.430935 115.47181,102 124.42768,102 h 3.03343 c 11.3255,0 20.4425,-8.903136 20.4425,-19.962189 v -1.670663 c 0.31509,-4.45114 -0.26643,-9.645972 0,-14.46089 0,-4.513505 -1.52042,-8.666048 -4.0881,-12.002656 -0.86175,-1.255681 -1.81942,-2.448458 -2.84239,-3.569411 -3.81631,-1.651814 -1.8678,-7.017154 -3.89706,-10.20138 -2.60851,-5.145758 -5.99558,1.465967 -8.33413,3.368619 -0.55446,-2.586479 -0.59665,-9.632171 -3.79374,-9.499584 -0.45672,0.01894 -0.97701,0.184386 -1.57325,0.530246 -4.36821,4.786664 -8.77153,9.569077 -13.30926,14.211362 -3.07457,3.622724 -7.25628,6.444182 -12.270184,6.203911 -0.598841,0.06659 -1.198194,0.09719 -1.795494,0.10527 -0.5973,-0.0081 -1.196653,-0.03868 -1.795494,-0.10527 -5.013913,0.240271 -9.195617,-2.581187 -12.270184,-6.203911 -4.537736,-4.642285 -8.941048,-9.424698 -13.309269,-14.211362 -0.596227,-0.34586 -1.116525,-0.511305 -1.57325,-0.530246 z"
     sodipodi:nodetypes="sccccccssscccsssccccccscccccccs" />
  <path
     id="path11147"
     style="opacity:0.15;fill:#000000;fill-opacity:1;stroke:none;stroke-width:2.73841;stroke-linecap:square;stroke-linejoin:round;stroke-miterlimit:4;stroke-dasharray:none;stroke-opacity:1;stop-color:#000000;filter:url(#filter11185)"
     d="m 67,55 c -8.864,0 -16,7.136 -16,16 v 9 c 0,8.864 7.136,16 16,16 8.864,0 16,-7.136 16,-16 V 71 C 83,62.136 75.864,55 67,55 Z m 58,0 c -8.864,0 -16,7.136 -16,16 v 9 c 0,8.864 7.136,16 16,16 8.864,0 16,-7.136 16,-16 v -9 c 0,-8.864 -7.136,-16 -16,-16 z" />
  <path
     id="rect9283"
     style="fill:#ffffff;fill-opacity:1;stroke:none;stroke-width:2.73841;stroke-linecap:square;stroke-linejoin:round;stroke-miterlimit:4;stroke-dasharray:none;stroke-opacity:1;stop-color:#000000"
     d="M 67 53 C 58.136 53 51 60.136 51 69 L 51 78 C 51 86.864 58.136 94 67 94 C 75.864 94 83 86.864 83 78 L 83 69 C 83 60.136 75.864 53 67 53 z M 125 53 C 116.136 53 109 60.136 109 69 L 109 78 C 109 86.864 116.136 94 125 94 C 133.864 94 141 86.864 141 78 L 141 69 C 141 60.136 133.864 53 125 53 z " />
  <path
     id="rect9629"
     style="fill:#4e4e4e;fill-opacity:1;stroke:none;stroke-width:1.40425;stroke-linecap:square;stroke-linejoin:round;stroke-miterlimit:4;stroke-dasharray:none;stroke-opacity:1;stop-color:#000000"
     d="m 70.5,62 c -1.174925,0 -2.285368,0.320986 -3.273438,0.892578 A 5.3100543,5.3100543 0 0 1 68.892578,66.751953 5.3100543,5.3100543 0 0 1 63.582031,72.0625 5.3100543,5.3100543 0 0 1 63,72.019531 v 4.003907 C 63,80.995925 66.345,85 70.5,85 74.655,85 78,80.995925 78,76.023438 V 70.976562 C 78,66.004075 74.655,62 70.5,62 Z" />
  <circle
     style="opacity:0.2;fill:#000000;fill-opacity:1;stroke:none;stroke-width:2.81667;stroke-linecap:square;stroke-linejoin:round;stroke-miterlimit:4;stroke-dasharray:none;stroke-opacity:1;stop-color:#000000;filter:url(#filter11606)"
     id="circle11189"
     cx="96"
     cy="90"
     r="9" />
  <circle
     style="opacity:1;fill:#f39201;fill-opacity:1;stroke:none;stroke-width:2.81667;stroke-linecap:square;stroke-linejoin:round;stroke-miterlimit:4;stroke-dasharray:none;stroke-opacity:1;stop-color:#000000"
     id="path8220"
     cx="96"
     cy="89"
     r="9" />
  <path
     style="color:#000000;opacity:0.2;fill:#000000;fill-opacity:1;stroke-width:1.09882;stroke-linecap:square;stroke-linejoin:round;-inkscape-stroke:none;filter:url(#filter11610)"
     d="m 86.502219,90 c -0.948319,5.71e-4 -1.659798,-0.802249 -1.473438,-1.662599 1.04483,-4.830971 5.641451,-8.325631 10.966043,-8.337392 0.0035,-1.1e-5 0.0069,-1.1e-5 0.01035,0 5.324586,0.0125 9.921206,3.506421 10.966046,8.337392 0.18636,0.860351 -0.52512,1.663171 -1.47344,1.662599 L 96,91 Z"
     id="path11191"
     sodipodi:nodetypes="ccsccccc" />
  <path
     style="color:#000000;opacity:1;fill:#ffc509;fill-opacity:1;stroke-width:1.09882;stroke-linecap:square;stroke-linejoin:round;-inkscape-stroke:none"
     d="m 86.502219,89 c -0.948319,5.71e-4 -1.659798,-0.802249 -1.473438,-1.662599 1.04483,-4.830971 5.641451,-8.325631 10.966043,-8.337392 0.0035,-1.1e-5 0.0069,-1.1e-5 0.01035,0 5.324586,0.0125 9.921206,3.506421 10.966046,8.337392 0.18636,0.860351 -0.52512,1.663171 -1.47344,1.662599 L 96,90 Z"
     id="path10414"
     sodipodi:nodetypes="ccsccccc" />
  <path
     id="path11062"
     style="color:#000000;opacity:0.2;fill:#000000;fill-opacity:1;stroke-width:0.86399;stroke-linecap:square;stroke-linejoin:round;-inkscape-stroke:none;filter:url(#filter11602)"
     d="m 76.160156,121.00007 a 1.1605554,1.1116276 0 0 0 -1.136718,1.33008 c 0.807454,3.86478 4.357783,6.66051 8.472656,6.66992 a 1.1605554,1.1116276 0 0 0 0.0078,0 c 4.114871,-0.01 7.667157,-2.80514 8.47461,-6.66992 a 1.1605554,1.1116276 0 0 0 -1.138672,-1.33008 z m 25.000004,0 a 1.1605554,1.1116276 0 0 0 -1.13672,1.33008 c 0.80745,3.86478 4.35778,6.66051 8.47265,6.66992 a 1.1605554,1.1116276 0 0 0 0.008,0 c 4.11487,-0.01 7.66716,-2.80514 8.47461,-6.66992 a 1.1605554,1.1116276 0 0 0 -1.13868,-1.33008 z m -12.500004,12 a 1.1605554,1.1116276 0 0 0 -1.138672,1.33008 c 0.807451,3.86478 4.35974,6.66051 8.47461,6.66992 a 1.1605554,1.1116276 0 0 0 0.0078,0 c 4.114876,-0.01 7.667166,-2.80514 8.474616,-6.66992 a 1.1605554,1.1116276 0 0 0 -1.13868,-1.33008 z" />
  <path
     id="path7914"
     style="color:#000000;opacity:1;fill:#8edf00;stroke-width:0.86399;stroke-linecap:square;stroke-linejoin:round;-inkscape-stroke:none;fill-opacity:1"
     d="M 76.160156 120 A 1.1605554 1.1116276 0 0 0 75.023438 121.33008 C 75.830892 125.19486 79.381221 127.99059 83.496094 128 A 1.1605554 1.1116276 0 0 0 83.503906 128 C 87.618777 127.99 91.171063 125.19486 91.978516 121.33008 A 1.1605554 1.1116276 0 0 0 90.839844 120 L 76.160156 120 z M 101.16016 120 A 1.1605554 1.1116276 0 0 0 100.02344 121.33008 C 100.83089 125.19486 104.38122 127.99059 108.49609 128 A 1.1605554 1.1116276 0 0 0 108.50391 128 C 112.61878 127.99 116.17107 125.19486 116.97852 121.33008 A 1.1605554 1.1116276 0 0 0 115.83984 120 L 101.16016 120 z M 88.660156 132 A 1.1605554 1.1116276 0 0 0 87.521484 133.33008 C 88.328935 137.19486 91.881224 139.99059 95.996094 140 A 1.1605554 1.1116276 0 0 0 96.003906 140 C 100.11878 139.99 103.67107 137.19486 104.47852 133.33008 A 1.1605554 1.1116276 0 0 0 103.33984 132 L 88.660156 132 z " />
  <path
     id="path10219"
     style="fill:#4e4e4e;fill-opacity:1;stroke:none;stroke-width:1.40425;stroke-linecap:square;stroke-linejoin:round;stroke-miterlimit:4;stroke-dasharray:none;stroke-opacity:1;stop-color:#000000"
     d="m 121.5,62 c -1.17493,0 -2.28537,0.320986 -3.27344,0.892578 a 5.3100543,5.3100543 0 0 1 1.66602,3.859375 A 5.3100543,5.3100543 0 0 1 114.58203,72.0625 5.3100543,5.3100543 0 0 1 114,72.019531 v 4.003907 C 114,80.995925 117.345,85 121.5,85 c 4.155,0 7.5,-4.004075 7.5,-8.976562 V 70.976562 C 129,66.004075 125.655,62 121.5,62 Z" />
  <path
     id="path11237"
     style="fill:#ffffff;fill-opacity:1;stroke-width:0.231191;opacity:0.2"
     d="M 57.378906 24 C 46.910068 23.661101 38.149765 33.267037 38.369141 43.474609 C 38.719705 33.649139 47.252875 24.672199 57.378906 25 L 58.916016 25.044922 L 60.517578 25.21875 C 68.115227 27.097927 75.069042 31.130575 82.646484 33.162109 C 86.756009 34.778581 91.118275 35.90525 95.488281 36 C 95.659051 36.003702 95.82922 35.979816 96 35.980469 C 96.17078 35.979816 96.340949 36.0037 96.511719 36 C 100.88173 35.90525 105.24399 34.778583 109.35352 33.162109 C 116.93096 31.130575 123.88477 27.097927 131.48242 25.21875 L 133.08398 25.044922 L 134.62109 25 C 144.74713 24.672199 153.28029 33.649139 153.63086 43.474609 C 153.85023 33.267037 145.08994 23.661101 134.62109 24 L 133.08398 24.044922 L 131.48242 24.21875 C 123.88477 26.097927 116.93096 30.130575 109.35352 32.162109 C 105.24399 33.778581 100.88173 34.90525 96.511719 35 C 96.340949 35.0037 96.17078 34.979816 96 34.980469 C 95.82922 34.979816 95.659051 35.003702 95.488281 35 C 91.118275 34.90525 86.756009 33.778581 82.646484 32.162109 C 75.069042 30.130575 68.115227 26.097927 60.517578 24.21875 L 58.916016 24.044922 L 57.378906 24 z M 38.421875 45.640625 C 38.038414 62.1124 38.569543 78.618014 37.740234 95.068359 C 30.499198 107.63411 23.397862 120.73293 16.476562 133.58789 C 16.069026 134.82009 15.959992 135.88841 16.050781 136.83594 C 16.093212 136.14317 16.204751 135.40972 16.476562 134.58789 C 23.397862 121.73293 30.499198 108.63411 37.740234 96.068359 C 38.582486 79.361273 38.012353 62.596887 38.431641 45.869141 C 38.423793 45.792824 38.428689 45.716918 38.421875 45.640625 z M 153.57812 45.640625 C 153.57131 45.716918 153.57621 45.792824 153.56836 45.869141 C 153.98765 62.596887 153.41751 79.361273 154.25977 96.068359 C 161.5008 108.63411 168.60214 121.73293 175.52344 134.58789 C 175.79525 135.40972 175.90679 136.14317 175.94922 136.83594 C 176.04001 135.88841 175.93097 134.82009 175.52344 133.58789 C 168.60214 120.73293 161.5008 107.63411 154.25977 95.068359 C 153.43045 78.618014 153.96159 62.1124 153.57812 45.640625 z " />
  <path
     id="path11614"
     style="fill:#ffffff;fill-opacity:1;stroke-width:0.230759;opacity:0.2"
     d="M 67.052734 34.001953 C 63.855656 33.869366 63.812277 40.915474 63.257812 43.501953 C 60.91926 41.599301 57.532348 34.987054 54.923828 40.132812 C 52.894568 43.317039 54.843665 48.68217 51.027344 50.333984 C 50.004376 51.454937 49.045344 52.648616 48.183594 53.904297 C 45.61591 57.240905 44.095703 61.392745 44.095703 65.90625 C 44.105637 66.08578 44.107567 66.268691 44.115234 66.449219 C 44.214949 62.114079 45.703549 58.127021 48.183594 54.904297 C 49.045344 53.648616 50.004376 52.454937 51.027344 51.333984 C 54.843665 49.68217 52.894568 44.317039 54.923828 41.132812 C 57.532348 35.987054 60.91926 42.599301 63.257812 44.501953 C 63.812277 41.915474 63.855656 34.869366 67.052734 35.001953 C 67.509459 35.020894 68.028773 35.18539 68.625 35.53125 C 72.993221 40.317914 77.395858 45.101856 81.933594 49.744141 C 85.008161 53.366865 89.191165 56.187537 94.205078 55.947266 C 94.803919 56.013856 95.4027 56.044634 96 56.052734 C 96.5973 56.044654 97.196081 56.013856 97.794922 55.947266 C 102.80883 56.187537 106.99184 53.366865 110.06641 49.744141 C 114.60414 45.101856 119.00679 40.317914 123.375 35.53125 C 123.97124 35.18539 124.49055 35.020893 124.94727 35.001953 C 128.14436 34.869366 128.18773 41.915474 128.74219 44.501953 C 131.08074 42.599301 134.46766 35.987054 137.07617 41.132812 C 139.10543 44.317039 137.15635 49.68217 140.97266 51.333984 C 141.99563 52.454937 142.95466 53.648616 143.81641 54.904297 C 146.29645 58.127021 147.78505 62.114079 147.88477 66.449219 C 147.89243 66.268691 147.89436 66.08578 147.9043 65.90625 C 147.9043 61.392745 146.38409 57.240905 143.81641 53.904297 C 142.95466 52.648616 141.99563 51.454937 140.97266 50.333984 C 137.15635 48.68217 139.10543 43.317039 137.07617 40.132812 C 134.46766 34.987054 131.08074 41.599301 128.74219 43.501953 C 128.18773 40.915474 128.14436 33.869366 124.94727 34.001953 C 124.49055 34.020893 123.97124 34.18539 123.375 34.53125 C 119.00679 39.317914 114.60414 44.101856 110.06641 48.744141 C 106.99184 52.366865 102.80883 55.187537 97.794922 54.947266 C 97.196081 55.013856 96.5973 55.044654 96 55.052734 C 95.4027 55.044634 94.803919 55.013856 94.205078 54.947266 C 89.191165 55.187537 85.008161 52.366865 81.933594 48.744141 C 77.395858 44.101856 72.993221 39.317914 68.625 34.53125 C 68.028773 34.18539 67.509459 34.020894 67.052734 34.001953 z M 44.162109 69.654297 C 44.13327 72.333842 43.992477 75.035471 44.005859 77.589844 C 44.029313 75.011184 44.167171 72.311649 44.162109 69.654297 z M 147.83789 69.654297 C 147.83283 72.311649 147.97069 75.011184 147.99414 77.589844 C 148.00752 75.035471 147.86673 72.333842 147.83789 69.654297 z " />
  <path
     id="path11616"
     style="color:#000000;opacity:0.2;fill:#ffffff;fill-opacity:1;stroke-width:1.09882;stroke-linecap:square;stroke-linejoin:round;-inkscape-stroke:none"
     d="M 95.994141 79 C 90.669549 79.011761 86.074127 82.50692 85.029297 87.337891 C 84.972819 87.598628 84.999796 87.852622 85.089844 88.082031 C 86.239327 83.384362 90.764267 80.011552 95.994141 80 C 95.997641 79.999989 96.002409 79.999989 96.005859 80 C 101.23573 80.012278 105.76066 83.384387 106.91016 88.082031 C 107.0002 87.852622 107.02718 87.598629 106.9707 87.337891 C 105.92586 82.50692 101.33045 79.0125 96.005859 79 C 96.002409 78.999989 95.997641 78.999989 95.994141 79 z " />
  <path
     id="path11618"
     style="color:#000000;opacity:0.2;fill:#ffffff;stroke-width:0.86399;stroke-linecap:square;stroke-linejoin:round;-inkscape-stroke:none;fill-opacity:1"
     d="M 76.160156 120 A 1.1605554 1.1116276 0 0 0 75.023438 121.33008 C 75.04893 121.4521 75.084342 121.56962 75.115234 121.68945 A 1.1605554 1.1116276 0 0 1 76.160156 121 L 90.839844 121 A 1.1605554 1.1116276 0 0 1 91.894531 121.65625 C 91.922141 121.54725 91.955367 121.44088 91.978516 121.33008 A 1.1605554 1.1116276 0 0 0 90.839844 120 L 76.160156 120 z M 101.16016 120 A 1.1605554 1.1116276 0 0 0 100.02344 121.33008 C 100.04893 121.4521 100.08434 121.56962 100.11523 121.68945 A 1.1605554 1.1116276 0 0 1 101.16016 121 L 115.83984 121 A 1.1605554 1.1116276 0 0 1 116.89453 121.65625 C 116.92214 121.54725 116.95537 121.44088 116.97852 121.33008 A 1.1605554 1.1116276 0 0 0 115.83984 120 L 101.16016 120 z M 88.660156 132 A 1.1605554 1.1116276 0 0 0 87.521484 133.33008 C 87.546847 133.45147 87.58257 133.56827 87.613281 133.6875 A 1.1605554 1.1116276 0 0 1 88.660156 133 L 103.33984 133 A 1.1605554 1.1116276 0 0 1 104.39453 133.65625 C 104.42214 133.54725 104.45537 133.44088 104.47852 133.33008 A 1.1605554 1.1116276 0 0 0 103.33984 132 L 88.660156 132 z " />
</svg>
