<?xml version="1.0" encoding="UTF-8" standalone="no"?>
<svg
   width="192"
   height="192"
   version="1"
   id="svg28"
   sodipodi:docname="apps_to_do_list.svg"
   inkscape:version="1.1.1 (1:1.1+202109281949+c3084ef5ed)"
   xmlns:inkscape="http://www.inkscape.org/namespaces/inkscape"
   xmlns:sodipodi="http://sodipodi.sourceforge.net/DTD/sodipodi-0.dtd"
   xmlns="http://www.w3.org/2000/svg"
   xmlns:svg="http://www.w3.org/2000/svg"
   xmlns:rdf="http://www.w3.org/1999/02/22-rdf-syntax-ns#"
   xmlns:cc="http://creativecommons.org/ns#"
   xmlns:dc="http://purl.org/dc/elements/1.1/">
  <metadata
     id="metadata34">
    <rdf:RDF>
      <cc:Work
         rdf:about="">
        <dc:format>image/svg+xml</dc:format>
        <dc:type
           rdf:resource="http://purl.org/dc/dcmitype/StillImage" />
      </cc:Work>
    </rdf:RDF>
  </metadata>
  <defs
     id="defs32">
    <filter
       inkscape:collect="always"
       style="color-interpolation-filters:sRGB"
       id="filter6495"
       x="-0.048000001"
       y="-0.048000001"
       width="1.096"
       height="1.096">
      <feGaussianBlur
         inkscape:collect="always"
         stdDeviation="3.2"
         id="feGaussianBlur6497" />
    </filter>
    <filter
       inkscape:collect="always"
       style="color-interpolation-filters:sRGB"
       id="filter1997"
       x="-0.068374355"
       y="-0.083047509"
       width="1.1367487"
       height="1.166095">
      <feGaussianBlur
         inkscape:collect="always"
         stdDeviation="2.3950501"
         id="feGaussianBlur1999" />
    </filter>
  </defs>
  <sodipodi:namedview
     pagecolor="#ffffff"
     bordercolor="#666666"
     borderopacity="1"
     objecttolerance="10"
     gridtolerance="10"
     guidetolerance="10"
     inkscape:pageopacity="0"
     inkscape:pageshadow="2"
     inkscape:window-width="1920"
     inkscape:window-height="1019"
     id="namedview30"
     showgrid="false"
     inkscape:zoom="1"
     inkscape:cx="64.5"
     inkscape:cy="74.5"
     inkscape:window-x="0"
     inkscape:window-y="34"
     inkscape:window-maximized="1"
     inkscape:current-layer="svg28"
     inkscape:pagecheckerboard="0">
    <inkscape:grid
       type="xygrid"
       id="grid841" />
  </sodipodi:namedview>
  <rect
     id="rect6457"
     transform="matrix(0,-1,-1,0,0,0)"
     ry="12"
     rx="12"
     y="-176"
     x="-180"
     height="160"
     width="160"
     style="opacity:0.2;fill:#000000;fill-opacity:1;stroke-width:4;filter:url(#filter6495)" />
  <rect
     id="rect2"
     transform="matrix(0,-1,-1,0,0,0)"
     ry="12"
     rx="12"
     y="-176"
     x="-176"
     height="160"
     width="160"
     style="fill:#005fba;fill-opacity:1;stroke-width:4" />
  <path
     id="rect6416"
     style="opacity:0.1;fill:#ffffff;fill-opacity:1;stroke-width:4"
     d="m 28,16 c -6.648,0 -12,5.352 -12,12 v 1 c 0,-6.648 5.352,-12 12,-12 h 136 c 6.648,0 12,5.352 12,12 v -1 c 0,-6.648 -5.352,-12 -12,-12 z" />
  <path
     style="color:#000000;opacity:0.2;fill:#000000;-inkscape-stroke:none;filter:url(#filter1997)"
     d="M 124.50195,64.855159 82.572266,105.92938 68.570312,91.929377 54.429687,106.07 l 27.998047,28 56.070316,-54.925779 z"
     id="path1959" />
  <path
     style="color:#000000;fill:#ffffff;-inkscape-stroke:none"
     d="M 124.50195,61.855469 82.572266,102.92969 68.570312,88.929687 54.429687,103.07031 l 27.998047,28 56.070316,-54.925779 z"
     id="path1036" />
</svg>
