<?xml version="1.0" encoding="UTF-8" standalone="no"?>
<svg
   xmlns:dc="http://purl.org/dc/elements/1.1/"
   xmlns:cc="http://creativecommons.org/ns#"
   xmlns:rdf="http://www.w3.org/1999/02/22-rdf-syntax-ns#"
   xmlns:svg="http://www.w3.org/2000/svg"
   xmlns="http://www.w3.org/2000/svg"
   xmlns:sodipodi="http://sodipodi.sourceforge.net/DTD/sodipodi-0.dtd"
   xmlns:inkscape="http://www.inkscape.org/namespaces/inkscape"
   width="192"
   height="192"
   version="1.1"
   id="svg36"
   sodipodi:docname="apps_gimp.svg"
   inkscape:version="0.92.5 (2060ec1f9f, 2020-04-08)">
  <metadata
     id="metadata42">
    <rdf:RDF>
      <cc:Work
         rdf:about="">
        <dc:format>image/svg+xml</dc:format>
        <dc:type
           rdf:resource="http://purl.org/dc/dcmitype/StillImage" />
        <dc:title></dc:title>
      </cc:Work>
    </rdf:RDF>
  </metadata>
  <defs
     id="defs40">
    <filter
       inkscape:collect="always"
       style="color-interpolation-filters:sRGB"
       id="filter905"
       x="-0.045091604"
       width="1.0901832"
       y="-0.051309445"
       height="1.1026189">
      <feGaussianBlur
         inkscape:collect="always"
         stdDeviation="2.9072217"
         id="feGaussianBlur907" />
    </filter>
    <filter
       inkscape:collect="always"
       style="color-interpolation-filters:sRGB"
       id="filter921"
       x="-0.040228125"
       width="1.0804562"
       y="-0.059493934"
       height="1.1189879">
      <feGaussianBlur
         inkscape:collect="always"
         stdDeviation="1.3409375"
         id="feGaussianBlur923" />
    </filter>
    <filter
       inkscape:collect="always"
       style="color-interpolation-filters:sRGB"
       id="filter941"
       x="-0.050000001"
       width="1.1"
       y="-0.046153845"
       height="1.0923077">
      <feGaussianBlur
         inkscape:collect="always"
         stdDeviation="0.99999998"
         id="feGaussianBlur943" />
    </filter>
    <filter
       inkscape:collect="always"
       style="color-interpolation-filters:sRGB"
       id="filter993"
       x="-0.067636361"
       width="1.1352727"
       y="-0.067636364"
       height="1.1352727">
      <feGaussianBlur
         inkscape:collect="always"
         stdDeviation="1.2400001"
         id="feGaussianBlur995" />
    </filter>
    <filter
       inkscape:collect="always"
       style="color-interpolation-filters:sRGB"
       id="filter997"
       x="-0.067636367"
       width="1.1352727"
       y="-0.067636364"
       height="1.1352727">
      <feGaussianBlur
         inkscape:collect="always"
         stdDeviation="1.2400001"
         id="feGaussianBlur999" />
    </filter>
  </defs>
  <sodipodi:namedview
     pagecolor="#ffffff"
     bordercolor="#666666"
     borderopacity="1"
     objecttolerance="10"
     gridtolerance="10"
     guidetolerance="10"
     inkscape:pageopacity="0"
     inkscape:pageshadow="2"
     inkscape:window-width="1920"
     inkscape:window-height="1018"
     id="namedview38"
     showgrid="false"
     inkscape:zoom="2.45"
     inkscape:cx="24"
     inkscape:cy="89.306122"
     inkscape:window-x="0"
     inkscape:window-y="30"
     inkscape:window-maximized="1"
     inkscape:current-layer="svg36" />
  <path
     inkscape:connector-curvature="0"
     style="opacity:0.2;fill-rule:evenodd;stroke-width:4;filter:url(#filter905)"
     d="M 166.42232,20.053778 C 165.03163,19.832726 163.78224,20.617462 163.03114,21.510956 162.28005,22.404893 161.7589,23.512367 161.30505,24.908093 160.52015,27.323314 157.63764,36.288328 147.24346,45.148996 136.84928,54.010116 118.9249,67.20206 87.858768,68.001388 68.968496,68.222428 55.940672,58.505712 48.408056,43.600136 46.528176,39.88026 43.789476,32.948052 43.789476,37.358936 V 44.178852 L 43.693556,79.475208 43.885356,79.93986 C 43.885356,79.93986 45.57766,83.69908 43.789476,88.76384 42.001268,93.829036 34.949073,101.22053 19.189761,105.95062 L 17.263154,106.52314 17.629294,108.55196 C 18.503418,113.46685 21.987727,118.5042 27.131543,123.66135 32.275357,128.81807 39.162468,134.03535 47.18216,138.75217 63.22154,148.18582 83.764996,155.64059 103.7249,155.98897 123.6848,156.33825 143.21375,149.35828 156.13547,130.02634 169.0572,110.69485 175.35907,73.800516 170.19706,25.748536 H 170.18826 C 170.02416,24.429293 169.73318,23.30281 169.21197,22.315588 168.69075,21.328809 167.813,20.309756 166.42232,20.089588 Z"
     id="path2" />
  <path
     inkscape:connector-curvature="0"
     style="fill:#645b44;fill-rule:evenodd;stroke-width:4"
     d="M 166.42232,16.053779 C 165.03163,15.832727 163.78224,16.617463 163.03114,17.510957 162.28005,18.404894 161.7589,19.512368 161.30505,20.908094 160.52015,23.323315 157.63764,32.288328 147.24346,41.148996 136.84928,50.010116 118.9249,63.20206 87.858768,64.001388 68.968496,64.222428 55.940672,54.505712 48.408056,39.600136 46.528176,35.88026 43.789476,28.948051 43.789476,33.358936 V 40.178852 L 43.693556,75.475208 43.885356,75.93986 C 43.885356,75.93986 45.57766,79.69908 43.789476,84.76384 42.001268,89.829036 34.949073,97.220532 19.189761,101.95062 L 17.263154,102.52314 17.629294,104.55196 C 18.503418,109.46685 21.987727,114.5042 27.131543,119.66135 32.275357,124.81807 39.162468,130.03535 47.18216,134.75217 63.22154,144.18582 83.764996,151.64059 103.7249,151.98897 123.6848,152.33825 143.21375,145.35828 156.13547,126.02634 169.0572,106.69485 175.35907,69.800516 170.19706,21.748536 H 170.18826 C 170.02416,20.429294 169.73318,19.30281 169.21197,18.315589 168.69075,17.32881 167.813,16.309757 166.42232,16.089589 Z"
     id="path4" />
  <path
     style="opacity:0.1;fill:#ffffff;fill-rule:evenodd;stroke-width:4"
     d="M 165.9082,16.017578 C 164.72725,16.031134 163.68846,16.727958 163.03125,17.509766 162.28017,18.403702 161.75854,19.512477 161.30469,20.908203 160.51979,23.323424 157.63638,32.289723 147.24219,41.150391 136.84801,50.011511 118.9255,63.202625 87.859375,64.001953 68.969103,64.222993 55.93887,54.509092 48.40625,39.603516 46.526374,35.88364 43.789063,28.950443 43.789062,33.361328 V 34.361328 C 43.789063,29.950443 46.526374,36.88364 48.40625,40.603516 55.93887,55.509092 68.969103,65.222993 87.859375,65.001953 118.9255,64.202625 136.84801,51.011511 147.24219,42.150391 157.63638,33.289723 160.51979,24.323424 161.30469,21.908203 161.75854,20.512477 162.28017,19.403702 163.03125,18.509766 163.78235,17.616272 165.03119,16.835589 166.42188,17.056641 V 17.087891 C 167.81257,17.308059 168.68972,18.327674 169.21094,19.314453 169.73216,20.301674 170.0234,21.432721 170.1875,22.751953 H 170.19531 C 171.35863,33.581025 171.92894,43.823527 171.98047,53.441406 171.96452,43.533394 171.39921,32.958742 170.19531,21.751953 H 170.1875 C 170.0234,20.432721 169.73216,19.301674 169.21094,18.314453 168.68972,17.327674 167.81257,16.308059 166.42188,16.087891 V 16.056641 C 166.24804,16.029009 166.07691,16.015642 165.9082,16.017578 Z"
     id="path6"
     inkscape:connector-curvature="0"
     sodipodi:nodetypes="ccccccscccccccccccccccccc" />
  <path
     inkscape:connector-curvature="0"
     style="opacity:0.2;fill-rule:evenodd;stroke-width:4;filter:url(#filter997)"
     d="M 61.99592,61.999998 C 56.553348,61.999998 51.083428,63.799158 46.919056,67.500878 42.75468,71.202594 39.999996,76.843834 39.999996,84.003958 39.999996,91.164078 42.75468,96.797398 46.919056,100.49912 51.083428,104.20084 56.553348,106 61.99592,106 67.438496,106 72.908416,104.20084 77.072792,100.49912 81.237168,96.797398 83.999996,91.164078 83.999996,84.003958 83.999996,76.843834 81.237168,71.202594 77.072792,67.500878 72.908416,63.799158 67.438496,61.999998 61.99592,61.999998 Z"
     id="path8" />
  <path
     inkscape:connector-curvature="0"
     style="opacity:0.2;fill-rule:evenodd;stroke-width:4;filter:url(#filter993)"
     d="M 97.99592,61.999998 C 92.553348,61.999998 87.083428,63.799158 82.919056,67.500878 78.75468,71.202594 75.999996,76.843834 75.999996,84.003958 75.999996,91.164078 78.75468,96.797398 82.919056,100.49912 87.083428,104.20084 92.553348,106 97.99592,106 103.4385,106 108.90842,104.20084 113.07279,100.49912 117.23717,96.797398 120,91.164078 120,84.003958 120,76.843834 117.23717,71.202594 113.07279,67.500878 108.90842,63.799158 103.4385,61.999998 97.99592,61.999998 Z"
     id="path10" />
  <path
     inkscape:connector-curvature="0"
     style="fill:#ffffff;fill-rule:evenodd;stroke-width:4"
     d="M 61.99592,60.001388 C 56.553348,60.001388 51.083428,61.800548 46.919056,65.502268 42.75468,69.203984 39.999996,74.845224 39.999996,82.005348 39.999996,89.165468 42.75468,94.798788 46.919056,98.500508 51.083428,102.20223 56.553348,104.00139 61.99592,104.00139 67.438496,104.00139 72.908416,102.20223 77.072792,98.500508 81.237168,94.798788 83.999996,89.165468 83.999996,82.005348 83.999996,74.845224 81.237168,69.203984 77.072792,65.502268 72.908416,61.800548 67.438496,60.001388 61.99592,60.001388 Z"
     id="path12" />
  <path
     inkscape:connector-curvature="0"
     style="fill:#3f3f3f;fill-rule:evenodd;stroke-width:4"
     d="M 65.999996,76.001392 C 63.549632,76.001392 61.072444,76.811392 59.164056,78.507792 57.255676,80.204192 55.999996,82.816992 55.999996,86.001392 55.999996,89.185792 57.255676,91.798592 59.164056,93.494992 61.072444,95.191392 63.549632,96.001388 65.999996,96.001388 68.45036,96.001388 70.927548,95.191392 72.835932,93.494992 74.744316,91.798592 75.999996,89.185792 75.999996,86.001392 75.999996,82.816992 74.744316,80.204192 72.835932,78.507792 70.927548,76.811392 68.45036,76.001392 65.999996,76.001392 Z"
     id="path14" />
  <path
     inkscape:connector-curvature="0"
     style="opacity:0.3;fill-rule:evenodd;stroke-width:4"
     d="M 60,123.99472 C 68.57142,123.99472 76.385752,124.42414 83.473652,123.99472 95.248152,123.26824 105.59805,121.98881 110.8307,117.96698 108.61734,115.12143 108,112 108,112 108,112 114.6579,114.71681 118.11639,119.16045 121.56498,123.5917 116.90252,126.3217 116,131.99121 113.9908,127.0118 112.7349,125.14422 112.22717,123.16549 108.57551,128.19048 102.28576,131.79449 93.825992,131.99121 84.821152,132.19909 73.357656,128.69746 60.000004,124.00272 Z"
     id="path16" />
  <path
     inkscape:connector-curvature="0"
     style="opacity:0.1;fill-rule:evenodd;stroke-width:4;filter:url(#filter941)"
     d="M 21.895873,74.001 C 20.830936,74.001 19.786607,74.066 18.77147,74.22632 16.064438,74.650988 13.558057,75.668456 11.397207,77.211988 2.753807,83.38656 0.47748264,97.3802 11.153635,112.03381 21.829792,126.68785 35.954785,128.96198 44.598184,122.78741 53.241584,116.61284 55.526312,102.6192 44.850144,87.965592 37.843924,78.349052 29.350424,74.06642 21.89587,74.001852 Z"
     id="path18" />
  <path
     inkscape:connector-curvature="0"
     style="fill:#3f3f3f;fill-rule:evenodd;stroke-width:4"
     d="M 21.895873,72.001388 C 20.830936,72.001388 19.786607,72.066388 18.77147,72.226708 16.064438,72.651376 13.558057,73.668844 11.397207,75.212376 2.753807,81.386948 0.47748264,95.380588 11.153635,110.0342 21.829792,124.68824 35.954785,126.96237 44.598184,120.7878 53.241584,114.61323 55.526312,100.61959 44.850144,85.96598 37.843924,76.34944 29.350424,72.066808 21.89587,72.00224 Z"
     id="path20" />
  <path
     inkscape:connector-curvature="0"
     style="fill:#ffffff;fill-rule:evenodd;stroke-width:4"
     d="M 97.99592,60.001388 C 92.553348,60.001388 87.083428,61.800548 82.919056,65.502268 78.75468,69.203984 75.999996,74.845224 75.999996,82.005348 75.999996,89.165468 78.75468,94.798788 82.919056,98.500508 87.083428,102.20223 92.553348,104.00139 97.99592,104.00139 103.4385,104.00139 108.90842,102.20223 113.07279,98.500508 117.23717,94.798788 120,89.165468 120,82.005348 120,74.845224 117.23717,69.203984 113.07279,65.502268 108.90842,61.800548 103.4385,60.001388 97.99592,60.001388 Z"
     id="path22" />
  <path
     inkscape:connector-curvature="0"
     style="fill:#3f3f3f;fill-rule:evenodd;stroke-width:4"
     d="M 102,76.001392 C 99.549632,76.001392 97.072444,76.811392 95.164056,78.507792 93.255676,80.204192 91.999996,82.816992 91.999996,86.001392 91.999996,89.185792 93.255676,91.798592 95.164056,93.494992 97.072444,95.191392 99.549632,96.001388 102,96.001388 104.45036,96.001388 106.92755,95.191392 108.83593,93.494992 110.74432,91.798592 112,89.185792 112,86.001392 112,82.816992 110.74432,80.204192 108.83593,78.507792 106.92755,76.811392 104.45036,76.001392 102,76.001392 Z"
     id="path24" />
  <path
     style="opacity:0.1;fill:#ffffff;fill-rule:evenodd;stroke-width:4"
     d="M 21.898438 72.001953 C 20.8335 72.001953 19.788574 72.068196 18.773438 72.228516 C 16.066406 72.653184 13.559288 73.669359 11.398438 75.212891 C 6.6484074 78.606162 3.8438201 84.371578 4.0351562 91.300781 C 4.1284122 84.819425 6.8796235 79.440988 11.398438 76.212891 C 13.559288 74.669359 16.066406 73.653184 18.773438 73.228516 C 19.788574 73.068196 20.8335 73.001953 21.898438 73.001953 C 29.352992 73.066521 37.845343 77.346351 44.851562 86.962891 C 49.672408 93.579762 51.828576 100.05354 51.966797 105.74023 C 52.0715 99.818162 49.957829 92.971518 44.851562 85.962891 C 37.845343 76.346351 29.352992 72.066521 21.898438 72.001953 z "
     id="path26" />
  <path
     inkscape:connector-curvature="0"
     style="opacity:0.2;stroke-width:4;filter:url(#filter921)"
     d="M 112.05469,123.906 108,126.13256 C 108,126.13256 124.94028,141.1012 140.16406,148.49194 139.97182,149.60461 139.8993,150.73331 139.99998,152.07787 L 142.79686,151.60131 C 142.79686,151.60131 152.8354,154.50441 160.24998,156.76537 159.19732,161.39514 161.59714,167.0956 167.8203,169.37475 178.27697,173.20437 188,177.99975 188,177.99975 183.01206,161.79342 181.24607,148.92503 168.21094,150.07006 167.72011,150.11318 167.2683,150.2127 166.82031,150.31226 L 148,140.67944 V 137.99975 L 146.07031,139.27319 C 145.71487,139.46775 145.38397,139.70759 145.05469,139.95287 130.96745,131.44422 112.05469,123.906 112.05469,123.906 Z"
     id="path28" />
  <path
     inkscape:connector-curvature="0"
     style="fill:#ff9a0c;stroke-width:4"
     d="M 147.8711,149.60175 151.57667,142.22225 C 137.79135,132.13691 112.05594,121.90288 112.05594,121.90288 L 108.0009,124.13202 C 108.0009,124.13202 131.36693,144.85616 147.8711,149.60175 Z"
     id="path30" />
  <path
     inkscape:connector-curvature="0"
     style="fill:#8a8a8a;stroke-width:4"
     d="M 148,136.00014 146.06771,137.27088 C 144.27797,138.25052 142.82596,139.91557 141.64821,141.84125 140.30054,145.0069 139.76836,146.98652 140,150.07945 L 142.8,149.6 C 142.8,149.6 157.4197,153.79415 164.34049,156 L 165.15005,154.44044 168,148.92424 148,138.67849 Z"
     id="path32" />
  <path
     inkscape:connector-curvature="0"
     style="fill:#3f3f3f;stroke-width:4"
     d="M 188,176 C 183.01206,159.79367 181.24294,146.92588 168.20781,148.07092 157.7033,148.99366 156.96789,163.40026 167.82273,167.37571 178.27938,171.20533 187.99999,176 187.99999,176 Z"
     id="path34" />
</svg>
