<?xml version="1.0" encoding="UTF-8" standalone="no"?>
<svg
   width="192"
   height="192"
   version="1.1"
   id="svg44"
   sodipodi:docname="apps_amazon_fire_tv.svg"
   inkscape:version="1.1.1 (1:1.1+202109281949+c3084ef5ed)"
   xmlns:inkscape="http://www.inkscape.org/namespaces/inkscape"
   xmlns:sodipodi="http://sodipodi.sourceforge.net/DTD/sodipodi-0.dtd"
   xmlns="http://www.w3.org/2000/svg"
   xmlns:svg="http://www.w3.org/2000/svg">
  <defs
     id="defs48">
    <filter
       inkscape:collect="always"
       style="color-interpolation-filters:sRGB"
       id="filter1624"
       x="-0.044210526"
       y="-0.052499999"
       width="1.0884211"
       height="1.105">
      <feGaussianBlur
         inkscape:collect="always"
         stdDeviation="2.8"
         id="feGaussianBlur1626" />
    </filter>
    <filter
       inkscape:collect="always"
       style="color-interpolation-filters:sRGB"
       id="filter1629"
       x="-0.048214286"
       y="-0.16875"
       width="1.0964286"
       height="1.3375">
      <feGaussianBlur
         inkscape:collect="always"
         stdDeviation="1.125"
         id="feGaussianBlur1631" />
    </filter>
    <filter
       inkscape:collect="always"
       style="color-interpolation-filters:sRGB"
       id="filter1633"
       x="-0.108"
       y="-0.108"
       width="1.216"
       height="1.216">
      <feGaussianBlur
         inkscape:collect="always"
         stdDeviation="0.9"
         id="feGaussianBlur1635" />
    </filter>
    <filter
       inkscape:collect="always"
       style="color-interpolation-filters:sRGB"
       id="filter1733"
       x="-0.040307103"
       y="-0.059712993"
       width="1.0806142"
       height="1.119426">
      <feGaussianBlur
         inkscape:collect="always"
         stdDeviation="0.94049908"
         id="feGaussianBlur1735" />
    </filter>
    <filter
       inkscape:collect="always"
       style="color-interpolation-filters:sRGB"
       id="filter1783"
       x="-0.047992385"
       y="-0.048007617"
       width="1.0959848"
       height="1.0960152">
      <feGaussianBlur
         inkscape:collect="always"
         stdDeviation="1.5602476"
         id="feGaussianBlur1785" />
    </filter>
  </defs>
  <sodipodi:namedview
     id="namedview46"
     pagecolor="#ffffff"
     bordercolor="#666666"
     borderopacity="1.0"
     inkscape:pageshadow="2"
     inkscape:pageopacity="0.0"
     inkscape:pagecheckerboard="0"
     showgrid="false"
     inkscape:snap-bbox="true"
     inkscape:snap-bbox-midpoints="true"
     inkscape:zoom="1"
     inkscape:cx="74.5"
     inkscape:cy="92.5"
     inkscape:window-width="1920"
     inkscape:window-height="1019"
     inkscape:window-x="0"
     inkscape:window-y="34"
     inkscape:window-maximized="1"
     inkscape:current-layer="svg44" />
  <path
     id="path1680"
     style="color:#000000;opacity:0.2;fill:#000000;-inkscape-stroke:none;filter:url(#filter1733)"
     d="m 78.400391,24.199219 -4.800782,3.601562 11.28125,15.041016 A 28,10 0 0 0 68,52 28,10 0 0 0 96,62 28,10 0 0 0 124,52 28,10 0 0 0 109.42383,43.224609 l 9.16601,-15.71289 -5.18164,-3.023438 -10.40039,17.830078 A 28,10 0 0 0 96,42 28,10 0 0 0 91.84375,42.123047 Z" />
  <path
     style="opacity:0.2;stroke-width:4;filter:url(#filter1624)"
     d="m 96,52 c 10.36364,0 76,0 76,45.155912 V 134.84408 C 172,180 168.54546,180 96,180 82.18182,180 20.000001,180 20,134.84408 V 97.155912 C 20.000001,52 85.636364,52 96,52 Z"
     id="path2" />
  <path
     style="fill:none;fill-opacity:1;stroke:#ef3544;stroke-width:6;stroke-opacity:1"
     d="M 76,24 94,48"
     id="path4" />
  <path
     style="fill:none;fill-opacity:1;stroke:#ef3544;stroke-width:6;stroke-opacity:1"
     d="m 115.99934,24 -14,24"
     id="path6" />
  <ellipse
     style="fill:#ef3544;fill-opacity:1;stroke-width:4"
     cx="96"
     cy="50"
     rx="28"
     ry="10"
     id="ellipse8" />
  <path
     id="circle10"
     style="opacity:0.2;stroke-width:4;filter:url(#filter1629)"
     d="m 76,18 a 8,8 0 0 0 -8,8 8,8 0 0 0 8,8 8,8 0 0 0 8,-8 8,8 0 0 0 -8,-8 z m 40,0 a 8,8 0 0 0 -8,8 8,8 0 0 0 8,8 8,8 0 0 0 8,-8 8,8 0 0 0 -8,-8 z" />
  <circle
     style="fill:#ef3590;fill-opacity:1;stroke:none;stroke-width:4;stroke-opacity:1"
     cx="76"
     cy="24"
     r="8"
     id="circle12" />
  <path
     style="fill:#ff6223;fill-opacity:1;stroke-width:4"
     d="m 96,48 c 10.36364,0 76,0 76,45.155912 V 130.84408 C 172,176 168.54546,176 96,176 82.18182,176 20.000001,176 20,130.84408 V 93.155912 C 20.000001,48 85.636364,48 96,48 Z"
     id="path14" />
  <circle
     style="opacity:0.2;stroke-width:4;filter:url(#filter1633)"
     cx="154"
     cy="156"
     r="10"
     id="circle16" />
  <circle
     style="fill:#ffffff;stroke-width:4"
     cx="154"
     cy="154"
     r="10"
     id="circle18" />
  <path
     style="opacity:0.3;stroke-width:4"
     d="m 88,64 c 7.636368,0 56,0 56,33.866936 V 126.13306 C 144,160 98.18182,160 88,160 77.818184,160 32,160 32,126.13306 V 97.866936 C 32,64 80.363632,64 88,64 Z"
     id="path20" />
  <circle
     style="fill:#ef3590;fill-opacity:1;stroke:none;stroke-width:4;stroke-opacity:1"
     cx="116"
     cy="24"
     r="8"
     id="circle36" />
  <path
     id="path38"
     style="opacity:0.2;fill:#ffffff;stroke-width:4"
     d="m 76,16 a 8,8 0 0 0 -8,8 8,8 0 0 0 0.04102,0.640625 A 8,8 0 0 1 76,17 8,8 0 0 1 83.974609,24.373047 8,8 0 0 0 84,24 8,8 0 0 0 76,16 Z m 40,0 a 8,8 0 0 0 -8,8 8,8 0 0 0 0.041,0.640625 A 8,8 0 0 1 116,17 8,8 0 0 1 123.97461,24.373047 8,8 0 0 0 124,24 8,8 0 0 0 116,16 Z" />
  <path
     id="path40"
     style="opacity:0.2;fill:#ffffff;stroke-width:4"
     d="m 96,48 c -10.363636,0 -75.999999,3.38e-4 -76,45.15625 v 1 C 20.000001,49.000338 85.636364,49 96,49 c 10.36364,0 76,3.38e-4 76,45.15625 v -1 C 172,48.000338 106.36364,48 96,48 Z" />
  <path
     style="opacity:0.2;fill:#000000;fill-rule:evenodd;filter:url(#filter1783)"
     d="m 88.140546,75 c -9.5403,0 -20.208199,3.431223 -22.458979,15.762492 -0.222076,1.311454 0.680716,2.003104 1.5,2.201172 l 9.740234,1.089844 c 0.915317,-0.04802 1.570986,-0.975499 1.748047,-1.923828 C 79.501136,87.874207 82.913697,86 86.746016,86 c 2.06472,0 4.7086,0.917846 5.93903,2.853516 1.39548,2.157747 1.31488,5.110557 1.31488,7.607422 v 1.359374 c -5.82501,0.69324 -13.854038,1.137617 -19.294922,3.646488 -6.281174,2.83898 -10.701172,8.65087 -10.701172,17.17382 0,10.91478 6.584232,16.36524 15.035156,16.36524 7.151478,0 11.042828,-1.7595 16.552738,-7.64453 1.83963,2.76695 2.43943,4.11572 5.767584,7.01172 0.74438,0.40792 1.69675,0.36331 2.35351,-0.24414 l 0.0352,0.0371 c 2.00469,-1.86365 5.64845,-5.16799 7.70117,-6.97461 0.81028,-0.70525 0.67062,-1.8517 0.0254,-2.79102 -1.84268,-2.66191 -3.47466,-4.81747 -3.47466,-9.74218 V 98.294922 c 0,-6.929398 0.15431,-13.294755 -4.73438,-18.066406 C 99.418216,76.360177 93.029236,75 88.140546,75 Z m 5.86138,31.00002 v 2.5117 l -0.004,-0.002 c 0,4.10242 0.004,7.01425 -1.97704,10.6485 -1.59356,2.95302 -4.42754,4.77149 -7.25152,4.77149 -3.856334,0 -5.7934,-3.06985 -5.7934,-7.60742 0,-8.9551 7.76935,-10.32231 15.02587,-10.32231 z m 27.296834,28.98826 c -2.73094,0.039 -5.95769,0.66913 -8.39453,2.42774 -0.76226,0.54018 -0.63236,1.28668 0.21093,1.18164 2.74295,-0.34211 8.87742,-1.09165 9.9668,0.33984 1.10138,1.4285 -1.22184,7.3406 -2.24219,9.97852 -0.31511,0.79827 0.3544,1.12484 1.05664,0.51562 4.59459,-3.92535 5.76746,-12.15639 4.82813,-13.3418 -0.46216,-0.59121 -2.69783,-1.14057 -5.42578,-1.10156 z m -71.734381,1.58008 c -0.567196,0.078 -0.817909,0.78464 -0.220703,1.33984 C 59.529202,147.34046 72.992249,153 87.937426,153 c 10.66569,0 23.038984,-3.44829 31.585944,-9.89453 l 0.006,-0.0117 c 1.41949,-1.08037 0.20836,-2.67199 -1.24414,-2.05078 -9.56731,4.17445 -19.989954,6.17773 -29.449224,6.17773 -14.032862,0 -27.629482,-3.93791 -38.613284,-10.49218 -0.240083,-0.14405 -0.466136,-0.18417 -0.658203,-0.16016 z"
     id="path1745" />
  <path
     style="fill:#ffffff;fill-rule:evenodd"
     d="m 88.140546,73 c -9.5403,0 -20.208199,3.431223 -22.458979,15.762492 -0.222076,1.311454 0.680716,2.003104 1.5,2.201172 l 9.740234,1.089844 c 0.915317,-0.04802 1.570986,-0.975499 1.748047,-1.923828 C 79.501136,85.874207 82.913697,84 86.746016,84 c 2.06472,0 4.7086,0.917846 5.93903,2.853516 1.39548,2.157747 1.31488,5.110557 1.31488,7.607422 v 1.359374 c -5.82501,0.69324 -13.854038,1.137617 -19.294922,3.646485 -6.281174,2.838983 -10.701172,8.650873 -10.701172,17.173823 0,10.91478 6.584232,16.36524 15.035156,16.36524 7.151478,0 11.042828,-1.7595 16.552738,-7.64453 1.83963,2.76695 2.43943,4.11572 5.767584,7.01172 0.74438,0.40792 1.69675,0.36331 2.35351,-0.24414 l 0.0352,0.0371 c 2.00469,-1.86365 5.64845,-5.16799 7.70117,-6.97461 0.81028,-0.70525 0.67062,-1.8517 0.0254,-2.79102 -1.84268,-2.66191 -3.47466,-4.81747 -3.47466,-9.74218 V 96.294922 c 0,-6.929398 0.15431,-13.294755 -4.73438,-18.066406 C 99.418216,74.360177 93.029236,73 88.140546,73 Z m 5.86138,31.00002 v 2.5117 l -0.004,-0.002 c 0,4.10242 0.004,7.01425 -1.97704,10.6485 -1.59356,2.95302 -4.42754,4.77149 -7.25152,4.77149 -3.856334,0 -5.7934,-3.06985 -5.7934,-7.60742 0,-8.9551 7.76935,-10.32231 15.02587,-10.32231 z m 27.296834,28.98826 c -2.73094,0.039 -5.95769,0.66913 -8.39453,2.42774 -0.76226,0.54018 -0.63236,1.28668 0.21093,1.18164 2.74295,-0.34211 8.87742,-1.09165 9.9668,0.33984 1.10138,1.4285 -1.22184,7.3406 -2.24219,9.97852 -0.31511,0.79827 0.3544,1.12484 1.05664,0.51562 4.59459,-3.92535 5.76746,-12.15639 4.82813,-13.3418 -0.46216,-0.59121 -2.69783,-1.14057 -5.42578,-1.10156 z m -71.734381,1.58008 c -0.567196,0.078 -0.817909,0.78464 -0.220703,1.33984 C 59.529202,145.34046 72.992249,151 87.937426,151 c 10.66569,0 23.038984,-3.44829 31.585944,-9.89453 l 0.006,-0.0117 c 1.41949,-1.08037 0.20836,-2.67199 -1.24414,-2.05078 -9.56731,4.17445 -19.989954,6.17773 -29.449224,6.17773 -14.032862,0 -27.629482,-3.93791 -38.613284,-10.49218 -0.240083,-0.14405 -0.466136,-0.18417 -0.658203,-0.16016 z"
     id="path14-3" />
</svg>
