<?xml version="1.0" encoding="UTF-8" standalone="no"?>
<svg
   width="192"
   height="192"
   version="1"
   id="svg14"
   sodipodi:docname="apps_kiwi_browser.svg"
   inkscape:version="1.1.1 (1:1.1+202109281949+c3084ef5ed)"
   xmlns:inkscape="http://www.inkscape.org/namespaces/inkscape"
   xmlns:sodipodi="http://sodipodi.sourceforge.net/DTD/sodipodi-0.dtd"
   xmlns="http://www.w3.org/2000/svg"
   xmlns:svg="http://www.w3.org/2000/svg"
   xmlns:rdf="http://www.w3.org/1999/02/22-rdf-syntax-ns#"
   xmlns:cc="http://creativecommons.org/ns#"
   xmlns:dc="http://purl.org/dc/elements/1.1/">
  <metadata
     id="metadata20">
    <rdf:RDF>
      <cc:Work
         rdf:about="">
        <dc:format>image/svg+xml</dc:format>
        <dc:type
           rdf:resource="http://purl.org/dc/dcmitype/StillImage" />
      </cc:Work>
    </rdf:RDF>
  </metadata>
  <defs
     id="defs18">
    <filter
       inkscape:collect="always"
       style="color-interpolation-filters:sRGB"
       id="filter850"
       x="-0.048000001"
       width="1.096"
       y="-0.048000001"
       height="1.096">
      <feGaussianBlur
         inkscape:collect="always"
         stdDeviation="3.2"
         id="feGaussianBlur852" />
    </filter>
    <filter
       inkscape:collect="always"
       style="color-interpolation-filters:sRGB"
       id="filter15814"
       x="-0.10629385"
       y="-0.12198824"
       width="1.2125877"
       height="1.2439765">
      <feGaussianBlur
         inkscape:collect="always"
         stdDeviation="5.1235277"
         id="feGaussianBlur15816" />
    </filter>
  </defs>
  <sodipodi:namedview
     pagecolor="#ffffff"
     bordercolor="#666666"
     borderopacity="1"
     objecttolerance="10"
     gridtolerance="10"
     guidetolerance="10"
     inkscape:pageopacity="0"
     inkscape:pageshadow="2"
     inkscape:window-width="1920"
     inkscape:window-height="1016"
     id="namedview16"
     showgrid="false"
     inkscape:zoom="1"
     inkscape:cx="106.5"
     inkscape:cy="108.5"
     inkscape:window-x="0"
     inkscape:window-y="32"
     inkscape:window-maximized="1"
     inkscape:current-layer="svg14"
     inkscape:pagecheckerboard="0"
     inkscape:snap-bbox="true"
     inkscape:snap-bbox-midpoints="true"
     inkscape:snap-global="true">
    <inkscape:grid
       type="xygrid"
       id="grid5193" />
  </sodipodi:namedview>
  <circle
     style="opacity:0.2;fill:#000000;stroke-width:4;filter:url(#filter850)"
     cx="96"
     cy="100"
     r="80"
     id="circle832" />
  <circle
     id="circle4"
     r="80"
     cy="96"
     cx="96"
     style="fill:#36d3cc;stroke-width:4;fill-opacity:1" />
  <path
     id="path11574"
     style="opacity:0.1;fill:#000000;fill-opacity:1;stroke-width:8.19128;stroke-linecap:round;stroke-linejoin:round"
     d="m 96,39 c -31.48023,0 -57,25.519769 -57,57 0,31.48023 25.51977,57 57,57 31.48023,0 57,-25.51977 57,-57 0,-31.480231 -25.51977,-57 -57,-57 z m -4.167383,7.774415 c 0.164524,0.0016 0.317803,0.0076 0.460156,0.01855 2.437801,0.187844 3.417207,4.962978 2.105957,7.02666 -1.094563,1.722655 -4.190565,0.07236 -6.05625,0.899903 -2.211153,0.980777 -3.239444,4.11953 -5.609082,4.605272 -3.07145,0.629605 -5.911512,-2.948114 -9.030566,-2.629198 -2.47633,0.253198 -4.2051,4.174855 -6.599903,3.495703 -1.103591,-0.312973 -2.543462,-2.147787 -1.742284,-2.96875 5.93853,-6.085181 21.371737,-10.497375 26.471972,-10.448143 z m 26.230763,7.755858 c 1.36798,0.02983 2.73487,0.259494 4.02452,0.667969 7.384,2.338766 12.50359,8.798533 16.06835,15.675 4.9779,9.602449 9.0612,23.501341 7.71319,31.249808 -0.21004,1.20726 -2.62973,-0.39378 -3.43077,-1.32109 -0.91934,-1.06426 -0.11736,-2.966033 -0.92774,-4.115437 -1.40279,-1.989672 -6.93329,-2.853958 -6.82997,-5.28623 0.14187,-3.33976 -3.24796,-9.390495 -8.79307,-7.004395 -12.35318,5.315671 2.73473,7.524059 5.64248,10.008399 1.81473,1.550478 -2.78872,3.876371 -4.08018,5.883683 -0.90567,1.4077 -1.08999,3.53356 -2.56982,4.31583 -1.15126,0.60858 -2.75356,-0.85661 -3.9002,-0.23935 -1.41955,0.76415 1.77221,5.55604 -2.41025,4.1915 C 99.210844,102.23997 91.16355,87.609163 79.002051,74.936718 74.96357,74.223057 92.724458,71.339201 103.28086,67.206835 c 4.68262,-1.833039 3.97007,-8.479438 8.28467,-11.062304 1.93451,-1.158064 4.21787,-1.66398 6.49785,-1.614258 z"
     sodipodi:nodetypes="ssssssssssssssssssssssssssscsss" />
  <path
     style="opacity:0.2;fill:#ffffff;stroke-width:4"
     d="M 96 16 A 80 80 0 0 0 16 96 A 80 80 0 0 0 16.019531 96.472656 A 80 80 0 0 1 96 17 A 80 80 0 0 1 175.97461 96.513672 A 80 80 0 0 0 176 96 A 80 80 0 0 0 96 16 z "
     id="path6" />
  <path
     style="fill:#38adfa"
     d="m 688.80525,256.99648 c -0.33229,-0.33229 -1.1948,-0.36781 -1.91667,-0.0789 -0.79773,0.31922 -0.56078,0.55618 0.60417,0.60416 1.05416,0.0434 1.64479,-0.19293 1.3125,-0.52522 z"
     id="path1063" />
  <path
     id="path15776"
     style="opacity:0.2;fill:#000000;stroke-width:0.312499;filter:url(#filter15814)"
     d="m 146.65234,65.974609 c -7.50813,0.01829 -10.99658,0.390904 -17.79492,1.902344 -7.44143,1.654416 -16.63635,4.791346 -22.64648,8.166016 -6.260731,3.51534 -6.274176,3.520759 -8.876956,3.505859 -2.892076,-0.01653 -3.68398,-0.294719 -7.71289,-2.599609 -6.0459,-3.45879 -11.12171,-4.889385 -17.38086,-4.896485 -1.99702,-0.0023 -4.832441,0.204878 -6.300781,0.460938 -10.19878,1.77852 -19.445409,8.747462 -24.103515,18.142578 -2.375293,4.790821 -3.850784,9.97232 -3.835938,15.11914 0.02091,7.24819 2.687031,14.42755 7.251953,20.34961 1.126136,1.46093 2.464983,3.20625 2.976563,3.87891 1.97807,2.6009 2.334982,6.0012 1.070312,10.20703 -1.918812,6.38126 3.343591,11.38252 3.353738,18.35867 14.085188,11.21187 25.770638,7.64999 43.773267,7.713 21.018327,-0.0755 32.298107,1.46234 47.213587,-13.34659 -2.7976,-14.72376 -0.57784,-25.09465 -10.2527,-34.80711 -6.68113,-6.7071 -13.52582,-11.03282 -22.03516,-13.92383 -1.45486,-0.49428 -3.15957,-1.23968 -3.78906,-1.65625 -1.5511,-1.02648 -2.78516,-3.529739 -2.78516,-5.654299 0,-3.05689 1.28646,-4.495832 9.58204,-10.726562 10.8569,-8.15453 22.82577,-13.966189 35.57421,-17.863281 3.09412,-0.945847 3.75,-1.25028 3.75,-1.746094 0,-0.575578 -0.29635,-0.600395 -7.03125,-0.583985 z M 79,91 c 2.209139,0 4,1.790861 4,4 0,2.209139 -1.790861,4 -4,4 -2.209139,0 -4,-1.790861 -4,-4 0,-2.209139 1.790861,-4 4,-4 z"
     sodipodi:nodetypes="sscsscsssssscccsssssssssssss" />
  <path
     id="path1026"
     style="fill:#ffffff;stroke-width:0.312499"
     d="M 146.65234 63.974609 C 139.14421 63.992899 135.65576 64.365513 128.85742 65.876953 C 121.41599 67.531369 112.22107 70.668299 106.21094 74.042969 C 99.950209 77.558309 99.936764 77.563728 97.333984 77.548828 C 94.441908 77.532298 93.650004 77.254109 89.621094 74.949219 C 83.575194 71.490429 78.499384 70.059834 72.240234 70.052734 C 70.243214 70.050434 67.407793 70.257612 65.939453 70.513672 C 55.740673 72.292192 46.494044 79.261134 41.835938 88.65625 C 39.460645 93.447071 37.985154 98.628573 38 103.77539 C 38.02091 111.02358 40.687031 118.20294 45.251953 124.125 C 46.378089 125.58593 47.716936 127.33125 48.228516 128.00391 C 50.206586 130.60481 50.563498 134.00511 49.298828 138.21094 C 47.380016 144.5922 46.446884 151.61565 46.457031 158.5918 C 60.542219 169.80367 77.997371 175.93699 96 176 C 117.01833 175.9245 137.16264 167.58041 152.07812 152.77148 C 149.28052 138.04772 143.06158 125.84137 133.38672 116.12891 C 126.70559 109.42181 119.8609 105.09609 111.35156 102.20508 C 109.8967 101.7108 108.19199 100.9654 107.5625 100.54883 C 106.0114 99.522354 104.77734 97.019091 104.77734 94.894531 C 104.77734 91.837641 106.0638 90.398699 114.35938 84.167969 C 125.21628 76.013439 137.18515 70.20178 149.93359 66.304688 C 153.02771 65.358841 153.68359 65.054408 153.68359 64.558594 C 153.68359 63.983016 153.38724 63.958199 146.65234 63.974609 z M 79 89 A 4 4 0 0 1 83 93 A 4 4 0 0 1 79 97 A 4 4 0 0 1 75 93 A 4 4 0 0 1 79 89 z " />
</svg>
