<?xml version="1.0" encoding="UTF-8" standalone="no"?>
<svg
   width="192"
   height="192"
   version="1.1"
   id="svg12"
   sodipodi:docname="apps_rif_is_fun.svg"
   inkscape:version="1.1-rc (1:1.1+rc+202105232036+f4db50c7c1)"
   xmlns:inkscape="http://www.inkscape.org/namespaces/inkscape"
   xmlns:sodipodi="http://sodipodi.sourceforge.net/DTD/sodipodi-0.dtd"
   xmlns="http://www.w3.org/2000/svg"
   xmlns:svg="http://www.w3.org/2000/svg">
  <defs
     id="defs16">
    <filter
       inkscape:collect="always"
       style="color-interpolation-filters:sRGB"
       id="filter845"
       x="-0.048000001"
       y="-0.048000001"
       width="1.096"
       height="1.096">
      <feGaussianBlur
         inkscape:collect="always"
         stdDeviation="3.2"
         id="feGaussianBlur847" />
    </filter>
    <filter
       inkscape:collect="always"
       style="color-interpolation-filters:sRGB"
       id="filter16818"
       x="-0.045446808"
       y="-0.050857142"
       width="1.0908936"
       height="1.1017143">
      <feGaussianBlur
         inkscape:collect="always"
         stdDeviation="1.78"
         id="feGaussianBlur16820" />
    </filter>
  </defs>
  <sodipodi:namedview
     id="namedview14"
     pagecolor="#ffffff"
     bordercolor="#666666"
     borderopacity="1.0"
     inkscape:pageshadow="2"
     inkscape:pageopacity="0.0"
     inkscape:pagecheckerboard="0"
     showgrid="false"
     inkscape:zoom="1"
     inkscape:cx="140.5"
     inkscape:cy="122.5"
     inkscape:window-width="1920"
     inkscape:window-height="1019"
     inkscape:window-x="0"
     inkscape:window-y="34"
     inkscape:window-maximized="1"
     inkscape:current-layer="svg12">
    <inkscape:grid
       type="xygrid"
       id="grid12868" />
  </sodipodi:namedview>
  <circle
     style="opacity:0.2;stroke-width:4;filter:url(#filter845)"
     cx="96"
     cy="100"
     r="80"
     id="circle2" />
  <circle
     style="fill:#69baf1;fill-opacity:1;stroke-width:4"
     cx="96"
     cy="96"
     r="80"
     id="circle4" />
  <path
     id="path6"
     style="opacity:0.2;fill:#ffffff;stroke-width:4"
     d="M 96,15.998047 A 79.999996,79.99496 0 0 0 16,95.994141 79.999996,79.99496 0 0 0 16.023438,96.632812 79.999996,79.99496 0 0 1 96,17 79.999996,79.99496 0 0 1 175.98438,96.292969 79.999996,79.99496 0 0 0 176,95.994141 79.999996,79.99496 0 0 0 96,15.998047 Z" />
  <path
     id="path16780"
     style="font-weight:bold;font-size:101.708px;line-height:1.25;-inkscape-font-specification:'sans-serif Bold';opacity:0.2;fill:#000000;stroke-width:2.30233;filter:url(#filter16818)"
     d="M 91,56 A 11,11 0 0 0 80,67 11,11 0 0 0 91,78 11,11 0 0 0 102,67 11,11 0 0 0 91,56 Z m 45.73828,6.986328 C 128.76221,63.020826 116,66.174488 116,86 h -7 v 11 h 7 v 43 h 15 V 97 h 10 V 86 h -10 c 0,-12.357413 5.34416,-10.84375 12,-10.84375 V 63.599609 c 0,0 -2.63623,-0.628962 -6.26172,-0.613281 z M 75.634766,86 c -3.201879,0 -6.025632,0.969663 -8.470704,2.912109 C 65.987303,89.846967 64.934039,90.875404 64,91.990234 V 86.970703 H 58.867188 49 V 101.69727 140 H 64 V 113 C 64,104.80922 63.517437,98.59429 79,99.927734 V 86.388672 C 78.476057,86.259174 78.777537,86.162407 77.904297,86.097656 77.031058,86.032905 76.275141,86 75.634766,86 Z M 86,86 v 54 h 15 V 86 Z" />
  <path
     id="path12609"
     style="font-weight:bold;font-size:101.708px;line-height:1.25;-inkscape-font-specification:'sans-serif Bold';fill:#ffffff;stroke-width:2.30233"
     d="M 91,54 A 11,11 0 0 0 80,65 11,11 0 0 0 91,76 11,11 0 0 0 102,65 11,11 0 0 0 91,54 Z m 45.73828,6.986328 C 128.76221,61.020826 116,64.174488 116,84 h -7 v 11 h 7 v 43 h 15 V 95 h 10 V 84 h -10 c 0,-12.357413 5.34416,-10.84375 12,-10.84375 V 61.599609 c 0,0 -2.63623,-0.628962 -6.26172,-0.613281 z M 75.634766,84 c -3.201879,0 -6.025632,0.969663 -8.470704,2.912109 C 65.987303,87.846967 64.934039,88.875404 64,89.990234 V 84.970703 H 58.867188 49 V 99.697266 138 H 64 V 111 C 64,102.80922 63.517437,96.59429 79,97.927734 V 84.388672 C 78.476057,84.259174 78.777537,84.162407 77.904297,84.097656 77.031058,84.032905 76.275141,84 75.634766,84 Z M 86,84 v 54 h 15 V 84 Z" />
  <circle
     style="fill:#ff4500;fill-opacity:1;stroke:none;stroke-width:2.72155;stroke-linecap:round;stroke-linejoin:round;stop-color:#000000"
     id="path13201"
     cx="93.5"
     cy="67.5"
     r="7.5" />
</svg>
