<svg xmlns="http://www.w3.org/2000/svg" width="48" height="48" version="1">
 <g>
  <rect style="opacity:0.2" width="40" height="40" x="-44.5" y="-44" rx="2" ry="2" transform="matrix(0,-1,-1,0,0,0)"/>
  <rect style="fill:#2c64af" width="40" height="40" x="-44" y="-44" rx="2" ry="2" transform="matrix(0,-1,-1,0,0,0)"/>
  <path style="opacity:0.1;fill:#ffffff" d="M 6,4 C 4.892,4 4,4.892 4,6 v 0.5 c 0,-1.108 0.892,-2 2,-2 h 36 c 1.108,0 2,0.892 2,2 V 6 C 44,4.892 43.108,4 42,4 Z"/>
  <circle style="opacity:0.2" cx="24" cy="24.5" r="17"/>
  <circle style="fill:#ffd201" cx="24" cy="24" r="17"/>
  <circle style="fill:#f98a15" cx="25" cy="24" r="14"/>
  <circle style="fill:#c5370d" cx="25.636" cy="22.787" r="11"/>
  <rect style="opacity:0.2" width="2" height="7" x="23" y="16.5" ry="1"/>
  <rect style="fill:#ffffff" width="2" height="7" x="23" y="16" ry="1"/>
  <rect style="opacity:0.2" width="2" height="7" x="8.48" y="-41.25" ry="1" transform="rotate(120)"/>
  <rect style="fill:#ffffff" width="2" height="7" x="8.05" y="-41" ry="1" transform="rotate(120)"/>
  <path style="opacity:0.2;fill:#ffffff" d="M 24,7 A 17,17 0 0 0 7,24 17,17 0 0 0 7.0097656,24.291016 17,17 0 0 1 24,7.5 17,17 0 0 1 40.990234,24.208984 17,17 0 0 0 41,24 17,17 0 0 0 24,7 Z"/>
 </g>
</svg>
