<?xml version="1.0" encoding="UTF-8" standalone="no"?>
<svg
   width="192"
   height="192"
   version="1"
   id="svg12"
   sodipodi:docname="apps_maple.svg"
   inkscape:version="1.1-rc (1:1.1+rc+202105232036+f4db50c7c1)"
   xmlns:inkscape="http://www.inkscape.org/namespaces/inkscape"
   xmlns:sodipodi="http://sodipodi.sourceforge.net/DTD/sodipodi-0.dtd"
   xmlns="http://www.w3.org/2000/svg"
   xmlns:svg="http://www.w3.org/2000/svg">
  <defs
     id="defs16">
    <filter
       inkscape:collect="always"
       style="color-interpolation-filters:sRGB"
       id="filter845"
       x="-0.048000001"
       y="-0.048000001"
       width="1.096"
       height="1.096">
      <feGaussianBlur
         inkscape:collect="always"
         stdDeviation="3.2"
         id="feGaussianBlur847" />
    </filter>
    <filter
       inkscape:collect="always"
       style="color-interpolation-filters:sRGB"
       id="filter867"
       x="-0.048000001"
       y="-0.048000001"
       width="1.096"
       height="1.096">
      <feGaussianBlur
         inkscape:collect="always"
         stdDeviation="3.2"
         id="feGaussianBlur869" />
    </filter>
  </defs>
  <sodipodi:namedview
     id="namedview14"
     pagecolor="#ffffff"
     bordercolor="#666666"
     borderopacity="1.0"
     inkscape:pageshadow="2"
     inkscape:pageopacity="0.0"
     inkscape:pagecheckerboard="0"
     showgrid="false"
     inkscape:zoom="1.88"
     inkscape:cx="24.202128"
     inkscape:cy="24.202128"
     inkscape:window-width="1920"
     inkscape:window-height="1019"
     inkscape:window-x="0"
     inkscape:window-y="34"
     inkscape:window-maximized="1"
     inkscape:current-layer="svg12" />
  <circle
     style="opacity:0.2;stroke-width:4;filter:url(#filter845)"
     cx="96"
     cy="100"
     r="80"
     id="circle2" />
  <circle
     style="fill:#e4e4e4;stroke-width:4"
     cx="96"
     cy="96"
     r="80"
     id="circle4" />
  <path
     id="path6"
     style="opacity:0.2;fill:#ffffff;stroke-width:4"
     d="M 96 16 A 80 80 0 0 0 16 96 A 80 80 0 0 0 16.023438 96.638672 A 80 80 0 0 1 96 17 A 80 80 0 0 1 175.98438 96.302734 A 80 80 0 0 0 176 96 A 80 80 0 0 0 96 16 z " />
  <path
     style="opacity:0.2;stroke-width:4;filter:url(#filter867)"
     d="m 56.23778,177.33729 c -0.735932,-8.29873 5.63508,-15.45262 8.151692,-23.12956 2.12276,-6.31459 9.94608,-15.30821 1.7054,-20.3325 -8.577288,-5.64417 -22.931864,-5.32897 -28.847688,-8.04854 -4.152748,-7.15393 8.881296,-10.29301 11.134764,-16.32381 0.934772,-8.21459 -9.739392,-8.1554 -15.040576,-10.952609 -4.23514,-1.044786 -11.497184,-5.449526 -3.299236,-6.707998 10.091612,-4.952808 -2.124532,-14.454972 -5.92444,-19.627316 -2.978272,-4.064588 -14.7314524,-13.9889 -3.040988,-13.927608 9.166724,-1.115664 18.455476,-0.421596 27.614376,-1.418272 6.227972,-1.1023 3.15334,-17.347564 9.971028,-8.042584 6.197496,6.684592 8.33736,18.379784 16.890144,21.440292 7.324576,2.620996 7.941304,-13.529104 9.483076,-20.27442 1.578624,-6.906624 2.425428,-16.532289 7.677024,-17.592401 3.780948,9.344125 12.649954,5.400652 18.093484,-0.0538 C 117.94618,27.510784 124.3865,21.21524 132.44918,18 c 4.62428,5.1975 2.19268,14.554072 3.36994,21.378829 -0.21572,7.211888 -0.25588,22.442072 10.61978,14.31016 9.72922,-3.399292 0.16684,9.030648 -2.13561,12.340396 -5.10306,8.019556 -11.12263,15.480412 -15.77324,23.765768 -3.16327,9.560308 11.98722,6.485768 17.62949,7.893888 4.96365,1.10292 15.4555,-0.845112 17.08566,2.984639 -7.28202,3.51939 -9.78227,12.10797 -2.92666,18.5057 5.07107,4.7324 13.5642,8.33152 15.68146,13.87059 -9.04584,5.53285 -19.92395,2.88513 -29.84944,4.08776 -4.00711,3.12737 2.45602,17.26519 -6.06228,10.65937 -6.75201,-3.06263 -15.12986,-12.88426 -21.87441,-7.07866 -5.95062,5.1222 -0.61544,15.51266 -4.35341,22.13676 -4.27632,-4.12013 -7.69683,-9.78726 -13.0833,-12.99458 -6.30498,-3.57957 -15.036652,-10.81253 -21.488556,-5.32645 -6.249284,5.3138 -7.400536,14.79245 -11.33756,21.98968 -2.660068,4.91177 -4.15472,14.00181 -11.713264,10.81345 z"
     id="path8" />
  <path
     style="fill:#014c71;stroke-width:4"
     d="m 56.23778,175.33729 c -0.735932,-8.29873 5.63508,-15.45262 8.151692,-23.12956 2.12276,-6.31459 9.94608,-15.30821 1.7054,-20.3325 -8.577288,-5.64417 -22.931864,-5.32897 -28.847688,-8.04854 -4.152748,-7.15393 8.881296,-10.29301 11.134764,-16.32381 C 49.31672,99.288288 38.642556,99.347484 33.341372,96.550268 29.106232,95.505484 21.844188,91.100744 30.042136,89.842272 40.133748,84.889464 27.917604,75.3873 24.117696,70.214956 21.139424,66.150368 9.3862436,56.226056 21.076708,56.287348 c 9.166724,-1.115664 18.455476,-0.421596 27.614376,-1.418272 6.227972,-1.1023 3.15334,-17.347565 9.971028,-8.042584 6.197496,6.684592 8.33736,18.379784 16.890144,21.440292 7.324576,2.620996 7.941304,-13.529104 9.483076,-20.27442 1.578624,-6.906624 2.425428,-16.532289 7.677024,-17.592401 3.780948,9.344124 12.649954,5.400652 18.093484,-0.0538 7.14034,-4.83538 13.58066,-11.130924 21.64334,-14.346164 4.62428,5.1975 2.19268,14.554072 3.36994,21.378828 -0.21572,7.211889 -0.25588,22.442073 10.61978,14.310161 9.72922,-3.399292 0.16684,9.030648 -2.13561,12.340396 -5.10306,8.019556 -11.12263,15.480412 -15.77324,23.765768 -3.16327,9.560312 11.98722,6.485768 17.62949,7.893888 4.96365,1.10292 15.4555,-0.845112 17.08566,2.984644 -7.28202,3.519386 -9.78227,12.107966 -2.92666,18.505696 5.07107,4.7324 13.5642,8.33152 15.68146,13.87059 -9.04584,5.53285 -19.92395,2.88513 -29.84944,4.08776 -4.00711,3.12737 2.45602,17.26519 -6.06228,10.65937 -6.75201,-3.06263 -15.12986,-12.88426 -21.87441,-7.07866 -5.95062,5.1222 -0.61544,15.51266 -4.35341,22.13676 -4.27632,-4.12013 -7.69683,-9.78726 -13.0833,-12.99458 -6.30498,-3.57957 -15.036652,-10.81253 -21.488556,-5.32645 -6.249284,5.3138 -7.400536,14.79245 -11.33756,21.98968 -2.660068,4.91177 -4.15472,14.00181 -11.713264,10.81345 z"
     id="path10" />
</svg>
