<?xml version="1.0" encoding="UTF-8" standalone="no"?>
<svg
   width="192"
   height="192"
   version="1"
   id="svg28"
   sodipodi:docname="apps_yoga.svg"
   inkscape:version="1.1.1 (1:1.1+202109281949+c3084ef5ed)"
   xmlns:inkscape="http://www.inkscape.org/namespaces/inkscape"
   xmlns:sodipodi="http://sodipodi.sourceforge.net/DTD/sodipodi-0.dtd"
   xmlns="http://www.w3.org/2000/svg"
   xmlns:svg="http://www.w3.org/2000/svg"
   xmlns:rdf="http://www.w3.org/1999/02/22-rdf-syntax-ns#"
   xmlns:cc="http://creativecommons.org/ns#"
   xmlns:dc="http://purl.org/dc/elements/1.1/">
  <metadata
     id="metadata34">
    <rdf:RDF>
      <cc:Work
         rdf:about="">
        <dc:format>image/svg+xml</dc:format>
        <dc:type
           rdf:resource="http://purl.org/dc/dcmitype/StillImage" />
      </cc:Work>
    </rdf:RDF>
  </metadata>
  <defs
     id="defs32">
    <filter
       inkscape:collect="always"
       style="color-interpolation-filters:sRGB"
       id="filter3508"
       x="-0.057684211"
       y="-0.0411"
       width="1.1153684"
       height="1.0822">
      <feGaussianBlur
         inkscape:collect="always"
         stdDeviation="2.74"
         id="feGaussianBlur3510" />
    </filter>
    <filter
       inkscape:collect="always"
       style="color-interpolation-filters:sRGB"
       id="filter3512"
       x="-0.060837428"
       y="-0.03963627"
       width="1.1216749"
       height="1.0792725">
      <feGaussianBlur
         inkscape:collect="always"
         stdDeviation="2.1800118"
         id="feGaussianBlur3514" />
    </filter>
  </defs>
  <sodipodi:namedview
     pagecolor="#ffffff"
     bordercolor="#666666"
     borderopacity="1"
     objecttolerance="10"
     gridtolerance="10"
     guidetolerance="10"
     inkscape:pageopacity="0"
     inkscape:pageshadow="2"
     inkscape:window-width="1920"
     inkscape:window-height="1019"
     id="namedview30"
     showgrid="false"
     inkscape:zoom="2.32"
     inkscape:cx="113.57759"
     inkscape:cy="62.284483"
     inkscape:window-x="0"
     inkscape:window-y="34"
     inkscape:window-maximized="1"
     inkscape:current-layer="svg28"
     inkscape:pagecheckerboard="0"
     inkscape:snap-bbox="true"
     inkscape:snap-bbox-midpoints="true">
    <inkscape:grid
       type="xygrid"
       id="grid841" />
  </sodipodi:namedview>
  <path
     id="path3468"
     style="opacity:0.2;fill:#000000;fill-opacity:1;stroke:none;stroke-width:89.9944;stroke-linecap:round;stroke-linejoin:round;stroke-miterlimit:4;stroke-dasharray:none;stroke-opacity:1;filter:url(#filter3508)"
     d="M 96,20 C 64.519769,20 39,45.519769 39,77 v 46 c 0,31.48023 25.519769,57 57,57 31.48023,0 57,-25.51977 57,-57 V 77 C 153,45.519769 127.48023,20 96,20 Z"
     sodipodi:nodetypes="sccsccs" />
  <path
     id="path2862"
     style="opacity:1;fill:#1094fd;fill-opacity:1;stroke:none;stroke-width:89.9944;stroke-linecap:round;stroke-linejoin:round;stroke-miterlimit:4;stroke-dasharray:none;stroke-opacity:1"
     d="M 96,16 C 64.519769,16 39,41.519769 39,73 v 46 c 0,31.48023 25.519769,57 57,57 31.48023,0 57,-25.51977 57,-57 V 73 C 153,41.519769 127.48023,16 96,16 Z"
     sodipodi:nodetypes="sccsccs" />
  <path
     id="path3470"
     style="opacity:0.2;fill:#000000;stroke-width:0.32169;filter:url(#filter3512)"
     d="m 103.85156,31.999248 c -0.25871,0.01445 -0.79966,0.587916 -1.8457,1.861328 -3.419203,4.162402 -6.955235,6.23141 -7.865235,4.603516 -0.288209,-0.515572 -0.39428,-0.487922 -1.238281,0.322265 -1.402789,1.346583 -2.487242,1.189638 -4.330078,-0.630859 l -1.53711,-1.519531 v 1.818359 c 0,1.870504 -0.506038,2.830078 -1.49414,2.830078 -0.266938,0 -1.498172,-0.447136 -2.736328,-0.992187 -1.238152,-0.545037 -2.333804,-0.908677 -2.433594,-0.808594 -0.09979,0.100088 0.57476,0.983767 1.498047,1.962891 1.709984,1.813408 1.918232,2.548575 0.904297,3.185546 -0.44936,0.282295 -1.411141,0.06085 -4.609376,-1.058593 -4.167845,-1.458817 -7.26833,-1.943284 -9.603515,-1.503907 -1.475059,0.277544 -1.30843,0.457718 0.863281,0.941407 1.501111,0.334329 1.710938,0.479433 1.710938,1.175781 0,0.716027 -0.400654,0.954091 -4.095704,2.435547 -3.976624,1.594346 -4.616149,2.070312 -2.779296,2.070312 1.082532,0 1.937723,0.78854 1.673828,1.541016 -0.106946,0.304957 -0.74508,1.286744 -1.419922,2.181641 -0.674837,0.894893 -1.750762,2.158749 -2.021484,2.808593 -0.507363,1.21788 -0.677251,3.785422 -0.25,3.769532 0.1325,-0.0049 0.807972,-0.44015 1.501953,-0.966797 1.721386,-1.306282 3.498632,-1.307788 4.169921,-0.0059 0.269541,0.522778 0.490235,1.67451 0.490235,2.560547 0,0.886037 0.158797,2.348497 0.351562,3.25 0.313925,1.468103 0.421838,1.617247 1.042969,1.427735 1.24219,-0.379004 1.860946,-1.205785 3.783203,-5.048828 1.973472,-3.945434 2.590503,-4.501552 3.210938,-2.898438 0.305695,0.789873 0.114242,1.333376 -1.777344,5.013672 l -2.123047,4.128906 1.369141,-0.191406 c 0.753135,-0.104795 1.581867,-0.05028 1.839843,0.121094 0.400857,0.266285 0.376003,0.414158 -0.162109,1.013672 -0.346315,0.385823 -1.256691,1.135577 -2.023437,1.666015 -0.8072,0.558423 -1.273756,1.083181 -1.109375,1.248047 0.15614,0.156602 1.180896,0.379201 2.277343,0.494141 1.096449,0.114942 1.994141,0.323911 1.994141,0.464843 0,0.140936 -0.939641,1.099035 -2.087891,2.128907 -1.148255,1.029868 -2.087793,1.971274 -2.08789,2.091797 -9.9e-5,0.120515 0.468007,0.08474 1.041015,-0.08008 2.462138,-0.708221 3.895399,-0.139923 3.007813,1.19336 -0.219969,0.330427 -0.741726,1.167279 -1.158203,1.859375 l -0.757813,1.257812 2.285156,-1.251953 c 1.25637,-0.689113 2.390693,-1.146805 2.521485,-1.015625 0.130794,0.131181 -0.10087,1.323983 -0.515625,2.650391 -0.414754,1.326408 -0.691636,2.474151 -0.615234,2.550781 0.0764,0.07663 0.993958,-0.501023 2.039062,-1.285156 2.093701,-1.57088 3.469075,-1.845294 4.025391,-0.802735 0.182885,0.342734 0.332031,1.517862 0.332031,2.613282 v 1.992187 l 1.287109,-1.164062 c 1.47743,-1.338718 2.447963,-1.488058 2.884766,-0.441407 0.166387,0.398681 0.527968,1.297461 0.804687,1.996094 l 0.503907,1.269531 1.09375,-1.630859 c 1.771151,-2.637792 2.55528,-2.68155 4.279297,-0.244141 l 1.267578,1.791057 0.550781,-1.388672 c 1.131109,-2.848574 2.343453,-3.283184 3.394533,-1.216797 0.70502,1.386044 1.27929,1.435058 1.27929,0.109375 0,-0.996895 0.53668,-2.054687 1.04297,-2.054687 0.20793,0 0.99833,0.609807 1.75586,1.355469 l 1.37696,1.357421 v -1.013671 c 0,-1.467619 0.53871,-2.665263 1.19726,-2.664063 0.31354,6.6e-4 1.04266,0.290808 1.6211,0.644531 0.57844,0.353721 1.10662,0.642578 1.17382,0.642578 0.0672,0 0.0458,-0.578083 -0.0488,-1.285156 -0.24422,-1.826173 0.23216,-2.257812 2.49023,-2.257812 h 2.05664 l -0.16992,-1.269532 c -0.1544,-2.809891 0.47326,-4.155151 3.45703,-3.78125 0.94326,0.118206 1.71484,0.09685 1.71484,-0.04687 0,-0.143721 -0.67483,-0.855505 -1.49804,-1.582031 -1.29007,-1.138384 -1.46711,-1.040508 -1.28125,-1.783203 0.253,-1.011024 1.05455,-1.507345 3.25976,-2.015625 l 1.60742,-0.369141 -1.92773,-0.939453 c -1.59194,-0.775746 -1.92773,-1.078871 -1.92773,-1.74414 0,-0.64582 0.34752,-0.993095 1.75586,-1.75 l 1.75781,-0.94336 -2.23828,-0.689453 c -2.74643,-0.845355 -3.39413,-1.187711 -5.02344,-2.664062 -1.37469,-1.245627 -2.61035,-3.40466 -2.99414,-5.228516 -0.31747,-1.508702 -0.68056,-1.902544 -2.57227,-2.787109 -1.86386,-0.871541 -2.832,-0.940626 -5.03125,-0.271485 -2.34861,0.714586 -3.08203,0.644235 -3.08203,-0.300781 0,-0.912404 1.13489,-1.911458 2.79492,-2.460938 1.80354,-0.596984 5.30098,-0.231034 6.48438,0.646485 1.10237,0.817431 1.13351,0.802035 2.05664,-1.042969 0.50652,-1.01234 0.89423,-1.880841 1.53711,-1.957031 0.61753,-0.07319 0.86133,0.04496 0.86133,0.416015 0,0.37153 0.24781,0.752207 0.88281,0.685547 0.98077,-0.102963 0.93623,-0.570135 0.5293,3.484375 -0.26008,2.591382 0.13138,3.031291 1.51562,1.701172 1.44283,-1.386418 2.13761,-0.329721 2.68359,2.941406 0.11721,0.702236 0.34129,1.132165 0.5293,1.015626 0.17921,-0.111095 1.985,-3.546722 4.01367,-7.634766 3.28377,-6.617227 3.27085,-7.491278 3.18555,-8.775391 -0.14566,-2.196086 0.0265,-2.247404 -6.01758,-1.384765 -5.76667,0.82304 -11.75118,1.109468 -13.53711,0.773437 -2.39094,-0.449873 -2.71271,-1.735224 -1.01367,-4.056641 1.17447,-1.604677 1.43837,-2.445837 0.67578,-2.152343 -2.01301,0.774753 -3.08651,0.940155 -3.55664,0.548828 -0.27061,-0.22525 -0.49023,-0.680985 -0.49023,-1.013672 0,-0.362536 -0.0538,-0.555546 -0.20899,-0.546875 z M 85.466797,52.00706 c 0.801453,-0.0078 1.490038,0.17239 1.910156,0.59375 0.994934,0.997881 0.612826,1.40967 -1.498047,1.615235 -2.140351,0.208437 -3.09059,1.024907 -4.398437,2.683594 -1.872532,2.37484 -3.442303,0.637116 -1.826172,-2.021485 0.972891,-1.60045 3.764342,-2.851065 5.8125,-2.871094 z m 17.396483,0.992188 c 0.31781,0.0047 0.65053,0.07698 0.99219,0.226562 2.60749,1.141617 2.92409,6.136381 0.4668,7.357422 -1.11236,0.552751 -0.89332,0.552396 -2.18555,0.01172 -0.61061,-0.255484 -1.27019,-0.903205 -1.60156,-1.574219 -1.384866,-2.804286 0.10347,-6.054629 2.32812,-6.021485 z m -16.201171,4 c 0.988851,0 2.301613,0.92717 2.875,2.03125 0.956097,1.841004 0.345279,5.227651 -1.037109,5.755859 -2.35556,0.90006 -4.5,-1.14898 -4.5,-4.298828 0,-1.259106 0.179606,-1.72012 0.978516,-2.515625 0.537774,-0.535483 1.295018,-0.972656 1.683593,-0.972656 z m 12.160157,9 c 1.666344,-0.0054 1.981904,0.522188 2.154294,2.65625 0.15012,1.858444 -0.43252,3.45003 -1.472654,4.021484 -1.652318,0.907796 -4.011648,-0.175755 -5.101562,-2.34375 -1.176454,-2.340141 0.29161,-4.085092 3.621094,-4.302734 0.296729,-0.0194 0.560779,-0.03047 0.798828,-0.03125 z m 33.042964,11.744141 c -0.22862,0.0022 -0.46568,0.01718 -0.71484,0.04297 -2.41643,0.250134 -4.69953,1.60537 -7.57031,4.492188 -1.36601,1.373641 -2.57312,2.498047 -2.68164,2.498047 -0.10853,0 -1.10373,-0.798473 -2.21094,-1.773438 -1.77978,-1.567166 -2.12882,-1.748979 -3.01953,-1.570312 -0.55411,0.111155 -1.00781,0.250947 -1.00781,0.310547 0,0.0596 0.77808,1.255378 1.73046,2.658203 3.45327,5.086445 4.84577,8.868617 3.56055,10.292968 -0.31534,0.349469 -0.78474,0.634766 -1.04297,0.634766 -0.33773,0 -0.40773,0.203202 -0.25,0.724606 1.04115,3.44174 1.48636,4.853616 1.37305,7.308596 l -0.13672,2.94141 1.14649,0.30664 c 1.22672,0.43563 3.89843,0.47624 3.89843,0.19922 0,-0.0957 -0.28923,-0.74284 -0.64257,-1.4375 -0.35334,-0.69465 -0.64258,-1.69472 -0.64258,-1.85743 0,-0.16271 1.11909,-0.4617 2.48828,-0.66406 2.51428,-0.37159 6.21033,-1.87739 7.76953,-3.164056 l 0.7832,-0.64453 -1.26367,-0.41016 c -0.69556,-0.22514 -1.38445,-0.4771 -1.5293,-0.56054 -0.14484,-0.0834 0.72784,-1.18856 1.93946,-2.455086 5.9142,-6.182226 6.76011,-11.611066 2.44726,-15.716797 -1.65895,-1.579282 -2.82348,-2.171523 -4.42383,-2.15625 z m -62.859371,0.289062 c -2.071042,-0.05498 -4.897199,0.152429 -6.279297,0.337891 -2.599139,0.348811 -6.527343,1.477352 -6.527343,1.875 0,0.124543 0.396971,0.7713 0.882812,1.070312 1.874866,1.153891 1.854846,1.054953 0.464844,2.314453 -1.733681,1.57091 -3.208742,3.931298 -3.953125,6.330079 -0.795944,2.564941 -0.792471,2.993254 0.01367,2.560546 0.341448,-0.183278 1.257434,-0.462593 1.667969,-0.61914 l 0.746093,-0.285156 -0.002,5.199218 c -0.0018,4.466856 0.09601,5.913376 0.705078,7.851556 1.377905,4.38478 3.441773,6.36328 7.304688,6.36328 2.213289,0 3.228484,-0.48839 4.539062,-1.9043 1.84044,-1.98835 2.629425,-4.98533 2.488282,-9.457026 -0.04986,-1.57966 -0.02494,-2.93395 0.05469,-3.00781 0.280063,-0.25975 8.770848,-0.866963 9.292969,-0.666012 0.320854,0.123492 0.527344,0.566762 0.527344,1.128902 0,1.00727 -0.426327,1.06613 -3.326172,1.40234 -0.869383,0.1008 -1.6592,0.26243 -1.75586,0.35938 -0.323815,0.32477 -0.632912,3.718046 -0.865234,10.216796 -0.319145,8.92738 0.427104,13.60351 2.632813,16.5039 1.121808,1.47511 4.254894,2.55847 8.333984,3.43946 4.070151,0.87906 15.162414,1.22415 21.164054,0.6582 4.54497,-0.42859 5.29688,-0.12037 5.29688,0.96289 0,1.11607 -0.54782,1.37427 -3.45508,1.62695 -1.45851,0.12677 -2.91689,0.33453 -2.99609,0.46289 -0.28226,0.45802 0.5023,6.66931 1.14258,9.04297 0.89624,3.32251 1.8163,4.84306 3.24023,6.42383 1.36279,1.51291 2.6514,2.28805 4.31641,2.59961 3.82955,0.71659 7.57595,-1.45794 9.54882,-5.54297 1.58946,-3.29118 1.65729,-5.68218 1.84766,-11.47266 0.13546,-4.12059 0.26292,-5.41879 0.58984,-5.29297 0.22924,0.0882 1.53319,0.2563 2.16407,0.375 1.3705,0.25787 1.41314,0.0581 0.54297,-2.47851 -0.96607,-2.81627 -2.1325,-4.32247 -3.65821,-5.90039 l -1.42773,-1.47461 1.29883,-0.39063 c 0.71439,-0.21467 1.30078,-0.54577 1.30078,-0.73632 0,-0.19055 -0.58641,-0.8843 -1.30274,-1.54102 -4.16992,-3.82297 -10.84353,-5.15592 -16.81836,-3.9668 -3.02832,0.60269 -3.53464,0.0737 -3.34765,-1.25195 0.14382,-1.01948 2.59261,-1.93659 5.86523,-2.05859 l 2.43164,-0.0899 0.20313,-1.07812 c 0.11098,-0.59225 0.1062,-1.90565 -0.01,-3.04102 -0.116,-1.13536 -0.13191,-2.06445 -0.0371,-2.06445 0.0948,0 0.7703,0.43522 1.50196,0.9668 0.73165,0.53157 1.1954,0.96679 1.36718,0.96679 0.19024,0 0.25191,-1.10354 0.15821,-2.82031 -0.17354,-3.179086 -0.50044,-5.244906 -2.35938,-7.683585 l -1.19336,-1.564453 2.27344,0.228515 c 2.08766,0.118436 2.27172,0.178747 2.27148,-0.367187 -4.6e-4,-1.103277 -3.01497,-6.330341 -4.70507,-8.382813 -0.0599,-0.07274 -0.36163,0.08622 -0.67188,0.353516 -0.8502,0.732486 -1.61179,0.918191 -2.44726,0.599609 -0.65878,-0.251207 -0.81878,-0.149616 -1.27344,0.806641 -0.6094,1.281729 -1.79098,1.708283 -3.22852,1.164063 -0.83434,-0.315856 -1.06616,-0.279003 -1.65039,0.271484 -0.82355,0.775968 -2.61165,0.84499 -3.39844,0.130859 -0.517391,-0.469624 -0.59328,-0.449937 -0.96093,0.242188 -1.076961,2.027418 -2.75479,2.096488 -4.541015,0.1875 -0.828013,-0.884919 -1.33543,-1.223043 -1.4375,-0.955078 -0.08686,0.228037 -0.518507,0.844111 -0.958985,1.36914 -1.364397,1.626288 -3.621765,1.194452 -4.476562,-0.857422 l -0.464844,-1.117187 -0.835938,0.660156 c -1.950614,1.538894 -4.28125,0.295817 -4.28125,-2.283203 0,-0.684872 -0.07585,-1.246094 -0.167968,-1.246094 -0.09212,0 -0.757708,0.390722 -1.478516,0.869141 -2.279363,1.512874 -4.779297,0.865022 -4.779297,-1.240234 0,-0.806671 -0.117557,-0.917969 -0.978515,-0.917969 -1.455318,0 -2.658211,-1.630322 -2.492188,-3.056641 l 0.13086,-1.109375 z m 3.179688,30.240229 -1.242188,1.73633 c -1.918376,2.67903 -4.091859,3.23532 -7.523437,3.05468 -2.06895,-0.10892 -2.926523,-0.31629 -4.160156,-1.00781 -0.854587,-0.47905 -1.607248,-0.8168 -1.673828,-0.75 -0.155181,0.15564 2.772093,4.07244 3.05664,4.08984 0.117526,0.007 0.719548,0.44807 1.337891,0.98047 l 1.125,0.96875 -2.169922,-0.2207 c -1.279719,-0.12996 -2.167969,-0.0967 -2.167969,0.0801 0,0.52134 2.656059,3.09792 4.652344,4.36328 1.057295,0.67017 2.720911,1.47429 3.695312,1.78711 2.133806,0.68502 6.457123,0.82318 6.439454,0.20117 -0.0063,-0.22149 -0.231293,-1.27279 -0.498047,-2.33594 -0.276237,-1.10095 -0.567596,-4.4613 -0.677735,-7.54101 z m 3.306641,18.97851 0.296874,1.07227 c -0.0015,0.58969 -0.09307,1.83812 -0.205078,2.77344 -0.193832,1.61862 -0.509483,1.78992 -2.580078,3.53906 -1.196494,1.01074 -2.107207,1.94803 -2.023437,2.08398 0.08377,0.13596 0.735079,0.24805 1.447265,0.24805 h 1.294922 l -2.599609,2.78516 c -1.457918,1.50495 -2.597656,2.90939 -2.597656,3.06054 0,0.15115 0.592778,0.27539 1.318359,0.27539 1.128025,0 1.288192,0.0804 1.095703,0.5625 -1.07748,2.69847 -1.856598,6.97603 -1.892578,10.39063 -0.03648,3.4616 0.02011,3.82807 0.875,5.57422 0.964315,1.96966 2.518636,3.12857 4.8125,3.94922 1.512036,0.54094 3.508403,0.58017 4.945313,0.0977 2.678983,-0.89961 4.568819,-3.25638 6.68164,-8.33203 0.700708,-1.68332 2.283215,-5.01807 3.517578,-7.41015 2.563461,-4.96778 7.222208,-14.83158 7.060547,-14.94922 -0.05942,-0.0432 -2.203922,-0.25249 -4.765625,-0.46485 -7.567046,-0.62731 -12.397554,-2.25908 -15.0625,-4.12304 z" />
  <path
     id="path1830"
     style="opacity:1;fill:#ffffff;stroke-width:0.32169"
     d="M 103.85156 30 C 103.59285 30.01445 103.0519 30.587916 102.00586 31.861328 C 98.586657 36.02373 95.050625 38.092738 94.140625 36.464844 C 93.852416 35.949272 93.746345 35.976922 92.902344 36.787109 C 91.499555 38.133692 90.415102 37.976747 88.572266 36.15625 L 87.035156 34.636719 L 87.035156 36.455078 C 87.035156 38.325582 86.529118 39.285156 85.541016 39.285156 C 85.274078 39.285156 84.042844 38.83802 82.804688 38.292969 C 81.566536 37.747932 80.470884 37.384292 80.371094 37.484375 C 80.271304 37.584463 80.945854 38.468142 81.869141 39.447266 C 83.579125 41.260674 83.787373 41.995841 82.773438 42.632812 C 82.324078 42.915107 81.362297 42.693662 78.164062 41.574219 C 73.996217 40.115402 70.895732 39.630935 68.560547 40.070312 C 67.085488 40.347856 67.252117 40.52803 69.423828 41.011719 C 70.924939 41.346048 71.134766 41.491152 71.134766 42.1875 C 71.134766 42.903527 70.734112 43.141591 67.039062 44.623047 C 63.062438 46.217393 62.422913 46.693359 64.259766 46.693359 C 65.342298 46.693359 66.197489 47.481899 65.933594 48.234375 C 65.826648 48.539332 65.188514 49.521119 64.513672 50.416016 C 63.838835 51.310909 62.76291 52.574765 62.492188 53.224609 C 61.984825 54.442489 61.814937 57.010031 62.242188 56.994141 C 62.374688 56.989241 63.05016 56.553991 63.744141 56.027344 C 65.465527 54.721062 67.242773 54.719556 67.914062 56.021484 C 68.183603 56.544262 68.404297 57.695994 68.404297 58.582031 C 68.404297 59.468068 68.563094 60.930528 68.755859 61.832031 C 69.069784 63.300134 69.177697 63.449278 69.798828 63.259766 C 71.041018 62.880762 71.659774 62.053981 73.582031 58.210938 C 75.555503 54.265504 76.172534 53.709386 76.792969 55.3125 C 77.098664 56.102373 76.907211 56.645876 75.015625 60.326172 L 72.892578 64.455078 L 74.261719 64.263672 C 75.014854 64.158877 75.843586 64.213392 76.101562 64.384766 C 76.502419 64.651051 76.477565 64.798924 75.939453 65.398438 C 75.593138 65.784261 74.682762 66.534015 73.916016 67.064453 C 73.108816 67.622876 72.64226 68.147634 72.806641 68.3125 C 72.962781 68.469102 73.987537 68.691701 75.083984 68.806641 C 76.180433 68.921583 77.078125 69.130552 77.078125 69.271484 C 77.078125 69.41242 76.138484 70.370519 74.990234 71.400391 C 73.841979 72.430259 72.902441 73.371665 72.902344 73.492188 C 72.902245 73.612703 73.370351 73.576929 73.943359 73.412109 C 76.405497 72.703888 77.838758 73.272186 76.951172 74.605469 C 76.731203 74.935896 76.209446 75.772748 75.792969 76.464844 L 75.035156 77.722656 L 77.320312 76.470703 C 78.576682 75.78159 79.711005 75.323898 79.841797 75.455078 C 79.972591 75.586259 79.740927 76.779061 79.326172 78.105469 C 78.911418 79.431877 78.634536 80.57962 78.710938 80.65625 C 78.787338 80.73288 79.704896 80.155227 80.75 79.371094 C 82.843701 77.800214 84.219075 77.5258 84.775391 78.568359 C 84.958276 78.911093 85.107422 80.086221 85.107422 81.181641 L 85.107422 83.173828 L 86.394531 82.009766 C 87.871961 80.671048 88.842494 80.521708 89.279297 81.568359 C 89.445684 81.96704 89.807265 82.86582 90.083984 83.564453 L 90.587891 84.833984 L 91.681641 83.203125 C 93.452792 80.565333 94.236921 80.521575 95.960938 82.958984 L 97.228516 84.75 L 97.779297 83.361328 C 98.910406 80.512754 100.12275 80.078144 101.17383 82.144531 C 101.87885 83.530575 102.45312 83.579589 102.45312 82.253906 C 102.45312 81.257011 102.9898 80.199219 103.49609 80.199219 C 103.70402 80.199219 104.49442 80.809026 105.25195 81.554688 L 106.62891 82.912109 L 106.62891 81.898438 C 106.62891 80.430819 107.16762 79.233175 107.82617 79.234375 C 108.13971 79.235035 108.86883 79.525183 109.44727 79.878906 C 110.02571 80.232627 110.55389 80.521484 110.62109 80.521484 C 110.68829 80.521484 110.66687 79.943401 110.57227 79.236328 C 110.32805 77.410155 110.80443 76.978516 113.0625 76.978516 L 115.11914 76.978516 L 114.94922 75.708984 C 114.79482 72.899093 115.42248 71.553833 118.40625 71.927734 C 119.34951 72.04594 120.12109 72.024579 120.12109 71.880859 C 120.12109 71.737138 119.44626 71.025354 118.62305 70.298828 C 117.33298 69.160444 117.15594 69.25832 117.3418 68.515625 C 117.5948 67.504601 118.39635 67.00828 120.60156 66.5 L 122.20898 66.130859 L 120.28125 65.191406 C 118.68931 64.41566 118.35352 64.112535 118.35352 63.447266 C 118.35352 62.801446 118.70104 62.454171 120.10938 61.697266 L 121.86719 60.753906 L 119.62891 60.064453 C 116.88248 59.219098 116.23478 58.876742 114.60547 57.400391 C 113.23078 56.154764 111.99512 53.995731 111.61133 52.171875 C 111.29386 50.663173 110.93077 50.269331 109.03906 49.384766 C 107.1752 48.513225 106.20706 48.44414 104.00781 49.113281 C 101.6592 49.827867 100.92578 49.757516 100.92578 48.8125 C 100.92578 47.900096 102.06067 46.901042 103.7207 46.351562 C 105.52424 45.754578 109.02168 46.120528 110.20508 46.998047 C 111.30745 47.815478 111.33859 47.800082 112.26172 45.955078 C 112.76824 44.942738 113.15595 44.074237 113.79883 43.998047 C 114.41636 43.924857 114.66016 44.043008 114.66016 44.414062 C 114.66016 44.785592 114.90797 45.166269 115.54297 45.099609 C 116.52374 44.996646 116.4792 44.529474 116.07227 48.583984 C 115.81219 51.175366 116.20365 51.615275 117.58789 50.285156 C 119.03072 48.898738 119.7255 49.955435 120.27148 53.226562 C 120.38869 53.928798 120.61277 54.358727 120.80078 54.242188 C 120.97999 54.131093 122.78578 50.695466 124.81445 46.607422 C 128.09822 39.990195 128.0853 39.116144 128 37.832031 C 127.85434 35.635945 128.02648 35.584627 121.98242 36.447266 C 116.21575 37.270306 110.23124 37.556734 108.44531 37.220703 C 106.05437 36.77083 105.7326 35.485479 107.43164 33.164062 C 108.60611 31.559385 108.87001 30.718225 108.10742 31.011719 C 106.09441 31.786472 105.02091 31.951874 104.55078 31.560547 C 104.28017 31.335297 104.06055 30.879562 104.06055 30.546875 C 104.06055 30.184339 104.00675 29.991329 103.85156 30 z M 85.466797 50.007812 C 86.26825 50.000012 86.956835 50.180202 87.376953 50.601562 C 88.371887 51.599443 87.989779 52.011232 85.878906 52.216797 C 83.738555 52.425234 82.788316 53.241704 81.480469 54.900391 C 79.607937 57.275231 78.038166 55.537507 79.654297 52.878906 C 80.627188 51.278456 83.418639 50.027841 85.466797 50.007812 z M 102.86328 51 C 103.18109 51.0047 103.51381 51.07698 103.85547 51.226562 C 106.46296 52.368179 106.77956 57.362943 104.32227 58.583984 C 103.20991 59.136735 103.42895 59.13638 102.13672 58.595703 C 101.52611 58.340219 100.86653 57.692498 100.53516 57.021484 C 99.150294 54.217199 100.63863 50.966856 102.86328 51 z M 86.662109 55 C 87.65096 55 88.963722 55.92717 89.537109 57.03125 C 90.493206 58.872254 89.882388 62.258901 88.5 62.787109 C 86.14444 63.687169 84 61.638129 84 58.488281 C 84 57.229175 84.179606 56.768161 84.978516 55.972656 C 85.51629 55.437173 86.273534 55 86.662109 55 z M 98.822266 64 C 100.48861 63.9946 100.80417 64.522188 100.97656 66.65625 C 101.12668 68.514694 100.54404 70.10628 99.503906 70.677734 C 97.851588 71.58553 95.492258 70.501979 94.402344 68.333984 C 93.22589 65.993843 94.693954 64.248892 98.023438 64.03125 C 98.320167 64.01185 98.584217 64.00078 98.822266 64 z M 131.86523 75.744141 C 131.63661 75.746322 131.39955 75.761318 131.15039 75.787109 C 128.73396 76.037243 126.45086 77.392479 123.58008 80.279297 C 122.21407 81.652938 121.00696 82.777344 120.89844 82.777344 C 120.78991 82.777344 119.79471 81.978871 118.6875 81.003906 C 116.90772 79.43674 116.55868 79.254927 115.66797 79.433594 C 115.11386 79.544749 114.66016 79.684541 114.66016 79.744141 C 114.66016 79.803743 115.43824 80.999519 116.39062 82.402344 C 119.84389 87.488789 121.23639 91.270961 119.95117 92.695312 C 119.63583 93.044781 119.16643 93.330078 118.9082 93.330078 C 118.57047 93.330078 118.50047 93.53328 118.6582 94.054688 C 119.69935 97.496418 120.14456 98.908302 120.03125 101.36328 L 119.89453 104.30469 L 121.04102 104.61133 C 122.26774 105.04696 124.93945 105.08757 124.93945 104.81055 C 124.93945 104.7149 124.65022 104.06771 124.29688 103.37305 C 123.94354 102.6784 123.6543 101.67833 123.6543 101.51562 C 123.6543 101.35291 124.77339 101.05392 126.14258 100.85156 C 128.65686 100.47997 132.35291 98.974174 133.91211 97.6875 L 134.69531 97.042969 L 133.43164 96.632812 C 132.73608 96.407673 132.04719 96.155706 131.90234 96.072266 C 131.7575 95.988827 132.63018 94.883717 133.8418 93.617188 C 139.756 87.434962 140.60191 82.006122 136.28906 77.900391 C 134.63011 76.321109 133.46558 75.728868 131.86523 75.744141 z M 69.005859 76.033203 C 66.934817 75.978221 64.10866 76.185632 62.726562 76.371094 C 60.127423 76.719905 56.199219 77.848446 56.199219 78.246094 C 56.199219 78.370637 56.59619 79.017394 57.082031 79.316406 C 58.956897 80.470297 58.936877 80.371359 57.546875 81.630859 C 55.813194 83.201769 54.338133 85.562157 53.59375 87.960938 C 52.797806 90.525879 52.801279 90.954192 53.607422 90.521484 C 53.94887 90.338206 54.864856 90.058891 55.275391 89.902344 L 56.021484 89.617188 L 56.019531 94.816406 C 56.017756 99.283273 56.115541 100.72979 56.724609 102.66797 C 58.102514 107.05275 60.166382 109.03125 64.029297 109.03125 C 66.242586 109.03125 67.257781 108.54286 68.568359 107.12695 C 70.408799 105.1386 71.197784 102.14162 71.056641 97.669922 C 71.006781 96.090259 71.031698 94.735969 71.111328 94.662109 C 71.391391 94.402357 79.882176 93.795143 80.404297 93.996094 C 80.725151 94.119582 80.931641 94.562854 80.931641 95.125 C 80.931641 96.132273 80.505314 96.191129 77.605469 96.527344 C 76.736086 96.62814 75.946269 96.789769 75.849609 96.886719 C 75.525794 97.211493 75.216697 100.60477 74.984375 107.10352 C 74.66523 116.0309 75.411479 120.70703 77.617188 123.60742 C 78.738996 125.08253 81.872082 126.16589 85.951172 127.04688 C 90.021323 127.92594 101.11359 128.27103 107.11523 127.70508 C 111.6602 127.27649 112.41211 127.58471 112.41211 128.66797 C 112.41211 129.78404 111.86429 130.04224 108.95703 130.29492 C 107.49852 130.42169 106.04014 130.62945 105.96094 130.75781 C 105.67868 131.21583 106.46324 137.42712 107.10352 139.80078 C 107.99976 143.12329 108.91982 144.64384 110.34375 146.22461 C 111.70654 147.73752 112.99515 148.51266 114.66016 148.82422 C 118.48971 149.54081 122.23611 147.36628 124.20898 143.28125 C 125.79844 139.99007 125.86627 137.59907 126.05664 131.80859 C 126.1921 127.688 126.31956 126.3898 126.64648 126.51562 C 126.87572 126.60385 128.17967 126.77192 128.81055 126.89062 C 130.18105 127.14849 130.22369 126.94876 129.35352 124.41211 C 128.38745 121.59584 127.22102 120.08964 125.69531 118.51172 L 124.26758 117.03711 L 125.56641 116.64648 C 126.2808 116.43181 126.86719 116.10071 126.86719 115.91016 C 126.86719 115.71961 126.28078 115.02586 125.56445 114.36914 C 121.39453 110.54617 114.72092 109.21322 108.74609 110.40234 C 105.71777 111.00503 105.21145 110.476 105.39844 109.15039 C 105.54226 108.13091 107.99105 107.2138 111.26367 107.0918 L 113.69531 107.00195 L 113.89844 105.92383 C 114.00942 105.33158 114.00464 104.01818 113.88867 102.88281 C 113.77267 101.74745 113.75676 100.81836 113.85156 100.81836 C 113.94635 100.81836 114.62186 101.25358 115.35352 101.78516 C 116.08517 102.31673 116.54892 102.75195 116.7207 102.75195 C 116.91094 102.75195 116.97261 101.64841 116.87891 99.931641 C 116.70537 96.752547 116.37847 94.686726 114.51953 92.248047 L 113.32617 90.683594 L 115.59961 90.912109 C 117.68727 91.030545 117.87133 91.090856 117.87109 90.544922 C 117.87063 89.441645 114.85612 84.214581 113.16602 82.162109 C 113.10611 82.089366 112.80439 82.248326 112.49414 82.515625 C 111.64394 83.248111 110.88235 83.433816 110.04688 83.115234 C 109.3881 82.864027 109.2281 82.965618 108.77344 83.921875 C 108.16404 85.203604 106.98246 85.630158 105.54492 85.085938 C 104.71058 84.770082 104.47876 84.806935 103.89453 85.357422 C 103.07098 86.13339 101.28288 86.202412 100.49609 85.488281 C 99.978695 85.018657 99.902806 85.038344 99.535156 85.730469 C 98.458195 87.757887 96.780366 87.826957 94.994141 85.917969 C 94.166128 85.03305 93.658711 84.694926 93.556641 84.962891 C 93.469777 85.190928 93.038134 85.807002 92.597656 86.332031 C 91.233259 87.958319 88.975891 87.526483 88.121094 85.474609 L 87.65625 84.357422 L 86.820312 85.017578 C 84.869698 86.556472 82.539062 85.313395 82.539062 82.734375 C 82.539062 82.049503 82.463214 81.488281 82.371094 81.488281 C 82.278973 81.488281 81.613386 81.879003 80.892578 82.357422 C 78.613215 83.870296 76.113281 83.222444 76.113281 81.117188 C 76.113281 80.310517 75.995724 80.199219 75.134766 80.199219 C 73.679448 80.199219 72.476555 78.568897 72.642578 77.142578 L 72.773438 76.033203 L 69.005859 76.033203 z M 72.185547 106.27344 L 70.943359 108.00977 C 69.024983 110.6888 66.8515 111.24509 63.419922 111.06445 C 61.350972 110.95553 60.493399 110.74816 59.259766 110.05664 C 58.405179 109.57759 57.652518 109.23984 57.585938 109.30664 C 57.430757 109.46228 60.358031 113.37908 60.642578 113.39648 C 60.760104 113.40367 61.362126 113.84455 61.980469 114.37695 L 63.105469 115.3457 L 60.935547 115.125 C 59.655828 114.99504 58.767578 115.02826 58.767578 115.20508 C 58.767578 115.72642 61.423637 118.303 63.419922 119.56836 C 64.477217 120.23853 66.140833 121.04265 67.115234 121.35547 C 69.24904 122.04049 73.572357 122.17865 73.554688 121.55664 C 73.548394 121.33515 73.323395 120.28385 73.056641 119.2207 C 72.780404 118.11975 72.489045 114.7594 72.378906 111.67969 L 72.185547 106.27344 z M 75.492188 125.25195 L 75.789062 126.32422 C 75.787529 126.91391 75.69599 128.16234 75.583984 129.09766 C 75.390152 130.71628 75.074501 130.88758 73.003906 132.63672 C 71.807412 133.64746 70.896699 134.58475 70.980469 134.7207 C 71.064242 134.85666 71.715548 134.96875 72.427734 134.96875 L 73.722656 134.96875 L 71.123047 137.75391 C 69.665129 139.25886 68.525391 140.6633 68.525391 140.81445 C 68.525391 140.9656 69.118169 141.08984 69.84375 141.08984 C 70.971775 141.08984 71.131942 141.17027 70.939453 141.65234 C 69.861973 144.35081 69.082855 148.62837 69.046875 152.04297 C 69.010391 155.50457 69.06698 155.87104 69.921875 157.61719 C 70.88619 159.58685 72.440511 160.74576 74.734375 161.56641 C 76.246411 162.10735 78.242778 162.14658 79.679688 161.66406 C 82.358671 160.76445 84.248507 158.40768 86.361328 153.33203 C 87.062036 151.64871 88.644543 148.31396 89.878906 145.92188 C 92.442367 140.9541 97.101114 131.0903 96.939453 130.97266 C 96.880037 130.92942 94.735531 130.72017 92.173828 130.50781 C 84.606782 129.8805 79.776274 128.24873 77.111328 126.38477 L 75.492188 125.25195 z " />
  <path
     id="path3516"
     style="opacity:0.2;fill:#ffffff;fill-opacity:1;stroke:none;stroke-width:89.9944;stroke-linecap:round;stroke-linejoin:round;stroke-miterlimit:4;stroke-dasharray:none;stroke-opacity:1"
     d="M 96 16 C 64.519769 16 39 41.519769 39 73 L 39 74 C 39 42.519769 64.519769 17 96 17 C 127.48023 17 153 42.519769 153 74 L 153 73 C 153 41.519769 127.48023 16 96 16 z " />
</svg>
