<?xml version="1.0" encoding="UTF-8" standalone="no"?>
<svg
   xmlns:dc="http://purl.org/dc/elements/1.1/"
   xmlns:cc="http://creativecommons.org/ns#"
   xmlns:rdf="http://www.w3.org/1999/02/22-rdf-syntax-ns#"
   xmlns:svg="http://www.w3.org/2000/svg"
   xmlns="http://www.w3.org/2000/svg"
   xmlns:sodipodi="http://sodipodi.sourceforge.net/DTD/sodipodi-0.dtd"
   xmlns:inkscape="http://www.inkscape.org/namespaces/inkscape"
   width="48"
   height="48"
   version="1"
   id="svg20"
   sodipodi:docname="apps_passwordgenerator.svg"
   inkscape:version="0.92.2 (unknown)">
  <metadata
     id="metadata26">
    <rdf:RDF>
      <cc:Work
         rdf:about="">
        <dc:format>image/svg+xml</dc:format>
        <dc:type
           rdf:resource="http://purl.org/dc/dcmitype/StillImage" />
        <dc:title />
      </cc:Work>
    </rdf:RDF>
  </metadata>
  <defs
     id="defs24" />
  <sodipodi:namedview
     pagecolor="#ffffff"
     bordercolor="#666666"
     borderopacity="1"
     objecttolerance="10"
     gridtolerance="10"
     guidetolerance="10"
     inkscape:pageopacity="0"
     inkscape:pageshadow="2"
     inkscape:window-width="1920"
     inkscape:window-height="1016"
     id="namedview22"
     showgrid="true"
     inkscape:zoom="13.939513"
     inkscape:cx="14.061082"
     inkscape:cy="17.850884"
     inkscape:window-x="0"
     inkscape:window-y="34"
     inkscape:window-maximized="1"
     inkscape:current-layer="svg20">
    <inkscape:grid
       type="xygrid"
       id="grid818" />
  </sodipodi:namedview>
  <path
     d="m 4,37.5 v 1 c 0,1.108 0.892,2 2,2 h 36 c 1.108,0 2,-0.892 2,-2 v -1 c 0,1.108 -0.892,2 -2,2 H 6 c -1.108,0 -2,-0.892 -2,-2 z"
     style="opacity:0.2"
     id="path8"
     inkscape:connector-curvature="0" />
  <rect
     transform="matrix(0,-1,-1,0,0,0)"
     x="-40.000031"
     y="-44"
     width="32"
     height="40"
     rx="2"
     ry="2"
     style="fill:#0fa0e6"
     id="rect2" />
  <path
     inkscape:connector-curvature="0"
     style="opacity:0.2;fill:#ffffff"
     d="M 6,8 C 4.892,8 4,8.892 4,10 v 0.5 c 0,-1.108 0.892,-2 2,-2 h 36 c 1.108,0 2,0.892 2,2 V 10 C 44,8.892 43.108,8 42,8 Z"
     id="path6" />
  <path
     id="path845"
     d="m 11,18.5 v 3.267578 l -2.8300781,-1.632812 -1,1.730468 2.8320311,1.634766 -2.8320311,1.634766 1,1.730468 L 11,25.232422 V 28.5 h 2 v -3.267578 l 2.830078,1.632812 1,-1.730468 L 13.998047,23.5 l 2.832031,-1.634766 -1,-1.730468 L 13,21.767578 V 18.5 Z m 12,0 v 3.267578 l -2.830078,-1.632812 -1,1.730468 2.832031,1.634766 -2.832031,1.634766 1,1.730468 L 23,25.232422 V 28.5 h 2 v -3.267578 l 2.830078,1.632812 1,-1.730468 L 25.998047,23.5 l 2.832031,-1.634766 -1,-1.730468 L 25,21.767578 V 18.5 Z m 12,0 v 3.267578 l -2.830078,-1.632812 -1,1.730468 2.832031,1.634766 -2.832031,1.634766 1,1.730468 L 35,25.232422 V 28.5 h 2 v -3.267578 l 2.830078,1.632812 1,-1.730468 L 37.998047,23.5 l 2.832031,-1.634766 -1,-1.730468 L 37,21.767578 V 18.5 Z m -29,12 v 2 h 36 v -2 z"
     style="opacity:0.2;fill:#000000;fill-opacity:1;stroke:none;stroke-width:1.69030845;stroke-linecap:round;stroke-linejoin:round;stroke-miterlimit:4;stroke-dasharray:none;stroke-opacity:1"
     inkscape:connector-curvature="0" />
  <path
     inkscape:connector-curvature="0"
     style="opacity:1;fill:#ffffff;fill-opacity:1;stroke:none;stroke-width:1.69030845;stroke-linecap:round;stroke-linejoin:round;stroke-miterlimit:4;stroke-dasharray:none;stroke-opacity:1"
     d="m 11,18 v 3.267578 l -2.8300781,-1.632812 -1,1.730468 L 10.001953,23 l -2.8320311,1.634766 1,1.730468 L 11,24.732422 V 28 h 2 v -3.267578 l 2.830078,1.632812 1,-1.730468 L 13.998047,23 l 2.832031,-1.634766 -1,-1.730468 L 13,21.267578 V 18 Z m 12,0 v 3.267578 l -2.830078,-1.632812 -1,1.730468 L 22.001953,23 l -2.832031,1.634766 1,1.730468 L 23,24.732422 V 28 h 2 v -3.267578 l 2.830078,1.632812 1,-1.730468 L 25.998047,23 l 2.832031,-1.634766 -1,-1.730468 L 25,21.267578 V 18 Z m 12,0 v 3.267578 l -2.830078,-1.632812 -1,1.730468 L 34.001953,23 l -2.832031,1.634766 1,1.730468 L 35,24.732422 V 28 h 2 v -3.267578 l 2.830078,1.632812 1,-1.730468 L 37.998047,23 l 2.832031,-1.634766 -1,-1.730468 L 37,21.267578 V 18 Z M 6,30 v 2 h 36 v -2 z"
     id="rect820" />
</svg>
