<?xml version="1.0" encoding="UTF-8" standalone="no"?>
<svg
   width="192"
   height="192"
   version="1"
   id="svg14"
   sodipodi:docname="apps_rappi.svg"
   inkscape:version="1.1.1 (1:1.1+202109281949+c3084ef5ed)"
   xmlns:inkscape="http://www.inkscape.org/namespaces/inkscape"
   xmlns:sodipodi="http://sodipodi.sourceforge.net/DTD/sodipodi-0.dtd"
   xmlns="http://www.w3.org/2000/svg"
   xmlns:svg="http://www.w3.org/2000/svg"
   xmlns:rdf="http://www.w3.org/1999/02/22-rdf-syntax-ns#"
   xmlns:cc="http://creativecommons.org/ns#"
   xmlns:dc="http://purl.org/dc/elements/1.1/">
  <metadata
     id="metadata20">
    <rdf:RDF>
      <cc:Work
         rdf:about="">
        <dc:format>image/svg+xml</dc:format>
        <dc:type
           rdf:resource="http://purl.org/dc/dcmitype/StillImage" />
      </cc:Work>
    </rdf:RDF>
  </metadata>
  <defs
     id="defs18">
    <filter
       inkscape:collect="always"
       style="color-interpolation-filters:sRGB"
       id="filter850"
       x="-0.048000001"
       width="1.096"
       y="-0.048000001"
       height="1.096">
      <feGaussianBlur
         inkscape:collect="always"
         stdDeviation="3.2"
         id="feGaussianBlur852" />
    </filter>
    <filter
       inkscape:collect="always"
       style="color-interpolation-filters:sRGB"
       id="filter5328"
       x="-0.071672733"
       y="-0.21899994"
       width="1.1433455"
       height="1.4379999">
      <feGaussianBlur
         inkscape:collect="always"
         stdDeviation="3.2850001"
         id="feGaussianBlur5330" />
    </filter>
  </defs>
  <sodipodi:namedview
     pagecolor="#ffffff"
     bordercolor="#666666"
     borderopacity="1"
     objecttolerance="10"
     gridtolerance="10"
     guidetolerance="10"
     inkscape:pageopacity="0"
     inkscape:pageshadow="2"
     inkscape:window-width="1920"
     inkscape:window-height="1022"
     id="namedview16"
     showgrid="false"
     inkscape:zoom="1.23"
     inkscape:cx="108.13008"
     inkscape:cy="99.186992"
     inkscape:window-x="0"
     inkscape:window-y="34"
     inkscape:window-maximized="1"
     inkscape:current-layer="svg14"
     inkscape:pagecheckerboard="0"
     inkscape:snap-bbox="true"
     inkscape:snap-bbox-midpoints="true"
     inkscape:snap-global="true">
    <inkscape:grid
       type="xygrid"
       id="grid5193" />
  </sodipodi:namedview>
  <circle
     style="opacity:0.2;fill:#000000;stroke-width:4;filter:url(#filter850)"
     cx="96"
     cy="100"
     r="80"
     id="circle832" />
  <circle
     id="circle4"
     r="80"
     cy="96"
     cx="96"
     style="fill:#f73e50;stroke-width:4;fill-opacity:1" />
  <path
     style="opacity:0.2;fill:#ffffff;stroke-width:4"
     d="M 96 16 A 80 80 0 0 0 16 96 A 80 80 0 0 0 16.019531 96.472656 A 80 80 0 0 1 96 17 A 80 80 0 0 1 175.97461 96.513672 A 80 80 0 0 0 176 96 A 80 80 0 0 0 96 16 z "
     id="path6" />
  <path
     style="fill:#38adfa"
     d="m 688.80525,256.99648 c -0.33229,-0.33229 -1.1948,-0.36781 -1.91667,-0.0789 -0.79773,0.31922 -0.56078,0.55618 0.60417,0.60416 1.05416,0.0434 1.64479,-0.19293 1.3125,-0.52522 z"
     id="path1063" />
  <path
     id="path5290"
     style="opacity:0.2;fill:#000000;stroke-width:0.25752;filter:url(#filter5328)"
     d="m 80.237855,80.00705 c -5.378642,0.17742 -10.067183,3.430704 -14.60542,6.89094 -4.868768,3.840205 -5.713891,4.439541 -7.517755,5.320703 -3.835315,1.873484 -7.122355,1.423447 -11.543722,-1.580076 -1.348498,-0.916068 -2.675389,-1.666655 -2.947792,-1.666655 -2.992748,-0.784334 -3.018466,1.938932 -2.071899,5.249865 1.913153,6.452673 5.855151,12.920813 11.914895,17.117163 5.215025,3.39408 11.453128,4.9168 18.955426,4.62609 5.407289,-0.20951 10.079666,-1.26154 14.57007,-3.28018 3.057745,-1.37459 6.35839,-3.99965 8.427035,-6.70007 0.283473,-0.37006 0.451679,-0.56451 0.58131,-0.64541 0.129634,0.0809 0.297832,0.27535 0.58131,0.64541 2.068647,2.70042 5.369287,5.32548 8.427037,6.70007 4.4904,2.01864 9.16277,3.07067 14.57006,3.28018 7.5023,0.29071 13.7404,-1.23201 18.95543,-4.62609 6.05974,-4.19635 10.00174,-10.66449 11.91489,-17.117163 0.94657,-3.310933 0.92085,-6.034199 -2.0719,-5.249865 -0.2724,0 -1.59929,0.750587 -2.94779,1.666655 -4.42137,3.003523 -7.7084,3.45356 -11.54371,1.580076 -1.80387,-0.881162 -2.649,-1.480498 -7.51777,-5.320703 -4.53823,-3.460236 -9.22677,-6.71352 -14.60542,-6.89094 -0.35857,-0.01183 -0.72116,-0.0085 -1.08603,0.0079 -4.00137,0.195101 -6.79262,1.473515 -12.411747,5.686697 l -2.26436,1.696171 -2.264361,-1.696171 c -5.619139,-4.213223 -8.410383,-5.491637 -12.411759,-5.686738 -0.364869,-0.01632 -0.727454,-0.0197 -1.086028,-0.0079 z" />
  <path
     id="path1057"
     style="fill:#ffffff;stroke-width:0.25752"
     d="m 80.237855,78.007053 c -5.378642,0.17742 -10.067183,3.430704 -14.60542,6.89094 -4.868768,3.840205 -5.713891,4.439541 -7.517755,5.320703 -3.835315,1.873484 -7.122355,1.423447 -11.543722,-1.580076 -1.348498,-0.916068 -2.675389,-1.666655 -2.947792,-1.666655 -2.992748,-0.784334 -3.018466,1.938932 -2.071899,5.249865 1.913153,6.452674 5.855151,12.92081 11.914895,17.11716 5.215025,3.39408 11.453128,4.9168 18.955426,4.62609 5.407289,-0.20951 10.079666,-1.26154 14.57007,-3.28018 3.057745,-1.37459 6.35839,-3.99965 8.427035,-6.70007 0.283473,-0.37006 0.451679,-0.56451 0.58131,-0.64541 0.129634,0.0809 0.297832,0.27535 0.58131,0.64541 2.068647,2.70042 5.369287,5.32548 8.427037,6.70007 4.4904,2.01864 9.16277,3.07067 14.57006,3.28018 7.5023,0.29071 13.7404,-1.23201 18.95543,-4.62609 6.05974,-4.19635 10.00174,-10.664486 11.91489,-17.11716 0.94657,-3.310933 0.92085,-6.034199 -2.0719,-5.249865 -0.2724,0 -1.59929,0.750587 -2.94779,1.666655 -4.42137,3.003523 -7.7084,3.45356 -11.54371,1.580076 -1.80387,-0.881162 -2.649,-1.480498 -7.51777,-5.320703 -4.53823,-3.460236 -9.22677,-6.71352 -14.60542,-6.89094 -0.35857,-0.01183 -0.72116,-0.0085 -1.08603,0.0079 -4.00137,0.195101 -6.79262,1.473515 -12.411747,5.686697 l -2.26436,1.696171 -2.264361,-1.696171 c -5.619139,-4.213223 -8.410383,-5.491637 -12.411759,-5.686738 -0.364869,-0.01632 -0.727454,-0.0197 -1.086028,-0.0079 z" />
</svg>
