<?xml version="1.0" encoding="UTF-8" standalone="no"?>
<svg
   width="192"
   height="192"
   version="1.1"
   id="svg16"
   sodipodi:docname="apps_obdautodoctor.svg"
   inkscape:version="1.1-rc (1:1.1+rc+202105232036+f4db50c7c1)"
   xmlns:inkscape="http://www.inkscape.org/namespaces/inkscape"
   xmlns:sodipodi="http://sodipodi.sourceforge.net/DTD/sodipodi-0.dtd"
   xmlns="http://www.w3.org/2000/svg"
   xmlns:svg="http://www.w3.org/2000/svg">
  <defs
     id="defs20">
    <filter
       inkscape:collect="always"
       style="color-interpolation-filters:sRGB"
       id="filter853"
       x="-0.048000001"
       y="-0.048000001"
       width="1.096"
       height="1.096">
      <feGaussianBlur
         inkscape:collect="always"
         stdDeviation="3.2"
         id="feGaussianBlur855" />
    </filter>
    <filter
       inkscape:collect="always"
       style="color-interpolation-filters:sRGB"
       id="filter857"
       x="-0.038999999"
       y="-0.062399998"
       width="1.078"
       height="1.1248">
      <feGaussianBlur
         inkscape:collect="always"
         stdDeviation="2.08"
         id="feGaussianBlur859" />
    </filter>
  </defs>
  <sodipodi:namedview
     id="namedview18"
     pagecolor="#ffffff"
     bordercolor="#666666"
     borderopacity="1.0"
     inkscape:pageshadow="2"
     inkscape:pageopacity="0.0"
     inkscape:pagecheckerboard="0"
     showgrid="false"
     inkscape:zoom="2.48"
     inkscape:cx="23.991935"
     inkscape:cy="56.25"
     inkscape:window-width="1920"
     inkscape:window-height="1019"
     inkscape:window-x="0"
     inkscape:window-y="34"
     inkscape:window-maximized="1"
     inkscape:current-layer="svg16" />
  <rect
     style="opacity:0.2;stroke-width:4;filter:url(#filter853)"
     width="160"
     height="160"
     x="16"
     y="20"
     rx="16"
     ry="16"
     id="rect2" />
  <rect
     style="fill:#3e4753;stroke-width:4"
     width="160"
     height="160"
     x="16"
     y="16"
     rx="16"
     ry="16"
     id="rect4" />
  <path
     id="path6"
     style="opacity:0.1;fill:#ffffff;stroke-width:4"
     d="M 32 16 C 23.136 16 16 23.136 16 32 L 16 33 C 16 24.136 23.136 17 32 17 L 160 17 C 168.864 17 176 24.136 176 33 L 176 32 C 176 23.136 168.864 16 160 16 L 32 16 z " />
  <path
     style="opacity:0.2;stroke-width:4;filter:url(#filter857)"
     d="m 60,58 v 12 h 20 v 4 H 60 48 v 12 8 H 44 V 74 h -4 v 4 h -8 v 24 h 4 v 24 h 8 v -20 h 4 v 20 h 8 4 6 l 16,12 h 36 14 v -8 h 4 v 8 h 16.48438 L 160,130.48438 V 95.515624 L 150.48438,86 h -7.72657 c -0.24196,0.489304 -0.48767,0.88848 -0.70312,1.179688 -0.67906,0.91778 -1.21039,1.40478 -1.9375,2.10156 -1.40738,1.398564 -2.80735,2.730396 -4.20313,4.031252 C 135.52826,93.672068 136,102 136,102 h -4 c 0,0 0.43611,-5.478392 -0.28124,-4.8125 -2.64818,2.45818 -5.28309,4.97174 -7.91406,7.82812 0.15364,0.35772 0.40274,0.67625 0.625,0.98438 H 144 v -8 h 1.51562 L 148,100.48438 v 25.03124 L 147.51562,126 H 144 v -8 h -20 v 8 H 118 86 L 70,114 H 60 V 86 H 92.851564 C 93.585236,84.678548 94.15842,84.156708 95.109376,83.132812 96.38308,81.761408 100.85225,77.269108 104,74.078124 V 74 H 92 v -4 h 16 V 58 Z m 68.30469,0 -13.53907,13.679688 c -17.849232,18.028684 -17.27076,17.40082 -16.742184,18.023436 0.34008,0.400432 1.301056,0.505644 4.585944,0.507812 4.39254,0.0031 7.74218,0.27956 7.74218,0.640628 0,0.28744 -5.4088,7.779656 -9.45312,11.960936 l -3.234376,3.34375 -2.765628,-0.0781 c -4.033312,-0.118 -4.30484,0.0384 -6.03906,3.67187 -1.866116,3.90987 -4.46588,9.9004 -4.75,11.28907 -0.21304,1.04137 -0.20708,1.05223 0.945312,0.86718 1.266048,-0.20336 18.715072,-6.37897 28.093752,-11.17968 4.35714,-2.23035 5.8125,-3.13481 5.8125,-3.60157 0,-0.46237 -0.33176,-0.6746 -1.29688,-0.82812 -2.83146,-0.4499 -2.49668,-2.28712 11,-14.64844 7.52596,-6.892804 9.01941,-8.072792 8.78125,-8.679684 -0.1682,-0.4286 -0.81881,-0.536504 -3.38281,-0.562504 -1.74714,-0.0184 -4.45232,-0.13008 -6.01562,-0.25 l -2.84376,-0.21876 5.92188,-6.125 C 133.72363,73.325036 138.58059,68.7611 141.92188,65.664056 145.39432,62.445508 148,59.772688 148,59.429688 c 0,-0.346 -0.32936,-0.677852 -0.77344,-0.781252 -0.42356,-0.09868 -4.85187,-0.2846 -9.84375,-0.41406 z"
     id="path8" />
  <path
     style="fill:#ffffff;stroke-width:4"
     d="m 60,56 v 12 h 20 v 4 H 60 48 v 12 8 H 44 V 72 h -4 v 4 h -8 v 24 h 4 v 24 h 8 v -20 h 4 v 20 h 8 4 6 l 16,12 h 36 14 v -8 h 4 v 8 h 16.48438 L 160,128.48438 V 93.515624 L 150.48438,84 h -7.72657 c -0.24196,0.489304 -0.48767,0.88848 -0.70312,1.179688 -0.67906,0.91778 -1.21039,1.40478 -1.9375,2.10156 -1.40738,1.39856 -2.80825,2.727232 -4.20403,4.028088 C 135.52736,91.668904 136,100 136,100 h -4 c 0,0 0.43592,-5.47572 -0.28144,-4.809828 -2.64818,2.458184 -5.2829,4.969068 -7.91387,7.825448 0.15364,0.35772 0.40274,0.67625 0.625,0.98438 H 144 v -8 h 1.51562 L 148,98.484376 V 123.51562 L 147.51562,124 H 144 v -8 h -20 v 8 H 118 86 L 70,112 H 60 V 84 H 92.851564 C 93.585236,82.678548 94.15842,82.156708 95.109376,81.132812 96.38308,79.761408 100.85225,75.269108 104,72.078124 V 72 H 92 v -4 h 16 V 56 Z"
     id="path10" />
  <path
     style="fill:#ff6600;stroke-width:4"
     d="m 84.106516,119.04245 c 0.28412,-1.38867 2.888128,-7.38 4.754244,-11.28987 1.73422,-3.63362 2.000816,-3.79611 6.034128,-3.67812 l 2.768568,0.0811 3.236114,-3.34573 c 4.04433,-4.181282 9.45215,-11.670246 9.45215,-11.957674 0,-0.36108 -3.3519,-0.63898 -7.74444,-0.642052 -3.284884,-0.0022 -4.240364,-0.1086 -4.58044,-0.509032 -0.528576,-0.622616 -1.111072,0.0056 16.73816,-18.023084 l 13.54255,-13.67796 9.07614,0.23544 c 4.99187,0.12944 9.42267,0.31628 9.84623,0.414972 0.44408,0.1034 0.77008,0.433504 0.77008,0.779524 0,0.343 -2.60263,3.01242 -6.07507,6.230976 -3.34129,3.097044 -8.20124,7.666164 -10.79987,10.15362 l -5.92428,6.121104 2.8424,0.2178 c 1.56331,0.11992 4.27188,0.23252 6.01902,0.2508 2.564,0.026 3.2168,0.13552 3.38501,0.564116 0.23816,0.606892 -1.25879,1.783436 -8.78475,8.67624 -13.49668,12.36132 -13.83154,14.20013 -11.00008,14.65003 0.96511,0.15352 1.30086,0.3676 1.30086,0.82997 0,0.46676 -1.46122,1.37124 -5.81837,3.60159 -9.37867,4.80071 -26.822038,10.97904 -28.088086,11.18239 -1.152376,0.18504 -1.163308,0.1752 -0.950268,-0.86617 z"
     id="path12" />
  <path
     id="path944"
     style="fill:#ffffff;stroke-width:4;opacity:0.2"
     d="M 128.30664 56 L 114.76562 69.677734 C 96.916393 87.706418 97.498768 87.078556 98.027344 87.701172 C 98.060616 87.740349 98.105686 87.774868 98.152344 87.808594 C 99.018219 86.572785 102.52481 83.041615 114.76562 70.677734 L 128.30664 57 L 137.38281 57.236328 C 142.37468 57.365768 146.80691 57.551699 147.23047 57.650391 C 147.41631 57.693662 147.57193 57.783398 147.70117 57.890625 C 147.87836 57.668428 148 57.495081 148 57.429688 C 148 57.083667 147.67455 56.753791 147.23047 56.650391 C 146.80691 56.551699 142.37468 56.365768 137.38281 56.236328 L 128.30664 56 z M 126.10156 80.003906 L 125.20117 80.935547 L 128.04297 81.154297 C 129.60628 81.274217 132.31536 81.386017 134.0625 81.404297 C 135.93108 81.423245 136.77733 81.48866 137.16797 81.6875 C 137.43429 81.345553 137.51093 81.13098 137.44727 80.96875 C 137.27906 80.540154 136.6265 80.430297 134.0625 80.404297 C 132.31536 80.386017 129.60628 80.274217 128.04297 80.154297 L 126.10156 80.003906 z M 109.86914 89.630859 C 108.504 91.651401 104.25608 97.341224 100.90039 100.81055 L 97.664062 104.15625 L 94.894531 104.07422 C 90.861219 103.95623 90.595548 104.11833 88.861328 107.75195 C 86.995212 111.66182 84.391542 117.6543 84.107422 119.04297 C 83.987763 119.62788 83.946633 119.88058 84.130859 119.96289 C 84.473753 118.46914 87.02102 112.60775 88.861328 108.75195 C 90.595548 105.11833 90.861219 104.95623 94.894531 105.07422 L 97.664062 105.15625 L 100.90039 101.81055 C 104.94472 97.629269 110.35156 90.13899 110.35156 89.851562 C 110.35156 89.772555 110.16589 89.699894 109.86914 89.630859 z M 116.36328 103.66992 C 115.97312 104.74649 116.58472 105.12373 117.66211 105.29492 C 118.12958 105.36928 118.44292 105.45987 118.64844 105.58398 C 118.86322 105.39272 118.96289 105.24428 118.96289 105.125 C 118.96289 104.66263 118.62722 104.44844 117.66211 104.29492 C 117.02728 104.19405 116.56713 104.01337 116.36328 103.66992 z " />
</svg>
