<?xml version="1.0" encoding="UTF-8" standalone="no"?>
<svg
   width="192"
   height="192"
   version="1"
   id="svg22"
   sodipodi:docname="apps_robokiller.svg"
   inkscape:version="1.1.1 (1:1.1+202109281949+c3084ef5ed)"
   xmlns:inkscape="http://www.inkscape.org/namespaces/inkscape"
   xmlns:sodipodi="http://sodipodi.sourceforge.net/DTD/sodipodi-0.dtd"
   xmlns="http://www.w3.org/2000/svg"
   xmlns:svg="http://www.w3.org/2000/svg"
   xmlns:rdf="http://www.w3.org/1999/02/22-rdf-syntax-ns#"
   xmlns:cc="http://creativecommons.org/ns#"
   xmlns:dc="http://purl.org/dc/elements/1.1/">
  <metadata
     id="metadata28">
    <rdf:RDF>
      <cc:Work
         rdf:about="">
        <dc:format>image/svg+xml</dc:format>
        <dc:type
           rdf:resource="http://purl.org/dc/dcmitype/StillImage" />
      </cc:Work>
    </rdf:RDF>
  </metadata>
  <defs
     id="defs26">
    <filter
       inkscape:collect="always"
       style="color-interpolation-filters:sRGB"
       id="filter875"
       x="-0.048000001"
       width="1.096"
       y="-0.048000001"
       height="1.096">
      <feGaussianBlur
         inkscape:collect="always"
         stdDeviation="3.2"
         id="feGaussianBlur877" />
    </filter>
    <filter
       inkscape:collect="always"
       style="color-interpolation-filters:sRGB"
       id="filter3532"
       x="-0.090120968"
       y="-0.064224138"
       width="1.1802419"
       height="1.1284483">
      <feGaussianBlur
         inkscape:collect="always"
         stdDeviation="2.328125"
         id="feGaussianBlur3534" />
    </filter>
    <filter
       inkscape:collect="always"
       style="color-interpolation-filters:sRGB"
       id="filter3536"
       x="-0.108"
       y="-0.108"
       width="1.216"
       height="1.216">
      <feGaussianBlur
         inkscape:collect="always"
         stdDeviation="2.7"
         id="feGaussianBlur3538" />
    </filter>
    <filter
       inkscape:collect="always"
       style="color-interpolation-filters:sRGB"
       id="filter3540"
       x="-0.108"
       y="-0.108"
       width="1.216"
       height="1.216">
      <feGaussianBlur
         inkscape:collect="always"
         stdDeviation="1.62"
         id="feGaussianBlur3542" />
    </filter>
  </defs>
  <sodipodi:namedview
     pagecolor="#ffffff"
     bordercolor="#666666"
     borderopacity="1"
     objecttolerance="10"
     gridtolerance="10"
     guidetolerance="10"
     inkscape:pageopacity="0"
     inkscape:pageshadow="2"
     inkscape:window-width="1920"
     inkscape:window-height="1014"
     id="namedview24"
     showgrid="false"
     inkscape:zoom="1"
     inkscape:cx="12.5"
     inkscape:cy="82"
     inkscape:window-x="0"
     inkscape:window-y="34"
     inkscape:window-maximized="1"
     inkscape:current-layer="svg22"
     inkscape:pagecheckerboard="0"
     inkscape:snap-bbox="true"
     inkscape:snap-bbox-midpoints="true">
    <inkscape:grid
       type="xygrid"
       id="grid2283" />
  </sodipodi:namedview>
  <rect
     id="rect857"
     ry="8"
     rx="8"
     y="20"
     x="16"
     height="160"
     width="160"
     style="opacity:0.2;fill:#000000;stroke-width:4;filter:url(#filter875)" />
  <rect
     style="fill:#178be8;fill-opacity:1;stroke-width:4"
     width="160"
     height="160"
     x="16"
     y="16"
     rx="8"
     ry="8"
     id="rect2" />
  <path
     inkscape:connector-curvature="0"
     style="opacity:0.2;fill:#ffffff;stroke-width:4"
     d="m 24,16 c -4.432,0 -8,3.568 -8,8 v 1 c 0,-4.432 3.568,-8 8,-8 h 144 c 4.432,0 8,3.568 8,8 v -1 c 0,-4.432 -3.568,-8 -8,-8 z"
     id="path4" />
  <circle
     style="opacity:0.2;fill:#000000;fill-opacity:1;stroke-width:14.9231;stroke-linecap:round;stroke-linejoin:round;stroke-miterlimit:4;stroke-dasharray:none;filter:url(#filter3536)"
     id="circle3490"
     cx="96"
     cy="73"
     r="30" />
  <circle
     style="opacity:1;fill:#2ba7f3;fill-opacity:1;stroke-width:14.9231;stroke-linecap:round;stroke-linejoin:round;stroke-miterlimit:4;stroke-dasharray:none"
     id="path3092"
     cx="96"
     cy="71"
     r="30" />
  <circle
     style="opacity:0.2;fill:#000000;fill-opacity:1;stroke-width:8.95385;stroke-linecap:round;stroke-linejoin:round;stroke-miterlimit:4;stroke-dasharray:none;filter:url(#filter3540)"
     id="circle3492"
     cx="96"
     cy="72"
     r="18" />
  <circle
     style="opacity:1;fill:#40c3ff;fill-opacity:1;stroke-width:8.95385;stroke-linecap:round;stroke-linejoin:round;stroke-miterlimit:4;stroke-dasharray:none"
     id="circle3174"
     cx="96"
     cy="71"
     r="18" />
  <path
     id="path3494"
     style="opacity:0.2;fill:#000000;stroke-width:0.45951;stroke-linecap:round;stroke-linejoin:round;filter:url(#filter3532)"
     d="m 96,65 c -4.418278,0 -8,3.581722 -8,8 0.0076,3.080218 1.778539,5.850883 4.498047,7.173828 0,0 0.913219,0.304651 0.791015,1.167969 L 91.6875,92.359375 C 91.598209,93.75376 90.199219,94 90.199219,94 H 79 c -7.756,0 -14,5.352 -14,12 v 34 c 0,6.648 6.244,12 14,12 h 34 c 7.756,0 14,-5.352 14,-12 v -34 c 0,-6.648 -6.244,-12 -14,-12 h -11.23633 c 0,0 -1.29871,-0.26808 -1.49023,-1.621094 L 98.705078,81.304688 C 98.438421,80.442492 99.5625,80.144531 99.5625,80.144531 102.24837,78.810335 103.99249,76.057742 104,73 c 0,-4.418278 -3.58172,-8 -8,-8 z m -12.5,42 a 6.5,6.5 0 0 1 6.5,6.5 6.5,6.5 0 0 1 -6.5,6.5 6.5,6.5 0 0 1 -6.5,-6.5 6.5,6.5 0 0 1 6.5,-6.5 z m 25,0 a 6.5,6.5 0 0 1 6.5,6.5 6.5,6.5 0 0 1 -6.5,6.5 6.5,6.5 0 0 1 -6.5,-6.5 6.5,6.5 0 0 1 6.5,-6.5 z M 79,131 h 34 a 3,3 0 0 1 3,3 3,3 0 0 1 -3,3 H 79 a 3,3 0 0 1 -3,-3 3,3 0 0 1 3,-3 z" />
  <path
     id="rect947"
     style="opacity:1;fill:#ffffff;stroke-width:0.45951;stroke-linecap:round;stroke-linejoin:round"
     d="M 96 63 C 91.581722 63 88 66.581722 88 71 C 88.0076 74.080218 89.778539 76.850883 92.498047 78.173828 C 92.498047 78.173828 93.411266 78.478479 93.289062 79.341797 L 91.6875 90.359375 C 91.598209 91.75376 90.199219 92 90.199219 92 L 79 92 C 71.244 92 65 97.352 65 104 L 65 138 C 65 144.648 71.244 150 79 150 L 113 150 C 120.756 150 127 144.648 127 138 L 127 104 C 127 97.352 120.756 92 113 92 L 101.76367 92 C 101.76367 92 100.46496 91.73192 100.27344 90.378906 L 98.705078 79.304688 C 98.438421 78.442492 99.5625 78.144531 99.5625 78.144531 C 102.24837 76.810335 103.99249 74.057742 104 71 C 104 66.581722 100.41828 63 96 63 z M 83.5 105 A 6.5 6.5 0 0 1 90 111.5 A 6.5 6.5 0 0 1 83.5 118 A 6.5 6.5 0 0 1 77 111.5 A 6.5 6.5 0 0 1 83.5 105 z M 108.5 105 A 6.5 6.5 0 0 1 115 111.5 A 6.5 6.5 0 0 1 108.5 118 A 6.5 6.5 0 0 1 102 111.5 A 6.5 6.5 0 0 1 108.5 105 z M 79 129 L 113 129 A 3 3 0 0 1 116 132 A 3 3 0 0 1 113 135 L 79 135 A 3 3 0 0 1 76 132 A 3 3 0 0 1 79 129 z " />
  <path
     id="circle3544"
     style="opacity:0.2;fill:#ffffff;fill-opacity:1;stroke-width:14.9231;stroke-linecap:round;stroke-linejoin:round;stroke-miterlimit:4;stroke-dasharray:none"
     d="M 96 41 A 30 30 0 0 0 66 71 A 30 30 0 0 0 66.035156 71.5 A 30 30 0 0 1 96 42 A 30 30 0 0 1 125.98047 71.261719 A 30 30 0 0 0 126 71 A 30 30 0 0 0 96 41 z " />
  <path
     id="circle3546"
     style="opacity:0.2;fill:#ffffff;fill-opacity:1;stroke-width:8.95385;stroke-linecap:round;stroke-linejoin:round;stroke-miterlimit:4;stroke-dasharray:none"
     d="M 96 53 A 18 18 0 0 0 78 71 A 18 18 0 0 0 78.035156 71.5 A 18 18 0 0 1 96 54 A 18 18 0 0 1 113.98242 71.253906 A 18 18 0 0 0 114 71 A 18 18 0 0 0 96 53 z " />
</svg>
