<?xml version="1.0" encoding="UTF-8" standalone="no"?>
<svg
   width="192"
   height="192"
   version="1"
   id="svg28"
   sodipodi:docname="apps_rumble.svg"
   inkscape:version="1.1.1 (1:1.1+202109281949+c3084ef5ed)"
   xmlns:inkscape="http://www.inkscape.org/namespaces/inkscape"
   xmlns:sodipodi="http://sodipodi.sourceforge.net/DTD/sodipodi-0.dtd"
   xmlns:xlink="http://www.w3.org/1999/xlink"
   xmlns="http://www.w3.org/2000/svg"
   xmlns:svg="http://www.w3.org/2000/svg"
   xmlns:rdf="http://www.w3.org/1999/02/22-rdf-syntax-ns#"
   xmlns:cc="http://creativecommons.org/ns#"
   xmlns:dc="http://purl.org/dc/elements/1.1/">
  <metadata
     id="metadata34">
    <rdf:RDF>
      <cc:Work
         rdf:about="">
        <dc:format>image/svg+xml</dc:format>
        <dc:type
           rdf:resource="http://purl.org/dc/dcmitype/StillImage" />
      </cc:Work>
    </rdf:RDF>
  </metadata>
  <defs
     id="defs32">
    <clipPath
       id="si2">
      <use
         xlink:href="#si1"
         overflow="visible"
         id="use13"
         x="0"
         y="0"
         width="100%"
         height="100%" />
    </clipPath>
    <linearGradient
       inkscape:collect="always"
       xlink:href="#si5"
       id="linearGradient983"
       gradientUnits="userSpaceOnUse"
       gradientTransform="matrix(-0.5069,0.8385,-0.8387,-0.511,262.6,-387.1)"
       x1="488.29999"
       y1="8.8000002"
       x2="491.60001"
       y2="-7.0999999" />
    <linearGradient
       id="si5"
       gradientUnits="userSpaceOnUse"
       x1="488.29999"
       y1="8.8000002"
       x2="491.60001"
       y2="-7.0999999"
       gradientTransform="matrix(-0.5069,0.8385,-0.8387,-0.511,262.6,-387.1)">
      <stop
         offset=".3"
         stop-color="#74a441"
         stop-opacity="0"
         id="stop30" />
      <stop
         offset="1"
         stop-color="#4c771f"
         id="stop32" />
    </linearGradient>
    <linearGradient
       inkscape:collect="always"
       xlink:href="#si3"
       id="linearGradient985"
       gradientUnits="userSpaceOnUse"
       gradientTransform="matrix(0.9939,0.02784,-0.01545,0.9862,-2.9,-4.7)"
       x1="25.299999"
       y1="27.799999"
       x2="30.1"
       y2="14.6" />
    <linearGradient
       id="si3"
       gradientUnits="userSpaceOnUse"
       x1="25.299999"
       y1="27.799999"
       x2="30.1"
       y2="14.6"
       gradientTransform="matrix(0.9939,0.02784,-0.01545,0.9862,-2.9,-4.7)">
      <stop
         offset=".3"
         stop-color="#74a441"
         stop-opacity="0"
         id="stop16" />
      <stop
         offset="1"
         stop-color="#4c771f"
         id="stop18" />
    </linearGradient>
    <linearGradient
       inkscape:collect="always"
       xlink:href="#si7"
       id="linearGradient981"
       gradientUnits="userSpaceOnUse"
       x1="21.6"
       y1="8"
       x2="5.9000001"
       y2="13.8" />
    <linearGradient
       id="si7"
       gradientUnits="userSpaceOnUse"
       x1="21.6"
       y1="8"
       x2="5.9000001"
       y2="13.8">
      <stop
         offset=".3"
         stop-color="#74a441"
         stop-opacity="0"
         id="stop44" />
      <stop
         offset="1"
         stop-color="#4c771f"
         id="stop46" />
    </linearGradient>
    <filter
       inkscape:collect="always"
       style="color-interpolation-filters:sRGB"
       id="filter1856"
       x="-0.074604363"
       y="-0.075399853"
       width="1.1492087"
       height="1.1507997">
      <feGaussianBlur
         inkscape:collect="always"
         stdDeviation="4.2567249"
         id="feGaussianBlur1858" />
    </filter>
    <filter
       inkscape:collect="always"
       style="color-interpolation-filters:sRGB"
       id="filter1898"
       x="-0.085835754"
       y="-0.06659337"
       width="1.1716715"
       height="1.1331867">
      <feGaussianBlur
         inkscape:collect="always"
         stdDeviation="3.836282"
         id="feGaussianBlur1900" />
    </filter>
    <filter
       inkscape:collect="always"
       style="color-interpolation-filters:sRGB"
       id="filter1940"
       x="-0.075239436"
       y="-0.074762083"
       width="1.1504789"
       height="1.1495242">
      <feGaussianBlur
         inkscape:collect="always"
         stdDeviation="4.1152739"
         id="feGaussianBlur1942" />
    </filter>
    <filter
       inkscape:collect="always"
       style="color-interpolation-filters:sRGB"
       id="filter1982"
       x="-0.11067326"
       y="-0.10545283"
       width="1.2213465"
       height="1.2109057">
      <feGaussianBlur
         inkscape:collect="always"
         stdDeviation="4.6575"
         id="feGaussianBlur1984" />
    </filter>
  </defs>
  <sodipodi:namedview
     pagecolor="#ffffff"
     bordercolor="#666666"
     borderopacity="1"
     objecttolerance="10"
     gridtolerance="10"
     guidetolerance="10"
     inkscape:pageopacity="0"
     inkscape:pageshadow="2"
     inkscape:window-width="1920"
     inkscape:window-height="1016"
     id="namedview30"
     showgrid="false"
     inkscape:zoom="1"
     inkscape:cx="147.5"
     inkscape:cy="119.5"
     inkscape:window-x="0"
     inkscape:window-y="32"
     inkscape:window-maximized="1"
     inkscape:current-layer="svg28"
     inkscape:pagecheckerboard="0"
     inkscape:snap-global="true"
     showguides="false">
    <inkscape:grid
       type="xygrid"
       id="grid841" />
  </sodipodi:namedview>
  <path
     id="path1860"
     style="opacity:0.2;fill:#000000;fill-opacity:1;stroke-width:7.00937;filter:url(#filter1898)"
     d="m 51.511806,26.773268 c -5.148357,0.03397 -9.264664,0.731311 -11.964315,2.182528 -27.439405,13.72505 -26.624416,121.467644 -2.162225,132.864834 3.560949,1.75286 7.796221,2.98373 12.533784,3.17959 5.486849,0.22684 11.647436,-0.82549 18.214508,-2.32112 27.486767,-6.65068 49.265462,-30.72566 58.130332,-39.40555 0,0 -40.254793,27.66454 -53.555427,26.75189 -3.992759,-0.27397 -7.591897,-1.22228 -10.654609,-2.96329 C 43.299409,136.97144 29.948252,56.315358 53.885444,26.830957 53.08939,26.80782 52.265157,26.768291 51.511806,26.773268 Z"
     sodipodi:nodetypes="sccsccsccs" />
  <path
     id="path1244"
     style="fill:#487815;fill-opacity:1;stroke-width:6.50367"
     d="m 69.338755,16.817453 c -2.830603,0.09971 -5.157013,0.640206 -6.84491,1.688026 -3.074145,1.775733 -5.754158,4.166264 -8.084352,7.036339 -0.787487,-0.02296 -1.602172,-0.06097 -2.34738,-0.05606 -5.096863,0.03365 -9.172527,0.723117 -11.84518,2.159821 -27.164981,13.58778 -26.358023,120.253181 -2.140487,131.536371 3.487272,1.71665 7.653282,2.58323 12.282181,2.7902 2.787333,5.2099 5.885476,8.99045 9.145883,10.71979 26.801926,15.01916 113.15529,-41.30463 113.82091,-66.08823 -0.0892,-5.04565 -2.22077,-10.216329 -5.77956,-15.333306 2.50464,-4.058298 3.9748,-7.801351 4.05859,-10.969264 C 171.18594,56.208548 96.70123,15.853704 69.338755,16.817453 Z M 52.992172,27.47541 c -0.284008,0.400559 -0.576682,0.78851 -0.848845,1.204627 0.272188,-0.416201 0.56481,-0.803985 0.848845,-1.204627 z m -2.04767,3.192358 c -0.256626,0.443154 -0.518867,0.880358 -0.76377,1.338046 0.244948,-0.45778 0.507096,-0.894804 0.76377,-1.338046 z m -1.823377,3.464996 c -0.230968,0.485945 -0.461384,0.971885 -0.680624,1.471465 0.219262,-0.499593 0.449634,-0.985505 0.680624,-1.471465 z m -1.612616,3.731832 c -0.201008,0.515775 -0.398049,1.03636 -0.587814,1.564276 0.18986,-0.528112 0.386702,-1.048314 0.587814,-1.564276 z m -1.407652,3.981266 c -0.169135,0.532579 -0.330472,1.073591 -0.489206,1.616482 0.158838,-0.543145 0.319957,-1.083659 0.489206,-1.616482 z m -1.198834,4.172688 c -0.1404,0.548381 -0.267638,1.107716 -0.398316,1.664821 0.130706,-0.557069 0.257889,-1.116476 0.398316,-1.664821 z m -1.001594,4.367986 c -0.104758,0.51784 -0.193038,1.047967 -0.290041,1.572008 0.0971,-0.52424 0.185197,-1.053974 0.290041,-1.572008 z m -0.812114,4.543937 c -0.05595,0.362255 -0.09829,0.733628 -0.150813,1.098282 0.05265,-0.364739 0.09477,-0.735946 0.150813,-1.098282 z m -1.268433,13.047878 c -0.01253,0.271079 -0.03349,0.53853 -0.04444,0.810175 0.01097,-0.271535 0.0319,-0.539204 0.04444,-0.810175 z" />
  <path
     d="m 59.029506,45.520578 c -36.183074,20.603609 -21.488036,119.549382 0,130.946572 C 86.102188,191.63803 173.32766,134.74397 174,109.71007 173.38455,74.787697 78.000891,33.910857 59.029506,45.520578 Z"
     id="path1818"
     style="opacity:0.2;fill:#000000;fill-opacity:1;stroke-width:6.56944;filter:url(#filter1856)"
     sodipodi:nodetypes="cccc" />
  <path
     d="m 59.029506,42.520583 c -36.183074,20.603609 -21.488036,119.549387 0,130.946577 C 86.102188,188.63804 173.32766,131.74398 174,106.71008 173.38455,71.787702 78.000891,30.910862 59.029506,42.520583 Z"
     id="path1470"
     style="fill:#79ca22;fill-opacity:1;stroke-width:6.56944"
     sodipodi:nodetypes="cccc" />
  <g
     class="st2"
     clip-path="url(#si2)"
     id="g963"
     transform="matrix(4.9202635,0,0,4.9227005,3.9804717,10.606371)">
    <linearGradient
       id="linearGradient953"
       gradientUnits="userSpaceOnUse"
       x1="488.29999"
       y1="8.8000002"
       x2="491.60001"
       y2="-7.0999999"
       gradientTransform="matrix(-0.5069,0.8385,-0.8387,-0.511,262.6,-387.1)">
      <stop
         offset=".3"
         stop-color="#74a441"
         stop-opacity="0"
         id="stop949" />
      <stop
         offset="1"
         stop-color="#4c771f"
         id="stop951" />
    </linearGradient>
    <path
       d="M 11.5,26.6 C 10,25.7 9.3,22.9 8.8,20 l -5.7,2.7 c 0.5,4 1.5,6.5 3.4,7.6 0.5,0.3 1.2,0.5 1.8,0.6 5.4,0.8 13.4,-4.8 17.6,-9.4 -3.9,4 -11.2,7 -14.4,5.1 z"
       fill="url(#si5)"
       id="path955"
       style="fill:url(#linearGradient983)" />
    <linearGradient
       id="linearGradient961"
       gradientUnits="userSpaceOnUse"
       x1="478.70001"
       y1="-9.6000004"
       x2="478.70001"
       y2="-9.6000004"
       gradientTransform="matrix(-0.5069,0.8385,-0.8387,-0.511,262.6,-387.1)">
      <stop
         offset=".3"
         stop-color="#74a441"
         stop-opacity="0"
         id="stop957" />
      <stop
         offset="1"
         stop-color="#4c771f"
         id="stop959" />
    </linearGradient>
  </g>
  <g
     class="st2"
     clip-path="url(#si2)"
     id="g947"
     transform="matrix(4.9202635,0,0,4.9227005,3.9804717,10.606371)">
    <linearGradient
       id="linearGradient937"
       gradientUnits="userSpaceOnUse"
       x1="25.299999"
       y1="27.799999"
       x2="30.1"
       y2="14.6"
       gradientTransform="matrix(0.9939,0.02784,-0.01545,0.9862,-2.9,-4.7)">
      <stop
         offset=".3"
         stop-color="#74a441"
         stop-opacity="0"
         id="stop933" />
      <stop
         offset="1"
         stop-color="#4c771f"
         id="stop935" />
    </linearGradient>
    <path
       d="m 28.7,17.1 c 0,1.8 -2.1,3.8 -4.4,5.7 l 5.3,3.6 C 32.8,24 34.5,21.9 34.5,19.6 34.5,19 34.4,18.3 34.1,17.7 31.9,12.6 23,8.4 16.8,7 c 5.6,1.6 12,6.4 11.9,10.1 z"
       fill="url(#si3)"
       id="path939"
       style="fill:url(#linearGradient985)" />
    <linearGradient
       id="linearGradient945"
       gradientUnits="userSpaceOnUse"
       x1="16.799999"
       y1="10.8"
       x2="16.799999"
       y2="10.8"
       gradientTransform="matrix(0.9939,0.02784,-0.01545,0.9862,-2.9,-4.7)">
      <stop
         offset=".3"
         stop-color="#74a441"
         stop-opacity="0"
         id="stop941" />
      <stop
         offset="1"
         stop-color="#4c771f"
         id="stop943" />
    </linearGradient>
  </g>
  <g
     class="st2"
     clip-path="url(#si2)"
     id="g979"
     transform="matrix(4.9202635,0,0,4.9227005,3.9804717,10.606371)">
    <linearGradient
       id="linearGradient969"
       gradientUnits="userSpaceOnUse"
       x1="21.6"
       y1="8"
       x2="5.9000001"
       y2="13.8">
      <stop
         offset=".3"
         stop-color="#74a441"
         stop-opacity="0"
         id="stop965" />
      <stop
         offset="1"
         stop-color="#4c771f"
         id="stop967" />
    </linearGradient>
    <path
       d="m 11.9,7 c 1.6,-0.9 4.2,-0.5 6.9,0.5 L 19.6,2.4 C 16,0.8 13.3,0.5 11.4,1.5 10.8,1.8 10.4,2.2 9.9,2.8 6.6,7.2 7.4,16.8 9.2,22.8 7.8,17.2 8.7,8.8 11.9,7 Z"
       fill="url(#si7)"
       id="path971"
       style="fill:url(#linearGradient981)" />
    <linearGradient
       id="linearGradient977"
       gradientUnits="userSpaceOnUse"
       x1="10.2"
       y1="25.6"
       x2="10.2"
       y2="25.6">
      <stop
         offset=".3"
         stop-color="#fff"
         stop-opacity="0"
         id="stop973" />
      <stop
         offset="1"
         stop-color="#ababab"
         id="stop975" />
    </linearGradient>
  </g>
  <path
     d="m 62.049628,19.72375 c -34.685451,20.035573 -20.598643,116.25342 0,127.33639 C 91.697261,163.91349 171.61696,106.48728 172.26147,82.143548 171.79493,55.290069 80.235783,8.4341073 62.049628,19.72375 Z"
     id="path1902"
     style="opacity:0.2;fill:#000000;fill-opacity:1;stroke-width:6.34276;filter:url(#filter1940)"
     sodipodi:nodetypes="cccc" />
  <path
     d="m 62.049628,17.723592 c -34.685451,20.035573 -20.598643,116.253418 0,127.336388 C 91.697261,161.91333 171.61696,104.48712 172.26147,80.14339 171.79493,53.289911 80.235783,6.4339494 62.049628,17.723592 Z"
     id="path1029"
     style="fill:#6ab21f;fill-opacity:1;stroke-width:6.34276"
     sodipodi:nodetypes="cccc" />
  <path
     id="path19433"
     style="fill:#79ca22;fill-opacity:1;stroke-width:6.56944"
     d="m 91.162207,45.848358 v 0.10574 c 25.602163,8.225065 55.506723,30.632606 55.506723,48.342455 -0.34191,13.341707 -29.90247,39.267207 -55.506723,49.390457 v 28.34398 C 126.84076,160.25438 173.50829,124.99698 173.99946,106.70907 173.79645,95.190402 163.28009,83.025016 148.60052,72.307849 133.97629,61.631083 112.64626,53.170964 95.823005,47.444367 94.151365,46.875342 92.690214,46.376136 91.162207,45.848334 Z" />
  <path
     id="path1802"
     style="fill:#689d36;fill-opacity:1;stroke-width:7.00937"
     d="m 51.511806,24.773047 c -5.148357,0.03397 -9.264664,0.731311 -11.964315,2.182528 -27.439405,13.72505 -26.624416,121.467645 -2.162225,132.864835 3.560949,1.75286 7.796221,2.98373 12.533784,3.17959 5.486849,0.22684 11.647436,-0.82549 18.214508,-2.32112 27.486767,-6.65068 49.265462,-30.72566 58.130332,-39.40555 0,0 -40.254793,27.66454 -53.555427,26.75189 -3.992759,-0.27397 -7.591897,-1.22228 -10.654609,-2.96329 C 43.299409,134.97122 29.948252,54.315137 53.885444,24.830736 53.08939,24.807599 52.265157,24.76807 51.511806,24.773047 Z"
     sodipodi:nodetypes="sccsccsccs" />
  <path
     id="path2205"
     style="opacity:0.1;fill:#ffffff;fill-opacity:1;stroke-width:7.00937"
     d="m 51.511719,24.773438 c -5.148357,0.03397 -9.265193,0.730423 -11.964844,2.18164 -13.828599,6.916995 -20.471138,37.713003 -20.537109,68.021484 0.208775,-29.982428 6.860787,-60.180658 20.537109,-67.021484 2.699651,-1.451217 6.816487,-2.14767 11.964844,-2.18164 0.524552,-0.0035 1.092501,0.01993 1.652343,0.03906 0.244268,-0.322299 0.468173,-0.67137 0.720704,-0.982422 -0.796054,-0.02314 -1.619696,-0.06162 -2.373047,-0.05664 z"
     sodipodi:nodetypes="ccccsccc" />
  <path
     d="m 62.648352,46.360222 c -22.197803,12.404055 -22.197803,88.813028 0,101.217098 C 85.339438,160.97369 146.50672,115.32676 147,95.976444 147,70.176008 84.35287,34.452329 62.648352,46.360222 Z"
     id="path1944"
     style="opacity:0.2;fill:#000000;stroke-width:4.94721;filter:url(#filter1982)" />
  <path
     d="m 62.648352,44.36022 c -22.197803,12.404055 -22.197803,88.81303 0,101.2171 C 85.339438,158.97369 146.50672,113.32676 147,93.976442 147,68.176006 84.35287,32.452327 62.648352,44.36022 Z"
     id="path991"
     style="fill:#ffffff;stroke-width:4.94721" />
  <path
     d="m 75.520581,70.160823 c -11.360774,6.337947 -11.360774,43.878097 0,49.728507 C 86.881356,126.22727 118,103.80069 118,94.05001 118,81.861649 86.387409,64.31041 75.520581,70.160823 Z"
     id="path931"
     style="fill:#83db26;fill-opacity:1;stroke-width:4.9073" />
  <path
     id="path1986"
     style="opacity:0.2;fill:#ffffff;fill-opacity:1;stroke-width:6.56944"
     d="m 91.162109,45.847656 v 0.105469 c 4.928216,1.583261 10.012551,3.70156 15.015621,6.201172 14.59959,5.44967 30.66439,12.570462 42.42188,21.154297 14.43302,10.537168 24.81891,22.472374 25.35742,33.818356 0.009,-0.13729 0.0393,-0.28252 0.043,-0.41797 C 173.79699,95.190316 163.27918,83.025761 148.59961,72.308594 133.97538,61.631828 112.64552,53.171909 95.822266,47.445312 c -1.67164,-0.569024 -3.13215,-1.069854 -4.660157,-1.597656 z"
     sodipodi:nodetypes="cccsccssc" />
  <path
     id="path2164"
     style="fill:#ffffff;fill-opacity:1;stroke-width:6.34276;opacity:0.1"
     d="M 68.962891 16.017578 C 66.103694 16.118283 63.75378 16.664252 62.048828 17.722656 C 46.757724 26.555352 40.954226 50.195216 41 74.818359 C 41.112404 50.55838 46.965317 27.437392 62.048828 18.724609 C 80.118452 7.5073068 170.60982 53.688175 172.22656 80.621094 C 172.23718 80.462326 172.25759 80.298654 172.26172 80.142578 C 171.83892 55.806613 96.601787 15.044093 68.962891 16.017578 z " />
</svg>
