<?xml version="1.0" encoding="UTF-8" standalone="no"?>
<svg
   width="192"
   height="192"
   version="1"
   id="svg12"
   sodipodi:docname="apps_songkick.svg"
   inkscape:version="1.1-rc (1:1.1+rc+202105232036+f4db50c7c1)"
   xmlns:inkscape="http://www.inkscape.org/namespaces/inkscape"
   xmlns:sodipodi="http://sodipodi.sourceforge.net/DTD/sodipodi-0.dtd"
   xmlns="http://www.w3.org/2000/svg"
   xmlns:svg="http://www.w3.org/2000/svg">
  <defs
     id="defs16">
    <filter
       inkscape:collect="always"
       style="color-interpolation-filters:sRGB"
       id="filter963"
       x="-0.048000001"
       y="-0.048000001"
       width="1.096"
       height="1.096">
      <feGaussianBlur
         inkscape:collect="always"
         stdDeviation="3.2"
         id="feGaussianBlur965" />
    </filter>
    <filter
       inkscape:collect="always"
       style="color-interpolation-filters:sRGB"
       id="filter967"
       x="-0.046546543"
       y="-0.049547152"
       width="1.0930931"
       height="1.0990943">
      <feGaussianBlur
         inkscape:collect="always"
         stdDeviation="2.560037"
         id="feGaussianBlur969" />
    </filter>
  </defs>
  <sodipodi:namedview
     id="namedview14"
     pagecolor="#ffffff"
     bordercolor="#666666"
     borderopacity="1.0"
     inkscape:pageshadow="2"
     inkscape:pageopacity="0.0"
     inkscape:pagecheckerboard="0"
     showgrid="false"
     inkscape:zoom="2.86"
     inkscape:cx="101.22378"
     inkscape:cy="97.552448"
     inkscape:window-width="1920"
     inkscape:window-height="1014"
     inkscape:window-x="0"
     inkscape:window-y="34"
     inkscape:window-maximized="1"
     inkscape:current-layer="svg12" />
  <rect
     fill="#e73c4f"
     width="160"
     height="160"
     x="16"
     y="20"
     rx="64"
     ry="64"
     id="rect925"
     style="opacity:0.2;fill:#000000;stroke-width:4;filter:url(#filter963)" />
  <rect
     fill="#e73c4f"
     width="160"
     height="160"
     x="16"
     y="16"
     rx="64"
     ry="64"
     id="rect2"
     style="stroke-width:4" />
  <path
     opacity="0.2"
     d="m 96,19.9972 0.07812,61.92 0.08592,61.928 h 19.3828 l 0.0469,-16.2892 c 0.0352,-12.8928 0.0811,-16.2664 0.25,-16.2108 0.11744,0.04 3.2774,4.9792 7.0236,10.9688 3.746,5.9896 7.2836,11.5588 7.8592,12.3908 1.191,1.71992 3.53368,4.0936 5.0548,5.1172 3.18328,2.14232 6.5012,3.24892 11.6248,3.85936 2.74328,0.32692 12.012,0.43808 12.2968,0.14844 0.12452,-0.1264 0.17088,-3.07092 0.14064,-9.336 l -0.0469,-9.1484 -3.42968,-0.10936 c -3.88192,-0.1252 -4.7168,-0.28876 -6.9296,-1.39064 -1.71888,-0.85592 -3.71972,-2.7024 -5.1952,-4.8048 -0.52544,-0.74864 -3.17248,-4.9604 -5.8828,-9.3516 -4.7788,-7.7424 -4.9204,-7.9928 -4.664,-8.3908 0.14532,-0.22568 6.1064,-8.6756 13.242,-18.7736 7.132,-10.092 13.012,-18.46 13.06,-18.588 0.0758,-0.20096 -1.75384,-0.2422 -11.492,-0.2422 h -11.586 L 126.4742,78.468 c -5.7456,8.1252 -10.5384,14.8064 -10.6484,14.8436 -0.22228,0.07536 -0.26084,-62.992 -0.0781,-73.08 -1.54008,-0.113708 -3.07876,-0.234376 -4.6484,-0.234376 H 95.9977 Z m -35.6,44 c -2.49088,0.018 -4.9248,0.12208 -6.0936,0.31248 -9.6068,1.56524 -16.4056,5.9936 -20.086,13.086 -1.16552,2.24608 -1.88404,4.4184 -2.33592,7.0624 -0.300976,1.7606 -0.32914,2.51396 -0.25,5.3752 0.06472,2.3356 0.185812,3.811 0.42188,4.9532 1.61304,7.8016 6.22,12.7496 14.25,15.328 2.59148,0.83212 4.2132,1.14844 11.1484,2.14064 3.85396,0.55136 6.7896,1.04964 7.4064,1.26564 2.65268,0.92912 3.89852,2.60712 4.1248,5.5548 0.27876,3.62864 -1.79024,6.1172 -5.9452,7.1484 -1.66612,0.41348 -4.714,0.6438 -6.8592,0.52344 -7.0496,-0.39556 -11.648,-1.88752 -15.6328,-5.0704 l -0.46876,-0.375 -6.0392,6.0468 c -3.3228,3.332 -6.04,6.188 -6.04,6.348 0,0.4072 2.78636,2.81284 4.922,4.25 5.39,3.62752 11.116,5.3296 20.1876,6.008 1.90564,0.14264 8.9268,-0.0603 10.5548,-0.30468 12.2036,-1.83176 20.6308,-8.0968 23.3908,-17.4064 1.28256,-4.3268 1.25624,-10.8632 -0.06252,-15.7108 -0.96816,-3.55892 -2.22892,-5.7924 -4.6796,-8.2656 -2.55716,-2.5808 -4.7644,-3.90944 -8.6248,-5.2032 -2.60536,-0.87304 -4.792,-1.29732 -11.742,-2.27344 -7.414,-1.04128 -8.2932,-1.2988 -9.9844,-2.8828 -1.91672,-1.79544 -2.25252,-4.1844 -0.96876,-6.7968 0.90776,-1.84736 2.76872,-3.19048 5.4376,-3.92188 1.39368,-0.38196 6.9704,-0.42204 9.1952,-0.07032 2.9882,0.47232 5.7868,1.64028 7.7812,3.2578 0.58004,0.47036 1.15944,0.85936 1.28124,0.85936 0.3306,0 11.8828,-11.636 11.8828,-11.9688 0,-0.38664 -2.23828,-2.28608 -4.4064,-3.7422 -4.1816,-2.80864 -9.148,-4.5252 -15.3436,-5.2968 -1.38188,-0.17208 -3.931,-0.24436 -6.422,-0.22656 z"
     id="path4"
     style="stroke-width:4;filter:url(#filter967)" />
  <path
     fill="#ffffff"
     d="m 96,16 0.07812,61.92 0.08592,61.928 h 19.3828 l 0.0469,-16.2892 c 0.0352,-12.8928 0.0811,-16.2664 0.25,-16.2108 0.11744,0.04 3.2774,4.9792 7.0236,10.9688 3.746,5.9896 7.2836,11.5588 7.8592,12.3908 1.191,1.71992 3.53368,4.0936 5.0548,5.1172 3.18328,2.14232 6.5012,3.24892 11.6248,3.85936 2.74328,0.32692 12.012,0.43808 12.2968,0.14844 0.12452,-0.1264 0.17088,-3.07092 0.14064,-9.336 l -0.0469,-9.1484 -3.42968,-0.10936 c -3.88192,-0.1252 -4.7168,-0.28876 -6.9296,-1.39064 -1.72,-0.852 -3.724,-2.7 -5.196,-4.8 -0.528,-0.748 -3.176,-4.96 -5.884,-9.352 -4.78,-7.744 -4.92,-7.992 -4.664,-8.392 0.14532,-0.22568 6.1064,-8.6756 13.242,-18.7736 7.136,-10.1 13.016,-18.464 13.064,-18.596 0.0758,-0.20096 -1.75384,-0.2422 -11.492,-0.2422 h -11.586 L 126.4762,74.466 c -5.7456,8.1252 -10.5384,14.8064 -10.6484,14.8436 -0.224,0.08 -0.26,-62.988 -0.076,-73.072 -1.544,-0.1152 -3.08,-0.236 -4.652,-0.236 h -15.1 z M 60.3984,60 c -2.49088,0.018 -4.9248,0.12212 -6.0936,0.31252 -9.6068,1.56524 -16.4056,5.9936 -20.086,13.086 -1.16552,2.24608 -1.88404,4.4184 -2.33592,7.0624 -0.300976,1.7606 -0.32914,2.51396 -0.25,5.3752 0.06472,2.3356 0.185812,3.811 0.42188,4.9532 1.61304,7.8016 6.22,12.7496 14.25,15.328 2.59148,0.83212 4.2132,1.14844 11.1484,2.14064 3.85396,0.55136 6.7896,1.04964 7.4064,1.26564 2.65268,0.92912 3.89852,2.60712 4.1248,5.5548 0.27876,3.62864 -1.79024,6.1172 -5.9452,7.1484 -1.66612,0.41348 -4.714,0.6438 -6.8592,0.52344 -7.0496,-0.39556 -11.648,-1.88752 -15.6328,-5.0704 l -0.46876,-0.375 -6.0392,6.0468 c -3.3228,3.328 -6.04,6.184 -6.04,6.348 0,0.4072 2.78636,2.81284 4.922,4.25 5.39,3.62752 11.116,5.3296 20.1876,6.008 1.90564,0.14264 8.9268,-0.0603 10.5548,-0.30468 12.2036,-1.83176 20.6308,-8.0968 23.3908,-17.4064 1.28256,-4.3268 1.25624,-10.8632 -0.06252,-15.7108 -0.96816,-3.55892 -2.22892,-5.7924 -4.6796,-8.2656 -2.55716,-2.5808 -4.7644,-3.90944 -8.6248,-5.2032 -2.60536,-0.87304 -4.792,-1.29732 -11.742,-2.27344 -7.414,-1.04128 -8.2932,-1.2988 -9.9844,-2.8828 -1.91672,-1.79544 -2.25252,-4.1844 -0.96876,-6.7968 0.90776,-1.84736 2.76872,-3.19048 5.4376,-3.92188 1.39368,-0.38196 6.9704,-0.42204 9.1952,-0.07032 2.9882,0.47232 5.7868,1.64028 7.7812,3.2578 0.58004,0.47036 1.15944,0.85936 1.28124,0.85936 0.3306,0 11.8828,-11.636 11.8828,-11.9688 0,-0.38664 -2.23828,-2.28608 -4.4064,-3.7422 -4.18,-2.808 -9.148,-4.524 -15.344,-5.296 -1.38,-0.172 -3.932,-0.244 -6.42,-0.228 z"
     id="path6"
     style="stroke-width:4" />
  <path
     id="path8"
     style="stroke-width:4;fill:#ffffff;opacity:0.2"
     d="M 80 16 C 44.544 16 16 44.544 16 80 L 16 81 C 16 45.544 44.544 17 80 17 L 112 17 C 147.456 17 176 45.544 176 81 L 176 80 C 176 44.544 147.456 16 112 16 L 80 16 z " />
</svg>
