<?xml version="1.0" encoding="UTF-8" standalone="no"?>
<svg
   width="192"
   height="192"
   version="1"
   id="svg28"
   sodipodi:docname="apps_rosnalog.svg"
   inkscape:version="1.1.1 (1:1.1+202109281949+c3084ef5ed)"
   xmlns:inkscape="http://www.inkscape.org/namespaces/inkscape"
   xmlns:sodipodi="http://sodipodi.sourceforge.net/DTD/sodipodi-0.dtd"
   xmlns="http://www.w3.org/2000/svg"
   xmlns:svg="http://www.w3.org/2000/svg"
   xmlns:rdf="http://www.w3.org/1999/02/22-rdf-syntax-ns#"
   xmlns:cc="http://creativecommons.org/ns#"
   xmlns:dc="http://purl.org/dc/elements/1.1/">
  <metadata
     id="metadata34">
    <rdf:RDF>
      <cc:Work
         rdf:about="">
        <dc:format>image/svg+xml</dc:format>
        <dc:type
           rdf:resource="http://purl.org/dc/dcmitype/StillImage" />
      </cc:Work>
    </rdf:RDF>
  </metadata>
  <defs
     id="defs32">
    <filter
       inkscape:collect="always"
       style="color-interpolation-filters:sRGB"
       id="filter6495"
       x="-0.048000001"
       y="-0.048000001"
       width="1.096"
       height="1.096">
      <feGaussianBlur
         inkscape:collect="always"
         stdDeviation="3.2"
         id="feGaussianBlur6497" />
    </filter>
    <filter
       inkscape:collect="always"
       style="color-interpolation-filters:sRGB"
       id="filter14490"
       x="-0.056617647"
       y="-0.11105769"
       width="1.1132353"
       height="1.2221154">
      <feGaussianBlur
         inkscape:collect="always"
         stdDeviation="2.40625"
         id="feGaussianBlur14492" />
    </filter>
  </defs>
  <sodipodi:namedview
     pagecolor="#ffffff"
     bordercolor="#666666"
     borderopacity="1"
     objecttolerance="10"
     gridtolerance="10"
     guidetolerance="10"
     inkscape:pageopacity="0"
     inkscape:pageshadow="2"
     inkscape:window-width="1920"
     inkscape:window-height="1022"
     id="namedview30"
     showgrid="false"
     inkscape:zoom="1"
     inkscape:cx="82"
     inkscape:cy="59"
     inkscape:window-x="0"
     inkscape:window-y="34"
     inkscape:window-maximized="1"
     inkscape:current-layer="svg28"
     inkscape:pagecheckerboard="0"
     inkscape:snap-global="true"
     showguides="false"
     inkscape:snap-bbox="true"
     inkscape:snap-bbox-midpoints="true">
    <inkscape:grid
       type="xygrid"
       id="grid841" />
  </sodipodi:namedview>
  <rect
     id="rect6457"
     transform="matrix(0,-1,-1,0,0,0)"
     ry="12"
     rx="12"
     y="-176"
     x="-180"
     height="160"
     width="160"
     style="opacity:0.2;fill:#000000;fill-opacity:1;stroke-width:4;filter:url(#filter6495)" />
  <rect
     id="rect2"
     transform="matrix(0,-1,-1,0,0,0)"
     ry="12"
     rx="12"
     y="-176"
     x="-176"
     height="160"
     width="160"
     style="fill:#0081d8;fill-opacity:1;stroke-width:4" />
  <path
     id="rect6416"
     style="opacity:0.2;fill:#ffffff;fill-opacity:1;stroke-width:4"
     d="m 28,16 c -6.648,0 -12,5.352 -12,12 v 1 c 0,-6.648 5.352,-12 12,-12 h 136 c 6.648,0 12,5.352 12,12 v -1 c 0,-6.648 -5.352,-12 -12,-12 z" />
  <path
     style="fill:#005b9b;stroke-width:0.223335;fill-opacity:1"
     d="m 94.321392,165.14246 c -1.731302,-1.10551 -3.167251,-2.67814 -3.353646,-3.67288 -0.350746,-1.87183 0.726598,-8.2799 2.165385,-12.87978 0.813417,-2.60051 0.961359,-3.44044 0.691169,-3.92383 -0.175187,-0.3134 -0.332612,-0.21543 -1.037286,0.64555 -1.830636,2.23668 -3.619338,5.76078 -4.603863,9.07053 -0.538028,1.80872 -1.115135,4.90447 -1.115583,5.98429 -1.86e-4,0.448 -0.13159,0.78373 -0.337763,0.86293 -0.566467,0.21764 -2.672361,-0.9798 -3.74811,-2.13122 -1.789728,-1.91562 -1.818708,-3.25386 -0.148969,-6.87811 1.034029,-2.2444 1.861688,-3.46601 3.632003,-5.36071 1.568828,-1.67904 3.281687,-3.04903 5.273043,-4.21752 0.972671,-0.57073 1.350045,-0.91438 1.260539,-1.1479 -0.07028,-0.18331 -0.127745,-0.37536 -0.127745,-0.42676 0,-0.54786 -3.183874,0.82071 -5.643351,2.42576 -4.573446,2.98463 -8.264529,7.58559 -9.43446,11.76011 -0.443528,1.58257 -0.618388,1.64384 -2.243047,0.78595 -1.411403,-0.74528 -2.213601,-1.51734 -2.768065,-2.66405 -0.661387,-1.36784 -0.572301,-2.25309 0.390748,-3.88296 2.255442,-3.8171 8.339242,-7.81969 15.468214,-10.17669 3.431393,-1.1345 3.298132,-0.91582 2.068533,-3.39439 -2.343754,-4.72441 -6.108869,-7.4597 -9.054211,-6.5777 -2.219891,0.66475 -3.169108,2.07435 -2.995835,4.44883 0.05955,0.81581 0.179302,1.81103 0.266167,2.2116 0.232596,1.07265 -0.147989,1.39444 -1.650494,1.39552 -1.760375,9.3e-4 -5.152372,0.57858 -7.388671,1.25755 -1.999999,0.60723 -4.916025,1.96699 -4.916025,2.29236 0,0.10626 0.854344,0.96974 1.898546,1.91886 1.044201,0.94911 1.95672,1.9577 2.027821,2.24132 0.282967,1.12877 -0.914114,2.09904 -2.0543,1.66502 -0.320749,-0.12208 -1.395396,-0.97743 -2.388096,-1.90075 -1.210643,-1.12604 -1.918893,-1.63343 -2.151068,-1.54104 -3.631798,1.44524 -7.305988,-0.44778 -7.554851,-3.89242 -0.06039,-0.83592 0.02735,-1.56008 0.25507,-2.1058 l 0.347124,-0.83176 -2.053646,-1.97707 c -1.129499,-1.08739 -4.213133,-4.00784 -6.85252,-6.48989 -3.884012,-3.65249 -4.883992,-4.48437 -5.245294,-4.36362 -0.245522,0.0821 -0.855268,0.19595 -1.354973,0.25308 -0.73106,0.0835 -1.036325,-0.003 -1.562435,-0.44321 -0.473899,-0.39652 -0.776718,-0.49841 -1.100267,-0.37022 -1.011563,0.40079 -2.713456,0.22161 -3.936381,-0.41446 -1.240715,-0.64532 -2.648132,-2.34556 -2.648132,-3.19909 0,-0.37449 0.143145,-0.40875 1.339219,-0.32054 0.736575,0.0543 1.338761,0.0784 1.338192,0.0536 -6.72e-4,-0.0248 -0.249293,-0.64864 -0.55271,-1.38607 -0.914077,-2.22156 -0.644857,-4.1662 0.659109,-4.76103 1.044492,-0.47646 2.974005,-0.27534 4.841237,0.50464 0.32927,0.13754 0.357121,0.003 0.248005,-1.20219 -0.141792,-1.56549 0.02109,-1.66634 1.484613,-0.91885 2.021297,1.0324 3.052414,2.85883 2.86837,5.08078 -0.09434,1.13891 -0.04881,1.33016 0.401146,1.6845 0.618248,0.48689 0.860532,1.45456 0.561408,2.24226 -0.21237,0.55923 -4.48e-4,0.79233 4.845465,5.3284 2.787152,2.60899 5.946796,5.60463 7.021424,6.657 l 1.953883,1.91338 1.970757,0.004 c 1.847241,0.004 2.046526,0.0512 3.179814,0.75761 l 1.209056,0.75379 2.343642,-0.11877 c 3.514049,-0.17806 7.812134,-1.32214 7.812134,-2.07942 0,-0.14996 -0.44939,-1.0024 -0.998646,-1.89432 -4.688834,-7.61401 -3.204015,-14.18812 3.60558,-15.96388 0.704731,-0.18378 1.712215,-0.33413 2.238848,-0.33413 h 0.957523 v 4.34305 c 0,4.61749 0.101341,5.20571 1.074423,6.23621 1.320683,1.39863 1.995929,1.57534 6.514514,1.70482 4.043733,0.11586 4.15366,0.13184 5.306465,0.77129 0.647461,0.35914 1.626768,1.13417 2.176239,1.72229 l 0.999048,1.06933 0.999038,-1.06933 c 0.54948,-0.58812 1.528787,-1.36315 2.176239,-1.72229 1.152818,-0.63945 1.262738,-0.65543 5.306468,-0.77129 4.51859,-0.12948 5.19383,-0.30619 6.51452,-1.70482 0.97307,-1.0305 1.07441,-1.61872 1.07441,-6.23621 v -4.34305 h 0.95753 c 3.29704,0 6.62405,1.97774 7.82172,4.64964 1.45455,3.24496 0.79121,7.15272 -1.97729,11.64837 -0.54926,0.89192 -0.99865,1.7506 -0.99865,1.90819 0,0.73357 5.25233,2.12927 8.01293,2.12927 h 1.30099 l 0.38503,-1.00941 c 0.41821,-1.09634 2.33498,-3.35282 3.03776,-3.57614 0.3201,-0.10171 0.95517,0.27009 2.38725,1.39764 1.07313,0.8449 2.07615,1.61176 2.22895,1.7041 0.17323,0.1047 1.10212,-0.46769 2.46759,-1.52054 1.20438,-0.92865 2.29565,-1.68846 2.42501,-1.68846 0.57183,0 2.33296,1.8984 2.96507,3.19617 1.91882,3.93947 0.35893,8.24205 -3.71637,10.25068 -1.22403,0.60329 -1.77803,0.73519 -3.41754,0.81367 -3.11005,0.14886 -5.23619,-0.76785 -7.41063,-3.19524 -1.82529,-2.03758 -5.72929,-3.70691 -10.44284,-4.46526 -1.16624,-0.18764 -2.68568,-0.34156 -3.37653,-0.34205 -1.50251,-9.3e-4 -1.8831,-0.32287 -1.6505,-1.39551 0.0869,-0.40058 0.20664,-1.3958 0.26618,-2.2116 0.17385,-2.38246 -0.78935,-3.83582 -2.94209,-4.43926 -3.0498,-0.8549 -6.69483,1.72688 -9.00969,6.38154 -0.48569,0.97661 -0.9166,1.95852 -0.95758,2.182 -0.0622,0.33928 0.41626,0.56859 2.89926,1.38955 3.41672,1.12969 7.1722,2.90038 9.74887,4.59653 3.44149,2.26546 6.57747,5.97343 6.58242,7.78304 0.005,1.66264 -1.49083,3.6208 -3.44298,4.5085 -1.38259,0.62871 -1.63661,0.55873 -1.91395,-0.52729 -1.1077,-4.33751 -4.84447,-9.11438 -9.51338,-12.1613 -1.91127,-1.2473 -4.54327,-2.51397 -5.247873,-2.52559 -0.291732,-0.005 -0.63769,0.40741 -0.63769,0.75981 0,0.0324 0.864631,0.58788 1.921403,1.23442 3.5609,2.17857 6.55932,5.4755 8.24088,9.06134 1.77792,3.79133 1.7685,5.11621 -0.0502,7.06284 -1.07574,1.15142 -3.18164,2.34886 -3.74812,2.13122 -0.21013,-0.0807 -0.33745,-0.41806 -0.33745,-0.89411 0,-2.06704 -1.13697,-6.52632 -2.39532,-9.39459 -1.43325,-3.26691 -3.949495,-6.95228 -4.333243,-6.3466 -0.303912,0.47968 -0.219594,1.14468 0.379968,2.99669 0.966932,2.9868 2.094625,8.11834 2.362945,10.75256 0.31418,3.08433 0.0625,3.96239 -1.575381,5.49623 -0.946081,0.88599 -3.03636,2.16626 -3.527106,2.16029 -0.09615,-9.3e-4 -0.777474,-0.38694 -1.51405,-0.85727 z m 39.507368,-36.14522 -1.56214,-1.42012 1.55616,-1.57004 c 0.85589,-0.86351 1.61372,-1.57002 1.68406,-1.57002 0.0704,0 0.76433,0.71167 1.54218,1.58151 l 1.4143,1.5815 -0.97819,1.00653 c -0.53801,0.55359 -1.2293,1.18748 -1.53621,1.40865 l -0.55801,0.40211 z m -40.451591,-2.99333 c -1.163295,-0.24793 -2.917996,-1.01092 -3.465283,-1.50678 -0.266092,-0.2411 -0.722575,-0.35123 -1.311592,-0.31644 -1.139681,0.0674 -2.713539,-0.66967 -3.061131,-1.43345 -0.513201,-1.12768 -0.16533,-3.14903 0.584574,-3.39672 0.192425,-0.0636 0.268351,0.11309 0.235293,0.54741 -0.05759,0.7567 0.16351,1.18713 0.609801,1.18713 0.222282,0 0.322653,-0.25888 0.324939,-0.83801 0.0056,-1.35002 0.625799,-3.61184 1.476755,-5.38313 0.789486,-1.64333 0.790569,-1.64987 0.509571,-3.06523 -0.311602,-1.56953 -0.535331,-1.66597 -0.761095,-0.32811 -0.176745,1.04741 -0.872039,2.01661 -1.446701,2.01661 -0.346098,0 -0.391131,-0.13313 -0.292935,-0.86609 0.08988,-0.67111 -0.0154,-1.09057 -0.467646,-1.86323 -0.764874,-1.3067 -0.763428,-2.23642 0.0047,-2.84113 0.77235,-0.60824 1.551719,-0.58466 2.876891,0.087 0.647695,0.32828 1.180524,0.47228 1.321252,0.35704 0.129705,-0.1062 0.662712,-0.30738 1.184454,-0.44703 0.917791,-0.24568 1.120632,-0.51915 0.777792,-1.04862 -0.09016,-0.1393 -0.766639,-0.37732 -1.503205,-0.52894 -3.225557,-0.66396 -4.998924,-2.39549 -4.125932,-4.0286 0.324314,-0.6067 1.966567,-1.6849 3.070838,-2.01615 0.518923,-0.15565 0.943486,-0.312813 0.943486,-0.349246 0,-0.03644 -0.401762,-1.193854 -0.892816,-2.572045 -0.984394,-2.762809 -1.08678,-3.396091 -0.531112,-3.285099 0.236441,0.04718 0.703629,1.000974 1.349,2.753855 3.1016,8.424365 10.342303,28.276735 10.342303,28.356285 0,0.0516 -0.4771,0.26218 -1.06022,0.46806 -1.23727,0.43686 -5.275711,0.64245 -6.691724,0.34065 z m -3.826118,-6.34959 c 0.41397,-0.17237 1.330212,-0.38507 2.036091,-0.47267 0.705888,-0.0876 1.281912,-0.17284 1.280064,-0.1894 -0.0019,-0.0165 -0.148101,-0.43236 -0.325005,-0.924 -0.176913,-0.49162 -0.326059,-1.46606 -0.331454,-2.16542 l -0.0098,-1.27155 -1.089842,1.15982 c -1.268126,1.34957 -2.481429,3.19461 -2.481429,3.77344 0,0.48392 -0.02044,0.48193 0.921366,0.0898 z m 12.361559,4.73469 c -0.0557,-0.15793 -0.41419,-1.14191 -0.79661,-2.18662 -0.38242,-1.04471 -2.035038,-5.56991 -3.672493,-10.056 -1.637455,-4.48609 -3.333206,-9.10651 -3.768335,-10.26759 -0.435119,-1.16107 -0.748905,-2.153331 -0.697292,-2.205022 0.05161,-0.05166 0.550787,-0.145501 1.109283,-0.208535 0.932118,-0.105184 1.015446,-0.165184 1.015446,-0.73117 0,-1.337833 1.577097,-2.215665 2.435902,-1.355854 0.605676,0.606393 0.587327,0.957736 -0.09221,1.766337 -0.700624,0.83363 -0.696779,0.999064 0.04676,2.011004 0.33263,0.4527 0.618677,0.8497 0.635673,0.88223 0.01699,0.0325 0.504372,-0.20582 1.083075,-0.52965 1.367061,-0.76497 3.526411,-0.977 4.550461,-0.44683 0.99467,0.51498 1.45885,1.51718 1.32905,2.86953 -0.13524,1.40916 -1.1655,2.96408 -1.96394,2.96408 -0.51621,0 -0.55121,-0.0804 -0.61422,-1.41093 -0.0551,-1.16261 -0.1308,-1.39858 -0.43036,-1.34079 -0.65738,0.1268 -0.72214,1.19206 -0.20495,3.37109 l 0.48948,2.06223 1.22235,0.12671 c 1.51046,0.1566 2.27169,0.51635 2.72739,1.28901 0.71686,1.21543 0.75823,3.16535 0.0672,3.16535 -0.16221,0 -0.35974,-0.3459 -0.43895,-0.76866 -0.21898,-1.16863 -1.2368,-1.91294 -2.61589,-1.91294 -1.43307,0 -1.97763,0.29485 -1.97492,1.06934 9.3e-4,0.33366 0.25227,1.9546 0.55801,3.6021 0.30574,1.6475 0.55589,3.04771 0.55589,3.11162 0,0.0639 0.22599,-0.0833 0.50221,-0.32705 1.03036,-0.90938 2.68568,-1.26991 3.24761,-0.70732 0.40398,0.40448 0.32165,1.87872 -0.15743,2.81891 -0.79068,1.55167 -3.8971,4.05696 -4.14813,3.34542 z m -45.643477,-4.87469 c -1.032824,-0.4801 -1.789644,-1.05177 -1.789644,-1.3518 0,-0.0944 0.728204,-0.6542 1.618229,-1.24395 2.379827,-1.57693 5.870057,-5.1779 7.046801,-7.27041 0.981716,-1.74569 2.102479,-4.60836 1.919966,-4.90402 -0.05535,-0.0896 -0.46492,-0.28338 -0.910166,-0.4305 -0.697516,-0.23048 -0.837908,-0.21674 -1.014541,0.0992 -0.686997,1.22905 -3.122376,4.13663 -4.817857,5.75199 -4.01115,3.82162 -8.588208,5.14907 -12.260297,3.55573 -1.050857,-0.45598 -3.188746,-2.37017 -3.188746,-2.85509 0,-0.10049 0.878872,-0.36346 1.953043,-0.58439 5.295424,-1.08913 10.867823,-4.25888 13.588755,-7.72972 l 0.971112,-1.23875 -0.650149,-0.65092 -0.65014,-0.6509 -1.970412,1.28411 c -5.02164,3.27257 -10.426777,5.25181 -14.367135,5.26089 -4.83181,0.0111 -8.384125,-2.54542 -8.455861,-6.08559 l -0.01699,-0.838001 2.622652,-1.9e-4 c 6.644163,-4.5e-4 13.365138,-1.295133 17.633114,-3.396664 0.767263,-0.377794 1.395022,-0.711096 1.395022,-0.740661 0,-0.02954 -0.152609,-0.419443 -0.339126,-0.866369 -0.277498,-0.664931 -0.429603,-0.791677 -0.837011,-0.697506 -6.110605,1.412547 -13.463334,2.311665 -16.568575,2.026069 -5.251286,-0.482978 -8.689605,-3.073583 -9.813634,-7.3941 -0.38163,-1.466915 -0.452974,-3.360967 -0.134027,-3.558319 0.114473,-0.07083 0.769233,0.119654 1.455017,0.423307 3.767971,1.668331 9.063638,2.982514 14.072744,3.49231 2.59076,0.263679 8.539338,0.163946 9.375193,-0.157179 0.294559,-0.113169 0.340778,-0.311203 0.221656,-0.949774 -0.08278,-0.443693 -0.166652,-0.82181 -0.186392,-0.8402 -0.01979,-0.01841 -1.83703,-0.300662 -4.038413,-0.627246 C 38.128922,84.861466 32.269328,82.842097 29.369038,79.879038 26.29805,76.741576 25.18635,72.012995 26.618659,68.180309 c 0.24135,-0.645814 0.510075,-1.174215 0.597164,-1.174215 0.08708,0 0.757856,0.614976 1.490587,1.366623 2.955552,3.031815 7.929191,6.734092 11.934425,8.883758 2.961348,1.589392 9.707141,4.050531 11.104404,4.051335 0.184697,1.03e-4 0.27746,-0.358597 0.274455,-1.061307 l -0.0047,-1.061467 -2.484621,-1.452534 C 41.917809,73.282093 36.151604,68.520226 34.106292,64.994911 32.651107,62.486723 32.089923,60.376415 32.085835,57.39704 c -0.0037,-2.917637 0.425561,-4.548685 1.729491,-6.566923 0.737481,-1.14149 1.833884,-2.308127 2.002266,-2.130538 0.049,0.05167 1.105224,1.631272 2.347114,3.510169 8.94391,13.531568 18.839669,24.464764 26.846514,29.661038 1.108573,0.719445 1.720438,1.262443 1.729827,1.535138 0.0084,0.232065 -0.392102,0.863609 -0.88911,1.403439 -1.473591,1.60053 -1.868754,2.720976 -1.878255,5.325551 -0.0075,2.12382 0.0294,2.303969 0.748616,3.631803 1.900524,3.508771 5.642483,5.237093 10.502246,4.850719 1.036437,-0.0824 2.342177,-0.28892 2.901644,-0.45895 1.959184,-0.5954 1.798427,-1.16541 1.798427,6.376844 0,3.77482 -0.08848,6.74555 -0.202972,6.81641 -0.111626,0.0691 -0.415612,-0.31421 -0.675517,-0.85173 -1.226594,-2.53678 -4.496679,-4.56121 -8.010737,-4.95925 l -1.29216,-0.14636 -0.268781,1.46043 c -0.809366,4.3978 -2.644128,8.74253 -4.495531,10.64555 -1.62773,1.67309 -3.189408,2.33463 -5.700667,2.41482 -1.656346,0.0529 -2.184369,-0.0174 -3.009238,-0.40088 z m 73.855867,0.0415 c -1.55613,-0.62546 -2.97057,-1.69227 -3.86984,-2.91877 -1.54393,-2.10573 -3.05251,-6.05269 -3.73889,-9.78218 l -0.26878,-1.46043 -1.29216,0.14636 c -3.53006,0.39985 -6.7753,2.40418 -8.00268,4.94262 -0.26434,0.54667 -0.57194,0.93743 -0.68358,0.86835 -0.11451,-0.0708 -0.20297,-3.04158 -0.20297,-6.8164 0,-7.546809 -0.16336,-6.973005 1.81414,-6.372108 0.56811,0.172623 1.92407,0.381298 3.01325,0.463725 4.79069,0.362537 8.48287,-1.367097 10.37494,-4.860232 0.71672,-1.323228 0.75675,-1.515355 0.75675,-3.631803 0,-2.61233 -0.38435,-3.694111 -1.89579,-5.335755 -0.51913,-0.563854 -0.8983,-1.181008 -0.8569,-1.39473 0.0409,-0.210836 0.87778,-0.932907 1.85988,-1.604585 8.19921,-5.607628 17.78653,-16.17152 26.21541,-28.885732 1.50244,-2.266302 2.77284,-4.16284 2.82309,-4.214533 0.16377,-0.168459 1.2107,0.949017 1.96611,2.098581 1.40234,2.134089 1.771,3.485864 1.76918,6.487142 -0.002,3.157177 -0.52963,5.117462 -2.08174,7.733138 -2.21128,3.726526 -7.63252,8.19556 -15.56598,12.831913 l -2.28383,1.334693 -0.004,1.061467 c -0.005,1.290466 -0.0532,1.284224 3.01488,0.389424 7.27709,-2.122353 14.82984,-6.687736 20.29894,-12.270022 0.73273,-0.7479 1.4035,-1.359811 1.4906,-1.359811 0.0871,0 0.35581,0.528401 0.59716,1.174215 1.94021,5.191777 -0.76906,11.508264 -6.03911,14.079797 -3.61291,1.762933 -8.47901,3.047588 -15.47555,4.085571 -2.20138,0.326584 -4.01867,0.608847 -4.03842,0.627246 -0.0197,0.01841 -0.10362,0.396507 -0.1864,0.84024 -0.11992,0.642916 -0.0735,0.836361 0.22839,0.952362 0.20839,0.08008 1.84911,0.206845 3.64606,0.281749 6.45706,0.269153 13.16301,-0.921899 19.18426,-3.407324 1.02038,-0.421186 1.94948,-0.707495 2.06464,-0.636236 0.56842,0.35172 0.002,3.90718 -0.90694,5.690456 -1.47507,2.894799 -4.83217,4.86317 -8.92785,5.234677 -3.29238,0.298641 -10.45812,-0.559688 -16.68018,-1.997998 -0.4074,-0.09417 -0.55951,0.03261 -0.83701,0.697506 -0.18651,0.446928 -0.33912,0.836016 -0.33912,0.864629 0,0.02863 0.87886,0.460321 1.95303,0.959318 4.08883,1.899494 9.08333,2.901622 15.51268,3.11256 l 4.18507,0.137322 -0.017,0.803038 c -0.0735,3.47578 -3.63822,6.05449 -8.36958,6.05449 -3.96946,0 -9.28375,-1.91822 -14.26546,-5.14919 l -2.14371,-1.39034 -0.60375,0.5323 c -0.33207,0.29277 -0.64089,0.55271 -0.68627,0.57766 -0.17657,0.0971 1.56639,2.27074 2.58267,3.2209 2.95607,2.76371 8.01993,5.22262 12.43138,6.03642 0.81067,0.14954 1.47395,0.35939 1.47395,0.46632 0,0.10692 -0.45562,0.68209 -1.01251,1.27814 -2.50882,2.68529 -6.66183,2.95957 -10.92753,0.72169 -1.97961,-1.03854 -5.55318,-4.45641 -7.2555,-6.93939 -0.67519,-0.98481 -1.30618,-1.79554 -1.4022,-1.80161 -0.096,-0.007 -0.51942,0.13324 -0.94092,0.30955 l -0.76635,0.32057 0.3457,1.18783 c 0.44035,1.51307 1.86656,4.19505 3.04977,5.7351 1.21965,1.58747 3.92896,4.07256 5.80686,5.3263 0.83444,0.55711 1.47928,1.12773 1.43297,1.26806 -0.0463,0.14035 -0.57016,0.55684 -1.16409,0.92555 -0.96506,0.59913 -1.29541,0.67636 -3.107,0.72631 -1.54966,0.0427 -2.26855,-0.0412 -3.05216,-0.35611 z M 81.710367,92.794966 c 0,-0.07336 0.412346,-0.601259 0.916326,-1.173205 2.000708,-2.270507 2.776773,-4.712079 2.6,-8.179796 -0.214787,-4.213374 -2.123123,-8.317718 -5.413555,-11.643206 -3.073825,-3.106579 -6.250101,-4.569158 -9.922779,-4.569158 -2.674834,0 -4.228701,0.605707 -4.932759,1.922815 -0.157388,0.294429 -0.357261,0.535315 -0.444163,0.535315 -0.420979,0 -1.182018,-2.421024 -1.199247,-3.815044 -0.03612,-2.923178 1.70486,-4.343568 6.316451,-5.153308 0.689891,-0.12114 5.071126,-0.306951 9.736084,-0.412925 7.431054,-0.168804 8.711613,-0.250203 10.337327,-0.657157 1.020561,-0.255473 1.899432,-0.464496 1.953034,-0.464496 0.506173,0 -0.745126,2.760962 -1.82919,4.036076 -0.939062,1.104534 -2.849508,2.734834 -3.43298,2.929551 -0.128902,0.04298 0.326974,0.680526 1.013047,1.416699 4.231492,4.540386 7.253992,11.390703 8.379805,18.992349 l 0.297863,2.011193 0.374593,-2.458131 c 1.107127,-7.26526 4.025466,-13.876484 8.104266,-18.359414 0.68855,-0.756776 1.2519,-1.418614 1.2519,-1.470764 0,-0.05214 -0.49854,-0.418251 -1.10789,-0.813553 -1.39805,-0.906976 -2.94735,-2.711641 -3.67911,-4.28554 -0.72882,-1.567543 -0.74783,-2.102495 -0.0677,-1.904097 2.51534,0.733724 3.71469,0.836763 11.88561,1.021192 8.84232,0.199566 11.08457,0.422082 13.05743,1.295747 1.59602,0.706784 2.57051,1.817157 2.90745,3.312835 0.23454,1.041179 -0.12939,3.155748 -0.70671,4.106194 l -0.43984,0.724118 -0.77122,-0.902052 c -1.14654,-1.341057 -2.24767,-1.681012 -5.0512,-1.55948 -3.5758,0.155004 -5.94693,1.204668 -8.92119,3.949266 -6.58642,6.077843 -8.06081,15.925802 -3.09714,20.686902 0.37333,0.358083 0.67878,0.732808 0.67878,0.832727 0,0.09991 -6.4785,0.181652 -14.396661,0.181652 -7.918159,0 -14.396656,-0.05999 -14.396656,-0.133305 z M 70.432541,71.793563 c 0.312386,-1.039208 1.248433,-2.41368 1.942094,-2.85175 0.401361,-0.253473 3.169193,0.979545 4.279801,1.906574 l 0.635767,0.530682 -2.086593,-0.0056 c -2.10918,-0.0056 -2.339172,0.05971 -4.926796,1.392591 -0.08895,0.04578 -0.01885,-0.391965 0.155727,-0.972863 z m 50.477819,0.466991 c -1.13731,-0.687199 -3.36734,-1.096834 -4.86911,-0.894408 l -1.18509,0.15974 0.52819,-0.570105 c 0.50375,-0.543726 3.48493,-2.161916 3.98288,-2.161916 0.49222,0 1.85963,1.700729 2.2054,2.742982 0.19796,0.5967 0.32399,1.120896 0.28006,1.16487 -0.044,0.04401 -0.46798,-0.154536 -0.94233,-0.441163 z m -65.538055,-11.7077 c 0,-2.175661 -1.174878,-2.530315 -3.762455,-1.135744 -1.160878,0.625648 -1.190913,0.630012 -1.03402,0.150163 0.08885,-0.271816 0.21,-1.25921 0.269183,-2.19421 0.127185,-2.009604 -0.07355,-2.506563 -1.868091,-4.625644 -0.866235,-1.022884 -1.193554,-1.593774 -1.193554,-2.081761 0,-1.522458 0.701585,-1.966434 4.017675,-2.542464 1.149257,-0.199631 2.397831,-0.492911 2.774607,-0.651736 0.376777,-0.158816 1.752741,-1.351635 3.057697,-2.650699 3.22465,-3.210103 4.258576,-3.51684 5.617955,-1.666696 0.292273,0.397796 0.658661,1.046655 0.814201,1.441901 0.267997,0.681013 0.241285,0.767195 -0.510224,1.646186 -3.082775,3.605778 -1.167169,8.872442 3.468987,9.537429 0.992038,0.142295 1.193741,0.25011 1.253586,0.670071 0.08801,0.617592 -0.267344,0.639085 -2.428762,0.146902 -1.832587,-0.417298 -3.876237,-1.683983 -4.74208,-2.939194 -1.067031,-1.546884 -1.31119,-2.432453 -1.24288,-4.507981 l 0.06319,-1.920049 -1.794013,0.02168 c -1.522077,0.01841 -1.969656,0.11742 -2.952724,0.653101 -1.791885,0.976414 -2.612918,2.727873 -2.062075,4.398905 0.1386,0.420475 0.967361,1.562657 1.841678,2.538193 1.646947,1.837594 2.407612,3.141946 2.41605,4.142908 0.0056,0.671501 -0.771044,1.904425 -1.501721,2.383806 -0.498278,0.326911 -0.502207,0.320528 -0.502207,-0.815103 z m 80.516365,0.645327 c -1.93341,-1.52784 -1.63775,-3.267104 1.06401,-6.259252 2.26307,-2.50631 2.60636,-3.7128 1.56339,-5.494581 -0.78625,-1.343206 -2.46968,-2.145676 -4.78243,-2.279711 l -1.71917,-0.09964 0.0963,2.015837 c 0.0859,1.798302 0.0356,2.148526 -0.46599,3.245426 -1.00742,2.203068 -3.15944,3.793824 -5.91838,4.374797 -1.78624,0.376145 -2.09727,0.3373 -2.01337,-0.251409 0.0598,-0.419961 0.26154,-0.527776 1.25358,-0.670071 4.63616,-0.664987 6.55177,-5.931651 3.46899,-9.537429 -0.75507,-0.883177 -0.77913,-0.961941 -0.50276,-1.646186 0.69594,-1.723024 1.59559,-2.618097 2.63147,-2.618097 0.67503,0 2.2867,1.229421 4.24795,3.240446 1.0321,1.058289 2.13696,2.058381 2.45524,2.222439 0.31829,0.164049 1.56838,0.466562 2.77799,0.672257 3.49436,0.594223 4.16202,0.97734 4.16202,2.388217 0,0.711223 -0.2039,1.096862 -1.20403,2.277206 -1.79672,2.120447 -1.98476,2.58555 -1.8576,4.594631 0.0592,0.935 0.18031,1.922394 0.26918,2.19421 0.15689,0.479849 0.12686,0.475485 -1.03403,-0.150163 -2.546,-1.372164 -3.56674,-1.101245 -3.75807,0.997448 l -0.11598,1.272199 z M 70.368234,56.000404 c -2.231418,-3.261442 -2.40527,-6.116444 -0.445302,-7.312814 1.35894,-0.829493 2.119325,-0.634973 3.908475,0.999878 0.874298,0.798891 1.648347,1.452535 1.720121,1.452535 0.07177,0 0.841902,-0.653644 1.711421,-1.452535 1.346854,-1.237465 1.702266,-1.452413 2.40037,-1.451702 1.094527,9.34e-4 2.106847,0.655587 2.589659,1.674246 0.502478,1.060139 0.324687,2.775482 -0.445124,4.294538 -0.298116,0.588271 -0.542443,1.139585 -0.542957,1.225141 -0.0019,0.249306 2.24623,-0.481101 3.401153,-1.105216 1.217326,-0.657829 2.920152,-2.263152 3.472731,-3.273869 0.208301,-0.381005 0.534827,-1.135193 0.725618,-1.675966 l 0.346882,-0.983217 -1.414473,-2.480511 c -2.053189,-3.600621 -2.713876,-6.13557 -2.055074,-7.88504 0.392437,-1.042141 1.557702,-2.066968 2.754979,-2.42293 2.163463,-0.643234 2.206461,-0.620415 4.884469,2.592371 1.324323,1.588775 2.493516,2.888688 2.598217,2.888688 0.104692,0 1.2811,-1.300063 2.614234,-2.889025 2.112967,-2.518447 2.511737,-2.891079 3.108777,-2.905068 1.20432,-0.02822 2.86167,0.603838 3.60417,1.374501 2.0079,2.084031 1.53765,4.939117 -1.68249,10.2149 l -0.87751,1.437714 0.34078,1.020426 c 0.71032,2.12695 2.49319,4.136517 4.62626,5.214523 0.85166,0.430398 3.01326,1.076024 3.01326,0.899987 0,-0.07326 -0.25358,-0.652195 -0.56351,-1.286431 -1.15153,-2.35639 -0.88794,-4.56585 0.65725,-5.509213 1.23679,-0.755085 2.11724,-0.570993 3.6069,0.754141 2.24643,1.998345 1.87996,1.970489 3.71559,0.282441 1.55721,-1.432014 1.66215,-1.488865 2.56893,-1.391562 3.23373,0.346972 3.6327,3.720395 0.91056,7.699069 l -0.64978,0.949727 -5.40197,-0.0037 c -6.04487,-0.0047 -7.48887,-0.201052 -9.88691,-1.346888 -1.97332,-0.942886 -3.91215,-2.895565 -4.87756,-4.91244 -0.40462,-0.845295 -0.78945,-1.742796 -0.855187,-1.994447 -0.114566,-0.438603 -0.277668,-0.457535 -3.94188,-0.457535 -3.443891,0 -3.834761,0.03869 -3.947479,0.391069 -0.06879,0.215087 -0.484212,1.145265 -0.92313,2.067062 -1.450434,3.046205 -4.243186,5.178117 -7.754304,5.919429 -1.126746,0.237886 -3.068775,0.330956 -6.964398,0.333759 l -5.401973,0.0037 z m 4.0246,-11.955642 c -0.640321,-0.740003 -1.164219,-1.419502 -1.164219,-1.510011 0,-0.326826 2.318582,-3.017051 2.456771,-2.850555 0.07793,0.0939 0.623512,0.748527 1.212407,1.454712 1.21264,1.454189 1.231727,1.324004 -0.479611,3.271394 l -0.861138,0.979909 z m 40.999726,0.138716 c -1.48452,-1.75613 -1.47309,-1.636804 -0.29223,-3.053091 0.58489,-0.701505 1.1272,-1.352289 1.20513,-1.446191 0.14786,-0.178158 2.46081,2.540109 2.45135,2.880896 -0.003,0.107198 -0.53291,0.785192 -1.17762,1.506656 l -1.17222,1.311754 z M 94.380099,32.312926 c -0.786052,-1.013978 -1.503439,-1.96934 -1.594196,-2.123026 -0.156697,-0.26536 2.849554,-4.18991 3.209522,-4.18991 0.35838,0 3.366283,3.924569 3.211257,4.18991 -0.389227,0.666174 -3.075738,3.966629 -3.228767,3.966629 -0.09277,0 -0.811774,-0.829616 -1.597816,-1.843603 z"
     id="path936" />
  <path
     id="path14431"
     style="font-weight:bold;font-size:30.4093px;line-height:1.25;font-family:'DejaVu Sans';-inkscape-font-specification:'DejaVu Sans Bold';opacity:0.2;fill:#000000;stroke-width:0.678637;filter:url(#filter14490)"
     d="m 45,72 v 22 h 6 v -8 h 3.359375 c 2.782751,0 4.916258,-0.252454 6.400391,-1.490234 C 62.253663,83.262166 63,81.484334 63,79.175781 63,76.877054 62.253663,75.108867 60.759766,73.871094 59.275633,72.623494 57.142126,72 54.359375,72 Z m 29.5,0 c -2.960503,0 -5.286024,0.975275 -6.976562,2.925781 C 65.841145,76.876287 65,79.570757 65,83.007812 c 0,3.427589 0.841145,6.115901 2.523438,8.066407 C 69.213976,93.024725 71.539497,94 74.5,94 77.46875,94 79.794271,93.024725 81.476562,91.074219 83.158856,89.123713 84,86.435402 84,83.007812 84,79.570757 83.158856,76.876287 81.476562,74.925781 79.794271,72.975275 77.46875,72 74.5,72 Z m 21,0 c -2.960503,0 -5.286024,0.975275 -6.976562,2.925781 C 86.841144,76.876287 86,79.570757 86,83.007812 c 0,3.427589 0.841144,6.115901 2.523438,8.066407 C 90.213976,93.024725 92.539497,94 95.5,94 c 2.96875,0 5.29426,-0.975275 6.97656,-2.925781 1.15729,-1.341797 1.91618,-3.033629 2.27735,-5.074219 h -5.060551 c -0.196197,0.840271 -0.485183,1.56249 -0.871093,2.164062 C 98.036881,89.388415 96.927339,90 95.494141,90 94.069039,90 92.96316,89.388415 92.177734,88.164062 91.392309,86.939712 91,85.221067 91,83.007812 91,80.785145 91.392309,79.060288 92.177734,77.835938 92.96316,76.611585 94.069039,76 95.494141,76 c 1.433198,0 2.542699,0.611585 3.328125,1.835938 0.385355,0.600707 0.674906,1.322707 0.871093,2.164062 h 5.060551 c -0.3617,-2.042095 -1.12149,-3.73408 -2.27735,-5.074219 C 100.79426,72.975275 98.46875,72 95.5,72 Z m 15.5,1 v 7 7 7 h 36 v -7 -7 -7 z m -60,3 h 3.335938 c 1.169274,0 2.072145,0.25936 2.708984,0.777344 C 57.68176,77.295328 58,78.03295 58,78.992188 58,79.951419 57.68176,80.695077 57.044922,81.222656 56.408083,81.74064 55.505212,82 54.335938,82 H 51 Z m 23.494141,0 c 1.433198,0 2.542699,0.611585 3.328125,1.835938 C 78.60769,79.060289 79,80.785144 79,83.007812 c 0,2.213254 -0.39231,3.931899 -1.177734,5.15625 C 77.03684,89.388415 75.927339,90 74.494141,90 73.069039,90 71.96316,89.388415 71.177734,88.164062 70.392309,86.939711 70,85.221067 70,83.007812 70,80.785144 70.392309,79.060289 71.177734,77.835938 71.96316,76.611585 73.069039,76 74.494141,76 Z M 93,101.83203 v 4.1875 c 0.308886,5.54466 -0.460767,9.14976 -0.916016,10.79297 -0.455249,1.63331 -1.816657,2.59002 -4.083984,2.86719 V 124 c 4.882777,-0.55433 7.757175,-2.08348 8.623047,-4.58789 C 97.488912,116.8978 98,112.92848 98,107.50391 V 106 h 4 v 18 h 5 V 101.83203 Z M 45,102 v 22 h 6 v -9 h 7 v 9 h 6 v -22 h -6 v 8 h -7 v -8 z M 72.919922,102 65.5,124 h 5.193359 l 1.273438,-4 h 8.078125 l 1.261719,4 H 86.5 L 79.080078,102 Z M 119.5,102 c -2.9605,0 -5.28602,0.97527 -6.97656,2.92578 -1.68229,1.9505 -2.52344,4.64497 -2.52344,8.08203 0,3.42759 0.84115,6.11591 2.52344,8.06641 C 114.21398,123.02473 116.5395,124 119.5,124 c 2.96875,0 5.29427,-0.97527 6.97656,-2.92578 1.6823,-1.9505 2.52344,-4.63882 2.52344,-8.06641 0,-3.43706 -0.84114,-6.13153 -2.52344,-8.08203 C 124.79427,102.97527 122.46875,102 119.5,102 Z m 12.5,0 v 22 h 5 v -18 h 10 v -4 z m -12.50586,4 c 1.4332,0 2.5427,0.61159 3.32813,1.83594 0.78542,1.22436 1.17773,2.9492 1.17773,5.17187 0,2.21325 -0.39231,3.9319 -1.17773,5.15625 -0.78543,1.22435 -1.89493,1.83594 -3.32813,1.83594 -1.4251,0 -2.53098,-0.61159 -3.31641,-1.83594 -0.78542,-1.22435 -1.17773,-2.943 -1.17773,-5.15625 0,-2.22267 0.39231,-3.94751 1.17773,-5.17187 C 116.96316,106.61159 118.06904,106 119.49414,106 Z M 76.005859,107.1582 78.744141,116 h -5.488282 z" />
  <path
     id="path12059"
     style="font-weight:bold;font-size:30.4093px;line-height:1.25;font-family:'DejaVu Sans';-inkscape-font-specification:'DejaVu Sans Bold';opacity:1;stroke-width:0.678637;fill:#ffffff"
     d="M 74.5 70 C 71.539497 70 69.213976 70.975275 67.523438 72.925781 C 65.841146 74.876287 65 77.570757 65 81.007812 C 65 84.4354 65.841146 87.123713 67.523438 89.074219 C 69.213976 91.024725 71.539497 92 74.5 92 C 77.46875 92 79.794271 91.024725 81.476562 89.074219 C 83.158855 87.123713 84 84.435401 84 81.007812 C 84 77.570756 83.158855 74.876287 81.476562 72.925781 C 79.794271 70.975275 77.46875 70 74.5 70 z M 74.494141 74 C 75.927339 74 77.03684 74.611585 77.822266 75.835938 C 78.60769 77.06029 79 78.785143 79 81.007812 C 79 83.221066 78.60769 84.93971 77.822266 86.164062 C 77.03684 87.388415 75.927339 88 74.494141 88 C 73.069039 88 71.96316 87.388415 71.177734 86.164062 C 70.392309 84.93971 70 83.221066 70 81.007812 C 70 78.785143 70.392309 77.06029 71.177734 75.835938 C 71.96316 74.611585 73.069039 74 74.494141 74 z " />
  <path
     id="path11934"
     style="font-weight:bold;font-size:30.4093px;line-height:1.25;font-family:'DejaVu Sans';-inkscape-font-specification:'DejaVu Sans Bold';opacity:1;stroke-width:0.752164;fill:#ffffff"
     d="M 45 70 L 45 92 L 51 92 L 51 84 L 54.359375 84 C 57.142126 84 59.275633 83.747546 60.759766 82.509766 C 62.253663 81.262166 63 79.484334 63 77.175781 C 63 74.877054 62.253663 73.108867 60.759766 71.871094 C 59.275633 70.623494 57.142126 70 54.359375 70 L 45 70 z M 51 74 L 54.335938 74 C 55.505213 74 56.408083 74.25936 57.044922 74.777344 C 57.68176 75.295328 58 76.03295 58 76.992188 C 58 77.951419 57.68176 78.695077 57.044922 79.222656 C 56.408083 79.74064 55.505213 80 54.335938 80 L 51 80 L 51 74 z " />
  <path
     d="m 45,100 h 6 v 8 h 7 v -8 h 6 v 22 h -6 v -9 h -7 v 9 h -6 z"
     style="font-weight:bold;font-size:30.4093px;line-height:1.25;font-family:'DejaVu Sans';-inkscape-font-specification:'DejaVu Sans Bold';opacity:1;stroke-width:0.74063;fill:#ffffff"
     id="path11940"
     sodipodi:nodetypes="ccccccccccccc" />
  <path
     d="m 80.045684,118 h -8.077956 l -1.274754,4 H 65.5 l 7.420444,-22 h 6.159112 L 86.5,122 h -5.192974 z m -6.789773,-4 h 5.488178 l -2.737379,-8.84259 z"
     style="font-weight:bold;font-size:30.4093px;line-height:1.25;font-family:'DejaVu Sans';-inkscape-font-specification:'DejaVu Sans Bold';opacity:1;stroke-width:0.719954;fill:#ffffff"
     id="path11942"
     sodipodi:nodetypes="ccccccccccccc" />
  <path
     d="m 88,122 v -4.32085 c 2.267327,-0.27717 3.628614,-1.23241 4.083863,-2.86572 0.455249,-1.64321 1.225023,-5.25005 0.916137,-10.79471 v -4.187215 h 14 V 122 h -5 v -18 h -4 v 1.50355 c 0,5.42457 -0.511162,9.39402 -1.377027,11.90833 C 95.757101,119.91629 92.882777,121.44567 88,122 Z"
     style="font-weight:bold;font-size:30.4093px;line-height:1.25;font-family:'DejaVu Sans';-inkscape-font-specification:'DejaVu Sans Bold';opacity:1;stroke-width:0.721929;fill:#ffffff"
     id="path11944"
     sodipodi:nodetypes="cccsccccccscc" />
  <path
     d="m 132,122 v -22 h 15 v 4 h -10 v 18 z"
     style="font-weight:bold;font-size:30.4093px;line-height:1.25;font-family:'DejaVu Sans';-inkscape-font-specification:'DejaVu Sans Bold';opacity:1;stroke-width:0.738993;fill:#ffffff"
     id="path11948"
     sodipodi:nodetypes="ccccccc" />
  <path
     id="path12220"
     style="font-weight:bold;font-size:30.4093px;line-height:1.25;font-family:'DejaVu Sans';-inkscape-font-specification:'DejaVu Sans Bold';opacity:1;stroke-width:0.678637;fill:#ffffff"
     d="M 95.5 70 C 92.539497 70 90.213976 70.975275 88.523438 72.925781 C 86.841145 74.876287 86 77.570757 86 81.007812 C 86 84.435401 86.841145 87.123713 88.523438 89.074219 C 90.213976 91.024725 92.539497 92 95.5 92 C 98.46875 92 100.79426 91.024725 102.47656 89.074219 C 103.63385 87.732422 104.39274 86.04059 104.75391 84 L 99.693359 84 C 99.497162 84.840271 99.208176 85.562489 98.822266 86.164062 C 98.036881 87.388415 96.927339 88 95.494141 88 C 94.069039 88 92.96316 87.388415 92.177734 86.164062 C 91.392309 84.939711 91 83.221067 91 81.007812 C 91 78.785144 91.392309 77.060289 92.177734 75.835938 C 92.96316 74.611585 94.069039 74 95.494141 74 C 96.927339 74 98.03684 74.611585 98.822266 75.835938 C 99.207621 76.436646 99.497172 77.158645 99.693359 78 L 104.75391 78 C 104.39221 75.957905 103.63242 74.26592 102.47656 72.925781 C 100.79426 70.975275 98.46875 70 95.5 70 z " />
  <path
     id="path13525"
     style="font-weight:bold;font-size:30.4093px;line-height:1.25;font-family:'DejaVu Sans';-inkscape-font-specification:'DejaVu Sans Bold';opacity:1;stroke-width:0.678637;fill:#ffffff"
     d="m 119.5,100 c -2.9605,0 -5.28602,0.97527 -6.97656,2.92578 -1.68229,1.9505 -2.52344,4.64497 -2.52344,8.08203 0,3.42759 0.84115,6.1159 2.52344,8.0664 C 114.21398,121.02472 116.5395,122 119.5,122 c 2.96875,0 5.29427,-0.97528 6.97656,-2.92579 1.6823,-1.9505 2.52344,-4.63881 2.52344,-8.0664 0,-3.43706 -0.84114,-6.13153 -2.52344,-8.08203 C 124.79427,100.97527 122.46875,100 119.5,100 Z m -0.006,4 c 1.4332,0 2.5427,0.61158 3.32813,1.83593 0.78542,1.22436 1.17773,2.94921 1.17773,5.17188 0,2.21325 -0.39231,3.9319 -1.17773,5.15625 C 122.0367,117.38841 120.9272,118 119.494,118 c -1.4251,0 -2.53098,-0.61159 -3.31641,-1.83594 -0.78542,-1.22435 -1.17773,-2.943 -1.17773,-5.15625 0,-2.22267 0.39231,-3.94752 1.17773,-5.17188 C 116.96302,104.61158 118.0689,104 119.494,104 Z" />
  <rect
     style="opacity:1;fill:#ff262f;fill-opacity:1;stroke-width:1.00454"
     id="rect13549"
     width="36"
     height="7"
     x="111"
     y="85" />
  <rect
     style="opacity:1;fill:#005ee0;fill-opacity:1;stroke-width:1.00454"
     id="rect13653"
     width="36"
     height="7"
     x="111"
     y="78" />
  <rect
     style="opacity:1;fill:#ffffff;fill-opacity:1;stroke-width:1.00454"
     id="rect13673"
     width="36"
     height="7"
     x="111"
     y="71" />
</svg>
