<?xml version="1.0" encoding="UTF-8" standalone="no"?>
<svg
   width="192"
   height="192"
   version="1.1"
   id="svg18"
   sodipodi:docname="apps_nimo_tv.svg"
   inkscape:version="1.1-rc (1:1.1+rc+202105232036+f4db50c7c1)"
   xmlns:inkscape="http://www.inkscape.org/namespaces/inkscape"
   xmlns:sodipodi="http://sodipodi.sourceforge.net/DTD/sodipodi-0.dtd"
   xmlns="http://www.w3.org/2000/svg"
   xmlns:svg="http://www.w3.org/2000/svg">
  <sodipodi:namedview
     id="namedview20"
     pagecolor="#ffffff"
     bordercolor="#666666"
     borderopacity="1.0"
     inkscape:pageshadow="2"
     inkscape:pageopacity="0.0"
     inkscape:pagecheckerboard="0"
     showgrid="false"
     inkscape:zoom="1"
     inkscape:cx="96.5"
     inkscape:cy="50.5"
     inkscape:window-width="1920"
     inkscape:window-height="1019"
     inkscape:window-x="0"
     inkscape:window-y="34"
     inkscape:window-maximized="1"
     inkscape:current-layer="svg18">
    <inkscape:grid
       type="xygrid"
       id="grid1164" />
  </sodipodi:namedview>
  <defs
     id="defs6">
    <filter
       inkscape:collect="always"
       style="color-interpolation-filters:sRGB"
       id="filter4645"
       x="-0.046199237"
       y="-0.049946835"
       width="1.0923985"
       height="1.0998937">
      <feGaussianBlur
         inkscape:collect="always"
         stdDeviation="3.0799492"
         id="feGaussianBlur4647" />
    </filter>
    <filter
       inkscape:collect="always"
       style="color-interpolation-filters:sRGB"
       id="filter4733"
       x="-0.045415482"
       y="-0.050896338"
       width="1.090831"
       height="1.1017927">
      <feGaussianBlur
         inkscape:collect="always"
         stdDeviation="1.2300081"
         id="feGaussianBlur4735" />
    </filter>
  </defs>
  <path
     id="path4607"
     style="opacity:0.2;fill:#000000;fill-opacity:1;stroke-width:0.406378;filter:url(#filter4645)"
     d="m 119.81415,26.005078 c -1.04648,0 -8.01729,2.957082 -24.322262,10.320313 C 82.921718,42.002011 71.507321,47.742007 70.613281,48 70.613281,48 56.21498,48.005118 49,48 30.718,48 16,62.718 16,81 v 60 c 0,18.282 14.718,33 33,33 h 94 c 18.282,0 33,-14.718 33,-33 V 81 C 176,62.718 161.282,48 143,48 h -17.95312 c -1.93327,-0.631749 -2.64888,-1.445628 -3,-2.369141 -0.21624,-0.568754 0.41219,-3.059264 1.01923,-7.035937 1.33334,-8.735199 1.30591,-9.50073 -0.40235,-11.208984 -1.06095,-1.060956 -1.72325,-1.38086 -2.84961,-1.38086 z"
     sodipodi:nodetypes="ssccssssssscssss" />
  <path
     id="path965"
     style="fill:#6d45df;fill-opacity:1;stroke-width:0.406378"
     d="m 119.81415,22.005078 c -1.04648,0 -8.01729,2.957082 -24.322262,10.320313 C 82.921718,38.002011 71.507321,43.742007 70.613281,44 70.613281,44 56.21498,44.005118 49,44 30.718,44 16,58.718 16,77 v 60 c 0,18.282 14.718,33 33,33 h 94 c 18.282,0 33,-14.718 33,-33 V 77 C 176,58.718 161.282,44 143,44 h -17.95312 c -1.93327,-0.631749 -2.64888,-1.445628 -3,-2.369141 -0.21624,-0.568754 0.41219,-3.059264 1.01923,-7.035937 1.33334,-8.735199 1.30591,-9.50073 -0.40235,-11.208984 -1.06095,-1.060956 -1.72325,-1.38086 -2.84961,-1.38086 z"
     sodipodi:nodetypes="ssccssssssscssss" />
  <path
     id="circle4690"
     style="opacity:0.2;fill:#000000;stroke-width:12.5215;stroke-linecap:round;stroke-linejoin:round;filter:url(#filter4733);stop-color:#000000"
     d="m 124.00391,81.999379 a 4,4 0 0 0 -2.22266,0.671875 l -9,6 a 4.0004,4.0004 0 0 0 -0.23633,6.486328 l 9,6.999998 a 4,4 0 0 0 5.61328,-0.70312 4,4 0 0 0 -0.70312,-5.613284 l -4.61914,-3.591797 4.38281,-2.921875 a 4,4 0 0 0 1.10937,-5.546875 4,4 0 0 0 -2.54296,-1.703125 4,4 0 0 0 -0.78125,-0.07813 z m -52.50391,1 a 8.5,8.5 0 0 0 -8.5,8.5 8.5,8.5 0 0 0 8.5,8.5 8.5,8.5 0 0 0 8.5,-8.5 8.5,8.5 0 0 0 -8.5,-8.5 z m 20.996094,18.000001 c -3.216453,-0.0329 -5.614975,1.54191 -6.869141,4.52734 -0.52253,1.24381 -0.628846,3.72932 -0.626953,14.63672 0.001,7.34374 0.179678,13.77592 0.404297,14.58008 0.462239,1.65486 2.912212,4.15772 4.708984,4.81055 3.011641,1.09423 4.345185,0.58042 16.226559,-6.22852 11.29821,-6.47475 13.04491,-7.67119 14.09375,-9.66797 0.851,-1.62014 0.72572,-4.95169 -0.25781,-6.86914 -0.97805,-1.90679 -1.4896,-2.24944 -14.91992,-9.95508 -8.82329,-5.06234 -10.05459,-5.6517 -12.105469,-5.80468 -0.221605,-0.0165 -0.439867,-0.0271 -0.654297,-0.0293 z" />
  <circle
     style="fill:#ffffff;stroke-width:12.5215;stroke-linecap:round;stroke-linejoin:round;stop-color:#000000"
     id="path3045"
     cx="71.5"
     cy="88.5"
     r="8.5" />
  <path
     style="color:#000000;fill:#ffffff;stroke-linecap:round;stroke-linejoin:round;-inkscape-stroke:none"
     d="m 124.78516,79.078125 a 4,4 0 0 0 -3.00391,0.59375 l -9,6 a 4.0004,4.0004 0 0 0 -0.23633,6.486328 l 9,7 a 4,4 0 0 0 5.61328,-0.703125 4,4 0 0 0 -0.70312,-5.613281 L 121.83594,89.25 l 4.38281,-2.921875 a 4,4 0 0 0 1.10938,-5.546875 4,4 0 0 0 -2.54297,-1.703125 z"
     id="path3182" />
  <path
     style="fill:#fcd600;fill-opacity:1;stroke-width:0.408129"
     d="m 106.34079,130.32699 c 11.29821,-6.47475 13.04365,-7.67233 14.09249,-9.66911 0.851,-1.62014 0.72618,-4.95202 -0.25735,-6.86947 -0.97805,-1.90679 -1.49063,-2.24874 -14.92095,-9.95438 -8.823289,-5.062343 -10.053765,-5.652488 -12.104644,-5.805472 -3.545681,-0.26449 -6.185352,1.313853 -7.523129,4.498312 -0.52253,1.24381 -0.629075,3.7306 -0.627182,14.638 0.001,7.34374 0.179555,13.7743 0.404174,14.57846 0.462239,1.65486 2.912226,4.15764 4.708998,4.81047 3.011641,1.09423 4.346215,0.58213 16.227593,-6.22681 z"
     id="path1930" />
  <path
     id="path4649"
     style="opacity:0.1;fill:#ffffff;fill-opacity:1;stroke-width:0.406378"
     d="m 119.81445,22.005859 c -1.04648,0 -8.01729,2.957082 -24.322262,10.320313 C 82.922017,38.002792 71.507321,43.742007 70.613281,44 70.613281,44 56.21498,44.005118 49,44 30.718,44 16,58.718 16,77 v 1 c 0,-18.282 14.718,-33 33,-33 7.21498,0.0051 21.613281,0 21.613281,0 0.89404,-0.257993 12.308736,-5.997208 24.878907,-11.673828 16.304972,-7.363231 23.275782,-10.320313 24.322262,-10.320313 1.12636,0 1.78866,0.319904 2.84961,1.38086 0.81691,0.816903 1.23912,1.438445 1.32227,2.798828 0.0767,-2.091418 -0.33228,-2.808848 -1.32227,-3.798828 -1.06095,-1.060956 -1.72325,-1.38086 -2.84961,-1.38086 z m 2.24414,19.648438 c -0.0549,0.460891 -0.0731,0.815178 -0.0117,0.976562 0.35111,0.923513 1.06673,1.737392 3,2.369141 H 143 c 18.282,0 33,14.718 33,33 V 77 C 176,58.718 161.282,44 143,44 h -17.95312 c -1.91651,-0.626272 -2.63388,-1.432086 -2.98829,-2.345703 z" />
</svg>
