<?xml version="1.0" encoding="UTF-8" standalone="no"?>
<svg
   width="192"
   height="192"
   version="1"
   id="svg12"
   sodipodi:docname="apps_plato.svg"
   inkscape:version="1.1.1 (1:1.1+202109281949+c3084ef5ed)"
   xmlns:inkscape="http://www.inkscape.org/namespaces/inkscape"
   xmlns:sodipodi="http://sodipodi.sourceforge.net/DTD/sodipodi-0.dtd"
   xmlns="http://www.w3.org/2000/svg"
   xmlns:svg="http://www.w3.org/2000/svg"
   xmlns:rdf="http://www.w3.org/1999/02/22-rdf-syntax-ns#"
   xmlns:cc="http://creativecommons.org/ns#"
   xmlns:dc="http://purl.org/dc/elements/1.1/">
  <metadata
     id="metadata18">
    <rdf:RDF>
      <cc:Work
         rdf:about="">
        <dc:format>image/svg+xml</dc:format>
        <dc:type
           rdf:resource="http://purl.org/dc/dcmitype/StillImage" />
      </cc:Work>
    </rdf:RDF>
  </metadata>
  <defs
     id="defs16">
    <filter
       inkscape:collect="always"
       style="color-interpolation-filters:sRGB"
       id="filter2795"
       x="-0.050709725"
       y="-0.045638815"
       width="1.1014194"
       height="1.0912776">
      <feGaussianBlur
         inkscape:collect="always"
         stdDeviation="3.0425877"
         id="feGaussianBlur2797" />
    </filter>
    <filter
       inkscape:collect="always"
       style="color-interpolation-filters:sRGB"
       id="filter8977"
       x="-0.07950018"
       y="-0.070981994"
       width="1.1590004"
       height="1.141964">
      <feGaussianBlur
         inkscape:collect="always"
         stdDeviation="3.3124865"
         id="feGaussianBlur8979" />
    </filter>
  </defs>
  <sodipodi:namedview
     pagecolor="#ffffff"
     bordercolor="#666666"
     borderopacity="1"
     objecttolerance="10"
     gridtolerance="10"
     guidetolerance="10"
     inkscape:pageopacity="0"
     inkscape:pageshadow="2"
     inkscape:window-width="1920"
     inkscape:window-height="1016"
     id="namedview14"
     showgrid="false"
     inkscape:zoom="1"
     inkscape:cx="102.5"
     inkscape:cy="55.5"
     inkscape:window-x="0"
     inkscape:window-y="32"
     inkscape:window-maximized="1"
     inkscape:current-layer="svg12"
     showguides="false"
     inkscape:document-rotation="0"
     inkscape:pagecheckerboard="0"
     inkscape:snap-bbox="true"
     inkscape:snap-bbox-midpoints="true"
     inkscape:snap-global="true">
    <inkscape:grid
       type="xygrid"
       id="grid852" />
  </sodipodi:namedview>
  <path
     id="path2757"
     style="color:#000000;opacity:0.2;fill:#000000;fill-opacity:1;stroke-width:0.893859;stroke-linecap:round;stroke-linejoin:round;-inkscape-stroke:none;filter:url(#filter2795)"
     d="m 96.188747,20.000074 c -2.926194,0.0088 -5.849461,0.769856 -8.459579,2.274375 L 32.690361,53.990127 a 8.9480207,8.930956 0 0 0 -0.0018,0 c -5.218338,3.008428 -8.479462,8.586588 -8.498012,14.61949 l -0.190475,63.105203 c -0.01785,6.03374 3.238017,11.66166 8.482295,14.66309 l 54.850078,31.38778 c 5.243925,3.00039 11.713626,2.96979 16.933133,-0.0366 a 8.9480207,8.930956 0 0 0 0.002,0 l 55.03881,-31.71743 c 5.221,-3.00771 8.4847,-8.58465 8.50327,-14.61949 a 8.9480207,8.930956 0 0 0 0,-0.002 l 0.19047,-63.103457 a 8.9480207,8.930956 0 0 0 0,-0.0018 c 0.0179,-6.033737 -3.23801,-11.65991 -8.48229,-14.66135 a 8.9480207,8.930956 0 0 0 0,-0.0018 l -54.8501,-31.38743 c -2.62279,-1.500692 -5.5526,-2.243045 -8.478793,-2.234259 z" />
  <path
     id="path1323"
     style="color:#000000;fill:#2f78e6;stroke-width:0.893859;stroke-linecap:round;stroke-linejoin:round;-inkscape-stroke:none;fill-opacity:1"
     d="m 96.188747,16.000077 c -2.926194,0.0088 -5.849461,0.769856 -8.459579,2.274375 L 32.690361,49.99013 a 8.9480207,8.930956 0 0 0 -0.0018,0 c -5.218338,3.008428 -8.479462,8.586588 -8.498012,14.61949 l -0.190475,63.1052 c -0.01785,6.03374 3.238017,11.66166 8.482295,14.66309 l 54.850078,31.38778 c 5.243925,3.00039 11.713626,2.96979 16.933133,-0.0366 a 8.9480207,8.930956 0 0 0 0.002,0 l 55.03881,-31.71743 c 5.221,-3.00771 8.4847,-8.58465 8.50327,-14.61949 a 8.9480207,8.930956 0 0 0 0,-0.002 l 0.19047,-63.103454 a 8.9480207,8.930956 0 0 0 0,-0.0018 c 0.0179,-6.033737 -3.23801,-11.65991 -8.48229,-14.66135 a 8.9480207,8.930956 0 0 0 0,-0.0018 l -54.8501,-31.38743 c -2.62279,-1.500692 -5.5526,-2.243045 -8.478793,-2.234259 z" />
  <path
     id="path8939"
     style="opacity:0.2;fill:#000000;fill-opacity:1;stroke-width:0.296278;filter:url(#filter8977)"
     d="m 96,42.000227 c -0.979299,0.01662 -1.955663,0.144774 -2.820312,0.396484 -1.141312,0.332246 -8.725536,4.528724 -22.177735,12.267578 -19.069113,10.970189 -22.225327,12.818944 -23.566406,15.173829 -0.2354,0.413344 -0.41553,0.84125 -0.615235,1.33789 -0.616199,1.534202 -0.773403,3.004991 -0.720703,4.525391 l -0.07813,20.96289 c -0.062,16.564801 0.01,24.301081 0.242188,25.646491 0.421899,2.44725 1.521298,4.46861 3.279297,6.0332 1.630159,1.45082 41.181555,24.40491 43.345703,25.15625 1.070149,0.37153 2.059639,0.53295 3.111328,0.49414 1.051689,0.0388 2.041179,-0.12261 3.111328,-0.49414 2.164152,-0.75134 41.715542,-23.70543 43.345702,-25.15625 1.758,-1.56459 2.85741,-3.58595 3.2793,-6.0332 0.2319,-1.34541 0.30409,-9.08169 0.24219,-25.646491 l -0.0781,-20.96289 c 0.053,-1.5204 -0.1045,-2.991189 -0.7207,-4.525391 -0.1997,-0.49664 -0.37974,-0.924546 -0.61524,-1.33789 -1.34132,-2.354885 -4.4973,-4.20364 -23.5664,-15.173829 C 107.54583,46.925434 99.961621,42.728957 98.820312,42.396711 97.955613,42.145001 96.979309,42.016848 96,42.000227 Z m 0.148438,5.003906 c 1.116821,0.02582 2.233814,0.208515 2.955078,0.542969 2.306474,1.069521 28.332624,16.30847 35.398434,20.666016 1.49267,0.67635 2.10214,1.570911 2.48047,2.958984 0.065,0.633562 -0.0428,1.272725 -0.33203,1.8125 -0.40326,0.752755 -1.92217,1.76409 -7.35351,4.902344 -3.76586,2.175906 -7.18159,4.187776 -7.5879,4.46875 -0.58688,0.40585 -1.0988,1.617317 -2.5,5.890625 -0.97008,2.958509 -1.86162,5.378906 -1.97851,5.378906 -0.11689,0 -1.80607,-0.936405 -3.75391,-2.080078 -1.94782,-1.143671 -3.67303,-2.080078 -3.83398,-2.080078 -0.16095,0 -2.59836,1.340157 -5.41602,2.976562 -2.81765,1.636406 -5.589366,3.107696 -6.158201,3.267578 -1.749873,0.49184 -3.887648,0.35008 -5.173828,-0.339843 C 87.964036,92.724582 56.672942,74.364009 56.013672,73.728743 54.917123,72.672119 54.678298,70.951549 55.455078,69.709211 55.877647,69.033374 60.410822,66.265692 74.099609,58.326399 84.04768,52.556668 92.641247,47.643927 93.197266,47.410383 c 0.717104,-0.301206 1.834349,-0.432066 2.951172,-0.40625 z M 78.060547,67.00218 c -2.334699,0.03798 -4.726434,0.832456 -5.582031,2.115235 -2.10817,3.160728 3.148784,6.009465 8.189453,4.4375 C 82.413689,73.010503 84,71.527137 84,70.43968 84,69.362645 83.082118,68.339649 81.453125,67.603743 80.491909,67.169508 79.283485,66.982287 78.060547,67.00218 Z m 18,0 c -2.334699,0.03798 -4.726434,0.832456 -5.582031,2.115235 -2.10817,3.160728 3.148784,6.009465 8.189453,4.4375 C 100.41369,73.010503 102,71.527137 102,70.43968 c 0,-1.077035 -0.91788,-2.100031 -2.546875,-2.835937 -0.961216,-0.434235 -2.16964,-0.621456 -3.392578,-0.601563 z m 18.000003,0 c -2.3347,0.03798 -4.72644,0.832456 -5.58203,2.115235 -2.10817,3.160728 3.14878,6.009465 8.18945,4.4375 C 118.41369,73.010503 120,71.527137 120,70.43968 c 0,-1.077035 -0.91789,-2.100031 -2.54688,-2.835937 -0.96121,-0.434235 -2.16964,-0.621456 -3.39257,-0.601563 z M 60.25,93.000227 c 2.672382,0.04 6.657407,4.103805 6.748047,8.078123 0.05366,2.3532 -0.961956,3.2709 -3.099609,2.80274 -3.469482,-0.75984 -6.978772,-6.833132 -5.585938,-9.667972 0.422731,-0.86039 1.119423,-1.225151 1.9375,-1.212891 z m 71.39844,0.002 c 0.34729,-0.01267 0.67734,0.04219 0.97851,0.173828 2.97559,1.300674 0.77484,7.933562 -3.35156,10.103522 -1.62803,0.85613 -2.01507,0.90659 -3,0.38086 -1.15342,-0.61566 -1.51542,-1.78399 -1.125,-3.62501 0.75188,-3.545534 4.06697,-6.944551 6.49805,-7.0332 z M 79.25,104.00023 c 2.672382,0.04 6.657407,4.10381 6.748047,8.07812 0.05366,2.35323 -0.961956,3.2709 -3.099609,2.80274 -3.469482,-0.75984 -6.978772,-6.83313 -5.585938,-9.66797 0.422731,-0.86039 1.119423,-1.22515 1.9375,-1.21289 z m 33.39844,0.002 c 0.34729,-0.0127 0.67734,0.0422 0.97851,0.17383 2.97559,1.30067 0.77484,7.93357 -3.35156,10.10352 -1.62803,0.85613 -2.01507,0.90659 -3,0.38086 -1.15342,-0.61566 -1.51542,-1.78399 -1.125,-3.625 0.75188,-3.54554 4.06697,-6.94456 6.49805,-7.03321 z m 19.50976,5.99805 c 0.90645,0.008 1.57743,0.54533 1.79102,1.68164 0.4406,2.34408 -2.04271,6.44031 -6.85352,11.30469 -6.63761,6.71153 -14.43298,10.1363 -19.76562,8.68359 -0.57215,-0.15586 -1.35629,-0.63391 -1.74219,-1.06445 -0.59568,-0.66463 -0.67466,-0.98382 -0.51953,-2.11328 0.33241,-2.42066 2.46788,-5.179 4.74023,-6.125 0.93207,-0.38802 1.32994,-0.41206 2.1836,-0.13086 1.77521,0.58474 4.44958,0.22631 6.73437,-0.90235 2.53222,-1.25091 5.92706,-4.36348 7.96289,-7.30273 1.79356,-2.58949 3.95799,-4.04459 5.46875,-4.03125 z m -71.9082,2 c 2.672382,0.04 6.657407,4.10381 6.748047,8.07812 0.05366,2.35323 -0.961956,3.2709 -3.099609,2.80274 -3.469482,-0.75984 -6.978772,-6.83313 -5.585938,-9.66797 0.422731,-0.86039 1.119423,-1.22515 1.9375,-1.21289 z m 19,11 c 2.672382,0.04 6.657407,4.10381 6.748047,8.07812 0.05366,2.3532 -0.961956,3.2709 -3.099609,2.80274 -3.469482,-0.75984 -6.978772,-6.83313 -5.585938,-9.66797 0.422731,-0.86039 1.119423,-1.22515 1.9375,-1.21289 z" />
  <path
     id="path1903"
     style="opacity:1;fill:#ffffff;fill-opacity:1;stroke-width:0.296278"
     d="M 96 40 C 95.020701 40.01662 94.044337 40.144774 93.179688 40.396484 C 92.038376 40.72873 84.454152 44.925208 71.001953 52.664062 C 51.93284 63.634251 48.776626 65.483006 47.435547 67.837891 C 47.200147 68.251235 47.020017 68.679141 46.820312 69.175781 C 46.204113 70.709983 46.046909 72.180772 46.099609 73.701172 L 46.021484 94.664062 C 45.959484 111.22886 46.031472 118.96514 46.263672 120.31055 C 46.685571 122.7578 47.78497 124.77916 49.542969 126.34375 C 51.173128 127.79457 90.724524 150.74866 92.888672 151.5 C 93.958821 151.87153 94.948311 152.03295 96 151.99414 C 97.051689 152.03294 98.041179 151.87153 99.111328 151.5 C 101.27548 150.74866 140.82687 127.79457 142.45703 126.34375 C 144.21503 124.77916 145.31444 122.7578 145.73633 120.31055 C 145.96823 118.96514 146.04042 111.22886 145.97852 94.664062 L 145.90039 73.701172 C 145.95339 72.180772 145.79589 70.709983 145.17969 69.175781 C 144.97999 68.679141 144.79995 68.251235 144.56445 67.837891 C 143.22313 65.483006 140.06715 63.634251 120.99805 52.664062 C 107.54583 44.925207 99.961621 40.72873 98.820312 40.396484 C 97.955613 40.144774 96.979309 40.016621 96 40 z M 96.148438 45.003906 C 97.265259 45.029726 98.382252 45.212421 99.103516 45.546875 C 101.40999 46.616396 127.43614 61.855345 134.50195 66.212891 C 135.99462 66.889241 136.60409 67.783802 136.98242 69.171875 C 137.04742 69.805437 136.93962 70.4446 136.65039 70.984375 C 136.24713 71.73713 134.72822 72.748465 129.29688 75.886719 C 125.53102 78.062625 122.11529 80.074495 121.70898 80.355469 C 121.1221 80.761319 120.61018 81.972786 119.20898 86.246094 C 118.2389 89.204603 117.34736 91.625 117.23047 91.625 C 117.11358 91.625 115.4244 90.688595 113.47656 89.544922 C 111.52874 88.401251 109.80353 87.464844 109.64258 87.464844 C 109.48163 87.464844 107.04422 88.805001 104.22656 90.441406 C 101.40891 92.077812 98.637194 93.549102 98.068359 93.708984 C 96.318486 94.200824 94.180711 94.059064 92.894531 93.369141 C 87.964036 90.724355 56.672942 72.363782 56.013672 71.728516 C 54.917123 70.671892 54.678298 68.951322 55.455078 67.708984 C 55.877647 67.033147 60.410822 64.265465 74.099609 56.326172 C 84.04768 50.556441 92.641247 45.6437 93.197266 45.410156 C 93.91437 45.10895 95.031615 44.97809 96.148438 45.003906 z M 78.060547 65.001953 C 75.725848 65.03993 73.334113 65.834409 72.478516 67.117188 C 70.370346 70.277916 75.6273 73.126653 80.667969 71.554688 C 82.413689 71.010276 84 69.52691 84 68.439453 C 84 67.362418 83.082118 66.339422 81.453125 65.603516 C 80.491909 65.169281 79.283485 64.98206 78.060547 65.001953 z M 96.060547 65.001953 C 93.725848 65.03993 91.334113 65.834409 90.478516 67.117188 C 88.370346 70.277916 93.6273 73.126653 98.667969 71.554688 C 100.41369 71.010276 102 69.52691 102 68.439453 C 102 67.362418 101.08212 66.339422 99.453125 65.603516 C 98.491909 65.169281 97.283485 64.98206 96.060547 65.001953 z M 114.06055 65.001953 C 111.72585 65.03993 109.33411 65.834409 108.47852 67.117188 C 106.37035 70.277916 111.6273 73.126653 116.66797 71.554688 C 118.41369 71.010276 120 69.52691 120 68.439453 C 120 67.362418 119.08211 66.339422 117.45312 65.603516 C 116.49191 65.169281 115.28348 64.98206 114.06055 65.001953 z M 60.25 91 C 62.922382 91.04 66.907407 95.103805 66.998047 99.078125 C 67.051707 101.43132 66.036091 102.34902 63.898438 101.88086 C 60.428956 101.12102 56.919666 95.047731 58.3125 92.212891 C 58.735231 91.352501 59.431923 90.98774 60.25 91 z M 131.64844 91.001953 C 131.99573 90.989283 132.32578 91.044142 132.62695 91.175781 C 135.60254 92.476455 133.40179 99.109343 129.27539 101.2793 C 127.64736 102.13543 127.26032 102.18589 126.27539 101.66016 C 125.12197 101.0445 124.75997 99.876172 125.15039 98.035156 C 125.90227 94.489619 129.21736 91.090602 131.64844 91.001953 z M 79.25 102 C 81.922382 102.04 85.907407 106.10381 85.998047 110.07812 C 86.051707 112.43135 85.036091 113.34902 82.898438 112.88086 C 79.428956 112.12102 75.919666 106.04773 77.3125 103.21289 C 77.735231 102.3525 78.431923 101.98774 79.25 102 z M 112.64844 102.00195 C 112.99573 101.98925 113.32578 102.04415 113.62695 102.17578 C 116.60254 103.47645 114.40179 110.10935 110.27539 112.2793 C 108.64736 113.13543 108.26032 113.18589 107.27539 112.66016 C 106.12197 112.0445 105.75997 110.87617 106.15039 109.03516 C 106.90227 105.48962 110.21736 102.0906 112.64844 102.00195 z M 132.1582 108 C 133.06465 108.008 133.73563 108.54533 133.94922 109.68164 C 134.38982 112.02572 131.90651 116.12195 127.0957 120.98633 C 120.45809 127.69786 112.66272 131.12263 107.33008 129.66992 C 106.75793 129.51406 105.97379 129.03601 105.58789 128.60547 C 104.99221 127.94084 104.91323 127.62165 105.06836 126.49219 C 105.40077 124.07153 107.53624 121.31319 109.80859 120.36719 C 110.74066 119.97917 111.13853 119.95513 111.99219 120.23633 C 113.7674 120.82107 116.44177 120.46264 118.72656 119.33398 C 121.25878 118.08307 124.65362 114.9705 126.68945 112.03125 C 128.48301 109.44176 130.64744 107.98666 132.1582 108 z M 60.25 110 C 62.922382 110.04 66.907407 114.10381 66.998047 118.07812 C 67.051707 120.43135 66.036091 121.34902 63.898438 120.88086 C 60.428956 120.12102 56.919666 114.04773 58.3125 111.21289 C 58.735231 110.3525 59.431923 109.98774 60.25 110 z M 79.25 121 C 81.922382 121.04 85.907407 125.10381 85.998047 129.07812 C 86.051707 131.43132 85.036091 132.34902 82.898438 131.88086 C 79.428956 131.12102 75.919666 125.04773 77.3125 122.21289 C 77.735231 121.3525 78.431923 120.98774 79.25 121 z " />
  <path
     id="path2799"
     style="color:#000000;fill:#ffffff;stroke-width:0.893859;stroke-linecap:round;stroke-linejoin:round;-inkscape-stroke:none;fill-opacity:1;opacity:0.1"
     d="M 96.189453 16 C 93.263259 16.0088 90.338634 16.770872 87.728516 18.275391 L 32.689453 49.990234 C 27.471115 52.998662 24.209956 58.576473 24.191406 64.609375 L 24 127.71484 C 23.999955 127.72995 24.001957 127.74467 24.001953 127.75977 L 24.191406 65.609375 C 24.209956 59.576473 27.471115 53.998662 32.689453 50.990234 L 87.728516 19.275391 C 90.338634 17.770872 93.263259 17.0088 96.189453 17 C 99.115646 16.991214 102.04518 17.733683 104.66797 19.234375 L 159.51758 50.621094 A 8.9480207 8.930956 0 0 0 159.51758 50.623047 C 164.74873 53.616974 167.99956 59.22365 167.99805 65.240234 L 168 64.287109 A 8.9480207 8.930956 0 0 0 168 64.285156 C 168.0179 58.251419 164.76186 52.624487 159.51758 49.623047 A 8.9480207 8.930956 0 0 0 159.51758 49.621094 L 104.66797 18.234375 C 102.04518 16.733683 99.115646 15.991214 96.189453 16 z " />
</svg>
