<?xml version="1.0" encoding="UTF-8" standalone="no"?>
<svg
   width="192"
   height="192"
   version="1"
   id="svg28"
   sodipodi:docname="apps_shopify.svg"
   inkscape:version="1.1.1 (1:1.1+202109281949+c3084ef5ed)"
   xmlns:inkscape="http://www.inkscape.org/namespaces/inkscape"
   xmlns:sodipodi="http://sodipodi.sourceforge.net/DTD/sodipodi-0.dtd"
   xmlns="http://www.w3.org/2000/svg"
   xmlns:svg="http://www.w3.org/2000/svg"
   xmlns:rdf="http://www.w3.org/1999/02/22-rdf-syntax-ns#"
   xmlns:cc="http://creativecommons.org/ns#"
   xmlns:dc="http://purl.org/dc/elements/1.1/">
  <metadata
     id="metadata34">
    <rdf:RDF>
      <cc:Work
         rdf:about="">
        <dc:format>image/svg+xml</dc:format>
        <dc:type
           rdf:resource="http://purl.org/dc/dcmitype/StillImage" />
      </cc:Work>
    </rdf:RDF>
  </metadata>
  <defs
     id="defs32">
    <filter
       inkscape:collect="always"
       style="color-interpolation-filters:sRGB"
       id="filter13769"
       x="-0.069270834"
       y="-0.081762298"
       width="1.1385417"
       height="1.1635246">
      <feGaussianBlur
         inkscape:collect="always"
         stdDeviation="4.15625"
         id="feGaussianBlur13771" />
    </filter>
    <filter
       inkscape:collect="always"
       style="color-interpolation-filters:sRGB"
       id="filter13811"
       x="-0.077205882"
       y="-0.072916667"
       width="1.1544118"
       height="1.1458333">
      <feGaussianBlur
         inkscape:collect="always"
         stdDeviation="2.1875"
         id="feGaussianBlur13813" />
    </filter>
    <filter
       inkscape:collect="always"
       style="color-interpolation-filters:sRGB"
       id="filter9739"
       x="-0.075489795"
       y="-0.18969234"
       width="1.1509796"
       height="1.3793847">
      <feGaussianBlur
         inkscape:collect="always"
         stdDeviation="3.0825004"
         id="feGaussianBlur9741" />
    </filter>
  </defs>
  <sodipodi:namedview
     pagecolor="#ffffff"
     bordercolor="#666666"
     borderopacity="1"
     objecttolerance="10"
     gridtolerance="10"
     guidetolerance="10"
     inkscape:pageopacity="0"
     inkscape:pageshadow="2"
     inkscape:window-width="1920"
     inkscape:window-height="1019"
     id="namedview30"
     showgrid="false"
     inkscape:zoom="1"
     inkscape:cx="62"
     inkscape:cy="71.5"
     inkscape:window-x="0"
     inkscape:window-y="34"
     inkscape:window-maximized="1"
     inkscape:current-layer="svg28"
     inkscape:pagecheckerboard="0"
     inkscape:snap-global="true"
     showguides="false"
     inkscape:snap-bbox="true"
     inkscape:snap-bbox-midpoints="true">
    <inkscape:grid
       type="xygrid"
       id="grid841" />
  </sodipodi:namedview>
  <path
     id="path13773"
     style="opacity:0.2;fill:#000000;fill-opacity:1;stroke-width:7.83764;stroke-linecap:round;stroke-linejoin:round;filter:url(#filter13811)"
     d="M 96,18 C 77.222319,18 62,37.222319 62,56 62,74.777681 77.222319,90 96,90 114.77768,90 130,74.777681 130,56 130,37.222319 114.77768,18 96,18 Z m 0,11 c 12.70255,2e-6 23,14.297452 23,27 0,12.702548 -10.29745,22.999998 -23,23 -12.702548,-2e-6 -22.999998,-10.297452 -23,-23 2e-6,-12.702548 10.297452,-26.999998 23,-27 z"
     sodipodi:nodetypes="ssssssssss" />
  <path
     id="path1997"
     style="opacity:1;fill:#48cadb;fill-opacity:1;stroke-width:7.83764;stroke-linecap:round;stroke-linejoin:round"
     d="M 96,16 C 77.222319,16 62,35.222319 62,54 62,72.777681 77.222319,88 96,88 114.77768,88 130,72.777681 130,54 130,35.222319 114.77768,16 96,16 Z m 0,11 c 12.70255,2e-6 23,14.297452 23,27 0,12.702548 -10.29745,22.999998 -23,23 -12.702548,-2e-6 -22.999998,-10.297452 -23,-23 2e-6,-12.702548 10.297452,-26.999998 23,-27 z"
     sodipodi:nodetypes="ssssssssss" />
  <path
     id="path13731"
     style="opacity:0.2;mix-blend-mode:normal;fill:#000000;fill-opacity:1;stroke-width:0.421556;filter:url(#filter13769)"
     d="m 43.25217,57.001101 c -16.576862,-0.01025 -17.049588,0.0337 -18.136501,0.880728 -1.006341,0.784234 -1.115012,1.14469 -1.115668,3.67133 -4.03e-4,1.540992 1.053763,26.048483 2.34172,53.972441 1.785539,38.7121 2.496689,51.31842 2.994168,53.07805 1.313625,4.64643 4.970647,8.56776 9.232842,9.89892 1.390692,0.43435 12.698158,0.54499 57.431268,0.4804 44.733111,0.0646 56.040581,-0.0461 57.431271,-0.4804 4.26219,-1.33116 7.91921,-5.25249 9.23284,-9.89892 0.49748,-1.75963 1.20863,-14.36595 2.99417,-53.07805 1.28796,-27.923958 2.34213,-52.431449 2.34172,-53.972441 -6.5e-4,-2.52664 -0.10933,-2.887096 -1.11567,-3.67133 -1.08691,-0.847023 -1.55962,-0.890976 -18.1365,-0.880728 l -17.01887,0.0098 -0.002,-0.0098 H 95.999999 60.273003 l -0.002,0.0098 z"
     sodipodi:nodetypes="csssscccssssccccccc" />
  <path
     id="path13815"
     style="opacity:0.2;fill:#ffffff;fill-opacity:1;stroke-width:7.83764;stroke-linecap:round;stroke-linejoin:round"
     d="M 96 16 C 77.222319 16 62 35.222319 62 54 C 62 54.167011 62.011272 54.331607 62.013672 54.498047 C 62.281427 35.881264 77.38952 17 96 17 C 114.61048 17 129.71857 35.881264 129.98633 54.498047 C 129.98873 54.331607 130 54.167011 130 54 C 130 35.222319 114.77768 16 96 16 z M 73.011719 54.498047 C 73.00819 54.665251 73 54.83331 73 55 C 73.000002 67.702548 83.297452 77.999998 96 78 C 108.70255 77.999998 119 67.702548 119 55 C 119 54.83331 118.99181 54.665251 118.98828 54.498047 C 118.72238 66.969799 108.53552 76.999998 96 77 C 83.464482 76.999998 73.277623 66.969799 73.011719 54.498047 z " />
  <path
     id="path945"
     style="opacity:1;fill:#6a4bdb;fill-opacity:1;stroke-width:0.421556"
     d="m 43.25217,54.001108 c -16.576862,-0.01025 -17.049588,0.0337 -18.136501,0.880728 -1.006341,0.784234 -1.115012,1.14469 -1.115668,3.67133 -4.03e-4,1.540992 1.053763,26.048483 2.34172,53.972444 1.785539,38.7121 2.496689,51.31842 2.994168,53.07805 1.313625,4.64643 4.970647,8.56776 9.232842,9.89892 1.390692,0.43435 12.698158,0.54499 57.431268,0.4804 44.733111,0.0646 56.040581,-0.0461 57.431271,-0.4804 4.26219,-1.33116 7.91921,-5.25249 9.23284,-9.89892 0.49748,-1.75963 1.20863,-14.36595 2.99417,-53.07805 1.28796,-27.923961 2.34213,-52.431452 2.34172,-53.972444 -6.5e-4,-2.52664 -0.10933,-2.887096 -1.11567,-3.67133 -1.08691,-0.847023 -1.55962,-0.890976 -18.1365,-0.880728 l -17.01887,0.0098 -0.002,-0.0098 H 95.999999 60.273003 l -0.002,0.0098 z"
     sodipodi:nodetypes="csssscccssssccccccc" />
  <path
     id="path13817"
     style="opacity:0.1;fill:#ffffff;fill-opacity:1;stroke-width:0.421556"
     d="M 43.251953 54.001953 C 26.675091 53.991703 26.202147 54.035785 25.115234 54.882812 C 24.108893 55.667046 24.000656 56.026094 24 58.552734 C 23.999996 58.568492 24.013456 58.881804 24.013672 58.902344 C 24.042762 57.029818 24.215888 56.581713 25.115234 55.880859 C 26.202147 55.033831 26.675091 54.991703 43.251953 55.001953 L 60.271484 55.011719 L 60.273438 55.001953 L 96 55.001953 L 131.72656 55.001953 L 131.72852 55.011719 L 148.74805 55.001953 C 165.32493 54.991705 165.79786 55.033836 166.88477 55.880859 C 167.78411 56.581713 167.95724 57.029818 167.98633 58.902344 C 167.98654 58.881804 168 58.568492 168 58.552734 C 167.99935 56.026094 167.89111 55.667046 166.88477 54.882812 C 165.79786 54.035789 165.32493 53.991705 148.74805 54.001953 L 131.72852 54.011719 L 131.72656 54.001953 L 96 54.001953 L 60.273438 54.001953 L 60.271484 54.011719 L 43.251953 54.001953 z " />
  <path
     id="path9701"
     style="opacity:0.2;fill:#000000;stroke-width:0.24903;filter:url(#filter9739)"
     d="m 68,98 v 16 16 H 71.125 74 v -7.32617 c 0,-5.66868 -0.07302,-7.50538 0.193359,-8.12305 1.047625,-2.42945 4.937243,-3.42685 6.935547,-1.86719 C 82.511887,113.76299 83,114.31716 83,122.49609 V 130 H 85.896484 89 l -0.0039,-7.50391 c -0.0048,-8.02932 -0.196656,-9.81745 -1.291016,-12.06054 -1.324133,-2.71404 -4.073315,-4.30974 -7.455078,-4.32617 -2.263211,-0.011 -3.678427,0.53647 -5.355469,2.07031 L 74,109.12695 V 103.61328 98 h -3.125 z m 33.89648,6.00195 c -2.204592,0.0381 -4.487273,0.46443 -6.171871,1.22071 C 93.780573,106.09538 92,107.29607 92,107.73438 c 0,0.46877 1.839668,3.50758 2.324219,3.91796 0.24,0.20328 0.621392,0.0482 1.544922,-0.6289 2.034034,-1.49127 3.644023,-1.9643 6.738279,-1.97852 4.88772,-0.41514 8.34972,4.69081 8.41992,8.64258 0.0407,4.7622 -3.75811,8.20005 -7.78906,8.24609 -3.742857,0 -6.117186,-2.1874 -6.117186,-5.16015 0,-1.35298 0.252296,-1.91845 1.396484,-3.14063 l 0.84961,-0.91015 -1.142579,-2.13868 c -0.628643,-1.1769 -1.226943,-2.14062 -1.330078,-2.14062 -0.290057,0 -2.016033,1.34807 -2.748047,2.14648 -0.990709,1.08058 -1.89793,3.33222 -2.060546,5.10938 -0.465987,5.09241 2.988794,9.63678 8.394532,11.03906 1.66547,0.43203 4.97972,0.31526 6.71094,-0.23633 4.15764,-1.3247 7.28778,-4.63538 8.48437,-8.97461 0.48032,-1.74182 0.41668,-5.61365 -0.12109,-7.46679 -1.43413,-4.94199 -5.11317,-8.53711 -9.91992,-9.69336 -1.12011,-0.26944 -2.41553,-0.38808 -3.73829,-0.36524 z m 31.25586,0.95117 c -2.32194,-0.0554 -4.62799,1.06745 -6.35546,2.65235 L 126,108.47461 V 106.73633 105 H 122.93945 120 v 15.85352 c 0,8.71902 0.0761,15.93066 0.16992,16.02734 0.0939,0.0967 1.4456,0.14434 3.00196,0.10547 L 126,137 v -5.3418 -5.95508 l 1.03516,0.81641 c 4.31651,3.904 11.67121,3.1933 15.04492,-2.18359 1.3291,-2.11823 1.9235,-4.2638 1.91992,-6.9375 -0.005,-3.7412 -1.02121,-6.37574 -3.42578,-8.88672 -1.6826,-1.75705 -3.97328,-3.07855 -6.42774,-3.45899 -0.33073,-0.058 -0.66243,-0.0917 -0.99414,-0.0996 z m -77.601559,1.05079 c -3.361633,-0.0838 -6.505828,1.31873 -7.974609,4.44531 -0.644336,1.43682 -0.625879,3.90957 0.04102,5.30469 0.970582,2.03046 2.274223,2.97184 7.291015,4.45312 1.728536,0.51036 3.371905,1.11128 3.652344,1.33594 0.785118,0.62896 0.890719,1.55662 0.306641,2.30859 -1.429345,1.84023 -6.129822,1.06921 -6.853516,-1.0332 L 51.757812,122 H 48.878906 46 l 0.152344,1.19922 c 0.610634,4.81709 6.267874,7.78784 12.267578,6.5 4.354258,-0.93464 6.885589,-3.87794 6.550781,-7.61719 -0.208657,-2.33039 -1.385737,-4.09556 -3.433594,-5.14648 -0.669924,-0.34379 -2.552933,-0.95879 -4.183593,-1.36719 -3.295857,-0.82548 -4.243077,-1.23295 -4.648438,-2 -0.711531,-1.34643 0.552606,-2.57461 2.771484,-2.56836 1.636942,0.005 2.436429,0.50035 2.908204,1.53516 L 58.595703,113 h 5.806641 l -0.05859,-0.7793 c -0.174593,-2.31716 -2.083235,-4.61577 -4.691406,-5.64843 -1.118997,-0.44304 -1.921873,-0.55319 -4.101563,-0.56836 z M 132.5,111 c 3.03757,0 5.5,2.68629 5.5,6 0,3.31371 -2.46243,6 -5.5,6 -3.03757,0 -5.5,-2.68629 -5.5,-6 0,-3.31371 2.46243,-6 5.5,-6 z" />
  <path
     id="path1016"
     style="opacity:1;fill:#ffffff;stroke-width:0.24903"
     d="M 68 96 L 68 112 L 68 128 L 71.125 128 L 74 128 L 74 120.67383 C 74 115.00515 73.926979 113.16845 74.193359 112.55078 C 75.240984 110.12133 79.130602 109.12393 81.128906 110.68359 C 82.511887 111.76299 83 112.31716 83 120.49609 L 83 128 L 85.896484 128 L 89 128 L 88.996094 120.49609 C 88.991294 112.46677 88.799438 110.67864 87.705078 108.43555 C 86.380945 105.72151 83.631763 104.12581 80.25 104.10938 C 77.986789 104.09838 76.571573 104.64585 74.894531 106.17969 L 74 107.12695 L 74 101.61328 L 74 96 L 70.875 96 L 68 96 z M 101.89648 102.00195 C 99.691888 102.04002 97.409207 102.46638 95.724609 103.22266 C 93.780573 104.09538 92 105.29607 92 105.73438 C 92 106.20315 93.839668 109.24196 94.324219 109.65234 C 94.564219 109.85562 94.945611 109.70052 95.869141 109.02344 C 97.903175 107.53217 99.513164 107.05914 102.60742 107.04492 C 107.49514 106.62978 110.95714 111.73573 111.02734 115.6875 C 111.06804 120.4497 107.26923 123.88755 103.23828 123.93359 C 99.495423 123.93359 97.121094 121.74619 97.121094 118.77344 C 97.121094 117.42046 97.37339 116.85499 98.517578 115.63281 L 99.367188 114.72266 L 98.224609 112.58398 C 97.595966 111.40708 96.997666 110.44336 96.894531 110.44336 C 96.604474 110.44336 94.878498 111.79143 94.146484 112.58984 C 93.155775 113.67042 92.248554 115.92206 92.085938 117.69922 C 91.619951 122.79163 95.074732 127.336 100.48047 128.73828 C 102.14594 129.17031 105.46019 129.05354 107.19141 128.50195 C 111.34905 127.17725 114.47919 123.86657 115.67578 119.52734 C 116.1561 117.78552 116.09246 113.91369 115.55469 112.06055 C 114.12056 107.11856 110.44152 103.52344 105.63477 102.36719 C 104.51466 102.09775 103.21924 101.97911 101.89648 102.00195 z M 133.15234 102.95312 C 130.8304 102.89772 128.52435 104.02057 126.79688 105.60547 L 126 106.47461 L 126 104.73633 L 126 103 L 122.93945 103 L 120 103 L 120 118.85352 C 120 127.57254 120.0761 134.78418 120.16992 134.88086 C 120.26382 134.97756 121.61552 135.0252 123.17188 134.98633 L 126 135 L 126 129.6582 L 126 123.70312 L 127.03516 124.51953 C 131.35167 128.42353 138.70637 127.71283 142.08008 122.33594 C 143.40918 120.21771 144.00358 118.07214 144 115.39844 C 143.995 111.65724 142.97879 109.0227 140.57422 106.51172 C 138.89162 104.75467 136.60094 103.43317 134.14648 103.05273 C 133.81575 102.99468 133.48405 102.96104 133.15234 102.95312 z M 55.550781 104.00391 C 52.189148 103.92011 49.044953 105.32264 47.576172 108.44922 C 46.931836 109.88604 46.950293 112.35879 47.617188 113.75391 C 48.58777 115.78437 49.891411 116.72575 54.908203 118.20703 C 56.636739 118.71739 58.280108 119.31831 58.560547 119.54297 C 59.345665 120.17193 59.451266 121.09959 58.867188 121.85156 C 57.437843 123.69179 52.737366 122.92077 52.013672 120.81836 L 51.757812 120 L 48.878906 120 L 46 120 L 46.152344 121.19922 C 46.762978 126.01631 52.420218 128.98706 58.419922 127.69922 C 62.77418 126.76458 65.305511 123.82128 64.970703 120.08203 C 64.762046 117.75164 63.584966 115.98647 61.537109 114.93555 C 60.867185 114.59176 58.984176 113.97676 57.353516 113.56836 C 54.057659 112.74288 53.110439 112.33541 52.705078 111.56836 C 51.993547 110.22193 53.257684 108.99375 55.476562 109 C 57.113504 109.005 57.912991 109.50035 58.384766 110.53516 L 58.595703 111 L 64.402344 111 L 64.34375 110.2207 C 64.169157 107.90354 62.260515 105.60493 59.652344 104.57227 C 58.533347 104.12923 57.730471 104.01908 55.550781 104.00391 z M 132.5 109 C 135.53757 109 138 111.68629 138 115 C 138 118.31371 135.53757 121 132.5 121 C 129.46243 121 127 118.31371 127 115 C 127 111.68629 129.46243 109 132.5 109 z " />
</svg>
