<?xml version="1.0" encoding="UTF-8" standalone="no"?>
<svg
   width="192"
   height="192"
   version="1"
   id="svg16"
   sodipodi:docname="apps_atmosphere.svg"
   inkscape:version="1.1.1 (1:1.1+202109281949+c3084ef5ed)"
   xmlns:inkscape="http://www.inkscape.org/namespaces/inkscape"
   xmlns:sodipodi="http://sodipodi.sourceforge.net/DTD/sodipodi-0.dtd"
   xmlns="http://www.w3.org/2000/svg"
   xmlns:svg="http://www.w3.org/2000/svg"
   xmlns:rdf="http://www.w3.org/1999/02/22-rdf-syntax-ns#"
   xmlns:cc="http://creativecommons.org/ns#"
   xmlns:dc="http://purl.org/dc/elements/1.1/">
  <metadata
     id="metadata22">
    <rdf:RDF>
      <cc:Work
         rdf:about="">
        <dc:format>image/svg+xml</dc:format>
        <dc:type
           rdf:resource="http://purl.org/dc/dcmitype/StillImage" />
      </cc:Work>
    </rdf:RDF>
  </metadata>
  <defs
     id="defs20">
    <filter
       inkscape:collect="always"
       style="color-interpolation-filters:sRGB"
       id="filter867"
       x="-0.048000001"
       width="1.096"
       y="-0.048000001"
       height="1.096">
      <feGaussianBlur
         inkscape:collect="always"
         stdDeviation="3.2"
         id="feGaussianBlur869" />
    </filter>
    <filter
       inkscape:collect="always"
       style="color-interpolation-filters:sRGB"
       id="filter3681"
       x="-0.054571654"
       y="-0.042840986"
       width="1.1091433"
       height="1.085682">
      <feGaussianBlur
         inkscape:collect="always"
         stdDeviation="1.9099961"
         id="feGaussianBlur3683" />
    </filter>
  </defs>
  <sodipodi:namedview
     pagecolor="#ffffff"
     bordercolor="#666666"
     borderopacity="1"
     objecttolerance="10"
     gridtolerance="10"
     guidetolerance="10"
     inkscape:pageopacity="0"
     inkscape:pageshadow="2"
     inkscape:window-width="1920"
     inkscape:window-height="1019"
     id="namedview18"
     showgrid="false"
     inkscape:zoom="1"
     inkscape:cx="84.5"
     inkscape:cy="104.5"
     inkscape:window-x="0"
     inkscape:window-y="34"
     inkscape:window-maximized="1"
     inkscape:current-layer="svg16"
     inkscape:pagecheckerboard="0">
    <inkscape:grid
       type="xygrid"
       id="grid7495" />
  </sodipodi:namedview>
  <rect
     id="rect849"
     ry="80"
     rx="80"
     height="160"
     width="160"
     y="-176"
     x="-180"
     transform="matrix(0,-1,-1,0,0,0)"
     style="opacity:0.2;fill:#000000;stroke-width:4;filter:url(#filter867)" />
  <rect
     style="fill:#0a405c;stroke-width:4;fill-opacity:1"
     transform="matrix(0,-1,-1,0,0,0)"
     x="-176"
     y="-176"
     width="160"
     height="160"
     rx="80"
     ry="80"
     id="rect2" />
  <path
     style="opacity:0.1;fill:#ffffff;stroke-width:4"
     d="M 96 16 C 51.68 16 16 51.68 16 96 C 16 96.336 16.002 96.6675 16 97 C 16 52.68 51.68 17 96 17 C 140.32 17 176 52.68 176 97 C 175.998 96.6675 176 96.336 176 96 C 176 51.68 140.32 16 96 16 z "
     id="path4" />
  <path
     id="path3643"
     style="opacity:0.2;fill:#000000;stroke-width:0.310647;filter:url(#filter3681)"
     d="m 94.187501,35.999907 c -1.665881,0.0022 -3.042288,0.108914 -3.597656,0.318359 -2.059351,0.776553 -3.535512,2.923889 -3.587891,5.21875 -0.06935,3.036577 2.458606,5.62255 5.496094,5.623047 0.863637,1.49e-4 3.100443,0.145067 4.972656,0.322266 22.425626,2.122409 41.204596,18.110799 46.685546,39.75 0.95522,3.77129 1.66947,8.906468 1.67773,12.044915 0.009,3.482846 1.37529,5.717926 4.00977,6.564456 1.07285,0.34474 3.23852,0.10425 4.38281,-0.48633 2.58166,-1.64797 2.70067,-4.33687 2.75586,-6.035156 0.25509,-8.119209 -2.36938,-19.12261 -6.55468,-27.474604 C 140.53488,52.103862 121.75173,38.992501 99.517579,36.306548 97.808718,36.100112 95.853382,35.997704 94.187501,35.999907 Z m 0.08203,22 c -3.428595,0 -5.228363,1.025854 -6.589843,2.949219 -0.897173,1.605465 -0.917012,3.430828 0.0039,5.220703 1.143388,2.222375 2.082017,2.658336 6.755859,3.140625 4.984045,0.514291 7.905603,1.280619 11.617193,3.046875 7.5749,3.604714 13.28106,10.109004 16.0918,18.341797 0.75603,2.214496 1.58892,7.206211 1.59179,9.535154 0.006,4.62962 4.96442,7.32791 8.79688,4.7871 0.67388,-0.44676 1.44011,-1.36486 1.85742,-2.22851 0.65725,-1.36015 0.69431,-1.74021 0.50977,-5.117183 C 133.72694,76.129641 115.36473,58.201754 94.269525,57.999907 Z M 92.376953,81.00186 c -2.533603,0.029 -3.62791,0.203102 -5.775391,0.919922 C 80.190433,84.061762 75.38987,89.185459 73.546875,95.853427 73.062414,97.606207 73,99.458774 73,111.89834 c 0,15.5979 0.01692,15.76392 2.037109,20.00195 2.444696,5.1285 7.540697,9.27368 13.03711,10.60547 2.667594,0.64636 6.748941,0.59737 9.535156,-0.11524 2.802365,-0.71673 4.865435,-1.71487 6.974605,-3.37304 0.84927,-0.66767 1.71528,-1.31636 1.92578,-1.44336 0.22875,-0.13801 1.03991,0.28734 2.01563,1.05859 4.5867,3.62559 12.11127,5.40228 15.36914,3.74024 2.63052,-1.34199 3.6375,-4.21522 2.82617,-6.73438 -1.17316,-3.05965 -3.81509,-3.8207 -5.60156,-4.06055 -0.85946,-0.11337 -2.48238,-0.41028 -3.08399,-0.66015 -1.39743,-0.58039 -3.29974,-2.41365 -4.16797,-4.01758 -0.65799,-1.21553 -0.69753,-1.64829 -0.86718,-15.62695 -0.15353,-12.650746 -0.22505,-14.583113 -0.7168,-16.095703 -1.74279,-5.360639 -5.58126,-9.917004 -10.21094,-12.121089 -3.488408,-1.66074 -5.942111,-2.097652 -9.695307,-2.054688 z m 0.472656,10.998047 c 1.561966,-0.002 3.170776,0.435493 4.382813,1.26367 1.661947,1.13561 3.185608,3.32532 3.537108,5.082027 0.1264,0.63174 0.23047,6.954026 0.23047,14.048826 0,12.79313 -0.006,12.91279 -0.68946,14.49219 -0.378966,0.8759 -1.052493,1.99996 -1.496087,2.49805 -1.913492,2.14852 -5.540027,3.18026 -8.082031,2.30078 -1.619246,-0.56022 -3.330964,-1.80833 -4.203125,-3.06446 C 85.04373,126.48139 84.996879,125.96921 85,111.79678 c 0.0029,-13.218516 0.0051,-13.263726 0.701172,-14.851563 0.850298,-1.94022 2.620024,-3.69886 4.484375,-4.457029 0.807187,-0.328251 1.726883,-0.487051 2.664062,-0.488281 z" />
  <path
     id="path1454"
     style="fill:#ffffff;stroke-width:0.310647"
     d="m 94.187501,33.999899 c -1.665881,0.0022 -3.042288,0.108914 -3.597656,0.318359 -2.059351,0.776553 -3.535512,2.923889 -3.587891,5.21875 -0.06935,3.036577 2.458606,5.62255 5.496094,5.623047 0.863637,1.49e-4 3.100443,0.145067 4.972656,0.322266 22.425626,2.122409 41.204596,18.110799 46.685546,39.75 0.95522,3.77129 1.66947,8.906468 1.67773,12.044918 0.009,3.482851 1.37529,5.717931 4.00977,6.564461 1.07285,0.34474 3.23852,0.10425 4.38281,-0.48633 2.58166,-1.64797 2.70067,-4.336871 2.75586,-6.035161 0.25509,-8.119212 -2.36938,-19.122613 -6.55468,-27.474607 C 140.53488,50.103854 121.75173,36.992493 99.517579,34.30654 97.808718,34.100104 95.853382,33.997696 94.187501,33.999899 Z m 0.08203,22 c -3.428595,0 -5.228363,1.025854 -6.589843,2.949219 -0.897173,1.605465 -0.917012,3.430828 0.0039,5.220703 1.143388,2.222375 2.082017,2.658336 6.755859,3.140625 4.984045,0.514291 7.905603,1.280619 11.617193,3.046875 7.5749,3.604714 13.28106,10.109004 16.0918,18.341797 0.75603,2.214496 1.58892,7.206211 1.59179,9.535161 0.006,4.629621 4.96442,7.327911 8.79688,4.787101 0.67388,-0.44676 1.44011,-1.36486 1.85742,-2.22851 0.65725,-1.360151 0.69431,-1.740211 0.50977,-5.117191 -1.17736,-21.546046 -19.53957,-39.473933 -40.634775,-39.67578 z m -1.892578,23.001953 c -2.533603,0.029 -3.62791,0.203102 -5.775391,0.919922 C 80.190433,82.061754 75.38987,87.185451 73.546875,93.853419 73.062414,95.606199 73,97.458769 73,109.89834 c 0,15.5979 0.01692,15.76392 2.037109,20.00195 2.444696,5.1285 7.540697,9.27368 13.03711,10.60547 2.667594,0.64636 6.748941,0.59737 9.535156,-0.11524 2.802365,-0.71673 4.865435,-1.71487 6.974605,-3.37304 0.84927,-0.66767 1.71528,-1.31636 1.92578,-1.44336 0.22875,-0.13801 1.03991,0.28734 2.01563,1.05859 4.5867,3.62559 12.11127,5.40228 15.36914,3.74024 2.63052,-1.34199 3.6375,-4.21522 2.82617,-6.73438 -1.17316,-3.05965 -3.81509,-3.8207 -5.60156,-4.06055 -0.85946,-0.11337 -2.48238,-0.41028 -3.08399,-0.66015 -1.39743,-0.58039 -3.29974,-2.41365 -4.16797,-4.01758 C 113.20919,123.68476 113.16965,123.252 113,109.27334 112.84647,96.622589 112.77495,94.690219 112.2832,93.177629 110.54041,87.81699 106.70194,83.260625 102.07226,81.05654 98.583852,79.3958 96.130149,78.958888 92.376953,79.001852 Z m 0.472656,10.998047 c 1.561966,-0.002 3.170776,0.435493 4.382813,1.26367 1.661947,1.13561 3.185608,3.32532 3.537108,5.08203 0.1264,0.63174 0.23047,6.954031 0.23047,14.048831 0,12.79313 -0.006,12.91279 -0.68946,14.49219 -0.378966,0.8759 -1.052493,1.99996 -1.496087,2.49805 -1.913492,2.14852 -5.540027,3.18026 -8.082031,2.30078 -1.619246,-0.56022 -3.330964,-1.80833 -4.203125,-3.06446 C 85.04373,124.48139 84.996879,123.96921 85,109.79678 c 0.0029,-13.218521 0.0051,-13.263731 0.701172,-14.851571 0.850298,-1.94022 2.620024,-3.69886 4.484375,-4.457029 0.807187,-0.328251 1.726883,-0.487051 2.664062,-0.488281 z" />
</svg>
