<?xml version="1.0" encoding="UTF-8" standalone="no"?>
<svg
   width="192"
   height="192"
   version="1"
   id="svg16"
   sodipodi:docname="apps_cabify.svg"
   inkscape:version="1.1.1 (1:1.1+202109281949+c3084ef5ed)"
   xmlns:inkscape="http://www.inkscape.org/namespaces/inkscape"
   xmlns:sodipodi="http://sodipodi.sourceforge.net/DTD/sodipodi-0.dtd"
   xmlns="http://www.w3.org/2000/svg"
   xmlns:svg="http://www.w3.org/2000/svg"
   xmlns:rdf="http://www.w3.org/1999/02/22-rdf-syntax-ns#"
   xmlns:cc="http://creativecommons.org/ns#"
   xmlns:dc="http://purl.org/dc/elements/1.1/">
  <metadata
     id="metadata22">
    <rdf:RDF>
      <cc:Work
         rdf:about="">
        <dc:format>image/svg+xml</dc:format>
        <dc:type
           rdf:resource="http://purl.org/dc/dcmitype/StillImage" />
      </cc:Work>
    </rdf:RDF>
  </metadata>
  <defs
     id="defs20">
    <filter
       inkscape:collect="always"
       style="color-interpolation-filters:sRGB"
       id="filter867"
       x="-0.048000001"
       width="1.096"
       y="-0.048000001"
       height="1.096">
      <feGaussianBlur
         inkscape:collect="always"
         stdDeviation="3.2"
         id="feGaussianBlur869" />
    </filter>
    <filter
       inkscape:collect="always"
       style="color-interpolation-filters:sRGB"
       id="filter1666"
       x="-0.083774635"
       y="-0.067889218"
       width="1.1675493"
       height="1.1357784">
      <feGaussianBlur
         inkscape:collect="always"
         stdDeviation="2.8287175"
         id="feGaussianBlur1668" />
    </filter>
  </defs>
  <sodipodi:namedview
     pagecolor="#ffffff"
     bordercolor="#666666"
     borderopacity="1"
     objecttolerance="10"
     gridtolerance="10"
     guidetolerance="10"
     inkscape:pageopacity="0"
     inkscape:pageshadow="2"
     inkscape:window-width="1920"
     inkscape:window-height="1022"
     id="namedview18"
     showgrid="false"
     inkscape:zoom="1.75"
     inkscape:cx="103.42857"
     inkscape:cy="114.85714"
     inkscape:window-x="0"
     inkscape:window-y="34"
     inkscape:window-maximized="1"
     inkscape:current-layer="svg16"
     inkscape:pagecheckerboard="0"
     inkscape:snap-bbox="true"
     inkscape:snap-bbox-midpoints="true">
    <inkscape:grid
       type="xygrid"
       id="grid7495" />
  </sodipodi:namedview>
  <rect
     id="rect849"
     ry="80"
     rx="80"
     height="160"
     width="160"
     y="-176"
     x="-180"
     transform="matrix(0,-1,-1,0,0,0)"
     style="opacity:0.2;fill:#000000;stroke-width:4;filter:url(#filter867)" />
  <rect
     style="fill:#8344ee;fill-opacity:1;stroke-width:4"
     transform="matrix(0,-1,-1,0,0,0)"
     x="-176"
     y="-176"
     width="160"
     height="160"
     rx="80"
     ry="80"
     id="rect2" />
  <path
     style="opacity:0.1;fill:#ffffff;stroke-width:4"
     d="M 96 16 C 51.68 16 16 51.68 16 96 C 16 96.336 16.002 96.6675 16 97 C 16 52.68 51.68 17 96 17 C 140.32 17 176 52.68 176 97 C 175.998 96.6675 176 96.336 176 96 C 176 51.68 140.32 16 96 16 z "
     id="path4" />
  <path
     d="m 96.46248,139.96387 c -0.282825,-0.2146 -0.481292,-0.41059 -0.684112,-0.6165 -0.203433,-0.20591 -0.411208,-0.42113 -0.71325,-0.67418 -19.6722,-16.97423 -47.775075,-35.18891 -31.336716,-64.63084 11.548533,-20.680059 40.713148,-25.303192 58.222008,-9.733763 6.07073,5.400892 1.34712,11.755686 -4.21317,11.701106 -5.40213,-0.04962 -6.86948,-5.19441 -15.02975,-7.304405 -19.218813,-4.966737 -35.542438,14.596974 -27.69353,31.910462 2.875967,6.34673 6.923542,8.56961 11.570858,12.72757 l 9.903087,8.67381 c 0.859012,-0.37337 3.261752,-2.55035 3.918565,-3.20158 2.55965,-2.54229 8.7166,-7.4346 11.17516,-9.78338 2.66075,-2.5423 5.30724,-5.16521 9.48071,-3.87887 3.20097,0.98615 5.90204,4.46063 4.40606,8.58697 -0.78458,2.16457 -1.72794,2.6806 -3.12716,3.82119 -1.2882,1.0519 -2.3984,2.31529 -3.67357,3.31012 -3.09864,2.42011 -21.000723,18.64759 -22.20519,19.09229 z m 0.377717,-27.3307 c -0.900567,-0.33615 -3.790187,-2.87472 -4.55802,-3.59605 -4.11765,-3.87142 -9.357909,-6.8888 -11.229117,-12.532819 -4.830283,-14.567147 11.113142,-26.102086 23.30051,-19.707598 3.68411,1.933852 5.54903,5.175804 10.85937,6.001319 9.22332,1.433953 17.63602,-5.418259 16.68211,-14.458613 -0.53029,-5.021937 -3.29958,-7.767659 -6.01676,-9.915487 -10.1859,-8.047999 -23.33453,-12.185499 -37.187197,-9.710194 -9.110441,1.627463 -17.507625,5.81148 -23.7669,12.265508 -4.752141,4.900373 -8.422614,9.759191 -10.711853,16.961208 -2.998773,9.427993 -2.950396,18.098697 0.153815,27.364186 4.481723,13.37819 40.406838,46.94584 44.322912,42.24828 l 8.526823,-7.40297 c 1.20199,-1.17284 3.02544,-2.45794 4.21564,-3.61032 l 17.03068,-14.81461 c 2.38475,-2.05046 4.87247,-6.34364 4.54685,-11.24773 -0.55758,-8.39098 -9.08129,-14.849349 -18.50867,-11.933689 -4.56669,1.41287 -8.2167,5.970879 -11.5355,8.583249 z"
     style="opacity:0.2;fill:#000000;fill-rule:evenodd;stroke-width:6.20222;filter:url(#filter1666)"
     id="path1628"
     sodipodi:nodetypes="cccccccccccccccccccccccccccccccccccc" />
  <path
     d="m 96.46248,137.96388 c -0.282825,-0.2146 -0.481292,-0.41059 -0.684112,-0.6165 -0.203433,-0.20591 -0.411208,-0.42113 -0.71325,-0.67418 -19.6722,-16.97423 -47.775075,-35.18891 -31.336716,-64.630845 11.548533,-20.680059 40.713148,-25.303192 58.222008,-9.733763 6.07073,5.400892 1.34712,11.755686 -4.21317,11.701106 -5.40213,-0.04962 -6.86948,-5.19441 -15.02975,-7.304405 -19.218813,-4.966737 -35.542438,14.596974 -27.69353,31.910463 2.875967,6.346734 6.923542,8.569614 11.570858,12.727574 l 9.903087,8.67381 c 0.859012,-0.37337 3.261752,-2.55035 3.918565,-3.20158 2.55965,-2.54229 8.7166,-7.4346 11.17516,-9.78338 2.66075,-2.5423 5.30724,-5.16521 9.48071,-3.87887 3.20097,0.98615 5.90204,4.46063 4.40606,8.58697 -0.78458,2.16457 -1.72794,2.6806 -3.12716,3.82119 -1.2882,1.0519 -2.3984,2.31529 -3.67357,3.31012 -3.09864,2.42011 -21.000723,18.64759 -22.20519,19.09229 z m 0.377717,-27.3307 c -0.900567,-0.33615 -3.790187,-2.87472 -4.55802,-3.59605 -4.11765,-3.87142 -9.357909,-6.8888 -11.229117,-12.532824 -4.830283,-14.567147 11.113142,-26.102086 23.30051,-19.707598 3.68411,1.933852 5.54903,5.175804 10.85937,6.001319 9.22332,1.433953 17.63602,-5.418259 16.68211,-14.458613 -0.53029,-5.021937 -3.29958,-7.767659 -6.01676,-9.915487 -10.1859,-8.047999 -23.33453,-12.185499 -37.187197,-9.710194 -9.110441,1.627463 -17.507625,5.81148 -23.7669,12.265508 -4.752141,4.900373 -8.422614,9.759191 -10.711853,16.961208 -2.998773,9.427993 -2.950396,18.098697 0.153815,27.364191 4.481723,13.37819 40.406838,46.94584 44.322912,42.24828 l 8.526823,-7.40297 c 1.20199,-1.17284 3.02544,-2.45794 4.21564,-3.61032 l 17.03068,-14.81461 c 2.38475,-2.05046 4.87247,-6.34364 4.54685,-11.24773 -0.55758,-8.39098 -9.08129,-14.849354 -18.50867,-11.933694 -4.56669,1.41287 -8.2167,5.970884 -11.5355,8.583254 z"
     style="fill:#ffffff;fill-rule:evenodd;stroke-width:6.20222"
     id="path2"
     sodipodi:nodetypes="cccccccccccccccccccccccccccccccccccc" />
</svg>
