<?xml version="1.0" encoding="UTF-8" standalone="no"?>
<svg
   width="192"
   height="192"
   version="1"
   id="svg28"
   sodipodi:docname="apps_didi_food.svg"
   inkscape:version="1.1.1 (1:1.1+202109281949+c3084ef5ed)"
   xmlns:inkscape="http://www.inkscape.org/namespaces/inkscape"
   xmlns:sodipodi="http://sodipodi.sourceforge.net/DTD/sodipodi-0.dtd"
   xmlns="http://www.w3.org/2000/svg"
   xmlns:svg="http://www.w3.org/2000/svg"
   xmlns:rdf="http://www.w3.org/1999/02/22-rdf-syntax-ns#"
   xmlns:cc="http://creativecommons.org/ns#"
   xmlns:dc="http://purl.org/dc/elements/1.1/">
  <metadata
     id="metadata34">
    <rdf:RDF>
      <cc:Work
         rdf:about="">
        <dc:format>image/svg+xml</dc:format>
        <dc:type
           rdf:resource="http://purl.org/dc/dcmitype/StillImage" />
      </cc:Work>
    </rdf:RDF>
  </metadata>
  <defs
     id="defs32">
    <filter
       inkscape:collect="always"
       style="color-interpolation-filters:sRGB"
       id="filter6495"
       x="-0.048000001"
       y="-0.048000001"
       width="1.096"
       height="1.096">
      <feGaussianBlur
         inkscape:collect="always"
         stdDeviation="3.2"
         id="feGaussianBlur6497" />
    </filter>
    <filter
       inkscape:collect="always"
       style="color-interpolation-filters:sRGB"
       id="filter11668"
       x="-0.099692308"
       y="-0.11781818"
       width="1.1993846"
       height="1.2356364">
      <feGaussianBlur
         inkscape:collect="always"
         stdDeviation="3.24"
         id="feGaussianBlur11670" />
    </filter>
  </defs>
  <sodipodi:namedview
     pagecolor="#ffffff"
     bordercolor="#666666"
     borderopacity="1"
     objecttolerance="10"
     gridtolerance="10"
     guidetolerance="10"
     inkscape:pageopacity="0"
     inkscape:pageshadow="2"
     inkscape:window-width="1920"
     inkscape:window-height="1019"
     id="namedview30"
     showgrid="false"
     inkscape:zoom="1"
     inkscape:cx="88.5"
     inkscape:cy="91"
     inkscape:window-x="0"
     inkscape:window-y="34"
     inkscape:window-maximized="1"
     inkscape:current-layer="svg28"
     inkscape:pagecheckerboard="0"
     inkscape:snap-global="true"
     showguides="false">
    <inkscape:grid
       type="xygrid"
       id="grid841" />
  </sodipodi:namedview>
  <rect
     id="rect6457"
     transform="matrix(0,-1,-1,0,0,0)"
     ry="12"
     rx="12"
     y="-176"
     x="-180"
     height="160"
     width="160"
     style="opacity:0.2;fill:#000000;fill-opacity:1;stroke-width:4;filter:url(#filter6495)" />
  <path
     id="rect2"
     style="fill:#e4e4e4;stroke-width:4"
     transform="matrix(0,-1,-1,0,0,0)"
     d="M -159.30032,-165.7683 -152.43299,-176 H -28 c 6.648,0 12,5.352 12,12 v 20.39367 l -9.817701,102.635318 c -0.633033,6.617792 -1.172203,11.712025 -6.98856,14.931636 L -50.942802,-16 H -164 c -6.648,0 -12,-5.352 -12,-12 v -55.623189 l 9.6738,-73.420301 c 0.86843,-6.59103 3.321,-3.20487 7.02588,-8.72481 z"
     sodipodi:nodetypes="scsscsscsscss" />
  <path
     id="path11630"
     style="color:#000000;opacity:0.2;fill:#000000;fill-opacity:1;stroke-width:0.738705;stroke-linecap:round;stroke-linejoin:round;-inkscape-stroke:none;filter:url(#filter11668)"
     d="M 64.35849,68.999999 C 60.294677,69.000409 57.000406,72.320304 57,76.415729 V 95.696625 C 57,117.31542 74.548074,135 95.999994,135 117.45192,135 135,117.31542 135,95.696625 V 84 H 120 V 95.696625 C 120,109.29991 109.49828,120 95.999993,120 82.501715,120 72.329057,109.29593 72,95.696625 V 84 h 48 V 68.999999 Z"
     sodipodi:nodetypes="ccsssccssscccc" />
  <path
     id="circle1761"
     style="color:#000000;opacity:1;fill:#ff732f;fill-opacity:1;stroke-width:0.738705;stroke-linecap:round;stroke-linejoin:round;-inkscape-stroke:none"
     d="M 64.35849,66.999999 C 60.294677,67.000409 57.000406,70.320304 57,74.415729 V 93.696625 C 57,115.31542 74.548074,133 95.999994,133 117.45192,133 135,115.31542 135,93.696625 V 82 H 120 V 93.696625 C 120,107.29991 109.49828,118 95.999993,118 82.501715,118 72.329057,107.29593 72,93.696625 V 82 h 48 V 66.999999 Z"
     sodipodi:nodetypes="ccsssccssscccc" />
  <path
     id="rect1289"
     style="opacity:1;fill:#ff732f;stroke-width:5;stroke-linecap:round;stroke-linejoin:round;fill-opacity:1"
     d="M 28 16 C 21.352 16 16 21.352 16 28 L 16 51.572266 L 149.36523 16 L 28 16 z " />
  <path
     id="rect1523"
     style="opacity:1;fill:#31b77e;stroke-width:5;stroke-linecap:round;stroke-linejoin:round;fill-opacity:1"
     d="M 176 150.67188 L 81.041016 176 L 164 176 C 170.648 176 176 170.648 176 164 L 176 150.67188 z " />
  <path
     id="rect6416"
     style="opacity:0.2;fill:#ffffff;fill-opacity:1;stroke-width:4"
     d="m 28,16 c -6.648,0 -12,5.352 -12,12 v 1 c 0,-6.648 5.352,-12 12,-12 h 136 c 6.648,0 12,5.352 12,12 v -1 c 0,-6.648 -5.352,-12 -12,-12 z" />
</svg>
