<?xml version="1.0" encoding="UTF-8" standalone="no"?>
<svg
   width="192"
   height="192"
   version="1.1"
   id="svg14"
   sodipodi:docname="apps_databot.svg"
   inkscape:version="1.1.1 (1:1.1+202109281949+c3084ef5ed)"
   xmlns:inkscape="http://www.inkscape.org/namespaces/inkscape"
   xmlns:sodipodi="http://sodipodi.sourceforge.net/DTD/sodipodi-0.dtd"
   xmlns="http://www.w3.org/2000/svg"
   xmlns:svg="http://www.w3.org/2000/svg">
  <defs
     id="defs18">
    <filter
       inkscape:collect="always"
       style="color-interpolation-filters:sRGB"
       id="filter21673"
       x="-0.064790375"
       y="-0.038120978"
       width="1.1295807"
       height="1.076242">
      <feGaussianBlur
         inkscape:collect="always"
         stdDeviation="2.5413985"
         id="feGaussianBlur21675" />
    </filter>
    <filter
       inkscape:collect="always"
       style="color-interpolation-filters:sRGB"
       id="filter21715"
       x="-0.057991973"
       y="-0.040945176"
       width="1.1159839"
       height="1.0818904">
      <feGaussianBlur
         inkscape:collect="always"
         stdDeviation="2.5040601"
         id="feGaussianBlur21717" />
    </filter>
    <filter
       inkscape:collect="always"
       style="color-interpolation-filters:sRGB"
       id="filter21757"
       x="-0.033249176"
       y="-0.08627583"
       width="1.0664984"
       height="1.1725517">
      <feGaussianBlur
         inkscape:collect="always"
         stdDeviation="1.6497583"
         id="feGaussianBlur21759" />
    </filter>
    <filter
       inkscape:collect="always"
       style="color-interpolation-filters:sRGB"
       id="filter21799"
       x="-0.055004552"
       y="-0.042656667"
       width="1.1100091"
       height="1.0853133">
      <feGaussianBlur
         inkscape:collect="always"
         stdDeviation="1.7418108"
         id="feGaussianBlur21801" />
    </filter>
  </defs>
  <sodipodi:namedview
     id="namedview16"
     pagecolor="#b3b3b3"
     bordercolor="#666666"
     borderopacity="1.0"
     inkscape:pageshadow="2"
     inkscape:pageopacity="0"
     inkscape:pagecheckerboard="0"
     showgrid="false"
     inkscape:zoom="1"
     inkscape:cx="101.5"
     inkscape:cy="96.5"
     inkscape:window-width="1920"
     inkscape:window-height="1019"
     inkscape:window-x="0"
     inkscape:window-y="34"
     inkscape:window-maximized="1"
     inkscape:current-layer="svg14"
     inkscape:snap-global="true"
     inkscape:snap-bbox="true"
     inkscape:snap-bbox-midpoints="true">
    <inkscape:grid
       type="xygrid"
       id="grid2617" />
  </sodipodi:namedview>
  <path
     id="path21719"
     style="opacity:0.2;fill:#000000;fill-opacity:1;stroke-width:14;stroke-linecap:round;stroke-linejoin:round;filter:url(#filter21757)"
     d="m 46.349609,86.515425 -9.871093,10.902344 c 0,0 -0.158206,7.358791 0.412109,11.867191 0.629702,4.97785 3.556641,13.41601 3.556641,13.41601 l 9.796875,9.70703 z m 99.300781,0 -3.89453,45.892575 9.79687,-9.70703 c 0,0 2.92694,-8.43816 3.55665,-13.41601 0.57031,-4.5084 0.4121,-11.867191 0.4121,-11.867191 z" />
  <path
     id="path21635"
     style="opacity:0.2;fill:#000000;fill-opacity:1;stroke-width:14;stroke-linecap:round;stroke-linejoin:round;filter:url(#filter21673)"
     d="m 96,18.999641 c -17.433236,0 -29.475547,5.125324 -37.53125,13.470703 -12.768928,13.228087 -10.821251,35.31753 -9.140625,57.134766 2.219477,28.81239 1.5937,25.40335 3.775391,39.24805 0.682341,4.33003 1.613043,10.5716 2.5,15.30078 0.404804,2.15726 8.340606,1.31022 12.242187,2.28125 0.595649,0.31398 1.167864,0.55768 1.705078,0.77929 l 1.828125,1.50586 2.994141,6.10742 -1.246094,5.89454 c 2.404907,5.0505 4.871663,10.08404 7.355469,15.11328 0,0 2.661384,3.16406 15.517578,3.16406 12.85619,0 15.51758,-3.16406 15.51758,-3.16406 2.4838,-5.02924 4.95056,-10.06278 7.35547,-15.11328 l -1.2461,-5.89454 2.22071,-4.53124 8.0332,-6.56836 c 2.79404,-1.86942 7.40367,2.70122 7.86914,0.2207 0.88695,-4.72918 3.19851,-11.13481 3.88086,-15.46484 2.1817,-13.84471 -1.6062,-10.82629 0.61328,-39.638676 1.715,-22.263454 5.94283,-44.018058 -7.50781,-57.175781 C 124.69021,23.798664 112.86807,18.999641 96,18.999641 Z" />
  <path
     id="path18715"
     style="fill:#595466;fill-opacity:1;stroke-width:14;stroke-linecap:round;stroke-linejoin:round"
     d="M 96,16 C 78.566764,16 66.524453,21.125324 58.46875,29.470703 45.699822,42.69879 47.647499,64.788233 49.328125,86.605469 c 2.219477,28.812391 1.5937,25.403351 3.775391,39.248051 0.682341,4.33003 1.613043,10.5716 2.5,15.30078 0.404804,2.15726 8.340606,1.31022 12.242187,2.28125 0.595649,0.31398 1.167864,0.55768 1.705078,0.77929 l 1.828125,1.50586 2.994141,6.10742 -1.246094,5.89454 c 2.404907,5.0505 4.871663,10.08404 7.355469,15.11328 0,0 2.661384,3.16406 15.517578,3.16406 12.85619,0 15.51758,-3.16406 15.51758,-3.16406 2.4838,-5.02924 4.95056,-10.06278 7.35547,-15.11328 l -1.2461,-5.89454 2.22071,-4.53124 8.0332,-6.56836 c 2.79404,-1.86942 7.40367,2.70122 7.86914,0.2207 0.88695,-4.72918 3.19851,-11.13481 3.88086,-15.46484 2.1817,-13.84471 -1.6062,-10.82629 0.61328,-39.638677 1.715,-22.263454 5.94283,-44.018058 -7.50781,-57.175781 C 124.69021,20.799023 112.86807,16 96,16 Z" />
  <path
     id="path18719"
     style="fill:#aad8dc;fill-opacity:1;stroke-width:14;stroke-linecap:round;stroke-linejoin:round"
     d="m 46.349609,84.515625 -9.871093,10.902344 c 0,0 -0.158206,7.358791 0.412109,11.867191 0.629702,4.97785 3.556641,13.41601 3.556641,13.41601 l 9.796875,9.70703 z m 99.300781,0 -3.89453,45.892575 9.79687,-9.70703 c 0,0 2.92694,-8.43816 3.55665,-13.41601 0.57031,-4.5084 0.4121,-11.867191 0.4121,-11.867191 z" />
  <path
     id="path21677"
     style="opacity:0.2;fill:#000000;fill-opacity:1;stroke-width:14;stroke-linecap:round;stroke-linejoin:round;filter:url(#filter21715)"
     d="M 62.669922,29.732612 C 46.319709,42.412179 42.778501,65.812925 44.628906,89.834174 c 2.219477,28.812386 2.330028,27.055696 4.511719,40.900396 0.682341,4.33003 2.050543,11.74933 2.9375,16.47851 0.465463,2.48052 0.514557,4.80636 3.308594,6.67578 l 23.855469,21.90039 c 0.300055,0.27549 0.565361,0.49557 0.835937,0.71875 l -5.972656,-15.1914 1.042969,-6.33203 c -1.210085,-2.42866 -1.948557,-3.67088 -4.277344,-6.625 -1.197612,-1.51921 -4.173149,-0.95408 -4.789063,-2.65821 -2.116063,-5.85478 -7.140625,-17.0664 -7.140625,-17.0664 0,0 10.192694,-6.67077 10.671875,-8.81055 0.390267,-1.74275 -7.63402,-20.114083 -7.345703,-22.828126 0.732975,-6.899791 8.839844,-26.931641 8.839844,-26.931641 L 68.25,67.00019 c -1.465295,-1.571423 -8.652344,-8.771484 -8.652344,-8.771484 0.179899,-8.530247 -0.243089,-21.110927 3.072266,-28.496094 z m 66.660158,0 c 3.31535,7.385167 2.89236,19.965847 3.07226,28.496094 0,0 -7.18704,7.200061 -8.65234,8.771484 l -2.85742,3.064453 c 0,0 8.10686,20.03185 8.83984,26.931641 0.28831,2.714043 -7.73597,21.085376 -7.3457,22.828126 0.47918,2.13978 10.67187,8.81055 10.67187,8.81055 0,0 -5.02455,11.21162 -7.14062,17.0664 -0.61591,1.70413 -3.59145,1.13901 -4.78906,2.65821 -2.32878,2.95412 -3.06727,4.19635 -4.27735,6.625 l 1.04297,6.33203 -5.97265,15.1914 c 0.27056,-0.22318 0.53588,-0.44326 0.83593,-0.71875 l 23.85547,-21.90039 c 2.79404,-1.86942 2.84311,-4.19526 3.3086,-6.67578 0.88695,-4.72918 2.25514,-12.1485 2.9375,-16.47851 2.1817,-13.84472 2.29224,-12.08801 4.51171,-40.900396 1.85041,-24.021249 -1.6908,-47.421995 -18.04101,-60.101562 z" />
  <path
     id="path18721"
     style="fill:#cae7e9;fill-opacity:1;stroke-width:14.0249;stroke-linecap:round;stroke-linejoin:round"
     d="M 62.551122,25.732422 C 46.14263,38.411989 42.5888,61.812735 44.4458,85.833984 c 2.227388,28.812386 2.338334,27.055696 4.527801,40.900396 0.684773,4.33003 2.057852,11.74933 2.94797,16.47851 0.467122,2.48052 0.516391,4.80636 3.320388,6.67578 l 23.940499,21.90039 c 0.301125,0.27549 0.567376,0.49557 0.838917,0.71875 l -5.993945,-15.1914 1.046686,-6.33203 c -1.214398,-2.42866 -1.955502,-3.67088 -4.29259,-6.625 -1.201881,-1.51921 -4.188024,-0.95408 -4.806133,-2.65821 -2.123606,-5.85478 -7.166077,-17.0664 -7.166077,-17.0664 0,0 10.229025,-6.67077 10.709914,-8.81055 0.391658,-1.74275 -7.661231,-20.114083 -7.371886,-22.828126 0.735587,-6.899791 8.871352,-26.931641 8.871352,-26.931641 L 68.151089,63 c -1.470517,-1.571423 -8.683184,-8.771484 -8.683184,-8.771484 0.18054,-8.530247 -0.243955,-21.110927 3.083217,-28.496094 z m 66.897758,0 c 3.32717,7.385167 2.90267,19.965847 3.08321,28.496094 0,0 -7.21265,7.200061 -8.68318,8.771484 l -2.8676,3.064453 c 0,0 8.13575,20.03185 8.87135,26.931641 0.28933,2.714043 -7.76355,21.085376 -7.37189,22.828126 0.48089,2.13978 10.70991,8.81055 10.70991,8.81055 0,0 -5.04246,11.21162 -7.16607,17.0664 -0.61811,1.70413 -3.60425,1.13901 -4.80613,2.65821 -2.33708,2.95412 -3.0782,4.19635 -4.2926,6.625 l 1.04669,6.33203 -5.99394,15.1914 c 0.27153,-0.22318 0.53779,-0.44326 0.83891,-0.71875 l 23.9405,-21.90039 c 2.804,-1.86942 2.85325,-4.19526 3.3204,-6.67578 0.89011,-4.72918 2.26317,-12.1485 2.94797,-16.47851 2.18947,-13.84472 2.30041,-12.08801 4.52779,-40.900396 1.857,-24.021249 -1.69683,-47.421995 -18.10532,-60.101562 z" />
  <path
     id="path22617"
     style="fill:#3f3b48;fill-opacity:1;stroke-width:9.05539;stroke-linecap:round;stroke-linejoin:round"
     d="m 134.16096,93.434592 c 0,10.205858 -0.88995,20.106178 -7.05976,27.281968 C 119.58208,129.46165 108.43782,135 96,135 c -12.209524,0 -23.172548,-5.3369 -30.683515,-13.80516 -6.418806,-7.23689 -6.210052,-15.7162 -6.210052,-26.150352 0,-22.643675 14.37692,-39.940351 37.020595,-39.940351 22.643672,0 38.033932,15.68678 38.033932,38.330455 z"
     sodipodi:nodetypes="sssssss" />
  <path
     id="path22054"
     style="fill:#daefef;stroke-width:9.05539;stroke-linecap:round;stroke-linejoin:round"
     d="m 137,94 c 0,10.18774 -3.71576,19.50761 -9.86596,26.67831 0,0 -18.6781,-9.90604 -31.13404,-9.90604 -12.370211,0 -30.978267,10.0866 -30.978267,10.0866 C 58.778555,113.6644 55,104.27346 55,94 55,71.356325 73.356325,53 96,53 c 22.64367,0 41,18.356325 41,41 z"
     sodipodi:nodetypes="scscsss" />
  <path
     id="path18723"
     style="color:#000000;fill:#3f3b48;fill-opacity:1;stroke-linecap:round;stroke-linejoin:round;-inkscape-stroke:none"
     d="m 65.193359,23.931641 c -1.800556,1.183301 -3.462659,2.483898 -4.996093,3.890625 -2.33319,7.300724 -1.943061,18.951983 -2.09961,26.375 -0.0083,0.40764 0.149622,0.801111 0.4375,1.089843 0,0 7.263782,7.282804 8.619141,8.736329 l 2.755859,2.957031 c 0.132886,0.183989 0.246561,0.369486 0.361328,0.554687 a 37,37 0 0 1 2.242188,-2.05664 c -0.06711,-0.09829 -0.122439,-0.199522 -0.19336,-0.296875 -0.03553,-0.04916 -0.07402,-0.09612 -0.115234,-0.140625 l -2.857422,-3.0625 c -1.49172,-1.599762 -7.547919,-7.66227 -8.228515,-8.34375 0.171012,-9.215732 -0.115069,-22.84689 3.824218,-29.021485 0.08645,-0.136004 0.150424,-0.28505 0.189453,-0.441406 0,0 0.04645,-0.183229 0.06055,-0.240234 z m 61.613281,0 c 0.0141,0.05701 0.0605,0.240234 0.0605,0.240234 0.039,0.156356 0.10305,0.305402 0.18945,0.441406 3.93928,6.174595 3.65321,19.805753 3.82422,29.021485 -0.68059,0.68148 -6.7368,6.743988 -8.22852,8.34375 l -2.85742,3.0625 c -0.0412,0.04451 -0.0797,0.09146 -0.11523,0.140625 -0.0605,0.08307 -0.10633,0.170152 -0.16407,0.253906 a 37,37 0 0 1 2.25782,2.03125 c 0.10251,-0.162175 0.19994,-0.325073 0.3164,-0.486328 l 2.75586,-2.957031 c 1.35536,-1.453525 8.61914,-8.736329 8.61914,-8.736329 0.28788,-0.288732 0.4455,-0.682203 0.4375,-1.089843 -0.15654,-7.423017 0.23358,-19.074276 -2.09961,-26.375 -1.53343,-1.406727 -3.19553,-2.707324 -4.99609,-3.890625 z M 66.949219,116.77734 c -0.08411,0.0791 -0.122505,0.13299 -0.212891,0.21485 -0.95916,0.86863 -2.251471,1.88282 -3.533203,2.83398 -2.563464,1.90232 -5.082031,3.55274 -5.082031,3.55274 -0.616902,0.40396 -0.848745,1.19636 -0.546875,1.86914 0,0 4.253563,9.50526 6.544922,15.48047 l 9.308593,18.96289 4.158204,10.57617 v 0.002 l 1.65625,1.51953 c 0.505982,0.46456 0.96001,0.84507 1.412109,1.1543 0.0051,0.004 0.01048,0.006 0.01563,0.01 0.448273,0.30504 0.89502,0.54088 1.388672,0.71876 -0.02138,-0.0657 -0.06006,-0.18664 -0.08008,-0.24805 -0.109161,-0.33492 -0.199219,-0.60393 -0.263672,-0.79883 -0.06445,-0.1949 -0.05221,-0.19027 -0.138672,-0.41016 l -5.925781,-15.0625 0.425781,-4.00195 c 0.17391,-0.88278 0.206496,-1.82014 0.04492,-2.60937 -1.227722,-2.46405 -1.712429,-4.11586 -4.072266,-7.10938 -1.028603,-1.30481 -2.467524,-1.52816 -3.398437,-1.7793 -0.465457,-0.12557 -0.832723,-0.2498 -1.007813,-0.3457 -0.17509,-0.0959 -0.134681,-0.0772 -0.148437,-0.11523 -2.02112,-5.59209 -6.109771,-14.6946 -6.703125,-16.02149 0.73608,-0.48881 2.070486,-1.35244 4.201172,-2.93359 1.326019,-0.98403 2.671311,-2.03753 3.757812,-3.02149 0.05176,-0.0469 0.08421,-0.0902 0.134766,-0.13672 a 37,37 0 0 1 -1.935547,-2.30078 z m 58.101561,0 a 37,37 0 0 1 -1.93555,2.30078 c 0.0506,0.0465 0.083,0.0898 0.13477,0.13672 1.0865,0.98396 2.43179,2.03746 3.75781,3.02149 2.13069,1.58115 3.46509,2.44478 4.20117,2.93359 -0.59336,1.32689 -4.682,10.4294 -6.70312,16.02149 -0.0138,0.038 0.0267,0.0193 -0.14844,0.11523 -0.17509,0.0959 -0.54235,0.22013 -1.00781,0.3457 -0.93091,0.25114 -2.36983,0.47449 -3.39844,1.7793 -2.35983,2.99352 -2.84259,4.64533 -4.07031,7.10938 -0.16162,0.78923 -0.13094,1.72659 0.043,2.60937 l 0.42578,4.00195 -5.92578,15.0625 c -0.0865,0.21989 -0.0743,0.21526 -0.13867,0.41016 -0.0645,0.1949 -0.15452,0.46391 -0.26368,0.79883 -0.02,0.0614 -0.0587,0.18235 -0.0801,0.24805 0.49364,-0.17787 0.9404,-0.41372 1.38867,-0.71876 0.004,-0.003 0.009,-0.005 0.0137,-0.008 l 0.002,-0.002 c 0.4521,-0.30923 0.90613,-0.68974 1.41211,-1.1543 l 1.65625,-1.51953 v -0.002 l 4.15821,-10.57617 9.30859,-18.96289 c 2.29136,-5.97521 6.54492,-15.48047 6.54492,-15.48047 0.30187,-0.67278 0.07,-1.46518 -0.54687,-1.86914 0,0 -2.51858,-1.65042 -5.08203,-3.55274 -1.28174,-0.95116 -2.57405,-1.96535 -3.53321,-2.83398 -0.0904,-0.0819 -0.12878,-0.1358 -0.21289,-0.21485 z" />
  <circle
     style="fill:#40a3a8;fill-opacity:1;stroke:none;stroke-width:8.5422;stroke-linecap:round;stroke-linejoin:round;stroke-miterlimit:4;stroke-dasharray:none;stroke-opacity:1"
     id="path12014"
     cx="96"
     cy="94"
     r="37" />
  <path
     id="path14861"
     style="fill:#97d0d4;fill-opacity:1;stroke:none;stroke-width:7.34155;stroke-linecap:round;stroke-linejoin:round;stroke-miterlimit:4;stroke-dasharray:none;stroke-opacity:1"
     d="M 96,63 A 31,31 0 0 0 65,94 31,31 0 0 0 96,125 31,31 0 0 0 127,94 31,31 0 0 0 96,63 Z m 0,6 A 25,25 0 0 1 121,94 25,25 0 0 1 96,119 25,25 0 0 1 71,94 25,25 0 0 1 96,69 Z" />
  <path
     id="path21761"
     style="opacity:0.2;fill:#000000;fill-opacity:1;stroke-width:14.2205;stroke-linecap:round;stroke-linejoin:round;filter:url(#filter21799)"
     d="M 67.302734,57.000227 60,64.302961 62.697266,67.000227 65.4375,64.259993 c 0.678233,0.692777 1.433774,1.46015 1.716797,1.763672 l 2.517578,2.701171 A 38,38 0 0 0 58,96.000227 38,38 0 0 0 66.193359,119.43187 c -1.466872,1.19508 -5.017578,3.8125 -5.017578,3.8125 l 1.789063,2.41016 c 1.150182,-0.85355 3.759861,-2.77353 5.162109,-3.92383 A 38,38 0 0 0 96,134.00023 38,38 0 0 0 123.87305,121.7307 c 1.40225,1.1503 4.01192,3.07028 5.16211,3.92383 l 1.78906,-2.41016 c 0,0 -3.55071,-2.61742 -5.01758,-3.8125 A 38,38 0 0 0 134,96.000227 38,38 0 0 0 122.38281,68.666243 l 2.46289,-2.642578 c 0.28303,-0.303522 1.03857,-1.070895 1.7168,-1.763672 l 2.74023,2.740234 L 132,64.302961 124.69727,57.000227 122,59.697493 l 2.44141,2.441406 c -0.66908,0.684366 -1.45903,1.485906 -1.78907,1.839844 l -2.5039,2.683593 A 38,38 0 0 0 96,58.000227 38,38 0 0 0 71.888672,66.703352 L 69.347656,63.978743 C 69.017621,63.624805 68.227668,62.823265 67.558594,62.138899 L 70,59.697493 Z m 28.697266,4 a 35,35 0 0 1 35,35 35,35 0 0 1 -35,35.000003 35,35 0 0 1 -35,-35.000003 35,35 0 0 1 35,-35 z m 0,17 a 18,18 0 0 0 -18,18 18,18 0 0 0 18,18.000003 18,18 0 0 0 18,-18.000003 18,18 0 0 0 -18,-18 z M 69.296875,146.00609 a 1.4204269,1.432403 0 0 0 -0.53125,0.15625 1.4204269,1.432403 0 0 0 -0.605469,1.93164 l 3.160156,6.13477 a 1.4204269,1.432403 0 0 0 1.916016,0.60937 1.4204269,1.432403 0 0 0 0.603516,-1.92969 l -3.158203,-6.13476 a 1.4204269,1.432403 0 0 0 -0.832032,-0.70703 1.4204269,1.432403 0 0 0 -0.552734,-0.0606 z m 53.406245,0 a 1.4204269,1.432403 0 0 0 -0.55273,0.0606 1.4204269,1.432403 0 0 0 -0.83203,0.70703 l -3.1582,6.13476 a 1.4204269,1.432403 0 0 0 0.60351,1.92969 1.4204269,1.432403 0 0 0 1.91602,-0.60937 l 3.16015,-6.13477 a 1.4204269,1.432403 0 0 0 -0.60546,-1.93164 1.4204269,1.432403 0 0 0 -0.53126,-0.15625 z" />
  <path
     id="rect18729"
     style="fill:#42d6d7;fill-opacity:1;stroke-width:14.2205;stroke-linecap:round;stroke-linejoin:round"
     d="M 67.302734,55 60,62.302734 62.697266,65 65.4375,62.259766 c 0.678233,0.692777 1.433774,1.46015 1.716797,1.763672 l 2.517578,2.701171 A 38,38 0 0 0 58,94 a 38,38 0 0 0 8.193359,23.43164 c -1.466872,1.19508 -5.017578,3.8125 -5.017578,3.8125 l 1.789063,2.41016 c 1.150182,-0.85355 3.759861,-2.77353 5.162109,-3.92383 A 38,38 0 0 0 96,132 38,38 0 0 0 123.87305,119.73047 c 1.40225,1.1503 4.01192,3.07028 5.16211,3.92383 l 1.78906,-2.41016 c 0,0 -3.55071,-2.61742 -5.01758,-3.8125 A 38,38 0 0 0 134,94 38,38 0 0 0 122.38281,66.666016 l 2.46289,-2.642578 c 0.28303,-0.303522 1.03857,-1.070895 1.7168,-1.763672 L 129.30273,65 132,62.302734 124.69727,55 122,57.697266 l 2.44141,2.441406 c -0.66908,0.684366 -1.45903,1.485906 -1.78907,1.839844 l -2.5039,2.683593 A 38,38 0 0 0 96,56 38,38 0 0 0 71.888672,64.703125 L 69.347656,61.978516 C 69.017621,61.624578 68.227668,60.823038 67.558594,60.138672 L 70,57.697266 Z M 96,59 A 35,35 0 0 1 131,94 35,35 0 0 1 96,129 35,35 0 0 1 61,94 35,35 0 0 1 96,59 Z m 0,17 A 18,18 0 0 0 78,94 18,18 0 0 0 96,112 18,18 0 0 0 114,94 18,18 0 0 0 96,76 Z m -26.703125,68.00586 a 1.4204269,1.432403 0 0 0 -0.53125,0.15625 1.4204269,1.432403 0 0 0 -0.605469,1.93164 l 3.160156,6.13477 a 1.4204269,1.432403 0 0 0 1.916016,0.60937 1.4204269,1.432403 0 0 0 0.603516,-1.92969 l -3.158203,-6.13476 a 1.4204269,1.432403 0 0 0 -0.832032,-0.70703 1.4204269,1.432403 0 0 0 -0.552734,-0.0605 z m 53.406245,0 a 1.4204269,1.432403 0 0 0 -0.55273,0.0605 1.4204269,1.432403 0 0 0 -0.83203,0.70703 l -3.1582,6.13476 a 1.4204269,1.432403 0 0 0 0.60351,1.92969 1.4204269,1.432403 0 0 0 1.91602,-0.60937 l 3.16015,-6.13477 a 1.4204269,1.432403 0 0 0 -0.60546,-1.93164 1.4204269,1.432403 0 0 0 -0.53126,-0.15625 z" />
  <path
     id="path21848"
     style="opacity:0.2;fill:#ffffff;fill-opacity:1;stroke-width:14.2205;stroke-linecap:round;stroke-linejoin:round"
     d="M 67.302734,55 60,62.302734 l 0.5,0.5 L 67.302734,56 69.5,58.197266 l 0.5,-0.5 z M 124.69727,55 122,57.697266 l 0.5,0.5 L 124.69727,56 131.5,62.802734 l 0.5,-0.5 z M 96,56 a 38,38 0 0 0 -24.111328,8.703125 l -2.541016,-2.724609 c -0.239087,-0.256403 -0.795867,-0.820544 -1.296875,-1.332032 l -0.492187,0.492188 c 0.669074,0.684366 1.459027,1.485906 1.789062,1.839844 l 2.541016,2.724609 A 38,38 0 0 1 96,57 a 38,38 0 0 1 24.14844,8.662109 l 2.5039,-2.683593 c 0.33004,-0.353938 1.11999,-1.155478 1.78907,-1.839844 l -0.49219,-0.492188 c -0.50101,0.511488 -1.05779,1.075629 -1.29688,1.332032 l -2.5039,2.683593 A 38,38 0 0 0 96,56 Z m 26.83594,11.179688 -0.45313,0.486328 A 38,38 0 0 1 133.96289,94.535156 38,38 0 0 0 134,94 38,38 0 0 0 122.83594,67.179688 Z m -53.619143,0.05664 A 38,38 0 0 0 58,94 38,38 0 0 0 58.03906,94.542969 38,38 0 0 1 69.671873,67.724609 Z M 96,76 A 18,18 0 0 0 78,94 18,18 0 0 0 78.056641,94.5 18,18 0 0 1 96,77 18,18 0 0 1 113.97266,94.25 18,18 0 0 0 114,94 18,18 0 0 0 96,76 Z m 34.97852,18.261719 A 35,35 0 0 1 96,129 35,35 0 0 1 61.039062,94.5 35,35 0 0 0 61,95 35,35 0 0 0 96,130 35,35 0 0 0 131,95 35,35 0 0 0 130.9785,94.261719 Z M 65.744141,117.77734 c -1.614581,1.2807 -4.56836,3.4668 -4.56836,3.4668 l 0.478516,0.64453 c 0.687382,-0.50819 3.251267,-2.40785 4.539062,-3.45703 a 38,38 0 0 1 -0.449218,-0.6543 z m 60.511719,0 a 38,38 0 0 1 -0.44922,0.6543 c 1.28779,1.04918 3.85168,2.94884 4.53906,3.45703 l 0.47852,-0.64453 c 0,0 -2.95378,-2.1861 -4.56836,-3.4668 z m -56.958985,26.22852 a 1.4204269,1.432403 0 0 0 -0.53125,0.15625 1.4204269,1.432403 0 0 0 -0.621094,1.74609 1.4204269,1.432403 0 0 1 0.621094,-0.74609 1.4204269,1.432403 0 0 1 0.53125,-0.15625 1.4204269,1.432403 0 0 1 0.552734,0.0605 1.4204269,1.432403 0 0 1 0.832032,0.70703 l 3.158203,6.13476 a 1.4204269,1.432403 0 0 1 0.05859,0.16407 1.4204269,1.432403 0 0 0 -0.05859,-1.16407 l -3.158203,-6.13476 a 1.4204269,1.432403 0 0 0 -0.832032,-0.70703 1.4204269,1.432403 0 0 0 -0.552734,-0.0605 z m 53.406245,0 a 1.4204269,1.432403 0 0 0 -0.55273,0.0605 1.4204269,1.432403 0 0 0 -0.83203,0.70703 l -3.1582,6.13476 a 1.4204269,1.432403 0 0 0 -0.0156,1.1836 1.4204269,1.432403 0 0 1 0.0156,-0.1836 l 3.1582,-6.13476 a 1.4204269,1.432403 0 0 1 0.83203,-0.70703 1.4204269,1.432403 0 0 1 0.55273,-0.0605 1.4204269,1.432403 0 0 1 0.53126,0.15625 1.4204269,1.432403 0 0 1 0.66601,0.76562 1.4204269,1.432403 0 0 0 -0.66601,-1.76562 1.4204269,1.432403 0 0 0 -0.53126,-0.15625 z" />
  <path
     id="path9398"
     style="fill:#bbe0e2;fill-opacity:1;stroke-width:15.2663;stroke-linecap:round;stroke-linejoin:round"
     d="m 92,57 2,12 h 4 l 2,-12 z M 59,90 v 8 l 12,-2 v -4 z m 74,0 -12,2 v 4 l 12,2 z m -39,29 -2,12 h 8 l -2,-12 z" />
  <path
     id="ellipse18727"
     style="fill:#e4f4f4;fill-opacity:1;stroke-width:12.0891;stroke-linecap:round;stroke-linejoin:round"
     d="m 91,53.5 1,3.5 h 8 l 1,-3.5 z M 55,89 v 10 l 4,-1 v -8 z m 82,0 -4,1 v 8 l 4,1 z M 36.964844,95.009766 c -1.217604,0.278735 -1.292817,6.323774 -0.167969,13.500004 1.12414,7.17172 3.021351,12.75843 4.238281,12.48046 1.217603,-0.27874 1.292816,-6.32377 0.167969,-13.5 -1.12414,-7.17172 -3.02135,-12.758436 -4.238281,-12.480464 z m 118.070316,0 c -1.21693,-0.277969 -3.11414,5.308744 -4.23828,12.480464 -1.12484,7.17621 -1.04964,13.22124 0.16796,13.5 1.21693,0.27797 3.11414,-5.30874 4.23828,-12.48046 1.12485,-7.17621 1.04964,-13.221242 -0.16796,-13.500004 z M 92,131 l -1,4 h 10 l -1,-4 z"
     sodipodi:nodetypes="ccccccccccccccccscsccscscccccc" />
  <path
     id="path21889"
     style="opacity:0.1;fill:#ffffff;fill-opacity:1;stroke-width:14;stroke-linecap:round;stroke-linejoin:round"
     d="m 96,16 c -17.433236,0 -29.475547,5.125324 -37.53125,13.470703 -0.469908,0.486806 -0.912956,0.989647 -1.34375,1.5 -0.353372,0.418633 -0.689611,0.847331 -1.017578,1.28125 -8.806391,10.95495 -11.945834,26.362337 -11.91211,42.820313 0.0943,-16.08114 3.284246,-31.087446 11.91211,-41.820313 0.327967,-0.433919 0.664206,-0.862617 1.017578,-1.28125 0.430794,-0.510353 0.873842,-1.013194 1.34375,-1.5 C 66.524453,22.125324 78.566764,17 96,17 c 16.86807,0 28.69021,4.799023 36.73633,12.669922 0.53532,0.523663 1.03308,1.064846 1.51367,1.615234 C 144.05488,42.01143 147.65411,57.710677 147.80664,74.625 147.78828,57.330965 144.24757,41.222228 134.25,30.285156 133.76941,29.734768 133.27165,29.193585 132.73633,28.669922 124.69021,20.799023 112.86807,16 96,16 Z m -16.949219,154.89258 0.433594,1.10547 c 0.06015,0.0527 0.119292,0.10253 0.177734,0.15234 -0.202721,-0.41953 -0.405359,-0.83918 -0.611328,-1.25781 z m 33.898439,0 c -0.20597,0.41863 -0.40861,0.83828 -0.61133,1.25781 0.0584,-0.0498 0.11759,-0.0996 0.17773,-0.15234 z" />
</svg>
