<?xml version="1.0" encoding="UTF-8" standalone="no"?>
<!-- Created with Inkscape (http://www.inkscape.org/) -->

<svg
   xmlns:dc="http://purl.org/dc/elements/1.1/"
   xmlns:cc="http://creativecommons.org/ns#"
   xmlns:rdf="http://www.w3.org/1999/02/22-rdf-syntax-ns#"
   xmlns:svg="http://www.w3.org/2000/svg"
   xmlns="http://www.w3.org/2000/svg"
   xmlns:sodipodi="http://sodipodi.sourceforge.net/DTD/sodipodi-0.dtd"
   xmlns:inkscape="http://www.inkscape.org/namespaces/inkscape"
   width="48"
   height="48"
   viewBox="0 0 48 48"
   id="svg2"
   version="1.1"
   inkscape:version="0.92.2 (unknown)"
   sodipodi:docname="apps_andotp.svg"
   inkscape:export-filename="/home/nixdorf/Lokaler Speicher/Build/andOTP/app/src/main/ic_launcher-web.png"
   inkscape:export-xdpi="240"
   inkscape:export-ydpi="240">
  <defs
     id="defs4" />
  <sodipodi:namedview
     id="base"
     pagecolor="white"
     bordercolor="#666666"
     borderopacity="1.0"
     inkscape:pageopacity="0"
     inkscape:pageshadow="2"
     inkscape:zoom="8.66"
     inkscape:cx="-21.505172"
     inkscape:cy="25.141841"
     inkscape:document-units="px"
     inkscape:current-layer="layer1"
     showgrid="false"
     units="px"
     inkscape:window-width="1920"
     inkscape:window-height="1016"
     inkscape:window-x="0"
     inkscape:window-y="34"
     inkscape:window-maximized="1"
     inkscape:snap-bbox="true"
     inkscape:object-paths="true"
     inkscape:snap-bbox-midpoints="true"
     inkscape:snap-object-midpoints="false"
     inkscape:object-nodes="true"
     inkscape:snap-global="true">
    <inkscape:grid
       type="xygrid"
       id="grid835" />
  </sodipodi:namedview>
  <metadata
     id="metadata7">
    <rdf:RDF>
      <cc:Work
         rdf:about="">
        <dc:format>image/svg+xml</dc:format>
        <dc:type
           rdf:resource="http://purl.org/dc/dcmitype/StillImage" />
        <dc:title />
      </cc:Work>
    </rdf:RDF>
  </metadata>
  <g
     inkscape:label="Ebene 1"
     inkscape:groupmode="layer"
     id="layer1"
     transform="translate(0,-1004.3622)">
    <circle
       r="20"
       cy="1028.8622"
       cx="24"
       id="circle846"
       style="opacity:0.2;fill:#000000;fill-opacity:1;fill-rule:evenodd;stroke:none;stroke-width:0.22764228;stroke-linecap:butt;stroke-linejoin:round;stroke-miterlimit:4;stroke-dasharray:none;stroke-dashoffset:0;stroke-opacity:1" />
    <circle
       style="opacity:1;fill:#439a42;fill-opacity:1;fill-rule:evenodd;stroke:none;stroke-width:0.22764228;stroke-linecap:butt;stroke-linejoin:round;stroke-miterlimit:4;stroke-dasharray:none;stroke-dashoffset:0;stroke-opacity:1"
       id="path4271-5"
       cx="24"
       cy="1028.3622"
       r="20" />
    <path
       id="path848"
       d="m 24,1013.8623 a 15,15 0 0 0 -15,15 15,15 0 0 0 15,15 15,15 0 0 0 15,-15 15,15 0 0 0 -15,-15 z m 0,4 a 11,11 0 0 1 10.580078,8 H 13.427734 a 11,11 0 0 1 10.572266,-8 z m 0,13 a 2,2 0 0 1 2,2 2,2 0 0 1 -1.232422,1.8438 l 0.482422,1.1562 1.25,3 H 24 21.5 l 1.25,-3 0.480469,-1.1543 A 2,2 0 0 1 22,1032.8623 a 2,2 0 0 1 2,-2 z"
       style="opacity:0.2;fill:#000000;fill-opacity:1;fill-rule:evenodd;stroke:none;stroke-width:0.17073171;stroke-linecap:butt;stroke-linejoin:round;stroke-miterlimit:4;stroke-dasharray:none;stroke-dashoffset:0;stroke-opacity:1"
       inkscape:connector-curvature="0" />
    <path
       inkscape:connector-curvature="0"
       style="opacity:1;fill:#ffd838;fill-opacity:1;fill-rule:evenodd;stroke:none;stroke-width:0.17073171;stroke-linecap:butt;stroke-linejoin:round;stroke-miterlimit:4;stroke-dasharray:none;stroke-dashoffset:0;stroke-opacity:1"
       d="m 24,1013.3622 a 15,15 0 0 0 -15,15 15,15 0 0 0 15,15 15,15 0 0 0 15,-15 15,15 0 0 0 -15,-15 z m 0,4 a 11,11 0 0 1 10.580078,8 H 13.427734 a 11,11 0 0 1 10.572266,-8 z m 0,13 a 2,2 0 0 1 2,2 2,2 0 0 1 -1.232422,1.8438 l 0.482422,1.1562 1.25,3 H 24 21.5 l 1.25,-3 0.480469,-1.1543 A 2,2 0 0 1 22,1032.3622 a 2,2 0 0 1 2,-2 z"
       id="path4271" />
    <path
       inkscape:connector-curvature="0"
       style="opacity:0.2;fill:#ffffff;fill-opacity:1;fill-rule:evenodd;stroke:none;stroke-width:0.22764228;stroke-linecap:butt;stroke-linejoin:round;stroke-miterlimit:4;stroke-dasharray:none;stroke-dashoffset:0;stroke-opacity:1"
       d="m 24,1008.3622 a 20,20 0 0 0 -20,20 20,20 0 0 0 0.00977,0.291 20,20 0 0 1 19.99023,-19.791 20,20 0 0 1 19.990234,19.709 20,20 0 0 0 0.0098,-0.209 20,20 0 0 0 -20,-20 z"
       id="circle850" />
    <path
       inkscape:connector-curvature="0"
       style="opacity:0.2;fill:#ffffff;fill-opacity:1;fill-rule:evenodd;stroke:none;stroke-width:0.17073171;stroke-linecap:butt;stroke-linejoin:round;stroke-miterlimit:4;stroke-dasharray:none;stroke-dashoffset:0;stroke-opacity:1"
       d="m 24,1013.3622 a 15,15 0 0 0 -15,15 15,15 0 0 0 0.00977,0.207 15,15 0 0 1 14.99023,-14.707 15,15 0 0 1 14.990234,14.793 15,15 0 0 0 0.0098,-0.293 15,15 0 0 0 -15,-15 z m -10.404297,12 a 11,11 0 0 0 -0.167969,0.5 h 21.152344 a 11,11 0 0 0 -0.167969,-0.5 z m 8.421875,7.2461 A 2,2 0 0 0 22,1032.8622 a 2,2 0 0 0 1.056641,1.7617 l 0.173828,-0.416 a 2,2 0 0 1 -1.212891,-1.5996 z m 3.964844,0.01 a 2,2 0 0 1 -1.214844,1.5898 l 0.173828,0.4161 A 2,2 0 0 0 26,1032.8622 a 2,2 0 0 0 -0.01758,-0.2461 z m -4.273438,5.7461 -0.208984,0.5 h 2.5 2.5 l -0.208984,-0.5 H 24 Z"
       id="path852" />
  </g>
</svg>
