<svg xmlns="http://www.w3.org/2000/svg" width="192" height="192" version="1">
 <defs>
  <filter id="filter2625" style="color-interpolation-filters:sRGB" width="1.084" height="1.112" x="-.04" y="-.06">
   <feGaussianBlur id="feGaussianBlur2627" stdDeviation="2.8"/>
  </filter>
  <filter id="filter2834" style="color-interpolation-filters:sRGB" width="1.081" height="1.118" x="-.04" y="-.06">
   <feGaussianBlur id="feGaussianBlur2836" stdDeviation="2.7"/>
  </filter>
  <filter id="filter3047" style="color-interpolation-filters:sRGB" width="1.03" height="1.063" x="-.01" y="-.03">
   <feGaussianBlur id="feGaussianBlur3049" stdDeviation=".956"/>
  </filter>
 </defs>
 <rect style="opacity:0.2;filter:url(#filter2625)" width="160" height="120" x="-180" y="-156" rx="12" ry="12" transform="matrix(0,-1,-1,0,0,0)"/>
 <rect style="fill:#17d7db" width="160" height="120" x="-176" y="-156" rx="12" ry="12" transform="matrix(0,-1,-1,0,0,0)"/>
 <path style="opacity:0.2;filter:url(#filter2834)" d="M 96,43 C 51.798318,43 16,66.403609 16,94.990234 V 98 c 0,30.42553 31.260503,55 80,55 48.90756,0 80,-24.57447 80,-55 V 94.990234 C 176,66.403609 140.20168,43 96,43 Z"/>
 <path style="fill:#2156b1" d="M 176,92.99088 C 176,64.404255 140.20168,41 95.999998,41 51.798316,41 15.999996,64.404255 15.999996,92.99088 v 3.009118 C 15.999996,126.42553 47.260501,151 95.999998,151 144.90756,151 176,126.42553 176,95.999998 Z"/>
 <path style="fill:#00bcff" d="m 173.14285,92.99088 c 0,26.91489 -34.45378,48.81459 -76.806717,48.81459 -42.352942,0 -76.806724,-21.8997 -76.806724,-48.81459 0,-26.914893 34.453781,-48.814589 76.806724,-48.814589 42.352937,0 76.806717,21.899696 76.806717,48.814589 z"/>
 <path style="fill:#ffffff" d="m 70.78988,77.611005 c 0,0 -0.840336,0.835866 -0.336134,1.504559 1.176471,1.504559 4.87395,2.340426 8.739496,1.504559 2.184874,-0.501519 5.210084,-2.841945 7.89916,-5.015197 3.02521,-2.340426 6.05042,-4.848025 9.07563,-5.683891 3.193278,-1.003039 5.210088,-0.501519 6.554618,-0.167173 1.51261,0.50152 3.19328,1.504559 6.05042,3.510638 5.21009,3.844985 26.38656,22.234042 30.08404,25.410334 2.85714,-1.337386 15.96639,-6.854103 33.78151,-10.866261 -1.5126,-9.361702 -7.22689,-18.054711 -15.96638,-25.075987 -12.10085,5.015197 -27.05883,7.689969 -41.68068,0.668693 0,0 -7.89916,-3.677812 -15.798318,-3.510639 -11.596639,0.334347 -16.470588,5.182371 -21.84874,10.531915 z"/>
 <path style="fill:#ffffff" d="m 138.01677,100.68091 c -0.16806,-0.16717 -24.87395,-21.565346 -30.42017,-25.744677 -3.19327,-2.340426 -5.04201,-3.009119 -6.89075,-3.343465 -1.008406,-0.167174 -2.352944,0 -3.361347,0.334346 -2.521009,0.668693 -6.05042,3.009119 -9.075631,5.349544 -3.193277,2.507599 -6.05042,4.848024 -8.739496,5.349544 -3.529411,0.835866 -7.731092,-0.167173 -9.579832,-1.504559 -0.840336,-0.50152 -1.344538,-1.170213 -1.680672,-1.838906 -0.672269,-1.671732 0.672269,-3.009118 0.840336,-3.176292 l 6.722689,-7.355623 2.352942,-2.340425 c -2.184874,0.334346 -4.201681,0.835866 -6.218488,1.337386 -2.521008,0.668693 -4.87395,1.337386 -7.226891,1.337386 -1.008403,0 -6.386555,-0.835866 -7.394958,-1.170213 -6.218487,-1.671732 -11.596639,-3.343465 -19.663866,-7.021276 -9.579832,7.188449 -16.134454,16.048632 -17.983193,25.911853 1.344537,0.334347 3.697479,1.00304 4.537815,1.170213 21.84874,4.848024 28.571429,9.863222 29.915967,10.866261 1.344538,-1.504559 3.193277,-2.340425 5.378151,-2.340425 2.352941,0 4.537815,1.170213 5.882353,3.009118 1.176471,-1.003039 3.02521,-1.838905 5.210084,-1.838905 1.008404,0 2.016807,0.167173 3.193278,0.501519 2.521008,0.835867 3.697479,2.507596 4.369748,4.012156 0.840336,-0.33434 1.848739,-0.66869 3.02521,-0.66869 1.17647,0 2.352941,0.33435 3.697479,0.83587 4.033613,1.67173 4.705882,5.68389 4.369748,8.693 h 0.840336 c 4.87395,0 8.739496,3.84499 8.739496,8.69301 0,1.50456 -0.336135,2.84195 -1.008404,4.01216 1.344538,0.66869 4.537816,2.34043 7.563026,2.00608 2.35294,-0.33435 3.19328,-1.00304 3.52941,-1.50456 0.16807,-0.33435 0.5042,-0.66869 0.16807,-1.00304 l -6.21849,-6.8541 c 0,0 -1.0084,-1.00304 -0.67227,-1.33739 0.33614,-0.33434 1.00841,0.16718 1.51261,0.50152 3.19327,2.67477 6.89075,6.51976 6.89075,6.51976 0,0 0.33614,0.50152 1.68068,0.83587 1.17647,0.16717 3.36134,0 4.87395,-1.17022 0.33613,-0.33434 0.84033,-0.66869 1.0084,-1.00304 1.5126,-2.00608 -0.16807,-4.01215 -0.16807,-4.01215 l -7.22689,-8.02432 c 0,0 -1.0084,-1.00304 -0.67227,-1.33739 0.33614,-0.33434 1.00841,0.16718 1.51261,0.50152 2.35294,1.83891 5.54622,5.18237 8.57143,8.19149 0.67227,0.50152 3.36134,2.17325 6.89075,-0.16717 2.18488,-1.50456 2.68908,-3.17629 2.52101,-4.51368 -0.16807,-1.67173 -1.5126,-3.00912 -1.5126,-3.00912 l -9.7479,-9.863219 c 0,0 -1.00841,-0.835866 -0.67227,-1.337386 0.33613,-0.334346 1.0084,0.167173 1.5126,0.50152 3.19328,2.674775 11.59664,10.364745 11.59664,10.364745 0.16807,0 3.02521,2.17325 6.72269,-0.16718 1.34454,-0.83586 2.18487,-2.00608 2.18487,-3.51064 0.16807,-2.17325 -1.68067,-3.67781 -1.68067,-3.67781 z"/>
 <path style="fill:#ffffff" d="m 90.453746,113.21891 c -1.512605,0 -3.193277,0.83586 -3.361344,0.83586 -0.168067,0 0,-0.66869 0.168067,-1.00304 0.168067,-0.33434 2.184874,-6.35258 -2.689076,-8.52583 -3.697479,-1.67173 -6.05042,0.16717 -6.722689,1.00304 -0.168067,0.16717 -0.336134,0.16717 -0.336134,0 0,-1.00304 -0.504202,-4.01216 -3.865547,-5.0152 -4.705882,-1.504559 -7.563025,1.83891 -8.403361,3.00912 -0.336135,-2.67477 -2.521009,-4.680853 -5.378151,-4.680853 -3.025211,0 -5.378152,2.340423 -5.378152,5.349543 0,3.00912 2.352941,5.34955 5.378152,5.34955 1.512605,0 2.689075,-0.50152 3.697479,-1.50456 v 0.16717 c -0.168068,1.33739 -0.672269,6.18541 4.369748,8.02432 2.016806,0.83586 3.697479,0.16717 5.210084,-0.83587 0.504201,-0.33435 0.504201,-0.16717 0.504201,0.16717 -0.168067,1.17022 0,3.84499 3.865547,5.34955 2.857143,1.17021 4.537815,0 5.546218,-1.00304 0.504202,-0.50152 0.672269,-0.33435 0.672269,0.33434 0.168067,3.51064 3.193278,6.35259 6.722689,6.35259 3.697479,0 6.72269,-3.00912 6.72269,-6.68693 0,-3.67781 -3.025211,-6.68693 -6.72269,-6.68693 z"/>
 <path style="opacity:0.2;filter:url(#filter3047)" d="m 139.02521,100.17277 c -7.56303,-6.519756 -25.04202,-21.732522 -29.91597,-25.24316 -2.68908,-2.006079 -4.53782,-3.176292 -6.21849,-3.510638 -0.67227,-0.167173 -1.68067,-0.50152 -3.025206,-0.50152 -1.176469,0 -2.521007,0.167173 -3.865545,0.668693 -3.02521,1.003039 -6.050421,3.343465 -9.075631,5.683891 L 86.7563,77.437209 c -2.689075,2.173252 -5.546218,4.346504 -7.731092,4.848024 -1.008404,0.167173 -1.84874,0.334346 -2.857143,0.334346 -2.352941,0 -4.537814,-0.668693 -5.378152,-1.671732 -0.168066,-0.167173 0,-0.50152 0.336135,-0.835866 l 6.722689,-7.18845 C 83.058822,67.741161 87.932771,62.893136 99.361344,62.55879 h 0.5042 c 7.058816,0 14.117646,3.176291 14.957976,3.510637 6.72269,3.176293 13.44538,4.848025 20.33614,4.848025 7.22689,0 14.62185,-1.838905 22.35294,-5.349544 -0.84034,-0.668693 -1.84874,-1.504559 -2.68907,-2.173252 -6.89076,3.009119 -13.27732,4.346505 -19.66387,4.346505 -6.38656,0 -12.77311,-1.504559 -18.9916,-4.513678 -0.33613,-0.167174 -8.06722,-4.227963 -16.302516,-4.227963 h -0.672269 c -9.579831,0.167173 -14.957983,3.893616 -18.487394,6.902734 -3.529412,0 -6.554622,1.003041 -9.243698,1.671734 -2.352941,0.668692 -4.537815,1.170212 -6.554622,1.170212 h -2.521008 c -2.352941,0 -14.117647,-2.841946 -23.361345,-6.519757 -1.008403,0.668693 -1.84874,1.337386 -2.857143,2.006079 9.747899,4.012158 21.680673,7.021277 25.378152,7.355623 1.008403,0 2.184874,0.167173 3.361344,0.167173 2.521009,0 4.87395,-0.668693 7.394959,-1.337386 1.512605,-0.334346 3.02521,-0.835866 4.537815,-1.170212 l -1.344538,1.337386 -6.722689,7.355623 c -0.504202,0.501519 -1.680673,2.006079 -1.008404,3.677811 0.336135,0.668693 1.008404,1.337386 1.84874,2.006079 1.680672,1.00304 4.537815,1.838906 7.226891,1.838906 1.008403,0 2.016807,-0.167173 2.857143,-0.334346 2.857142,-0.668693 5.882352,-3.009119 8.907562,-5.516718 2.521008,-2.006079 6.050421,-4.513678 8.739497,-5.349544 0.840335,-0.167173 1.680672,-0.334347 2.521007,-0.334347 h 0.672266 c 1.84874,0.167173 3.52941,0.835866 6.72269,3.176293 5.54622,4.17933 30.2521,25.577507 30.42017,25.744677 0,0 1.5126,1.33739 1.5126,3.67782 0,1.17021 -0.84033,2.34042 -2.0168,3.17628 -1.00841,0.6687 -2.18488,1.00305 -3.19328,1.00305 -1.68067,0 -2.85714,-0.83587 -2.85714,-0.83587 0,0 -8.57143,-7.68997 -11.59664,-10.364743 -0.5042,-0.501519 -1.00841,-0.835866 -1.51261,-0.835866 -0.33613,0 -0.5042,0.167174 -0.67227,0.334347 -0.5042,0.668693 0,1.504562 0.67227,2.006082 l 9.91597,9.86322 c 0,0 1.17647,1.17022 1.34454,2.67477 0,1.67173 -0.67227,3.00912 -2.35294,4.01215 -1.17648,0.83587 -2.35295,1.17022 -3.52942,1.17022 -1.5126,0 -2.521,-0.66869 -2.85714,-0.83586 l -1.5126,-1.33739 c -2.52101,-2.5076 -5.21009,-5.18237 -7.2269,-6.68693 -0.5042,-0.33434 -1.0084,-0.83586 -1.5126,-0.83586 -0.16807,0 -0.5042,0 -0.67227,0.33434 -0.16807,0.16718 -0.33613,0.66869 0.16807,1.50456 0.16807,0.33435 0.5042,0.50152 0.5042,0.50152 l 7.22689,8.02431 c 0,0 1.51261,1.83891 0.16807,3.34347 l -0.33614,0.33434 -0.67227,0.6687 c -1.17647,1.00304 -2.85714,1.17021 -3.52941,1.17021 h -1.0084 c -0.67227,-0.16717 -1.17647,-0.33434 -1.51261,-0.6687 -0.33613,-0.50151 -4.03361,-4.01215 -7.05882,-6.51975 -0.33613,-0.33434 -0.84034,-0.66869 -1.34454,-0.66869 -0.16806,0 -0.5042,0.16717 -0.67227,0.33435 -0.5042,0.66869 0.33614,1.67173 0.67227,2.00607 l 6.21849,6.68693 c 0,0 0,0.16718 -0.16807,0.50152 -0.16806,0.33435 -1.0084,1.00305 -3.19327,1.33739 h -0.84034 c -2.35294,0 -4.705879,-1.17021 -6.050417,-1.83891 0.504202,-1.17021 0.840336,-2.5076 0.840336,-3.84498 0,-5.0152 -4.033613,-9.02735 -9.07563,-9.02735 h -0.336135 c 0.168066,-2.34043 -0.168067,-6.68693 -4.705883,-8.52584 -1.344538,-0.50152 -2.521009,-0.83587 -3.865547,-0.83587 -1.008403,0 -1.848739,0.16718 -2.857142,0.50152 -1.008404,-1.83891 -2.521009,-3.17629 -4.537816,-3.84498 -1.17647,-0.33435 -2.184874,-0.50152 -3.361344,-0.50152 -1.84874,0 -3.529412,0.50152 -5.042017,1.67173 -1.478877,-1.811323 -3.704588,-2.856763 -6.05042,-2.841945 -2.016807,0 -4.033614,0.835866 -5.378152,2.173255 -1.848739,-1.504563 -9.411765,-6.185413 -29.747899,-10.866264 -1.008404,-0.167174 -3.193278,-0.835867 -4.537816,-1.337386 -0.168067,1.003039 -0.336134,2.173252 -0.504201,3.343464 0,0 3.697479,0.835866 4.537815,1.00304 20.672269,4.513678 27.563026,9.361696 28.739496,10.197566 -0.336134,1.00304 -0.504202,2.00608 -0.504202,3.00912 0,4.34651 3.529412,7.68997 7.731093,7.68997 0.504202,0 1.008403,0 1.512605,-0.16717 0.672269,3.17629 2.689076,5.51671 5.882353,6.68692 1.008404,0.33435 1.84874,0.50153 2.689076,0.50153 0.504202,0 1.17647,0 1.848739,-0.16718 0.504202,1.50456 1.84874,3.34346 4.87395,4.51368 1.008403,0.50153 2.016807,0.66869 3.02521,0.66869 0.840336,0 1.680672,-0.16716 2.352941,-0.50152 1.344538,3.34347 4.705883,5.6839 8.403362,5.6839 2.521008,0 4.87395,-1.00305 6.554622,-2.84195 1.512605,0.83587 4.537813,2.34043 7.731093,2.34043 h 1.17647 c 3.19327,-0.33435 4.53781,-1.67174 5.21008,-2.5076 0.16807,-0.16718 0.16807,-0.33435 0.33614,-0.50152 0.67226,0.16717 1.5126,0.33434 2.521,0.33434 1.68068,0 3.36135,-0.50151 5.04202,-1.8389 1.68067,-1.17021 2.85714,-2.84195 2.85714,-4.34651 0.50421,0.16718 1.17647,0.16718 1.68068,0.16718 1.68067,0 3.52941,-0.50152 5.21008,-1.67173 3.19328,-2.00609 3.69748,-4.84803 3.69748,-6.51976 0.5042,0.16717 1.17647,0.16717 1.68067,0.16717 1.68067,0 3.36135,-0.50152 4.87395,-1.50456 2.01681,-1.33738 3.19328,-3.17629 3.36135,-5.34954 0.16806,-1.50456 -0.33614,-3.00912 -1.00841,-4.34651 5.37815,-2.34042 17.47899,-6.686927 31.93278,-10.030393 0,-1.170212 -0.16807,-2.173252 -0.50421,-3.343464 -17.31092,3.677811 -30.2521,9.194528 -33.44537,10.699087 z M 90.453779,128.0907 c -3.361344,0 -6.05042,-2.67477 -6.218487,-6.01823 0,-0.33435 0,-1.00304 -0.672269,-1.00304 -0.336135,0 -0.504202,0.16717 -0.840335,0.33434 -0.672269,0.6687 -1.680673,1.33739 -3.02521,1.33739 -0.672269,0 -1.344538,-0.16718 -2.016807,-0.50152 -3.529412,-1.50456 -3.697479,-3.84499 -3.529412,-4.84802 0,-0.33435 0,-0.50152 -0.168067,-0.6687 l -0.168067,-0.16717 h -0.168068 c -0.168067,0 -0.336134,0 -0.672269,0.33435 -1.008403,0.66868 -2.016806,1.00304 -3.02521,1.00304 -0.504201,0 -1.17647,-0.16718 -1.680672,-0.33436 -4.705882,-1.8389 -4.369748,-6.1854 -4.033614,-7.52279 0,-0.33435 0,-0.50151 -0.168067,-0.66869 l -0.336134,-0.33434 -0.336135,0.33434 c -1.008403,0.83587 -2.184874,1.33739 -3.361344,1.33739 -2.689076,0 -4.87395,-2.17326 -4.87395,-4.84803 0,-2.67477 2.184874,-4.84802 4.87395,-4.84802 2.352941,0 4.537815,1.8389 4.873949,4.17933 l 0.168068,1.33739 0.672269,-1.17022 c 0,-0.16717 2.016806,-3.17629 5.714285,-3.00911 0.672269,0 1.344538,0.16716 2.184874,0.33434 2.857143,0.83587 3.361345,3.51063 3.361345,4.51368 0,0.66869 0.504202,0.66869 0.504202,0.66869 0.168067,0 0.504201,-0.16717 0.504201,-0.33435 0.504202,-0.50151 1.680673,-1.50455 3.529412,-1.50455 0.840336,0 1.680672,0.16716 2.689076,0.66868 4.537815,2.00609 2.521008,7.68998 2.521008,7.85715 -0.336134,1.00304 -0.504201,1.33738 0,1.67174 h 0.336135 c 0.168066,0 0.504201,0 0.840335,-0.16718 0.672269,-0.16718 1.512605,-0.50152 2.352942,-0.50152 3.361345,0 6.218487,2.84194 6.218487,6.18541 0.168067,3.67781 -2.689076,6.35258 -6.050421,6.35258 z"/>
 <rect style="fill:none" width="160" height="120" x="-176" y="-156" rx="12" ry="12" transform="matrix(0,-1,-1,0,0,0)"/>
 <path style="fill:#2156b1" d="m 139.02521,98.17325 c -7.56303,-6.519756 -25.04202,-21.732522 -29.91597,-25.24316 -2.68908,-2.006079 -4.53782,-3.176292 -6.21849,-3.510638 -0.67227,-0.167173 -1.68067,-0.50152 -3.025206,-0.50152 -1.176469,0 -2.521007,0.167173 -3.865545,0.668693 -3.02521,1.003039 -6.050421,3.343465 -9.075631,5.683891 L 86.7563,75.437689 c -2.689075,2.173252 -5.546218,4.346504 -7.731092,4.848024 -1.008404,0.167173 -1.84874,0.334346 -2.857143,0.334346 -2.352941,0 -4.537814,-0.668693 -5.378152,-1.671732 -0.168066,-0.167173 0,-0.50152 0.336135,-0.835866 l 6.722689,-7.18845 C 83.058822,65.741641 87.932771,60.893616 99.361344,60.55927 h 0.5042 c 7.058816,0 14.117646,3.176291 14.957976,3.510637 6.72269,3.176293 13.44538,4.848025 20.33614,4.848025 7.22689,0 14.62185,-1.838905 22.35294,-5.349544 -0.84034,-0.668693 -1.84874,-1.504559 -2.68907,-2.173252 -6.89076,3.009119 -13.27732,4.346505 -19.66387,4.346505 -6.38656,0 -12.77311,-1.504559 -18.9916,-4.513678 C 115.83193,61.060789 108.10084,57 99.865544,57 h -0.672269 c -9.579831,0.167173 -14.957983,3.893616 -18.487394,6.902734 -3.529412,0 -6.554622,1.003041 -9.243698,1.671734 -2.352941,0.668692 -4.537815,1.170212 -6.554622,1.170212 h -2.521008 c -2.352941,0 -14.117647,-2.841946 -23.361345,-6.519757 -1.008403,0.668693 -1.84874,1.337386 -2.857143,2.006079 9.747899,4.012158 21.680673,7.021277 25.378152,7.355623 1.008403,0 2.184874,0.167173 3.361344,0.167173 2.521009,0 4.87395,-0.668693 7.394959,-1.337386 1.512605,-0.334346 3.02521,-0.835866 4.537815,-1.170212 l -1.344538,1.337386 -6.722689,7.355623 c -0.504202,0.501519 -1.680673,2.006079 -1.008404,3.677811 0.336135,0.668693 1.008404,1.337386 1.84874,2.006079 1.680672,1.00304 4.537815,1.838906 7.226891,1.838906 1.008403,0 2.016807,-0.167173 2.857143,-0.334346 2.857142,-0.668693 5.882352,-3.009119 8.907562,-5.516718 2.521008,-2.006079 6.050421,-4.513678 8.739497,-5.349544 0.840335,-0.167173 1.680672,-0.334347 2.521007,-0.334347 h 0.672266 c 1.84874,0.167173 3.52941,0.835866 6.72269,3.176293 5.54622,4.17933 30.2521,25.577507 30.42017,25.744677 0,0 1.5126,1.33739 1.5126,3.67782 0,1.17021 -0.84033,2.34042 -2.0168,3.17628 -1.00841,0.6687 -2.18488,1.00305 -3.19328,1.00305 -1.68067,0 -2.85714,-0.83587 -2.85714,-0.83587 0,0 -8.57143,-7.68997 -11.59664,-10.364743 -0.5042,-0.501519 -1.00841,-0.835866 -1.51261,-0.835866 -0.33613,0 -0.5042,0.167174 -0.67227,0.334347 -0.5042,0.668693 0,1.504559 0.67227,2.006079 l 9.91597,9.863223 c 0,0 1.17647,1.17022 1.34454,2.67477 0,1.67173 -0.67227,3.00912 -2.35294,4.01215 -1.17648,0.83587 -2.35295,1.17022 -3.52942,1.17022 -1.5126,0 -2.521,-0.66869 -2.85714,-0.83586 l -1.5126,-1.33739 c -2.52101,-2.5076 -5.21009,-5.18237 -7.2269,-6.68693 -0.5042,-0.33434 -1.0084,-0.83586 -1.5126,-0.83586 -0.16807,0 -0.5042,0 -0.67227,0.33434 -0.16807,0.16718 -0.33613,0.66869 0.16807,1.50456 0.16807,0.33435 0.5042,0.50152 0.5042,0.50152 l 7.22689,8.02431 c 0,0 1.51261,1.83891 0.16807,3.34347 l -0.33614,0.33434 -0.67227,0.6687 c -1.17647,1.00304 -2.85714,1.17021 -3.52941,1.17021 h -1.0084 c -0.67227,-0.16717 -1.17647,-0.33434 -1.51261,-0.6687 -0.33613,-0.50151 -4.03361,-4.01215 -7.05882,-6.51975 -0.33613,-0.33434 -0.84034,-0.66869 -1.34454,-0.66869 -0.16806,0 -0.5042,0.16717 -0.67227,0.33435 -0.5042,0.66869 0.33614,1.67173 0.67227,2.00607 l 6.21849,6.68693 c 0,0 0,0.16718 -0.16807,0.50152 -0.16806,0.33435 -1.0084,1.00305 -3.19327,1.33739 h -0.84034 c -2.35294,0 -4.705879,-1.17021 -6.050417,-1.83891 0.504202,-1.17021 0.840336,-2.5076 0.840336,-3.84498 0,-5.0152 -4.033613,-9.02735 -9.07563,-9.02735 h -0.336135 c 0.168066,-2.34043 -0.168067,-6.68693 -4.705883,-8.52584 -1.344538,-0.50152 -2.521009,-0.83587 -3.865547,-0.83587 -1.008403,0 -1.848739,0.16718 -2.857142,0.50152 -1.008404,-1.83891 -2.521009,-3.17629 -4.537816,-3.844983 -1.17647,-0.334347 -2.184874,-0.50152 -3.361344,-0.50152 -1.84874,0 -3.529412,0.50152 -5.042017,1.671732 -1.478877,-1.811322 -3.704588,-2.856762 -6.05042,-2.841944 -2.016807,0 -4.033614,0.835866 -5.378152,2.173252 -1.848739,-1.50456 -9.411765,-6.18541 -29.747899,-10.866261 -1.008404,-0.167174 -3.193278,-0.835867 -4.537816,-1.337386 -0.168067,1.003039 -0.336134,2.173252 -0.504201,3.343464 0,0 3.697479,0.835866 4.537815,1.00304 20.672269,4.513678 27.563026,9.361696 28.739496,10.197566 -0.336134,1.00304 -0.504202,2.00608 -0.504202,3.00912 0,4.34651 3.529412,7.68997 7.731093,7.68997 0.504202,0 1.008403,0 1.512605,-0.16717 0.672269,3.17629 2.689076,5.51671 5.882353,6.68692 1.008404,0.33435 1.84874,0.50153 2.689076,0.50153 0.504202,0 1.17647,0 1.848739,-0.16718 0.504202,1.50456 1.84874,3.34346 4.87395,4.51368 1.008403,0.50153 2.016807,0.66869 3.02521,0.66869 0.840336,0 1.680672,-0.16716 2.352941,-0.50152 1.344538,3.34347 4.705883,5.6839 8.403362,5.6839 2.521008,0 4.87395,-1.00305 6.554622,-2.84195 1.512605,0.83587 4.537813,2.34043 7.731093,2.34043 h 1.17647 c 3.19327,-0.33435 4.53781,-1.67174 5.21008,-2.5076 0.16807,-0.16718 0.16807,-0.33435 0.33614,-0.50152 0.67226,0.16717 1.5126,0.33434 2.521,0.33434 1.68068,0 3.36135,-0.50151 5.04202,-1.8389 1.68067,-1.17021 2.85714,-2.84195 2.85714,-4.34651 0.50421,0.16718 1.17647,0.16718 1.68068,0.16718 1.68067,0 3.52941,-0.50152 5.21008,-1.67173 3.19328,-2.00609 3.69748,-4.84803 3.69748,-6.51976 0.5042,0.16717 1.17647,0.16717 1.68067,0.16717 1.68067,0 3.36135,-0.50152 4.87395,-1.50456 2.01681,-1.33738 3.19328,-3.17629 3.36135,-5.34954 0.16806,-1.50456 -0.33614,-3.00912 -1.00841,-4.34651 5.37815,-2.340423 17.47899,-6.686927 31.93278,-10.030393 0,-1.170212 -0.16807,-2.173252 -0.50421,-3.343464 -17.31092,3.677811 -30.2521,9.194528 -33.44537,10.699087 z m -48.571431,27.91793 c -3.361344,0 -6.05042,-2.67477 -6.218487,-6.01823 0,-0.33435 0,-1.00304 -0.672269,-1.00304 -0.336135,0 -0.504202,0.16717 -0.840335,0.33434 -0.672269,0.6687 -1.680673,1.33739 -3.02521,1.33739 -0.672269,0 -1.344538,-0.16718 -2.016807,-0.50152 -3.529412,-1.50456 -3.697479,-3.84499 -3.529412,-4.84802 0,-0.33435 0,-0.50152 -0.168067,-0.6687 l -0.168067,-0.16717 h -0.168068 c -0.168067,0 -0.336134,0 -0.672269,0.33435 -1.008403,0.66868 -2.016806,1.00304 -3.02521,1.00304 -0.504201,0 -1.17647,-0.16718 -1.680672,-0.33436 -4.705882,-1.8389 -4.369748,-6.1854 -4.033614,-7.52279 0,-0.33435 0,-0.50151 -0.168067,-0.66869 l -0.336134,-0.33434 -0.336135,0.33434 c -1.008403,0.83587 -2.184874,1.33739 -3.361344,1.33739 -2.689076,0 -4.87395,-2.17326 -4.87395,-4.84803 0,-2.67477 2.184874,-4.848023 4.87395,-4.848023 2.352941,0 4.537815,1.838903 4.873949,4.179333 l 0.168068,1.33739 0.672269,-1.17022 c 0,-0.16717 2.016806,-3.17629 5.714285,-3.00911 0.672269,0 1.344538,0.16716 2.184874,0.33434 2.857143,0.83587 3.361345,3.51063 3.361345,4.51368 0,0.66869 0.504202,0.66869 0.504202,0.66869 0.168067,0 0.504201,-0.16717 0.504201,-0.33435 0.504202,-0.50151 1.680673,-1.50455 3.529412,-1.50455 0.840336,0 1.680672,0.16716 2.689076,0.66868 4.537815,2.00609 2.521008,7.68998 2.521008,7.85715 -0.336134,1.00304 -0.504201,1.33738 0,1.67174 h 0.336135 c 0.168066,0 0.504201,0 0.840335,-0.16718 0.672269,-0.16718 1.512605,-0.50152 2.352942,-0.50152 3.361345,0 6.218487,2.84194 6.218487,6.18541 0.168067,3.67781 -2.689076,6.35258 -6.050421,6.35258 z"/>
 <path style="opacity:0.2;fill:#ffffff" d="m 48,16 c -6.648,0 -12,5.352 -12,12 v 1 c 0,-6.648 5.352,-12 12,-12 h 96 c 6.648,0 12,5.352 12,12 v -1 c 0,-6.648 -5.352,-12 -12,-12 z"/>
</svg>
