<?xml version="1.0" encoding="UTF-8" standalone="no"?>
<svg
   width="192"
   height="192"
   version="1"
   id="svg14"
   sodipodi:docname="apps_forest.svg"
   inkscape:version="1.1.1 (1:1.1+202109281949+c3084ef5ed)"
   xmlns:inkscape="http://www.inkscape.org/namespaces/inkscape"
   xmlns:sodipodi="http://sodipodi.sourceforge.net/DTD/sodipodi-0.dtd"
   xmlns="http://www.w3.org/2000/svg"
   xmlns:svg="http://www.w3.org/2000/svg"
   xmlns:rdf="http://www.w3.org/1999/02/22-rdf-syntax-ns#"
   xmlns:cc="http://creativecommons.org/ns#"
   xmlns:dc="http://purl.org/dc/elements/1.1/">
  <metadata
     id="metadata20">
    <rdf:RDF>
      <cc:Work
         rdf:about="">
        <dc:format>image/svg+xml</dc:format>
        <dc:type
           rdf:resource="http://purl.org/dc/dcmitype/StillImage" />
      </cc:Work>
    </rdf:RDF>
  </metadata>
  <defs
     id="defs18">
    <filter
       inkscape:collect="always"
       style="color-interpolation-filters:sRGB"
       id="filter850"
       x="-0.048000001"
       width="1.096"
       y="-0.048000001"
       height="1.096">
      <feGaussianBlur
         inkscape:collect="always"
         stdDeviation="3.2"
         id="feGaussianBlur852" />
    </filter>
    <filter
       inkscape:collect="always"
       style="color-interpolation-filters:sRGB"
       id="filter27580"
       x="-0.075001028"
       y="-0.074998973"
       width="1.1500021"
       height="1.1499979">
      <feGaussianBlur
         inkscape:collect="always"
         stdDeviation="1.1250157"
         id="feGaussianBlur27582" />
    </filter>
    <filter
       inkscape:collect="always"
       style="color-interpolation-filters:sRGB"
       id="filter27629"
       x="-0.07024252"
       y="-0.080448737"
       width="1.140485"
       height="1.1608975">
      <feGaussianBlur
         inkscape:collect="always"
         stdDeviation="1.9316732"
         id="feGaussianBlur27631" />
    </filter>
  </defs>
  <sodipodi:namedview
     pagecolor="#ffffff"
     bordercolor="#666666"
     borderopacity="1"
     objecttolerance="10"
     gridtolerance="10"
     guidetolerance="10"
     inkscape:pageopacity="0"
     inkscape:pageshadow="2"
     inkscape:window-width="1920"
     inkscape:window-height="1022"
     id="namedview16"
     showgrid="false"
     inkscape:zoom="3.77"
     inkscape:cx="61.538462"
     inkscape:cy="94.164456"
     inkscape:window-x="0"
     inkscape:window-y="34"
     inkscape:window-maximized="1"
     inkscape:current-layer="svg14"
     inkscape:pagecheckerboard="0"
     inkscape:snap-bbox="true"
     inkscape:snap-bbox-midpoints="true"
     inkscape:snap-global="true"
     showguides="false">
    <inkscape:grid
       type="xygrid"
       id="grid5193" />
  </sodipodi:namedview>
  <circle
     style="opacity:0.2;fill:#000000;stroke-width:4;filter:url(#filter850)"
     cx="96"
     cy="100"
     r="80"
     id="circle832" />
  <circle
     id="circle4"
     r="80"
     cy="96"
     cx="96"
     style="fill:#e4e5a3;stroke-width:4;fill-opacity:1" />
  <path
     style="opacity:0.2;fill:#ffffff;stroke-width:4"
     d="M 96 16 A 80 80 0 0 0 16 96 A 80 80 0 0 0 16.019531 96.472656 A 80 80 0 0 1 96 17 A 80 80 0 0 1 175.97461 96.513672 A 80 80 0 0 0 176 96 A 80 80 0 0 0 96 16 z "
     id="path6" />
  <path
     id="path1115"
     style="opacity:1;fill:#714305;stroke:none;stroke-width:2.79818;stroke-linecap:round;stroke-linejoin:round;fill-opacity:1"
     d="M 96 108.40039 C 75.726253 108.40039 56.510301 110.5606 39.248047 114.41016 C 40.524471 115.35987 32.406008 113.78091 34.628906 119.38867 C 44.395628 143.90032 69.209897 160.99886 96 161 C 122.7901 160.99886 147.60437 143.90032 157.37109 119.38867 C 159.59399 113.78091 151.47553 115.35987 152.75195 114.41016 C 135.4897 110.5606 116.27375 108.40039 96 108.40039 z " />
  <ellipse
     style="opacity:1;fill:#845217;stroke:none;stroke-width:1.94321;stroke-linecap:round;stroke-linejoin:round;fill-opacity:1"
     id="path1656"
     cx="96"
     cy="117"
     rx="62"
     ry="9" />
  <path
     id="path27588"
     style="opacity:0.2;fill:#000000;fill-opacity:1;stroke-width:0.213507;filter:url(#filter27629)"
     d="m 99.314453,62.373047 c -3.961028,12.008082 -3.654058,24.357307 -2.289062,35.888672 -0.140588,-0.214668 -0.285838,-0.441461 -0.402344,-0.576172 -0.601598,-0.695596 -0.640312,-0.863295 -0.769531,-3.195313 -0.181563,-3.276766 -0.596215,-5.094524 -1.642578,-7.226562 -1.089743,-2.220426 -2.847988,-4.146099 -5.259766,-5.757813 -4.27955,-2.859884 -9.532671,-4.346595 -15.900391,-4.49414 -0.909675,-0.02108 -1.841286,-0.01395 -2.796875,0.01953 -3.474097,0.12174 -6.948999,0.510202 -7.248047,0.810547 -0.0639,0.06418 0.390719,0.366049 1.009766,0.671875 2.477455,1.223927 4.172986,3.226268 7.478516,8.826172 3.185411,5.396406 5.019408,7.8447 8.027343,9.367187 3.248046,1.644021 5.197505,2.162671 10.94336,2.214844 l 4.658203,0.142578 0.677734,0.787109 c 0.962249,1.118418 0.95221,2.461438 1.070313,5.177738 0,0 0.333645,5.89107 0.05273,8.8164 C 96.723838,115.92834 96.193359,120 96.193359,120 h 4.644531 c 0,0 -0.48564,-3.92949 -0.69531,-5.94727 -0.310926,-2.99218 0.0684,-9.02343 0.0684,-9.02343 0.0866,-1.57551 0.0117,-2.80398 0.13281,-3.72852 l 0.0879,-0.0117 c -0.0141,-0.10374 -0.027,-0.20864 -0.041,-0.3125 0.065,-0.31739 0.16422,-0.5929 0.31641,-0.82617 0.49804,-0.76341 1.61227,-0.690648 3.77539,0.24414 3.15132,1.36183 6.10936,1.99892 9.38672,1.36914 5.37851,-1.03355 9.8685,-5.138224 12.89844,-11.230467 0.84642,-1.701876 1.79296,-4.407516 2.08203,-5.955078 L 129,83.767578 l -1.56641,1.017578 c -3.25846,2.117042 -6.09651,2.770877 -10.53515,2.425782 -8.28442,-0.644095 -11.92153,0.359481 -14.51367,4.007812 -1.18354,1.665793 -2.02883,3.650654 -2.482426,5.820312 C 98.655347,85.974446 98.506202,74.401521 102.16406,63.3125 Z" />
  <path
     id="path17311"
     style="fill:#7aac12;fill-opacity:1;stroke-width:0.213507"
     d="m 73.051755,75.012253 c -0.909675,-0.02108 -1.842182,-0.01499 -2.797771,0.01849 -3.474097,0.12174 -6.948942,0.510505 -7.24799,0.81085 -0.0639,0.06418 0.390522,0.366802 1.009569,0.672628 2.477455,1.223927 4.173086,3.224797 7.478616,8.824701 3.185411,5.396406 5.019312,7.845568 8.027247,9.368055 3.248046,1.644021 5.19744,2.16223 10.943295,2.214403 l 4.658374,0.142299 0.677208,0.787343 c 0.962249,1.118414 0.953314,2.461748 1.071417,5.178048 0,0 0.333471,5.89087 0.05256,8.8162 C 96.72429,113.92791 96.193324,118 96.193324,118 h 4.645226 c 0,0 -0.48693,-3.92852 -0.6966,-5.9463 -0.310924,-2.99218 0.0681,-9.02463 0.0681,-9.02463 0.12924,-2.35076 -0.11233,-3.944853 0.49642,-4.877952 0.49804,-0.763411 1.61239,-0.691877 3.77551,0.242912 3.15132,1.361829 6.11023,1.99875 9.38759,1.36897 5.37851,-1.033552 9.8682,-5.137951 12.89814,-11.230194 0.84642,-1.701876 1.79186,-4.407976 2.08093,-5.955538 L 129,81.767357 l -1.56569,1.017089 c -3.25846,2.117042 -6.09739,2.770754 -10.53603,2.425658 -8.28442,-0.644095 -11.92195,0.360475 -14.51409,4.008806 -1.20783,1.699983 -2.06422,3.731107 -2.510658,5.953029 -0.344168,1.712956 -1.358616,4.775435 -1.380004,4.16615 -0.01976,-0.562912 -1.212107,-2.892141 -1.869654,-3.652434 -0.601598,-0.695596 -0.641924,-0.862489 -0.771143,-3.194507 -0.181563,-3.276766 -0.594537,-5.09635 -1.640901,-7.228388 -1.089743,-2.220426 -2.847969,-4.144793 -5.259747,-5.756507 -4.27955,-2.859884 -9.532608,-4.346455 -15.900328,-4.494 z"
     sodipodi:nodetypes="ssssssscccsccscsssscccsssssssss" />
  <path
     style="fill:#63900e;stroke-width:0.213507;fill-opacity:1"
     d="m 112.64497,90.083807 c -0.34271,-0.02177 -0.93251,-0.01571 -1.80599,0.01598 -3.68407,0.133684 -6.13506,1.137854 -8.33494,3.414539 -0.69553,0.719804 -1.8912,2.624181 -1.8912,3.012402 0,0.04624 0.71196,-0.619092 1.58192,-1.478775 1.28591,-1.270716 1.99308,-1.762366 3.78144,-2.628135 1.99832,-0.967416 5.12521,-1.949107 6.23499,-1.957388 0.24134,-0.0018 0.58259,-0.103922 0.75835,-0.227239 0.11393,-0.07994 0.0181,-0.129621 -0.32457,-0.151388 z"
     id="path18679" />
  <path
     style="fill:#63900e;stroke-width:0.213507;fill-opacity:1"
     d="m 81.09367,82.314924 c -0.05258,0.0013 -0.08082,0.0117 -0.08082,0.03291 0,0.04502 0.790928,0.478456 1.757618,0.963179 4.405695,2.209126 8.463877,5.76269 10.916144,9.558762 0.701715,1.086245 1.299198,1.97494 1.327889,1.97494 0.02869,0 -0.173605,-0.624873 -0.449704,-1.388822 -0.741074,-2.050506 -1.739435,-3.595101 -3.622902,-5.605118 -1.940797,-2.071196 -4.214987,-3.654475 -6.545193,-4.557001 -1.376654,-0.5332 -2.934969,-0.987306 -3.303024,-0.978851 z"
     id="path17307" />
  <path
     style="color:#000000;fill:#7aac12;-inkscape-stroke:none;fill-opacity:1"
     d="m 99.314453,60.373047 c -4.356491,13.206952 -3.55483,26.830845 -1.855469,39.320312 l 2.972656,-0.404297 C 98.754873,86.965648 98.034932,73.830198 102.16406,61.3125 Z"
     id="path26915" />
  <path
     id="path27537"
     style="opacity:0.2;fill:#000000;fill-opacity:1;stroke-width:0.0319948;filter:url(#filter27580)"
     d="m 99.857422,44.14501 c -0.02104,0 -0.144045,0.111821 -0.275391,0.248047 -0.748449,0.776137 -1.338434,1.608835 -1.748047,2.460938 -0.508151,-0.563658 -1.127901,-1.093758 -1.832031,-1.548828 -0.340572,-0.22013 -0.800502,-0.474995 -0.951172,-0.53125 -0.0213,-0.0088 -0.03727,-0.01277 -0.04492,-0.01172 -0.05542,0.0059 -0.369638,0.633812 -0.58789,1.173828 -0.17678,0.437447 -0.44152,1.414777 -0.529297,1.931641 -0.623803,-0.397178 -1.338766,-0.736553 -2.113281,-0.986329 -0.385941,-0.124481 -0.896545,-0.252236 -1.056641,-0.267578 -0.02285,-0.003 -0.03975,-0.003 -0.04687,0 -0.05201,0.02004 -0.192623,0.709007 -0.263672,1.28711 -0.06137,0.499528 -0.06182,1.636442 -0.002,2.115234 -0.94304,-0.263356 -2.156256,-0.374587 -3.267578,-0.287109 -0.390705,0.03074 -0.399035,0.03479 -0.400391,0.11914 -0.0063,0.396246 0.238603,1.61215 0.458985,2.277344 0.08889,0.268293 0.186425,0.518114 0.289062,0.757812 -0.960319,0.0041 -2.111239,0.204756 -3.126953,0.564454 -0.369436,0.130814 -0.377945,0.136919 -0.357422,0.21875 0.0965,0.384367 0.648165,1.494589 1.033203,2.080078 0.114934,0.174768 0.233523,0.338511 0.351563,0.496094 -0.632441,0.147797 -1.343965,0.386226 -1.914063,0.652343 -0.272011,0.126959 -0.962572,0.500381 -0.96875,0.523438 -0.0096,0.03591 0.393178,0.704385 0.585938,0.972656 0.478894,0.666523 0.975823,1.221629 1.505859,1.679687 -0.632386,0.310197 -1.370338,0.784878 -1.921875,1.248047 -0.229883,0.193035 -0.800781,0.73199 -0.800781,0.75586 0,0.03718 0.56078,0.57787 0.816406,0.787109 0.54316,0.444617 1.079053,0.80301 1.617188,1.089844 -0.370764,0.299386 -0.731816,0.642222 -1.078125,1.02539 -0.319017,0.352959 -0.829416,0.996901 -0.84961,1.072266 -0.004,0.0151 0.07859,0.08919 0.181641,0.164063 0.67145,0.488204 1.611896,0.984102 2.388672,1.259765 0.180223,0.06396 0.372012,0.120166 0.568359,0.171875 -0.362317,0.455571 -0.695116,0.970255 -0.988281,1.542969 -0.216795,0.423499 -0.542969,1.177835 -0.542969,1.255859 0,0.01563 0.09788,0.06567 0.216797,0.111329 0.774927,0.297785 1.811158,0.53243 2.632813,0.597656 0.224527,0.01783 0.46248,0.02189 0.703124,0.01758 -0.434732,0.949805 -0.708725,2.0806 -0.785156,3.318359 -0.01095,0.177915 -0.01696,0.33628 -0.01172,0.353516 0.01015,0.03374 0.07409,0.04076 0.480468,0.05078 0.898422,0.02223 2.02917,-0.124173 2.851563,-0.371094 0.07837,-0.02353 0.105084,-0.03512 0.162109,-0.05273 -0.103348,0.923769 -0.05573,1.93947 0.158203,2.994141 0.03547,0.174687 0.07251,0.33041 0.08203,0.345703 0.01854,0.02996 0.08145,0.01933 0.476563,-0.07617 0.873564,-0.211053 1.92774,-0.646298 2.658203,-1.097656 0.180079,-0.111281 0.274942,-0.170854 0.371094,-0.238282 0.185374,0.967218 0.517183,1.873237 1.041016,2.814454 0.121859,0.218948 0.205878,0.335413 0.238281,0.332031 0.09051,-0.0095 0.929005,-0.563602 1.345703,-0.890625 0.489585,-0.384249 0.908532,-0.785426 1.271484,-1.203125 0.428473,0.880456 0.981003,1.666136 1.726563,2.435547 0.174376,0.179948 0.285982,0.271419 0.316406,0.259765 0.08499,-0.03257 0.750495,-0.785255 1.068355,-1.208984 0.37201,-0.495937 0.67203,-0.990858 0.91407,-1.486328 0.52569,0.619535 1.18604,1.197765 1.96484,1.703125 0.25975,0.168572 0.74005,0.448839 0.89063,0.519531 0.0405,0.01914 0.0832,0.03889 0.0957,0.04492 0.0543,0.02514 0.23442,-0.309362 0.4668,-0.863281 0.34704,-0.827154 0.57263,-1.58626 0.68359,-2.306641 0.62137,0.3995 1.33803,0.735533 2.12891,0.992187 0.29453,0.0956 0.8304,0.24022 0.99414,0.269532 0.0441,0.008 0.0899,0.01692 0.10351,0.01953 0.059,0.01022 0.14937,-0.359888 0.23047,-0.955078 0.13593,-0.99728 0.14225,-1.871536 0.0254,-2.666016 0.97242,0.267088 2.05436,0.372443 3.1543,0.298828 0.43255,-0.02896 0.47356,-0.0374 0.49023,-0.09961 0.0182,-0.06786 -0.0478,-0.605694 -0.12304,-1.001953 -0.14674,-0.773256 -0.36159,-1.471518 -0.63672,-2.097656 0.98195,-0.0047 2.02092,-0.182166 3.0332,-0.527344 0.41032,-0.139924 0.44727,-0.158251 0.44727,-0.222656 0,-0.07025 -0.20176,-0.572254 -0.37696,-0.935547 -0.30612,-0.634809 -0.64995,-1.198705 -1.02539,-1.69336 0.4463,-0.103796 0.90461,-0.247057 1.38281,-0.4375 0.57872,-0.230471 1.41861,-0.66241 1.43946,-0.740234 0.0135,-0.05053 -0.39875,-0.722441 -0.6836,-1.113281 -0.41345,-0.567232 -0.91302,-1.092573 -1.42578,-1.535157 0.4997,-0.240896 0.99947,-0.545215 1.50977,-0.925781 0.49935,-0.372402 1.19922,-1.007321 1.19922,-1.08789 0,-0.05231 -0.57292,-0.592687 -0.94922,-0.896485 -0.41333,-0.333657 -0.87019,-0.632261 -1.33203,-0.888672 0.14521,-0.119065 0.29144,-0.244483 0.4375,-0.378906 0.28613,-0.263315 0.79223,-0.812763 1.06836,-1.160156 0.37757,-0.475 0.41643,-0.547183 0.33007,-0.601563 -0.0275,-0.01669 -0.16404,-0.108164 -0.30273,-0.203125 -0.50286,-0.344201 -1.08517,-0.665085 -1.70312,-0.939453 -0.20745,-0.0921 -0.66098,-0.234593 -1.10547,-0.357422 -0.005,-0.0013 -0.009,-0.0026 -0.0137,-0.0039 0.20622,-0.257348 0.40505,-0.532967 0.59961,-0.839844 0.20823,-0.328399 0.55562,-0.991413 0.73243,-1.398437 0.24177,-0.556538 0.26156,-0.63389 0.16406,-0.664063 -0.0309,-0.009 -0.18521,-0.06331 -0.34375,-0.11914 -0.57481,-0.202324 -1.22272,-0.363669 -1.89063,-0.46875 -0.22421,-0.03527 -0.69706,-0.05499 -1.1582,-0.05859 -0.11701,-0.001 -0.21899,0.0026 -0.33008,0.0039 0.0675,-0.156073 0.13301,-0.319005 0.19531,-0.490234 0.29984,-0.823839 0.51434,-1.922878 0.54297,-2.791016 0.008,-0.218509 0.0167,-0.294523 -0.0742,-0.322265 -0.0542,-0.01762 -0.14489,-0.01556 -0.29296,-0.01758 -0.61094,-0.0078 -0.82987,2.97e-4 -1.3418,0.05469 -0.62555,0.06654 -1.20635,0.192423 -1.74024,0.359375 0.006,-0.05685 0.0144,-0.109653 0.0195,-0.167969 0.0764,-0.873373 -2.3e-4,-1.989971 -0.19727,-2.835937 -0.0493,-0.213007 -0.0613,-0.289682 -0.15625,-0.292969 -0.0569,-0.003 -0.14357,0.02222 -0.28711,0.05859 -0.59215,0.150566 -0.80085,0.215312 -1.28125,0.40039 -0.63091,0.24309 -1.19394,0.538202 -1.69141,0.865235 -0.12786,-0.662523 -0.34089,-1.365487 -0.62695,-2.017578 -0.19924,-0.454124 -0.57289,-1.145669 -0.62695,-1.160157 -0.0203,-0.0054 -0.1699,0.06843 -0.33203,0.166016 -0.92029,0.553851 -1.70128,1.20416 -2.31641,1.917969 -0.29198,-0.590853 -0.67078,-1.193962 -1.10352,-1.734375 -0.30998,-0.387082 -0.852221,-0.960938 -0.908198,-0.960938 z" />
  <path
     id="path19525"
     style="fill:#ff8c01;fill-opacity:1;stroke-width:0.0319948"
     d="m 104.51754,42.754958 c -0.0203,-0.0054 -0.16958,0.06997 -0.33171,0.167556 -1.49025,0.896863 -2.61866,2.042346 -3.2613,3.310471 -0.181,0.357258 -0.21027,0.439767 -0.3773,1.066639 -0.18541,0.691964 -0.25239,1.070854 -0.30566,1.704883 -0.036,0.427906 -0.0365,0.46491 -0.0147,1.037568 0.0513,1.348638 0.45402,2.358936 1.11945,2.807878 0.20145,0.13594 0.56066,0.24453 0.78481,0.237257 1.01121,-0.03269 2.11125,-1.042874 2.91715,-2.678965 0.48715,-0.989005 0.79474,-2.060487 0.85109,-2.964965 0.0605,-0.970589 -0.23117,-2.33488 -0.75411,-3.526958 -0.19924,-0.454124 -0.57369,-1.146893 -0.62775,-1.161381 z m 8.22307,4.75462 c -0.0542,-0.01762 -0.14489,-0.01569 -0.29296,-0.01771 -0.61094,-0.0078 -0.82932,0.0013 -1.34125,0.05569 -1.13001,0.120195 -2.13493,0.411318 -2.9264,0.847758 -0.68767,0.37919 -0.99688,0.631831 -1.7749,1.450004 -0.35512,0.373484 -0.87428,1.08014 -1.13503,1.544956 -0.6508,1.160312 -0.85071,2.118785 -0.59662,2.860611 0.12258,0.357879 0.41025,0.675639 0.74699,0.825107 0.42072,0.1867 1.01377,0.21707 1.6402,0.08378 0.87229,-0.185577 1.81877,-0.645697 2.77772,-1.350363 1.2721,-0.934806 1.92446,-1.789253 2.4328,-3.186391 0.29984,-0.823839 0.5152,-1.92276 0.54383,-2.790898 0.008,-0.218509 0.0165,-0.294821 -0.0744,-0.322563 z M 95.049822,42.773486 c -0.0213,-0.0088 -0.03649,-0.01288 -0.04414,-0.01183 -0.05542,0.0059 -0.370296,0.633657 -0.588548,1.173673 -0.191203,0.473139 -0.493816,1.601735 -0.554226,2.0684 -0.162034,1.245236 -0.04652,2.170006 0.414789,3.320735 0.705157,1.759009 1.712955,3.039174 2.75816,3.503675 0.498934,0.22177 1.039774,0.200691 1.473164,-0.05738 0.548143,-0.326412 0.949948,-1.194204 1.049679,-2.26713 0.106151,-1.141681 -0.07682,-2.506219 -0.494024,-3.685135 -0.445091,-1.257753 -1.571378,-2.550185 -3.061776,-3.513412 -0.340572,-0.220129 -0.8019,-0.475851 -0.95257,-0.532106 z m -4.609016,5.250173 c -0.947603,-0.270091 -2.177569,-0.383021 -3.301918,-0.294518 -0.390705,0.03074 -0.399609,0.03335 -0.400965,0.117699 -0.0063,0.396246 0.239036,1.612595 0.459418,2.277789 0.431898,1.303623 1.01924,2.258543 1.828747,2.973158 0.726321,0.641178 1.554371,1.164123 2.497193,1.577038 0.368728,0.161466 1.298474,0.409648 1.654019,0.440087 1.499542,0.133785 2.336825,-0.651827 2.125744,-1.99458 -0.151356,-0.962686 -0.852001,-2.171621 -1.85774,-3.205555 -0.912516,-0.938098 -1.577294,-1.387042 -2.616452,-1.767091 -0.122718,-0.04481 -0.252327,-0.0867 -0.387691,-0.125353 z m 23.876074,6.637642 c -0.44436,-0.123207 -0.88114,-0.225727 -1.05675,-0.239891 -0.69351,-0.05435 -1.09533,-0.03517 -1.72901,0.08241 -1.03827,0.192677 -1.98902,0.532934 -2.80904,1.005338 -0.57235,0.32971 -0.95073,0.625813 -1.2614,0.987169 -0.29438,0.342391 -0.40021,0.544493 -0.48575,0.927518 -0.06,0.268158 -0.0642,0.347104 -0.0299,0.539962 0.0756,0.424243 0.33322,0.793033 0.76539,1.095769 0.27057,0.189513 0.48278,0.296164 0.85884,0.431538 0.59769,0.215237 1.50479,0.370212 2.22808,0.380724 0.26544,0.0039 0.85398,-0.01362 0.94349,-0.02799 0.0382,-0.0063 0.21355,-0.02557 0.38985,-0.04322 1.44064,-0.144038 2.64555,-0.724142 3.89784,-1.876675 0.28613,-0.263315 0.79264,-0.813458 1.06877,-1.160851 0.37757,-0.475 0.41639,-0.545706 0.33003,-0.600086 -0.0275,-0.01669 -0.16314,-0.108966 -0.30183,-0.203927 -0.50286,-0.344201 -1.08638,-0.666165 -1.70433,-0.940533 -0.20745,-0.0921 -0.65981,-0.23448 -1.1043,-0.357309 z m -1.63236,6.115242 c -1.59964,-0.425515 -3.08445,-0.448634 -4.26036,-0.06372 -0.3829,0.125329 -0.91773,0.438017 -1.09517,0.640237 -0.48461,0.552265 -0.53404,1.17502 -0.14902,1.877742 0.34673,0.632797 1.00597,1.239797 1.90634,1.755228 0.52049,0.297987 0.83635,0.443614 1.54939,0.714318 0.35213,0.133674 1.04716,0.321149 1.33502,0.360824 1.23375,0.166945 2.46619,-0.01548 3.86314,-0.571808 0.57872,-0.230471 1.41888,-0.662507 1.43973,-0.740331 0.0135,-0.05053 -0.39831,-0.720515 -0.68316,-1.111355 -0.68608,-0.941259 -1.60747,-1.803085 -2.43697,-2.279547 -0.53013,-0.304469 -0.73245,-0.384535 -1.46911,-0.580939 z M 88.490912,54.296991 c -0.69926,-0.190472 -0.808484,-0.211456 -1.148194,-0.23172 -0.401703,-0.0235 -1.095419,0.0143 -1.499731,0.08161 -0.720695,0.120014 -1.658357,0.416016 -2.370018,0.748214 -0.272011,0.126959 -0.962798,0.499464 -0.968976,0.522521 -0.0096,0.03591 0.392338,0.703768 0.585098,0.972039 0.96464,1.342582 2.005737,2.238787 3.23325,2.783135 0.434088,0.192562 1.340745,0.411958 2.03959,0.493594 1.573245,0.183921 2.826618,0.0097 3.668399,-0.509972 1.23352,-0.761504 1.099484,-2.05943 -0.337977,-3.272878 -0.337148,-0.284592 -0.586789,-0.458403 -1.002419,-0.697896 -0.7349,-0.423465 -1.2456,-0.629826 -2.199002,-0.888724 z m 2.443991,6.397235 c -0.09167,-0.02456 -0.18914,-0.04757 -0.292165,-0.07311 -0.57911,-0.135771 -0.760544,-0.162086 -1.292736,-0.187295 -1.077961,-0.05113 -2.235344,0.08295 -2.994298,0.346869 -1.096128,0.381167 -2.165769,1.132167 -3.126451,2.1951 -0.319017,0.352958 -0.829235,0.99722 -0.849429,1.072585 -0.004,0.0151 0.07694,0.08878 0.17999,0.163656 0.67145,0.488204 1.612787,0.984714 2.389563,1.260377 0.626484,0.222332 1.37655,0.376093 2.068288,0.423467 0.807152,0.05547 2.329939,-0.274959 3.386799,-0.734914 0.421723,-0.183555 1.12888,-0.593649 1.421901,-0.824617 0.291462,-0.229746 0.662519,-0.625416 0.82899,-0.884058 0.159789,-0.248263 0.289878,-0.698135 0.27945,-0.966269 -0.01598,-0.409003 -0.215882,-0.776116 -0.602739,-1.107153 -0.380584,-0.325683 -0.7553,-0.513162 -1.397047,-0.684806 z M 107.294,65.220762 c -0.25824,-0.06609 -0.48441,-0.112789 -0.60952,-0.119022 -0.90365,-0.04476 -1.46297,0.139466 -1.83904,0.605592 -0.10755,0.133234 -0.13188,0.19196 -0.22251,0.535983 -0.0896,0.345815 -0.0991,0.413349 -0.077,0.641139 0.036,0.369736 0.1103,0.66846 0.25944,1.042659 0.45612,1.144295 1.5449,2.488344 2.72639,3.365531 0.36534,0.271252 0.88096,0.549996 1.31544,0.711151 1.12509,0.417299 2.44683,0.592132 3.79478,0.501919 0.43255,-0.02896 0.47422,-0.03742 0.49089,-0.09963 0.0182,-0.06786 -0.0478,-0.60531 -0.12305,-1.001569 -0.36231,-1.909317 -1.12587,-3.389129 -2.24212,-4.345724 -0.66835,-0.572756 -1.42115,-1.053139 -2.23856,-1.428476 -0.28631,-0.131389 -0.805,-0.298593 -1.23519,-0.409504 z m -4.7448,2.320473 c -0.75915,-0.203414 -1.37724,0.09398 -1.81043,0.869865 -0.0932,0.166814 -0.15117,0.328879 -0.25189,0.70322 -0.18496,0.69026 -0.22876,1.17482 -0.18016,2.024672 0.053,0.926741 0.32487,2.112969 0.65238,2.846324 0.52233,1.16963 1.54265,2.280041 2.91071,3.167766 0.25975,0.168572 0.73843,0.44763 0.88901,0.518322 0.0405,0.01914 0.0839,0.03919 0.0964,0.04522 0.0543,0.02514 0.23556,-0.308821 0.46794,-0.86274 0.71143,-1.695619 0.91883,-3.112672 0.65487,-4.473462 -0.0964,-0.496836 -0.16735,-0.723608 -0.43521,-1.390526 -0.715,-1.780247 -1.91238,-3.159556 -2.99361,-3.448575 z m -8.650682,-2.313801 c -0.181655,-0.05178 -0.377884,-0.08456 -0.549681,-0.08732 -1.251874,-0.02107 -2.780868,0.672394 -4.222404,1.915073 -0.42403,0.365509 -0.563984,0.509003 -0.843443,0.864634 -0.875463,1.114224 -1.41576,2.727968 -1.529379,4.56797 -0.01095,0.177915 -0.01576,0.337567 -0.01052,0.354803 0.01015,0.03374 0.07239,0.04035 0.478765,0.05037 0.898422,0.02223 2.029528,-0.125482 2.851921,-0.372403 0.44185,-0.132681 0.468935,-0.142852 0.932491,-0.350888 0.668699,-0.300137 1.188992,-0.659978 1.744633,-1.206729 0.769951,-0.757694 1.421406,-1.652576 1.838146,-2.524998 0.195609,-0.40945 0.408641,-1.232741 0.410601,-1.586206 0.0035,-0.649055 -0.21256,-1.130782 -0.638693,-1.424039 -0.113652,-0.07818 -0.280762,-0.148579 -0.462423,-0.200257 z m 4.041528,2.01048 c -0.903673,-0.21226 -2.022309,0.559205 -2.913436,2.044231 -0.273699,0.456055 -0.450903,0.836408 -0.718731,1.542475 -0.472837,1.246519 -0.571386,2.258667 -0.34155,3.507451 0.182604,0.991995 0.522305,1.916135 1.057962,2.878598 0.12186,0.218949 0.205867,0.336405 0.23827,0.333023 0.09051,-0.0095 0.92746,-0.564624 1.344158,-0.891647 1.047126,-0.821832 1.801981,-1.71703 2.27582,-2.699041 0.158112,-0.327736 0.491633,-1.54193 0.562754,-2.049609 0.161232,-1.148366 0.109863,-2.286771 -0.138262,-3.064648 -0.251478,-0.788238 -0.593103,-1.257586 -1.093988,-1.503054 -0.08841,-0.0433 -0.179595,-0.07583 -0.273069,-0.09786 z"
     sodipodi:nodetypes="sssssssssssssssssssssssssssssssssssssssssssssssssssssssssscsssssscsssssssssscssssssssssssssssssssssssssssssssssssssssssscsssscssssssssssssssssssssssssssssss" />
  <path
     id="path19155"
     style="fill:#ffba1a;stroke-width:0.0319948;fill-opacity:1"
     d="m 99.858363,42.145222 c -0.02104,0 -0.145696,0.111474 -0.277042,0.2477 -1.207344,1.252008 -2.00083,2.650513 -2.293354,4.041754 -0.08237,0.391932 -0.08929,0.479206 -0.08838,1.127947 0,0.716374 0.03337,1.099689 0.146006,1.725903 0.07596,0.422647 0.08508,0.458513 0.254294,1.006032 0.398567,1.289417 1.049092,2.161046 1.808045,2.422465 0.229763,0.07917 0.604838,0.09109 0.819468,0.02605 0.9683,-0.293296 1.7694,-1.553772 2.12439,-3.342697 0.21458,-1.08139 0.23436,-2.19597 0.0547,-3.084214 -0.19275,-0.953181 -0.82761,-2.195489 -1.64126,-3.211602 -0.30999,-0.387082 -0.850975,-0.959333 -0.906952,-0.959333 z m 9.173467,2.464322 c -0.0569,-0.003 -0.14402,0.02235 -0.28756,0.05872 -0.59215,0.150566 -0.80074,0.215853 -1.28114,0.400931 -1.0604,0.408568 -1.95573,0.949864 -2.60727,1.576279 -0.5661,0.544253 -0.79938,0.868313 -1.33913,1.859974 -0.24636,0.452671 -0.56493,1.269615 -0.69649,1.78608 -0.32832,1.289216 -0.27334,2.266768 0.16409,2.917554 0.21103,0.313959 0.57114,0.546437 0.93509,0.603657 0.4547,0.07145 1.03541,-0.05271 1.60599,-0.343591 0.79454,-0.40502 1.58968,-1.094428 2.33357,-2.023277 0.98681,-1.232197 1.3958,-2.226374 1.52521,-3.707473 0.0764,-0.873373 0,-1.990588 -0.19704,-2.836554 -0.0493,-0.213007 -0.0604,-0.289037 -0.15532,-0.292324 z m -18.313784,0.004 c -0.02285,-0.003 -0.03858,-0.003 -0.0457,0 -0.05201,0.02004 -0.193676,0.707906 -0.264725,1.286009 -0.06223,0.506504 -0.06243,1.674966 0,2.141365 0.165778,1.244743 0.516704,2.108105 1.260125,3.100228 1.136395,1.516564 2.441184,2.492272 3.570996,2.670426 0.539332,0.08508 1.056287,-0.07526 1.408116,-0.436707 0.444984,-0.45716 0.608497,-1.399378 0.427136,-2.461557 -0.192955,-1.130253 -0.722857,-2.40094 -1.430974,-3.431704 -0.755455,-1.099698 -2.177871,-2.056587 -3.866786,-2.60125 -0.385941,-0.124481 -0.897735,-0.252089 -1.057831,-0.267431 z m -3.093123,6.264179 c -0.985218,-0.01563 -2.202503,0.193627 -3.265634,0.570117 -0.369436,0.130814 -0.377363,0.135635 -0.35684,0.217466 0.0965,0.384367 0.648261,1.49578 1.033299,2.081269 0.754584,1.147419 1.569064,1.917786 2.535944,2.398535 0.867521,0.431345 1.802704,0.722156 2.82027,0.876981 0.397955,0.06053 1.360255,0.05962 1.711563,-0.003 1.483073,-0.258884 2.088494,-1.234432 1.537076,-2.4768 -0.39536,-0.890709 -1.385027,-1.87711 -2.624098,-2.61551 -1.12422,-0.669956 -1.882542,-0.931545 -2.984655,-1.029691 -0.130134,-0.01152 -0.266169,-0.01844 -0.406925,-0.02074 z m 24.780467,0.231887 c -0.46111,-0.004 -0.90954,0.01002 -1.08283,0.04179 -0.68395,0.126996 -1.06711,0.249523 -1.64877,0.527106 -0.95302,0.454835 -1.78331,1.029571 -2.45312,1.698115 -0.46751,0.466609 -0.75636,0.850555 -0.96292,1.280006 -0.19573,0.406915 -0.24565,0.629522 -0.22914,1.021635 0.0115,0.274536 0.0278,0.351899 0.11091,0.529291 0.18287,0.390209 0.52712,0.679767 1.02291,0.860336 0.3104,0.113027 0.54299,0.161118 0.94127,0.194548 0.63303,0.05321 1.54933,-0.03187 2.2507,-0.208918 0.2574,-0.06494 0.82136,-0.234182 0.9041,-0.27123 0.0353,-0.01593 0.19965,-0.07997 0.36538,-0.142649 1.35427,-0.511995 2.36798,-1.384186 3.2793,-2.821563 0.20823,-0.328399 0.55509,-0.99089 0.7319,-1.397914 0.24177,-0.556538 0.26097,-0.634883 0.16347,-0.665056 -0.0309,-0.009 -0.18578,-0.06303 -0.34432,-0.11886 -0.57481,-0.202324 -1.22178,-0.36229 -1.88969,-0.467371 -0.22421,-0.03527 -0.69801,-0.05572 -1.15915,-0.05932 z m 0.006,6.329356 c -1.65526,0.003 -3.09546,0.364966 -4.13168,1.041115 -0.33742,0.220162 -0.77309,0.660617 -0.89215,0.901873 -0.32516,0.658873 -0.21173,1.273203 0.34205,1.852329 0.4987,0.521494 1.29258,0.937187 2.29567,1.202023 0.57988,0.153121 0.92267,0.212035 1.68148,0.288966 0.37473,0.03798 1.0946,0.03918 1.38292,0.003 1.23492,-0.158062 2.37815,-0.653252 3.58351,-1.552178 0.49935,-0.372402 1.19906,-1.007165 1.19906,-1.087734 0,-0.05231 -0.57122,-0.592874 -0.94752,-0.896672 -0.90632,-0.731616 -2.01937,-1.325603 -2.94393,-1.571138 -0.59086,-0.156889 -0.80701,-0.181862 -1.56941,-0.18091 z m -25.046262,0.003 c -0.724731,-0.003 -0.835664,0.005 -1.169044,0.07335 -0.394097,0.08127 -1.054393,0.297324 -1.427506,0.46699 -0.665076,0.302455 -1.494177,0.831055 -2.095609,1.336125 -0.229883,0.193035 -0.800721,0.731636 -0.800721,0.755506 0,0.03718 0.561118,0.578244 0.816744,0.787483 1.279256,1.047168 2.516834,1.64338 3.843408,1.851476 0.469135,0.07365 1.401682,0.05091 2.097844,-0.05111 1.56724,-0.229532 2.732816,-0.722206 3.411411,-1.442047 0.994397,-1.054814 0.529,-2.273823 -1.173544,-3.073882 -0.399318,-0.187634 -0.685438,-0.290911 -1.148891,-0.414671 -0.81946,-0.218829 -1.366168,-0.28598 -2.354092,-0.289297 z m 4.016441,5.546703 c -0.0949,0 -0.195009,0.003 -0.301132,0.005 -0.594518,0.01874 -0.77658,0.04028 -1.297163,0.153672 -1.054463,0.229612 -2.137707,0.658673 -2.802493,1.110031 -0.960125,0.651878 -1.798946,1.654132 -2.451786,2.929489 -0.216795,0.423499 -0.54288,1.177862 -0.54288,1.255886 0,0.01563 0.0973,0.06584 0.216214,0.111494 0.774927,0.297785 1.812695,0.533741 2.63435,0.598967 0.662681,0.05261 1.426985,0.007 2.107414,-0.126275 0.794006,-0.155326 2.179384,-0.868623 3.081187,-1.58644 0.359846,-0.286451 0.936767,-0.865597 1.160025,-1.164534 0.222067,-0.297354 0.478074,-0.775578 0.571931,-1.068493 0.09009,-0.28116 0.09931,-0.749373 0.01984,-1.005671 -0.121295,-0.390931 -0.4094,-0.693797 -0.868754,-0.913428 -0.451909,-0.216083 -0.86238,-0.30019 -1.526685,-0.299889 z M 108.3548,63.12692 c -0.26655,0.003 -0.4971,0.01643 -0.61956,0.04279 -0.88444,0.190651 -1.37702,0.513358 -1.61964,1.060937 -0.0694,0.156529 -0.0777,0.219551 -0.0762,0.575308 0.003,0.35721 0.0113,0.424902 0.0916,0.639212 0.13043,0.34783 0.27955,0.617135 0.52046,0.939983 0.73674,0.987252 2.13629,2.003706 3.50455,2.545213 0.4231,0.167451 0.99329,0.303246 1.45468,0.346457 1.19476,0.111885 2.51671,-0.06133 3.79538,-0.497344 0.41032,-0.139924 0.44838,-0.158884 0.44838,-0.223289 0,-0.07025 -0.20288,-0.572301 -0.37808,-0.935594 -0.84414,-1.750484 -1.96468,-2.98225 -3.29048,-3.617343 -0.79382,-0.380258 -1.6453,-0.649433 -2.532,-0.80042 -0.31056,-0.05281 -0.85485,-0.08007 -1.29909,-0.07586 z m -3.98255,3.469452 c -0.78593,0 -1.30598,0.447229 -1.5236,1.308798 -0.0468,0.185238 -0.0609,0.356799 -0.0613,0.744452 0,0.71461 0.0831,1.193997 0.35,2.002313 0.29103,0.881451 0.86068,1.956888 1.36684,2.580487 0.80725,0.994588 2.0802,1.803085 3.6314,2.306482 0.29453,0.0956 0.82913,0.241256 0.99287,0.270568 0.0441,0.008 0.0912,0.01613 0.10479,0.01874 0.059,0.01022 0.1476,-0.359264 0.2287,-0.954454 0.24833,-1.821974 0.0819,-3.24442 -0.52526,-4.490526 -0.22171,-0.454955 -0.34894,-0.655636 -0.78028,-1.230503 -1.1514,-1.534531 -2.66497,-2.556937 -3.78416,-2.556265 z m -8.954769,0.004 c -0.188867,-0.003 -0.386892,0.01613 -0.553552,0.05792 -1.21467,0.303658 -2.512083,1.369224 -3.582871,2.942657 -0.314981,0.462802 -0.413027,0.637629 -0.59092,1.053472 -0.55725,1.302844 -0.661469,3.00144 -0.294989,4.808152 0.03547,0.174687 0.07215,0.330143 0.08167,0.345436 0.01854,0.02996 0.08037,0.02024 0.475488,-0.07526 0.873564,-0.211053 1.927897,-0.646487 2.65836,-1.097845 0.392454,-0.242519 0.415983,-0.259354 0.8099,-0.580278 0.568233,-0.462982 0.977663,-0.945224 1.372862,-1.617155 0.54761,-0.931154 0.945254,-1.964153 1.121995,-2.914708 0.08297,-0.446126 0.07566,-1.296501 -0.01393,-1.638429 -0.164595,-0.627848 -0.497985,-1.037237 -0.985499,-1.21021 -0.130013,-0.0461 -0.30965,-0.07085 -0.498496,-0.07375 z m 4.424167,0.89595 c -0.927818,0.02886 -1.808667,1.063563 -2.285077,2.728628 -0.146337,0.511354 -0.21906,0.924611 -0.295019,1.675938 -0.134102,1.326424 0.03267,2.32959 0.577883,3.476337 0.433129,0.910932 1.00044,1.715662 1.766949,2.506692 0.174376,0.179948 0.28592,0.27166 0.316344,0.260006 0.08498,-0.03257 0.749722,-0.785429 1.067582,-1.209158 0.79874,-1.064845 1.29618,-2.124911 1.49971,-3.196099 0.0679,-0.357491 0.0758,-1.616634 0.0131,-2.125422 -0.14148,-1.150966 -0.48574,-2.237286 -0.92674,-2.924438 -0.44692,-0.696292 -0.89838,-1.061228 -1.44573,-1.168694 -0.0966,-0.01894 -0.193101,-0.02676 -0.289092,-0.02385 z"
     sodipodi:nodetypes="sssssssssssssssssssssssssssssssssssssssssssssssssssssssssscsssssscsssssssssscssssssssssssssssssssssssssssssssssssssssssscsssscssssssssssssssssssssssssssssss" />
  <path
     style="fill:#fdb818"
     d="m -1449.5187,2629.6074 c -2.7491,-1.1813 -4.328,-1.1813 -2.5,0 0.825,0.5332 2.175,0.9446 3,0.9144 0.989,-0.036 0.8187,-0.3477 -0.5,-0.9144 z"
     id="path19053" />
  <path
     style="fill:#fdb818"
     d="m -1463.4113,2628.8815 c -0.6668,-0.6668 -6.4889,0.7251 -7.088,1.6945 -0.2769,0.4481 1.3091,0.3546 3.5244,-0.2077 2.2154,-0.5623 3.819,-1.2314 3.5636,-1.4868 z"
     id="path19051" />
  <path
     style="fill:#fdb818"
     d="m -1443.0187,2633.1426 c 0,-0.2557 -1.0125,-0.9555 -2.25,-1.5552 -2.1606,-1.047 -2.1729,-1.0286 -0.3089,0.4648 2.0403,1.6346 2.5589,1.8556 2.5589,1.0904 z"
     id="path19049" />
  <path
     style="fill:#fdb818"
     d="m -1475.4558,2635.3574 2.9371,-3.25 -3.25,2.9371 c -3.0295,2.7378 -3.7097,3.5629 -2.9371,3.5629 0.1721,0 1.6346,-1.4625 3.25,-3.25 z"
     id="path19047" />
  <path
     style="fill:#fdb818"
     d="m -1480.9181,2642.1074 c 0.6865,-1.3284 0.347,-1.1605 -1.0113,0.5 -1.1246,1.375 -2.048,2.95 -2.0518,3.5 -0.01,1.0701 1.3774,-0.7382 3.0631,-4 z"
     id="path19045" />
  <circle
     style="opacity:1;fill:#512f2f;fill-opacity:1;stroke:none;stroke-width:2.07752;stroke-linecap:round;stroke-linejoin:round"
     id="path26094"
     cx="99.922707"
     cy="60.236317"
     r="9" />
</svg>
