<svg width="48" height="48" version="1" xmlns="http://www.w3.org/2000/svg">
 <circle cx="24" cy="24" r="20" fill="#ff5722" style="fill:#f58227"/>
 <path d="m16.777344 11.999747a2.7126291 2.8707843 0 0 0-2.777344 2.869141v20.263671a2.7126291 2.8707843 0 0 0 4.066406 2.484376l8.294922-5.0625 8.289063-5.06836a2.7126291 2.8707843 0 0 0 0-4.964844l-4.650391-2.84375v-4.679687l-5.765625 1.15625-6.167969-3.763672a2.7126291 2.8707843 0 0 0-1.289062-0.390625zm7.447265 4.15625s5.775391 3.521816 5.775391 3.535156v6.306641c0 1.6568-1.3432 3-3 3s-3-1.3432-3-3 1.3432-3 3-3c0.36 0 0.68 0.06945 1 0.189453v-4.1875l-6 1.201172v7.798828c0 1.6568-1.3432 3-3 3s-3-1.3432-3-3 1.3432-3 3-3c0.36 0 0.68 0.06945 1 0.189453v-8.1875z" style="fill:#000000;opacity:.2"/>
 <path d="m16.777344 11a2.7126291 2.8707843 0 0 0-2.777344 2.869141v10.132812 10.130859a2.7126291 2.8707843 0 0 0 4.066406 2.484376l8.294922-5.0625 8.289063-5.06836a2.7126291 2.8707843 0 0 0 0-4.964844l-4.650391-2.84375v-4.679687l-5.765625 1.15625-6.167969-3.763672a2.7126291 2.8707843 0 0 0-1.289062-0.390625zm7.447265 4.15625s5.775391 3.521816 5.775391 3.535156v6.306641c0 1.6568-1.3432 3-3 3s-3-1.3432-3-3 1.3432-3 3-3c0.36 0 0.68 0.069453 1 0.189453v-4.1875l-6 1.201172v7.798828c0 1.6568-1.3432 3-3 3s-3-1.3432-3-3 1.3432-3 3-3c0.36 0 0.68 0.069453 1 0.189453v-8.1875l4.224609-0.845703z" style="fill:#ffffff"/>
 <path d="m24 4a20 20 0 0 0-20 20 20 20 0 0 0 0.0215 0.582 20 20 0 0 1 19.978-19.582 20 20 0 0 1 19.979 19.418 20 20 0 0 0 0.021-0.418 20 20 0 0 0-20-20z" fill="#fff" opacity=".2" style="opacity:.2"/>
 <path d="m43.979 24.418a20 20 0 0 1-19.979 19.582 20 20 0 0 1-19.978-19.418 20 20 0 0 0-0.022 0.418 20 20 0 0 0 20 20 20 20 0 0 0 20-20 20 20 0 0 0-0.021-0.582z" opacity=".2"/>
</svg>
