<?xml version="1.0" encoding="UTF-8" standalone="no"?>
<svg
   width="192"
   height="192"
   version="1"
   id="svg12"
   sodipodi:docname="games_plants_vs_zombies.svg"
   inkscape:version="1.1.1 (1:1.1+202109281949+c3084ef5ed)"
   xmlns:inkscape="http://www.inkscape.org/namespaces/inkscape"
   xmlns:sodipodi="http://sodipodi.sourceforge.net/DTD/sodipodi-0.dtd"
   xmlns="http://www.w3.org/2000/svg"
   xmlns:svg="http://www.w3.org/2000/svg"
   xmlns:rdf="http://www.w3.org/1999/02/22-rdf-syntax-ns#"
   xmlns:cc="http://creativecommons.org/ns#"
   xmlns:dc="http://purl.org/dc/elements/1.1/">
  <metadata
     id="metadata18">
    <rdf:RDF>
      <cc:Work
         rdf:about="">
        <dc:format>image/svg+xml</dc:format>
        <dc:type
           rdf:resource="http://purl.org/dc/dcmitype/StillImage" />
      </cc:Work>
    </rdf:RDF>
  </metadata>
  <defs
     id="defs16">
    <mask
       id="d"
       fill="#ffffff">
      <path
         id="use17"
         d="m 0.297,0.281 h 40.595 v 18.35 H 0.297 Z" />
    </mask>
    <filter
       inkscape:collect="always"
       style="color-interpolation-filters:sRGB"
       id="filter94161"
       x="-0.049435913"
       y="-0.04664515"
       width="1.0988718"
       height="1.0932903">
      <feGaussianBlur
         inkscape:collect="always"
         stdDeviation="2.6518444"
         id="feGaussianBlur94163" />
    </filter>
    <filter
       inkscape:collect="always"
       style="color-interpolation-filters:sRGB"
       id="filter94203"
       x="-0.048000001"
       y="-0.048000001"
       width="1.096"
       height="1.096">
      <feGaussianBlur
         inkscape:collect="always"
         stdDeviation="3.2"
         id="feGaussianBlur94205" />
    </filter>
  </defs>
  <sodipodi:namedview
     pagecolor="#ffffff"
     bordercolor="#666666"
     borderopacity="1"
     objecttolerance="10"
     gridtolerance="10"
     guidetolerance="10"
     inkscape:pageopacity="0"
     inkscape:pageshadow="2"
     inkscape:window-width="1920"
     inkscape:window-height="1019"
     id="namedview14"
     showgrid="false"
     inkscape:zoom="1"
     inkscape:cx="89.5"
     inkscape:cy="60"
     inkscape:window-x="0"
     inkscape:window-y="34"
     inkscape:window-maximized="1"
     inkscape:current-layer="svg12"
     showguides="true"
     inkscape:document-rotation="0"
     inkscape:pagecheckerboard="0"
     inkscape:snap-bbox="true"
     inkscape:snap-bbox-midpoints="true"
     inkscape:snap-global="false">
    <inkscape:grid
       type="xygrid"
       id="grid852" />
  </sodipodi:namedview>
  <path
     id="path94165"
     style="opacity:0.2;fill:#000000;stroke-width:4;filter:url(#filter94203)"
     d="m 46,20 h 100 c 16.62,0 30,13.38 30,30 v 100 c 0,3.53858 -0.60653,6.93029 -1.72173,10.07726 -4.12264,11.63371 -24.8434,-18.08774 -37.59033,-15.1485 L 94.087044,154.75183 84.757009,180 H 46 C 29.38,180 16,166.62 16,150 V 50 C 16,33.38 29.38,20 46,20 Z"
     sodipodi:nodetypes="ssssssccssss" />
  <path
     id="rect4"
     style="fill:#ffab01;stroke-width:4"
     d="m 46,16 h 100 c 16.62,0 30,13.38 30,30 v 100 c 0,3.53858 -0.60653,6.93029 -1.72173,10.07726 -4.12264,11.63371 -24.8434,-18.08774 -37.59033,-15.1485 L 94.087044,150.75183 84.757009,176 H 46 C 29.38,176 16,162.62 16,146 V 46 C 16,29.38 29.38,16 46,16 Z"
     sodipodi:nodetypes="ssssssccssss" />
  <path
     id="path94044"
     style="color:#000000;opacity:0.2;fill:#000000;fill-opacity:1;stroke-linecap:round;stroke-linejoin:round;-inkscape-stroke:none;filter:url(#filter94161)"
     d="m 60.570312,53.44565 c -0.0381,0.0035 -0.171644,0.103124 -0.40625,0.28711 -0.318839,0.25006 -0.580078,0.610521 -0.580078,0.800781 0,0.19029 0.04225,0.282931 0.09375,0.207031 0.05156,-0.07592 0.312788,-0.436381 0.580078,-0.800781 0.252884,-0.344722 0.361483,-0.498689 0.3125,-0.494141 z m 29.197266,0.05469 c -4.99787,0.06528 -8.872876,0.512628 -13.121094,1.455078 -4.24224,0.94112 -4.474609,0.958363 -4.474609,0.345703 0,-0.2538 -0.219208,-0.545927 -0.486328,-0.648437 -0.37528,-0.14402 -0.44541,0.01834 -0.3125,0.710937 0.16359,0.85251 0.04599,0.943051 -2.384766,1.869141 -1.40556,0.53551 -3.653395,1.691839 -4.996093,2.568359 -1.342692,0.87652 -2.508544,1.59375 -2.589844,1.59375 -0.49792,0 -1.294891,-2.0021 -1.494141,-3.75 l -0.234375,-2.048828 -0.04492,1.835938 c -0.03086,1.24928 0.165562,2.24683 0.613282,3.125 0.361629,0.70933 0.577921,1.36739 0.482421,1.46289 -0.09554,0.09553 -0.670486,-0.09401 -1.279297,-0.421875 -2.178659,-1.17329 -2.591089,-3.512385 -1.037109,-5.884765 0.71562,-1.09251 0.77796,-1.294222 0.255859,-0.832032 -1.114909,0.987 -1.818771,2.788842 -1.582031,4.050782 0.23522,1.25381 1.651055,3.125 2.365235,3.125 0.84595,0 0.493474,0.572625 -1.603516,2.609375 -1.86264,1.80914 -2.110296,1.953323 -2.472656,1.439453 -1.21156,-1.7181 -1.958008,-1.808329 -4.455078,-0.542969 -0.9286,0.47056 -1.966091,0.782459 -2.306641,0.693359 -0.34054,-0.08906 -0.702647,-0.02643 -0.804687,0.138672 -0.10203,0.16509 0.418663,0.298828 1.158203,0.298828 0.73953,0 1.345703,-0.130925 1.345703,-0.291015 0,-0.32534 1.71099,-1.107867 2.18164,-0.998047 0.16622,0.03878 0.565559,-0.04515 0.886719,-0.185547 0.66745,-0.2918 1.444208,0.229119 1.742188,1.167969 0.13691,0.43138 -0.245356,1.190087 -1.228516,2.435547 -1.24615,1.57859 -1.580424,1.812025 -2.621094,1.828125 -0.65605,0.01016 -1.700982,0.187551 -2.320312,0.394531 -1.20858,0.40393 -2.954,1.842502 -2.9375,2.419922 0.0055,0.19366 0.156204,0.101555 0.333984,-0.203125 0.17778,-0.30468 0.805475,-0.847741 1.396485,-1.207031 1.23768,-0.752421 3.890624,-1.286264 3.890624,-0.783204 10e-7,0.18094 -0.659726,1.399965 -1.466796,2.708985 -1.49674,2.42764 -2.911893,5.632436 -3.314454,7.503906 -0.20184,0.93835 -0.08744,1.151954 1.15625,2.152344 0.75971,0.61109 1.960972,1.614475 2.669922,2.228515 l 1.289063,1.115235 -1.505859,1.326172 c -2.226761,1.96008 -2.933594,3.537801 -2.933594,6.544921 0,2.952332 0.655744,4.458057 2.802734,6.44141 0.77815,0.71884 1.238128,1.3659 1.023438,1.4375 -0.21464,0.0715 -0.556636,0.44076 -0.759766,0.82031 -0.31307,0.58497 -0.02272,1.38625 1.908203,5.25977 l 2.279297,4.56836 2.648438,0.0137 c 1.457568,0.008 3.656888,0.11041 4.886718,0.22656 l 2.236328,0.21094 v 1.40234 c 0,1.44976 0.362493,1.9867 1.476563,2.19336 1.07303,0.19904 1.717151,4.25781 0.675781,4.25781 -0.27329,0 -0.496094,0.2484 -0.496094,0.55079 0,0.30235 -0.820185,1.4084 -1.822265,2.45898 -1.95327,2.0478 -2.091985,2.46231 -1.328125,3.93945 0.4085,0.78995 0.81813,1.01793 2.40039,1.33008 1.04987,0.20712 2.032834,0.40857 2.183594,0.44727 0.15076,0.0387 0.300631,1.06631 0.332031,2.28515 0.03784,1.46765 0.224618,2.38505 0.554688,2.71485 0.70919,0.7086 4.584484,1.1914 11.083984,1.38086 3.09104,0.0901 5.677747,0.22071 5.748047,0.29101 0.07026,0.0703 -0.276524,0.65967 -0.771484,1.30859 -0.89927,1.17901 -0.899663,1.18178 -0.507813,3.91407 0.43451,3.02987 1.601698,9.74013 2.835938,16.29883 l 0.792969,4.21484 -0.107422,0.45117 -0.992188,3.11719 c -0.927997,2.91086 -1.847795,7.97019 -2.570312,11.61328 h 0.06445 l -0.333985,1.40625 c -0.109627,0.61888 0.153202,1.24463 0.671875,1.59961 l 12.572266,8.60352 c 0.586125,0.4008 1.366278,0.36738 1.916016,-0.082 l 10.720699,-8.75781 c 0.44841,-0.36595 0.66426,-0.94551 0.56446,-1.51562 l -0.22071,-1.25391 h 5.33594 8.27149 1.06445 H 146 c 12.82168,0 23.67631,-7.98258 27.98438,-19.25391 0.003,0.005 0.005,0.009 0.008,0.0137 0.0619,-0.16167 0.10958,-0.32983 0.16992,-0.49219 0.0959,-0.26447 0.20818,-0.52116 0.29687,-0.78906 l -0.0137,-0.0234 c 0.0969,-0.28321 0.20918,-0.55918 0.29492,-0.84766 -1.34906,-2.79694 -3.27635,-6.162 -4.32226,-7.81054 -1.76704,-2.78518 -5.29733,-7.93105 -6.55469,-9.55469 -1.54217,-1.9914 -7.51633,-8.29992 -13.81836,-14.5918 -8.17659,-8.16343 -12.69602,-12.13297 -21.22656,-18.64453 -1.36647,-1.04306 -3.14992,-2.48286 -3.96289,-3.19922 l -1.47852,-1.30274 0.71094,-0.75976 c 3.18572,-3.405641 4.27227,-12.128782 2.40039,-19.275392 -0.36763,-1.40355 -0.58142,-2.692404 -0.47461,-2.865234 0.10682,-0.17283 0.0586,-0.314454 -0.10547,-0.314454 -0.16411,10e-7 -0.48321,-0.633873 -0.71093,-1.408203 -1.21108,-4.11798 -6.36455,-12.925041 -9.79297,-16.738281 l -1.52735,-1.699219 1.38282,-0.705078 c 0.89659,-0.4574 2.03949,-0.715068 3.24804,-0.730469 1.52498,-0.01949 1.68918,-0.07009 0.90821,-0.285156 -1.20776,-0.3326 -2.60823,-0.102453 -4.53516,0.748047 l -1.51563,0.669922 -1.26367,-0.857422 -1.26367,-0.859375 1.22852,-1.158203 c 1.51731,-1.43101 1.30097,-1.534742 -0.28907,-0.138672 l -1.16211,1.019531 -1.91211,-0.71875 c -3.28946,-1.23618 -6.32163,-1.655953 -13.507808,-1.871093 -1.970882,-0.05901 -3.761777,-0.0784 -5.427734,-0.05664 z M 46.005859,65.367526 c -0.03378,0.0027 0.06625,0.136891 0.285157,0.416015 0.25006,0.31884 0.511278,0.580078 0.580078,0.580078 0.27264,0 0.09673,-0.272328 -0.455078,-0.705078 -0.246286,-0.193153 -0.380354,-0.293354 -0.410157,-0.291015 z m 81.062501,12.630859 c -0.0976,0.004 -0.20168,0.02558 -0.29883,0.06445 -0.26426,0.10574 -0.18669,0.183319 0.19922,0.199219 0.34919,0.01438 0.54562,-0.06375 0.43555,-0.173828 -0.0654,-0.06531 -0.19326,-0.09572 -0.33594,-0.08984 z" />
  <path
     style="color:#000000;opacity:1;fill:#3f3f3f;stroke-linecap:round;stroke-linejoin:round;-inkscape-stroke:none;fill-opacity:1"
     d="m 104.68945,132.24023 -7.697263,0.89063 c -0.609129,0.0708 -1.124224,0.48348 -1.326171,1.0625 l -7.460791,24.57031 c -0.02798,0.0802 -0.04953,0.16249 -0.06445,0.2461 l -4.369288,18.39648 c -0.109627,0.61888 0.153202,1.24463 0.671875,1.59961 l 12.572266,8.60351 c 0.586125,0.4008 1.366278,0.36742 1.916016,-0.082 l 10.720696,-8.75781 c 0.44841,-0.36595 0.66426,-0.94551 0.56446,-1.51562 l -2.42578,-13.76172 c -0.002,-0.015 -0.005,-0.03 -0.008,-0.0449 -0.91045,-4.42256 -1.99473,-4.77599 -2.33007,-14.78321 l -0.01,-10.37304 0.98633,-4.08594 c 0.2611,-1.08193 -0.63469,-2.09334 -1.74024,-1.96485 z m -1.91015,3.44336 -0.49219,2.04102 c -0.0299,0.12342 -0.0449,0.24996 -0.0449,0.37695 l 0.0117,10.61719 c 3.8e-4,0.0176 0.001,0.0351 0.002,0.0527 0.34336,10.24635 1.5817,11.38144 2.39258,15.32032 l 2.2539,12.79297 -9.068356,7.40625 -10.730468,-7.3418 3.064453,-17.25391 8.189453,-23.50195 z"
     id="path90779"
     sodipodi:nodetypes="cccccccccccccccccccccccccccccc" />
  <path
     id="rect83618"
     style="opacity:1;fill:#c11a27;stroke-width:0.4;stroke-linecap:round;stroke-linejoin:round;fill-opacity:1"
     d="m 97.176594,134.71939 7.697236,-0.88985 -1.03116,4.27101 0.0114,10.61742 c 0.33935,10.12679 1.50133,10.87098 2.362,15.0517 l 2.42415,13.76106 -10.720563,8.75752 -12.573103,-8.60214 3.269333,-18.39648 z"
     sodipodi:nodetypes="cccccccccc" />
  <path
     id="rect75885"
     style="opacity:1;fill:#e4e4e4;stroke-width:0.4;stroke-linecap:round;stroke-linejoin:round;fill-opacity:1"
     d="M 106.89453 130.93555 L 103.91992 137.69336 L 104.4707 156.81445 L 108.43945 170.07617 L 111.89844 176 L 123.60352 176 L 123.97656 169.89062 L 112.2207 147.17578 L 115.03516 131.52539 L 113.97266 131.85156 L 109.46094 136.24609 L 108.02148 131.8457 L 106.89453 130.93555 z " />
  <path
     id="rect68903"
     style="opacity:1;fill:#664828;stroke-width:0.4;stroke-linecap:round;stroke-linejoin:round;fill-opacity:1"
     d="M 123.36133 99.673828 L 118.4082 104.82227 L 126.70312 151.37305 L 127.14648 155.27539 L 125.69727 157.85547 L 127.19922 160.3457 L 125.46289 164.31836 L 123.95898 176 L 146 176 C 159.30076 176 170.50565 167.41992 174.45898 155.47852 L 165.77148 140.98047 L 148.16016 121.01758 L 123.36133 99.673828 z " />
  <path
     id="path90310"
     style="color:#000000;fill:#ffffff;-inkscape-stroke:none"
     d="M 99.351562 145.51172 C 98.938713 145.50943 98.548973 145.51608 98.173828 145.5293 C 96.673247 145.5822 95.40513 145.72803 93.826172 145.72656 L 93.826172 146.72656 C 97.106567 146.72956 98.859625 146.14261 103.76953 146.88477 L 103.91992 145.89648 C 102.03653 145.6118 100.59011 145.51859 99.351562 145.51172 z M 97.304688 154.15625 C 94.804525 154.16425 92.39551 154.28396 89.966797 154.35938 L 89.998047 155.35742 C 94.878603 155.20588 99.583645 154.8942 105.05859 155.60352 L 105.1875 154.61133 C 102.39529 154.24958 99.80485 154.14784 97.304688 154.15625 z M 101.05859 162.90625 C 99.444246 162.90751 97.917248 162.95329 96.435547 163.01953 C 93.472144 163.15201 90.688063 163.36919 87.740234 163.49805 L 87.785156 164.49805 C 93.724298 164.23844 98.902868 163.62608 106.14844 164.05469 L 106.20703 163.05664 C 104.37464 162.94825 102.67294 162.90499 101.05859 162.90625 z M 96.767578 171.48828 C 93.054745 171.49428 89.393041 171.67192 85.775391 172.00195 L 85.865234 172.99805 C 93.043346 172.34321 100.39639 172.29581 107.96875 172.99805 L 108.0625 172.00195 C 104.24462 171.64789 100.48041 171.48229 96.767578 171.48828 z " />
  <path
     id="path1021"
     style="opacity:1;fill:#3f3f3f;stroke-width:0.331266;fill-opacity:1"
     d="M 89.767578 51.5 C 84.769708 51.565276 80.894702 52.012628 76.646484 52.955078 C 72.404244 53.896198 72.171875 53.913441 72.171875 53.300781 C 72.171875 53.046981 71.952667 52.754854 71.685547 52.652344 C 71.310267 52.508324 71.240137 52.670681 71.373047 53.363281 C 71.536637 54.215791 71.419041 54.306332 68.988281 55.232422 C 67.582721 55.767932 65.334887 56.924261 63.992188 57.800781 C 62.649497 58.677301 61.483644 59.394531 61.402344 59.394531 C 60.904424 59.394531 60.107453 57.392431 59.908203 55.644531 L 59.673828 53.595703 L 59.628906 55.431641 C 59.598046 56.680921 59.794468 57.678471 60.242188 58.556641 C 60.603817 59.265971 60.820109 59.924031 60.724609 60.019531 C 60.629069 60.115061 60.054122 59.925516 59.445312 59.597656 C 57.266653 58.424366 56.854223 56.085271 58.408203 53.712891 C 59.123823 52.620381 59.186163 52.418669 58.664062 52.880859 C 57.549153 53.867859 56.845291 55.669701 57.082031 56.931641 C 57.317251 58.185451 58.733086 60.056641 59.447266 60.056641 C 60.293216 60.056641 59.94074 60.629266 57.84375 62.666016 C 55.98111 64.475156 55.733454 64.619339 55.371094 64.105469 C 54.159534 62.387369 53.413086 62.29714 50.916016 63.5625 C 49.987416 64.03306 48.949925 64.344959 48.609375 64.255859 C 48.268835 64.166799 47.906728 64.229431 47.804688 64.394531 C 47.702658 64.559621 48.223351 64.693359 48.962891 64.693359 C 49.702421 64.693359 50.308594 64.562434 50.308594 64.402344 C 50.308594 64.077004 52.019584 63.294477 52.490234 63.404297 C 52.656454 63.443077 53.055793 63.35915 53.376953 63.21875 C 54.044403 62.92695 54.821161 63.447869 55.119141 64.386719 C 55.256051 64.818099 54.873785 65.576806 53.890625 66.822266 C 52.644475 68.400856 52.310201 68.634291 51.269531 68.650391 C 50.613481 68.660551 49.568549 68.837942 48.949219 69.044922 C 47.740639 69.448852 45.995219 70.887424 46.011719 71.464844 C 46.017259 71.658504 46.167923 71.566399 46.345703 71.261719 C 46.523483 70.957039 47.151178 70.413978 47.742188 70.054688 C 48.979868 69.302267 51.632812 68.768424 51.632812 69.271484 C 51.632813 69.452424 50.973086 70.671449 50.166016 71.980469 C 48.669276 74.408109 47.254123 77.612905 46.851562 79.484375 C 46.649722 80.422725 46.764122 80.636329 48.007812 81.636719 C 48.767522 82.247809 49.968784 83.251194 50.677734 83.865234 L 51.966797 84.980469 L 50.460938 86.306641 C 48.234177 88.266721 47.527344 89.844442 47.527344 92.851562 C 47.527344 95.803893 48.183088 97.309619 50.330078 99.292969 C 51.108228 100.01181 51.568206 100.65887 51.353516 100.73047 C 51.138876 100.80201 50.79688 101.17123 50.59375 101.55078 C 50.28068 102.13575 50.571033 102.93703 52.501953 106.81055 L 54.78125 111.37891 L 57.429688 111.39258 C 58.887257 111.40031 61.086576 111.50299 62.316406 111.61914 L 64.552734 111.83008 L 64.552734 113.23242 C 64.552734 114.68218 64.915227 115.21912 66.029297 115.42578 C 67.102327 115.62482 67.746448 119.68359 66.705078 119.68359 C 66.431788 119.68359 66.208984 119.932 66.208984 120.23438 C 66.208984 120.53674 65.388799 121.64278 64.386719 122.69336 C 62.433449 124.74116 62.294734 125.15567 63.058594 126.63281 C 63.467094 127.42276 63.876724 127.65074 65.458984 127.96289 C 66.508854 128.17001 67.491818 128.37146 67.642578 128.41016 C 67.793338 128.44888 67.943209 129.47647 67.974609 130.69531 C 68.012449 132.16296 68.199227 133.08036 68.529297 133.41016 C 69.238487 134.11876 73.113781 134.60156 79.613281 134.79102 C 82.704321 134.88112 85.291028 135.01173 85.361328 135.08203 C 85.431588 135.15229 85.084804 135.7417 84.589844 136.39062 C 83.690574 137.56963 83.690181 137.5724 84.082031 140.30469 C 84.516541 143.33456 85.683729 150.04482 86.917969 156.60352 L 87.724609 160.89062 L 86.611328 164.38672 C 85.683331 167.29758 84.763533 172.35691 84.041016 176 L 85.789062 176 C 85.972221 175.08226 86.133941 173.78408 86.445312 171.85938 C 87.009342 168.37292 88.157728 164.12881 90.023438 158.64648 C 90.946258 155.93478 91.627309 153.59706 91.537109 153.45117 C 91.446939 153.30528 91.668667 152.61712 92.029297 151.92188 C 92.389927 151.22664 93.223679 148.72012 93.880859 146.35156 C 94.538039 143.983 95.362854 141.34585 95.714844 140.49219 C 96.066844 139.63853 96.355469 138.61879 96.355469 138.22461 C 96.355469 137.83043 96.594622 137.00054 96.888672 136.38086 L 97.423828 135.25391 L 99.880859 135.25391 C 101.27735 135.25391 102.83544 135.04621 103.48828 134.77344 C 104.82456 134.21511 104.82956 134.23649 104.01758 136.41406 C 102.92035 139.35664 102.87475 143.70032 103.82422 154.79883 C 103.90995 155.80092 104.28689 158.25951 104.66016 160.26367 C 105.03342 162.26783 105.46336 164.72839 105.61719 165.73047 C 105.77101 166.73255 106.66474 169.40962 107.2793 171.77539 L 108.37695 176 L 115.33203 176 L 114.63867 175.19336 C 113.73834 174.14573 111.73888 170.47612 110.19531 168.38086 C 107.58833 164.84212 107.33862 164.35928 106.67188 161.58984 C 105.38434 156.2419 104.63333 150.81682 104.30273 144.47656 C 103.9916 138.50961 104.0069 138.17028 104.68359 136.33789 C 105.48286 134.17358 106.88971 131.60938 107.27734 131.60938 C 107.41942 131.60938 107.87961 132.8022 108.30078 134.25977 C 108.72196 135.71735 109.19147 136.91016 109.34375 136.91016 C 109.81816 136.91016 112.54753 134.23631 113.27539 133.05859 C 114.43488 131.1825 114.53292 132.08338 113.55859 135.66797 C 113.04869 137.54391 112.38024 141.04915 112.07422 143.45898 L 111.51758 147.8418 L 115.41992 155.21289 C 117.56587 159.26702 120.11801 164.13462 121.0918 166.03125 C 122.0656 167.92788 123.03085 169.6821 123.23633 169.92969 C 123.60198 170.37027 123.49912 173.64154 123.00391 176 L 124.66797 176 C 124.82046 175.08891 125.42356 170.26863 126.34375 164.54883 C 126.43567 163.97745 127.01135 163.04481 127.66211 162.41406 C 128.2979 161.79783 128.81836 161.12729 128.81836 160.92383 C 128.81836 160.72036 128.37081 160.12522 127.82422 159.60156 C 126.58917 158.41835 126.58908 158.13711 127.80859 156.96875 C 128.53232 156.27537 128.74668 155.80957 128.63867 155.16797 C 128.55852 154.69188 127.95758 150.94708 127.30273 146.84766 C 125.98158 138.57716 124.89146 133.18078 122.66211 123.85742 C 121.4484 118.78158 119.97161 111.51558 118.98438 105.77148 C 118.86886 105.09939 119.26974 104.51978 121.11719 102.69531 L 123.39453 100.44727 L 124.03516 101.16992 C 126.43886 103.81509 128.94457 105.80159 131.63477 107.9375 C 133.27355 109.13907 140.59984 115.62385 144.34375 119.1875 C 150.85794 125.44487 156.37108 132.45327 162.50977 138.97852 C 163.56595 140.30032 164.60897 141.57252 164.82812 141.80469 C 165.46231 142.47653 168.72505 147.51615 169.70117 149.33203 C 170.07132 150.02062 172.45533 154.12023 173.99219 156.75977 C 174.26294 156.0523 174.52253 155.33982 174.74023 154.60742 C 173.39117 151.81048 171.46388 148.44542 170.41797 146.79688 C 168.65093 144.0117 165.12064 138.86583 163.86328 137.24219 C 162.32111 135.25079 156.34695 128.94227 150.04492 122.65039 C 141.86833 114.48696 137.3489 110.51742 128.81836 104.00586 C 127.45189 102.9628 125.66844 101.523 124.85547 100.80664 L 123.37695 99.503906 L 124.08789 98.744141 C 127.27361 95.338501 128.36016 86.61536 126.48828 79.46875 C 126.12065 78.0652 125.90686 76.776346 126.01367 76.603516 C 126.12049 76.430686 126.07231 76.289062 125.9082 76.289062 C 125.74409 76.289063 125.42499 75.655189 125.19727 74.880859 C 123.98619 70.762879 118.83272 61.955818 115.4043 58.142578 L 113.87695 56.443359 L 115.25977 55.738281 C 116.15636 55.280881 117.29926 55.023212 118.50781 55.007812 C 120.03279 54.988323 120.19699 54.937726 119.41602 54.722656 C 118.20826 54.390056 116.80779 54.620203 114.88086 55.470703 L 113.36523 56.140625 L 112.10156 55.283203 L 110.83789 54.423828 L 112.06641 53.265625 C 113.58372 51.834615 113.36738 51.730883 111.77734 53.126953 L 110.61523 54.146484 L 108.70312 53.427734 C 105.41365 52.191554 102.38149 51.771781 95.195312 51.556641 C 93.22443 51.497631 91.433535 51.478241 89.767578 51.5 z " />
  <path
     style="fill:#ede3b6;stroke-width:0.331266;opacity:1;fill-opacity:1"
     d="m 60.184848,100.27379 c 1.72825,-0.861224 3.5559,-2.788954 4.30345,-4.539094 0.59949,-1.40353 0.4791,-4.82193 -0.22404,-6.3613 -0.77047,-1.68678 -3.19606,-3.92361 -4.87396,-4.49468 -1.93097,-0.6572 -4.70156,-0.53462 -6.28879,0.27823 -1.61523,0.8272 -3.65457,3.00477 -4.37085,4.66712 -0.69805,1.62003 -0.69027,5.21029 0.0142,6.54903 2.27181,4.317284 7.21898,6.004114 11.43999,3.900694 z"
     id="path1232" />
  <path
     style="opacity:1;fill:#c84849;fill-opacity:1;stroke-width:0.331266"
     d="m 65.572266,108.87109 -3.306641,0.15039 c -1.113486,0.0754 -2.019531,0.24626 -2.019531,0.40821 0,0.83377 1.375342,1.64258 2.794922,1.64258 1.38118,0 1.494568,-0.0712 1.892578,-1.17188 0.167157,-0.46228 0.382173,-0.7942 0.638672,-1.0293 z"
     id="path50589" />
  <path
     style="opacity:1;fill:#e4e4e4;fill-opacity:1;stroke-width:0.331266"
     d="m 116.79492,113.375 c -1.63249,2.48416 -4.91541,5.29701 -8.07812,7.89258 -0.001,8.6e-4 -0.003,0.001 -0.004,0.002 -7.3e-4,6e-4 -0.001,10e-4 -0.002,0.002 -1.06736,1.0529 -2.15836,1.74138 -3.28321,2.30465 -0.62378,0.40749 -1.11779,0.76852 -1.11914,0.88086 -0.002,0.16499 0.34566,0.76043 0.77344,1.32422 1.43983,1.89758 3.10724,5.41539 3.6875,7.7832 0.31689,1.29308 0.75206,2.35157 0.96875,2.35157 0.21669,0 0.92243,-0.55896 1.56641,-1.24219 2.90146,-3.07836 3.5878,-4.43149 4.27148,-8.42774 0.67228,-3.92959 1.14269,-9.12352 1.21875,-12.87109 z"
     id="path62361"
     sodipodi:nodetypes="cccccsssscscc" />
  <path
     style="opacity:1;fill:#7fa246;fill-opacity:1;stroke-width:0.331266"
     d="m 91.298828,52.431641 c -5.010271,0.02255 -10.157487,0.466215 -13.992187,1.322265 -3.79385,0.84692 -4.141314,0.992846 -4.152344,1.759766 -0.01,0.6786 -0.04264,0.689877 -0.449219,0.154297 -0.41686,-0.54909 -0.528444,-0.546014 -2.240234,0.04297 -2.54863,0.87686 -5.982702,2.721199 -7.863282,4.224609 -0.0715,0.0572 0.07641,0.360065 0.330079,0.671875 0.41231,0.50674 0.391028,0.539873 -0.201172,0.314453 -0.36439,-0.13871 -0.748819,-0.278497 -0.855469,-0.310547 -0.37117,-0.11155 -4.839091,3.801868 -6.519531,5.710938 -3.7337,4.2417 -6.832502,9.67875 -7.232422,12.6875 -0.1763,1.32635 -0.101132,1.503381 1.142578,2.707031 1.23227,1.19259 1.369124,1.248054 1.871094,0.746094 1.79146,-1.79146 8.025387,-0.559666 11.335937,2.240234 0.58627,0.49583 1.523865,1.832953 2.083985,2.970703 2.51323,5.10509 1.158379,12.071647 -2.900391,14.916012 -1.07317,0.75208 -1.875196,1.01972 -3.384766,1.12891 -2.85447,0.20647 -4.058952,-0.11559 -5.382812,-1.43945 -1.00934,-1.00934 -1.215202,-1.09705 -1.576172,-0.66211 -0.61062,0.73575 -0.242147,1.74141 2.064453,5.63476 l 2.066406,3.48828 h 2.400391 c 1.32093,9e-5 2.402344,-0.0802 2.402344,-0.17773 0,-0.0975 -0.240907,-0.54506 -0.535156,-0.99414 l -0.535157,-0.81641 c 6.032613,-0.2014 12.283167,-0.4416 17.66211,-0.46679 l 9.824218,-0.0293 1.927735,1.32422 c 2.59748,1.78588 4.9211,4.20323 5.84375,6.07617 1.03768,2.10642 1.05803,5.90948 0.04102,7.83789 l -0.699218,1.32422 -5.75,-0.23047 c -3.16249,-0.12758 -9.2657,-0.33156 -13.5625,-0.45117 l -7.8125,-0.2168 v -0.96875 c 0,-1.81329 -0.606894,-1.80098 -2.064453,0.043 -2.45115,3.10094 -1.781642,4.05158 3.486328,4.95313 2.776,0.47507 3.250796,0.62334 2.066406,0.64843 -1.52174,0.0322 -1.5389,0.0457 -1.6875,1.27539 -0.0826,0.68323 -0.01058,1.64985 0.160156,2.14844 0.49463,1.44472 2.051776,1.69123 10.847656,1.71875 l 7.785157,0.0254 1.822265,-0.88672 c 1.00208,-0.48732 4.156003,-2.00785 7.007813,-3.3789 5.636181,-2.70968 6.109681,-3.08821 9.283201,-7.41211 1.10321,-1.50313 2.06826,-2.73242 2.14453,-2.73242 0.21158,0 -0.56809,1.41599 -1.14062,2.07226 -0.91995,1.05452 -0.14361,0.99153 1.4707,-0.11914 0.43407,-0.29865 1.12735,-0.82474 1.89258,-1.43164 0.003,-0.003 0.007,-0.005 0.01,-0.008 2.37728,-1.9766 4.73427,-4.14552 7.06054,-6.60157 0.0217,-1.19271 0.006,-2.24163 -0.0605,-3.04101 -0.12812,-1.53807 -0.3374,-2.79688 -0.4668,-2.79688 -0.1294,0 -0.43937,0.18632 -0.6875,0.41407 -1.26348,1.15972 1.37371,-2.10574 4.07422,-5.04492 5.25028,-5.714343 6.52772,-8.468336 6.76172,-14.582036 0.11418,-2.98295 -8e-4,-4.521644 -0.53125,-7.089844 -0.76562,-3.70787 -1.06474,-4.224187 -1.97071,-3.404297 -0.33749,0.30543 -0.82503,0.551765 -1.08398,0.546875 -0.25895,-0.005 0.0322,-0.428253 0.64844,-0.939453 1.10182,-0.91386 1.11362,-0.950612 0.69921,-2.226563 -1.31883,-4.06059 -6.33884,-12.475027 -9.59765,-16.085937 -1.29314,-1.43288 -1.68434,-1.695438 -2.0293,-1.361328 -0.66111,0.6403 -0.991,0.491887 -0.7793,-0.351563 0.15277,-0.60869 0.005,-0.851213 -0.7246,-1.183593 -0.76928,-0.3505 -0.97473,-0.338724 -1.26368,0.07422 -1.2832,1.83397 -1.21364,1.770554 -1.01953,0.964844 0.0988,-0.40994 0.26461,-1.019006 0.36914,-1.353515 0.21236,-0.679542 -1.04957,-1.268529 -4.66211,-2.173829 -3.28806,-0.82399 -8.1616,-1.221766 -13.171872,-1.199218 z"
     id="path1188" />
  <path
     id="rect959"
     style="fill:#ffffff;fill-opacity:1;stroke-width:4;opacity:0.2"
     d="M 46 16 C 29.38 16 16 29.38 16 46 L 16 47 C 16 30.38 29.38 17 46 17 L 146 17 C 162.62 17 176 30.38 176 47 L 176 46 C 176 29.38 162.62 16 146 16 L 46 16 z " />
  <path
     style="fill:#1d1511;stroke-width:0.331266;opacity:0.36228154"
     d="m 59.583798,52.532966 c 0,-0.19026 0.26088,-0.55051 0.57972,-0.80057 0.53624,-0.42054 0.54327,-0.40495 0.0937,0.20789 -0.26729,0.3644 -0.52816,0.72465 -0.57972,0.80057 -0.0515,0.0759 -0.0937,-0.0176 -0.0937,-0.20789 z"
     id="path1256" />
  <path
     style="fill:#1d1511;stroke-width:0.331266;opacity:0.36228154"
     d="m 46.290888,63.783066 c -0.41205,-0.52541 -0.40034,-0.53713 0.12507,-0.12507 0.55181,0.43275 0.72729,0.70479 0.45465,0.70479 -0.0688,0 -0.32966,-0.26088 -0.57972,-0.57972 z"
     id="path1254" />
  <path
     style="fill:#1d1511;stroke-width:0.331266;opacity:0.36228154"
     d="m 126.76878,76.062086 c 0.23913,-0.0957 0.52485,-0.0839 0.63493,0.0261 0.11007,0.11008 -0.0856,0.18837 -0.43479,0.17399 -0.38591,-0.0159 -0.4644,-0.0944 -0.20014,-0.20014 z"
     id="path1252" />
  <path
     id="path1236"
     style="opacity:0.362282;fill:#1d1511;stroke-width:0.331266"
     d="M 147.85352 134.38086 C 147.45322 134.52267 146.03027 142.48821 144.04297 155.79297 C 143.14844 161.7818 141.44479 174.23063 141.2207 176 L 143.62695 176 C 144.00176 173.62518 145.24043 162.85967 145.56055 159.43555 C 145.7046 157.89474 146.01852 156.63208 146.38867 156.10938 C 147.44295 154.62057 148.696 151.43878 149.69531 147.70898 C 150.23083 145.71021 150.59717 144.00342 150.50977 143.91602 C 150.31282 143.71907 150.50479 143.37306 148.42773 147.63086 C 147.46202 149.61049 146.62491 151.17597 146.56641 151.10938 C 146.50793 151.04282 146.81604 147.4867 147.25195 143.20508 C 147.68786 138.92346 147.99916 135.04729 147.94336 134.5918 C 147.92433 134.43629 147.89493 134.36619 147.85352 134.38086 z " />
  <path
     style="fill:#3f3f3f;stroke-width:0.331266;opacity:1;fill-opacity:1"
     d="m 55.134898,91.895436 c -0.21639,-0.35014 0.7331,-1.21363 1.01953,-0.9272 0.27601,0.27601 -0.12324,1.22093 -0.51588,1.22093 -0.17716,0 -0.4038,-0.13218 -0.50365,-0.29373 z"
     id="path1234" />
  <path
     style="fill:#c84849;stroke-width:0.331266;opacity:1;fill-opacity:1"
     d="m 75.796308,110.18463 c 1.28245,-0.66989 2.25747,-1.29225 2.16671,-1.38301 -0.16775,-0.16774 -5.17662,-0.11149 -5.34818,0.0601 -0.12936,0.12936 0.55008,2.54093 0.71588,2.54093 0.0736,0 1.18314,-0.54809 2.46559,-1.21799 z"
     id="path1230" />
  <path
     style="fill:#faf8e8;stroke-width:0.331266;opacity:1;fill-opacity:1"
     d="m 89.331028,111.34496 c 0.0957,-0.50225 -1.9737,-2.2612 -2.66028,-2.2612 -0.1399,0 -0.25436,0.49896 -0.25436,1.10881 0,0.82063 0.19371,1.20389 0.74534,1.47466 1.01829,0.49982 2.04165,0.3478 2.1693,-0.32227 z"
     id="path1228" />
  <path
     style="fill:#faf8e8;stroke-width:0.331266;opacity:1;fill-opacity:1"
     d="m 83.434988,114.38878 c 0,-0.17958 -0.52175,-1.30999 -1.15944,-2.51201 -0.63768,-1.20203 -1.15943,-2.39673 -1.15943,-2.65489 0,-0.65639 -0.76523,-0.58614 -2.70505,0.24835 l -1.66843,0.71774 0.20862,1.30463 c 0.11474,0.71755 0.43178,1.7362 0.70455,2.26366 0.48414,0.93622 0.55875,0.95902 3.13755,0.95902 1.51458,0 2.64163,-0.1393 2.64163,-0.3265 z"
     id="path1226" />
  <path
     style="fill:#faf8e8;stroke-width:0.331266;opacity:1;fill-opacity:1"
     d="m 73.379078,114.61236 c 0.12453,-0.12454 -0.1291,-1.49396 -0.56363,-3.04315 l -0.79006,-2.81672 h -2.90049 c -2.74551,0 -2.93015,0.0453 -3.45547,0.84699 -0.7191,1.09749 -0.9788,3.80412 -0.45832,4.77665 0.38925,0.72732 0.52209,0.74665 4.1718,0.60695 2.07336,-0.0794 3.87163,-0.24619 3.99617,-0.37072 z"
     id="path1224" />
  <path
     style="fill:#c84849;stroke-width:0.331266;opacity:1;fill-opacity:1"
     d="m 69.456288,117.44823 0.10013,-1.73915 h -1.01111 c -1.10348,0 -1.16468,0.18602 -0.79573,2.41868 0.17207,1.04129 0.32912,1.24197 0.90734,1.15944 0.59452,-0.0849 0.71424,-0.36028 0.79937,-1.83897 z"
     id="path1222" />
  <path
     style="fill:#faf8e8;stroke-width:0.331266;opacity:1;fill-opacity:1"
     d="m 91.175068,122.31037 c 0.78217,-0.61526 0.87284,-0.9091 0.87284,-2.82866 v -2.14209 l -2.89858,0.0957 -2.89858,0.0957 0.098,1.48915 c 0.12008,1.82522 0.78066,2.89206 2.16308,3.49338 1.41146,0.61396 1.64729,0.59596 2.66327,-0.20321 z"
     id="path1220" />
  <path
     style="fill:#5d1717;stroke-width:0.331266;opacity:1;fill-opacity:1"
     d="m 83.949938,122.08731 1.85471,-0.90963 -0.2099,-1.49205 c -0.11545,-0.82062 -0.28442,-1.74795 -0.37549,-2.06073 -0.2148,-0.73772 0.51302,-0.8999 4.50979,-1.00494 l 3.14703,-0.0827 -0.008,1.90478 c -0.005,1.04763 0.095,1.90478 0.22136,1.90478 0.12633,0 0.46549,0.0905 0.75369,0.20108 0.43397,0.16653 0.52399,-0.0784 0.52399,-1.42566 0,-2.02325 -1.14726,-4.43792 -2.94052,-6.189 -1.2528,-1.22332 -1.30754,-1.24266 -1.53035,-0.54065 -0.20143,0.63463 -0.3849,0.6992 -1.42977,0.50318 -1.51504,-0.28422 -3.11959,-1.10211 -2.89022,-1.47322 0.0962,-0.15573 0.0825,-0.74566 -0.0306,-1.31096 -0.19914,-0.99571 -0.26087,-1.02782 -1.97572,-1.02782 -2.04633,0 -2.04263,-0.15847 -0.0797,3.41261 0.69401,1.26257 1.18037,2.42741 1.08079,2.58852 -0.0996,0.16111 -1.72346,0.29293 -3.60864,0.29293 h -3.42761 l -0.52804,-1.54971 c -0.29042,-0.85235 -0.52804,-1.8213 -0.52804,-2.15324 0,-0.81046 -0.63105,-0.75797 -1.76128,0.14651 -0.82494,0.66016 -0.89323,0.85166 -0.58901,1.65181 0.5327,1.40112 0.16792,1.80885 -1.89564,2.11878 l -1.8825,0.28275 v 1.47872 c 0,1.41951 0.0398,1.47919 0.9938,1.4907 l 0.9938,0.012 -0.1133,2.07041 -0.11329,2.07042 h 4.99214 c 4.77303,0 5.07354,-0.0399 6.84683,-0.90963 z"
     id="path1218" />
  <path
     style="fill:#c84849;stroke-width:0.331266;opacity:1;fill-opacity:1"
     d="m 89.066518,123.5234 c 0,-0.0748 -0.66995,-0.4604 -1.48878,-0.85679 -1.32342,-0.64066 -1.59936,-0.67175 -2.4845,-0.27995 -1.79138,0.79295 -1.23009,1.27282 1.48878,1.27282 1.36647,0 2.4845,-0.0612 2.4845,-0.13608 z"
     id="path1216" />
  <path
     style="fill:#faf8e8;stroke-width:0.331266;opacity:1;fill-opacity:1"
     d="m 70.929678,123.33186 c 0.4814,-0.003 0.57972,-0.31264 0.57972,-1.82561 v -1.82197 l -1.07662,0.004 c -0.59214,0.002 -1.65251,0.0988 -2.35638,0.21506 l -1.27976,0.21142 0.16707,1.48224 c 0.19734,1.75073 0.65982,2.14801 2.22682,1.91285 0.63769,-0.0957 1.42031,-0.17564 1.73915,-0.17764 z"
     id="path1214" />
  <path
     style="fill:#c84849;stroke-width:0.331266;opacity:1;fill-opacity:1"
     d="m 93.982338,123.14699 c 0.57676,-1.26585 0.47348,-1.80638 -0.34514,-1.80638 -0.69235,0 -2.91435,1.81753 -2.91435,2.38385 0,0.14646 0.64689,0.26629 1.43752,0.26629 1.21898,0 1.49598,-0.12828 1.82197,-0.84376 z"
     id="path1212" />
  <path
     style="fill:#c11a27;stroke-width:0.331266;opacity:1;fill-opacity:1"
     d="m 103.92306,133.54056 c 1.36412,-0.65927 2.69663,-2.23792 2.69934,-3.19796 6.6e-4,-0.2415 -0.60652,-1.47973 -1.34934,-2.75161 l -1.35058,-2.31252 -1.44175,1.32896 c -0.79296,0.73092 -2.976592,2.09917 -4.852512,3.04055 l -3.41077,1.7116 1.31691,1.11261 c 2.147,1.81392 3.07403,2.16724 5.126482,1.95386 1.00208,-0.10418 2.47008,-0.50265 3.26222,-0.88549 z"
     id="path1210" />
  <path
     style="fill:#1d1511;stroke-width:0.331266;opacity:0.36228154"
     d="m 74.097408,67.449156 c 0.23914,-0.0957 0.52485,-0.0839 0.63493,0.0261 0.11008,0.11007 -0.0856,0.18837 -0.43478,0.17398 -0.38591,-0.0159 -0.46441,-0.0944 -0.20015,-0.20013 z"
     id="path1208" />
  <path
     style="fill:#3f3f3f;stroke-width:0.331266;opacity:1;fill-opacity:1"
     d="m 71.004288,70.338856 c 0.11712,-0.1895 0.58484,-0.34454 1.03939,-0.34454 0.45454,0 2.40337,-0.5276 4.33072,-1.17244 1.92736,-0.64484 3.66696,-1.11821 3.8658,-1.05193 0.47599,0.15867 -4.94942,2.11591 -6.6102,2.38466 -0.71084,0.11503 -1.64033,0.28107 -2.06554,0.36897 -0.48342,0.0999 -0.69332,0.0307 -0.56017,-0.18472 z"
     id="path1206" />
  <path
     style="fill:#3f3f3f;stroke-width:0.331266;opacity:1;fill-opacity:1"
     d="m 66.871668,72.389676 c -1.18428,-0.29015 -1.90753,-0.58315 -1.60722,-0.65109 0.30032,-0.0679 1.43986,0.10807 2.53232,0.39116 2.93588,0.76076 4.7513,0.63453 9.32282,-0.64824 4.03891,-1.13332 6.48617,-1.39185 7.8061,-0.82466 0.46045,0.19786 -0.0249,0.2918 -1.59132,0.30798 -1.36234,0.0141 -3.76784,0.41638 -6.08138,1.01708 -4.33966,1.12678 -7.01739,1.23195 -10.38132,0.40777 z"
     id="path1204" />
  <path
     style="fill:#3f3f3f;stroke-width:0.331266;opacity:1;fill-opacity:1"
     d="m 78.539548,99.058416 c -1.35592,-1.4433 -2.35587,-5.21292 -1.38281,-5.21292 0.71089,0 2.00228,1.82489 2.49793,3.52988 0.70375,2.42079 0.23814,3.123534 -1.11512,1.68304 z"
     id="path1202" />
  <path
     style="fill:#3f3f3f;stroke-width:0.331266;opacity:1;fill-opacity:1"
     d="m 70.073908,100.24998 c -0.86643,-0.866424 0.55978,-3.942484 1.63638,-3.529354 0.75636,0.29025 0.56259,2.21481 -0.30506,3.02992 -0.82695,0.776884 -0.99197,0.838794 -1.33132,0.499434 z"
     id="path1200" />
  <path
     style="opacity:1;fill:#3f3f3f;fill-opacity:1;stroke-width:0.331266"
     d="m 94.955928,104.48593 c -0.86024,-0.34719 -2.17061,-1.07729 -2.91191,-1.62245 -2.15439,-1.58435 -5.97393,-5.989354 -6.84711,-7.896624 -2.51186,-5.48662 -1.45258,-11.33793 2.83346,-15.65169 7.589144,-6.844766 17.775772,-3.627883 22.206282,3.41779 2.94408,4.50989 3.26145,9.03799 0.96458,13.76267 -1.36738,2.81274 -4.70568,6.177914 -7.39336,7.452884 -2.63374,1.24939 -6.505412,1.48444 -8.851942,0.53742 z"
     id="path1194"
     sodipodi:nodetypes="sssccsss" />
  <path
     style="opacity:1;fill:#ede3b6;fill-opacity:1;stroke-width:0.331266"
     d="m 103.07287,101.37772 c 2.81557,-1.29333 5.53826,-4.045764 6.88383,-6.959024 0.98255,-2.1273 1.10553,-2.71007 1.09973,-5.21093 -0.005,-2.12952 -0.18946,-3.28278 -0.75706,-4.732 -1.04803,-2.67589 -3.78625,-5.55541 -6.59875,-6.93928 -3.996461,-1.504508 -8.314115,-1.828029 -11.818342,-0.08887 -5.02827,2.675434 -7.280763,7.501297 -7.28786,11.59452 -0.205958,5.776493 4.200992,11.115624 9.07966,12.807154 2.73575,0.90346 6.855322,0.69677 9.398792,-0.47157 z"
     id="path1196"
     sodipodi:nodetypes="sscsccccs" />
  <path
     style="fill:#3f3f3f;stroke-width:0.331266;opacity:1;fill-opacity:1"
     d="m 99.402028,90.135316 c -0.48238,-0.48239 -0.52325,-1.25882 -0.0662,-1.25882 0.18219,0 0.33126,-0.2236 0.33126,-0.4969 0,-0.67739 0.570922,-0.62725 0.943002,0.0828 0.32025,0.61114 -0.0567,2.07042 -0.5348,2.07042 -0.151632,0 -0.454572,-0.17889 -0.673212,-0.39752 z"
     id="path1198" />
  <path
     style="fill:#3f3f3f;stroke-width:0.331266;opacity:1;fill-opacity:1"
     d="m 109.42528,111.49645 c 0.66865,-1.37188 0.84229,-2.2292 0.84229,-4.15866 0,-2.31755 0.05,-2.4767 1.07662,-3.42378 1.76448,-1.62784 2.54388,-2.10043 1.57351,-0.95408 -0.45549,0.53809 -1.17753,1.32202 -1.60454,1.74206 -0.70207,0.69062 -0.7549,0.94875 -0.55197,2.69718 0.18396,1.58499 0.10466,2.1648 -0.43994,3.21691 -1.05185,2.03205 -1.8299,2.79656 -0.89597,0.88037 z"
     id="path1192" />
  <path
     style="fill:#3f3f3f;stroke-width:0.331266;opacity:1;fill-opacity:1"
     d="m 92.848038,127.28194 c 2.14688,-0.24896 2.37124,-0.3555 3.57074,-1.69561 l 1.27991,-1.42995 -1.03183,1.73915 -1.03184,1.73915 -2.5389,-0.0435 -2.5389,-0.0435 z"
     id="path1190" />
  <path
     style="fill:#e4e4e4;stroke-width:0.331266;opacity:1;fill-opacity:1"
     d="m 95.005508,140.04474 c 0.37749,-1.00891 0.68634,-2.02089 0.68634,-2.24882 0,-0.22794 0.30064,-1.00413 0.6681,-1.72487 l 0.6681,-1.31045 -1.54378,-1.41743 c -0.84907,-0.77959 -1.60556,-1.35565 -1.68107,-1.28013 -0.0755,0.0755 -0.22361,1.46937 -0.32909,3.09747 -0.20452,3.15683 0.0931,6.71862 0.56144,6.71862 0.15599,0 0.59248,-0.82547 0.96996,-1.83439 z"
     id="path1186" />
  <path
     style="fill:#ab743e;stroke-width:0.331266;opacity:1;fill-opacity:1"
     d="m 92.979158,145.60422 c 0.71492,-2.39577 0.73475,-2.6863 0.29952,-4.38762 -0.25634,-1.00208 -0.49993,-3.38564 -0.54129,-5.29679 -0.0414,-1.91115 -0.13186,-3.53148 -0.2011,-3.60072 -0.0693,-0.0692 -0.6174,0.16205 -1.21812,0.51399 -0.87138,0.5105 -1.09602,0.85821 -1.11099,1.71962 -0.0103,0.59386 -0.20761,1.19645 -0.43842,1.3391 -0.32812,0.20278 -0.34528,0.79371 -0.0787,2.70926 0.54432,3.91114 1.89783,9.57322 2.28781,9.57048 0.12962,-9.9e-4 0.58021,-1.1562 1.00129,-2.56732 z"
     id="path1184" />
  <path
     style="fill:#664828;stroke-width:0.331266;opacity:1;fill-opacity:1"
     d="m 89.227198,156.04077 c 0.34081,-1.32092 0.90709,-3.05516 1.25839,-3.85387 0.63399,-1.44141 0.63366,-1.46969 -0.0444,-3.80956 -0.83288,-2.87418 -1.58779,-6.6203 -1.8951,-9.4042 -0.12615,-1.14281 -0.37748,-2.16937 -0.55852,-2.28126 -0.20381,-0.12596 -0.2756,0.25533 -0.18852,1.00121 0.0774,0.66255 0.0215,1.20465 -0.12412,1.20465 -0.14561,0 -0.26475,-0.89442 -0.26475,-1.9876 0,-1.6748 -0.0912,-1.98649 -0.57971,-1.98053 -0.31885,0.004 -1.01297,0.61916 -1.54251,1.36726 -0.91141,1.28759 -0.94271,1.44191 -0.58646,2.89151 0.20699,0.84222 0.604,3.02202 0.88224,4.84398 0.79637,5.21479 2.5961,14.4101 2.82037,14.4101 0.11189,0 0.48227,-1.08076 0.82309,-2.40169 z"
     id="path1174" />
  <path
     style="fill:#ab743e;stroke-width:0.331266;opacity:1;fill-opacity:1"
     d="m 124.48879,165.25355 c 0.35868,-2.58256 0.97629,-3.8297 1.89655,-3.8297 0.65717,0 0.56744,-0.24208 -0.75991,-2.0503 l -1.20547,-1.64217 1.18365,-0.97566 c 1.0654,-0.87819 1.16563,-1.09914 1.0034,-2.21178 -0.44537,-3.05442 -3.12701,-16.14611 -4.22273,-20.6152 -0.52448,-2.13919 -0.85517,-4.43481 -0.85896,-5.9628 -0.009,-3.71361 -0.54403,-8.1162 -1.66505,-13.70692 -2.09203,-10.43333 -2.75526,-11.00522 -2.66658,-2.29932 0.0752,7.38417 -0.79798,15.15677 -2.61672,23.29234 -0.73441,3.28513 -1.66086,9.66405 -1.65706,11.40939 0.001,0.66975 1.68344,4.1691 4.9461,10.29033 6.05588,11.36168 5.97527,11.21629 6.13083,11.05947 0.0697,-0.0702 0.29104,-1.31118 0.49195,-2.75768 z"
     id="path1172" />
</svg>
