<?xml version="1.0" encoding="UTF-8" standalone="no"?>
<svg
   width="192"
   height="192"
   version="1"
   id="svg28"
   sodipodi:docname="games_hill_climb_2.svg"
   inkscape:version="1.1.1 (1:1.1+202109281949+c3084ef5ed)"
   xmlns:inkscape="http://www.inkscape.org/namespaces/inkscape"
   xmlns:sodipodi="http://sodipodi.sourceforge.net/DTD/sodipodi-0.dtd"
   xmlns="http://www.w3.org/2000/svg"
   xmlns:svg="http://www.w3.org/2000/svg"
   xmlns:rdf="http://www.w3.org/1999/02/22-rdf-syntax-ns#"
   xmlns:cc="http://creativecommons.org/ns#"
   xmlns:dc="http://purl.org/dc/elements/1.1/">
  <metadata
     id="metadata34">
    <rdf:RDF>
      <cc:Work
         rdf:about="">
        <dc:format>image/svg+xml</dc:format>
        <dc:type
           rdf:resource="http://purl.org/dc/dcmitype/StillImage" />
      </cc:Work>
    </rdf:RDF>
  </metadata>
  <defs
     id="defs32">
    <filter
       inkscape:collect="always"
       style="color-interpolation-filters:sRGB"
       id="filter6495"
       x="-0.048000001"
       y="-0.048000001"
       width="1.096"
       height="1.096">
      <feGaussianBlur
         inkscape:collect="always"
         stdDeviation="3.2"
         id="feGaussianBlur6497" />
    </filter>
    <filter
       inkscape:collect="always"
       style="color-interpolation-filters:sRGB"
       id="filter9342"
       x="-0.043746389"
       y="-0.053169889"
       width="1.0874928"
       height="1.1063398">
      <feGaussianBlur
         inkscape:collect="always"
         stdDeviation="3.2123516"
         id="feGaussianBlur9344" />
    </filter>
  </defs>
  <sodipodi:namedview
     pagecolor="#ffffff"
     bordercolor="#666666"
     borderopacity="1"
     objecttolerance="10"
     gridtolerance="10"
     guidetolerance="10"
     inkscape:pageopacity="0"
     inkscape:pageshadow="2"
     inkscape:window-width="1920"
     inkscape:window-height="1019"
     id="namedview30"
     showgrid="false"
     inkscape:zoom="1"
     inkscape:cx="143.5"
     inkscape:cy="83"
     inkscape:window-x="0"
     inkscape:window-y="34"
     inkscape:window-maximized="1"
     inkscape:current-layer="svg28"
     inkscape:pagecheckerboard="0"
     inkscape:snap-global="false"
     showguides="true"
     inkscape:snap-bbox="true"
     inkscape:snap-bbox-midpoints="true">
    <inkscape:grid
       type="xygrid"
       id="grid841" />
  </sodipodi:namedview>
  <rect
     id="rect6457"
     transform="matrix(0,-1,-1,0,0,0)"
     ry="12"
     rx="12"
     y="-176"
     x="-180"
     height="160"
     width="160"
     style="opacity:0.2;fill:#000000;fill-opacity:1;stroke-width:4;filter:url(#filter6495)" />
  <path
     id="rect2"
     style="fill:#12bcf4;stroke-width:4"
     transform="matrix(0,-1,-1,0,0,0)"
     d="M -151.95473,-163.00226 -96.975732,-176 H -28 c 6.648,0 12,5.352 12,12 v 136 c 0,6.648 -5.352,12 -12,12 h -136 c -1.86473,0 -3.62749,-0.42108 -5.19878,-1.173731 -4.03055,-1.930648 -3.61873,-12.823009 -3.26278,-17.593018 l 8.94187,-119.826681 c 0.49472,-6.62956 5.0953,-6.87932 11.56496,-8.40883 z"
     sodipodi:nodetypes="scsssssssss" />
  <path
     id="rect81983"
     style="opacity:1;fill:#98e04c;fill-opacity:1;stroke-width:0.7;stroke-linejoin:round"
     d="m 176,94.863281 c -8.85951,10.737659 -18.98077,22.178659 -29.74414,32.482419 l -0.20703,-1.27539 c -0.0995,-3.39269 -0.4553,-6.78504 1.99609,-10.17773 -5.09687,-0.26864 -5.75789,2.51298 -7.12695,4.80859 -2.26124,-4.77071 -7.37926,-4.75635 -12.24024,-5.16992 2.58185,2.42538 4.79945,4.85197 4.99805,7.27734 -5.73925,-1.4869 -5.8967,1.07462 -8.27344,2.02735 l 5.95704,3.12109 c -1.6707,0.85757 -3.25385,2.05407 -4.44922,4.74609 2.82441,-0.0565 5.48689,0.15685 7.29101,1.77735 l 3.50195,0.67969 c -11.49825,9.99223 -23.31856,18.11944 -34.47851,22.09375 -22.08437,7.86473 -57.498455,9.9531 -86.734376,10.14062 C 17.948682,172.37765 22.532972,176 28,176 h 58.756398 l 67.469462,-7.23715 c 6.61008,-0.70904 9.2472,-3.1713 11.28196,-9.50026 L 176,126.6275 Z"
     sodipodi:nodetypes="ccccccccccccscscsscc" />
  <path
     id="path86777"
     style="opacity:1;fill:#6c4b22;stroke-width:0.7;stroke-linejoin:round;fill-opacity:1"
     d="M 176 125.57812 C 159.56277 142.7551 140.12053 159.38296 119.95312 168.64844 C 110.17404 172.13099 97.72066 174.4431 84.396484 176 L 164 176 C 170.648 176 176 170.648 176 164 L 176 125.57812 z " />
  <path
     id="rect9249"
     style="opacity:0.2;fill:#000000;fill-opacity:1;stroke-width:0.347027;stroke-linejoin:round;filter:url(#filter9342)"
     d="m 152.42773,26 c -0.51541,0.0085 -0.96781,0.308764 -1.19335,0.896484 -0.22304,0.581197 0.38066,1.691369 1.60937,2.958985 l 1.9668,2.029297 -2.03125,-0.583985 c -4.81669,-1.381315 -9.89636,1.139264 -23.33399,11.576172 -3.26783,2.538101 -3.67954,2.691532 -7.1289,2.673828 -2.01355,-0.01034 -6.46744,-0.400906 -9.89844,-0.86914 -5.85812,-0.799465 -6.32982,-0.785224 -7.72461,0.226562 -0.81691,0.592585 -1.56266,1.719079 -1.6582,2.503906 -0.28962,2.379105 1.07577,3.528807 4.79296,4.033203 1.86961,0.253704 3.57616,0.636712 3.79102,0.851563 0.21487,0.214852 -0.31938,1.049026 -1.1875,1.853516 -1.07861,0.99956 -1.58008,2.068199 -1.58008,3.375 0,1.051772 -0.35788,2.333771 -0.79687,2.849609 -0.43898,0.515837 -1.82716,3.209047 -3.08399,5.986328 -1.25683,2.77728 -2.46855,5.272513 -2.69336,5.542969 -0.22481,0.270451 -1.44367,0.740728 -2.708981,1.044922 -1.987752,0.477888 -2.728274,0.330112 -5.439453,-1.085938 -3.401811,-1.776765 -4.126239,-3.098208 -3.132812,-5.710937 0.956385,-2.515314 0.73055,-4.085941 -0.847656,-5.878906 -1.231625,-1.399226 -2.59436,-2.056959 -2.986329,-1.56836 0.0019,0.04408 0.01048,0.08708 0.01172,0.13086 l -0.07227,-0.03125 c 0,0 0,-0.002 0,-0.002 0.01615,-0.03742 0.0372,-0.06855 0.06055,-0.09766 -0.03806,-0.874454 -0.181231,-1.794557 -0.492187,-2.292969 -0.254833,-0.408423 -0.960429,-0.742187 -1.566406,-0.742187 -0.914689,0 -1.024995,-0.278491 -0.652344,-1.634766 0.552245,-2.009902 -0.332091,-4.15623 -1.919922,-4.660156 -0.876922,-0.278304 -1.719297,0.184437 -3.214844,1.769531 -2.177001,2.307341 -3.078669,2.558783 -5.109375,1.421875 -0.09042,-0.05062 -0.186754,-0.08159 -0.279297,-0.126953 l -0.002,-0.01953 c -0.204917,-0.100201 -0.415085,-0.186492 -0.625,-0.261719 -0.01843,-0.0066 -0.03625,-0.01123 -0.05469,-0.01758 -0.285271,-0.09927 -0.566495,-0.169976 -0.841797,-0.222656 -0.03038,-0.0056 -0.05973,-0.01251 -0.08984,-0.01758 -0.260389,-0.04539 -0.513177,-0.07564 -0.744141,-0.07813 -0.344039,-0.0037 -0.642219,0.04127 -0.871093,0.132812 l -0.251953,0.07227 c -0.08877,-0.550703 -0.288269,-2.160241 -0.271485,-2.69336 0.03683,-1.168507 0.04653,-1.607232 -0.417969,-1.605468 -0.278681,0.0012 -0.726224,0.160153 -1.443359,0.417968 -0.152996,0.05501 -0.208852,0.336394 -0.357422,0.396485 -0.135808,0.05495 -0.366671,-0.111357 -0.498047,-0.05273 -0.307922,0.137414 -0.601735,0.282687 -0.878906,0.435547 -0.246819,0.136114 -0.372191,0.501295 -0.58789,0.644531 -0.208624,0.138562 -0.509923,0.05652 -0.683594,0.197266 -0.631019,0.511424 -1.00586,1.022643 -1.00586,1.429688 0.0012,0.06616 0.452551,0.739035 0.875,1.349609 -5.94e-4,0.09515 -0.01491,0.178136 0.04492,0.333984 0.204042,0.531688 -0.314426,1.099906 -1.421875,1.558594 -2.611261,1.081541 -4.742376,3.618434 -6.0625,7.216797 -1.020251,2.780976 -1.093488,3.650491 -0.53125,6.375 0.742712,3.599023 3.369025,7.043594 5.816407,7.626953 2.435808,0.580598 3.052734,1.356909 3.052734,3.845703 0,1.875728 0.213469,2.304688 1.142578,2.304688 0.59179,0 1.010481,-0.323636 1.292969,-0.998047 0.08928,-0.212867 0.16589,-0.457083 0.228515,-0.742188 l 0.382813,-1.740234 1.898437,1.121094 c 1.992546,1.175552 3.93135,0.77218 3.060547,-0.636719 -0.306461,-0.495818 -0.226135,-0.604154 0.236328,-0.318359 0.385918,0.23849 0.627469,0.880577 0.53711,1.427734 -0.09036,0.54717 0.169672,0.968221 0.578125,0.935547 0.408452,-0.03267 1.385562,-0.09943 2.171875,-0.148438 1.120122,-0.06983 1.362625,-0.346317 1.11914,-1.277343 -0.188964,-0.722556 -0.01836,-1.1875 0.435547,-1.1875 0.410537,0 1.071526,-0.445088 1.46875,-0.988282 0.119659,-0.163631 0.24896,-0.292321 0.382813,-0.396484 0.01159,-0.009 0.02348,-0.01882 0.03516,-0.02734 0.125834,-0.09244 0.256753,-0.156465 0.390625,-0.199219 0.02339,-0.0073 0.04675,-0.01561 0.07031,-0.02148 0.71598,-0.181506 1.506088,0.325334 2.089844,1.371094 0.04126,0.07371 0.08198,0.147562 0.121094,0.226562 0.101921,0.206952 0.198669,0.423536 0.283203,0.666016 0,0 0,0.002 0,0.002 0.122434,0.351191 0.363104,0.910381 0.585938,1.4375 0.417647,0.987939 0.907609,2.080999 1.384765,3.023438 l 1.330078,2.628906 H 83.34375 c -4.552274,0 -5.384766,0.551237 -5.384766,3.564453 0,2.585449 0.861878,3.564453 3.138672,3.564453 0.942167,0 1.624549,0.228197 1.515625,0.505859 -0.553559,1.41118 -6.835836,7.601568 -7.484375,7.374998 -0.522427,-0.1825 -0.296611,-0.80265 0.742188,-2.037107 1.708834,-2.030694 1.801618,-2.472497 0.707031,-3.380859 -0.602857,-0.500291 -1.23631,-0.190944 -2.701172,1.320312 l -1.914062,1.97461 -7.294922,-3.13086 C 60.656542,94.000838 54.989364,91.89686 52.072266,91.046875 47.229531,89.635803 36.938056,87.531096 36.65625,87.894531 c -0.06469,0.08342 -0.290205,0.874536 -0.501953,1.757813 -0.357192,1.490012 -0.223462,1.631878 1.847656,1.964844 5.826431,0.9367 11.650411,2.39352 16.998047,4.253906 7.443701,2.589578 14.137855,5.576396 13.919922,6.208986 -0.09269,0.26907 -4.016239,4.794 -8.716797,10.05664 -7.965516,8.91802 -8.478464,9.63488 -7.558594,10.55469 0.91987,0.91981 1.152938,0.7939 3.427735,-1.86719 1.596119,-1.86717 2.642183,-2.65467 3.023437,-2.27344 0.381254,0.38123 0.04806,1.28732 -0.964844,2.61524 -1.787459,2.34332 -2.472234,5.03655 -1.878906,7.40039 0.248577,0.99034 3.414832,4.68572 7.898438,9.21679 6.922302,6.99557 7.416085,7.64035 6.578125,8.61524 -1.038255,1.20792 -1.417968,2.13715 -1.195313,3.09179 -0.498361,0.52826 -0.365197,1.77069 0.279297,2.13086 0.327619,0.18311 0.714322,0.14217 1.050781,-0.0566 1.424029,1.26858 3.28431,1.19496 4.332031,-0.30078 0.623768,-0.89048 1.012614,-1.05155 1.759766,-0.72851 0.470103,0.88264 0.866374,1.11221 1.603516,1.02929 0.15635,-0.0177 0.304225,-0.0123 0.328125,0.0117 0.11112,0.11046 1.133182,1.67167 1.132812,1.73047 -2.2e-4,0.0365 -0.05223,0.15853 -0.115234,0.27148 -0.1529,0.27435 -0.243366,0.72442 -0.197266,0.97657 0.06465,0.35399 0.185036,0.51768 1.003907,1.36914 0.820419,0.85311 1.206588,1.18459 1.486328,1.27539 0.39073,0.12688 0.82944,0.0845 1.1875,-0.11524 0.1209,-0.0674 0.250862,-0.12412 0.289062,-0.125 0.03818,-0.001 0.450176,0.25239 0.916016,0.5625 l 0.847656,0.56446 -0.02148,0.21875 c -0.06301,0.67794 0.01114,0.94242 0.361328,1.28515 0.3094,0.30268 0.694945,0.50792 1.728515,0.92383 1.10791,0.4458 1.321335,0.48771 1.771485,0.34571 0.14476,-0.0457 0.256765,-0.12768 0.572265,-0.41211 0.33066,-0.2981 0.40651,-0.34994 0.47461,-0.33204 0.04445,0.0117 0.533017,0.11434 1.085937,0.22852 l 1.00586,0.20703 0.115234,0.29492 c 0.20513,0.52732 0.546236,0.8919 0.972656,1.03907 0.38255,0.132 2.272598,0.1582 2.830078,0.0391 0.34468,-0.0737 0.516891,-0.16995 0.775391,-0.4336 0.17277,-0.17622 0.216658,-0.25307 0.330078,-0.57226 l 0.132813,-0.36914 1.128906,-0.22656 1.130859,-0.22657 0.359379,0.33985 c 0.31972,0.30212 0.38752,0.35007 0.59765,0.42187 0.31595,0.10797 0.54156,0.0981 0.95313,-0.043 0.68494,-0.23485 2.0671,-0.8568 2.3789,-1.07031 0.29117,-0.1994 0.51653,-0.88298 0.45313,-1.37305 -0.017,-0.12758 -0.0199,-0.24226 -0.008,-0.25586 0.062,-0.0682 1.64144,-1.12233 1.71484,-1.14453 0.047,-0.0142 0.17649,0.0201 0.28711,0.0762 0.31264,0.15858 0.52382,0.2186 0.78906,0.2246 0.33212,0.007 0.5176,-0.0606 0.81446,-0.29687 h 0.002 c 0.36299,-0.28871 1.47218,-1.39522 1.76172,-1.75781 0.28328,-0.35468 0.34784,-0.51981 0.33984,-0.86524 -0.006,-0.27614 -0.078,-0.52335 -0.22266,-0.76562 -0.0542,-0.0908 -0.0958,-0.20521 -0.0918,-0.25391 0.004,-0.0487 0.26327,-0.47091 0.57812,-0.9375 l 0.57227,-0.84765 0.1875,0.008 c 0.10243,0.005 0.19708,0.0194 0.20898,0.0312 0.0124,0.0115 0.15974,-0.002 0.32813,-0.0273 0.36344,-0.0553 0.7821,-0.25883 0.9082,-0.44336 0.20536,-0.30051 0.86749,-1.7773 1.06445,-2.37304 0.14631,-0.44261 0.15349,-0.64875 0.0352,-0.96485 -0.0845,-0.22556 -0.14431,-0.31437 -0.41797,-0.61523 l -0.32031,-0.35156 0.22461,-1.12891 0.22265,-1.12891 0.30665,-0.0996 c 0.53312,-0.17313 0.84926,-0.46936 1.01367,-0.94921 0.19141,-0.55865 0.16072,-2.7271 -0.0449,-3.16407 -0.13426,-0.28536 -0.49631,-0.62113 -0.80859,-0.75 -0.14361,-0.0592 -0.30994,-0.12945 -0.36914,-0.15625 -0.0996,-0.0451 -0.12381,-0.13148 -0.32031,-1.15039 l -0.21094,-1.10156 0.25195,-0.23437 c 0.4502,-0.41826 0.623,-0.88456 0.51563,-1.38672 -0.0698,-0.3267 -0.56013,-1.56242 -0.85547,-2.1543 -0.18945,-0.37982 -0.2354,-0.44344 -0.45508,-0.64063 -0.33227,-0.2983 -0.56096,-0.37785 -1.07617,-0.38085 l -0.41406,-0.002 -0.5625,-0.83203 c -0.30927,-0.45753 -0.5625,-0.86786 -0.5625,-0.91016 -10e-6,-0.0422 0.0561,-0.16893 0.12304,-0.2832 0.14827,-0.253 0.20456,-0.48953 0.18946,-0.78711 -0.0274,-0.54045 -0.21749,-0.80928 -1.33008,-1.8789 -0.84058,-0.80804 -1.0452,-0.95733 -1.38477,-1.01953 -0.23394,-0.0428 -0.69625,0.0433 -0.91211,0.16992 -0.33952,0.19922 -0.27295,0.22143 -1.17382,-0.37891 -0.83586,-0.55695 -0.96123,-0.65206 -0.91993,-0.69336 0.0268,-0.0268 0.0357,-0.20907 0.0312,-0.4082 0.55263,0.38827 1.10928,0.76444 1.67579,1.11719 l 21.37695,-23.22266 19.76367,-21.957032 c 0.0757,0.197947 0.15878,0.40177 0.24609,0.59961 0.62901,1.425412 1.01999,1.766373 1.91211,1.666015 0.15635,-0.01761 0.30423,-0.01224 0.32813,0.01172 0.11112,0.11046 1.13318,1.671719 1.13281,1.730469 -2.2e-4,0.03653 -0.0522,0.158531 -0.11523,0.271484 -0.1529,0.274353 -0.24337,0.724412 -0.19727,0.976563 0.0647,0.353987 0.18504,0.517676 1.00391,1.36914 0.82042,0.853111 1.20659,1.184561 1.48633,1.275391 0.39073,0.126886 0.82944,0.0845 1.1875,-0.115235 0.1209,-0.06741 0.25086,-0.12412 0.28906,-0.125 0.0382,-0.0011 0.45017,0.252388 0.91601,0.5625 l 0.84766,0.564454 -0.0215,0.21875 c -0.063,0.677934 0.0111,0.942432 0.36132,1.285156 0.3094,0.302686 0.69495,0.507916 1.72852,0.923828 1.10791,0.445804 1.32133,0.48771 1.77148,0.345703 0.14476,-0.04568 0.25677,-0.12768 0.57227,-0.412109 0.33066,-0.298146 0.40651,-0.349912 0.47461,-0.332032 0.0445,0.01172 0.53302,0.114331 1.08594,0.228516 l 1.00586,0.207031 0.11523,0.294922 c 0.20513,0.527314 0.54624,0.891894 0.97266,1.039063 0.38255,0.13202 2.27259,0.158197 2.83007,0.03906 0.34468,-0.07366 0.5169,-0.169951 0.7754,-0.433594 0.17276,-0.176224 0.21665,-0.253074 0.33007,-0.572265 l 0.13282,-0.369141 1.1289,-0.226562 1.13086,-0.226563 0.35938,0.339844 c 0.31972,0.302114 0.38752,0.350095 0.59765,0.421875 0.31595,0.107959 0.54156,0.09814 0.95313,-0.04297 0.68494,-0.234844 2.0671,-0.856799 2.3789,-1.070312 0.29117,-0.199395 0.51653,-0.88297 0.45313,-1.373047 -0.017,-0.127573 -0.0199,-0.2423 -0.008,-0.25586 0.062,-0.06817 1.64144,-1.122341 1.71484,-1.144531 0.0471,-0.01423 0.17649,0.02007 0.28711,0.07617 0.31264,0.158639 0.52382,0.218509 0.78906,0.224609 0.33212,0.0073 0.51759,-0.06064 0.81446,-0.296875 h 0.002 c 0.36299,-0.288709 1.47218,-1.395218 1.76172,-1.757812 0.28328,-0.354684 0.34784,-0.519807 0.33984,-0.865235 -0.006,-0.276142 -0.078,-0.523357 -0.22266,-0.765624 -0.0542,-0.0908 -0.0958,-0.205207 -0.0918,-0.253907 0.004,-0.0487 0.26327,-0.470903 0.57812,-0.9375 l 0.57227,-0.847656 0.1875,0.0078 c 0.10243,0.0048 0.19708,0.01742 0.20898,0.0293 0.0124,0.01146 0.15974,2.3e-4 0.32813,-0.02539 0.36344,-0.05529 0.7821,-0.258831 0.9082,-0.44336 0.20536,-0.300511 0.86749,-1.777299 1.06445,-2.373046 0.14631,-0.442607 0.15349,-0.650706 0.0352,-0.966797 -0.0845,-0.225562 -0.14431,-0.312419 -0.41797,-0.613282 l -0.32031,-0.351562 0.22461,-1.130859 0.22265,-1.128907 0.30665,-0.09961 c 0.53311,-0.173141 0.84926,-0.467413 1.01367,-0.947266 0.19141,-0.558651 0.16071,-2.729044 -0.0449,-3.166015 -0.13427,-0.285362 -0.49631,-0.61918 -0.80859,-0.748047 -0.14361,-0.05926 -0.30994,-0.12947 -0.36914,-0.15625 -0.0995,-0.04514 -0.12381,-0.131484 -0.32031,-1.150391 l -0.21094,-1.103515 0.25195,-0.232422 c 0.4502,-0.418254 0.623,-0.884558 0.51563,-1.386719 -0.0698,-0.326696 -0.56013,-1.562416 -0.85547,-2.154297 -0.18945,-0.379819 -0.2354,-0.443449 -0.45508,-0.640625 C 183.2439,64.46736 183.01521,64.385413 182.5,64.382812 l -0.41406,-0.002 -0.5625,-0.830078 c -0.30927,-0.457535 -0.5625,-0.867886 -0.5625,-0.910156 -1e-5,-0.04223 0.0561,-0.168937 0.12304,-0.283203 0.14827,-0.253 0.20456,-0.489537 0.18946,-0.78711 -0.0274,-0.540451 -0.21944,-0.809289 -1.33203,-1.878906 -0.84058,-0.808042 -1.04325,-0.959324 -1.38282,-1.021484 -0.23394,-0.04282 -0.69625,0.04522 -0.91211,0.171875 -0.33952,0.199218 -0.27295,0.219481 -1.17382,-0.380859 -0.83586,-0.556954 -0.96123,-0.650087 -0.91993,-0.691407 0.0565,-0.05651 0.0337,-0.790912 -0.0293,-0.958984 -0.094,-0.248752 -0.41267,-0.569378 -0.79102,-0.791016 -0.58736,-0.344067 -2.17504,-0.975606 -2.52148,-1.003906 -0.35026,-0.0286 -0.88141,0.239166 -1.30664,0.658203 l -0.14453,0.142578 -1.10157,-0.222656 -1.09961,-0.224609 -0.11328,-0.28125 c -0.19043,-0.473115 -0.50248,-0.832193 -0.86328,-0.992188 -0.2474,-0.10971 -2.54068,-0.133364 -3.03906,-0.03125 -0.50875,0.104254 -0.81495,0.399056 -0.99219,0.957031 l -0.10547,0.332032 -1.13867,0.232422 -1.14062,0.232421 -0.14258,-0.144531 c -0.39314,-0.388836 -0.88544,-0.656515 -1.22852,-0.666016 -0.21093,-0.0059 -0.74514,0.174922 -1.55859,0.527344 -1.00129,0.433804 -1.40127,0.649875 -1.53516,0.830078 -0.19228,0.258757 -0.30383,0.658081 -0.29883,1.066407 l 0.004,0.375 -0.74609,0.503906 c -0.41031,0.277764 -0.78072,0.542237 -0.82422,0.585937 -0.0393,0.03946 -0.09,0.05783 -0.14453,0.06641 l -0.23829,-0.240235 0.17969,-0.18164 a 0.7401703,0.74710673 0 0 0 0,-1.056641 0.7401703,0.74710673 0 0 0 -1.04687,0 l -0.17969,0.181641 -0.59375,-0.59961 0.17969,-0.18164 a 0.7401703,0.74710673 0 0 0 0,-1.056641 0.7401703,0.74710673 0 0 0 -1.04688,0 l -0.17969,0.181641 -0.59374,-0.59961 0.17968,-0.18164 a 0.7401703,0.74710673 0 0 0 0,-1.056641 0.7401703,0.74710673 0 0 0 -1.04687,0 l -0.17969,0.181641 -2.16992,-2.191407 c 2.00055,-1.255589 4.31285,-2.075372 6.85351,-2.279297 5.19029,-0.416598 7.50233,0.112515 11.11133,2.541016 1.68166,1.131598 3.27696,2.056641 3.54492,2.056641 0.91402,0 1.27119,-3.5542 0.57032,-5.677735 -0.60217,-1.824439 -0.55362,-2.280498 0.35742,-3.287109 1.4888,-1.644988 0.5364,-4.100228 -2.10352,-5.421875 -2.58842,-1.295852 -10.89039,-9.497346 -10.10547,-9.982422 0.33016,-0.204034 -0.0464,-0.958996 -0.85937,-1.722656 -0.79621,-0.747947 -1.7056,-1.19986 -2.01953,-1.00586 C 154.99077,27.576819 154.4038,27.338067 154,26.851562 153.52186,26.275462 152.94313,25.991481 152.42773,26 Z m -38.25976,26.173828 2.24414,0.347656 c 1.23397,0.190471 2.36259,0.448003 2.50781,0.574219 0.14523,0.126199 -0.28707,0.781265 -0.96094,1.455078 l -1.2246,1.226563 -1.28321,-1.800782 z m 29.17969,4.472656 2.25195,2.273438 -0.17969,0.18164 a 0.7401703,0.74710673 0 0 0 0,1.056641 0.7401703,0.74710673 0 0 0 1.04688,0 l 0.17968,-0.181641 0.59571,0.59961 -0.18164,0.18164 a 0.7401703,0.74710673 0 0 0 0,1.056641 0.7401703,0.74710673 0 0 0 1.04687,0 l 0.18164,-0.181641 0.59375,0.59961 -0.18164,0.183594 a 0.7401703,0.74710673 0 0 0 0,1.05664 0.7401703,0.74710673 0 0 0 1.04688,0 l 0.18164,-0.183594 0.39258,0.394532 -0.47071,0.701172 -0.42968,0.0039 c -0.45914,0.0045 -0.77266,0.09167 -1.02735,0.285156 -0.11814,0.08976 -0.18911,0.19269 -0.33984,0.492188 -0.29038,0.576908 -0.65642,1.423279 -0.84571,1.957031 -0.2816,0.79405 -0.19446,1.114488 0.52149,1.908203 l 0.13476,0.148438 -0.125,0.537109 c -0.0693,0.295517 -0.17106,0.796161 -0.22656,1.111328 l -0.10156,0.572266 -0.32617,0.117187 c -0.26568,0.09469 -0.37236,0.157104 -0.56641,0.330078 -0.44364,0.39547 -0.51553,0.671872 -0.51953,2.015625 -0.003,0.873658 0.0394,1.462619 0.11719,1.652344 0.16807,0.409685 0.56281,0.764633 1.02539,0.919922 l 0.26562,0.08789 0.21485,1.089843 c 0.1181,0.598564 0.21012,1.109962 0.20312,1.138672 -0.007,0.02862 -0.14234,0.201473 -0.30078,0.382813 -0.15554,0.178013 -0.26499,0.332608 -0.33984,0.484375 l -1.38672,-1.289063 c -2.8639,-2.66531 -4.13392,-5.07766 -4.92188,-9.339844 -0.84287,-4.559193 0.17994,-8.926353 2.47071,-12.34375 z M 72.244141,103.82031 c 0.264707,-0.0207 0.367187,0.21361 0.367187,0.6543 0,0.79179 -11.748651,13.50717 -12.128906,13.12695 -0.730949,-0.7309 -0.177825,-1.50777 5.544922,-7.8164 3.804755,-4.19427 5.540329,-5.91207 6.216797,-5.96485 z m 19.085937,15.34766 c 3.990098,-0.10802 7.101874,1.76896 10.083982,3.90039 -0.0656,-0.0167 -0.16483,-0.0496 -0.20312,-0.0527 -0.35026,-0.0286 -0.88141,0.23917 -1.306643,0.65821 l -0.144531,0.14258 -1.101563,-0.22266 -1.099609,-0.22461 -0.113282,-0.28125 c -0.190429,-0.47312 -0.502481,-0.8322 -0.863281,-0.99219 -0.2474,-0.1097 -2.540682,-0.13141 -3.039062,-0.0293 -0.50875,0.10425 -0.814948,0.39709 -0.992188,0.95507 l -0.105469,0.33204 -1.138671,0.23242 -1.140625,0.23242 -0.142578,-0.14453 c -0.393141,-0.38884 -0.885436,-0.65406 -1.228516,-0.66406 -0.21093,-0.006 -0.745144,0.17492 -1.558594,0.52734 -1.00129,0.4338 -1.401266,0.64792 -1.535156,0.82812 -0.19228,0.25876 -0.303828,0.65809 -0.298828,1.06641 l 0.0039,0.375 -0.746094,0.50586 c -0.326662,0.22113 -0.524777,0.36563 -0.65625,0.46484 a 0.7401703,0.74710673 0 0 0 -0.199218,-0.6914 0.7401703,0.74710673 0 0 0 -1.046876,0 l -0.177734,0.17968 -0.59375,-0.5996 0.177734,-0.17969 a 0.7401703,0.74710673 0 0 0 0,-1.05664 0.7401703,0.74710673 0 0 0 -1.046874,0 l -0.177735,0.17969 -0.388672,-0.39063 c 1.703216,-1.83694 3.740491,-3.42546 5.564453,-4.1875 1.328049,-0.55486 3.233449,-0.83879 5.214844,-0.86328 z m -64.085937,5.12305 c -0.133889,0.002 -0.275224,0.0224 -0.423829,0.0644 -0.781925,0.22127 -1.010582,0.55914 -0.904296,1.33984 0.07815,0.57404 0.439908,1.13171 0.804687,1.24024 0.920749,0.27394 1.146115,0.17177 1.529297,-0.69336 0.465998,-1.0521 -0.06864,-1.96462 -1.005859,-1.95117 z M 154,125.00391 c -0.0911,-0.002 -3.51116,-0.0767 -7.13086,1.73437 C 142.87839,128.73336 139,133.44545 139,140 a 3.0003,3.0003 0 0 0 3,3 h 8 a 3.0003,3.0003 0 0 0 3,-3 c 0,-1 0.0573,-0.67418 0.3418,-0.81641 C 153.62625,139.04136 154,139 154,139 c 0,0 0.37375,0.0414 0.6582,0.18359 C 154.94266,139.32582 155,139 155,140 c 0,1.58221 -0.12074,1.69247 -0.9668,2.75 a 3.0003,3.0003 0 0 0 -0.002,0.002 c -0.70304,0.87903 -2.2603,2.16691 -4.23047,3.64453 -1.97016,1.47763 -4.53034,3.30886 -6.76758,6.10547 C 140.71749,155.39672 139,159.37047 139,164 v 4 a 3.0003,3.0003 0 0 0 3,3 h 24 a 3.0003,3.0003 0 0 0 3,-3 v -8 a 3.0003,3.0003 0 0 0 -3,-3 h -7.02539 c 1.84925,-1.38393 4.01924,-3.0341 5.99219,-5.5 v -0.002 C 167.28256,148.60328 169,144.62953 169,140 c 0,-6.55455 -3.87839,-11.26664 -7.86914,-13.26172 -3.6192,-1.80977 -7.03978,-1.73652 -7.13086,-1.73437 z M 23.755859,128.2793 c -0.175928,-0.001 -0.349046,0.03 -0.521484,0.0937 -0.41384,0.15295 -0.825254,0.49288 -1.257813,1.02343 -0.530408,0.65055 -0.611331,1.1644 -0.267578,1.68555 0.271922,0.41224 0.518619,1.74297 0.548828,2.95703 0.04457,1.79143 0.194212,2.30136 0.78711,2.70899 1.1529,0.79264 2.308311,0.18279 3.417969,-1.80274 1.212028,-2.1687 0.890252,-4.03079 -0.996094,-5.77929 -0.631586,-0.58544 -1.183152,-0.88239 -1.710938,-0.88672 z m 9.492188,0.13867 c -0.08428,0.001 -0.163567,0.01 -0.242188,0.0273 -0.314507,0.0712 -0.604774,0.27842 -1.02539,0.65625 -0.539885,0.48498 -1.090651,1.28279 -1.22461,1.77344 -0.197907,0.72487 -0.0062,0.99604 1.019532,1.44336 0.882578,0.38487 1.563279,0.37801 2.261718,-0.0234 2.156756,-1.23968 2.228318,-3.03767 0.146485,-3.6914 -0.391902,-0.12307 -0.682712,-0.18977 -0.935547,-0.18555 z m 44.212891,1.81641 0.59375,0.5996 -0.181641,0.18164 a 0.7401703,0.74710673 0 0 0 0,1.05665 0.7401703,0.74710673 0 0 0 1.046875,0 l 0.18164,-0.18165 0.04883,0.0488 -0.298829,0.44532 -0.429687,0.004 c -0.45914,0.004 -0.772654,0.0917 -1.027344,0.28516 -0.11814,0.0898 -0.189114,0.19269 -0.339843,0.49219 -0.243253,0.48327 -0.519805,1.12533 -0.720704,1.64453 0.05934,-1.47817 0.20728,-2.90384 0.525391,-4.19727 a 0.7401703,0.74710673 0 0 0 0.419922,-0.19726 z m -61.589844,0.33789 c -0.139408,-0.0147 -0.279536,-0.008 -0.414063,0.0195 v 0.002 c -0.0769,0.0157 -0.152623,0.0388 -0.224609,0.0664 -0.343439,0.14034 -0.60908,0.43417 -0.648438,0.86718 -0.04754,0.52313 0.23222,0.94203 0.761719,1.13868 1.152586,0.42805 2.010634,-0.32463 1.550781,-1.36133 -0.19974,-0.4503 -0.607168,-0.6882 -1.02539,-0.73242 z m 14.048828,4.60937 c -0.105237,-0.007 -0.205285,-0.004 -0.302734,0.0117 -0.08542,0.0132 -0.167747,0.0357 -0.246094,0.0664 -1.180515,0.44182 -1.590871,2.55847 -0.275391,3.46289 0.371877,0.25567 1.008195,0.37071 1.414063,0.25586 1.696424,-0.48006 1.504744,-3.22235 -0.261719,-3.73829 -0.112181,-0.0328 -0.222888,-0.0512 -0.328125,-0.0586 z m 46.36914,1.29492 c 0.10668,0.16331 0.249071,0.34146 0.441407,0.55469 l 0.134765,0.14844 -0.125,0.53906 c -0.06925,0.29552 -0.171062,0.79422 -0.226562,1.10937 l -0.07031,0.39063 c -0.08164,-0.92144 -0.140771,-1.83881 -0.154297,-2.74219 z M 13.6875,136.99805 c -0.150766,-0.004 -0.293948,0.0115 -0.425781,0.0488 -2.432595,0.68837 -2.650044,4.46964 -0.304688,5.29882 2.071542,0.73236 4.088819,-1.19799 3.484375,-3.33398 -0.285162,-1.0077 -1.698541,-1.98505 -2.753906,-2.01367 z m 25.275391,0.16015 c -0.133753,0.009 -0.269551,0.0291 -0.404297,0.0586 -0.898299,0.19654 -1.753128,0.81375 -1.69336,1.48828 0.09314,1.05115 2.150813,3.82446 3.644532,4.91015 0.632634,0.45983 1.413645,0.76069 1.734375,0.66993 1.447137,-0.40952 2.774324,-5.34155 1.791015,-6.65625 -0.247693,-0.33117 -0.973628,-0.3863 -1.841797,-0.14063 -0.788314,0.22308 -1.760974,0.18064 -2.160156,-0.0937 -0.28581,-0.19649 -0.669054,-0.2643 -1.070312,-0.23633 z m -4.738282,0.97071 c -0.231138,0.0141 -0.514226,0.0594 -0.86914,0.1289 -1.384407,0.2712 -1.792674,0.60952 -2.705078,2.24219 -1.206348,2.15853 -2.581884,2.92182 -2.611329,1.44922 -0.01,-0.49628 -0.461126,-1.28849 -1.003906,-1.75977 -1.346765,-1.1693 -3.866421,-0.52764 -4.085937,1.04102 -0.138172,0.98747 -0.156758,0.97901 -0.248047,-0.125 -0.130271,-1.57548 -1.355088,-3.16706 -2.242188,-2.91602 -1.111439,0.31453 -4.005165,3.82081 -4.039062,4.89453 -0.06586,2.08578 3.428741,2.33882 5.486328,0.39649 0.653883,-0.61725 1.031366,-0.77308 1.119141,-0.46289 0.251216,0.88774 1.962051,1.61048 3.070312,1.29687 1.019488,-0.2885 1.13091,-0.19152 1.351563,1.17969 0.187773,1.16688 0.544631,1.66403 1.621093,2.26563 0.758709,0.42403 1.576599,0.71685 1.81836,0.64843 0.819925,-0.23202 1.646567,-2.27768 1.347656,-3.33398 -0.240331,-0.84929 -0.08829,-1.10969 0.787109,-1.35742 1.570973,-0.44455 3.014885,-3.21747 2.423828,-4.6543 -0.301704,-0.73341 -0.527288,-0.9759 -1.220703,-0.93359 z m 18.521485,5.03125 c -0.179564,-0.001 -0.361052,0.0235 -0.541016,0.0742 -0.719849,0.20292 -1.409423,0.81332 -1.796875,1.7539 -0.664894,1.61412 -0.38147,2.885 0.871094,3.90625 2.435636,1.98581 4.919145,-2.26205 2.90625,-4.9707 -0.383104,-0.51551 -0.900762,-0.75974 -1.439453,-0.76367 z m -15.50586,0.98437 c -0.522248,-0.005 -1.019397,0.0604 -1.445312,0.19922 -0.567892,0.18507 -1.009382,0.50147 -1.212891,0.96094 -0.340063,0.76778 -0.166707,0.98923 1.455078,1.86328 1.012027,0.54543 2.167716,1.22516 2.570313,1.50976 1.711844,1.2101 3.907374,-0.96702 2.748047,-2.72461 -0.758756,-1.1503 -2.548488,-1.79326 -4.115235,-1.80859 z m 22.054688,0.41602 c -0.113031,-0.002 -0.215684,0.0178 -0.314453,0.0625 -0.329229,0.14911 -0.61081,0.58141 -1.050781,1.47461 -1.125546,2.28505 -0.593149,4.36299 1.318359,5.15039 2.057446,0.84751 3.261509,0.32123 3.128906,-1.36719 l -0.111328,-1.39063 0.107422,0.0762 -0.353516,-0.92969 c -0.07361,-0.0442 -0.15628,-0.12652 -0.25,-0.26172 -0.21305,-0.30736 -0.572768,-0.99631 -0.798828,-1.53125 -0.226076,-0.53494 -0.810791,-1.08408 -1.300781,-1.2207 -0.138532,-0.0387 -0.261969,-0.0608 -0.375,-0.0625 z m -36.63086,1.64257 c -0.177679,-0.007 -0.367809,-0.007 -0.572265,0.002 -0.152822,0.006 -0.303172,0.0284 -0.451172,0.0625 -0.147907,0.0345 -0.293879,0.0816 -0.435547,0.14062 -1.982916,0.82738 -3.265178,3.9274 -1.705078,5 0.421884,0.29005 1.421139,0.27481 2.537109,-0.041 2.110507,-0.59723 3.218326,-2.07303 2.763672,-3.67969 -0.282449,-0.99812 -0.892965,-1.43653 -2.136719,-1.48438 z m -10.875,0.82618 c -0.110261,0.008 -0.219223,0.0325 -0.326171,0.0703 -0.513342,0.18159 -0.981006,0.70197 -1.337891,1.56836 -0.7152969,1.73647 -0.373243,2.8967 1.119141,3.79297 0.654266,0.39293 1.530407,0.61796 1.947265,0.5 1.164794,-0.32961 1.659546,-2.49343 0.90625,-3.96485 -0.698422,-1.36422 -1.536763,-2.02547 -2.308594,-1.96679 z m 32.38086,1.0625 c -0.513161,0 -0.952209,0.0533 -1.19336,0.16015 -1.794862,0.79557 0.0018,3.96942 2.392579,4.22657 4.112294,0.44233 4.511834,-3.41772 0.4375,-4.22657 -0.537311,-0.10667 -1.123558,-0.16016 -1.636719,-0.16015 z m -7.398438,0.92382 c -0.261581,-0.0225 -0.50912,0.007 -0.740234,0.082 -1.617778,0.52094 -2.419187,3.2325 -1.414062,5.55078 0.637703,1.47084 0.611157,1.54779 -0.957032,2.71679 -0.887728,0.66176 -1.640313,1.48675 -1.671875,1.83399 -0.09586,1.05478 0.791565,2.16635 1.884766,2.35937 1.865512,0.32941 3.658861,-0.42693 4.716797,-1.98828 1.12318,-1.65762 1.658179,-3.75732 1.142578,-4.48242 -0.189052,-0.26587 -0.383864,-1.49364 -0.433594,-2.72656 -0.09882,-2.44924 -0.655665,-3.18436 -2.527344,-3.34571 z m -8.632812,0.74805 c -0.11927,-0.005 -0.236667,0.002 -0.351563,0.0215 -0.122562,0.0206 -0.242263,0.0572 -0.357421,0.10742 -0.26298,0.11577 -0.503655,0.31249 -0.705079,0.60547 -0.726252,1.05634 0.161787,3.56737 1.558594,4.40625 1.396126,0.83847 2.0685,0.73188 2.71875,-0.43164 1.086615,-1.94431 -1.074238,-4.63584 -2.863281,-4.70899 z m 28.730469,0.96875 c -0.283855,-0.0109 -0.574366,0.0317 -0.855469,0.125 -0.674641,0.22395 -1.293747,0.74496 -1.628906,1.5586 -0.518681,1.25914 -0.531879,1.26541 -1.507813,0.65429 -1.214315,-0.76041 -3.950304,-0.10119 -4.472656,1.07813 -0.47154,1.0646 0.699521,2.76152 2.085937,3.02344 0.904073,0.1708 0.978206,0.30378 0.660157,1.16015 -0.605152,1.62943 0.607823,4.17424 2.242187,4.70313 1.247447,0.40365 2.07349,-0.27972 2.265625,-1.87305 0.172497,-1.42945 0.05775,-1.83505 -0.917969,-3.23828 -1.394022,-2.00492 -1.154358,-3.1479 0.53711,-2.5586 2.217746,0.77264 4.131743,-0.91741 3.513672,-3.10156 -0.280935,-0.99276 -1.070312,-1.49839 -1.921875,-1.53125 z m 5.359375,2.97656 c -0.07208,0.007 -0.132924,0.0214 -0.179688,0.0449 -1.883304,0.94725 -0.0196,5.66352 2.466797,6.24218 0.72559,0.16889 2.059534,0.0493 2.964844,-0.26562 1.402126,-0.48783 1.657784,-0.77048 1.726562,-1.90235 0.07013,-1.15397 -0.07408,-1.38139 -1.097656,-1.73242 -0.648204,-0.22228 -2.124675,-0.91662 -3.28125,-1.54297 -1.017248,-0.5509 -2.095051,-0.8929 -2.599609,-0.84375 z M 43.5625,156.44922 c -0.172044,0.0165 -0.36484,0.0557 -0.582031,0.11719 -1.389657,0.39324 -1.609613,1.60688 -0.435547,2.41406 0.373675,0.25692 0.918741,0.40049 1.208984,0.31836 0.778794,-0.22039 1.248174,-1.55346 0.835938,-2.37305 -0.187427,-0.37264 -0.511212,-0.52614 -1.027344,-0.47656 z m 15.167969,1.52344 c -0.178712,-0.006 -0.368344,0.007 -0.56836,0.043 -0.228582,0.0413 -0.469167,0.11196 -0.71875,0.21485 -1.407201,0.57833 -1.375001,2.41313 0.05273,2.94336 1.193338,0.4432 1.844977,0.22763 2.421875,-0.80469 0.734792,-1.31479 0.06349,-2.35152 -1.1875,-2.39648 z m -34.240235,0.38086 c -0.304902,-0.008 -0.70594,0.0419 -1.152343,0.13476 -0.446411,0.0928 -0.938478,0.22919 -1.429688,0.38867 -1.473671,0.47833 -2.931978,1.17672 -3.066406,1.62891 -0.294646,0.99111 -0.04374,1.58389 0.833984,1.97266 0.428335,0.18972 0.968944,1.01724 1.201172,1.83789 0.232232,0.82067 0.83355,1.74791 1.335938,2.0625 0.502385,0.31459 1.048665,0.53475 1.21289,0.48828 0.791078,-0.22386 2.062293,-2.68116 2.345703,-4.53516 0.39019,-2.55249 0.09269,-3.71587 -1.009765,-3.94922 -0.07868,-0.0166 -0.169851,-0.0265 -0.271485,-0.0293 z m 23.679688,0.35546 c -0.160402,-0.0188 -0.33985,0.004 -0.535156,0.0762 -0.223206,0.0824 -0.466354,0.22885 -0.728516,0.45117 -0.518526,0.43968 -1.560259,0.97463 -2.3125,1.1875 -2.221388,0.62861 -2.671409,2.57945 -0.832031,3.60742 1.15082,0.64316 2.867553,0.0849 4.220703,-1.375 1.518561,-1.63829 1.310312,-3.81528 0.1875,-3.94727 z m 21.220703,3.08985 c -0.114604,0.002 -0.22954,0.0183 -0.341797,0.0527 -0.128141,0.0399 -0.25416,0.10208 -0.371094,0.18946 -0.625741,0.46802 -0.441706,2.14978 0.279297,2.55273 0.596995,0.33365 1.499373,-0.29069 1.775391,-1.22852 0.246723,-0.83828 -0.539567,-1.57885 -1.341797,-1.5664 z M 39.763672,162.875 c -0.08968,0.001 -0.176189,0.0114 -0.261719,0.0293 -0.342119,0.0715 -0.671584,0.27774 -1.148437,0.65429 -0.96217,0.7599 -1.652129,2.11395 -1.447266,2.83789 0.03235,0.11436 0.463431,0.43313 0.957031,0.70899 1.057429,0.59096 2.977485,-0.22137 3.861328,-1.63281 0.775978,-1.23919 0.483591,-1.94551 -0.996093,-2.41016 -0.396861,-0.12464 -0.695792,-0.19169 -0.964844,-0.1875 z m 22.550781,0.46484 c -0.162279,-0.0136 -0.334813,-0.007 -0.517578,0.0215 -0.09462,0.0145 -0.186021,0.0399 -0.273437,0.0723 -1.311837,0.48228 -1.803179,2.81034 -0.748047,4.05469 1.138151,1.34225 2.844671,0.64612 3.078125,-1.2539 0.208407,-1.69617 -0.403108,-2.79923 -1.539063,-2.89454 z m -12.960937,2.99805 c -0.16355,-0.0152 -0.329664,-0.009 -0.496094,0.0195 -0.110969,0.0192 -0.220871,0.0487 -0.330078,0.0899 l -0.002,-0.002 c -0.328167,0.12151 -0.642751,0.34257 -0.916016,0.67774 -0.784032,0.96162 -0.546167,2.55693 0.466797,3.12304 1.012964,0.56612 2.498046,-0.0665 2.90625,-1.23828 0.497952,-1.42929 -0.484061,-2.56361 -1.628906,-2.66992 z" />
  <path
     id="path104212"
     style="opacity:0.2;fill:#ffffff;stroke-width:0.7;stroke-linejoin:round;fill-opacity:1"
     d="M 176 94.863281 C 167.14049 105.60094 157.01923 117.04194 146.25586 127.3457 L 146.04883 126.07031 C 146.02685 125.32107 145.9964 124.57148 145.98242 123.82227 C 145.96682 124.90491 146.01708 125.98763 146.04883 127.07031 L 146.25586 128.3457 C 157.01923 118.04194 167.14049 106.60094 176 95.863281 L 176 94.863281 z M 128.67773 115.53125 C 129.06625 115.89622 129.42073 116.25998 129.78711 116.625 C 134.29768 116.97482 138.8288 117.29348 140.91797 121.70117 C 142.224 119.51125 142.93108 116.91076 147.41406 116.90625 C 147.60555 116.56836 147.80077 116.23048 148.04492 115.89258 C 142.94805 115.62394 142.28703 118.40556 140.91797 120.70117 C 138.65673 115.93046 133.53871 115.94482 128.67773 115.53125 z M 130.29688 122.36328 C 127.71994 122.50108 127.1849 124.12139 125.40234 124.83594 L 126.33008 125.32227 C 127.94187 124.21039 128.78453 122.54139 133.67578 123.80859 C 133.64733 123.46112 133.56741 123.11314 133.46094 122.76562 C 132.14374 122.4415 131.10744 122.31994 130.29688 122.36328 z M 130.46094 128.48633 C 129.12915 129.32003 127.88756 130.50198 126.91016 132.70312 C 127.07954 132.69974 127.24013 132.71018 127.4082 132.70898 C 128.5294 130.70228 129.91092 129.70052 131.35938 128.95703 L 130.46094 128.48633 z M 136.74023 135.97266 C 125.54515 145.58434 114.07412 153.39015 103.22461 157.25391 C 81.140239 165.11864 45.726155 167.20701 16.490234 167.39453 C 16.590886 167.73843 16.741403 168.05848 16.871094 168.38867 C 46.034787 168.18581 81.233989 166.08525 103.22461 158.25391 C 114.38456 154.2796 126.20488 146.15239 137.70312 136.16016 L 136.74023 135.97266 z " />
  <path
     id="rect6416"
     style="opacity:0.2;fill:#ffffff;fill-opacity:1;stroke-width:4"
     d="m 28,16 c -6.648,0 -12,5.352 -12,12 v 1 c 0,-6.648 5.352,-12 12,-12 h 136 c 6.648,0 12,5.352 12,12 v -1 c 0,-6.648 -5.352,-12 -12,-12 z" />
  <rect
     style="fill:#a4a4a4;fill-opacity:1;stroke-width:0.347035;stroke-linejoin:round"
     id="rect6222"
     width="6.428731"
     height="19.722546"
     x="-34.520836"
     y="136.19836"
     transform="matrix(0.70380129,-0.71039689,0.70380129,0.71039689,0,0)" />
  <path
     id="path6224"
     style="color:#000000;fill:#bb2222;fill-opacity:1;stroke-width:0.495754;stroke-linecap:round;stroke-linejoin:round;-inkscape-stroke:none"
     d="m 74.591631,124.70377 a 0.7401703,0.74710673 0 0 0 0,1.05656 0.7401703,0.74710673 0 0 0 1.04676,0 l 4.88487,-4.93065 a 0.7401703,0.74710673 0 0 0 0,-1.05657 0.7401703,0.74710673 0 0 0 -1.046759,0 z m 1.641009,1.65639 a 0.7401703,0.74710673 0 0 0 0,1.05657 0.7401703,0.74710673 0 0 0 1.04676,0 l 4.884879,-4.93066 a 0.7401703,0.74710673 0 0 0 0,-1.05657 0.7401703,0.74710673 0 0 0 -1.04676,0 z m 1.641018,1.65639 a 0.7401703,0.74710673 0 0 0 0,1.05657 0.7401703,0.74710673 0 0 0 1.04676,0 l 4.88487,-4.93066 a 0.7401703,0.74710673 0 0 0 0,-1.05656 0.7401703,0.74710673 0 0 0 -1.046759,0 z m 1.641009,1.65639 a 0.7401703,0.74710673 0 0 0 0,1.05657 0.7401703,0.74710673 0 0 0 1.04676,0 l 4.88487,-4.93065 a 0.7401703,0.74710673 0 0 0 0,-1.05657 0.7401703,0.74710673 0 0 0 -1.046751,0 z m 1.641695,1.65708 a 0.7401703,0.74710673 0 0 0 0,1.05657 0.7401703,0.74710673 0 0 0 1.046759,0 l 4.884871,-4.93066 a 0.7401703,0.74710673 0 0 0 0,-1.05656 0.7401703,0.74710673 0 0 0 -1.046751,0 z" />
  <path
     style="fill:#4c4c4c;fill-opacity:1;stroke-width:0.0407656"
     d="m 108.1728,153.97525 c -0.29686,0.23624 -0.4836,0.3042 -0.81572,0.29686 -0.26524,-0.006 -0.47656,-0.0661 -0.7892,-0.22468 -0.11062,-0.0561 -0.23957,-0.0904 -0.28662,-0.0762 -0.0734,0.0222 -1.6522,1.07632 -1.71419,1.14448 -0.0121,0.0136 -0.009,0.12878 0.008,0.25636 0.0634,0.49007 -0.16194,1.17251 -0.45311,1.37191 -0.3118,0.21351 -1.69456,0.83549 -2.3795,1.07034 -0.41157,0.14111 -0.63705,0.15137 -0.953,0.0434 -0.21013,-0.0718 -0.27741,-0.11927 -0.59713,-0.42139 l -0.360324,-0.34049 -1.130343,0.22642 -1.13037,0.22646 -0.13111,0.36896 c -0.11342,0.31919 -0.15806,0.39647 -0.33083,0.57269 -0.2585,0.26365 -0.43011,0.35964 -0.77479,0.4333 -0.55748,0.11914 -2.4489,0.0932 -2.83145,-0.0388 -0.42642,-0.14717 -0.76754,-0.51153 -0.97267,-1.03885 l -0.11462,-0.29464 -1.00533,-0.2076 c -0.55292,-0.11418 -1.0417,-0.21719 -1.08615,-0.22891 -0.0681,-0.0179 -0.1433,0.035 -0.47396,0.3331 -0.3155,0.28443 -0.42869,0.36563 -0.57345,0.41131 -0.45015,0.14201 -0.66392,0.10033 -1.77183,-0.34547 -1.03357,-0.41591 -1.41789,-0.62155 -1.72729,-0.92423 -0.35019,-0.34273 -0.42453,-0.60665 -0.36152,-1.28459 l 0.0204,-0.21978 -0.84704,-0.56382 c -0.46584,-0.31011 -0.87825,-0.56292 -0.91643,-0.5618 -0.0382,8.8e-4 -0.16832,0.0572 -0.28922,0.12464 -0.35806,0.19973 -0.79582,0.24233 -1.18655,0.11545 -0.27974,-0.0908 -0.66676,-0.42288 -1.48718,-1.27599 -0.81887,-0.85146 -0.93887,-1.01521 -1.00352,-1.3692 -0.0461,-0.25215 0.0451,-0.70161 0.198,-0.97596 0.063,-0.11295 0.11463,-0.23528 0.11485,-0.27181 3.7e-4,-0.0588 -1.02137,-1.62002 -1.13249,-1.73048 -0.0239,-0.024 -0.1716,-0.0291 -0.32795,-0.0114 -0.89212,0.10035 -1.28422,-0.24122 -1.91323,-1.66663 -0.32987,-0.74747 -0.60908,-1.59422 -0.59221,-1.79587 0.0288,-0.34522 0.15647,-0.60701 0.47159,-0.96765 0.15844,-0.18134 0.29361,-0.3531 0.30035,-0.38171 0.007,-0.0287 -0.0843,-0.54172 -0.2024,-1.14029 l -0.21471,-1.08826 -0.26651,-0.0895 c -0.46258,-0.15529 -0.85738,-0.50907 -1.02545,-0.91875 -0.0778,-0.18973 -0.11936,-0.77957 -0.11645,-1.65323 0.004,-1.34375 0.0757,-1.62041 0.51934,-2.01588 0.19405,-0.17297 0.30007,-0.23472 0.56575,-0.3294 l 0.32693,-0.11653 0.10092,-0.57302 c 0.0555,-0.31516 0.1576,-0.81481 0.22685,-1.11033 l 0.1259,-0.53731 -0.13443,-0.14913 c -0.71595,-0.79371 -0.80369,-1.11451 -0.52209,-1.90856 0.18929,-0.53376 0.55462,-1.37972 0.845,-1.95662 0.15073,-0.2995 0.22149,-0.40195 0.33963,-0.49171 0.25469,-0.19349 0.5694,-0.28076 1.02854,-0.28524 l 0.42889,-0.004 0.5143,-0.76587 c 0.28285,-0.42123 0.54984,-0.82035 0.59326,-0.88691 0.0728,-0.11161 0.0691,-0.1425 -0.0477,-0.39792 -0.0697,-0.15232 -0.14486,-0.33663 -0.16705,-0.40959 -0.051,-0.16749 -0.0431,-0.58017 0.0143,-0.75349 0.067,-0.20247 0.47781,-0.69103 1.12333,-1.33613 0.69607,-0.69568 1.11381,-1.04369 1.33866,-1.1154 0.33183,-0.10582 0.80035,-0.0388 1.15428,0.16518 0.19376,0.11168 0.35662,0.1156 0.46059,0.0111 0.0435,-0.0437 0.41476,-0.30673 0.82507,-0.58449 l 0.74601,-0.50502 -0.004,-0.3743 c -0.005,-0.40832 0.10712,-0.8078 0.2994,-1.06656 0.13389,-0.1802 0.53243,-0.39576 1.53372,-0.82956 0.81345,-0.35242 1.34775,-0.5332 1.55868,-0.52734 0.34308,0.01 0.83545,0.27592 1.22859,0.66476 l 0.14405,0.1442 1.13967,-0.23195 1.13963,-0.23193 0.10534,-0.33165 c 0.17724,-0.55798 0.48215,-0.85233 0.9909,-0.95658 0.49838,-0.10212 2.7925,-0.0788 3.0399,0.0309 0.3608,0.15999 0.67299,0.51848 0.86342,0.9916 l 0.1131,0.28097 1.10007,0.22403 1.100073,0.22403 0.14515,-0.14311 c 0.425234,-0.41904 0.957464,-0.68693 1.307724,-0.65833 0.34644,0.0283 1.93266,0.66082 2.52002,1.00488 0.37835,0.22164 0.69842,0.54101 0.79245,0.78976 0.063,0.16807 0.0848,0.90245 0.0283,0.95896 -0.0413,0.0413 0.0839,0.13559 0.91976,0.69254 0.90087,0.60034 0.83395,0.5787 1.17347,0.37948 0.21586,-0.12665 0.6794,-0.21306 0.91334,-0.17024 0.33957,0.0622 0.54263,0.2119 1.38321,1.01994 1.11259,1.06962 1.30352,1.3393 1.33093,1.87975 0.0151,0.29758 -0.0419,0.53309 -0.19017,0.78609 -0.0669,0.11427 -0.12177,0.24233 -0.12176,0.28456 0,0.0423 0.25302,0.45119 0.56229,0.90872 l 0.56229,0.8319 0.415,0.002 c 0.51521,0.003 0.74273,0.0831 1.075,0.38141 0.21968,0.19718 0.26507,0.26112 0.45452,0.64094 0.29534,0.59188 0.78646,1.8272 0.8563,2.1539 0.10737,0.50216 -0.0664,0.9687 -0.5166,1.38696 l -0.25175,0.23387 0.21248,1.10164 c 0.1965,1.01891 0.22054,1.10532 0.32009,1.15046 0.0592,0.0268 0.2251,0.0973 0.36871,0.15654 0.31228,0.12887 0.67326,0.4637 0.80753,0.74906 0.20564,0.43697 0.23661,2.60621 0.0452,3.16486 -0.16441,0.47985 -0.48007,0.77538 -1.01319,0.94852 l -0.3065,0.0995 -0.22325,1.12942 -0.22327,1.12944 0.31953,0.35122 c 0.27366,0.30086 0.33366,0.38903 0.41813,0.61459 0.11833,0.3161 0.11071,0.52303 -0.0356,0.96564 -0.19696,0.59574 -0.85976,2.07235 -1.06512,2.37286 -0.1261,0.18453 -0.54399,0.38925 -0.90743,0.44454 -0.16839,0.0256 -0.3163,0.0372 -0.32866,0.0257 -0.0119,-0.0119 -0.10631,-0.0248 -0.20874,-0.0297 l -0.1862,-0.009 -0.57248,0.84839 c -0.31485,0.46659 -0.57535,0.88823 -0.57887,0.93694 -0.004,0.0487 0.0379,0.16287 0.0921,0.25367 0.14464,0.24227 0.21654,0.48947 0.22261,0.76561 0.008,0.34543 -0.0574,0.51078 -0.34068,0.86546 -0.28954,0.36259 -1.39891,1.47018 -1.7619,1.75889 z"
     id="path8458" />
  <path
     style="opacity:0.3;fill:#000000;stroke-width:0.0391901"
     d="m 102.96984,147.95304 c -3.793157,3.32465 -9.051627,3.98532 -13.547147,1.70207 -0.53677,-0.27263 -1.30744,-0.74811 -1.68021,-1.03665 -0.19735,-0.15269 -0.6381,-0.58034 -1.38208,-1.34064 -1.191,-1.21744 -1.21288,-1.24464 -1.74294,-2.16384 -1.22874,-2.1313 -1.73448,-4.30392 -1.59485,-6.85127 0.0561,-1.02358 0.20525,-1.84172 0.51434,-2.82168 0.39192,-1.2426 0.88625,-2.21497 1.79939,-3.53957 0.3183,-0.4617 0.38597,-0.53889 1.03941,-1.1856 1.1045,-1.09312 1.82393,-1.65207 2.85618,-2.21906 3.05867,-1.68005 6.65371,-1.95903 9.91989,-0.76979 1.149567,0.41857 2.378927,1.10313 3.310837,1.84364 0.37909,0.30123 1.79142,1.75038 2.15314,2.20939 0.83449,1.05867 1.58059,2.5734 1.9557,3.9704 0.79282,2.95234 0.48103,5.97736 -0.8972,8.70523 -0.61336,1.21397 -1.69467,2.61232 -2.70452,3.49742 z"
     id="path8460" />
  <path
     style="fill:#f95353;fill-opacity:1;stroke-width:0.0373203"
     d="m 104.06077,143.78998 c 0.3696,-0.73676 0.8624,-2.00175 0.92804,-2.38223 0.0397,-0.23024 0.0193,-0.23864 -1.91763,-0.79104 -1.50993,-0.43061 -2.53718,-0.76661 -2.89524,-0.94701 -0.476584,-0.24013 -0.667804,-0.54446 -0.552564,-0.87943 0.0482,-0.13994 0.0754,-0.17086 0.29143,-0.33148 0.398004,-0.29585 0.873794,-0.46253 3.249924,-1.13866 1.17967,-0.33567 1.75137,-0.51729 1.80894,-0.57467 0.0543,-0.0541 0.0267,-0.22295 -0.10173,-0.62374 -0.25365,-0.7914 -0.87077,-2.17756 -1.1086,-2.48997 l -0.10249,-0.13467 -0.29238,0.14891 c -0.16081,0.0819 -0.85234,0.45663 -1.53677,0.83275 -1.55182,0.85278 -2.241174,1.202 -2.656977,1.346 -0.51071,0.17689 -0.84144,0.11236 -1.00848,-0.19671 -0.0917,-0.16961 -0.0908,-0.52539 0.002,-0.82707 0.0807,-0.26255 0.54675,-1.16091 1.403823,-2.70621 0.31068,-0.56015 0.645724,-1.17507 0.744564,-1.3665 0.17536,-0.33963 0.17785,-0.3503 0.10285,-0.44122 -0.22748,-0.27586 -2.487627,-1.20241 -3.108237,-1.27423 L 97.201203,129 l -0.38492,1.35275 c -0.89519,3.1461 -1.01379,3.47258 -1.40221,3.85972 -0.22419,0.22345 -0.36297,0.26565 -0.58071,0.17662 -0.44562,-0.18221 -0.69849,-0.78006 -1.46306,-3.45907 -0.50826,-1.78085 -0.55242,-1.88082 -0.82806,-1.8748 -0.3784,0.008 -2.7331,1.00007 -2.99573,1.26183 -0.0876,0.0874 -0.075,0.13858 0.1158,0.46394 0.81617,1.39243 2.01902,3.62347 2.12472,3.941 0.0969,0.29091 0.13315,0.72412 0.0757,0.90391 -0.0568,0.17724 -0.20561,0.25905 -0.50028,0.27477 -0.46437,0.0248 -0.89445,-0.16988 -3.25818,-1.47491 -1.10475,-0.60996 -1.76994,-0.95976 -1.78897,-0.9408 -0.0231,0.0229 -0.46107,0.84833 -0.60339,1.13692 -0.28007,0.56792 -0.74435,1.92672 -0.71003,2.07804 0.021,0.093 0.41422,0.2274 1.99985,0.68384 1.6546,0.47629 2.59559,0.78676 2.85484,0.94194 0.13053,0.0781 0.27776,0.20019 0.38265,0.31723 0.15236,0.16996 0.17044,0.20824 0.17037,0.359 -5e-5,0.15103 -0.0181,0.18885 -0.17207,0.36068 -0.11405,0.12725 -0.23948,0.22906 -0.37214,0.30197 -0.38515,0.21173 -1.36127,0.5269 -3.30394,1.06678 -0.96718,0.26878 -1.37474,0.40932 -1.47399,0.50824 -0.11066,0.11029 -0.0806,0.31502 0.13786,0.93948 0.23801,0.68026 0.42484,1.12489 0.70543,1.6787 0.17342,0.34224 0.39601,0.67607 0.42893,0.64324 0.009,-0.009 0.66227,-0.37438 1.45241,-0.81271 2.60597,-1.44571 2.8879,-1.58118 3.35221,-1.61086 0.4136,-0.0264 0.64363,0.11914 0.71892,0.45502 0.10265,0.45786 -0.0784,0.86865 -1.56413,3.55017 -0.3964,0.7154 -0.74523,1.36021 -0.77523,1.43293 -0.0534,0.12956 -0.0519,0.13408 0.0771,0.22552 0.17669,0.12523 0.59388,0.34761 1.03817,0.55337 0.3788,0.17545 1.95905,0.71525 2.06493,0.7054 0.0442,-0.004 0.17711,-0.41237 0.4951,-1.52067 0.84765,-2.95403 0.9986,-3.35529 1.40114,-3.72449 0.20548,-0.18844 0.24206,-0.20894 0.37336,-0.20898 0.12769,-5e-5 0.171,0.0228 0.35271,0.18654 0.15357,0.13839 0.23945,0.24687 0.33206,0.41987 0.17132,0.31993 0.51004,1.34581 0.91295,2.76493 0.36785,1.29575 0.57685,1.94355 0.6508,2.01725 0.13538,0.13492 2.201973,-0.64688 2.929397,-1.10819 0.18214,-0.11552 0.2599,-0.18272 0.28319,-0.24475 0.0279,-0.0741 -0.0808,-0.28826 -0.814124,-1.60445 -1.377853,-2.47306 -1.585473,-2.92342 -1.560663,-3.38511 0.008,-0.13469 0.0404,-0.28722 0.0737,-0.33895 0.13663,-0.21275 0.59933,-0.24365 1.06718,-0.0712 0.450203,0.16591 0.845697,0.36822 2.292557,1.17285 1.44773,0.80513 1.863,1.02549 2.04445,1.08484 0.0999,0.0327 0.11894,0.0249 0.19227,-0.0779 0.0448,-0.0628 0.18464,-0.31997 0.31081,-0.57148 z"
     id="path8462" />
  <path
     style="fill:#ffffff;fill-opacity:1;stroke-width:0.0331844"
     d="m 95.973553,140.75972 c -0.40336,0.23075 -0.99113,0.3031 -1.48731,0.18308 -0.60454,-0.14623 -1.22442,-0.73226 -1.41558,-1.33832 -0.10639,-0.33721 -0.0908,-0.89968 0.035,-1.26569 0.12061,-0.35083 0.20823,-0.49696 0.4326,-0.72151 0.54686,-0.54732 1.39672,-0.75952 2.0793,-0.5192 0.37698,0.13273 0.56144,0.24737 0.83544,0.51928 0.27161,0.26995 0.42837,0.54627 0.50028,0.88369 0.0966,0.45333 0.0389,1.07153 -0.13024,1.39487 -0.13364,0.25553 -0.58053,0.70994 -0.84948,0.86381 z"
     id="path8464" />
  <path
     id="path1054"
     style="fill:#6c4b22;stroke-width:0.436964;fill-opacity:1"
     d="m 26.81975,121.35499 c -0.781925,0.22127 -1.009764,0.55883 -0.903478,1.33953 0.07815,0.57404 0.4405,1.13239 0.805279,1.24092 0.920749,0.27394 1.144904,0.17195 1.528086,-0.69318 0.532569,-1.2024 -0.241052,-2.22368 -1.429887,-1.88727 z m -3.586262,4.01719 c -0.41384,0.15295 -0.82357,0.49368 -1.256129,1.02423 -0.530408,0.65055 -0.611784,1.16453 -0.268031,1.68568 0.271922,0.41224 0.519155,1.7428 0.549365,2.95686 0.04457,1.79143 0.192371,2.30155 0.785269,2.70918 1.1529,0.79264 2.308757,0.18357 3.418415,-1.80196 1.212028,-2.1687 0.890912,-4.03217 -0.995434,-5.78067 -0.842115,-0.78058 -1.543701,-1.04817 -2.233455,-0.79332 z m -7.777155,2.22114 c -0.0769,0.0157 -0.151241,0.0392 -0.223227,0.0668 -0.343439,0.14034 -0.610294,0.43379 -0.649652,0.8668 -0.04754,0.52313 0.233719,0.94266 0.763218,1.13931 1.152586,0.42805 2.009205,-0.32418 1.549352,-1.36088 -0.26632,-0.6004 -0.901784,-0.82311 -1.439893,-0.71276 z m 17.549249,-2.14734 c -0.314507,0.0712 -0.603524,0.2783 -1.02414,0.65613 -0.539885,0.48498 -1.091008,1.2831 -1.224967,1.77375 -0.197907,0.72487 -0.0074,0.99495 1.018363,1.44227 0.882578,0.38487 1.563688,0.37775 2.262127,-0.0237 2.156756,-1.23968 2.227626,-3.03735 0.145793,-3.69108 -0.522536,-0.16409 -0.862693,-0.22865 -1.177176,-0.15737 z m -19.74358,8.60094 c -2.432595,0.68838 -2.650193,4.46884 -0.304837,5.29802 2.071542,0.73236 4.088975,-1.19697 3.484531,-3.33296 -0.3259,-1.15166 -2.125026,-2.26351 -3.179694,-1.96506 z m 16.108632,-1.78758 c -1.180515,0.44182 -1.590706,2.55808 -0.275226,3.4625 0.371877,0.25567 1.008568,0.37094 1.414436,0.25609 1.696424,-0.48006 1.503709,-3.22096 -0.262754,-3.7369 -0.224362,-0.0656 -0.435681,-0.0782 -0.63058,-0.0468 -0.08542,0.0132 -0.167328,0.0352 -0.245675,0.0659 z m -8.910676,2.92953 c -1.111439,0.31453 -4.00533,3.82204 -4.039227,4.89576 -0.06586,2.08578 3.428357,2.33766 5.485944,0.39533 0.653883,-0.61725 1.030127,-0.77288 1.117902,-0.46269 0.251216,0.88774 1.96223,1.61067 3.070491,1.29706 1.019488,-0.2885 1.13154,-0.19103 1.352193,1.18018 0.187773,1.16688 0.544018,1.66456 1.62048,2.26616 0.758709,0.42403 1.577772,0.71544 1.819533,0.64702 0.819925,-0.23202 1.646695,-2.27688 1.347784,-3.33318 -0.240331,-0.84929 -0.08969,-1.10993 0.785706,-1.35766 1.570973,-0.44455 3.015776,-3.21845 2.42472,-4.65528 -0.402272,-0.97788 -0.671213,-1.08157 -2.090872,-0.8035 -1.384407,0.2712 -1.791898,0.6085 -2.704302,2.24117 -1.206348,2.15853 -2.581416,2.92187 -2.61086,1.44927 -0.01,-0.49628 -0.462358,-1.28785 -1.005138,-1.75913 -1.346765,-1.1693 -3.866367,-0.52689 -4.085883,1.04177 -0.138172,0.98747 -0.156332,0.97807 -0.247621,-0.12594 -0.130271,-1.57548 -1.353762,-3.16741 -2.240862,-2.91637 z m 18.098424,-0.97142 c -0.898299,0.19654 -1.753512,0.81236 -1.693744,1.48689 0.09314,1.05115 2.152139,3.82432 3.645858,4.91001 0.632634,0.45983 1.412576,0.76219 1.733306,0.67143 1.447137,-0.40952 2.774419,-5.34143 1.79111,-6.65613 -0.247693,-0.33117 -0.974094,-0.3869 -1.842263,-0.14123 -0.788314,0.22308 -1.760312,0.18129 -2.159494,-0.0931 -0.38108,-0.26199 -0.93579,-0.29572 -1.474773,-0.17781 z m -27.095145,9.88124 c -0.513342,0.18159 -0.981861,0.70276 -1.338746,1.56915 -0.7152969,1.73647 -0.3728176,2.89706 1.119566,3.79333 0.654266,0.39293 1.530475,0.61796 1.947333,0.5 1.164794,-0.32961 1.659781,-2.49347 0.906485,-3.96489 -0.798197,-1.55911 -1.779047,-2.20016 -2.634634,-1.89759 z m 10.176841,-0.83097 c -0.147907,0.0345 -0.293042,0.0817 -0.43471,0.14068 -1.982916,0.82738 -3.265544,3.92729 -1.705444,4.99989 0.421884,0.29005 1.420403,0.27392 2.536373,-0.0419 2.110507,-0.59723 3.218629,-2.07229 2.763975,-3.67895 -0.322799,-1.14071 -1.072956,-1.55107 -2.708602,-1.48197 -0.152822,0.006 -0.303627,0.0279 -0.451627,0.062 z m 14.154055,-1.92451 c -0.567892,0.18507 -1.008974,0.50272 -1.212483,0.96219 -0.340063,0.76778 -0.166983,0.98843 1.454802,1.86248 1.012027,0.54543 2.169131,1.22456 2.571728,1.50916 1.711844,1.2101 3.907165,-0.96598 2.747838,-2.72357 -1.011675,-1.53374 -3.858223,-2.16556 -5.561885,-1.61026 z m -8.006972,5.44289 c -0.122562,0.0206 -0.242428,0.0558 -0.357586,0.10603 -0.26298,0.11577 -0.503486,0.31274 -0.70491,0.60572 -0.726252,1.05634 0.162461,3.56798 1.559268,4.40686 1.396126,0.83847 2.067529,0.73148 2.717779,-0.43204 1.159056,-2.07393 -1.37633,-4.99721 -3.214666,-4.687 z m 24.417746,-6.55143 c -0.719849,0.20292 -1.409076,0.8131 -1.796528,1.75368 -0.664894,1.61412 -0.381574,2.88413 0.87099,3.90538 2.435636,1.98581 4.919525,-2.26216 2.90663,-4.97081 -0.510805,-0.68735 -1.261238,-0.89116 -1.981092,-0.68825 z m -16.173218,5.8628 c -1.617778,0.52094 -2.418773,3.23321 -1.413648,5.55149 0.637703,1.47084 0.610818,1.54725 -0.957371,2.71625 -0.887728,0.66176 -1.640087,1.4873 -1.671649,1.83454 -0.09586,1.05478 0.791048,2.16523 1.884249,2.35825 1.865512,0.32941 3.657979,-0.42595 4.715915,-1.9873 1.12318,-1.65762 1.658562,-3.75816 1.142961,-4.48326 -0.189052,-0.26587 -0.384398,-1.49226 -0.434128,-2.72518 -0.09882,-2.44924 -0.654136,-3.18527 -2.525815,-3.34662 -0.261581,-0.0225 -0.5094,0.007 -0.740514,0.0819 z m 6.944149,-0.8457 c -1.794863,0.79557 0.0029,3.97034 2.393692,4.22749 4.112294,0.44233 4.511745,-3.41888 0.437411,-4.22773 -1.074621,-0.21334 -2.348803,-0.21355 -2.831103,2.4e-4 z m 16.00427,-3.62953 c -0.329229,0.14911 -0.610279,0.58275 -1.05025,1.47595 -1.125545,2.28505 -0.594206,4.36292 1.317302,5.15032 2.057446,0.84751 3.261647,0.32135 3.129044,-1.36707 l -0.10996,-1.39157 0.106148,0.0773 -0.352739,-0.92995 c -0.07361,-0.0442 -0.156839,-0.12649 -0.250559,-0.26169 -0.21305,-0.30736 -0.571802,-0.99635 -0.797862,-1.53129 -0.226076,-0.53494 -0.811693,-1.08445 -1.301683,-1.22107 -0.277063,-0.0773 -0.491887,-0.0904 -0.689425,-9.2e-4 z m -37.071574,14.25389 c -1.473671,0.47833 -2.931627,1.17823 -3.066055,1.63042 -0.294646,0.99111 -0.0437,1.58374 0.834028,1.97251 0.428335,0.18972 0.968717,1.01609 1.200945,1.83674 0.232232,0.82067 0.832916,1.74934 1.335304,2.06393 0.502385,0.31459 1.047987,0.53451 1.212212,0.48804 0.791078,-0.22386 2.062347,-2.68225 2.345757,-4.53625 0.39019,-2.55249 0.09325,-3.71539 -1.00921,-3.94874 -0.31472,-0.0666 -0.827535,-0.0175 -1.422739,0.10638 -0.446411,0.0928 -0.939017,0.22757 -1.430227,0.38705 z m 34.105712,-8.01926 c -0.674641,0.22395 -1.293593,0.74622 -1.628752,1.55986 -0.518681,1.25914 -0.532243,1.26496 -1.508177,0.65384 -1.214315,-0.76041 -3.951292,-0.10052 -4.473644,1.0788 -0.47154,1.0646 0.699312,2.76132 2.085728,3.02324 0.904073,0.17081 0.978523,0.30225 0.660474,1.15862 -0.605152,1.62943 0.608542,4.17502 2.242906,4.70391 1.247447,0.40365 2.072908,-0.27875 2.265043,-1.87208 0.172497,-1.42945 0.05751,-1.83509 -0.918211,-3.23832 -1.394022,-2.00492 -1.153003,-3.14976 0.538465,-2.56046 2.217746,0.77264 4.131913,-0.91672 3.513842,-3.10087 -0.374579,-1.32368 -1.653312,-1.77972 -2.777725,-1.40651 z m -13.034342,5.709 c -1.389657,0.39324 -1.608298,1.60758 -0.434232,2.41476 0.373675,0.25692 0.917359,0.40031 1.207602,0.31818 0.778794,-0.22039 1.247871,-1.55267 0.835635,-2.37226 -0.249902,-0.49685 -0.74024,-0.60654 -1.609005,-0.36068 z m 26.985187,-7.33296 c -0.119771,0.0278 -0.23445,0.0793 -0.340113,0.15842 -0.613866,0.45913 -0.49769,1.84769 0.186733,2.23018 0.580013,0.32416 1.354168,-0.0332 1.684103,-0.77813 0.371593,-0.83895 -0.692477,-1.80562 -1.530701,-1.61038 z m -7.916486,4.52148 c -1.883304,0.94725 -0.01949,5.66279 2.46691,6.24145 0.72559,0.16889 2.059874,0.0488 2.965184,-0.26611 1.402126,-0.48783 1.658374,-0.76981 1.727152,-1.90168 0.07013,-1.15398 -0.07435,-1.38182 -1.09793,-1.73285 -0.648204,-0.22228 -2.124424,-0.91624 -3.280999,-1.54259 -1.162569,-0.6296 -2.406209,-0.98638 -2.780317,-0.79822 z m -14.413954,5.03057 c -0.223206,0.0824 -0.466976,0.22881 -0.729138,0.45113 -0.518526,0.43968 -1.558552,0.9741 -2.310793,1.18697 -2.221388,0.62861 -2.671926,2.58073 -0.832548,3.6087 1.15082,0.64316 2.867793,0.0836 4.220943,-1.37628 1.735499,-1.87233 1.213984,-4.44746 -0.348464,-3.87052 z m -8.132459,4.11871 c -0.342119,0.0715 -0.671552,0.27925 -1.148405,0.6558 -0.96217,0.7599 -1.652207,2.11323 -1.447344,2.83717 0.03235,0.11436 0.462612,0.43276 0.956212,0.70862 1.057429,0.59096 2.977384,-0.22048 3.861227,-1.63192 0.775978,-1.23919 0.48452,-1.94565 -0.995164,-2.4103 -0.529148,-0.16618 -0.884405,-0.23094 -1.226526,-0.15937 z m 18.659544,-4.88738 c -0.228582,0.0413 -0.469376,0.11155 -0.718959,0.21444 -1.407201,0.57833 -1.373516,2.4133 0.05422,2.94353 1.193338,0.4432 1.84358,0.2267 2.420478,-0.80562 0.839763,-1.50262 -0.155542,-2.64085 -1.755667,-2.3521 z m -9.635469,8.42979 c -0.328167,0.12151 -0.64401,0.34128 -0.917275,0.67645 -0.784032,0.96162 -0.54526,2.55667 0.467704,3.12278 1.012964,0.56612 2.496837,-0.0654 2.905041,-1.23717 0.569088,-1.63348 -0.792743,-2.88303 -2.124186,-2.65137 -0.110969,0.0192 -0.221872,0.0489 -0.331079,0.0901 z m 12.996234,-3.01335 c -1.311837,0.48228 -1.802294,2.81027 -0.747162,4.05462 1.138151,1.34225 2.845473,0.64735 3.078927,-1.25268 0.23818,-1.93847 -0.596207,-3.10317 -2.058324,-2.87311 -0.09462,0.0145 -0.185997,0.0389 -0.273413,0.0713 z m 7.525587,-1.58057 c -0.128141,0.0399 -0.252708,0.10145 -0.369642,0.18883 -0.625741,0.46802 -0.44189,2.15055 0.279113,2.5535 0.596995,0.33365 1.498786,-0.29082 1.774804,-1.22865 0.281969,-0.95804 -0.786231,-1.78938 -1.684284,-1.51372 z" />
  <path
     id="rect73421"
     style="fill:#e0c195;fill-opacity:1;stroke-width:0.415864;stroke-linejoin:round"
     d="m 68.192467,48.534156 6.19373,1.406249 c 1.213469,1.184214 2.650401,0.478732 4.097291,-0.553591 1.628967,-1.162222 2.162813,-3.507227 4.620115,-2.499267 0.781579,0.320596 1.349759,3.80384 0.820779,5.776969 -0.373418,1.39287 1.680025,0.246391 2.070191,0.786294 0.412753,0.571158 0.688718,1.290399 0.784828,2.204353 l 1.347186,0.621214 c 1.644378,0.88551 2.164072,2.202095 2.889977,3.439645 0.203406,2.83149 -1.371081,3.433438 -0.629201,6.210101 0.310228,1.161105 1.087582,2.274649 2.683368,3.304862 l -9.308483,4.223112 -6.949256,-0.83856 z"
     sodipodi:nodetypes="ccsssscccscccc" />
  <rect
     style="fill:#a4a4a4;fill-opacity:1;stroke-width:0.347035;stroke-linejoin:round"
     id="rect7196"
     width="6.428731"
     height="19.722546"
     x="64.080841"
     y="138.23233"
     transform="matrix(0.70380129,-0.71039689,0.70380129,0.71039689,0,0)" />
  <path
     id="path7198"
     style="color:#000000;fill:#bb2222;fill-opacity:1;stroke-width:0.495754;stroke-linecap:round;stroke-linejoin:round;-inkscape-stroke:none"
     d="m 145.41913,56.102363 a 0.7401703,0.74710673 0 0 0 0,1.056569 0.7401703,0.74710673 0 0 0 1.04676,0 l 4.88487,-4.930654 a 0.7401703,0.74710673 0 0 0 0,-1.056568 0.7401703,0.74710673 0 0 0 -1.04676,0 z m 1.641,1.656391 a 0.7401703,0.74710673 0 0 0 0,1.056569 0.7401703,0.74710673 0 0 0 1.04676,0 l 4.88488,-4.930653 a 0.7401703,0.74710673 0 0 0 0,-1.056568 0.7401703,0.74710673 0 0 0 -1.04676,0 z m 1.64102,1.656391 a 0.7401703,0.74710673 0 0 0 0,1.056569 0.7401703,0.74710673 0 0 0 1.04676,0 l 4.88487,-4.930653 a 0.7401703,0.74710673 0 0 0 0,-1.056568 0.7401703,0.74710673 0 0 0 -1.04676,0 z m 1.64101,1.656395 a 0.7401703,0.74710673 0 0 0 0,1.056569 0.7401703,0.74710673 0 0 0 1.04676,0 l 4.88487,-4.930656 a 0.7401703,0.74710673 0 0 0 0,-1.056569 0.7401703,0.74710673 0 0 0 -1.04675,0 z m 1.6417,1.657079 a 0.7401703,0.74710673 0 0 0 0,1.05657 0.7401703,0.74710673 0 0 0 1.04676,0 l 4.88487,-4.930657 a 0.7401703,0.74710673 0 0 0 0,-1.056569 0.7401703,0.74710673 0 0 0 -1.04676,0 z" />
  <path
     style="fill:#4c4c4c;fill-opacity:1;stroke-width:0.0407656"
     d="m 179.17279,85.97522 c -0.29686,0.236235 -0.4836,0.304201 -0.81572,0.296864 -0.26524,-0.0061 -0.47656,-0.06605 -0.7892,-0.224689 -0.11062,-0.0561 -0.23957,-0.09041 -0.28662,-0.07618 -0.0734,0.02219 -1.6522,1.076322 -1.71419,1.144489 -0.0121,0.01356 -0.009,0.128779 0.008,0.256352 0.0634,0.490077 -0.16194,1.172514 -0.45311,1.371909 -0.3118,0.213513 -1.69456,0.835496 -2.3795,1.07034 -0.41157,0.14111 -0.63705,0.151379 -0.953,0.04342 -0.21013,-0.07178 -0.27741,-0.119267 -0.59713,-0.421381 l -0.36032,-0.340496 -1.13034,0.226425 -1.13037,0.22646 -0.13111,0.36896 c -0.11342,0.319191 -0.15806,0.396466 -0.33083,0.57269 -0.2585,0.263643 -0.43011,0.359634 -0.77479,0.433297 -0.55748,0.119135 -2.4489,0.09318 -2.83145,-0.03884 -0.42642,-0.147169 -0.76754,-0.511532 -0.97267,-1.038846 l -0.11462,-0.294645 -1.00533,-0.207596 c -0.55292,-0.114185 -1.0417,-0.217194 -1.08615,-0.228916 -0.0681,-0.01788 -0.1433,0.03496 -0.47396,0.333106 -0.3155,0.284429 -0.42869,0.365622 -0.57345,0.411306 -0.45015,0.142007 -0.66392,0.100332 -1.77183,-0.345472 -1.03357,-0.415912 -1.41789,-0.621543 -1.72729,-0.924229 -0.35019,-0.342724 -0.42453,-0.60665 -0.36152,-1.284585 l 0.0204,-0.219785 -0.84704,-0.563819 c -0.46584,-0.310112 -0.87825,-0.562923 -0.91643,-0.561804 -0.0382,8.8e-4 -0.16832,0.05724 -0.28922,0.124648 -0.35806,0.19973 -0.79582,0.242331 -1.18655,0.115445 -0.27974,-0.09083 -0.66676,-0.422878 -1.48718,-1.275989 -0.81887,-0.851464 -0.93887,-1.015208 -1.00352,-1.369196 -0.0461,-0.25215 0.0451,-0.70161 0.198,-0.975963 0.063,-0.112953 0.11463,-0.235276 0.11485,-0.271808 3.7e-4,-0.05875 -1.02137,-1.620026 -1.13249,-1.730486 -0.0239,-0.02396 -0.1716,-0.02906 -0.32795,-0.01145 -0.89212,0.100358 -1.28422,-0.241212 -1.91323,-1.666624 -0.32987,-0.747469 -0.60908,-1.594221 -0.59221,-1.795871 0.0288,-0.345225 0.15647,-0.607011 0.47159,-0.967649 0.15844,-0.18134 0.29361,-0.353099 0.30035,-0.381714 0.007,-0.02871 -0.0843,-0.541723 -0.2024,-1.140287 l -0.21471,-1.088264 -0.26651,-0.0895 c -0.46258,-0.155289 -0.85738,-0.509066 -1.02545,-0.918751 -0.0778,-0.189725 -0.11936,-0.77957 -0.11645,-1.653228 0.004,-1.343753 0.0757,-1.620405 0.51934,-2.015875 0.19405,-0.172974 0.30007,-0.234722 0.56575,-0.329408 l 0.32693,-0.116528 0.10092,-0.573014 c 0.0555,-0.315167 0.1576,-0.814818 0.22685,-1.110335 l 0.1259,-0.537311 -0.13443,-0.149124 c -0.71595,-0.793715 -0.80369,-1.114518 -0.52209,-1.908568 0.18929,-0.533752 0.55462,-1.379711 0.845,-1.956619 0.15073,-0.299498 0.22149,-0.401944 0.33963,-0.491707 0.25469,-0.193485 0.5694,-0.280757 1.02854,-0.28524 l 0.42889,-0.0044 0.5143,-0.765867 c 0.28285,-0.421232 0.54984,-0.820348 0.59326,-0.886913 0.0728,-0.111605 0.0691,-0.142502 -0.0477,-0.39792 -0.0697,-0.152319 -0.14486,-0.336634 -0.16705,-0.409589 -0.051,-0.167486 -0.0431,-0.580166 0.0143,-0.75349 0.067,-0.202473 0.47781,-0.69103 1.12333,-1.336135 0.69607,-0.695677 1.11381,-1.043681 1.33866,-1.115398 0.33183,-0.105815 0.80035,-0.03877 1.15428,0.165184 0.19376,0.111675 0.35662,0.115597 0.46059,0.01109 0.0435,-0.0437 0.41476,-0.306728 0.82507,-0.584492 l 0.74601,-0.505017 -0.004,-0.374301 c -0.005,-0.408326 0.10712,-0.807801 0.2994,-1.066558 0.13389,-0.180203 0.53243,-0.395762 1.53372,-0.829566 0.81345,-0.352422 1.34775,-0.533197 1.55868,-0.527341 0.34308,0.0095 0.83545,0.275927 1.22859,0.664763 l 0.14405,0.144205 1.13967,-0.231957 1.13963,-0.231932 0.10534,-0.331646 c 0.17724,-0.557975 0.48215,-0.852327 0.9909,-0.956581 0.49838,-0.102114 2.7925,-0.07879 3.0399,0.03092 0.3608,0.159995 0.67299,0.518482 0.86342,0.991597 l 0.1131,0.280977 1.10007,0.22403 1.10007,0.224029 0.14515,-0.143113 c 0.42523,-0.419037 0.95746,-0.686932 1.30772,-0.65833 0.34644,0.0283 1.93266,0.660818 2.52002,1.004885 0.37835,0.221638 0.69842,0.541002 0.79245,0.789754 0.063,0.168072 0.0848,0.902454 0.0283,0.958967 -0.0413,0.04132 0.0839,0.135581 0.91976,0.692535 0.90087,0.60034 0.83395,0.578698 1.17347,0.37948 0.21586,-0.126651 0.6794,-0.213059 0.91334,-0.170242 0.33957,0.06216 0.54263,0.211899 1.38321,1.019941 1.11259,1.069617 1.30352,1.339302 1.33093,1.879754 0.0151,0.297573 -0.0419,0.533088 -0.19017,0.786088 -0.0669,0.114266 -0.12177,0.242331 -0.12176,0.284561 0,0.04227 0.25302,0.451185 0.56229,0.90872 l 0.56229,0.831903 0.415,0.0018 c 0.51521,0.0026 0.74273,0.08314 1.075,0.381405 0.21968,0.197176 0.26507,0.261117 0.45452,0.640936 0.29534,0.591881 0.78646,1.827206 0.8563,2.153902 0.10737,0.502161 -0.0664,0.968705 -0.5166,1.386959 l -0.25175,0.233876 0.21248,1.101642 c 0.1965,1.018907 0.22054,1.105315 0.32009,1.150452 0.0592,0.02678 0.2251,0.09729 0.36871,0.156548 0.31228,0.128867 0.67326,0.463691 0.80753,0.749053 0.20564,0.436971 0.23661,2.606213 0.0452,3.164864 -0.16441,0.479853 -0.48007,0.775378 -1.01319,0.948519 l -0.3065,0.09953 -0.22325,1.12942 -0.22327,1.129437 0.31953,0.351223 c 0.27366,0.300863 0.33366,0.389032 0.41813,0.614594 0.11833,0.316091 0.11071,0.523025 -0.0356,0.965632 -0.19696,0.595747 -0.85976,2.072355 -1.06512,2.372866 -0.1261,0.184529 -0.54399,0.389244 -0.90743,0.444535 -0.16839,0.02562 -0.3163,0.03717 -0.32866,0.02571 -0.0119,-0.01188 -0.10631,-0.02484 -0.20874,-0.02969 l -0.1862,-0.0089 -0.57248,0.84839 c -0.31485,0.466597 -0.57535,0.888234 -0.57887,0.936938 -0.004,0.0487 0.0379,0.162872 0.0921,0.253675 0.14464,0.242268 0.21654,0.489469 0.22261,0.765611 0.008,0.345427 -0.0574,0.510774 -0.34068,0.865458 -0.28954,0.362594 -1.39891,1.47018 -1.7619,1.758889 z"
     id="path7200" />
  <path
     style="opacity:0.3;fill:#000000;stroke-width:0.0391901"
     d="m 173.96983,79.953009 c -3.79315,3.324648 -9.05162,3.985319 -13.54714,1.702066 -0.53677,-0.272626 -1.30744,-0.74811 -1.68021,-1.036646 -0.19735,-0.152688 -0.6381,-0.580336 -1.38208,-1.340637 -1.191,-1.217443 -1.21288,-1.244643 -1.74294,-2.16384 -1.22874,-2.1313 -1.73448,-4.303923 -1.59485,-6.851272 0.0561,-1.023584 0.20525,-1.841718 0.51434,-2.821685 0.39192,-1.242593 0.88625,-2.214968 1.79939,-3.539565 0.3183,-0.461699 0.38597,-0.538895 1.03941,-1.185604 1.1045,-1.09312 1.82393,-1.652068 2.85618,-2.219059 3.05867,-1.680043 6.65371,-1.959023 9.91989,-0.769791 1.14956,0.418571 2.37892,1.103134 3.31083,1.843642 0.37909,0.301233 1.79142,1.750383 2.15314,2.20939 0.83449,1.058674 1.58059,2.573401 1.9557,3.970404 0.79282,2.952336 0.48103,5.977354 -0.8972,8.705232 -0.61336,1.213967 -1.69467,2.612311 -2.70452,3.497416 z"
     id="path7202" />
  <path
     style="fill:#f95353;fill-opacity:1;stroke-width:0.0373203"
     d="m 175.06076,75.789951 c 0.3696,-0.736759 0.8624,-2.001756 0.92804,-2.382236 0.0397,-0.230231 0.0193,-0.238631 -1.91763,-0.791033 -1.50993,-0.430616 -2.53718,-0.766616 -2.89524,-0.947013 -0.47658,-0.240125 -0.6678,-0.544464 -0.55256,-0.879432 0.0482,-0.139937 0.0754,-0.170857 0.29143,-0.331477 0.398,-0.295849 0.87379,-0.462535 3.24992,-1.138663 1.17967,-0.335671 1.75137,-0.517285 1.80894,-0.574671 0.0543,-0.05412 0.0267,-0.222948 -0.10173,-0.623734 -0.25365,-0.791403 -0.87077,-2.177565 -1.1086,-2.489969 l -0.10249,-0.134675 -0.29238,0.148914 c -0.16081,0.0819 -0.85234,0.456629 -1.53677,0.832745 -1.55182,0.852783 -2.24117,1.202006 -2.65697,1.346003 -0.51071,0.17689 -0.84144,0.112355 -1.00848,-0.19671 -0.0917,-0.169615 -0.0908,-0.525392 0.002,-0.827072 0.0807,-0.262553 0.54675,-1.160907 1.40382,-2.706212 0.31068,-0.560147 0.64572,-1.175071 0.74456,-1.366494 0.17536,-0.339633 0.17785,-0.350298 0.10285,-0.441222 -0.22748,-0.275862 -2.48762,-1.202408 -3.10823,-1.274235 l -0.11004,-0.01276 -0.38492,1.352757 c -0.89519,3.146094 -1.01379,3.472577 -1.40221,3.859719 -0.22419,0.223444 -0.36297,0.265651 -0.58071,0.176621 -0.44562,-0.182209 -0.69849,-0.780065 -1.46306,-3.459074 -0.50826,-1.780849 -0.55242,-1.880818 -0.82806,-1.874802 -0.3784,0.0084 -2.7331,1.000069 -2.99573,1.261834 -0.0876,0.08741 -0.075,0.138577 0.1158,0.463936 0.81617,1.39243 2.01902,3.623471 2.12472,3.941002 0.0969,0.290907 0.13315,0.724123 0.0757,0.903916 -0.0568,0.177234 -0.20561,0.259047 -0.50028,0.274763 -0.46437,0.02484 -0.89445,-0.169876 -3.25818,-1.474906 -1.10475,-0.609964 -1.76994,-0.959766 -1.78897,-0.940802 -0.0231,0.0229 -0.46107,0.848334 -0.60339,1.136916 -0.28007,0.567926 -0.74435,1.926726 -0.71003,2.078048 0.021,0.09296 0.41422,0.227395 1.99985,0.683839 1.6546,0.476287 2.59559,0.786762 2.85484,0.941936 0.13053,0.07812 0.27776,0.200191 0.38265,0.317229 0.15236,0.169959 0.17044,0.208238 0.17037,0.358999 -5e-5,0.151038 -0.0181,0.188855 -0.17207,0.360686 -0.11405,0.127249 -0.23948,0.229056 -0.37214,0.301965 -0.38515,0.21173 -1.36127,0.526902 -3.30394,1.066778 -0.96718,0.26878 -1.37474,0.40932 -1.47399,0.508241 -0.11066,0.11029 -0.0806,0.315022 0.13786,0.939485 0.23801,0.680257 0.42484,1.124885 0.70543,1.678697 0.17342,0.342243 0.39601,0.676068 0.42893,0.643243 0.009,-0.0087 0.66227,-0.374379 1.45241,-0.812715 2.60597,-1.445705 2.8879,-1.581177 3.35221,-1.610856 0.4136,-0.02643 0.64363,0.119143 0.71892,0.455017 0.10265,0.457861 -0.0784,0.868657 -1.56413,3.550168 -0.3964,0.715404 -0.74523,1.360217 -0.77523,1.432934 -0.0534,0.129563 -0.0519,0.134078 0.0771,0.225523 0.17669,0.125226 0.59388,0.347612 1.03817,0.553367 0.3788,0.175447 1.95905,0.715246 2.06493,0.705404 0.0442,-0.0042 0.17711,-0.412374 0.4951,-1.520677 0.84765,-2.954024 0.9986,-3.355289 1.40114,-3.724483 0.20548,-0.188444 0.24206,-0.208943 0.37336,-0.208985 0.12769,-5e-5 0.171,0.02283 0.35271,0.18654 0.15357,0.138392 0.23945,0.24687 0.33206,0.419867 0.17132,0.319938 0.51004,1.345818 0.91295,2.764932 0.36785,1.29575 0.57685,1.94355 0.6508,2.017256 0.13538,0.134918 2.20197,-0.646886 2.92939,-1.108196 0.18214,-0.115518 0.2599,-0.182721 0.28319,-0.244747 0.0279,-0.07408 -0.0808,-0.288263 -0.81412,-1.604454 -1.37785,-2.473061 -1.58547,-2.923412 -1.56066,-3.385108 0.008,-0.134693 0.0404,-0.287214 0.0737,-0.338945 0.13663,-0.212753 0.59933,-0.243656 1.06718,-0.07125 0.4502,0.165907 0.84569,0.368213 2.29255,1.172847 1.44773,0.80513 1.863,1.025486 2.04445,1.084835 0.0999,0.03273 0.11894,0.02492 0.19227,-0.07795 0.0448,-0.06277 0.18464,-0.319965 0.31081,-0.571476 z"
     id="path7204" />
  <path
     style="fill:#ffffff;fill-opacity:1;stroke-width:0.0331844"
     d="m 166.97355,72.759688 c -0.40336,0.230753 -0.99113,0.3031 -1.48731,0.183082 -0.60454,-0.14623 -1.22442,-0.732264 -1.41558,-1.338319 -0.10639,-0.33721 -0.0908,-0.89968 0.035,-1.265688 0.12061,-0.350836 0.20823,-0.496967 0.4326,-0.721516 0.54686,-0.547318 1.39672,-0.759521 2.0793,-0.519201 0.37698,0.13273 0.56144,0.247375 0.83544,0.519286 0.27161,0.269948 0.42837,0.546263 0.50028,0.883691 0.0966,0.453325 0.0389,1.071528 -0.13024,1.394867 -0.13364,0.255528 -0.58053,0.709936 -0.84948,0.863805 z"
     id="path7206" />
  <path
     id="path1078"
     style="fill:#3f3f3f;fill-opacity:1;stroke-width:0.594092"
     d="m 152.428,23.000303 c -0.51541,0.0085 -0.96848,0.308025 -1.19403,0.895745 -0.22304,0.581197 0.38189,1.692294 1.6106,2.95991 l 1.96684,2.028193 -2.03298,-0.582463 c -4.81669,-1.381315 -9.89521,1.138186 -23.33284,11.575094 -3.26783,2.538101 -3.67999,2.69218 -7.12935,2.674476 -2.01355,-0.01034 -6.46816,-0.401984 -9.89916,-0.870218 -5.85812,-0.799465 -6.32867,-0.785528 -7.72346,0.226258 -0.81691,0.592585 -1.56264,1.72025 -1.65818,2.505077 -0.28962,2.379105 1.07632,3.527621 4.79351,4.032017 1.8696,0.253704 3.57493,0.637967 3.78979,0.852818 0.21487,0.214852 -0.31895,1.0485 -1.18707,1.85299 -1.07861,0.99956 -1.57927,2.068495 -1.57927,3.375296 0,1.051772 -0.35935,2.333848 -0.79834,2.849686 -0.43898,0.515837 -1.82629,3.209835 -3.08312,5.987116 -1.25683,2.77728 -2.46842,5.271112 -2.69323,5.541568 -0.22481,0.270451 -1.44417,0.741228 -2.709479,1.045422 -1.987752,0.477888 -2.727499,0.330018 -5.438678,-1.086032 -3.401811,-1.776765 -4.126444,-3.098239 -3.133017,-5.710968 0.956385,-2.515314 0.729968,-4.08625 -0.848238,-5.879215 -1.45447,-1.652396 -3.106804,-2.288164 -3.106804,-1.199304 0,0.326739 0.692135,0.686918 1.020453,0.605233 0.328319,-0.08169 1.109565,0.653478 1.73592,1.633695 1.03877,1.625615 1.065095,1.991004 0.30286,4.158495 -1.128172,3.208076 -1.077785,3.691109 0.553499,5.322273 l 1.406372,1.407437 -2.149012,0.39334 c -1.182231,0.216533 -2.990216,1.200444 -4.017222,2.185996 -1.567091,1.503801 -2.061874,1.687541 -3.079642,1.142885 -0.66701,-0.356947 -1.765263,-0.649765 -2.440269,-0.649765 -0.675007,0 -1.227674,-0.267332 -1.227674,-0.594071 0,-0.326739 0.26735,-0.59407 0.594112,-0.59407 0.902712,0 0.709626,-2.240782 -0.329548,-3.826647 -0.613903,-0.936868 -0.713476,-1.538792 -0.297056,-1.796137 0.344519,-0.212909 0.626604,-0.645737 0.626604,-0.960726 0,-0.314988 -0.668376,-0.134919 -1.485281,0.400303 -1.375887,0.901449 -1.594675,0.901449 -2.970563,0 -1.734434,-1.136368 -1.912757,-2.428597 -0.449065,-3.247666 0.970696,-0.543188 0.958392,-0.685147 -0.189142,-2.257932 -1.50582,-2.063849 -2.172271,-3.757034 -1.478318,-3.757034 0.28591,0 0.381872,-0.529465 0.212347,-1.177697 -0.16953,-0.648238 -0.101123,-1.918064 0.15201,-2.821836 l 0.459504,-1.644138 0.428183,1.782212 c 0.340676,1.42047 0.441776,1.510906 0.497801,0.445553 0.04884,-0.928841 0.441277,-1.336659 1.288018,-1.336659 0.670183,0 2.137468,-1.002494 3.260656,-2.227765 1.694545,-1.848552 2.220442,-2.116021 3.088921,-1.573355 1.674138,1.046081 1.63858,3.561959 -0.07543,5.275859 l -1.496884,1.495614 h 2.68395 c 2.654744,0 2.682775,0.02163 2.498291,1.872719 -0.102592,1.029519 0.104474,1.972772 0.460669,2.096648 0.738351,0.256787 0.772417,-3.245705 0.04295,-4.41492 -0.254833,-0.408423 -0.959373,-0.742588 -1.56535,-0.742588 -0.914689,0 -1.024784,-0.277419 -0.652133,-1.633694 0.552245,-2.009902 -0.33259,-4.156975 -1.920421,-4.660901 -0.876922,-0.278304 -1.719855,0.185516 -3.215402,1.77061 -2.177001,2.307341 -3.07843,2.55827 -5.109136,1.421362 -1.199608,-0.671609 -2.618373,-0.879914 -3.392935,-0.638163 l -0.0012,-0.0048 -0.365516,0.104426 c -0.08877,-0.550703 -0.288311,-2.159928 -0.271527,-2.693047 0.03683,-1.168507 0.04676,-1.608767 -0.417738,-1.607003 -0.278681,0.0012 -0.727533,0.161047 -1.444668,0.418862 -0.152996,0.05501 -0.207666,0.335572 -0.356236,0.395663 -0.135808,0.05495 -0.366425,-0.110842 -0.497801,-0.05222 -0.307922,0.137414 -0.602394,0.283407 -0.879565,0.436267 -0.246819,0.136114 -0.371451,0.500731 -0.58715,0.643967 -0.208623,0.138561 -0.50979,0.0565 -0.683461,0.197249 -0.631019,0.511424 -1.006046,1.022438 -1.006046,1.429483 0.0012,0.06616 0.452476,0.74001 0.874925,1.350584 -5.94e-4,0.09515 -0.01456,0.177152 0.04527,0.333 0.204042,0.531688 -0.315171,1.09959 -1.42262,1.558278 -2.611261,1.081541 -4.742842,3.619827 -6.062966,7.21819 -1.020251,2.780976 -1.092531,3.650149 -0.530293,6.374658 0.742712,3.599023 3.368422,7.043255 5.815803,7.626614 2.435808,0.580598 3.052954,1.357583 3.052954,3.846377 0,1.875728 0.212698,2.303184 1.141807,2.303184 0.778555,0 1.261657,-0.552155 1.522413,-1.739281 l 0.382923,-1.740443 1.898374,1.120845 c 1.992546,1.175552 3.930719,0.773059 3.059917,-0.635839 -0.306461,-0.495818 -0.225751,-0.604877 0.236712,-0.319082 0.385918,0.23849 0.627615,0.881162 0.537256,1.428319 -0.09036,0.547167 0.169417,0.967874 0.577869,0.9352 0.408453,-0.03267 1.38591,-0.09951 2.172224,-0.148518 1.120122,-0.06983 1.363245,-0.346461 1.11976,-1.277486 -0.188964,-0.722556 -0.01877,-1.188141 0.43514,-1.188141 0.410537,0 1.071814,-0.444217 1.469038,-0.987411 1.005238,-1.37465 2.594406,-0.610835 3.372051,1.619775 0.351923,1.009445 1.238511,3.01708 1.970321,4.46249 l 1.330949,2.628067 h -3.959202 c -4.552274,0 -5.385302,0.551208 -5.385302,3.564424 0,2.585449 0.862021,3.564424 3.138815,3.564424 0.942167,0 1.624374,0.228226 1.51545,0.505889 -0.553559,1.411179 -6.835888,7.601397 -7.484427,7.37483 -0.522427,-0.182504 -0.296159,-0.803021 0.74264,-2.037476 1.708834,-2.030694 1.80126,-2.471576 0.706673,-3.379938 -0.602857,-0.500291 -1.236496,-0.190841 -2.701358,1.320415 L 71.962881,95.852694 64.66876,92.72222 C 60.657333,91.000402 54.988834,88.896267 52.071736,88.046282 47.229001,86.63521 36.937951,84.531488 36.656145,84.894923 c -0.06469,0.08342 -0.290699,0.874569 -0.502447,1.757846 -0.357192,1.490012 -0.223796,1.631413 1.847322,1.964378 5.826431,0.936701 11.65187,2.394413 16.999506,4.254799 7.443701,2.589578 14.13664,5.574991 13.918707,6.207575 -0.09269,0.269073 -4.015024,4.794789 -8.715582,10.057429 -7.965516,8.91802 -8.47972,9.63539 -7.55985,10.5552 0.91987,0.91981 1.152953,0.79302 3.42775,-1.86807 1.596119,-1.86717 2.642689,-2.65425 3.023943,-2.27302 0.381254,0.38123 0.04747,1.28622 -0.965432,2.61414 -1.787459,2.34332 -2.471978,5.03768 -1.87865,7.40152 0.248577,0.99034 3.415072,4.68515 7.898678,9.21622 6.922302,6.99557 7.416128,7.64145 6.578168,8.61634 -1.557382,1.81189 -1.665196,2.99359 -0.416574,4.58085 1.456568,1.85159 3.693544,1.98099 4.882862,0.28311 0.711082,-1.01513 1.087072,-1.12262 2.074754,-0.59407 0.52772,0.2824 1.216374,0.48052 1.771893,0.56738 -2.185407,-6.14522 -4.150226,-16.71263 -1.466715,-22.79398 1.54812,-3.3172 5.380039,-7.0906 8.540367,-8.41097 1.328049,-0.55486 3.233338,-0.83877 5.214733,-0.86326 6.149753,-0.16648 10.218122,4.37673 14.930552,7.31101 l 21.37645,-23.22329 20.48875,-22.761494 -2.32655,-2.165112 c -2.8639,-2.66531 -4.13435,-5.077023 -4.92231,-9.339207 -1.77111,-9.580109 4.63099,-18.361229 13.93147,-19.107726 5.19029,-0.416598 7.50276,0.112541 11.11176,2.541042 1.68166,1.131598 3.27699,2.057202 3.54495,2.057202 0.91402,0 1.27062,-3.554943 0.56975,-5.678478 -0.60217,-1.824439 -0.55249,-2.280501 0.35855,-3.287112 1.4888,-1.644988 0.53616,-4.100413 -2.10376,-5.42206 -2.58842,-1.295852 -10.89064,-9.495775 -10.10572,-9.980851 0.33016,-0.204034 -0.0469,-0.959377 -0.85984,-1.723037 -0.79621,-0.747947 -1.70512,-1.201134 -2.01905,-1.007134 -0.31392,0.194006 -0.90046,-0.04491 -1.30426,-0.531414 -0.47814,-0.5761 -1.05691,-0.859014 -1.57231,-0.850495 z m -38.25992,26.173917 2.24417,0.346925 c 1.23397,0.190471 2.36235,0.449296 2.50757,0.575512 0.14523,0.126199 -0.28692,0.781191 -0.96079,1.455004 l -1.22536,1.225271 -1.28337,-1.800777 z m -43.8889,0.212333 c 0.62408,0.336214 1.424082,0.806956 1.617567,1.945813 0.157588,1.032786 -0.08542,1.336659 -1.066385,1.336659 -0.936309,0 -1.184303,-0.272916 -0.945708,-1.039624 0.177943,-0.571793 0.129701,-1.32934 -0.107914,-1.684743 -0.07636,-0.11421 -0.183961,-0.222651 -0.312141,-0.323727 z m 1.965681,51.434687 c 0.264707,-0.0207 0.36668,0.21256 0.36668,0.65325 0,0.79179 -11.747998,13.50779 -12.128253,13.12757 -0.730949,-0.7309 -0.17963,-1.50828 5.543117,-7.81691 3.804755,-4.19427 5.541988,-5.91113 6.218456,-5.96391 z"
     sodipodi:nodetypes="sscccsssssssssssssssssssscccsssssssssssssscccssssccssssssssscccscssssssccssssssscccsssssssssccssssssscccsssssssssssssssssccscccccssssssssssssccsscccccsssccsssss" />
  <path
     id="rect79026"
     style="fill:#ffffff;stroke-width:0.415864;stroke-linejoin:round"
     d="m 76.723762,50.780777 c 1.415443,1.521035 -0.106489,3.559589 -1.37597,3.725982 0.03897,-1.879254 -0.185066,-2.804941 1.37597,-3.725982 z"
     sodipodi:nodetypes="ccc" />
  <path
     style="fill:#4c9bbf;fill-opacity:1;stroke-width:0.594092"
     d="m 76.325083,52.688398 c -1.065844,-0.02709 -0.920655,-1.207033 0.148528,-1.207033 0.490143,0 0.891169,0.347531 0.891169,0.772292 -0.244608,0.362793 -0.612887,0.75643 -1.039697,0.434741 z"
     id="path1184"
     sodipodi:nodetypes="cscc" />
  <path
     style="fill:#998272;fill-opacity:1;stroke-width:0.594092"
     d="m 74.98833,63.214261 c 0,-0.245054 0.518921,-0.445553 1.15316,-0.445553 0.634239,0 1.277087,0.200499 1.42855,0.445553 0.151463,0.245054 -0.367459,0.445553 -1.153161,0.445553 -0.785702,0 -1.428549,-0.200499 -1.428549,-0.445553 z"
     id="path1182" />
  <path
     id="path1126"
     style="fill:#ba48ff;fill-opacity:1;stroke-width:0.594092"
     d="M 150.18555 29.207031 C 146.33595 29.320501 141.05102 32.305545 132.56055 39.060547 C 129.75136 41.295536 126.78851 43.37761 125.97852 43.685547 C 125.01204 44.052974 121.86714 43.962714 116.82812 43.425781 C 105.5114 42.21993 104.79386 42.259659 104.33203 44.099609 C 104.121 44.940373 104.22808 45.905834 104.56836 46.246094 C 104.90864 46.586354 108.61838 47.27084 112.8125 47.767578 L 120.4375 48.671875 L 127.65234 55.796875 C 133.86156 61.929158 134.91807 63.248583 135.24219 65.275391 C 135.75506 68.482441 137.57702 71.87952 140.45898 75.005859 C 142.94857 77.706544 143.57429 78.044007 144.20508 77.023438 C 144.40815 76.694898 143.65462 75.291138 142.53125 73.904297 C 138.87408 69.38942 138.27176 67.725128 138.2793 62.173828 C 138.2873 55.938932 139.82894 52.059696 143.7207 48.472656 C 147.72169 44.784926 150.84116 43.620648 156.14062 43.841797 L 160.55078 44.025391 L 162.16992 41.751953 L 163.78711 39.478516 L 158.45117 34.539062 C 155.51601 31.822978 152.50126 29.48053 151.75195 29.332031 C 151.25544 29.233629 150.73549 29.190821 150.18555 29.207031 z M 168.30078 45.650391 C 168.01303 45.642406 167.62427 45.935835 167.0332 46.470703 L 165.79297 47.591797 L 167.09375 48.646484 C 169.02644 50.211373 169.65335 49.965798 169.22266 47.8125 C 168.92401 46.319378 168.72135 45.66206 168.30078 45.650391 z M 120.39453 50.662109 C 120.21116 50.672449 120.06882 50.760231 119.9375 50.902344 C 119.30909 51.582376 92.563709 81.533304 86.644531 88.185547 L 85.4375 89.542969 L 97.882812 101.99805 C 104.72773 108.84831 110.38682 114.45312 110.45898 114.45312 C 110.53118 114.45312 117.83774 106.42469 126.69531 96.611328 L 142.79883 78.767578 L 139.88086 75.576172 C 136.61202 71.999784 135.00216 69.016854 134.56055 65.724609 C 134.30851 63.8457 133.21852 62.463613 127.50391 56.765625 C 122.75159 52.027115 121.18916 50.617322 120.39453 50.662109 z M 96.177734 84.759766 C 96.669814 84.778056 96.963629 85.109962 96.953125 85.789062 C 96.944225 86.360855 96.006411 87.83137 94.867188 89.056641 C 92.879899 91.194036 91.681802 91.738383 90.832031 90.888672 C 90.114266 90.170964 90.411112 89.5319 92.583984 87.126953 C 93.991056 85.569604 95.357603 84.729286 96.177734 84.759766 z M 84.775391 90.091797 L 71.724609 104.66797 C 64.545764 112.68511 58.342107 119.83608 57.939453 120.56055 C 57.017807 122.21884 56.974341 124.25335 57.824219 125.92773 C 58.443765 127.14832 71.997676 141.18555 72.556641 141.18555 C 72.6994 141.18555 73.273534 140.77084 73.833984 140.26367 C 74.764038 139.42205 74.777666 139.098 73.988281 136.55078 C 71.586777 128.80152 76.788066 117.80763 84.349609 114.64844 C 87.3225 113.40637 93.717266 113.4206 96.646484 114.67578 C 97.938822 115.22955 100.37538 116.72387 102.06055 117.99609 L 105.125 120.30859 L 107.57422 117.8125 L 110.02344 115.31641 L 97.400391 102.70312 L 84.775391 90.091797 z " />
  <path
     id="path63819"
     style="fill:#65463d;fill-opacity:1;stroke-width:0.594092"
     d="m 72.023227,52.57272 c -0.253959,0.31819 -0.671709,0.39334 -1.192865,0.39334 -0.497016,0 -0.880456,-0.05109 -1.133685,-0.329519 -0.126617,-0.13922 -0.187787,-0.327232 -0.193788,-0.511691 -0.006,-0.184465 0.03315,-0.373242 0.09864,-0.583627 0.07565,-0.243093 0.105479,-0.546165 0.08819,-0.816847 -0.01729,-0.270688 -0.09036,-0.510598 -0.160131,-0.614958 -0.105247,-0.157417 -0.447824,-0.307717 -0.738001,-0.461795 v 25.807263 l 0.129962,-0.59059 2.251128,1.329697 c 0.947188,0.558789 1.886183,0.721344 2.392699,0.616117 0.253258,-0.05263 0.369924,-0.150698 0.411928,-0.251785 0.042,-0.101081 0.03992,-0.283342 -0.148528,-0.588267 -0.08224,-0.13306 -0.141779,-0.243777 -0.182179,-0.351571 -0.0202,-0.05388 -0.03761,-0.107349 -0.04295,-0.175203 -0.0053,-0.06786 -2.2e-4,-0.165704 0.06962,-0.259906 0.06984,-0.09421 0.190532,-0.137397 0.270363,-0.141555 0.07984,-0.0042 0.137786,0.01224 0.192623,0.03018 0.109685,0.03594 0.212746,0.09148 0.338828,0.169406 0.541759,0.334788 0.784508,1.061943 0.674181,1.729999 -0.03571,0.216366 0.0042,0.38794 0.0615,0.480359 0.05709,0.09242 0.101373,0.118082 0.19958,0.110228 0.413906,-0.03311 1.389076,-0.100572 2.17687,-0.149677 0.537077,-0.03348 0.797061,-0.135136 0.866798,-0.214652 0.03487,-0.03974 0.0562,-0.08428 0.06034,-0.194933 0.0042,-0.110651 -0.01967,-0.277876 -0.07658,-0.495443 -0.103964,-0.397505 -0.123689,-0.74642 -0.01509,-1.043105 0.108598,-0.296691 0.409469,-0.517495 0.737995,-0.517495 0.09812,0 0.33745,-0.07979 0.574388,-0.239018 0.236944,-0.159229 0.479425,-0.387216 0.65445,-0.626561 0.316847,-0.433273 0.72777,-0.643723 1.153416,-0.722865 l -0.09399,-0.60335 c -0.395929,-0.100339 -0.802557,-0.184489 -1.074512,-0.184489 -0.376721,0 -0.721211,-0.07088 -0.99676,-0.204212 -0.275556,-0.133321 -0.52797,-0.356062 -0.52797,-0.686894 0,-0.488754 0.402374,-0.891106 0.891168,-0.891106 0.10277,0 0.13427,-0.02115 0.199581,-0.186805 0.06549,-0.165633 0.09859,-0.458647 0.06846,-0.808727 -0.06031,-0.700159 -0.356859,-1.6253 -0.845915,-2.371643 -0.318902,-0.486662 -0.518571,-0.894492 -0.580187,-1.26704 -0.06162,-0.372541 0.06948,-0.755788 0.374802,-0.944477 0.126522,-0.07819 0.259235,-0.211709 0.350432,-0.351571 0.04777,-0.07329 0.04824,-0.121684 0.07078,-0.186806 -0.217249,0.05905 -0.571946,0.224434 -0.960793,0.479202 -0.693976,0.454678 -1.137107,0.725182 -1.647729,0.725182 -0.510628,0 -0.953758,-0.270504 -1.647735,-0.725182 -0.906491,-0.593917 -1.459164,-1.249242 -1.556064,-1.950453 -0.09691,-0.701218 0.329976,-1.359703 1.124405,-1.804258 0.237627,-0.132977 0.402565,-0.239833 0.479235,-0.314442 0.07669,-0.07461 0.07496,-0.07798 0.06962,-0.145036 -0.01123,-0.134106 -0.261593,-0.581144 -0.833147,-1.36451 -0.763405,-1.046312 -1.316078,-1.996671 -1.600159,-2.718568 -0.142041,-0.360946 -0.224402,-0.659615 -0.207708,-0.935198 0.0084,-0.137789 0.04492,-0.282498 0.150851,-0.400297 0.09391,-0.104467 0.234514,-0.158991 0.367839,-0.170563 0.0077,-0.01331 0.02436,-0.04111 0.03594,-0.10559 0.02709,-0.15011 0.01592,-0.412606 -0.06034,-0.704301 -0.594915,-1.564158 -0.946522,-1.949603 -1.069866,-1.964378 z m 12.267496,22.083883 -0.407294,0.268027 c 0.143069,0.264724 0.286719,0.53142 0.399173,0.853977 0.0018,0.0048 0.0064,0.01497 0.0081,0.01972 z"
     sodipodi:nodetypes="cssssssccccsssscssssssssscsssssccssssccsssscsssssscsssscsccccscc" />
  <path
     id="path1122"
     style="opacity:0.1;fill:#ffffff;stroke-width:0.594092"
     d="m 70.42655,53.331556 c -0.619404,0.01764 -0.785571,0.377586 -0.785571,1.376106 0,0.83957 0.267351,1.525787 0.594112,1.525787 0.326762,0 0.594113,-0.267332 0.594113,-0.594071 0,-0.326738 0.423691,-0.59407 0.941062,-0.59407 1.391887,0 0.66363,-1.453222 -0.838952,-1.674305 -0.194762,-0.02864 -0.36182,-0.04355 -0.504764,-0.03945 z m 0.385246,4.109764 c -0.127466,-1.96e-4 -0.226285,0.02667 -0.287776,0.08818 -0.205301,0.205293 0.105431,0.934075 0.691589,1.618611 1.152002,1.345344 3.436162,1.722733 3.032059,0.501247 -0.275294,-0.832127 -2.543616,-2.20667 -3.435872,-2.208036 z m 0.207708,2.950624 c -1.235641,0 -0.551621,2.785402 0.997925,4.06219 l 1.485281,1.222954 -1.485281,-0.346931 c -1.627904,-0.380402 -1.381116,-0.01586 1.416816,2.089691 0.94263,0.709404 1.374526,1.289086 0.959634,1.289086 -0.414893,0 -0.04848,0.555741 0.814581,1.234556 0.863038,0.678821 1.878739,1.814981 2.256933,2.5248 0.643067,1.206962 0.616784,1.232501 -0.414257,0.399139 -0.744857,-0.602049 -0.950069,-0.636577 -0.631245,-0.106743 0.498823,0.828966 2.847077,1.913989 3.279222,1.515344 0.140169,-0.129306 -0.327695,-1.022295 -1.039697,-1.985266 -1.603111,-2.168168 -1.625064,-2.617826 -0.10675,-2.220802 0.817422,0.213746 1.188225,0.01818 1.188225,-0.626561 0,-1.39669 -1.788997,-3.11075 -3.247894,-3.11075 -0.705122,0 -2.051114,-0.801995 -2.990287,-1.782212 -0.939173,-0.980217 -1.387431,-1.782212 -0.996766,-1.782212 0.540404,0 0.532045,-0.284186 -0.0325,-1.188142 -0.408132,-0.653477 -1.061988,-1.188141 -1.453948,-1.188141 z m -0.816905,12.487087 c -0.307833,0.0091 -0.136461,0.620038 0.729874,1.680109 0.760065,0.930036 1.476815,1.448796 1.592037,1.153335 0.115222,-0.295467 -0.261148,-1.055984 -0.835471,-1.690553 -0.71789,-0.793209 -1.247018,-1.150002 -1.48644,-1.142891 z m 4.106571,0.635846 c -0.104451,-0.0024 -0.187935,0.02198 -0.242522,0.07658 -0.34237,0.34234 2.667594,3.434472 3.343047,3.434472 0.379192,0 0.366228,-0.420596 -0.03713,-1.174217 -0.543322,-1.015124 -2.33223,-2.319216 -3.063393,-2.33683 z" />
  <path
     id="path1118"
     style="fill:#0b66ff;fill-opacity:1;stroke-width:0.594092"
     d="M 68.011719 50.292969 C 67.09795 50.292969 66.681378 55.623897 66.675781 67.373047 C 66.672181 74.833274 66.872791 78.214844 67.320312 78.214844 C 67.769801 78.214844 67.909114 75.692276 67.767578 70.046875 C 67.654947 65.554215 67.794189 59.271642 68.078125 56.085938 C 68.411137 52.349536 68.387152 50.292969 68.011719 50.292969 z M 66.240234 51.576172 C 66.007685 51.571985 65.155124 51.851097 64.181641 52.257812 C 57.583148 55.014651 55.762885 65.79166 61.103516 70.480469 C 62.227553 71.467316 63.784504 72.273438 64.5625 72.273438 L 65.976562 72.273438 L 66.185547 62.025391 C 66.300555 56.389145 66.352933 51.696528 66.300781 51.595703 C 66.294261 51.5831 66.273456 51.57677 66.240234 51.576172 z M 109.2832 58.060547 C 108.52277 58.072022 107.88478 58.796606 107.06055 60.412109 C 104.35529 65.714487 104.54373 66.18087 107.89062 62.470703 C 110.00445 60.127432 110.87131 58.757633 110.42383 58.470703 C 109.9986 58.198041 109.62886 58.055331 109.2832 58.060547 z M 90.603516 70.546875 C 88.531544 70.569358 87.905964 70.884451 86.685547 72.158203 C 85.807508 73.074611 85.089973 74.211361 85.091797 74.683594 C 85.099897 76.771526 86.419503 79.976246 87.865234 81.421875 L 89.4375 82.996094 L 90.878906 81.644531 L 92.320312 80.292969 L 90.65625 79.994141 C 89.668728 79.816621 88.629801 79.048053 88.099609 78.103516 C 87.296708 76.673144 87.307378 76.301518 88.197266 74.435547 C 88.990971 72.771235 89.752776 72.187508 92.039062 71.488281 L 94.890625 70.615234 L 91.585938 70.552734 C 91.225002 70.545977 90.899512 70.543663 90.603516 70.546875 z M 100.1875 70.673828 C 98.816859 70.624056 90.363503 72.783121 89.582031 73.431641 C 88.485175 74.341888 88.3474 77.671691 89.365234 78.689453 C 90.874286 80.198399 92.543484 79.368747 96.515625 75.136719 C 98.717465 72.790823 100.44805 70.801554 100.36133 70.714844 C 100.33728 70.690797 100.27888 70.677146 100.1875 70.673828 z " />
  <path
     id="path64706"
     style="opacity:0.575738;fill:none;fill-opacity:1;stroke-width:0.594092"
     d="m 71.569522,48.82149 c -0.775632,-0.0083 -1.334431,0.224797 -1.334431,0.701978 0,0.423608 0.328022,0.702441 0.728715,0.620756 0.400693,-0.08168 0.820766,0.452979 0.932941,1.188142 0.157588,1.032786 -0.08542,1.336659 -1.066385,1.336659 -0.936309,0 -1.184303,-0.272916 -0.945708,-1.039624 0.177943,-0.571793 0.129701,-1.32934 -0.107914,-1.684743 -0.2295,-0.343266 -0.73004,-0.633077 -1.282214,-0.824974 v 28.738173 c 0.0975,-0.222482 0.179048,-0.484205 0.245998,-0.789 l 0.382924,-1.740443 1.898373,1.120845 c 1.992546,1.175552 3.93072,0.773059 3.059917,-0.63584 -0.306461,-0.495817 -0.225751,-0.604876 0.236712,-0.319081 0.385918,0.23849 0.627615,0.881161 0.537256,1.428318 -0.09036,0.54717 0.169417,0.967875 0.57787,0.935201 0.408452,-0.03267 1.38591,-0.09951 2.172223,-0.148518 1.120122,-0.06983 1.363245,-0.34646 1.11976,-1.277486 -0.188964,-0.722556 -0.01877,-1.188141 0.43514,-1.188141 0.410537,0 1.071814,-0.444217 1.469038,-0.987411 0.362201,-0.495301 0.80002,-0.708465 1.248563,-0.679932 L 81.710047,72.50078 c -0.479585,-0.136202 -0.968843,-0.227422 -1.335594,-0.227422 -0.675007,0 -1.227674,-0.267332 -1.227674,-0.594071 0,-0.326739 0.26735,-0.59407 0.594112,-0.59407 0.902712,0 0.709626,-2.240782 -0.329548,-3.826647 -0.613903,-0.936868 -0.713476,-1.538792 -0.297056,-1.796137 0.344519,-0.212909 0.626604,-0.645737 0.626604,-0.960726 0,-0.314988 -0.668376,-0.134919 -1.485281,0.400303 -1.375887,0.901449 -1.594675,0.901449 -2.970563,0 -1.734434,-1.136368 -1.912757,-2.428597 -0.449065,-3.247666 0.970696,-0.543188 0.958392,-0.685147 -0.189142,-2.257932 -1.50582,-2.063849 -2.172271,-3.757034 -1.478318,-3.757034 0.28591,0 0.381872,-0.529465 0.212347,-1.177697 -0.16953,-0.648238 -0.101123,-1.918064 0.15201,-2.821836 L 73.9715,50.07113 73.9251,49.420201 C 73.128241,49.03055 72.262536,48.828946 71.569539,48.82149 Z m 13.018258,25.286293 -1.080311,0.707782 c 0.185506,0.303516 0.353657,0.657036 0.49432,1.060511 0.122434,0.351191 0.363157,0.911643 0.585991,1.438762 z" />
  <path
     id="path71018"
     style="fill:#65463d;fill-opacity:1;stroke-width:0.594092"
     d="m 69.759332,44.935668 c -0.200103,5.94e-4 -0.658152,0.149534 -1.375044,0.407259 0.02198,-0.0079 -0.02228,0.02436 -0.0731,0.107907 -0.0508,0.08357 -0.105812,0.215375 -0.276167,0.284275 -0.173249,0.07008 -0.296908,0.0062 -0.387564,-0.02091 -0.09068,-0.02709 -0.145575,-0.01473 -0.103274,-0.03363 -0.302926,0.135187 -0.591659,0.278328 -0.863323,0.428147 -0.06761,0.03731 -0.149651,0.134224 -0.236712,0.257589 -0.08706,0.123365 -0.176303,0.270706 -0.336511,0.377092 -0.158486,0.105276 -0.32337,0.116801 -0.445585,0.131118 -0.122209,0.01432 -0.195849,0.03362 -0.221633,0.05454 -0.597024,0.483877 -0.907222,0.962799 -0.920174,1.245 0.01426,0.0262 0.03363,0.06124 0.0615,0.106743 0.0611,0.0999 0.149877,0.237913 0.252961,0.39334 0.206181,0.310854 0.471613,0.696215 0.702027,1.025705 0.06198,0.08862 0.07662,0.105934 0.132285,0.184483 0.03113,0.0036 0.06066,0.0063 0.09167,0.01277 0.0872,0.0183 0.197762,0.04574 0.312141,0.0673 0.114378,0.02156 0.232119,0.03606 0.31214,0.0325 0.08012,-0.0036 0.09153,-0.02602 0.07775,-0.0048 0.150976,-0.233594 0.225382,-0.399494 0.286612,-0.505886 0.01533,-0.02661 0.02382,-0.04794 0.0673,-0.08934 0.02174,-0.02067 0.05911,-0.06025 0.143888,-0.06381 0.08436,-0.0036 0.164337,0.05965 0.1903,0.09862 0.03155,-0.05139 0.06713,-0.113913 0.09399,-0.149676 l 0.313305,-0.415386 0.06034,0.51633 c 0.0042,0.03707 0.01016,0.07448 0.02204,0.117193 0.01907,0.06861 0.03731,0.08459 0.09515,0.109065 0.05787,0.02424 0.163595,0.03873 0.301697,0.02899 0.276203,-0.01949 0.666136,-0.126169 1.06058,-0.236702 0.331437,-0.09286 0.668774,-0.175649 0.916697,-0.242499 0.102342,-0.02763 0.175495,-0.04931 0.236719,-0.06962 -0.01533,-0.08666 -0.02881,-0.153567 -0.04991,-0.302833 -0.03285,-0.23221 -0.07186,-0.528402 -0.10792,-0.837735 -0.07208,-0.618659 -0.136189,-1.275707 -0.125317,-1.620934 0.01842,-0.584019 0.02424,-0.986098 -0.01741,-1.195098 -0.02085,-0.104503 -0.0489,-0.149973 -0.0673,-0.167082 -0.01842,-0.01711 -0.04087,-0.03048 -0.124164,-0.03018 z" />
  <path
     id="rect80165"
     style="opacity:0.2;fill:#000000;stroke-width:0.415864;stroke-linejoin:round"
     d="m 83.97162,53.23641 c -0.675364,4.08461 -1.174769,8.24645 -9.12984,6.10315 0.217784,0.50158 0.201226,1.436237 0.703976,1.406337 1.610823,-0.0958 3.308214,0.85062 3.845631,1.47171 0.582723,0.673444 0.03012,1.595353 -0.14999,2.286578 -0.843545,3.237263 6.698737,1.597569 10.983488,0.578832 -0.24888,-2.089964 0.972301,-2.84902 0.791376,-5.367523 -0.725905,-1.237551 -1.244957,-2.553601 -2.889336,-3.439111 L 86.779728,55.655626 C 86.683618,54.741672 86.40691,54.022223 85.994157,53.451066 85.6846,53.022711 84.33246,53.652111 83.97162,53.23641 Z"
     sodipodi:nodetypes="ccsssccccsc" />
  <path
     style="fill:#3f3f3f;fill-opacity:1;stroke-width:0.594092"
     d="m 75.914474,53.579504 c 0.585753,-0.37518 1.200386,-1.480324 1.450306,-1.325847 0,0.912688 -1.178155,2.198061 -2.014713,2.198061 -0.323862,0 -0.06988,-0.392496 0.564407,-0.872214 z"
     id="path81628"
     sodipodi:nodetypes="ccsc" />
  <path
     id="path9228"
     style="color:#000000;fill:#3f3f3f;fill-rule:evenodd;stroke-linecap:round;stroke-linejoin:round;-inkscape-stroke:none"
     d="M 154 122.00391 C 153.9089 122.00191 150.48884 121.92721 146.86914 123.73828 C 142.87839 125.73336 139 130.44545 139 137 A 3.0003 3.0003 0 0 0 142 140 L 150 140 A 3.0003 3.0003 0 0 0 153 137 C 153 136 153.0573 136.32582 153.3418 136.18359 C 153.62625 136.04136 154 136 154 136 C 154 136 154.37375 136.0414 154.6582 136.18359 C 154.94266 136.32582 155 136 155 137 C 155 138.58221 154.87926 138.69247 154.0332 139.75 A 3.0003 3.0003 0 0 0 154.03125 139.75195 C 153.32821 140.63098 151.77095 141.91886 149.80078 143.39648 C 147.83062 144.87411 145.27044 146.70534 143.0332 149.50195 C 140.71749 152.39672 139 156.37047 139 161 L 139 165 A 3.0003 3.0003 0 0 0 142 168 L 166 168 A 3.0003 3.0003 0 0 0 169 165 L 169 157 A 3.0003 3.0003 0 0 0 166 154 L 158.97461 154 C 160.82386 152.61607 162.99385 150.9659 164.9668 148.5 L 164.9668 148.49805 C 167.28256 145.60328 169 141.62953 169 137 C 169 130.44545 165.12161 125.73336 161.13086 123.73828 C 157.51166 121.92851 154.09108 122.00176 154 122.00391 z " />
  <path
     d="m 154,125 c 0,0 -2.835,-0.056 -5.78908,1.422 C 145.25688,127.8988 142,131.6668 142,137 h 8 c 0,-4 4,-4 4,-4 0,0 4,0 4,4 0,2.1112 -0.5584,3.2916 -1.625,4.6248 -1.0666,1.3336 -2.77344,2.672 -4.77344,4.172 -2,1.5 -4.29316,3.1616 -6.22656,5.5784 C 143.4416,153.7916 142,157.1112 142,161 v 4 h 24 v -8 h -14.59376 c 0.1252,-0.176 0.0748,-0.4448 0.2188,-0.6248 1.0666,-1.3336 2.77344,-2.672 4.77344,-4.172 2,-1.5 4.29316,-3.1616 6.22656,-5.5784 1.9334,-2.4164 3.375,-5.736 3.375,-9.6248 0,-5.3332 -3.25688,-9.1012 -6.21092,-10.578 C 156.835,124.9448 154,125 154,125 Z"
     style="fill:#ffc107;fill-opacity:1;fill-rule:evenodd;stroke-width:4"
     id="path16" />
</svg>
