<?xml version="1.0" encoding="UTF-8" standalone="no"?>
<svg
   width="192"
   height="192"
   version="1"
   id="svg70"
   sodipodi:docname="games_sonic_kart.svg"
   inkscape:version="1.1-rc (1:1.1+rc+202105232036+f4db50c7c1)"
   xmlns:inkscape="http://www.inkscape.org/namespaces/inkscape"
   xmlns:sodipodi="http://sodipodi.sourceforge.net/DTD/sodipodi-0.dtd"
   xmlns="http://www.w3.org/2000/svg"
   xmlns:svg="http://www.w3.org/2000/svg">
  <defs
     id="defs74">
    <filter
       inkscape:collect="always"
       style="color-interpolation-filters:sRGB"
       id="filter961"
       x="-0.031428572"
       y="-0.10153846"
       width="1.0628571"
       height="1.2030769">
      <feGaussianBlur
         inkscape:collect="always"
         stdDeviation="2.2"
         id="feGaussianBlur963" />
    </filter>
    <filter
       inkscape:collect="always"
       style="color-interpolation-filters:sRGB"
       id="filter965"
       x="-0.025799969"
       y="-0.34400561"
       width="1.0515999"
       height="1.6880112">
      <feGaussianBlur
         inkscape:collect="always"
         stdDeviation="1.720028"
         id="feGaussianBlur967" />
    </filter>
    <filter
       inkscape:collect="always"
       style="color-interpolation-filters:sRGB"
       id="filter969"
       x="-0.026666667"
       y="-0.24"
       width="1.0533333"
       height="1.48">
      <feGaussianBlur
         inkscape:collect="always"
         stdDeviation="1.6"
         id="feGaussianBlur971" />
    </filter>
    <filter
       inkscape:collect="always"
       style="color-interpolation-filters:sRGB"
       id="filter973"
       x="-0.033998421"
       y="-0.081609089"
       width="1.0679968"
       height="1.1632182">
      <feGaussianBlur
         inkscape:collect="always"
         stdDeviation="0.67998876"
         id="feGaussianBlur975" />
    </filter>
    <filter
       inkscape:collect="always"
       style="color-interpolation-filters:sRGB"
       id="filter977"
       x="-0.052315422"
       y="-0.044342272"
       width="1.1046308"
       height="1.0886845">
      <feGaussianBlur
         inkscape:collect="always"
         stdDeviation="2.4414256"
         id="feGaussianBlur979" />
    </filter>
    <filter
       inkscape:collect="always"
       style="color-interpolation-filters:sRGB"
       id="filter981"
       x="-0.037714287"
       y="-0.065999995"
       width="1.0754286"
       height="1.132">
      <feGaussianBlur
         inkscape:collect="always"
         stdDeviation="0.88000014"
         id="feGaussianBlur983" />
    </filter>
  </defs>
  <sodipodi:namedview
     id="namedview72"
     pagecolor="#ffffff"
     bordercolor="#666666"
     borderopacity="1.0"
     inkscape:pageshadow="2"
     inkscape:pageopacity="0.0"
     inkscape:pagecheckerboard="0"
     showgrid="false"
     inkscape:zoom="3.27"
     inkscape:cx="74.770642"
     inkscape:cy="93.119266"
     inkscape:window-width="1920"
     inkscape:window-height="1019"
     inkscape:window-x="0"
     inkscape:window-y="34"
     inkscape:window-maximized="1"
     inkscape:current-layer="svg70" />
  <path
     style="opacity:0.2;stroke-width:4;filter:url(#filter977)"
     d="m 111.0625,19.859375 c -3.00828,0.0055 -5.92297,0.162144 -8.71094,0.46875 -8.397896,0.923547 -15.713492,3.213382 -22.499996,6.492187 -4.661176,2.251988 -9.19924,6.052603 -12.921876,9.34375 L 66.226564,36.78125 64.867188,36.625 c -4.661016,-0.551744 -9.090708,-0.649042 -12.75,-0.273436 -1.534804,0.157544 -1.494328,0.146956 -1.554688,0.46875 -0.058,0.309276 0.0148,2.479202 0.125,3.75781 0.400548,4.640692 1.305672,8.288656 2.664064,11.203124 l 0.27344,0.58594 -0.16408,0.32812 c -0.15012,0.30908 -0.17816,0.33592 -0.445312,0.33592 -0.462484,4e-6 -1.401948,0.27416 -1.984376,0.578128 -0.35544,0.18548 -0.72868,0.472508 -1.10156,0.843748 -0.479116,0.477036 -0.632908,0.692412 -0.992188,1.421876 -0.75502,1.532956 -0.992848,2.88206 -0.929688,5.273436 0.05336,2.019404 0.32512,3.834824 0.96094,6.453128 2.029724,8.128692 5.218048,16.672024 11.320312,22.6875 4.919552,5.43884 10.061492,10.240206 17.109372,13.492186 C 72.858768,111.29774 70.16906,125.5542 68,152 h 56 c 0,-21.00662 -1.18302,-34.35601 -4.5,-42.73438 2.16991,0.44193 4.29934,0.97898 6.50781,1.76563 4.89365,1.79646 11.28586,7.06275 15.32813,10.16406 0.10124,-10.24043 -2.0828,-18.61641 -7.30469,-28.539062 -2.18962,-3.258964 -5.6202,-6.6338 -8.75,-9.734372 0,-0.11884 0.7067,-0.7642 1.39063,-1.27344 1.59386,-1.186772 3.851,-1.640268 6.50781,-2.304684 6.30349,-1.576384 15.2715,-1.11902 25.09375,1.273436 0.921,0.22432 1.68792,0.406248 1.70312,0.406248 0.22632,0 -1.22869,-2.811884 -2.84375,-5.5 -2.39021,-3.978296 -5.44144,-8.09294 -8.32031,-11.218748 -6.87168,-7.46112 -14.36874,-12.43814 -22.27344,-13.726564 -0.77858,-0.12692 -1.25781,-0.23548 -1.25781,-0.28904 0,-0.18468 0.59078,-1.483112 1.35156,-2.984376 4.13598,-8.161567 10.24944,-15.025193 16.78907,-17.921876 1.79491,-0.795047 4.19254,-1.534646 5.82031,-1.796874 0.63085,-0.101624 0.81127,-0.178692 0.69531,-0.289064 -0.22259,-0.211905 -4.79773,-1.74123 -7.78125,-2.601582 -10.46787,-3.0186 -21.26669,-4.853977 -31.09375,-4.835937 z"
     id="path2" />
  <path
     style="fill:#0063da;stroke-width:4"
     d="M 93.529092,92 C 117.74855,91.789312 124,99.624396 124,148 H 68 C 71.986652,99.393628 77.674012,91.782492 93.529092,92 Z"
     id="path4" />
  <path
     style="fill:#0063da;stroke-width:4"
     d="m 111.06251,15.858787 c 9.82707,-0.01804 20.62931,1.815936 31.09717,4.834537 2.98352,0.860352 7.55703,2.38998 7.77962,2.601866 0.11596,0.110372 -0.0695,0.186692 -0.70034,0.288316 -1.62777,0.262228 -4.02121,1.001637 -5.81612,1.796684 -6.53963,2.896683 -12.6572,9.765596 -16.79318,17.927162 -0.76078,1.501264 -1.34544,2.797132 -1.34544,2.981808 0,0.0536 0.47478,0.1636 1.25336,0.29052 7.9047,1.288424 15.40412,6.2637 22.2758,13.72482 2.87887,3.125808 5.93192,7.242244 8.32213,11.22054 1.61505,2.688116 3.06745,5.499212 2.84112,5.499212 -0.0152,0 -0.78133,-0.18352 -1.70234,-0.407852 -9.82225,-2.392456 -18.79223,-2.846408 -25.09573,-1.270028 -2.6568,0.664416 -4.91617,1.113748 -6.51003,2.30052 -0.68393,0.50924 -1.38431,1.152496 -1.38431,1.27134 3.1298,3.100572 6.55999,6.477872 8.74962,9.73684 5.22188,9.922644 7.40075,18.296508 7.2995,28.536938 -4.04226,-3.10131 -10.42939,-8.36532 -15.32304,-10.16178 -5.76602,-2.05384 -10.90204,-2.72688 -18.01135,-3.09412 -1.9774,-0.10216 -9.332278,-0.0759 -9.410054,0.10188 C 78.376852,103.88783 69.087884,96.021444 60.287628,86.292272 54.185364,80.276796 50.99816,71.729168 48.968432,63.600476 c -0.6358,-2.618304 -0.90538,-4.432144 -0.958732,-6.451548 -0.06316,-2.391376 0.17492,-3.741796 0.92994,-5.274752 0.35928,-0.729464 0.509724,-0.94614 0.98884,-1.423176 0.37288,-0.37124 0.748412,-0.658264 1.10386,-0.84376 0.582424,-0.30396 1.518412,-0.576196 1.980896,-0.576196 0.26716,0 0.30032,-0.0244 0.450432,-0.33348 l 0.16192,-0.33348 -0.27168,-0.583064 c -1.358392,-2.914472 -2.269728,-6.562696 -2.670276,-11.203389 -0.11036,-1.278611 -0.1818,-3.44936 -0.1238,-3.758638 0.06036,-0.321796 0.0208,-0.309932 1.555604,-0.467474 3.659292,-0.375604 8.093504,-0.281692 12.75452,0.270052 l 1.356256,0.160452 0.701512,-0.620184 c 3.722636,-3.291147 8.26596,-7.093087 12.927136,-9.345075 6.786504,-3.278805 14.09668,-5.568263 22.49458,-6.49181 2.78796,-0.306604 5.7048,-0.460637 8.71307,-0.466159 z"
     id="path6" />
  <path
     style="fill:#ffffff;stroke-width:4"
     d="m 85.257872,48.015292 c 0.45946,-0.0284 0.91612,-0.0172 1.369912,0.0352 7.561304,0.873632 11.412276,6.185876 12.983044,14.017732 0.615392,5.148704 0.05008,11.289236 -1.447748,15.562444 -0.1404,0.400316 -0.199,0.670292 -0.15568,0.712172 0.04332,0.04188 0.30512,0.0264 0.690144,-0.0352 0.23404,-0.0376 0.824388,-0.0396 1.302444,-0.05516 V 88 H 57.491184 l -3.2276,-8.247952 -0.3892,-2.261892 c -2.536648,-7.609048 -2.381772,-18.152664 -0.23868,-20.958896 0.1278,-0.16736 0.36636,-0.37104 0.529284,-0.45138 1.360848,-0.671004 3.266624,0.953488 5.692404,4.844772 4.56256,9.058688 5.706328,11.469388 8.027484,15.005748 0.562632,0.589936 0.876104,0.667324 1.416616,0.33604 1.43118,-0.877228 2.259732,-3.954956 2.708692,-11.209168 0.14748,-2.38264 0.28876,-2.340828 0.56042,-3.651132 0.695316,-3.354104 1.934136,-6.028244 3.855476,-8.320364 2.329612,-2.779188 5.61556,-4.871856 8.831792,-5.07046 z"
     id="path8" />
  <path
     style="fill:#ffc77b;stroke-width:4"
     d="m 110.81854,27.991998 0.12468,0.390088 c 0.2254,0.705608 0.62814,2.448038 0.7576,3.27735 0.22148,1.418704 0.2992,2.476059 0.2992,4.072075 0,2.763315 -0.27516,4.609693 -1.05092,7.052501 -0.31188,0.982068 -0.4112,1.207988 -0.53142,1.207988 -0.0412,0 -0.4059,-0.2706 -0.81056,-0.601264 -3.91512,-3.199544 -8.80353,-5.98975 -13.247448,-7.561361 -0.18156,-0.06421 -0.34292,-0.152268 -0.35852,-0.195732 -0.04548,-0.12688 1.274864,-1.621379 2.143076,-2.425669 1.568776,-1.45327 3.019782,-2.410966 5.053542,-3.335676 0.73423,-0.33384 1.67287,-0.716602 2.08588,-0.850466 1.54239,-0.499934 3.40721,-0.879208 4.81153,-0.978632 z"
     id="path10" />
  <path
     style="fill:#fcb9a4;stroke-width:4"
     d="m 56.350984,84.129464 c 1.05262,0.0072 2.2865,0.495672 3.08534,1.235248 0.524616,0.485716 0.767572,0.90338 0.7778,1.337404 0.022,0.93036 -1.088792,1.27596 -2.7207,0.846492 -1.12386,-0.29576 -2.204868,-1.050348 -2.578348,-1.799816 -0.468484,-0.940132 -0.0088,-1.544452 1.228084,-1.614356 0.06836,-0.004 0.13764,-0.0052 0.2078,-0.0052 z"
     id="path12" />
  <path
     style="fill:#fcb9a4;stroke-width:4"
     d="m 56.255404,84.172288 c -1.23592,0.01 -1.754864,0.633856 -1.30306,1.567148 0.3198,0.660628 1.45026,1.452264 2.53772,1.777168 0.480816,0.14364 1.43606,0.2128 1.75846,0.12732 0.598584,-0.15876 0.935348,-0.502564 0.935348,-0.95508 0,-0.633412 -0.823352,-1.508204 -1.888236,-2.00618 -0.831072,-0.38864 -1.339928,-0.515888 -2.040232,-0.510348 z"
     id="path14" />
  <path
     style="fill:#fcb9a4;stroke-width:4"
     d="m 100.18104,86.552312 c -1.06728,0.0056 -1.57522,0.33888 -2.408968,1.580308 -1.36512,2.032604 -2.7792,3.385952 -4.626472,4.427856 -1.468304,0.828152 -3.149992,1.31982 -4.792796,1.401272 -0.547728,0.0272 -1.094864,0.10248 -1.412232,0.19436 -0.4497,0.1302 -0.579808,0.21152 -0.98416,0.615868 -0.39448,0.39448 -0.489856,0.543836 -0.622888,0.974516 -0.0864,0.27976 -0.15712,0.636324 -0.15712,0.792272 0,0.15596 0.07068,0.512372 0.15712,0.792124 0.13292,0.430388 0.22848,0.580108 0.621572,0.9732 0.39308,0.39308 0.542812,0.488784 0.973204,0.621716 0.483528,0.14932 1.30916,0.19336 2.026928,0.108 1.7683,-0.21028 2.403156,-0.34256 3.741404,-0.779412 2.537376,-0.828304 4.764068,-2.205456 6.743576,-4.170632 1.329302,-1.319692 2.856092,-3.371696 3.139412,-4.219452 0.4043,-1.209728 -0.14148,-2.499348 -1.29882,-3.06912 -0.44183,-0.21752 -0.56894,-0.24568 -1.09976,-0.24292 z"
     id="path16" />
  <path
     style="fill:#fcb9a4;stroke-width:4"
     d="m 99.09676,103.55931 c -0.0368,0.003 -0.0828,0.006 -0.1146,0.008 -0.35664,0.0336 -0.790932,0.0644 -1.091584,0.0788 0.18296,-0.0108 0.414268,-0.0292 0.6983,-0.0536 0.1384,-0.012 0.31532,-0.0228 0.507864,-0.0336 z"
     id="path18" />
  <path
     style="opacity:0.2;stroke-width:4;filter:url(#filter981)"
     d="m 106.59481,78.629452 c 2.86202,1.175924 4.66076,3.50772 5.24086,6.793884 0.18196,1.030724 0.22072,3.165444 0.0764,4.207916 -0.81827,5.910748 -4.54213,11.553678 -10.01911,15.304238 -2.735976,2.01309 -4.396896,2.55375 -7.453944,3.67109 -3.008292,0.93871 -6.203644,1.39076 -9.762008,1.3934 -3.4897,0.003 -6.242744,-0.36912 -9.28368,-1.25334 -6.72756,-1.95623 -12.38468,-6.29777 -15.670716,-12.02642 -2.376144,-5.124132 -4.991176,-9.49868 -3.040208,-12.641916 3.151152,-5.076864 11.761336,-1.085948 15.096484,0.463192 3.009612,1.402136 4.101912,1.793204 5.679464,2.033072 3.55166,0.54002 5.478024,-0.0344 12.138968,-3.618256 5.186108,-2.707532 11.46052,-6.459688 16.99749,-4.32686 z"
     id="path20" />
  <path
     style="fill:#ffc77b;stroke-width:4"
     d="m 106.59481,76.62946 c 2.86202,1.175924 4.66076,3.50772 5.24086,6.793884 0.18196,1.030724 0.22072,3.165444 0.0764,4.207916 -0.81827,5.910748 -4.54213,11.55368 -10.01911,15.30424 -2.735976,2.01309 -4.396896,2.55375 -7.453944,3.67109 -3.008292,0.93871 -6.203644,1.39076 -9.762008,1.3934 -3.4897,0.003 -6.242744,-0.36912 -9.28368,-1.25334 -6.72756,-1.95623 -12.38468,-6.29777 -15.670716,-12.026422 -2.376144,-5.124132 -4.991176,-9.49868 -3.040208,-12.641916 3.151152,-5.076864 11.761336,-1.085948 15.096484,0.463192 3.009612,1.402136 4.101912,1.793204 5.679464,2.033072 3.55166,0.54002 5.478024,-0.0344 12.138968,-3.618256 5.186108,-2.707532 11.46052,-6.459688 16.99749,-4.32686 z"
     id="path22" />
  <path
     style="fill:#4f4f4f;stroke-width:4"
     d="m 60.96152,91.84386 c 1.226924,-0.37752 1.856236,-0.856152 2.435336,-1.852184 C 64.756564,87.653 63.767176,83.87266 60.9346,80.583472 59.880248,79.359176 58.89624,78.517192 57.555012,77.691676 54.489248,75.8047 51.41928,75.469548 49.582076,76.821272 c -0.70516,0.51882 -1.054684,1.022976 -1.348,1.94432 -0.23884,0.750264 -0.2552,0.883136 -0.22,1.786688 0.0694,1.781728 0.598392,3.2676 1.84728,5.188592 1.535268,2.361464 3.92794,4.455564 6.223268,5.446668 1.723824,0.744336 3.718472,1.012768 4.876904,0.65632 z"
     id="path24" />
  <ellipse
     style="fill:#3f3f3f;stroke-width:4"
     cx="-80.164001"
     cy="72.972"
     rx="5.908"
     ry="8.0679998"
     transform="matrix(-0.99856635,0.0535279,0.13639029,0.99065518,0,0)"
     id="ellipse26" />
  <path
     style="opacity:0.5;fill:none;stroke:#000000;stroke-width:4;stroke-linecap:round"
     d="m 102.02848,85.9998 c -3.706816,5.333332 -7.999996,8 -15.999996,8"
     id="path28" />
  <path
     style="fill:#3f3f3f;stroke-width:4"
     d="M 24.1172,128 C 19.6204,128 16,131.568 16,136 v 32 c 0,4.4308 3.62036,8 8.1172,8 h 7.7656 C 36.3796,176 40,172.432 40,168 v -32 c 0,-4.432 -3.6204,-8 -8.1172,-8 z m 136,0 c -4.496,0 -8.116,3.568 -8.116,8 v 32 c 0,4.4308 3.62036,8 8.1172,8 h 7.7656 c 4.5,0 8.12,-3.568 8.12,-8 v -32 c 0,-4.4308 -3.62036,-8 -8.1172,-8 h -7.7656 z"
     id="path30" />
  <path
     style="opacity:0.2;stroke-width:4;filter:url(#filter961)"
     d="m 40,124 c -15.463973,0 -28,12.53603 -28,28 0.0102,4.15329 0.944204,8.2523 2.734375,12 0,0 1.265625,12 41.265625,12 h 40 40 c 40,0 41.26562,-12 41.26562,-12 1.79018,-3.7477 2.72438,-7.84671 2.73438,-12 0,-15.46397 -12.53603,-28 -28,-28 -13.70828,0.2088 -34.32896,9.21875 -56,9.21875 -21.67104,0 -42.291724,-9.00997 -56,-9.21875 z"
     id="path32" />
  <path
     opacity="0.2"
     d="m 16,166.99993 v 4 c 0,4.4308 3.62036,8 8.1172,8 h 7.7656 c 4.4968,0 8.1172,-3.568 8.1172,-8 v -4 c 0,4.4308 -3.62036,8 -8.1172,8 h -7.7656 c -4.4968,0 -8.1172,-3.568 -8.1172,-8 z m 136,0 v 4 c 0,4.4308 3.62036,8 8.1172,8 h 7.7656 c 4.5,0 8.12,-3.568 8.12,-8 v -4 c 0,4.4308 -3.62036,8 -8.1172,8 h -7.764 c -4.5,0 -8.12,-3.568 -8.12,-8 z"
     id="path34"
     style="stroke-width:4;filter:url(#filter965)" />
  <path
     style="fill:#3f3f3f;stroke-width:4"
     d="m 110.14214,105.85786 a 20,20 0 0 0 -28.284276,0 20,20 0 0 0 0,28.28428 20,20 0 0 0 28.284276,0 20,20 0 0 0 0,-28.28428 z m -5.65686,5.65686 a 12,12 0 0 1 3.47472,7.55162 l -8.695148,-2.33119 -2.331472,-8.68412 a 12,12 0 0 1 7.55473,3.46482 z m 1.40856,15.27464 a 12,12 0 0 1 -1.40856,1.69705 12,12 0 0 1 -13.650552,2.33685 l 6.36396,-6.36396 8.695152,2.33119 z m -16.68348,-16.67217 2.331472,8.68412 -6.358304,6.35831 a 12,12 0 0 1 2.331192,-13.6449 12,12 0 0 1 1.695952,-1.39767 z"
     id="path36" />
  <path
     fill="#ffffff"
     opacity="0.1"
     d="M 24.1172,128 C 19.6204,128 16,131.568 16,136 v 4 c 0,-4.4308 3.62036,-8 8.1172,-8 h 7.7656 C 36.3796,132 40,135.568 40,140 v -4 c 0,-4.432 -3.6204,-8 -8.1172,-8 z m 136,0 c -4.496,0 -8.116,3.568 -8.116,8 v 4 c 0,-4.4308 3.62036,-8 8.1172,-8 h 7.7656 c 4.5,0 8.12,3.568 8.12,8 v -4 c 0,-4.4308 -3.62036,-8 -8.1172,-8 h -7.7656 z"
     id="path38"
     style="stroke-width:4" />
  <path
     style="opacity:0.2;stroke-width:4;filter:url(#filter973)"
     d="m 83.710936,102.00727 a 5.1898272,9.4285652 43.486771 0 0 -7.835936,3.97656 5.1898272,9.4285652 43.486771 0 0 -3.585936,9.47656 6.2325188,3.51307 46.563462 0 0 2.367184,3.92969 6.2325188,3.51307 46.563462 0 0 6.789064,1.95313 6.2325188,3.51307 46.563462 0 0 -0.875,-5.77344 5.1898272,9.4285652 43.486771 0 0 0.04688,-0.0312 6.2325188,3.51307 46.563462 0 0 5.726564,0.98437 6.2325188,3.51307 46.563462 0 0 -1,-5.94531 5.1898272,9.4285652 43.486771 0 0 0.07812,-0.1328 6.2325188,3.51307 46.563462 0 0 5.9375,1.15625 6.2325188,3.51307 46.563462 0 0 -1.89844,-6.99219 6.2325188,3.51307 46.563462 0 0 -5.398436,-2.57813 5.1898272,9.4285652 43.486771 0 0 -0.35156,-0.0236 z m 24.578124,0 a 9.4285652,5.1898272 46.513228 0 0 -0.35156,0.0236 3.51307,6.2325188 43.436539 0 0 -5.39843,2.57812 3.51307,6.2325188 43.436539 0 0 -1.89844,6.99219 3.51307,6.2325188 43.436539 0 0 5.9375,-1.15625 9.4285652,5.1898272 46.513228 0 0 0.0781,0.1328 3.51307,6.2325188 43.436539 0 0 -1,5.94531 3.51307,6.2325188 43.436539 0 0 5.72656,-0.98437 9.4285652,5.1898272 46.513228 0 0 0.0469,0.0312 3.51307,6.2325188 43.436539 0 0 -0.875,5.77344 3.51307,6.2325188 43.436539 0 0 6.78907,-1.95313 3.51307,6.2325188 43.436539 0 0 2.36718,-3.92969 9.4285652,5.1898272 46.513228 0 0 -3.58594,-9.47656 9.4285652,5.1898272 46.513228 0 0 -7.83593,-3.97656 z"
     id="path40" />
  <path
     style="fill:#ffffff;stroke-width:4"
     d="m 116.12261,103.98704 a 9.4285652,5.1898272 46.513228 0 0 -8.18864,-3.95445 3.51307,6.2325188 43.436539 0 0 -5.39641,2.58007 3.51307,6.2325188 43.436539 0 0 -1.89616,6.98716 3.51307,6.2325188 43.436539 0 0 5.93646,-1.15218 9.4285652,5.1898272 46.513228 0 0 0.08,0.13164 3.51307,6.2325188 43.436539 0 0 -1.00407,5.94608 3.51307,6.2325188 43.436539 0 0 5.72844,-0.98759 9.4285652,5.1898272 46.513228 0 0 0.044,0.0292 3.51307,6.2325188 43.436539 0 0 -0.86807,5.77325 3.51307,6.2325188 43.436539 0 0 6.78853,-1.94637 3.51307,6.2325188 43.436539 0 0 2.36419,-3.92976 9.4285652,5.1898272 46.513228 0 0 -3.58829,-9.47669 z"
     id="path42" />
  <path
     style="fill:#ffffff;stroke-width:4"
     d="m 75.877396,103.98704 a 5.1898272,9.4285652 43.486771 0 1 8.188636,-3.95445 6.2325188,3.51307 46.563462 0 1 5.396416,2.58006 6.2325188,3.51307 46.563462 0 1 1.896152,6.98716 6.2325188,3.51307 46.563462 0 1 -5.93646,-1.15218 5.1898272,9.4285652 43.486771 0 1 -0.08,0.13164 6.2325188,3.51307 46.563462 0 1 1.004076,5.94608 6.2325188,3.51307 46.563462 0 1 -5.728444,-0.98759 5.1898272,9.4285652 43.486771 0 1 -0.044,0.0292 6.2325188,3.51307 46.563462 0 1 0.868068,5.77326 6.2325188,3.51307 46.563462 0 1 -6.788528,-1.94637 6.2325188,3.51307 46.563462 0 1 -2.36418,-3.92977 5.1898272,9.4285652 43.486771 0 1 3.58828,-9.47669 z"
     id="path44" />
  <path
     style="fill:#00a5ff;stroke-width:4"
     d="m 40,120 c -15.463973,0 -28,12.53603 -28,28 0.0102,4.15329 0.944204,8.2523 2.734375,12 0,0 1.265625,12 41.265625,12 h 40 40 c 40,0 41.26562,-12 41.26562,-12 1.79018,-3.7477 2.72438,-7.84671 2.73438,-12 0,-15.46397 -12.53603,-28 -28,-28 -13.70828,0.2088 -34.32896,9.21875 -56,9.21875 -21.67104,0 -42.291724,-9.00997 -56,-9.21875 z"
     id="path46" />
  <path
     style="opacity:0.3;stroke-width:4"
     d="M 31.882812,128.04165 C 26.350414,127.57516 21.398158,131.06448 20.25,136.62767 18.937822,142.98558 22.904734,152 29.53125,152 H 96 162.46875 c 6.62652,0 10.59343,-9.01442 9.28125,-15.37233 -1.31218,-6.35793 -7.59454,-10.0025 -14.03125,-8.13609 0,0 -40.78021,15.50842 -61.71875,15.50842 -20.93854,0 -61.71875,-15.50842 -61.71875,-15.50842 -0.80459,-0.23328 -1.608095,-0.38328 -2.398438,-0.44993 z"
     id="path48" />
  <path
     style="opacity:0.2;stroke-width:4;filter:url(#filter969)"
     d="m 32,134 a 8,8 0 0 0 -8,8 8,8 0 0 0 8,8 8,8 0 0 0 8,-8 8,8 0 0 0 -8,-8 z m 128,0 a 8,8 0 0 0 -8,8 8,8 0 0 0 8,8 8,8 0 0 0 8,-8 8,8 0 0 0 -8,-8 z m -112,8 a 4,4 0 0 0 -4,4 4,4 0 0 0 4,4 4,4 0 0 0 4,-4 4,4 0 0 0 -4,-4 z m 96,0 a 4,4 0 0 0 -4,4 4,4 0 0 0 4,4 4,4 0 0 0 4,-4 4,4 0 0 0 -4,-4 z"
     id="path50" />
  <circle
     style="fill:#ffffff;stroke-width:4"
     cx="32"
     cy="140"
     r="8"
     id="circle52" />
  <circle
     style="fill:#ffffff;stroke-width:4"
     cx="160"
     cy="140"
     r="8"
     id="circle54" />
  <circle
     style="fill:#ffffff;stroke-width:4"
     cx="48"
     cy="144"
     r="4"
     id="circle56" />
  <circle
     style="fill:#ffffff;stroke-width:4"
     cx="144"
     cy="144"
     r="4"
     id="circle58" />
  <path
     style="opacity:0.3;fill:#ffffff;stroke-width:4"
     d="m 28,152 c 12.041016,9.66879 22.411912,15.87356 13.781248,19.38281 C 45.884824,171.76689 50.555836,172 56,172 h 40 40 c 5.44416,0 10.11518,-0.23312 14.21875,-0.61719 C 141.58809,167.87356 151.95898,161.66879 164,152 H 96 Z"
     id="path60" />
  <path
     style="opacity:0.4;stroke-width:4"
     d="m 60,160 c -4.432,0 -8,3.568 -8,8 v 4 h 4 40 40 c 1.0382,0 4,0 4,0 0,0 0,-2.55486 0,-4 0,-4.432 -3.568,-8 -8,-8 z"
     id="path62" />
  <path
     style="fill:#3f3f3f;stroke-width:4"
     d="m 59.460936,60.343752 a 8.1006972,5.863234 76.827624 0 0 -3.359372,7.968748 8.1006972,5.863234 76.827624 0 0 7,7.679688 8.1006972,5.863234 76.827624 0 0 3.570312,-2.132812 c -1.650344,-2.743288 -3.12006,-5.60638 -6.8125,-12.9375 -0.14044,-0.22528 -0.26148,-0.36804 -0.39844,-0.578124 z"
     id="path64" />
  <path
     id="path1225"
     style="fill:#ffffff;stroke-width:4;opacity:0.1"
     d="M 111.0625 15.859375 C 108.05423 15.864897 105.13757 16.017615 102.34961 16.324219 C 93.951709 17.247766 86.641973 19.537601 79.855469 22.816406 C 75.194293 25.068394 70.65037 28.870962 66.927734 32.162109 L 66.226562 32.78125 L 64.869141 32.621094 C 60.208125 32.06935 55.774526 31.975959 52.115234 32.351562 C 50.58043 32.509105 50.620907 32.496563 50.560547 32.818359 C 50.531244 32.974616 50.535443 33.605973 50.560547 34.357422 C 50.563183 34.200169 50.550232 33.87336 50.560547 33.818359 C 50.620907 33.496563 50.58043 33.509105 52.115234 33.351562 C 55.774526 32.975958 60.208125 33.06935 64.869141 33.621094 L 66.226562 33.78125 L 66.927734 33.162109 C 70.65037 29.870962 75.194293 26.068394 79.855469 23.816406 C 86.641973 20.537601 93.951709 18.247766 102.34961 17.324219 C 105.13757 17.017615 108.05423 16.864897 111.0625 16.859375 C 120.88957 16.841335 131.6923 18.674758 142.16016 21.693359 C 144.19532 22.280235 146.88645 23.155345 148.51562 23.734375 C 148.75922 23.682796 149.01911 23.619291 149.23828 23.583984 C 149.86912 23.48236 150.05541 23.405294 149.93945 23.294922 C 149.71686 23.083036 145.14368 21.553711 142.16016 20.693359 C 131.6923 17.674758 120.88957 15.841335 111.0625 15.859375 z M 125.62695 46.408203 C 125.43429 46.844774 125.28516 47.207551 125.28516 47.289062 C 125.28516 47.342663 125.75853 47.453158 126.53711 47.580078 C 134.44181 48.868502 141.94082 53.843567 148.8125 61.304688 C 151.69137 64.430496 154.74456 68.547095 157.13477 72.525391 C 158.14745 74.210924 159.04366 75.864926 159.55469 76.923828 C 159.64146 76.944159 159.9728 77.023438 159.97656 77.023438 C 160.20289 77.023438 158.74982 74.213507 157.13477 71.525391 C 154.74456 67.547095 151.69137 63.430495 148.8125 60.304688 C 141.94082 52.843567 134.44181 47.868502 126.53711 46.580078 C 126.15117 46.517164 125.84277 46.457993 125.62695 46.408203 z M 53.376953 48.832031 C 53.289885 48.975383 53.217174 49.03125 53.013672 49.03125 C 52.551188 49.03125 51.615627 49.303462 51.033203 49.607422 C 50.677755 49.792918 50.300614 50.079932 49.927734 50.451172 C 49.448618 50.928208 49.298733 51.145536 48.939453 51.875 C 48.184433 53.407956 47.946606 54.757061 48.009766 57.148438 C 48.010813 57.188075 48.01441 57.226139 48.015625 57.265625 C 48.035555 55.426279 48.287473 54.198749 48.939453 52.875 C 49.298733 52.145536 49.448618 51.928208 49.927734 51.451172 C 50.300614 51.079932 50.677755 50.792918 51.033203 50.607422 C 51.615627 50.303462 52.551188 50.03125 53.013672 50.03125 C 53.280832 50.03125 53.312779 50.006346 53.462891 49.697266 L 53.625 49.363281 L 53.376953 48.832031 z M 125.76367 79.394531 C 125.48343 79.649098 125.28516 79.855863 125.28516 79.917969 C 128.41496 83.018541 131.84357 86.395329 134.0332 89.654297 C 139.07867 99.241713 141.26258 107.39941 141.31445 117.17578 C 141.32032 117.18028 141.32813 117.18691 141.33398 117.19141 C 141.43523 106.95098 139.25508 98.576941 134.0332 88.654297 C 131.95364 85.559148 128.76113 82.36472 125.76367 79.394531 z " />
  <path
     id="path1227"
     style="fill:#ffffff;stroke-width:4;opacity:0.2"
     d="M 40 120 C 24.536027 120 12 132.53603 12 148 C 12.000382 148.15572 12.024368 148.30929 12.027344 148.46484 C 12.315513 133.25042 24.716674 121 40 121 C 53.708276 121.20878 74.32896 130.21875 96 130.21875 C 117.67104 130.21875 138.29172 121.2088 152 121 C 167.28332 121 179.68449 133.25042 179.97266 148.46484 C 179.97563 148.30929 179.99963 148.15572 180 148 C 180 132.53603 167.46397 120 152 120 C 138.29172 120.2088 117.67104 129.21875 96 129.21875 C 74.32896 129.21875 53.708276 120.20878 40 120 z " />
</svg>
