<?xml version="1.0" encoding="UTF-8" standalone="no"?>
<svg
   width="192"
   height="192"
   version="1.1"
   id="svg16"
   sodipodi:docname="games_scummvm.svg"
   inkscape:version="1.1-rc (1:1.1+rc+202105232036+f4db50c7c1)"
   xmlns:inkscape="http://www.inkscape.org/namespaces/inkscape"
   xmlns:sodipodi="http://sodipodi.sourceforge.net/DTD/sodipodi-0.dtd"
   xmlns="http://www.w3.org/2000/svg"
   xmlns:svg="http://www.w3.org/2000/svg">
  <defs
     id="defs20">
    <filter
       inkscape:collect="always"
       style="color-interpolation-filters:sRGB"
       id="filter843"
       x="-0.054"
       y="-0.043200002"
       width="1.108"
       height="1.0864">
      <feGaussianBlur
         inkscape:collect="always"
         stdDeviation="2.88"
         id="feGaussianBlur845" />
    </filter>
    <filter
       inkscape:collect="always"
       style="color-interpolation-filters:sRGB"
       id="filter847"
       x="-0.055999995"
       y="-0.042"
       width="1.112"
       height="1.084">
      <feGaussianBlur
         inkscape:collect="always"
         stdDeviation="2.2400001"
         id="feGaussianBlur849" />
    </filter>
  </defs>
  <sodipodi:namedview
     id="namedview18"
     pagecolor="#ffffff"
     bordercolor="#666666"
     borderopacity="1.0"
     inkscape:pageshadow="2"
     inkscape:pageopacity="0.0"
     inkscape:pagecheckerboard="0"
     showgrid="false"
     inkscape:zoom="2.16"
     inkscape:cx="23.842593"
     inkscape:cy="97.916667"
     inkscape:window-width="1920"
     inkscape:window-height="1019"
     inkscape:window-x="0"
     inkscape:window-y="34"
     inkscape:window-maximized="1"
     inkscape:current-layer="svg16" />
  <path
     style="opacity:0.2;stroke-width:4;filter:url(#filter843)"
     d="m 94.194624,20 c -7.030656,0 -13.922848,0.9908 -20.482144,3.0156 h -0.016 C 67.036632,25.0772 60.802848,28.2584 55.401584,32.5468 49.8428,36.9612 45.2838,42.6084 42.074904,48.9532 c -3.950456,7.8108 -4.85884,15.6884 -4.858848,23.2188 8e-6,8.6008 2.300736,16.7188 5.999352,23.406 2.523224,4.564 5.903728,8.234 9.295864,11.8596 -4.169944,2.7036 -5.49612,5.1784 -6.202456,6.172 -1.656792,2.3296 -4.340912,5.7368 -6.827384,9.0936 -1.24324,1.6784 -2.439408,3.334 -3.608984,5.2188 -1.169576,1.8848 -2.800472,2.7996 -3.593352,9.3436 -1.245208,6.7344 1.885192,10.5376 5.249424,15.094 1.829528,2.292 3.923512,4.5552 6.358688,6.9216 4.785312,4.6504 10.312304,9.4708 17.7012,13.0312 C 71.972,177.7852 83.70296,180 96.584616,180 c 6.936794,0 14.110364,-0.81 21.263324,-2.75 h 0.016 c 7.02393,-1.9104 13.92204,-4.8188 20.18532,-9.2032 6.38596,-4.4708 11.72159,-10.3248 15.63892,-17.1248 C 158.13826,143.1988 160,134.4444 160,125.5936 c 0,-8.824 -1.61719,-17.3948 -5.54627,-25.078 h -0.016 C 151.66094,95.098 147.80207,90.35 143.56391,85.9688 c 1.57307,-1.558 4.15528,-2.5872 5.06195,-4.2968 0.0918,-0.176 0.1804,-0.352 0.2656,-0.5312 -0.83654,1.7276 3.6333,-5.2388 6.87426,-10.2188 0.15592,-0.24 1.92528,-1.9976 3.43713,-6.7032 C 160.7147,59.5132 159.01901,49.068 153.89092,44.4376 148.34539,39.4304 140.07476,32.2704 127.8625,27.0784 118.84173,23.05 107.57587,20.0156 94.194264,20.0156 Z"
     id="path2" />
  <path
     style="fill:#4f4f4f;stroke-width:4"
     d="m 94.194624,16 c -7.030656,0 -13.922848,0.9908 -20.482144,3.0156 h -0.016 C 67.036632,21.0772 60.802848,24.2584 55.401584,28.5468 49.8428,32.9612 45.2838,38.6084 42.074904,44.9532 c -3.950456,7.8108 -4.85884,15.6884 -4.858848,23.2188 8e-6,8.6008 2.300736,16.7188 5.999352,23.406 2.523224,4.564 5.903728,8.234 9.295864,11.8596 -4.169944,2.7036 -5.49612,5.1784 -6.202456,6.172 -1.656792,2.3296 -4.340912,5.7368 -6.827384,9.0936 -1.24324,1.6784 -2.439408,3.334 -3.608984,5.2188 -1.169576,1.8848 -2.800472,2.7996 -3.593352,9.3436 -1.245208,6.7344 1.885192,10.5376 5.249424,15.094 1.829528,2.292 3.923512,4.5552 6.358688,6.9216 4.785312,4.6504 10.312304,9.4708 17.7012,13.0312 C 71.972,173.7852 83.70296,176 96.584616,176 c 6.936794,0 14.110364,-0.81 21.263324,-2.75 h 0.016 c 7.02393,-1.9104 13.92204,-4.8188 20.18532,-9.2032 6.38596,-4.4708 11.72159,-10.3248 15.63892,-17.1248 C 158.13826,139.1988 160,130.4444 160,121.5936 c 0,-8.824 -1.61719,-17.3948 -5.54627,-25.078 h -0.016 C 151.66094,91.098 147.80207,86.35 143.56391,81.9688 c 1.57307,-1.558 4.15528,-2.5872 5.06195,-4.2968 0.0918,-0.176 0.1804,-0.352 0.2656,-0.5312 -0.83654,1.7276 3.6333,-5.2388 6.87426,-10.2188 0.15592,-0.24 1.92528,-1.9976 3.43713,-6.7032 C 160.7147,55.5132 159.01901,45.068 153.89092,40.4376 148.34539,35.4304 140.07476,28.2704 127.8625,23.0784 118.84173,19.05 107.57587,16.0156 94.194264,16.0156 Z"
     id="path4" />
  <path
     style="opacity:0.2;stroke-width:4;filter:url(#filter847)"
     d="m 140.06072,107.786 c 2.53249,4.9516 3.8025,10.948 3.8025,17.7932 0,6.6012 -1.39216,12.5132 -4.17396,17.3408 -2.78264,4.83 -6.49863,8.8996 -10.95202,12.0172 -4.45171,3.1176 -9.59333,5.3396 -15.21884,6.8696 -5.62969,1.5268 -11.38706,2.1932 -17.07448,2.1932 -11.379848,0 -20.139504,-1.7852 -27.868312,-5.938 -8.82116,-4.1552 -20.8116,-16.91 -20.572088,-18.886 0.31136,-2.5696 7.087968,-10.5272 11.195704,-16.3028 2.000592,-2.8128 2.79348,-4.1416 5.79056,-1.5144 3.745512,4.5408 8.947376,7.4596 13.742744,9.8984 3.0286,1.5312 4.831632,2.3888 8.481048,3.464 3.154936,0.9816 6.686048,1.3696 9.407616,1.3696 2.719056,0 4.532628,-0.204 5.817578,-1.3556 1.4206,-1.272 1.83656,-2.6148 1.83656,-5.3048 0,-2.3204 -1.96545,-5.012 -4.497938,-7.0932 -2.535824,-2.076 -5.39308,-3.8516 -9.164616,-6.1156 -3.77404,-2.2616 -7.95436,-4.9012 -12.343328,-7.5328 C 73.877976,106.062 69.79772,102.7792 66.026176,99.234 62.251304,95.69 59.594192,92.41 57.060024,87.8268 54.524208,83.2424 53.058248,78.1532 53.058248,72.1624 c 0,-5.8684 0.914256,-11.5904 3.140544,-15.992 2.226264,-4.4012 5.223912,-8.0964 8.99796,-11.0932 3.770704,-2.9936 8.130384,-5.2544 13.078224,-6.7856 C 83.220304,36.7648 88.478536,36 94.043808,36 c 11.182332,0 19.967402,2.4088 27.325542,5.7184 9.93731,4.196 16.26039,9.6924 21.66102,14.568 2.10509,1.9004 0.288,4.1944 -0.80947,5.8804 -2.7582,4.238 -6.66042,9.4636 -7.878,11.978 -0.96914,1.8272 -2.76052,2.5148 -4.24637,1.2408 0,0 -3.67287,-3.0836 -6.64041,-4.9812 -7.87993,-4.3548 -16.05544,-9.6028 -24.390672,-10.4024 -2.22628,0 -4.46304,0.648 -5.512176,1.748 -1.052488,1.1 -1.433624,3.3152 -1.378576,5.0256 0.09912,3.084 0.969728,3.6584 3.903296,6.4376 2.532472,1.896 4.528438,3.2604 9.652718,5.9656 3.83038,2.022 7.94549,4.2796 12.33698,6.7848 4.38896,2.5068 8.79953,5.7292 12.63465,9.2728 3.83428,3.5496 6.82088,7.5996 9.35838,12.5496 z"
     id="path6" />
  <path
     style="fill:#8dc808;stroke-width:4"
     d="m 140.06072,103.786 c 2.53249,4.9516 3.8025,10.948 3.8025,17.7932 0,6.6012 -1.39216,12.5132 -4.17396,17.3408 -2.78264,4.83 -6.49863,8.8996 -10.95202,12.0172 -4.45171,3.1176 -9.59333,5.3396 -15.21884,6.8696 -5.62969,1.5268 -11.38706,2.1932 -17.07448,2.1932 -11.379848,0 -20.139504,-1.7852 -27.868312,-5.938 -8.82116,-4.1552 -20.8116,-16.91 -20.572088,-18.886 0.31136,-2.5696 7.087968,-10.5272 11.195704,-16.3028 2.000592,-2.8128 2.79348,-4.1416 5.79056,-1.5144 3.745512,4.5408 8.947376,7.4596 13.742744,9.8984 3.0286,1.5312 4.831632,2.3888 8.481048,3.464 3.154936,0.9816 6.686048,1.3696 9.407616,1.3696 2.719056,0 4.532628,-0.204 5.817578,-1.3556 1.4206,-1.272 1.83656,-2.6148 1.83656,-5.3048 0,-2.3204 -1.96545,-5.012 -4.497938,-7.0932 -2.535824,-2.076 -5.39308,-3.8516 -9.164616,-6.1156 -3.77404,-2.2616 -7.95436,-4.9012 -12.343328,-7.5328 C 73.877976,102.062 69.79772,98.7792 66.026176,95.234 62.251304,91.69 59.594192,88.41 57.060024,83.8268 54.524208,79.2424 53.058248,74.1532 53.058248,68.1624 c 0,-5.8684 0.914256,-11.5904 3.140544,-15.992 2.226264,-4.4012 5.223912,-8.0964 8.99796,-11.0932 3.770704,-2.9936 8.130384,-5.2544 13.078224,-6.7856 C 83.220304,32.7648 88.478536,32 94.043808,32 c 11.182332,0 19.967402,2.4088 27.325542,5.7184 9.93731,4.196 16.26039,9.6924 21.66102,14.568 2.10509,1.9004 0.288,4.1944 -0.80947,5.8804 -2.7582,4.238 -6.66042,9.4636 -7.878,11.978 -0.96914,1.8272 -2.76052,2.5148 -4.24637,1.2408 0,0 -3.67287,-3.0836 -6.64041,-4.9812 -7.87993,-4.3548 -16.05544,-9.6028 -24.390672,-10.4024 -2.22628,0 -4.46304,0.648 -5.512176,1.748 -1.052488,1.1 -1.433624,3.3152 -1.378576,5.0256 0.09912,3.084 0.969728,3.6584 3.903296,6.4376 2.532472,1.896 4.528438,3.2604 9.652718,5.9656 3.83038,2.022 7.94549,4.2796 12.33698,6.7848 4.38896,2.5068 8.79953,5.7292 12.63465,9.2728 3.83428,3.5496 6.82088,7.5996 9.35838,12.5496 z"
     id="path8" />
  <path
     id="path1011"
     style="fill:#ffffff;stroke-width:4;opacity:0.1"
     d="M 94.195312 16 C 87.164657 16 80.272187 16.990825 73.712891 19.015625 L 73.697266 19.015625 C 67.037418 21.077225 60.803608 24.258475 55.402344 28.546875 C 49.84356 32.961275 45.283115 38.608325 42.074219 44.953125 C 38.123763 52.763925 37.216805 60.641475 37.216797 68.171875 C 37.216797 68.28405 37.227735 68.393851 37.228516 68.505859 C 37.282002 61.176807 38.239575 53.534942 42.074219 45.953125 C 45.283115 39.608325 49.84356 33.961275 55.402344 29.546875 C 60.803608 25.258475 67.037418 22.077225 73.697266 20.015625 L 73.712891 20.015625 C 80.272187 17.990825 87.164657 17 94.195312 17 L 94.193359 17.015625 C 107.57497 17.015625 118.84251 20.049725 127.86328 24.078125 C 140.07554 29.270125 148.3451 36.4303 153.89062 41.4375 C 157.64237 44.825132 159.5377 51.312637 159.70312 56.400391 C 159.78019 51.194102 157.8976 44.055596 153.89062 40.4375 C 148.3451 35.4303 140.07554 28.270125 127.86328 23.078125 C 118.84251 19.049725 107.57497 16.015625 94.193359 16.015625 L 94.195312 16 z M 144.08984 82.539062 C 143.91708 82.684005 143.72006 82.814629 143.56445 82.96875 C 147.80261 87.34995 151.66071 92.098025 154.4375 97.515625 L 154.45312 97.515625 C 158.30365 105.04521 159.92464 113.429 159.98828 122.06641 C 159.98947 121.90862 160 121.75161 160 121.59375 C 160 112.76975 158.3822 104.19882 154.45312 96.515625 L 154.4375 96.515625 C 151.77855 91.327926 148.11612 86.764674 144.08984 82.539062 z M 51.949219 103.82812 C 48.242922 106.37529 46.980369 108.66439 46.308594 109.60938 C 44.651802 111.93897 41.966941 115.34632 39.480469 118.70312 C 38.237229 120.38152 37.042623 122.03708 35.873047 123.92188 C 34.703471 125.80667 33.072177 126.72162 32.279297 133.26562 C 32.071386 134.39006 32.024235 135.40857 32.041016 136.38672 C 32.077225 135.70793 32.141423 135.01128 32.279297 134.26562 C 33.072177 127.72162 34.703471 126.80667 35.873047 124.92188 C 37.042623 123.03708 38.237229 121.38152 39.480469 119.70312 C 41.966941 116.34632 44.651802 112.93897 46.308594 110.60938 C 47.01493 109.61578 48.341775 107.1411 52.511719 104.4375 C 52.323127 104.23593 52.137593 104.03012 51.949219 103.82812 z " />
  <path
     id="path1013"
     style="fill:#ffffff;stroke-width:4;opacity:0.1"
     d="M 94.042969 32 C 88.477697 32 83.220719 32.764216 78.275391 34.291016 C 73.327551 35.822216 68.96797 38.084525 65.197266 41.078125 C 61.423218 44.074925 58.425483 47.768722 56.199219 52.169922 C 53.972931 56.571522 53.058594 62.293709 53.058594 68.162109 C 53.058594 68.293437 53.068908 68.418363 53.070312 68.548828 C 53.132509 62.896986 54.05081 57.417546 56.199219 53.169922 C 58.425483 48.768722 61.423218 45.074925 65.197266 42.078125 C 68.96797 39.084525 73.327551 36.822216 78.275391 35.291016 C 83.220719 33.764216 88.477697 33 94.042969 33 C 105.2253 33 114.011 35.40915 121.36914 38.71875 C 131.30645 42.91475 137.63062 48.411509 143.03125 53.287109 C 143.55271 53.757861 143.83073 54.252028 143.94141 54.755859 C 144.07815 53.912258 143.89551 53.067336 143.03125 52.287109 C 137.63062 47.411509 131.30645 41.91475 121.36914 37.71875 C 114.011 34.40915 105.2253 32 94.042969 32 z M 92.197266 63.089844 C 92.189738 63.319672 92.166847 63.558494 92.173828 63.775391 C 92.272948 66.859391 93.144557 67.433691 96.078125 70.212891 C 98.610597 72.108891 100.60619 73.474488 105.73047 76.179688 C 109.56085 78.201688 113.67687 80.457691 118.06836 82.962891 C 122.45732 85.469691 126.86801 88.692728 130.70312 92.236328 C 134.53741 95.785928 137.52305 99.835156 140.06055 104.78516 C 142.52748 109.60857 143.78751 115.43158 143.85156 122.05664 C 143.85322 121.89641 143.86328 121.74114 143.86328 121.58008 C 143.86328 114.73488 142.59304 108.73676 140.06055 103.78516 C 137.52305 98.835156 134.53741 94.785928 130.70312 91.236328 C 126.86801 87.692728 122.45732 84.469691 118.06836 81.962891 C 113.67687 79.457691 109.56085 77.201688 105.73047 75.179688 C 100.60619 72.474488 98.610597 71.108891 96.078125 69.212891 C 93.254513 66.53786 92.350083 65.883547 92.197266 63.089844 z M 62.367188 115.94141 C 61.227354 115.93652 60.449589 117.11505 59.199219 118.87305 C 55.091483 124.64865 48.315266 132.60618 48.003906 135.17578 C 47.988121 135.30601 48.031142 135.48872 48.117188 135.70703 C 49.046717 132.74681 55.313156 125.33697 59.199219 119.87305 C 61.199811 117.06025 61.993154 115.73218 64.990234 118.35938 C 68.735746 122.90018 73.937054 125.81901 78.732422 128.25781 C 81.761022 129.78901 83.563475 130.6455 87.212891 131.7207 C 90.367827 132.7023 93.899526 133.08984 96.621094 133.08984 C 99.34015 133.08984 101.1545 132.88598 102.43945 131.73438 C 103.86005 130.46238 104.27539 129.11969 104.27539 126.42969 C 104.27539 126.32276 104.2504 126.21193 104.24219 126.10352 C 104.16634 128.3197 103.726 129.58241 102.43945 130.73438 C 101.1545 131.88598 99.34015 132.08984 96.621094 132.08984 C 93.899526 132.08984 90.367827 131.7023 87.212891 130.7207 C 83.563475 129.6455 81.761022 128.78901 78.732422 127.25781 C 73.937054 124.81901 68.735746 121.90018 64.990234 117.35938 C 63.866329 116.37418 63.051088 115.94434 62.367188 115.94141 z " />
</svg>
