<?xml version="1.0" encoding="UTF-8" standalone="no"?>
<svg
   width="192"
   height="192"
   version="1"
   id="svg28"
   sodipodi:docname="games_summoner.svg"
   inkscape:version="1.1.1 (1:1.1+202109281949+c3084ef5ed)"
   xmlns:inkscape="http://www.inkscape.org/namespaces/inkscape"
   xmlns:sodipodi="http://sodipodi.sourceforge.net/DTD/sodipodi-0.dtd"
   xmlns="http://www.w3.org/2000/svg"
   xmlns:svg="http://www.w3.org/2000/svg"
   xmlns:rdf="http://www.w3.org/1999/02/22-rdf-syntax-ns#"
   xmlns:cc="http://creativecommons.org/ns#"
   xmlns:dc="http://purl.org/dc/elements/1.1/">
  <metadata
     id="metadata34">
    <rdf:RDF>
      <cc:Work
         rdf:about="">
        <dc:format>image/svg+xml</dc:format>
        <dc:type
           rdf:resource="http://purl.org/dc/dcmitype/StillImage" />
      </cc:Work>
    </rdf:RDF>
  </metadata>
  <defs
     id="defs32">
    <filter
       inkscape:collect="always"
       style="color-interpolation-filters:sRGB"
       id="filter6495"
       x="-0.048000001"
       y="-0.048000001"
       width="1.096"
       height="1.096">
      <feGaussianBlur
         inkscape:collect="always"
         stdDeviation="3.2"
         id="feGaussianBlur6497" />
    </filter>
    <filter
       inkscape:collect="always"
       style="color-interpolation-filters:sRGB"
       id="filter173153"
       x="-0.055978762"
       y="-0.11360088"
       width="1.1119575"
       height="1.2272018">
      <feGaussianBlur
         inkscape:collect="always"
         stdDeviation="1.9367065"
         id="feGaussianBlur173155" />
    </filter>
    <filter
       inkscape:collect="always"
       style="color-interpolation-filters:sRGB"
       id="filter173195"
       x="-0.11305305"
       y="-0.10337933"
       width="1.2261061"
       height="1.2067587">
      <feGaussianBlur
         inkscape:collect="always"
         stdDeviation="1.7883781"
         id="feGaussianBlur173197" />
    </filter>
    <filter
       inkscape:collect="always"
       style="color-interpolation-filters:sRGB"
       id="filter173237"
       x="-0.059779136"
       y="-0.1006196"
       width="1.1195583"
       height="1.2012392">
      <feGaussianBlur
         inkscape:collect="always"
         stdDeviation="1.7668575"
         id="feGaussianBlur173239" />
    </filter>
    <filter
       inkscape:collect="always"
       style="color-interpolation-filters:sRGB"
       id="filter173297"
       x="-0.078840644"
       y="-0.17138828"
       width="1.1576813"
       height="1.3427766">
      <feGaussianBlur
         inkscape:collect="always"
         stdDeviation="1.6424974"
         id="feGaussianBlur173299" />
    </filter>
    <filter
       inkscape:collect="always"
       style="color-interpolation-filters:sRGB"
       id="filter173339"
       x="-0.095738709"
       y="-0.1238632"
       width="1.1914774"
       height="1.2477264">
      <feGaussianBlur
         inkscape:collect="always"
         stdDeviation="3.5503106"
         id="feGaussianBlur173341" />
    </filter>
    <filter
       inkscape:collect="always"
       style="color-interpolation-filters:sRGB"
       id="filter173381"
       x="-0.065217391"
       y="-0.088235298"
       width="1.1304348"
       height="1.1764706">
      <feGaussianBlur
         inkscape:collect="always"
         stdDeviation="3.1249999"
         id="feGaussianBlur173383" />
    </filter>
    <filter
       inkscape:collect="always"
       style="color-interpolation-filters:sRGB"
       id="filter173423"
       x="-0.064422999"
       y="-0.089732301"
       width="1.128846"
       height="1.1794646">
      <feGaussianBlur
         inkscape:collect="always"
         stdDeviation="1.0468737"
         id="feGaussianBlur173425" />
    </filter>
    <filter
       inkscape:collect="always"
       style="color-interpolation-filters:sRGB"
       id="filter173465"
       x="-0.062686319"
       y="-0.093333881"
       width="1.1253726"
       height="1.1866678">
      <feGaussianBlur
         inkscape:collect="always"
         stdDeviation="0.77711113"
         id="feGaussianBlur173467" />
    </filter>
  </defs>
  <sodipodi:namedview
     pagecolor="#ffffff"
     bordercolor="#666666"
     borderopacity="1"
     objecttolerance="10"
     gridtolerance="10"
     guidetolerance="10"
     inkscape:pageopacity="0"
     inkscape:pageshadow="2"
     inkscape:window-width="1920"
     inkscape:window-height="1016"
     id="namedview30"
     showgrid="false"
     inkscape:zoom="4.97"
     inkscape:cx="41.549296"
     inkscape:cy="74.547284"
     inkscape:window-x="0"
     inkscape:window-y="32"
     inkscape:window-maximized="1"
     inkscape:current-layer="svg28"
     inkscape:pagecheckerboard="0"
     inkscape:snap-global="false"
     showguides="false"
     inkscape:snap-bbox="true"
     inkscape:snap-bbox-midpoints="true">
    <inkscape:grid
       type="xygrid"
       id="grid841" />
  </sodipodi:namedview>
  <rect
     id="rect6457"
     transform="matrix(0,-1,-1,0,0,0)"
     ry="12"
     rx="12"
     y="-176"
     x="-180"
     height="160"
     width="160"
     style="opacity:0.2;fill:#000000;fill-opacity:1;stroke-width:4;filter:url(#filter6495)" />
  <rect
     id="rect2"
     transform="matrix(0,-1,-1,0,0,0)"
     ry="12"
     rx="12"
     y="-176"
     x="-176"
     height="160"
     width="160"
     style="fill:#08c9f6;fill-opacity:1;stroke-width:4" />
  <path
     id="path173343"
     style="opacity:0.2;fill:#000000;fill-opacity:1;stroke-width:13.6909;stroke-linecap:round;stroke-linejoin:round;filter:url(#filter173381)"
     d="M 92.513197,44.057362 C 122.19249,44.575879 146.78688,63.857783 159,83.516246 l -14.16882,12.245696 c 0.0314,6.668278 -2.01598,14.199718 -4.55145,19.326868 -0.63146,1.80592 -2.02822,2.69635 -3.44556,3.62126 -12.61652,8.2203 -23.70021,9.93915 -34.41927,10.11138 -11.603839,0.448 -21.144339,0.40782 -29.94397,-4.48702 C 64.406922,119.81249 52.647723,110.96312 44.646566,89.664258 43.404268,87.303244 44.178985,85.98905 45.076327,83.832304 56.435452,56.567395 72.149534,43.000177 92.513197,44.057362 Z"
     sodipodi:nodetypes="cccccccccc" />
  <path
     id="rect6416"
     style="opacity:0.2;fill:#ffffff;fill-opacity:1;stroke-width:4"
     d="m 28,16 c -6.648,0 -12,5.352 -12,12 v 1 c 0,-6.648 5.352,-12 12,-12 h 136 c 6.648,0 12,5.352 12,12 v -1 c 0,-6.648 -5.352,-12 -12,-12 z" />
  <path
     id="rect26626"
     style="fill:#e40422;fill-opacity:1;stroke-width:13.6877;stroke-linecap:round;stroke-linejoin:round"
     d="M 46.569535,149.02422 68.099988,153.21389 87,176 H 32.715964 Z"
     sodipodi:nodetypes="ccccc" />
  <path
     id="rect1025"
     style="fill:#ef314b;fill-opacity:1;stroke-width:13.6909;stroke-linecap:round;stroke-linejoin:round"
     d="M 92.513197,42.05736 C 122.19249,42.575877 146.78688,61.857781 159,81.516244 L 144.83118,93.76194 c 0.0314,6.66828 -2.01598,14.19972 -4.55145,19.32687 -0.63146,1.80592 -2.02822,2.69635 -3.44556,3.62126 -12.61652,8.2203 -23.70021,9.93915 -34.41927,10.11138 -11.603839,0.448 -21.144339,0.40782 -29.94397,-4.48702 C 64.406922,117.81249 52.647723,108.96312 44.646566,87.664256 43.404268,85.303242 44.178985,83.989048 45.076327,81.832302 56.435452,54.567393 72.149534,41.000175 92.513197,42.05736 Z"
     sodipodi:nodetypes="cccccccccc" />
  <path
     id="path173301"
     style="opacity:0.2;fill:#000000;fill-opacity:1;stroke-width:13.6936;stroke-linecap:round;stroke-linejoin:round;filter:url(#filter173339)"
     d="m 84.431117,55.363419 c -6.583752,0 -13.421302,1.087803 -20.629612,4.142231 -2.862143,0.890604 -3.905485,2.125884 -5.533922,4.582302 l -13.11018,19.77607 c -0.0255,0.0607 -0.05244,0.11608 -0.07791,0.176914 -0.899659,2.15205 -1.676763,3.46345 -0.431258,5.819322 0.900991,2.387041 1.854703,4.595211 2.840173,6.680308 9.989075,16.972924 20.736166,25.152264 30.960954,26.894214 17.320994,2.95091 40.621218,-3.12228 52.836348,-19.02897 1.9799,-2.58728 2.0177,-3.07638 1.25207,-6.475872 -1.71781,-9.525726 -4.43927,-19.382131 -9.12334,-27.986372 -1.89349,-2.740674 -2.83519,-4.165336 -6.982,-5.842125 -10.31448,-4.691854 -20.789538,-8.573125 -32.001323,-8.738022 z"
     sodipodi:nodetypes="sccccccsccccss" />
  <path
     id="rect4142"
     style="fill:#ffc035;fill-opacity:1;stroke-width:13.6936;stroke-linecap:round;stroke-linejoin:round"
     d="m 84.431117,53.363377 c -6.583752,0 -13.421302,1.087803 -20.629612,4.142231 -2.862143,0.890604 -3.905485,2.125884 -5.533922,4.582302 l -13.11018,19.77607 c -0.0255,0.0607 -0.05244,0.11608 -0.07791,0.176914 -0.899659,2.15205 -1.676763,3.46345 -0.431258,5.819322 0.900991,2.387041 1.854703,4.595211 2.840173,6.680308 9.989075,16.972926 20.736166,25.152266 30.960954,26.894216 17.320994,2.95091 40.621218,-3.12228 52.836348,-19.02897 1.9799,-2.58728 2.0177,-3.076378 1.25207,-6.475874 -1.71781,-9.525726 -4.43927,-19.382131 -9.12334,-27.986372 -1.89349,-2.740674 -2.83519,-4.165336 -6.982,-5.842125 -10.31448,-4.691854 -20.789538,-8.573125 -32.001323,-8.738022 z"
     sodipodi:nodetypes="sccccccsccccss" />
  <path
     id="rect5905"
     style="fill:#4e2921;fill-opacity:1;stroke-width:13.6399;stroke-linecap:round;stroke-linejoin:round"
     d="m 68.843844,69.529571 c 11.027859,-1.831776 22.264685,-3.390132 40.264056,3.899968 2.04661,0.56524 3.23411,1.661761 4.40422,3.180313 3.66955,4.774544 6.05618,10.124299 6.40528,16.387615 0.28063,3.35532 -0.0325,4.488708 -2.26559,6.662887 -12.82421,12.421726 -48.412839,21.119096 -63.924433,-9.931689 -1.076733,-2.04461 -0.889788,-2.65339 0.112787,-4.52854 2.740511,-5.12113 5.614643,-9.666529 8.80562,-12.84679 1.870928,-1.545892 3.842989,-2.432336 6.19806,-2.823764 z"
     sodipodi:nodetypes="ccccccccc" />
  <path
     id="path173241"
     style="opacity:0.2;fill:#000000;fill-opacity:1;stroke:none;stroke-width:12.5135;stroke-linecap:round;stroke-linejoin:round;filter:url(#filter173297)"
     d="m 68.28125,75.003906 a 6.6414456,9.2677505 20.007655 0 0 -7.148438,5.810547 6.6414456,9.2677505 20.007655 0 0 2.050782,11.603516 6.6414456,9.2677505 20.007655 0 0 9.683594,-5.232422 A 6.6414456,9.2677505 20.007655 0 0 70.816406,75.582031 6.6414456,9.2677505 20.007655 0 0 68.28125,75.003906 Z M 100.5,77 A 9.5,10.5 0 0 0 91,87.5 9.5,10.5 0 0 0 100.5,98 9.5,10.5 0 0 0 110,87.5 9.5,10.5 0 0 0 100.5,77 Z" />
  <path
     id="path7969"
     style="fill:#60ff4a;fill-opacity:1;stroke:none;stroke-width:12.5135;stroke-linecap:round;stroke-linejoin:round"
     d="M 68.28125 73.003906 A 6.6414456 9.2677505 20.007655 0 0 61.132812 78.814453 A 6.6414456 9.2677505 20.007655 0 0 63.183594 90.417969 A 6.6414456 9.2677505 20.007655 0 0 72.867188 85.185547 A 6.6414456 9.2677505 20.007655 0 0 70.816406 73.582031 A 6.6414456 9.2677505 20.007655 0 0 68.28125 73.003906 z M 100.5 75 A 9.5 10.5 0 0 0 91 85.5 A 9.5 10.5 0 0 0 100.5 96 A 9.5 10.5 0 0 0 110 85.5 A 9.5 10.5 0 0 0 100.5 75 z " />
  <path
     id="path173385"
     style="opacity:0.2;fill:#000000;fill-opacity:1;stroke-width:13.4598;stroke-linecap:round;stroke-linejoin:round;filter:url(#filter173423)"
     d="m 67.565534,54.229445 c 2.770893,-2.731248 6.632606,-3.986932 10.477739,-4.616806 2.598584,-2.251166 4.872183,-4.419236 7.99541,-6.804546 1.170771,-1.12802 1.841684,-0.990512 2.97737,-0.108148 1.828732,1.431909 3.774633,3.952384 5.697344,6.805102 5.507173,0.81812 9.457103,2.207983 10.958813,4.496705 0.61707,0.803566 0.27147,1.345063 -0.28379,1.991966 -1.46614,1.693965 -4.05984,2.856795 -6.723174,3.986824 -0.209752,2.829605 0.179687,5.756643 -1.059354,8.418864 -0.43593,1.187889 -1.279886,1.539832 -2.398674,1.595413 -3.591926,0.156363 -7.537664,-3.264949 -11.318538,-5.019163 -3.516741,1.751645 -7.032011,3.508173 -10.822997,4.34483 -1.477167,0.438864 -1.784417,0.234069 -2.072972,-1.149372 -0.672998,-3.260117 -0.03724,-6.223527 1.073069,-9.079359 -1.647572,-0.819385 -3.473476,-1.427161 -4.576501,-2.89273 -0.702355,-0.894812 -0.623528,-1.259842 0.07625,-1.96958 z"
     sodipodi:nodetypes="cccccccccccccccc" />
  <path
     id="rect8199"
     style="fill:#7a8c9a;fill-opacity:1;stroke-width:13.4598;stroke-linecap:round;stroke-linejoin:round"
     d="m 67.565534,52.229445 c 2.770893,-2.731248 6.632606,-3.986932 10.477739,-4.616806 2.598584,-2.251166 4.872183,-4.419236 7.99541,-6.804546 1.170771,-1.12802 1.841684,-0.990512 2.97737,-0.108148 1.828732,1.431909 3.774633,3.952384 5.697344,6.805102 5.507173,0.81812 9.457103,2.207983 10.958813,4.496705 0.61707,0.803566 0.27147,1.345063 -0.28379,1.991966 -1.46614,1.693965 -4.05984,2.856795 -6.723174,3.986824 -0.209752,2.829605 0.179687,5.756643 -1.059354,8.418864 -0.43593,1.187889 -1.279886,1.539832 -2.398674,1.595413 -3.591926,0.156363 -7.537664,-3.264949 -11.318538,-5.019163 -3.516741,1.751645 -7.032011,3.508173 -10.822997,4.34483 -1.477167,0.438864 -1.784417,0.234069 -2.072972,-1.149372 -0.672998,-3.260117 -0.03724,-6.223527 1.073069,-9.079359 -1.647572,-0.819385 -3.473476,-1.427161 -4.576501,-2.89273 -0.702355,-0.894812 -0.623528,-1.259842 0.07625,-1.96958 z"
     sodipodi:nodetypes="cccccccccccccccc" />
  <path
     id="path173112"
     style="opacity:0.2;fill:#000000;fill-opacity:1;stroke-width:13.6877;stroke-linecap:round;stroke-linejoin:round;filter:url(#filter173153)"
     d="m 62.957031,143.93398 -5.96289,29.11719 15.68164,2.92578 60.466799,8.87305 6.88476,-28.20313 -58.568356,-9.58203 z" />
  <path
     id="rect20345"
     style="fill:#c4c4c4;fill-opacity:1;stroke-width:13.6877;stroke-linecap:round;stroke-linejoin:round"
     d="M 81.458141,145.06491 140.0264,154.646 133.14306,182.85 72.676636,173.97728 Z"
     sodipodi:nodetypes="ccccc" />
  <path
     id="rect20781"
     style="fill:#e9e9e9;fill-opacity:1;stroke-width:13.6877;stroke-linecap:round;stroke-linejoin:round"
     d="m 62.957978,141.93347 18.500163,3.13144 -8.781505,28.91237 -15.682161,-2.92665 z"
     sodipodi:nodetypes="ccccc" />
  <path
     id="path173199"
     style="opacity:0.2;fill:#000000;fill-opacity:1;stroke-width:13.6877;stroke-linecap:round;stroke-linejoin:round;filter:url(#filter173237)"
     d="m 74.785872,115.46254 61.079348,10.53312 c 3.66533,0.74267 4.95027,0.77741 6.84947,3.90779 5.49389,9.14806 1.81751,22.75207 1.61947,27.70255 L 81.458141,147.06456 Z"
     sodipodi:nodetypes="cccccc" />
  <path
     id="rect21782"
     style="fill:#d9d9d9;fill-opacity:1;stroke-width:13.6877;stroke-linecap:round;stroke-linejoin:round"
     d="m 74.785872,113.46289 61.079348,10.53312 c 3.66533,0.74267 4.95027,0.77741 6.84947,3.90779 5.49389,9.14806 1.81751,22.75207 1.61947,27.70255 L 81.458141,145.06491 Z"
     sodipodi:nodetypes="cccccc" />
  <path
     id="rect158318"
     style="fill:#be4d3b;fill-opacity:1;stroke-width:13.6877;stroke-linecap:round;stroke-linejoin:round"
     d="m 66.804535,144.3917 10.053882,-0.99687 -7.586773,23.26677 -6.475334,-1.56737 z"
     sodipodi:nodetypes="ccccc" />
  <path
     id="rect21063"
     style="fill:#e9e9e9;fill-opacity:1;stroke-width:13.6877;stroke-linecap:round;stroke-linejoin:round"
     d="m 62.957978,125.67655 c 15.250253,-31.307613 26.119681,5.14727 18.500163,19.38836 l -18.500163,-3.13144 z"
     sodipodi:nodetypes="cccc" />
  <path
     id="rect23162"
     style="fill:#be4d3b;fill-opacity:1;stroke-width:13.6877;stroke-linecap:round;stroke-linejoin:round"
     d="m 89.206288,115.94959 c 5.360357,5.0691 6.24898,14.75626 5.387652,26.25103 l 40.09443,6.94686 c 1.50843,-11.47852 -1.06988,-19.54599 -5.26656,-26.26282 z" />
  <path
     id="rect23747"
     style="fill:#97371b;fill-opacity:1;stroke-width:13.6877;stroke-linecap:round;stroke-linejoin:round"
     d="m 89.206288,115.94959 c 0.6867,0.64939 1.298988,1.37589 1.844636,2.17094 l 39.764976,7.17095 c -0.44094,-0.8221 -0.90537,-1.62461 -1.39409,-2.40682 z m 4.348964,7.73944 c 0.1754,0.61911 0.327921,1.26192 0.465483,1.92012 l 39.808215,7.17881 c -0.17869,-0.65237 -0.37491,-1.28988 -0.58578,-1.9154 z m 1.302092,9.91667 c 0.02271,0.97737 0.02279,1.9786 0.004,2.99891 l 40.257186,6.17472 c 1.1e-4,-1.01332 -0.0386,-1.99473 -0.10694,-2.95094 z" />
  <path
     id="rect24573"
     style="fill:#be4d3b;fill-opacity:1;stroke-width:13.6877;stroke-linecap:round;stroke-linejoin:round"
     d="m 88.717358,148.54904 7.127072,1.19136 15.75307,5.83888 12.2727,-1.15409 5.07905,0.84901 -2.36544,21.4217 -41.508921,-7.51666 z"
     sodipodi:nodetypes="cccccccc" />
  <path
     id="path173427"
     style="opacity:0.2;fill:#000000;fill-opacity:1;stroke-width:13.6877;stroke-linecap:round;stroke-linejoin:round;filter:url(#filter173465)"
     d="m 95.325975,150.65426 -0.537037,15.68803 25.501702,4.29471 4.25067,-15.0991 z" />
  <path
     id="rect25075"
     style="fill:#c4c4c4;fill-opacity:1;stroke-width:13.6877;stroke-linecap:round;stroke-linejoin:round"
     d="m 95.325975,149.65385 -0.537037,15.68803 25.501702,4.29471 4.25067,-15.0991 z" />
  <path
     id="path25547"
     style="fill:#e8e6e5;fill-opacity:1;stroke-width:13.6877;stroke-linecap:round;stroke-linejoin:round"
     d="m 95.325975,149.65385 -0.537037,15.68803 5.158053,0.86885 0.958489,-15.62434 z" />
  <path
     id="path25821"
     style="fill:#585856;fill-opacity:1;stroke-width:13.6877;stroke-linecap:round;stroke-linejoin:round"
     d="m 115.35042,157.30507 c 0.10945,1.78804 -1.52862,3.23221 -3.83561,3.12695 -2.11614,-0.0966 -3.8356,-1.39999 -3.8356,-3.12695 0,-1.72697 1.71726,-3.12695 3.8356,-3.12695 2.11835,0 3.73009,1.4032 3.83561,3.12695 z"
     sodipodi:nodetypes="sssss" />
  <path
     id="rect25947"
     style="fill:#585856;fill-opacity:1;stroke-width:13.6877;stroke-linecap:round;stroke-linejoin:round"
     d="m 110.34465,159.20918 1.40502,-1.01585 c 1.17506,2.07399 2.35957,4.15065 3.22502,6.13728 -2.99364,0.41729 -5.69766,-0.0525 -8.31445,-0.78945 0.89653,-1.35576 0.87889,-2.46827 3.68441,-4.33198 z"
     sodipodi:nodetypes="ccccc" />
  <path
     id="rect15032"
     style="fill:#4e2921;fill-opacity:1;stroke-width:13.6877;stroke-linecap:round;stroke-linejoin:round"
     d="m 72.001542,127.32288 c 0,0 -2.691387,-4.45149 -2.301444,-5.89394 0.373143,-1.38029 3.811806,0.28139 4.51521,-1.23495 1.022243,-2.20368 2.379407,-3.93924 4.031265,-3.42845 4.267836,1.31971 -0.493897,5.53506 1.510181,6.50084 2.001445,0.96452 5.777253,-7.51273 9.34756,-4.347 3.31762,2.94168 -4.286416,6.42985 -3.913099,7.37012 1.037073,2.6121 7.345031,-2.25617 8.197244,1.97289 0.838022,4.15864 -6.285317,2.44346 -6.206822,3.71931 0.08141,1.32323 4.962046,0.46686 5.199688,3.44526 0.227881,2.85603 -9.267221,2.62674 -15.988358,2.3172 -4.774665,-0.2199 -7.328583,-0.41645 -7.683896,0.13747 z"
     sodipodi:nodetypes="csssssssssscc" />
  <path
     id="path173157"
     style="opacity:0.2;fill:#000000;fill-opacity:1;stroke-width:13.6877;stroke-linecap:round;stroke-linejoin:round;filter:url(#filter173195)"
     d="m 65.476887,117.60096 c -11.452492,8.2065 -23.69092,16.90486 -19.826887,32.67344 1.480233,5.96226 4.146598,7.09278 10.449609,8.7253 8.282535,0.98968 19.214987,-4.27622 24.633634,-12.15037 0.17408,-0.25262 0.341469,-0.50778 0.50401,-0.76506 0.04705,-0.0746 0.0947,-0.14907 0.140746,-0.22409 0.14699,-0.23893 0.286536,-0.48074 0.423023,-0.72339 0.04926,-0.0878 0.09998,-0.17514 0.147823,-0.26341 0.120722,-0.22214 0.23369,-0.44648 0.34518,-0.67149 0.05461,-0.11045 0.112783,-0.21991 0.165122,-0.33102 0.152143,-0.32239 0.296367,-0.64732 0.428526,-0.975 -0.151841,-0.44431 -0.295715,-0.88761 -0.434818,-1.32961 -1.861263,-5.91426 -2.804145,-11.66023 -8.681411,-18.26234 -0.08991,-0.10037 -0.179797,-0.20115 -0.272056,-0.30194 -0.257872,-0.28353 -0.526864,-0.56868 -0.803585,-0.85548 -0.388623,-0.40015 -0.781162,-0.80113 -1.209314,-1.20853 l -6.112606,2.27788 -2.026268,0.75484 2.034131,-0.76742 c 0.714301,-1.17616 1.415478,-2.1969 2.104107,-3.08854 z"
     sodipodi:nodetypes="ccccccccccccccccccccc" />
  <path
     id="rect12385"
     style="fill:#ef314b;fill-opacity:1;stroke-width:13.6877;stroke-linecap:round;stroke-linejoin:round"
     d="M 64.095703 116.60156 C 53.068602 124.52665 41.941505 133.13994 45.650391 148.27539 C 47.130624 154.23765 49.796598 155.36748 56.099609 157 C 64.382144 157.98968 75.313775 152.72376 80.732422 144.84961 C 80.906502 144.59699 81.073787 144.34126 81.236328 144.08398 C 81.283378 144.00938 81.33286 143.93635 81.378906 143.86133 C 81.525896 143.6224 81.664294 143.37937 81.800781 143.13672 C 81.850041 143.04892 81.901376 142.96132 81.949219 142.87305 C 82.069941 142.65091 82.183432 142.42813 82.294922 142.20312 C 82.349532 142.09268 82.406645 141.9822 82.458984 141.87109 C 82.611127 141.5487 82.75456 141.22416 82.886719 140.89648 C 82.734878 140.45217 82.592228 140.00841 82.453125 139.56641 C 80.591862 133.65215 79.64875 127.9068 73.771484 121.30469 C 73.681574 121.20432 73.592259 121.10274 73.5 121.00195 C 73.242128 120.71842 72.972034 120.43328 72.695312 120.14648 C 72.30669 119.74633 71.91448 119.3449 71.486328 118.9375 L 65.373047 121.2168 L 63.347656 121.9707 L 65.380859 121.20312 C 65.921927 120.31221 66.454211 119.5365 66.980469 118.8125 C 66.03463 118.13118 65.07801 117.41658 64.095703 116.60156 z " />
  <path
     id="rect18316"
     style="fill:#4e2921;fill-opacity:1;stroke-width:13.7353;stroke-linecap:round;stroke-linejoin:round"
     d="m 130.00224,171.02048 c -0.13399,-5.09819 5.77766,-2.16225 6.30223,-3.72039 0.25427,-0.75524 -6.66935,1.10731 -5.26903,-3.20758 1.02756,-3.16627 5.7645,-1.33401 5.7463,-2.28017 -0.03,-1.5598 -2.23807,-4.41603 -2.17487,-5.72262 0.11934,-2.46748 9.30567,-1.45876 8.319,10.59131 -0.93541,11.42403 -7.41463,13.37665 -8.74845,9.50576 -0.77,-2.2346 1.27641,-2.35672 0.71072,-3.12955 -1.1047,-1.50923 -4.81197,0.77581 -4.8859,-2.03676 z"
     sodipodi:nodetypes="sssssssss" />
  <path
     id="rect14113"
     style="fill:#ffc035;fill-opacity:1;stroke-width:13.6877;stroke-linecap:round;stroke-linejoin:round"
     d="m 71.486489,118.93827 -8.138874,3.03272 c 4.510938,7.12691 10.990125,12.19829 12.933664,27.83461 2.910474,-2.55642 5.273871,-5.60556 6.606394,-8.90943 -2.422455,-7.08848 -2.912532,-13.82914 -11.401184,-21.9579 z" />
  <path
     id="rect148815"
     style="fill:#ced4d4;fill-opacity:1;stroke-width:13.4598;stroke-linecap:round;stroke-linejoin:round"
     d="m 87.540527,40.00004 c -0.456034,-0.0037 -0.91677,0.244078 -1.502158,0.808088 -3.123227,2.38531 -5.396297,4.553277 -7.994879,6.804447 -2.605179,0.426755 -5.217156,1.142306 -7.49314,2.407892 -0.211433,0.298056 -0.429347,0.582117 -0.665154,0.82679 l 5.40715,4.211086 -1.796758,8.188402 c 4.485804,-2.461044 9.826605,-6.23684 12.948628,-6.600281 l 9.253072,6.890945 1.501388,-8.648943 c 2.897524,-1.153828 4.938554,-2.611251 6.596294,-4.119137 l -0.96283,-1.059785 c -1.9972,-0.995071 -4.766964,-1.706637 -8.11839,-2.204509 -1.922711,-2.852718 -3.869184,-5.373317 -5.697917,-6.805226 -0.567841,-0.44118 -1.019268,-0.696099 -1.475306,-0.699769 z" />
</svg>
