<?xml version="1.0" encoding="UTF-8" standalone="no"?>
<svg
   width="192"
   height="192"
   version="1.1"
   id="svg28"
   sodipodi:docname="games_citra.svg"
   inkscape:version="1.1-rc (1:1.1+rc+202105232036+f4db50c7c1)"
   xmlns:inkscape="http://www.inkscape.org/namespaces/inkscape"
   xmlns:sodipodi="http://sodipodi.sourceforge.net/DTD/sodipodi-0.dtd"
   xmlns="http://www.w3.org/2000/svg"
   xmlns:svg="http://www.w3.org/2000/svg">
  <defs
     id="defs32">
    <filter
       inkscape:collect="always"
       style="color-interpolation-filters:sRGB"
       id="filter877"
       x="-0.048000001"
       y="-0.048000001"
       width="1.096"
       height="1.096">
      <feGaussianBlur
         inkscape:collect="always"
         stdDeviation="3.2"
         id="feGaussianBlur879" />
    </filter>
    <filter
       inkscape:collect="always"
       style="color-interpolation-filters:sRGB"
       id="filter881"
       x="-0.048000001"
       y="-0.048000001"
       width="1.096"
       height="1.096">
      <feGaussianBlur
         inkscape:collect="always"
         stdDeviation="2.72"
         id="feGaussianBlur883" />
    </filter>
  </defs>
  <sodipodi:namedview
     id="namedview30"
     pagecolor="#ffffff"
     bordercolor="#666666"
     borderopacity="1.0"
     inkscape:pageshadow="2"
     inkscape:pageopacity="0.0"
     inkscape:pagecheckerboard="0"
     showgrid="false"
     inkscape:zoom="2.16"
     inkscape:cx="23.842593"
     inkscape:cy="23.842593"
     inkscape:window-width="1920"
     inkscape:window-height="1014"
     inkscape:window-x="0"
     inkscape:window-y="34"
     inkscape:window-maximized="1"
     inkscape:current-layer="svg28" />
  <path
     style="opacity:0.2;stroke-width:4;filter:url(#filter877)"
     d="M 96,20 A 80,80 0 0 0 16,100 80,80 0 0 0 96,180 80,80 0 0 0 176,100 80,80 0 0 0 96,20 Z"
     id="path2" />
  <path
     style="fill:#ff9426;stroke-width:4"
     d="M 96,16 A 80,80 0 0 0 16,96 80,80 0 0 0 96,176 80,80 0 0 0 176,96 80,80 0 0 0 96,16 Z"
     id="path4" />
  <circle
     style="opacity:0.2;stroke-width:4;filter:url(#filter881)"
     cx="96"
     cy="100"
     r="68"
     id="circle6" />
  <circle
     style="fill:#ffffff;stroke-width:4"
     cx="96"
     cy="96"
     r="68"
     id="circle8" />
  <path
     id="path10"
     style="opacity:0.2;fill:#ffffff;stroke-width:4"
     d="M 96 16 A 80 80 0 0 0 16.564453 87.408203 A 80 76 0 0 1 19.755859 73.679688 A 80 80 0 0 1 96 17 A 80 80 0 0 1 172.77344 75.298828 A 80 76 0 0 1 175.6875 89.787109 A 80 80 0 0 0 96 16 z " />
  <path
     style="fill:#d2e015;stroke-width:4"
     d="M 95.859376,36 C 89.2621,35.96356 83.11012,37.502582 80.140624,39.179688 c 0.004,0.02468 0.0038,0.0218 0.008,0.04688 0.25236,1.512448 0.840776,3.86388 1.656252,6.632812 1.630948,5.53786 4.176408,12.843564 6.828124,20.0625 3.534036,9.620928 5.263928,13.779048 7.359376,19.03906 2.119764,-5.25604 3.883968,-9.429428 7.445314,-19.054688 2.66993,-7.21604 5.21503,-14.513332 6.82812,-20.03906 0.80655,-2.762864 1.37846,-5.10468 1.60938,-6.593749 C 108.7259,37.597384 102.45041,36.0364 95.859376,36 Z"
     id="path12" />
  <path
     style="fill:#c74a30;stroke-width:4"
     d="m 95.992188,107.03906 c -2.095448,5.26002 -3.82534,9.41814 -7.359376,19.03906 -2.651716,7.21894 -5.197176,14.52464 -6.828124,20.0625 -0.815476,2.76894 -1.403892,5.12037 -1.656252,6.63282 -0.0044,0.0252 -0.0038,0.022 -0.008,0.0469 2.9693,1.6771 9.121476,3.21608 15.718752,3.17968 6.591032,-0.0364 12.866522,-1.59738 16.015622,-3.27343 -0.23092,-1.48907 -0.80283,-3.83089 -1.60937,-6.59375 -1.6131,-5.52573 -4.1582,-12.82303 -6.82813,-20.03906 -3.561342,-9.62526 -5.325546,-13.79865 -7.44531,-19.05469 z"
     id="path14" />
  <path
     style="fill:#ff769d;stroke-width:4"
     d="m 152.82031,80.140624 c -0.0244,0.004 -0.0216,0.0038 -0.0469,0.008 -1.51245,0.25236 -3.86388,0.840776 -6.63281,1.656252 -5.53786,1.630948 -12.84356,4.176408 -20.0625,6.828124 -9.62093,3.534036 -13.77905,5.263928 -19.03906,7.359376 5.25604,2.119764 9.42943,3.883968 19.05469,7.445314 7.21604,2.66993 14.51333,5.21503 20.03906,6.82812 2.76286,0.80655 5.10468,1.37846 6.59375,1.60938 1.67606,-3.14929 3.23704,-9.42478 3.27344,-16.015814 0.0364,-6.597276 -1.50258,-12.749452 -3.17969,-15.718752 z"
     id="path16" />
  <path
     style="fill:#f9a726;stroke-width:4"
     d="M 39.179688,80.140624 C 37.50258,83.109924 35.963576,89.2621 36,95.859376 c 0.0364,6.591034 1.597383,12.866334 3.273438,16.015624 1.48907,-0.23092 3.830886,-0.80283 6.59375,-1.60938 5.525728,-1.61309 12.823024,-4.15819 20.03906,-6.82812 9.62526,-3.561344 13.798648,-5.325548 19.054688,-7.445312 -5.260012,-2.095448 -9.418132,-3.82534 -19.03906,-7.359376 -7.218936,-2.651716 -14.52464,-5.197176 -20.0625,-6.828124 -2.768932,-0.815476 -5.120364,-1.403892 -6.632814,-1.656252 -0.02508,-0.0044 -0.02224,-0.0038 -0.04688,-0.008 z"
     id="path18" />
  <path
     style="fill:#89dc3c;stroke-width:4"
     d="m 124.96875,44.609376 c -0.0152,0.0216 -0.0156,0.0176 -0.0312,0.0392 -0.89101,1.247916 -2.13432,3.32482 -3.51562,5.859376 -2.76261,5.069116 -6.12987,12.028208 -9.35938,19.007812 -4.30334,9.300364 -6.01988,13.470248 -8.25781,18.671876 5.21621,-2.21802 9.40442,-3.924104 18.72656,-8.210936 6.99044,-3.214584 13.9599,-6.569288 19.00782,-9.33594 2.52395,-1.383324 4.58066,-2.641592 5.79687,-3.531248 -1.04269,-3.412264 -4.37416,-8.947712 -9.00781,-13.632812 -4.6372,-4.688684 -10.07317,-7.951492 -13.35938,-8.867188 z"
     id="path20" />
  <path
     style="fill:#dc6e33;stroke-width:4"
     d="m 88.1875,103.80469 c -5.201628,2.23793 -9.371512,3.95447 -18.671876,8.25781 -6.979604,3.22951 -13.938696,6.59677 -19.007812,9.35938 -2.534556,1.3813 -4.61146,2.62461 -5.859376,3.51562 -0.022,0.0156 -0.018,0.016 -0.0392,0.0312 0.915696,3.28621 4.178504,8.72218 8.867188,13.35937 4.6851,4.63365 10.220548,7.96513 13.632812,9.00781 0.889656,-1.2162 2.147924,-3.27291 3.531248,-5.79687 2.766652,-5.04791 6.121356,-12.01737 9.33594,-19.00781 4.286832,-9.32215 5.992916,-13.51035 8.210936,-18.72656 z"
     id="path22" />
  <path
     style="fill:#dd4f3c;stroke-width:4"
     d="m 103.8125,103.80469 c 2.21802,5.21621 3.9241,9.40441 8.21094,18.72656 3.21458,6.99044 6.56928,13.9599 9.33594,19.00781 1.38332,2.52396 2.64159,4.58067 3.53124,5.79688 3.41227,-1.04269 8.94772,-4.37416 13.63282,-9.00782 4.68868,-4.63719 7.95149,-10.07316 8.86718,-13.35937 -0.0216,-0.0152 -0.0176,-0.0156 -0.0392,-0.0312 -1.24791,-0.89101 -3.32482,-2.13432 -5.85937,-3.51562 -5.06912,-2.76261 -12.02821,-6.12987 -19.00781,-9.35938 -9.30037,-4.30334 -13.47025,-6.01988 -18.67188,-8.25781 z"
     id="path24" />
  <path
     style="fill:#f8e12e;stroke-width:4"
     d="m 67.031248,44.609376 c -3.286212,0.915696 -8.72218,4.178504 -13.359372,8.867188 -4.633652,4.6851 -7.965128,10.220548 -9.007812,13.632812 1.216204,0.889656 3.272916,2.147924 5.796872,3.531248 5.047916,2.766652 12.017376,6.121356 19.007816,9.33594 C 78.790896,84.263396 82.9791,85.96948 88.195312,88.1875 85.95738,82.985872 84.24084,78.815988 79.9375,69.515624 76.707988,62.53602 73.340728,55.576928 70.578124,50.507812 c -1.3813,-2.534556 -2.624612,-4.61146 -3.515624,-5.859376 -0.0156,-0.022 -0.016,-0.018 -0.0312,-0.0392 z"
     id="path26" />
</svg>
