<?xml version="1.0" encoding="UTF-8" standalone="no"?>
<svg
   width="192"
   height="192"
   version="1"
   id="svg28"
   sodipodi:docname="games_magic_touch.svg"
   inkscape:version="1.1.1 (1:1.1+202109281949+c3084ef5ed)"
   xmlns:inkscape="http://www.inkscape.org/namespaces/inkscape"
   xmlns:sodipodi="http://sodipodi.sourceforge.net/DTD/sodipodi-0.dtd"
   xmlns="http://www.w3.org/2000/svg"
   xmlns:svg="http://www.w3.org/2000/svg"
   xmlns:rdf="http://www.w3.org/1999/02/22-rdf-syntax-ns#"
   xmlns:cc="http://creativecommons.org/ns#"
   xmlns:dc="http://purl.org/dc/elements/1.1/">
  <metadata
     id="metadata34">
    <rdf:RDF>
      <cc:Work
         rdf:about="">
        <dc:format>image/svg+xml</dc:format>
        <dc:type
           rdf:resource="http://purl.org/dc/dcmitype/StillImage" />
      </cc:Work>
    </rdf:RDF>
  </metadata>
  <defs
     id="defs32">
    <filter
       inkscape:collect="always"
       style="color-interpolation-filters:sRGB"
       id="filter134213"
       x="-0.046546937"
       y="-0.049546707"
       width="1.0930939"
       height="1.0990934">
      <feGaussianBlur
         inkscape:collect="always"
         stdDeviation="3.1031291"
         id="feGaussianBlur134215" />
    </filter>
    <filter
       inkscape:collect="always"
       style="color-interpolation-filters:sRGB"
       id="filter135624"
       x="-0.045891563"
       y="-0.050311504"
       width="1.0917831"
       height="1.100623">
      <feGaussianBlur
         inkscape:collect="always"
         stdDeviation="3.0591016"
         id="feGaussianBlur135626" />
    </filter>
  </defs>
  <sodipodi:namedview
     pagecolor="#ffffff"
     bordercolor="#666666"
     borderopacity="1"
     objecttolerance="10"
     gridtolerance="10"
     guidetolerance="10"
     inkscape:pageopacity="0"
     inkscape:pageshadow="2"
     inkscape:window-width="1920"
     inkscape:window-height="1019"
     id="namedview30"
     showgrid="false"
     inkscape:zoom="2.86"
     inkscape:cx="137.76224"
     inkscape:cy="85.48951"
     inkscape:window-x="0"
     inkscape:window-y="34"
     inkscape:window-maximized="1"
     inkscape:current-layer="svg28"
     inkscape:pagecheckerboard="0"
     inkscape:snap-global="false"
     showguides="true"
     inkscape:snap-bbox="true"
     inkscape:snap-bbox-midpoints="true">
    <inkscape:grid
       type="xygrid"
       id="grid841" />
  </sodipodi:namedview>
  <path
     id="path134175"
     style="opacity:0.2;fill:#000000;stroke-width:4;filter:url(#filter134213)"
     d="M 176,168.00009 V 32.000088 c 0,-6.648 -5.352,-12 -12,-12 H 28 c -6.648,0 -12,5.352 -12,12 V 168.00009 c 0,6.648 9.761274,-5.07293 16.408631,-4.98048 l 125.717329,1.74836 C 164.77331,164.86042 176,174.64809 176,168.00009 Z"
     sodipodi:nodetypes="sssssssss" />
  <path
     id="rect2"
     style="fill:#ffb200;stroke-width:4"
     transform="matrix(0,-1,-1,0,0,0)"
     d="m -164,-176 h 136 c 6.648,0 12,5.352 12,12 v 136 c 0,6.648 -5.352,12 -12,12 h -136 c -6.648,0 5.07293,-9.761274 4.98048,-16.408631 l -1.74836,-125.717329 C -160.86033,-164.77331 -170.648,-176 -164,-176 Z"
     sodipodi:nodetypes="sssssssss" />
  <path
     id="path135539"
     style="opacity:0.2;fill:#000000;fill-opacity:1;stroke-width:16;stroke-linecap:round;stroke-linejoin:round;filter:url(#filter135624)"
     d="m 52.130859,34.072266 -1.65039,1.628906 c -1.206601,1.191613 -1.648438,1.863931 -1.648438,2.5 v 0.871094 h -3.599609 c -3.301118,0 -3.703045,0.06486 -4.837891,0.78125 -0.680569,0.429624 -1.38757,0.779296 -1.572265,0.779296 -0.184691,0 -1.165496,-0.560647 -2.177735,-1.248046 l -1.839843,-1.25 h -4.15625 c -3.523289,9.9e-4 -4.305341,0.09198 -5.125,0.591796 -0.929332,0.566697 -0.969511,0.679234 -1.025391,2.888672 -0.03198,1.264611 -0.136975,2.746546 -0.234375,3.292969 -0.322621,1.810025 0.322898,2.445174 6.785156,6.669922 0.137986,0.09021 0.403496,1.128106 0.591797,2.306641 l 0.34375,2.142578 L 29.857422,58.25 c -3.646743,3.814093 -7.080286,8.131399 -7.453125,8.84375 -0.231569,0.442435 -0.290652,2.774714 -0.355469,6.630859 v 5.949219 l 1.832031,2.117188 c 1.008389,1.164401 2.421913,3.066576 3.63086,4.226562 1.881758,1.805551 2.360047,2.109375 3.322265,2.109375 0.618184,0 1.125,0.08518 1.125,0.189453 0,0.104272 -2.361778,3.231787 -5.248046,6.951172 -2.886276,3.719389 -5.929861,8.284382 -7.253907,10.142582 l -2.408203,3.37695 v 2.18945 c 0,2.08359 0.07609,2.3084 1.582031,4.74414 5.543364,8.96598 4.733535,8.54742 8.015625,8.63282 l 1.71875,0.0449 4.0625,4.85351 c 2.234047,2.66891 4.254488,5.1222 4.490235,5.45313 0.38689,0.54312 0.280283,0.77099 -1.09375,2.34375 -2.352582,2.69283 -2.611382,3.20931 -2.613281,5.18945 l -0.002,1.77539 -5.679687,7.12891 c -3.123073,3.92139 -6.994258,8.78237 -8.603516,10.80078 L 16,165.61328 l 0.08984,2.80664 0.01758,0.55078 -0.05469,0.0723 c 0.01639,0.19169 0.05096,0.37744 0.07617,0.56641 l 0.002,0.0703 c 0.0056,0.0405 0.01742,0.0788 0.02344,0.11914 0.05181,0.34651 0.11869,0.68744 0.199219,1.02344 0.01197,0.05 0.01666,0.10256 0.0293,0.15234 l 0.0039,-0.006 C 17.702089,176.16897 22.379513,180 28,180 h 136 c 5.46588,0 10.03561,-3.62518 11.49219,-8.60742 5.6e-4,6.7e-4 0.0131,0.0169 0.0137,0.0176 0.019,-0.0647 0.027,-0.13402 0.0449,-0.19922 0.11029,-0.401 0.20457,-0.80967 0.27344,-1.22656 0.0211,-0.13042 0.028,-0.26467 0.0449,-0.39649 0.0325,-0.24725 0.0705,-0.49229 0.0879,-0.74414 l -0.0176,-0.0234 c 0.0108,-0.16338 0.0385,-0.32119 0.043,-0.48633 l -0.01,-2.25 -8.88086,-11.09179 -8.87891,-11.0918 -0.0117,-2.10937 c -0.008,-1.56853 -0.14998,-2.25838 -0.55664,-2.68946 -0.30074,-0.3188 -1.23492,-1.29166 -2.07422,-2.16211 l -1.52539,-1.58203 4.60742,-5.49219 4.60547,-5.49414 1.44922,-0.002 c 2.79275,-0.003 3.5089,-0.39996 4.92383,-2.72656 0.70744,-1.16326 2.21849,-3.59011 3.35742,-5.39453 1.98803,-3.14961 2.07027,-3.36033 2.07227,-5.25977 l 0.002,-1.97851 -3.10352,-4.32422 c -1.70728,-2.37879 -5.22963,-7.044147 -7.82812,-10.365238 l -4.72461,-6.037109 1.2207,-0.09375 c 1.10152,-0.08466 1.5888,-0.46752 4.99805,-3.916015 2.07766,-2.101575 3.92541,-4.212677 4.10742,-4.691407 0.18653,-0.4906 0.33071,-3.211825 0.33008,-6.238281 -0.001,-4.659547 -0.0764,-5.495166 -0.57422,-6.308594 -0.31551,-0.515549 -2.42395,-2.97354 -4.68555,-5.46289 -2.2616,-2.48935 -4.11328,-4.632313 -4.11328,-4.763672 0,-0.131359 0.31199,-0.240235 0.69141,-0.240235 0.37941,0 0.82098,-0.519899 1.47266,-1.15625 l 1.18554,-1.158203 v -3.15625 c 0,-2.053602 -0.13661,-3.332119 -0.39062,-3.654297 -0.21481,-0.272463 -1.67268,-1.845363 -3.72852,-3.496093 l -3.73633,-3.001954 h -1.82617 c -1.43154,0 -2.07277,-0.568823 -2.97461,-1.18164 -1.13191,-0.769164 -1.24523,-0.779297 -7.42773,-0.779297 h -6.2793 l -3.56836,2.214844 c -5.15301,3.198928 -7.01026,5.278444 -7.54297,6.308593 -0.30914,0.597818 -0.40276,2.11531 -0.46875,3.876954 v 2.669922 h -3.2832 -2.88281 l -2.11524,2.101562 -1.71679,2.101562 v 1.802735 2.103515 l 1.62695,2.279297 2.0293,2.279297 0.002,2.109375 c 0.002,1.988073 0.0676,2.180361 1.15039,3.378907 0.63153,0.699016 1.54575,1.475499 2.03125,1.726562 0.82813,0.428234 0.88281,0.579532 0.88281,2.441406 0,1.382972 0.14217,2.103955 0.46875,2.375 0.86963,0.721728 0.4764,0.9375 -1.70508,0.9375 -1.19486,0 -2.49392,0.146898 -2.88867,0.328125 -0.4893,0.224632 -1.28164,1.517986 -2.49023,4.0625 -1.12978,2.37857 -1.9481,3.732422 -2.25391,3.732422 -0.55619,0 -0.45214,0.110075 -9.53515,-10.234375 -3.81023,-4.339394 -7.27647,-8.116925 -7.703129,-8.396484 -1.019694,-0.668127 -3.238116,-0.428883 -4.386719,0.474609 -0.471297,0.370724 -4.28058,4.573528 -8.464844,9.337891 -4.184142,4.764383 -7.860527,8.703116 -8.169922,8.753906 -0.440404,0.07229 -0.954407,-0.724876 -2.365234,-3.673828 -0.991139,-2.071711 -2.060962,-3.505625 -2.378906,-3.675781 -0.317941,-0.17016 -1.580299,-0.308594 -2.804688,-0.308594 -1.394414,0 -2.155295,-0.116159 -2.035156,-0.310547 0.172737,-0.279493 2.202545,-2.477696 6.955078,-6.560547 L 75.701172,71.8125 v -2.236328 -2.236328 l 2.1875,-2.490235 2.1875,-2.492187 V 60.330078 58.302734 L 77.976562,56.185547 75.875,54.068359 h -4.025391 c -4.012467,0 -4.527572,0.0031 -5.195312,0.853516 l -0.669922,0.853516 -0.15625,-5.929688 -0.15625,-5.931641 L 63.773438,38.994141 61.375,34.072266 h -4.621094 z" />
  <path
     id="rect91358"
     style="opacity:1;fill:#0baca3;stroke-width:16;stroke-linecap:round;stroke-linejoin:round;fill-opacity:1"
     d="M 34.078125 141.05859 L 16.052734 165.04297 C 16.578965 171.19797 21.704182 176 28 176 L 164 176 C 170.36308 176 175.52508 171.09338 175.95703 164.84375 L 157.70312 142.20312 L 34.078125 141.05859 z " />
  <path
     id="path1018"
     style="opacity:1;fill:#3f3f3f;fill-opacity:1;stroke-width:0.312454"
     d="m 52.130859,30.072266 -1.65039,1.628906 c -1.206601,1.191613 -1.648438,1.863931 -1.648438,2.5 v 0.871094 h -3.599609 c -3.301118,0 -3.703045,0.06486 -4.837891,0.78125 -0.680569,0.429624 -1.38757,0.779296 -1.572265,0.779296 -0.184691,0 -1.165496,-0.560647 -2.177735,-1.248046 l -1.839843,-1.25 h -4.15625 c -3.523289,9.9e-4 -4.30534,0.09198 -5.125,0.591796 -0.929332,0.566697 -0.969511,0.679234 -1.025391,2.888672 -0.03198,1.264611 -0.136975,2.746546 -0.234375,3.292969 -0.322621,1.810025 0.322898,2.445174 6.785156,6.669922 0.137986,0.09021 0.403496,1.128106 0.591797,2.306641 l 0.34375,2.142578 L 29.857422,54.25 c -3.646743,3.814093 -7.08113,8.131399 -7.453969,8.84375 -0.231569,0.442435 -0.290651,2.774714 -0.355468,6.630859 v 5.949219 l 1.832031,2.117188 c 1.008389,1.164401 2.422756,3.066576 3.631703,4.226562 1.881758,1.805551 2.360047,2.109375 3.322265,2.109375 0.618184,0 1.125,0.08518 1.125,0.189453 0,0.104272 -2.361778,3.231787 -5.248046,6.951172 -2.886275,3.719389 -5.92979,8.284383 -7.253836,10.142582 l -2.408203,3.37695 v 2.18945 c 0,2.08359 0.07609,2.3084 1.582031,4.74414 5.543364,8.96598 4.733464,8.54742 8.015554,8.63282 l 1.71875,0.0449 4.0625,4.85351 c 2.234047,2.66891 4.254488,5.1222 4.490235,5.45313 0.38689,0.54312 0.280283,0.77099 -1.09375,2.34375 -2.352582,2.69283 -2.611382,3.20931 -2.613281,5.18945 l -0.002,1.77539 -5.679687,7.12891 c -3.123073,3.92139 -6.994258,8.78237 -8.603516,10.80078 L 16,161.61328 l 0.08984,2.80664 0.04102,1.25977 c 0.06132,0.4402 0.14454,0.87163 0.251953,1.29492 l 8.076172,-10.03516 c 4.554019,-5.65872 8.386738,-10.29568 8.515625,-10.30468 0.128887,-0.009 0.236082,0.9318 0.238282,2.09179 0.0029,1.63294 0.165857,2.39171 0.726562,3.35938 6.294095,10.86235 8.322543,14.39163 9.251953,16.10351 1.491306,2.74685 1.930705,3.31651 3.00586,3.89844 0.802629,0.43445 2.534915,0.48504 14.068359,0.40234 11.130759,-0.0798 13.241709,-0.16784 13.726563,-0.56445 0.315122,-0.25778 1.594757,-2.03185 2.84375,-3.94336 1.248992,-1.9115 2.50051,-3.56413 2.78125,-3.67187 0.280737,-0.10767 7.671863,-0.19532 16.423828,-0.19532 14.768673,0 15.945383,0.0394 16.378903,0.54688 0.25691,0.30074 1.49169,2.09402 2.74414,3.98437 l 2.27735,3.43555 2.95507,0.23828 c 1.62522,0.13023 7.90126,0.20055 13.94532,0.15625 l 10.98828,-0.082 0.82422,-0.77539 c 0.45379,-0.4265 1.35139,-1.76073 1.99414,-2.9668 0.64276,-1.20608 3.13029,-5.63929 5.52734,-9.84961 l 4.35742,-7.65429 0.15625,-2.5 0.15625,-2.5 8.5625,10.625 c 4.58699,5.69146 8.26456,10.24034 8.59766,10.63672 0.28773,-0.97821 0.44742,-2.00966 0.47656,-3.07618 l -0.01,-2.25 -8.88086,-11.09179 -8.87891,-11.0918 -0.0117,-2.10937 c -0.008,-1.56853 -0.14998,-2.25838 -0.55664,-2.68946 -0.30074,-0.3188 -1.23492,-1.29166 -2.07422,-2.16211 l -1.52539,-1.58203 4.60742,-5.49219 4.60547,-5.49414 1.44922,-0.002 c 2.79275,-0.003 3.5089,-0.39996 4.92383,-2.72656 0.70744,-1.16326 2.21849,-3.59011 3.35742,-5.39453 1.98803,-3.14961 2.07027,-3.36033 2.07227,-5.25977 l 0.002,-1.97851 -3.10352,-4.32422 c -1.70728,-2.378784 -5.22963,-7.044147 -7.82812,-10.365238 l -4.72461,-6.037109 1.2207,-0.09375 c 1.10152,-0.08466 1.5888,-0.467519 4.99805,-3.916015 2.07766,-2.101575 3.92541,-4.212677 4.10742,-4.691407 0.18653,-0.4906 0.33071,-3.211825 0.33008,-6.238281 -0.001,-4.659547 -0.0764,-5.495166 -0.57422,-6.308594 -0.31551,-0.515549 -2.42395,-2.97354 -4.68555,-5.46289 -2.2616,-2.48935 -4.11328,-4.632313 -4.11328,-4.763672 0,-0.131359 0.31199,-0.240235 0.69141,-0.240235 0.37941,0 0.82186,-0.519613 1.47354,-1.155964 l 1.18554,-1.158203 v -3.15625 c 0,-2.053602 -0.13661,-3.332119 -0.39062,-3.654297 -0.21481,-0.272463 -1.67356,-1.845649 -3.7294,-3.496379 l -3.73633,-3.001954 h -1.82617 c -1.43154,0 -2.07277,-0.56862 -2.97461,-1.181437 -1.13191,-0.769164 -1.24523,-0.779296 -7.42773,-0.779296 h -6.2793 l -3.56836,2.214842 c -5.15301,3.198928 -7.01017,5.278242 -7.54288,6.308391 -0.30914,0.597818 -0.40276,2.116041 -0.46875,3.877685 v 2.669921 h -3.28329 -2.88281 l -2.11524,2.101563 -1.71728,2.101562 v 1.802004 2.103515 l 1.62744,2.279297 2.0293,2.279297 0.002,2.109375 c 0.002,1.988073 0.0676,2.180361 1.15039,3.378907 0.63153,0.699017 1.54575,1.475499 2.03125,1.726562 0.82813,0.428234 0.88281,0.579532 0.88281,2.441406 0,1.382972 0.14217,2.103955 0.46875,2.375 0.86963,0.721728 0.4764,0.9375 -1.70508,0.9375 -1.19486,0 -2.49392,0.146898 -2.88867,0.328125 -0.4893,0.224632 -1.28164,1.517986 -2.49023,4.0625 -1.12978,2.37857 -1.9481,3.732422 -2.25391,3.732422 -0.55619,0 -0.45214,0.110075 -9.53515,-10.234375 -3.81023,-4.339394 -7.276469,-8.116925 -7.703128,-8.396484 -1.019694,-0.668127 -3.238116,-0.428883 -4.386719,0.474609 -0.471297,0.370724 -4.28058,4.573528 -8.464844,9.337891 -4.184142,4.764383 -7.860408,8.703136 -8.169803,8.753926 -0.440404,0.07229 -0.954407,-0.724876 -2.365234,-3.673828 -0.991139,-2.071711 -2.060962,-3.506446 -2.378906,-3.676602 -0.317941,-0.17016 -1.580299,-0.308594 -2.804688,-0.308594 -1.394414,0 -2.155295,-0.116159 -2.035156,-0.310547 0.172737,-0.279493 2.202545,-2.476875 6.955078,-6.559726 L 75.701172,67.8125 v -2.236328 -2.236328 l 2.1875,-2.490235 2.1875,-2.492187 v -2.027344 -2.02689 L 77.976562,52.186001 75.875,50.068813 h -4.025391 c -4.012467,0 -4.527658,0.0031 -5.195398,0.853516 l -0.669922,0.853516 -0.15625,-5.930142 -0.15625,-5.931641 L 63.773438,34.994141 61.375,30.072266 H 56.753906 Z M 108.14453,146.97461 c 0.14326,-0.006 0.33488,0.11886 0.68945,0.36719 0.47251,0.33095 1.36064,0.52539 2.39063,0.52539 1.29964,0 1.7043,0.12594 1.96094,0.60547 0.17789,0.3324 0.32422,0.69484 0.32422,0.80664 0,0.11181 -1.19347,0.16167 -2.65039,0.11132 -2.51346,-0.0869 -2.69321,-0.0471 -3.53126,0.75586 -0.79716,0.76373 -1.10799,0.84571 -3.18945,0.84571 -1.86208,0 -2.43153,-0.11776 -2.95898,-0.61328 l -0.6543,-0.61524 -1.916015,1.70899 c -1.788474,1.59313 -2.022742,1.70703 -3.505859,1.70703 -1.377579,0 -1.751626,-0.1459 -2.800782,-1.09375 -1.081794,-0.97734 -1.396556,-1.09375 -2.970703,-1.09375 -1.683175,0 -1.744025,-0.0278 -1.371093,-0.625 0.321768,-0.51523 0.728733,-0.625 2.318359,-0.625 1.758664,0 1.99734,0.0824 2.716797,0.9375 0.67646,0.80392 1.002853,0.9375 2.300781,0.9375 1.447837,0 1.601589,-0.0882 3.527344,-2.03125 2.042451,-2.06077 2.500001,-2.3572 2.500001,-1.6211 0,0.22537 0.28633,0.71765 0.63672,1.09375 0.50266,0.53954 0.99006,0.6836 2.31445,0.6836 1.72374,0 2.33145,-0.41234 3.47461,-2.35938 0.15741,-0.2681 0.25128,-0.40267 0.39453,-0.4082 z"
     sodipodi:nodetypes="ccscssscccsssscccssccssssccsscccssccccccccccccsccsscssccccccscccccccccccssccccssccscccsssssssccssccsssccssccccccccccsssssssssssssssssccccccccccsccccccccssssscsscccssscscsssssss" />
  <path
     style="opacity:1;fill:#b07a28;fill-opacity:1;stroke-width:0.31236"
     d="m 95.409805,91.00144 c -14.603769,0.0092 -16.377584,0.06364 -17.789599,0.552205 -2.389176,0.826656 -4.548202,2.403048 -6.191949,4.520695 -4.639424,5.97697 -8.262723,10.43193 -20.348337,25.01646 -7.351881,8.87202 -13.527293,16.42895 -13.723069,16.79171 C 37.123719,138.3145 37,140.79782 37,145.08256 v 6.54285 l 2.397959,4.13182 c 5.981713,10.30724 8.07012,13.79118 8.391875,14.00347 0.190501,0.12569 5.712703,0.23071 12.272138,0.23333 l 11.927051,0.006 2.92147,-3.71183 c 1.607268,-2.04045 3.134386,-3.78878 3.392043,-3.88682 0.257654,-0.0981 8.07248,-0.17889 17.368045,-0.17889 h 16.901399 l 1.51563,1.80634 c 0.83384,0.99361 2.21599,2.74388 3.07049,3.88877 l 1.55288,2.08049 h 12.15058 12.15057 l 0.78821,-1.23468 c 0.43275,-0.67979 2.90348,-4.86873 5.49197,-9.30777 L 154,151.38447 v -6.35814 c 0,-6.24154 -0.015,-6.37878 -0.77252,-7.48588 -0.42445,-0.62027 -6.81168,-8.42681 -14.19365,-17.34781 -12.99751,-15.70727 -15.98242,-19.37324 -19.45621,-23.900379 -1.83076,-2.385882 -3.52473,-3.661574 -6.17038,-4.643192 -1.7272,-0.640846 -2.22777,-0.657353 -17.997435,-0.647479 z"
     id="path1536" />
  <path
     id="rect112964"
     style="opacity:1;fill:#6e4c1b;fill-opacity:1;stroke-width:1.99939;stroke-linecap:round;stroke-linejoin:round"
     d="m 121.50893,144.58674 -50.959075,0.26444 -7.891892,6.45925 10.213383,17.56751 2.039147,-2.58991 c 1.607268,-2.04046 3.134386,-3.78879 3.392043,-3.88683 0.257654,-0.0981 8.07248,-0.17889 17.368045,-0.17889 h 16.901399 l 1.51563,1.80634 c 0.83384,0.99362 2.21599,2.74388 3.07049,3.88877 l 1.55288,2.08049 h 0.93723 l 9.87614,-18.61359 z" />
  <path
     id="rect123012"
     style="opacity:1;fill:#ffda9e;fill-opacity:1;stroke-width:2.0175;stroke-linecap:round;stroke-linejoin:round"
     d="m 95.365462,91.001558 c -14.547211,0.009 -16.314157,0.0624 -17.720703,0.541372 -2.379923,0.81044 -4.530588,2.355907 -6.167969,4.432011 -1.515013,1.920942 -3.016392,3.786593 -4.646484,5.789249 l -1.625,10.33183 c -0.33619,2.13777 1.784,3.90398 4,3.90398 h 52.773444 c 2.216,0 4.41381,-1.77922 4,-3.90398 l -1.9961,-10.24414 c -1.78746,-2.183463 -3.2095,-3.953097 -4.54297,-5.66344 -1.82367,-2.339078 -3.51108,-3.589743 -6.14648,-4.552104 -1.72051,-0.628274 -2.21914,-0.644457 -17.927738,-0.634778 z" />
  <path
     id="rect100501"
     style="opacity:1;fill:#f0aa3c;stroke-width:16;stroke-linecap:round;stroke-linejoin:round;fill-opacity:1"
     d="m 77.22578,120.35953 37.34409,0.12814 -2.29923,21.59006 -32.402238,-0.59167 z"
     sodipodi:nodetypes="ccccc" />
  <path
     id="rect6416"
     style="opacity:0.2;fill:#ffffff;fill-opacity:1;stroke-width:4"
     d="m 28,16 c -6.648,0 -12,5.352 -12,12 v 1 c 0,-6.648 5.352,-12 12,-12 h 136 c 6.648,0 12,5.352 12,12 v -1 c 0,-6.648 -5.352,-12 -12,-12 z" />
  <path
     id="path1584"
     style="fill:#ffda9e;stroke-width:0.312454;opacity:1;fill-opacity:1"
     d="M 145.11328 37.570312 C 140.27187 37.570312 139.26112 37.652934 138.41211 38.117188 L 137.41211 38.664062 L 140.06836 38.820312 C 143.79971 39.039805 144.12891 39.314398 144.12891 42.177734 L 144.12891 44.445312 L 146.9707 44.445312 C 149.35557 44.445312 149.96228 44.338844 150.73438 43.789062 C 151.63143 43.150306 151.65094 43.075661 151.5625 40.763672 L 151.47266 38.392578 L 148.03516 38.394531 C 144.83403 38.397631 144.7918 38.391415 147.4082 38.285156 C 148.95325 38.222426 150.35077 38.035948 150.51562 37.871094 C 150.70696 37.67975 148.75341 37.570312 145.11328 37.570312 z M 152.87891 38.820312 L 152.87891 41.140625 C 152.87891 43.439819 152.86687 43.470642 151.71289 44.421875 C 150.73853 45.225026 150.28035 45.382812 148.90234 45.382812 L 147.25391 45.382812 L 147.25391 47.458984 C 147.25391 49.404805 147.35761 49.711183 148.89453 52.302734 L 150.53516 55.068359 L 153.09375 55.068359 C 154.50137 55.068472 155.74146 55.209009 155.84766 55.380859 C 155.9748 55.586563 152.77092 55.693359 146.47266 55.693359 C 140.1744 55.693359 136.97248 55.586563 137.09961 55.380859 C 137.20582 55.209009 137.90907 55.068359 138.66211 55.068359 C 139.41515 55.068359 140.10041 54.956132 140.18555 54.818359 C 140.27065 54.680589 139.81332 53.590549 139.16797 52.396484 L 137.99414 50.224609 L 136.36719 50.130859 C 134.56958 50.026205 134.43206 49.443359 136.20508 49.443359 C 137.45834 49.443359 142.43397 46.839388 142.92188 45.927734 C 143.08509 45.622741 143.17739 44.35457 143.12695 43.111328 L 143.03516 40.851562 L 139.44336 40.679688 L 135.84961 40.507812 L 139.40234 40.445312 C 142.52133 40.390602 142.90979 40.325449 142.56836 39.914062 C 142.26911 39.553486 141.44325 39.445312 138.99023 39.445312 L 135.80078 39.445312 L 132.54492 41.521484 C 127.83645 44.5213 128.19531 43.995531 128.19531 47.902344 L 128.19531 51.261719 L 130.84961 54.443359 C 132.56662 56.500348 133.50586 57.890431 133.50586 58.376953 L 133.50586 59.130859 L 140.29297 59.130859 L 147.07812 59.130859 L 148.72852 60.759766 C 149.91811 61.934581 150.37891 62.628378 150.37891 63.242188 C 150.37891 63.710502 150.23826 64.178947 150.06641 64.285156 C 149.89456 64.391365 149.75391 64.209778 149.75391 63.880859 C 149.75391 63.551948 148.98957 62.559957 148.05469 61.675781 L 146.35352 60.068359 L 140.46484 60.068359 C 135.30429 60.068359 134.43219 60.140127 133.41602 60.658203 L 132.25586 61.25 L 132.25586 59.896484 C 132.25586 58.708353 132.03898 58.279564 130.48633 56.414062 C 129.51274 55.244296 128.21926 53.759671 127.61133 53.115234 L 126.50586 51.943359 L 123.77539 51.943359 L 121.04297 51.943359 L 119.15039 53.695312 C 117.2251 55.477792 116.88832 56.247686 117.72656 56.943359 C 118.1139 57.264824 118.43402 57.135126 119.57617 56.199219 C 121.16274 54.899151 122.21227 54.771476 123.53711 55.714844 C 125.01469 56.766977 124.79106 57.859687 122.73047 59.638672 C 121.1809 60.976476 121.05989 61.168075 121.48047 61.632812 C 121.76247 61.944414 121.94531 62.765311 121.94531 63.712891 C 121.94531 65.026373 122.1213 65.502542 123.04297 66.685547 C 123.64676 67.460548 124.49067 68.254529 124.91797 68.449219 C 125.64803 68.781858 125.69531 68.948855 125.69531 71.21875 L 125.69531 73.634766 L 127.1543 74.974609 C 128.41144 76.12879 128.80632 76.314453 129.98828 76.314453 C 131.19903 76.314453 131.58201 76.508368 133.22852 77.955078 C 136.24399 80.604617 136.19041 80.348873 134.58203 84.587891 C 133.81809 86.601286 133.19336 88.393291 133.19336 88.568359 C 133.19336 89.031266 135.82017 92.307887 140.98047 98.283203 C 144.57025 102.43994 145.5832 103.44308 145.83789 103.08984 C 146.01488 102.84437 147.84193 97.77357 149.89648 91.822266 L 153.63086 81.001953 L 157.60547 81.001953 L 161.57812 81.001953 L 164.25781 78.035156 L 166.93945 75.066406 L 166.93945 69.636719 L 166.93945 64.207031 L 162.04102 58.388672 C 157.15282 52.581384 157.13944 52.568359 155.86133 52.568359 C 154.68278 52.568359 154.396 52.381092 152.25391 50.224609 C 150.97364 48.935735 150.05155 47.882813 150.20508 47.882812 C 150.3586 47.882812 151.44734 48.58411 152.625 49.443359 L 154.76562 51.005859 L 158.00391 51.005859 C 161.10088 51.005859 161.26544 50.972881 161.74805 50.236328 C 162.09978 49.69951 162.25195 48.752434 162.25195 47.111328 L 162.25195 44.757812 L 158.83203 44.757812 C 155.64124 44.757812 155.35513 44.705989 154.53711 43.986328 C 154.05494 43.562134 153.81377 43.210509 154.00195 43.205078 C 154.19012 43.199678 154.59912 43.476614 154.91016 43.820312 C 155.40513 44.367247 155.87085 44.445312 158.6543 44.445312 C 160.40345 44.445312 161.91775 44.361546 162.01953 44.259766 C 162.20595 44.07334 160.4501 42.561913 157.22461 40.134766 C 155.82436 39.081099 155.21939 38.820312 154.17773 38.820312 L 152.87891 38.820312 z M 144.91016 45.382812 C 144.30541 45.382812 144.12891 45.542341 144.12891 46.09375 C 144.12891 46.659036 143.57957 47.123679 141.46484 48.345703 C 139.70867 49.360529 138.8557 50.031219 138.96289 50.310547 C 139.05229 50.543635 139.6964 51.708363 140.39258 52.900391 L 141.6582 55.068359 L 145.39258 55.068359 C 147.70106 55.068359 149.12891 54.9471 149.12891 54.751953 C 149.12891 54.578269 148.35534 53.186188 147.41016 51.658203 C 145.86265 49.156468 145.69141 48.705915 145.69141 47.130859 C 145.69141 45.473465 145.6504 45.382813 144.91016 45.382812 z M 121.96875 55.390625 C 121.14501 55.400815 120.93019 55.526517 119.1543 57.029297 L 118.12891 57.896484 L 119.33398 59.265625 C 119.99676 60.01843 120.6539 60.647874 120.79492 60.664062 C 120.93594 60.680253 121.74468 60.108832 122.5918 59.394531 C 123.50433 58.625072 124.13281 57.836552 124.13281 57.460938 C 124.13281 56.54764 122.911 55.378992 121.96875 55.390625 z " />
  <path
     id="path1580"
     style="fill:#ffda9e;stroke-width:0.312454;opacity:1;fill-opacity:1"
     d="M 55.800781 32.576172 C 52.619155 32.571872 52.230304 32.635893 51.490234 33.275391 C 50.08784 34.487204 50.279343 35.983237 52.253906 39.210938 L 53.927734 41.945312 L 55.558594 41.945312 C 56.628015 41.945312 57.325181 42.10693 57.580078 42.414062 C 57.91786 42.821062 57.741439 42.882812 56.240234 42.882812 L 54.511719 42.882812 L 54.302734 45.617188 C 54.187916 47.120874 54.025447 48.595747 53.941406 48.896484 C 53.815259 49.347909 53.995749 49.445269 54.980469 49.449219 C 55.636489 49.451719 56.384803 49.589271 56.642578 49.755859 C 56.976388 49.971584 56.613637 50.061044 55.380859 50.064453 L 53.650391 50.068359 L 52.490234 52.214844 C 51.852596 53.395386 51.330078 54.520588 51.330078 54.714844 C 51.330078 54.924448 51.89528 55.068359 52.71875 55.068359 C 53.481932 55.068359 54.192618 55.20901 54.298828 55.380859 C 54.425931 55.586517 51.28142 55.693359 45.099609 55.693359 C 39.046536 55.693363 35.708984 55.582233 35.708984 55.380859 C 35.708984 55.197389 36.791076 55.068359 38.330078 55.068359 L 40.949219 55.068359 L 42.234375 53.019531 C 42.940971 51.892581 43.519531 50.90803 43.519531 50.832031 C 43.519531 50.756031 42.710793 50.692084 41.722656 50.689453 C 39.616291 50.683853 39.608193 50.678498 38.111328 48.695312 C 36.736755 46.874142 36.638735 45.712597 37.582031 42.414062 C 38.503177 39.192985 38.492151 39.156395 36.115234 37.648438 L 34.023438 36.320312 L 30.398438 36.320312 C 27.994858 36.320312 26.645029 36.446767 26.396484 36.695312 C 26.165137 36.926659 26.021484 38.063172 26.021484 39.662109 L 26.021484 42.253906 L 27.349609 43.21875 C 31.367588 46.137615 32.828836 46.945313 34.091797 46.945312 C 34.788904 46.945312 35.446524 47.085963 35.552734 47.257812 C 35.669391 47.44657 35.241059 47.570312 34.472656 47.570312 L 33.201172 47.570312 L 33.380859 48.896484 C 33.773298 51.798186 33.615968 51.629602 35.949219 51.640625 C 37.866532 51.649725 37.998244 51.691164 37.445312 52.109375 C 37.111731 52.361685 36.263297 52.568359 35.560547 52.568359 C 34.422024 52.568359 34.165187 52.718678 33.199219 53.947266 C 32.602979 54.705608 30.392269 57.364472 28.287109 59.855469 L 24.458984 64.384766 L 24.458984 69.667969 L 24.458984 74.953125 L 27.291016 77.96875 L 30.121094 80.984375 L 34.046875 81.070312 L 37.972656 81.158203 L 41.529297 91.46875 C 45.620134 103.33214 45.563878 103.19169 46.089844 103.16992 C 46.30834 103.16092 48.77086 100.45335 51.560547 97.154297 C 54.350238 93.855234 57.050319 90.582522 57.5625 89.880859 L 58.494141 88.605469 L 57.099609 84.929688 C 56.332521 82.907976 55.705078 81.070645 55.705078 80.845703 C 55.705078 80.620758 56.70582 79.508115 57.929688 78.375 C 60.011798 76.44729 60.249998 76.314453 61.617188 76.314453 C 62.875211 76.314453 63.227643 76.162002 64.15625 75.216797 C 64.74945 74.612992 67.097991 72.419173 69.375 70.339844 L 73.515625 66.558594 L 73.515625 64.601562 C 73.515625 63.242911 73.659045 62.52586 73.984375 62.255859 C 74.726348 61.640078 74.54583 61.246232 72.916016 59.912109 C 71.027125 58.365918 70.760139 57.419149 71.878906 56.240234 C 73.06037 54.995258 74.462271 55.073105 76.099609 56.474609 C 76.802296 57.076083 77.496025 57.568359 77.640625 57.568359 C 77.785226 57.568359 78.073634 57.195901 78.28125 56.740234 C 78.641516 55.949534 78.566454 55.827999 76.640625 54.083984 L 74.621094 52.255859 L 71.958984 52.248047 L 69.296875 52.238281 L 65.544922 56.152344 L 61.791016 60.068359 L 53.427734 60.068359 L 45.0625 60.068359 L 43.509766 61.669922 C 42.65581 62.551261 41.957031 63.535813 41.957031 63.857422 C 41.957031 64.569786 41.470211 64.628012 41.208984 63.947266 C 40.790352 62.856326 41.096475 62.235817 42.800781 60.716797 L 44.582031 59.130859 L 52.15625 59.130859 C 60.782687 59.130859 59.896661 59.391834 62.716797 56.025391 L 64.140625 54.324219 L 64.140625 47.431641 L 64.138672 40.539062 L 62.119141 36.814453 C 61.008145 34.765682 59.919349 32.975623 59.699219 32.835938 C 59.479089 32.696252 57.724508 32.578806 55.800781 32.576172 z M 44.347656 37.302734 C 40.735875 37.318368 40.388077 37.96867 39.085938 42.150391 C 38.48113 44.092693 38.058926 45.754238 38.148438 45.84375 C 38.237947 45.93326 39.962691 46.007813 41.980469 46.007812 L 45.648438 46.007812 L 46.287109 44.117188 C 46.75589 42.729045 46.826419 42.190995 46.550781 42.091797 C 46.344333 42.017497 44.909928 41.912986 43.363281 41.859375 L 40.550781 41.761719 L 43.734375 41.697266 C 45.640267 41.658806 46.998867 41.761675 47.117188 41.953125 C 47.225912 42.129043 47.013218 43.179196 46.644531 44.287109 L 45.974609 46.300781 L 42.039062 46.388672 C 39.599637 46.442772 38.060861 46.60363 37.992188 46.810547 C 37.931247 46.994161 38.307576 47.732574 38.828125 48.451172 L 39.773438 49.755859 L 43.763672 49.755859 C 46.744003 49.755859 47.919209 49.641134 48.402344 49.302734 C 48.758129 49.053533 49.367006 47.965448 49.755859 46.882812 C 51.049784 43.280298 51.441582 43.665288 50.339844 47.457031 C 49.555965 50.154826 49.207761 50.447591 46.494141 50.685547 L 44.625 50.849609 L 43.466797 52.724609 C 42.829613 53.755707 42.299605 54.705097 42.289062 54.833984 C 42.278532 54.962871 44.003143 55.068359 46.121094 55.068359 L 49.970703 55.068359 L 51.558594 52.177734 C 53.103907 49.365494 53.15413 49.200085 53.357422 46.007812 L 53.566406 42.726562 L 51.744141 40.070312 L 49.923828 37.414062 L 46.107422 37.328125 C 45.445909 37.312937 44.863625 37.300501 44.347656 37.302734 z M 73.792969 55.693359 C 72.735443 55.693359 71.334182 57.056152 71.548828 57.876953 C 71.692348 58.425779 74.326937 60.997913 74.751953 61.003906 C 74.830633 61.005106 75.428395 60.484006 76.080078 59.847656 C 76.73176 59.211305 77.263672 58.518035 77.263672 58.306641 C 77.263672 57.688091 74.614833 55.693359 73.792969 55.693359 z " />
  <path
     id="path1574"
     style="opacity:1;fill:#0baca3;fill-opacity:1;stroke-width:0.312454"
     d="m 60.207031,78.501953 -1.189453,1.216797 c -0.892388,0.913885 -1.136506,1.379759 -0.982422,1.865234 0.18611,0.586383 0.486685,0.653462 3.230469,0.734375 3.579084,0.10555 3.872577,0.442212 2.226563,2.541016 -0.560075,0.714139 -1.166272,1.490915 -1.347657,1.726563 -0.181383,0.235647 0.188699,0.07643 0.822266,-0.353516 0.633563,-0.42995 2.31623,-1.099635 3.740234,-1.488281 1.424003,-0.388649 3.609558,-0.775291 4.855469,-0.859375 1.245911,-0.08409 2.265625,-0.221509 2.265625,-0.306641 0,-0.08513 -0.563416,-1.176508 -1.251953,-2.423828 -0.820423,-1.486241 -1.493755,-2.331965 -1.953125,-2.455078 -0.385525,-0.103326 -2.886836,-0.191013 -5.558594,-0.19336 z m 71.208989,0 -4.97071,0.0059 c -2.73303,0.0025 -5.2503,0.07904 -5.5957,0.171876 -0.58577,0.157432 -2.9668,3.992671 -2.9668,4.779296 0,0.185035 0.45711,0.31987 1.01563,0.300782 2.41901,-0.08268 7.88148,1.29137 9.58984,2.412109 0.61185,0.401391 1.14842,0.737936 1.19336,0.748047 0.0449,0.01012 -0.5593,-0.769329 -1.34375,-1.732422 -2.04856,-2.515077 -1.89392,-2.76022 1.80859,-2.869141 2.57095,-0.07563 3.08413,-0.176999 3.34375,-0.662109 0.24623,-0.460085 0.0713,-0.827642 -0.88476,-1.863281 z m -95.775395,5.677735 c -0.814407,0.0068 -1.551485,0.948994 -8.451172,10.228515 -8.806282,11.843727 -8.697634,11.618967 -7.144531,14.796877 0.524073,1.07235 1.907366,3.35572 3.074219,5.07422 l 2.121093,3.12304 5.546875,0.0859 c 3.055055,0.047 5.544922,0.21274 5.544922,0.36914 0,0.15616 -1.052924,0.51795 -2.341797,0.80469 -1.288873,0.28675 -2.34375,0.64179 -2.34375,0.78711 0,0.14532 1.774575,2.32235 3.94336,4.83984 l 3.943359,4.57813 1.445313,-1.65625 c 0.795623,-0.91142 4.371046,-4.89769 7.943359,-8.85742 5.678295,-6.2941 6.469546,-7.29757 6.298828,-7.98047 -0.477377,-1.90959 -0.765152,-4.42942 -0.802734,-7.03125 -0.02234,-1.54665 -0.128787,-3.745843 -0.236328,-4.888675 L 53.986328,96.375 l -3.755859,4.57812 -3.75586,4.57618 H 36.013672 c -8.090247,0 -10.460938,-0.0864 -10.460938,-0.38477 0,-0.21217 2.788516,-4.18867 6.195313,-8.835936 l 6.193359,-8.449219 -0.59375,-1.789063 c -0.533403,-1.605526 -0.690224,-1.797837 -1.541015,-1.882812 -0.05683,-0.0057 -0.111722,-0.0083 -0.166016,-0.0078 z m 120.224605,0.103515 c -0.82685,0 -0.98546,0.175366 -1.59765,1.755859 l -0.68164,1.75586 6.20898,8.480469 c 3.41409,4.664669 6.20703,8.689859 6.20703,8.945309 0,0.4016 -1.39809,0.95176 -10.32617,0.8653 h -10.32617 l -0.79688,-1.25983 c -0.34451,-0.54466 -2.14486,-2.51007 -3.79296,-4.52929 -1.64809,-2.01924 -3.11045,-3.67188 -3.25,-3.67188 -0.13956,0 -0.26437,1.301015 -0.27735,2.890625 -0.0397,4.867195 -0.28588,8.205715 -0.72851,9.912105 l -0.42188,1.62891 7.98242,8.89063 c 6.33678,7.05691 8.05759,8.80563 8.34961,8.48437 0.20231,-0.22257 2.0071,-2.32215 4.00977,-4.66602 2.00267,-2.34386 3.64062,-4.32807 3.64062,-4.4082 0,-0.0801 -1.1252,-0.3885 -2.5,-0.68554 -1.3748,-0.29704 -2.49804,-0.66874 -2.49804,-0.82618 0,-0.16212 2.3361,-0.28831 5.38867,-0.29101 2.96441,-0.003 5.54368,-0.10813 5.73047,-0.23438 0.52857,-0.35726 4.80944,-6.86919 5.46484,-8.3125 0.70721,-1.55741 0.75563,-2.99652 0.14649,-4.34765 -0.24932,-0.55299 -3.72846,-5.364067 -7.73243,-10.69141 -6.65852,-8.859271 -7.35903,-9.685547 -8.19922,-9.685547 z m -25.33984,3.660156 c -0.0698,-0.01465 0.0577,0.329587 0.31836,0.841797 0.40132,0.788513 0.50909,1.585669 0.41406,3.078125 l -0.1289,2.013672 1.83203,-0.154297 c 1.00718,-0.08488 1.88017,-0.203788 1.9414,-0.265625 0.0975,-0.09852 -3.63352,-4.822047 -4.33398,-5.486328 -0.0182,-0.01729 -0.033,-0.02525 -0.043,-0.02734 z m -69.630859,0.246094 c -0.04974,0 -1.044199,1.139367 -2.210937,2.533203 -2.385025,2.84925 -2.357927,3.077933 0.373047,3.085938 1.624064,0.0047 1.631243,4.43e-4 1.328125,-0.796875 -0.431352,-1.134546 -0.377674,-2.481077 0.148437,-3.740235 0.249007,-0.595954 0.411071,-1.082031 0.361328,-1.082031 z"
     sodipodi:nodetypes="ccssssssssssccccssssssssccssscccssscccsssccccsscccssscccsscsssccccssssscsssssssccccssssccss" />
  <path
     id="path1570"
     style="fill:#615837;stroke-width:0.312454;opacity:1;fill-opacity:1"
     d="M 60.861328 83.189453 C 59.572455 83.189453 58.517578 83.233755 58.517578 83.289062 C 58.517578 83.344373 58.739274 84.082787 59.011719 84.929688 C 59.284166 85.776588 59.561094 86.646516 59.626953 86.861328 C 59.823827 87.503459 60.163791 87.283641 61.720703 85.503906 C 62.536989 84.570793 63.203125 83.6679 63.203125 83.498047 C 63.203125 83.322032 62.196942 83.189453 60.861328 83.189453 z M 130.69336 83.189453 C 129.26202 83.189453 128.50781 83.313325 128.50781 83.546875 C 128.50781 83.971578 131.25901 87.251953 131.61523 87.251953 C 131.75114 87.251953 132.09067 86.433003 132.37109 85.433594 C 132.65151 84.434181 132.88086 83.519955 132.88086 83.402344 C 132.88086 83.28473 131.89631 83.189453 130.69336 83.189453 z M 38.201172 89.353516 C 38.196494 89.354128 38.191057 89.357304 38.1875 89.361328 C 38.073676 89.490109 35.63006 92.735029 32.757812 96.572266 C 29.663266 100.70649 27.606074 103.72909 27.707031 103.99219 C 27.841074 104.3415 28.662438 104.4354 31.558594 104.43164 C 33.583221 104.42964 35.392259 104.32353 35.578125 104.19727 C 35.763992 104.07102 37.075284 102.37193 38.494141 100.42188 L 41.074219 96.876953 L 39.734375 93.001953 C 39.020421 90.937283 38.34618 89.334547 38.201172 89.353516 z M 153.23242 89.441406 C 153.12325 89.443006 152.45757 91.10783 151.75195 93.140625 L 150.46875 96.835938 L 151.11719 97.746094 C 151.47416 98.246596 152.72039 99.95726 153.88672 101.54688 L 156.00781 104.43555 L 159.67773 104.43164 C 161.69557 104.42964 163.54593 104.29964 163.79102 104.14453 C 164.14122 103.9229 163.07973 102.31816 158.83398 96.650391 C 155.86255 92.683739 153.3416 89.439919 153.23242 89.441406 z " />
  <path
     style="opacity:1;fill:#1fd5c9;fill-opacity:1;stroke-width:0.312454"
     d="m 68.015392,94.73349 c -0.191975,-1.447171 -0.135858,-1.655785 0.672348,-2.49937 1.159971,-1.210747 4.922281,-2.138523 8.607733,-2.766734 2.512569,-0.428281 5.402338,-0.485392 19.812007,-0.391537 16.54473,0.107766 16.92164,0.123985 19.52623,0.840302 3.45628,0.950545 5.79947,1.576622 6.56874,2.656957 0.71127,0.9989 0.7616,1.519405 0.2545,2.632369 -0.19977,0.438439 -0.27921,0.881162 -0.17654,0.983834 0.10267,0.102673 1.2152,-0.366568 2.47228,-1.042753 1.66672,-0.896534 2.43352,-1.518515 2.83191,-2.297063 2.41556,-4.720635 -3.49904,-7.118039 -17.73129,-7.187144 l -6.24908,-0.03034 1.85227,-0.58088 c 1.01875,-0.319481 2.60055,-0.67437 3.51511,-0.788634 0.91456,-0.114268 1.66259,-0.297013 1.66229,-0.406097 -6.3e-4,-0.219102 -12.674614,-15.622137 -13.982059,-16.992748 -0.567901,-0.595335 -1.133706,-0.859249 -1.842139,-0.859249 -0.708974,0 -1.273129,0.263464 -1.839924,0.859249 -1.72465,1.812871 -13.741666,16.39183 -13.830685,16.779289 -0.06427,0.279724 0.45624,0.476611 1.65646,0.626567 0.962596,0.12027 2.481114,0.470609 3.374483,0.778533 l 1.624308,0.559864 -7.498899,0.165717 c -8.147056,0.180042 -11.187526,0.590888 -14.041182,1.897337 -1.966336,0.900218 -3.109777,2.373186 -2.827406,3.642227 0.422116,1.897059 0.85045,2.413396 3.057341,3.685484 1.237744,0.713458 2.360741,1.300928 2.495546,1.30549 0.134809,0.0046 0.150847,-0.702241 0.03565,-1.570666 z"
     id="path1562"
     sodipodi:nodetypes="ssssssssssscssssssssscsssscss" />
  <path
     style="fill:#ffda9e;stroke-width:0.312454;opacity:1;fill-opacity:1"
     d="m 134.74457,107.31517 c 0.17827,-0.63823 0.39768,-2.56646 0.48759,-4.28496 0.0899,-1.71849 0.23315,-4.091881 0.31832,-5.274188 l 0.15484,-2.14965 -3.50193,0.226969 c -3.7452,0.242737 -4.35949,0.396433 -6.4416,1.611698 l -1.33914,0.781614 1.45178,1.620643 c 5.09577,5.688474 8.13004,8.883834 8.32326,8.765134 0.12252,-0.0753 0.36862,-0.65904 0.54688,-1.29726 z"
     id="path1552" />
  <path
     style="fill:#ffda9e;stroke-width:0.312454;opacity:1;fill-opacity:1"
     d="m 62.252214,103.59912 c 2.585711,-2.86633 4.701294,-5.307602 4.701294,-5.425057 0,-0.117457 -0.878778,-0.643061 -1.952839,-1.168012 -1.678459,-0.820352 -2.446722,-0.985678 -5.467947,-1.176681 l -3.515109,-0.222227 0.0056,2.774174 c 0.0091,4.527703 0.807069,10.429293 1.41024,10.429293 0.06463,0 2.233097,-2.34517 4.818808,-5.21149 z"
     id="path1550" />
  <path
     id="rect97214"
     style="opacity:1;fill:#ffda9e;stroke-width:15.2767;stroke-linecap:round;stroke-linejoin:round;fill-opacity:1"
     d="M 88.193359 101 L 78.154297 120 C 77.12539 121.94745 79.890567 124 82.046875 124 L 109.94141 124 C 112.09771 124 114.93053 121.90904 113.83398 120 L 102.91992 101 L 88.193359 101 z " />
  <path
     style="opacity:1;fill:#3f3f3f;fill-opacity:1;stroke-width:0.312454"
     d="m 77.255859,92.115234 1.179688,1.152344 1.179687,1.152344 4.214844,0.08594 4.214844,0.08789 0.08789,3.640625 0.08594,3.341123 -4.859375,10.32489 c -2.67271,5.51323 -4.939217,10.4246 -5.037109,10.91406 -0.09789,0.48946 0.340496,4.46391 0.972656,8.83203 0.981447,6.78161 1.243599,8.02346 1.792969,8.49805 0.599787,0.51813 1.612924,0.54995 14.955078,0.46875 9.490079,-0.0578 14.420689,-0.19983 14.638669,-0.41797 0.49875,-0.4991 2.57466,-14.70797 2.43945,-16.69922 -0.0992,-1.4609 -0.85296,-3.23204 -5.02929,-11.82031 l -4.91407,-10.10351 0.0879,-3.488284 0.0879,-3.490234 4.37109,-0.08594 4.37109,-0.08789 1.10742,-1.082031 1.10547,-1.080079 2.92969,2.941407 2.92969,2.941406 -1.97266,2.054685 -1.97265,1.75519 h -5.73047 c -3.15198,0 -5.72812,0.40499 -5.72266,0.53388 0.005,0.12888 0.19748,0.48052 0.42578,0.78124 0.36782,0.48454 1.04478,0.54688 5.94727,0.54688 h 5.5332 l -0.0996,0.85938 -0.0996,0.85937 -4.84179,0.15625 c -2.66367,0.0859 -4.83979,0.22657 -4.83594,0.3125 0.004,0.0859 0.60498,1.24434 1.33594,2.57617 l 1.32812,2.42188 h 3.33789 3.33789 l 1.18555,-1.15625 c 1.12376,-1.09733 1.18359,-1.12021 1.18359,-0.42383 0,0.40384 -0.5003,1.34764 -1.11328,2.0957 l -1.11523,1.35938 h -2.79102 c -1.53514,0 -2.79101,0.0744 -2.79101,0.16601 0,0.18994 1.03058,2.11997 2.83203,5.30274 2.44607,4.32169 2.33502,3.54866 1.5625,10.93554 -1.28484,12.28573 -1.29654,12.3373 -3.14453,13.41993 -1.05564,0.61844 -1.59265,0.64189 -15.466799,0.69531 -8.250876,0.0318 -14.898945,-0.0713 -15.607422,-0.24219 -2.508856,-0.60533 -3.171226,-1.83656 -3.625,-6.73633 -0.188497,-2.03535 -0.605554,-5.93673 -0.927735,-8.66992 -0.656929,-5.57299 -0.735632,-5.11071 1.550782,-9.0918 0.690877,-1.20295 1.681632,-2.99429 2.203125,-3.98242 l 0.949219,-1.79687 -2.894532,-0.002 H 75.234375 L 74.0625,111.42188 c -0.650523,-0.80389 -1.171875,-1.79199 -1.171875,-2.22266 0,-0.74067 0.05503,-0.7176 1.248047,0.51172 l 1.25,1.28711 h 3.402344 3.402343 l 1.285157,-2.46875 c 0.706546,-1.35798 1.285156,-2.55016 1.285156,-2.64844 0,-0.0983 -2.215241,-0.21634 -4.921875,-0.26367 l -4.919922,-0.0859 V 104.75 103.96875 l 5.466797,-0.084 c 4.69222,-0.0707 5.524217,-0.15567 5.859375,-0.60547 0.214812,-0.28829 0.390625,-0.63834 0.390625,-0.77735 0,-0.139 -2.499885,-0.49648 -5.554688,-0.55145 h -5.55664 l -1.94336,-1.66144 c -1.069096,-1.078679 -1.943359,-2.102629 -1.943359,-2.273435 0,-0.170809 1.26423,-1.56826 2.808594,-3.105469 z"
     id="path100953"
     sodipodi:nodetypes="ccccccccssscssccccccccccccscssccccccccccsccsssssccssscccccscccccscccccsssccscc" />
  <path
     style="fill:#8a6021;stroke-width:0.312454;opacity:1;fill-opacity:1"
     d="m 114.65785,97.952833 c 0.32615,-0.300737 0.93017,-0.935065 1.34226,-1.409621 l 0.74925,-0.862826 -1.05825,-1.09184 -1.05825,-1.091843 -1.11135,1.085197 -1.11134,1.085197 -3.90297,0.08833 -3.90297,0.08834 -0.10069,0.878143 c -0.1876,1.636091 0.21899,1.777717 5.1036,1.777717 3.81123,0 4.54371,-0.0793 5.05071,-0.546795 z"
     id="path1544" />
  <path
     style="fill:#8a6021;stroke-width:0.312454;opacity:1;fill-opacity:1"
     d="m 86.794344,97.093585 v -1.249817 l -3.747103,-0.08868 -3.747099,-0.08869 -1.178855,-1.151118 -1.178856,-1.151122 -1.15773,1.15773 -1.15773,1.15773 1.391421,1.417751 1.391418,1.417755 4.692267,-0.08586 4.692267,-0.08586 z"
     id="path1542" />
  <path
     id="rect112409"
     style="opacity:1;fill:#8a6021;fill-opacity:1;stroke-width:1.99939;stroke-linecap:round;stroke-linejoin:round"
     d="m 37,151.56319 v 0.0622 l 2.397959,4.13182 c 5.981713,10.30724 8.07012,13.79118 8.391875,14.00347 0.190501,0.12569 5.712701,0.23071 12.272138,0.23333 l 11.927051,0.006 0.915655,-1.16273 -9.921236,-17.0542 z" />
  <path
     id="path112765"
     style="opacity:1;fill:#8a6021;fill-opacity:1;stroke-width:1.99939;stroke-linecap:round;stroke-linejoin:round"
     d="m 153.88824,151.57681 -24.29919,0.20611 -10.59572,18.21499 h 11.86823 12.15057 l 0.78821,-1.23468 c 0.43275,-0.67979 2.90348,-4.86873 5.49197,-9.30777 z" />
  <path
     id="path108388"
     style="color:#000000;opacity:1;fill:#f0aa3c;fill-opacity:1;-inkscape-stroke:none"
     d="M 70.5 143.00977 L 62.666016 151 L 37 151 L 37 151.625 L 37.798828 153 L 62.789062 153 L 72.269531 169.64258 L 73.609375 167.94141 C 70.602953 162.67146 67.550516 157.17853 64.521484 151.79688 L 71.294922 145.00977 L 121.46289 145.00977 L 128.05664 152.24023 C 128.37725 152.36358 127.95364 153.1257 127.77148 153.44922 L 118.76367 169.44922 L 118.97656 169.73828 L 120.89844 169.73828 L 130.71094 152 L 153.64062 152 L 154 151.38477 L 154 150 L 128.92383 150 L 122.3125 143.00977 L 70.5 143.00977 z " />
  <path
     style="fill:#3f3f3f;stroke-width:0.312454;opacity:1;fill-opacity:1"
     d="m 108.14453,146.97461 c 0.14326,-0.006 0.33488,0.11886 0.68945,0.36719 0.47251,0.33095 1.36064,0.52539 2.39063,0.52539 1.29964,0 1.7043,0.12594 1.96094,0.60547 0.17789,0.3324 0.32422,0.69484 0.32422,0.80664 0,0.11181 -1.19347,0.16167 -2.65039,0.11132 -2.51346,-0.0869 -2.69321,-0.0471 -3.53126,0.75586 -0.79716,0.76373 -1.10799,0.84571 -3.18945,0.84571 -1.86208,0 -2.43153,-0.11776 -2.95898,-0.61328 l -0.6543,-0.61524 -1.916015,1.70899 c -1.788474,1.59313 -2.022742,1.70703 -3.505859,1.70703 -1.377579,0 -1.751626,-0.1459 -2.800782,-1.09375 -1.081794,-0.97734 -1.396556,-1.09375 -2.970703,-1.09375 -1.683175,0 -1.744025,-0.0278 -1.371093,-0.625 0.321768,-0.51523 0.728733,-0.625 2.318359,-0.625 1.758664,0 1.99734,0.0824 2.716797,0.9375 0.67646,0.80392 1.002853,0.9375 2.300781,0.9375 1.447837,0 1.601589,-0.0882 3.527344,-2.03125 2.042451,-2.06077 2.500001,-2.3572 2.500001,-1.6211 0,0.22537 0.28633,0.71765 0.63672,1.09375 0.50266,0.53954 0.99006,0.6836 2.31445,0.6836 1.72374,0 2.33145,-0.41234 3.47461,-2.35938 0.15741,-0.2681 0.25128,-0.40267 0.39453,-0.4082 z"
     id="path91236" />
  <path
     style="fill:#af7927;stroke-width:0.312499"
     d="m 86.529779,128.10082 c -0.3617,0.003 -0.77711,0.0153 -1.25195,0.0293 l -3.0293,0.0899 -0.0918,2.08398 c -0.08324,1.88933 -0.02953,2.10259 0.57032,2.29297 0.44256,0.14047 0.78675,0.0391 1.04101,-0.30859 0.27025,-0.36956 0.73739,-0.49162 1.61719,-0.41993 l 1.23828,0.10157 0.0918,2.59765 0.08984,2.59571 1.00196,-0.0957 1.0039,-0.0976 0.08789,-3.83008 c 0.10429,-4.55212 0.16276,-5.05858 -2.36914,-5.03906 z"
     id="path134920" />
  <path
     style="fill:#af7927;stroke-width:0.312499"
     d="m 106.49304,128.01102 c -1.55383,0 -3.1079,0.18165 -3.24805,0.54688 -0.25828,0.67319 -0.24088,8.09896 0.0195,8.35937 0.39782,0.39783 1.60044,0.20639 1.78906,-0.28515 0.10428,-0.27187 0.18945,-1.46718 0.18945,-2.65625 v -2.16211 h 1.40625 c 1.04166,0 1.40625,0.12153 1.40625,0.46875 0,0.56069 0.97224,0.62151 1.5,0.0937 0.3905,-0.3905 0.51538,-2.95884 0.18555,-3.81836 -0.14015,-0.36523 -1.69422,-0.54688 -3.24805,-0.54688 z"
     id="path131727" />
  <path
     sodipodi:type="star"
     style="opacity:0.3;fill:#ffffff;fill-opacity:1;stroke:none;stroke-width:2;stroke-linecap:round;stroke-linejoin:round;stroke-miterlimit:4;stroke-dasharray:none;stroke-opacity:1"
     id="path132576"
     inkscape:flatsided="false"
     sodipodi:sides="3"
     sodipodi:cx="98.088615"
     sodipodi:cy="78.96608"
     sodipodi:r1="13.77065"
     sodipodi:r2="6.8853254"
     sodipodi:arg1="-1.5707963"
     sodipodi:arg2="-0.52359878"
     inkscape:rounded="0"
     inkscape:randomized="0"
     d="m 98.088616,65.19543 5.962864,10.327987 5.96287,10.327988 -11.925735,0 -11.925732,-10e-7 5.962866,-10.327987 z"
     inkscape:transform-center-y="-2.0000006"
     transform="matrix(0.531957,0,0,0.5809457,43.118041,35.124995)" />
</svg>
