<?xml version="1.0" encoding="UTF-8" standalone="no"?>
<svg
   width="192"
   height="192"
   version="1.1"
   id="svg20"
   sodipodi:docname="games_zx_spectrum.svg"
   inkscape:version="1.1-rc (1:1.1+rc+202105232036+f4db50c7c1)"
   xmlns:inkscape="http://www.inkscape.org/namespaces/inkscape"
   xmlns:sodipodi="http://sodipodi.sourceforge.net/DTD/sodipodi-0.dtd"
   xmlns="http://www.w3.org/2000/svg"
   xmlns:svg="http://www.w3.org/2000/svg">
  <defs
     id="defs24">
    <filter
       inkscape:collect="always"
       style="color-interpolation-filters:sRGB"
       id="filter979"
       x="-0.048000001"
       y="-0.048000001"
       width="1.096"
       height="1.096">
      <feGaussianBlur
         inkscape:collect="always"
         stdDeviation="3.2"
         id="feGaussianBlur981" />
    </filter>
    <filter
       inkscape:collect="always"
       style="color-interpolation-filters:sRGB"
       id="filter983"
       x="-0.037713958"
       y="-0.066000998"
       width="1.0754279"
       height="1.132002">
      <feGaussianBlur
         inkscape:collect="always"
         stdDeviation="1.32002"
         id="feGaussianBlur985" />
    </filter>
  </defs>
  <sodipodi:namedview
     id="namedview22"
     pagecolor="#ffffff"
     bordercolor="#666666"
     borderopacity="1.0"
     inkscape:pageshadow="2"
     inkscape:pageopacity="0.0"
     inkscape:pagecheckerboard="0"
     showgrid="false"
     inkscape:zoom="2.02"
     inkscape:cx="24.009901"
     inkscape:cy="24.009901"
     inkscape:window-width="1920"
     inkscape:window-height="1019"
     inkscape:window-x="0"
     inkscape:window-y="34"
     inkscape:window-maximized="1"
     inkscape:current-layer="svg20" />
  <rect
     style="opacity:0.2;fill:#000000;stroke-width:4;filter:url(#filter979)"
     width="160"
     height="160"
     x="16"
     y="20"
     rx="8"
     ry="8"
     id="rect941" />
  <rect
     style="fill:#4f4f4f;stroke-width:4"
     width="160"
     height="160"
     x="16"
     y="16"
     rx="8"
     ry="8"
     id="rect4" />
  <path
     id="path6"
     style="opacity:0.1;fill:#ffffff;stroke-width:4"
     d="M 24 16 C 19.568 16 16 19.568 16 24 L 16 25 C 16 20.568 19.568 17 24 17 L 168 17 C 172.432 17 176 20.568 176 25 L 176 24 C 176 19.568 172.432 16 168 16 L 24 16 z " />
  <path
     style="fill:#f24c3d;stroke-width:4"
     d="M 36,176 H 64 L 176,64 V 36 Z"
     id="path8" />
  <path
     style="fill:#e6df15;stroke-width:4"
     d="M 64,176 H 92 L 176,92 V 64 Z"
     id="path10" />
  <path
     style="fill:#66dd23;stroke-width:4"
     d="m 92,176 h 28 l 56,-56 V 92 Z"
     id="path12" />
  <path
     style="fill:#24f0ff;stroke-width:4"
     d="m 120,176 h 28 l 28,-28 v -28 z"
     id="path14" />
  <path
     style="opacity:0.2;stroke-width:4;filter:url(#filter983)"
     d="M 76,34 90.2856,58 76.0016,82 H 87.43 L 96.002,67.596 104.574,82 h 11.428 l -14.2856,-24 14.284,-24 h -11.428 L 96.0004,48.404 87.4284,34 Z m -44,0 h 40 v 6 L 46.284,73 H 72 v 9 H 32 V 76 L 57.716,43 H 32 Z"
     id="path16" />
  <path
     style="fill:#ffffff;stroke-width:4"
     d="M 76,32 90.284,56 76,80 h 11.4284 l 8.572,-14.404 8.572,14.404 h 11.428 l -14.284,-24 14.284,-24 h -11.428 L 96.0004,46.404 87.4284,32 Z m -44,0 h 40 v 6 L 46.2856,71 h 25.716 v 9 h -40 V 74 L 57.716,41 H 32 Z"
     id="path18" />
</svg>
