<?xml version="1.0" encoding="UTF-8" standalone="no"?>
<svg
   width="192"
   height="192"
   version="1"
   id="svg12"
   sodipodi:docname="games_art_puzzle.svg"
   inkscape:version="1.1.1 (1:1.1+202109281949+c3084ef5ed)"
   xmlns:inkscape="http://www.inkscape.org/namespaces/inkscape"
   xmlns:sodipodi="http://sodipodi.sourceforge.net/DTD/sodipodi-0.dtd"
   xmlns="http://www.w3.org/2000/svg"
   xmlns:svg="http://www.w3.org/2000/svg"
   xmlns:rdf="http://www.w3.org/1999/02/22-rdf-syntax-ns#"
   xmlns:cc="http://creativecommons.org/ns#"
   xmlns:dc="http://purl.org/dc/elements/1.1/">
  <metadata
     id="metadata18">
    <rdf:RDF>
      <cc:Work
         rdf:about="">
        <dc:format>image/svg+xml</dc:format>
        <dc:type
           rdf:resource="http://purl.org/dc/dcmitype/StillImage" />
      </cc:Work>
    </rdf:RDF>
  </metadata>
  <defs
     id="defs16">
    <filter
       inkscape:collect="always"
       style="color-interpolation-filters:sRGB"
       id="filter955"
       x="-0.048000001"
       width="1.096"
       y="-0.048000001"
       height="1.096">
      <feGaussianBlur
         inkscape:collect="always"
         stdDeviation="3.2"
         id="feGaussianBlur957" />
    </filter>
    <filter
       inkscape:collect="always"
       style="color-interpolation-filters:sRGB"
       id="filter142273"
       x="-0.094372868"
       y="-0.0622262"
       width="1.1887457"
       height="1.1244524">
      <feGaussianBlur
         inkscape:collect="always"
         stdDeviation="4.1374751"
         id="feGaussianBlur142275" />
    </filter>
  </defs>
  <sodipodi:namedview
     pagecolor="#ffffff"
     bordercolor="#666666"
     borderopacity="1"
     objecttolerance="10"
     gridtolerance="10"
     guidetolerance="10"
     inkscape:pageopacity="0"
     inkscape:pageshadow="2"
     inkscape:window-width="1920"
     inkscape:window-height="1019"
     id="namedview14"
     showgrid="false"
     inkscape:zoom="1.52"
     inkscape:cx="123.68421"
     inkscape:cy="58.223684"
     inkscape:window-x="0"
     inkscape:window-y="34"
     inkscape:window-maximized="1"
     inkscape:current-layer="svg12"
     showguides="false"
     inkscape:document-rotation="0"
     inkscape:pagecheckerboard="0"
     inkscape:snap-bbox="true"
     inkscape:snap-bbox-midpoints="true"
     inkscape:snap-global="false">
    <inkscape:grid
       type="xygrid"
       id="grid852" />
  </sodipodi:namedview>
  <rect
     style="opacity:0.2;fill:#000000;fill-opacity:1;stroke-width:4;filter:url(#filter955)"
     width="160"
     height="160"
     x="16"
     y="20"
     rx="30"
     ry="30"
     id="rect953" />
  <path
     id="rect4"
     style="fill:#49d8f8;stroke-width:4"
     d="m 46,16 h 100 c 16.62,0 30,13.38 30,30 v 100 c 0,2.93194 -0.41639,5.76304 -1.19351,8.43765 -3.62806,12.48669 -22.73476,13.44222 -36.42125,13.23463 L 50.054126,166.33254 C 33.436038,166.08049 16,162.62 16,146 V 46 C 16,29.38 29.38,16 46,16 Z"
     sodipodi:nodetypes="ssssssssss" />
  <path
     id="rect959"
     style="fill:#ffffff;fill-opacity:1;stroke-width:4;opacity:0.2"
     d="M 46 16 C 29.38 16 16 29.38 16 46 L 16 47 C 16 30.38 29.38 17 46 17 L 146 17 C 162.62 17 176 30.38 176 47 L 176 46 C 176 29.38 162.62 16 146 16 L 46 16 z " />
  <rect
     style="fill:#bb3d2d;fill-opacity:1;stroke:none;stroke-width:0.0874339;stroke-linecap:round;stroke-linejoin:round"
     id="rect3211"
     width="3.5470104"
     height="2.1370463"
     x="90.272865"
     y="20.149796" />
  <rect
     style="fill:#bb3d2d;fill-opacity:1;stroke:none;stroke-width:0.0874339;stroke-linecap:round;stroke-linejoin:round"
     id="rect3129"
     width="3.5470104"
     height="2.1370463"
     x="62.365173"
     y="20.939211" />
  <path
     id="rect17592"
     style="fill:#dd9440;fill-opacity:1;stroke:none;stroke-width:2.13561;stroke-linecap:round;stroke-linejoin:round"
     d="M 57.460938 125.82422 L 44.296875 128.67578 L 40.095703 130.10938 L 32.162109 140.63281 L 16 145.32812 L 16 146 C 16 162.62 29.38 176 46 176 L 146 176 C 159.91889 176 171.53321 166.60166 174.95117 153.78906 L 146.39258 140.26562 L 57.460938 125.82422 z " />
  <path
     id="rect142159"
     style="opacity:0.2;fill:#000000;fill-opacity:1;stroke:none;stroke-width:0.0874339;stroke-linecap:round;stroke-linejoin:round;filter:url(#filter142273)"
     d="m 77.837891,12.741878 c -5.085217,0 -9.207032,2.684529 -9.207032,5.996093 0,0.08762 0.0041,0.168585 0.0098,0.248047 -0.82089,0.173616 -1.660546,0.366008 -2.521484,0.580078 l -0.955079,0.0078 -0.01953,0.242187 c -1.562649,0.409561 -3.190103,0.882809 -4.890625,1.431641 0.31581,1.586189 0.956239,2.913572 2.103516,3.835937 0,0 0.0095,-0.0076 0.0098,-0.0078 h 2.351562 l -1.234375,15.195312 -1.414063,0.677735 c -0.411542,0.04178 -0.821424,0.08202 -1.234374,0.125 a 1.4237377,1.4237377 0 0 0 -1.269532,1.5625 1.4237377,1.4237377 0 0 0 0.904297,1.160156 l -0.554687,9.703125 -0.685547,11.998047 -1.554688,27.248047 -0.851562,14.896486 -1.564453,27.41992 -0.980469,17.16992 0.103515,4.43555 c -1.558082,-0.24676 -2.774526,1.27185 -2.847656,2.84765 l -0.216797,4.68165 c -0.07313,1.5758 2.924712,4.33153 4.501953,4.30273 l 28.103516,-0.51172 20.169922,-2.33594 c 0.35314,-0.0409 0.66536,-0.16114 0.93945,-0.33593 l 2.89453,3.51953 c 11.6783,2.69739 20.79253,3.29353 29.33789,3.27734 0.4104,0.13391 0.84766,0.20703 1.30079,0.20703 0.47068,0 0.92354,-0.0786 1.34765,-0.22265 1.05857,-0.0163 2.11534,-0.0363 3.16602,-0.0645 l 4.41015,-29.11132 1.28516,-0.082 c 3.09564,-0.54592 1.03526,-3.00699 0.50977,-3.28906 -0.29712,-0.22175 -0.5774,-0.43899 -0.86328,-0.6582 1.47936,-8.27209 3.37863,-16.13392 5.3457,-23.92969 0.37675,0.35003 0.85649,0.54287 1.58008,0.42383 0.45712,-0.12553 0.77331,-0.47466 0.99804,-0.9668 0.34291,-0.85862 0.21382,-1.41287 -0.29297,-2.25781 -1.89477,-3.94265 -3.86935,-7.63023 -5.58984,-12.13281 -1.04273,-5.588518 -1.36355,-5.270593 -5.35547,-2.005862 -4.45381,3.642482 -9.65639,5.899202 -14.5664,8.544922 -0.85529,0.68519 -0.54808,2.05069 1.27539,1.70703 0.13704,-0.0402 0.26565,-0.0839 0.40039,-0.125 l -2.5,10.4707 -27.76758,2.1875 -0.64453,-7.4375 -0.39649,-4.59179 -4.736325,-54.697269 -0.164063,-1.90625 -0.800781,-9.242187 a 1.4237377,1.4237377 0 0 0 1.041016,-1.257813 1.4237377,1.4237377 0 0 0 -1.318359,-1.521484 c -0.328705,-0.02359 -0.647541,-0.041 -0.972657,-0.0625 L 92.199219,38.540706 90.365234,24.286799 h 3.455078 c 1.72865,-1.013018 1.24747,-2.026044 1.626954,-3.039062 -2.562399,-1.172635 -5.308135,-2.159592 -8.41211,-2.785156 -0.221106,-3.183673 -4.25385,-5.720703 -9.197265,-5.720703 z M 90.125,22.421565 c 0.04912,0.01625 0.10044,0.03252 0.148438,0.04883 v 1.105469 z m 13.01562,112.154295 1.03907,9.62891 -0.15625,0.008 0.0293,0.91016 z m 1.19336,19.09766 0.002,0.0469 c -0.0871,0.0119 -0.18195,0.0251 -0.26953,0.0371 0.0897,-0.0291 0.17766,-0.0546 0.26757,-0.084 z" />
  <path
     id="rect14824"
     style="fill:#ffffff;fill-opacity:1;stroke:none;stroke-width:2.13561;stroke-linecap:round;stroke-linejoin:round"
     d="m 104.02346,142.21283 43.64008,-2.43874 -4.58422,30.25882 c -10.30323,0.27629 -20.79892,0.11817 -35.15142,-3.1969 l -3.22322,-3.91858 z"
     sodipodi:nodetypes="cccccc" />
  <path
     id="rect945"
     style="fill:#ffffff;fill-opacity:1;stroke:none;stroke-width:0.0711869;stroke-linecap:round;stroke-linejoin:round"
     d="m 65.164269,17.574858 24.569085,-0.212162 2.466711,19.177889 2.845226,2.51064 9.736529,112.481675 c -18.629166,6.16089 -33.717906,6.53234 -50.398943,3.13581 l -0.103108,-4.43539 6.311935,-110.575568 2.893021,-1.386682 z"
     sodipodi:nodetypes="cccccccccc" />
  <path
     id="path2192"
     style="fill:#dd5041;fill-opacity:1;stroke:none;stroke-width:0.0711869;stroke-linecap:round;stroke-linejoin:round"
     d="m 87.045604,16.738059 c 0,3.311564 -4.122386,0.68563 -9.207603,0.68563 -5.085217,0 -9.207604,2.625934 -9.207604,-0.68563 0,-3.311564 4.122387,-5.996117 9.207604,-5.996117 5.085217,0 9.207603,2.684553 9.207603,5.996117 z"
     sodipodi:nodetypes="sssss" />
  <path
     id="rect2432"
     style="fill:#dd5041;fill-opacity:1;stroke:none;stroke-width:0.0711869;stroke-linecap:round;stroke-linejoin:round"
     d="m 60.254791,19.247803 c 17.238865,-5.563729 27.119572,-3.694664 35.193016,0 -0.379484,1.013018 0.100715,2.026032 -1.627934,3.03905 0,0 -3.59287,-3.518807 -15.377474,-3.247122 -11.784604,0.271684 -16.085349,4.04465 -16.085349,4.04465 -1.147277,-0.922365 -1.786449,-2.250389 -2.102259,-3.836578 z"
     sodipodi:nodetypes="ccczcc" />
  <path
     id="rect3505"
     style="fill:#ccbeac;fill-opacity:1;stroke:none;stroke-width:0.0711869;stroke-linecap:round;stroke-linejoin:round"
     d="m 73.550233,24.956639 c 0,0 3.660245,-3.943377 4.910927,-3.982277 1.250686,-0.0389 5.58795,3.982277 5.58795,3.982277 V 38.47716 H 73.550233 Z"
     sodipodi:nodetypes="czcccc" />
  <path
     id="rect3902"
     style="fill:#dcc48e;fill-opacity:1;stroke:none;stroke-width:0.0711869;stroke-linecap:round;stroke-linejoin:round"
     d="m 76.769991,28.872547 1.42251,-1.637038 2.969518,1.637038 v 8.822312 h -4.392028 z"
     sodipodi:nodetypes="cccccc" />
  <path
     id="rect4180"
     style="fill:#dd5041;fill-opacity:1;stroke:none;stroke-width:0.0711869;stroke-linecap:round;stroke-linejoin:round"
     d="m 75.874311,39.063156 -15.280151,0.592994 -0.0028,0.0014 -0.675716,11.84177 C 74.439377,62.82274 86.745012,69.010881 97.954743,72.662124 L 96.008179,50.175713 C 88.408552,46.857646 82.32244,42.881784 75.874247,39.063188 Z M 59.230205,63.497499 57.675078,90.745254 C 72.491834,101.38131 89.111604,107.76096 101.30555,111.37207 L 99.341651,88.682639 C 88.054493,84.709531 70.574394,74.849689 59.230205,63.497499 Z m -2.405337,42.144161 -1.565553,27.42086 c 14.616686,10.01816 34.028993,15.34384 47.808525,18.77762 0.57152,-0.10261 1.13641,-0.19667 1.71433,-0.30727 l -1.89021,-21.83644 C 89.522705,125.77067 68.356243,116.77463 56.824868,105.64166 Z" />
  <path
     id="rect5477"
     style="fill:#021f1f;fill-opacity:1;stroke:none;stroke-width:0.0711869;stroke-linecap:round;stroke-linejoin:round"
     d="m 65.739858,56.638137 c 0.354172,-4.58346 5.112154,-3.626093 5.201803,0 l 0.0093,7.434395 c 0.09427,1.334484 0.01239,1.254299 -1.241684,1.254299 h -2.759082 c -1.237236,0.07815 -1.201037,0.05515 -1.201037,-1.116285 z"
     sodipodi:nodetypes="ccccccc" />
  <path
     id="path6265"
     style="fill:#021f1f;fill-opacity:1;stroke:none;stroke-width:0.0711869;stroke-linecap:round;stroke-linejoin:round"
     d="m 89.469511,117.89534 c 0.354172,-4.58346 5.112154,-3.62609 5.201803,0 l 0.0093,7.4344 c 0.09427,1.33448 0.01239,1.2543 -1.241685,1.2543 h -2.759082 c -1.237236,0.0781 -1.201037,0.0551 -1.201037,-1.11629 z"
     sodipodi:nodetypes="ccccccc" />
  <path
     id="rect6482"
     style="fill:#d8d8d8;fill-opacity:1;stroke:none;stroke-width:0.0711869;stroke-linecap:round;stroke-linejoin:round"
     d="m 54.382877,154.66871 c 17.125297,2.71226 37.327718,-1.28918 51.071633,-3.10561 1.5639,-0.20669 0.31037,3.96762 0.48857,5.53503 l 0.35521,3.1242 c 0.17821,1.56741 -0.63803,3.24907 -2.20506,3.43051 l -20.169662,2.33543 -28.104151,0.51256 c -1.577241,0.0288 -4.57433,-2.72864 -4.501203,-4.30444 l 0.217187,-4.6802 c 0.07313,-1.57581 1.289394,-3.09424 2.847476,-2.84748 z"
     sodipodi:nodetypes="ssssscssss" />
  <path
     id="path20970"
     style="fill:#c38633;fill-opacity:1;stroke:none;stroke-width:2.9797;stroke-linecap:round;stroke-linejoin:round"
     d="M 70.025391 161.0332 C 73.352646 164.06209 72.400204 170.85954 69.208984 176 L 79.916016 176 C 82.584653 169.23187 80.864188 162.27746 81.501953 161.0332 L 70.025391 161.0332 z " />
  <path
     id="path7441"
     style="color:#000000;fill:#3f3f3f;fill-opacity:1;stroke:none;stroke-width:0.355934;-inkscape-stroke:none"
     d="m 50.643985,150.33368 c 0,0 -4.166184,0.18549 -8.342911,0.72925 -2.088356,0.27188 -4.178225,0.63188 -5.773505,1.11229 -0.797639,0.24021 -1.47144,0.50789 -1.97502,0.83144 -0.503576,0.32356 -0.879144,0.74048 -0.880799,1.26941 -0.0014,0.52326 0.282812,0.96739 0.730641,1.33753 l -0.141124,0.0466 4.912176,14.83524 0.675716,-0.22385 -4.692493,-14.17203 c 0.727758,0.37931 1.673429,0.68903 2.782823,0.95518 0.209201,0.0502 0.431243,0.0969 0.651389,0.14391 0.59687,3.22029 1.374437,6.39369 2.474161,9.47953 l 0.670156,-0.23845 c -1.051885,-2.95161 -1.80726,-5.99413 -2.392128,-9.09092 1.012313,0.19097 2.111207,0.35345 3.261804,0.49149 l 2.488067,13.37048 0.700049,-0.13 -2.447744,-13.15358 c 0.190785,0.0209 0.384285,0.0401 0.577002,0.0598 0.556169,2.74342 1.288896,4.81687 1.897159,7.28971 l 0.691709,-0.17032 c -0.601992,-2.44736 -1.306034,-4.45119 -1.848496,-7.04639 0.706569,0.066 1.420517,0.12539 2.135607,0.17727 0.788085,0.0572 1.575793,0.10595 2.351808,0.14808 l -0.539461,12.63706 0.711171,0.0306 0.539465,-12.63359 c 1.64526,0.0812 3.198579,0.13254 4.583349,0.16406 l -2.45122,12.90541 0.699357,0.13278 2.473467,-13.0222 c 1.564439,0.0298 2.738812,0.0369 3.514155,0.0361 l -2.77726,12.31311 0.694488,0.15642 2.813413,-12.47231 c 0.03221,-2.8e-4 0.223847,-6.9e-4 0.223847,-6.9e-4 l -0.0077,-0.71187 c 0,0 -6.39408,0.0703 -12.776793,-0.39278 -0.781934,-0.0567 -1.563392,-0.12213 -2.333039,-0.19604 -0.300779,-1.59914 -0.534632,-3.44638 -0.650695,-5.73945 3.593425,-0.40234 6.809332,-0.54711 6.809332,-0.54711 z m -7.488526,1.34379 c 0.113618,2.21004 0.340024,4.00715 0.626359,5.57816 -1.642402,-0.17243 -3.208133,-0.3881 -4.57779,-0.65764 -0.249389,-1.38815 -0.466135,-2.78696 -0.661814,-4.19266 1.187266,-0.25089 2.517913,-0.4625 3.851321,-0.63609 0.255202,-0.0332 0.507634,-0.0612 0.761924,-0.0918 z m -5.309819,0.88428 c 0.181203,1.29763 0.380775,2.5908 0.607591,3.87704 -0.114796,-0.0258 -0.236376,-0.0498 -0.347591,-0.0765 -1.181557,-0.28346 -2.15708,-0.62044 -2.804376,-0.99272 -0.647295,-0.37229 -0.918763,-0.73352 -0.917645,-1.09144 7.12e-4,-0.18241 0.146859,-0.41131 0.554062,-0.67294 0.407214,-0.26164 1.033619,-0.51923 1.795664,-0.74872 0.344039,-0.1036 0.719112,-0.20122 1.112295,-0.29475 z" />
  <path
     style="color:#000000;fill:#dd5041;fill-opacity:1;stroke:none;stroke-width:0.355934;stroke-linecap:round;stroke-linejoin:round;-inkscape-stroke:none"
     d="m 85.582561,37.743696 c -8.911288,-0.136251 -16.67583,0.489933 -24.74648,1.329889 a 1.4237377,1.4237377 0 0 0 -1.26871,1.56347 1.4237377,1.4237377 0 0 0 1.56347,1.268711 c 10.705355,-1.114164 20.68981,-1.837579 33.595483,-0.911385 a 1.4237377,1.4237377 0 0 0 1.521758,-1.318071 1.4237377,1.4237377 0 0 0 -1.318071,-1.521758 c -3.279156,-0.235334 -6.377017,-0.365438 -9.34745,-0.410856 z"
     id="path8091" />
  <path
     style="color:#000000;fill:#3f3f3f;fill-opacity:1;stroke:none;stroke-width:0.355934;-inkscape-stroke:none"
     d="m 34.951587,119.12685 -0.638874,0.31422 9.514291,19.32266 0.638878,-0.31423 z"
     id="path124532" />
  <path
     id="rect9669"
     style="fill:#dc8b40;fill-opacity:1;stroke:none;stroke-width:0.711869;stroke-linecap:round;stroke-linejoin:round"
     d="m 34.352048,119.4181 c 1.180026,-0.7179 2.455851,-1.28564 3.795414,-1.75349 2.767091,-0.96642 6.683818,-0.56419 9.71219,-1.12109 1.901341,-0.34964 5.681618,-3.75379 4.743766,-2.12073 0,0 -0.953644,2.43377 -1.886403,3.28477 -2.172915,1.98245 -5.598001,2.00988 -8.02195,3.67606 -1.765086,1.21329 -4.591842,4.49482 -4.591842,4.49482 z"
     sodipodi:nodetypes="cssssscc" />
  <path
     id="rect15200"
     style="fill:#f0f0f0;fill-opacity:1;stroke:none;stroke-width:2.13561;stroke-linecap:round;stroke-linejoin:round"
     d="m 132.36094,105.54186 14.88319,-8.741514 6.688,15.502204 c -2.11603,8.36828 -4.16906,16.7981 -5.71538,25.72279 L 128.8773,120.14222 Z"
     sodipodi:nodetypes="cccccc" />
  <path
     id="rect10419"
     style="fill:#287c87;fill-opacity:1;stroke:none;stroke-width:0.711869;stroke-linecap:round;stroke-linejoin:round"
     d="m 101.65779,118.83144 28.8455,-2.2729 c 6.92112,9.99161 10.70906,14.96759 18.78171,20.99262 0.52549,0.28207 2.58529,2.7426 -0.51035,3.28852 l -44.43746,2.82055 z"
     sodipodi:nodetypes="cccccc" />
  <path
     id="path16150"
     style="fill:#79bbc4;fill-opacity:1;stroke:none;stroke-width:2.13561;stroke-linecap:round;stroke-linejoin:round"
     d="m 144.24643,112.16318 c 0.21349,-5.52862 4.19362,-3.52164 3.04182,0.97001 l -1.26872,3.91216 -3.04182,-0.97001 z"
     sodipodi:nodetypes="ccccc" />
  <path
     id="rect11689"
     style="opacity:0.2;fill:#000000;stroke:none;stroke-width:0.711869;stroke-linecap:round;stroke-linejoin:round"
     d="M 126.9375 118.29102 C 128.27826 122.02762 128.86103 124.44398 130.98047 127.82617 C 131.23824 128.06663 131.44345 128.31886 131.85156 128.25586 C 133.04506 128.23925 133.99805 127.83203 133.99805 127.83203 C 133.99805 127.83203 132.30464 128.32029 131.83789 127.69727 C 129.38902 124.4285 126.9375 118.29102 126.9375 118.29102 z M 133.99805 127.83203 C 133.96655 127.84103 133.82415 128.00058 133.99805 127.83203 z M 121.58789 119.14648 C 122.92407 122.88472 123.50384 125.30272 125.61914 128.6875 C 125.8766 128.92828 126.08009 129.18164 126.48828 129.11914 C 127.6818 129.10399 128.63672 128.69727 128.63672 128.69727 C 128.63672 128.69727 126.94255 129.18414 126.47656 128.56055 C 124.0317 125.28878 121.58789 119.14648 121.58789 119.14648 z M 128.63672 128.69727 C 128.60522 128.70627 128.46261 128.86561 128.63672 128.69727 z M 115.97656 119.17383 C 116.70733 123.07585 116.90119 125.55284 118.45703 129.22852 C 118.67336 129.50685 118.83512 129.78997 119.24805 129.79297 C 120.42907 129.96596 121.43555 129.71289 121.43555 129.71289 C 121.43555 129.71289 119.68424 129.92748 119.32227 129.23828 C 117.42318 125.6223 115.97656 119.17383 115.97656 119.17383 z M 121.43555 129.71289 C 121.40305 129.71689 121.23711 129.85171 121.43555 129.71289 z M 109.59766 120.0625 C 110.32844 123.96452 110.52228 126.44346 112.07812 130.11914 C 112.29446 130.39747 112.4562 130.67864 112.86914 130.68164 C 114.05015 130.85464 115.05664 130.60352 115.05664 130.60352 C 115.05664 130.60352 113.30532 130.81811 112.94336 130.12891 C 111.04426 126.51293 109.59766 120.0625 109.59766 120.0625 z M 115.05664 130.60352 C 115.02414 130.60752 114.85819 130.74235 115.05664 130.60352 z M 128.88867 129.42383 C 130.69378 133.32085 132.50827 136.95902 135.40039 140.71289 C 135.61673 140.99122 135.77848 141.27434 136.19141 141.27734 C 137.37243 141.45033 138.37891 141.19727 138.37891 141.19727 C 138.37891 141.19727 136.83606 141.25238 136.26562 140.72266 C 133.10195 137.78475 128.88867 129.42383 128.88867 129.42383 z M 138.37891 141.19727 C 138.34641 141.20127 138.18047 141.33609 138.37891 141.19727 z M 135.22852 130.06445 C 137.60312 133.64306 139.94762 136.96581 143.375 140.23828 C 143.631 140.48062 143.83363 140.73578 144.24219 140.67578 C 145.43578 140.66788 146.39258 140.26562 146.39258 140.26562 C 146.39258 140.26563 144.87652 140.5544 144.23242 140.11719 C 140.66021 137.69242 135.22852 130.06445 135.22852 130.06445 z M 146.39258 140.26562 C 146.36098 140.27463 146.21745 140.43291 146.39258 140.26562 z M 124.04883 130.63086 C 124.7796 134.53288 125.30384 137.09421 127.91602 140.94531 C 128.13235 141.22363 128.2941 141.50481 128.70703 141.50781 C 129.88805 141.68081 130.89453 141.42969 130.89453 141.42969 C 130.89453 141.42969 129.30594 141.52821 128.78125 140.95312 C 125.72271 137.60089 124.04883 130.63086 124.04883 130.63086 z M 130.89453 141.42969 C 130.86203 141.43369 130.69609 141.56852 130.89453 141.42969 z M 116.83008 131.44336 C 117.56085 135.34538 117.75471 137.82432 119.31055 141.5 C 119.52689 141.77833 119.68862 142.0595 120.10156 142.0625 C 121.28257 142.2355 122.28906 141.98438 122.28906 141.98438 C 122.28906 141.98438 120.53774 142.19701 120.17578 141.50781 C 118.27669 137.89183 116.83008 131.44336 116.83008 131.44336 z M 122.28906 141.98438 C 122.25656 141.98838 122.09061 142.12321 122.28906 141.98438 z M 109.05469 131.72852 C 109.78546 135.63054 109.97933 138.10752 111.53516 141.7832 C 111.7515 142.06152 111.91324 142.34466 112.32617 142.34766 C 113.50718 142.52065 114.51367 142.26758 114.51367 142.26758 C 114.51367 142.26758 112.76236 142.48216 112.40039 141.79297 C 110.5013 138.17699 109.05469 131.72852 109.05469 131.72852 z M 114.51367 142.26758 C 114.48117 142.27158 114.31523 142.4064 114.51367 142.26758 z " />
  <path
     id="path13645"
     style="fill:#74aeb2;fill-opacity:1;stroke:none;stroke-width:0.112816;stroke-linecap:round;stroke-linejoin:round"
     d="m 121.37224,156.58764 c 0.63467,-6.42395 9.16091,-5.08215 9.32156,0 l 0.0166,10.41968 c 0.16893,1.87035 0.0222,1.75796 -2.22509,1.75796 h -4.94423 c -2.21711,0.10954 -2.15224,0.0773 -2.15224,-1.56452 z"
     sodipodi:nodetypes="ccccccc" />
  <path
     style="color:#000000;fill:#000000;stroke:none;stroke-width:0.355934;-inkscape-stroke:none"
     d="m 122.91257,160.26717 -0.1008,2.62154 1.13385,0.12305 0.0389,-0.35385 -0.80433,-0.0876 0.0744,-1.92427 0.84325,0.0556 0.0236,-0.35524 z"
     id="path13647" />
  <path
     id="rect13880"
     style="fill:#1b4146;fill-opacity:1;stroke:none;stroke-width:0.711869;stroke-linecap:round;stroke-linejoin:round"
     d="m 111.82856,154.62533 c 0.0303,-4.33111 5.38046,-3.15679 5.21729,0 v 4.91876 h -5.21729 z"
     sodipodi:nodetypes="ccccc" />
  <path
     id="rect14234"
     style="opacity:0.2;fill:#000000;fill-opacity:1;stroke:none;stroke-width:0.711869;stroke-linecap:round;stroke-linejoin:round;stroke-miterlimit:4;stroke-dasharray:none;stroke-opacity:1"
     d="m 111.83203,154.50965 c -0.001,0.0384 -0.003,0.0761 -0.004,0.1154 v 0.34273 h 5.21736 v -0.34273 c 0.002,-0.039 0.002,-0.077 0.003,-0.1154 z" />
  <ellipse
     style="fill:#395f65;fill-opacity:1;stroke:none;stroke-width:0.711869;stroke-linecap:round;stroke-linejoin:round;stroke-miterlimit:4;stroke-dasharray:none;stroke-opacity:1"
     id="path14359"
     cx="138.38449"
     cy="148.0585"
     rx="3.2412617"
     ry="3.6901987" />
  <path
     id="path14441"
     style="opacity:0.2;fill:#000000;fill-opacity:1;stroke:none;stroke-width:0.865914;stroke-linecap:round;stroke-linejoin:round;stroke-miterlimit:4;stroke-dasharray:none;stroke-opacity:1"
     d="m 135.40851,146.61097 a 3.2412617,3.6901989 0 0 0 -0.1439,0.45812 h 6.24137 a 3.2412617,3.6901989 0 0 0 -0.14112,-0.45812 z" />
  <path
     style="color:#000000;fill:#d83827;fill-opacity:1;stroke:none;stroke-width:0.355934;stroke-linecap:round;stroke-linejoin:round;-inkscape-stroke:none"
     d="m 138.56604,161.85567 c -2.32472,0 -4.23228,1.90756 -4.23228,4.23228 0,2.32472 1.90756,4.23228 4.23228,4.23228 2.32472,0 4.23228,-1.90756 4.23228,-4.23228 0,-2.32472 -1.90756,-4.23228 -4.23228,-4.23228 z m 0,2.1356 c 1.17056,0 2.09668,0.92612 2.09668,2.09668 0,1.17055 -0.92612,2.09667 -2.09668,2.09667 -1.17055,0 -2.09667,-0.92612 -2.09667,-2.09667 0,-1.17056 0.92612,-2.09668 2.09667,-2.09668 z"
     id="path14486" />
  <path
     id="rect14652"
     style="fill:#ffffff;fill-opacity:1;stroke:none;stroke-width:1.77229;stroke-linecap:round;stroke-linejoin:round;stroke-miterlimit:4;stroke-dasharray:none;stroke-opacity:1"
     d="m 140.5355,162.34716 -1.36187,1.73171 c 0.51343,0.15163 0.93877,0.4924 1.20198,0.94336 l 1.35908,-1.72823 c -0.33853,-0.38309 -0.74452,-0.70534 -1.19919,-0.94684 z m -4.7634,0.57214 c -0.3831,0.33853 -0.70534,0.74452 -0.94685,1.19919 l 1.73171,1.36187 c 0.15164,-0.51343 0.4924,-0.93877 0.94337,-1.20198 z m 4.80303,3.77624 c -0.15164,0.51343 -0.49241,0.93877 -0.94337,1.20197 l 1.72823,1.35909 c 0.38309,-0.33853 0.70534,-0.74452 0.94684,-1.19919 z m -3.81865,0.45813 -1.35909,1.72822 c 0.33853,0.3831 0.74452,0.70534 1.19919,0.94685 l 1.36187,-1.73171 c -0.51343,-0.15164 -0.93876,-0.4924 -1.20197,-0.94336 z" />
  <path
     id="path15917"
     style="fill:#79bbc4;fill-opacity:1;stroke:none;stroke-width:2.13561;stroke-linecap:round;stroke-linejoin:round"
     d="m 137.10382,109.80723 c 1.62206,-3.78851 6.49864,-2.64728 2.73052,0.99681 l -1.26872,3.91216 -2.73052,-0.99681 z"
     sodipodi:nodetypes="ccccc" />
  <path
     id="rect15494"
     style="fill:#021f1f;fill-opacity:1;stroke:none;stroke-width:2.13561;stroke-linecap:round;stroke-linejoin:round"
     d="m 139.83434,110.80404 c 1.23048,-4.18681 6.15265,-3.58148 4.41209,1.35914 l -1.26872,3.91216 -4.41209,-1.35914 z"
     sodipodi:nodetypes="ccccc" />
  <path
     id="rect16310"
     style="fill:#287c87;fill-opacity:1;stroke:none;stroke-width:2.13561;stroke-linecap:round;stroke-linejoin:round"
     d="m 130.54043,104.56838 c 4.91001,-2.64572 10.11407,-4.902765 14.56788,-8.545249 3.99192,-3.26473 4.31222,-3.582497 5.35495,2.006018 1.72049,4.502581 3.69463,8.190251 5.5894,12.132901 0.50679,0.84494 0.63614,1.40011 0.29323,2.25873 -0.22473,0.49214 -0.54069,0.84034 -0.99781,0.96587 -1.5046,0.24754 -1.96198,-0.84862 -2.60902,-1.91769 -2.74745,-4.54144 -5.24137,-9.10069 -5.96812,-13.784152 -4.05945,3.255032 -8.01181,6.555392 -14.95481,8.590022 -1.82347,0.34366 -2.13099,-1.02126 -1.2757,-1.70645 z"
     sodipodi:nodetypes="cscccccccc" />
  <path
     id="rect20063"
     style="fill:#dda941;fill-opacity:1;stroke:none;stroke-width:2.9797;stroke-linecap:round;stroke-linejoin:round"
     d="M 70.025391 161.0332 C 68.175947 166.29571 65.114415 171.94375 61.097656 176 L 73.582031 176 C 79.122801 169.31139 80.819575 162.3645 81.501953 161.0332 L 70.025391 161.0332 z " />
  <path
     id="rect19106"
     style="fill:#a4712a;fill-opacity:1;stroke:none;stroke-width:2.13561;stroke-linecap:round;stroke-linejoin:round"
     d="M 70.349609 161.52344 L 70.349609 162.87891 L 80.792969 162.87891 C 80.979575 162.36063 81.166374 161.8504 81.292969 161.52344 L 70.349609 161.52344 z M 69.810547 163.33203 L 69.810547 164.6875 L 80.117188 164.6875 C 80.319676 164.17042 80.472202 163.7616 80.628906 163.33203 L 69.810547 163.33203 z M 68.935547 165.04297 L 68.935547 166.39844 L 79.410156 166.39844 C 79.616776 165.92352 79.804781 165.47247 79.976562 165.04297 L 68.935547 165.04297 z M 67.931641 166.93555 L 67.931641 168.29102 L 78.537109 168.29102 C 78.766922 167.82364 78.974079 167.37475 79.171875 166.93555 L 67.931641 166.93555 z M 66.923828 169.67773 L 66.923828 171.0332 L 77.058594 171.0332 C 77.328221 170.57488 77.585263 170.12174 77.824219 169.67773 L 66.923828 169.67773 z M 65.417969 172.29688 L 65.417969 173.65234 L 75.373047 173.65234 C 75.691918 173.19788 75.998052 172.7455 76.285156 172.29688 L 65.417969 172.29688 z M 63.882812 174.33789 L 63.882812 175.28906 L 72.541016 176 L 73.580078 176 C 74.038621 175.44656 74.473436 174.89162 74.880859 174.33789 L 63.882812 174.33789 z M 62.513672 175.95898 L 62.498047 176 L 62.912109 176 L 62.513672 175.95898 z " />
  <path
     id="path6267"
     style="fill:#c6b5a4;fill-opacity:1;stroke:none;stroke-width:0.124081;stroke-linecap:round;stroke-linejoin:round"
     d="m 71.105437,145.79223 c 0.634674,-7.77091 9.160905,-6.14777 9.32156,0 l 0.01659,12.60446 c 0.16893,2.26252 0.02221,2.12657 -2.225081,2.12657 H 73.27427 c -2.217108,0.1325 -2.152239,0.0935 -2.152239,-1.89258 z"
     sodipodi:nodetypes="ccccccc" />
  <path
     style="color:#000000;fill:#000000;stroke:none;stroke-width:0.355934;-inkscape-stroke:none"
     d="m 72.615984,149.55577 -0.02435,3.94169 1.128284,0.12236 0.03823,-0.35385 -0.809196,-0.0876 0.02015,-3.24234 0.838393,0.0549 0.02296,-0.35524 z"
     id="path6302" />
</svg>
