<?xml version="1.0" encoding="UTF-8" standalone="no"?>
<svg
   width="192"
   height="192"
   version="1"
   id="svg14"
   sodipodi:docname="games_sonic_time_twisted.svg"
   inkscape:version="1.1.1 (1:1.1+202109281949+c3084ef5ed)"
   xmlns:inkscape="http://www.inkscape.org/namespaces/inkscape"
   xmlns:sodipodi="http://sodipodi.sourceforge.net/DTD/sodipodi-0.dtd"
   xmlns="http://www.w3.org/2000/svg"
   xmlns:svg="http://www.w3.org/2000/svg"
   xmlns:rdf="http://www.w3.org/1999/02/22-rdf-syntax-ns#"
   xmlns:cc="http://creativecommons.org/ns#"
   xmlns:dc="http://purl.org/dc/elements/1.1/">
  <metadata
     id="metadata20">
    <rdf:RDF>
      <cc:Work
         rdf:about="">
        <dc:format>image/svg+xml</dc:format>
        <dc:type
           rdf:resource="http://purl.org/dc/dcmitype/StillImage" />
      </cc:Work>
    </rdf:RDF>
  </metadata>
  <defs
     id="defs18">
    <filter
       inkscape:collect="always"
       style="color-interpolation-filters:sRGB"
       id="filter850"
       x="-0.048000001"
       width="1.096"
       y="-0.048000001"
       height="1.096">
      <feGaussianBlur
         inkscape:collect="always"
         stdDeviation="3.2"
         id="feGaussianBlur852" />
    </filter>
    <filter
       inkscape:collect="always"
       style="color-interpolation-filters:sRGB"
       id="filter1355"
       x="-0.065301305"
       y="-0.08808215"
       width="1.1306026"
       height="1.1761643">
      <feGaussianBlur
         inkscape:collect="always"
         stdDeviation="3.1562575"
         id="feGaussianBlur1357" />
    </filter>
  </defs>
  <sodipodi:namedview
     pagecolor="#ffffff"
     bordercolor="#666666"
     borderopacity="1"
     objecttolerance="10"
     gridtolerance="10"
     guidetolerance="10"
     inkscape:pageopacity="0"
     inkscape:pageshadow="2"
     inkscape:window-width="1920"
     inkscape:window-height="1022"
     id="namedview16"
     showgrid="false"
     inkscape:zoom="1.23"
     inkscape:cx="113.82114"
     inkscape:cy="83.739837"
     inkscape:window-x="0"
     inkscape:window-y="34"
     inkscape:window-maximized="1"
     inkscape:current-layer="svg14"
     inkscape:pagecheckerboard="0">
    <inkscape:grid
       type="xygrid"
       id="grid5193" />
  </sodipodi:namedview>
  <circle
     style="opacity:0.2;fill:#000000;stroke-width:4;filter:url(#filter850)"
     cx="96"
     cy="100"
     r="80"
     id="circle832" />
  <circle
     id="circle4"
     r="80"
     cy="96"
     cx="96"
     style="fill:#4858dd;stroke-width:4;fill-opacity:1" />
  <path
     id="path1317"
     style="opacity:0.2;fill:#000000;fill-opacity:1;stroke-width:0.16648;filter:url(#filter1355)"
     d="m 74.923828,50.015549 c -2.082,0.04954 -3.56048,0.222513 -3.732422,0.501953 -0.125024,0.203207 0.328617,0.836254 2.265625,3.169922 2.439024,2.938477 3.603753,4.525318 5.111328,6.962891 1.608575,2.600867 3.84375,7.277003 3.84375,7.751953 0,0.498871 -0.494333,0.561043 -2.105468,0.265625 -4.211761,-0.772275 -7.74397,-0.952315 -11.314453,-0.578125 -8.461752,0.886797 -16.790392,4.020911 -22.746094,9.25 -3.816837,3.351164 -8.689476,8.929497 -8.214844,9.40625 0.08009,0.08045 1.0742,0.253562 2.207031,0.384765 1.891171,0.21903 3.322419,0.431833 6.080078,0.90625 4.509791,0.775848 10.238903,2.769992 13.707032,4.769532 2.40885,1.388823 6.441406,4.366889 6.441406,4.757809 0,0.07317 -0.657124,0.48157 -1.458985,0.90625 -4.539981,2.404406 -9.443479,7.258776 -12.75,12.623056 -2.8244,4.58214 -6.035813,13.4721 -7.072265,19.57813 -0.329466,1.94097 -0.298421,2.42196 0.154297,2.41796 0.153725,-10e-4 1.326431,-0.56514 2.605468,-1.25195 11.048445,-5.93266 15.454703,-7.63317 23.337891,-9.01367 3.024216,-0.52961 13.101969,-0.57288 16.105469,-0.0684 0.98099,0.16479 1.179482,0.27498 2.326172,1.28516 5.265909,4.63907 11.634096,8.10652 17.033206,9.27539 3.95754,0.85678 8.57982,0.79864 11.78125,-0.14844 l 0.82031,-0.24219 1.33984,0.89844 c 1.56533,1.04826 2.55991,1.51306 4.16407,1.94531 1.24798,0.33629 1.75228,0.30993 2.99804,-0.11328 2.10843,-0.71624 2.78141,-2.23371 1.55078,-3.49805 -0.63316,-0.65049 -0.70556,-0.77866 -3.05468,-1.54687 -1.09632,-0.35853 -1.98501,-0.71612 -1.97461,-0.79492 0.0103,-0.0787 0.49654,-0.39947 1.08007,-0.71094 1.78808,-0.95437 3.09195,-1.97811 5.45313,-4.28516 1.59429,-1.55771 2.4842,-2.30025 3.00586,-2.50781 0.40766,-0.16219 1.3683,-0.65653 2.13477,-1.09766 2.97861,-1.71431 5.29039,-4.19971 6.08203,-6.53906 0.30584,-0.90379 0.43911,-1.05271 2.07421,-2.3457 3.14716,-2.48869 5.16632,-4.39921 8.05274,-8.21485 0.8656,-1.14426 1.73514,-3.11854 1.74414,-3.96094 0.008,-0.768696 -0.54206,-1.357066 -1.54102,-1.644526 -1.06479,-0.30643 -3.99218,-0.5884 -6.09375,-0.58789 -1.72739,4.1e-4 -5.56519,-0.43514 -6.46289,-0.73243 -0.52196,-0.17288 -0.59079,-0.277907 -0.87695,-1.355466 -1.62705,-6.126773 -3.67731,-11.530499 -5.95117,-15.298828 -2.63533,-4.367344 -4.83114,-7.199615 -8.2168,-10.601562 -7.62283,-7.659466 -16.19309,-12.887416 -27.080076,-16.521485 -5.694604,-1.900856 -9.389485,-2.655141 -15.5,-3.160156 -2.586845,-0.213793 -5.271516,-0.285871 -7.353516,-0.236328 z m 30.490232,42.986328 c 1.10853,0.02045 2.25383,0.308012 3.40039,0.888672 2.17887,1.103447 3.67972,3.036647 4.74219,6.107425 0.84134,2.431676 0.99987,3.982666 1.13281,11.148436 0.14154,7.63013 0.32362,9.16217 1.28907,10.79688 0.45123,0.76402 1.70113,1.55078 2.46289,1.55078 0.33499,0 0.65368,0.0756 0.70898,0.16797 0.0553,0.0925 0.24547,0.16797 0.42188,0.16797 0.50486,0 0.58048,0.50033 0.13085,0.85742 -0.41847,0.33235 -1.36322,0.42666 -1.52734,0.15234 -0.18929,-0.31639 -1.54647,-1.03997 -2.39844,-1.27929 -0.89984,-0.25274 -2.11658,-0.44601 -4.67773,-0.74219 -4.75839,-0.55027 -7.52342,-1.62969 -9.60156,-3.74609 -0.83534,-0.85073 -1.2137,-1.49709 -1.08203,-1.85157 0.0507,-0.13636 0.62684,-0.60482 1.28125,-1.04101 2.28067,-1.52019 4.6452,-4.84636 5.83203,-7.28321 0.55427,-1.13809 1.21745,-3.21507 1.3457,-4.21679 0.0882,-0.68887 0.0477,-0.8954 -0.24805,-1.28321 -0.77786,-1.02004 -2.49389,-0.27163 -4.71484,2.05469 -2.00149,2.09643 -3.24397,4.67354 -4.458985,7.43945 -0.81813,1.86243 -0.9265,2.00335 -1.294922,1.6875 -0.273492,-0.23445 -1.154826,-1.98914 -1.523437,-3.0332 -0.861021,-2.43875 -0.846906,-5.78635 0.04102,-9.63868 1.299071,-5.636108 4.779254,-8.97734 8.738284,-8.904293 z m 29.17383,21.998053 c 0.39512,-0.003 0.51971,0.41412 0.3125,1.11719 -1.19634,4.05918 -7.14442,10.59366 -11.37109,12.49023 -1.05232,0.47219 -1.66153,0.51446 -2.17383,0.15039 -0.55041,-0.39116 -0.45603,-0.82403 0.25,-1.14648 2.22966,-1.01829 3.4764,-1.90976 4.98633,-3.56445 1.16407,-1.2757 1.92382,-2.60603 1.92382,-3.36719 10e-6,-0.33628 0.17284,-0.6219 0.60743,-1.00391 0.33433,-0.29386 1.58752,-1.44063 2.78515,-2.54883 1.19762,-1.1082 2.3201,-2.05351 2.49414,-2.09961 0.0673,-0.0179 0.12911,-0.027 0.18555,-0.0273 z" />
  <path
     id="path925"
     style="opacity:1;fill:#242c6e;fill-opacity:1;stroke-width:0.16648"
     d="m 74.923828,48.015512 c -2.082,0.04954 -3.56048,0.222513 -3.732422,0.501953 -0.125024,0.203207 0.328617,0.836254 2.265625,3.169922 2.439024,2.938477 3.603753,4.525318 5.111328,6.962891 1.608575,2.600867 3.84375,7.277003 3.84375,7.751953 0,0.498871 -0.494333,0.561043 -2.105468,0.265625 -4.211761,-0.772275 -7.74397,-0.952315 -11.314453,-0.578125 -8.461752,0.886797 -16.790392,4.020911 -22.746094,9.25 -3.816837,3.351164 -8.689476,8.929497 -8.214844,9.40625 0.08009,0.08045 1.0742,0.253562 2.207031,0.384765 1.891171,0.21903 3.322419,0.431833 6.080078,0.90625 4.509791,0.775848 10.238903,2.769992 13.707032,4.769532 2.40885,1.388823 6.441406,4.366889 6.441406,4.757809 0,0.07317 -0.657124,0.48157 -1.458985,0.90625 -4.539981,2.40441 -9.443479,7.258773 -12.75,12.623053 -2.8244,4.58214 -6.035813,13.4721 -7.072265,19.57813 -0.329466,1.94097 -0.298421,2.42196 0.154297,2.41796 0.153725,-0.001 1.326431,-0.56514 2.605468,-1.25195 11.048445,-5.93266 15.454703,-7.63317 23.337891,-9.01367 3.024216,-0.52961 13.101969,-0.57288 16.105469,-0.0684 0.98099,0.16479 1.179482,0.27498 2.326172,1.28516 5.265909,4.63907 11.634096,8.10652 17.033206,9.27539 3.95754,0.85678 8.57982,0.79864 11.78125,-0.14844 l 0.82031,-0.24219 1.33984,0.89844 c 1.56533,1.04826 2.55991,1.51306 4.16407,1.94531 1.24798,0.33629 1.75228,0.30993 2.99804,-0.11328 2.10843,-0.71624 2.78141,-2.23371 1.55078,-3.49805 -0.63316,-0.65049 -0.70556,-0.77866 -3.05468,-1.54687 -1.09632,-0.35853 -1.98501,-0.71612 -1.97461,-0.79492 0.0103,-0.0787 0.49654,-0.39947 1.08007,-0.71094 1.78808,-0.95437 3.09195,-1.97811 5.45313,-4.28516 1.59429,-1.55771 2.4842,-2.30025 3.00586,-2.50781 0.40766,-0.16219 1.3683,-0.65653 2.13477,-1.09766 2.97861,-1.71431 5.29039,-4.19971 6.08203,-6.53906 0.30584,-0.90379 0.43911,-1.05271 2.07421,-2.3457 3.14716,-2.48869 5.16632,-4.39921 8.05274,-8.21485 0.8656,-1.14426 1.73514,-3.118533 1.74414,-3.960933 0.008,-0.7687 -0.54206,-1.35707 -1.54102,-1.64453 -1.06479,-0.30643 -3.99218,-0.5884 -6.09375,-0.58789 -1.72739,4.1e-4 -5.56519,-0.43514 -6.46289,-0.73243 -0.52196,-0.17288 -0.59079,-0.277907 -0.87695,-1.355466 -1.62705,-6.126773 -3.67731,-11.530499 -5.95117,-15.298828 -2.63533,-4.367344 -4.83114,-7.199615 -8.2168,-10.601562 -7.62283,-7.659466 -16.19309,-12.887416 -27.080076,-16.521485 -5.694604,-1.900856 -9.389485,-2.655141 -15.5,-3.160156 -2.586845,-0.213793 -5.271516,-0.285871 -7.353516,-0.236328 z M 105.41406,91.00184 c 1.10853,0.02045 2.25383,0.308012 3.40039,0.888672 2.17887,1.103447 3.67972,3.036647 4.74219,6.107425 0.84134,2.431673 0.99987,3.982663 1.13281,11.148433 0.14154,7.63013 0.32362,9.16217 1.28907,10.79688 0.45123,0.76402 1.70113,1.55078 2.46289,1.55078 0.33499,0 0.65368,0.0756 0.70898,0.16797 0.0553,0.0925 0.24547,0.16797 0.42188,0.16797 0.50486,0 0.58048,0.50033 0.13085,0.85742 -0.41847,0.33235 -1.36322,0.42666 -1.52734,0.15234 -0.18929,-0.31639 -1.54647,-1.03997 -2.39844,-1.27929 -0.89984,-0.25274 -2.11658,-0.44601 -4.67773,-0.74219 -4.75839,-0.55027 -7.52342,-1.62969 -9.60156,-3.74609 -0.83534,-0.85073 -1.2137,-1.49709 -1.08203,-1.85157 0.0507,-0.13636 0.62684,-0.60482 1.28125,-1.04101 2.28067,-1.52019 4.6452,-4.84636 5.83203,-7.28321 0.55427,-1.13809 1.21745,-3.21507 1.3457,-4.21679 0.0882,-0.68887 0.0477,-0.8954 -0.24805,-1.28321 -0.77786,-1.02004 -2.49389,-0.27163 -4.71484,2.05469 -2.00149,2.09643 -3.24397,4.67354 -4.458985,7.43945 -0.81813,1.86243 -0.9265,2.00335 -1.294922,1.6875 -0.273492,-0.23445 -1.154826,-1.98914 -1.523437,-3.0332 -0.861021,-2.43875 -0.846906,-5.78635 0.04102,-9.638673 1.299071,-5.636112 4.779259,-8.977344 8.738279,-8.904297 z m 29.17383,21.99805 c 0.39512,-0.003 0.51971,0.41412 0.3125,1.11719 -1.19634,4.05918 -7.14442,10.59366 -11.37109,12.49023 -1.05232,0.47219 -1.66153,0.51446 -2.17383,0.15039 -0.55041,-0.39116 -0.45603,-0.82403 0.25,-1.14648 2.22966,-1.01829 3.4764,-1.90976 4.98633,-3.56445 1.16407,-1.2757 1.92382,-2.60603 1.92382,-3.36719 10e-6,-0.33628 0.17284,-0.6219 0.60743,-1.00391 0.33433,-0.29386 1.58752,-1.44063 2.78515,-2.54883 1.19762,-1.1082 2.3201,-2.05351 2.49414,-2.09961 0.0673,-0.0179 0.12911,-0.027 0.18555,-0.0273 z" />
  <path
     style="opacity:0.1;fill:#ffffff;stroke-width:4"
     d="M 96 16 A 80 80 0 0 0 16 96 A 80 80 0 0 0 16.019531 96.472656 A 80 80 0 0 1 96 17 A 80 80 0 0 1 175.97461 96.513672 A 80 80 0 0 0 176 96 A 80 80 0 0 0 96 16 z "
     id="path6" />
</svg>
