<?xml version="1.0" encoding="UTF-8" standalone="no"?>
<svg
   height="192"
   width="192"
   version="1.1"
   id="svg26"
   sodipodi:docname="games_freedroid.svg"
   inkscape:version="1.1-rc (1:1.1+rc+202105232036+f4db50c7c1)"
   xmlns:inkscape="http://www.inkscape.org/namespaces/inkscape"
   xmlns:sodipodi="http://sodipodi.sourceforge.net/DTD/sodipodi-0.dtd"
   xmlns="http://www.w3.org/2000/svg"
   xmlns:svg="http://www.w3.org/2000/svg">
  <defs
     id="defs30">
    <filter
       inkscape:collect="always"
       style="color-interpolation-filters:sRGB"
       id="filter858"
       x="-0.048000001"
       y="-0.048000001"
       width="1.096"
       height="1.096">
      <feGaussianBlur
         inkscape:collect="always"
         stdDeviation="3.2"
         id="feGaussianBlur860" />
    </filter>
    <filter
       inkscape:collect="always"
       style="color-interpolation-filters:sRGB"
       id="filter962"
       x="-0.051693426"
       y="-0.05216459"
       width="1.1033869"
       height="1.1043292">
      <feGaussianBlur
         inkscape:collect="always"
         stdDeviation="2.0865835"
         id="feGaussianBlur964" />
    </filter>
    <filter
       inkscape:collect="always"
       style="color-interpolation-filters:sRGB"
       id="filter966"
       x="-0.048000001"
       y="-0.048000001"
       width="1.096"
       height="1.096">
      <feGaussianBlur
         inkscape:collect="always"
         stdDeviation="3.2"
         id="feGaussianBlur968" />
    </filter>
  </defs>
  <sodipodi:namedview
     id="namedview28"
     pagecolor="#ffffff"
     bordercolor="#666666"
     borderopacity="1.0"
     inkscape:pageshadow="2"
     inkscape:pageopacity="0.0"
     inkscape:pagecheckerboard="0"
     showgrid="false"
     inkscape:zoom="2.16"
     inkscape:cx="23.842593"
     inkscape:cy="23.842593"
     inkscape:window-width="1920"
     inkscape:window-height="1019"
     inkscape:window-x="0"
     inkscape:window-y="34"
     inkscape:window-maximized="1"
     inkscape:current-layer="svg26" />
  <circle
     cx="96"
     cy="100"
     r="80"
     style="opacity:0.2;stroke-width:8;filter:url(#filter858)"
     id="circle2" />
  <circle
     cx="96"
     cy="96"
     r="80"
     style="fill:#ff4f4f;stroke-width:8"
     id="circle4" />
  <path
     style="opacity:0.2;stroke-width:8;filter:url(#filter966)"
     d="m 96,18 -8,40 h 16 z m -48,72 -32,8 32,8 z m 96,0 v 16 l 32,-8 z m -56,48 8,40 8,-40 z"
     id="path6" />
  <path
     style="fill:#f7df67;stroke-width:8"
     d="m 96,16 -8,40 h 16 z m -48,72 -32,8 32,8 z m 96,0 v 16 l 32,-8 z m -56,48 8,40 8,-40 z"
     id="path8" />
  <path
     id="path10"
     style="opacity:0.2;fill:#ffffff;stroke-width:8"
     d="M 96 16 A 80 80 0 0 0 16 96 A 80 80 0 0 0 16.021484 96.662109 A 80 80 0 0 1 96 17 A 80 80 0 0 1 175.98438 96.310547 A 80 80 0 0 0 176 96 A 80 80 0 0 0 96 16 z " />
  <path
     id="path12"
     style="opacity:0.2;stroke-width:8;filter:url(#filter962)"
     d="m 96,50 a 56,48 0 0 0 -8.40625,0.609375 L 72,74 h 72.42188 A 56,48 0 0 0 96,50 Z m -8.640625,0.640625 A 56,48 0 0 0 47.5625,74 H 64 Z M 68,82 A 12,16 0 0 0 56,98 12,16 0 0 0 68,114 12,16 0 0 0 80,98 12,16 0 0 0 68,82 Z m 32,0 a 12,16 0 0 0 -12,16 12,16 0 0 0 12,16 12,16 0 0 0 12,-16 12,16 0 0 0 -12,-16 z m 28,0 -8,8 h 8 v 24 h 8 V 82 Z m -60,8 a 4,8 0 0 1 4,8 4,8 0 0 1 -4,8 4,8 0 0 1 -4,-8 4,8 0 0 1 4,-8 z m 32,0 a 4,8 0 0 1 4,8 4,8 0 0 1 -4,8 4,8 0 0 1 -4,-8 4,8 0 0 1 4,-8 z M 47.578125,122 A 56,48 0 0 0 87.40625,145.40625 L 64,122 Z M 72,122 87.625,145.4375 A 56,48 0 0 0 96,146 56,48 0 0 0 144.4375,122 Z" />
  <path
     style="fill:#ffffff;stroke-width:8"
     d="m 128,112 h 8 V 80 h -8 l -8,8 h 8 z"
     id="path14" />
  <path
     style="fill:#ffffff;stroke-width:8"
     d="M 68,80 A 12,16 0 0 0 56,96 12,16 0 0 0 68,112 12,16 0 0 0 80,96 12,16 0 0 0 68,80 Z m 0,8 a 4,8 0 0 1 4,8 4,8 0 0 1 -4,8 4,8 0 0 1 -4,-8 4,8 0 0 1 4,-8 z"
     id="path16" />
  <path
     style="fill:#ffffff;stroke-width:8"
     d="m 100,80 a 12,16 0 0 0 -12,16 12,16 0 0 0 12,16 12,16 0 0 0 12,-16 12,16 0 0 0 -12,-16 z m 0,8 a 4,8 0 0 1 4,8 4,8 0 0 1 -4,8 4,8 0 0 1 -4,-8 4,8 0 0 1 4,-8 z"
     id="path18" />
  <path
     style="fill:#ffffff;stroke-width:8"
     d="m 96,48 a 56,48 0 0 0 -8.40625,0.609375 L 72,72 h 72.42187 A 56,48 0 0 0 96,48 Z m -8.640625,0.640625 A 56,48 0 0 0 47.5625,72 H 64 Z M 47.578125,120 A 56,48 0 0 0 87.40625,143.40625 L 64,120 Z M 72,120 87.625,143.4375 A 56,48 0 0 0 96,144 56,48 0 0 0 144.4375,120 Z"
     id="path22" />
</svg>
