<?xml version="1.0" encoding="UTF-8" standalone="no"?>
<svg
   width="192"
   height="192"
   version="1"
   id="svg38"
   sodipodi:docname="games_teslagrad.svg"
   inkscape:version="1.1-rc (1:1.1+rc+202105232036+f4db50c7c1)"
   xmlns:inkscape="http://www.inkscape.org/namespaces/inkscape"
   xmlns:sodipodi="http://sodipodi.sourceforge.net/DTD/sodipodi-0.dtd"
   xmlns="http://www.w3.org/2000/svg"
   xmlns:svg="http://www.w3.org/2000/svg">
  <defs
     id="defs42">
    <filter
       inkscape:collect="always"
       style="color-interpolation-filters:sRGB"
       id="filter1254"
       x="-0.049263166"
       y="-0.04679999"
       width="1.0985263"
       height="1.0936">
      <feGaussianBlur
         inkscape:collect="always"
         stdDeviation="3.12"
         id="feGaussianBlur1256" />
    </filter>
    <filter
       inkscape:collect="always"
       style="color-interpolation-filters:sRGB"
       id="filter1296"
       x="-0.057261264"
       y="-0.04131744"
       width="1.1145225"
       height="1.0826349">
      <feGaussianBlur
         inkscape:collect="always"
         stdDeviation="2.0995799"
         id="feGaussianBlur1298" />
    </filter>
  </defs>
  <sodipodi:namedview
     id="namedview40"
     pagecolor="#ffffff"
     bordercolor="#666666"
     borderopacity="1.0"
     inkscape:pageshadow="2"
     inkscape:pageopacity="0.0"
     inkscape:pagecheckerboard="0"
     showgrid="false"
     inkscape:zoom="3.05"
     inkscape:cx="62.786885"
     inkscape:cy="76.557377"
     inkscape:window-width="1920"
     inkscape:window-height="1019"
     inkscape:window-x="0"
     inkscape:window-y="34"
     inkscape:window-maximized="1"
     inkscape:current-layer="svg38" />
  <path
     fill="#343054"
     d="M 171.99997,83.384644 C 171.99997,120.83639 127.72358,180 89.135225,180 50.546875,180 17.486576,120.88039 20.150599,80.736662 21.958216,53.460845 55.790922,19.361073 75.523101,20.009069 c 6.62326,0.644995 -5.293648,7.292751 2.651184,5.127165 6.021255,-1.641269 12.371313,-2.519103 18.932971,-2.519103 38.589154,0 74.892674,23.309844 74.892674,60.763593 z"
     id="path1095"
     style="opacity:0.2;fill:#000000;stroke-width:4;filter:url(#filter1254)" />
  <path
     fill="#343054"
     d="m 171.99997,79.384674 c 0,37.451746 -44.27639,96.615356 -82.864745,96.615356 -38.58835,0 -71.648649,-59.11961 -68.984626,-99.263338 1.807617,-27.275817 35.640323,-61.375589 55.372502,-60.727593 6.62326,0.644995 -5.293648,7.292751 2.651184,5.127165 6.021255,-1.641269 12.371313,-2.519103 18.932971,-2.519103 38.589154,0 74.892674,23.309844 74.892674,60.763593 z"
     id="path2"
     style="stroke-width:4" />
  <path
     fill="#2e2e37"
     d="m 154.67512,84.46464 c 0,28.25061 -7.85397,63.76757 -36.78007,82.01545 -9.42413,5.94796 -19.244097,9.51994 -28.7242,9.51994 -7.76081,0 -15.297712,-2.39199 -22.362808,-6.54396 -28.062065,-16.47589 -29.086444,-59.9596 -26.960518,-92.023383 6.20505,-32.75178 22.402392,-30.899793 41.13909,-36.191757 6.021525,-1.641189 22.530736,-2.056787 29.088046,-2.056787 38.57294,0 44.60166,7.827548 44.60166,45.283697 z"
     id="path4"
     style="stroke-width:3.99916" />
  <path
     fill="#dabc9c"
     d="m 137.28021,111.3944 c 0,14.7227 -13.51605,27.99741 -20.69272,40.87973 C 107.98085,167.72162 109.89841,171 92.48369,171 60.547786,171 50,142.1066 50,109.72841 50,92.850926 50.838524,72.055465 62.096461,61.356737 72.436824,51.531603 89.880715,49.042019 105.17164,49.042019 c 16.94633,0 25.27601,12.276318 30.23777,19.935467 4.38905,6.774755 1.87252,27.220218 1.87252,42.419714 z"
     id="path1258"
     style="opacity:0.2;fill:#000000;stroke-width:3.99827;filter:url(#filter1296)" />
  <path
     fill="#dabc9c"
     d="m 137.28021,109.3944 c 0,14.7227 -13.51605,27.99741 -20.69272,40.87973 C 107.98085,165.72162 109.89841,169 92.48369,169 60.547786,169 50,140.1066 50,107.72841 50,90.850926 50.838524,70.055465 62.096461,59.356737 72.436824,49.531603 89.880715,47.042019 105.17164,47.042019 c 16.94633,0 25.27601,12.276318 30.23777,19.935467 4.38905,6.774755 1.87252,27.220218 1.87252,42.419714 z"
     id="path6"
     style="stroke-width:3.99827" />
  <g
     fill="#405168"
     id="g14"
     transform="matrix(3.9983565,0,0,3.9999732,0.07067424,0.001206)">
    <path
       d="m 27.705,11.136 a 3.8893,8.4884 68.075 0 1 -6.4042,6.7784 3.8893,8.4884 68.075 0 1 -9.339,-0.42544 3.8893,8.4884 68.075 0 1 6.4042,-6.7784 3.8893,8.4884 68.075 0 1 9.339,0.42544 z"
       id="path8" />
    <path
       d="m 27.712,11.794 c 1.5661,-1.4759 5.7867,-2.4001 9.0122,0.98998 3.2255,3.39008 2.4864,12.487 0.92026,13.963 -1.5661,1.4759 -1.2146,-6.5667 -4.4401,-9.9568 -3.2255,-3.3901 -7.0585,-3.5206 -5.4923,-4.9965 z"
       id="path10" />
    <path
       d="m 12.744,16.563 c 2.0494,1.0756 2.3563,4.6803 0.68541,8.0514 -1.6708,3.3711 0.42329,8.8454 -1.6261,7.7698 -2.0494,-1.075 -4.3252,-6.833 -2.6543,-10.204 1.6713,-3.371 1.5453,-6.692 3.5953,-5.617 z"
       id="path12" />
  </g>
  <path
     fill="#ffffff"
     opacity="0.1"
     d="m 105.30742,45.056904 c 2.40005,5.037966 -4.69488,10.194332 -18.997794,16.283491 -13.090619,5.562763 -27.151239,7.730348 -34.08479,5.254365 0.1952,0.430957 0.470367,0.831914 0.823822,1.200312 4.69287,4.721968 21.253263,3.124819 36.985597,-3.566656 15.726335,-6.688756 24.671865,-15.936294 19.982585,-20.657062 -0.6972,-0.686755 -3.48089,1.916067 -4.70926,1.48503 z"
     id="path16"
     style="stroke-width:3.99916" />
  <path
     fill="#ffffff"
     opacity="0.1"
     d="m 148.84152,99.272541 c 3.56413,-1.208712 0.97004,-10.299531 -3.05534,-19.098272 -2.25356,-4.925967 -5.5793,-10.48993 -9.55288,-14.819901 -3.31691,-3.614296 -7.45333,-6.447957 -11.64081,-9.00274 -4.34821,-2.652702 -8.29339,-4.570369 -13.84151,-6.470756 0.46605,-0.167839 3.43874,-3.240618 4.01315,-3.263418 5.42977,-0.134719 -5.44736,-4.420771 1.5109,2.214145 2.67418,2.549943 19.00139,8.391544 25.42515,16.097092 5.46935,6.560756 7.45334,15.494296 9.59045,23.765441 0.94974,3.676095 6.66407,11.173925 1.38735,11.305928 -1.10702,0.0176 -2.39521,-0.226482 -3.83642,-0.727079 z"
     id="path18"
     style="stroke-width:3.99916" />
  <path
     fill="#7f90bc"
     stroke="#33374a"
     stroke-linecap="round"
     stroke-linejoin="round"
     stroke-width="2.80212"
     d="m 166.07954,71.729397 c 2.32283,14.917872 -3.65363,36.129603 -10.95084,49.359043 -10.83724,19.64787 -24.54232,32.26164 -39.42308,45.06887 0,0 21.24326,-37.20275 27.60494,-57.47472 3.05685,-9.740425 6.07809,-20.090121 4.8888,-30.226711 -0.89195,-7.603744 -3.40956,-13.734969 -9.11112,-18.864753 -4.76797,-4.289774 -11.82292,-6.857069 -18.16782,-7.854504 -6.89174,-1.083601 -13.99508,-1.27051 -20.925631,-0.469156 -10.500019,1.214108 -21.588883,2.581236 -30.697995,7.926208 -4.945586,2.902098 -9.547945,7.203169 -11.862127,12.437503 -5.817653,13.15894 -5.324415,28.837103 -3.026876,43.033943 2.990155,18.47538 20.522402,56.93394 20.522402,56.93394 l -0.992237,-0.40026 c 0,0 -9.99878,-4.61063 -18.011406,-12.54846 -7.828611,-7.74715 -13.625063,-18.73896 -17.634176,-26.09355 -8.121834,-14.90145 -9.367532,-31.16485 -6.486106,-47.876913 1.798941,-16.095166 8.815088,-29.402319 19.939956,-38.15091 22.121727,-15.559996 48.215755,-19.197632 72.477656,-13.7562 21.30767,4.24531 38.3434,18.519054 41.85526,38.962879 z"
     id="path20" />
  <rect
     fill="#302100"
     width="22.932552"
     height="4.2390838"
     x="61.81773"
     y="117.57436"
     rx="2.8322918"
     ry="2.8628602"
     transform="matrix(0.9023888,-0.43092279,0.42081786,0.90714515,0,0)"
     id="rect22"
     style="stroke-width:3.93035" />
  <rect
     fill="#302100"
     width="21.136105"
     height="4.2464256"
     x="84.302208"
     y="54.982231"
     rx="2.6095955"
     ry="2.8679833"
     transform="matrix(0.93585316,0.35239021,-0.34645796,0.9380655,0,0)"
     id="rect24"
     style="stroke-width:4.08334" />
  <ellipse
     fill="#302100"
     cx="70.5"
     cy="100"
     rx="5.5"
     ry="14"
     id="ellipse26"
     style="stroke-width:4.04037" />
  <ellipse
     fill="#302100"
     cx="108.23187"
     cy="98.741646"
     rx="5.9168215"
     ry="14.53729"
     transform="matrix(0.99995626,-0.00935256,0.06859172,0.99764481,0,0)"
     id="ellipse28"
     style="stroke-width:4.04026" />
  <path
     fill="#302100"
     d="m 103.43618,113.52045 c 2.32761,2.76306 8.5345,4.20797 9.90954,8.23634 1.21945,3.57254 -0.25982,7.98915 -2.53049,11.02673 -1.31246,1.75578 -3.5399,3.15974 -5.75483,3.28177 -3.36538,0.1854 -8.259006,-0.83415 -9.257396,-3.99449 -0.265371,-0.83999 0.558651,-1.98947 1.416818,-2.24202 2.114491,-0.62224 3.883688,3.30657 6.011128,2.72806 3.77973,-1.02784 7.24623,-5.75036 6.61688,-9.55074 -0.58596,-3.53897 -7.06589,-3.32122 -8.71442,-6.52075 -1.251643,-2.42923 -2.866499,-7.65955 -0.1417,-8.16555 0.69511,1.50355 1.41266,3.93805 2.44439,5.19997 z"
     id="path30"
     style="stroke-width:3.99916" />
  <rect
     fill="#302100"
     width="31.080271"
     height="3.6113155"
     x="127.09321"
     y="145.47444"
     rx="3.8349206"
     ry="2.4418588"
     transform="matrix(0.99428835,0.10672716,-0.33486308,0.9422668,0,0)"
     id="rect32"
     style="stroke-width:4.08354" />
  <path
     id="path1213"
     style="stroke-width:4;fill:#ffffff;opacity:0.1"
     d="M 75.523438 16.009766 C 55.791259 15.36177 21.958008 49.460511 20.150391 76.736328 C 20.051852 78.22119 20.017939 79.738651 20.015625 81.271484 C 20.033604 80.079548 20.073276 78.898358 20.150391 77.736328 C 21.958008 50.460511 55.791259 16.36177 75.523438 17.009766 C 76.699562 17.124301 77.272235 17.433609 77.494141 17.84375 C 77.826173 16.95619 77.533854 16.205547 75.523438 16.009766 z M 97.107422 18.617188 C 90.545764 18.617187 84.195083 19.49545 78.173828 21.136719 C 76.801579 21.510763 76.051073 21.60867 75.666016 21.533203 C 75.014069 22.478953 75.094809 22.975991 78.173828 22.136719 C 84.195083 20.49545 90.545764 19.617188 97.107422 19.617188 C 135.5085 19.617188 171.63303 42.70605 171.98438 79.839844 C 171.98578 79.690075 172 79.533852 172 79.384766 L 172 79.380859 C 172 41.92711 135.69658 18.617188 97.107422 18.617188 z " />
</svg>
