<?xml version="1.0" encoding="UTF-8" standalone="no"?>
<svg
   width="192"
   height="192"
   version="1.1"
   id="svg26"
   sodipodi:docname="games_edge.svg"
   inkscape:version="1.1-rc (1:1.1+rc+202105232036+f4db50c7c1)"
   xmlns:inkscape="http://www.inkscape.org/namespaces/inkscape"
   xmlns:sodipodi="http://sodipodi.sourceforge.net/DTD/sodipodi-0.dtd"
   xmlns="http://www.w3.org/2000/svg"
   xmlns:svg="http://www.w3.org/2000/svg">
  <defs
     id="defs30">
    <filter
       inkscape:collect="always"
       style="color-interpolation-filters:sRGB"
       id="filter858"
       x="-0.050267195"
       y="-0.045240337"
       width="1.1005344"
       height="1.0904807">
      <feGaussianBlur
         inkscape:collect="always"
         stdDeviation="3.0160317"
         id="feGaussianBlur860" />
    </filter>
    <filter
       inkscape:collect="always"
       style="color-interpolation-filters:sRGB"
       id="filter862"
       x="-0.052800035"
       y="-0.04400003"
       width="1.1056001"
       height="1.0880001">
      <feGaussianBlur
         inkscape:collect="always"
         stdDeviation="0.22000015"
         id="feGaussianBlur864" />
    </filter>
  </defs>
  <sodipodi:namedview
     id="namedview28"
     pagecolor="#ffffff"
     bordercolor="#666666"
     borderopacity="1.0"
     inkscape:pageshadow="2"
     inkscape:pageopacity="0.0"
     inkscape:pagecheckerboard="0"
     showgrid="false"
     inkscape:zoom="2.31"
     inkscape:cx="24.025974"
     inkscape:cy="24.025974"
     inkscape:window-width="1920"
     inkscape:window-height="1019"
     inkscape:window-x="0"
     inkscape:window-y="34"
     inkscape:window-maximized="1"
     inkscape:current-layer="svg26" />
  <path
     d="m 96.429688,20.004858 c -3.351232,-0.08075 -6.658464,0.753931 -9.562496,2.421912 L 33.132811,53.333489 c -5.651311,3.249749 -9.133223,9.257976 -9.132812,15.758055 v 61.813446 c -2e-6,4.5119 1.708653,8.76006 4.625,12.03925 a 18.262705,18.191877 0 0 0 0.343752,0.39841 c 0.298896,0.31712 0.615016,0.61785 0.9375,0.91407 a 18.262705,18.191877 0 0 0 0.625,0.54688 c 0.296744,0.24865 0.592256,0.49593 0.906251,0.72658 a 18.262705,18.191877 0 0 0 1.695312,1.12501 l 53.734378,30.90672 a 18.262705,18.191877 0 0 0 18.265628,0 l 53.73436,-30.90672 A 18.262705,18.191877 0 0 0 168,130.90499 V 69.091544 a 18.262705,18.191877 0 0 0 -0.1484,-2.164097 c -0.028,-0.231123 -0.0648,-0.458479 -0.1016,-0.687506 a 18.262705,18.191877 0 0 0 -0.27344,-1.367213 c -0.0744,-0.310325 -0.15192,-0.616889 -0.24216,-0.92189 a 18.262705,18.191877 0 0 0 -0.34376,-1.007827 C 166.76368,62.591805 166.648,62.238184 166.5,61.896119 a 18.262705,18.191877 0 0 0 -0.0624,-0.140642 l -0.008,0.008 c -1.54052,-3.480457 -4.14554,-6.464823 -7.56266,-8.429816 L 105.13282,22.42677 c -2.65024,-1.522024 -5.644804,-2.35158 -8.703132,-2.421912 z"
     style="opacity:0.2;stroke-width:8.00006;filter:url(#filter858)"
     id="path2" />
  <path
     d="m 96.312496,16.013126 c -0.22224,0.0036 -0.44952,0.02696 -0.67184,0.03128 v 0.04688 c -3.0756,0.05928 -6.093048,0.808746 -8.765624,2.343785 L 33.124999,49.341759 C 30.229326,51.0069 27.92368,53.392579 26.34375,56.201238 L 59.8125,75.326529 96,95.998718 v -0.453126 l 36.1875,-19.890933 33.40625,-19.42217 c -1.57565,-2.809991 -3.83928,-5.225921 -6.73437,-6.89073 L 105.14062,18.435038 c -2.65023,-1.522023 -5.644796,-2.351579 -8.703116,-2.421912 -0.0256,-6.22e-4 -0.052,-6.1e-5 -0.0784,0 -0.016,-3.17e-4 -0.0312,2.79e-4 -0.0472,0 z"
     style="fill:#8d7cae;stroke-width:8.00006"
     id="path4" />
  <path
     d="m 26.71875,55.591854 c -1.735745,2.817054 -2.718967,6.081016 -2.718751,9.500145 v 61.813441 c -2e-6,3.17026 0.938647,6.16415 2.453125,8.82826 l -0.04688,0.0312 c 0.04432,0.0776 0.111168,0.14128 0.156248,0.21872 0.07824,0.13304 0.105952,0.29081 0.187496,0.42185 l 0.07816,-0.0472 c 0.546376,0.89908 1.093532,1.80294 1.796875,2.59379 a 18.262705,18.191877 0 0 0 0.343752,0.39065 c 0.298896,0.31712 0.615016,0.62569 0.937499,0.92188 a 18.262705,18.191877 0 0 0 0.625,0.54689 c 0.296744,0.24864 0.592256,0.48809 0.906251,0.71873 a 18.262705,18.191877 0 0 0 1.703125,1.12502 l 53.734375,30.90672 a 18.262705,18.191877 0 0 0 9.484375,2.40629 L 96.18748,137.68686 96,95.998718 60,74.998399 Z"
     style="fill:#6e59a4;stroke-width:8.00006"
     id="path6" />
  <path
     d="M 165.25,55.591854 132,74.998399 96,95.998718 95.812496,137.68686 95.640624,175.99994 a 18.262705,18.191877 0 0 0 9.499996,-2.43755 L 158.875,142.65568 a 18.262705,18.191877 0 0 0 6.40625,-6.23447 h 0.016 a 18.262705,18.191877 0 0 0 0.0784,-0.15625 18.262705,18.191877 0 0 0 0.28128,-0.46872 h -0.016 A 18.262705,18.191877 0 0 0 168,126.90544 V 65.091999 a 18.262705,18.191877 0 0 0 -0.14064,-2.156284 c -0.028,-0.231123 -0.0728,-0.458487 -0.10936,-0.687506 a 18.262705,18.191877 0 0 0 -0.28128,-1.375021 c -0.0744,-0.310325 -0.14416,-0.616897 -0.2344,-0.921889 a 18.262705,18.191877 0 0 0 -0.34376,-1.000015 c -0.1269,-0.35121 -0.24256,-0.70483 -0.39056,-1.046896 a 18.262705,18.191877 0 0 0 -0.0624,-0.140626 h -0.016 c -0.3336,-0.753755 -0.74096,-1.470004 -1.17187,-2.171907 z"
     style="fill:#65319e;stroke-width:8.00006"
     id="path8" />
  <g
     transform="matrix(8.0000001,0,0,8.0001217,-1.2e-6,1.9977423)"
     style="opacity:0.2;filter:url(#filter862)"
     id="g12">
    <path
       d="m 12,6 5,2.9 v 5.894 L 12,18 7,14.794 V 8.9 Z"
       id="path10" />
  </g>
  <path
     id="path14"
     style="opacity:0.2;fill:#ffffff;stroke-width:8.00006"
     d="M 96.429688 16.005859 C 93.078456 15.925109 89.771219 16.759753 86.867188 18.427734 L 33.132812 49.333984 C 27.481502 52.583733 23.999589 58.591715 24 65.091797 L 24 66.091797 C 23.999589 59.591715 27.481502 53.583733 33.132812 50.333984 L 86.867188 19.427734 C 89.771219 17.759753 93.078456 16.925109 96.429688 17.005859 C 99.488016 17.076191 102.48257 17.90571 105.13281 19.427734 L 158.86719 50.333984 C 162.28431 52.298978 164.88917 55.283215 166.42969 58.763672 L 166.4375 58.755859 A 18.262705 18.191877 0 0 1 166.5 58.896484 C 166.648 59.238549 166.76367 59.592154 166.89062 59.943359 A 18.262705 18.191877 0 0 1 167.23438 60.951172 C 167.32462 61.256165 167.40216 61.562723 167.47656 61.873047 A 18.262705 18.191877 0 0 1 167.75 63.240234 C 167.7868 63.469254 167.82356 63.69661 167.85156 63.927734 A 18.262705 18.191877 0 0 1 168 66.091797 L 168 65.091797 A 18.262705 18.191877 0 0 0 167.85156 62.927734 C 167.82356 62.69661 167.7868 62.469254 167.75 62.240234 A 18.262705 18.191877 0 0 0 167.47656 60.873047 C 167.40216 60.562723 167.32462 60.256165 167.23438 59.951172 A 18.262705 18.191877 0 0 0 166.89062 58.943359 C 166.76367 58.592154 166.648 58.238549 166.5 57.896484 A 18.262705 18.191877 0 0 0 166.4375 57.755859 L 166.42969 57.763672 C 164.88917 54.283215 162.28431 51.298978 158.86719 49.333984 L 105.13281 18.427734 C 102.48257 16.90571 99.488016 16.076191 96.429688 16.005859 z " />
  <g
     transform="matrix(8.0000001,0,0,8.0001217,-1.2e-6,-0.002746)"
     id="g18">
    <path
       d="m 12,6 5,3.1000001 V 14.794 L 12,18 7,14.794 V 9.1000001 Z"
       style="fill:#ed75ff"
       id="path16" />
  </g>
  <path
     d="m 96,47.997983 40,24.800378 v 45.552709 l -40,25.64839 z"
     style="fill:#e141ff;stroke-width:8.00006"
     id="path20" />
  <path
     d="M 96,47.997983 55.999999,72.798361 96,96.098936 136,72.798361 Z"
     style="fill:#fca2ae;stroke-width:8.00006"
     id="path22" />
</svg>
