<?xml version="1.0" encoding="UTF-8" standalone="no"?>
<svg
   width="192"
   height="192"
   version="1"
   id="svg12"
   sodipodi:docname="games_infinitode_2.svg"
   inkscape:version="1.1.1 (1:1.1+202109281949+c3084ef5ed)"
   xmlns:inkscape="http://www.inkscape.org/namespaces/inkscape"
   xmlns:sodipodi="http://sodipodi.sourceforge.net/DTD/sodipodi-0.dtd"
   xmlns="http://www.w3.org/2000/svg"
   xmlns:svg="http://www.w3.org/2000/svg"
   xmlns:rdf="http://www.w3.org/1999/02/22-rdf-syntax-ns#"
   xmlns:cc="http://creativecommons.org/ns#"
   xmlns:dc="http://purl.org/dc/elements/1.1/">
  <metadata
     id="metadata18">
    <rdf:RDF>
      <cc:Work
         rdf:about="">
        <dc:format>image/svg+xml</dc:format>
        <dc:type
           rdf:resource="http://purl.org/dc/dcmitype/StillImage" />
      </cc:Work>
    </rdf:RDF>
  </metadata>
  <defs
     id="defs16">
    <filter
       inkscape:collect="always"
       style="color-interpolation-filters:sRGB"
       id="filter3077"
       x="-0.044638424"
       y="-0.051017998"
       width="1.0892768"
       height="1.102036">
      <feGaussianBlur
         inkscape:collect="always"
         stdDeviation="2.9760498"
         id="feGaussianBlur3079" />
    </filter>
    <filter
       inkscape:collect="always"
       style="color-interpolation-filters:sRGB"
       id="filter28508"
       x="-0.07147828"
       y="-0.078886728"
       width="1.1429566"
       height="1.1577735">
      <feGaussianBlur
         inkscape:collect="always"
         stdDeviation="2.3927308"
         id="feGaussianBlur28510" />
    </filter>
  </defs>
  <sodipodi:namedview
     pagecolor="#ffffff"
     bordercolor="#666666"
     borderopacity="1"
     objecttolerance="10"
     gridtolerance="10"
     guidetolerance="10"
     inkscape:pageopacity="0"
     inkscape:pageshadow="2"
     inkscape:window-width="1920"
     inkscape:window-height="1022"
     id="namedview14"
     showgrid="false"
     inkscape:zoom="1"
     inkscape:cx="124"
     inkscape:cy="70"
     inkscape:window-x="0"
     inkscape:window-y="34"
     inkscape:window-maximized="1"
     inkscape:current-layer="svg12"
     showguides="false"
     inkscape:document-rotation="0"
     inkscape:pagecheckerboard="0"
     inkscape:snap-bbox="true"
     inkscape:snap-bbox-midpoints="true"
     inkscape:snap-global="true">
    <inkscape:grid
       type="xygrid"
       id="grid852" />
  </sodipodi:namedview>
  <path
     id="path3039"
     style="color:#000000;opacity:0.2;fill:#000000;fill-opacity:1;stroke-width:1.4899;stroke-linecap:round;stroke-linejoin:round;-inkscape-stroke:none;filter:url(#filter3077)"
     d="m 60.481709,30 a 8.9713547,8.9092964 0 0 0 -7.767395,4.454204 L 17.19751,95.545802 a 8.9713547,8.9092964 0 0 0 0,8.908408 L 52.714314,165.5458 A 8.9713547,8.9092964 0 0 0 60.481709,170 h 71.033661 a 8.9713547,8.9092964 0 0 0 7.77031,-4.4542 l 35.51681,-61.09159 a 8.9713547,8.9092964 0 0 0 0,-8.908408 L 139.28568,34.454204 A 8.9713547,8.9092964 0 0 0 131.51537,30 Z" />
  <path
     id="path1342"
     style="color:#000000;opacity:1;fill:#295a70;stroke-width:1.4899;stroke-linecap:round;stroke-linejoin:round;-inkscape-stroke:none;fill-opacity:1"
     d="m 60.481709,26 a 8.9713547,8.9092964 0 0 0 -7.767395,4.454204 L 17.19751,91.545802 a 8.9713547,8.9092964 0 0 0 0,8.908408 L 52.714314,161.5458 A 8.9713547,8.9092964 0 0 0 60.481709,166 h 71.033661 a 8.9713547,8.9092964 0 0 0 7.77031,-4.4542 l 35.51681,-61.09159 a 8.9713547,8.9092964 0 0 0 0,-8.908408 L 139.28568,30.454204 A 8.9713547,8.9092964 0 0 0 131.51537,26 Z" />
  <path
     id="path28449"
     style="opacity:0.2;fill:#000000;fill-opacity:1;stroke-width:0.316534;filter:url(#filter28508)"
     d="m 83.324219,56.205075 c -0.0065,-1.12e-4 -0.05467,0.09443 -0.08008,0.138672 l -0.04883,-0.01367 -0.398437,0.933594 c -0.02609,0.05627 -0.05611,0.117248 -0.08398,0.177734 -0.806114,1.448972 -2.29408,4.86583 -5.71875,12.845703 -3.287452,7.66013 -6.06137,14.191604 -6.164063,14.513672 -0.0028,0.0087 0.0051,0.0485 0.0039,0.0625 l -0.146484,0.339844 0.787109,2.720703 c 0.405756,1.613618 0.96539,3.684767 1.609375,5.916016 l 2.439454,8.453129 3.476562,3.70117 3.474609,3.70117 h 3.294922 c 1.812475,0 3.296875,-0.0668 3.296875,-0.14843 0,-0.0816 -1.512875,-2.11058 -3.361328,-4.50977 -1.848452,-2.3992 -3.466551,-4.64791 -3.595703,-4.9961 -0.129153,-0.348187 -0.689697,-3.054077 -1.246094,-6.013669 l -1.011719,-5.38086 4.074219,-7.595703 c 2.241325,-4.178253 4.536812,-8.248062 5.101563,-9.042969 l 0.845703,-1.189453 c 0.208232,-0.109947 1.270787,-0.301534 2.714844,-0.519531 l 4.429687,-0.460937 c 6.182262,-0.643799 7.005882,-0.67151 7.339842,-0.248047 0.20689,0.262328 1.29261,1.69625 2.41211,3.1875 1.94738,2.594068 2.09857,2.71836 3.48242,2.884765 0.79554,0.09566 2.19344,0.289853 3.10743,0.431641 0.914,0.141791 1.6621,0.15753 1.6621,0.0332 0,-0.271168 -4.99934,-14.591755 -5.13086,-14.697265 C 109.73646,61.306 87.826653,57.099879 84.691406,56.582028 84.337284,56.485912 83.344102,56.205413 83.324219,56.205075 Z m 16.726561,22.388672 -4.705077,1.052734 c -2.587456,0.579048 -4.815895,1.132284 -4.953125,1.228516 -0.382842,0.268469 -3.540236,5.506639 -3.402344,5.644531 0.06675,0.06675 2.626581,-0.194175 5.6875,-0.578125 l 5.564454,-0.697265 5.619142,1.964843 5.62109,1.964844 4.27344,6.955078 c 2.35027,3.826131 4.75258,7.812487 5.33984,8.857427 l 1.06836,1.90039 -2.64453,6.0332 c -1.45428,3.31874 -2.78927,6.23097 -2.9668,6.4707 -0.20041,0.27062 -1.76281,0.62286 -4.12109,0.92969 -2.08913,0.27182 -3.87817,0.59118 -3.97461,0.71094 -2.92579,3.6333 -3.84456,4.84547 -3.74414,4.93359 0.0675,0.0592 3.46935,0.74804 7.56055,1.5293 l 7.43945,1.41992 0.66406,-0.66601 c 0.36531,-0.36678 3.28352,-3.72965 6.48633,-7.47266 3.20281,-3.74302 7.05843,-8.08901 8.56641,-9.65625 l 2.74023,-2.84961 -9.29101,-12.501955 c -2.62621,-3.533479 -5.0677,-6.747578 -6.90039,-9.101562 l -2.81836,-3.814454 -1.63868,-0.40039 c -1.58097,-0.450922 -4.35251,-1.167609 -7.43164,-1.91211 z M 65.642578,91.042966 c -0.366819,0.0483 -9.8125,11.389144 -9.8125,11.781254 0,0.23646 1.476043,4.69238 3.28125,9.90234 1.805208,5.20996 3.67783,11.00349 4.16211,12.875 0.484281,1.87151 0.966007,3.4011 1.070312,3.39844 0.104304,-0.003 7.170573,-0.85074 15.701172,-1.88477 l 15.509766,-1.88085 6.191402,-6.40235 6.19141,-6.40234 1.49023,-4.85938 1.49024,-4.85937 -1.63086,-3.025396 -1.63281,-3.025391 -2.23828,5.330077 -2.23829,5.33204 -4.61523,3.99023 -4.613281,3.99023 -9.519531,0.34571 c -5.235816,0.19068 -9.930614,0.23893 -10.433594,0.10547 -1.3412,-0.35586 -9.049849,-10.93455 -8.666016,-11.89258 0.14427,-0.36009 0.840681,-2.05823 1.546875,-3.7754 l 1.283203,-3.123042 -1.179687,-2.970703 c -0.649177,-1.633763 -1.250844,-2.96068 -1.337891,-2.949219 z" />
  <path
     id="path3203"
     style="color:#000000;opacity:0.1;fill:#ffffff;stroke-width:1.4899;stroke-linecap:round;stroke-linejoin:round;-inkscape-stroke:none;fill-opacity:1"
     d="M 60.482422 26 A 8.9713547 8.9092964 0 0 0 52.714844 30.455078 L 17.197266 91.544922 A 8.9713547 8.9092964 0 0 0 16.132812 95.453125 A 8.9713547 8.9092964 0 0 1 17.197266 92.544922 L 52.714844 31.455078 A 8.9713547 8.9092964 0 0 1 60.482422 27 L 131.51562 27 A 8.9713547 8.9092964 0 0 1 139.28516 31.455078 L 174.80273 92.544922 A 8.9713547 8.9092964 0 0 1 175.98438 96.5 A 8.9713547 8.9092964 0 0 0 174.80273 91.544922 L 139.28516 30.455078 A 8.9713547 8.9092964 0 0 0 131.51562 26 L 60.482422 26 z " />
  <path
     style="fill:#08a8b5;fill-opacity:1;stroke-width:0.316534"
     d="m 89.065596,107.54781 c 0,-0.0816 -1.512369,-2.11142 -3.360822,-4.51061 -1.848452,-2.3992 -3.46649,-4.647061 -3.595642,-4.995251 -0.129153,-0.34819 -0.690058,-3.05456 -1.246455,-6.014152 l -1.011631,-5.381084 4.075132,-7.596823 c 2.241325,-4.178253 4.537202,-8.247203 5.101953,-9.042109 l 1.026815,-1.445289 6.963391,-0.725139 c 6.182263,-0.643799 7.005583,-0.671639 7.339543,-0.248176 0.20689,0.262328 1.29211,1.69708 2.41161,3.18833 1.94738,2.594068 2.09802,2.718893 3.48187,2.885298 0.79554,0.09566 2.19425,0.28994 3.10824,0.431728 0.914,0.141791 1.66181,0.156077 1.66181,0.03175 0,-0.271168 -4.99968,-14.591775 -5.13119,-14.697285 -0.16314,-0.130887 -25.389647,-4.971402 -26.166472,-5.020877 -0.698851,-0.04451 -1.175279,0.938154 -6.729279,13.879608 -3.287452,7.66013 -6.061204,14.19102 -6.163897,14.513088 -0.102694,0.32207 0.911248,4.389745 2.253202,9.03928 l 2.439912,8.453703 3.475541,3.70123 3.47554,3.70123 h 3.295416 c 1.812475,0 3.295413,-0.0668 3.295413,-0.14844 z"
     id="path1433" />
  <path
     style="fill:#08a8b5;fill-opacity:1;stroke-width:0.316534"
     d="m 124.86364,118.77495 c 3.20281,-3.74302 7.0571,-8.08777 8.56508,-9.65501 l 2.74178,-2.84951 -9.29221,-12.5024 c -5.11072,-6.87632 -9.61999,-12.678732 -10.02061,-12.894247 -0.40062,-0.215516 -4.34606,-1.266562 -8.76765,-2.335656 l -8.03925,-1.943809 -4.70446,1.052819 c -2.587456,0.579048 -4.81674,1.131553 -4.95397,1.227785 -0.382842,0.268469 -3.539905,5.505886 -3.402013,5.643778 0.06675,0.06675 2.62575,-0.192785 5.686669,-0.576735 l 5.565309,-0.698094 5.619865,1.964554 5.61988,1.964555 4.27321,6.956608 c 2.35027,3.826131 4.75369,7.811552 5.34095,8.856492 l 1.06773,1.89989 -2.64415,6.03405 c -1.45428,3.31874 -2.78941,6.23021 -2.96694,6.46994 -0.20041,0.27062 -1.76292,0.62326 -4.1212,0.93009 -2.08913,0.27182 -3.87731,0.5922 -3.97375,0.71196 -2.92579,3.6333 -3.84612,4.84549 -3.7457,4.93361 0.0675,0.0592 3.46998,0.74681 7.56118,1.52807 l 7.43856,1.42047 0.6642,-0.66686 c 0.36531,-0.36678 3.28468,-3.72934 6.48749,-7.47235 z"
     id="path1431" />
  <path
     style="fill:#08a8b5;fill-opacity:1;stroke-width:0.316534"
     d="m 80.044369,125.1151 15.51018,-1.88005 6.191291,-6.40276 6.1913,-6.40276 1.49015,-4.85888 1.49016,-4.85889 -1.63124,-3.025931 -1.63124,-3.02594 -2.23881,5.331178 -2.23882,5.331173 -4.614189,3.99006 -4.614194,3.99006 -9.519661,0.34669 c -5.235816,0.19068 -9.931193,0.2375 -10.434173,0.10404 -1.3412,-0.35586 -9.048272,-10.93306 -8.664439,-11.89109 0.14427,-0.36009 0.840104,-2.059671 1.546298,-3.776841 l 1.283987,-3.12214 -1.180322,-2.970471 c -0.649177,-1.633762 -1.251541,-2.961097 -1.338588,-2.949636 -0.366819,0.0483 -9.812563,11.389088 -9.812563,11.781198 0,0.23646 1.476987,4.69263 3.282194,9.90259 1.805208,5.20996 3.678423,11.00388 4.162702,12.87539 0.484281,1.87151 0.965847,3.40057 1.070152,3.39791 0.104304,-0.003 7.169226,-0.85087 15.699825,-1.8849 z"
     id="path1429" />
  <path
     style="opacity:0.440437;fill:#3eb1bc;stroke-width:0.316534"
     d="m 125.70919,95.272269 c -2.61641,-2.901627 -5.69889,-7.124953 -7.95612,-10.900757 -0.82077,-1.372939 -1.11544,-2.179757 -0.98537,-2.697983 0.1818,-0.724357 0.0225,-0.779548 -7.8742,-2.727763 -4.43287,-1.093645 -8.32223,-2.008217 -8.64302,-2.032381 -0.3208,-0.02415 -2.5057,0.375441 -4.855341,0.888018 l -4.27207,0.931953 4.114946,0.254224 c 3.929213,0.24275 4.443546,0.360121 11.395235,2.600393 l 7.28029,2.346171 7.11938,7.133035 c 3.91566,3.92317 7.16372,7.13304 7.2179,7.13304 0.0542,0 -1.08955,-1.31758 -2.54163,-2.92795 z"
     id="path1349" />
  <path
     style="fill:#09dae9;fill-opacity:1;stroke-width:0.316534"
     d="M 80.158578,103.2149 78.16833,99.624619 78.053485,92.502598 77.93864,85.380576 83.685476,77.308951 c 3.160759,-4.439393 5.918529,-8.249523 6.128379,-8.466956 0.368037,-0.381332 13.702875,-2.03486 14.200275,-1.760843 0.12633,0.06959 1.31672,1.544675 2.64532,3.27796 2.07569,2.707944 2.54449,3.151428 3.33132,3.151428 1.15197,0 1.16062,0.199853 -0.28757,-6.639101 l -1.17128,-5.531231 -12.502835,-3.565699 c -6.876562,-1.961135 -12.593653,-3.567243 -12.704645,-3.56913 -0.110993,-0.0019 -2.999853,6.521835 -6.419692,14.49716 l -6.217886,14.500591 2.463013,8.507421 2.463014,8.507419 3.165343,3.39294 c 1.740938,1.86612 3.211525,3.34824 3.267969,3.2936 0.05644,-0.0546 -0.792988,-1.71496 -1.887623,-3.68961 z"
     id="path1361" />
  <path
     style="opacity:0.3;fill:#ffffff;fill-opacity:1;stroke-width:0.316534"
     d="m 80.813661,104.61004 c -2.424966,-4.33511 -2.757843,-5.060481 -2.941534,-6.409821 -0.10665,-0.78343 -0.643312,-4.201996 -1.192581,-7.596828 L 75.680874,84.430973 81.61159,73.668807 c 3.261896,-5.919191 6.024186,-10.853116 6.138426,-10.964279 0.114241,-0.111161 4.552143,-0.449118 9.862006,-0.751016 5.309858,-0.301895 9.692218,-0.581227 9.738568,-0.620736 0.0464,-0.03951 -5.36984,-1.631383 -12.035974,-3.537499 L 83.194373,54.329616 77.069456,68.634725 c -3.368706,7.867811 -6.027607,14.462565 -5.908669,14.655012 0.118937,0.192443 0.457116,0.352081 0.751506,0.354746 0.402229,0.0036 0.433196,0.06959 0.124604,0.265341 -0.330234,0.209483 -0.319352,0.336271 0.05556,0.647421 0.387318,0.321447 5.818635,16.226715 6.027845,17.652165 0.06562,0.44707 3.238361,4.2207 3.548628,4.2207 0.08956,0 -0.295314,-0.81903 -0.855273,-1.82007 z"
     id="path1347" />
  <path
     style="fill:#09dae9;fill-opacity:1;stroke-width:0.316534"
     d="m 116.71646,122.49422 c -0.14735,-0.9223 0.31245,-1.70931 4.44442,-7.60718 2.53482,-3.61814 4.86117,-6.92541 5.16967,-7.34947 0.54019,-0.74258 0.70692,-0.77222 4.51757,-0.80323 2.17618,-0.0177 4.20368,-0.13008 4.50557,-0.24972 0.46189,-0.18304 0.24362,-0.56834 -1.37709,-2.43089 -2.00164,-2.30032 -4.24406,-5.410591 -4.64031,-6.436181 -0.12601,-0.32615 -2.91718,-4.232003 -6.20261,-8.679691 l -5.97351,-8.086701 -8.60188,-2.097236 -8.601873,-2.097236 -4.258405,0.966309 c -6.126635,1.390251 -6.228869,1.538927 -1.075258,1.56374 l 4.449286,0.02143 6.26792,3.392893 c 3.96871,2.148303 6.3597,3.628727 6.51812,4.035813 0.1376,0.353603 2.09282,4.652802 4.34491,9.553769 l 4.09473,8.910851 -2.80762,6.27103 c -1.54418,3.44907 -2.96194,6.36641 -3.15056,6.48299 -0.18862,0.11657 -1.92848,0.40042 -3.86635,0.63078 -2.96101,0.35198 -3.64328,0.53866 -4.27446,1.16955 -1.29474,1.29414 -1.11295,1.34433 7.81314,2.15708 1.71497,0.15615 2.0468,0.28997 2.34569,0.94596 0.46776,1.02664 0.55493,0.96236 0.3589,-0.26465 z"
     id="path1359" />
  <path
     style="opacity:0.3;fill:#ffffff;fill-opacity:1;stroke-width:0.316534"
     d="m 121.41862,114.19491 c 4.88894,-7.04367 5.20866,-7.42935 6.16634,-7.43856 0.55553,-0.005 1.09809,-0.15215 1.20569,-0.32624 0.10938,-0.17699 -0.13482,-0.31654 -0.55389,-0.31654 -0.41223,0 -0.97212,-0.17805 -1.24419,-0.39566 -0.53674,-0.42932 -5.5837,-6.721931 -8.75868,-10.920441 -2.09337,-2.768197 -3.07395,-3.654626 -1.22555,-1.107867 5.41435,7.459998 8.76595,12.222228 8.66964,12.318538 -0.0636,0.0636 -1.09697,-0.09 -2.29634,-0.34144 -1.19937,-0.25141 -2.18875,-0.43176 -2.19862,-0.40078 -0.01,0.031 -0.54285,0.83974 -1.1844,1.79726 -0.64154,0.95751 -2.10573,3.79845 -3.25376,6.31318 -1.71333,3.75303 -2.05201,4.76045 -1.89027,5.62262 0.22308,1.18907 0.12657,1.2601 -2.25464,1.65965 -1.27152,0.21335 -1.35531,0.26399 -0.4878,0.29482 0.61013,0.0217 0.96574,0.16939 0.85179,0.35377 -0.1214,0.19642 0.46731,0.31653 1.55138,0.31653 h 1.74701 z"
     id="path1338" />
  <path
     id="path1355"
     style="fill:#09dae9;fill-opacity:1;stroke-width:0.316534"
     d="m 67.183594,93.032377 c -0.10973,-0.03042 -2.094623,1.655022 -4.410156,3.744142 -2.315531,2.08913 -4.410111,3.949011 -4.65625,4.132811 -0.375921,0.28071 0.01955,2.15375 2.474609,11.71094 1.607475,6.25767 3.068784,11.98275 3.248047,12.72265 0.179263,0.7399 0.438251,1.34571 0.574218,1.34571 0.135967,0 0.906893,-0.92636 1.714844,-2.0586 0.80795,-1.13224 1.776364,-2.13627 2.152344,-2.23046 0.375979,-0.0942 4.814559,-0.0229 9.863281,0.1582 10.122561,0.36322 17.251953,0.42818 17.251953,0.15625 0,-0.097 -0.154969,-0.78934 -0.34375,-1.53906 l -0.34375,-1.36329 1.847657,-1.70507 c 4.064689,-3.75234 7.688809,-7.36394 7.539059,-7.51368 -0.0871,-0.0871 0.16334,-0.50925 0.55664,-0.9375 0.68669,-0.74771 0.68748,-0.76434 0.0469,-0.43164 -0.36688,0.19056 -2.85639,1.70418 -5.533204,3.36524 -2.676807,1.66106 -5.154712,3.02665 -5.50586,3.0332 -0.351144,0.007 -5.093605,-0.38145 -10.539062,-0.86133 l -9.900391,-0.87304 -4.138672,-5.68946 -4.140625,-5.68945 1.509766,-3.718751 c 1.276773,-3.14684 1.464719,-3.87193 1.220703,-4.710938 -0.158619,-0.545382 -0.378551,-1.016466 -0.488281,-1.046874 z m 31.710937,21.798833 c 0.08416,0.0348 -0.538725,0.7834 -1.599609,1.90625 -1.305704,1.38196 -2.515359,2.53244 -2.689453,2.55664 -0.891161,0.12417 -11.183161,-1.61824 -11.029297,-1.86719 0.09865,-0.15964 -0.228044,-0.24761 -0.726563,-0.19531 -0.498522,0.0523 -1.054334,0.004 -1.234375,-0.10743 -0.180042,-0.11127 -1.216787,-0.3027 -2.304687,-0.42578 -1.0879,-0.12308 -1.909662,-0.2915 -1.826172,-0.375 0.08349,-0.0835 2.972152,0.0812 6.419922,0.36719 3.447774,0.28596 7.228838,0.55154 8.402344,0.58984 1.17351,0.0383 2.138278,0.21262 2.142578,0.38672 0.0043,0.17409 0.14569,0.10294 0.314453,-0.1582 0.168764,-0.2611 0.308047,-0.36159 0.310547,-0.22266 0.0044,0.22979 1.040198,-0.43974 3.646484,-2.36132 0.09793,-0.0722 0.154406,-0.1018 0.173828,-0.0937 z" />
  <path
     id="path1336"
     style="opacity:0.3;fill:#ffffff;fill-opacity:1;stroke-width:0.316534"
     d="m 66.179688,94.089017 c -0.20423,-0.08941 -1.578474,1.136162 -4.453126,3.890622 -2.882069,2.761581 -3.7159,3.740691 -3.582031,4.205081 0.09598,0.33294 1.348274,5.06082 2.783203,10.50586 1.606355,6.09552 2.708554,9.74487 2.869141,9.49609 0.147493,-0.22849 0.18245,0.0766 0.07813,0.70313 -0.127541,0.76595 -0.0903,0.97239 0.123047,0.66992 0.433506,-0.61461 0.82226,0.67368 0.544922,1.80664 l -0.208985,0.84766 0.734375,-0.95117 c 0.403065,-0.52256 1.231054,-1.48402 1.841797,-2.13672 l 1.111328,-1.18555 7.435547,0.30859 c 10.038882,0.41884 10.728622,0.3582 3.638672,-0.32421 -8.098185,-0.77946 -9.337891,-0.93975 -9.337891,-1.21094 0,-0.12744 0.989137,-0.98434 2.199219,-1.9043 2.347428,-1.7846 3.317446,-2.72173 2.490235,-2.4043 -0.483671,0.1856 -2.52321,-2.6899 -2.595704,-3.66015 -0.0202,-0.27009 -1.598816,-2.65203 -3.507812,-5.29297 -3.463898,-4.79202 -3.473761,-4.80345 -4.90625,-4.99414 -2.336722,-0.31105 -2.327629,-0.28373 -0.798828,-2.470703 0.781836,-1.118418 1.419922,-2.128288 1.419922,-2.244148 0,-0.11585 0.583774,-1.071 1.296875,-2.12109 0.647192,-0.95303 0.946756,-1.479553 0.824219,-1.533202 z" />
  <path
     style="opacity:0.440437;fill:#3eb1bc;stroke-width:0.316534"
     d="m 97.295488,116.73709 c 1.305704,-1.38196 1.946686,-2.19759 1.424404,-1.81252 -2.606286,1.92158 -3.640581,2.59183 -3.64499,2.36204 -0.0025,-0.13893 -0.142925,-0.0389 -0.311689,0.2222 -0.168763,0.26114 -0.310352,0.33236 -0.314644,0.15827 -0.0043,-0.1741 -0.967943,-0.34788 -2.141453,-0.38619 -1.173506,-0.0383 -4.954553,-0.30361 -8.402327,-0.58957 -3.44777,-0.28595 -6.336988,-0.4516 -6.420483,-0.36811 -0.08349,0.0835 0.738294,0.25252 1.826194,0.3756 1.0879,0.12308 2.125306,0.31482 2.305348,0.42609 0.180041,0.11127 0.735227,0.15953 1.233749,0.10724 0.498519,-0.0523 0.825689,0.0355 0.727038,0.19514 -0.153864,0.24895 10.13715,1.99074 11.028311,1.86657 0.174094,-0.0242 1.384838,-1.1748 2.690542,-2.55676 z"
     id="path1340" />
</svg>
