<?xml version="1.0" encoding="UTF-8" standalone="no"?>
<svg
   width="192"
   height="192"
   version="1"
   id="svg14"
   sodipodi:docname="games_pop_it.svg"
   inkscape:version="1.1.1 (1:1.1+202109281949+c3084ef5ed)"
   xmlns:inkscape="http://www.inkscape.org/namespaces/inkscape"
   xmlns:sodipodi="http://sodipodi.sourceforge.net/DTD/sodipodi-0.dtd"
   xmlns="http://www.w3.org/2000/svg"
   xmlns:svg="http://www.w3.org/2000/svg"
   xmlns:rdf="http://www.w3.org/1999/02/22-rdf-syntax-ns#"
   xmlns:cc="http://creativecommons.org/ns#"
   xmlns:dc="http://purl.org/dc/elements/1.1/">
  <metadata
     id="metadata20">
    <rdf:RDF>
      <cc:Work
         rdf:about="">
        <dc:format>image/svg+xml</dc:format>
        <dc:type
           rdf:resource="http://purl.org/dc/dcmitype/StillImage" />
      </cc:Work>
    </rdf:RDF>
  </metadata>
  <defs
     id="defs18">
    <filter
       inkscape:collect="always"
       style="color-interpolation-filters:sRGB"
       id="filter124861"
       x="-0.048000001"
       y="-0.048000001"
       width="1.096"
       height="1.096">
      <feGaussianBlur
         inkscape:collect="always"
         stdDeviation="3.2"
         id="feGaussianBlur124863" />
    </filter>
    <filter
       inkscape:collect="always"
       style="color-interpolation-filters:sRGB"
       id="filter125093"
       x="-0.047064935"
       y="-0.048972973"
       width="1.0941299"
       height="1.0979459">
      <feGaussianBlur
         inkscape:collect="always"
         stdDeviation="3.02"
         id="feGaussianBlur125095" />
    </filter>
  </defs>
  <sodipodi:namedview
     pagecolor="#ffffff"
     bordercolor="#666666"
     borderopacity="1"
     objecttolerance="10"
     gridtolerance="10"
     guidetolerance="10"
     inkscape:pageopacity="0"
     inkscape:pageshadow="2"
     inkscape:window-width="1920"
     inkscape:window-height="1016"
     id="namedview16"
     showgrid="false"
     inkscape:zoom="1"
     inkscape:cx="55.5"
     inkscape:cy="64.5"
     inkscape:window-x="0"
     inkscape:window-y="32"
     inkscape:window-maximized="1"
     inkscape:current-layer="svg14"
     inkscape:pagecheckerboard="0"
     inkscape:snap-bbox="true"
     inkscape:snap-bbox-midpoints="true"
     inkscape:snap-global="true">
    <inkscape:grid
       type="xygrid"
       id="grid5193" />
  </sodipodi:namedview>
  <rect
     style="opacity:0.2;fill:#000000;fill-opacity:1;stroke-width:4;filter:url(#filter124861)"
     width="160"
     height="160"
     x="16"
     y="20"
     rx="30"
     ry="30"
     id="rect124823" />
  <rect
     style="fill:#565656;fill-opacity:1;stroke-width:3.9875"
     width="159.5"
     height="159.5"
     x="16.25"
     y="16.25"
     rx="29.90625"
     ry="29.90625"
     id="rect124569" />
  <g
     id="g14210">
    <path
       id="path9495"
       style="opacity:1;fill:#f44336;fill-opacity:1;stroke-width:1.46645;stroke-linecap:round;stroke-linejoin:round;stroke-miterlimit:10"
       d="M 46,16 C 30.393027,16 17.64668,27.799299 16.150391,43 H 175.84961 C 174.35332,27.799299 161.60697,16 146,16 Z" />
    <path
       id="path4226"
       style="opacity:1;fill:#bf40d5;fill-opacity:1;stroke-width:1.46645;stroke-linecap:round;stroke-linejoin:round;stroke-miterlimit:10"
       d="M 16.150391,149 C 17.64668,164.2007 30.393027,176 46,176 h 100 c 15.60697,0 28.35332,-11.7993 29.84961,-27 z" />
    <path
       id="path1255"
       style="opacity:1;fill:#419544;fill-opacity:1;stroke-width:1.46645;stroke-linecap:round;stroke-linejoin:round;stroke-miterlimit:10"
       d="m 16,122 v 24 c 0,1.01303 0.05327,2.01334 0.150391,3 H 175.84961 C 175.94673,148.01334 176,147.01303 176,146 v -24 z" />
    <path
       id="path1275"
       style="opacity:1;fill:#03a9f4;fill-opacity:1;stroke-width:1.43904;stroke-linecap:round;stroke-linejoin:round;stroke-miterlimit:10"
       d="m 16,96 v 26 H 176 V 96 Z" />
    <path
       id="path1297"
       style="opacity:1;fill:#ff9800;fill-opacity:1;stroke-width:1.46645;stroke-linecap:round;stroke-linejoin:round;stroke-miterlimit:10"
       d="M 16.150391,43 C 16.053269,43.986657 16,44.986973 16,46 V 70 H 176 V 46 c 0,-1.013027 -0.0533,-2.013343 -0.15039,-3 z" />
    <path
       id="path1299"
       style="opacity:1;fill:#ffeb3b;fill-opacity:1;stroke-width:1.43904;stroke-linecap:round;stroke-linejoin:round;stroke-miterlimit:10"
       d="M 16,70 V 96 H 176 V 70 Z" />
  </g>
  <path
     style="fill:#38adfa"
     d="m 688.80525,256.99648 c -0.33229,-0.33229 -1.1948,-0.36781 -1.91667,-0.0789 -0.79773,0.31922 -0.56078,0.55618 0.60417,0.60416 1.05416,0.0434 1.64479,-0.19293 1.3125,-0.52522 z"
     id="path1063" />
  <circle
     style="opacity:1;fill:#deaa00;fill-opacity:1;stroke-width:1.99103;stroke-linecap:round;stroke-linejoin:round;stroke-miterlimit:10"
     id="path2069"
     cx="96"
     cy="83"
     r="10" />
  <circle
     style="opacity:1;fill:#deaa00;fill-opacity:1;stroke-width:1.99103;stroke-linecap:round;stroke-linejoin:round;stroke-miterlimit:10"
     id="circle2169"
     cx="119"
     cy="83"
     r="10" />
  <circle
     style="opacity:1;fill:#deaa00;fill-opacity:1;stroke-width:1.99103;stroke-linecap:round;stroke-linejoin:round;stroke-miterlimit:10"
     id="circle2377"
     cx="73"
     cy="83"
     r="10" />
  <circle
     style="opacity:1;fill:#deaa00;fill-opacity:1;stroke-width:1.99103;stroke-linecap:round;stroke-linejoin:round;stroke-miterlimit:10"
     id="circle2461"
     cx="50"
     cy="83"
     r="10" />
  <circle
     style="opacity:1;fill:#deaa00;fill-opacity:1;stroke-width:1.99103;stroke-linecap:round;stroke-linejoin:round;stroke-miterlimit:10"
     id="circle2465"
     cx="27"
     cy="83"
     r="10" />
  <circle
     style="opacity:1;fill:#deaa00;fill-opacity:1;stroke-width:1.99103;stroke-linecap:round;stroke-linejoin:round;stroke-miterlimit:10"
     id="circle2547"
     cx="165"
     cy="83"
     r="10" />
  <circle
     style="opacity:1;fill:#deaa00;fill-opacity:1;stroke-width:1.99103;stroke-linecap:round;stroke-linejoin:round;stroke-miterlimit:10"
     id="circle2551"
     cx="142"
     cy="83"
     r="10" />
  <circle
     style="opacity:1;fill:#0387e0;fill-opacity:1;stroke-width:1.99103;stroke-linecap:round;stroke-linejoin:round;stroke-miterlimit:10"
     id="circle2715"
     cx="84"
     cy="109"
     r="10" />
  <circle
     style="opacity:1;fill:#0387e0;fill-opacity:1;stroke-width:1.99103;stroke-linecap:round;stroke-linejoin:round;stroke-miterlimit:10"
     id="circle2717"
     cx="107"
     cy="109"
     r="10" />
  <circle
     style="opacity:1;fill:#0387e0;fill-opacity:1;stroke-width:1.99103;stroke-linecap:round;stroke-linejoin:round;stroke-miterlimit:10"
     id="circle2719"
     cx="61"
     cy="109"
     r="10" />
  <circle
     style="opacity:1;fill:#0387e0;fill-opacity:1;stroke-width:1.99103;stroke-linecap:round;stroke-linejoin:round;stroke-miterlimit:10"
     id="circle2721"
     cx="38"
     cy="109"
     r="10" />
  <circle
     style="opacity:1;fill:#0387e0;fill-opacity:1;stroke-width:1.99103;stroke-linecap:round;stroke-linejoin:round;stroke-miterlimit:10"
     id="circle2725"
     cx="153"
     cy="109"
     r="10" />
  <circle
     style="opacity:1;fill:#0387e0;fill-opacity:1;stroke-width:1.99103;stroke-linecap:round;stroke-linejoin:round;stroke-miterlimit:10"
     id="circle2727"
     cx="130"
     cy="109"
     r="10" />
  <circle
     style="opacity:1;fill:#387f47;fill-opacity:1;stroke-width:1.99103;stroke-linecap:round;stroke-linejoin:round;stroke-miterlimit:10"
     id="circle2926"
     cx="96"
     cy="136"
     r="10" />
  <circle
     style="opacity:1;fill:#387f47;fill-opacity:1;stroke-width:1.99103;stroke-linecap:round;stroke-linejoin:round;stroke-miterlimit:10"
     id="circle2928"
     cx="119"
     cy="136"
     r="10" />
  <circle
     style="opacity:1;fill:#387f47;fill-opacity:1;stroke-width:1.99103;stroke-linecap:round;stroke-linejoin:round;stroke-miterlimit:10"
     id="circle2930"
     cx="73"
     cy="136"
     r="10" />
  <circle
     style="opacity:1;fill:#387f47;fill-opacity:1;stroke-width:1.99103;stroke-linecap:round;stroke-linejoin:round;stroke-miterlimit:10"
     id="circle2932"
     cx="50"
     cy="136"
     r="10" />
  <circle
     style="opacity:1;fill:#387f47;fill-opacity:1;stroke-width:1.99103;stroke-linecap:round;stroke-linejoin:round;stroke-miterlimit:10"
     id="circle2934"
     cx="27"
     cy="136"
     r="10" />
  <circle
     style="opacity:1;fill:#387f47;fill-opacity:1;stroke-width:1.99103;stroke-linecap:round;stroke-linejoin:round;stroke-miterlimit:10"
     id="circle2936"
     cx="165"
     cy="136"
     r="10" />
  <circle
     style="opacity:1;fill:#387f47;fill-opacity:1;stroke-width:1.99103;stroke-linecap:round;stroke-linejoin:round;stroke-miterlimit:10"
     id="circle2938"
     cx="142"
     cy="136"
     r="10" />
  <circle
     style="opacity:1;fill:#9e2abf;fill-opacity:1;stroke-width:1.99103;stroke-linecap:round;stroke-linejoin:round;stroke-miterlimit:10"
     id="circle2940"
     cx="84"
     cy="162"
     r="10" />
  <circle
     style="opacity:1;fill:#9e2abf;fill-opacity:1;stroke-width:1.99103;stroke-linecap:round;stroke-linejoin:round;stroke-miterlimit:10"
     id="circle2942"
     cx="107"
     cy="162"
     r="10" />
  <circle
     style="opacity:1;fill:#9e2abf;fill-opacity:1;stroke-width:1.99103;stroke-linecap:round;stroke-linejoin:round;stroke-miterlimit:10"
     id="circle2944"
     cx="61"
     cy="162"
     r="10" />
  <circle
     style="opacity:1;fill:#9e2abf;fill-opacity:1;stroke-width:1.99103;stroke-linecap:round;stroke-linejoin:round;stroke-miterlimit:10"
     id="circle2946"
     cx="38"
     cy="162"
     r="10" />
  <circle
     style="opacity:1;fill:#9e2abf;fill-opacity:1;stroke-width:1.99103;stroke-linecap:round;stroke-linejoin:round;stroke-miterlimit:10"
     id="circle2950"
     cx="153"
     cy="162"
     r="10" />
  <circle
     style="opacity:1;fill:#9e2abf;fill-opacity:1;stroke-width:1.99103;stroke-linecap:round;stroke-linejoin:round;stroke-miterlimit:10"
     id="circle2952"
     cx="130"
     cy="162"
     r="10" />
  <circle
     style="opacity:1;fill:#e62b1e;fill-opacity:1;stroke-width:1.99103;stroke-linecap:round;stroke-linejoin:round;stroke-miterlimit:10"
     id="circle2958"
     cx="96"
     cy="30"
     r="10" />
  <circle
     style="opacity:1;fill:#e62b1e;fill-opacity:1;stroke-width:1.99103;stroke-linecap:round;stroke-linejoin:round;stroke-miterlimit:10"
     id="circle2960"
     cx="119"
     cy="30"
     r="10" />
  <circle
     style="opacity:1;fill:#e62b1e;fill-opacity:1;stroke-width:1.99103;stroke-linecap:round;stroke-linejoin:round;stroke-miterlimit:10"
     id="circle2962"
     cx="73"
     cy="30"
     r="10" />
  <circle
     style="opacity:1;fill:#e62b1e;fill-opacity:1;stroke-width:1.99103;stroke-linecap:round;stroke-linejoin:round;stroke-miterlimit:10"
     id="circle2964"
     cx="50"
     cy="30"
     r="10" />
  <circle
     style="opacity:1;fill:#e62b1e;fill-opacity:1;stroke-width:1.99103;stroke-linecap:round;stroke-linejoin:round;stroke-miterlimit:10"
     id="circle2970"
     cx="142"
     cy="30"
     r="10" />
  <circle
     style="opacity:1;fill:#db7200;fill-opacity:1;stroke-width:1.99103;stroke-linecap:round;stroke-linejoin:round;stroke-miterlimit:10"
     id="circle2972"
     cx="84"
     cy="56"
     r="10" />
  <circle
     style="opacity:1;fill:#db7200;fill-opacity:1;stroke-width:1.99103;stroke-linecap:round;stroke-linejoin:round;stroke-miterlimit:10"
     id="circle2974"
     cx="107"
     cy="56"
     r="10" />
  <circle
     style="opacity:1;fill:#db7200;fill-opacity:1;stroke-width:1.99103;stroke-linecap:round;stroke-linejoin:round;stroke-miterlimit:10"
     id="circle2976"
     cx="61"
     cy="56"
     r="10" />
  <circle
     style="opacity:1;fill:#db7200;fill-opacity:1;stroke-width:1.99103;stroke-linecap:round;stroke-linejoin:round;stroke-miterlimit:10"
     id="circle2978"
     cx="38"
     cy="56"
     r="10" />
  <circle
     style="opacity:1;fill:#db7200;fill-opacity:1;stroke-width:1.99103;stroke-linecap:round;stroke-linejoin:round;stroke-miterlimit:10"
     id="circle2982"
     cx="153"
     cy="56"
     r="10" />
  <circle
     style="opacity:1;fill:#db7200;fill-opacity:1;stroke-width:1.99103;stroke-linecap:round;stroke-linejoin:round;stroke-miterlimit:10"
     id="circle2984"
     cx="130"
     cy="56"
     r="10" />
  <path
     id="rect4"
     style="fill:#ffffff;fill-opacity:1;stroke-width:4;opacity:0.2"
     d="M 46 16 C 29.38 16 16 29.38 16 46 L 16 47 C 16 30.38 29.38 17 46 17 L 146 17 C 162.62 17 176 30.38 176 47 L 176 46 C 176 29.38 162.62 16 146 16 L 46 16 z " />
  <path
     id="circle124943"
     style="opacity:0.2;fill:#000000;fill-opacity:1;stroke-width:2.55571;stroke-linecap:round;stroke-linejoin:round;stroke-miterlimit:10;filter:url(#filter125093)"
     d="m 50,24 a 8,8 0 0 0 -8,8 8,8 0 0 0 8,8 8,8 0 0 0 8,-8 8,8 0 0 0 -8,-8 z m 23,0 a 8,8 0 0 0 -8,8 8,8 0 0 0 8,8 8,8 0 0 0 8,-8 8,8 0 0 0 -8,-8 z m 23,0 a 8,8 0 0 0 -8,8 8,8 0 0 0 8,8 8,8 0 0 0 8,-8 8,8 0 0 0 -8,-8 z m 23,0 a 8,8 0 0 0 -8,8 8,8 0 0 0 8,8 8,8 0 0 0 8,-8 8,8 0 0 0 -8,-8 z m 23,0 a 8,8 0 0 0 -8,8 8,8 0 0 0 8,8 8,8 0 0 0 8,-8 8,8 0 0 0 -8,-8 z M 38,50 a 8,8 0 0 0 -8,8 8,8 0 0 0 8,8 8,8 0 0 0 8,-8 8,8 0 0 0 -8,-8 z m 23,0 a 8,8 0 0 0 -8,8 8,8 0 0 0 8,8 8,8 0 0 0 8,-8 8,8 0 0 0 -8,-8 z m 23,0 a 8,8 0 0 0 -8,8 8,8 0 0 0 8,8 8,8 0 0 0 8,-8 8,8 0 0 0 -8,-8 z m 23,0 a 8,8 0 0 0 -8,8 8,8 0 0 0 8,8 8,8 0 0 0 8,-8 8,8 0 0 0 -8,-8 z m 23,0 a 8,8 0 0 0 -8,8 8,8 0 0 0 8,8 8,8 0 0 0 8,-8 8,8 0 0 0 -8,-8 z m 23,0 a 8,8 0 0 0 -8,8 8,8 0 0 0 8,8 8,8 0 0 0 8,-8 8,8 0 0 0 -8,-8 z M 27,77 a 8,8 0 0 0 -8,8 8,8 0 0 0 8,8 8,8 0 0 0 8,-8 8,8 0 0 0 -8,-8 z m 23,0 a 8,8 0 0 0 -8,8 8,8 0 0 0 8,8 8,8 0 0 0 8,-8 8,8 0 0 0 -8,-8 z m 23,0 a 8,8 0 0 0 -8,8 8,8 0 0 0 8,8 8,8 0 0 0 8,-8 8,8 0 0 0 -8,-8 z m 23,0 a 8,8 0 0 0 -8,8 8,8 0 0 0 8,8 8,8 0 0 0 8,-8 8,8 0 0 0 -8,-8 z m 23,0 a 8,8 0 0 0 -8,8 8,8 0 0 0 8,8 8,8 0 0 0 8,-8 8,8 0 0 0 -8,-8 z m 23,0 a 8,8 0 0 0 -8,8 8,8 0 0 0 8,8 8,8 0 0 0 8,-8 8,8 0 0 0 -8,-8 z m 23,0 a 8,8 0 0 0 -8,8 8,8 0 0 0 8,8 8,8 0 0 0 8,-8 8,8 0 0 0 -8,-8 z M 38,103 a 8,8 0 0 0 -8,8 8,8 0 0 0 8,8 8,8 0 0 0 8,-8 8,8 0 0 0 -8,-8 z m 23,0 a 8,8 0 0 0 -8,8 8,8 0 0 0 8,8 8,8 0 0 0 8,-8 8,8 0 0 0 -8,-8 z m 23,0 a 8,8 0 0 0 -8,8 8,8 0 0 0 8,8 8,8 0 0 0 8,-8 8,8 0 0 0 -8,-8 z m 23,0 a 8,8 0 0 0 -8,8 8,8 0 0 0 8,8 8,8 0 0 0 8,-8 8,8 0 0 0 -8,-8 z m 23,0 a 8,8 0 0 0 -8,8 8,8 0 0 0 8,8 8,8 0 0 0 8,-8 8,8 0 0 0 -8,-8 z m 23,0 a 8,8 0 0 0 -8,8 8,8 0 0 0 8,8 8,8 0 0 0 8,-8 8,8 0 0 0 -8,-8 z M 27,130 a 8,8 0 0 0 -8,8 8,8 0 0 0 8,8 8,8 0 0 0 8,-8 8,8 0 0 0 -8,-8 z m 23,0 a 8,8 0 0 0 -8,8 8,8 0 0 0 8,8 8,8 0 0 0 8,-8 8,8 0 0 0 -8,-8 z m 23,0 a 8,8 0 0 0 -8,8 8,8 0 0 0 8,8 8,8 0 0 0 8,-8 8,8 0 0 0 -8,-8 z m 23,0 a 8,8 0 0 0 -8,8 8,8 0 0 0 8,8 8,8 0 0 0 8,-8 8,8 0 0 0 -8,-8 z m 23,0 a 8,8 0 0 0 -8,8 8,8 0 0 0 8,8 8,8 0 0 0 8,-8 8,8 0 0 0 -8,-8 z m 23,0 a 8,8 0 0 0 -8,8 8,8 0 0 0 8,8 8,8 0 0 0 8,-8 8,8 0 0 0 -8,-8 z m 23,0 a 8,8 0 0 0 -8,8 8,8 0 0 0 8,8 8,8 0 0 0 8,-8 8,8 0 0 0 -8,-8 z M 38,156 a 8,8 0 0 0 -8,8 8,8 0 0 0 8,8 8,8 0 0 0 8,-8 8,8 0 0 0 -8,-8 z m 23,0 a 8,8 0 0 0 -8,8 8,8 0 0 0 8,8 8,8 0 0 0 8,-8 8,8 0 0 0 -8,-8 z m 23,0 a 8,8 0 0 0 -8,8 8,8 0 0 0 8,8 8,8 0 0 0 8,-8 8,8 0 0 0 -8,-8 z m 23,0 a 8,8 0 0 0 -8,8 8,8 0 0 0 8,8 8,8 0 0 0 8,-8 8,8 0 0 0 -8,-8 z m 23,0 a 8,8 0 0 0 -8,8 8,8 0 0 0 8,8 8,8 0 0 0 8,-8 8,8 0 0 0 -8,-8 z m 23,0 a 8,8 0 0 0 -8,8 8,8 0 0 0 8,8 8,8 0 0 0 8,-8 8,8 0 0 0 -8,-8 z" />
  <g
     id="g124941">
    <circle
       style="opacity:1;fill:#fff06c;fill-opacity:1;stroke-width:2.55571;stroke-linecap:round;stroke-linejoin:round;stroke-miterlimit:10"
       id="path14363"
       cx="96"
       cy="83"
       r="8" />
    <circle
       style="opacity:1;fill:#fff06c;fill-opacity:1;stroke-width:2.55571;stroke-linecap:round;stroke-linejoin:round;stroke-miterlimit:10"
       id="circle22354"
       cx="73"
       cy="83"
       r="8" />
    <circle
       style="opacity:1;fill:#fff06c;fill-opacity:1;stroke-width:2.55571;stroke-linecap:round;stroke-linejoin:round;stroke-miterlimit:10"
       id="circle22356"
       cx="50"
       cy="83"
       r="8" />
    <circle
       style="opacity:1;fill:#fff06c;fill-opacity:1;stroke-width:2.55571;stroke-linecap:round;stroke-linejoin:round;stroke-miterlimit:10"
       id="circle22358"
       cx="27"
       cy="83"
       r="8" />
    <circle
       style="opacity:1;fill:#fff06c;fill-opacity:1;stroke-width:2.55571;stroke-linecap:round;stroke-linejoin:round;stroke-miterlimit:10"
       id="circle22360"
       cx="142"
       cy="83"
       r="8" />
    <circle
       style="opacity:1;fill:#fff06c;fill-opacity:1;stroke-width:2.55571;stroke-linecap:round;stroke-linejoin:round;stroke-miterlimit:10"
       id="circle22362"
       cx="119"
       cy="83"
       r="8" />
    <circle
       style="opacity:1;fill:#fff06c;fill-opacity:1;stroke-width:2.55571;stroke-linecap:round;stroke-linejoin:round;stroke-miterlimit:10"
       id="circle22366"
       cx="165"
       cy="83"
       r="8" />
    <circle
       style="opacity:1;fill:#ffb446;fill-opacity:1;stroke-width:2.55571;stroke-linecap:round;stroke-linejoin:round;stroke-miterlimit:10"
       id="circle22448"
       cx="107"
       cy="56"
       r="8" />
    <circle
       style="opacity:1;fill:#ffb446;fill-opacity:1;stroke-width:2.55571;stroke-linecap:round;stroke-linejoin:round;stroke-miterlimit:10"
       id="circle22450"
       cx="84"
       cy="56"
       r="8" />
    <circle
       style="opacity:1;fill:#ffb446;fill-opacity:1;stroke-width:2.55571;stroke-linecap:round;stroke-linejoin:round;stroke-miterlimit:10"
       id="circle22452"
       cx="61"
       cy="56"
       r="8" />
    <circle
       style="opacity:1;fill:#ffb446;fill-opacity:1;stroke-width:2.55571;stroke-linecap:round;stroke-linejoin:round;stroke-miterlimit:10"
       id="circle22454"
       cx="38"
       cy="56"
       r="8" />
    <circle
       style="opacity:1;fill:#ffb446;fill-opacity:1;stroke-width:2.55571;stroke-linecap:round;stroke-linejoin:round;stroke-miterlimit:10"
       id="circle22456"
       cx="153"
       cy="56"
       r="8" />
    <circle
       style="opacity:1;fill:#ffb446;fill-opacity:1;stroke-width:2.55571;stroke-linecap:round;stroke-linejoin:round;stroke-miterlimit:10"
       id="circle22458"
       cx="130"
       cy="56"
       r="8" />
    <circle
       style="opacity:1;fill:#f66156;fill-opacity:1;stroke-width:2.55571;stroke-linecap:round;stroke-linejoin:round;stroke-miterlimit:10"
       id="circle30069"
       cx="119"
       cy="30"
       r="8" />
    <circle
       style="opacity:1;fill:#f66156;fill-opacity:1;stroke-width:2.55571;stroke-linecap:round;stroke-linejoin:round;stroke-miterlimit:10"
       id="circle30071"
       cx="96"
       cy="30"
       r="8" />
    <circle
       style="opacity:1;fill:#f66156;fill-opacity:1;stroke-width:2.55571;stroke-linecap:round;stroke-linejoin:round;stroke-miterlimit:10"
       id="circle30073"
       cx="73"
       cy="30"
       r="8" />
    <circle
       style="opacity:1;fill:#f66156;fill-opacity:1;stroke-width:2.55571;stroke-linecap:round;stroke-linejoin:round;stroke-miterlimit:10"
       id="circle30075"
       cx="50"
       cy="30"
       r="8" />
    <circle
       style="opacity:1;fill:#f66156;fill-opacity:1;stroke-width:2.55571;stroke-linecap:round;stroke-linejoin:round;stroke-miterlimit:10"
       id="circle30079"
       cx="142"
       cy="30"
       r="8" />
    <circle
       style="opacity:1;fill:#30bdfc;fill-opacity:1;stroke-width:2.55571;stroke-linecap:round;stroke-linejoin:round;stroke-miterlimit:10"
       id="circle39328"
       cx="107"
       cy="109"
       r="8" />
    <circle
       style="opacity:1;fill:#30bdfc;fill-opacity:1;stroke-width:2.55571;stroke-linecap:round;stroke-linejoin:round;stroke-miterlimit:10"
       id="circle39330"
       cx="84"
       cy="109"
       r="8" />
    <circle
       style="opacity:1;fill:#30bdfc;fill-opacity:1;stroke-width:2.55571;stroke-linecap:round;stroke-linejoin:round;stroke-miterlimit:10"
       id="circle39332"
       cx="61"
       cy="109"
       r="8" />
    <circle
       style="opacity:1;fill:#30bdfc;fill-opacity:1;stroke-width:2.55571;stroke-linecap:round;stroke-linejoin:round;stroke-miterlimit:10"
       id="circle39334"
       cx="38"
       cy="109"
       r="8" />
    <circle
       style="opacity:1;fill:#30bdfc;fill-opacity:1;stroke-width:2.55571;stroke-linecap:round;stroke-linejoin:round;stroke-miterlimit:10"
       id="circle39336"
       cx="153"
       cy="109"
       r="8" />
    <circle
       style="opacity:1;fill:#30bdfc;fill-opacity:1;stroke-width:2.55571;stroke-linecap:round;stroke-linejoin:round;stroke-miterlimit:10"
       id="circle39338"
       cx="130"
       cy="109"
       r="8" />
    <circle
       style="opacity:1;fill:#49aa4d;fill-opacity:1;stroke-width:2.55571;stroke-linecap:round;stroke-linejoin:round;stroke-miterlimit:10"
       id="circle48548"
       cx="96"
       cy="136"
       r="8" />
    <circle
       style="opacity:1;fill:#49aa4d;fill-opacity:1;stroke-width:2.55571;stroke-linecap:round;stroke-linejoin:round;stroke-miterlimit:10"
       id="circle48550"
       cx="73"
       cy="136"
       r="8" />
    <circle
       style="opacity:1;fill:#49aa4d;fill-opacity:1;stroke-width:2.55571;stroke-linecap:round;stroke-linejoin:round;stroke-miterlimit:10"
       id="circle48552"
       cx="50"
       cy="136"
       r="8" />
    <circle
       style="opacity:1;fill:#49aa4d;fill-opacity:1;stroke-width:2.55571;stroke-linecap:round;stroke-linejoin:round;stroke-miterlimit:10"
       id="circle48554"
       cx="27"
       cy="136"
       r="8" />
    <circle
       style="opacity:1;fill:#49aa4d;fill-opacity:1;stroke-width:2.55571;stroke-linecap:round;stroke-linejoin:round;stroke-miterlimit:10"
       id="circle48556"
       cx="142"
       cy="136"
       r="8" />
    <circle
       style="opacity:1;fill:#49aa4d;fill-opacity:1;stroke-width:2.55571;stroke-linecap:round;stroke-linejoin:round;stroke-miterlimit:10"
       id="circle48558"
       cx="119"
       cy="136"
       r="8" />
    <circle
       style="opacity:1;fill:#49aa4d;fill-opacity:1;stroke-width:2.55571;stroke-linecap:round;stroke-linejoin:round;stroke-miterlimit:10"
       id="circle48560"
       cx="165"
       cy="136"
       r="8" />
    <circle
       style="opacity:1;fill:#ca62dd;fill-opacity:1;stroke-width:2.55571;stroke-linecap:round;stroke-linejoin:round;stroke-miterlimit:10"
       id="circle55623"
       cx="107"
       cy="162"
       r="8" />
    <circle
       style="opacity:1;fill:#ca62dd;fill-opacity:1;stroke-width:2.55571;stroke-linecap:round;stroke-linejoin:round;stroke-miterlimit:10"
       id="circle55625"
       cx="84"
       cy="162"
       r="8" />
    <circle
       style="opacity:1;fill:#ca62dd;fill-opacity:1;stroke-width:2.55571;stroke-linecap:round;stroke-linejoin:round;stroke-miterlimit:10"
       id="circle55627"
       cx="61"
       cy="162"
       r="8" />
    <circle
       style="opacity:1;fill:#ca62dd;fill-opacity:1;stroke-width:2.55571;stroke-linecap:round;stroke-linejoin:round;stroke-miterlimit:10"
       id="circle55629"
       cx="38"
       cy="162"
       r="8" />
    <circle
       style="opacity:1;fill:#ca62dd;fill-opacity:1;stroke-width:2.55571;stroke-linecap:round;stroke-linejoin:round;stroke-miterlimit:10"
       id="circle55631"
       cx="153"
       cy="162"
       r="8" />
    <circle
       style="opacity:1;fill:#ca62dd;fill-opacity:1;stroke-width:2.55571;stroke-linecap:round;stroke-linejoin:round;stroke-miterlimit:10"
       id="circle55633"
       cx="130"
       cy="162"
       r="8" />
  </g>
</svg>
