<?xml version="1.0" encoding="UTF-8" standalone="no"?>
<svg
   width="192"
   height="192"
   version="1"
   id="svg10"
   sodipodi:docname="games_trine2.svg"
   inkscape:version="1.1-rc (1:1.1+rc+202105232036+f4db50c7c1)"
   xmlns:inkscape="http://www.inkscape.org/namespaces/inkscape"
   xmlns:sodipodi="http://sodipodi.sourceforge.net/DTD/sodipodi-0.dtd"
   xmlns="http://www.w3.org/2000/svg"
   xmlns:svg="http://www.w3.org/2000/svg">
  <defs
     id="defs14">
    <filter
       inkscape:collect="always"
       style="color-interpolation-filters:sRGB"
       id="filter841"
       x="-0.05066329"
       y="-0.045602732"
       width="1.1013266"
       height="1.0912055">
      <feGaussianBlur
         inkscape:collect="always"
         stdDeviation="3.0401822"
         id="feGaussianBlur843" />
    </filter>
  </defs>
  <sodipodi:namedview
     id="namedview12"
     pagecolor="#ffffff"
     bordercolor="#666666"
     borderopacity="1.0"
     inkscape:pageshadow="2"
     inkscape:pageopacity="0.0"
     inkscape:pagecheckerboard="0"
     showgrid="false"
     inkscape:zoom="2.31"
     inkscape:cx="24.025974"
     inkscape:cy="58.658009"
     inkscape:window-width="1920"
     inkscape:window-height="1019"
     inkscape:window-x="0"
     inkscape:window-y="34"
     inkscape:window-maximized="1"
     inkscape:current-layer="svg10" />
  <path
     style="opacity:0.2;stroke-width:4;filter:url(#filter841)"
     d="m 23.990968,18.999561 c 2.146987,4.430597 3.743534,8.523763 4,13.5 0.454312,5.631005 -1.31589,10.486764 -3.492187,15.914064 -1.796008,12.459712 3.187359,15.091728 15.468751,14.6875 3.092244,-0.20372 6.858184,-1.19186 9.4375,-3.578128 4.0888,-4.918036 2.513472,-8.017452 0.828124,-8.359372 -4.640888,-1.334856 -6.245959,3.837108 -1.921875,3.984372 0.857328,3.441172 -7.783344,5.200216 -9.585937,2.304688 -6.785357,-11.931328 13.265624,-25.230366 33.265624,-14.453124 4.213368,32.563792 5.31178,76.148829 2.375,114.546879 -3.378024,7.69716 -5.904296,10.01195 -14.375,13.45312 v 8 c 16,-4 40,-4 56.000002,-4 v -8 C 108.46552,165.6682 103.58854,159.3881 102.7019,152.48394 99.778192,114.06361 97.931572,82.999561 103.99097,46.999561 h 30.36719 c 3.60518,0.08004 8.71686,3.589868 9.63281,12 h 8 c -4.05948,-9.52324 -4,-28 -4,-28 -32,0 -77.000778,0.164134 -124.000002,-12 z M 141.8269,102.99956 c -2.26032,0.01 -4.51562,0.2324 -6.70312,0.625 -4.2292,0.75896 -9.65136,2.86504 -10.72656,7.02344 -0.9836,3.80408 -0.40625,12.35156 7.59375,12.35156 l 4.14062,0.0236 c -1.18707,-9.86668 8.19905,-15.97475 13.15625,-8.89079 11.49938,21.89865 -15.09865,41.07038 -29.29687,52.875 v 3.99219 c 0,0 26.648,-0.352 36,4 1.31592,-5.4388 14.30886,-12.16881 11.66406,-17.38281 -3.53784,-4.528 -10.92206,-2.43605 -11.66406,2.49219 -0.9794,2.83772 3.16907,4.18926 4.14843,2.16406 0.96212,-2.0252 1.54846,-4.00244 2.8125,-2.77344 0.74208,3.638 -3.10606,4.68874 -5.61718,5.83594 -8.124,2.64584 -17.50804,1.23103 -24.39844,-1.57813 16.2312,-16.1892 39.05696,-38.5366 28.07812,-53.71875 -5.5365,-5.157 -12.40652,-7.06854 -19.1875,-7.03906 z"
     id="path2" />
  <path
     style="fill:#fecd38;stroke-width:4"
     d="m 59.990968,168 c 8.470704,-3.44117 10.999064,-5.7588 14.377088,-13.45597 C 77.304836,116.14598 76.204336,72.563792 71.990968,40 c -20,-10.777242 -40.049715,2.520504 -33.26436,14.451832 1.802593,2.895528 10.445773,1.136604 9.588444,-2.304568 C 43.990968,52 45.593997,46.832876 50.234884,48.167732 c 1.685348,0.34192 3.26078,3.434496 -0.82802,8.352532 -2.579316,2.386268 -6.349644,3.381296 -9.441888,3.585004 C 27.683586,60.509496 22.706166,57.875744 24.502174,45.416032 26.678471,39.988734 28.44528,35.128901 27.990968,29.497896 27.734502,24.521659 26.137793,20.432997 23.990806,16.0024 70.990032,28.166534 115.99097,28 147.99097,28 c 0,0 -0.0611,18.47676 3.99835,28 h -7.99835 c -0.91595,-8.410132 -6.02667,-11.919972 -9.63185,-12 h -30.36815 c -6.059398,36 -4.210798,67.06744 -1.28709,105.48777 0.88664,6.90417 5.76164,13.18087 13.28709,14.51223 v 8 c -16.000002,0 -40.000002,0 -56.000002,4"
     id="path4" />
  <path
     style="fill:#fecd38;stroke-width:4"
     d="m 136.13434,120.02134 c -1.18707,-9.86652 8.1966,-15.96988 13.1538,-8.88592 11.49937,21.89864 -15.09735,41.06632 -29.29557,52.87094 L 119.99097,168 c 0,0 26.648,-0.35284 36,3.99916 1.31592,-5.4388 14.30632,-12.1684 11.66152,-17.3824 -3.53784,-4.528 -10.91952,-2.43551 -11.66152,2.49273 -0.9794,2.83772 3.16662,4.18578 4.14598,2.16058 0.96212,-2.0252 1.54874,-4.00003 2.81278,-2.77103 0.74208,3.638 -3.10208,4.688 -5.6132,5.8352 -8.124,2.64584 -17.5124,1.229 -24.4028,-1.58016 16.2312,-16.1892 39.05724,-38.53386 28.0784,-53.716 -7.382,-6.876 -17.1368,-7.9808 -25.8868,-6.4104 -4.2292,0.75896 -9.65543,2.86253 -10.73063,7.02093 C 123.4111,111.45269 123.99097,120 131.99097,120"
     id="path6" />
  <path
     id="path925"
     style="fill:#ffffff;stroke-width:4;opacity:0.2"
     d="M 23.990234 16.001953 C 24.17453 16.382271 24.328222 16.750888 24.503906 17.126953 C 71.316722 29.157042 116.10715 29 147.99023 29 C 147.99023 29 147.94612 46.247624 151.61133 56 L 151.99023 56 C 147.93078 46.47676 147.99023 28 147.99023 28 C 115.99023 28 70.98946 28.166087 23.990234 16.001953 z M 28.039062 31.945312 C 27.900456 36.574504 26.356536 40.791015 24.501953 45.416016 C 24.240893 47.227106 24.139221 48.807876 24.166016 50.224609 C 24.196473 49.065983 24.300776 47.81167 24.501953 46.416016 C 26.488796 41.461182 28.113386 36.972779 28.039062 31.945312 z M 48.642578 47.949219 C 46.533818 48.009897 45.461553 49.59698 45.886719 50.802734 C 46.214172 49.575973 47.77973 48.46194 50.234375 49.167969 C 51.024074 49.328181 51.767499 50.112118 51.9375 51.384766 C 52.118935 49.51488 51.212378 48.366384 50.234375 48.167969 C 49.654264 48.001112 49.122115 47.93542 48.642578 47.949219 z M 37.402344 50.119141 C 37.312205 51.871287 37.71684 53.675681 38.726562 55.451172 C 40.529156 58.3467 49.171782 56.587656 48.314453 53.146484 C 48.30025 53.146001 48.289466 53.14317 48.275391 53.142578 C 47.451487 55.893734 40.344451 57.050006 38.726562 54.451172 C 37.908034 53.011877 37.487077 51.553526 37.402344 50.119141 z M 99.982422 96.017578 C 100.01697 113.35098 101.21787 130.97052 102.70312 150.48828 C 103.58977 157.39245 108.46478 163.66864 115.99023 165 L 115.99023 164 C 108.46478 162.66864 103.58976 156.39245 102.70312 149.48828 C 101.24643 130.34583 100.06024 113.02908 99.982422 96.017578 z M 141.82422 100 C 139.56389 100.00983 137.3125 100.23435 135.125 100.62695 C 130.8958 101.38591 125.46973 103.49004 124.39453 107.64844 C 124.13301 108.65986 123.99881 110.0111 124.06836 111.44336 C 124.09161 110.39974 124.19623 109.41537 124.39453 108.64844 C 125.46973 104.49004 130.8958 102.38591 135.125 101.62695 C 137.3125 101.23435 139.56389 101.01 141.82422 101 C 148.60519 100.97052 155.47522 102.88011 161.01172 108.03711 C 162.93144 110.69181 163.79862 113.56832 163.86719 116.58984 C 163.9876 113.20123 163.14237 109.9835 161.01172 107.03711 C 155.47522 101.88011 148.60519 99.970525 141.82422 100 z M 76.011719 110.4707 C 75.986857 125.32393 75.457305 140.29176 74.367188 154.54492 C 70.989163 162.24209 68.460938 164.55883 59.990234 168 L 59.990234 169 C 68.460938 165.55883 70.989163 163.24209 74.367188 155.54492 C 75.48183 140.97109 76.009691 125.65241 76.011719 110.4707 z M 136.06445 118.78125 C 136.04772 119.18574 136.05741 119.60045 136.07812 120.02148 L 136.13477 120.02148 C 136.08372 119.59723 136.0776 119.19084 136.06445 118.78125 z M 152.07812 122.12695 C 152.01562 139.3844 131.75719 154.22426 119.99219 164.00586 L 119.99219 165.00586 C 131.98422 155.0355 152.82062 139.81163 152.07812 122.12695 z M 162.60352 152.11719 C 159.5118 152.05774 156.45398 154.02922 155.99023 157.10938 C 155.81885 157.60593 155.84527 158.03642 155.94336 158.43164 C 155.9668 158.32124 155.95038 158.22484 155.99023 158.10938 C 156.73223 153.18113 164.1145 151.08919 167.65234 155.61719 C 167.81471 155.93728 167.91402 156.26288 167.96484 156.59375 C 168.05904 155.91605 167.97572 155.25469 167.65234 154.61719 C 166.32565 152.91919 164.45855 152.15286 162.60352 152.11719 z M 162.97461 157.92578 C 162.56995 160.43308 159.47938 161.35476 157.33594 162.33398 C 149.48749 164.89008 140.48025 163.64114 133.66406 161.02148 C 133.42681 161.25803 133.16822 161.51989 132.93359 161.75391 C 139.82399 164.56307 149.21194 165.97982 157.33594 163.33398 C 159.73997 162.23571 163.32086 161.2019 162.97461 157.92578 z " />
</svg>
