<?xml version="1.0" encoding="UTF-8" standalone="no"?>
<svg
   width="192"
   height="192"
   version="1.1"
   id="svg14"
   sodipodi:docname="games_bendy_and_the_ink_machine.svg"
   inkscape:version="1.1-rc (1:1.1+rc+202105232036+f4db50c7c1)"
   xmlns:inkscape="http://www.inkscape.org/namespaces/inkscape"
   xmlns:sodipodi="http://sodipodi.sourceforge.net/DTD/sodipodi-0.dtd"
   xmlns="http://www.w3.org/2000/svg"
   xmlns:svg="http://www.w3.org/2000/svg">
  <defs
     id="defs18">
    <filter
       inkscape:collect="always"
       style="color-interpolation-filters:sRGB"
       id="filter849"
       x="-0.046799998"
       y="-0.049263156"
       width="1.0936"
       height="1.0985263">
      <feGaussianBlur
         inkscape:collect="always"
         stdDeviation="3.12"
         id="feGaussianBlur851" />
    </filter>
    <filter
       inkscape:collect="always"
       style="color-interpolation-filters:sRGB"
       id="filter853"
       x="-0.042"
       y="-0.056"
       width="1.084"
       height="1.112">
      <feGaussianBlur
         inkscape:collect="always"
         stdDeviation="2.52"
         id="feGaussianBlur855" />
    </filter>
  </defs>
  <sodipodi:namedview
     id="namedview16"
     pagecolor="#ffffff"
     bordercolor="#666666"
     borderopacity="1.0"
     inkscape:pageshadow="2"
     inkscape:pageopacity="0.0"
     inkscape:pagecheckerboard="0"
     showgrid="false"
     inkscape:zoom="2.66"
     inkscape:cx="126.12782"
     inkscape:cy="53.947368"
     inkscape:window-width="1920"
     inkscape:window-height="1019"
     inkscape:window-x="0"
     inkscape:window-y="34"
     inkscape:window-maximized="1"
     inkscape:current-layer="svg14" />
  <path
     style="opacity:0.2;stroke-width:4;filter:url(#filter849)"
     d="m 128,24 c 2.788,2.894 3.992,4.718 4,8 0,11.044 -16.116,20 -36,20 -19.884,0 -36,-8.956 -36,-20 0.008,-3.2344 1.288,-5.1376 4,-8 -28,8 -47.9596,40.172 -48,72 0,44.184 35.816,80 80,80 44.184,0 80,-35.816 80,-80 -0.012,-31.904 -20,-64 -48,-72 z"
     id="path2" />
  <path
     style="fill:#4f4f4f;stroke-width:4"
     d="m 128,20 c 2.788,2.894 3.992,4.718 4,8 0,11.044 -16.116,20 -36,20 -19.884,0 -36,-8.956 -36,-20 0.008,-3.2344 1.288,-5.1376 4,-8 -28,8 -47.9596,40.172 -48,72 0,44.184 35.816,80 80,80 44.184,0 80,-35.816 80,-80 -0.012,-31.904 -20,-64 -48,-72 z"
     id="path4" />
  <path
     style="opacity:0.2;stroke-width:4;filter:url(#filter853)"
     d="m 60,60 c -24,0 -36,36 -36,36 0,39.764 32.236,72 72,72 39.764,0 72,-32.236 72,-72 -0.012,-1.128 -0.052,-2.256 -0.116,-3.384 C 167.884,92.616 152,60 132,60 116,64 96,80 96,80 96,80 80,64 60,60 Z m 0,28 A 16,20 0 0 1 76,108 16,20 0 0 1 69.18,124.368 16,2 0 0 0 60,124 16,2 0 0 0 50.852,124.36 16,20 0 0 1 44.344,112 H 60 L 44.58,102.748 A 16,20 0 0 1 60,88 Z m 72,0 a 16,20 0 0 1 16,20 16,20 0 0 1 -6.82,16.368 A 16,2 0 0 0 132,124 16,2 0 0 0 122.852,124.36 16,20 0 0 1 116.344,112 H 132 l -15.42,-9.252 A 16,20 0 0 1 132,88 Z m -57.944,42.016 c 0.628,0.024 1.292,0.192 1.944,0.304 v 23.252 c -1.436,-0.536 -2.764,-1.216 -4,-2.016 v -21.392 c 0.668,-0.108 1.348,-0.176 2.056,-0.148 z M 120,130.164 c 1.436,0.232 2.784,0.78 4,1.836 v 16 c -1.1,1.46 -2.492,2.58 -4,3.556 z m -4,0.156 v 23.252 c -1.28,0.476 -2.612,0.88 -4,1.184 v -23.428 c 1.372,-0.46 2.7,-0.784 4,-1.008 z m -36,1.008 c 1.312,0.44 2.652,0.908 4,1.428 v 22.696 c -1.36,-0.168 -2.692,-0.404 -4,-0.696 z M 68,132 v 16 c -3.212,-4.256 -4.028,-12.504 0,-16 z m 40,0.756 v 22.696 c -1.328,0.164 -2.664,0.272 -4,0.352 v -21.54 c 1.34,-0.472 2.664,-0.988 4,-1.508 z m -20,1.508 c 1.344,0.48 2.68,0.896 4,1.204 v 20.448 c -1.34,-0.028 -2.632,-0.028 -4,-0.112 z m 12,1.204 v 20.448 C 98.66,155.94 97.268,156 96,156 v -20 c 1.3,0 2.64,-0.216 4,-0.532 z"
     id="path6" />
  <path
     style="fill:#ffce66;stroke-width:4"
     d="m 60,56 c -24,0 -36,36 -36,36 0,39.764 32.236,72 72,72 39.764,0 72,-32.236 72,-72 -0.012,-1.128 -0.052,-2.256 -0.116,-3.384 C 167.884,88.616 152,56 132,56 116,60 96,76 96,76 96,76 80,60 60,56 Z m 0,28 A 16,20 0 0 1 76,104 16,20 0 0 1 69.18,120.368 16,2 0 0 0 60,120 16,2 0 0 0 50.852,120.36 16,20 0 0 1 44.344,108 H 60 L 44.58,98.748 A 16,20 0 0 1 60,84 Z m 72,0 a 16,20 0 0 1 16,20 16,20 0 0 1 -6.82,16.368 A 16,2 0 0 0 132,120 16,2 0 0 0 122.852,120.36 16,20 0 0 1 116.344,108 H 132 L 116.58,98.748 A 16,20 0 0 1 132,84 Z m -57.944,42.016 c 0.628,0.024 1.292,0.192 1.944,0.304 v 23.252 c -1.436,-0.536 -2.764,-1.216 -4,-2.016 v -21.392 c 0.668,-0.108 1.348,-0.176 2.056,-0.148 z M 120,126.164 c 1.436,0.232 2.784,0.78 4,1.836 v 16 c -1.1,1.46 -2.492,2.58 -4,3.556 z m -4,0.156 v 23.252 c -1.28,0.476 -2.612,0.88 -4,1.184 v -23.428 c 1.372,-0.46 2.7,-0.784 4,-1.008 z m -36,1.008 c 1.312,0.44 2.652,0.908 4,1.428 v 22.696 c -1.36,-0.168 -2.692,-0.404 -4,-0.696 z M 68,128 v 16 c -3.212,-4.256 -4.028,-12.504 0,-16 z m 40,0.756 v 22.696 c -1.328,0.164 -2.664,0.272 -4,0.352 v -21.54 c 1.34,-0.472 2.664,-0.988 4,-1.508 z m -20,1.508 c 1.344,0.48 2.68,0.896 4,1.204 v 20.448 c -1.34,-0.028 -2.632,-0.028 -4,-0.112 z m 12,1.204 v 20.448 C 98.66,151.94 97.268,152 96,152 v -20 c 1.3,0 2.64,-0.216 4,-0.532 z"
     id="path8" />
  <path
     id="path10"
     style="opacity:0.1;fill:#ffffff;stroke-width:4"
     d="M 64 20 C 36 28 16.0404 60.172 16 92 C 16 92.15167 16.009466 92.300215 16.011719 92.451172 C 16.275072 61.283199 35.567699 29.938523 62.744141 21.396484 C 63.119593 20.95019 63.536501 20.4889 64 20 z M 128 20 C 128.47582 20.493932 128.90091 20.957978 129.28125 21.404297 C 156.4387 29.95358 175.74312 61.204192 175.98828 92.427734 C 175.99024 92.284586 176 92.143794 176 92 C 175.988 60.096 156 28 128 20 z M 131.79688 30.09375 C 129.91288 40.15615 114.608 48 96 48 C 77.416 48 62.128891 40.176012 60.212891 30.132812 C 60.096891 30.718412 60 31.3172 60 32 C 60 32.196476 60.017212 32.390822 60.027344 32.585938 C 60.056842 32.074437 60.121634 31.593503 60.212891 31.132812 C 62.128891 41.176012 77.416 49 96 49 C 114.608 49 129.91288 41.15615 131.79688 31.09375 C 131.88747 31.557635 131.94675 32.044663 131.97461 32.564453 C 131.98401 32.376457 132 32.189257 132 32 C 132 31.2976 131.91288 30.68775 131.79688 30.09375 z " />
  <path
     id="path937"
     style="fill:#ffffff;stroke-width:4;opacity:0.2"
     d="M 60 56 C 36 56 24 92 24 92 C 24 92.313766 24.019435 92.622731 24.023438 92.935547 C 24.147786 92.564443 36.125 57 60 57 C 80 61 96 77 96 77 C 96 77 116 61 132 57 C 152 57 167.88477 89.615234 167.88477 89.615234 C 167.94072 90.601349 167.96973 91.588104 167.98633 92.574219 C 167.98784 92.381998 168 92.192577 168 92 C 167.988 90.872 167.94877 89.743234 167.88477 88.615234 C 167.88477 88.615234 152 56 132 56 C 116 60 96 76 96 76 C 96 76 80 60 60 56 z M 44.859375 98.916016 A 16 20 0 0 0 44.580078 99.748047 L 58.333984 108 L 60 108 L 44.859375 98.916016 z M 116.85938 98.916016 A 16 20 0 0 0 116.58008 99.748047 L 130.33398 108 L 132 108 L 116.85938 98.916016 z M 75.974609 104.26367 A 16 20 0 0 1 69.179688 120.36719 A 16 2 0 0 0 60 120 A 16 2 0 0 0 50.851562 120.35938 A 16 20 0 0 1 44.617188 109 L 44.34375 109 A 16 20 0 0 0 50.851562 121.35938 A 16 2 0 0 1 60 121 A 16 2 0 0 1 69.179688 121.36719 A 16 20 0 0 0 76 105 A 16 20 0 0 0 75.974609 104.26367 z M 147.97461 104.26367 A 16 20 0 0 1 141.17969 120.36719 A 16 2 0 0 0 132 120 A 16 2 0 0 0 122.85156 120.35938 A 16 20 0 0 1 116.61719 109 L 116.34375 109 A 16 20 0 0 0 122.85156 121.35938 A 16 2 0 0 1 132 121 A 16 2 0 0 1 141.17969 121.36719 A 16 20 0 0 0 148 105 A 16 20 0 0 0 147.97461 104.26367 z M 65.289062 135.74609 C 65.183126 139.06573 66.22173 142.64374 68 145 L 68 144 C 66.39953 141.87933 65.396918 138.7673 65.289062 135.74609 z M 124 144 C 122.9 145.46 121.508 146.58064 120 147.55664 L 120 148.55664 C 121.508 147.58064 122.9 146.46 124 145 L 124 144 z M 72 147.55664 L 72 148.55664 C 73.236 149.35664 74.564 150.03627 76 150.57227 L 76 149.57227 C 74.564 149.03627 73.236 148.35664 72 147.55664 z M 116 149.57227 C 114.72 150.04827 113.388 150.45186 112 150.75586 L 112 151.75586 C 113.388 151.45186 114.72 151.04827 116 150.57227 L 116 149.57227 z M 80 150.75586 L 80 151.75586 C 81.308 152.04786 82.64 152.28317 84 152.45117 L 84 151.45117 C 82.64 151.28317 81.308 151.04786 80 150.75586 z M 108 151.45117 C 106.672 151.61517 105.336 151.72469 104 151.80469 L 104 152.80469 C 105.336 152.72469 106.672 152.61517 108 152.45117 L 108 151.45117 z M 88 151.80469 L 88 152.80469 C 89.368 152.88869 90.66 152.88802 92 152.91602 L 92 151.91602 C 90.66 151.88802 89.368 151.88869 88 151.80469 z M 100 151.91602 C 98.66 151.94002 97.268 152 96 152 L 96 153 C 97.268 153 98.66 152.94002 100 152.91602 L 100 151.91602 z " />
</svg>
