<?xml version="1.0" encoding="UTF-8" standalone="no"?>
<svg
   width="192"
   height="192"
   version="1"
   id="svg28"
   sodipodi:docname="games_sgtpuzzles.svg"
   inkscape:version="1.1.1 (1:1.1+202109281949+c3084ef5ed)"
   xmlns:inkscape="http://www.inkscape.org/namespaces/inkscape"
   xmlns:sodipodi="http://sodipodi.sourceforge.net/DTD/sodipodi-0.dtd"
   xmlns="http://www.w3.org/2000/svg"
   xmlns:svg="http://www.w3.org/2000/svg"
   xmlns:rdf="http://www.w3.org/1999/02/22-rdf-syntax-ns#"
   xmlns:cc="http://creativecommons.org/ns#"
   xmlns:dc="http://purl.org/dc/elements/1.1/">
  <metadata
     id="metadata34">
    <rdf:RDF>
      <cc:Work
         rdf:about="">
        <dc:format>image/svg+xml</dc:format>
        <dc:type
           rdf:resource="http://purl.org/dc/dcmitype/StillImage" />
      </cc:Work>
    </rdf:RDF>
  </metadata>
  <defs
     id="defs32">
    <filter
       inkscape:collect="always"
       style="color-interpolation-filters:sRGB"
       id="filter6495"
       x="-0.048000001"
       y="-0.048000001"
       width="1.096"
       height="1.096">
      <feGaussianBlur
         inkscape:collect="always"
         stdDeviation="3.2"
         id="feGaussianBlur6497" />
    </filter>
    <filter
       inkscape:collect="always"
       style="color-interpolation-filters:sRGB"
       id="filter17088"
       x="-0.075386598"
       y="-0.074617347"
       width="1.1507732"
       height="1.1492347">
      <feGaussianBlur
         inkscape:collect="always"
         stdDeviation="3.046875"
         id="feGaussianBlur17090" />
    </filter>
  </defs>
  <sodipodi:namedview
     pagecolor="#ffffff"
     bordercolor="#666666"
     borderopacity="1"
     objecttolerance="10"
     gridtolerance="10"
     guidetolerance="10"
     inkscape:pageopacity="0"
     inkscape:pageshadow="2"
     inkscape:window-width="1920"
     inkscape:window-height="1022"
     id="namedview30"
     showgrid="false"
     inkscape:zoom="1"
     inkscape:cx="119"
     inkscape:cy="104"
     inkscape:window-x="0"
     inkscape:window-y="34"
     inkscape:window-maximized="1"
     inkscape:current-layer="svg28"
     inkscape:pagecheckerboard="0"
     inkscape:snap-global="true"
     showguides="true"
     inkscape:snap-bbox="true"
     inkscape:snap-bbox-midpoints="true"
     inkscape:bbox-paths="false">
    <inkscape:grid
       type="xygrid"
       id="grid841" />
  </sodipodi:namedview>
  <rect
     id="rect6457"
     transform="matrix(0,-1,-1,0,0,0)"
     ry="12"
     rx="12"
     y="-176"
     x="-180"
     height="160"
     width="160"
     style="opacity:0.2;fill:#000000;fill-opacity:1;stroke-width:4;filter:url(#filter6495)" />
  <rect
     id="rect2"
     transform="matrix(0,-1,-1,0,0,0)"
     ry="12"
     rx="12"
     y="-176"
     x="-176"
     height="160"
     width="160"
     style="fill:#e4e4e4;fill-opacity:1;stroke-width:4" />
  <path
     id="rect6416"
     style="opacity:0.2;fill:#ffffff;fill-opacity:1;stroke-width:4"
     d="m 28,16 c -6.648,0 -12,5.352 -12,12 v 1 c 0,-6.648 5.352,-12 12,-12 h 136 c 6.648,0 12,5.352 12,12 v -1 c 0,-6.648 -5.352,-12 -12,-12 z" />
  <path
     id="path1885"
     style="color:#000000;fill:#229e9d;-inkscape-stroke:none;opacity:1;fill-opacity:1"
     d="M 81 54 L 81 58 L 106 58 L 106 81 L 56 81 L 56 56 L 52 56 L 52 85 L 79 85 L 79 108 L 54 108 L 54 112 L 79 112 L 79 136 L 54 136 L 54 140 L 83 140 L 83 111 L 83 85 L 106 85 L 106 110 L 108 110 L 108 111 L 106 111 L 106 140 L 135 140 L 135 136 L 110 136 L 110 112 L 135 112 L 135 108 L 110 108 L 110 81 L 110 54 L 81 54 z " />
  <path
     style="color:#000000;fill:#3f3f3f;-inkscape-stroke:none;opacity:1;fill-opacity:1"
     d="m 127,54 v 4 h 6 v 38 h 4 V 54 Z"
     id="path3049" />
  <path
     id="path17047"
     style="opacity:0.2;fill:#000000;fill-opacity:1;stroke-width:1.41091;stroke-linecap:round;stroke-linejoin:round;filter:url(#filter17088)"
     d="M 46,50 V 66 H 62 V 50 Z m 27,0 V 66 H 89 V 50 Z m -27,54 v 16 h 16 v -16 z m 54,0 v 16 h 16 v -16 z m 27,0 v 16 h 16 v -16 z m -81,28 v 16 h 16 v -16 z m 81,0 v 16 h 16 v -16 z" />
  <path
     id="rect1054"
     style="opacity:1;fill:#00d6d6;stroke-width:1.41091;stroke-linecap:round;stroke-linejoin:round;fill-opacity:1"
     d="M 46 48 L 46 64 L 62 64 L 62 48 L 46 48 z M 73 48 L 73 64 L 89 64 L 89 48 L 73 48 z M 46 102 L 46 118 L 62 118 L 62 102 L 46 102 z M 127 102 L 127 118 L 143 118 L 143 102 L 127 102 z M 46 130 L 46 146 L 62 146 L 62 130 L 46 130 z M 127 130 L 127 146 L 143 146 L 143 130 L 127 130 z " />
  <path
     id="rect1206"
     style="opacity:1;fill:#3f3f3f;stroke-width:1.41091;stroke-linecap:round;stroke-linejoin:round;fill-opacity:1"
     d="m 100,102 h 16 v 16 h -16 z" />
</svg>
