<?xml version="1.0" encoding="UTF-8" standalone="no"?>
<svg
   width="192"
   height="192"
   version="1"
   id="svg12"
   sodipodi:docname="games_alto_odyssey.svg"
   inkscape:version="1.1.1 (1:1.1+202109281949+c3084ef5ed)"
   xmlns:inkscape="http://www.inkscape.org/namespaces/inkscape"
   xmlns:sodipodi="http://sodipodi.sourceforge.net/DTD/sodipodi-0.dtd"
   xmlns="http://www.w3.org/2000/svg"
   xmlns:svg="http://www.w3.org/2000/svg"
   xmlns:rdf="http://www.w3.org/1999/02/22-rdf-syntax-ns#"
   xmlns:cc="http://creativecommons.org/ns#"
   xmlns:dc="http://purl.org/dc/elements/1.1/">
  <metadata
     id="metadata18">
    <rdf:RDF>
      <cc:Work
         rdf:about="">
        <dc:format>image/svg+xml</dc:format>
        <dc:type
           rdf:resource="http://purl.org/dc/dcmitype/StillImage" />
      </cc:Work>
    </rdf:RDF>
  </metadata>
  <defs
     id="defs16">
    <filter
       inkscape:collect="always"
       style="color-interpolation-filters:sRGB"
       id="filter955"
       x="-0.048000001"
       width="1.096"
       y="-0.048000001"
       height="1.096">
      <feGaussianBlur
         inkscape:collect="always"
         stdDeviation="3.2"
         id="feGaussianBlur957" />
    </filter>
    <filter
       inkscape:collect="always"
       style="color-interpolation-filters:sRGB"
       id="filter68196"
       x="-0.108"
       y="-0.108"
       width="1.216"
       height="1.216">
      <feGaussianBlur
         inkscape:collect="always"
         stdDeviation="3.87"
         id="feGaussianBlur68198" />
    </filter>
    <filter
       inkscape:collect="always"
       style="color-interpolation-filters:sRGB"
       id="filter68249"
       x="-0.044269041"
       y="-0.052417718"
       width="1.0885381"
       height="1.1048354">
      <feGaussianBlur
         inkscape:collect="always"
         stdDeviation="2.9512695"
         id="feGaussianBlur68251" />
    </filter>
  </defs>
  <sodipodi:namedview
     pagecolor="#ffffff"
     bordercolor="#666666"
     borderopacity="1"
     objecttolerance="10"
     gridtolerance="10"
     guidetolerance="10"
     inkscape:pageopacity="0"
     inkscape:pageshadow="2"
     inkscape:window-width="1920"
     inkscape:window-height="1019"
     id="namedview14"
     showgrid="false"
     inkscape:zoom="1"
     inkscape:cx="118.5"
     inkscape:cy="115"
     inkscape:window-x="0"
     inkscape:window-y="34"
     inkscape:window-maximized="1"
     inkscape:current-layer="svg12"
     showguides="false"
     inkscape:document-rotation="0"
     inkscape:pagecheckerboard="0"
     inkscape:snap-bbox="true"
     inkscape:snap-bbox-midpoints="true"
     inkscape:snap-global="true">
    <inkscape:grid
       type="xygrid"
       id="grid852" />
  </sodipodi:namedview>
  <rect
     style="opacity:0.2;fill:#000000;fill-opacity:1;stroke-width:4;filter:url(#filter955)"
     width="160"
     height="160"
     x="16"
     y="20"
     rx="30"
     ry="30"
     id="rect953" />
  <rect
     style="fill:#f065c4;fill-opacity:1;stroke-width:4"
     width="160"
     height="160"
     x="16"
     y="16"
     rx="30"
     ry="30"
     id="rect4" />
  <circle
     style="opacity:0.2;fill:#000000;fill-opacity:1;stroke-width:16.1367;stroke-linecap:round;stroke-linejoin:round;filter:url(#filter68196)"
     id="circle68158"
     cx="97"
     cy="77"
     r="43" />
  <circle
     style="opacity:1;fill:#ffffff;stroke-width:16.1367;stroke-linecap:round;stroke-linejoin:round;fill-opacity:1"
     id="path13013"
     cx="97"
     cy="75"
     r="43" />
  <path
     id="rect11191"
     style="opacity:1;fill:#af5d97;stroke-width:16;stroke-linecap:round;stroke-linejoin:round;fill-opacity:1"
     d="M 153.25391 105 L 141.0957 117 L 106.35547 117 L 93.089844 128.29883 L 64.580078 130.61914 L 39.8125 106 L 33.029297 106 L 25.263672 114 L 16 114 L 16 146 C 16 162.62 29.38 176 46 176 L 146 176 C 162.62 176 176 162.62 176 146 L 176 110.16992 L 170.96289 111.72656 L 166.44727 105 L 153.25391 105 z " />
  <path
     id="rect959"
     style="fill:#ffffff;fill-opacity:1;stroke-width:4;opacity:0.2"
     d="M 46 16 C 29.38 16 16 29.38 16 46 L 16 47 C 16 30.38 29.38 17 46 17 L 146 17 C 162.62 17 176 30.38 176 47 L 176 46 C 176 29.38 162.62 16 146 16 L 46 16 z " />
  <path
     id="rect9531"
     style="opacity:1;fill:#724873;stroke-width:16;stroke-linecap:round;stroke-linejoin:round;fill-opacity:1"
     d="m 157,95 -2,3 v 5 l -3,5 v 17 h -2 v -8 L 148.54102,114.49023 147,117 v 18.04317 L 140,143 h 17 17 l -7,-8.3355 V 117 L 165.45898,114.49023 164,117 v 8 h -2 v -17 l -3,-5 v -5 z m 0,19 2,3 v 7 l -2,-1 -2,1 v -7 z"
     sodipodi:nodetypes="cccccccccccccccccccccccccccccc" />
  <path
     id="rect7740"
     style="opacity:1;fill:#724873;stroke-width:18.8351;stroke-linecap:round;stroke-linejoin:round;fill-opacity:1"
     d="M 36,108.78125 34,111 v 7 h -5 v 11 h -4 v -4 l -1,-2 -1,2 v 14.01861 L 20,142 h 16 17 l -4,-4.98236 V 125 l -1,-2 -1,2 v 4 h -4 v -11 h -5 v -7 z M 32.568359,120.69922 34,123 v 6 h -3 v -6 z m 6.863282,0 L 41,123 v 6 h -3 v -6 z"
     sodipodi:nodetypes="ccccccccccccccccccccccccccccccccccc" />
  <path
     id="path68200"
     style="opacity:0.2;fill:#000000;fill-opacity:1;stroke-width:15.9159;stroke-linecap:round;stroke-linejoin:round;filter:url(#filter68249)"
     d="M 96,43.873047 94,47 v 20 c -4.17256,5.662033 -8.293879,11.353402 -9,19 v 17 H 79 V 93 L 76.5,88.892578 74,93 v 26.21094 L 69.728516,124 H 63 V 113.94336 L 61.03125,109.76953 59,114 v 30 H 16 v 5 c 0,7.36065 2.632074,14.07829 7,19.28711 V 155 L 26.539062,151.40039 30,155 v 19.37305 C 34.62877,177.28991 40.102003,179 46,179 h 100 c 5.898,0 11.37123,-1.71009 16,-4.62695 V 155 l 3.46094,-3.59961 L 169,155 v 13.28711 c 4.36793,-5.20882 7,-11.92646 7,-19.28711 v -5 H 133 V 114 L 130.96875,109.76953 129,113.94336 V 124 h -6.72852 L 118,119.21094 V 93 L 115.5,88.892578 113,93 v 10 h -6 V 86 c -0.70612,-7.646598 -4.82744,-13.337967 -9,-19 v -6.808594 c 4.26145,-1.916029 6.70272,1.061566 11.82812,0.986328 1.80063,-0.02643 4.4335,-0.590867 6.38477,-1.871093 C 106.97105,59.996165 105.18939,55.89523 98,56.234375 v -2.333984 c 5.57212,-1.089525 8.90731,1.678719 14.875,1.501953 4.05941,-0.120241 7.77139,-0.649462 9.72266,-1.929688 C 112.9558,54.002933 105.19465,49.017236 98,49.039062 V 47 Z M 50,51 c -6.627417,0 -12,5.372583 -12,12 0,2.911913 2.306739,6.729615 4.896484,10.097656 C 44.646761,75.94072 47.292229,77.93908 48.248047,81 H 50 51.832031 c 0.831035,-3.008724 3.851856,-6.037165 5.558594,-8.283203 C 59.861433,69.442044 62,65.799542 62,63 62,56.372583 56.627417,51 50,51 Z m 115.93555,14.027344 c -3.21783,0.446897 -5.97082,1.309711 -7.59571,3.18164 -4.28264,-2.189001 -6.33102,-1.965147 -9.27539,-2.708984 4.79383,2.668138 7.54211,5.900914 10.06836,9.195312 1.1832,-3.603037 4.12405,-6.589193 6.80274,-9.667968 z m -34.24024,4.30664 c -2.78534,1.435852 -3.59009,3.361927 -5.89648,5.482422 0,0 3.75304,-2.691556 6.41992,-2.917968 2.14802,-0.182363 4.55273,0.283203 4.55273,0.283203 -1.46397,-1.558611 -1.36442,-1.41526 -5.07617,-2.847657 z M 96,79 l 3,3 -3,3 -3,-3 z m 51.05469,0.425781 c -4.90282,1.634618 -5.75416,4.027943 -8.06055,6.148438 0,0 4.94836,-2.322415 7.61524,-2.548828 C 148.7574,82.843029 153,84.015625 153,84.015625 c -1.46397,-1.558611 -2.23356,-3.157447 -5.94531,-4.589844 z M 48,84 v 2 h 4 v -2 z m 37.5,25 2.5,4 v 11 h -5 v -11 z m 10.5,0 3,4 v 11 h -6 v -11 z m 10.5,0 2.5,4 v 11 h -5 V 113 Z M 38.539062,151.40039 42,155 v 17.51758 l -7,4.26172 V 155 Z m 12,0 L 54,155 v 1.82227 l -7,13.21289 V 155 Z m 90.921878,0 L 145,155 v 15.03516 l -7,-13.21289 V 155 Z m 12,0 L 157,155 v 21.7793 l -7,-4.26172 V 155 Z" />
  <path
     id="rect1719"
     style="opacity:1;fill:#47323b;stroke-width:15.9159;stroke-linecap:round;stroke-linejoin:round;fill-opacity:1"
     d="M 96 40.873047 L 94 44 L 94 64 C 89.82744 69.662033 85.706121 75.353402 85 83 L 85 100 L 79 100 L 79 90 L 76.5 85.892578 L 74 90 L 74 116.21094 L 69.728516 121 L 63 121 L 63 110.94336 L 61.03125 106.76953 L 59 111 L 59 141 L 16 141 L 16 146 C 16 153.36065 18.632074 160.07829 23 165.28711 L 23 152 L 26.539062 148.40039 L 30 152 L 30 171.37305 C 34.62877 174.28991 40.102003 176 46 176 L 146 176 C 151.898 176 157.37123 174.28991 162 171.37305 L 162 152 L 165.46094 148.40039 L 169 152 L 169 165.28711 C 173.36793 160.07829 176 153.36065 176 146 L 176 141 L 133 141 L 133 111 L 130.96875 106.76953 L 129 110.94336 L 129 121 L 122.27148 121 L 118 116.21094 L 118 90 L 115.5 85.892578 L 113 90 L 113 100 L 107 100 L 107 83 C 106.29388 75.353402 102.17256 69.662033 98 64 L 98 57.191406 C 102.26145 55.275377 104.70272 58.252972 109.82812 58.177734 C 111.62875 58.151304 114.26162 57.586867 116.21289 56.306641 C 106.97105 56.996165 105.18939 52.89523 98 53.234375 L 98 50.900391 C 103.57212 49.810866 106.90731 52.57911 112.875 52.402344 C 116.93441 52.282103 120.64639 51.752882 122.59766 50.472656 C 112.9558 51.002933 105.19465 46.017236 98 46.039062 L 98 44 L 96 40.873047 z M 96 76 L 99 79 L 96 82 L 93 79 L 96 76 z M 85.5 106 L 88 110 L 88 121 L 83 121 L 83 110 L 85.5 106 z M 96 106 L 99 110 L 99 121 L 93 121 L 93 110 L 96 106 z M 106.5 106 L 109 110 L 109 121 L 104 121 L 104 110 L 106.5 106 z M 38.539062 148.40039 L 42 152 L 42 169.51758 L 35 173.7793 L 35 152 L 38.539062 148.40039 z M 50.539062 148.40039 L 54 152 L 54 153.82227 L 47 167.03516 L 47 152 L 50.539062 148.40039 z M 141.46094 148.40039 L 145 152 L 145 167.03516 L 138 153.82227 L 138 152 L 141.46094 148.40039 z M 153.46094 148.40039 L 157 152 L 157 173.7793 L 150 169.51758 L 150 152 L 153.46094 148.40039 z " />
  <path
     id="path12355"
     style="opacity:1;fill:#834162;stroke-width:18.6775;stroke-linecap:round;stroke-linejoin:round;fill-opacity:1"
     d="m 50,48 c -6.627417,0 -12,5.372583 -12,12 0,2.911913 2.307442,6.729409 4.897187,10.09745 1.750277,2.843064 4.395042,4.84163 5.35086,7.90255 H 50 51.832031 c 0.831035,-3.008724 3.852226,-6.037209 5.558964,-8.283247 C 59.861803,66.442 62,62.799542 62,60 62,53.372583 56.627417,48 50,48 Z"
     sodipodi:nodetypes="sscccccss" />
  <rect
     style="opacity:1;fill:#834162;stroke-width:12.6186;stroke-linecap:round;stroke-linejoin:round;fill-opacity:1"
     id="rect12909"
     width="4"
     height="2"
     x="48"
     y="81" />
  <path
     id="rect13117"
     style="opacity:1;fill:#47323b;stroke-width:16;stroke-linecap:round;stroke-linejoin:round;fill-opacity:1"
     d="m 149.06534,62.499916 c 2.94437,0.743837 4.99206,0.519353 9.2747,2.708354 1.62489,-1.871929 4.37848,-2.734133 7.59631,-3.18103 -2.67869,3.078775 -5.62012,6.06544 -6.80332,9.668478 -2.52625,-3.294399 -5.27386,-6.527664 -10.06769,-9.195802 z"
     sodipodi:nodetypes="ccccc" />
  <path
     id="rect13620"
     style="opacity:1;fill:#47323b;stroke-width:16;stroke-linecap:round;stroke-linejoin:round;fill-opacity:1"
     d="m 138.99464,82.574033 c 2.30639,-2.120495 3.15816,-4.513196 8.06098,-6.147814 3.71175,1.432397 4.48026,3.03006 5.94423,4.588671 0,0 -4.24304,-1.172039 -6.39106,-0.989677 -2.66688,0.226413 -7.61415,2.54882 -7.61415,2.54882 z"
     sodipodi:nodetypes="cccsc" />
  <path
     id="path14092"
     style="opacity:1;fill:#47323b;stroke-width:16;stroke-linecap:round;stroke-linejoin:round;fill-opacity:1"
     d="m 125.79944,71.81547 c 2.30639,-2.120495 3.10997,-4.045219 5.89531,-5.481071 3.71175,1.432397 3.61299,1.289432 5.07696,2.848043 0,0 -2.40532,-0.465822 -4.55334,-0.28346 -2.66688,0.226413 -6.41893,2.916488 -6.41893,2.916488 z"
     sodipodi:nodetypes="cccsc" />
</svg>
