<?xml version="1.0" encoding="UTF-8" standalone="no"?>
<svg
   width="192"
   height="192"
   version="1"
   id="svg12"
   sodipodi:docname="games_postknight_2.svg"
   inkscape:version="1.1.1 (1:1.1+202109281949+c3084ef5ed)"
   xmlns:inkscape="http://www.inkscape.org/namespaces/inkscape"
   xmlns:sodipodi="http://sodipodi.sourceforge.net/DTD/sodipodi-0.dtd"
   xmlns="http://www.w3.org/2000/svg"
   xmlns:svg="http://www.w3.org/2000/svg"
   xmlns:rdf="http://www.w3.org/1999/02/22-rdf-syntax-ns#"
   xmlns:cc="http://creativecommons.org/ns#"
   xmlns:dc="http://purl.org/dc/elements/1.1/">
  <metadata
     id="metadata18">
    <rdf:RDF>
      <cc:Work
         rdf:about="">
        <dc:format>image/svg+xml</dc:format>
        <dc:type
           rdf:resource="http://purl.org/dc/dcmitype/StillImage" />
      </cc:Work>
    </rdf:RDF>
  </metadata>
  <defs
     id="defs16">
    <filter
       inkscape:collect="always"
       style="color-interpolation-filters:sRGB"
       id="filter88080"
       x="-0.048000001"
       y="-0.048000001"
       width="1.096"
       height="1.096">
      <feGaussianBlur
         inkscape:collect="always"
         stdDeviation="3.2"
         id="feGaussianBlur88082" />
    </filter>
    <filter
       inkscape:collect="always"
       style="color-interpolation-filters:sRGB"
       id="filter91215"
       x="-0.069888389"
       y="-0.080918342"
       width="1.1397768"
       height="1.1618367">
      <feGaussianBlur
         inkscape:collect="always"
         stdDeviation="1.8060474"
         id="feGaussianBlur91217" />
    </filter>
    <filter
       inkscape:collect="always"
       style="color-interpolation-filters:sRGB"
       id="filter91257"
       x="-0.047552214"
       y="-0.048456303"
       width="1.0951044"
       height="1.0969126">
      <feGaussianBlur
         inkscape:collect="always"
         stdDeviation="2.0305216"
         id="feGaussianBlur91259" />
    </filter>
    <filter
       inkscape:collect="always"
       style="color-interpolation-filters:sRGB"
       id="filter91517"
       x="-0.069687229"
       y="-0.081266446"
       width="1.1393745"
       height="1.1625329">
      <feGaussianBlur
         inkscape:collect="always"
         stdDeviation="2.0004453"
         id="feGaussianBlur91519" />
    </filter>
  </defs>
  <sodipodi:namedview
     pagecolor="#ffffff"
     bordercolor="#666666"
     borderopacity="1"
     objecttolerance="10"
     gridtolerance="10"
     guidetolerance="10"
     inkscape:pageopacity="0"
     inkscape:pageshadow="2"
     inkscape:window-width="1920"
     inkscape:window-height="1022"
     id="namedview14"
     showgrid="false"
     inkscape:zoom="1"
     inkscape:cx="-9"
     inkscape:cy="69"
     inkscape:window-x="0"
     inkscape:window-y="34"
     inkscape:window-maximized="1"
     inkscape:current-layer="svg12"
     showguides="true"
     inkscape:document-rotation="0"
     inkscape:pagecheckerboard="0"
     inkscape:snap-bbox="true"
     inkscape:snap-bbox-midpoints="true"
     inkscape:snap-global="true">
    <inkscape:grid
       type="xygrid"
       id="grid852" />
  </sodipodi:namedview>
  <circle
     style="opacity:0.2;fill:#000000;fill-opacity:1;stroke-width:59.8306;stroke-linecap:round;stroke-linejoin:round;stroke-miterlimit:4;stroke-dasharray:none;filter:url(#filter88080)"
     id="circle88042"
     cx="96"
     cy="100"
     r="80" />
  <circle
     style="opacity:1;fill:#8f53dd;fill-opacity:1;stroke-width:59.8306;stroke-linecap:round;stroke-linejoin:round;stroke-miterlimit:4;stroke-dasharray:none"
     id="path84147"
     cx="96"
     cy="96"
     r="80" />
  <path
     id="rect16813"
     style="fill:#fa6d79;fill-opacity:1;stroke-width:0.699223;stroke-linecap:round;stroke-linejoin:round"
     d="M 24.890625,80.201172 C 24.205406,82.710148 22.7854,85.013028 23,88.155281 c 0.194992,2.855146 1.816466,6.403286 5.097656,11.428703 -4.979109,0.633606 -8.148866,4.087886 -11.298828,7.574216 2.270764,15.87079 9.257701,30.69319 20.054688,42.54492 2.458968,0.54607 4.996048,0.97002 7.585937,1.16797 1.526636,0.11668 10.169669,-8.19918 11.585938,-8.08984 6.228545,0.48087 16.447265,-8.98242 16.447265,-8.98242 l 19.603516,10.75 L 102.82031,132.30078 35.638672,89.328125 C 31.628488,85.911508 27.348949,84.88897 24.890625,80.201172 Z"
     sodipodi:nodetypes="cscccssccccc" />
  <path
     style="color:#000000;fill:#ffe4c3;fill-opacity:1;stroke-width:0.174806;-inkscape-stroke:none"
     d="m 69.427481,131.0463 -3.255416,11.53445 11.776172,3.32404 3.255757,-11.53445 z"
     id="path79619" />
  <ellipse
     style="fill:#fff0e1;fill-opacity:1;stroke-width:0.699223;stroke-linecap:round;stroke-linejoin:round;stroke-miterlimit:4;stroke-dasharray:none"
     id="path18482"
     cx="13.267632"
     cy="122.96072"
     rx="6.3019061"
     ry="8.1207314"
     transform="rotate(-20.533069)" />
  <path
     id="path91177"
     style="opacity:0.2;fill:#000000;fill-opacity:1;stroke-width:0.699223;stroke-linecap:round;stroke-linejoin:round;filter:url(#filter91215)"
     d="m 52.618485,90.534143 55.491295,-6.100661 6.52922,22.193208 c -1.86894,7.90377 -7.20044,14.63712 -10.82221,21.82418 -2.07314,8.93134 -12.111883,10.19361 -24.376455,9.3129 -4.149046,-0.10382 -5.978589,-0.52666 -9.286516,-2.50924 C 55.09558,126.21349 56.135917,120.87719 54.999262,117.7225 l -1.850263,-14.03615 z"
     sodipodi:nodetypes="ccccccccc" />
  <path
     id="rect909"
     style="fill:#ffe4c3;fill-opacity:1;stroke-width:0.699223;stroke-linecap:round;stroke-linejoin:round"
     d="m 52.618485,89.534143 55.491295,-6.100661 6.52922,22.193208 c -1.86894,7.90377 -7.20044,14.63712 -10.82221,21.82418 -2.07314,8.93134 -12.111883,10.19361 -24.376455,9.3129 -4.149046,-0.10382 -5.978589,-0.52666 -9.286516,-2.50924 C 55.09558,125.21349 56.135917,119.87719 54.999262,116.7225 l -1.850263,-14.03615 z"
     sodipodi:nodetypes="ccccccccc" />
  <ellipse
     style="fill:#3f3f3f;fill-opacity:1;stroke-width:0.675878;stroke-linecap:round;stroke-linejoin:round"
     id="path2678"
     cx="79.726219"
     cy="99.348167"
     rx="3.4555149"
     ry="6.5237579"
     transform="matrix(0.99539521,0.09585601,-0.09923785,0.99506374,0,0)" />
  <ellipse
     style="fill:#ffffff;stroke-width:0.348847;stroke-linecap:round;stroke-linejoin:round"
     id="ellipse2958"
     cx="68.400711"
     cy="105.03268"
     rx="2.0032725"
     ry="2.9978156"
     transform="matrix(0.99831446,0.0580366,0.00680339,0.99997686,0,0)" />
  <ellipse
     style="fill:#3f3f3f;fill-opacity:1;stroke-width:0.685074;stroke-linecap:round;stroke-linejoin:round"
     id="ellipse2978"
     cx="129.97446"
     cy="62.731583"
     rx="3.3860817"
     ry="6.8399158"
     transform="matrix(0.90471063,0.42602661,-0.37603509,0.92660542,0,0)" />
  <ellipse
     style="fill:#ffffff;stroke-width:0.370823;stroke-linecap:round;stroke-linejoin:round"
     id="ellipse2980"
     cx="122.37745"
     cy="68.254723"
     rx="1.9121979"
     ry="3.548732"
     transform="matrix(0.9131923,0.40752892,-0.27476698,0.96151085,0,0)" />
  <path
     id="rect4090"
     style="fill:#f3889e;fill-opacity:1;stroke-width:0.702472;stroke-linecap:round;stroke-linejoin:round"
     d="m 71.015301,117.20189 c 2.423325,-0.56476 9.470994,-0.3282 17.370203,5.88117 1.096566,0.78146 0.536388,0.69663 -0.214737,1.47908 -2.750201,2.87402 -4.391944,6.75771 -10.671481,6.41688 -5.078917,-1.59265 -8.242062,-5.11308 -7.348753,-12.71539 0.0034,-0.73015 0.282583,-0.9235 0.864768,-1.06174 z"
     sodipodi:nodetypes="cccccc" />
  <path
     id="path5021"
     style="fill:#d24d66;fill-opacity:1;stroke-width:0.702472;stroke-linecap:round;stroke-linejoin:round"
     d="m 84.17869,120.25622 a 13.591112,12.71533 76.168104 0 1 1.862417,3.05914 13.591112,12.71533 76.168104 0 1 0.881593,2.67152 c 0.403681,-0.48616 0.811579,-0.96844 1.248137,-1.42465 0.751124,-0.78244 1.311226,-0.69756 0.214661,-1.47903 -1.438299,-1.1306 -2.847747,-2.06119 -4.206808,-2.82698 z" />
  <path
     id="path80149"
     style="fill:#fed0c5;fill-opacity:1;stroke-width:0.699223;stroke-linecap:round;stroke-linejoin:round"
     d="m 68.31905,140.37587 c -0.383216,-3.29642 -1.224811,-6.12933 -6.044593,-5.04649 -1.494362,0.29049 -2.225443,1.16382 -3.180662,2.272 l -10.048285,8.92176 c 8.075109,4.22771 5.809008,8.34476 7.032438,13.58812 2.841504,-6.89107 12.976047,-13.28626 12.241102,-19.73539 z"
     sodipodi:nodetypes="cccccc" />
  <path
     id="rect9939"
     style="fill:#f96b31;fill-opacity:1;stroke-width:0.699223;stroke-linecap:round;stroke-linejoin:round"
     d="m 68.439453,134.54688 -3.21875,0.4707 -2.339844,3.85547 c 0,0 -4.422362,3.1813 -5.453125,5.56445 -1.689313,3.90573 -0.525734,12.75586 -0.525734,12.75586 l -5.984031,4.73633 c 12.959172,8.87722 28.244997,13.74289 43.951172,13.99023 -3.570752,-7.06051 -8.078185,-15.16925 -11.884766,-16.58398 1.445294,-6.22136 1.231645,-12.1198 1.847656,-18.17969 l -0.30664,-1.56055 -3.9375,-1.83008 c 0,0 -3.70343,1.72089 -7.498047,1.86329 l -1.025391,0.66601 -5.892578,2.28516 1.730469,-6.13281 c 0.0389,-0.35351 0.141382,-0.7161 0.304687,-1.07618 z"
     sodipodi:nodetypes="cccsccccccccccccc" />
  <path
     id="rect13057"
     style="fill:#fdb6a4;fill-opacity:1;stroke-width:0.699223;stroke-linecap:round;stroke-linejoin:round"
     d="m 68.142313,135.52457 c -2.401399,3.19762 -2.150352,7.62235 -2.508053,11.76559 3.334444,-3.19855 6.680002,-5.80693 10.032552,-8.03082 -1.937547,0.38302 -4.02847,0.5364 -5.749812,0.0393 -1.763272,-0.50926 -2.308262,-2.17225 -1.767175,-3.77232 z" />
  <path
     style="color:#000000;fill:#b55728;fill-opacity:1;stroke-width:0.174806;stroke-linecap:round;stroke-linejoin:round;-inkscape-stroke:none"
     d="m 65.518178,137.76017 a 0.34961148,0.34961148 0 0 0 -0.277572,0.40902 c 1.053785,5.50858 2.852169,7.90421 4.432963,10.91546 a 0.34961148,0.34961148 0 0 0 0.472182,0.14715 0.34961148,0.34961148 0 0 0 0.146809,-0.47184 c -1.610966,-3.06871 -3.331949,-5.32013 -4.365364,-10.72221 a 0.34961148,0.34961148 0 0 0 -0.409018,-0.27758 z"
     id="path12676" />
  <path
     style="color:#000000;fill:#b55728;fill-opacity:1;stroke-width:0.174806;stroke-linecap:round;stroke-linejoin:round;-inkscape-stroke:none"
     d="m 74.755228,141.91079 c -4.277832,0.66679 -8.578628,1.39712 -12.944501,2.85937 a 0.34961148,0.34961148 0 0 0 -0.220556,0.44247 0.34961148,0.34961148 0 0 0 0.442477,0.22056 c 4.301153,-1.44057 8.559003,-2.16557 12.830467,-2.83138 a 0.34961148,0.34961148 0 0 0 0.291571,-0.39946 0.34961148,0.34961148 0 0 0 -0.399458,-0.29156 z"
     id="path12872" />
  <path
     id="rect13452"
     style="fill:#fed0c5;fill-opacity:1;stroke-width:0.699223;stroke-linecap:round;stroke-linejoin:round"
     d="m 56.413886,156.08971 1.461775,2.69898 -0.05407,1.68304 -0.51844,4.20949 -1.270705,-0.11341 -1.050901,-4.43162 z"
     sodipodi:nodetypes="ccccccc" />
  <path
     id="rect14044"
     style="fill:#ffec22;fill-opacity:1;stroke-width:0.699223;stroke-linecap:round;stroke-linejoin:round"
     d="m 57.821595,160.47173 4.875542,2.99128 -1.517975,4.15839 -3.876007,-2.94018 z"
     sodipodi:nodetypes="ccccc" />
  <path
     id="rect14208"
     style="fill:#fed0c5;fill-opacity:1;stroke-width:0.699223;stroke-linecap:round;stroke-linejoin:round"
     d="m 62.697137,163.46301 c 2.916955,-0.44224 4.989138,2.13253 11.443675,1.27646 3.143247,-0.41689 6.128455,-1.95453 8.843793,-5.40299 -0.854191,2.95753 -0.399308,5.74679 -4.346377,9.1019 L 61.179162,167.6214 Z"
     sodipodi:nodetypes="cscccc" />
  <path
     id="rect14901"
     style="fill:#fed0c5;fill-opacity:1;stroke-width:0.699223;stroke-linecap:round;stroke-linejoin:round"
     d="m 78.59985,146.08258 c -0.306204,-3.30447 -0.06814,-6.25013 4.871373,-6.18659 1.522134,-0.0246 2.417897,0.67885 3.581488,1.56574 l 6.443547,2.26447 c -7.027253,5.80505 -6.50113,11.21245 -6.614707,16.59545 -4.204102,-6.15521 -7.668182,-7.77726 -8.281701,-14.23907 z"
     sodipodi:nodetypes="cccccc" />
  <circle
     style="fill:#473d3a;fill-opacity:1;stroke-width:0.699223;stroke-linecap:round;stroke-linejoin:round;stroke-miterlimit:4;stroke-dasharray:none"
     id="path16126"
     cx="98.708206"
     cy="156.29179"
     r="14.708207" />
  <path
     id="path16709"
     style="fill:#473d3a;fill-opacity:1;stroke-width:0.699223;stroke-linecap:round;stroke-linejoin:round;stroke-miterlimit:4;stroke-dasharray:none"
     d="m 48.408203,146.952 c -3.789815,0.01 -7.166704,2.29413 -8.443359,5.86245 3.990576,4.01553 8.396115,7.59614 13.142578,10.68164 2.662844,-1.63213 3.887659,-4.52911 3.892578,-7.65234 1.06e-4,-4.96629 -3.625504,-8.89186 -8.591797,-8.89175 z"
     sodipodi:nodetypes="ccccc" />
  <path
     id="path91219"
     style="opacity:0.2;fill:#000000;fill-opacity:1;stroke-width:0.699223;stroke-linecap:round;stroke-linejoin:round;filter:url(#filter91257)"
     d="M 48.051944,46.00005 C 39.733547,46.179354 31.198031,52.371711 33.382,63.831381 38.142832,52.551144 48.524625,58.407026 57.319721,60.977813 49.124466,67.155466 44.969257,76.39107 43.090466,86.889691 c -1.756619,-0.517733 -3.269088,-0.893966 -4.61313,-0.889641 -2.814442,0.0091 -4.890351,1.055351 -6.923025,1.534921 0,0 2.733885,5.002896 9.691134,8.751553 -9.335516,8.447626 -8.102162,16.552006 -2.260866,26.738106 2.685628,-3.49765 1.599385,-7.33859 4.738874,-10.5754 2.364452,-2.43775 8.968887,-4.26304 11.074559,-6.84952 3.221871,-3.95755 5.881335,-8.238559 7.183764,-13.299234 6.887591,1.21307 13.268371,0.918515 18.214963,-3.641558 -4.224903,5.953677 -3.639718,9.967433 -4.039992,14.378452 5.634814,1.00488 10.556463,-0.45234 15.340569,-2.38514 7.463616,2.06378 9.177434,-2.460815 13.367514,-4.14788 1.07219,5.37528 0.0148,11.69393 -1.07239,18.02582 4.98487,-0.52357 7.53177,-3.23902 10.10869,-5.92769 -4.40369,10.26518 -9.25409,18.75526 -14.340146,26.30895 -1.159383,1.72189 -3.870401,2.66977 -5.330944,4.39289 -1.901764,2.24366 -2.582351,5.24277 -4.148138,7.26168 11.271698,-4.18095 27.892068,-2.72907 27.794098,-24.36111 8.4807,-3.87396 16.77953,-7.281 16.124,-24.13719 C 132.07336,87.551642 128.41019,79.222509 122.18699,73.08516 118.61654,66.282255 107.40506,52.580291 84.966,52.954503 75.570465,53.111191 68.14331,54.888288 62.286321,57.884572 61.267869,49.478636 54.699039,45.856771 48.051944,46.00005 Z"
     sodipodi:nodetypes="scccscccsscccccccssccccscs" />
  <path
     id="rect5046"
     style="fill:#fa858f;fill-opacity:1;stroke-width:0.699223;stroke-linecap:round;stroke-linejoin:round"
     d="M 48.051944,45 C 39.733547,45.179304 31.198031,51.371661 33.382,62.831331 38.142832,51.551094 48.524625,57.406976 57.319721,59.977763 49.124466,66.155416 44.969257,75.39102 43.090466,85.889641 41.333847,85.371908 39.821378,84.995675 38.477336,85 c -2.814442,0.0091 -4.890351,1.055351 -6.923025,1.534921 0,0 2.733885,5.002896 9.691134,8.751553 -9.335516,8.447626 -8.102162,16.552006 -2.260866,26.738106 2.685628,-3.49765 1.599385,-7.33859 4.738874,-10.5754 2.364452,-2.43775 8.968887,-4.26304 11.074559,-6.84952 3.221871,-3.95755 5.881335,-8.238559 7.183764,-13.299234 6.887591,1.21307 13.268371,0.918515 18.214963,-3.641558 -4.224903,5.953677 -3.639718,9.967433 -4.039992,14.378452 5.634814,1.00488 10.556463,-0.45234 15.340569,-2.385141 7.463616,2.063781 9.177434,-2.460814 13.367514,-4.147879 1.07219,5.37528 0.0148,11.69393 -1.07239,18.02582 4.98487,-0.52357 7.53177,-3.23902 10.10869,-5.92769 -4.40369,10.26518 -9.25409,18.75526 -14.340146,26.30895 -1.159383,1.72189 -3.870401,2.66977 -5.330944,4.39289 -1.901764,2.24366 -2.582351,5.24277 -4.148138,7.26168 C 101.3536,141.385 117.97397,142.83688 117.876,121.20484 126.3567,117.33088 134.65553,113.92384 134,97.06765 132.07336,86.551592 128.41019,78.222459 122.18699,72.08511 118.61654,65.282205 107.40506,51.580241 84.966,51.954453 75.570465,52.111141 68.14331,53.888238 62.286321,56.884522 61.267869,48.478586 54.699039,44.856721 48.051944,45 Z"
     sodipodi:nodetypes="scccscccsscccccccssccccscs" />
  <path
     id="rect8419"
     style="fill:#d8dae7;fill-opacity:1;stroke-width:0.699223;stroke-linecap:round;stroke-linejoin:round"
     d="M 20.230469 121.19336 A 80 80 0 0 0 48.140625 159.85156 L 51.865234 134.72266 C 52.601079 129.75635 46.808748 127.07706 43.501953 125.96484 C 35.074376 123.13028 27.51532 121.91852 20.230469 121.19336 z " />
  <path
     id="path9287"
     style="fill:#b5bad2;fill-opacity:1;stroke-width:0.699223;stroke-linecap:round;stroke-linejoin:round"
     d="M 20.230469 121.19727 A 80 80 0 0 0 41.763672 154.61328 L 44.748047 133.45312 C 45.483892 128.48682 39.691561 125.80753 36.384766 124.69531 C 32.852666 123.50732 29.474932 122.60812 26.203125 121.9043 C 24.182083 121.61365 22.199449 121.39383 20.230469 121.19727 z " />
  <path
     id="path9447"
     style="fill:#c3873f;fill-opacity:1;stroke-width:0.567049;stroke-linecap:round;stroke-linejoin:round"
     d="M 22.175781 126.4082 A 80 80 0 0 0 36.71875 149.56836 L 38.431641 135.92969 C 39.02839 131.90217 34.330147 129.7301 31.648438 128.82812 C 28.784012 127.86471 26.045914 127.13523 23.392578 126.56445 C 22.983273 126.50559 22.582023 126.46149 22.175781 126.4082 z " />
  <path
     id="ellipse91476"
     style="opacity:0.2;fill:#000000;fill-opacity:1;stroke-width:1.05234;stroke-linecap:round;stroke-linejoin:round;stroke-miterlimit:4;stroke-dasharray:none;filter:url(#filter91517)"
     d="m 142.67188,126.92188 -17.81446,14.0039 A 20,24.5 0 0 0 114,137 20,24.5 0 0 0 94,161.5 20,24.5 0 0 0 114,186 20,24.5 0 0 0 131.32422,173.62305 l 15.81445,2.60547 15.75586,-27.36524 z" />
  <ellipse
     style="fill:#b5bad2;fill-opacity:1;stroke-width:1.05234;stroke-linecap:round;stroke-linejoin:round;stroke-miterlimit:4;stroke-dasharray:none"
     id="circle16354"
     cx="114"
     cy="159.5"
     rx="20"
     ry="24.5" />
  <path
     id="rect16396"
     style="fill:#d8dae7;fill-opacity:1;stroke-width:0.699223;stroke-linecap:round;stroke-linejoin:round"
     d="m 109.35988,159.10157 4.59662,-11.60511 28.71447,-22.5737 20.2242,21.94062 -15.75697,27.36584 -36.26656,-5.97585 z"
     sodipodi:nodetypes="ccccccc" />
  <path
     id="circle88084"
     style="opacity:0.1;fill:#ffffff;fill-opacity:1;stroke-width:59.8306;stroke-linecap:round;stroke-linejoin:round;stroke-miterlimit:4;stroke-dasharray:none"
     d="M 96 16 A 80 80 0 0 0 16 96 A 80 80 0 0 0 16.035156 96.5 A 80 80 0 0 1 96 17 A 80 80 0 0 1 175.98242 96.253906 A 80 80 0 0 0 176 96 A 80 80 0 0 0 96 16 z " />
  <path
     id="path3422"
     style="fill:#3f3f3f;fill-opacity:1;stroke-width:0.699223;stroke-linecap:round;stroke-linejoin:round"
     d="m 99.453742,102.00335 c -2.559927,-0.0242 -5.026139,1.04306 -6.633742,3.07651 3.051617,-1.12984 7.089398,-0.8771 10.51771,1.09698 2.82619,1.62737 2.37435,4.32754 2.66203,7.63716 0.79256,-1.62617 1.2777,-3.31424 1.28988,-4.90036 1.48349,0.0135 2.80234,-0.9535 3.93449,-1.71699 -1.30455,0.0239 -2.64719,0.39566 -4.1431,-0.0649 -0.39174,-1.52992 -1.35634,-2.88396 -3.08368,-3.87918 -1.43803,-0.82737 -3.00763,-1.2347 -4.543588,-1.24925 z" />
  <path
     id="path3010"
     style="fill:#3f3f3f;fill-opacity:1;stroke-width:0.699223;stroke-linecap:round;stroke-linejoin:round"
     d="m 70.029668,94.154902 a 8.8615256,8.2963864 0 0 0 -8.774769,7.160888 c 2.080735,-2.501888 5.706068,-4.29776 9.662114,-4.29776 3.261239,-2e-6 6.052499,2.173403 7.953319,4.89797 a 8.8615256,8.2963864 0 0 0 -1.07683,-3.426461 c 1.626706,-0.694924 2.555639,-2.138442 3.825241,-3.216494 -1.574963,0.699541 -3.122691,1.434692 -5.267388,1.387862 a 8.8615256,8.2963864 0 0 0 -6.321687,-2.506005 z" />
  <path
     id="path90963"
     style="fill:#ffffff;fill-opacity:1;stroke-width:0.699223;stroke-linecap:round;stroke-linejoin:round;opacity:0.2"
     d="M 48.052734 45 C 40.567528 45.161344 32.932796 50.206875 33.064453 59.5625 C 33.467623 50.843548 40.836553 46.155546 48.052734 46 C 54.699829 45.856721 61.268657 49.47883 62.287109 57.884766 C 68.144098 54.888482 75.571262 53.111766 84.966797 52.955078 C 107.40586 52.580866 118.61705 66.283033 122.1875 73.085938 C 128.4107 79.223287 132.07336 87.552301 134 98.068359 C 134.02859 98.803559 134.01842 99.480832 134.01367 100.16602 C 134.04372 99.185385 134.04236 98.157543 134 97.068359 C 132.07336 86.552301 128.4107 78.223286 122.1875 72.085938 C 118.61705 65.283033 107.40586 51.580866 84.966797 51.955078 C 75.571262 52.111766 68.144098 53.888482 62.287109 56.884766 C 61.268657 48.47883 54.699829 44.856721 48.052734 45 z M 56.429688 60.693359 C 48.829239 66.85774 44.898394 75.782554 43.089844 85.888672 C 41.333225 85.370939 39.820605 84.995675 38.476562 85 C 35.662121 85.0091 33.587361 86.055586 31.554688 86.535156 C 31.554688 86.535156 31.726476 86.850388 32.09375 87.380859 C 33.960614 86.863998 35.907949 86.008305 38.476562 86 C 39.820605 85.995675 41.333225 86.372892 43.089844 86.890625 C 44.968635 76.392004 49.125057 67.156169 57.320312 60.978516 C 57.028911 60.89334 56.72431 60.785005 56.429688 60.693359 z M 80.197266 88.658203 C 79.764903 89.056782 79.316939 89.412802 78.863281 89.748047 C 76.105212 94.593045 76.50782 98.16281 76.15625 102.03711 C 76.177387 102.04088 76.197633 102.04122 76.21875 102.04492 C 76.481303 98.011816 76.292883 94.160207 80.197266 88.658203 z M 40.609375 95.904297 C 36.150799 100.16552 34.347547 104.35801 34.443359 108.78711 C 34.632175 104.5116 36.656303 100.44037 41.246094 96.287109 C 41.016791 96.163558 40.829556 96.030349 40.609375 95.904297 z M 105.29492 100.57031 C 105.28429 104.67292 104.55451 109.09403 103.79297 113.5293 C 103.85308 113.52298 103.90348 113.5089 103.96289 113.50195 C 104.7207 109.05275 105.40926 104.63315 105.29492 100.57031 z M 113.90039 108.60156 C 113.63652 108.87687 113.36159 109.14253 113.0957 109.41602 C 108.90717 118.86566 104.34059 126.81291 99.560547 133.91211 C 98.401164 135.634 95.691012 136.58157 94.230469 138.30469 C 92.328705 140.54835 91.647818 143.5475 90.082031 145.56641 C 90.346402 145.46834 90.626514 145.38716 90.896484 145.29492 C 91.948638 143.41189 92.694841 141.11639 94.230469 139.30469 C 95.691012 137.58157 98.401164 136.634 99.560547 134.91211 C 104.6466 127.35842 109.4967 118.86674 113.90039 108.60156 z " />
  <path
     id="path91318"
     style="fill:#ffffff;fill-opacity:1;stroke-width:0.699223;stroke-linecap:round;stroke-linejoin:round;opacity:0.2"
     d="m 109.35988,159.10157 4.59662,-11.60511 28.71447,-22.5737 20.2242,21.94062 z"
     sodipodi:nodetypes="ccccc" />
</svg>
