<?xml version="1.0" encoding="UTF-8" standalone="no"?>
<svg
   width="192"
   height="192"
   version="1"
   id="svg28"
   sodipodi:docname="games_dragon_nest_m_classic.svg"
   inkscape:version="1.1.1 (1:1.1+202109281949+c3084ef5ed)"
   xmlns:inkscape="http://www.inkscape.org/namespaces/inkscape"
   xmlns:sodipodi="http://sodipodi.sourceforge.net/DTD/sodipodi-0.dtd"
   xmlns="http://www.w3.org/2000/svg"
   xmlns:svg="http://www.w3.org/2000/svg"
   xmlns:rdf="http://www.w3.org/1999/02/22-rdf-syntax-ns#"
   xmlns:cc="http://creativecommons.org/ns#"
   xmlns:dc="http://purl.org/dc/elements/1.1/">
  <metadata
     id="metadata34">
    <rdf:RDF>
      <cc:Work
         rdf:about="">
        <dc:format>image/svg+xml</dc:format>
        <dc:type
           rdf:resource="http://purl.org/dc/dcmitype/StillImage" />
      </cc:Work>
    </rdf:RDF>
  </metadata>
  <defs
     id="defs32">
    <filter
       inkscape:collect="always"
       style="color-interpolation-filters:sRGB"
       id="filter24163"
       x="-0.043764629"
       y="-0.053142967"
       width="1.0875293"
       height="1.1062859">
      <feGaussianBlur
         inkscape:collect="always"
         stdDeviation="3.1000081"
         id="feGaussianBlur24165" />
    </filter>
  </defs>
  <sodipodi:namedview
     pagecolor="#ffffff"
     bordercolor="#666666"
     borderopacity="1"
     objecttolerance="10"
     gridtolerance="10"
     guidetolerance="10"
     inkscape:pageopacity="0"
     inkscape:pageshadow="2"
     inkscape:window-width="1920"
     inkscape:window-height="1019"
     id="namedview30"
     showgrid="false"
     inkscape:zoom="1"
     inkscape:cx="22"
     inkscape:cy="84.5"
     inkscape:window-x="0"
     inkscape:window-y="34"
     inkscape:window-maximized="1"
     inkscape:current-layer="svg28"
     inkscape:pagecheckerboard="0"
     inkscape:snap-global="true"
     showguides="true"
     inkscape:snap-bbox="true"
     inkscape:snap-bbox-midpoints="true">
    <inkscape:grid
       type="xygrid"
       id="grid841" />
  </sodipodi:namedview>
  <path
     id="path7288"
     style="color:#000000;opacity:1;fill:#774f27;stroke-linecap:square;stroke-linejoin:bevel;-inkscape-stroke:none;fill-opacity:1"
     d="M 106.35156 30.609375 C 104.92468 30.612575 103.54797 30.694155 102.05859 30.84375 C 99.205038 31.130366 97.158397 31.442404 95.728516 31.857422 C 95.013575 32.064931 94.448547 32.28989 93.978516 32.626953 C 93.508484 32.964016 93.095703 33.535341 93.095703 34.177734 C 93.095703 34.577386 93.286731 35.054671 93.589844 35.351562 C 93.892956 35.648455 94.240829 35.806336 94.628906 35.935547 C 95.40506 36.193968 96.425903 36.337505 97.958984 36.492188 C 102.69892 36.970436 110.8769 38.923758 116.31836 40.890625 C 121.67368 42.826344 124.48125 44.1634 130.6543 47.71875 C 134.90538 50.16715 140.85738 54.811958 144.33984 58.402344 C 145.43428 59.530695 146.83245 61.083907 148.0293 62.478516 C 149.22614 63.873124 150.26881 65.194317 150.49609 65.560547 C 150.73179 65.94035 151.29247 66.716673 151.875 67.5 C 152.43279 68.250072 153.14132 69.273614 153.36914 69.646484 C 153.63872 70.087719 153.92226 70.463018 154.23047 70.767578 C 154.53868 71.072138 154.81712 71.410156 155.52344 71.410156 C 155.96702 71.410156 155.98696 71.304643 156.0625 71.261719 C 156.138 71.218799 156.18703 71.184489 156.23633 71.148438 C 156.33493 71.076337 156.42857 70.998764 156.5332 70.908203 C 156.73328 70.735034 156.96902 70.512115 157.21289 70.269531 C 158.41965 69.162888 159.28039 68.729291 160.23828 68.617188 C 161.1957 68.505141 162.3778 68.74836 164.08984 69.314453 C 164.08984 69.314453 164.0918 69.314453 164.0918 69.314453 C 165.15262 69.710866 165.84526 69.957122 166.37109 70.09375 C 166.90502 70.23248 167.42921 70.300566 167.91992 70.037109 C 168.13275 69.922843 168.29503 69.786168 168.4375 69.609375 C 168.57997 69.432582 168.74609 69.22777 168.74609 68.785156 C 168.74609 68.424801 168.68996 68.436599 168.66406 68.367188 C 168.63816 68.297777 168.61298 68.239516 168.58398 68.175781 C 168.52598 68.048312 168.45303 67.903376 168.36523 67.732422 C 168.18965 67.390513 167.95513 66.953397 167.69141 66.478516 C 167.16396 65.528753 166.53167 64.437813 166.06641 63.703125 C 165.36418 62.594251 163.13298 59.543082 162.08008 58.234375 C 158.45922 53.733886 155.83076 51.021359 152.29492 48.140625 C 151.44113 47.44501 150.46497 46.647817 150.12695 46.371094 C 148.85695 45.331393 146.53613 43.692362 144.32422 42.263672 C 142.33822 40.980901 141.03124 40.223076 136.6875 37.830078 C 131.44748 34.943338 122.28982 32.232432 114.65625 31.251953 C 111.23563 30.812607 108.72971 30.60397 106.35156 30.609375 z M 103.02148 41.880859 C 101.77235 41.851019 100.82662 42.084361 100.125 42.654297 C 99.928904 42.813591 99.646413 43.039787 99.523438 43.484375 C 99.400464 43.928963 99.522498 44.257773 99.605469 44.496094 C 99.854637 45.211816 100.36608 45.59364 100.9668 45.976562 C 101.56751 46.359485 102.30565 46.694057 103.14258 46.96875 C 106.54871 48.086688 112.51604 50.836271 115.28711 52.554688 C 119.37152 55.087559 121.49862 56.665001 125.10547 59.833984 C 128.53718 62.849055 133.71061 69.322485 136.26367 73.828125 C 136.56102 74.352879 136.80203 74.76805 137.06055 75.117188 C 137.31906 75.466326 137.60545 75.799138 138.09766 75.976562 C 138.58986 76.153988 139.15244 76.020912 139.51758 75.822266 C 139.88272 75.623619 140.17294 75.374569 140.51953 75.070312 L 140.55078 75.041016 C 141.63616 74.001139 142.51647 73.688603 143.47461 73.662109 C 144.43275 73.635619 145.52562 73.960297 146.79297 74.443359 L 146.79492 74.445312 C 147.78195 74.818439 148.37814 75.0386 148.95312 75.115234 C 149.24062 75.153554 149.59754 75.192594 150.01172 74.919922 C 150.42589 74.647248 150.56641 74.118034 150.56641 73.832031 C 150.56641 73.201653 150.36708 72.956339 150.14062 72.507812 C 149.91418 72.059287 149.61008 71.539671 149.24609 70.966797 C 148.51812 69.821048 147.55561 68.473038 146.55859 67.244141 C 145.8667 66.391347 145.09271 65.423013 144.87695 65.142578 C 143.36327 63.17497 138.21853 58.413524 136.00586 56.884766 C 135.52977 56.555836 134.17836 55.595867 133.03906 54.775391 C 128.96737 51.843087 125.08618 49.551527 119.48047 46.769531 C 113.31236 43.708431 109.32042 42.426653 104.44141 41.972656 C 103.90144 41.922416 103.43736 41.890799 103.02148 41.880859 z M 106.48633 53.673828 C 105.8046 53.659958 105.12085 53.909534 104.65039 54.306641 C 104.53059 54.407768 104.39781 54.510048 104.24609 54.695312 C 104.09438 54.880578 103.96207 55.150631 103.9043 55.392578 C 103.78875 55.876473 103.81641 56.276814 103.81641 57.076172 C 103.81641 59.816891 103.11781 62.363342 102.22461 63.583984 C 101.99524 63.897443 101.80184 64.173291 101.65625 64.513672 C 101.51066 64.854053 101.42957 65.324462 101.5625 65.753906 C 101.82827 66.612795 102.4512 66.934458 103.24023 67.447266 C 103.84079 67.837588 104.54497 68.31549 104.68945 68.421875 C 104.93435 68.602189 105.54993 69.036221 106.10938 69.425781 C 106.61239 69.776046 107.62435 70.558266 108.26172 71.09375 C 108.64116 71.412519 109.00413 71.687477 109.32812 71.898438 C 109.49012 72.003918 109.64062 72.093038 109.79883 72.169922 C 109.95703 72.246802 110.0702 72.345703 110.4668 72.345703 C 111.09797 72.345703 111.41714 72.102139 111.81445 71.837891 C 112.21177 71.573642 112.61742 71.230696 113.00977 70.828125 C 113.25102 70.580586 114.35989 70.16709 116.17773 70.167969 C 120.37327 70.300171 124.85854 72.517852 128.17969 74.384766 C 128.5934 74.646499 128.91393 74.831253 129.31445 74.939453 C 129.41865 74.967603 129.53112 74.996071 129.70703 74.994141 C 129.88294 74.992241 130.19039 74.964121 130.47656 74.675781 C 130.76274 74.387447 130.80397 73.945707 130.76172 73.722656 C 130.71952 73.499606 130.6496 73.383237 130.58594 73.279297 C 129.99019 72.306606 127.79054 69.383573 126.8125 68.212891 C 124.0559 64.913383 120.23956 61.283284 117.43164 59.326172 C 116.92822 58.975299 116.12092 58.400143 115.66016 58.064453 C 114.50946 57.226127 112.93795 56.275 111.46875 55.480469 C 109.99955 54.685937 108.7716 54.062501 107.81836 53.857422 C 107.31816 53.749807 106.89511 53.682144 106.48633 53.673828 z M 79.476562 65.400391 L 78.734375 65.490234 L 68.146484 71.322266 L 67.796875 72.751953 L 74.216797 82.369141 L 74.789062 82.779297 L 82.513672 84.863281 C 92.889363 87.662858 100.26506 96.685177 100.94922 107.41016 C 101.63337 118.13514 95.463214 128.01996 85.527344 132.11523 L 78.130859 135.16211 L 77.642578 135.58984 L 74.255859 141.5293 C 71.196708 141.4541 66.684496 140.70717 64.296875 139.83984 C 62.722081 139.26777 58.242437 137.27018 56.730469 136.46484 C 55.94314 136.04547 54.262582 135.18229 52.964844 134.5293 C 52.325271 134.20747 51.719662 133.89434 51.263672 133.65234 C 51.035677 133.53134 50.844444 133.42656 50.710938 133.35156 C 50.577433 133.27656 50.40001 133.13302 50.591797 133.29297 L 50.458984 133.19922 C 46.581204 130.91533 42.016374 129.06634 37.890625 128.17383 L 37.888672 128.17188 C 35.404651 127.63997 32.880805 127.32991 30.439453 127.39258 C 27.997686 127.45528 25.632997 127.89459 23.5 128.88477 L 23.496094 128.88672 C 19.868507 130.59206 16.956931 133.38366 15.326172 136.76953 L 15.316406 136.78906 C 13.07335 141.70883 13.777172 147.94045 17.439453 151.36914 L 17.457031 151.38477 C 19.02082 152.78366 20.982739 153.48103 23.421875 153.54297 L 23.429688 153.54297 C 25.704912 153.58387 28.028638 152.78458 29.617188 150.64258 L 29.625 150.63281 C 30.630372 149.24182 30.925781 147.73018 30.951172 146.62695 C 30.963872 146.07534 30.921682 145.64414 30.810547 145.26172 C 30.782767 145.16612 30.750967 145.07131 30.693359 144.95703 C 30.635749 144.84275 30.582759 144.69004 30.292969 144.50195 C 30.148074 144.40795 29.907084 144.31429 29.642578 144.33594 C 29.378072 144.35754 29.151079 144.491 29.021484 144.61133 C 28.762296 144.85198 28.73848 145.01763 28.701172 145.14453 L 28.662109 145.36523 C 28.592579 146.51407 28.341452 147.47363 27.867188 148.22266 C 27.39575 148.96722 26.705715 149.54891 25.548828 149.95703 C 23.324904 150.65567 21.58272 150.28919 19.923828 148.79297 C 18.881822 147.85315 18.117447 146.09412 17.896484 144.10352 C 17.675522 142.11291 17.987234 139.92314 18.841797 138.19531 C 19.956094 135.94231 22.448307 133.33059 24.708984 132.55273 C 28.639234 131.20042 31.272965 131.24495 35.275391 131.98633 C 39.980714 132.87639 44.550484 135.39762 48.183594 137.55273 C 49.804258 138.52155 51.610738 139.58147 52.263672 139.94531 C 52.855766 140.27524 53.796835 140.83399 54.296875 141.15039 C 55.800923 142.10211 59.470122 143.95265 60.916016 144.43555 C 61.401781 144.59778 62.298528 144.9213 62.859375 145.13672 C 64.793617 145.8797 69.280655 146.97422 71.417969 147.23242 C 72.430022 147.35467 74.047865 147.53049 75.044922 147.625 C 75.367053 147.6555 75.717309 147.7062 76.078125 147.75781 L 76.183594 147.66602 L 84.152344 151.76758 L 84.990234 151.80273 L 92.386719 148.75391 C 109.38871 141.74652 120.08281 124.61384 118.91211 106.26172 C 117.74142 87.909576 104.95576 72.27493 87.201172 67.484375 L 79.476562 65.400391 z M 88.056641 91 C 87.764157 90.99934 87.462405 91.04571 87.173828 91.160156 C 86.663578 91.36251 86.433687 91.72475 86.263672 92.052734 C 86.093656 92.380719 85.989516 92.725035 85.921875 93.085938 C 85.786593 93.807744 85.747801 94.56864 86.123047 95.326172 C 86.695089 96.480982 87.790165 97.279964 89.361328 97.910156 C 90.073334 98.195738 91.089545 98.755175 91.363281 98.957031 C 92.304368 99.761842 92.38302 100.91514 92.195312 101.87891 L 92.197266 101.87695 C 92.085812 102.44527 91.782289 103.36053 91.671875 103.58203 L 91.628906 103.68164 C 91.131502 105.03095 90.846722 106.52785 90.714844 107.75 L 90.714844 107.75195 C 90.482393 109.95215 90.692984 111.24034 91.746094 114.04688 C 92.370381 115.71059 92.472852 116.11737 92.53125 117.10156 L 92.544922 117.22266 C 92.631282 117.69585 92.607194 117.8216 92.583984 117.88672 C 92.560784 117.95182 92.450625 118.11636 92.121094 118.48047 C 91.621566 119.03241 91.262407 119.28114 89.957031 119.92969 C 88.483679 120.66171 87.858059 121.11285 87.287109 121.85938 C 86.67207 122.66353 86.240941 123.55322 86.023438 124.41602 C 85.805936 125.27881 85.732099 126.16003 86.265625 126.94727 C 86.594105 127.43195 87.108182 127.84301 87.712891 127.96094 C 88.317599 128.07886 88.904292 127.92684 89.451172 127.66406 C 90.800107 127.01597 92.190426 125.69782 93.529297 124.11328 C 94.868167 122.52874 96.102462 120.6851 96.869141 118.95508 C 97.655188 117.18132 98.481818 114.1796 98.689453 112.3125 C 99.381187 106.0925 97.690861 99.953225 93.941406 95.117188 C 93.012434 93.919008 92.008163 92.927606 91.021484 92.208984 C 90.034765 91.490363 89.081507 91.002312 88.056641 91 z " />
  <path
     id="path24125"
     style="opacity:0.2;fill:#000000;fill-opacity:1;stroke-width:0.155628;filter:url(#filter24163)"
     d="m 107.83398,29.001657 c -1.86578,0.01372 -3.72893,0.106251 -5.58007,0.285156 -3.641696,0.257348 -7.979533,1.024944 -10.166019,1.798829 -0.35845,0.126865 -1.228165,0.36756 -1.931641,0.535156 -2.604122,0.620443 -8.582003,3.147532 -11.482422,4.853515 -0.576855,0.339307 -1.525559,0.898158 -2.109375,1.242188 -1.506815,0.887939 -4.111839,3.022424 -5.517578,4.521484 -3.339435,3.561075 -6.82728,8.723984 -7.173828,10.617188 -0.08712,0.475931 -0.04975,0.605416 0.242187,0.810547 0.449877,0.316113 0.734543,0.259094 3.955078,-0.791016 5.589457,-1.822531 5.452234,-1.745073 6.71875,-3.824219 1.446559,-2.374731 2.521415,-3.015312 5.341797,-3.183593 3.89898,-0.232643 8.019655,1.066493 12.25586,3.865234 3.443075,2.274721 5.832285,5.71049 6.160156,8.857422 0.098,0.940484 -0.236801,2.781124 -0.654297,3.597656 -0.333123,0.651493 -1.660996,1.822255 -2.320312,2.044922 -1.130978,0.381986 -3.304712,0.242036 -5.982422,-0.384766 -4.1399,-0.969071 -7.976983,-1.533851 -10.955078,-1.613281 -5.807784,-0.150746 -12.47503,3.27395 -18.542969,7.435547 -3.37856,2.703423 -4.52097,4.200305 -4.658203,6.103516 -0.101993,1.414388 0.444629,1.999677 2.070312,2.222656 1.718181,0.235651 2.116859,0.54844 1.470703,1.152344 -0.697105,0.651508 -3.82289,0.509605 -4.941406,-0.22461 -0.79504,-0.521867 -1.133985,-2.240785 -0.708984,-3.597656 0.399875,-1.276705 1.849229,-3.369124 3.277343,-4.730469 2.072607,-1.975708 5.811569,-4.55874 9.173829,-6.337891 1.544138,-0.817078 5.466272,-2.348351 7.265625,-2.83789 0.68368,-0.18602 1.838043,-0.508533 2.564453,-0.716797 1.84996,-0.530378 5.663347,-1.412193 7.691406,-1.777344 3.840619,-0.691475 6.443011,-1.103515 6.970703,-1.103515 0.700088,0 1.808594,-0.433192 1.808594,-0.707032 0,-0.30023 -1.240213,-0.501998 -4.351563,-0.708984 -7.112354,-0.463087 -16.370987,0.0035 -24.005859,1.027344 -9.476691,1.270828 -17.497813,4.248739 -23.625,12.855468 -0.450794,0.644807 -1.001563,1.342939 -1.222656,1.550782 -0.651407,0.612305 -0.540719,1.109462 0.404297,1.820312 1.483897,1.116216 1.360007,2.129046 -0.484375,3.957032 -2.592002,2.568964 -6.528654,3.918455 -7.425782,2.544921 -0.512915,-0.785295 -0.272323,-3.67682 0.447266,-5.378906 0.473697,-1.120425 0.55951,-1.764708 0.248047,-1.876953 -1.32073,-0.281946 -3.34891,2.104207 -5.052735,4.433594 -2.402094,3.29665 -4.041283,4.711608 -4.894531,9.308594 C 21.88821,87.668417 22.04132,96.132876 22,96.249704 c -3.429743,-2.61604 -5.494141,-7.367188 -5.494141,-7.367188 -0.804961,-0.04024 -1.03802,1.213617 -0.767578,4.140626 0.09901,1.071637 0.181641,2.264601 0.181641,2.65039 0.0011,1.072151 0.552792,3.579065 1.105469,5.019528 1.713473,4.35755 6.741933,3.86379 10.675781,5.7168 2.541084,1.26462 3.326488,1.45267 3.90039,0.93164 0.167968,-0.15249 0.701392,-0.86939 1.185547,-1.5918 2.434196,-3.63215 5.090228,-6.028399 7.513672,-6.779293 1.901485,-0.589174 3.177469,-0.453566 7.72461,0.822266 1.076392,0.302027 1.617172,0.412107 4.039062,0.412107 1.376139,-1.7e-4 4.077908,-0.0626 6.253906,-1.433592 0.71631,-0.65394 0.296518,-1.204192 -1.160156,-1.517578 -0.953593,-0.205162 -2.438377,-1.125796 -3.082031,-1.910156 -1.053706,-1.305183 -2.069618,-3.237916 -2.023438,-4.986328 0.310282,-1.228259 1.186736,-2.723085 1.998047,-3.931641 l -0.117187,0.544922 c -0.265563,1.226202 -0.398525,2.175756 -0.490235,3.513672 -0.116412,1.698454 0.08317,2.202151 1.367188,3.445313 0.964004,0.933329 1.57099,1.272999 2.511719,1.402343 0.769513,0.105808 1.08825,-0.0261 2.123046,-0.873047 1.568814,-1.283999 2.61702,-1.685714 4.740235,-1.820312 1.198973,-0.07602 1.524885,-0.04006 2.292969,0.251953 1.449572,0.551109 1.781049,0.919524 1.910156,2.128906 0.156003,1.461323 -0.07355,2.085357 -1.144531,3.115235 -0.861266,0.828192 -2.372662,1.679153 -4.269532,2.4043 -1.264901,0.48353 -2.195331,1.25491 -2.654297,2.20312 -0.367634,0.75949 -0.41738,1.25366 -0.158203,1.99804 0.133846,0.64298 0.373906,1.55583 0.533203,2.02735 0.776942,2.29993 1.096434,5.16546 0.791016,7.0918 -0.09516,0.60012 -0.522799,2.16511 -0.951172,3.47851 -0.831867,2.55058 -0.908424,3.10812 -0.550781,3.9668 0.521632,1.25242 1.584287,2.03639 3.556641,2.625 2.882038,0.86009 4.281844,2.10361 4.603515,4.08984 0.310313,1.91615 -0.434366,3.1339 -2.546875,4.15625 -2.253984,1.09083 -4.691458,1.17648 -8.21875,0.29297 -5.795011,-1.46493 -13.025508,-4.29076 -19.375,-6.75391 0.05758,-0.28291 0.535156,-0.79492 0.535156,-0.79492 0.296205,-0.55177 2.254545,-2.4196 3.425782,-3.26758 2.062305,-1.49314 1.606104,-1.7539 -2.175782,-1.24804 -5.049644,0.67545 -12.236081,3.20157 -16.121093,5.66797 -3.733064,2.36991 -7.594815,5.88059 -9.267578,8.42382 -1.057669,1.60804 -2.085075,3.66611 -2.730469,5.47266 -0.890834,2.49368 -0.893136,7.55504 -0.0059,10.22461 0.975939,2.93638 2.599912,5.25147 4.779297,6.80859 5.867109,4.33329 17.942443,2.47073 16.894532,-7.75 -0.522782,-5.09898 -5.775984,-9.68064 -9.90625,-5.54101 -0.472004,0.70264 -0.397374,0.93986 0.433593,1.37304 1.802133,0.98749 3.876773,3.64378 1.873047,5.47266 -0.937124,0.85534 -2.767072,0.54245 -3.820312,-0.2168 -1.253729,-0.86621 -1.688453,-1.84182 -1.757813,-3.93164 -0.08176,-2.46316 0.394673,-3.8226 1.896485,-5.39258 1.94047,-2.00471 4.220594,-2.0623 6.623047,-2.20898 3.450051,0.0138 7.369506,0.78098 11.109374,3.87891 1.086042,0.8892 1.15651,1.00332 1.16211,1.89062 0.004,0.63195 -0.105197,0.97268 -0.548828,1.71485 -0.304471,0.50935 -0.786663,1.17064 -1.070313,1.4707 -0.283649,0.30006 -0.595839,0.70165 -0.693359,0.89258 -0.15936,0.31198 -0.111807,0.39522 0.457031,0.80859 2.304359,1.13422 7.518775,1.80226 9.162109,0.96484 2.129787,1.73357 6.704025,4.61456 9.261719,5.83399 2.185227,1.04187 2.278472,1.16132 1.96875,2.52344 -0.258416,1.13651 -1.129765,3.13291 -1.884765,4.32226 -0.560307,0.88267 -0.619462,1.40872 -0.1875,1.64063 0.868771,0.46642 6.237394,-0.19994 8.939453,-1.10938 1.42987,-0.48125 3.714706,-1.62427 4.134765,-2.06836 0.472609,-0.49965 1.186369,-0.52002 3.699219,-0.10351 2.340485,0.38794 6.514456,0.68028 7.8125,0.54687 1.139772,-0.11714 2.060744,0.10007 2.224609,0.52539 0.201841,0.52393 0.391959,3.71971 0.292969,4.92774 -0.08603,1.04997 -0.06385,1.26093 0.158203,1.42382 0.379334,0.27826 1.422665,0.007 2.271485,-0.58984 1.149981,-0.809 3.410714,-2.75733 4.757812,-4.09961 1.018979,-1.01537 1.386568,-1.51611 1.896485,-2.58789 0.5978,-1.25649 0.68084,-1.3547 1.533203,-1.80859 0.495745,-0.26399 1.531641,-0.74069 2.300781,-1.0586 3.15107,-1.30239 5.89766,-2.87285 8.77734,-5.01757 1.06825,-0.79562 2.17594,-1.52464 2.46094,-1.61914 0.47076,-0.15606 0.55929,-0.13205 0.96289,0.25585 0.42713,0.41052 0.7393,1.0616 1.64063,3.42383 0.4913,1.28762 0.62477,1.48242 1.02148,1.48242 0.51749,0 1.51351,-0.60981 1.87695,-1.14843 1.4831,-2.19802 2.20499,-3.36852 2.37696,-3.85743 0.11027,-0.31357 0.30692,-0.7779 0.4375,-1.03124 0.13058,-0.25333 0.52067,-1.44266 0.86719,-2.64258 0.72213,-2.50068 1.10923,-4.87934 0.83593,-6.47852 l -0.23242,-1.35547 c 0.89607,-2.58122 2.35492,-4.89445 3.27539,-7.49219 0.92143,-2.50296 1.80012,-4.6863 2.21094,-5.49414 0.26001,-0.51127 0.36772,-0.58398 0.85156,-0.58398 0.60739,0 2.8112,1.07067 4.61524,2.24219 1.44117,0.93589 2.75508,1.12195 2.97656,0.42187 0.1562,-0.49374 -0.21163,-5.21784 -0.52344,-6.71679 -0.42155,-2.02645 -1.30241,-4.8708 -2.02539,-6.54297 -0.68484,-1.584 -2.11099,-3.85994 -2.90234,-4.63086 -0.2941,-0.28653 -0.60807,-0.71239 -0.69727,-0.94727 -0.0892,-0.23491 -0.29849,-1.75978 -0.46484,-3.38867 -0.16635,-1.62888 -0.43645,-3.83852 -0.59961,-4.91015 -0.51067,-3.353702 -0.51116,-3.370094 -0.1211,-3.816408 0.58515,-0.669558 1.97786,-1.059985 3.84375,-1.078126 0.89733,-0.0087 2.1238,0.04604 2.72657,0.121094 1.30755,0.16278 1.62304,-0.0285 1.62304,-0.980468 0,-0.718332 -1.24753,-3.351677 -2.20312,-4.650391 -1.04972,-1.426625 -3.33201,-3.876555 -4.45508,-4.78125 -1.46731,-1.182011 -4.19007,-2.983864 -5.22461,-3.458985 -1.72031,-0.768633 -3.54492,-0.826171 -3.54492,-0.826171 -0.53489,-0.981479 9.3e-4,0.0011 -1.15039,-1.689453 -0.27038,-0.397028 -0.65961,-0.831593 -1.12695,-1.408204 -0.6452,-0.796004 -1.39847,-1.527624 -1.67383,-1.871093 -0.5485,-0.684149 -0.9177,-1.692286 -0.76563,-2.089844 0.13538,-0.353912 1.63315,-1.009654 2.55469,-1.119141 1.65083,-0.196136 4.12834,0.311031 7.46094,1.931641 2.61292,1.270641 4.21211,2.298807 7.74218,4.974609 1.25634,0.952299 3.05863,2.870539 3.55274,3.78125 0.49068,0.904383 0.63706,2.062715 0.41211,3.273438 -0.2903,1.562422 -0.0819,1.947622 2.17578,4.021484 3.08949,2.837974 3.87682,3.876677 6.19141,8.177738 0.98929,1.83832 1.02192,1.87887 1.58398,1.92577 1.31209,0.10941 1.4917,-0.86538 0.81055,-4.373039 -0.90617,-4.666427 -1.80426,-7.513337 -3.71289,-12.386719 -0.62117,-1.586022 -1.17994,-3.04499 -1.24024,-3.242187 -0.2308,-0.754197 -0.11034,-1.765808 0.3125,-2.632813 0.47651,-0.977037 1.07271,-1.33718 2.50781,-1.515625 1.84616,-0.229572 5.00561,0.705137 7.1543,2.519531 1.33734,1.129279 1.51665,1.595072 1.36133,3.53125 -0.13035,1.625053 0.14725,2.243908 1.42578,3.191407 1.49178,1.105523 3.47428,3.2428 4.60938,4.96875 0.58941,0.896216 1.32953,2.016761 1.64453,2.488281 0.31499,0.47152 0.74739,1.241371 0.96289,1.71289 0.58911,1.289051 0.91624,1.621094 1.59375,1.621094 0.32687,0 0.64031,-0.09598 0.72851,-0.224609 0.0945,-0.137793 0.11966,-0.924738 0.0645,-2.015625 -0.23643,-4.676559 -1.9546,-10.837998 -4.45703,-16.458984 -0.75272,-1.690693 -0.83204,-1.977325 -0.83204,-2.97461 0,-0.954964 0.0616,-1.205865 0.4668,-1.863281 0.63354,-1.027961 1.20402,-1.331185 2.69336,-1.433594 2.70854,-0.186239 4.5225,0.290884 7.95898,2.732422 1.12822,0.801553 1.26707,1.204573 1.14844,3.335937 -0.0592,1.063547 -0.0315,1.768956 0.0762,1.970704 0.0922,0.172834 0.9446,0.995698 1.89453,1.830078 0.94994,0.834364 2.27682,2.19241 2.94922,3.017578 1.24407,1.526712 3.03398,4.370143 3.75977,5.972656 0.34987,0.772529 0.48019,0.909965 1.01367,1.070313 0.77971,0.234357 1.26859,0.01044 1.30469,-0.597657 0.2715,-4.56673 -2.19256,-14.007232 -5.63281,-21.580078 -1.71319,-3.771209 -3.32229,-6.807108 -4.64649,-8.771484 -0.23117,-0.342923 -0.79792,-1.220506 -1.25976,-1.949219 -0.7669,-1.210084 -1.38779,-2.070978 -3.25977,-4.519531 -1.19402,-1.561799 -3.65636,-4.257816 -5.91602,-6.476563 -1.931,-1.896041 -3.09156,-2.919901 -5.92187,-5.226562 -2.36831,-1.930146 -7.07065,-5.050445 -10.13672,-6.726563 -10.12181,-5.449111 -23.31253,-9.240573 -36.37305,-9.144531 z m -1.48046,5.607422 c 2.31803,-0.0053 4.77666,0.198181 8.17578,0.634766 7.49912,0.96321 16.6415,3.687542 21.67578,6.460937 4.33987,2.390863 5.60678,3.126394 7.57617,4.398438 2.18605,1.411989 4.50915,3.055561 5.71289,4.041015 0.33948,0.277924 1.31532,1.075209 2.16992,1.771485 3.48647,2.840514 6.0405,5.475442 9.63672,9.945312 1.00473,1.248834 3.29538,4.390751 3.91992,5.376953 0.88881,1.403493 2.52539,4.350988 2.52539,4.546875 0,0.116423 -0.13426,0.282744 -0.29882,0.371094 -0.30772,0.165211 -0.87951,0.0175 -3.04102,-0.791016 -3.51527,-1.162633 -5.28403,-1.202681 -7.86914,1.167969 -0.48207,0.482088 -0.93787,0.876953 -1.01367,0.876953 -0.31014,0 -0.82895,-0.512892 -1.30078,-1.285156 -0.27531,-0.450586 -0.97115,-1.451078 -1.54493,-2.222656 -0.57379,-0.771579 -1.17242,-1.611948 -1.33203,-1.869141 -0.67341,-1.085073 -4.05258,-5.022396 -6.28711,-7.326172 -3.57622,-3.687053 -9.53216,-8.33735 -13.90429,-10.855469 -6.19341,-3.567077 -9.10639,-4.954194 -14.4961,-6.902343 -5.54126,-2.00294 -13.70789,-3.957611 -18.599606,-4.451172 -3.018696,-0.304578 -3.962891,-0.618084 -3.962891,-1.320313 0,-1.072619 2.408502,-1.771946 8.062497,-2.339843 1.46411,-0.147062 2.8045,-0.225355 4.19532,-0.228516 z m -3.35547,11.271484 c 0.38233,0.0091 0.8259,0.03898 1.35156,0.08789 4.75944,0.44287 8.57007,1.662282 14.68555,4.697266 5.57494,2.766723 9.39213,5.019238 13.41992,7.919922 1.1431,0.823217 2.48608,1.778169 2.98242,2.121093 1.96887,1.360315 7.36884,6.384143 8.64648,8.044922 0.23873,0.310299 1.00178,1.265816 1.69727,2.123047 1.93987,2.391035 3.78516,5.295703 3.78516,5.957031 0,0.475136 -0.47671,0.411592 -2.41797,-0.322265 -2.5995,-0.990829 -4.84202,-1.535859 -7.28906,0.808593 -1.32382,1.162106 -1.55984,1.0766 -2.72657,-0.982421 -2.63287,-4.646492 -7.783,-11.10487 -11.36719,-14.253907 -3.63048,-3.189751 -5.84012,-4.827565 -9.95117,-7.376953 -2.90458,-1.801207 -8.82679,-4.526107 -12.35937,-5.685547 -1.54229,-0.506202 -2.6907,-1.238009 -2.9043,-1.851562 -0.13298,-0.381954 -0.10495,-0.486435 0.20508,-0.738281 0.51007,-0.414338 1.09518,-0.576226 2.24219,-0.548829 z m 3.46875,11.792969 c 0.30442,0.0062 0.67233,0.06136 1.14062,0.16211 1.25517,0.270036 5.28571,2.449528 7.46485,4.037109 0.47003,0.34244 1.27433,0.916048 1.78711,1.273437 2.67622,1.865317 6.49085,5.481632 9.18554,8.707032 0.91355,1.09349 3.23284,4.204929 3.6875,4.947265 0.21142,0.345169 -0.27512,0.213809 -1.0625,-0.287109 -3.35854,-1.887933 -7.95256,-4.209373 -12.47265,-4.347656 -1.94563,-0.0045 -3.28271,0.327052 -3.9043,0.964843 -0.69608,0.714216 -1.44922,1.214844 -1.82617,1.214844 -0.2045,0 -0.85583,-0.423899 -1.5625,-1.017578 -0.66647,-0.559932 -1.66717,-1.335854 -2.22266,-1.722656 -0.55549,-0.386803 -1.18479,-0.830973 -1.39844,-0.988281 -0.21365,-0.157309 -0.88736,-0.61091 -1.49804,-1.007813 -1.51971,-0.987683 -1.6068,-1.269996 -0.75391,-2.435547 1.11096,-1.518232 1.78516,-4.201728 1.78516,-7.097656 0,-1.597978 0.002,-1.603439 0.47851,-2.00586 0.33264,-0.280777 0.66451,-0.406805 1.17188,-0.396484 z m -27.250003,11.691406 7.724609,2.083985 c 17.342864,4.679464 29.829104,19.950312 30.972654,37.876947 1.14356,17.92665 -9.3005,34.65871 -25.908201,41.50391 l -7.396484,3.04883 -8.388672,-4.31641 v 0.20508 c -0.3589,-0.0514 -0.725251,-0.10487 -1.082031,-0.13867 -0.98279,-0.0932 -2.603111,-0.26807 -3.601563,-0.38868 -1.943967,-0.23484 -6.586489,-1.37186 -8.318359,-2.03711 -0.579978,-0.22277 -1.473568,-0.54554 -1.986328,-0.71679 -1.119464,-0.37388 -5.056105,-2.33101 -6.400391,-3.18164 -0.529308,-0.33492 -1.466625,-0.8895 -2.082031,-1.23242 -0.615405,-0.34293 -2.44036,-1.41268 -4.056641,-2.37891 -3.652856,-2.16683 -8.30744,-4.75784 -13.232421,-5.68945 -4.082256,-0.75649 -7.001651,-0.79912 -11.078126,0.60351 -2.657045,0.91424 -5.209081,3.66078 -6.4375,6.14453 -1.915469,3.87288 -1.299101,9.43125 1.308594,11.78321 1.885543,1.70065 4.108184,2.16217 6.607422,1.37304 2.691571,-0.94012 3.646491,-2.96549 3.798828,-5.48242 0.191834,-0.65252 0.864258,2.25527 -0.845703,4.6211 -1.392361,1.87746 -3.316178,2.53299 -5.367187,2.49609 -2.27451,-0.0578 -3.935664,-0.66216 -5.324219,-1.9043 -3.249313,-3.04206 -3.968998,-8.88984 -1.896485,-13.43555 1.521531,-3.15909 4.262121,-5.79814 7.695313,-7.4121 1.978795,-0.91859 4.204511,-1.33844 6.542969,-1.39844 2.338457,-0.06 4.788983,0.23835 7.214844,0.75781 3.994012,0.86401 8.487129,2.6813 12.271484,4.91016 0.11938,0.0996 1.273743,0.71185 2.564453,1.36133 1.290695,0.64944 2.975001,1.51609 3.744141,1.92578 1.619638,0.86269 6.00221,2.81659 7.695312,3.43164 2.70787,0.98366 7.621237,1.80078 10.832031,1.80078 h 0.01953 l 3.705078,-6.49414 7.396484,-3.04688 C 96.234081,131.78274 102.65827,121.49134 101.94727,110.3454 101.23626,99.199476 93.556409,89.807611 82.773438,86.898142 l -7.72461,-2.083985 -6.419922,-9.617187 z m 8.837891,25.634766 c 1.305638,0.0029 3.339108,1.464827 5.095703,3.730469 3.58782,4.627557 5.208933,10.499977 4.544921,16.470697 -0.185868,1.67138 -1.026957,4.74006 -1.740234,6.34961 -1.421255,3.20709 -4.769681,7.16942 -6.9375,8.21094 -0.856953,0.41172 -1.47207,0.29159 -1.923828,-0.375 -0.519846,-0.76705 -0.07591,-2.5285 0.988281,-3.91992 0.506097,-0.66173 0.872601,-0.92135 2.320313,-1.64063 1.340656,-0.66608 1.881437,-1.03353 2.460937,-1.67383 0.68034,-0.75172 0.863706,-1.02619 0.666016,-2.10937 -0.06271,-1.05686 -0.214289,-1.65974 -0.847656,-3.34766 -1.038399,-2.76732 -1.196657,-3.71768 -0.972657,-5.83789 0.124409,-1.15293 0.401707,-2.59386 0.857422,-3.83008 0.204813,-0.41088 0.480713,-1.291 0.611328,-1.95703 0.232203,-1.19222 0.123079,-2.79735 -1.179687,-3.89452 -0.437795,-0.33298 -1.456643,-0.86967 -2.263672,-1.193364 -1.459263,-0.585309 -2.279447,-1.220652 -2.714844,-2.09961 -0.402446,-0.812442 -0.07577,-2.555336 0.523438,-2.792968 0.153819,-0.061 0.325198,-0.09026 0.511719,-0.08984 z" />
  <path
     id="path1926"
     style="opacity:1;fill:#ffba18;stroke-width:0.155628;fill-opacity:1"
     d="M 107.83398 26.001953 C 105.9682 26.015673 104.10505 26.108204 102.25391 26.287109 C 98.612214 26.544457 94.274377 27.312053 92.087891 28.085938 C 91.729441 28.212803 90.859726 28.453498 90.15625 28.621094 C 87.552128 29.241537 81.574247 31.768626 78.673828 33.474609 C 78.096973 33.813916 77.148269 34.372767 76.564453 34.716797 C 75.057638 35.604736 72.452614 37.739221 71.046875 39.238281 C 67.70744 42.799356 64.219595 47.962265 63.873047 49.855469 C 63.785924 50.3314 63.823302 50.460885 64.115234 50.666016 C 64.565111 50.982129 64.849777 50.92511 68.070312 49.875 C 73.659769 48.052469 73.522546 48.129927 74.789062 46.050781 C 76.235621 43.67605 77.310477 43.035469 80.130859 42.867188 C 84.029839 42.634545 88.150514 43.933681 92.386719 46.732422 C 95.829794 49.007143 98.219004 52.442912 98.546875 55.589844 C 98.644874 56.530328 98.310074 58.370968 97.892578 59.1875 C 97.559455 59.838993 96.231582 61.009755 95.572266 61.232422 C 94.441288 61.614408 92.267554 61.474458 89.589844 60.847656 C 85.449944 59.878585 81.612861 59.313805 78.634766 59.234375 C 72.826982 59.083629 66.159736 62.508325 60.091797 66.669922 C 56.713237 69.373345 55.570827 70.870227 55.433594 72.773438 C 55.331601 74.187826 55.878223 74.773115 57.503906 74.996094 C 59.222087 75.231745 59.620765 75.544534 58.974609 76.148438 C 58.277504 76.799946 55.151719 76.658043 54.033203 75.923828 C 53.238163 75.401961 52.899218 73.683043 53.324219 72.326172 C 53.724094 71.049467 55.173448 68.957048 56.601562 67.595703 C 58.674169 65.619995 62.413131 63.036963 65.775391 61.257812 C 67.319529 60.440734 71.241663 58.909461 73.041016 58.419922 C 73.724696 58.233902 74.879059 57.911389 75.605469 57.703125 C 77.455429 57.172747 81.268816 56.290932 83.296875 55.925781 C 87.137494 55.234306 89.739886 54.822266 90.267578 54.822266 C 90.967666 54.822266 92.076172 54.389074 92.076172 54.115234 C 92.076172 53.815004 90.835959 53.613236 87.724609 53.40625 C 80.612255 52.943163 71.353622 53.409764 63.71875 54.433594 C 54.242059 55.704422 46.220937 58.682333 40.09375 67.289062 C 39.642956 67.933869 39.092187 68.632001 38.871094 68.839844 C 38.219687 69.452149 38.330375 69.949306 39.275391 70.660156 C 40.759288 71.776372 40.635398 72.789202 38.791016 74.617188 C 36.199014 77.186152 32.262362 78.535643 31.365234 77.162109 C 30.852319 76.376814 31.092911 73.485289 31.8125 71.783203 C 32.286197 70.662778 32.37201 70.018495 32.060547 69.90625 C 30.739817 69.624304 28.711637 72.010457 27.007812 74.339844 C 24.605718 77.636494 22.966529 79.051452 22.113281 83.648438 C 21.88821 84.668713 22.04132 93.133172 22 93.25 C 18.570257 90.63396 16.505859 85.882812 16.505859 85.882812 C 15.700898 85.842575 15.467839 87.096429 15.738281 90.023438 C 15.837295 91.095075 15.919922 92.288039 15.919922 92.673828 C 15.920979 93.745979 16.472714 96.252893 17.025391 97.693359 C 18.738864 102.05091 23.767324 101.55715 27.701172 103.41016 C 30.242256 104.67478 31.02766 104.86283 31.601562 104.3418 C 31.76953 104.18931 32.302954 103.47241 32.787109 102.75 C 35.221305 99.117841 37.877337 96.721597 40.300781 95.970703 C 42.202266 95.381529 43.47825 95.517137 48.025391 96.792969 C 49.101783 97.094991 49.642563 97.205078 52.064453 97.205078 C 53.440592 97.204907 56.142361 97.142508 58.318359 95.771484 C 59.034669 95.117544 58.614877 94.567292 57.158203 94.253906 C 56.20461 94.048744 54.719826 93.12811 54.076172 92.34375 C 53.022466 91.038567 52.006554 89.105834 52.052734 87.357422 C 52.363016 86.129163 53.23947 84.634337 54.050781 83.425781 L 53.933594 83.970703 C 53.668031 85.196905 53.535069 86.146459 53.443359 87.484375 C 53.326947 89.182829 53.526534 89.686526 54.810547 90.929688 C 55.774551 91.863017 56.381537 92.202687 57.322266 92.332031 C 58.091779 92.437839 58.410516 92.305928 59.445312 91.458984 C 61.014126 90.174985 62.062332 89.77327 64.185547 89.638672 C 65.38452 89.562652 65.710432 89.59861 66.478516 89.890625 C 67.928088 90.441734 68.259565 90.810149 68.388672 92.019531 C 68.544675 93.480854 68.315126 94.104888 67.244141 95.134766 C 66.382875 95.962958 64.871479 96.813919 62.974609 97.539062 C 61.709708 98.0226 60.779278 98.793971 60.320312 99.742188 C 59.952678 100.50168 59.902932 100.99585 60.162109 101.74023 C 60.295955 102.38321 60.536015 103.29606 60.695312 103.76758 C 61.472254 106.06751 61.791746 108.93304 61.486328 110.85938 C 61.391172 111.4595 60.963529 113.02449 60.535156 114.33789 C 59.703289 116.88847 59.626732 117.44601 59.984375 118.30469 C 60.506007 119.55711 61.568662 120.34108 63.541016 120.92969 C 66.423054 121.78978 67.82286 123.0333 68.144531 125.01953 C 68.454844 126.93568 67.710165 128.15343 65.597656 129.17578 C 63.343672 130.26661 60.906198 130.35226 57.378906 129.46875 C 51.583895 128.00382 44.353398 125.17799 38.003906 122.71484 C 38.061491 122.43193 38.539062 121.91992 38.539062 121.91992 C 38.835267 121.36815 40.793607 119.50032 41.964844 118.65234 C 44.027149 117.1592 43.570948 116.89844 39.789062 117.4043 C 34.739418 118.07975 27.552981 120.60587 23.667969 123.07227 C 19.934905 125.44218 16.073154 128.95286 14.400391 131.49609 C 13.342722 133.10413 12.315316 135.1622 11.669922 136.96875 C 10.779088 139.46243 10.776786 144.52379 11.664062 147.19336 C 12.640001 150.12974 14.263974 152.44483 16.443359 154.00195 C 22.310468 158.33524 34.385802 156.47268 33.337891 146.25195 C 32.815109 141.15297 27.561907 136.57131 23.431641 140.71094 C 22.959637 141.41358 23.034267 141.6508 23.865234 142.08398 C 25.667367 143.07147 27.742007 145.72776 25.738281 147.55664 C 24.801157 148.41198 22.971209 148.09909 21.917969 147.33984 C 20.66424 146.47363 20.229516 145.49802 20.160156 143.4082 C 20.078394 140.94504 20.554829 139.5856 22.056641 138.01562 C 23.997111 136.01091 26.277235 135.95332 28.679688 135.80664 C 32.129739 135.82044 36.049194 136.58762 39.789062 139.68555 C 40.875104 140.57475 40.945572 140.68887 40.951172 141.57617 C 40.955134 142.20812 40.845975 142.54885 40.402344 143.29102 C 40.097873 143.80037 39.615681 144.46166 39.332031 144.76172 C 39.048382 145.06178 38.736192 145.46337 38.638672 145.6543 C 38.479312 145.96628 38.526865 146.04952 39.095703 146.46289 C 41.400062 147.59711 46.614478 148.26515 48.257812 147.42773 C 50.387599 149.1613 54.961837 152.04229 57.519531 153.26172 C 59.704758 154.30359 59.798003 154.42304 59.488281 155.78516 C 59.229865 156.92167 58.358516 158.91807 57.603516 160.10742 C 57.043209 160.99009 56.984054 161.51614 57.416016 161.74805 C 58.284787 162.21447 63.65341 161.54811 66.355469 160.63867 C 67.785339 160.15742 70.070175 159.0144 70.490234 158.57031 C 70.962843 158.07066 71.676603 158.05029 74.189453 158.4668 C 76.529938 158.85474 80.703909 159.14708 82.001953 159.01367 C 83.141725 158.89653 84.062697 159.11374 84.226562 159.53906 C 84.428403 160.06299 84.618521 163.25877 84.519531 164.4668 C 84.433497 165.51677 84.455678 165.72773 84.677734 165.89062 C 85.057068 166.16888 86.100399 165.89794 86.949219 165.30078 C 88.0992 164.49178 90.359933 162.54345 91.707031 161.20117 C 92.72601 160.1858 93.093599 159.68506 93.603516 158.61328 C 94.201316 157.35679 94.284356 157.25858 95.136719 156.80469 C 95.632464 156.5407 96.66836 156.064 97.4375 155.74609 C 100.58857 154.4437 103.33516 152.87324 106.21484 150.72852 C 107.28309 149.9329 108.39078 149.20388 108.67578 149.10938 C 109.14654 148.95332 109.23507 148.97733 109.63867 149.36523 C 110.0658 149.77575 110.37797 150.42683 111.2793 152.78906 C 111.7706 154.07668 111.90407 154.27148 112.30078 154.27148 C 112.81827 154.27148 113.81429 153.66167 114.17773 153.12305 C 115.66083 150.92503 116.38272 149.75453 116.55469 149.26562 C 116.66496 148.95205 116.86161 148.48772 116.99219 148.23438 C 117.12277 147.98105 117.51286 146.79172 117.85938 145.5918 C 118.58151 143.09112 118.96861 140.71246 118.69531 139.11328 L 118.46289 137.75781 C 119.35896 135.17659 120.81781 132.86336 121.73828 130.26562 C 122.65971 127.76266 123.5384 125.57932 123.94922 124.77148 C 124.20923 124.26021 124.31694 124.1875 124.80078 124.1875 C 125.40817 124.1875 127.61198 125.25817 129.41602 126.42969 C 130.85719 127.36558 132.1711 127.55164 132.39258 126.85156 C 132.54878 126.35782 132.18095 121.63372 131.86914 120.13477 C 131.44759 118.10832 130.56673 115.26397 129.84375 113.5918 C 129.15891 112.0078 127.73276 109.73186 126.94141 108.96094 C 126.64731 108.67441 126.33334 108.24855 126.24414 108.01367 C 126.15492 107.77876 125.94565 106.25389 125.7793 104.625 C 125.61295 102.99612 125.34285 100.78648 125.17969 99.714844 C 124.66902 96.361144 124.66853 96.344752 125.05859 95.898438 C 125.64374 95.22888 127.03645 94.838453 128.90234 94.820312 C 129.79967 94.811583 131.02614 94.866356 131.62891 94.941406 C 132.93646 95.104186 133.25195 94.912909 133.25195 93.960938 C 133.25195 93.242606 132.00442 90.609261 131.04883 89.310547 C 129.99911 87.883922 127.71682 85.433992 126.59375 84.529297 C 125.12644 83.347286 122.40368 81.545433 121.36914 81.070312 C 119.64883 80.301679 117.82422 80.244141 117.82422 80.244141 C 117.28933 79.262662 117.82515 80.245285 116.67383 78.554688 C 116.40345 78.15766 116.01422 77.723095 115.54688 77.146484 C 114.90168 76.35048 114.14841 75.61886 113.87305 75.275391 C 113.32455 74.591242 112.95535 73.583105 113.10742 73.185547 C 113.2428 72.831635 114.74057 72.175893 115.66211 72.066406 C 117.31294 71.87027 119.79045 72.377437 123.12305 73.998047 C 125.73597 75.268688 127.33516 76.296854 130.86523 78.972656 C 132.12157 79.924955 133.92386 81.843195 134.41797 82.753906 C 134.90865 83.658289 135.05503 84.816621 134.83008 86.027344 C 134.53978 87.589766 134.74821 87.974966 137.00586 90.048828 C 140.09535 92.886802 140.88268 93.925505 143.19727 98.226562 C 144.18656 100.06489 144.21919 100.10544 144.78125 100.15234 C 146.09334 100.26175 146.27295 99.286954 145.5918 95.779297 C 144.68563 91.11287 143.78754 88.26596 141.87891 83.392578 C 141.25774 81.806556 140.69897 80.347588 140.63867 80.150391 C 140.40787 79.396194 140.52833 78.384583 140.95117 77.517578 C 141.42768 76.540541 142.02388 76.180398 143.45898 76.001953 C 145.30514 75.772381 148.46459 76.70709 150.61328 78.521484 C 151.95062 79.650763 152.12993 80.116556 151.97461 82.052734 C 151.84426 83.677787 152.12186 84.296642 153.40039 85.244141 C 154.89217 86.349664 156.87467 88.486941 158.00977 90.212891 C 158.59918 91.109107 159.3393 92.229652 159.6543 92.701172 C 159.96929 93.172692 160.40169 93.942543 160.61719 94.414062 C 161.2063 95.703113 161.53343 96.035156 162.21094 96.035156 C 162.53781 96.035156 162.85125 95.939175 162.93945 95.810547 C 163.03395 95.672754 163.05911 94.885809 163.00391 93.794922 C 162.76748 89.118363 161.04931 82.956924 158.54688 77.335938 C 157.79416 75.645245 157.71484 75.358613 157.71484 74.361328 C 157.71484 73.406364 157.77647 73.155463 158.18164 72.498047 C 158.81518 71.470086 159.38566 71.166862 160.875 71.064453 C 163.58354 70.878214 165.3975 71.355337 168.83398 73.796875 C 169.9622 74.598428 170.10105 75.001448 169.98242 77.132812 C 169.92319 78.196359 169.95096 78.901768 170.05859 79.103516 C 170.1508 79.27635 171.00319 80.099214 171.95312 80.933594 C 172.90306 81.767958 174.22994 83.126004 174.90234 83.951172 C 176.14641 85.477884 177.93632 88.321315 178.66211 89.923828 C 179.01198 90.696357 179.1423 90.833793 179.67578 90.994141 C 180.45549 91.228498 180.94437 91.004581 180.98047 90.396484 C 181.25197 85.829754 178.78791 76.389252 175.34766 68.816406 C 173.63447 65.045197 172.02537 62.009298 170.70117 60.044922 C 170.47 59.701999 169.90325 58.824416 169.44141 58.095703 C 168.67451 56.885619 168.05362 56.024725 166.18164 53.576172 C 164.98762 52.014373 162.52528 49.318356 160.26562 47.099609 C 158.33462 45.203568 157.17406 44.179708 154.34375 41.873047 C 151.97544 39.942901 147.2731 36.822602 144.20703 35.146484 C 134.08522 29.697373 120.8945 25.905911 107.83398 26.001953 z M 106.35352 31.609375 C 108.67155 31.604107 111.13018 31.807556 114.5293 32.244141 C 122.02842 33.207351 131.1708 35.931683 136.20508 38.705078 C 140.54495 41.095941 141.81186 41.831472 143.78125 43.103516 C 145.9673 44.515505 148.2904 46.159077 149.49414 47.144531 C 149.83362 47.422455 150.80946 48.21974 151.66406 48.916016 C 155.15053 51.75653 157.70456 54.391458 161.30078 58.861328 C 162.30551 60.110162 164.59616 63.252079 165.2207 64.238281 C 166.10951 65.641774 167.74609 68.589269 167.74609 68.785156 C 167.74609 68.901579 167.61183 69.0679 167.44727 69.15625 C 167.13955 69.321461 166.56776 69.173755 164.40625 68.365234 C 160.89098 67.202601 159.12222 67.162553 156.53711 69.533203 C 156.05504 70.015291 155.59924 70.410156 155.52344 70.410156 C 155.2133 70.410156 154.69449 69.897264 154.22266 69.125 C 153.94735 68.674414 153.25151 67.673922 152.67773 66.902344 C 152.10394 66.130765 151.50531 65.290396 151.3457 65.033203 C 150.67229 63.94813 147.29312 60.010807 145.05859 57.707031 C 141.48237 54.019978 135.52643 49.369681 131.1543 46.851562 C 124.96089 43.284485 122.04791 41.897368 116.6582 39.949219 C 111.11694 37.946279 102.95031 35.991608 98.058594 35.498047 C 95.039898 35.193469 94.095703 34.879963 94.095703 34.177734 C 94.095703 33.105115 96.504205 32.405788 102.1582 31.837891 C 103.62231 31.690829 104.9627 31.612536 106.35352 31.609375 z M 102.99805 42.880859 C 103.38038 42.889992 103.82395 42.91984 104.34961 42.96875 C 109.10905 43.41162 112.91968 44.631032 119.03516 47.666016 C 124.6101 50.432739 128.42729 52.685254 132.45508 55.585938 C 133.59818 56.409155 134.94116 57.364107 135.4375 57.707031 C 137.40637 59.067346 142.80634 64.091174 144.08398 65.751953 C 144.32271 66.062252 145.08576 67.017769 145.78125 67.875 C 147.72112 70.266035 149.56641 73.170703 149.56641 73.832031 C 149.56641 74.307167 149.0897 74.243623 147.14844 73.509766 C 144.54894 72.518937 142.30642 71.973907 139.85938 74.318359 C 138.53556 75.480465 138.29954 75.394959 137.13281 73.335938 C 134.49994 68.689446 129.34981 62.231068 125.76562 59.082031 C 122.13514 55.89228 119.9255 54.254466 115.81445 51.705078 C 112.90987 49.903871 106.98766 47.178971 103.45508 46.019531 C 101.91279 45.513329 100.76438 44.781522 100.55078 44.167969 C 100.4178 43.786015 100.44583 43.681534 100.75586 43.429688 C 101.26593 43.01535 101.85104 42.853462 102.99805 42.880859 z M 106.4668 54.673828 C 106.77122 54.680021 107.13913 54.735188 107.60742 54.835938 C 108.86259 55.105974 112.89313 57.285466 115.07227 58.873047 C 115.5423 59.215487 116.3466 59.789095 116.85938 60.146484 C 119.5356 62.011801 123.35023 65.628116 126.04492 68.853516 C 126.95847 69.947006 129.27776 73.058445 129.73242 73.800781 C 129.94384 74.14595 129.4573 74.01459 128.66992 73.513672 C 125.31138 71.625739 120.71736 69.304299 116.19727 69.166016 C 114.25164 69.16148 112.91456 69.493068 112.29297 70.130859 C 111.59689 70.845075 110.84375 71.345703 110.4668 71.345703 C 110.2623 71.345703 109.61097 70.921804 108.9043 70.328125 C 108.23783 69.768193 107.23713 68.992271 106.68164 68.605469 C 106.12615 68.218666 105.49685 67.774496 105.2832 67.617188 C 105.06955 67.459879 104.39584 67.006278 103.78516 66.609375 C 102.26545 65.621692 102.17836 65.339379 103.03125 64.173828 C 104.14221 62.655596 104.81641 59.9721 104.81641 57.076172 C 104.81641 55.478194 104.81818 55.472733 105.29492 55.070312 C 105.62756 54.789535 105.95943 54.663507 106.4668 54.673828 z M 79.216797 66.365234 L 86.941406 68.449219 C 104.28427 73.128683 116.77051 88.399531 117.91406 106.32617 C 119.05762 124.25282 108.61356 140.98488 92.005859 147.83008 L 84.609375 150.87891 L 76.220703 146.5625 L 76.220703 146.76758 C 75.861803 146.71621 75.495452 146.66271 75.138672 146.62891 C 74.155882 146.53575 72.535561 146.36084 71.537109 146.24023 C 69.593142 146.00539 64.95062 144.86837 63.21875 144.20312 C 62.638772 143.98035 61.745182 143.65758 61.232422 143.48633 C 60.112958 143.11245 56.176317 141.15532 54.832031 140.30469 C 54.302723 139.96977 53.365406 139.41519 52.75 139.07227 C 52.134595 138.72934 50.30964 137.65959 48.693359 136.69336 C 45.040503 134.52653 40.385919 131.93552 35.460938 131.00391 C 31.378682 130.24742 28.459287 130.20479 24.382812 131.60742 C 21.725767 132.52166 19.173731 135.2682 17.945312 137.75195 C 16.029843 141.62483 16.646211 147.1832 19.253906 149.53516 C 21.139449 151.23581 23.36209 151.69733 25.861328 150.9082 C 28.552899 149.96808 29.507819 147.94271 29.660156 145.42578 C 29.85199 144.77326 30.524414 147.68105 28.814453 150.04688 C 27.422092 151.92434 25.498275 152.57987 23.447266 152.54297 C 21.172756 152.48521 19.511602 151.88081 18.123047 150.63867 C 14.873734 147.59661 14.154049 141.74883 16.226562 137.20312 C 17.748093 134.04403 20.488683 131.40498 23.921875 129.79102 C 25.90067 128.87243 28.126386 128.45258 30.464844 128.39258 C 32.803301 128.33255 35.253827 128.63093 37.679688 129.15039 C 41.6737 130.0144 46.166817 131.83169 49.951172 134.06055 C 50.070552 134.16012 51.224915 134.7724 52.515625 135.42188 C 53.80632 136.07132 55.490626 136.93797 56.259766 137.34766 C 57.879404 138.21035 62.261976 140.16425 63.955078 140.7793 C 66.662948 141.76296 71.576315 142.58008 74.787109 142.58008 L 74.806641 142.58008 L 78.511719 136.08594 L 85.908203 133.03906 C 96.234081 128.78304 102.65827 118.49164 101.94727 107.3457 C 101.23626 96.199772 93.556409 86.807907 82.773438 83.898438 L 75.048828 81.814453 L 68.628906 72.197266 L 79.216797 66.365234 z M 88.054688 92 C 89.360326 92.002946 91.393796 93.464827 93.150391 95.730469 C 96.738211 100.35803 98.359324 106.23045 97.695312 112.20117 C 97.509444 113.87255 96.668355 116.94123 95.955078 118.55078 C 94.533823 121.75787 91.185397 125.7202 89.017578 126.76172 C 88.160625 127.17344 87.545508 127.05331 87.09375 126.38672 C 86.573904 125.61967 87.017836 123.85822 88.082031 122.4668 C 88.588128 121.80507 88.954632 121.54545 90.402344 120.82617 C 91.743 120.16009 92.283781 119.79264 92.863281 119.15234 C 93.543621 118.40062 93.726987 118.12615 93.529297 117.04297 C 93.466587 115.98611 93.315008 115.38323 92.681641 113.69531 C 91.643242 110.92799 91.484984 109.97763 91.708984 107.85742 C 91.833393 106.70449 92.110691 105.26356 92.566406 104.02734 C 92.771219 103.61646 93.047119 102.73634 93.177734 102.07031 C 93.409937 100.87809 93.300813 99.27296 91.998047 98.175781 C 91.560252 97.842803 90.541404 97.306117 89.734375 96.982422 C 88.275112 96.397113 87.454928 95.76177 87.019531 94.882812 C 86.617085 94.07037 86.943762 92.327476 87.542969 92.089844 C 87.696788 92.028839 87.868167 91.999579 88.054688 92 z " />
  <path
     id="path9785"
     style="opacity:1;fill:#ff13fa;stroke-width:39.044;stroke-linecap:square;stroke-linejoin:bevel;fill-opacity:1"
     d="M 76.999998,96 89,102.5 v 13 L 76.999998,122 65,115.5 v -13 z" />
  <path
     id="path9703"
     style="opacity:1;fill:#139eff;stroke-width:11.6965;stroke-linecap:square;stroke-linejoin:bevel;fill-opacity:1"
     d="M 41.499999,76 45,78 v 4 L 41.499999,84 38,81.999999 v -4 z" />
  <path
     id="path8408"
     style="opacity:1;fill:#c240ff;stroke-width:21.8263;stroke-linecap:square;stroke-linejoin:bevel;fill-opacity:1"
     d="M 28.499999,82 35,85.75 v 7.5 L 28.499999,97 22,93.249999 v -7.5 z" />
  <path
     id="path8324"
     style="opacity:1;fill:#ff13fa;stroke-width:16.393;stroke-linecap:square;stroke-linejoin:bevel;fill-opacity:1"
     d="m 104,123 5,2.75 v 5.5 l -5,2.75 -5,-2.75 v -5.5 z" />
  <path
     id="path8111"
     style="opacity:1;fill:#13ffdb;stroke-width:16.393;stroke-linecap:square;stroke-linejoin:bevel;fill-opacity:1"
     d="m 78.999999,69 5,2.75 v 5.5 l -5,2.75 L 74,77.249999 v -5.5 z" />
  <path
     id="path8318"
     style="opacity:1;fill:#397fff;stroke-width:16.393;stroke-linecap:square;stroke-linejoin:bevel;fill-opacity:1"
     d="m 95,75 5,2.75 v 5.5 L 95,86 90,83.249999 v -5.5 z" />
  <path
     id="path8320"
     style="opacity:1;fill:#139eff;stroke-width:16.393;stroke-linecap:square;stroke-linejoin:bevel;fill-opacity:1"
     d="m 107,89 5,2.75 v 5.5 l -5,2.75 -5,-2.750001 v -5.5 z" />
  <path
     id="path8322"
     style="opacity:1;fill:#c240ff;stroke-width:16.393;stroke-linecap:square;stroke-linejoin:bevel;fill-opacity:1"
     d="m 110,106 5,2.75 v 5.5 l -5,2.75 -5,-2.75 v -5.5 z" />
  <path
     id="path8326"
     style="opacity:1;fill:#f03e64;stroke-width:16.393;stroke-linecap:square;stroke-linejoin:bevel;fill-opacity:1"
     d="m 91.000004,134 5,2.75 v 5.5 l -5,2.75 L 86,142.25 v -5.5 z" />
  <path
     id="path24084"
     style="opacity:0.2;fill:#ffffff;stroke-width:0.155628;fill-opacity:1"
     d="M 107.83398 26.001953 C 105.9682 26.015673 104.10505 26.108204 102.25391 26.287109 C 98.61221 26.544457 94.274377 27.312052 92.087891 28.085938 C 91.729441 28.212803 90.859726 28.453498 90.15625 28.621094 C 87.552128 29.241537 81.574247 31.768626 78.673828 33.474609 C 78.096973 33.813916 77.148269 34.372767 76.564453 34.716797 C 75.057638 35.604736 72.452614 37.739221 71.046875 39.238281 C 67.70744 42.799356 64.219595 47.962265 63.873047 49.855469 C 63.807933 50.211167 63.854159 50.366841 63.982422 50.511719 C 64.603977 48.412903 67.875563 43.620075 71.046875 40.238281 C 72.452614 38.739221 75.057638 36.604736 76.564453 35.716797 C 77.148269 35.372767 78.096973 34.813916 78.673828 34.474609 C 81.574247 32.768626 87.552128 30.241537 90.15625 29.621094 C 90.859726 29.453498 91.729441 29.212802 92.087891 29.085938 C 94.274377 28.312053 98.61221 27.544457 102.25391 27.287109 C 104.10505 27.108204 105.9682 27.015673 107.83398 27.001953 C 120.8945 26.905911 134.08522 30.697373 144.20703 36.146484 C 147.2731 37.822602 151.97544 40.942901 154.34375 42.873047 C 157.17406 45.179708 158.33462 46.203568 160.26562 48.099609 C 162.52528 50.318356 164.98762 53.014373 166.18164 54.576172 C 168.05362 57.024725 168.67451 57.885619 169.44141 59.095703 C 169.90325 59.824416 170.47 60.701999 170.70117 61.044922 C 172.02537 63.009298 173.63447 66.045197 175.34766 69.816406 C 178.57398 76.918347 180.91069 85.610747 180.96875 90.4375 C 180.97036 90.421764 180.9795 90.412773 180.98047 90.396484 C 181.25197 85.829754 178.78791 76.389252 175.34766 68.816406 C 173.63447 65.045197 172.02537 62.009298 170.70117 60.044922 C 170.47 59.701999 169.90325 58.824416 169.44141 58.095703 C 168.67451 56.885619 168.05362 56.024725 166.18164 53.576172 C 164.98762 52.014373 162.52528 49.318356 160.26562 47.099609 C 158.33462 45.203568 157.17406 44.179708 154.34375 41.873047 C 151.97544 39.942901 147.2731 36.822602 144.20703 35.146484 C 134.08522 29.697373 120.8945 25.905911 107.83398 26.001953 z M 94.339844 34.662109 C 94.194493 34.825058 94.095703 34.994122 94.095703 35.177734 C 94.095703 35.879963 95.039898 36.193469 98.058594 36.498047 C 102.95031 36.991608 111.11694 38.946279 116.6582 40.949219 C 122.04791 42.897368 124.96089 44.284486 131.1543 47.851562 C 135.52643 50.369681 141.48237 55.019978 145.05859 58.707031 C 147.29312 61.010807 150.67229 64.94813 151.3457 66.033203 C 151.50531 66.290396 152.10394 67.130765 152.67773 67.902344 C 153.25151 68.673922 153.94735 69.674414 154.22266 70.125 C 154.69449 70.897264 155.2133 71.410156 155.52344 71.410156 C 155.59924 71.410156 156.05504 71.015291 156.53711 70.533203 C 159.12222 68.162553 160.89098 68.202601 164.40625 69.365234 C 166.56776 70.17375 167.13955 70.321461 167.44727 70.15625 C 167.61183 70.0679 167.74609 69.901579 167.74609 69.785156 C 167.74609 69.751546 167.51205 69.334081 167.42773 69.160156 C 167.11623 69.312604 166.53268 69.160633 164.40625 68.365234 C 160.89098 67.202601 159.12222 67.162553 156.53711 69.533203 C 156.05504 70.015291 155.59924 70.410156 155.52344 70.410156 C 155.2133 70.410156 154.69449 69.897264 154.22266 69.125 C 153.94735 68.674414 153.25151 67.673922 152.67773 66.902344 C 152.10394 66.130765 151.50531 65.290396 151.3457 65.033203 C 150.67229 63.94813 147.29312 60.010807 145.05859 57.707031 C 141.48237 54.019978 135.52643 49.369681 131.1543 46.851562 C 124.96089 43.284485 122.04791 41.897368 116.6582 39.949219 C 111.11694 37.946279 102.95031 35.991608 98.058594 35.498047 C 95.850555 35.275262 94.770402 35.043079 94.339844 34.662109 z M 100.74219 44.447266 C 100.45491 44.685085 100.42134 44.796166 100.55078 45.167969 C 100.76438 45.781522 101.91279 46.513329 103.45508 47.019531 C 106.98766 48.178971 112.90987 50.903871 115.81445 52.705078 C 119.9255 55.254466 122.13514 56.89228 125.76562 60.082031 C 129.34982 63.231068 134.49994 69.689446 137.13281 74.335938 C 138.29954 76.394959 138.53555 76.480465 139.85938 75.318359 C 142.30642 72.973907 144.54894 73.518937 147.14844 74.509766 C 149.0897 75.243623 149.56641 75.307167 149.56641 74.832031 C 149.56641 74.694072 149.4455 74.411699 149.30078 74.103516 C 149.00107 74.15107 148.39699 73.981759 147.14844 73.509766 C 144.54894 72.518937 142.30642 71.973907 139.85938 74.318359 C 138.53556 75.480465 138.29954 75.394959 137.13281 73.335938 C 134.49994 68.689446 129.34981 62.231068 125.76562 59.082031 C 122.13515 55.89228 119.9255 54.254466 115.81445 51.705078 C 112.90987 49.903871 106.98766 47.178971 103.45508 46.019531 C 102.13885 45.587527 101.14844 44.994166 100.74219 44.447266 z M 82.046875 53.226562 C 76.084475 53.210421 69.444904 53.665721 63.71875 54.433594 C 54.242059 55.704422 46.220937 58.682333 40.09375 67.289062 C 39.642956 67.93387 39.092187 68.632001 38.871094 68.839844 C 38.410292 69.272985 38.352204 69.651633 38.679688 70.085938 C 38.740575 70.004433 38.780593 69.924912 38.871094 69.839844 C 39.092187 69.632001 39.642956 68.93387 40.09375 68.289062 C 46.220937 59.682334 54.242059 56.704422 63.71875 55.433594 C 71.353622 54.40975 80.612255 53.943163 87.724609 54.40625 C 89.169327 54.502361 90.127112 54.596931 90.828125 54.701172 C 91.442445 54.568962 92.076172 54.32323 92.076172 54.115234 C 92.076172 53.815004 90.835959 53.613236 87.724609 53.40625 C 85.946521 53.290478 84.034341 53.231943 82.046875 53.226562 z M 98.533203 56.517578 C 98.452392 57.455856 98.196943 58.592227 97.892578 59.1875 C 97.559455 59.838993 96.231582 61.009755 95.572266 61.232422 C 94.441288 61.614408 92.267554 61.474458 89.589844 60.847656 C 85.449944 59.878585 81.612861 59.313805 78.634766 59.234375 C 72.826982 59.083629 66.159736 62.508325 60.091797 66.669922 C 56.713237 69.373345 55.570827 70.870227 55.433594 72.773438 C 55.413556 73.051308 55.441314 73.272825 55.474609 73.490234 C 55.704761 71.718853 56.884747 70.236108 60.091797 67.669922 C 66.159736 63.508325 72.826982 60.083629 78.634766 60.234375 C 81.612861 60.313805 85.449944 60.878585 89.589844 61.847656 C 92.267554 62.474458 94.441288 62.614408 95.572266 62.232422 C 96.231582 62.009755 97.559455 60.838993 97.892578 60.1875 C 98.310074 59.370968 98.644875 57.530328 98.546875 56.589844 C 98.544386 56.565953 98.535929 56.541501 98.533203 56.517578 z M 102.70117 65.705078 C 102.29528 66.439805 102.54102 66.800791 103.78516 67.609375 C 104.39584 68.006278 105.06955 68.459879 105.2832 68.617188 C 105.49685 68.774496 106.12615 69.218666 106.68164 69.605469 C 107.23713 69.992271 108.23783 70.768193 108.9043 71.328125 C 109.61097 71.921804 110.2623 72.345703 110.4668 72.345703 C 110.84375 72.345703 111.59689 71.845075 112.29297 71.130859 C 112.91456 70.493068 114.25164 70.161516 116.19727 70.166016 C 120.71736 70.304299 125.31138 72.625739 128.66992 74.513672 C 129.4573 75.01459 129.94384 75.14595 129.73242 74.800781 C 129.6186 74.614948 129.19075 74.042848 128.89453 73.628906 C 128.80682 73.578316 128.76767 73.575858 128.66992 73.513672 C 125.31138 71.625739 120.71736 69.304299 116.19727 69.166016 C 114.25164 69.16148 112.91456 69.493068 112.29297 70.130859 C 111.59689 70.845075 110.84375 71.345703 110.4668 71.345703 C 110.2623 71.345703 109.61097 70.921804 108.9043 70.328125 C 108.23783 69.768193 107.23713 68.992271 106.68164 68.605469 C 106.12615 68.218666 105.49685 67.774496 105.2832 67.617188 C 105.06955 67.459879 104.39584 67.006278 103.78516 66.609375 C 103.20552 66.23266 102.89132 65.96471 102.70117 65.705078 z M 32.060547 69.90625 C 30.739817 69.624304 28.711638 72.010457 27.007812 74.339844 C 24.605718 77.636494 22.966529 79.051451 22.113281 83.648438 C 21.983705 84.235821 21.978382 86.954182 21.990234 89.462891 C 21.987871 87.312121 22.006403 85.132929 22.113281 84.648438 C 22.966529 80.051451 24.605719 78.636494 27.007812 75.339844 C 28.711637 73.010457 30.739817 70.624304 32.060547 70.90625 C 32.071176 70.91008 32.072327 70.926573 32.082031 70.931641 C 32.23216 70.385813 32.271298 69.982201 32.060547 69.90625 z M 40.181641 72.728516 C 39.994052 73.265092 39.543064 73.871824 38.791016 74.617188 C 36.199014 77.186152 32.262362 78.535643 31.365234 77.162109 C 31.24047 76.971089 31.162594 76.648693 31.123047 76.255859 C 31.09163 77.090262 31.148683 77.830559 31.365234 78.162109 C 32.262362 79.535643 36.199014 78.186151 38.791016 75.617188 C 40.046986 74.372383 40.485737 73.507368 40.181641 72.728516 z M 69.117188 72.927734 L 68.628906 73.197266 L 75.048828 82.814453 L 82.773438 84.898438 C 93.556409 87.807906 101.23626 97.199779 101.94727 108.3457 C 101.97696 108.8112 101.97543 109.27223 101.98047 109.73438 C 102.002 108.94303 101.99843 108.14783 101.94727 107.3457 C 101.23626 96.199775 93.556409 86.807907 82.773438 83.898438 L 75.048828 81.814453 L 69.117188 72.927734 z M 113.2168 74.082031 C 113.18743 74.115449 113.11877 74.155873 113.10742 74.185547 C 112.95535 74.583105 113.32455 75.591242 113.87305 76.275391 C 114.14841 76.61886 114.90167 77.35048 115.54688 78.146484 C 116.01421 78.723095 116.40345 79.157659 116.67383 79.554688 C 117.82515 81.245241 117.28933 80.262662 117.82422 81.244141 C 117.82422 81.244141 119.64883 81.30168 121.36914 82.070312 C 122.40368 82.545434 125.12644 84.347286 126.59375 85.529297 C 127.71682 86.433992 129.99911 88.883922 131.04883 90.310547 C 131.89489 91.460398 132.92095 93.585384 133.15625 94.572266 C 133.21816 94.417023 133.25195 94.222955 133.25195 93.960938 C 133.25195 93.242605 132.00442 90.609261 131.04883 89.310547 C 129.99911 87.883922 127.71682 85.433992 126.59375 84.529297 C 125.12644 83.347286 122.40368 81.545434 121.36914 81.070312 C 119.64883 80.301679 117.82422 80.244141 117.82422 80.244141 C 117.28933 79.262662 117.82515 80.245284 116.67383 78.554688 C 116.40345 78.15766 116.01421 77.723095 115.54688 77.146484 C 114.90167 76.35048 114.14841 75.61886 113.87305 75.275391 C 113.58842 74.920375 113.35708 74.480943 113.2168 74.082031 z M 53.195312 74.087891 C 53.063557 75.266562 53.380914 76.495663 54.033203 76.923828 C 55.151719 77.658043 58.277504 77.799946 58.974609 77.148438 C 59.402755 76.748289 59.319214 76.482164 58.75 76.275391 C 57.787013 76.766024 55.066144 76.60187 54.033203 75.923828 C 53.569552 75.619486 53.287671 74.897233 53.195312 74.087891 z M 157.75977 74.78125 C 157.74418 74.961792 157.71484 75.095787 157.71484 75.361328 C 157.71484 76.358613 157.79415 76.645245 158.54688 78.335938 C 161.0493 83.956924 162.76748 90.118363 163.00391 94.794922 C 163.01357 94.986097 163.00693 95.102789 163.01172 95.273438 C 163.03248 94.912365 163.03632 94.435403 163.00391 93.794922 C 162.76748 89.118363 161.0493 82.956924 158.54688 77.335938 C 157.92299 75.934614 157.79669 75.457563 157.75977 74.78125 z M 169.99219 76.701172 C 169.98632 76.854617 169.9922 76.957054 169.98242 77.132812 C 169.94782 77.75406 169.95126 78.204888 169.97461 78.552734 C 169.97966 78.401133 169.97292 78.303454 169.98242 78.132812 C 170.01633 77.523513 170.01746 77.077668 169.99219 76.701172 z M 140.57031 79.769531 C 140.49832 80.262563 140.51429 80.743954 140.63867 81.150391 C 140.69897 81.347588 141.25774 82.806556 141.87891 84.392578 C 143.78754 89.26596 144.68563 92.11287 145.5918 96.779297 C 145.76072 97.649186 145.87665 98.359024 145.93555 98.939453 C 145.98247 98.25263 145.88462 97.287237 145.5918 95.779297 C 144.68563 91.11287 143.78754 88.26596 141.87891 83.392578 C 141.25774 81.806556 140.69897 80.347588 140.63867 80.150391 C 140.60248 80.032115 140.58942 79.898918 140.57031 79.769531 z M 151.98633 81.689453 C 151.97879 81.819204 151.98628 81.907295 151.97461 82.052734 C 151.94028 82.480764 151.93955 82.833676 151.97266 83.146484 C 151.97515 83.111221 151.9717 83.088985 151.97461 83.052734 C 152.02034 82.482636 152.01964 82.059066 151.98633 81.689453 z M 54.050781 84.425781 C 53.953623 84.570512 53.863568 84.742539 53.765625 84.894531 C 53.618958 85.716759 53.510363 86.506889 53.443359 87.484375 C 53.412015 87.941683 53.411934 88.305119 53.441406 88.626953 C 53.444532 88.573435 53.439518 88.540426 53.443359 88.484375 C 53.535069 87.146459 53.668031 86.196905 53.933594 84.970703 L 54.050781 84.425781 z M 134.89844 85.412109 C 134.88158 85.616157 134.86876 85.819174 134.83008 86.027344 C 134.7344 86.542305 134.7365 86.92335 134.80469 87.285156 C 134.81887 87.193152 134.8113 87.128426 134.83008 87.027344 C 134.93359 86.470245 134.94954 85.927387 134.89844 85.412109 z M 16.505859 85.882812 C 15.844223 85.84974 15.588976 86.753688 15.662109 88.679688 C 15.713488 87.461563 15.972865 86.856168 16.505859 86.882812 C 16.505859 86.882812 18.570257 91.63396 22 94.25 C 22.004638 94.236886 21.997499 93.449199 21.998047 93.248047 C 18.569612 90.631656 16.505859 85.882812 16.505859 85.882812 z M 52.136719 88.111328 C 52.112431 88.191852 52.072563 88.278931 52.052734 88.357422 C 52.006554 90.105834 53.022466 92.038567 54.076172 93.34375 C 54.719826 94.12811 56.20461 95.048744 57.158203 95.253906 C 57.733698 95.377717 58.098055 95.546788 58.34375 95.736328 C 59.004186 95.09871 58.587227 94.561344 57.158203 94.253906 C 56.20461 94.048744 54.719826 93.12811 54.076172 92.34375 C 53.171344 91.222977 52.337226 89.643515 52.136719 88.111328 z M 68.392578 93.144531 C 68.308269 93.886108 67.988823 94.418666 67.244141 95.134766 C 66.382875 95.962958 64.871479 96.813919 62.974609 97.539062 C 61.709708 98.0226 60.779279 98.793971 60.320312 99.742188 C 60.00001 100.4039 59.935422 100.8728 60.091797 101.47266 C 60.141831 101.24178 60.186577 101.01847 60.320312 100.74219 C 60.779279 99.793973 61.709708 99.0226 62.974609 98.539062 C 64.871479 97.81392 66.382875 96.962958 67.244141 96.134766 C 68.280232 95.138438 68.518729 94.506749 68.392578 93.144531 z M 86.900391 94.363281 C 86.812826 94.906131 86.829181 95.498542 87.019531 95.882812 C 87.454928 96.76177 88.275112 97.397113 89.734375 97.982422 C 90.541404 98.306117 91.560252 98.842803 91.998047 99.175781 C 92.821266 99.869087 93.137623 100.7623 93.222656 101.62891 C 93.348424 100.50074 93.1506 99.146452 91.998047 98.175781 C 91.560252 97.842803 90.541404 97.306117 89.734375 96.982422 C 88.275112 96.397113 87.454928 95.76177 87.019531 94.882812 C 86.949488 94.741412 86.928669 94.54821 86.900391 94.363281 z M 124.8457 97.205078 C 124.70142 97.553828 124.79432 98.184046 125.17969 100.71484 C 125.34285 101.78647 125.61295 103.99612 125.7793 105.625 C 125.94565 107.25389 126.15494 108.77876 126.24414 109.01367 C 126.33334 109.24855 126.64731 109.67441 126.94141 109.96094 C 127.73276 110.73186 129.15891 113.0078 129.84375 114.5918 C 130.56673 116.26397 131.44759 119.10832 131.86914 121.13477 C 132.09057 122.19924 132.33214 124.84874 132.40234 126.49609 C 132.46769 125.43617 132.15448 121.50647 131.86914 120.13477 C 131.44759 118.10832 130.56673 115.26397 129.84375 113.5918 C 129.15891 112.0078 127.73276 109.73186 126.94141 108.96094 C 126.64731 108.67441 126.33334 108.24855 126.24414 108.01367 C 126.15492 107.77876 125.94565 106.25389 125.7793 104.625 C 125.61295 102.99612 125.34285 100.78648 125.17969 99.714844 C 124.96593 98.311064 124.88946 97.715702 124.8457 97.205078 z M 61.568359 109.70898 C 61.552902 110.10781 61.541304 110.51263 61.486328 110.85938 C 61.391172 111.4595 60.963529 113.02449 60.535156 114.33789 C 59.863714 116.39659 59.699891 117.15602 59.84375 117.82422 C 59.934879 117.26823 60.145311 116.53319 60.535156 115.33789 C 60.963529 114.02449 61.391168 112.4595 61.486328 111.85938 C 61.58602 111.2306 61.596005 110.48556 61.568359 109.70898 z M 91.65625 109.70898 C 91.572968 111.26955 91.799144 112.34347 92.681641 114.69531 C 93.315008 116.38323 93.466587 116.98611 93.529297 118.04297 C 93.53597 118.07953 93.533262 118.1 93.539062 118.13477 C 93.618316 117.85527 93.619422 117.53678 93.529297 117.04297 C 93.466587 115.98611 93.315008 115.38323 92.681641 113.69531 C 91.992333 111.85832 91.71552 110.81836 91.65625 109.70898 z M 117.97656 109.97266 C 117.5931 126.48743 107.48109 141.45165 92.005859 147.83008 L 84.609375 150.87891 L 76.220703 146.5625 L 76.220703 146.76758 C 75.861803 146.71621 75.495452 146.66271 75.138672 146.62891 C 74.155882 146.53575 72.535561 146.36084 71.537109 146.24023 C 69.593142 146.00539 64.95062 144.86837 63.21875 144.20312 C 62.638772 143.98035 61.745182 143.65758 61.232422 143.48633 C 60.112958 143.11245 56.176317 141.15532 54.832031 140.30469 C 54.302723 139.96977 53.365406 139.41519 52.75 139.07227 C 52.134595 138.72934 50.30964 137.65959 48.693359 136.69336 C 45.040503 134.52653 40.385919 131.93552 35.460938 131.00391 C 31.378682 130.24742 28.459288 130.20479 24.382812 131.60742 C 21.725767 132.52166 19.173732 135.2682 17.945312 137.75195 C 17.131636 139.39712 16.800751 141.34222 16.859375 143.2207 C 16.933581 141.66484 17.276129 140.10497 17.945312 138.75195 C 19.173731 136.2682 21.725767 133.52166 24.382812 132.60742 C 28.459287 131.20479 31.378681 131.24742 35.460938 132.00391 C 40.385919 132.93552 45.040503 135.52653 48.693359 137.69336 C 50.30964 138.65959 52.134595 139.72934 52.75 140.07227 C 53.365406 140.41519 54.302723 140.96977 54.832031 141.30469 C 56.176317 142.15532 60.112958 144.11245 61.232422 144.48633 C 61.745182 144.65758 62.638772 144.98036 63.21875 145.20312 C 64.95062 145.86837 69.593142 147.00539 71.537109 147.24023 C 72.535561 147.36084 74.155882 147.53571 75.138672 147.62891 C 75.495452 147.66271 75.861803 147.71618 76.220703 147.76758 L 76.220703 147.5625 L 84.609375 151.87891 L 92.005859 148.83008 C 107.79251 142.32329 117.9871 126.88058 117.97656 109.97266 z M 97.816406 110.29492 C 97.797211 110.92857 97.766185 111.56389 97.695312 112.20117 C 97.509445 113.87255 96.668355 116.94123 95.955078 118.55078 C 94.533823 121.75787 91.185397 125.7202 89.017578 126.76172 C 88.160625 127.17344 87.545508 127.05331 87.09375 126.38672 C 87.014226 126.26938 86.998536 126.09259 86.962891 125.93359 C 86.856654 126.5239 86.869845 127.05634 87.09375 127.38672 C 87.545508 128.05331 88.160625 128.17344 89.017578 127.76172 C 91.185397 126.7202 94.533823 122.75787 95.955078 119.55078 C 96.668355 117.94123 97.509445 114.87255 97.695312 113.20117 C 97.803633 112.22716 97.828325 111.25872 97.816406 110.29492 z M 42.013672 117.17578 C 41.471299 117.19914 40.734534 117.27783 39.789062 117.4043 C 34.739418 118.07975 27.552981 120.60587 23.667969 123.07227 C 19.934905 125.44218 16.073154 128.95286 14.400391 131.49609 C 13.342722 133.10413 12.315316 135.1622 11.669922 136.96875 C 11.18434 138.32802 10.986708 140.43961 11.029297 142.52148 C 11.066299 140.78899 11.264182 139.10452 11.669922 137.96875 C 12.315316 136.1622 13.342722 134.10413 14.400391 132.49609 C 16.073154 129.95286 19.934905 126.44218 23.667969 124.07227 C 27.552981 121.60587 34.739418 119.07975 39.789062 118.4043 C 41.094254 118.22972 41.977281 118.15446 42.523438 118.18164 C 43.381301 117.45326 43.3558 117.11798 42.013672 117.17578 z M 38.541016 122.91797 C 38.540759 122.91845 38.539317 122.91945 38.539062 122.91992 C 38.539062 122.91992 38.061486 123.43193 38.003906 123.71484 C 44.353398 126.17799 51.583895 129.00382 57.378906 130.46875 C 60.906198 131.35226 63.343672 131.26661 65.597656 130.17578 C 67.550856 129.23053 68.292444 128.09292 68.154297 126.41602 C 67.951249 127.57137 67.144284 128.42729 65.597656 129.17578 C 63.343672 130.26661 60.906198 130.35226 57.378906 129.46875 C 51.741129 128.04357 44.763081 125.3322 38.541016 122.91797 z M 118.58203 138.45898 C 118.54505 138.55989 118.4982 138.65611 118.46289 138.75781 L 118.69531 140.11328 C 118.73477 140.34414 118.73123 140.62339 118.74414 140.88477 C 118.78109 140.23587 118.78266 139.62439 118.69531 139.11328 L 118.58203 138.45898 z M 26.648438 139.11328 C 25.566963 139.18621 24.464207 139.67603 23.431641 140.71094 C 23.075834 141.2406 23.033405 141.50504 23.388672 141.78906 C 23.407095 141.76024 23.411138 141.74146 23.431641 141.71094 C 27.561907 137.57131 32.815109 142.15297 33.337891 147.25195 C 33.372924 147.59365 33.356861 147.90151 33.363281 148.22461 C 33.408271 147.60283 33.409594 146.95131 33.337891 146.25195 C 32.945804 142.42772 29.892862 138.89448 26.648438 139.11328 z M 40.898438 141.97266 C 40.84995 142.37496 40.738231 142.72909 40.402344 143.29102 C 40.097873 143.80037 39.615681 144.46166 39.332031 144.76172 C 39.048382 145.06178 38.736192 145.46337 38.638672 145.6543 C 38.508354 145.90942 38.593772 146.04792 38.912109 146.30273 C 39.050833 146.11582 39.160157 145.94354 39.332031 145.76172 C 39.615681 145.46166 40.097873 144.80037 40.402344 144.29102 C 40.845975 143.54885 40.955172 143.20812 40.951172 142.57617 C 40.949567 142.32183 40.933096 142.13641 40.898438 141.97266 z M 15.09375 143.16992 C 14.968998 146.42751 15.987149 149.63901 18.123047 151.63867 C 19.511602 152.88081 21.172756 153.48517 23.447266 153.54297 C 25.498275 153.57987 27.422092 152.92434 28.814453 151.04688 C 29.860026 149.60026 29.987627 148.04294 29.90625 147.12891 C 29.812344 148.00381 29.523511 149.06585 28.814453 150.04688 C 27.422092 151.92434 25.498275 152.57987 23.447266 152.54297 C 21.172756 152.48521 19.511602 151.88081 18.123047 150.63867 C 16.207297 148.84512 15.19703 146.0722 15.09375 143.16992 z M 20.183594 143.65625 C 20.177884 143.90851 20.150909 144.12961 20.160156 144.4082 C 20.229516 146.49802 20.66424 147.47363 21.917969 148.33984 C 22.971209 149.09909 24.801157 149.41198 25.738281 148.55664 C 26.500941 147.86053 26.669345 147.0443 26.490234 146.24609 C 26.398907 146.70433 26.181262 147.15231 25.738281 147.55664 C 24.801157 148.41198 22.971209 148.09909 21.917969 147.33984 C 20.720793 146.51271 20.282182 145.55777 20.183594 143.65625 z M 59.513672 155.63086 C 59.501081 155.68956 59.502823 155.7212 59.488281 155.78516 C 59.229865 156.92167 58.358516 158.91807 57.603516 160.10742 C 57.10704 160.88954 57.027061 161.37699 57.310547 161.64258 C 57.385942 161.47961 57.477681 161.30565 57.603516 161.10742 C 58.358516 159.91807 59.229865 157.92167 59.488281 156.78516 C 59.611538 156.24309 59.624502 155.91578 59.513672 155.63086 z M 84.509766 164.72266 C 84.482861 165.11881 84.482337 165.41936 84.515625 165.57617 C 84.519522 165.5257 84.515029 165.52175 84.519531 165.4668 C 84.533069 165.30159 84.506333 164.9503 84.509766 164.72266 z " />
</svg>
