<?xml version="1.0" encoding="UTF-8" standalone="no"?>
<svg
   width="192"
   height="192"
   version="1"
   id="svg14"
   sodipodi:docname="games_fallout_shelter.svg"
   inkscape:version="1.1.1 (1:1.1+202109281949+c3084ef5ed)"
   xmlns:inkscape="http://www.inkscape.org/namespaces/inkscape"
   xmlns:sodipodi="http://sodipodi.sourceforge.net/DTD/sodipodi-0.dtd"
   xmlns="http://www.w3.org/2000/svg"
   xmlns:svg="http://www.w3.org/2000/svg"
   xmlns:rdf="http://www.w3.org/1999/02/22-rdf-syntax-ns#"
   xmlns:cc="http://creativecommons.org/ns#"
   xmlns:dc="http://purl.org/dc/elements/1.1/">
  <metadata
     id="metadata20">
    <rdf:RDF>
      <cc:Work
         rdf:about="">
        <dc:format>image/svg+xml</dc:format>
        <dc:type
           rdf:resource="http://purl.org/dc/dcmitype/StillImage" />
      </cc:Work>
    </rdf:RDF>
  </metadata>
  <defs
     id="defs18">
    <filter
       inkscape:collect="always"
       style="color-interpolation-filters:sRGB"
       id="filter850"
       x="-0.048000001"
       width="1.096"
       y="-0.048000001"
       height="1.096">
      <feGaussianBlur
         inkscape:collect="always"
         stdDeviation="3.2"
         id="feGaussianBlur852" />
    </filter>
    <filter
       inkscape:collect="always"
       style="color-interpolation-filters:sRGB"
       id="filter24895"
       x="-0.083333356"
       y="-0.068181805"
       width="1.1666667"
       height="1.1363636">
      <feGaussianBlur
         inkscape:collect="always"
         stdDeviation="3.1250009"
         id="feGaussianBlur24897" />
    </filter>
  </defs>
  <sodipodi:namedview
     pagecolor="#ffffff"
     bordercolor="#666666"
     borderopacity="1"
     objecttolerance="10"
     gridtolerance="10"
     guidetolerance="10"
     inkscape:pageopacity="0"
     inkscape:pageshadow="2"
     inkscape:window-width="1920"
     inkscape:window-height="1019"
     id="namedview16"
     showgrid="false"
     inkscape:zoom="1"
     inkscape:cx="99.5"
     inkscape:cy="58"
     inkscape:window-x="0"
     inkscape:window-y="34"
     inkscape:window-maximized="1"
     inkscape:current-layer="svg14"
     inkscape:pagecheckerboard="0"
     inkscape:snap-bbox="true"
     inkscape:snap-bbox-midpoints="true"
     inkscape:snap-global="true">
    <inkscape:grid
       type="xygrid"
       id="grid5193" />
  </sodipodi:namedview>
  <circle
     style="opacity:0.2;fill:#000000;stroke-width:4;filter:url(#filter850)"
     cx="96"
     cy="100"
     r="80"
     id="circle832" />
  <circle
     id="circle4"
     r="80"
     cy="96"
     cx="96"
     style="fill:#3e96fc;stroke-width:4;fill-opacity:1" />
  <path
     style="opacity:0.2;fill:#000000;fill-opacity:1;stroke-width:0.2895;filter:url(#filter24895)"
     d="m 82.160303,152.66703 c -6.806648,-1.14179 -11.285587,-3.28934 -16.995727,-8.14905 -6.698176,-5.70061 -11.000528,-13.2205 -13.213296,-23.09492 -0.893882,-3.98893 -1.239329,-12.66901 -0.681093,-17.11395 0.483202,-3.84751 1.726779,-8.621565 3.131839,-12.023095 l 1.167117,-2.82548 -1.368998,-2.68031 c -1.610153,-3.15245 -2.204837,-5.5763 -1.954316,-7.96551 0.195589,-1.86532 1.052799,-4.28395 1.976708,-5.57732 l 0.593541,-0.83089 -0.629204,-1.54531 c -1.353995,-3.32537 -1.257495,-7.06245 0.261804,-10.13874 1.128828,-2.28565 4.230476,-5.244203 6.840713,-6.525115 2.717475,-1.333537 2.937106,-1.14688 1.72956,1.469887 -0.550192,1.192276 -1.002757,2.431478 -1.0057,2.753798 -0.02128,2.33297 4.055266,3.55668 6.954373,2.08757 0.830212,-0.42071 2.208479,-1.70173 3.903444,-3.628021 3.926095,-4.461928 5.183701,-5.102473 10.622622,-5.410488 1.818308,-0.102975 4.084717,-0.37591 5.036464,-0.606523 1.640962,-0.39761 1.895882,-0.588476 4.929364,-3.690677 2.461124,-2.516879 3.517133,-3.390422 4.578654,-3.787515 2.816378,-1.053547 6.256968,0.06934 9.699728,3.165656 0.92338,0.830471 1.98495,1.671788 2.35903,1.869593 0.37407,0.197808 2.35283,0.662599 4.39724,1.032872 2.04441,0.37027 4.29226,0.926825 4.99521,1.236785 1.41487,0.623862 2.72434,2.09568 4.428,4.97695 2.57482,4.354588 3.04924,4.925078 4.75418,5.716798 2.03106,0.94317 4.90029,3.77863 6.95379,6.87193 2.05168,3.09058 4.54695,8.26156 5.01355,10.38968 0.54755,2.49729 0.45558,10.29576 -0.16192,13.72826 -0.97277,5.40751 -3.14917,11.813825 -5.6123,16.520035 l -1.30885,2.50076 0.71499,0.96768 c 1.17535,1.59076 1.53281,2.83617 1.5287,5.326 -0.003,2.12844 -0.10422,2.53767 -1.13785,4.62458 -1.97338,3.9843 -5.54086,6.74178 -8.87503,6.85995 l -1.52765,0.0542 -2.36522,3.1794 c -3.30757,4.44616 -6.50558,8.18629 -8.32327,9.73423 -9.2576,7.88376 -21.902191,12.12128 -31.410197,10.52635 z"
     id="path24857" />
  <path
     style="fill:#3f3f3f;stroke-width:0.2895;opacity:1;fill-opacity:1"
     d="M 82.160303,150.66705 C 75.353655,149.52526 70.874716,147.37771 65.164576,142.518 58.4664,136.81739 54.164048,129.2975 51.95128,119.42308 c -0.893882,-3.98893 -1.239329,-12.66901 -0.681093,-17.11395 0.483202,-3.847501 1.726779,-8.621561 3.131839,-12.023091 l 1.167117,-2.82548 -1.368998,-2.68031 c -1.610153,-3.15245 -2.204837,-5.5763 -1.954316,-7.96551 0.195589,-1.86532 1.052799,-4.28395 1.976708,-5.57732 l 0.593541,-0.83089 -0.629204,-1.54531 c -1.353995,-3.32537 -1.257495,-7.06245 0.261804,-10.13874 1.128828,-2.28565 4.230476,-5.244203 6.840713,-6.525115 2.717475,-1.333537 2.937106,-1.14688 1.72956,1.469887 -0.550192,1.192276 -1.002757,2.431478 -1.0057,2.753798 -0.02128,2.33297 4.055266,3.55668 6.954373,2.08757 0.830212,-0.42071 2.208479,-1.70173 3.903444,-3.628021 3.926095,-4.461928 5.183701,-5.102473 10.622622,-5.410488 1.818308,-0.102975 4.084717,-0.37591 5.036464,-0.606523 1.640962,-0.39761 1.895882,-0.588476 4.929364,-3.690677 2.461124,-2.516879 3.517133,-3.390422 4.578654,-3.787515 2.816378,-1.053547 6.256968,0.06934 9.699728,3.165656 0.92338,0.830471 1.98495,1.671788 2.35903,1.869593 0.37407,0.197808 2.35283,0.662599 4.39724,1.032872 2.04441,0.37027 4.29226,0.926825 4.99521,1.236785 1.41487,0.623862 2.72434,2.09568 4.428,4.97695 2.57482,4.354588 3.04924,4.925078 4.75418,5.716798 2.03106,0.94317 4.90029,3.77863 6.95379,6.87193 2.05168,3.09058 4.54695,8.26156 5.01355,10.38968 0.54755,2.49729 0.45558,10.29576 -0.16192,13.72826 -0.97277,5.40751 -3.14917,11.813821 -5.6123,16.520031 l -1.30885,2.50076 0.71499,0.96768 c 1.17535,1.59076 1.53281,2.83617 1.5287,5.326 -0.003,2.12844 -0.10422,2.53767 -1.13785,4.62458 -1.97338,3.9843 -5.54086,6.74178 -8.87503,6.85995 l -1.52765,0.0542 -2.36522,3.1794 c -3.30757,4.44616 -6.50558,8.18629 -8.32327,9.73423 -9.2576,7.88376 -21.902191,12.12128 -31.410197,10.52635 z"
     id="path985" />
  <path
     style="opacity:0.2;fill:#ffffff;stroke-width:4"
     d="M 96 16 A 80 80 0 0 0 16 96 A 80 80 0 0 0 16.019531 96.472656 A 80 80 0 0 1 96 17 A 80 80 0 0 1 175.97461 96.513672 A 80 80 0 0 0 176 96 A 80 80 0 0 0 96 16 z "
     id="path6" />
  <path
     id="path6151"
     style="fill:#ffd540;stroke-width:0.2895;opacity:1;fill-opacity:1"
     d="M 100.14844 43.261719 C 98.540669 43.261719 97.119603 44.601871 93.521484 49.513672 C 92.458336 50.964977 91.265539 52.36347 90.871094 52.621094 C 89.920847 53.241733 88.725417 53.212461 86.90625 52.523438 C 81.620949 50.521592 80.122332 51.059029 73.589844 57.306641 C 69.281073 61.427511 68.407123 61.882407 65.117188 61.716797 C 63.366726 61.628697 62.746918 61.461691 61.753906 60.806641 C 60.222501 59.796451 59.403633 58.476824 59.386719 56.990234 L 59.375 55.835938 L 58.333984 56.990234 C 56.752235 58.747894 55.847955 60.942397 55.689453 63.404297 C 55.445565 67.192427 56.626822 71.024719 58.767578 73.386719 C 60.283921 75.059769 61.207915 75.441604 63.333984 75.271484 C 66.190692 75.042914 67.66196 74.056089 71.462891 69.818359 C 77.692874 62.872419 79.375416 62.239282 84.5 64.919922 C 86.770558 66.107642 87.364525 66.306675 88.054688 66.109375 C 88.510497 65.979065 90.970158 64.752273 93.519531 63.382812 C 96.068913 62.013343 98.441672 60.892578 98.792969 60.892578 C 100.67248 60.892578 103.54734 63.2537 107.29492 67.875 C 108.41451 69.25561 109.69404 70.53517 110.13867 70.71875 C 110.84545 71.01057 111.50645 70.864644 115.39648 69.552734 C 119.47987 68.175624 120.01377 68.061994 121.88086 68.183594 C 125.34063 68.408924 127.73461 70.187873 128.95508 73.439453 C 130.21454 76.794923 129.53336 78.865517 126.13477 82.029297 C 124.96075 83.122197 123.88356 84.015625 123.74023 84.015625 C 123.11023 84.015625 123.62697 84.634725 125.69336 86.359375 C 129.66532 89.674435 132.47768 93.761599 133.3457 97.474609 C 133.52924 98.259699 133.75189 99.097478 133.83984 99.335938 C 134.0595 99.931477 136.04813 93.719511 136.8125 90.050781 C 137.68432 85.866381 137.88704 80.772141 137.30273 77.712891 C 136.20345 71.957531 131.7455 64.412259 127.9668 61.912109 C 126.6991 61.073349 125.95054 60.252348 124.70703 58.330078 C 121.31649 53.088803 119.40217 51.472786 115.40234 50.480469 C 110.38976 49.236889 108.41463 48.33391 105.83008 46.101562 C 104.21282 44.70469 101.32667 43.261719 100.14844 43.261719 z M 56.820312 74.300781 C 56.648928 74.287531 56.473654 74.336417 56.269531 74.445312 C 54.694534 75.285533 54.428044 79.470488 55.748047 82.642578 C 56.579673 84.641058 56.917769 84.976811 57.201172 84.087891 C 57.289862 83.809701 58.211592 82.159742 59.25 80.419922 C 60.288408 78.680112 61.138672 77.151528 61.138672 77.023438 C 61.138672 76.895358 60.961385 76.791016 60.746094 76.791016 C 60.530802 76.791016 59.794649 76.368212 59.109375 75.851562 C 58.4241 75.334913 57.631645 74.739767 57.347656 74.529297 C 57.159831 74.390102 56.991697 74.314031 56.820312 74.300781 z " />
  <path
     style="fill:#ffd5a7;stroke-width:0.2895;opacity:1;fill-opacity:1"
     d="m 92.598955,147.47711 c 10.872485,-2.63816 18.116995,-8.02364 26.103735,-19.4052 l 2.21546,-3.15713 2.08091,-0.17661 c 3.55157,-0.30142 6.53265,-2.27986 8.04229,-5.33737 0.56593,-1.14619 0.70256,-1.87257 0.70256,-3.7352 0,-1.98513 -0.10917,-2.49632 -0.77154,-3.61295 -0.42433,-0.71537 -1.17462,-1.68269 -1.66728,-2.14959 -1.18501,-1.12306 -1.12994,-1.5627 0.26409,-2.10854 0.63792,-0.24978 1.15986,-0.54838 1.15986,-0.66356 0,-0.11517 -1.15923,-1.94889 -2.57605,-4.07492 -2.67233,-4.010021 -4.45297,-6.034961 -6.6042,-7.510321 -0.89277,-0.61228 -1.25841,-1.064 -1.25841,-1.55469 0,-1.0127 0.46639,-1.13868 1.64634,-0.44471 2.94442,1.7317 5.95187,5.20771 8.07912,9.337821 0.63147,1.22603 1.23644,2.22971 1.34435,2.23039 0.53225,0.003 0.32499,-1.21639 -0.52931,-3.11492 -1.66738,-3.705501 -4.00065,-6.904761 -7.68049,-10.531061 -1.89196,-1.86444 -3.43993,-3.45396 -3.43993,-3.53227 0,-0.0783 0.25979,-0.28096 0.5773,-0.45035 0.87652,-0.4676 1.9179,0.21198 4.47192,2.91826 3.11181,3.2973 5.44431,6.86949 6.94027,10.628881 0.27674,0.69547 0.56523,1.20262 0.6411,1.127 0.26285,-0.26203 -0.4466,-4.233701 -1.03745,-5.807851 -1.32565,-3.5318 -4.75128,-7.4161 -9.20382,-10.43615 -2.66011,-1.80428 -2.6888,-2.07991 -0.35695,-3.4291 2.51068,-1.45265 4.05684,-3.65375 4.05684,-5.77527 0,-1.60974 -1.35366,-3.91795 -2.86971,-4.89332 -1.2839,-0.82603 -1.43416,-0.85356 -3.94441,-0.72278 -1.43531,0.0748 -4.04928,0.4888 -5.80881,0.92005 -4.19653,1.02854 -4.87677,0.86849 -7.42385,-1.74664 -2.19217,-2.25074 -3.89403,-3.38056 -6.029989,-4.00316 -2.442083,-0.71182 -3.704693,-0.58443 -6.909125,0.69709 -4.039645,1.61553 -5.772771,1.61274 -8.870845,-0.0143 -1.282582,-0.67358 -2.810966,-1.23734 -3.60043,-1.32807 -1.196383,-0.13748 -1.521526,-0.0487 -2.542849,0.69443 -0.644086,0.46864 -2.648386,2.54327 -4.453997,4.61029 -3.484593,3.98907 -5.310044,5.39397 -7.812493,6.01263 -1.155565,0.28569 -1.507394,0.55992 -2.437034,1.89954 -1.894853,2.7305 -5.393605,10.02124 -6.563428,13.67693 -1.800775,5.62745 -2.210628,8.409641 -2.196959,14.913641 0.0097,4.64333 0.126282,6.20932 0.661472,8.88944 2.53912,12.71546 9.525165,23.07207 19.338638,28.66898 6.001045,3.42257 11.392325,4.15781 18.263104,2.49064 z"
     id="path6127" />
  <path
     style="opacity:1;fill:#3f3f3f;fill-opacity:1;stroke-width:0.289777"
     d="m 78.00917,128.85763 c -3.663004,-0.64711 -7.433347,-2.26304 -11.087273,-4.75187 -1.068369,-0.7277 -2.123328,-1.3231 -2.344359,-1.3231 -0.463157,0 -0.754551,0.61645 -0.754551,1.59628 0,1.40626 -0.567545,0.92091 -2.121661,-1.81438 -1.58361,-2.78721 -1.756499,-3.21487 -1.689476,-4.17913 0.03834,-0.5518 3.41878,-4.27387 3.881576,-4.27387 0.180562,0 0.222694,0.44577 0.10899,1.1532 -0.146473,0.91133 -0.06994,1.26801 0.364835,1.70058 0.913581,0.90893 9.488023,2.63285 13.110022,2.63582 2.723177,0.002 8.43611,-1.20079 15.151997,-3.19068 2.779702,-0.82361 3.045635,-1.53406 1.791428,-4.78582 -0.36911,-0.95699 0.893211,-0.20895 4.562475,2.70368 2.737017,2.17262 3.943597,3.31304 4.011657,3.79172 0.1,0.70365 -1.27853,6.71414 -1.75081,7.63332 -0.4635,0.90212 -0.81592,0.22763 -0.81592,-1.5616 0,-1.97324 -0.35476,-2.85431 -1.149283,-2.85431 -0.301289,0 -1.579475,0.63661 -2.84041,1.41468 -7.515297,4.63739 -14.20128,6.85241 -18.429237,6.10548 z"
     id="path6131" />
  <path
     style="opacity:1;fill:#3f3f3f;fill-opacity:1;stroke-width:0.2895"
     d="m 65.017568,82.328334 c 0,-1.13038 4.676522,-4.57115 5.7509,-4.23125 0.582634,0.18434 1.425445,1.77384 1.108217,2.09005 -0.09792,0.0976 -0.855639,0.28425 -1.68381,0.41475 -0.828168,0.13049 -2.231932,0.59924 -3.119472,1.04166 -2.147533,1.07049 -2.055835,1.03994 -2.055835,0.68479 z"
     id="path6147" />
  <path
     style="opacity:1;fill:#3f3f3f;fill-opacity:1;stroke-width:0.2895"
     d="m 104.19668,83.420916 c -1.52541,-1.58021 -2.59089,-2.37952 -4.283182,-3.21323 l -2.252651,-1.10977 0.658641,-0.70303 c 1.012164,-1.08037 2.156782,-1.58711 2.804482,-1.24158 0.88149,0.47025 4.04381,4.28254 4.82171,5.81275 0.69865,1.37432 0.93611,2.59805 0.49899,2.57152 -0.11961,-0.007 -1.13121,-0.95976 -2.24799,-2.11666 z"
     id="path6145" />
  <path
     style="opacity:1;fill:#3f3f3f;fill-opacity:1;stroke-width:0.290133"
     d="M 66.31149,98.717501 C 65.462315,98.185791 64.867522,95.911606 65.025462,93.800375 65.489554,87.59684 70,87.314021 70,93.488463 c 0,3.809527 -1.824568,6.396133 -3.68851,5.229038 z"
     id="path6143" />
  <path
     style="opacity:1;fill:#3f3f3f;fill-opacity:1;stroke-width:0.28543"
     d="m 103.07092,98.319748 c -3.204088,-2.326267 -6.56406,-3.985998 -8.750625,-4.322562 -1.078119,-0.165944 -1.918479,-0.708559 -1.947212,-1.257299 -0.01772,-0.338313 2.797563,-1.342434 4.515407,-1.610505 3.24379,-0.506191 5.99535,0.490551 7.40061,2.680854 0.5456,0.850376 0.68813,1.462486 0.68813,2.955019 0,2.490374 -0.29073,2.727445 -1.90631,1.554493 z"
     id="path6141" />
  <path
     style="fill:#3f3f3f;stroke-width:0.2895;opacity:1;fill-opacity:1"
     d="m 125.54003,105.25056 c -0.4948,-0.56175 -1.09888,-1.32448 -1.34241,-1.69497 -0.24353,-0.37049 -1.28752,-1.29182 -2.31999,-2.04741 -1.87703,-1.37367 -2.37061,-2.291591 -1.4264,-2.652771 1.16677,-0.4463 4.43659,2.454931 5.8086,5.153831 1.19512,2.35092 0.82293,2.99278 -0.7198,1.24132 z"
     id="path6139" />
  <path
     style="fill:#3f3f3f;stroke-width:0.2895;opacity:1;fill-opacity:1"
     d="m 122.17268,108.08848 c -0.44639,-0.60169 -1.20977,-1.51789 -1.6964,-2.036 -0.82766,-0.88123 -0.8534,-0.97329 -0.39891,-1.42633 0.43198,-0.4306 0.57263,-0.43831 1.26829,-0.0696 1.19663,0.63423 2.46771,2.54816 2.36549,3.56182 -0.12406,1.23037 -0.61047,1.22092 -1.53847,-0.0299 z"
     id="path6137" />
  <path
     style="opacity:1;fill:#3f3f3f;fill-opacity:1;stroke-width:0.288047"
     d="M 76.171631,111.67028 C 75.246914,111.20846 72,106.11854 72,105.13075 c 0,-0.54301 0.786063,-1.65872 2.789075,-3.95869 3.035894,-3.485987 4.197942,-5.101411 5.875294,-8.167564 1.287266,-2.353084 1.805234,-3.004497 2.389001,-3.004497 1.191396,0 -1.008965,5.347414 -4.709806,11.445981 -1.043611,1.71976 -1.897472,3.43571 -1.897472,3.81324 0,0.37752 0.705061,1.75602 1.566801,3.06332 0.861743,1.3073 1.501177,2.54569 1.420965,2.75196 -0.08022,0.20627 -0.622167,0.50561 -1.204348,0.66517 -1.299784,0.35627 -1.198728,0.35969 -2.057879,-0.0694 z"
     id="path6135" />
  <path
     style="opacity:1;fill:#ffffff;stroke-width:0.289777"
     d="m 82.151836,125.94552 c 3.32463,-0.33943 5.685657,-1.11706 12.029467,-3.962 3.169306,-1.4213 3.821874,-1.82307 4.061323,-2.50047 0.249122,-0.70476 0.182703,-0.89487 -0.523924,-1.49958 -1.08042,-0.92461 -1.880782,-0.87771 -5.764529,0.33779 -10.070379,3.15173 -14.471469,3.42126 -23.312756,1.4277 -1.743928,-0.39323 -3.384945,-0.78259 -3.646701,-0.86524 -0.821839,-0.25952 -1.574698,0.52346 -1.352029,1.40612 0.245553,0.97338 1.079444,1.47847 6.04276,3.6601 3.868032,1.7002 4.743601,1.92043 8.995743,2.26271 0.262691,0.0212 1.824483,-0.0991 3.470646,-0.26713 z"
     id="path6133" />
  <path
     style="opacity:1;fill:#3f3f3f;fill-opacity:1;stroke-width:0.2895"
     d="m 76.071089,133.3279 c -1.636201,-0.77663 -2.679324,-1.50187 -2.464227,-1.71326 0.07949,-0.0781 1.76045,-0.2791 3.735469,-0.4466 4.090755,-0.34696 4.67299,-0.20438 4.67299,1.14436 0,0.72148 -0.173282,0.94386 -1.005555,1.2905 -1.471932,0.61305 -3.279831,0.51238 -4.938677,-0.275 z"
     id="path6129" />
</svg>
