<?xml version="1.0" encoding="UTF-8" standalone="no"?>
<svg
   width="192"
   height="192"
   version="1.1"
   id="svg24"
   sodipodi:docname="games_incredipede.svg"
   inkscape:version="1.1-rc (1:1.1+rc+202105232036+f4db50c7c1)"
   xmlns:inkscape="http://www.inkscape.org/namespaces/inkscape"
   xmlns:sodipodi="http://sodipodi.sourceforge.net/DTD/sodipodi-0.dtd"
   xmlns="http://www.w3.org/2000/svg"
   xmlns:svg="http://www.w3.org/2000/svg">
  <defs
     id="defs28">
    <filter
       inkscape:collect="always"
       style="color-interpolation-filters:sRGB"
       id="filter855"
       x="-0.048000001"
       y="-0.048000001"
       width="1.096"
       height="1.096">
      <feGaussianBlur
         inkscape:collect="always"
         stdDeviation="3.2"
         id="feGaussianBlur857" />
    </filter>
    <filter
       inkscape:collect="always"
       style="color-interpolation-filters:sRGB"
       id="filter877"
       x="-0.04159986"
       y="-0.056727529"
       width="1.0831997"
       height="1.1134551">
      <feGaussianBlur
         inkscape:collect="always"
         stdDeviation="2.0800095"
         id="feGaussianBlur879" />
    </filter>
  </defs>
  <sodipodi:namedview
     id="namedview26"
     pagecolor="#ffffff"
     bordercolor="#666666"
     borderopacity="1.0"
     inkscape:pageshadow="2"
     inkscape:pageopacity="0.0"
     inkscape:pagecheckerboard="0"
     showgrid="false"
     inkscape:zoom="2.02"
     inkscape:cx="24.009901"
     inkscape:cy="24.009901"
     inkscape:window-width="1920"
     inkscape:window-height="1019"
     inkscape:window-x="0"
     inkscape:window-y="34"
     inkscape:window-maximized="1"
     inkscape:current-layer="svg24" />
  <circle
     cx="96"
     cy="100"
     r="80"
     style="opacity:0.2;stroke-width:8;filter:url(#filter855)"
     id="circle2" />
  <circle
     cx="96"
     cy="96"
     r="80"
     style="fill:#69aa35;stroke-width:8"
     id="circle4" />
  <path
     id="path6"
     style="opacity:0.1;fill:#ffffff;stroke-width:8"
     d="M 96 16 A 80 80 0 0 0 16 96 A 80 80 0 0 0 16.021484 96.662109 A 80 80 0 0 1 96 17 A 80 80 0 0 1 175.98438 96.310547 A 80 80 0 0 0 176 96 A 80 80 0 0 0 96 16 z " />
  <path
     d="m 104.00095,58.999978 c -10.966678,0 -21.222754,5.134162 -28.359379,9.15625 -0.747808,0.420576 -1.423098,0.958702 -2,1.59375 -14.193053,9.193054 -24.567,17.212124 -32.796876,33.671882 -1.12626,2.25248 -1.12626,4.90377 0,7.15624 0,0 18.88958,36.42188 63.156255,36.42188 14.01406,0 24.8027,-4.57961 32.12499,-11.14062 6.43221,-5.76348 9.87816,-12.63001 12.10938,-18.82812 2.08438,-1.3661 4.22315,-2.61265 6.26563,-4.84376 2.855,-3.11867 5.49999,-7.67544 5.5,-13.187492 0,-6.09913 -4.34901,-11.548682 -8.5,-13.609385 -2.59264,-1.287079 -4.61121,-1.224876 -6.8125,-1.5 -6.5122,-10.634867 -18.76155,-24.890625 -40.6875,-24.890625 z"
     style="opacity:0.2;stroke-width:8;filter:url(#filter877)"
     id="path8" />
  <path
     d="m 104.00095,55.999996 c -10.966678,0 -21.222754,5.134162 -28.359379,9.15625 -0.747808,0.420576 -1.423098,0.958702 -2,1.59375 -14.193053,9.193054 -24.567,17.212124 -32.796876,33.671874 -1.12626,2.25248 -1.12626,4.90377 0,7.15625 0,0 18.88958,36.42188 63.156255,36.42188 14.01406,0 24.8027,-4.57961 32.12499,-11.14063 6.43221,-5.76347 9.87816,-12.63001 12.10938,-18.82812 2.08438,-1.3661 4.22315,-2.61265 6.26563,-4.84375 2.855,-3.11868 5.49999,-7.67544 5.5,-13.1875 0,-6.099128 -4.34901,-11.548678 -8.5,-13.609379 -2.59264,-1.287079 -4.61121,-1.224876 -6.8125,-1.5 -6.5122,-10.634867 -18.76155,-24.890625 -40.6875,-24.890625 z"
     style="fill:#4f4f4f;stroke-width:8"
     id="path10" />
  <path
     d="m 136.1875,88.437504 c 0,0 16,-2 16,8 0,9.999996 -16,15.999996 -16,15.999996 z"
     style="fill:#e68673;stroke-width:8"
     id="path12" />
  <path
     d="m 48.187504,104.4375 c 8,-15.999996 16.6875,-22.208677 32,-31.999996 6.5625,-3.75 14,4 14,4 l 29.999996,20 h 20 c 0,0 0,39.999996 -40,39.999996 -39.999996,0 -55.999996,-32 -55.999996,-32 z"
     style="fill:#f2dbb7;stroke-width:8"
     id="path14" />
  <path
     d="m 104.1875,64.437504 c -7.999996,0 -17.916763,4.450019 -24.437496,8.125 -0.0544,0.08458 -0.08697,0.180632 -0.140624,0.265624 -0.988731,0.633553 -1.736855,1.188427 -2.671876,1.796876 a 36,36 0 0 0 -4.75,17.8125 A 36,36 0 0 0 108.1875,128.4375 36,36 0 0 0 144,96 C 142.94154,93.004696 132.55515,64.437504 104.1875,64.437504 Z"
     style="fill:#4f4f4f;stroke-width:8"
     id="path16" />
  <path
     d="M 96.187504,112.4375 H 112.1875 c 10,0 24,-8 24,-8 0,0 -4,16 -24,16 -10,0 -15.999996,-8 -15.999996,-8 z"
     style="fill:#2898b5;stroke-width:8"
     id="path18" />
  <circle
     cx="92.187508"
     cy="84.437508"
     r="12"
     style="fill:#ffffff;stroke-width:8"
     id="circle20" />
</svg>
