<?xml version="1.0" encoding="UTF-8" standalone="no"?>
<svg
   width="192"
   height="192"
   version="1"
   id="svg42"
   sodipodi:docname="games_pekka_kana_2.svg"
   inkscape:version="1.1-rc (1:1.1+rc+202105232036+f4db50c7c1)"
   xmlns:inkscape="http://www.inkscape.org/namespaces/inkscape"
   xmlns:sodipodi="http://sodipodi.sourceforge.net/DTD/sodipodi-0.dtd"
   xmlns="http://www.w3.org/2000/svg"
   xmlns:svg="http://www.w3.org/2000/svg">
  <defs
     id="defs46">
    <filter
       inkscape:collect="always"
       style="color-interpolation-filters:sRGB"
       id="filter903"
       x="-0.048000001"
       y="-0.048000001"
       width="1.096"
       height="1.096">
      <feGaussianBlur
         inkscape:collect="always"
         stdDeviation="3.2"
         id="feGaussianBlur905" />
    </filter>
    <filter
       inkscape:collect="always"
       style="color-interpolation-filters:sRGB"
       id="filter1075"
       x="-0.059983939"
       y="-0.04000714"
       width="1.1199679"
       height="1.0800143">
      <feGaussianBlur
         inkscape:collect="always"
         stdDeviation="2.5992921"
         id="feGaussianBlur1077" />
    </filter>
    <filter
       inkscape:collect="always"
       style="color-interpolation-filters:sRGB"
       id="filter1097"
       x="-0.041982064"
       y="-0.056031919"
       width="1.0839641"
       height="1.1120638">
      <feGaussianBlur
         inkscape:collect="always"
         stdDeviation="0.9096114"
         id="feGaussianBlur1099" />
    </filter>
    <filter
       inkscape:collect="always"
       style="color-interpolation-filters:sRGB"
       id="filter1120"
       x="-0.042667345"
       y="-0.054856022"
       width="1.0853347"
       height="1.109712">
      <feGaussianBlur
         inkscape:collect="always"
         stdDeviation="0.63991547"
         id="feGaussianBlur1122" />
    </filter>
  </defs>
  <sodipodi:namedview
     id="namedview44"
     pagecolor="#ffffff"
     bordercolor="#666666"
     borderopacity="1.0"
     inkscape:pageshadow="2"
     inkscape:pageopacity="0.0"
     inkscape:pagecheckerboard="0"
     showgrid="false"
     inkscape:zoom="3.52"
     inkscape:cx="100.42614"
     inkscape:cy="69.460227"
     inkscape:window-width="1920"
     inkscape:window-height="1019"
     inkscape:window-x="0"
     inkscape:window-y="34"
     inkscape:window-maximized="1"
     inkscape:current-layer="svg42" />
  <path
     style="opacity:0.2;fill:#ffffff"
     d="m 106.53763,133.48387 c -1.108,0 -2,0.892 -2,2 v 1 c 0,-1.108 0.892,-2 2,-2 h 36 c 1.108,0 2,0.892 2,2 v -1 c 0,-1.108 -0.892,-2 -2,-2 z"
     id="path12" />
  <rect
     style="opacity:0.2;stroke-width:4;filter:url(#filter903)"
     width="160"
     height="160"
     x="16"
     y="20"
     rx="8"
     ry="8"
     id="rect2" />
  <rect
     style="fill:#623d64;stroke-width:4"
     width="160"
     height="160"
     x="16"
     y="16"
     rx="8"
     ry="8"
     id="rect4" />
  <path
     id="path6"
     style="opacity:0.2;stroke-width:4;filter:url(#filter1075)"
     d="m 72.943359,18.070312 v 0.002 c -3.07678,-0.0673 -6.589892,2.402861 -11.855468,8.21875 -7.9373,8.766823 -11.78851,14.490123 -14.580079,21.658203 -4.132663,10.611656 -3.142397,18.252427 2.865235,22.103515 3.172824,2.03388 3.155706,1.972401 1.878906,6.923828 -0.818024,3.172328 -0.738928,4.014215 0.638672,6.767579 2.781676,5.559612 10.668866,7.955584 16.28125,4.945312 3.384844,-1.815508 4.254908,-4.146845 4.326172,-11.585937 0.07056,-7.375912 0.539884,-8.697812 3.089844,-8.69336 2.10606,0.0037 6.939453,2.921757 6.939453,4.189453 0.203855,-1.26864 0.744998,-2.323121 1.55664,-3.115234 -0.393221,0.613455 -0.677911,1.313568 -0.810546,2.109375 0,0.488668 -1.087003,1.97764 -2.414063,3.304688 -2.378932,2.378932 -4.084606,6.670491 -4.09375,10.304687 -0.002,1.022984 -0.506544,2.672575 -1.125,3.664063 -0.618452,0.991488 -1.347868,5.16241 -1.617187,9.265622 -0.26932,4.10323 -0.833573,8.31451 -1.257813,9.35938 -0.424228,1.04488 -0.988364,2.90075 -1.25,4.125 -0.33848,1.5838 1.091617,4.17798 -0.492187,4.52343 -12.069913,2.63272 -13.990184,7.85012 -10.492188,19.88282 1.529464,5.26114 4.979579,8.59969 8.859375,8.57812 1.420548,-0.008 0.183399,-4.36024 4.414063,-5.69531 7.724732,-2.43769 12.242187,0.19092 12.242187,1.5625 0,0.40531 1.323813,8.14809 2.890625,10.02344 2.317116,2.77339 2.851562,4.08837 2.851562,7.03125 0,2.01185 -0.727632,5.0304 -1.632812,6.80468 -2.048832,4.01613 -2.036789,5.15296 0.101562,9.57032 L 90.304688,174 h 24.414062 c -4.0686,-4.92232 -5.37368,-8.9062 -5.39063,-15.42969 -0.0112,-4.3725 1.80522,-6.49429 6.91407,-8.08593 8.71382,-2.71478 11.99629,-3.71234 14.66211,-6.47657 2.90183,-3.00895 4.85156,-7.73307 4.85156,-11.75 0,-3.25255 -2.82922,-8.18059 -8,-13.94531 -8.85019,-9.86679 -10.62394,-10.91832 -12.26367,-20.3125 -1.03249,-5.9153 -1.69335,-7.675074 -3.64844,-9.71875 -1.56635,-1.63732 -2.56823,-3.679704 -2.72852,-4.984375 5.6549,1.547023 8.8914,0.494069 10.48438,-3.435547 l 1.00977,-2.49414 1.67773,2.947265 c 1.94276,3.415276 4.22945,4.245179 9.80273,3.560547 C 139.80675,82.927036 148,75.581095 148,69.609375 c 0,-3.409232 -3.53662,-8.833418 -10.88672,-16.691406 -8.33095,-8.906608 -11.36223,-9.459305 -18.94922,-3.453125 -5.33418,4.222764 -7.2796,4.725893 -9.58398,2.480468 -3.73606,-3.640447 -7.86891,-1.806379 -10.86133,4.820313 -2.628736,5.821304 -3.960391,5.303545 -6.248047,-2.435547 -1.009816,-3.416184 -2.94466,-9.566596 -4.298828,-13.666016 -1.354176,-4.099417 -3.035568,-9.254364 -3.736328,-11.455078 -1.510724,-4.744322 -6.034583,-10.13125 -9.199219,-10.955078 -0.425724,-0.110825 -0.853429,-0.173983 -1.292969,-0.183594 z m 5.554688,34.779297 c 0.11676,0.0124 0.227525,0.03804 0.328125,0.07813 1.612656,0.64186 3.606503,3.881873 3.880859,6.306641 0.29272,2.586816 -0.611112,2.756645 -5.36914,1.007813 -2.817008,-1.035401 -3.992188,-1.913229 -3.992188,-2.980469 0,-1.79428 3.400568,-4.596842 5.152344,-4.41211 z" />
  <path
     style="opacity:0.1;stroke-width:4"
     d="m 88.054688,143.96094 c -1.230864,-0.007 -4.514776,1.87778 -5,3.54687 -0.50846,2.10027 6.2822,4.76991 6.625,10.85938 0.486864,8.64814 -5.818652,11.83825 -2.52344,17.63281 h 11.578128 c 2.256974,-4.14723 -1.231952,-11.37025 -1.390624,-18.14062 -0.12008,-5.1243 4.234548,-10.72046 3.249998,-11.72657 -1.714154,-1.78385 -4.895146,1.30456 -9.273438,-1.39843 -1.342168,-0.42354 -2.81496,-0.7709 -3.265624,-0.77344 z"
     id="path8" />
  <path
     style="fill:#bebebe;stroke-width:4"
     d="m 88.859376,64.968752 c -3.079492,0.16772 -5.133372,1.909604 -5.58594,4.625 0,0.488672 -1.087,1.977636 -2.41406,3.304684 -2.378932,2.378932 -4.084608,6.670492 -4.093752,10.304688 -0.002,1.022984 -0.506544,2.672576 -1.125,3.664064 -0.618452,0.991488 -1.347868,5.162408 -1.617188,9.265624 -0.26932,4.103228 -0.833572,8.314508 -1.257812,9.359378 -0.424228,1.04488 -0.988364,2.90075 -1.25,4.125 -0.33848,1.5838 1.09396,4.17634 -0.489844,4.5218 -12.069912,2.63271 -13.990348,7.85401 -10.492348,19.88671 1.529464,5.26115 4.97958,8.5997 8.859376,8.57813 1.420548,-0.008 0.17784,-4.36505 4.40852,-5.70013 7.724732,-2.43769 12.242184,0.19572 12.242184,1.56732 0,0.4053 1.326332,8.14582 2.893144,10.02117 2.317116,2.77339 2.851564,4.08837 2.851564,7.03125 0,2.01185 -0.727636,5.03039 -1.632816,6.80468 -2.048832,4.01612 -2.036796,5.15296 0.10156,9.57032 l 1.73438,3.57812 L 91.499156,176 h 26.836784 c -0.21844,-0.229 -0.44038,-0.47343 -0.65625,-0.69531 -6.48338,-6.66374 -8.33101,-10.81686 -8.35157,-18.73438 -0.0112,-4.3725 1.80522,-6.49428 6.91407,-8.08593 8.71382,-2.71478 11.99643,-3.71234 14.66225,-6.47657 2.90183,-3.00895 4.85156,-7.73307 4.85156,-11.75 0,-3.25255 -2.82922,-8.18059 -8,-13.94531 -8.85019,-9.86679 -10.62408,-10.91832 -12.26381,-20.3125 -1.03249,-5.9153 -1.69335,-7.675076 -3.64844,-9.718752 -2.66033,-2.780872 -3.76143,-6.78706 -1.71094,-6.22656 0.74035,0.20236 1.43963,0.3572 2.10157,0.47656 -0.66194,-0.11936 -1.36122,-0.282 -2.10157,-0.484372 C 101.9721,68.779644 93.99186,64.689196 88.859376,64.968752 Z m -18.08594,18.929684 c -0.28472,0.28996 -0.598528,0.557008 -0.953124,0.804688 0.35636,-0.24892 0.667308,-0.51302 0.953124,-0.804688 z"
     id="path14" />
  <path
     style="opacity:0.1;stroke-width:4"
     d="m 83.344488,84.762884 c -3.176256,0.991092 -5.59208,2.03458 -7.63398,3.076076 -0.602624,1.704424 -1.201604,5.005748 -1.455652,8.292296 -0.31716,4.103224 -0.9841,8.314514 -1.483728,9.359384 -0.014,0.0296 -0.0316,0.0822 -0.0466,0.11328 5.269676,2.37908 12.311432,1.37652 13.236604,-13.063392 -0.622704,-2.6456 1.541888,-5.882548 -2.61642,-7.777628 z"
     id="path16" />
  <path
     style="opacity:0.1;stroke-width:4"
     d="m 90.360128,75.850604 c -6.54086,3.510648 -3.135864,9.5057 -4.115344,14.406696 2.200904,40.45642 26.407086,23.99111 29.697666,14.99688 l 0.97369,-2.66276 c -0.54129,-1.76461 -0.93708,-3.806652 -1.42279,-6.589324 -0.53948,-3.090812 -0.98173,-5.036828 -1.55591,-6.491956 -6.1726,-4.178276 -11.4469,-9.201816 -23.577312,-13.659536 z"
     id="path18" />
  <path
     style="fill:#c12133;stroke-width:4"
     d="m 89.988664,175.47252 c -8.708264,-8.30322 0.26688,-10.87543 -0.30888,-21.10264 -0.3428,-6.08948 -7.135824,-8.76512 -6.627364,-10.8654 0.485224,-1.66909 3.774664,-3.55293 5.005528,-3.54609 0.450664,0.003 1.9177,0.35124 3.259868,0.77478 4.378292,2.70299 7.560228,-0.38416 9.274384,1.39969 0.98454,1.00611 -3.372304,6.60334 -3.252208,11.72764 0.23756,10.1364 8.025898,21.31943 -7.351332,21.61202 z"
     id="path20" />
  <path
     style="opacity:0.2;stroke-width:4;filter:url(#filter1097)"
     d="m 71.927496,111.1356 c -0.34284,1.5838 -1.13314,2.36697 -2.737396,2.71243 -12.225756,2.63271 -19.862856,15.53476 -16.319688,27.56746 1.549212,5.26115 5.047144,8.60597 8.977036,8.58441 1.438896,-0.008 6.122828,-1.10712 10.40812,-2.44219 13.979028,-8.5201 24.1383,1.21086 29.611232,-4.41198 8.3989,-9.37675 -9.334784,-33.83402 -29.939304,-32.01013 z"
     id="path22" />
  <path
     style="fill:#f04559;stroke-width:4"
     d="m 71.927496,109.1356 c -0.34284,1.5838 -1.13314,2.36697 -2.737396,2.71243 -12.225756,2.63271 -19.862856,15.53476 -16.319688,27.56746 1.549212,5.26115 5.047144,8.60597 8.977036,8.58441 1.438896,-0.008 6.122828,-1.10712 10.40812,-2.44219 13.979028,-8.5201 24.1383,1.21086 29.611232,-4.41198 8.3989,-9.37675 -9.334784,-33.83402 -29.939304,-32.01013 z"
     id="path24" />
  <path
     id="ellipse26"
     style="opacity:0.2;stroke-width:3.99948;filter:url(#filter1120)"
     d="m 97.029297,86.007864 a 14.677212,11.157146 62.434796 0 0 -4.222656,1.205079 14.677212,11.157146 62.434796 0 0 -2.41211,18.480467 14.677212,11.157146 62.434796 0 0 16.794919,7.09765 14.677212,11.157146 62.434796 0 0 2.41211,-18.482414 14.677212,11.157146 62.434796 0 0 -12.572263,-8.300782 z m -15.076172,8.007813 a 4.8730781,6.1023343 17.710905 0 0 -5.673828,4.773438 4.8730781,6.1023343 17.710905 0 0 3.080078,7.089835 4.8730781,6.1023343 17.710905 0 0 6.363281,-4.66211 4.8730781,6.1023343 17.710905 0 0 -3.080078,-7.087882 4.8730781,6.1023343 17.710905 0 0 -0.689453,-0.113281 z" />
  <ellipse
     style="fill:#ffffff;stroke-width:4"
     cx="39.136002"
     cy="135.328"
     rx="11.164"
     ry="14.672"
     transform="matrix(0.86024312,-0.50988407,0.49018063,0.87162088,0,0)"
     id="ellipse28" />
  <circle
     style="fill:#333333;stroke-width:4"
     cx="96"
     cy="96"
     r="4"
     id="circle30" />
  <ellipse
     style="fill:#ffffff;stroke-width:4"
     cx="-104.404"
     cy="74.767998"
     rx="4.8759999"
     ry="6.0999999"
     transform="matrix(-0.96852129,-0.24893074,-0.26904182,0.96312849,0,0)"
     id="ellipse34" />
  <circle
     style="fill:#333333;stroke-width:4"
     cx="-53.84"
     cy="115.884"
     r="2"
     transform="matrix(-0.96592582,0.25881905,0.25881905,0.96592582,0,0)"
     id="circle36" />
  <path
     style="fill:#f04559;stroke-width:4"
     d="m 72.942468,16.001337 c -3.07678,-0.0673 -6.588408,2.403085 -11.853984,8.218974 -7.9373,8.766823 -11.78956,14.490377 -14.581128,21.658461 -4.132664,10.611656 -3.142084,18.252188 2.865548,22.10328 3.172824,2.03388 3.155968,1.973536 1.879168,6.924968 -0.818024,3.172328 -0.73822,4.013892 0.63938,6.767256 2.781676,5.559612 10.668572,7.955812 16.280956,4.94554 3.384844,-1.815508 4.254344,-4.146328 4.325608,-11.58542 0.07056,-7.375912 0.539756,-8.698568 3.089716,-8.694116 2.10606,0.0037 6.93968,2.921652 6.93968,4.189348 1.1839,-7.367708 13.540436,-7.701728 26.349308,10.641168 5.81014,1.647304 9.10704,0.608608 10.72336,-3.378576 l 1.00977,-2.495008 1.67643,2.947912 c 1.94276,3.415276 4.22999,4.24518 9.80327,3.560548 7.71691,-0.947964 15.91059,-8.294724 15.91059,-14.266444 0,-3.409232 -3.53702,-8.832696 -10.88712,-16.690688 -8.33095,-8.906604 -11.36262,-9.45956 -18.94961,-3.45338 -5.33418,4.222764 -7.27861,4.72628 -9.58299,2.480856 -3.73606,-3.640448 -7.86935,-1.806512 -10.861772,4.82018 -2.628736,5.821304 -3.960004,5.302716 -6.24766,-2.436372 C 90.461172,48.84364 88.52684,42.6933 87.172672,38.593882 85.818496,34.494466 84.136536,29.340602 83.435776,27.139887 81.925052,22.395565 77.401444,17.007103 74.236808,16.183276 73.811084,16.07245 73.381976,16.010917 72.942436,16.001308 Z m 5.555644,34.778491 c 0.11676,0.0124 0.22688,0.0388 0.32748,0.07888 1.612656,0.64186 3.606796,3.881496 3.881152,6.306268 0.29272,2.586816 -0.610468,2.755732 -5.368496,1.006896 -2.817008,-1.035396 -3.992268,-1.913016 -3.992268,-2.98026 0,-1.794276 3.400352,-4.596496 5.152128,-4.41176 z"
     id="path38" />
  <path
     id="path40"
     style="opacity:0.1;fill:#ffffff;stroke-width:4"
     d="M 24 16 C 19.568 16 16 19.568 16 24 L 16 25 C 16 20.568 19.568 17 24 17 L 168 17 C 172.432 17 176 20.568 176 25 L 176 24 C 176 19.568 172.432 16 168 16 L 24 16 z " />
</svg>
