<?xml version="1.0" encoding="UTF-8" standalone="no"?>
<svg
   width="192"
   height="192"
   version="1.1"
   id="svg46"
   sodipodi:docname="games_open_liero_x.svg"
   inkscape:version="1.1-rc (1:1.1+rc+202105232036+f4db50c7c1)"
   xmlns:inkscape="http://www.inkscape.org/namespaces/inkscape"
   xmlns:sodipodi="http://sodipodi.sourceforge.net/DTD/sodipodi-0.dtd"
   xmlns="http://www.w3.org/2000/svg"
   xmlns:svg="http://www.w3.org/2000/svg">
  <defs
     id="defs50">
    <filter
       inkscape:collect="always"
       style="color-interpolation-filters:sRGB"
       id="filter934"
       x="-0.094499999"
       y="-0.126"
       width="1.189"
       height="1.252">
      <feGaussianBlur
         inkscape:collect="always"
         stdDeviation="1.26"
         id="feGaussianBlur936" />
    </filter>
    <filter
       inkscape:collect="always"
       style="color-interpolation-filters:sRGB"
       id="filter938"
       x="-0.044"
       y="-0.0528"
       width="1.088"
       height="1.1056">
      <feGaussianBlur
         inkscape:collect="always"
         stdDeviation="0.88"
         id="feGaussianBlur940" />
    </filter>
    <filter
       inkscape:collect="always"
       style="color-interpolation-filters:sRGB"
       id="filter942"
       x="-0.12"
       y="-0.060000001"
       width="1.24"
       height="1.12">
      <feGaussianBlur
         inkscape:collect="always"
         stdDeviation="0.8"
         id="feGaussianBlur944" />
    </filter>
    <filter
       inkscape:collect="always"
       style="color-interpolation-filters:sRGB"
       id="filter946"
       x="-0.040000001"
       y="-0.080000001"
       width="1.08"
       height="1.16">
      <feGaussianBlur
         inkscape:collect="always"
         stdDeviation="0.8"
         id="feGaussianBlur948" />
    </filter>
    <filter
       inkscape:collect="always"
       style="color-interpolation-filters:sRGB"
       id="filter950"
       x="-0.043200002"
       y="-0.054000002"
       width="1.0864"
       height="1.108">
      <feGaussianBlur
         inkscape:collect="always"
         stdDeviation="1.44"
         id="feGaussianBlur952" />
    </filter>
    <filter
       inkscape:collect="always"
       style="color-interpolation-filters:sRGB"
       id="filter954"
       x="-0.03"
       y="-0.12"
       width="1.06"
       height="1.24">
      <feGaussianBlur
         inkscape:collect="always"
         stdDeviation="1.6"
         id="feGaussianBlur956" />
    </filter>
    <filter
       inkscape:collect="always"
       style="color-interpolation-filters:sRGB"
       id="filter958"
       x="-0.03901547"
       y="-0.078336945"
       width="1.0780309"
       height="1.1566739">
      <feGaussianBlur
         inkscape:collect="always"
         stdDeviation="1.0404126"
         id="feGaussianBlur960" />
    </filter>
  </defs>
  <sodipodi:namedview
     id="namedview48"
     pagecolor="#ffffff"
     bordercolor="#666666"
     borderopacity="1.0"
     inkscape:pageshadow="2"
     inkscape:pageopacity="0.0"
     inkscape:pagecheckerboard="0"
     showgrid="false"
     inkscape:zoom="2.85"
     inkscape:cx="24.035088"
     inkscape:cy="80.175439"
     inkscape:window-width="1920"
     inkscape:window-height="1019"
     inkscape:window-x="0"
     inkscape:window-y="34"
     inkscape:window-maximized="1"
     inkscape:current-layer="svg46" />
  <path
     d="m 80,155 c 0,0 8,24 16,24 8,0 16,-24 16,-24 z"
     style="opacity:0.2;mix-blend-mode:normal;stroke-width:8;filter:url(#filter934)"
     id="path2" />
  <path
     d="m 80,152 c 0,0 8,24 16,24 8,0 16,-24 16,-24 z"
     style="fill:#f2a9a2;stroke-width:8"
     id="path4" />
  <path
     d="m 80,154 h 32 c 0,0 8,-28 8,-40 H 72 c 0,12 8,40 8,40 z"
     style="opacity:0.1;stroke-width:8;filter:url(#filter938)"
     id="path6" />
  <ellipse
     cx="96"
     cy="68"
     rx="64"
     ry="16"
     style="opacity:0.2;stroke-width:8;filter:url(#filter954)"
     id="ellipse8" />
  <path
     d="m 56,48 v -8 c 0,0 0,-24 16,-24 8,0 24,8 24,8 0,0 16,-8 24,-8 16,0 16,24 16,24 v 8 z"
     style="fill:#3f3f3f;stroke-width:8"
     id="path10" />
  <path
     d="M 56,64 V 40 h 80 v 24 z"
     style="fill:#e4e4e4;stroke-width:8"
     id="path12" />
  <path
     d="M 72,116 56,68 c 0,0 16,-8 40,-8 24,0 40,8 40,8 l -16,48 c 0,0 0,8 -24,8 -24,0 -24,-8 -24,-8 z"
     style="opacity:0.2;stroke-width:8;filter:url(#filter950)"
     id="path14" />
  <ellipse
     cx="96"
     cy="64"
     rx="64"
     ry="16"
     style="fill:#4f4f4f;stroke-width:8"
     id="ellipse16" />
  <path
     id="path18"
     style="opacity:0.1;fill:#ffffff;stroke-width:8"
     d="M 96 48 A 64 16 0 0 0 32 64 A 64 16 0 0 0 32.132812 64.453125 A 64 16 0 0 1 96 49 A 64 16 0 0 1 159.92578 64.259766 A 64 16 0 0 0 160 64 A 64 16 0 0 0 96 48 z " />
  <path
     d="M 72,112 56,64 c 0,0 16,-8 40,-8 24,0 40,8 40,8 l -16,48 c 0,0 0,8 -24,8 -24,0 -24,-8 -24,-8 z"
     style="fill:#f2a9a2;stroke-width:8"
     id="path20" />
  <path
     d="m 80,152 h 32 c 0,0 8,-28 8,-40 H 72 c 0,12 8,40 8,40 z"
     style="fill:#4f4f4f;stroke-width:8"
     id="path22" />
  <path
     d="m 72,114 8,8 v 8 l 16,8 16,-8 v -8 l 8,-8 H 80 Z"
     style="opacity:0.2;stroke-width:8;filter:url(#filter946)"
     id="path24" />
  <path
     d="m 72,112 8,8 v 8 l 16,8 16,-8 v -8 l 8,-8 H 80 Z"
     style="fill:#e4e4e4;stroke-width:8"
     id="path26" />
  <path
     d="m 80,112 16,24 16,-24 z"
     style="fill:#f43e3e;stroke-width:8"
     id="path28" />
  <path
     d="m 92.859376,58.125 c -11.895998,0.356214 -21.272046,2.480464 -27.718751,4.5 A 16,20 0 0 0 64,70 16,20 0 0 0 80,90 16,20 0 0 0 96,70 16,20 0 0 0 92.859376,58.125 Z M 96,70 a 16,20 0 0 0 16,20 16,20 0 0 0 16,-20 16,20 0 0 0 -1.14062,-7.375 c -6.44671,-2.019536 -15.82276,-4.143786 -27.718756,-4.5 A 16,20 0 0 0 96,70 Z"
     style="opacity:0.2;stroke-width:8;filter:url(#filter958)"
     id="path30" />
  <path
     d="m 92.859376,56.125 c -11.895998,0.356214 -21.272046,2.480464 -27.718751,4.5 A 16,20 0 0 0 64,68 16,20 0 0 0 80,88 16,20 0 0 0 96,68 16,20 0 0 0 92.859376,56.125 Z M 96,68 a 16,20 0 0 0 16,20 16,20 0 0 0 16,-20 16,20 0 0 0 -1.14062,-7.375 c -6.44671,-2.019536 -15.82276,-4.143786 -27.718756,-4.5 A 16,20 0 0 0 96,68 Z"
     style="fill:#ffffff;stroke-width:8"
     id="path32" />
  <circle
     cx="80"
     cy="72"
     r="8"
     style="fill:#3f3f3f;stroke-width:8"
     id="circle34" />
  <circle
     cx="112"
     cy="72"
     r="8"
     style="fill:#3f3f3f;stroke-width:8"
     id="circle36" />
  <path
     d="m 88,114 8,8 -8,16 8,8 8,-8 -8,-16 8,-8 z"
     style="opacity:0.2;stroke-width:8;filter:url(#filter942)"
     id="path38" />
  <path
     d="m 88,112 8,8 -8,16 8,8 8,-8 -8,-16 8,-8 z"
     style="fill:#ffffff;stroke-width:8"
     id="path40" />
  <path
     id="path42"
     style="opacity:0.1;fill:#ffffff;stroke-width:8"
     d="M 72 16 C 56 16 56 40 56 40 L 56 41 C 56 41 56 17 72 17 C 80 17 96 25 96 25 C 96 25 112 17 120 17 C 136 17 136 41 136 41 L 136 40 C 136 40 136 16 120 16 C 112 16 96 24 96 24 C 96 24 80 16 72 16 z " />
</svg>
