<?xml version="1.0" encoding="UTF-8" standalone="no"?>
<svg
   width="192"
   height="192"
   version="1"
   id="svg40"
   sodipodi:docname="games_rust.svg"
   inkscape:version="1.1-rc (1:1.1+rc+202105232036+f4db50c7c1)"
   xmlns:inkscape="http://www.inkscape.org/namespaces/inkscape"
   xmlns:sodipodi="http://sodipodi.sourceforge.net/DTD/sodipodi-0.dtd"
   xmlns="http://www.w3.org/2000/svg"
   xmlns:svg="http://www.w3.org/2000/svg">
  <defs
     id="defs44">
    <filter
       inkscape:collect="always"
       style="color-interpolation-filters:sRGB"
       id="filter1019"
       x="-0.048000001"
       y="-0.048000001"
       width="1.096"
       height="1.096">
      <feGaussianBlur
         inkscape:collect="always"
         stdDeviation="3.2"
         id="feGaussianBlur1021" />
    </filter>
    <filter
       inkscape:collect="always"
       style="color-interpolation-filters:sRGB"
       id="filter1023"
       x="-0.04823543"
       y="-0.047766857"
       width="1.0964709"
       height="1.0955337">
      <feGaussianBlur
         inkscape:collect="always"
         stdDeviation="0.55728"
         id="feGaussianBlur1025" />
    </filter>
  </defs>
  <sodipodi:namedview
     id="namedview42"
     pagecolor="#ffffff"
     bordercolor="#666666"
     borderopacity="1.0"
     inkscape:pageshadow="2"
     inkscape:pageopacity="0.0"
     inkscape:pagecheckerboard="0"
     showgrid="false"
     inkscape:zoom="2.48"
     inkscape:cx="23.991935"
     inkscape:cy="56.25"
     inkscape:window-width="1920"
     inkscape:window-height="1019"
     inkscape:window-x="0"
     inkscape:window-y="34"
     inkscape:window-maximized="1"
     inkscape:current-layer="svg40" />
  <rect
     fill="#c2352a"
     width="160"
     height="160"
     x="16"
     y="20"
     rx="8"
     ry="8"
     id="rect981"
     style="opacity:0.2;fill:#000000;stroke-width:4;filter:url(#filter1019)" />
  <rect
     fill="#c2352a"
     width="160"
     height="160"
     x="16"
     y="16"
     rx="8"
     ry="8"
     id="rect2"
     style="stroke-width:4" />
  <path
     id="path4"
     style="stroke-width:4;fill:#ffffff;opacity:0.2"
     d="M 24 16 C 19.568 16 16 19.568 16 24 L 16 25 C 16 20.568 19.568 17 24 17 L 168 17 C 172.432 17 176 20.568 176 25 L 176 24 C 176 19.568 172.432 16 168 16 L 24 16 z " />
  <g
     opacity="0.2"
     transform="matrix(4,0,0,4,0,2)"
     id="g22"
     style="filter:url(#filter1023)">
    <rect
       width="2.1210001"
       height="2.1210001"
       x="34.299999"
       y="-1.77"
       transform="rotate(45)"
       id="rect8" />
    <path
       d="m 30,10 -2,8 h -5 l -2,-8 z"
       id="path10" />
    <rect
       width="5"
       height="2"
       x="23"
       y="19"
       id="rect12" />
    <path
       d="m 11,29 8,-2 v -5 l -8,-2 z"
       id="path14" />
    <rect
       width="5"
       height="2"
       x="22"
       y="20"
       transform="matrix(0,1,1,0,0,0)"
       id="rect16" />
    <path
       d="m 32.364,38 -4.2426,-7.0711 3.5355,-3.5355 7.0711,4.2426 z"
       id="path18" />
    <rect
       width="5"
       height="2"
       x="-3.02"
       y="-40.759998"
       transform="rotate(135)"
       id="rect20" />
  </g>
  <g
     fill="#ffffff"
     id="g38"
     transform="scale(4)">
    <rect
       width="2.1210001"
       height="2.1210001"
       x="34.299999"
       y="-1.77"
       transform="rotate(45)"
       id="rect24" />
    <path
       d="m 30,10 -2,8 h -5 l -2,-8 z"
       id="path26" />
    <rect
       width="5"
       height="2"
       x="23"
       y="19"
       id="rect28" />
    <path
       d="m 11,29 8,-2 v -5 l -8,-2 z"
       id="path30" />
    <rect
       width="5"
       height="2"
       x="22"
       y="20"
       transform="matrix(0,1,1,0,0,0)"
       id="rect32" />
    <path
       d="m 32.364,38 -4.2426,-7.0711 3.5355,-3.5355 7.0711,4.2426 z"
       id="path34" />
    <rect
       width="5"
       height="2"
       x="-3.02"
       y="-40.759998"
       transform="rotate(135)"
       id="rect36" />
  </g>
</svg>
