<?xml version="1.0" encoding="UTF-8" standalone="no"?>
<svg
   width="192"
   height="192"
   version="1"
   id="svg12"
   sodipodi:docname="games_baba_is_you.svg"
   inkscape:version="1.1-rc (1:1.1+rc+202105232036+f4db50c7c1)"
   xmlns:inkscape="http://www.inkscape.org/namespaces/inkscape"
   xmlns:sodipodi="http://sodipodi.sourceforge.net/DTD/sodipodi-0.dtd"
   xmlns="http://www.w3.org/2000/svg"
   xmlns:svg="http://www.w3.org/2000/svg">
  <defs
     id="defs16">
    <filter
       inkscape:collect="always"
       style="color-interpolation-filters:sRGB"
       id="filter944"
       x="-0.048000001"
       y="-0.048000001"
       width="1.096"
       height="1.096">
      <feGaussianBlur
         inkscape:collect="always"
         stdDeviation="3.2"
         id="feGaussianBlur946" />
    </filter>
    <filter
       inkscape:collect="always"
       style="color-interpolation-filters:sRGB"
       id="filter948"
       x="-0.04628556"
       y="-0.049846338"
       width="1.0925711"
       height="1.0996927">
      <feGaussianBlur
         inkscape:collect="always"
         stdDeviation="2.1600596"
         id="feGaussianBlur950" />
    </filter>
  </defs>
  <sodipodi:namedview
     id="namedview14"
     pagecolor="#ffffff"
     bordercolor="#666666"
     borderopacity="1.0"
     inkscape:pageshadow="2"
     inkscape:pageopacity="0.0"
     inkscape:pagecheckerboard="0"
     showgrid="false"
     inkscape:zoom="1.63"
     inkscape:cx="24.233129"
     inkscape:cy="24.233129"
     inkscape:window-width="1920"
     inkscape:window-height="1019"
     inkscape:window-x="0"
     inkscape:window-y="34"
     inkscape:window-maximized="1"
     inkscape:current-layer="svg12" />
  <rect
     style="opacity:0.2;stroke-width:4;filter:url(#filter944)"
     width="160"
     height="160"
     x="-180"
     y="-176"
     rx="8"
     ry="8"
     transform="matrix(0,-1,-1,0,0,0)"
     id="rect2" />
  <rect
     style="fill:#4f4f4f;stroke-width:4"
     width="160"
     height="160"
     x="-176"
     y="-176"
     rx="8"
     ry="8"
     transform="matrix(0,-1,-1,0,0,0)"
     id="rect4" />
  <path
     id="path6"
     style="opacity:0.1;fill:#ffffff;stroke-width:4"
     d="M 24 16 C 19.568 16 16 19.568 16 24 L 16 25 C 16 20.568 19.568 17 24 17 L 168 17 C 172.432 17 176 20.568 176 25 L 176 24 C 176 19.568 172.432 16 168 16 L 24 16 z " />
  <path
     style="opacity:0.2;stroke-width:4;filter:url(#filter948)"
     d="m 120.58546,45.997509 c -1.2739,0 -2.71545,0.847636 -3.67969,2.164064 -0.55192,0.753508 -0.62589,1.352212 -0.75781,6.210936 l -0.14844,3.774608 -4.44531,0.07812 -2.43703,0.08596 C 108,57.997509 105.98467,55.190273 104.69531,54.278773 c -1.56813,-1.707492 -3.25858,-3.671376 -3.75,-4.359372 -2.157386,-3.020452 -4.959326,-3.7226 -7.20021,-1.671876 -1.526756,1.397216 -1.75586,0.761172 -1.757816,5.84492 -0.0012,3.123128 -0.0974,4.249552 -0.3672,4.328124 -0.20056,0.0584 -1.602504,0.33188 -3.117188,0.609376 -1.514684,0.27752 -3.62048,0.753068 -4.190412,1.0625 -0.569932,0.3094 -1.244976,0.570312 -1.5,0.570312 -0.25504,0 -1.508796,0.31172 -2.781252,0.695312 -1.272472,0.3836 -3.251948,0.78528 -4.406248,0.89844 -1.1543,0.11316 -2.830196,0.464896 -3.718752,0.781248 -0.888552,0.31636 -1.874112,0.578124 -2.187496,0.578128 -1.153304,0 -7.527476,2.324292 -9.367188,3.41406 -2.932612,1.737164 -4.058568,2.636784 -8.507812,6.8125 -1.446892,1.35794 -4.086204,4.497256 -5.195316,6.179688 -0.536012,0.813092 -1.21408,1.745072 -1.5,2.070312 -0.28592,0.32524 -1.162396,1.86138 -1.953124,3.406252 -1.741648,3.40278 -3.465203,10.02224 -3.164064,12.171872 0.09836,0.702172 0.30132,5.810111 0.445316,8.899861 0.25428,5.45594 0.29416,5.72113 1.445312,9.1875 0.651904,1.96305 1.44,4.16588 1.75,4.89844 0.637252,1.50589 3.002356,3.77047 4.929688,4.71875 0.682292,0.33564 1.242188,0.75661 1.242188,0.92968 0,0.173 -0.32448,1.01417 -0.726564,1.875 -0.402044,0.86087 -0.916472,2.0037 -1.140624,3.02866 -0.22416,1.02497 -0.686376,2.91682 -1.02344,4.20313 -0.33704,1.28629 -0.608612,2.68038 -0.609372,3.10156 -5.72e-4,0.42117 -0.32976,1.56335 -0.726564,2.53906 -1.329808,3.27006 -0.682812,6.53454 1.601564,8.08594 0.839036,0.56984 1.310552,0.67169 2.632812,0.57813 2.016252,-0.14264 3.2757,-1.02687 4.093748,-2.875 0.32824,-0.74153 0.850588,-1.84395 1.164064,-2.44532 0.31348,-0.60138 0.570312,-1.27027 0.570312,-1.48437 0,-0.214 0.28124,-0.90418 0.617188,-1.53907 1.107588,-2.09329 2.651684,-7.0805 2.85156,-9.19531 0.141,-1.49107 0.432352,-2.08512 1.02344,-3.10678 0.943536,-1.6309 1.10486,-1.64568 4.5625,-0.46875 1.043488,0.3552 2.856304,0.69908 3.056968,0.75781 0.28036,0.082 0.36596,1.57301 0.3672,7.77085 8.56e-4,4.70473 0.12652,8.52974 0.30468,9.17968 0.37072,1.35219 1.98352,3.05186 3.273436,3.45313 1.693384,0.52679 2.628524,0.15556 4.712092,-0.92187 1.331668,-0.68863 2.17542,-1.36886 2.796876,-2.26563 l 0.882812,-1.28125 0.09376,-7.73438 c 0.04952,-4.25518 0.17824,-7.43272 0.28908,-7.54428 0.111,-0.11148 7.767908,-0.22856 16.035628,-0.26564 l 15.031248,-0.0703 0.35156,0.71876 c 0.192,0.3966 0.53426,1.18664 0.76562,2.23959 0.23128,1.05295 0.84526,2.98032 1.35938,4.28125 0.51414,1.30096 1.39405,3.76126 1.95312,5.46875 1.25042,3.81897 2.13898,5.41853 3.53907,6.34375 2.82753,1.86855 6.49259,0.76668 7.63281,-2.29688 0.46367,-1.24579 0.375,-4.78638 -0.14844,-6.05468 -0.24952,-0.60461 -0.58378,-2.15998 -0.75,-3.46094 -0.18508,-1.44822 -0.62481,-3.05444 -1.13281,-4.14063 -1.0489,-2.2426 -1.40116,-3.59115 -0.80469,-3.59115 0.51093,0 2.08643,-0.82167 5.84375,-3.04688 1.56385,-0.92615 2.97393,-1.6875 3.13281,-1.6875 0.3768,0 0.54302,0.76425 0.86719,3.99219 0.147,1.46357 0.47155,2.76107 0.72657,3.37241 0.25508,0.61134 0.64496,1.93827 0.86718,2.95312 2.08493,9.5208 2.30292,9.27546 4.35938,10.49616 2.57248,1.527 5.24606,1.25563 7,-0.71093 0.5701,-0.63921 1.11722,-1.60806 1.21875,-2.15625 0.2576,-1.39077 -0.32036,-5.51467 -1.15625,-9.03523 -0.84528,-3.56006 -1.60456,-9.47871 -1.65625,-13.38803 -0.0348,-2.63531 0.0216,-2.92945 0.71093,-3.84375 0.41008,-0.54457 1.00812,-1.611 1.32813,-2.36719 0.32,-0.75618 1.13313,-2.25882 1.80469,-3.33594 0.67154,-1.0771 1.533,-2.85165 1.91406,-3.94531 0.64106,-1.83986 0.68962,-2.84035 0.69531,-8.401029 0.005,-5.38876 -0.0686,-6.350192 -0.73437,-9.3125 -0.40838,-1.817064 -1.01472,-3.968152 -1.34375,-4.781248 -0.32904,-0.813092 -0.79309,-2.195876 -1.03125,-3.078124 -1.30388,-4.829784 -8.44031,-13.146528 -13.48486,-16.61602 -1.92859,-1.326416 -3.78906,-3.473864 -3.78906,-4.375 0,-1.213844 -0.70311,-2.594952 -2.19531,-4.296872 -1.8286,-2.085568 -2.98287,-2.364568 -3.47657,-4.048044 -1.09573,-3.7362 -2.86805,-5.578124 -5.35938,-5.578124 z m 13.18016,24 c 4.17063,0.0072 6.8385,3.171056 6.11719,7.476564 -0.2438,1.455312 -2.06859,3.873292 -3.14062,4.16406 -1.43171,0.38832 -2.32336,0.456 -3.25781,0.23436 -2.82541,-0.670076 -5.0508,-2.8462 -5.41407,-5.289064 -0.49297,-3.315004 1.66575,-6.239688 4.83594,-6.546872 0.2908,-0.028 0.58133,-0.0396 0.85937,-0.0392 z m -23.59374,12 c 3.24132,0.0312 6.21238,2.533056 5.78906,6.109376 -0.43407,3.667208 -2.46968,5.745944 -5.75,5.882812 -1.01846,0.04252 -2.23792,-0.05056 -2.71875,-0.20312 -1.14122,-0.36212 -2.57131,-1.715736 -3.09375,-2.9375 -0.53102,-1.241792 -0.53522,-4.049652 -0.008,-5.3125 0.2242,-0.53722 0.89272,-1.402104 1.48437,-1.921876 1.29301,-1.135776 2.82375,-1.631308 4.29707,-1.617192 z"
     id="path8" />
  <path
     style="fill:#ffffff;stroke-width:4"
     d="m 120.58546,44 c -1.2739,0 -2.71545,0.847636 -3.67969,2.164064 -0.55192,0.753508 -0.62589,1.352212 -0.75781,6.210936 l -0.14844,3.774608 -4.44531,0.07812 -2.43703,0.08596 C 108,56 105.98467,53.192764 104.69531,52.281264 c -1.56813,-1.707492 -3.25858,-3.671376 -3.75,-4.359372 -2.157386,-3.020452 -4.959326,-3.7226 -7.20021,-1.671876 -1.526756,1.397216 -1.75586,0.761172 -1.757816,5.84492 -0.0012,3.123128 -0.0974,4.249552 -0.3672,4.328124 -0.20056,0.0584 -1.602504,0.33188 -3.117188,0.609376 -1.514684,0.27752 -3.62048,0.753068 -4.190412,1.0625 -0.569932,0.3094 -1.244976,0.570312 -1.5,0.570312 -0.25504,0 -1.508796,0.31172 -2.781252,0.695312 -1.272472,0.3836 -3.251948,0.78528 -4.406248,0.89844 -1.1543,0.11316 -2.830196,0.464896 -3.718752,0.781248 -0.888552,0.31636 -1.874112,0.578124 -2.187496,0.578128 -1.153304,0 -7.527476,2.324292 -9.367188,3.41406 -2.932612,1.737164 -4.058568,2.636784 -8.507812,6.8125 -1.446892,1.35794 -4.086204,4.497256 -5.195316,6.179688 -0.536012,0.813092 -1.21408,1.745072 -1.5,2.070312 -0.28592,0.32524 -1.162396,1.86138 -1.953124,3.406252 -1.741648,3.40278 -3.465203,10.02224 -3.164064,12.171872 0.09836,0.702168 0.30132,5.81011 0.445316,8.89986 0.25428,5.45594 0.29416,5.72113 1.445312,9.1875 0.651904,1.96305 1.44,4.16588 1.75,4.89844 0.637252,1.50589 3.002356,3.77047 4.929688,4.71875 0.682292,0.33564 1.242188,0.75661 1.242188,0.92969 0,0.173 -0.32448,1.01416 -0.726564,1.875 -0.402044,0.86086 -0.916472,2.00369 -1.140624,3.02865 -0.22416,1.02497 -0.686376,2.91682 -1.02344,4.20313 -0.33704,1.28629 -0.608612,2.68038 -0.609372,3.10156 -5.72e-4,0.42117 -0.32976,1.56335 -0.726564,2.53906 -1.329808,3.27006 -0.682812,6.53454 1.601564,8.08594 0.839036,0.56984 1.310552,0.6717 2.632812,0.57813 2.016252,-0.14264 3.2757,-1.02687 4.093748,-2.875 0.32824,-0.74153 0.850588,-1.84395 1.164064,-2.44532 0.31348,-0.60137 0.570312,-1.27027 0.570312,-1.48437 0,-0.214 0.28124,-0.90418 0.617188,-1.53906 1.107588,-2.0933 2.651684,-7.0805 2.85156,-9.19532 0.141,-1.49106 0.432352,-2.08512 1.02344,-3.10678 0.943536,-1.6309 1.10486,-1.64568 4.5625,-0.46875 1.043488,0.3552 2.856304,0.69909 3.056968,0.75781 0.28036,0.082 0.36596,1.57302 0.3672,7.77085 8.56e-4,4.70473 0.12652,8.52974 0.30468,9.17969 0.37072,1.35218 1.98352,3.05185 3.273436,3.45312 1.693384,0.52679 2.628524,0.15556 4.712092,-0.92187 1.331668,-0.68863 2.17542,-1.36886 2.796876,-2.26563 l 0.882812,-1.28125 0.09376,-7.73437 c 0.04952,-4.25518 0.17824,-7.43273 0.28908,-7.54428 0.111,-0.11148 7.767908,-0.22856 16.035628,-0.26564 l 15.031248,-0.0703 0.35156,0.71875 c 0.192,0.3966 0.53426,1.18664 0.76562,2.23959 0.23128,1.05296 0.84526,2.98032 1.35938,4.28125 0.51414,1.30096 1.39405,3.76127 1.95312,5.46875 1.25042,3.81897 2.13898,5.41853 3.53907,6.34375 2.82753,1.86855 6.49259,0.76668 7.63281,-2.29687 0.46367,-1.2458 0.375,-4.78638 -0.14844,-6.05469 -0.24952,-0.60461 -0.58378,-2.15998 -0.75,-3.46094 -0.18508,-1.44822 -0.62481,-3.05444 -1.13281,-4.14063 -1.0489,-2.2426 -1.40116,-3.59115 -0.80469,-3.59115 0.51093,0 2.08643,-0.82167 5.84375,-3.04687 1.56385,-0.92616 2.97393,-1.6875 3.13281,-1.6875 0.3768,0 0.54302,0.76424 0.86719,3.99218 0.147,1.46357 0.47155,2.76107 0.72657,3.37241 0.25508,0.61134 0.64496,1.93827 0.86718,2.95312 2.08493,9.5208 2.30292,9.27547 4.35938,10.49617 2.57248,1.52699 5.24606,1.25562 7,-0.71094 0.5701,-0.63921 1.11722,-1.60806 1.21875,-2.15625 0.2576,-1.39077 -0.32036,-5.51467 -1.15625,-9.03523 -0.84528,-3.56006 -1.60456,-9.47871 -1.65625,-13.38803 -0.0348,-2.63531 0.0216,-2.92945 0.71093,-3.84375 0.41008,-0.54457 1.00812,-1.611 1.32813,-2.36718 0.32,-0.75619 1.13313,-2.25883 1.80469,-3.33594 0.67154,-1.07711 1.533,-2.85166 1.91406,-3.94532 0.64106,-1.83986 0.68962,-2.84035 0.69531,-8.401028 0.005,-5.38876 -0.0686,-6.350192 -0.73437,-9.3125 -0.40838,-1.817064 -1.01472,-3.968152 -1.34375,-4.781248 -0.32904,-0.813092 -0.79309,-2.195876 -1.03125,-3.078124 -1.30388,-4.829784 -8.44031,-13.146528 -13.48486,-16.61602 -1.92859,-1.326416 -3.78906,-3.473864 -3.78906,-4.375 0,-1.213844 -0.70311,-2.594952 -2.19531,-4.296872 C 127.59281,51.5406 126.43854,51.2616 125.94484,49.578124 124.84911,45.841924 123.07679,44 120.58546,44 Z m 13.18016,24 c 4.17063,0.0072 6.8385,3.171056 6.11719,7.476564 -0.2438,1.455312 -2.06859,3.873292 -3.14062,4.16406 -1.43171,0.38832 -2.32336,0.456 -3.25781,0.23436 -2.82541,-0.670076 -5.0508,-2.8462 -5.41407,-5.289064 -0.49297,-3.315004 1.66575,-6.239688 4.83594,-6.546872 0.2908,-0.028 0.58133,-0.0396 0.85937,-0.0392 z m -23.59374,12 c 3.24132,0.0312 6.21238,2.533056 5.78906,6.109376 -0.43407,3.667208 -2.46968,5.745944 -5.75,5.882812 -1.01846,0.04252 -2.23792,-0.05056 -2.71875,-0.20312 -1.14122,-0.36212 -2.57131,-1.715736 -3.09375,-2.9375 -0.53102,-1.241792 -0.53522,-4.049652 -0.008,-5.3125 0.2242,-0.53722 0.89272,-1.402104 1.48437,-1.921876 1.29301,-1.135776 2.82375,-1.631308 4.29707,-1.617192 z"
     id="path10" />
</svg>
