<?xml version="1.0" encoding="UTF-8" standalone="no"?>
<svg
   width="192"
   height="192"
   version="1"
   id="svg12"
   sodipodi:docname="games_mini_metro.svg"
   inkscape:version="1.1.1 (1:1.1+202109281949+c3084ef5ed)"
   xmlns:inkscape="http://www.inkscape.org/namespaces/inkscape"
   xmlns:sodipodi="http://sodipodi.sourceforge.net/DTD/sodipodi-0.dtd"
   xmlns="http://www.w3.org/2000/svg"
   xmlns:svg="http://www.w3.org/2000/svg"
   xmlns:rdf="http://www.w3.org/1999/02/22-rdf-syntax-ns#"
   xmlns:cc="http://creativecommons.org/ns#"
   xmlns:dc="http://purl.org/dc/elements/1.1/">
  <metadata
     id="metadata18">
    <rdf:RDF>
      <cc:Work
         rdf:about="">
        <dc:format>image/svg+xml</dc:format>
        <dc:type
           rdf:resource="http://purl.org/dc/dcmitype/StillImage" />
      </cc:Work>
    </rdf:RDF>
  </metadata>
  <defs
     id="defs16">
    <filter
       inkscape:collect="always"
       style="color-interpolation-filters:sRGB"
       id="filter955"
       x="-0.048000001"
       width="1.096"
       y="-0.048000001"
       height="1.096">
      <feGaussianBlur
         inkscape:collect="always"
         stdDeviation="3.2"
         id="feGaussianBlur957" />
    </filter>
    <filter
       inkscape:collect="always"
       style="color-interpolation-filters:sRGB"
       id="filter30570"
       x="-0.108"
       y="-0.108"
       width="1.216"
       height="1.216">
      <feGaussianBlur
         inkscape:collect="always"
         stdDeviation="2.7"
         id="feGaussianBlur30572" />
    </filter>
    <filter
       inkscape:collect="always"
       style="color-interpolation-filters:sRGB"
       id="filter30756"
       x="-0.075"
       y="-0.075"
       width="1.15"
       height="1.15">
      <feGaussianBlur
         inkscape:collect="always"
         stdDeviation="3"
         id="feGaussianBlur30758" />
    </filter>
  </defs>
  <sodipodi:namedview
     pagecolor="#ffffff"
     bordercolor="#666666"
     borderopacity="1"
     objecttolerance="10"
     gridtolerance="10"
     guidetolerance="10"
     inkscape:pageopacity="0"
     inkscape:pageshadow="2"
     inkscape:window-width="1920"
     inkscape:window-height="1016"
     id="namedview14"
     showgrid="false"
     inkscape:zoom="1.52"
     inkscape:cx="99.013158"
     inkscape:cy="41.118421"
     inkscape:window-x="0"
     inkscape:window-y="32"
     inkscape:window-maximized="1"
     inkscape:current-layer="svg12"
     showguides="false"
     inkscape:document-rotation="0"
     inkscape:pagecheckerboard="0"
     inkscape:snap-bbox="true"
     inkscape:snap-bbox-midpoints="true"
     inkscape:snap-global="true">
    <inkscape:grid
       type="xygrid"
       id="grid852" />
  </sodipodi:namedview>
  <rect
     style="opacity:0.2;fill:#000000;fill-opacity:1;stroke-width:4;filter:url(#filter955)"
     width="160"
     height="160"
     x="16"
     y="20"
     rx="30"
     ry="30"
     id="rect953" />
  <rect
     style="fill:#e4e4e4;fill-opacity:1;stroke-width:4"
     width="160"
     height="160"
     x="16"
     y="16"
     rx="30"
     ry="30"
     id="rect4" />
  <path
     id="rect1047"
     style="opacity:1;fill:#72b0f6;stroke-width:1.91434;stroke-linecap:round;stroke-linejoin:round;fill-opacity:1"
     d="M 57 16 L 57 91.871094 L 83 91.871094 L 83 16 L 57 16 z M 90.626953 117.25586 L 72.242188 135.64062 L 112.60352 176 L 146 176 C 147.08162 176 148.14784 175.93671 149.19922 175.82617 L 90.626953 117.25586 z " />
  <path
     id="rect1129"
     style="opacity:1;fill:#ffca35;stroke-width:1.91434;stroke-linecap:round;stroke-linejoin:round;fill-opacity:1"
     d="M 83 16 L 83 91.871094 L 109 91.871094 L 109 16 L 83 16 z M 83 124.73633 L 83 176 L 109 176 L 109 124.73633 L 83 124.73633 z " />
  <path
     id="rect1149"
     style="opacity:1;fill:#ff7730;stroke-width:1.91434;stroke-linecap:round;stroke-linejoin:round;fill-opacity:1"
     d="M 109 16 L 109 91.871094 L 135 91.871094 L 135 16 L 109 16 z M 109.01172 98.871094 L 90.626953 117.25586 L 149.19922 175.82812 C 158.76569 174.82239 166.93795 169.34232 171.66406 161.52148 L 171.12891 160.98633 L 109.01172 98.871094 z " />
  <path
     id="rect25484"
     style="opacity:1;fill:#94ab46;stroke-width:1.91434;stroke-linecap:round;stroke-linejoin:round;fill-opacity:1"
     d="M 83.146484 124.73633 L 83 124.88281 L 83 146.39844 L 109 172.39648 L 109 135.62891 L 98.107422 124.73633 L 83.146484 124.73633 z " />
  <circle
     style="opacity:0.2;fill:#000000;fill-opacity:1;stroke-width:5.76733;stroke-linecap:round;stroke-linejoin:round;filter:url(#filter30756)"
     id="circle30718"
     cx="96"
     cy="98"
     r="48" />
  <circle
     style="opacity:1;fill:#3f3f3f;stroke-width:5.76733;stroke-linecap:round;stroke-linejoin:round;fill-opacity:1"
     id="path1199"
     cx="96"
     cy="96"
     r="48" />
  <circle
     style="opacity:0.2;fill:#000000;stroke-width:3.60458;stroke-linecap:round;stroke-linejoin:round;filter:url(#filter30570)"
     id="circle30532"
     cx="96"
     cy="98"
     r="30" />
  <circle
     style="opacity:1;fill:#ffffff;stroke-width:3.60458;stroke-linecap:round;stroke-linejoin:round"
     id="circle1347"
     cx="96"
     cy="96"
     r="30" />
  <path
     id="rect959"
     style="fill:#ffffff;fill-opacity:1;stroke-width:4;opacity:0.2"
     d="M 46 16 C 29.38 16 16 29.38 16 46 L 16 47 C 16 30.38 29.38 17 46 17 L 146 17 C 162.62 17 176 30.38 176 47 L 176 46 C 176 29.38 162.62 16 146 16 L 46 16 z " />
</svg>
