<?xml version="1.0" encoding="UTF-8" standalone="no"?>
<svg
   width="192"
   height="192"
   version="1"
   id="svg12"
   sodipodi:docname="games_clash_of_clans.svg"
   inkscape:version="1.1.1 (1:1.1+202109281949+c3084ef5ed)"
   xmlns:inkscape="http://www.inkscape.org/namespaces/inkscape"
   xmlns:sodipodi="http://sodipodi.sourceforge.net/DTD/sodipodi-0.dtd"
   xmlns:xlink="http://www.w3.org/1999/xlink"
   xmlns="http://www.w3.org/2000/svg"
   xmlns:svg="http://www.w3.org/2000/svg"
   xmlns:rdf="http://www.w3.org/1999/02/22-rdf-syntax-ns#"
   xmlns:cc="http://creativecommons.org/ns#"
   xmlns:dc="http://purl.org/dc/elements/1.1/">
  <metadata
     id="metadata18">
    <rdf:RDF>
      <cc:Work
         rdf:about="">
        <dc:format>image/svg+xml</dc:format>
        <dc:type
           rdf:resource="http://purl.org/dc/dcmitype/StillImage" />
      </cc:Work>
    </rdf:RDF>
  </metadata>
  <defs
     id="defs16">
    <linearGradient
       inkscape:collect="always"
       id="linearGradient65482">
      <stop
         style="stop-color:#eb997b;stop-opacity:1;"
         offset="0"
         id="stop65478" />
      <stop
         style="stop-color:#f0b19c;stop-opacity:1"
         offset="1"
         id="stop65480" />
    </linearGradient>
    <filter
       inkscape:collect="always"
       style="color-interpolation-filters:sRGB"
       id="filter955"
       x="-0.048000001"
       width="1.096"
       y="-0.048000001"
       height="1.096">
      <feGaussianBlur
         inkscape:collect="always"
         stdDeviation="3.2"
         id="feGaussianBlur957" />
    </filter>
    <filter
       inkscape:collect="always"
       style="color-interpolation-filters:sRGB"
       id="filter64058"
       x="-0.078575754"
       y="-0.071735526"
       width="1.1571515"
       height="1.1434711">
      <feGaussianBlur
         inkscape:collect="always"
         stdDeviation="3.3366058"
         id="feGaussianBlur64060" />
    </filter>
    <filter
       inkscape:collect="always"
       style="color-interpolation-filters:sRGB"
       id="filter64107"
       x="-0.083647347"
       y="-0.06797304"
       width="1.1672947"
       height="1.1359461">
      <feGaussianBlur
         inkscape:collect="always"
         stdDeviation="3.9921899"
         id="feGaussianBlur64109" />
    </filter>
    <filter
       inkscape:collect="always"
       style="color-interpolation-filters:sRGB"
       id="filter64152"
       x="-0.079824134"
       y="-0.1669176"
       width="1.1596483"
       height="1.3338352">
      <feGaussianBlur
         inkscape:collect="always"
         stdDeviation="1.7388063"
         id="feGaussianBlur64154" />
    </filter>
    <filter
       inkscape:collect="always"
       style="color-interpolation-filters:sRGB"
       id="filter64918"
       x="-0.070073048"
       y="-0.078629108"
       width="1.1401461"
       height="1.1572582">
      <feGaussianBlur
         inkscape:collect="always"
         stdDeviation="0.91717955"
         id="feGaussianBlur64920" />
    </filter>
    <linearGradient
       inkscape:collect="always"
       xlink:href="#linearGradient65482"
       id="linearGradient65484"
       x1="102.64172"
       y1="108.19283"
       x2="105.44353"
       y2="100.70821"
       gradientUnits="userSpaceOnUse" />
  </defs>
  <sodipodi:namedview
     pagecolor="#ffffff"
     bordercolor="#666666"
     borderopacity="1"
     objecttolerance="10"
     gridtolerance="10"
     guidetolerance="10"
     inkscape:pageopacity="0"
     inkscape:pageshadow="2"
     inkscape:window-width="1920"
     inkscape:window-height="1019"
     id="namedview14"
     showgrid="false"
     inkscape:zoom="1"
     inkscape:cx="53.5"
     inkscape:cy="58"
     inkscape:window-x="0"
     inkscape:window-y="34"
     inkscape:window-maximized="1"
     inkscape:current-layer="svg12"
     showguides="false"
     inkscape:document-rotation="0"
     inkscape:pagecheckerboard="0"
     inkscape:snap-bbox="true"
     inkscape:snap-bbox-midpoints="true"
     inkscape:snap-global="false">
    <inkscape:grid
       type="xygrid"
       id="grid852" />
  </sodipodi:namedview>
  <rect
     style="opacity:0.2;fill:#000000;fill-opacity:1;stroke-width:4;filter:url(#filter955)"
     width="160"
     height="160"
     x="16"
     y="20"
     rx="30"
     ry="30"
     id="rect953" />
  <path
     id="rect4"
     style="fill:#c44f26;stroke-width:4"
     d="m 46,16 h 100 c 16.62,0 30,13.38 30,30 v 100 c 0,7.76937 -2.92392,14.83071 -7.73591,20.14815 -5.48166,6.05746 -18.19111,1.47708 -27.03901,1.2576 l -88.3532,-2.19162 C 36.256991,164.80199 33.37321,157.68758 26.892093,142.38335 L 16,116.66323 V 46 C 16,29.38 29.38,16 46,16 Z"
     sodipodi:nodetypes="sssssssscss" />
  <path
     id="rect959"
     style="fill:#ffffff;fill-opacity:1;stroke-width:4;opacity:0.1"
     d="M 46 16 C 29.38 16 16 29.38 16 46 L 16 47 C 16 30.38 29.38 17 46 17 L 146 17 C 162.62 17 176 30.38 176 47 L 176 46 C 176 29.38 162.62 16 146 16 L 46 16 z " />
  <path
     id="path26575"
     style="fill:#f0b19c;fill-opacity:1;stroke-width:1.62156;stroke-linecap:round;stroke-linejoin:round"
     d="m 56.363155,95.311361 c 0,6.188359 -5.958287,16.135149 -9.83992,16.135149 -3.881634,0 -6.44268,-8.64717 -5.21227,-14.711975 1.658334,-8.17408 4.561838,-13.721931 8.472492,-13.753601 7.097276,-0.05748 6.579698,6.142072 6.579698,12.330427 z"
     sodipodi:nodetypes="sssss" />
  <path
     id="path27573"
     style="opacity:0.3;fill:#ff4e00;fill-opacity:1;stroke-width:1.62156;stroke-linecap:round;stroke-linejoin:round"
     d="m 48.08364,87.004165 c -3.910567,0.04116 -5.194059,7.535787 -5.194059,13.724145 0,3.42539 -0.09503,7.9247 0.475593,11.26435 0.414341,0.4103 0.91077,0.64134 1.507015,0.64134 2.8624,0 7.748514,-6.05449 10.118916,-11.71567 C 53.661739,97.778831 53.201597,86.950301 48.08364,87.004165 Z" />
  <path
     id="rect27979"
     style="fill:#eb977c;fill-opacity:1;stroke-width:1.62156;stroke-linecap:round;stroke-linejoin:round"
     d="M 16 115.90234 L 16 146 C 16 162.62 29.38 176 46 176 L 146 176 C 155.23738 176 163.46433 171.85756 168.95898 165.33203 C 168.31606 162.84736 167.45016 160.57155 166.23242 158.71094 C 162.54626 153.07877 153.74487 147.76634 147.03711 147.20508 C 140.46122 146.65485 132.52472 147.3427 126.86133 144.58203 C 124.44691 143.4051 126.90648 140.68116 124.56055 139.37305 C 100.05258 125.70724 71.229782 116.86327 43.185547 117.82031 C 40.444787 117.91384 37.937722 121.0656 33.378906 119.99219 C 29.797308 119.14887 19.873544 115.67425 16 115.90234 z " />
  <path
     id="path64696"
     style="fill:#ffffff;fill-opacity:1;stroke-width:1.62156;stroke-linecap:round;stroke-linejoin:round;opacity:0.2"
     d="M 16 115.90234 L 16 116.90234 C 19.873544 116.67425 29.797308 120.14887 33.378906 120.99219 C 37.937722 122.0656 40.444787 118.91381 43.185547 118.82031 C 71.229782 117.86327 100.05258 126.70724 124.56055 140.37305 C 126.90653 141.68116 124.44691 144.4051 126.86133 145.58203 C 132.52472 148.3427 140.46122 147.65485 147.03711 148.20508 C 153.74487 148.76634 162.54626 154.07877 166.23242 159.71094 C 167.32372 161.37836 168.12133 163.39035 168.74023 165.57617 C 168.81152 165.49336 168.88859 165.41563 168.95898 165.33203 C 168.31606 162.84736 167.45016 160.57155 166.23242 158.71094 C 162.54626 153.07877 153.74487 147.76634 147.03711 147.20508 C 140.46122 146.65485 132.52472 147.3427 126.86133 144.58203 C 124.44691 143.4051 126.90648 140.68116 124.56055 139.37305 C 100.05258 125.70724 71.229782 116.86327 43.185547 117.82031 C 40.444787 117.91384 37.937722 121.0656 33.378906 119.99219 C 29.797308 119.14887 19.873544 115.67425 16 115.90234 z " />
  <path
     id="path64020"
     style="opacity:0.2;fill:#000000;fill-opacity:1;stroke-width:1.62156;stroke-linecap:round;stroke-linejoin:round;filter:url(#filter64058)"
     d="m 64.577675,73.369756 76.334855,27.108454 c -3.21632,8.60307 -6.58323,15.91044 -9.60235,26.21027 l -21.06195,42.83274 c -1.6651,13.59918 -11.565811,18.02535 -25.009413,14.1122 -11.62165,-4.52324 -22.590993,-9.26886 -31.467869,-14.72779 -9.602189,-8.83161 -18.654662,-18.06844 -13.046264,-38.11221 z"
     sodipodi:nodetypes="cccccccc" />
  <path
     id="rect25461"
     style="fill:#f0b19c;fill-opacity:1;stroke-width:1.62156;stroke-linecap:round;stroke-linejoin:round"
     d="m 64.577675,71.369751 76.334855,27.108455 c -3.21632,8.603074 -6.58323,15.910444 -9.60235,26.210274 l -21.06195,42.83274 c -1.6651,13.59918 -11.565811,18.02535 -25.009413,14.1122 -11.62165,-4.52324 -22.590993,-9.26886 -31.467869,-14.72779 -9.602189,-8.83161 -18.654662,-18.06844 -13.046264,-38.11221 z"
     sodipodi:nodetypes="cccccccc" />
  <path
     id="path64111"
     style="opacity:0.2;fill:#000000;stroke-width:1.64081;stroke-linecap:round;stroke-linejoin:round;filter:url(#filter64152)"
     d="m 85.076172,87.999664 c -2.801867,-0.03228 -5.614621,0.873484 -8.431641,2.224609 0.857406,7.660966 4.587268,10.466987 13.597657,9.634766 2.082422,0.08288 7.530295,-4.803966 3.203124,-8.462891 -2.775983,-2.39527 -5.567273,-3.364206 -8.36914,-3.396484 z m 34.722658,12 c -2.32295,-0.03454 -4.51726,0.940876 -5.25977,3.945306 -1.12666,4.55882 10.19949,10.74341 12.66406,8.62696 3.63577,-3.12219 0.77916,-9.05077 -1.86328,-10.82422 -1.34127,-0.90018 -3.49135,-1.71757 -5.54101,-1.748046 z" />
  <path
     id="rect10018"
     style="fill:#ffffff;stroke-width:1.64081;stroke-linecap:round;stroke-linejoin:round"
     d="m 76.645,89.224006 c 5.63404,-2.702251 11.248505,-3.617284 16.800473,1.173256 4.327171,3.658925 -1.120682,8.544618 -3.203105,8.461742 C 81.23198,99.691228 77.502406,96.884972 76.645,89.224006 Z"
     sodipodi:nodetypes="cccc" />
  <path
     id="rect20112"
     style="fill:#a74043;fill-opacity:1;stroke-width:1.62156;stroke-linecap:round;stroke-linejoin:round"
     d="m 66.115881,119.34861 c 6.053373,-5.0538 19.205592,2.14992 25.121599,4.38052 17.33985,8.20976 26.01038,8.07543 24.44711,14.71219 -0.36695,1.55786 -1.27957,3.34076 -1.92412,5.4639 -0.7141,2.35222 -1.42745,5.01349 -2.12459,7.77957 -0.93025,3.691 -5.02792,0.71211 -5.02792,0.71211 -4.70529,-3.38163 -11.944645,-7.48773 -18.244179,-10.23798 -15.588902,-6.80582 -27.329915,-2.85196 -25.963086,-10.34926 1.415208,-7.76264 1.310139,-9.603 3.715186,-12.46105 z"
     sodipodi:nodetypes="ccssssssc" />
  <path
     id="path64062"
     style="opacity:0.2;fill:#000000;fill-opacity:1;stroke-width:1.62156;stroke-linecap:round;stroke-linejoin:round;filter:url(#filter64107)"
     d="m 89.34375,45.935995 c -12.352843,0.07452 -18.584474,5.908606 -21.849609,11.583984 -5.584893,9.707526 -20.733744,40.637923 -29.650391,62.380861 -1.340477,4.07089 6.124349,5.59891 6.970703,3.94531 0,0 10.310142,-27.068241 17.103516,-37.195311 0.748648,-1.116032 1.882007,-2.404665 3.103515,-3.699219 3.753348,-2.590488 8.240301,-4.56536 14.00586,-3.621094 9.994304,1.636837 21.229006,19.648764 28.048826,17.06836 1.83108,-0.692823 2.8718,-2.208406 3.40235,-4.095704 l 0.32031,0.09961 c 0.12314,1.400959 0.61639,2.652511 1.58203,3.482422 3.37081,2.897014 15.23968,0.633982 20.76172,5.025386 1.32116,1.05066 2.51248,2.92942 3.51758,4.94532 l -0.0723,0.76172 c -0.73362,9.45019 -6.05577,19.42185 -10.70117,31.23242 0.64063,-2.49731 1.24172,-4.90455 1.73047,-7.04492 0.54551,-2.38898 -0.49272,-5.36579 -2.90039,-6.75586 -7.25926,-4.19114 -15.25516,-5.08433 -22.67774,-8.35742 -8.886803,-3.91876 -17.982872,-8.43517 -27.916013,-11.51368 -5.599723,-1.73549 -11.449343,-0.55943 -15.642578,2.66407 -5.491002,4.22116 -8.480584,13.6178 -11.408203,22.08789 -4.799017,13.88436 -11.758992,20.01501 -11.464844,24.41406 0.07329,8.89541 11.42971,8.68388 15.40039,2.41406 6.118285,-11.45477 7.360602,-20.17938 11.683594,-32.6289 0.605169,-2.65419 1.342627,-6.10178 7.009766,-5.44532 9.309965,1.07844 24.836332,6.87744 34.748048,11.79883 4.52304,2.2458 8.55945,3.49739 11.72656,5.20508 2.00322,1.08027 2.02882,1.89213 2.30274,4.58008 l -15.375,42.52539 c -0.56006,5.59816 7.70876,6.2308 9.0957,3.61914 -0.0934,0 4.33011,-14.16072 8.69726,-29.36133 l 2.02735,1.13281 13.59765,-34.67773 c 1.38297,-3.18251 2.47104,-5.90446 3.46875,-8.48633 3.32845,-3.94163 5.17588,-8.15349 4.68946,-12.79102 0.13152,-0.36309 0.256,-0.71409 0.39062,-1.08203 0,0 2.41718,-9.156608 3.51758,-13.761716 0.70545,-2.95227 4.36228,-7.660376 -2.83398,-15.892578 -12.78033,-14.620132 -31.68154,-23.281517 -53.857426,-24.492188 -0.878875,-0.04798 -1.729211,-0.06942 -2.552734,-0.06445 z" />
  <circle
     style="fill:#008eff;fill-opacity:1;stroke:none;stroke-width:1.35509;stroke-linecap:round;stroke-linejoin:round"
     id="path10814"
     cx="91.5"
     cy="93.5"
     r="2.5" />
  <path
     id="rect1053"
     style="fill:#ffd03f;fill-opacity:1;stroke-width:1.62156;stroke-linecap:round;stroke-linejoin:round"
     d="m 58.481436,104.84117 c 4.193235,-3.2235 10.04228,-4.39928 15.642003,-2.66379 9.933141,3.07851 19.028536,7.59471 27.915341,11.51347 7.42258,3.27309 15.41921,4.16763 22.67847,8.35877 2.40767,1.39007 3.44456,4.36668 2.89905,6.75566 -4.30985,18.87398 -15.56502,54.60767 -15.41673,54.60767 -1.38694,2.61166 -9.65565,1.97902 -9.09559,-3.61914 l 15.37468,-42.52646 c -0.27392,-2.68795 -0.29943,-3.50023 -2.30265,-4.5805 -3.16711,-1.70769 -7.20443,-2.95874 -11.72747,-5.20454 -9.911715,-4.92139 -25.437495,-10.72091 -34.74746,-11.79935 -5.667139,-0.65646 -6.404111,2.79111 -7.00928,5.4453 -4.322992,12.44952 -5.565491,21.17391 -11.683775,32.62868 -3.970681,6.26982 -15.326552,6.48239 -15.399844,-2.41302 -0.294148,-4.39905 6.664109,-10.53012 11.463126,-24.41448 2.927619,-8.47009 5.919127,-17.86711 11.410129,-22.08827 z"
     sodipodi:nodetypes="sssssccccsscccss" />
  <circle
     style="fill:#323232;stroke:none;stroke-width:0.813051;stroke-linecap:round;stroke-linejoin:round;fill-opacity:1"
     id="circle10918"
     cx="91.5"
     cy="93.5"
     r="1.5" />
  <path
     id="path64795"
     style="opacity:0.2;fill:#000000;fill-opacity:1;stroke-linecap:round;stroke-linejoin:round;filter:url(#filter64918)"
     d="m 105.41988,91.442496 -6.514772,6.586713 c -0.986594,-0.506994 -5.638155,-1.230661 -7.520342,-0.539063 -2.9171,1.071872 -6.673752,6.560414 -3.898438,7.958984 3.104403,1.56441 4.755673,-1.50852 6.8125,-0.62695 4.240663,1.81757 0.04476,7.10632 7.714842,10.96484 4.73007,2.37951 6.48536,-2.22844 9.36914,-0.98438 1.40341,0.60543 1.25853,3.51245 2.78125,3.64454 1.85322,0.16076 3.3654,-2.55696 3.71094,-4.38477 0.43217,-2.28601 -1.91719,-3.4789 -2.6543,-5.68555 -0.58394,-1.74813 -4.50165,-4.23028 -5.29501,-5.64887 l -2.90895,-12.269106 z"
     sodipodi:nodetypes="ccssssssssccc" />
  <path
     id="rect10960"
     style="fill:#ffffff;stroke-width:1.62768;stroke-linecap:round;stroke-linejoin:round"
     d="m 125.33905,100.74756 c 2.64244,1.77345 5.50056,7.70217 1.8648,10.82436 -2.46458,2.11645 -13.79197,-4.06789 -12.66531,-8.62671 1.39767,-5.655401 7.93912,-4.118027 10.80051,-2.19765 z"
     sodipodi:nodetypes="ssss" />
  <path
     id="rect4278"
     style="fill:#ffd03f;fill-opacity:1;stroke-width:1.62156;stroke-linecap:round;stroke-linejoin:round"
     d="M 67.495077,55.520299 C 70.977888,49.466562 77.835084,43.232297 91.897088,44 c 22.175882,1.210671 41.077232,9.871562 53.857562,24.491693 7.19626,8.232203 3.53893,12.941087 2.83348,15.893357 -1.1004,4.605108 -3.51743,13.761861 -3.51743,13.761861 -2.56424,7.008139 -4.4921,13.024099 -8.54835,22.358409 l -13.59868,34.67745 -2.57202,-1.43661 c 4.16622,-20.37 15.16021,-35.26172 16.23678,-49.12966 l 0.58155,-6.06859 -27.28392,-8.426157 -20.776375,-11.49625 -17.300326,-4.16133 c 0,0 -7.255289,6.2563 -9.892067,10.187018 -6.793374,10.12707 -17.103407,37.194279 -17.103407,37.194279 -0.846354,1.6536 -8.310236,0.12645 -6.969759,-3.94444 8.916647,-21.742937 24.066058,-52.673205 29.650951,-62.380731 z"
     sodipodi:nodetypes="sssscccccccccsccs" />
  <path
     id="path12166"
     style="fill:#008eff;fill-opacity:1;stroke:none;stroke-width:1.62156;stroke-linecap:round;stroke-linejoin:round"
     d="M 118.51758 99.154297 A 4.4147844 4.4147844 0 0 0 118.09766 99.183594 C 116.4676 99.584804 115.09546 100.69395 114.53906 102.94531 C 114.1717 104.43177 115.13201 106.09013 116.67383 107.57812 A 4.4147844 4.4147844 0 0 0 118.51758 107.98242 A 4.4147844 4.4147844 0 0 0 122.93164 103.56836 A 4.4147844 4.4147844 0 0 0 118.51758 99.154297 z " />
  <path
     id="rect62119"
     style="opacity:1;fill:url(#linearGradient65484);stroke-linecap:round;stroke-linejoin:round;fill-opacity:1"
     d="M 100.52148 90.167969 L 95.037109 97.029297 C 94.050515 96.522303 93.266953 95.798636 91.384766 96.490234 C 88.467666 97.562106 84.711014 103.05065 87.486328 104.44922 C 90.590731 106.01363 92.242001 102.9407 94.298828 103.82227 C 98.539491 105.63984 94.343585 110.92859 102.01367 114.78711 C 106.74374 117.16662 108.49903 112.55867 111.38281 113.80273 C 112.78622 114.40816 112.64134 117.31518 114.16406 117.44727 C 116.01728 117.60803 117.52946 114.89031 117.875 113.0625 C 118.30717 110.77649 115.95781 109.5836 115.2207 107.37695 C 114.63676 105.62882 113.98086 104.03187 113.1875 102.61328 L 113.50977 91.429688 L 100.52148 90.167969 z " />
  <circle
     style="fill:#323232;stroke:none;stroke-width:0.918253;stroke-linecap:round;stroke-linejoin:round;fill-opacity:1"
     id="circle12270"
     cx="117.5"
     cy="103.5"
     r="2.5" />
  <path
     id="rect13656"
     style="fill:#ffffff;stroke-width:1.62156;stroke-linecap:round;stroke-linejoin:round"
     d="m 67.116756,118.89832 c 2.46201,-1.17475 4.086988,-0.99494 5.138908,0.11225 -1.250482,1.78786 -1.413133,3.70686 -1.27303,5.66236 -1.727143,0.10655 -3.484338,0.32333 -4.809685,-1.04359 z"
     sodipodi:nodetypes="ccccc" />
  <path
     id="path14500"
     style="fill:#f2f2f2;stroke-width:1.62156;stroke-linecap:round;stroke-linejoin:round"
     d="m 72.502379,118.6403 c 2.462009,-1.17476 5.058118,0.41518 6.110038,1.52238 -1.250482,1.78785 -2.269076,4.67535 -2.128973,6.63085 -1.727143,0.10655 -4.218499,-0.136 -5.543846,-1.50292 0.2138,-2.14325 -0.224789,-4.13032 1.562781,-6.65031 z"
     sodipodi:nodetypes="ccccc" />
  <path
     id="path14691"
     style="fill:#ffffff;stroke-width:1.62156;stroke-linecap:round;stroke-linejoin:round"
     d="m 78.518966,120.27079 c 2.462009,-1.17476 6.733812,1.50169 7.785731,2.60889 -1.250482,1.78785 -2.356121,4.662 -3.42488,6.5145 -1.727143,0.10656 -5.058284,-1.08335 -6.383631,-2.45027 0.2138,-2.14325 0.23521,-4.15313 2.02278,-6.67312 z"
     sodipodi:nodetypes="ccccc" />
  <path
     id="path15080"
     style="fill:#f2f2f2;stroke-width:1.62156;stroke-linecap:round;stroke-linejoin:round"
     d="m 86.721644,122.74377 c 1.32782,-0.12722 7.396062,2.37496 8.101151,4.66955 -0.725861,1.66668 -2.06997,4.73341 -3.138729,6.58592 -1.727142,0.10656 -7.709756,-2.89458 -8.619956,-4.34024 0.2138,-2.14324 1.869964,-4.39524 3.657534,-6.91523 z"
     sodipodi:nodetypes="ccccc" />
  <path
     id="path15465"
     style="fill:#ffffff;stroke-width:1.62156;stroke-linecap:round;stroke-linejoin:round"
     d="m 95.236934,127.51148 c 1.32782,-0.12721 8.641886,1.5491 9.346976,3.84369 -0.72586,1.66668 -1.59203,4.85545 -2.66079,6.70796 -1.72714,0.10656 -8.498693,-2.09626 -9.408894,-3.54192 0.2138,-2.14324 0.935138,-4.48974 2.722708,-7.00973 z"
     sodipodi:nodetypes="ccccc" />
  <path
     id="path15854"
     style="fill:#f2f2f2;stroke-width:1.62156;stroke-linecap:round;stroke-linejoin:round"
     d="m 109.25205,133.92407 c -1.1772,-2.46085 -3.41249,-2.82253 -4.92651,-2.62213 -0.6041,1.52944 -1.16606,5.05487 -2.50374,6.48812 1.21028,-2.7e-4 1.54264,-0.11658 4.7966,1.50777 1.18033,-1.80167 2.44092,-2.29016 2.63365,-5.37376 z"
     sodipodi:nodetypes="ccccc" />
  <path
     id="path16373"
     style="fill:#ffffff;stroke-width:1.62156;stroke-linecap:round;stroke-linejoin:round"
     d="m 111.66854,136.19527 c -0.70286,-1.95587 -1.05136,-1.95453 -2.56538,-1.75414 -0.6041,1.52945 -0.7837,2.84745 -2.12139,4.2807 -0.51511,1.02356 0.1177,1.76125 1.47541,2.38306 1.18033,-1.80167 2.76932,-2.94184 3.21136,-4.90962 z"
     sodipodi:nodetypes="ccccc" />
  <path
     id="rect17365"
     style="fill:#f2f2f2;stroke-width:1.62156;stroke-linecap:round;stroke-linejoin:round"
     d="m 66.306179,125.06743 c 1.862594,-0.40264 3.595793,-0.50031 4.697946,0.88932 l -5.016655,3.22675 c -1.005062,0.3826 -1.948864,-0.80047 -2.627406,-0.79875 z"
     sodipodi:nodetypes="ccccc" />
  <path
     id="path17811"
     style="fill:#f2f2f2;stroke-width:1.62156;stroke-linecap:round;stroke-linejoin:round"
     d="m 70.517579,126.04379 c 1.862594,-0.40263 3.935166,0.26431 4.724604,1.14692 -1.898809,1.48823 -3.506083,2.97645 -3.509437,4.46467 -2.282081,-0.0456 -5.433161,-1.28765 -5.447245,-2.26672 z"
     sodipodi:nodetypes="ccccc" />
  <path
     id="path18387"
     style="fill:#f2f2f2;stroke-width:1.62156;stroke-linecap:round;stroke-linejoin:round"
     d="m 74.890158,127.7156 c 1.862594,-0.40264 7.785534,2.74115 8.024541,3.4636 -0.702668,1.69055 -1.853,3.68384 -2.36324,4.72212 -4.250216,0.2911 -9.126507,-3.11388 -9.14059,-4.09295 z"
     sodipodi:nodetypes="ccccc" />
  <path
     id="path18735"
     style="fill:#ffffff;stroke-width:1.62156;stroke-linecap:round;stroke-linejoin:round"
     d="m 83.379784,131.04488 c 1.226024,-0.0822 7.121013,3.17811 8.602676,3.21249 -0.702668,1.69056 -1.012899,3.47639 -1.523139,4.51467 -3.181647,1.04638 -9.64212,-1.68529 -9.656204,-2.66436 z"
     sodipodi:nodetypes="ccccc" />
  <path
     id="path18969"
     style="fill:#f2f2f2;stroke-width:1.62156;stroke-linecap:round;stroke-linejoin:round"
     d="m 92.125536,134.31615 c 1.226023,-0.0822 2.416767,2.9903 8.741714,3.69307 0.0108,1.91344 -1.010627,4.84417 -1.880699,5.77004 -2.036574,0.66518 -8.282418,-4.13294 -8.296501,-5.11201 z"
     sodipodi:nodetypes="ccccc" />
  <path
     id="path19358"
     style="fill:#ffffff;stroke-width:1.62156;stroke-linecap:round;stroke-linejoin:round"
     d="m 100.60573,137.83699 c 1.22602,-0.0822 3.92282,-0.63641 6.11789,2.74044 1.04287,1.60432 1.86796,5.10585 0.99789,6.03172 -2.74653,1.1639 -7.866517,-1.64144 -7.8806,-2.62052 z"
     sodipodi:nodetypes="csccc" />
  <path
     id="path19933"
     style="fill:#f2f2f2;stroke-width:1.62156;stroke-linecap:round;stroke-linejoin:round"
     d="m 105.25403,138.89803 c 0.50009,0.4067 0.99632,0.95163 1.46954,1.67962 0.97347,1.49758 1.75685,4.64751 1.14913,5.81323 0.86866,0.18546 1.02644,1.48969 1.73663,1.18872 0.87008,-0.92587 0.0452,-4.42744 -0.99763,-6.03176 -1.07614,-1.65551 -2.27277,-2.36513 -3.35767,-2.64981 z" />
  <path
     id="rect21666"
     style="opacity:0.5;fill:#64badf;fill-opacity:1;stroke-width:1.62156;stroke-linecap:round;stroke-linejoin:round"
     d="m 58.072395,143.16188 c 2.260876,-5.78729 0.365205,-9.11489 2.689919,-10.7138 1.8604,-1.27956 4.191225,1.85876 6.434256,2.11796 1.642651,0.18982 3.3306,-0.80837 4.941596,-0.4355 1.43991,0.33326 2.407622,1.78522 3.796631,2.29026 1.015094,0.36907 2.301948,-0.0985 3.201643,0.49918 0.571408,0.37958 1.54906,1.25042 1.080535,1.75149 -0.632957,0.67692 -6.469052,0.20727 -12.522743,9.3493 -3.500632,5.28651 -3.799677,7.86512 -4.945793,18.07531 -0.152078,1.35479 -2.338317,1.765 -2.687701,3.08276 -0.7108,2.68092 3.562524,7.47814 1.324134,9.11587 -1.353817,0.99054 -3.996416,-1.72363 -4.08307,-3.39888 -0.182263,-3.52364 -0.501056,-5.89516 -0.419322,-8.84601 0.08892,-3.2102 0.870435,-6.37421 0.98819,-9.58348 0.137533,-3.7483 -1.163126,-9.81077 0.201725,-13.30446 z"
     sodipodi:nodetypes="sssssssssssssss" />
  <path
     id="rect23951"
     style="opacity:0.5;fill:#64badf;fill-opacity:1;stroke-width:1.62156;stroke-linecap:round;stroke-linejoin:round"
     d="m 97.881876,146.3634 c 0.645373,-1.1229 2.645774,-0.25385 3.883344,0.12806 1.30751,0.40349 2.24302,1.58569 3.46559,2.20027 1.10006,0.553 2.45701,0.59257 3.44915,1.32168 1.08194,0.79509 2.19808,1.85064 2.49888,3.15918 0.25757,1.12052 -0.32165,2.29861 -0.74372,3.36807 -1.08821,2.75739 -3.31186,4.95035 -4.52987,7.65291 -0.86328,1.91548 -0.74132,3.09897 -1.38357,5.09943 -0.71171,2.21679 -2.72667,5.43099 -2.67718,7.55268 0.19623,8.41299 -2.081884,8.05483 -1.935687,6.06541 0,0 0.533647,-8.88984 0.978807,-13.31925 0.39682,-3.94838 3.37004,-10.90386 1.50754,-11.80896 -2.18709,-1.06284 -1.5791,6.73173 -3.937878,6.14084 -2.170712,-0.54377 -0.850517,-4.47729 -0.531794,-6.69226 0.341104,-2.37049 2.798982,-4.3276 2.565422,-6.71109 -0.15955,-1.62816 -3.424235,-2.73858 -2.609034,-4.15697 z"
     sodipodi:nodetypes="ssssssssssssssss" />
  <path
     id="path56304"
     style="fill:none;stroke:#af8989;stroke-width:0.27026;stroke-linecap:round;stroke-linejoin:round;stroke-miterlimit:4;stroke-dasharray:none;stroke-opacity:1"
     d="m 67.116756,118.89832 c 2.46201,-1.17475 4.086988,-0.99494 5.138908,0.11225 -1.250482,1.78786 -1.413133,3.70686 -1.27303,5.66236 -1.727143,0.10655 -3.484338,0.32333 -4.809685,-1.04359 z"
     sodipodi:nodetypes="ccccc" />
  <path
     id="path56306"
     style="fill:none;stroke:#af8989;stroke-width:0.27026;stroke-linecap:round;stroke-linejoin:round;stroke-miterlimit:4;stroke-dasharray:none;stroke-opacity:1"
     d="m 72.502379,118.6403 c 2.462009,-1.17476 5.058118,0.41518 6.110038,1.52238 -1.250482,1.78785 -2.269076,4.67535 -2.128973,6.63085 -1.727143,0.10655 -4.218499,-0.136 -5.543846,-1.50292 0.2138,-2.14325 -0.224789,-4.13032 1.562781,-6.65031 z"
     sodipodi:nodetypes="ccccc" />
  <path
     id="path56308"
     style="fill:none;stroke:#af8989;stroke-width:0.27026;stroke-linecap:round;stroke-linejoin:round;stroke-miterlimit:4;stroke-dasharray:none;stroke-opacity:1"
     d="m 78.518966,120.27079 c 2.462009,-1.17476 6.733812,1.50169 7.785731,2.60889 -1.250482,1.78785 -2.356121,4.662 -3.42488,6.5145 -1.727143,0.10656 -5.058284,-1.08335 -6.383631,-2.45027 0.2138,-2.14325 0.23521,-4.15313 2.02278,-6.67312 z"
     sodipodi:nodetypes="ccccc" />
  <path
     id="path56310"
     style="fill:none;stroke:#af8989;stroke-width:0.27026;stroke-linecap:round;stroke-linejoin:round;stroke-miterlimit:4;stroke-dasharray:none;stroke-opacity:1"
     d="m 86.721644,122.74377 c 1.32782,-0.12722 7.396062,2.37496 8.101151,4.66955 -0.725861,1.66668 -2.06997,4.73341 -3.138729,6.58592 -1.727142,0.10656 -7.709756,-2.89458 -8.619956,-4.34024 0.2138,-2.14324 1.869964,-4.39524 3.657534,-6.91523 z"
     sodipodi:nodetypes="ccccc" />
  <path
     id="path56312"
     style="fill:none;stroke:#af8989;stroke-width:0.27026;stroke-linecap:round;stroke-linejoin:round;stroke-miterlimit:4;stroke-dasharray:none;stroke-opacity:1"
     d="m 95.236934,127.51148 c 1.32782,-0.12721 8.641886,1.5491 9.346976,3.84369 -0.72586,1.66668 -1.59203,4.85545 -2.66079,6.70796 -1.72714,0.10656 -8.498693,-2.09626 -9.408894,-3.54192 0.2138,-2.14324 0.935138,-4.48974 2.722708,-7.00973 z"
     sodipodi:nodetypes="ccccc" />
  <path
     id="path56314"
     style="fill:none;stroke:#af8989;stroke-width:0.27026;stroke-linecap:round;stroke-linejoin:round;stroke-miterlimit:4;stroke-dasharray:none;stroke-opacity:1"
     d="m 109.25205,133.92407 c -1.1772,-2.46085 -3.41249,-2.82253 -4.92651,-2.62213 -0.6041,1.52944 -1.16606,5.05487 -2.50374,6.48812 1.21028,-2.7e-4 1.54264,-0.11658 4.7966,1.50777 1.18033,-1.80167 2.44092,-2.29016 2.63365,-5.37376 z"
     sodipodi:nodetypes="ccccc" />
  <path
     id="path56316"
     style="fill:none;stroke:#af8989;stroke-width:0.27026;stroke-linecap:round;stroke-linejoin:round;stroke-miterlimit:4;stroke-dasharray:none;stroke-opacity:1"
     d="m 111.66854,136.19527 c -0.70286,-1.95587 -1.05136,-1.95453 -2.56538,-1.75414 -0.6041,1.52945 -0.7837,2.84745 -2.12139,4.2807 -0.51511,1.02356 0.1177,1.76125 1.47541,2.38306 1.18033,-1.80167 2.76932,-2.94184 3.21136,-4.90962 z"
     sodipodi:nodetypes="ccccc" />
  <path
     id="path56318"
     style="fill:none;stroke:#af8989;stroke-width:0.27026;stroke-linecap:round;stroke-linejoin:round;stroke-miterlimit:4;stroke-dasharray:none;stroke-opacity:1"
     d="m 66.306179,125.06743 c 1.862594,-0.40264 3.595793,-0.50031 4.697946,0.88932 l -5.016655,3.22675 c -1.005062,0.3826 -1.948864,-0.80047 -2.627406,-0.79875 z"
     sodipodi:nodetypes="ccccc" />
  <path
     id="path56320"
     style="fill:none;stroke:#af8989;stroke-width:0.27026;stroke-linecap:round;stroke-linejoin:round;stroke-miterlimit:4;stroke-dasharray:none;stroke-opacity:1"
     d="m 70.517579,126.04379 c 1.862594,-0.40263 3.935166,0.26431 4.724604,1.14692 -1.898809,1.48823 -3.506083,2.97645 -3.509437,4.46467 -2.282081,-0.0456 -5.433161,-1.28765 -5.447245,-2.26672 z"
     sodipodi:nodetypes="ccccc" />
  <path
     id="path56322"
     style="fill:none;stroke:#af8989;stroke-width:0.27026;stroke-linecap:round;stroke-linejoin:round;stroke-miterlimit:4;stroke-dasharray:none;stroke-opacity:1"
     d="m 74.890158,127.7156 c 1.862594,-0.40264 7.785534,2.74115 8.024541,3.4636 -0.702668,1.69055 -1.853,3.68384 -2.36324,4.72212 -4.250216,0.2911 -9.126507,-3.11388 -9.14059,-4.09295 z"
     sodipodi:nodetypes="ccccc" />
  <path
     id="path56324"
     style="fill:none;stroke:#af8989;stroke-width:0.27026;stroke-linecap:round;stroke-linejoin:round;stroke-miterlimit:4;stroke-dasharray:none;stroke-opacity:1"
     d="m 83.379784,131.04488 c 1.226024,-0.0822 7.121013,3.17811 8.602676,3.21249 -0.702668,1.69056 -1.012899,3.47639 -1.523139,4.51467 -3.181647,1.04638 -9.64212,-1.68529 -9.656204,-2.66436 z"
     sodipodi:nodetypes="ccccc" />
  <path
     id="path56326"
     style="fill:none;stroke:#af8989;stroke-width:0.27026;stroke-linecap:round;stroke-linejoin:round;stroke-miterlimit:4;stroke-dasharray:none;stroke-opacity:1"
     d="m 92.125536,134.31615 c 1.226023,-0.0822 2.416767,2.9903 8.741714,3.69307 0.0108,1.91344 -1.010627,4.84417 -1.880699,5.77004 -2.036574,0.66518 -8.282418,-4.13294 -8.296501,-5.11201 z"
     sodipodi:nodetypes="ccccc" />
  <path
     id="path56328"
     style="fill:none;stroke:#af8989;stroke-width:0.27026;stroke-linecap:round;stroke-linejoin:round;stroke-miterlimit:4;stroke-dasharray:none;stroke-opacity:1"
     d="m 100.60573,137.83699 c 1.22602,-0.0822 3.92282,-0.63641 6.11789,2.74044 1.04287,1.60432 1.86796,5.10585 0.99789,6.03172 -2.74653,1.1639 -7.866517,-1.64144 -7.8806,-2.62052 z"
     sodipodi:nodetypes="csccc" />
  <path
     id="path56330"
     style="fill:none;stroke:#af8989;stroke-width:0.27026;stroke-linecap:round;stroke-linejoin:round;stroke-miterlimit:4;stroke-dasharray:none;stroke-opacity:1"
     d="m 105.25403,138.89803 c 0.50009,0.4067 0.99632,0.95163 1.46954,1.67962 0.97347,1.49758 1.75685,4.64751 1.14913,5.81323 0.86866,0.18546 1.02644,1.48969 1.73663,1.18872 0.87008,-0.92587 0.0452,-4.42744 -0.99763,-6.03176 -1.07614,-1.65551 -2.27277,-2.36513 -3.35767,-2.64981 z" />
  <path
     id="path64156"
     style="fill:#ffffff;fill-opacity:1;stroke-width:1.62156;stroke-linecap:round;stroke-linejoin:round;opacity:0.2"
     d="M 89.34375 43.935547 C 76.990907 44.010065 70.759276 49.844153 67.494141 55.519531 C 61.909248 65.227057 46.760397 96.157454 37.84375 117.90039 C 37.667071 118.43695 37.652184 118.92633 37.746094 119.37305 C 37.772526 119.21759 37.789837 119.06412 37.84375 118.90039 C 46.760397 97.157454 61.909248 66.22901 67.494141 56.521484 C 70.976952 50.467747 77.83448 44.232297 91.896484 45 C 114.07237 46.210671 132.97358 54.872056 145.75391 69.492188 C 148.9543 73.153302 150.00362 76.114316 150.125 78.537109 C 150.26111 75.942134 149.40928 72.673779 145.75391 68.492188 C 132.97358 53.872056 114.07237 45.210671 91.896484 44 C 91.017609 43.952019 90.167273 43.930579 89.34375 43.935547 z M 137.07617 99.519531 L 136.58789 104.61719 C 135.51132 118.48513 124.51778 133.37609 120.35156 153.74609 L 120.55469 153.85938 C 124.85438 133.94835 135.52721 119.28046 136.58789 105.61719 L 137.16992 99.548828 L 137.07617 99.519531 z " />
  <path
     id="rect7346"
     style="fill:#ffe363;fill-opacity:1;stroke-width:1.62156;stroke-linecap:round;stroke-linejoin:round"
     d="m 79.369648,64.201 c 10.131663,2.160077 17.166061,9.503953 24.648602,14.990515 4.60786,2.317202 7.12179,2.638981 6.90469,8.149412 -0.14673,3.185449 -1.12586,6.028609 -3.8466,7.05805 C 100.25652,96.979381 89.022381,78.966837 79.028077,77.33 72.375897,76.240526 67.422831,79.033498 63.338665,82.179036 64.166906,72.533428 69.814927,62.205546 79.369648,64.201 Z"
     sodipodi:nodetypes="cccsscc" />
  <path
     id="rect9002"
     style="fill:#ffe363;fill-opacity:1;stroke-width:1.62156;stroke-linecap:round;stroke-linejoin:round"
     d="m 116.78527,81 c 11.87773,1.853047 23.72576,3.376034 27.39803,15.642824 1.64254,5.749566 -0.30196,10.844806 -4.34372,15.557466 0,0 -2.81512,-10.2021 -6.69777,-13.289773 C 127.61977,94.519109 115.75155,96.782384 112.38074,93.88537 108.6002,90.636214 112.02683,80.942053 116.78527,81 Z"
     sodipodi:nodetypes="cccssc" />
</svg>
