<?xml version="1.0" encoding="UTF-8" standalone="no"?>
<svg
   width="192"
   height="192"
   version="1.1"
   id="svg24"
   sodipodi:docname="games_moe_era.svg"
   inkscape:version="1.1-rc (1:1.1+rc+202105232036+f4db50c7c1)"
   xmlns:inkscape="http://www.inkscape.org/namespaces/inkscape"
   xmlns:sodipodi="http://sodipodi.sourceforge.net/DTD/sodipodi-0.dtd"
   xmlns="http://www.w3.org/2000/svg"
   xmlns:svg="http://www.w3.org/2000/svg">
  <defs
     id="defs28">
    <filter
       inkscape:collect="always"
       style="color-interpolation-filters:sRGB"
       id="filter869"
       x="-0.048000001"
       y="-0.048000001"
       width="1.096"
       height="1.096">
      <feGaussianBlur
         inkscape:collect="always"
         stdDeviation="3.2"
         id="feGaussianBlur871" />
    </filter>
    <filter
       inkscape:collect="always"
       style="color-interpolation-filters:sRGB"
       id="filter873"
       x="-0.048"
       y="-0.048"
       width="1.096"
       height="1.096">
      <feGaussianBlur
         inkscape:collect="always"
         stdDeviation="2.24"
         id="feGaussianBlur875" />
    </filter>
    <filter
       inkscape:collect="always"
       style="color-interpolation-filters:sRGB"
       id="filter895"
       x="-0.06"
       y="-0.04"
       width="1.12"
       height="1.08">
      <feGaussianBlur
         inkscape:collect="always"
         stdDeviation="1.5"
         id="feGaussianBlur897" />
    </filter>
    <filter
       inkscape:collect="always"
       style="color-interpolation-filters:sRGB"
       id="filter899"
       x="-0.055999998"
       y="-0.041999999"
       width="1.112"
       height="1.084">
      <feGaussianBlur
         inkscape:collect="always"
         stdDeviation="1.68"
         id="feGaussianBlur901" />
    </filter>
    <filter
       inkscape:collect="always"
       style="color-interpolation-filters:sRGB"
       id="filter903"
       x="-0.045599999"
       y="-0.050666666"
       width="1.0912"
       height="1.1013333">
      <feGaussianBlur
         inkscape:collect="always"
         stdDeviation="1.52"
         id="feGaussianBlur905" />
    </filter>
  </defs>
  <sodipodi:namedview
     id="namedview26"
     pagecolor="#ffffff"
     bordercolor="#666666"
     borderopacity="1.0"
     inkscape:pageshadow="2"
     inkscape:pageopacity="0.0"
     inkscape:pagecheckerboard="0"
     showgrid="false"
     inkscape:zoom="2.66"
     inkscape:cx="83.270677"
     inkscape:cy="114.09774"
     inkscape:window-width="1920"
     inkscape:window-height="1019"
     inkscape:window-x="0"
     inkscape:window-y="34"
     inkscape:window-maximized="1"
     inkscape:current-layer="svg24" />
  <circle
     style="opacity:0.2;stroke-width:4;filter:url(#filter869)"
     cx="96"
     cy="100"
     r="80"
     id="circle2" />
  <circle
     style="fill:#e4accb;stroke-width:4"
     cx="96"
     cy="96"
     r="80"
     id="circle4" />
  <circle
     style="opacity:0.2;stroke-width:4;filter:url(#filter873)"
     cx="96"
     cy="98.000008"
     r="56"
     id="circle6" />
  <circle
     style="fill:#e4e4e4;stroke-width:4"
     cx="96"
     cy="96"
     r="56"
     id="circle8" />
  <path
     id="path10"
     style="opacity:0.2;fill:#ffffff;stroke-width:4"
     d="M 96 16 A 80 80 0 0 0 16 96 A 80 80 0 0 0 16.021484 96.662109 A 80 80 0 0 1 96 17 A 80 80 0 0 1 175.98438 96.310547 A 80 80 0 0 0 176 96 A 80 80 0 0 0 96 16 z " />
  <path
     style="opacity:0.2;stroke-width:4;filter:url(#filter903)"
     d="M 16,130 H 48 V 98 l 8,8 8,-8 v 32 H 96 L 88,66 64,58 56,66 48,58 24,66 Z"
     id="path12" />
  <path
     style="fill:#ee5364;stroke-width:4"
     d="M 16,128 H 48 V 96 l 8,8 8,-8 v 32 H 96 L 88,64 64,56 56,64 48,56 24,64 Z"
     id="path14" />
  <path
     style="opacity:0.2;stroke-width:4;filter:url(#filter899)"
     d="M 104,34 V 66 L 120,34 Z M 88,50 96,66 V 50 Z m 40,0 -8,16 16,-8 z m -28,16 a 36,32 0 0 0 -36,32 36,32 0 0 0 36,32 36,32 0 0 0 36,-32 36,32 0 0 0 -36,-32 z m 0,24 a 12,8 0 0 1 12,8 12,8 0 0 1 -12,8 12,8 0 0 1 -12,-8 12,8 0 0 1 12,-8 z"
     id="path16" />
  <path
     style="fill:#96b92f;stroke-width:4"
     d="M 104,32 V 64 L 120,32 Z M 88,48 96,64 V 48 Z m 40,0 -8,16 16,-8 z m -28,16 a 36,32 0 0 0 -36,32 36,32 0 0 0 36,32 36,32 0 0 0 36,-32 36,32 0 0 0 -36,-32 z m 0,24 a 12,8 0 0 1 12,8 12,8 0 0 1 -12,8 12,8 0 0 1 -12,-8 12,8 0 0 1 12,-8 z"
     id="path18" />
  <path
     style="opacity:0.2;stroke-width:4;filter:url(#filter895)"
     d="m 116,138 4,-80 56,-10 v 26 h -32 v 8 h 24 v 16 h -24 v 16 h 24 l 8,24 z"
     id="path20" />
  <path
     style="fill:#34a0e8;stroke-width:4"
     d="m 116,136 4,-80 56,-10 v 26 h -32 v 8 h 24 v 16 h -24 v 16 h 24 l 8,24 z"
     id="path22" />
</svg>
