<?xml version="1.0" encoding="UTF-8" standalone="no"?>
<svg
   width="192"
   height="192"
   version="1.1"
   id="svg16"
   sodipodi:docname="games_adventure_capitalist.svg"
   inkscape:version="1.1-rc (1:1.1+rc+202105232036+f4db50c7c1)"
   xmlns:inkscape="http://www.inkscape.org/namespaces/inkscape"
   xmlns:sodipodi="http://sodipodi.sourceforge.net/DTD/sodipodi-0.dtd"
   xmlns="http://www.w3.org/2000/svg"
   xmlns:svg="http://www.w3.org/2000/svg">
  <defs
     id="defs20">
    <filter
       inkscape:collect="always"
       style="color-interpolation-filters:sRGB"
       id="filter3863"
       x="-0.046666692"
       y="-0.049411737"
       width="1.0933334"
       height="1.0988235">
      <feGaussianBlur
         inkscape:collect="always"
         stdDeviation="2.7999871"
         id="feGaussianBlur3865" />
    </filter>
    <filter
       inkscape:collect="always"
       style="color-interpolation-filters:sRGB"
       id="filter4242"
       x="-0.12598948"
       y="-0.029647642"
       width="1.251979"
       height="1.0592953">
      <feGaussianBlur
         inkscape:collect="always"
         stdDeviation="0.84000592"
         id="feGaussianBlur4244" />
    </filter>
    <filter
       inkscape:collect="always"
       style="color-interpolation-filters:sRGB"
       id="filter4402"
       x="-0.12599005"
       y="-0.02964761"
       width="1.2519801"
       height="1.0592952">
      <feGaussianBlur
         inkscape:collect="always"
         stdDeviation="0.84001511"
         id="feGaussianBlur4404" />
    </filter>
  </defs>
  <sodipodi:namedview
     id="namedview18"
     pagecolor="#ffffff"
     bordercolor="#666666"
     borderopacity="1.0"
     inkscape:pageshadow="2"
     inkscape:pageopacity="0.0"
     inkscape:pagecheckerboard="0"
     showgrid="false"
     inkscape:zoom="1"
     inkscape:cx="81.5"
     inkscape:cy="65.5"
     inkscape:window-width="1920"
     inkscape:window-height="1019"
     inkscape:window-x="0"
     inkscape:window-y="34"
     inkscape:window-maximized="1"
     inkscape:current-layer="svg16">
    <inkscape:grid
       type="xygrid"
       id="grid3867" />
  </sodipodi:namedview>
  <path
     style="opacity:0.2;fill:#000000;fill-rule:evenodd;stroke-width:3.99998;filter:url(#filter4402)"
     d="m 88.000042,114.00004 v 59.89692 C 87.936952,178.3535 91.537071,182 96.000001,182 c 4.462929,0 8.063049,-3.6465 7.999959,-8.10304 v -59.89692 z"
     id="path4364" />
  <path
     style="fill:#ffd56a;fill-rule:evenodd;stroke-width:3.99998"
     d="m 88.000042,112 v 59.89692 c -0.06309,4.45654 3.537029,8.10304 7.999959,8.10304 4.462929,0 8.063049,-3.6465 7.999959,-8.10304 V 112 Z"
     id="path3843" />
  <path
     style="color:#000000;opacity:0.2;fill:#000000;stroke-width:3.99575;stroke-linecap:round;stroke-linejoin:round;-inkscape-stroke:none;filter:url(#filter3863)"
     d="m 70.14857,32.042453 c -4.422877,0.153466 -10.419565,0.781259 -16.742097,2.674008 -6.322535,1.89275 -13.522273,5.186416 -19.507712,11.623749 -5.98544,6.437335 -9.898387,16.107545 -9.898387,26.514002 0,10.406462 3.839718,19.984045 9.578075,26.53739 5.738358,6.553358 12.697482,10.230138 18.913965,12.504698 12.432968,4.54912 23.859252,4.06169 23.859252,4.06169 l -0.351562,0.008 19.999896,0.0337 19.80459,-0.0337 c 0.77321,0.009 1.54606,-0.0379 2.31248,-0.14036 0,0 6.26004,-0.49928 11.13276,1.01347 2.43636,0.75638 3.94858,1.75179 4.83591,2.81434 0.88733,1.06258 1.91405,2.50253 1.91405,7.49193 0,3.56386 -0.58703,3.97227 -1.35155,4.79451 -0.76452,0.82224 -2.56475,1.95824 -5.24217,2.75976 -5.35482,1.60305 -11.99212,1.28633 -11.99212,1.28633 -0.4702,-0.0416 -0.94201,-0.0624 -1.41405,-0.0624 H 56.000208 c -8.83651,0 -15.999916,7.14826 -15.999917,15.96609 1e-6,8.81783 7.163407,15.96609 15.999917,15.96609 H 115.9999 l -1.41406,-0.0624 c 0,0 11.36262,1.2752 24.00769,-2.51029 6.32253,-1.89276 13.52227,-5.18642 19.50771,-11.62376 5.98544,-6.4373 9.89839,-16.10751 9.89839,-26.51397 0,-10.97667 -3.47327,-20.91258 -9.33589,-27.932865 C 152.80111,92.192216 145.31336,88.38688 138.74978,86.34919 125.62261,82.273815 113.88272,84.174122 113.88272,84.174122 l 2.31249,-0.14032 c -2.31249,0.14029 -20.359273,-0.03408 -20.359273,-0.03408 l -19.835833,0.03405 c -0.117212,0.0014 -0.234405,0.004 -0.351558,0.008 0,0 -6.573638,-0.0914 -12.140561,-2.128293 -2.783466,-1.018654 -4.824311,-2.376499 -5.83591,-3.531773 -1.011602,-1.15527 -1.671867,-1.963466 -1.671867,-5.527324 0,-3.563853 0.587037,-3.972267 1.351557,-4.794503 0.764516,-0.822243 2.564747,-1.958237 5.242161,-2.759761 5.354824,-1.603052 11.992121,-1.286334 11.992121,-1.286334 0.4702,0.04159 0.942013,0.0624 1.414057,0.06237 h 59.999686 c 8.83658,2e-6 16.00002,-7.148367 15.99992,-15.966265 0,-8.817829 -7.16341,-15.966091 -15.99992,-15.966089 H 76.000104 l 1.414057,0.06237 c 0,0 -2.84271,-0.317183 -7.265591,-0.163715 z"
     id="path3803"
     sodipodi:nodetypes="sssssscccccsssssccsssccsssssccccccssssccscsccss" />
  <path
     style="opacity:0.2;fill:#000000;fill-rule:evenodd;stroke-width:3.99998;filter:url(#filter4242)"
     d="m 95.882813,14.001732 c -4.415175,0.06462 -7.943168,3.689175 -7.882771,8.098527 V 82 H 103.99996 V 22.100259 c 0.0617,-4.501015 -3.61019,-8.164431 -8.117147,-8.098527 z"
     id="path4204" />
  <path
     style="color:#000000;fill:#ff990f;stroke-width:3.99575;stroke-linecap:round;stroke-linejoin:round;-inkscape-stroke:none"
     d="m 70.14857,28.042736 c -4.422877,0.153466 -10.419565,0.781259 -16.742097,2.674008 -6.322535,1.89275 -13.522273,5.186416 -19.507712,11.623749 -5.98544,6.437335 -9.898387,16.107545 -9.898387,26.514002 0,10.406462 3.839718,19.984045 9.578075,26.53739 5.738358,6.553355 12.697482,10.230135 18.913965,12.504695 12.432968,4.54912 23.859252,4.06169 23.859252,4.06169 l -0.351562,0.008 L 96,112 l 19.80459,-0.0337 c 0.77321,0.009 1.54606,-0.0379 2.31248,-0.14036 0,0 6.26004,-0.49928 11.13276,1.01347 2.43636,0.75638 3.94858,1.75179 4.83591,2.81434 0.88733,1.06258 1.91405,2.50253 1.91405,7.49193 0,3.56386 -0.58703,3.97227 -1.35155,4.79451 -0.76452,0.82224 -2.56475,1.95824 -5.24217,2.75976 -5.35482,1.60305 -11.99212,1.28633 -11.99212,1.28633 -0.4702,-0.0416 -0.94201,-0.0624 -1.41405,-0.0624 H 56.000208 c -8.83651,0 -15.999916,7.14826 -15.999917,15.96609 1e-6,8.81783 7.163407,15.96609 15.999917,15.96609 H 115.9999 l -1.41406,-0.0624 c 0,0 11.36262,1.2752 24.00769,-2.51029 6.32253,-1.89276 13.52227,-5.18642 19.50771,-11.62376 5.98544,-6.4373 9.89839,-16.10751 9.89839,-26.51397 0,-10.97667 -3.47327,-20.91258 -9.33589,-27.932862 -5.86263,-7.020279 -13.35038,-10.825615 -19.91396,-12.863305 -13.12717,-4.075375 -24.86706,-2.175068 -24.86706,-2.175068 l 2.31249,-0.14032 C 113.88272,80.174375 95.835937,80 95.835937,80 l -19.835833,0.03405 c -0.117212,0.0014 -0.234405,0.004 -0.351558,0.008 0,0 -6.573638,-0.0914 -12.140561,-2.128293 -2.783466,-1.018654 -4.824311,-2.376499 -5.83591,-3.531773 -1.011602,-1.15527 -1.671867,-1.963466 -1.671867,-5.527324 0,-3.563853 0.587037,-3.972267 1.351557,-4.794503 0.764516,-0.822243 2.564747,-1.958237 5.242161,-2.759761 5.354824,-1.603052 11.992121,-1.286334 11.992121,-1.286334 0.4702,0.04159 0.942013,0.0624 1.414057,0.06237 h 59.999686 c 8.83658,2e-6 16.00002,-7.148367 15.99992,-15.966265 0,-8.817829 -7.16341,-15.966091 -15.99992,-15.966089 H 76.000104 l 1.414057,0.06237 c 0,0 -2.84271,-0.317183 -7.265591,-0.163715 z"
     id="path6"
     sodipodi:nodetypes="sssssscccccsssssccsssccsssssccccccssssccscsccss" />
  <path
     style="fill:#ffd56a;fill-rule:evenodd;stroke-width:3.99998"
     d="m 95.882813,12.001732 c -4.415175,0.06462 -7.943168,3.689175 -7.882771,8.098527 V 80 H 103.99996 V 20.100259 c 0.0617,-4.501015 -3.61019,-8.164431 -8.117147,-8.098527 z"
     id="path10" />
  <path
     id="path14"
     style="opacity:0.2;fill:#ffffff;fill-rule:evenodd;stroke-width:3.99998"
     d="M 95.882812 12 C 91.466452 12.06461 87.937932 15.691048 88 20.101562 L 88 21.101562 C 87.937932 16.691048 91.466452 13.06461 95.882812 13 C 100.39097 12.934056 104.0633 16.59938 104 21.101562 L 104 20.101562 C 104.0633 15.59938 100.39097 11.934056 95.882812 12 z " />
  <path
     id="path3759"
     style="color:#000000;fill:#ffffff;stroke-width:3.99575;stroke-linecap:round;stroke-linejoin:round;-inkscape-stroke:none;opacity:0.2"
     d="M 73.150391 28.003906 C 72.261919 27.995752 71.254157 28.004602 70.148438 28.042969 C 65.725561 28.196435 59.728782 28.824048 53.40625 30.716797 C 47.083715 32.609547 39.883876 35.902511 33.898438 42.339844 C 27.912997 48.777179 24 58.449012 24 68.855469 C 24 69.025404 24.021398 69.189891 24.023438 69.359375 C 24.146102 59.143103 28.008699 49.674252 33.898438 43.339844 C 39.883876 36.902511 47.083715 33.609547 53.40625 31.716797 C 59.728782 29.824048 65.72556 29.196435 70.148438 29.042969 C 73.589181 28.92358 75.603394 29.065167 76.537109 29.144531 L 88 29.144531 L 88 28.144531 L 76.537109 28.144531 C 75.903453 28.090672 75.026636 28.021127 73.150391 28.003906 z M 104 28.144531 L 104 29.144531 L 136 29.144531 C 144.66739 29.144529 151.70763 36.024967 151.97461 44.609375 C 151.97982 44.441868 152 44.278143 152 44.109375 C 152 35.291546 144.83651 28.144529 136 28.144531 L 104 28.144531 z M 56.025391 69.326172 C 56.021017 69.522873 56 69.633628 56 69.853516 C 56 73.417374 56.660273 74.225589 57.671875 75.380859 C 58.683474 76.536133 60.724348 77.89541 63.507812 78.914062 C 69.074736 80.950957 75.648438 81.041016 75.648438 81.041016 C 75.765591 81.037016 75.882788 81.034603 76 81.033203 L 95.835938 81 C 95.835938 81 110.86405 81.138517 114.97656 81.048828 C 117.54183 80.730146 127.38324 79.820759 138.75 83.349609 C 145.31358 85.387299 152.80143 89.192642 158.66406 96.212891 C 164.42909 103.11631 167.8651 112.84416 167.97852 123.60352 C 167.98022 123.44988 168 123.30045 168 123.14648 C 168 112.16981 164.52668 102.23317 158.66406 95.212891 C 152.80143 88.192612 145.31358 84.387299 138.75 82.349609 C 127.38324 78.820759 117.54183 79.730146 114.97656 80.048828 C 110.86405 80.138516 95.835938 80 95.835938 80 L 76 80.033203 C 75.882788 80.034603 75.765591 80.038969 75.648438 80.042969 C 75.648438 80.042969 69.074736 79.950957 63.507812 77.914062 C 60.724348 76.895409 58.683474 75.538088 57.671875 74.382812 C 56.714305 73.289249 56.091322 72.429402 56.025391 69.326172 z M 135.98242 123.50781 C 135.93559 126.67159 135.38064 127.15197 134.64844 127.93945 C 133.88392 128.76169 132.08367 129.8977 129.40625 130.69922 C 124.05143 132.30227 117.41406 131.98633 117.41406 131.98633 C 116.94386 131.94473 116.47204 131.92383 116 131.92383 L 104 131.92383 L 104 132.92383 L 116 132.92383 C 116.47204 132.92383 116.94386 132.94473 117.41406 132.98633 C 117.41406 132.98633 124.05143 133.30227 129.40625 131.69922 C 132.08367 130.8977 133.88392 129.76169 134.64844 128.93945 C 135.41296 128.11721 136 127.70839 136 124.14453 C 136 123.91243 135.98675 123.72487 135.98242 123.50781 z M 56 131.92383 C 47.16349 131.92383 40.000001 139.07279 40 147.89062 C 40 148.05959 40.020169 148.22292 40.025391 148.39062 C 40.292376 139.80622 47.332614 132.92383 56 132.92383 L 88 132.92383 L 88 131.92383 L 56 131.92383 z " />
  <path
     id="path4061"
     style="fill:#ffd56a;fill-rule:evenodd;stroke-width:3.99998"
     d="m 88,130 v 41.89648 C 87.93691,176.35302 91.53707,180 96,180 c 4.46293,0 8.06309,-3.64698 8,-8.10352 V 130 Z"
     sodipodi:nodetypes="ccsccc" />
</svg>
