<?xml version="1.0" encoding="UTF-8" standalone="no"?>
<svg
   width="192"
   height="192"
   version="1.1"
   id="svg68"
   sodipodi:docname="games_desmume.svg"
   inkscape:version="1.1-rc (1:1.1+rc+202105232036+f4db50c7c1)"
   xmlns:inkscape="http://www.inkscape.org/namespaces/inkscape"
   xmlns:sodipodi="http://sodipodi.sourceforge.net/DTD/sodipodi-0.dtd"
   xmlns="http://www.w3.org/2000/svg"
   xmlns:svg="http://www.w3.org/2000/svg">
  <defs
     id="defs72">
    <filter
       inkscape:collect="always"
       style="color-interpolation-filters:sRGB"
       id="filter957"
       x="-0.048000001"
       y="-0.048000001"
       width="1.096"
       height="1.096">
      <feGaussianBlur
         inkscape:collect="always"
         stdDeviation="3.2"
         id="feGaussianBlur959" />
    </filter>
    <filter
       inkscape:collect="always"
       style="color-interpolation-filters:sRGB"
       id="filter971"
       x="-0.029999999"
       y="-0.12"
       width="1.06"
       height="1.24">
      <feGaussianBlur
         inkscape:collect="always"
         stdDeviation="1.8"
         id="feGaussianBlur973" />
    </filter>
  </defs>
  <sodipodi:namedview
     id="namedview70"
     pagecolor="#ffffff"
     bordercolor="#666666"
     borderopacity="1.0"
     inkscape:pageshadow="2"
     inkscape:pageopacity="0.0"
     inkscape:pagecheckerboard="0"
     showgrid="false"
     inkscape:zoom="2.67"
     inkscape:cx="24.157303"
     inkscape:cy="84.082397"
     inkscape:window-width="1920"
     inkscape:window-height="1019"
     inkscape:window-x="0"
     inkscape:window-y="34"
     inkscape:window-maximized="1"
     inkscape:current-layer="svg68" />
  <rect
     style="opacity:0.2;stroke-width:4;filter:url(#filter957)"
     width="160"
     height="160"
     x="16"
     y="20"
     rx="8"
     ry="8"
     id="rect2" />
  <rect
     style="fill:#9293ff;stroke-width:4"
     width="160"
     height="160"
     x="16"
     y="16"
     rx="8"
     ry="8"
     id="rect4" />
  <path
     style="fill:#6469bb;stroke-width:4"
     d="M 176,167.99998 V 92 H 16 v 75.99998 c 0,4.432 3.568,8 8,8 h 144 c 4.432,0 8,-3.568 8,-8 z"
     id="path6" />
  <path
     style="fill:#3e3e3e;stroke-width:4"
     d="m 48,28 h 96 V 80 H 48 m 0,-52"
     id="path8" />
  <path
     style="fill:#3e3e3e;stroke-width:4"
     d="m 64,112 h 64 v 52 H 64 m 0,-52"
     id="path10" />
  <path
     id="rect12"
     style="opacity:0.2;stroke-width:4;filter:url(#filter971)"
     d="m 36,122 v 12 H 24 v 12 h 12 v 12 H 48 V 146 H 60 V 134 H 48 v -12 z m 114,0 a 6,6 0 0 0 -6,6 6,6 0 0 0 6,6 6,6 0 0 0 6,-6 6,6 0 0 0 -6,-6 z m -12,12 a 6,6 0 0 0 -6,6 6,6 0 0 0 6,6 6,6 0 0 0 6,-6 6,6 0 0 0 -6,-6 z m 24,0 a 6,6 0 0 0 -6,6 6,6 0 0 0 6,6 6,6 0 0 0 6,-6 6,6 0 0 0 -6,-6 z m -12,12 a 6,6 0 0 0 -6,6 6,6 0 0 0 6,6 6,6 0 0 0 6,-6 6,6 0 0 0 -6,-6 z" />
  <g
     style="fill:#e4e4e4"
     transform="matrix(4,0,0,4,-16.080002,68.28)"
     id="g22">
    <rect
       width="3"
       height="9"
       x="13.02"
       y="12.93"
       ry="0"
       id="rect18" />
    <rect
       width="3"
       height="9"
       x="15.93"
       y="-19.02"
       ry="0"
       transform="rotate(90)"
       id="rect20" />
  </g>
  <g
     style="fill:#e4e4e4"
     transform="matrix(4,0,0,4,34.143919,3.1285706)"
     id="g46">
    <circle
       style="fill:#e4e4e4"
       cx="31.964001"
       cy="33.717999"
       r="1.5"
       id="circle36" />
    <g
       style="fill:#e4e4e4"
       transform="translate(-4.5559803,16.287855)"
       id="g42">
      <circle
         style="fill:#e4e4e4"
         cx="30.52"
         cy="17.43"
         r="1.5"
         id="circle38" />
      <circle
         style="fill:#e4e4e4"
         cx="14.43"
         cy="-33.52"
         r="1.5"
         transform="rotate(90)"
         id="circle40" />
    </g>
    <circle
       style="fill:#e4e4e4"
       cx="36.717999"
       cy="-28.964001"
       r="1.5"
       transform="rotate(90)"
       id="circle44" />
  </g>
  <g
     style="opacity:0.2"
     id="g54"
     transform="scale(4)">
    <rect
       width="4"
       height="1"
       x="6"
       y="15"
       id="rect48" />
    <rect
       width="4"
       height="1"
       x="6"
       y="17"
       id="rect50" />
    <rect
       width="4"
       height="1"
       x="6"
       y="19"
       id="rect52" />
  </g>
  <g
     style="opacity:0.2"
     transform="matrix(4,0,0,4,128,0)"
     id="g62">
    <rect
       width="4"
       height="1"
       x="6"
       y="15"
       id="rect56" />
    <rect
       width="4"
       height="1"
       x="6"
       y="17"
       id="rect58" />
    <rect
       width="4"
       height="1"
       x="6"
       y="19"
       id="rect60" />
  </g>
  <rect
     style="opacity:0.2;stroke-width:4"
     width="160"
     height="8"
     x="16"
     y="92"
     id="rect64" />
  <path
     id="path66"
     style="opacity:0.2;fill:#ffffff;stroke-width:4"
     d="M 24 16 C 19.568 16 16 19.568 16 24 L 16 25 C 16 20.568 19.568 17 24 17 L 168 17 C 172.432 17 176 20.568 176 25 L 176 24 C 176 19.568 172.432 16 168 16 L 24 16 z " />
</svg>
