<?xml version="1.0" encoding="UTF-8" standalone="no"?>
<svg
   width="192"
   height="192"
   version="1.1"
   id="svg40"
   sodipodi:docname="games_the_witcher.svg"
   inkscape:version="1.1-rc (1:1.1+rc+202105232036+f4db50c7c1)"
   xmlns:inkscape="http://www.inkscape.org/namespaces/inkscape"
   xmlns:sodipodi="http://sodipodi.sourceforge.net/DTD/sodipodi-0.dtd"
   xmlns="http://www.w3.org/2000/svg"
   xmlns:svg="http://www.w3.org/2000/svg">
  <defs
     id="defs44">
    <filter
       inkscape:collect="always"
       style="color-interpolation-filters:sRGB"
       id="filter901"
       x="-0.048000001"
       y="-0.048000001"
       width="1.096"
       height="1.096">
      <feGaussianBlur
         inkscape:collect="always"
         stdDeviation="3.2"
         id="feGaussianBlur903" />
    </filter>
    <filter
       inkscape:collect="always"
       style="color-interpolation-filters:sRGB"
       id="filter2940"
       x="-0.05120168"
       y="-0.045175164"
       width="1.1024034"
       height="1.0903503">
      <feGaussianBlur
         inkscape:collect="always"
         stdDeviation="2.5599336"
         id="feGaussianBlur2942" />
    </filter>
    <filter
       inkscape:collect="always"
       style="color-interpolation-filters:sRGB"
       id="filter2944"
       x="-0.039428571"
       y="-0.06133333"
       width="1.0788571"
       height="1.1226667">
      <feGaussianBlur
         inkscape:collect="always"
         stdDeviation="2.7600001"
         id="feGaussianBlur2946" />
    </filter>
    <filter
       inkscape:collect="always"
       style="color-interpolation-filters:sRGB"
       id="filter2949"
       x="-0.034026074"
       y="-0.11721682"
       width="1.0680521"
       height="1.2344336">
      <feGaussianBlur
         inkscape:collect="always"
         stdDeviation="0.90736198"
         id="feGaussianBlur2951" />
    </filter>
    <filter
       inkscape:collect="always"
       style="color-interpolation-filters:sRGB"
       id="filter2953"
       x="-0.10464515"
       y="-0.11157707"
       width="1.2092903"
       height="1.2231541">
      <feGaussianBlur
         inkscape:collect="always"
         stdDeviation="0.74021485"
         id="feGaussianBlur2955" />
    </filter>
    <filter
       inkscape:collect="always"
       style="color-interpolation-filters:sRGB"
       id="filter2957"
       x="-0.090216943"
       y="-0.13451481"
       width="1.1804339"
       height="1.2690296">
      <feGaussianBlur
         inkscape:collect="always"
         stdDeviation="0.90158211"
         id="feGaussianBlur2959" />
    </filter>
  </defs>
  <sodipodi:namedview
     id="namedview42"
     pagecolor="#ffffff"
     bordercolor="#666666"
     borderopacity="1.0"
     inkscape:pageshadow="2"
     inkscape:pageopacity="0.0"
     inkscape:pagecheckerboard="0"
     showgrid="false"
     inkscape:zoom="1"
     inkscape:cx="23.5"
     inkscape:cy="88.5"
     inkscape:window-width="1920"
     inkscape:window-height="1019"
     inkscape:window-x="0"
     inkscape:window-y="34"
     inkscape:window-maximized="1"
     inkscape:current-layer="svg40" />
  <circle
     cx="96"
     cy="100"
     r="80"
     style="opacity:0.2;stroke-width:4;filter:url(#filter901)"
     id="circle2" />
  <circle
     cx="96"
     cy="96"
     r="80"
     style="fill:#3f3f3f;stroke-width:4;fill-opacity:1"
     id="circle4" />
  <path
     d="m 56,35.999595 v 16.000001 l -6.773436,7.648436 C 39.194883,65.60832 31.634159,69.639724 24,75.999596 l 16,8 -28,16 32,4.000004 -28,32 32,-8 v 8 l 16,-4 -4,12 28,-12 h 16 l 28,12 -4,-12 16,4 v -8 l 32,8 -28,-32 32,-4.000004 -28,-16 16,-8 C 160.36584,69.639724 152.80512,65.60832 142.77344,59.648032 L 136,51.999596 V 35.999595 l -16,8.000001 v -4.000001 l -8,4.000001 V 39.999595 L 96,43.999596 80,39.999595 v 4.000001 l -8,-4.000001 v 4.000001 z"
     style="opacity:0.2;stroke-width:4;filter:url(#filter2944)"
     id="path6" />
  <path
     id="path8"
     style="opacity:0.1;fill:#ffffff;stroke-width:4"
     d="M 96 16 A 80 80 0 0 0 16 96 A 80 80 0 0 0 16.023438 96.638672 A 80 80 0 0 1 96 17 A 80 80 0 0 1 175.98438 96.302734 A 80 80 0 0 0 176 96 A 80 80 0 0 0 96 16 z " />
  <path
     d="m 56,32 v 16 l -6.773436,7.648436 C 39.194883,61.608724 31.634159,65.640128 24,72 l 16,8 -28,16 32,4 -28,32 32,-8 v 8 l 16,-4 -4,12 28,-12 h 8 8 l 28,12 -4,-12 16,4 v -8 l 32,8 -28,-32 32,-4 -28,-16 16,-8 C 160.36584,65.640128 152.80512,61.608724 142.77344,55.648436 L 136,48 V 32 l -16,8 v -4 l -8,4 V 36 L 96,40 80,36 v 4 l -8,-4 v 4 z"
     style="fill:#a5a5a5;stroke-width:4;fill-opacity:1"
     id="path10" />
  <path
     d="m 40,31.999595 -3.976562,6.25 c -0.277476,9.492645 2.383065,17.925257 5.578126,26.171877 5.555476,13.742004 20.56696,18.845596 29.625,27.296876 5.746836,5.491584 7.294908,10.333892 8.117188,15.171872 0.952504,5.60418 1.527216,11.67979 2.125,21.03125 1.998956,12.16936 3.088224,31.99799 4.585936,38.60937 C 87.426752,168.06506 96,167.9996 96,167.9996 c 0,0 8.57325,0.0655 9.94531,-1.46876 1.49771,-6.61138 2.58698,-26.44001 4.58594,-38.60937 0.59779,-9.35146 1.17249,-15.42707 2.125,-21.03125 0.82227,-4.83798 2.37035,-9.680288 8.11719,-15.171872 9.05804,-8.45128 24.06952,-13.554872 29.625,-27.296876 3.19506,-8.24662 5.8556,-16.679232 5.57812,-26.171877 L 152,31.999595 V 38.23397 L 126.02344,56.429284 96,55.999596 65.976564,56.429284 40,38.23397 Z"
     style="opacity:0.2;stroke-width:4;filter:url(#filter2940)"
     id="path12" />
  <path
     d="m 40,28 -3.976562,6.25 c -0.277476,9.492644 2.383065,17.925256 5.578126,26.171876 5.555476,13.742004 20.56696,18.845596 29.625,27.296876 5.746836,5.491584 7.294908,10.333888 8.117188,15.171868 0.952504,5.60418 1.527216,11.6798 2.125,21.03126 1.998956,12.16936 3.088224,31.99798 4.585936,38.60937 C 87.426752,164.06546 96,164 96,164 c 0,0 8.57325,0.0655 9.94531,-1.46875 1.49771,-6.61139 2.58698,-26.44001 4.58594,-38.60937 0.59779,-9.35146 1.17249,-15.42708 2.125,-21.03126 0.82227,-4.83798 2.37035,-9.680284 8.11719,-15.171868 9.05804,-8.45128 24.06952,-13.554872 29.625,-27.296876 3.19506,-8.24662 5.8556,-16.679232 5.57812,-26.171876 L 152,28 v 6.234375 L 126.02344,52.429688 96,52 65.976564,52.429688 40,34.234375 Z"
     style="fill:#cacaca;stroke-width:4;fill-opacity:1"
     id="path14" />
  <path
     id="path16"
     style="opacity:0.2;stroke-width:4;filter:url(#filter2949)"
     d="M 65.072266,63.421875 A 13.343469,13.343469 0 0 0 64,68.65625 13.343469,13.343469 0 0 0 77.34375,82 13.343469,13.343469 0 0 0 88,76.658203 Z m 61.855464,0 L 104,76.658203 A 13.343469,13.343469 0 0 0 114.65625,82 13.343469,13.343469 0 0 0 128,68.65625 13.343469,13.343469 0 0 0 126.92773,63.421875 Z" />
  <path
     d="M 65.071648,61.421824 A 13.343469,13.343469 0 0 0 64,66.656532 13.343469,13.343469 0 0 0 77.343468,80 13.343469,13.343469 0 0 0 88,74.65948 Z"
     style="fill:#f12a2a;stroke-width:4;fill-opacity:1"
     id="path18" />
  <path
     d="M 126.92835,61.421824 A 13.343469,13.343469 0 0 1 128,66.656532 13.343469,13.343469 0 0 1 114.65653,80 13.343469,13.343469 0 0 1 104,74.65948 Z"
     style="fill:#f12a2a;stroke-width:4;fill-opacity:1"
     id="path22" />
  <path
     d="m 108,107.91406 c -4.16582,1.67368 -7.72064,4.33378 -12,4 V 112 c -4.279356,0.33376 -7.834176,-2.32632 -12,-4 l 4.101564,43.63281 c 0.31252,3.26423 0.38276,3.7004 3.109372,4 C 92.992712,155.93217 94.360644,156.0458 96,156 v -0.0859 c 1.639356,0.0458 3.007288,-0.0678 4.78906,-0.3672 2.72663,-0.2996 2.79686,-0.72796 3.10938,-3.99219 z"
     style="opacity:0.4;stroke-width:4"
     id="path24" />
  <path
     d="m 92,141.91413 c -1.736368,1.43085 -3.25334,3.31483 -4.492188,5.40625 l 0.593752,6.3125 c 0.31252,3.26423 0.38276,3.7004 3.109372,4 0.57782,0.0971 1.071796,0.1442 1.58594,0.20312 h 5.72656 c 0.715908,-0.0616 1.440224,-0.1504 2.265624,-0.28908 2.72663,-0.2996 2.79686,-0.72796 3.10938,-3.99219 l 0.58594,-6.24219 C 103.2465,145.22479 101.73385,143.34291 100,141.91413 v 8 h -8 z"
     style="opacity:0.2;stroke-width:4;filter:url(#filter2953)"
     id="path26" />
  <path
     d="m 92,139.91406 c -1.736368,1.43086 -3.25334,3.31483 -4.492188,5.40625 l 0.593752,6.3125 c 0.31252,3.26423 0.38276,3.7004 3.109372,4 0.57782,0.0971 1.071796,0.1442 1.58594,0.20312 H 96 98.523436 c 0.715908,-0.0616 1.440224,-0.1504 2.265624,-0.28908 2.72663,-0.2996 2.79686,-0.72796 3.10938,-3.99219 l 0.58594,-6.24218 C 103.2465,143.22473 101.73385,141.34284 100,139.91406 v 8 h -4 -4 z"
     style="fill:#ffffff;stroke-width:4"
     id="path28" />
  <path
     d="m 108,109.9133 c -4.16582,1.67368 -7.72064,4.33377 -12,4 v 0.0859 c -4.273664,0.33332 -7.825712,-2.31812 -11.984376,-3.99219 0.464044,5.62132 3.502664,12.29903 7.984376,15.99219 v -8 h 8 v 8 c 4.50623,-3.71336 7.56186,-10.44559 8,-16.08594 z"
     style="opacity:0.2;stroke-width:4;filter:url(#filter2957)"
     id="path30" />
  <path
     d="m 108,107.91406 c -4.16582,1.67368 -7.72064,4.33378 -12,4 V 112 c -4.273664,0.33333 -7.825712,-2.31812 -11.984376,-3.99219 C 84.479668,113.62913 87.518288,120.30684 92,124 v -8 h 4 4 v 8 c 4.50623,-3.71336 7.56186,-10.44559 8,-16.08594 z"
     style="fill:#ffffff;stroke-width:4"
     id="path32" />
  <path
     id="path3041"
     style="fill:#ffffff;stroke-width:4;fill-opacity:1;opacity:0.2"
     d="M 40 28 L 36.023438 34.25 C 36.013696 34.583271 36.033853 34.905633 36.03125 35.236328 L 40 29 L 40 28 z M 152 28 L 152 29 L 155.96875 35.236328 C 155.96615 34.905633 155.9863 34.583271 155.97656 34.25 L 152 28 z M 40 34.234375 L 40 35.234375 L 65.976562 53.429688 L 96 53 L 126.02344 53.429688 L 152 35.234375 L 152 34.234375 L 126.02344 52.429688 L 96 52 L 65.976562 52.429688 L 40 34.234375 z " />
</svg>
