<?xml version="1.0" encoding="UTF-8" standalone="no"?>
<svg
   width="192"
   height="192"
   version="1.1"
   id="svg12"
   sodipodi:docname="games_drastic.svg"
   inkscape:version="1.1-rc (1:1.1+rc+202105232036+f4db50c7c1)"
   xmlns:inkscape="http://www.inkscape.org/namespaces/inkscape"
   xmlns:sodipodi="http://sodipodi.sourceforge.net/DTD/sodipodi-0.dtd"
   xmlns="http://www.w3.org/2000/svg"
   xmlns:svg="http://www.w3.org/2000/svg">
  <defs
     id="defs16">
    <filter
       inkscape:collect="always"
       style="color-interpolation-filters:sRGB"
       id="filter845"
       x="-0.048000001"
       y="-0.048000001"
       width="1.096"
       height="1.096">
      <feGaussianBlur
         inkscape:collect="always"
         stdDeviation="3.2"
         id="feGaussianBlur847" />
    </filter>
    <filter
       inkscape:collect="always"
       style="color-interpolation-filters:sRGB"
       id="filter3192"
       x="-0.048571316"
       y="-0.047441968"
       width="1.0971426"
       height="1.0948839">
      <feGaussianBlur
         inkscape:collect="always"
         stdDeviation="1.7000039"
         id="feGaussianBlur3194" />
    </filter>
  </defs>
  <sodipodi:namedview
     id="namedview14"
     pagecolor="#ffffff"
     bordercolor="#666666"
     borderopacity="1.0"
     inkscape:pageshadow="2"
     inkscape:pageopacity="0.0"
     inkscape:pagecheckerboard="0"
     showgrid="false"
     inkscape:zoom="1"
     inkscape:cx="173.5"
     inkscape:cy="88.5"
     inkscape:window-width="1920"
     inkscape:window-height="1019"
     inkscape:window-x="0"
     inkscape:window-y="34"
     inkscape:window-maximized="1"
     inkscape:current-layer="svg12"
     inkscape:snap-bbox="true"
     inkscape:snap-bbox-midpoints="true" />
  <circle
     style="opacity:0.2;stroke-width:4;filter:url(#filter845)"
     cx="96"
     cy="100"
     r="80"
     id="circle2" />
  <circle
     style="fill:#00bcd4;stroke-width:4;fill-opacity:1"
     cx="96"
     cy="96"
     r="80"
     id="circle4" />
  <path
     id="rect3147"
     style="opacity:0.2;fill:#000000;fill-opacity:1;stroke-width:3.95429;stroke-linecap:round;stroke-linejoin:round;stop-color:#000000;filter:url(#filter3192)"
     d="m 68,54 c -3.324,0 -6,2.676 -6,6 v 30 c 0,3.324 2.676,6 6,6 h 56 c 3.324,0 6,-2.676 6,-6 V 60 c 0,-3.324 -2.676,-6 -6,-6 z m -1.34375,46 c -3.340489,0 -5.323557,2.628 -6.029297,5.71484 L 54.09375,134.28516 C 53.388008,137.37201 56.782558,140 60.123047,140 H 96 131.87695 c 3.34049,0 6.73505,-2.62799 6.0293,-5.71484 l -6.5332,-28.57032 C 130.6673,102.628 128.68423,100 125.34375,100 H 96 Z" />
  <path
     id="path6"
     style="opacity:0.2;fill:#ffffff;stroke-width:4"
     d="M 96 15.998047 A 79.999996 79.99496 0 0 0 16 95.994141 A 79.999996 79.99496 0 0 0 16.023438 96.632812 A 79.999996 79.99496 0 0 1 96 17 A 79.999996 79.99496 0 0 1 175.98438 96.292969 A 79.999996 79.99496 0 0 0 176 95.994141 A 79.999996 79.99496 0 0 0 96 15.998047 z " />
  <rect
     style="fill:#e5e5e5;fill-opacity:1;stroke-width:3.95429;stroke-linecap:round;stroke-linejoin:round;stop-color:#000000"
     id="rect1321"
     width="68"
     height="42"
     x="62"
     y="52"
     rx="6"
     ry="6" />
  <rect
     style="fill:#546e7a;fill-opacity:1;stroke-width:2.3492;stroke-linecap:round;stroke-linejoin:round;stop-color:#000000"
     id="rect1923"
     width="42"
     height="24"
     x="75"
     y="61"
     rx="3.7058823"
     ry="3.4285715" />
  <path
     id="rect1925"
     style="fill:#ffffff;fill-opacity:1;stroke-width:3.86855;stroke-linecap:round;stroke-linejoin:round;stop-color:#000000"
     d="m 66.655938,98 c -3.340489,0 -5.324023,2.628 -6.029763,5.71484 l -6.532243,28.57032 C 53.38819,135.37201 56.783206,138 60.123695,138 H 96 131.87631 c 3.34049,0 6.73551,-2.62799 6.02976,-5.71484 l -6.53224,-28.57032 C 130.66808,100.628 128.68455,98 125.34407,98 H 96 Z" />
  <path
     id="rect1927"
     style="fill:#607d8b;fill-opacity:1;stroke-width:2.38003;stroke-linecap:round;stroke-linejoin:round;stop-color:#000000"
     d="m 76.606149,105 c -2.107314,0 -3.499665,1.55143 -3.802991,3.42773 l -2.772555,17.14454 C 69.727276,127.44857 71.728285,129 73.835598,129 H 95.999999 118.1644 c 2.10732,0 4.10833,-1.55143 3.805,-3.42773 l -2.77255,-17.14454 C 118.89352,106.55143 117.50117,105 115.39385,105 H 95.999999 Z" />
</svg>
