<?xml version="1.0" encoding="UTF-8" standalone="no"?>
<svg
   width="192"
   height="192"
   version="1"
   id="svg12"
   sodipodi:docname="games_portal.svg"
   inkscape:version="1.1-rc (1:1.1+rc+202105232036+f4db50c7c1)"
   xmlns:inkscape="http://www.inkscape.org/namespaces/inkscape"
   xmlns:sodipodi="http://sodipodi.sourceforge.net/DTD/sodipodi-0.dtd"
   xmlns="http://www.w3.org/2000/svg"
   xmlns:svg="http://www.w3.org/2000/svg">
  <defs
     id="defs16">
    <filter
       inkscape:collect="always"
       style="color-interpolation-filters:sRGB"
       id="filter1043"
       x="-0.048000001"
       y="-0.048000001"
       width="1.096"
       height="1.096">
      <feGaussianBlur
         inkscape:collect="always"
         stdDeviation="3.2"
         id="feGaussianBlur1045" />
    </filter>
    <filter
       inkscape:collect="always"
       style="color-interpolation-filters:sRGB"
       id="filter1047"
       x="-0.051317894"
       y="-0.053234046"
       width="1.1026358"
       height="1.1064681">
      <feGaussianBlur
         inkscape:collect="always"
         stdDeviation="3.4109039"
         id="feGaussianBlur1049" />
    </filter>
  </defs>
  <sodipodi:namedview
     id="namedview14"
     pagecolor="#ffffff"
     bordercolor="#666666"
     borderopacity="1.0"
     inkscape:pageshadow="2"
     inkscape:pageopacity="0.0"
     inkscape:pagecheckerboard="0"
     showgrid="false"
     inkscape:zoom="3.05"
     inkscape:cx="82.786885"
     inkscape:cy="63.770492"
     inkscape:window-width="1920"
     inkscape:window-height="1019"
     inkscape:window-x="0"
     inkscape:window-y="34"
     inkscape:window-maximized="1"
     inkscape:current-layer="svg12" />
  <circle
     fill="#56aad4"
     cx="96"
     cy="100"
     r="80"
     id="circle1005"
     style="opacity:0.2;fill:#000000;stroke-width:4;filter:url(#filter1043)" />
  <circle
     fill="#56aad4"
     cx="96"
     cy="96"
     r="80"
     id="circle2"
     style="stroke-width:4" />
  <path
     opacity="0.2"
     d="m 90.626134,19.223045 a 79.998,79.998 0 0 0 -1.343966,0.132797 c 0.451989,-0.0396 0.891978,-0.100798 1.343966,-0.132797 z m -6.539836,0.765581 a 79.998,79.998 0 0 0 -3.271918,0.562786 c 1.083973,-0.213595 2.175945,-0.39199 3.271918,-0.562786 z m -6.295843,1.234369 c -0.815979,0.192395 -1.643959,0.363591 -2.451938,0.578386 l 0.092,0.0936 a 79.998,79.998 0 0 1 2.359941,-0.671983 z m -2.359941,0.671983 A 79.998,79.998 0 0 0 66.854729,24.62131 L 101.71386,59.486838 A 39.999,39.999 0 0 0 96.002,59.02685 H 26.80773 a 79.998,79.998 0 0 0 -4.085098,7.9998 h 49.342766 a 39.999,39.999 0 0 0 -4.327891,3.735907 l -0.016,-0.016 -48.022799,48.014803 a 79.998,79.998 0 0 0 3.077523,8.23979 L 56.461788,93.313993 A 39.999,39.999 0 0 0 56.0018,99.02585 v 65.19437 a 79.998,79.998 0 0 0 7.9998,4.0839 v -45.34287 a 39.999,39.999 0 0 0 3.735907,4.32789 l -0.016,0.016 L 113.41636,173 a 79.998,79.998 0 0 0 8.81178,-2.49194 l -31.939197,-31.9432 a 39.999,39.999 0 0 0 5.711857,0.45999 h 66.74233 a 79.998,79.998 0 0 0 4.59989,-7.9998 H 119.9362 a 39.999,39.999 0 0 0 4.32789,-3.73591 l 0.016,0.016 48.84278,-48.834776 a 79.998,79.998 0 0 0 -2.75593,-8.559786 l -34.82713,34.827132 a 39.999,39.999 0 0 0 0.45999,-5.71186 V 29.83158 A 79.998,79.998 0 0 0 128,25.746482 v 49.342766 a 39.999,39.999 0 0 0 -3.73591,-4.327891 l 0.016,-0.016 -48.850776,-48.850779 z m 94.937626,48.0148 0.084,-0.088 c -0.27999,-0.715982 -0.61999,-1.395965 -0.91998,-2.099947 a 79.998,79.998 0 0 1 0.83598,2.187945 z m 2.75593,8.559786 a 79.998,79.998 0 0 1 0.69598,2.439939 c -0.19599,-0.847979 -0.37199,-1.703957 -0.59198,-2.539937 z M 66.854729,24.61891 l -0.056,-0.0544 c -0.339991,0.133196 -0.659983,0.307192 -0.999975,0.445188 a 79.998,79.998 0 0 1 1.055974,-0.39079 z m -6.655834,2.890728 a 79.998,79.998 0 0 0 -2.303942,1.257569 c 0.76798,-0.41679 1.519962,-0.865179 2.303942,-1.257569 z m -6.515837,3.671908 a 79.998,79.998 0 0 0 -2.435939,1.61716 c 0.80398,-0.545587 1.60796,-1.101173 2.435939,-1.61716 z m 86.013852,0.913977 c 0.57198,0.373991 1.17197,0.713182 1.73195,1.101573 a 79.998,79.998 0 0 0 -1.73195,-1.101573 z m -92.225697,3.405915 a 79.998,79.998 0 0 0 -2.247944,1.781556 c 0.735982,-0.607585 1.487963,-1.20037 2.247944,-1.781556 z m 99.765507,2.101548 c 0.59198,0.495587 1.13997,1.042774 1.71596,1.553961 a 79.998,79.998 0 0 0 -1.71596,-1.553961 z M 41.651359,40.424915 a 79.998,79.998 0 0 0 -1.968351,1.843954 c 0.636384,-0.635984 1.308367,-1.231969 1.968351,-1.843954 z m 111.061221,2.231944 c 0.66399,0.671983 1.29597,1.375966 1.93595,2.071948 a 79.998,79.998 0 0 0 -1.93595,-2.071948 z M 35.915502,46.296768 a 79.998,79.998 0 0 0 -1.296767,1.447964 c 0.415189,-0.499987 0.869578,-0.959976 1.296767,-1.447964 z M 157.72046,48.22072 c 0.63198,0.767981 1.24797,1.547961 1.85195,2.343942 A 79.998,79.998 0 0 0 157.72046,48.22072 Z M 30.175646,53.596586 a 79.998,79.998 0 0 0 -1.101573,1.731956 c 0.373991,-0.571985 0.713182,-1.17197 1.101573,-1.731956 z m 131.940704,0.527987 c 0.59998,0.883977 1.20797,1.763955 1.77595,2.671933 a 79.998,79.998 0 0 0 -1.77595,-2.671933 z m 3.9679,6.499837 c 0.48799,0.891978 1.00797,1.763956 1.46396,2.671933 A 79.998,79.998 0 0 0 166.08425,60.62441 Z M 19.61191,75.280044 a 79.998,79.998 0 0 0 -0.0856,0.291992 c 0.0292,-0.096 0.056,-0.195995 0.0856,-0.291992 z m -1.984351,7.719807 a 79.998,79.998 0 0 0 -0.07,0.407989 c 0.0264,-0.135996 0.0428,-0.271993 0.07,-0.407989 z M 174.47564,83.81983 c 0.22399,1.131972 0.40399,2.283943 0.57998,3.431914 A 79.998,79.998 0 0 0 174.47564,83.81983 Z M 16.423589,90.875654 a 79.998,79.998 0 0 0 -0.0468,0.583985 c 0.018,-0.191995 0.0268,-0.39199 0.0468,-0.583985 z m 159.188021,0.975975 c 0.164,1.743957 0.21999,3.519912 0.27599,5.295868 a 79.998,79.998 0 0 0 0.008,-0.052 79.998,79.998 0 0 0 -0.28399,-5.243869 z"
     id="path4"
     style="stroke-width:3.9999;filter:url(#filter1047)" />
  <path
     fill="#ffffff"
     d="m 90.626134,16.199295 a 79.998,79.998 0 0 0 -1.343966,0.132797 c 0.451989,-0.0396 0.891978,-0.100798 1.343966,-0.132797 z m -6.539836,0.765581 a 79.998,79.998 0 0 0 -3.271918,0.562786 c 1.083973,-0.213595 2.175945,-0.39199 3.271918,-0.562786 z m -6.295843,1.234369 a 79.998,79.998 0 0 0 -11.9917,3.789105 c 0.339992,-0.137996 0.659984,-0.311992 0.999975,-0.445188 l 34.91513,34.919926 A 39.999,39.999 0 0 0 96.002,56.0031 H 26.80773 a 79.998,79.998 0 0 0 -4.085098,7.9998 h 49.342766 a 39.999,39.999 0 0 0 -4.327891,3.735907 l -0.016,-0.016 -48.946776,48.934773 c -0.220395,-0.83598 -0.39439,-1.69195 -0.592386,-2.53993 a 79.998,79.998 0 0 0 4.289093,13.18767 c -0.299192,-0.70399 -0.642384,-1.38397 -0.921977,-2.09995 L 56.461788,90.290243 A 39.999,39.999 0 0 0 56.0018,96.0021 v 69.19427 a 79.998,79.998 0 0 0 7.9998,4.0839 V 119.9375 a 39.999,39.999 0 0 0 3.735907,4.32789 l -0.016,0.016 48.942773,48.94678 c -0.80798,0.21199 -1.63596,0.38399 -2.45194,0.57598 a 79.998,79.998 0 0 0 11.9917,-3.7879 c -0.33999,0.136 -0.65998,0.31199 -0.99997,0.44399 L 90.288943,135.54111 a 39.999,39.999 0 0 0 5.711857,0.45999 h 69.19427 a 79.998,79.998 0 0 0 4.0839,-7.9998 H 119.9362 a 39.999,39.999 0 0 0 4.32789,-3.73591 l 0.016,0.016 48.94678,-48.934774 c 0.21999,0.835979 0.39599,1.691958 0.59198,2.539937 a 79.998,79.998 0 0 0 -4.28789,-13.18767 c 0.29999,0.703982 0.63999,1.383965 0.91998,2.099947 l -34.91113,34.91513 A 39.999,39.999 0 0 0 135.9998,96.0021 V 26.80783 A 79.998,79.998 0 0 0 128,22.722732 v 49.342766 a 39.999,39.999 0 0 0 -3.73591,-4.327891 l 0.016,-0.016 -48.942773,-48.946776 c 0.807979,-0.213195 1.635959,-0.384391 2.451938,-0.576786 z m -17.59156,6.289043 a 79.998,79.998 0 0 0 -2.303942,1.257568 c 0.76798,-0.416789 1.519962,-0.865178 2.303942,-1.257568 z m -6.515837,3.671908 a 79.998,79.998 0 0 0 -2.435939,1.61716 c 0.80398,-0.545587 1.60796,-1.101173 2.435939,-1.61716 z m 86.013852,0.913977 c 0.57198,0.373991 1.17197,0.713182 1.73195,1.101573 a 79.998,79.998 0 0 0 -1.73195,-1.101573 z m -92.225697,3.405915 a 79.998,79.998 0 0 0 -2.247944,1.781556 c 0.735982,-0.607585 1.487963,-1.20037 2.247944,-1.781556 z m 99.765507,2.101548 c 0.59198,0.495587 1.13997,1.042773 1.71596,1.554761 a 79.998,79.998 0 0 0 -1.71596,-1.554761 z M 41.651359,37.401965 a 79.998,79.998 0 0 0 -1.968351,1.843554 c 0.636384,-0.633184 1.308367,-1.231969 1.968351,-1.843554 z m 111.061221,2.234344 c 0.66399,0.671183 1.29597,1.375166 1.93595,2.071148 a 79.998,79.998 0 0 0 -1.93595,-2.071148 z M 35.915502,43.275418 a 79.998,79.998 0 0 0 -1.296767,1.447964 c 0.415189,-0.499988 0.869578,-0.959976 1.296767,-1.447964 z M 157.72046,45.19937 c 0.63198,0.767981 1.24797,1.547961 1.85195,2.343941 A 79.998,79.998 0 0 0 157.72046,45.19937 Z M 30.175646,50.575236 a 79.998,79.998 0 0 0 -1.101573,1.731956 c 0.373991,-0.571985 0.713182,-1.17197 1.101573,-1.731956 z m 131.940704,0.527986 c 0.59998,0.883978 1.20797,1.763956 1.77595,2.671934 a 79.998,79.998 0 0 0 -1.77595,-2.671934 z m 3.9679,6.499838 c 0.48799,0.891978 1.00797,1.763956 1.46396,2.671933 A 79.998,79.998 0 0 0 166.08425,57.60306 Z M 19.61191,72.258694 a 79.998,79.998 0 0 0 -0.0856,0.291992 c 0.0292,-0.096 0.056,-0.195995 0.0856,-0.291992 z m -1.984351,7.719807 a 79.998,79.998 0 0 0 -0.07,0.407989 c 0.0264,-0.135996 0.0428,-0.271993 0.07,-0.407989 z M 174.47564,80.79848 c 0.22399,1.131972 0.40399,2.283943 0.57998,3.431914 A 79.998,79.998 0 0 0 174.47564,80.79848 Z M 16.423589,87.854304 a 79.998,79.998 0 0 0 -0.0468,0.583985 c 0.018,-0.191995 0.0272,-0.39199 0.0468,-0.583985 z m 159.188021,0.975975 c 0.22399,2.363941 0.37599,4.747882 0.37599,7.171821 0,0.107997 -0.008,0.211995 -0.008,0.319992 a 79.998,79.998 0 0 0 0.016,-0.319992 79.998,79.998 0 0 0 -0.38399,-7.171821 z M 16.0156,95.682108 A 79.998,79.998 0 0 0 16,96.0021 a 79.998,79.998 0 0 0 0.38279,7.17182 C 16.160396,100.80998 16.008,98.426039 16.008,96.0021 c 0,-0.107997 0.0072,-0.211995 0.0076,-0.319992 z m 159.60401,7.883802 c -0.016,0.192 -0.028,0.39199 -0.044,0.58399 a 79.998,79.998 0 0 0 0.044,-0.58399 z m -158.676034,4.2079 a 79.998,79.998 0 0 0 0.578386,3.43191 c -0.222794,-1.13197 -0.40239,-2.28394 -0.578386,-3.43191 z m 157.496064,3.8439 c -0.024,0.136 -0.04,0.27199 -0.068,0.40799 a 79.998,79.998 0 0 0 0.068,-0.40799 z m -1.96795,7.8358 c -0.028,0.096 -0.056,0.196 -0.084,0.292 a 79.998,79.998 0 0 0 0.084,-0.292 z m -148.020301,12.2757 a 79.998,79.998 0 0 0 1.460763,2.67193 c -0.487188,-0.89198 -1.006775,-1.76396 -1.460763,-2.67193 z m 3.655908,6.49983 a 79.998,79.998 0 0 0 1.773556,2.67194 c -0.599585,-0.88398 -1.20877,-1.76396 -1.773556,-2.67194 z m 134.816633,1.46797 c -0.37199,0.57198 -0.71199,1.17197 -1.09998,1.73195 a 79.998,79.998 0 0 0 1.09998,-1.73195 z m -130.496741,4.76388 a 79.998,79.998 0 0 0 1.851554,2.34394 c -0.632784,-0.76798 -1.247169,-1.54796 -1.851554,-2.34394 z m 124.952881,2.81993 c -0.41599,0.49999 -0.87198,0.95997 -1.29997,1.44796 a 79.998,79.998 0 0 0 1.29997,-1.44796 z m -120.029004,3.01592 a 79.998,79.998 0 0 0 1.937552,2.07195 c -0.665984,-0.67198 -1.295968,-1.37596 -1.937552,-2.07195 z m 114.965124,2.45994 c -0.63598,0.63599 -1.30797,1.23197 -1.96795,1.84395 a 79.998,79.998 0 0 0 1.96795,-1.84395 z M 43.046924,155.8686 a 79.998,79.998 0 0 0 1.715957,1.55196 c -0.591985,-0.49198 -1.139972,-1.03997 -1.715957,-1.55196 z m 103.729406,1.87596 c -0.73598,0.60398 -1.48796,1.19997 -2.24794,1.77995 a 79.998,79.998 0 0 0 2.24794,-1.77995 z m -96.205594,4.08389 a 79.998,79.998 0 0 0 1.731956,1.09998 c -0.571985,-0.37199 -1.17197,-0.71199 -1.731956,-1.09998 z m 90.237744,0.36 c -0.84798,0.57598 -1.69596,1.15197 -2.56794,1.69595 a 79.998,79.998 0 0 0 2.56794,-1.69595 z m -6.56384,3.9839 c -0.81598,0.44398 -1.61596,0.92397 -2.45193,1.34396 a 79.998,79.998 0 0 0 2.45193,-1.34396 z m -23.05142,8.30379 c -1.12397,0.21999 -2.25994,0.40399 -3.39991,0.57998 a 79.998,79.998 0 0 0 3.39991,-0.57998 z m -8.35179,1.17997 c -0.49199,0.044 -0.97598,0.112 -1.46796,0.14799 a 79.998,79.998 0 0 0 1.46796,-0.14799 z"
     id="path6"
     style="stroke-width:3.9999" />
  <path
     id="circle1051"
     style="stroke-width:4;fill:#ffffff;opacity:0.2"
     d="M 96 16 A 80 80 0 0 0 16 96 A 80 80 0 0 0 16.035156 96.5 A 80 80 0 0 1 96 17 A 80 80 0 0 1 175.98242 96.253906 A 80 80 0 0 0 176 96 A 80 80 0 0 0 96 16 z " />
</svg>
