<?xml version="1.0" encoding="UTF-8" standalone="no"?>
<svg
   width="192"
   height="192"
   version="1.1"
   id="svg50"
   sodipodi:docname="games_tibia.svg"
   inkscape:version="1.1-rc (1:1.1+rc+202105232036+f4db50c7c1)"
   xmlns:inkscape="http://www.inkscape.org/namespaces/inkscape"
   xmlns:sodipodi="http://sodipodi.sourceforge.net/DTD/sodipodi-0.dtd"
   xmlns="http://www.w3.org/2000/svg"
   xmlns:svg="http://www.w3.org/2000/svg">
  <defs
     id="defs54">
    <filter
       inkscape:collect="always"
       style="color-interpolation-filters:sRGB"
       id="filter921"
       x="-0.040695574"
       y="-0.058500157"
       width="1.0813911"
       height="1.1170003">
      <feGaussianBlur
         inkscape:collect="always"
         stdDeviation="1.5599847"
         id="feGaussianBlur923" />
    </filter>
    <filter
       inkscape:collect="always"
       style="color-interpolation-filters:sRGB"
       id="filter925"
       x="-0.038590231"
       y="-0.063478465"
       width="1.0771805"
       height="1.1269569">
      <feGaussianBlur
         inkscape:collect="always"
         stdDeviation="2.1650034"
         id="feGaussianBlur927" />
    </filter>
    <filter
       inkscape:collect="always"
       style="color-interpolation-filters:sRGB"
       id="filter929"
       x="-0.02956168"
       y="-0.12756581"
       width="1.0591234"
       height="1.2551316">
      <feGaussianBlur
         inkscape:collect="always"
         stdDeviation="1.5863012"
         id="feGaussianBlur931" />
    </filter>
    <filter
       inkscape:collect="always"
       style="color-interpolation-filters:sRGB"
       id="filter1032"
       x="-0.031560082"
       y="-0.098451246"
       width="1.0631202"
       height="1.1969025">
      <feGaussianBlur
         inkscape:collect="always"
         stdDeviation="1.6922002"
         id="feGaussianBlur1034" />
    </filter>
    <filter
       inkscape:collect="always"
       style="color-interpolation-filters:sRGB"
       id="filter1036"
       x="-0.032401441"
       y="-0.092559656"
       width="1.0648029"
       height="1.1851193">
      <feGaussianBlur
         inkscape:collect="always"
         stdDeviation="1.8231334"
         id="feGaussianBlur1038" />
    </filter>
    <filter
       inkscape:collect="always"
       style="color-interpolation-filters:sRGB"
       id="filter1058"
       x="-0.048177738"
       y="-0.047823576"
       width="1.0963555"
       height="1.0956472">
      <feGaussianBlur
         inkscape:collect="always"
         stdDeviation="1.0218298"
         id="feGaussianBlur1060" />
    </filter>
    <filter
       inkscape:collect="always"
       style="color-interpolation-filters:sRGB"
       id="filter1062"
       x="-0.03973754"
       y="-0.060600385"
       width="1.0794751"
       height="1.1212008">
      <feGaussianBlur
         inkscape:collect="always"
         stdDeviation="1.136172"
         id="feGaussianBlur1064" />
    </filter>
  </defs>
  <sodipodi:namedview
     id="namedview52"
     pagecolor="#ffffff"
     bordercolor="#666666"
     borderopacity="1.0"
     inkscape:pageshadow="2"
     inkscape:pageopacity="0.0"
     inkscape:pagecheckerboard="0"
     showgrid="false"
     inkscape:zoom="1"
     inkscape:cx="82.5"
     inkscape:cy="84.5"
     inkscape:window-width="1920"
     inkscape:window-height="1019"
     inkscape:window-x="0"
     inkscape:window-y="34"
     inkscape:window-maximized="1"
     inkscape:current-layer="svg50" />
  <path
     style="opacity:0.2;stroke-width:3.99995;filter:url(#filter929)"
     d="m 164.21846,78.376512 c -0.1182,-4.56e-4 -0.23304,0.0332 -0.34375,0.109358 -5.18534,13.34115 -11.02068,15.383345 -15.64043,18.273208 0,0 -1.32661,4.495872 2.68746,7.781152 2.415,1.97654 4.16401,-2.92965 4.16401,-2.92965 0,0 0.29308,5.49514 6.58586,4.48432 1.91462,-0.30755 3.21263,-1.7228 4.04682,-3.77339 0.27,-0.6637 -1.74442,-5.391914 0.67187,-2.17185 0.77142,1.02804 1.5699,-3.742313 1.64842,-5.187435 0.44844,-8.253849 -2.0473,-16.578913 -3.82027,-16.585729 z M 56.446366,93.720072 c -0.281957,0.04408 -0.549413,0.259277 -0.789054,0.687488 l -16.351357,5.89056 c 3.58706,3.08439 7.87969,9.75761 12.538908,7.44521 2.515505,-1.24846 2.524917,-2.95216 1.79685,-4.4765 1.295376,1.17649 2.742461,2.00994 3.80464,1.14061 3.51232,-2.87463 0.9737,-10.995904 -0.999987,-10.687368 z"
     id="path2" />
  <path
     style="opacity:0.2;stroke-width:3.99995;filter:url(#filter921)"
     d="m 151.99986,115.00083 -23.57002,22.12472 14.1717,18.44508 0.53124,-0.008 -0.71873,0.42969 v 13.14827 c -0.20883,9.04998 8.37489,9.85944 8.37489,9.85944 l 17.96071,-0.82811 c 6.27992,-3.01573 6.0686,-5.38471 7.0546,-7.87491 -0.21935,-2.2517 -0.0612,-6.56037 0.0703,-11.31235 0.032,-1.15444 -1.60911,-2.12781 -1.58591,-3.31246 0.005,-0.25028 0.11207,-0.50838 0.23435,-0.77343 1.16626,-0.21196 1.36381,-0.71351 1.1328,-1.92966 0.19452,-0.35636 0.34296,-0.70122 0.34376,-1.03124 0.0188,-7.91849 -0.56347,-14.95807 -3.53902,-13.9842 h -0.008 c -2.73802,-10.08142 -7.7224,-19.57969 -20.45269,-22.95284 z m -23.57002,22.12472 -44.42913,-2.12497 9.812378,10.86705 2.04685,5.27337 5.867112,3.85933 v 12.27328 c -0.20882,9.0498 9.61707,11.72642 9.61707,11.72642 h 18.38258 c 6.27993,-3.01572 6.0686,-5.3847 7.0546,-7.8749 -0.69248,-6.98165 3.05842,-16.72253 -2.09372,-20.93724 z"
     id="path4" />
  <path
     style="fill:#613dc6;stroke-width:3.99995"
     d="m 142.41747,152.98879 30.04382,-18.03499 c 2.97556,-0.97386 3.55657,6.06186 3.53784,13.98035 -0.003,1.16641 -1.68911,2.55927 -1.71216,3.74121 -0.0232,1.18465 1.61706,2.15836 1.58511,3.31279 -0.13151,4.75198 -0.28899,9.05365 -0.0696,11.30535 -0.98599,2.4902 -0.77561,4.86163 -7.05553,7.87735 l -17.95877,0.8292 c 0,0 -8.57951,-0.81012 -8.37069,-9.85992 z"
     id="path6" />
  <path
     style="fill:#613dc6;stroke-width:3.99995"
     d="m 101.72367,151.1231 32.96735,-3.93867 c 5.15215,4.21471 1.39574,13.95662 2.08823,20.93827 -0.98601,2.4902 -0.77562,4.86163 -7.05554,7.87735 H 111.3473 c 0,0 -9.83245,-2.67581 -9.62363,-11.7256 z"
     id="path8" />
  <path
     style="fill:#203455;stroke-width:3.99995"
     d="m 84.00071,132.0006 44.42562,2.12291 6.26469,13.06092 c -4.75612,6.54847 -21.74906,3.69553 -32.96735,4.81592 l -5.864768,-3.85739 -2.042226,-5.27681 z"
     id="path10" />
  <path
     style="fill:#203455;stroke-width:3.99995"
     d="m 128.42633,134.12351 23.57353,-22.12266 c 18.12314,4.8021 20.66003,21.98872 23.15876,35.6532 0.77964,3.81316 1.50618,4.33493 -2.597,4.40505 l -29.96164,0.5151 z"
     id="path12" />
  <path
     style="opacity:0.2;stroke-width:3.99995;filter:url(#filter925)"
     d="M 96.312392,58.613838 58.933199,85.147723 c 0.403767,0.928609 0.500613,2.026491 0.443214,3.212824 l -30.144015,0.574029 10.075886,13.253784 c 7.507618,-0.50589 13.454336,-2.69506 17.984915,-7.338386 l 1.276284,-1.210757 c -0.516049,2.689383 -0.942824,5.372489 -0.116518,7.451543 2.40737,6.05714 10.661467,9.35209 13.068837,15.12686 1.250708,3.00018 2.501916,5.8863 3.752621,8.57906 2.047498,4.40824 4.095425,7.49958 6.142923,10.52521 1.097227,1.61698 2.003923,2.48894 4.235043,2.56421 8.402004,1.42188 16.211871,2.3801 23.767581,2.55392 10.16852,0.23396 19.87673,-0.95279 29.94846,-4.34194 16.3941,-5.51664 16.25125,-24.99328 8.94052,-31.4637 l -5.32619,-4.714377 c 0.53701,0.133117 1.08253,0.227357 1.63891,0.264837 11.42419,-2.956839 14.92143,-12.048966 19.25641,-19.697455 -5.49145,-3.36697 -10.98263,-13.541027 -16.47407,-20.590383 l -16.51327,22.145988 -4.03031,3.248496 c 0.52038,0.533333 1.05895,1.139677 1.61169,1.785861 z"
     id="path14" />
  <path
     style="fill:#ffb474;stroke-width:3.99995"
     d="m 163.87808,76.487003 c -5.18533,13.34115 -11.02418,15.384104 -15.64393,18.273968 0,0 -1.32706,4.494656 2.68702,7.779939 2.415,1.97654 4.16704,-2.932307 4.16704,-2.932307 0,0 0.28828,5.499117 6.58104,4.488297 1.91463,-0.30755 3.21587,-1.72186 4.05006,-3.77245 0.27,-0.663704 -1.74811,-5.395169 0.66818,-2.175105 0.77143,1.028039 1.57404,-3.742661 1.65255,-5.187783 0.47834,-8.804106 -2.39065,-17.690235 -4.16196,-16.474559 z"
     id="path16" />
  <path
     style="fill:#ffb474;stroke-width:3.99995"
     d="m 39.308284,98.298675 16.346052,-5.89355 c 1.91712,-3.425638 5.805423,6.717496 1.791345,10.002785 -2.415002,1.97654 -6.854066,-4.710583 -6.854066,-4.710583 0,0 6.957837,5.215043 1.256104,8.044843 -4.659218,2.3124 -8.952376,-4.3591 -12.539435,-7.443495 z"
     id="path18" />
  <path
     style="fill:#f74219;stroke-width:3.99995"
     d="M 96.312392,54.613456 58.933199,81.147341 c 0.403767,0.928609 0.500613,2.026491 0.443214,3.212824 l -30.144015,0.574029 10.075886,13.253787 c 7.507618,-0.505898 13.454336,-2.695063 17.984915,-7.338389 l 1.276284,-1.210757 c -0.516049,2.689383 -0.942824,5.372489 -0.116518,7.451543 2.40737,6.057132 10.661467,9.352092 13.068837,15.126862 1.250708,3.00018 2.501916,5.8863 3.752621,8.57905 2.047498,4.40825 4.095425,7.49959 6.142923,10.52522 1.097227,1.61698 2.003923,2.48893 4.235043,2.56421 8.402004,1.42188 16.211871,2.38009 23.767581,2.55392 10.16852,0.23396 19.87673,-0.9528 29.94846,-4.34195 16.3941,-5.51664 16.25125,-24.99327 8.94052,-31.4637 l -5.32619,-4.714369 c 0.53701,0.133118 1.08253,0.227357 1.63891,0.264837 11.42419,-2.95684 14.92143,-12.048966 19.25641,-19.697455 -5.49145,-3.36697 -10.98263,-13.541027 -16.47407,-20.590383 l -16.51327,22.145988 -4.03031,3.248495 c 0.52038,0.533334 1.05895,1.139678 1.61169,1.785862 z"
     id="path20" />
  <path
     style="opacity:0.2;stroke-width:3.99995;filter:url(#filter1032)"
     d="m 163.88253,77.197329 a 1.2825094,1.2731486 0 0 0 -1.17968,0.77343 c -4.80441,10.814913 -11.17205,16.263689 -18.53101,19.023199 a 1.2828399,1.2734767 0 0 0 0.90623,2.382777 c 7.9595,-2.984694 14.95805,-9.078422 19.97632,-20.374741 a 1.2825094,1.2731486 0 0 0 -1.17186,-1.804665 z M 60.610378,83.322252 a 1.003703,0.99637721 0 0 0 -0.898429,1.085923 c 0,0 0.340236,4.403197 3.312459,8.828017 2.972223,4.424821 8.672971,8.891988 18.92164,9.101448 8.873629,0.18136 14.346229,-3.946995 17.445094,-8.085836 3.098858,-4.138833 3.953078,-8.335832 3.953078,-8.335832 a 1.0046133,0.99728082 0 1 0 -1.96873,-0.398435 c 0,0 -0.77543,3.782713 -3.593704,7.546782 -2.818261,3.764069 -7.546762,7.449611 -15.788863,7.281161 C 72.3044,100.14749 67.370137,96.115305 64.696263,92.134642 62.02238,88.153976 61.711924,84.251929 61.711924,84.251929 a 1.003703,0.99637721 0 0 0 -0.999987,-0.929677 1.003703,0.99637721 0 0 0 -0.101559,0 z m 71.913162,5.609306 a 3.317796,3.29358 0 0 0 -3.11715,4.054638 c 0,0 0.63129,2.923667 0.17968,6.288979 -0.4516,3.365315 -1.68345,6.601345 -5.70305,8.421775 -10.67839,4.83614 -35.683022,4.69319 -49.765007,2.2656 a 3.3186133,3.2943914 0 1 0 -1.132798,6.49211 c 15.172735,2.61562 39.764185,3.52568 53.655575,-2.76559 6.43904,-2.91618 8.89748,-8.8829 9.52333,-13.54671 0.62584,-4.663816 -0.28124,-8.585835 -0.28124,-8.585835 a 3.317796,3.29358 0 0 0 -3.35934,-2.624967 z M 57.680726,89.55655 a 1.2825094,1.2731486 0 0 0 -0.789054,0.296877 c -3.035386,2.474877 -5.707237,5.574682 -8.554581,7.328032 -2.847349,1.753346 -5.639294,2.375116 -9.874875,-0.0156 a 1.2826396,1.2732779 0 1 0 -1.26561,2.210906 c 4.894543,2.762695 9.136282,2.034985 12.492032,-0.0312 3.355758,-2.066419 6.054168,-5.261711 8.828014,-7.523343 a 1.2825094,1.2731486 0 0 0 -0.835926,-2.265596 z"
     id="path22" />
  <path
     style="opacity:0.2;stroke-width:3.99995;filter:url(#filter1036)"
     d="m 55.188569,40.813303 c -5.972473,-0.151278 -9.173965,1.656768 -8.984264,5.874927 0,0 -11.927052,-0.466338 -18.163835,0.671868 -4.999423,1.999275 -12.601556,9.358103 -12.007662,15.085748 0.478467,7.697008 7.833847,24.406447 14.132636,24.546569 l 24.390321,0.54687 C 57.999242,87.8672 61.671469,85.495386 63.196282,82.961214 50.117525,70.565652 53.028376,58.09234 59.227583,42.961713 58.197104,41.104676 57.09573,40.864647 55.188569,40.813303 Z m 49.936881,0.414059 c -1.90716,0.05132 -3.00854,0.291357 -4.03902,2.148409 -10.255849,14.064997 -7.267519,28.129782 1.17968,42.194786 1.52481,2.53416 1.65802,2.710698 5.1015,2.382782 l 24.39813,-0.546869 c 6.29879,-0.140118 13.65416,-16.849558 14.13263,-24.546566 0.17628,-2.835616 3.26493,-2.130869 3.92183,-2.632779 1.61908,-1.23706 1.59636,-3.900767 0.1172,-7.437407 0,0 -9.75829,-5.676721 -15.21075,-6.671793 -6.23678,-1.138206 -20.61693,0.984364 -20.61693,0.984364 0.18972,-4.218163 -3.01179,-6.026193 -8.98426,-5.874927 z"
     id="path24" />
  <path
     style="fill:#737373;stroke-width:3.99995"
     d="m 55.188053,38.81148 c -5.972473,-0.15127 -9.173585,1.662561 -8.983884,5.88072 0,0 -11.925611,-0.470898 -18.162394,0.667308 -4.999423,1.999275 -12.601301,9.361867 -12.007407,15.089511 0.478467,7.697008 7.828714,24.405676 14.127503,24.545798 l 24.396378,0.542721 c 3.443477,0.327916 7.11028,-2.044206 8.635093,-4.578378 C 50.114585,68.563598 53.029724,56.094002 59.228931,40.963375 58.198452,39.106334 57.095214,38.862821 55.188053,38.81148 Z"
     id="path26" />
  <path
     id="path1226"
     style="fill:#ffffff;stroke-width:3.99995;opacity:0.2"
     d="M 54.101562 38.806641 C 48.829406 38.896719 46.027233 40.736882 46.205078 44.691406 C 46.205078 44.691406 34.277799 44.221169 28.041016 45.359375 C 23.09237 47.338344 15.599266 54.571808 16.023438 60.273438 C 16.451577 54.755233 23.377598 48.224281 28.041016 46.359375 C 34.277799 45.221169 46.205078 45.691406 46.205078 45.691406 C 46.015377 41.473247 49.215027 39.659277 55.1875 39.810547 C 56.945865 39.857882 58.019723 40.086216 58.984375 41.574219 C 59.067516 41.369225 59.144126 41.168865 59.228516 40.962891 C 58.198037 39.10585 57.094661 38.861888 55.1875 38.810547 C 54.81422 38.801093 54.45304 38.800635 54.101562 38.806641 z M 53.984375 62.021484 C 53.881139 68.79362 56.243963 75.190811 62.785156 81.558594 C 62.932422 81.360275 63.072027 81.160633 63.193359 80.958984 C 56.665702 74.772312 54.123927 68.56668 53.984375 62.021484 z " />
  <path
     style="fill:#ffc900;stroke-width:3.99995"
     d="m 60.610378,81.321543 a 1.003703,0.99637721 0 0 0 -0.898429,1.085922 c 0,0 0.340236,4.403198 3.312459,8.828018 2.972223,4.424821 8.672971,8.891987 18.92164,9.101447 8.873629,0.18136 14.346229,-3.946999 17.445094,-8.085835 3.098858,-4.138833 3.953078,-8.335832 3.953078,-8.335832 a 1.0046133,0.99728082 0 1 0 -1.96873,-0.398435 c 0,0 -0.77544,3.782712 -3.593704,7.546781 -2.818261,3.76407 -7.546762,7.449612 -15.788863,7.281162 C 72.3044,98.146773 67.370137,94.114595 64.696263,90.133933 62.02238,86.153267 61.711924,82.251219 61.711924,82.251219 a 1.003703,0.99637721 0 0 0 -0.999987,-0.929676 1.003703,0.99637721 0 0 0 -0.101559,0 z"
     id="path28" />
  <path
     style="opacity:0.2;stroke-width:3.99995;filter:url(#filter1058)"
     d="m 45.967968,60.044893 49.464359,-22.38826 c -0.207677,8.75103 4.169984,22.66834 -3.132345,23.42585 1.719919,2.58756 -0.967643,25.95486 -11.747477,27.13099 0,0 -6.774168,1.27425 -10.569908,0.43974 -7.141883,-1.57019 -13.206375,-8.43944 -16.836234,-15.59067 -1.108738,-2.18435 -1.986459,-0.43994 -3.802353,-2.15318 -4.28507,-4.0428 -3.928855,-9.12904 -3.376042,-10.86447 z"
     id="path30" />
  <path
     style="fill:#ffb474;stroke-width:3.99995"
     d="M 45.967968,58.044889 95.432327,35.656628 c -0.207677,8.751032 4.169984,22.66835 -3.132345,23.425852 1.719919,2.587564 -0.967643,25.954861 -11.747477,27.130994 0,0 -6.774168,1.274252 -10.569908,0.439735 C 62.840714,85.083024 56.776222,78.21377 53.146363,71.062539 52.037625,68.878194 51.159904,70.622601 49.34401,68.909362 45.05894,64.86656 45.415155,59.780328 45.967968,58.044889 Z"
     id="path32" />
  <path
     style="opacity:0.3;stroke-width:3.99995"
     d="m 89.779606,47.719722 a 1.0217014,3.1876243 0 0 0 -1.021459,3.186876 1.0217014,3.1876243 0 0 0 1.021459,3.187961 1.0217014,3.1876243 0 0 0 1.022555,-3.187961 1.0217014,3.1876243 0 0 0 -1.022555,-3.186876 z m -12.387134,5.459204 c -2.628695,0 -3.566935,0.262077 -3.311582,0.923201 0.228837,0.592484 1.732978,0.887469 4.205639,0.824821 3.994402,-0.101198 4.64699,0.238157 6.834427,3.558756 0.719359,1.092006 2.034995,2.088286 2.923908,2.213948 1.510389,0.213518 1.630467,0.682996 1.831665,7.170475 0.247437,7.978 -0.354996,9.728778 -5.099693,14.828495 l -2.413174,2.594471 c -2.075578,0.221198 -6.490219,0.718632 -7.096875,0.717804 -5.280866,-0.0072 -6.999269,-0.314117 -9.679927,-1.726403 -3.764669,-1.983407 -6.107636,-4.148672 -8.237034,-7.615861 -2.026202,-3.299151 -1.940727,-3.564155 1.149962,-3.564155 1.81033,0 2.558632,-0.295237 2.335855,-0.922121 -0.180318,-0.507362 -0.961,-0.843241 -1.734742,-0.746991 -1.998295,0.248597 -4.751213,-0.45561 -4.751213,-1.215076 0,-0.353556 1.254504,-0.482658 2.787785,-0.286477 2.044975,0.261677 2.574472,0.137038 1.987387,-0.469166 -0.440186,-0.454526 -2.601423,-1.038467 -4.802396,-1.297236 -2.733562,-0.321396 -4.540951,-1.006351 -5.704073,-2.160981 -2.777793,-2.757518 -2.19418,-4.195408 2.943512,-7.251549 5.202511,-3.094698 6.029612,-3.21324 11.437541,-1.644244 5.209771,1.511497 12.16498,2.327351 12.16498,1.426954 0,-0.393795 -2.280399,-0.906316 -5.068101,-1.138322 -2.787709,-0.231997 -6.950853,-1.051802 -9.250876,-1.822617 l -4.18168,-1.402094 -3.102497,2.06909 c -1.706643,1.137826 -4.234903,2.475249 -5.618046,2.971751 -1.340027,0.481026 -1.994163,0.881785 -2.292296,1.578304 0.036,1.415642 0.349316,3.131177 1.235989,4.865719 0.399035,0.364676 0.712319,0.861538 0.963748,1.555605 0.421919,0.576633 0.910937,1.144826 1.492989,1.693971 1.815894,1.713235 2.693975,-0.0308 3.802717,2.153413 3.629859,7.151231 9.562277,14.827363 16.836694,15.590622 6.879962,0.721867 15.511614,-1.228677 13.505515,-1.388047 8.325768,-4.610295 10.362363,-23.848467 8.810922,-26.18255 0,0 0.69498,-0.694363 -3.283267,-0.09188 0,0 -3.895279,-0.504842 -2.416441,-1.383719 -0.252677,0 -1.602,-0.99628 -2.999051,-2.213953 -2.08819,-1.820077 -3.192956,-2.213948 -6.208271,-2.213948 z m 1.001864,13.374505 c -4.737069,-0.06376 -11.454761,3.395698 -8.247925,4.54898 0.511093,0.183797 1.459626,-0.122239 2.107178,-0.679972 0.647551,-0.557709 2.988566,-1.580944 5.203139,-2.273404 3.615211,-1.130426 3.8056,-1.287224 1.855616,-1.533985 -0.294676,-0.0372 -0.6022,-0.05736 -0.918008,-0.06164 z m 1.021463,2.911216 c -2.070774,-0.05 -7.224286,1.730838 -7.224286,2.496101 0,0.223637 1.337408,0.406467 2.972911,0.406467 1.6355,0 2.973999,-0.282037 2.973999,-0.625916 0,-0.343876 0.752703,-0.985436 1.672671,-1.425879 1.637752,-0.784098 1.62978,-0.801866 -0.395315,-0.850773 z m -6.604653,9.76819 c -0.362596,0.0104 -0.935749,0.08232 -1.734747,0.215117 -1.635495,0.271837 -3.113993,0.616269 -3.284359,0.765371 -0.746075,0.652952 4.139217,0.173358 5.142156,-0.504842 0.499374,-0.337676 0.481258,-0.493054 -0.123038,-0.475654 z m -0.248293,2.173953 c -2.263724,0 -4.297051,0.291316 -4.518168,0.646456 -0.221117,0.355155 1.812217,0.645376 4.518168,0.645376 2.705954,0 4.739285,-0.290237 4.518175,-0.645376 C 76.859911,81.69809 74.82658,81.40679 72.562853,81.40679 Z m 0.371355,2.030175 c -0.76949,0 -1.605092,0.331356 -1.857797,0.737262 -0.268756,0.431719 0.501786,0.738343 1.857797,0.738343 1.356015,0 2.127665,-0.306636 1.858885,-0.738343 -0.252717,-0.40589 -1.089399,-0.737262 -1.858885,-0.737262 z"
     id="path34" />
  <path
     style="opacity:0.2;stroke-width:3.99995;filter:url(#filter1062)"
     d="m 63.828986,18.490845 c 2.106053,0.107647 5.349141,2.963107 7.229237,3.173936 1.307088,0.146574 3.60118,-3.836952 4.796453,-3.658591 1.451197,0.216545 1.986463,3.980632 3.280687,4.244175 16.712979,3.403307 21.323017,14.463111 21.002137,22.774714 l -5.011745,14.719308 c 0,0 -3.53924,1.93324 -2.489113,-0.421458 1.213421,-2.720855 4.35195,-12.011787 -3.190432,-14.596302 -6.267594,-2.147698 -3.20722,14.929213 -2.754454,15.228854 -2.816444,-3.212384 -5.481087,-6.662877 -14.164547,-7.227898 1.396155,2.467525 -0.05388,4.702153 5.817896,5.688701 -2.9162,3.791457 -15.348209,2.128381 -21.681202,-2.243268 -8.038996,7.428787 -16.541938,7.488606 -25.131558,6.171751 l 9.422846,-10.716039 -7.614342,1.067503 C 41.00999,50.762263 42.908283,22.371485 63.673572,23.649117 Z"
     id="path36" />
  <path
     style="fill:#fff24b;stroke-width:3.99995"
     d="m 63.828986,16.492521 c 2.106053,0.107647 5.349141,2.963107 7.229237,3.173936 1.307088,0.146574 3.60118,-3.836953 4.796453,-3.658592 1.451197,0.216546 1.986463,3.980633 3.280687,4.244176 16.712979,3.403306 21.323017,14.463111 21.002137,22.774712 l -5.011745,14.719308 c 0,0 -3.53924,1.93324 -2.489113,-0.421459 1.213421,-2.720854 4.35195,-12.011786 -3.190432,-14.596302 -6.267594,-2.147697 -3.20722,14.929214 -2.754454,15.228855 -2.816444,-3.212384 -5.481087,-6.662877 -14.164547,-7.227898 1.396155,2.467525 -0.05388,4.702153 5.817896,5.688701 -2.9162,3.791456 -15.348209,2.128381 -21.681202,-2.243268 -8.038996,7.428787 -16.541938,7.488606 -25.131558,6.171751 l 9.422846,-10.716039 -7.614342,1.067503 C 41.00999,48.763937 42.908283,20.373161 63.673572,21.650793 Z"
     id="path38" />
  <path
     style="fill:#737373;stroke-width:3.99995"
     d="m 105.12463,39.226075 c 5.97247,-0.151266 9.17358,1.66256 8.98388,5.880724 0,0 14.3776,-2.12929 20.61438,-0.991084 5.45246,0.995072 15.21221,6.673717 15.21221,6.673717 1.47917,3.53664 1.5012,6.202143 -0.11788,7.439203 -0.65691,0.50191 -3.74594,-0.200637 -3.92221,2.634979 -0.47847,7.697008 -7.82871,24.40568 -14.1275,24.545802 l -24.39638,0.542717 c -3.44348,0.327916 -3.582,0.154998 -5.10681,-2.379162 -8.447196,-14.065005 -11.436423,-28.130005 -1.18057,-42.195002 1.03048,-1.85704 2.13372,-2.100552 4.04088,-2.151894 z"
     id="path40" />
  <path
     style="fill:#fcdb6d;stroke-width:3.99995"
     d="m 70.67976,20.605586 v 0 C 69.657185,27.307009 61.981581,41.434053 56.663903,54.17469 v 0 C 57.719254,41.236983 57.442669,28.394545 70.67976,20.605586 Z"
     id="path44" />
  <path
     style="fill:#ffc900;stroke-width:3.99995"
     d="m 163.88253,75.196619 a 1.2825094,1.2731486 0 0 0 -1.17968,0.773431 c -4.80441,10.814913 -11.17205,16.263689 -18.53101,19.023198 a 1.2828399,1.2734767 0 0 0 0.90623,2.382783 c 7.9595,-2.984699 14.95805,-9.078427 19.97632,-20.374746 a 1.2825094,1.2731486 0 0 0 -1.17186,-1.804666 z m -31.35899,11.73423 a 3.317796,3.29358 0 0 0 -3.11715,4.054637 c 0,0 0.63129,2.923668 0.17968,6.288982 -0.4516,3.365312 -1.68345,6.601332 -5.70305,8.421772 -10.67839,4.83613 -35.683022,4.69318 -49.765007,2.26559 a 3.3186133,3.2943914 0 1 0 -1.132798,6.49211 c 15.172735,2.61562 39.764185,3.52569 53.655575,-2.76559 6.43904,-2.91618 8.89748,-8.8829 9.52333,-13.546705 0.62584,-4.66381 -0.28124,-8.585829 -0.28124,-8.585829 a 3.317796,3.29358 0 0 0 -3.35934,-2.624967 z m -74.842814,0.624992 a 1.2825094,1.2731486 0 0 0 -0.789054,0.296877 c -3.035386,2.474877 -5.707237,5.574682 -8.554581,7.328032 -2.847349,1.75335 -5.639294,2.375119 -9.874875,-0.0156 a 1.2826396,1.2732779 0 1 0 -1.26561,2.210881 c 4.894543,2.762689 9.136282,2.034978 12.492032,-0.0312 3.355758,-2.066422 6.054168,-5.261714 8.828014,-7.523346 a 1.2825094,1.2731486 0 0 0 -0.835926,-2.265596 z"
     id="path46" />
  <path
     id="path1228"
     style="fill:#ffffff;stroke-width:3.99995;opacity:0.2"
     d="M 75.855469 16.007812 C 74.660196 15.829451 72.365682 19.81259 71.058594 19.666016 C 69.178498 19.455187 65.934178 16.599835 63.828125 16.492188 L 63.673828 21.650391 C 42.908539 20.372759 41.010938 48.763298 33.341797 50.697266 L 35.462891 50.400391 C 41.56623 44.446753 44.955561 21.498706 63.673828 22.650391 L 63.828125 17.492188 C 65.934178 17.599835 69.178498 20.455187 71.058594 20.666016 C 72.365682 20.81259 74.660196 16.829451 75.855469 17.007812 C 77.306666 17.224359 77.840542 20.98841 79.134766 21.251953 C 94.793175 24.440514 99.827592 34.348605 100.13672 42.421875 C 100.21655 34.186254 95.44945 23.574153 79.134766 20.251953 C 77.840542 19.98841 77.306666 16.224359 75.855469 16.007812 z M 85.560547 49.779297 C 85.519122 52.682995 85.949929 55.768522 86.308594 57.521484 C 86.43548 57.666949 86.564468 57.812248 86.691406 57.957031 C 86.471607 57.811568 85.643887 53.713663 85.560547 49.779297 z M 94.302734 50.533203 C 94.186336 53.328422 93.205513 56.048812 92.636719 57.324219 C 92.363302 57.9373 92.404036 58.25691 92.609375 58.398438 C 92.620516 58.371799 92.624309 58.352044 92.636719 58.324219 C 93.273443 56.896492 94.427233 53.660786 94.302734 50.533203 z M 40.955078 50.630859 L 39.953125 50.771484 L 31.533203 60.345703 C 31.793785 60.385652 32.054042 60.419783 32.314453 60.457031 L 40.955078 50.630859 z M 72.527344 51.728516 C 73.845619 54.058399 72.634662 56.180228 77.4375 57.240234 C 77.796887 57.00085 78.106116 56.729464 78.345703 56.417969 C 73.312474 55.572309 73.652304 53.807949 72.974609 51.767578 C 72.822726 51.755608 72.683063 51.738648 72.527344 51.728516 z " />
  <path
     id="path1230"
     style="fill:#ffffff;stroke-width:3.99995;opacity:0.2"
     d="M 106.21094 39.220703 C 105.85946 39.214698 105.49828 39.217108 105.125 39.226562 C 103.21784 39.277905 102.11446 39.521866 101.08398 41.378906 C 96.41045 47.788247 94.493523 54.196127 94.583984 60.605469 C 94.698698 54.529518 96.65355 48.452903 101.08398 42.376953 C 102.11446 40.519913 103.21784 40.277904 105.125 40.226562 C 111.09747 40.075297 114.29907 41.889258 114.10938 46.107422 C 114.10938 46.107422 128.48588 43.977028 134.72266 45.115234 C 140.17512 46.110306 149.93555 51.789063 149.93555 51.789062 C 150.58666 53.345857 150.93708 54.720915 151.00781 55.892578 C 151.14815 54.544709 150.78053 52.80938 149.93555 50.789062 C 149.93555 50.789062 140.17512 45.110306 134.72266 44.115234 C 128.48588 42.977028 114.10938 45.107422 114.10938 45.107422 C 114.28722 41.152893 111.48309 39.310784 106.21094 39.220703 z " />
</svg>
