<?xml version="1.0" encoding="UTF-8" standalone="no"?>
<svg
   xmlns:dc="http://purl.org/dc/elements/1.1/"
   xmlns:cc="http://creativecommons.org/ns#"
   xmlns:rdf="http://www.w3.org/1999/02/22-rdf-syntax-ns#"
   xmlns:svg="http://www.w3.org/2000/svg"
   xmlns="http://www.w3.org/2000/svg"
   xmlns:sodipodi="http://sodipodi.sourceforge.net/DTD/sodipodi-0.dtd"
   xmlns:inkscape="http://www.inkscape.org/namespaces/inkscape"
   width="48"
   height="48"
   version="1"
   id="svg14"
   sodipodi:docname="google_docs.svg"
   inkscape:version="0.92.2 (unknown)">
  <metadata
     id="metadata20">
    <rdf:RDF>
      <cc:Work
         rdf:about="">
        <dc:format>image/svg+xml</dc:format>
        <dc:type
           rdf:resource="http://purl.org/dc/dcmitype/StillImage" />
      </cc:Work>
    </rdf:RDF>
  </metadata>
  <defs
     id="defs18" />
  <sodipodi:namedview
     pagecolor="#ffffff"
     bordercolor="#666666"
     borderopacity="1"
     objecttolerance="10"
     gridtolerance="10"
     guidetolerance="10"
     inkscape:pageopacity="0"
     inkscape:pageshadow="2"
     inkscape:window-width="1920"
     inkscape:window-height="1016"
     id="namedview16"
     showgrid="false"
     inkscape:zoom="12.14"
     inkscape:cx="24"
     inkscape:cy="24"
     inkscape:window-x="0"
     inkscape:window-y="34"
     inkscape:window-maximized="1"
     inkscape:current-layer="svg14" />
  <path
     d="m 10,4.5 c -1.108,0 -2,0.892 -2,2 v 36 c 0,1.108 0.892,2 2,2 h 28 c 1.108,0 2,-0.892 2,-2 v -26 l -11,-1 -1,-11 z"
     style="opacity:0.2;fill:#000000"
     id="path2"
     inkscape:connector-curvature="0" />
  <path
     d="m10 4c-1.108 0-2 0.892-2 2v36c0 1.108 0.892 2 2 2h28c1.108 0 2-0.892 2-2v-26l-11-1-1-11z"
     fill="#528ff5"
     id="path4" />
  <path
     style="opacity:0.2;fill:#ffffff"
     d="M 10 4 C 8.892 4 8 4.892 8 6 L 8 6.5 C 8 5.392 8.892 4.5 10 4.5 L 28 4.5 L 39.5 16 L 40 16 L 28 4 L 10 4 z "
     id="path6" />
  <path
     d="m 28,4.5 v 10 c 0,1.1046 0.89543,2 2,2 h 10 z"
     style="opacity:0.2;fill:#000000"
     id="path8"
     inkscape:connector-curvature="0" />
  <path
     d="m28 4v10c0 1.1046 0.89543 2 2 2h10l-12-12z"
     fill="#a5c5f9"
     id="path10" />
  <path
     sodipodi:nodetypes="cccccccccccccccccccc"
     inkscape:connector-curvature="0"
     id="path832"
     style="opacity:0.2;fill:#000000;enable-background:new"
     d="m 15,37.5 v -2 h 12 v 2 z m 0,-4 v -2 h 18 v 2 z m 0,-4 v -2 h 18 v 2 z m 0,-4 v -2 h 18 v 2 z" />
  <path
     d="m 15,37 v -2 h 12 v 2 z m 0,-4 v -2 h 18 v 2 z m 0,-4 v -2 h 18 v 2 z m 0,-4 v -2 h 18 v 2 z"
     style="fill:#ffffff;enable-background:new"
     id="path12"
     inkscape:connector-curvature="0"
     sodipodi:nodetypes="cccccccccccccccccccc" />
</svg>
