<?xml version="1.0" encoding="UTF-8" standalone="no"?>
<svg
   xmlns:dc="http://purl.org/dc/elements/1.1/"
   xmlns:cc="http://creativecommons.org/ns#"
   xmlns:rdf="http://www.w3.org/1999/02/22-rdf-syntax-ns#"
   xmlns:svg="http://www.w3.org/2000/svg"
   xmlns="http://www.w3.org/2000/svg"
   xmlns:sodipodi="http://sodipodi.sourceforge.net/DTD/sodipodi-0.dtd"
   xmlns:inkscape="http://www.inkscape.org/namespaces/inkscape"
   width="48"
   height="48"
   version="1"
   id="svg30"
   sodipodi:docname="google_play_game.svg"
   inkscape:version="0.92.2 (unknown)">
  <metadata
     id="metadata36">
    <rdf:RDF>
      <cc:Work
         rdf:about="">
        <dc:format>image/svg+xml</dc:format>
        <dc:type
           rdf:resource="http://purl.org/dc/dcmitype/StillImage" />
      </cc:Work>
    </rdf:RDF>
  </metadata>
  <defs
     id="defs34" />
  <sodipodi:namedview
     pagecolor="#ffffff"
     bordercolor="#666666"
     borderopacity="1"
     objecttolerance="10"
     gridtolerance="10"
     guidetolerance="10"
     inkscape:pageopacity="0"
     inkscape:pageshadow="2"
     inkscape:window-width="1920"
     inkscape:window-height="1016"
     id="namedview32"
     showgrid="false"
     inkscape:zoom="13.01"
     inkscape:cx="24"
     inkscape:cy="24"
     inkscape:window-x="0"
     inkscape:window-y="34"
     inkscape:window-maximized="1"
     inkscape:current-layer="svg30" />
  <path
     d="m 14.053,8.4998578 c -4.9768,0 -8.7209,4.0038992 -8.9824,8.9628992 l -0.9983,18.922 c -0.6298,3.7 2.9673,6.0372 5.9902,1.9922 l 5.2344,-7.8359 c 0.23039,0.01766 0.46028,0.03711 0.69531,0.03711 h 15.988 l 5.9941,8.0488 c 2.9976,4.0243 6.3771,0.71189 5.9961,-2.0117 l -0.985,-18.836 c 0.004,-0.105 0.016,-0.209 0.016,-0.316 0,-4.965 -4.0064,-8.9628992 -8.9824,-8.9628992 h -19.965 z"
     id="path2"
     inkscape:connector-curvature="0"
     style="opacity:0.2" />
  <path
     d="m14.053 8c-4.9771 0-8.7212 4.004-8.9827 8.963l-0.998 18.922c-0.6298 3.7 2.9673 6.037 5.9897 1.992l5.235-7.836c0.23 0.018 0.46 0.037 0.695 0.037h15.988l5.995 8.049c2.997 4.024 6.377 0.712 5.996-2.012l-0.987-18.836c4e-3 -0.105 0.016-0.209 0.016-0.316 0-4.965-4.006-8.963-8.982-8.963h-19.965z"
     style="fill:#6e9e43"
     id="path4" />
  <circle
     cx="14.5"
     cy="18"
     r="6.5"
     style="opacity:0.2;fill:#000000;fill-rule:evenodd"
     id="circle6" />
  <circle
     cx="14.5"
     cy="17.5"
     r="6.5"
     style="fill-rule:evenodd;fill:#ffffff"
     id="circle8" />
  <path
     d="m 33.519531,13.500001 a 1.5,1.5 0 0 0 -1.5,1.5 1.5,1.5 0 0 0 1.5,1.5 1.5,1.5 0 0 0 1.5,-1.5 1.5,1.5 0 0 0 -1.5,-1.5 z m -3,3 a 1.5,1.5 0 0 0 -1.5,1.5 1.5,1.5 0 0 0 1.5,1.5 1.5,1.5 0 0 0 1.5,-1.5 1.5,1.5 0 0 0 -1.5,-1.5 z m 6,0 a 1.5,1.5 0 0 0 -1.5,1.5 1.5,1.5 0 0 0 1.5,1.5 1.5,1.5 0 0 0 1.5,-1.5 1.5,1.5 0 0 0 -1.5,-1.5 z m -3,3 a 1.5,1.5 0 0 0 -1.5,1.5 1.5,1.5 0 0 0 1.5,1.5 1.5,1.5 0 0 0 1.5,-1.5 1.5,1.5 0 0 0 -1.5,-1.5 z"
     style="opacity:0.1;fill:#000000"
     id="path10"
     inkscape:connector-curvature="0" />
  <g
     fill="#e4e4e4"
     style="fill:#3f3f3f"
     id="g16">
    <rect
       x="13.02"
       y="12.93"
       width="3"
       height="9"
       ry="0"
       style="fill:#3f3f3f"
       id="rect12" />
    <rect
       transform="rotate(90)"
       x="15.93"
       y="-19.02"
       width="3"
       height="9"
       ry="0"
       style="fill:#3f3f3f"
       id="rect14" />
  </g>
  <circle
     cx="36.52"
     cy="17.43"
     r="1.5"
     style="fill:#3f3f3f"
     id="circle18" />
  <g
     style="fill:#3f3f3f"
     id="g24">
    <circle
       cx="30.52"
       cy="17.43"
       r="1.5"
       style="fill:#3f3f3f"
       id="circle20" />
    <circle
       transform="rotate(90)"
       cx="14.43"
       cy="-33.52"
       r="1.5"
       style="fill:#3f3f3f"
       id="circle22" />
  </g>
  <circle
     transform="rotate(90)"
     cx="20.43"
     cy="-33.52"
     r="1.5"
     style="fill:#3f3f3f"
     id="circle26" />
  <path
     d="M 14.052734 8 C 9.0756344 8 5.3299594 12.106959 5.0683594 17.193359 L 4.0703125 36.603516 C 4.0090056 36.973303 4.0018363 37.322442 4.0175781 37.660156 C 4.0276243 37.477544 4.0386848 37.294286 4.0703125 37.103516 L 5.0683594 17.693359 C 5.3299594 12.606959 9.0756344 8.5 14.052734 8.5 L 34.015625 8.5 C 38.915378 8.5 42.866251 12.475999 42.988281 17.458984 C 42.992794 17.370652 43 17.282795 43 17.193359 C 43 12.099959 38.992825 8 34.015625 8 L 14.052734 8 z "
     id="path28"
     style="fill:#ffffff;opacity:0.2" />
</svg>
