<svg xmlns="http://www.w3.org/2000/svg" width="192" height="192" version="1">
 <g transform="scale(4)">
  <path style="opacity:0.2" d="M 4.0117,24 C 4.0076,24.167 4,24.332 4,24.5 c 0,11.08 8.92,20 20,20 11.08,0 20,-8.92 20,-20 C 44,24.332 43.992,24.167 43.988,24 43.724,34.846 34.912,43.5 24,43.5 13.088,43.5 4.276,34.846 4.012,24 Z"/>
  <path style="fill:#e6910e" d="m24 3.9792c-7.0164 0-13.151 3.594-16.719 9.0312-0.12607 8.1469 5.0559 10.986 8.8125 15.25-0.691-1.275-1.094-2.723-1.094-4.281 0-4.986 4.0449-6.4456 9-7l17.875-2c-3.281-6.5394-10.033-11-17.875-11z"/>
  <path style="fill:#fab700" d="m6.6997 34.037c3.5082 6.0764 9.6881 9.5924 16.181 9.9632 6.9232-3.8162 10.593-8.6676 8.8006-15.257-0.759 1.2363-1.8114 2.3088-3.1608 3.0878-2.1442 1.238-4.1295-0.0632-6.3395-0.64303-2.2405-0.58777-4.6997-0.47742-5.9547-2.6512l-8.9385-15.481c-4.0225 6.112-4.5096 14.189-0.5888 20.981z"/>
  <path style="fill:#ffce41" d="m41.376 33.982c3.5082-6.0764 3.4632-13.186 0.53809-18.994l-17.613 7e-3c1.4502 0.0392 2.9052 0.41435 4.2546 1.1934 2.3076 1.3323 2.0907 3.9649 2.6011 6.371 0.44469 2.0962 1.8538 3.9128 0.6931 5.9232l-8.9375 15.48c7.304 0.428 14.543-3.189 18.464-9.981z"/>
  <rect style="opacity:0.2" width="18" height="18" x="-33.48" y="-33" rx="9" ry="9" transform="matrix(0,-1,-1,0,0,0)"/>
  <rect style="fill:#ffffff" width="18" height="18" x="-33" y="-33" rx="9" ry="9" transform="matrix(0,-1,-1,0,0,0)"/>
  <rect style="fill:#f5b80c" width="14" height="14" x="-31" y="-31" rx="7" ry="7" transform="matrix(0,-1,-1,0,0,0)"/>
  <path style="fill:#ffffff;opacity:0.2" d="M 24 3.9785156 C 12.92 3.9785156 4 12.898516 4 23.978516 C 4 24.064483 4.0033666 24.149308 4.0058594 24.234375 C 4.1364976 13.268436 13.001971 4.4785156 24 4.4785156 C 35.00131 4.4785156 43.86868 13.273632 43.994141 24.244141 C 43.996771 24.155802 44 24.067694 44 23.978516 C 44 12.898516 35.08 3.9785156 24 3.9785156 z"/>
 </g>
</svg>
