<svg xmlns="http://www.w3.org/2000/svg" width="48" height="48" version="1">
 <g>
  <path style="opacity:0.2" d="m 8,41.5 v 1 c 0,1.108 0.892,2 2,2 h 28 c 1.108,0 2,-0.892 2,-2 v -1 c 0,1.108 -0.892,2 -2,2 H 10 c -1.108,0 -2,-0.892 -2,-2 z"/>
  <path style="fill:#f79138" d="m40 42v-36c0-1.108-0.892-2-2-2h-28c-1.108 0-2 0.892-2 2v36c0 1.108 0.892 2 2 2h28c1.108 0 2-0.892 2-2z"/>
  <g style="opacity:0.2" transform="matrix(0.2046,0,0,0.2046,14,14.5)">
   <path d="m 36.491,40.31 c 0,0 13.827,-0.006 13.858,-0.006 3.201,0 5.82,-2.344 5.873,-5.556 0.051,-3.244 -2.537,-6.15 -5.781,-6.201 l -13.766,0.016 c -3.249,-0.031 -5.914,2.537 -5.966,5.78 -0.051,3.243 2.538,5.915 5.782,5.967 z"/>
   <path d="M 62.55,55.48 H 35.021 c -3.244,0 -5.875,2.631 -5.875,5.875 0,3.244 2.631,5.873 5.875,5.873 H 62.55 c 3.244,0 5.875,-2.629 5.875,-5.873 0,-3.244 -2.631,-5.875 -5.875,-5.875 z"/>
   <path d="M 48.875,0 C 21.883,0 0,21.882 0,48.875 0,75.868 21.883,97.75 48.875,97.75 75.867,97.75 97.75,75.868 97.75,48.875 97.75,21.882 75.867,0 48.875,0 Z m 27.902,77.021 c -3.776,3.889 -9.108,5.972 -15.42,6.024 H 36.688 c -0.155,0.002 -0.31,0.003 -0.463,0.003 -7.074,0 -12.534,-1.994 -16.227,-5.927 -3.694,-3.935 -4.878,-9.256 -4.878,-16.649 0.007,-0.51 -0.042,-1.006 -0.011,-1.496 l 0.013,-25.991 c 0.305,-6.445 3.185,-10.431 5.353,-12.713 3.503,-3.689 8.455,-5.56 14.721,-5.56 h 0.174 l 16.11,-0.012 0.15,0.004 c 10.533,0.292 18.123,7.623 18.197,17.822 0.275,3.063 0.104,5.896 -0.493,8.452 3.541,0.105 7.91,0.725 10.741,4.383 2.5,3.23 2.516,6.903 2.537,11.985 0.006,1.04 0.035,3.688 0.035,3.688 -0.068,6.579 -2.098,12.109 -5.87,15.987 z"/>
  </g>
  <g style="fill:#ffffff" transform="matrix(.2046 0 0 .2046 14 14)">
   <path d="m36.491 40.31s13.827-6e-3 13.858-6e-3c3.201 0 5.82-2.344 5.873-5.556 0.051-3.244-2.537-6.15-5.781-6.201l-13.766 0.016c-3.249-0.031-5.914 2.537-5.966 5.78-0.051 3.243 2.538 5.915 5.782 5.967z"/>
   <path d="m62.55 55.48h-27.529c-3.244 0-5.875 2.631-5.875 5.875s2.631 5.873 5.875 5.873h27.529c3.244 0 5.875-2.629 5.875-5.873s-2.631-5.875-5.875-5.875z"/>
   <path d="m48.875 0c-26.992 0-48.875 21.882-48.875 48.875s21.883 48.875 48.875 48.875 48.875-21.882 48.875-48.875-21.883-48.875-48.875-48.875zm27.902 77.021c-3.776 3.889-9.108 5.972-15.42 6.024h-24.669c-0.155 2e-3 -0.31 3e-3 -0.463 3e-3 -7.074 0-12.534-1.994-16.227-5.927-3.694-3.935-4.878-9.256-4.878-16.649 7e-3 -0.51-0.042-1.006-0.011-1.496l0.013-25.991c0.305-6.445 3.185-10.431 5.353-12.713 3.503-3.689 8.455-5.56 14.721-5.56h0.174l16.11-0.012 0.15 4e-3c10.533 0.292 18.123 7.623 18.197 17.822 0.275 3.063 0.104 5.896-0.493 8.452 3.541 0.105 7.91 0.725 10.741 4.383 2.5 3.23 2.516 6.903 2.537 11.985 6e-3 1.04 0.035 3.688 0.035 3.688-0.068 6.579-2.098 12.109-5.87 15.987z"/>
  </g>
  <path style="fill:#ffffff;opacity:0.2" d="M 10 4 C 8.892 4 8 4.892 8 6 L 8 6.5 C 8 5.392 8.892 4.5 10 4.5 L 38 4.5 C 39.108 4.5 40 5.392 40 6.5 L 40 6 C 40 4.892 39.108 4 38 4 L 10 4 z"/>
 </g>
</svg>
