<?xml version="1.0" encoding="UTF-8" standalone="no"?>
<svg
   width="192"
   height="192"
   version="1.1"
   id="svg14"
   sodipodi:docname="google_youtube_music.svg"
   inkscape:version="1.1-rc (1:1.1+rc+202105232036+f4db50c7c1)"
   xmlns:inkscape="http://www.inkscape.org/namespaces/inkscape"
   xmlns:sodipodi="http://sodipodi.sourceforge.net/DTD/sodipodi-0.dtd"
   xmlns="http://www.w3.org/2000/svg"
   xmlns:svg="http://www.w3.org/2000/svg">
  <defs
     id="defs18">
    <filter
       inkscape:collect="always"
       style="color-interpolation-filters:sRGB"
       id="filter849"
       x="-0.048000001"
       y="-0.048000001"
       width="1.096"
       height="1.096">
      <feGaussianBlur
         inkscape:collect="always"
         stdDeviation="3.2"
         id="feGaussianBlur851" />
    </filter>
    <filter
       inkscape:collect="always"
       style="color-interpolation-filters:sRGB"
       id="filter853"
       x="-0.047999999"
       y="-0.047999999"
       width="1.096"
       height="1.096">
      <feGaussianBlur
         inkscape:collect="always"
         stdDeviation="1.92"
         id="feGaussianBlur855" />
    </filter>
  </defs>
  <sodipodi:namedview
     id="namedview16"
     pagecolor="#ffffff"
     bordercolor="#666666"
     borderopacity="1.0"
     inkscape:pageshadow="2"
     inkscape:pageopacity="0.0"
     inkscape:pagecheckerboard="0"
     showgrid="false"
     inkscape:zoom="2.67"
     inkscape:cx="24.157303"
     inkscape:cy="113.85768"
     inkscape:window-width="1920"
     inkscape:window-height="1014"
     inkscape:window-x="0"
     inkscape:window-y="34"
     inkscape:window-maximized="1"
     inkscape:current-layer="svg14" />
  <circle
     style="opacity:0.2;stroke-width:4;filter:url(#filter849)"
     cx="96"
     cy="100"
     r="80"
     id="circle2" />
  <circle
     style="fill:#fa2235;stroke-width:4"
     cx="96"
     cy="96"
     r="80"
     id="circle4" />
  <path
     id="path6"
     style="opacity:0.2;fill:#ffffff;stroke-width:4"
     d="M 96 16 A 80 80 0 0 0 16 96 A 80 80 0 0 0 16.023438 96.638672 A 80 80 0 0 1 96 17 A 80 80 0 0 1 175.98438 96.302734 A 80 80 0 0 0 176 96 A 80 80 0 0 0 96 16 z " />
  <path
     style="opacity:0.2;stroke-width:4;filter:url(#filter853)"
     d="M 96,50 A 48,48 0 0 0 48,98 48,48 0 0 0 96,146 48,48 0 0 0 144,98 48,48 0 0 0 96,50 Z m -0.07812,8 A 40,40 0 0 1 96,58 40,40 0 0 1 136,98 40,40 0 0 1 96,138 40,40 0 0 1 56,98 40,40 0 0 1 95.921876,58 Z M 80,74 v 24 24 l 20,-12 20,-12 -20,-12 z"
     id="path8" />
  <path
     style="fill:#ffffff;stroke-width:3.92377"
     d="m 120,96 -20,12 -19.999998,12 V 96 72 L 100,84 Z"
     id="path10" />
  <path
     style="fill:#ffffff;stroke-width:4"
     d="M 96,48 A 48,48 0 0 0 48,96 48,48 0 0 0 96,144 48,48 0 0 0 144,96 48,48 0 0 0 96,48 Z m -0.07812,8 A 40,40 0 0 1 96,56 40,40 0 0 1 136,96 40,40 0 0 1 96,136 40,40 0 0 1 56,96 40,40 0 0 1 95.921876,56 Z"
     id="path12" />
</svg>
