<svg xmlns="http://www.w3.org/2000/svg" width="192" height="192" version="1">
 <g transform="scale(4)">
  <path style="opacity:0.2" d="m 19,16.5 c -1.662,0 -3,1.338 -3,3 v 11 H 7 c -1.662,0 -3,1.338 -3,3 v 8 c 0,1.662 1.338,3 3,3 h 23 v -25 c 0,-1.662 -1.338,-3 -3,-3 z"/>
  <path style="opacity:0.2" d="m 44,41.5 v -34 c 0,-1.662 -1.338,-3 -3,-3 h -8 c -1.662,0 -3,1.338 -3,3 v 37 h 11 c 1.662,0 3,-1.338 3,-3 z"/>
  <path style="fill:#ffc311" d="m19 16c-1.662 0-3 1.338-3 3v11h-9c-1.662 0-3 1.338-3 3v8c0 1.662 1.338 3 3 3h23v-25c0-1.662-1.338-3-3-3z"/>
  <path style="fill:#f57e04" transform="matrix(0,-1,-1,0,0,0)" d="m-41-44h34c1.662 0 3 1.338 3 3v8c0 1.662-1.338 3-3 3h-37v-11c0-1.662 1.338-3 3-3z"/>
  <path style="fill:#ffffff;opacity:0.2" d="M 33 4 C 31.338 4 30 5.338 30 7 L 30 7.5 C 30 5.838 31.338 4.5 33 4.5 L 41 4.5 C 42.662 4.5 44 5.838 44 7.5 L 44 7 C 44 5.338 42.662 4 41 4 L 33 4 z M 19 16 C 17.338 16 16 17.338 16 19 L 16 19.5 C 16 17.838 17.338 16.5 19 16.5 L 27 16.5 C 28.662 16.5 30 17.838 30 19.5 L 30 19 C 30 17.338 28.662 16 27 16 L 19 16 z M 7 30 C 5.338 30 4 31.338 4 33 L 4 33.5 C 4 31.838 5.338 30.5 7 30.5 L 16 30.5 L 16 30 L 7 30 z"/>
 </g>
</svg>
