<?xml version="1.0" encoding="UTF-8" standalone="no"?>
<svg
   width="192"
   height="192"
   version="1"
   id="svg38"
   sodipodi:docname="google_play_game.svg"
   inkscape:version="1.1-rc (1:1.1+rc+202105232036+f4db50c7c1)"
   xmlns:inkscape="http://www.inkscape.org/namespaces/inkscape"
   xmlns:sodipodi="http://sodipodi.sourceforge.net/DTD/sodipodi-0.dtd"
   xmlns="http://www.w3.org/2000/svg"
   xmlns:svg="http://www.w3.org/2000/svg"
   xmlns:rdf="http://www.w3.org/1999/02/22-rdf-syntax-ns#"
   xmlns:cc="http://creativecommons.org/ns#"
   xmlns:dc="http://purl.org/dc/elements/1.1/">
  <metadata
     id="metadata44">
    <rdf:RDF>
      <cc:Work
         rdf:about="">
        <dc:format>image/svg+xml</dc:format>
        <dc:type
           rdf:resource="http://purl.org/dc/dcmitype/StillImage" />
      </cc:Work>
    </rdf:RDF>
  </metadata>
  <defs
     id="defs42">
    <filter
       inkscape:collect="always"
       style="color-interpolation-filters:sRGB"
       id="filter4767"
       x="-0.032262295"
       y="-0.093714285"
       width="1.0645246"
       height="1.1874286">
      <feGaussianBlur
         inkscape:collect="always"
         stdDeviation="1.64"
         id="feGaussianBlur4769" />
    </filter>
    <filter
       inkscape:collect="always"
       style="color-interpolation-filters:sRGB"
       id="filter4986"
       x="-0.043999998"
       y="-0.052799997"
       width="1.088"
       height="1.1056">
      <feGaussianBlur
         inkscape:collect="always"
         stdDeviation="2.86"
         id="feGaussianBlur4988" />
    </filter>
    <filter
       inkscape:collect="always"
       style="color-interpolation-filters:sRGB"
       id="filter4990"
       x="-0.043625764"
       y="-0.053349179"
       width="1.0872515"
       height="1.1066984">
      <feGaussianBlur
         inkscape:collect="always"
         stdDeviation="1.9782588"
         id="feGaussianBlur4992" />
    </filter>
  </defs>
  <sodipodi:namedview
     pagecolor="#ffffff"
     bordercolor="#666666"
     borderopacity="1"
     objecttolerance="10"
     gridtolerance="10"
     guidetolerance="10"
     inkscape:pageopacity="0"
     inkscape:pageshadow="2"
     inkscape:window-width="1272"
     inkscape:window-height="661"
     id="namedview40"
     showgrid="false"
     inkscape:zoom="0.815"
     inkscape:cx="90.184049"
     inkscape:cy="136.80982"
     inkscape:window-x="736"
     inkscape:window-y="185"
     inkscape:window-maximized="0"
     inkscape:current-layer="svg38"
     inkscape:pagecheckerboard="0"
     showguides="true">
    <inkscape:grid
       type="xygrid"
       id="grid2608" />
  </sodipodi:namedview>
  <path
     style="opacity:0.2;fill:#000000;stroke-width:1.45585;filter:url(#filter4990)"
     d="m 145.23516,163.58754 c -2.44604,-1.11579 -7.66973,-5.89109 -11.60821,-10.61178 -3.93847,-4.72069 -8.14029,-9.38379 -9.33739,-10.36246 -1.52873,-1.24977 -12.16827,-1.59343 -30.791229,-1.62605 l -26.514662,-0.0465 2.425466,-3.92615 c 4.569898,-7.39739 10.227627,-9.55406 42.837405,-9.62332 32.39561,-0.0688 34.92603,-0.9084 43.93201,-7.82331 7.94011,-6.09651 11.37964,-14.34981 12.30555,-31.345638 0.44602,-8.187092 2.3967,-15.710785 2.96925,-10.491652 0.42501,3.874157 1.4791,17.354186 2.53322,32.12672 2.46866,34.59612 2.46368,35.74809 -0.17986,41.76401 -3.62442,8.15393 -11.16792,12.6487 -19.11604,13.30632 -3.47413,0.25562 -6.87091,-0.16123 -9.45551,-1.34023 z"
     id="path4946"
     sodipodi:nodetypes="cssccsssssscccc" />
  <path
     style="fill:#01a853;fill-opacity:1;stroke-width:1.45585"
     d="m 145.23516,159.58754 c -2.44604,-1.11579 -7.66973,-5.89109 -11.60821,-10.61178 -3.93847,-4.72069 -8.14029,-9.38379 -9.33739,-10.36246 -1.52873,-1.24977 -12.16827,-1.59343 -30.791229,-1.62605 l -26.514662,-0.0465 2.425466,-3.92615 c 4.569898,-7.39739 10.227627,-9.55406 42.837405,-9.62332 32.39561,-0.0688 34.92603,-0.9084 43.93201,-7.82331 7.94011,-6.09651 11.37964,-14.34981 12.30555,-31.345637 0.44602,-8.187092 2.3967,-15.710785 2.96925,-10.491652 0.42501,3.874157 1.4791,17.354186 2.53322,32.126719 2.46866,34.59612 2.46368,35.74809 -0.17986,41.76401 -3.62442,8.15393 -11.16792,12.6487 -19.11604,13.30632 -3.47413,0.25562 -6.87091,-0.16123 -9.45551,-1.34023 z"
     id="path2370"
     sodipodi:nodetypes="cssccsssssscccc" />
  <path
     id="path4948"
     style="opacity:0.2;fill:#000000;stroke-width:1.4597;filter:url(#filter4986)"
     d="m 95.670828,34.999997 c -47.783855,-10e-7 -53.347942,0.771332 -62.943528,8.722734 -10.270896,8.511001 -11.391711,12.964978 -14.606667,58.062349 -1.584902,22.23192 -2.478407,42.57855 -1.984591,45.2156 1.116185,5.96061 7.228783,13.40938 13.106937,15.97442 11.397026,4.97331 21.494571,0.85423 32.155869,-13.11829 l 7.290574,-9.55691 c 1.735159,-2.41936 3.6756,-5.61768 5.817348,-7.68095 4.186062,-3.96112 12.126148,-4.52212 38.22643,-4.57729 32.55936,-0.0688 37.1771,-0.44504 46.2286,-7.36156 7.98025,-6.09793 11.54035,-15.32415 12.47093,-32.323931 0.92322,-9.64005 0.69151,-14.833845 -0.49107,-21.62712 -2.1694,-12.337413 -5.25889,-16.881486 -11.61081,-22.328425 -10.0933,-8.65526 -15.13794,-9.400627 -63.660022,-9.400627 z"
     sodipodi:nodetypes="ssssccccssccss" />
  <path
     id="path2583"
     style="fill:#00e26b;fill-opacity:1;stroke-width:1.4597"
     d="M 95.670828,30.999998 C 47.886973,30.999997 42.322886,31.77133 32.7273,39.722732 22.456404,48.233733 21.335589,52.68771 18.120633,97.785077 16.535731,120.017 15.642226,140.36363 16.136042,143.00068 c 1.116185,5.96061 7.228783,13.40938 13.106937,15.97442 11.397026,4.97331 21.494571,0.85423 32.155869,-13.11829 l 7.290574,-9.55691 c 1.735159,-2.41936 3.6756,-5.61768 5.817348,-7.68095 4.186062,-3.96112 12.126148,-4.52212 38.22643,-4.57729 32.55936,-0.0688 37.1771,-0.44504 46.2286,-7.36156 7.98025,-6.09793 11.54035,-15.32415 12.47093,-32.32393 0.92322,-9.64005 0.69151,-14.833845 -0.49107,-21.62712 -2.1694,-12.337413 -5.25889,-16.881486 -11.61081,-22.328425 -10.0933,-8.65526 -15.13794,-9.400627 -63.660022,-9.400627 z"
     sodipodi:nodetypes="ssssccccssccss" />
  <path
     id="path4729"
     style="opacity:0.2;fill:#000000;stroke-width:4.43889;filter:url(#filter4767)"
     d="m 137,58 a 7,7 0 0 0 -7,7 7,7 0 0 0 7,7 7,7 0 0 0 7,-7 7,7 0 0 0 -7,-7 z m -85,2 c -2.216,0 -4,1.784 -4,4 v 8 h -8 c -2.216,0 -4,1.784 -4,4 v 6 c 0,2.216 1.784,4 4,4 h 8 v 8 c 0,2.216 1.784,4 4,4 h 6 c 2.216,0 4,-1.784 4,-4 v -8 h 8 c 2.216,0 4,-1.784 4,-4 v -6 c 0,-2.216 -1.784,-4 -4,-4 h -8 v -8 c 0,-2.216 -1.784,-4 -4,-4 z m 71,12 a 7,7 0 0 0 -7,7 7,7 0 0 0 7,7 7,7 0 0 0 7,-7 7,7 0 0 0 -7,-7 z m 28,0 a 7,7 0 0 0 -7,7 7,7 0 0 0 7,7 7,7 0 0 0 7,-7 7,7 0 0 0 -7,-7 z m -14,14 a 7,7 0 0 0 -7,7 7,7 0 0 0 7,7 7,7 0 0 0 7,-7 7,7 0 0 0 -7,-7 z" />
  <path
     id="rect20"
     style="fill:#ffffff;stroke-width:4.43889"
     d="m 137,56 a 7,7 0 0 0 -7,7 7,7 0 0 0 7,7 7,7 0 0 0 7,-7 7,7 0 0 0 -7,-7 z m -85,2 c -2.216,0 -4,1.784 -4,4 v 8 h -8 c -2.216,0 -4,1.784 -4,4 v 6 c 0,2.216 1.784,4 4,4 h 8 v 8 c 0,2.216 1.784,4 4,4 h 6 c 2.216,0 4,-1.784 4,-4 v -8 h 8 c 2.216,0 4,-1.784 4,-4 v -6 c 0,-2.216 -1.784,-4 -4,-4 h -8 v -8 c 0,-2.216 -1.784,-4 -4,-4 z m 71,12 a 7,7 0 0 0 -7,7 7,7 0 0 0 7,7 7,7 0 0 0 7,-7 7,7 0 0 0 -7,-7 z m 28,0 a 7,7 0 0 0 -7,7 7,7 0 0 0 7,7 7,7 0 0 0 7,-7 7,7 0 0 0 -7,-7 z m -14,14 a 7,7 0 0 0 -7,7 7,7 0 0 0 7,7 7,7 0 0 0 7,-7 7,7 0 0 0 -7,-7 z" />
  <path
     id="path4851"
     style="opacity:0.2;fill:#ffffff;stroke-width:1.4597"
     d="m 95.669922,31 c -47.783855,-1e-6 -53.347774,0.771254 -62.94336,8.722656 -10.270896,8.511001 -11.390512,12.965133 -14.605468,58.0625 -1.249379,17.525434 -2.05629,33.733484 -2.105469,41.164064 0.117262,-7.87712 0.916792,-23.49012 2.105469,-40.164064 C 21.33605,53.687789 22.455666,49.233657 32.726562,40.722656 42.322148,32.771254 47.886067,31.999999 95.669922,32 c 48.522078,0 53.566858,0.745131 63.660158,9.400391 6.35192,5.446939 9.44193,9.990712 11.61133,22.328125 0.58213,3.344045 0.92842,6.305669 1.02539,9.595703 -0.0525,-3.682381 -0.38751,-6.931398 -1.02539,-10.595703 C 168.77201,50.391103 165.682,45.84733 159.33008,40.400391 149.23678,31.745131 144.192,31 95.669922,31 Z" />
</svg>
