<?xml version="1.0" encoding="UTF-8" standalone="no"?>
<svg
   xmlns:dc="http://purl.org/dc/elements/1.1/"
   xmlns:cc="http://creativecommons.org/ns#"
   xmlns:rdf="http://www.w3.org/1999/02/22-rdf-syntax-ns#"
   xmlns:svg="http://www.w3.org/2000/svg"
   xmlns="http://www.w3.org/2000/svg"
   xmlns:sodipodi="http://sodipodi.sourceforge.net/DTD/sodipodi-0.dtd"
   xmlns:inkscape="http://www.inkscape.org/namespaces/inkscape"
   width="48"
   height="48"
   preserveAspectRatio="xMidYMid"
   version="1.1"
   viewBox="0 0 48 48"
   id="svg16"
   sodipodi:docname="google_gmail.svg"
   inkscape:version="0.92.2 (unknown)">
  <metadata
     id="metadata22">
    <rdf:RDF>
      <cc:Work
         rdf:about="">
        <dc:format>image/svg+xml</dc:format>
        <dc:type
           rdf:resource="http://purl.org/dc/dcmitype/StillImage" />
      </cc:Work>
    </rdf:RDF>
  </metadata>
  <defs
     id="defs20" />
  <sodipodi:namedview
     pagecolor="#ffffff"
     bordercolor="#666666"
     borderopacity="1"
     objecttolerance="10"
     gridtolerance="10"
     guidetolerance="10"
     inkscape:pageopacity="0"
     inkscape:pageshadow="2"
     inkscape:window-width="1920"
     inkscape:window-height="1016"
     id="namedview18"
     showgrid="false"
     inkscape:zoom="13.94"
     inkscape:cx="24"
     inkscape:cy="24"
     inkscape:window-x="0"
     inkscape:window-y="34"
     inkscape:window-maximized="1"
     inkscape:current-layer="svg16" />
  <path
     d="m 4,36.023 v 1 c 0,1.38 1.1429,2.477 2.5,2.477 h 35 c 1.3929,0 2.5,-1.0968 2.5,-2.4766 v -1 c 0,1.38 -1.107,2.477 -2.5,2.477 h -35 c -1.3571,0 -2.5,-1.097 -2.5,-2.477 z"
     id="path10"
     inkscape:connector-curvature="0"
     style="opacity:0.2" />
  <path
     d="m41.5 39h-32.664659l-1.3982597-1.004016c-1.1023533-0.791541-1.9779995-0.41647-2.3661312-1.739722l-1.0709505-3.651175v-19.624119l0.8700381-1.449591c0.6921627-1.153228 1.4704861-0.573388 1.9562262-1.8788485l0.242795-0.6525285h33.877107l0.662589 0.8700381c0.822227 1.0796589 0.742623 1.0392539 1.629962 2.0957579l0.761283 0.906417v19.866743l-0.736278 3.382838c-0.293488 1.34843-1.240869 2.008459-2.633869 2.008459z"
     style="fill:#e4e4e4"
     id="path2" />
  <path
     d="m6.5 10c-1.2225 0-2.224 0.19-2.4511 1.163-0.0317 0.136-0.0489 0.287-0.0489 0.455v24.922c0 1.371 1.107 2.46 2.5 2.46h2.5v-27.382c0-0.167-0.0179-0.319-0.0509-0.455-0.227-0.973-1.2266-1.163-2.4491-1.163z"
     style="fill:#b63728"
     id="path4" />
  <path
     d="m41.5 10c-1.393 0-2.5 0.175-2.5 1.544v27.456h2.5c1.393 0 2.5-1.087 2.5-2.457v-24.999c0-1.3692-1.107-1.5442-2.5-1.5442z"
     style="fill:#b63728"
     id="path6" />
  <path
     style="fill:#ffffff;opacity:.2"
     d="M 6.5 9 C 5.7915932 9 5.7123035 9.3811491 5.8046875 9.9296875 C 5.8602119 9.6689033 6.0411908 9.5 6.5 9.5 L 41.5 9.5 C 41.998377 9.5 42.192318 9.7505582 42.242188 10.132812 C 42.299393 9.48131 42.19186 9 41.5 9 L 6.5 9 z M 5.8046875 10.429688 C 5.7745487 10.571242 5.7742577 10.734988 5.8066406 10.927734 C 5.8216918 10.858305 5.8376365 10.790103 5.875 10.736328 C 5.8520295 10.635928 5.8201017 10.521491 5.8046875 10.429688 z M 5.875 10.736328 C 5.9847009 11.215812 6.1425781 11.759568 6.1425781 12.306641 L 6.1425781 11.806641 C 6.1425781 11.417196 6.0603466 11.028907 5.9707031 10.658203 C 5.9387296 10.684293 5.8975077 10.703934 5.875 10.736328 z M 42.242188 10.632812 C 42.233258 10.734526 42.208931 10.855831 42.193359 10.964844 C 42.210373 11.020228 42.233935 11.069563 42.242188 11.132812 C 42.258189 10.950637 42.261547 10.781197 42.242188 10.632812 z M 42.193359 10.964844 C 42.176792 10.910912 42.170714 10.848242 42.144531 10.802734 C 42.065453 11.274634 41.980469 11.764335 41.980469 12.21875 L 41.980469 12.71875 C 41.980469 12.152158 42.113043 11.52713 42.193359 10.964844 z "
     id="path8" />
  <path
     d="M 6.5378817,9.500314 A 2.4983286,2.4972189 0 0 0 5.1151479,14.076789 L 22.6017,26.062241 a 2.4983286,2.4972189 0 0 0 2.82595,0 L 42.914201,14.076789 A 2.4987736,2.4976638 0 1 0 40.088251,9.956791 L 24.014675,20.974667 7.9410989,9.956791 A 2.4983286,2.4972189 0 0 0 6.5378817,9.500314 Z"
     style="opacity:0.2;fill-rule:evenodd"
     id="path12"
     inkscape:connector-curvature="0" />
  <path
     d="m6.5378817 9.0003133a2.4983286 2.4972189 0 0 0-1.4227338 4.5764757l17.486552 11.985452a2.4983286 2.4972189 0 0 0 2.82595 0l17.486551-11.985452a2.4987736 2.4976638 0 1 0-2.82595-4.1199985l-16.073576 11.017876-16.073576-11.017876a2.4983286 2.4972189 0 0 0-1.4032177-0.4564772z"
     style="fill-rule:evenodd;fill:#d54b3d"
     id="path14" />
</svg>
