<?xml version="1.0" encoding="UTF-8" standalone="no"?>
<svg
   xmlns:dc="http://purl.org/dc/elements/1.1/"
   xmlns:cc="http://creativecommons.org/ns#"
   xmlns:rdf="http://www.w3.org/1999/02/22-rdf-syntax-ns#"
   xmlns:svg="http://www.w3.org/2000/svg"
   xmlns="http://www.w3.org/2000/svg"
   xmlns:sodipodi="http://sodipodi.sourceforge.net/DTD/sodipodi-0.dtd"
   xmlns:inkscape="http://www.inkscape.org/namespaces/inkscape"
   width="48"
   height="48"
   version="1"
   id="svg26"
   sodipodi:docname="google_news.svg"
   inkscape:version="0.92.2 (unknown)">
  <metadata
     id="metadata32">
    <rdf:RDF>
      <cc:Work
         rdf:about="">
        <dc:format>image/svg+xml</dc:format>
        <dc:type
           rdf:resource="http://purl.org/dc/dcmitype/StillImage" />
      </cc:Work>
    </rdf:RDF>
  </metadata>
  <defs
     id="defs30" />
  <sodipodi:namedview
     pagecolor="#ffffff"
     bordercolor="#666666"
     borderopacity="1"
     objecttolerance="10"
     gridtolerance="10"
     guidetolerance="10"
     inkscape:pageopacity="0"
     inkscape:pageshadow="2"
     inkscape:window-width="1920"
     inkscape:window-height="1016"
     id="namedview28"
     showgrid="false"
     inkscape:zoom="13.94"
     inkscape:cx="24"
     inkscape:cy="24"
     inkscape:window-x="0"
     inkscape:window-y="34"
     inkscape:window-maximized="1"
     inkscape:current-layer="svg26" />
  <path
     d="m 6,8.5 c -1.108,0 -2,0.892 -2,2 v 28 c 0,1.108 0.892,2 2,2 h 26 l 12,-12 v -18 c 0,-1.108 -0.892,-2 -2,-2 z"
     style="opacity:0.2;fill:#000000"
     id="path2"
     inkscape:connector-curvature="0" />
  <path
     d="m44 10c0-1.108-0.892-2-2-2h-36c-1.108 0-2 0.892-2 2v28c0 1.108 0.892 2 2 2h26l1-11 11-1z"
     style="fill:#e4e4e4"
     id="path4" />
  <path
     d="M 7.9707031,13.5 C 7.432912,13.5 7,13.901069 7,14.398438 v 2.203124 C 7,17.098931 7.432912,17.5 7.9707031,17.5 H 24 40.029297 C 40.567088,17.5 41,17.098931 41,16.601562 V 14.398438 C 41,13.901069 40.567088,13.5 40.029297,13.5 H 24 Z"
     style="opacity:0.1;fill:#000000;fill-rule:evenodd"
     id="path6"
     inkscape:connector-curvature="0" />
  <path
     d="M 7.9707031 13 C 7.432912 13 7 13.401069 7 13.898438 L 7 16.101562 C 7 16.598931 7.432912 17 7.9707031 17 L 24 17 L 24 13 L 7.9707031 13 z "
     style="fill-rule:evenodd;fill:#4f8df5"
     id="path8" />
  <path
     d="m27 21c-0.554 0-1 0.446-1 1s0.446 1 1 1h12c0.554 0 1-0.446 1-1s-0.446-1-1-1h-12zm0 4c-0.554 0-1 0.446-1 1s0.446 1 1 1h12c0.554 0 1-0.446 1-1s-0.446-1-1-1h-12zm0 4c-0.554 0-1 0.446-1 1s0.446 1 1 1h12c0.554 0 1-0.446 1-1s-0.446-1-1-1h-12zm0 4c-0.554 0-1 0.446-1 1s0.446 1 1 1h5.455078l0.181641-2h-5.636719z"
     style="fill-rule:evenodd;fill:#000000;opacity:.3"
     id="path10" />
  <path
     d="m44 28h-10c-1.1046 0-2 0.89543-2 2v10l12-12z"
     style="fill:#fafafa"
     id="path12" />
  <rect
     transform="scale(-1)"
     x="-23"
     y="-37"
     width="16"
     height="16"
     rx="1.3333334"
     ry="1.3333334"
     style="fill-rule:evenodd;fill:#495ab9"
     id="rect14" />
  <path
     d="m 24,13 16.029258,0 C 40.567049,13 41,13.400409 41,13.897778 l 0,2.204444 C 41,16.599591 40.567049,17 40.029258,17 L 24,17 Z"
     style="fill-rule:evenodd;fill:#0fadf5"
     id="path16" />
  <path
     style="fill:#ffffff;opacity:.2"
     d="M 34 28 C 32.8954 28 32 28.89543 32 30 L 32 30.5 C 32 29.39543 32.8954 28.5 34 28.5 L 43.5 28.5 L 44 28 L 34 28 z "
     id="path18" />
  <path
     style="fill:#ffffff;opacity:.2"
     d="M 6 8 C 4.892 8 4 8.892 4 10 L 4 10.5 C 4 9.392 4.892 8.5 6 8.5 L 42 8.5 C 43.108 8.5 44 9.392 44 10.5 L 44 10 C 44 8.892 43.108 8 42 8 L 6 8 z "
     id="path20" />
  <path
     d="m 15.123047,23.5 c -2.3506,0 -4.448082,1.350312 -5.4687501,3.320312 C 9.2368435,27.630312 9,28.54 9,29.5 c 0,0.99 0.2524306,1.93 0.6933594,2.75 1.0339376,1.93 3.1076666,3.25 5.4296876,3.25 1.54223,0 2.92012,-0.579063 3.955078,-1.539062 C 20.266183,32.860936 21,31.27 21,29.5 c 0,-0.341227 -0.03194,-0.673963 -0.08398,-1 H 20 18.865234 15 v 2 h 3.867188 C 18.643496,31.366019 18.136,32.132076 17.425781,32.675781 A 4,4 0 0 1 15,33.5 4,4 0 0 1 11.294922,31.001953 4,4 0 0 1 11,29.5 4,4 0 0 1 11.28125,28.035156 4,4 0 0 1 15,25.5 a 4,4 0 0 1 2.691406,1.048828 l 1.457032,-1.449219 C 18.107354,24.109609 16.701,23.5 15.123047,23.5 Z"
     style="opacity:0.2;fill:#000000"
     id="path22"
     inkscape:connector-curvature="0" />
  <path
     d="M 15.123047 23 C 12.772447 23 10.674965 24.350312 9.6542969 26.320312 C 9.2368435 27.130312 9 28.04 9 29 C 9 29.99 9.2524306 30.93 9.6933594 31.75 C 10.727297 33.68 12.801026 35 15.123047 35 C 16.665277 35 18.043167 34.420937 19.078125 33.460938 C 20.266183 32.360936 21 30.77 21 29 C 21 28.658773 20.968056 28.326037 20.916016 28 L 20 28 L 18.865234 28 L 15 28 L 15 30 L 18.867188 30 C 18.643496 30.866019 18.136 31.632076 17.425781 32.175781 A 4 4 0 0 1 15 33 A 4 4 0 0 1 11.294922 30.501953 A 4 4 0 0 1 11 29 A 4 4 0 0 1 11.28125 27.535156 A 4 4 0 0 1 15 25 A 4 4 0 0 1 17.691406 26.048828 L 19.148438 24.599609 C 18.107354 23.609609 16.701 23 15.123047 23 z "
     style="fill:#ffffff"
     id="path24" />
</svg>
