<?xml version="1.0" encoding="UTF-8" standalone="no"?>
<svg
   xmlns:dc="http://purl.org/dc/elements/1.1/"
   xmlns:cc="http://creativecommons.org/ns#"
   xmlns:rdf="http://www.w3.org/1999/02/22-rdf-syntax-ns#"
   xmlns:svg="http://www.w3.org/2000/svg"
   xmlns="http://www.w3.org/2000/svg"
   xmlns:sodipodi="http://sodipodi.sourceforge.net/DTD/sodipodi-0.dtd"
   xmlns:inkscape="http://www.inkscape.org/namespaces/inkscape"
   width="48"
   height="48"
   version="1"
   id="svg24"
   sodipodi:docname="google_play_press.svg"
   inkscape:version="0.92.2 (unknown)">
  <metadata
     id="metadata30">
    <rdf:RDF>
      <cc:Work
         rdf:about="">
        <dc:format>image/svg+xml</dc:format>
        <dc:type
           rdf:resource="http://purl.org/dc/dcmitype/StillImage" />
      </cc:Work>
    </rdf:RDF>
  </metadata>
  <defs
     id="defs28" />
  <sodipodi:namedview
     pagecolor="#ffffff"
     bordercolor="#666666"
     borderopacity="1"
     objecttolerance="10"
     gridtolerance="10"
     guidetolerance="10"
     inkscape:pageopacity="0"
     inkscape:pageshadow="2"
     inkscape:window-width="1920"
     inkscape:window-height="1016"
     id="namedview26"
     showgrid="false"
     inkscape:zoom="14.94"
     inkscape:cx="24"
     inkscape:cy="24"
     inkscape:window-x="0"
     inkscape:window-y="34"
     inkscape:window-maximized="1"
     inkscape:current-layer="svg24" />
  <path
     d="m 4,38.5 c 0,1.108 0.892,2 2,2 h 36 c 1.108,0 2,-0.892 2,-2 v -28 c 0,-1.108 -0.892,-2 -2,-2 H 16 l -1,11 -11,1 z"
     style="opacity:0.2;fill:#000000"
     id="path2"
     inkscape:connector-curvature="0" />
  <path
     d="m4 38c0 1.108 0.892 2 2 2h36c1.108 0 2-0.892 2-2v-28c0-1.108-0.892-2-2-2h-26l-1 11-11 1z"
     style="fill:#6579ec"
     id="path4" />
  <path
     d="m 4,20.5 h 10 c 1.1046,0 2,-0.89543 2,-2 v -10 z"
     style="opacity:0.2;fill:#000000"
     id="path6"
     inkscape:connector-curvature="0" />
  <path
     d="m4 20h10c1.1046 0 2-0.89543 2-2v-10l-12 12z"
     style="fill:#93a1f1"
     id="path8" />
  <rect
     x="8"
     y="22"
     width="12"
     height="12"
     rx="1"
     ry="1"
     style="fill-rule:evenodd;fill:#000000;opacity:.4"
     id="rect10" />
  <rect
     x="22"
     y="14"
     width="18"
     height="4"
     rx="1"
     ry="1"
     style="fill-rule:evenodd;fill:#000000;opacity:.4"
     id="rect12" />
  <rect
     x="22"
     y="20"
     width="18"
     height="2"
     rx="1"
     ry="1"
     style="fill-rule:evenodd;fill:#000000;opacity:.4"
     id="rect14" />
  <rect
     x="22"
     y="23.999994"
     width="18"
     height="2"
     rx="1"
     ry="1"
     style="fill-rule:evenodd;fill:#000000;opacity:.4"
     id="rect16" />
  <rect
     x="22"
     y="28.000006"
     width="18"
     height="2"
     rx="1"
     ry="1"
     style="fill-rule:evenodd;fill:#000000;opacity:.4"
     id="rect18" />
  <rect
     x="22"
     y="32"
     width="18"
     height="2"
     rx="1"
     ry="1"
     style="fill-rule:evenodd;fill:#000000;opacity:.4"
     id="rect20" />
  <path
     style="fill:#ffffff;opacity:.2"
     d="M 16 8 L 16 8.5 L 42 8.5 C 43.108 8.5 44 9.392 44 10.5 L 44 10 C 44 8.892 43.108 8 42 8 L 16 8 z "
     id="path22" />
</svg>
