<?xml version="1.0" encoding="UTF-8" standalone="no"?>
<svg
   xmlns:dc="http://purl.org/dc/elements/1.1/"
   xmlns:cc="http://creativecommons.org/ns#"
   xmlns:rdf="http://www.w3.org/1999/02/22-rdf-syntax-ns#"
   xmlns:svg="http://www.w3.org/2000/svg"
   xmlns="http://www.w3.org/2000/svg"
   xmlns:sodipodi="http://sodipodi.sourceforge.net/DTD/sodipodi-0.dtd"
   xmlns:inkscape="http://www.inkscape.org/namespaces/inkscape"
   width="48"
   height="48"
   version="1"
   id="svg20"
   sodipodi:docname="google_carrier_services.svg"
   inkscape:version="0.92.2 (unknown)">
  <metadata
     id="metadata26">
    <rdf:RDF>
      <cc:Work
         rdf:about="">
        <dc:format>image/svg+xml</dc:format>
        <dc:type
           rdf:resource="http://purl.org/dc/dcmitype/StillImage" />
      </cc:Work>
    </rdf:RDF>
  </metadata>
  <defs
     id="defs24" />
  <sodipodi:namedview
     pagecolor="#ffffff"
     bordercolor="#666666"
     borderopacity="1"
     objecttolerance="10"
     gridtolerance="10"
     guidetolerance="10"
     inkscape:pageopacity="0"
     inkscape:pageshadow="2"
     inkscape:window-width="1920"
     inkscape:window-height="1016"
     id="namedview22"
     showgrid="false"
     inkscape:zoom="5.27"
     inkscape:cx="24"
     inkscape:cy="12.152153"
     inkscape:window-x="0"
     inkscape:window-y="34"
     inkscape:window-maximized="1"
     inkscape:current-layer="svg20" />
  <path
     d="M 23.5,3.5 C 21.007,3.5 19,5.507 19,8 v 4.5 h -9 c -1.662,0 -3,1.338 -3,3 v 9 h 4.5 c 2.493,0 4.5,2.007 4.5,4.5 0,2.493 -2.007,4.5 -4.5,4.5 H 7 v 9 c 0,1.662 1.338,3 3,3 h 27 c 1.662,0 3,-1.338 3,-3 v -27 c 0,-1.662 -1.338,-3 -3,-3 H 28 V 8 C 28,5.507 25.993,3.5 23.5,3.5 Z"
     style="opacity:0.2;fill:#000000"
     id="path2"
     inkscape:connector-curvature="0" />
  <path
     d="m23.5 3c-2.493 0-4.5 2.007-4.5 4.5v4.5h-4.8c-1.662 0-3.018466 1.338103-3 3l0.2886 7.629149 4.2114 1.370851c2.370573 0.771644 4.5 2.007 4.5 4.5s-2.007 4.5-4.5 4.5l-4.13925 1.298701-0.36075 7.701299c-0.07777 1.66018 1.338 3 3 3l2.525031-1.370851 13.209067-1.226552 5.0457 0.07215c1.66183 0.02376 1.862488 0.200917 2.63925-1.268398l1.298701-3.132938 0.50505-16.985388 0.577201-1.861192v-4.226831c0-1.662-1.338-3-3-3h-9v-4.5c0-2.493-2.007-4.5-4.5-4.5z"
     style="fill:#5e973d"
     id="path4" />
  <path
     style="fill:#ffffff;opacity:0.1"
     d="M 23.5 3 C 21.007 3 19 5.007 19 7.5 L 19 8 C 19 5.507 21.007 3.5 23.5 3.5 C 25.993 3.5 28 5.507 28 8 L 28 7.5 C 28 5.007 25.993 3 23.5 3 z M 14.199219 12 C 12.537219 12 11.180753 13.338103 11.199219 15 L 11.212891 15.355469 C 11.273663 13.76279 12.586815 12.5 14.199219 12.5 L 19 12.5 L 19 12 L 14.199219 12 z M 28 12 L 28 12.5 L 37 12.5 C 38.662 12.5 40 13.838 40 15.5 L 40 15 C 40 13.338 38.662 12 37 12 L 28 12 z M 20.181641 28.671875 C 20.089734 31.082593 18.133225 33 15.699219 33 L 11.560547 34.298828 L 11.199219 42 C 11.195832 42.0723 11.210715 42.139937 11.212891 42.210938 L 11.560547 34.798828 L 15.699219 33.5 C 18.192219 33.5 20.199219 31.493 20.199219 29 C 20.199219 28.88716 20.190191 28.779636 20.181641 28.671875 z "
     id="path833" />
  <path
     d="m31.070312 27.972656-17.029296 17.027344h22.958984c1.662 0 3-1.338 3-3v-5.097656l-8.929688-8.929688z"
     style="fill-rule:evenodd;fill:#d03c53"
     id="path6" />
  <path
     d="m10 12c-1.662 0-3 1.338-3 3v9h4.5c2.493 0 4.5 2.007 4.5 4.5s-2.007 4.5-4.5 4.5h-4.5v9c0 1.662 1.338 3 3 3h4.041016l17.029296-17.027344-15.972656-15.972656h-5.097656z"
     style="fill-rule:evenodd;fill:#2fc0bc"
     id="path10" />
  <path
     d="m40 19.041016-8.929688 8.93164 8.929688 8.929688v-17.861328z"
     style="fill-rule:evenodd;fill:#ff9243"
     id="path12" />
  <path
     style="fill-rule:evenodd;fill:#ffffff;opacity:.2"
     d="M 40 19.041016 L 31.070312 27.972656 L 31.320312 28.222656 L 40 19.541016 L 40 19.041016 z "
     id="path16" />
  <path
     style="fill-rule:evenodd;fill:#000000;opacity:.2"
     d="M 31.070312 27.972656 L 30.570312 28.472656 L 14.041016 45 L 14.541016 45 L 30.570312 28.972656 L 31.070312 28.472656 L 40 37.402344 L 40 36.902344 L 31.070312 27.972656 z "
     id="path18" />
  <path
     style="fill-rule:evenodd;fill:#ffffff;opacity:0.2"
     d="M 10 12 C 8.338 12 7 13.338 7 15 L 7 15.5 C 7 13.838 8.338 12.5 10 12.5 L 15.097656 12.5 L 30.820312 28.222656 L 31.070312 27.972656 L 15.097656 12 L 10 12 z M 15.974609 28.75 C 15.842978 31.12318 13.907215 33 11.5 33 L 7 33 L 7 33.5 L 11.5 33.5 C 13.993 33.5 16 31.493 16 29 C 16 28.914215 15.9793 28.834572 15.974609 28.75 z "
     id="path838" />
</svg>
