<svg xmlns="http://www.w3.org/2000/svg" width="48" height="48" version="1.1">
 <g>
  <path style="opacity:0.2" d="M 21.751615,6.0961987 4.517996,35.665533 c -0.727783,1.263216 -0.659585,2.393625 0.0225,3.080796 C 5.017986,39.233998 5.790969,39.5 6.791347,39.5 h 34.400238 c 1.000378,0 1.773361,-0.288159 2.25085,-0.753642 0.704815,-0.709318 0.773023,-1.817579 0.02274,-3.081087 L 26.230556,6.0959357 c -1.227773,-2.1279149 -3.228528,-2.1279149 -4.479001,0 z"/>
  <path style="fill:#008fd7" d="m21.751615 5.5961987-17.233619 29.569334c-0.727783 1.263216-0.659585 2.393625 0.0225 3.080796 0.47749 0.487669 1.250473 0.753671 2.250851 0.753671h34.400238c1.000378 0 1.773361-0.288159 2.25085-0.753642 0.704815-0.709318 0.773023-1.817579 0.02274-3.081087l-17.234619-29.569335c-1.227773-2.1279149-3.228528-2.1279149-4.479001 0z"/>
  <path style="fill:#ffffff;opacity:0.2" d="m41.191585 39c1.000378 0 1.773361-0.288159 2.25085-0.753642 0.704815-0.709318 0.773023-1.817579 0.02274-3.081087l-17.234619-29.569335c-0.630961-1.0935508-1.398047-1.625118-2.230556-1.5947015v34.998765h17.191585z"/>
  <path style="opacity:0.2;fill-rule:evenodd" d="M 24,16.5 9,43.548828 10.183594,44.5 24,39.5 37.816406,44.5 39,43.548828 Z"/>
  <path style="fill-rule:evenodd;fill:#e4e4e4" d="M 24,16 9,43.048828 10.183594,44 24,39 37.816406,44 39,43.048828 Z"/>
  <path style="fill-rule:evenodd;opacity:0.1" d="m24 16v23l13.816406 5 1.183594-0.951172z"/>
  <path style="fill:#ffffff;opacity:0.2" d="M 24 4 C 23.190031 4 22.37719 4.5317457 21.751953 5.5957031 L 4.5175781 35.166016 C 4.1088322 35.875477 3.9673473 36.535311 4.0292969 37.105469 C 4.0741512 36.659443 4.2233173 36.176765 4.5175781 35.666016 L 21.751953 6.0957031 C 22.37719 5.0317457 23.190031 4.5 24 4.5 C 24.809969 4.5 25.616582 5.0317457 26.230469 6.0957031 L 43.464844 35.666016 C 43.768581 36.177524 43.922752 36.65611 43.96875 37.099609 C 44.033443 36.53105 43.886979 35.876908 43.464844 35.166016 L 26.230469 5.5957031 C 25.616582 4.5317457 24.809969 4 24 4 z"/>
  <path style="fill-rule:evenodd;fill:#ffffff;opacity:0.2" d="M 24 16 L 9 43.048828 L 9.1914062 43.203125 L 24 16.5 L 38.808594 43.203125 L 39 43.048828 L 24 16 z"/>
 </g>
</svg>
