<?xml version="1.0" encoding="UTF-8" standalone="no"?>
<svg
   width="192"
   height="192"
   version="1"
   id="svg41"
   sodipodi:docname="google_chrome_remote_desktop.svg"
   inkscape:version="1.1-rc (1:1.1+rc+202105232036+f4db50c7c1)"
   xmlns:inkscape="http://www.inkscape.org/namespaces/inkscape"
   xmlns:sodipodi="http://sodipodi.sourceforge.net/DTD/sodipodi-0.dtd"
   xmlns="http://www.w3.org/2000/svg"
   xmlns:svg="http://www.w3.org/2000/svg"
   xmlns:rdf="http://www.w3.org/1999/02/22-rdf-syntax-ns#"
   xmlns:cc="http://creativecommons.org/ns#"
   xmlns:dc="http://purl.org/dc/elements/1.1/">
  <metadata
     id="metadata45">
    <rdf:RDF>
      <cc:Work
         rdf:about="">
        <dc:format>image/svg+xml</dc:format>
        <dc:type
           rdf:resource="http://purl.org/dc/dcmitype/StillImage" />
      </cc:Work>
    </rdf:RDF>
  </metadata>
  <sodipodi:namedview
     pagecolor="#ffffff"
     bordercolor="#666666"
     borderopacity="1"
     objecttolerance="10"
     gridtolerance="10"
     guidetolerance="10"
     inkscape:pageopacity="0"
     inkscape:pageshadow="2"
     inkscape:window-width="1920"
     inkscape:window-height="1014"
     id="namedview43"
     showgrid="false"
     inkscape:zoom="2.86"
     inkscape:cx="95.979021"
     inkscape:cy="96.678322"
     inkscape:window-x="0"
     inkscape:window-y="34"
     inkscape:window-maximized="1"
     inkscape:current-layer="svg41"
     inkscape:pagecheckerboard="0"
     inkscape:snap-bbox="true"
     inkscape:snap-bbox-midpoints="true">
    <inkscape:grid
       type="xygrid"
       id="grid1195" />
  </sodipodi:namedview>
  <defs
     id="defs7">
    <filter
       inkscape:collect="always"
       style="color-interpolation-filters:sRGB"
       id="filter1922"
       x="-0.054000002"
       y="-0.043200002"
       width="1.108"
       height="1.0864">
      <feGaussianBlur
         inkscape:collect="always"
         stdDeviation="2.16"
         id="feGaussianBlur1924" />
    </filter>
    <filter
       inkscape:collect="always"
       style="color-interpolation-filters:sRGB"
       id="filter1926"
       x="-0.054000002"
       y="-0.043200002"
       width="1.108"
       height="1.0864">
      <feGaussianBlur
         inkscape:collect="always"
         stdDeviation="2.16"
         id="feGaussianBlur1928" />
    </filter>
  </defs>
  <rect
     id="rect1882"
     transform="matrix(0,-1,-1,0,0,0)"
     ry="6"
     rx="6"
     y="-176"
     x="-132"
     height="120"
     width="96"
     style="opacity:0.2;fill:#000000;fill-opacity:1;stroke-width:3;filter:url(#filter1922)" />
  <rect
     id="rect1197"
     transform="matrix(0,-1,-1,0,0,0)"
     ry="6"
     rx="6"
     y="-176"
     x="-128"
     height="120"
     width="96"
     style="fill:#6d6d6d;fill-opacity:1;stroke-width:3" />
  <rect
     id="rect1199"
     transform="matrix(0,-1,-1,0,0,0)"
     ry="0"
     rx="0"
     y="-167"
     x="-119"
     height="102"
     width="78"
     style="fill:#ffffff;stroke-width:3" />
  <rect
     id="rect1884"
     transform="matrix(0,-1,-1,0,0,0)"
     ry="6"
     rx="6"
     y="-136"
     x="-163"
     height="120"
     width="96"
     style="opacity:0.2;fill:#000000;fill-opacity:1;stroke-width:3;filter:url(#filter1926)" />
  <rect
     id="rect11"
     transform="matrix(0,-1,-1,0,0,0)"
     ry="6"
     rx="6"
     y="-136"
     x="-159"
     height="120"
     width="96"
     style="fill:#a5a5a5;fill-opacity:1;stroke-width:3" />
  <rect
     id="rect13"
     transform="matrix(0,-1,-1,0,0,0)"
     ry="0"
     rx="0"
     y="-127"
     x="-150"
     height="102"
     width="78"
     style="fill:#ffffff;stroke-width:3" />
  <path
     id="path1409"
     style="fill:#dd4d3e;stroke-width:2"
     d="m 75.9375,109 c -14.011766,0 -26.261415,7.18404 -33.386719,18.05273 -0.173393,11.21595 4.68007,17.4001 10.169922,22.94727 h 5.277344 c -0.01926,-0.33783 -0.0332,-0.67814 -0.0332,-1.02148 0,-9.96677 8.077312,-12.88397 17.972656,-13.99219 l 35.695307,-3.99805 C 105.08064,117.91634 91.59799,109 75.9375,109 Z" />
  <path
     id="path1411"
     style="fill:#109f5b;stroke-width:2"
     d="M 42.564453,127.14453 C 38.107245,133.92366 35.827839,141.91205 36.015625,150 h 19.732422 z" />
  <path
     id="path1413"
     style="fill:#ffce41;stroke-width:2"
     d="m 111.71289,131.00586 -35.173828,0.0137 c 2.896052,0.0784 5.801338,0.82944 8.496094,2.38672 4.608282,2.6632 4.176043,7.92469 5.195313,12.73437 0.282634,1.3336 0.755898,2.6085 1.201172,3.85938 h 24.552739 c 0.15944,-6.59421 -1.31927,-13.12659 -4.27149,-18.99414 z" />
  <path
     id="rect1417"
     style="fill:#ffffff;stroke-width:2"
     d="m 76,131 c -9.972,0 -18,8.028 -18,18 0,0.33617 0.01128,0.66848 0.0293,1 H 93.970703 C 93.988717,149.66848 94,149.33617 94,149 94,139.028 85.972,131 76,131 Z" />
  <path
     id="rect1419"
     style="fill:#4587f3;stroke-width:2"
     d="m 76,135 c -7.756,0 -14,6.244 -14,14 0,0.33667 0.01592,0.66941 0.03906,1 H 89.960938 C 89.984081,149.66941 90,149.33667 90,149 90,141.244 83.756,135 76,135 Z" />
  <path
     id="rect1930"
     style="fill:#ffffff;fill-opacity:1;stroke-width:3;opacity:0.1"
     d="M 62 32 C 58.676 32 56 34.676 56 38 L 56 39 C 56 35.676 58.676 33 62 33 L 170 33 C 173.324 33 176 35.676 176 39 L 176 38 C 176 34.676 173.324 32 170 32 L 62 32 z " />
</svg>
