<?xml version="1.0" encoding="UTF-8" standalone="no"?>
<svg
   width="192"
   height="192"
   preserveAspectRatio="xMidYMid"
   version="1.1"
   id="svg18"
   sodipodi:docname="google_gmail_go.svg"
   inkscape:version="1.1-rc (1:1.1+rc+202105232036+f4db50c7c1)"
   xmlns:inkscape="http://www.inkscape.org/namespaces/inkscape"
   xmlns:sodipodi="http://sodipodi.sourceforge.net/DTD/sodipodi-0.dtd"
   xmlns="http://www.w3.org/2000/svg"
   xmlns:svg="http://www.w3.org/2000/svg"
   xmlns:rdf="http://www.w3.org/1999/02/22-rdf-syntax-ns#"
   xmlns:cc="http://creativecommons.org/ns#"
   xmlns:dc="http://purl.org/dc/elements/1.1/">
  <metadata
     id="metadata24">
    <rdf:RDF>
      <cc:Work
         rdf:about="">
        <dc:format>image/svg+xml</dc:format>
        <dc:type
           rdf:resource="http://purl.org/dc/dcmitype/StillImage" />
      </cc:Work>
    </rdf:RDF>
  </metadata>
  <defs
     id="defs22">
    <filter
       inkscape:collect="always"
       style="color-interpolation-filters:sRGB"
       id="filter870"
       x="-0.037360547"
       width="1.0747211"
       y="-0.067112008"
       height="1.134224">
      <feGaussianBlur
         inkscape:collect="always"
         stdDeviation="2.4907031"
         id="feGaussianBlur872" />
    </filter>
    <filter
       inkscape:collect="always"
       style="color-interpolation-filters:sRGB"
       id="filter886"
       x="-0.03763572"
       width="1.0752714"
       y="-0.06624199"
       height="1.132484">
      <feGaussianBlur
         inkscape:collect="always"
         stdDeviation="2.5090481"
         id="feGaussianBlur888" />
    </filter>
    <filter
       inkscape:collect="always"
       style="color-interpolation-filters:sRGB"
       id="filter2494"
       x="-0.048000002"
       y="-0.048000002"
       width="1.096"
       height="1.096">
      <feGaussianBlur
         inkscape:collect="always"
         stdDeviation="1.2"
         id="feGaussianBlur2496" />
    </filter>
  </defs>
  <sodipodi:namedview
     pagecolor="#ffffff"
     bordercolor="#666666"
     borderopacity="1"
     objecttolerance="10"
     gridtolerance="10"
     guidetolerance="10"
     inkscape:pageopacity="0"
     inkscape:pageshadow="2"
     inkscape:window-width="1920"
     inkscape:window-height="1019"
     id="namedview20"
     showgrid="false"
     inkscape:zoom="1"
     inkscape:cx="98.5"
     inkscape:cy="84.5"
     inkscape:window-x="0"
     inkscape:window-y="34"
     inkscape:window-maximized="1"
     inkscape:current-layer="svg18"
     inkscape:pagecheckerboard="0"
     inkscape:snap-bbox="true"
     inkscape:snap-bbox-midpoints="true"
     showguides="false">
    <inkscape:grid
       type="xygrid"
       id="grid833" />
  </sodipodi:namedview>
  <path
     style="opacity:0.2;stroke-width:4;filter:url(#filter870)"
     d="M 16,70.929688 V 149.09375 C 16,155.11954 20.829875,160 26.796875,160 H 52 V 98.195312 Z M 176,70.929688 140,98.195312 V 160 H 165.20312 C 171.17013,160 176,155.11955 176,149.09375 Z"
     id="path2"
     inkscape:connector-curvature="0" />
  <path
     style="fill:#4285f4;stroke-width:4"
     d="M 26.8,156 H 52 V 94.19696 L 16,66.930912 V 145.09358 C 16,151.11938 20.833,156 26.8,156 Z"
     id="path4-3"
     inkscape:connector-curvature="0" />
  <path
     style="fill:#34a853;stroke-width:4"
     d="M 140,156 H 165.2 C 171.167,156 176,151.11938 176,145.09358 V 66.930912 L 140,94.19696 Z"
     id="path6-6"
     inkscape:connector-curvature="0" />
  <path
     style="opacity:0.2;stroke-width:4;filter:url(#filter886)"
     d="M 31.171875,40.040816 C 23.199256,40.59134 16,47.1259 16,56.392376 V 70.93144 L 52,98.197064 96,130.908 140,98.197064 176,70.93144 V 56.392376 C 176,42.913864 160.76112,35.217512 150.07812,43.30644 L 140,50.939252 96,83.634564 52,50.939252 41.921876,43.30644 C 38.583436,40.778648 34.795793,39.790576 31.171875,40.040816 Z"
     id="path8-7"
     inkscape:connector-curvature="0" />
  <path
     style="fill:#fbbc04;stroke-width:4"
     d="M 140,46.935808 V 94.19696 L 176,66.930912 V 52.389016 C 176,38.910501 160.763,31.212387 150.08,39.301314 Z"
     id="path10-5"
     inkscape:connector-curvature="0" />
  <path
     style="fill:#ea4335;stroke-width:4"
     d="M 52,94.19696 V 46.935808 L 96,79.636364 140,46.935808 V 94.19696 L 96,126.90909 Z"
     id="path12-3"
     inkscape:connector-curvature="0" />
  <path
     style="fill:#c5221f;stroke-width:4"
     d="M 16,52.389016 V 66.930912 L 52,94.19696 V 46.935808 L 41.920004,39.301314 C 31.237,31.212387 16,38.910501 16,52.389016 Z"
     id="path14-5"
     inkscape:connector-curvature="0" />
  <path
     style="opacity:0.2;fill:#ffffff;stroke-width:4"
     d="M 32.537109 36.003906 C 32.0802 35.9959 31.624865 36.007783 31.171875 36.039062 C 23.199256 36.589588 16 43.124149 16 52.390625 L 16 53.390625 C 16 44.124149 23.199256 37.589588 31.171875 37.039062 C 34.795792 36.788825 38.583434 37.776897 41.921875 40.304688 L 52 47.9375 L 96 80.632812 L 140 47.9375 L 150.07812 40.304688 C 160.76112 32.21576 176 39.912113 176 53.390625 L 176 52.390625 C 176 38.912113 160.76112 31.21576 150.07812 39.304688 L 140 46.9375 L 96 79.632812 L 52 46.9375 L 41.921875 39.304688 C 39.000739 37.092871 35.735472 36.05995 32.537109 36.003906 z "
     id="path16" />
  <circle
     style="opacity:0.2;fill:#000000;fill-opacity:1;stroke-width:10.1978;stroke-linecap:round;stroke-linejoin:round;filter:url(#filter2494)"
     id="circle2456"
     cx="96"
     cy="100"
     r="30" />
  <circle
     style="fill:#fc8014;fill-opacity:1;stroke-width:10.1978;stroke-linecap:round;stroke-linejoin:round"
     id="path857"
     cx="96"
     cy="98"
     r="30" />
  <path
     id="path2179"
     style="font-size:28.2559px;line-height:1.25;font-family:Roboto;-inkscape-font-specification:Roboto;fill:#ffffff;fill-opacity:1;stroke-width:0.821026"
     d="M 106.99219 86 C 104.33805 86 102.17622 87.004929 100.50586 89.015625 C 98.835493 91.015628 98 93.764391 98 97.261719 L 98 98.738281 C 98 102.24631 98.840875 104.99999 100.52148 107 C 102.20211 109.00001 104.36931 110 107.02344 110 C 109.74933 110 111.92532 109.00001 113.55469 107 C 115.18407 104.99999 116 102.24631 116 98.738281 L 116 97.070312 C 115.9693 93.63716 115.13377 90.9347 113.49414 88.966797 C 111.86476 86.988177 109.69758 86 106.99219 86 z M 106.99219 88 C 109.20456 88 110.92585 88.78719 112.15625 90.361328 C 113.38666 91.935465 114 94.204159 114 97.169922 L 114 98.779297 C 114 101.76787 113.39239 104.05311 112.17383 105.63867 C 110.96707 107.2128 109.25155 108 107.02734 108 C 104.90963 108 103.2056 107.2128 101.91602 105.63867 C 100.6383 104.05311 100 101.76787 100 98.779297 L 100 97.169922 C 100 94.204159 100.63057 91.935464 101.89648 90.361328 C 103.17419 88.787189 104.87449 88 106.99219 88 z " />
  <path
     id="path2246"
     style="font-size:28.2559px;line-height:1.25;font-family:Roboto;-inkscape-font-specification:Roboto;fill:#ffffff;fill-opacity:1;stroke-width:0.821026"
     d="M 84.992188 86 C 82.338048 86 80.176219 87.004929 78.505859 89.015625 C 76.835492 91.015628 76 93.764391 76 97.261719 L 76 98.738281 C 76 102.24631 76.840879 104.99999 78.521484 107 C 80.202114 109.00001 82.369308 110 85.023438 110 C 87.749328 110 89.925318 109.00001 91.554688 107 C 93.184067 104.99999 94 102.24631 94 98.738281 L 94 98 L 93 98 L 92 98 L 86 98 L 86 100 L 91.960938 100 C 91.813708 102.39694 91.220591 104.27665 90.173828 105.63867 C 88.967068 107.2128 87.251554 108 85.027344 108 C 82.909634 108 81.205596 107.2128 79.916016 105.63867 C 78.638296 104.05311 78 101.76787 78 98.779297 L 78 97.169922 C 78 94.204159 78.630574 91.935464 79.896484 90.361328 C 81.174194 88.787189 82.874488 88 84.992188 88 C 87.204556 88 88.92585 88.78719 90.15625 90.361328 C 90.726557 91.090956 91.163216 91.971683 91.46875 93 L 93.501953 93 C 93.088955 91.422235 92.419454 90.077369 91.494141 88.966797 C 89.864761 86.988177 87.697577 86 84.992188 86 z " />
</svg>
