<?xml version="1.0" encoding="UTF-8" standalone="no"?>
<svg
   width="192"
   height="192"
   version="1"
   id="svg40"
   sodipodi:docname="google_input_korean.svg"
   inkscape:version="1.1-rc (1:1.1+rc+202105232036+f4db50c7c1)"
   xmlns:inkscape="http://www.inkscape.org/namespaces/inkscape"
   xmlns:sodipodi="http://sodipodi.sourceforge.net/DTD/sodipodi-0.dtd"
   xmlns="http://www.w3.org/2000/svg"
   xmlns:svg="http://www.w3.org/2000/svg"
   xmlns:rdf="http://www.w3.org/1999/02/22-rdf-syntax-ns#"
   xmlns:cc="http://creativecommons.org/ns#"
   xmlns:dc="http://purl.org/dc/elements/1.1/">
  <metadata
     id="metadata46">
    <rdf:RDF>
      <cc:Work
         rdf:about="">
        <dc:format>image/svg+xml</dc:format>
        <dc:type
           rdf:resource="http://purl.org/dc/dcmitype/StillImage" />
      </cc:Work>
    </rdf:RDF>
  </metadata>
  <defs
     id="defs44">
    <filter
       inkscape:collect="always"
       style="color-interpolation-filters:sRGB"
       id="filter4762"
       x="-0.061647056"
       y="-0.039299998"
       width="1.1232941"
       height="1.0786">
      <feGaussianBlur
         inkscape:collect="always"
         stdDeviation="2.62"
         id="feGaussianBlur4764" />
    </filter>
    <filter
       inkscape:collect="always"
       style="color-interpolation-filters:sRGB"
       id="filter4804"
       x="-0.052595742"
       y="-0.044142856"
       width="1.1051915"
       height="1.0882857">
      <feGaussianBlur
         inkscape:collect="always"
         stdDeviation="2.06"
         id="feGaussianBlur4806" />
    </filter>
    <filter
       inkscape:collect="always"
       style="color-interpolation-filters:sRGB"
       id="filter4895"
       x="-0.03722034"
       y="-0.067569232"
       width="1.0744407"
       height="1.1351385">
      <feGaussianBlur
         inkscape:collect="always"
         stdDeviation="1.83"
         id="feGaussianBlur4897" />
    </filter>
    <filter
       inkscape:collect="always"
       style="color-interpolation-filters:sRGB"
       id="filter2273"
       x="-0.135"
       y="-0.090000002"
       width="1.27"
       height="1.18">
      <feGaussianBlur
         inkscape:collect="always"
         stdDeviation="2.7"
         id="feGaussianBlur2275" />
    </filter>
  </defs>
  <sodipodi:namedview
     pagecolor="#ffffff"
     bordercolor="#666666"
     borderopacity="1"
     objecttolerance="10"
     gridtolerance="10"
     guidetolerance="10"
     inkscape:pageopacity="0"
     inkscape:pageshadow="2"
     inkscape:window-width="1920"
     inkscape:window-height="1019"
     id="namedview42"
     showgrid="false"
     inkscape:zoom="2.32"
     inkscape:cx="49.353448"
     inkscape:cy="116.59483"
     inkscape:window-x="0"
     inkscape:window-y="34"
     inkscape:window-maximized="1"
     inkscape:current-layer="svg40"
     inkscape:document-rotation="0"
     inkscape:snap-bbox="true"
     inkscape:snap-bbox-midpoints="true"
     inkscape:pagecheckerboard="0">
    <inkscape:grid
       type="xygrid"
       id="grid870" />
  </sodipodi:namedview>
  <rect
     id="rect4724"
     transform="matrix(0,-1,-1,0,0,-0.99999987)"
     ry="10"
     rx="10"
     y="-176"
     x="-180"
     height="160"
     width="102"
     style="opacity:0.2;fill:#000000;fill-opacity:1;stroke-width:4.34613;filter:url(#filter4762)" />
  <rect
     id="rect4"
     transform="matrix(0,-1,-1,0,0,0)"
     ry="10"
     rx="10"
     y="-176"
     x="-176"
     height="160"
     width="102"
     style="fill:#4588f3;fill-opacity:1;stroke-width:4.34613" />
  <path
     id="rect4899"
     style="opacity:0.2;fill:#ffffff;fill-opacity:1;stroke-width:4.34613"
     d="m 26,74 c -5.54,0 -10,4.46 -10,10 v 1 c 0,-5.54 4.46,-10 10,-10 h 140 c 5.54,0 10,4.46 10,10 v -1 c 0,-5.54 -4.46,-10 -10,-10 z" />
  <path
     id="path4857"
     style="opacity:0.2;fill:#000000;fill-opacity:1;stroke-width:7.73578;stroke-linejoin:round;filter:url(#filter4895);stop-color:#000000"
     d="m 39,98 c -1.108,0 -2,0.892 -2,2 v 10 c 0,1.108 0.892,2 2,2 h 10 c 1.108,0 2,-0.892 2,-2 v -10 c 0,-1.108 -0.892,-2 -2,-2 z m 26,0 c -1.108,0 -2,0.892 -2,2 v 10 c 0,1.108 0.892,2 2,2 h 10 c 1.108,0 2,-0.892 2,-2 v -10 c 0,-1.108 -0.892,-2 -2,-2 z m 26,0 c -1.108,0 -2,0.892 -2,2 v 10 c 0,1.108 0.892,2 2,2 h 10 c 1.108,0 2,-0.892 2,-2 v -10 c 0,-1.108 -0.892,-2 -2,-2 z m 26,0 c -1.108,0 -2,0.892 -2,2 v 10 c 0,1.108 0.892,2 2,2 h 10 c 1.108,0 2,-0.892 2,-2 v -10 c 0,-1.108 -0.892,-2 -2,-2 z m 26,0 c -1.108,0 -2,0.892 -2,2 v 10 c 0,1.108 0.892,2 2,2 h 10 c 1.108,0 2,-0.892 2,-2 v -10 c 0,-1.108 -0.892,-2 -2,-2 z M 39,124 c -1.108,0 -2,0.892 -2,2 v 10 c 0,1.108 0.892,2 2,2 h 10 c 1.108,0 2,-0.892 2,-2 v -10 c 0,-1.108 -0.892,-2 -2,-2 z m 26,0 c -1.108,0 -2,0.892 -2,2 v 10 c 0,1.108 0.892,2 2,2 h 10 c 1.108,0 2,-0.892 2,-2 v -10 c 0,-1.108 -0.892,-2 -2,-2 z m 26,0 c -1.108,0 -2,0.892 -2,2 v 10 c 0,1.108 0.892,2 2,2 h 10 c 1.108,0 2,-0.892 2,-2 v -10 c 0,-1.108 -0.892,-2 -2,-2 z m 26,0 c -1.108,0 -2,0.892 -2,2 v 10 c 0,1.108 0.892,2 2,2 h 10 c 1.108,0 2,-0.892 2,-2 v -10 c 0,-1.108 -0.892,-2 -2,-2 z m 26,0 c -1.108,0 -2,0.892 -2,2 v 10 c 0,1.108 0.892,2 2,2 h 10 c 1.108,0 2,-0.892 2,-2 v -10 c 0,-1.108 -0.892,-2 -2,-2 z M 54.984375,149 C 53.884791,149 53,149.83255 53,150.86719 v 10.26562 C 53,162.16745 53.884791,163 54.984375,163 H 137.01562 C 138.11521,163 139,162.16745 139,161.13281 V 150.86719 C 139,149.83255 138.11521,149 137.01562,149 Z" />
  <path
     id="rect1763"
     style="fill:#a5c5f8;fill-opacity:1;stroke-width:7.73578;stroke-linejoin:round;stop-color:#000000"
     d="m 39,96 c -1.108,0 -2,0.892 -2,2 v 10 c 0,1.108 0.892,2 2,2 h 10 c 1.108,0 2,-0.892 2,-2 V 98 c 0,-1.108 -0.892,-2 -2,-2 z m 26,0 c -1.108,0 -2,0.892 -2,2 v 10 c 0,1.108 0.892,2 2,2 h 10 c 1.108,0 2,-0.892 2,-2 V 98 c 0,-1.108 -0.892,-2 -2,-2 z m 26,0 c -1.108,0 -2,0.892 -2,2 v 10 c 0,1.108 0.892,2 2,2 h 10 c 1.108,0 2,-0.892 2,-2 V 98 c 0,-1.108 -0.892,-2 -2,-2 z m 26,0 c -1.108,0 -2,0.892 -2,2 v 10 c 0,1.108 0.892,2 2,2 h 10 c 1.108,0 2,-0.892 2,-2 V 98 c 0,-1.108 -0.892,-2 -2,-2 z m 26,0 c -1.108,0 -2,0.892 -2,2 v 10 c 0,1.108 0.892,2 2,2 h 10 c 1.108,0 2,-0.892 2,-2 V 98 c 0,-1.108 -0.892,-2 -2,-2 z M 39,122 c -1.108,0 -2,0.892 -2,2 v 10 c 0,1.108 0.892,2 2,2 h 10 c 1.108,0 2,-0.892 2,-2 v -10 c 0,-1.108 -0.892,-2 -2,-2 z m 26,0 c -1.108,0 -2,0.892 -2,2 v 10 c 0,1.108 0.892,2 2,2 h 10 c 1.108,0 2,-0.892 2,-2 v -10 c 0,-1.108 -0.892,-2 -2,-2 z m 26,0 c -1.108,0 -2,0.892 -2,2 v 10 c 0,1.108 0.892,2 2,2 h 10 c 1.108,0 2,-0.892 2,-2 v -10 c 0,-1.108 -0.892,-2 -2,-2 z m 26,0 c -1.108,0 -2,0.892 -2,2 v 10 c 0,1.108 0.892,2 2,2 h 10 c 1.108,0 2,-0.892 2,-2 v -10 c 0,-1.108 -0.892,-2 -2,-2 z m 26,0 c -1.108,0 -2,0.892 -2,2 v 10 c 0,1.108 0.892,2 2,2 h 10 c 1.108,0 2,-0.892 2,-2 v -10 c 0,-1.108 -0.892,-2 -2,-2 z M 54.984375,147 C 53.884791,147 53,147.83255 53,148.86719 v 10.26562 C 53,160.16745 53.884791,161 54.984375,161 H 137.01562 C 138.11521,161 139,160.16745 139,159.13281 V 148.86719 C 139,147.83255 138.11521,147 137.01562,147 Z" />
  <path
     id="path4766"
     style="opacity:0.2;fill:#000000;fill-opacity:1;stroke-width:8.02336;stroke-linejoin:round;filter:url(#filter4804);stop-color:#000000"
     d="M 60.000507,18 C 48.715193,18 49.000662,28 49.000662,28 v 57.679688 c 0,0 1.012232,5.369241 6.410066,10.033203 L 96,130 136.58927,95.712891 c 5.39783,-4.663962 6.41007,-10.033203 6.41007,-10.033203 V 28 c 0,0 0.28546,-10 -10.99985,-10 H 96 Z" />
  <path
     id="rect2286"
     style="fill:#17d36e;fill-opacity:1;stroke-width:8.02336;stroke-linejoin:round;stop-color:#000000"
     d="M 60.000507,16 C 48.715193,16 49.000662,26 49.000662,26 v 57.679688 c 0,0 1.012232,5.369241 6.410066,10.033203 L 96,128 136.58927,93.712891 c 5.39783,-4.663962 6.41007,-10.033203 6.41007,-10.033203 V 26 c 0,0 0.28546,-10 -10.99985,-10 H 96 Z" />
  <path
     id="path4901"
     style="opacity:0.2;fill:#ffffff;fill-opacity:1;stroke-width:8.02336;stroke-linejoin:round;stop-color:#000000"
     d="M 60,16 C 48.714686,16 49,26 49,26 v 1 c 0,0 -0.285314,-10 11,-10 h 36 36 c 11.28531,0 11,10 11,10 v -1 c 0,0 0.28531,-10 -11,-10 H 96 Z" />
  <path
     id="path2235"
     style="opacity:0.2;fill:#000000;fill-opacity:1;stroke-width:4;filter:url(#filter2273)"
     d="m 80,34 v 8 h 32 v -8 z m -8,12 v 8 h 48 V 46 Z M 96.000001,58 A 20,16 0 0 0 76,74 20,16 0 0 0 96.000001,90 20,16 0 0 0 116,74 20,16 0 0 0 96.000001,58 Z m 0,8 A 12,8 0 0 1 108,74 12,8 0 0 1 96.000001,82 12,8 0 0 1 84,74 12,8 0 0 1 96.000001,66 Z m -2.96289,28 C 89.909587,96.947094 87.563981,100.21106 86,103.78906 L 94.207031,106 c 1.56216,-3.78956 3.78031,-7.15839 6.646489,-10.105469 L 93.039061,94 Z" />
  <path
     id="path34"
     style="fill:#ffffff;stroke-width:4;fill-opacity:1"
     d="m 80,32 v 8 h 32 v -8 z m -8,12 v 8 h 48 V 44 Z M 96.000001,56 A 20,16 0 0 0 76,72 20,16 0 0 0 96.000001,88 20,16 0 0 0 116,72 20,16 0 0 0 96.000001,56 Z m 0,8 A 12,8 0 0 1 108,72 12,8 0 0 1 96.000001,80 12,8 0 0 1 84,72 12,8 0 0 1 96.000001,64 Z m -2.96289,28 C 89.909587,94.947094 87.563981,98.21106 86,101.78906 L 94.207031,104 c 1.56216,-3.78956 3.78031,-7.15839 6.646489,-10.105469 L 93.039061,92 Z" />
</svg>
