<?xml version="1.0" encoding="UTF-8" standalone="no"?>
<svg
   xmlns:dc="http://purl.org/dc/elements/1.1/"
   xmlns:cc="http://creativecommons.org/ns#"
   xmlns:rdf="http://www.w3.org/1999/02/22-rdf-syntax-ns#"
   xmlns:svg="http://www.w3.org/2000/svg"
   xmlns="http://www.w3.org/2000/svg"
   xmlns:sodipodi="http://sodipodi.sourceforge.net/DTD/sodipodi-0.dtd"
   xmlns:inkscape="http://www.inkscape.org/namespaces/inkscape"
   width="48"
   height="48"
   version="1"
   id="svg10"
   sodipodi:docname="google_help.svg"
   inkscape:version="0.92.2 (unknown)">
  <metadata
     id="metadata16">
    <rdf:RDF>
      <cc:Work
         rdf:about="">
        <dc:format>image/svg+xml</dc:format>
        <dc:type
           rdf:resource="http://purl.org/dc/dcmitype/StillImage" />
      </cc:Work>
    </rdf:RDF>
  </metadata>
  <defs
     id="defs14" />
  <sodipodi:namedview
     pagecolor="#ffffff"
     bordercolor="#666666"
     borderopacity="1"
     objecttolerance="10"
     gridtolerance="10"
     guidetolerance="10"
     inkscape:pageopacity="0"
     inkscape:pageshadow="2"
     inkscape:window-width="1920"
     inkscape:window-height="1016"
     id="namedview12"
     showgrid="false"
     inkscape:zoom="11.33"
     inkscape:cx="24"
     inkscape:cy="24"
     inkscape:window-x="0"
     inkscape:window-y="34"
     inkscape:window-maximized="1"
     inkscape:current-layer="svg10" />
  <path
     d="M 16.910156,4.499998 A 2.8007721,2.8010278 0 0 0 14.929688,5.3164042 L 4.845703,15.369139 a 2.8007721,2.8010278 0 0 0 -0.8242187,1.980468 l -0.021484,14.240235 a 2.8007721,2.8010278 0 0 0 0.8183594,1.982422 L 14.871094,43.656248 a 2.8007721,2.8010278 0 0 0 1.980468,0.824219 l 14.240235,0.01953 a 2.8007721,2.8010278 0 0 0 1.980469,-0.816406 L 43.15625,33.630857 a 2.8007721,2.8010278 0 0 0 0.822266,-1.980468 L 44,17.410154 A 2.8007721,2.8010278 0 0 0 43.181641,15.427732 L 33.128906,5.3437482 a 2.8007721,2.8010278 0 0 0 -1.740234,-0.8125 2.8007721,2.8010278 0 0 0 -0.238281,-0.011719 z m 3.089844,10 h 8 l 6,6 v 8 l -6,6 h -8 l -6,-6 v -8 z"
     style="color:#000000;font-variant-ligatures:normal;font-variant-position:normal;font-variant-caps:normal;font-variant-numeric:normal;font-variant-alternates:normal;font-feature-settings:normal;text-indent:0;text-decoration:none;text-decoration-line:none;text-decoration-style:solid;text-decoration-color:#000000;text-transform:none;text-orientation:mixed;dominant-baseline:auto;white-space:normal;shape-padding:0;opacity:0.2;isolation:auto;mix-blend-mode:normal;solid-color:#000000;fill:#000000;color-rendering:auto;image-rendering:auto;shape-rendering:auto"
     id="path2"
     inkscape:connector-curvature="0" />
  <path
     d="m16.910156 4a2.8007721 2.8010278 0 0 0-1.980468 0.8164062l-10.083985 10.052735a2.8007721 2.8010278 0 0 0-0.8242187 1.980468l-0.0214844 14.240235a2.8007721 2.8010278 0 0 0 0.8183594 1.982422l10.052735 10.083984a2.8007721 2.8010278 0 0 0 1.980468 0.824219l14.240235 0.019531a2.8007721 2.8010278 0 0 0 1.980469-0.816406l10.083984-10.052735a2.8007721 2.8010278 0 0 0 0.822266-1.980468l0.021484-14.240235a2.8007721 2.8010278 0 0 0-0.818359-1.982422l-10.052735-10.083984a2.8007721 2.8010278 0 0 0-1.740234-0.8125 2.8007721 2.8010278 0 0 0-0.238281-0.0117188l-14.240235-0.0195312zm3.089844 10h8l6 6v8l-6 6h-8l-6-6v-8l6-6z"
     style="color-rendering:auto;color:#000000;dominant-baseline:auto;fill:#e4e4e4;font-feature-settings:normal;font-variant-alternates:normal;font-variant-caps:normal;font-variant-ligatures:normal;font-variant-numeric:normal;font-variant-position:normal;image-rendering:auto;isolation:auto;mix-blend-mode:normal;shape-padding:0;shape-rendering:auto;solid-color:#000000;text-decoration-color:#000000;text-decoration-line:none;text-decoration-style:solid;text-indent:0;text-orientation:mixed;text-transform:none;white-space:normal"
     id="path4" />
  <path
     d="m20 4.0039062v9.9960938h8l7.138672-7.1386719-2.009766-2.0175781c-0.466198-0.4674877-1.082535-0.7552501-1.740234-0.8125-0.07923-0.00729-0.158724-0.0111987-0.238281-0.0117188l-11.150391-0.015625zm-13.138672 8.8574218-2.0175781 2.009766c-0.467488 0.466198-0.75525 1.082535-0.8125 1.740234-0.0073 0.07923-0.0111987 0.158724-0.0117188 0.238281l-0.015625 11.150391h9.9960938v-8l-7.1386719-7.138672zm27.138672 7.138672v8l7.138672 7.138672 2.017578-2.009766c0.467488-0.466198 0.75525-1.082535 0.8125-1.740234 0.0073-0.07923 0.011199-0.158724 0.011719-0.238281l0.015625-11.150391h-9.996094zm-14 14-7.138672 7.138672 2.009766 2.017578c0.466198 0.467488 1.082535 0.75525 1.740234 0.8125 0.07923 0.0073 0.158724 0.011199 0.238281 0.011719l11.150391 0.015625v-9.996094h-8z"
     style="fill:#11aef5"
     id="path6" />
  <path
     style="color-rendering:auto;color:#000000;dominant-baseline:auto;fill:#ffffff;font-feature-settings:normal;font-variant-alternates:normal;font-variant-caps:normal;font-variant-ligatures:normal;font-variant-numeric:normal;font-variant-position:normal;image-rendering:auto;isolation:auto;mix-blend-mode:normal;opacity:.2;shape-padding:0;shape-rendering:auto;solid-color:#000000;text-decoration-color:#000000;text-decoration-line:none;text-decoration-style:solid;text-indent:0;text-orientation:mixed;text-transform:none;white-space:normal"
     d="M 16.910156 4 A 2.8007721 2.8010278 0 0 0 14.929688 4.8164062 L 4.8457031 14.869141 A 2.8007721 2.8010278 0 0 0 4.0214844 16.849609 L 4.0214844 17.349609 A 2.8007721 2.8010278 0 0 1 4.8457031 15.369141 L 14.929688 5.3164062 A 2.8007721 2.8010278 0 0 1 16.910156 4.5 L 31.150391 4.5195312 A 2.8007721 2.8010278 0 0 1 31.388672 4.53125 A 2.8007721 2.8010278 0 0 1 33.128906 5.34375 L 43.181641 15.427734 A 2.8007721 2.8010278 0 0 1 44 17.390625 L 44 16.910156 A 2.8007721 2.8010278 0 0 0 43.181641 14.927734 L 33.128906 4.84375 A 2.8007721 2.8010278 0 0 0 31.388672 4.03125 A 2.8007721 2.8010278 0 0 0 31.150391 4.0195312 L 16.910156 4 z M 4.0214844 17.349609 L 4 31.089844 L 4.0214844 17.849609 L 4.0214844 17.349609 z M 14 28 L 14 28.5 L 20 34.5 L 28 34.5 L 34 28.5 L 34 28 L 28 34 L 20 34 L 14 28 z "
     id="path8" />
</svg>
