<svg xmlns="http://www.w3.org/2000/svg" width="192" height="192" version="1">
 <g transform="scale(4)">
  <path style="opacity:0.2" d="m 10,4.5 c -1.108,0 -2,0.892 -2,2 v 36 c 0,1.108 0.892,2 2,2 h 28 c 1.108,0 2,-0.892 2,-2 v -26 l -11,-1 -1,-11 z"/>
  <path style="fill:#f5ba14" d="m10 4c-1.108 0-2 0.892-2 2v36c0 1.108 0.892 2 2 2h28c1.108 0 2-0.892 2-2v-26l-11-1-1-11z"/>
  <path style="opacity:0.2;fill:#ffffff" d="M 10 4 C 8.892 4 8 4.892 8 6 L 8 6.5 C 8 5.392 8.892 4.5 10 4.5 L 28 4.5 L 39.5 16 L 40 16 L 28 4 L 10 4 z"/>
  <path style="opacity:0.2" d="m 28,4.5 v 10 c 0,1.1046 0.89543,2 2,2 h 10 z"/>
  <path style="fill:#fadc86" d="m28 4v10c0 1.1046 0.89543 2 2 2h10l-12-12z"/>
  <path style="opacity:0.2;fill-rule:evenodd" d="m 18,22.5 c -1.108,0 -2,0.892 -2,2 v 12 c 0,1.108 0.892,2 2,2 h 12 c 1.108,0 2,-0.892 2,-2 v -12 c 0,-1.108 -0.892,-2 -2,-2 z m 0,4 h 12 v 8 H 18 Z"/>
  <path style="fill-rule:evenodd;fill:#ffffff" d="m18 22c-1.108 0-2 0.892-2 2v12c0 1.108 0.892 2 2 2h12c1.108 0 2-0.892 2-2v-12c0-1.108-0.892-2-2-2h-12zm0 4h12v8h-12v-8z"/>
 </g>
</svg>
