<svg xmlns="http://www.w3.org/2000/svg" width="48" height="48" version="1">
 <g>
  <path style="opacity:0.2" d="M 42.005,28.495 28,42.5 H 6 c -1.108,0 -2,-0.892 -2,-2 v 1 c 0,1.108 0.892,2 2,2 H 28 L 42.972,28.528 Z"/>
  <path style="fill:#4384f1" d="m6 3c-1.108 0-2 0.892-2 2v36c0 1.108 0.892 2 2 2h22l16-16v-22c0-1.108-0.892-2-2-2z"/>
  <path style="opacity:0.2" d="m 13,15.5 v 2 c 1.166667,0 3.032684,-0.148188 4.541016,0.171875 0.754166,0.160032 1.366726,0.438218 1.773437,0.851563 C 19.721164,18.936782 20,19.4993 20,20.539062 c 0,1.105783 -0.222074,1.764738 -0.488281,2.160157 -0.266208,0.395418 -0.58786,0.593526 -1.048828,0.730469 -0.731618,0.217345 -1.776577,0.204693 -2.748047,0.164062 -0.112706,-0.003 -0.243651,-0.01869 -0.38086,-0.03516 C 15.226803,23.5202 15.113852,23.50038 15,23.5 c -0.552285,0 -1,0.447715 -1,1 0,0.552285 0.447715,1 1,1 0.03263,-3.59e-4 0.06522,-0.0023 0.09766,-0.0059 0.431842,0.0068 1.029076,0.06786 1.732422,0.08008 0.08427,0.01491 0.125741,0.0015 0.210938,0.01953 0.773245,0.16408 1.560673,0.468466 2.09375,0.916016 C 19.667843,26.957332 20,27.487189 20,28.460938 c 0,1.006756 -0.299563,1.539104 -0.789062,1.96875 -0.4895,0.429645 -1.250855,0.730553 -2.144532,0.896484 C 15.279053,31.658034 13.166667,31.5 12,31.5 v 2 c 0,0 4,0 5.433594,-0.228516 1.111203,-0.177127 2.219968,-0.584105 3.105468,-1.361328 C 21.424563,31.132931 22,29.92981 22,28.460938 21.810723,26.763161 21.238077,25.394286 20.072266,24.537109 20.486532,24.275636 20.873114,24.047232 21.175781,23.597656 21.722074,22.786207 22,21.908909 22,20.539062 22,19.103199 21.528836,17.936102 20.748047,17.142578 19.967258,16.349055 18.954818,15.945687 17.958984,15.734375 16.96315,15.523062 15.044922,15.5 15.044922,15.5 Z m 17.960938,0 L 27,16.5 v 2 l 3.986328,-1 v 14 H 26 v 2 h 11 v -2 h -4 v -16 z"/>
  <path style="fill:#ffffff" d="m13 15v2c1.166667 0 3.032684-0.148188 4.541016 0.171875 0.754166 0.160032 1.366726 0.438218 1.773437 0.851563 0.406711 0.413344 0.685547 0.975862 0.685547 2.015624 0 1.105783-0.222074 1.764738-0.488281 2.160157-0.266208 0.395418-0.58786 0.593526-1.048828 0.730469-0.731618 0.217345-1.776577 0.204693-2.748047 0.164062-0.112706-3e-3 -0.243651-0.01869-0.38086-0.03516-0.107181-0.03839-0.220132-0.05821-0.333984-0.05859-0.552285 0-1 0.447715-1 1s0.447715 1 1 1c0.03263-3.59e-4 0.06522-0.0023 0.09766-0.0059 0.431842 0.0068 1.029076 0.06786 1.732422 0.08008 0.08427 0.01491 0.125741 0.0015 0.210938 0.01953 0.773245 0.16408 1.560673 0.468466 2.09375 0.916016 0.533073 0.447606 0.86523 0.977463 0.86523 1.951212 0 1.006756-0.299563 1.539104-0.789062 1.96875-0.4895 0.429645-1.250855 0.730553-2.144532 0.896484-1.787353 0.331862-3.899739 0.173828-5.066406 0.173828v2s4 0 5.433594-0.228516c1.111203-0.177127 2.219968-0.584105 3.105468-1.361328 0.885501-0.777225 1.460938-1.980346 1.460938-3.449218-0.189277-1.697777-0.761923-3.066652-1.927734-3.923829 0.414266-0.261473 0.800848-0.489877 1.103515-0.939453 0.546293-0.811449 0.824219-1.688747 0.824219-3.058594 0-1.435863-0.471164-2.60296-1.251953-3.396484-0.780789-0.793523-1.793229-1.196891-2.789063-1.408203-0.995834-0.211313-2.914062-0.234375-2.914062-0.234375zm17.960938 0-3.960938 1v2l3.986328-1v14h-4.986328v2h11v-2h-4v-16z"/>
  <path style="fill:#9bcdff" d="m44 27h-14c-1.1046 0-2 0.89544-2 2v14z"/>
  <path style="fill:#ffffff;opacity:0.2" d="M 6 3 C 4.892 3 4 3.892 4 5 L 4 5.5 C 4 4.392 4.892 3.5 6 3.5 L 42 3.5 C 43.108 3.5 44 4.392 44 5.5 L 44 5 C 44 3.892 43.108 3 42 3 L 6 3 z"/>
  <path style="fill:#ffffff;opacity:0.2" d="M 30 27 C 28.8954 27 28 27.89544 28 29 L 28 29.5 C 28 28.39544 28.8954 27.5 30 27.5 L 43.5 27.5 L 44 27 L 30 27 z"/>
  <circle style="opacity:0.4" cx="12" cy="8" r="2"/>
  <circle style="opacity:0.4" cx="36" cy="8" r="2"/>
 </g>
</svg>
