<?xml version="1.0" encoding="UTF-8" standalone="no"?>
<svg
   xmlns:dc="http://purl.org/dc/elements/1.1/"
   xmlns:cc="http://creativecommons.org/ns#"
   xmlns:rdf="http://www.w3.org/1999/02/22-rdf-syntax-ns#"
   xmlns:svg="http://www.w3.org/2000/svg"
   xmlns="http://www.w3.org/2000/svg"
   xmlns:sodipodi="http://sodipodi.sourceforge.net/DTD/sodipodi-0.dtd"
   xmlns:inkscape="http://www.inkscape.org/namespaces/inkscape"
   width="48"
   height="48"
   version="1.1"
   viewBox="0 0 48 48"
   id="svg12"
   sodipodi:docname="google_hangouts.svg"
   inkscape:version="0.92.2 (unknown)">
  <metadata
     id="metadata18">
    <rdf:RDF>
      <cc:Work
         rdf:about="">
        <dc:format>image/svg+xml</dc:format>
        <dc:type
           rdf:resource="http://purl.org/dc/dcmitype/StillImage" />
        <dc:title></dc:title>
      </cc:Work>
    </rdf:RDF>
  </metadata>
  <defs
     id="defs16" />
  <sodipodi:namedview
     pagecolor="#ffffff"
     bordercolor="#666666"
     borderopacity="1"
     objecttolerance="10"
     gridtolerance="10"
     guidetolerance="10"
     inkscape:pageopacity="0"
     inkscape:pageshadow="2"
     inkscape:window-width="1920"
     inkscape:window-height="1016"
     id="namedview14"
     showgrid="false"
     inkscape:zoom="10.55"
     inkscape:cx="24"
     inkscape:cy="27.239648"
     inkscape:window-x="0"
     inkscape:window-y="34"
     inkscape:window-maximized="1"
     inkscape:current-layer="svg12" />
  <path
     id="path834"
     d="m 24,4.5 a 18,17 0 0 0 -18,17 18,17 0 0 0 17.765625,16.988281 c 0.17898,0.0086 0.239564,0.0583 0.238281,0.25 -0.0096,1.7471 -0.0044,3.795569 -0.0039,5.542969 2.28e-4,0.06782 0.0057,0.13441 0.0098,0.21875 0.0593,-0.02304 0.097,-0.03665 0.132812,-0.05273 3.4431,-1.5417 6.603375,-3.489641 9.421875,-5.931641 0.56082,-0.48579 1.097181,-0.995231 1.613281,-1.525391 0.221,-0.2267 0.44066,-0.457113 0.66211,-0.683593 0.3421,-0.34864 0.638447,-0.738309 0.960937,-1.105469 0.37243,-0.42341 0.70729,-0.873222 1.03711,-1.326172 0.72913,-1.0011 1.380434,-2.045138 1.927734,-3.148438 0.27687,-0.557739 0.540128,-1.119912 0.773437,-1.695312 0.0078,-0.01087 0.01843,-0.01951 0.02344,-0.03125 0.63585,-1.5754 1.042866,-3.206406 1.259766,-4.878906 0.03651,-0.280901 0.0511,-0.563548 0.07617,-0.845703 a 18,17 0 0 0 0.01953,-0.232422 c 0.0178,-0.225602 0.04859,-0.450062 0.06055,-0.675781 0.01414,-0.269715 0.01732,-0.539588 0.01758,-0.808594 A 18,17 0 0 0 42,21.5 18,17 0 0 0 41.998,21.4707 c -0.0015,-0.330645 -0.01258,-0.660877 -0.03516,-0.990234 -3.59e-4,-0.0052 -0.0016,-0.01039 -0.002,-0.01563 A 18,17 0 0 0 41.91201,19.966789 C 41.8839,19.691548 41.84946,19.416687 41.806542,19.14257 A 18,17 0 0 0 24,4.5 Z"
     style="opacity:0.2;fill:#000000"
     inkscape:connector-curvature="0" />
  <path
     inkscape:connector-curvature="0"
     style="fill:#16a05d;fill-opacity:1"
     d="M 24,4 A 18,17 0 0 0 6,21 18,17 0 0 0 23.765625,37.988281 c 0.17898,0.0086 0.239564,0.0583 0.238281,0.25 -0.0096,1.7471 -0.0044,3.795569 -0.0039,5.542969 2.28e-4,0.06782 0.0057,0.13441 0.0098,0.21875 0.0593,-0.02304 0.097,-0.03665 0.132812,-0.05273 3.4431,-1.5417 6.603375,-3.489641 9.421875,-5.931641 0.56082,-0.48579 1.097181,-0.995231 1.613281,-1.525391 0.221,-0.2267 0.44066,-0.457113 0.66211,-0.683593 0.3421,-0.34864 0.638447,-0.738309 0.960937,-1.105469 0.37243,-0.42341 0.70729,-0.873222 1.03711,-1.326172 0.72913,-1.0011 1.380434,-2.045138 1.927734,-3.148438 0.27687,-0.557739 0.540128,-1.119912 0.773437,-1.695312 0.0078,-0.01087 0.01843,-0.01951 0.02344,-0.03125 0.63585,-1.5754 1.042866,-3.206406 1.259766,-4.878906 0.03651,-0.280901 0.0511,-0.563548 0.07617,-0.845703 a 18,17 0 0 0 0.01953,-0.232422 c 0.0178,-0.225602 0.04859,-0.450062 0.06055,-0.675781 0.01414,-0.269715 0.01732,-0.539588 0.01758,-0.808594 A 18,17 0 0 0 42,21 18,17 0 0 0 41.998,20.9707 c -0.0015,-0.330645 -0.01258,-0.660877 -0.03516,-0.990234 -3.59e-4,-0.0052 -0.0016,-0.01039 -0.002,-0.01563 A 18,17 0 0 0 41.91201,19.466789 C 41.8839,19.191548 41.84946,18.916687 41.806542,18.64257 A 18,17 0 0 0 24,4 Z"
     id="path2" />
  <path
     inkscape:connector-curvature="0"
     style="opacity:0.2;fill:#ffffff"
     d="M 24,4 A 18,17 0 0 0 6,21 18,17 0 0 0 6.0117188,21.205078 18,17 0 0 1 24,4.5 18,17 0 0 1 41.806641,19.142578 c 0.04292,0.274117 0.07736,0.548978 0.105468,0.824219 a 18,17 0 0 1 0.04883,0.498047 c 3.99e-4,0.0052 0.0016,0.01043 0.002,0.01563 0.01822,0.265705 0.02504,0.532226 0.0293,0.798828 6.68e-4,-0.07353 0.0038,-0.147285 0.0039,-0.220703 A 18,17 0 0 0 42,21 18,17 0 0 0 41.998,20.9707 c -0.0015,-0.330645 -0.01258,-0.660877 -0.03516,-0.990234 -3.59e-4,-0.0052 -0.0016,-0.01039 -0.002,-0.01563 A 18,17 0 0 0 41.91201,19.466789 C 41.8839,19.191548 41.84946,18.916687 41.806542,18.64257 A 18,17 0 0 0 24,4 Z"
     id="path836" />
  <path
     style="fill:#000000;opacity:0.2"
     d="M 21.125 15.5 C 19.0431 15.502495 16.962559 15.500753 14.880859 15.501953 C 14.722669 15.501953 14.573017 15.53698 14.435547 15.625 C 14.081617 15.85015 13.966382 16.182521 14.007812 16.587891 C 14.009113 16.608751 14.011719 16.629541 14.011719 16.650391 C 14.010319 18.816591 14.006543 20.334 14.005859 22.5 C 14.005859 23.05014 14.374499 23.486994 14.912109 23.496094 C 15.055499 23.498589 15.198637 23.495862 15.341797 23.496094 C 16.658697 23.498694 17.974516 23.501106 19.291016 23.503906 C 19.186316 24.111806 18.9559 25.241025 18.5 25.671875 C 18.12012 26.030675 17.98799 26.190957 17.5 26.304688 C 17.11511 26.394097 17.000455 26.526767 17 26.841797 C 16.9998 26.931897 17.004059 27.022711 17.005859 27.113281 C 17.002049 27.523321 16.998041 27.93352 16.994141 28.34375 C 16.995941 28.57284 16.9968 28.800437 17 29.029297 C 17.00387 29.355908 16.915265 29.539908 17.234375 29.492188 C 17.652745 29.430109 18.061197 29.333537 18.466797 29.216797 C 18.481827 29.208237 18.496699 29.200206 18.511719 29.191406 C 18.538809 29.183526 18.565617 29.175069 18.591797 29.167969 C 18.639587 29.143409 18.687398 29.11506 18.736328 29.09375 C 20.677328 28.27215 21.994294 26.271513 21.996094 24.132812 C 21.998178 21.738612 21.996094 19.345172 21.996094 16.951172 C 21.996094 16.841382 22.003267 16.73016 21.960938 16.625 C 22.138238 16.06864 21.67945 15.499305 21.125 15.5 z M 33.125 15.5 C 31.0431 15.502495 28.962559 15.500753 26.880859 15.501953 C 26.722669 15.501953 26.573017 15.53698 26.435547 15.625 C 26.081617 15.85015 25.966383 16.182521 26.007812 16.587891 C 26.009113 16.608751 26.011719 16.629541 26.011719 16.650391 C 26.010319 18.816591 26.006543 20.334 26.005859 22.5 C 26.005859 23.05014 26.374499 23.486994 26.912109 23.496094 C 27.055499 23.498589 27.198637 23.495862 27.341797 23.496094 C 28.658697 23.498694 29.974516 23.501106 31.291016 23.503906 C 31.186316 24.111806 30.9559 25.241025 30.5 25.671875 C 30.12012 26.030675 29.98799 26.190957 29.5 26.304688 C 29.11511 26.394097 29.000455 26.526767 29 26.841797 C 28.9998 26.931897 29.004059 27.022711 29.005859 27.113281 C 29.002049 27.523321 28.998041 27.93352 28.994141 28.34375 C 28.995941 28.57284 28.9968 28.800437 29 29.029297 C 29.00387 29.355908 28.915265 29.539908 29.234375 29.492188 C 29.652745 29.430109 30.061197 29.333537 30.466797 29.216797 C 30.481827 29.208237 30.496699 29.200206 30.511719 29.191406 C 30.538809 29.183526 30.565617 29.175069 30.591797 29.167969 C 30.639587 29.143409 30.687398 29.11506 30.736328 29.09375 C 32.677328 28.27215 33.994294 26.271513 33.996094 24.132812 C 33.998178 21.738612 33.996094 19.345172 33.996094 16.951172 C 33.996094 16.841382 34.003267 16.73016 33.960938 16.625 C 34.138238 16.06864 33.67945 15.499305 33.125 15.5 z "
     id="path859" />
  <path
     style="fill:#ffffff"
     inkscape:connector-curvature="0"
     id="path10-6"
     d="m 30.59204,28.667993 c -0.02618,0.0071 -0.0528,0.01482 -0.07989,0.0227 -0.01502,0.0088 -0.03027,0.01761 -0.0453,0.02617 -0.4056,0.11674 -0.81483,0.21357 -1.2332,0.27565 -0.31911,0.04772 -0.22903,-0.13574 -0.2329,-0.46235 -0.0032,-0.22886 -0.0048,-0.45818 -0.0066,-0.68727 0.0039,-0.41023 0.0078,-0.82046 0.01161,-1.2305 -0.0018,-0.09057 -0.005,-0.18045 -0.0048,-0.27055 4.55e-4,-0.31503 0.11411,-0.44799 0.499,-0.5374 0.48799,-0.11373 0.62112,-0.27403 1.001,-0.63283 0.4559,-0.43085 0.68601,-1.5596 0.79071,-2.1675 -1.3165,-0.0028 -2.6325,-0.0051 -3.9494,-0.0077 -0.14316,-2.32e-4 -0.28656,0.0018 -0.42995,-6.95e-4 -0.53761,-0.0091 -0.90565,-0.44566 -0.90565,-0.9958 6.84e-4,-2.166 0.0036,-3.6826 0.005,-5.8488 0,-0.02085 -0.0023,-0.04169 -0.0036,-0.06255 -0.04143,-0.40537 0.07306,-0.73753 0.42699,-0.96268 0.13747,-0.08802 0.28701,-0.12416 0.4452,-0.12416 2.0817,-0.0012 4.1632,6.95e-4 6.2451,-0.0018 0.55445,-6.95e-4 1.0133,0.56844 0.836,1.1248 0.04233,0.10516 0.0346,0.21612 0.0346,0.32591 0,2.394 0.0014,4.7879 -6.84e-4,7.1821 -0.0018,2.1387 -1.3188,4.1401 -3.2598,4.9617 -0.04893,0.02131 -0.0956,0.04887 -0.14339,0.07343 0.0346,0.04355 0.07602,0.05559 0.11904,0.05722 -0.04301,-0.0014 -0.08467,-0.01366 -0.11904,-0.05722 z" />
  <path
     style="fill:#ffffff"
     inkscape:connector-curvature="0"
     id="path12"
     d="m 18.59204,28.667993 c -0.02618,0.0071 -0.0528,0.01482 -0.07989,0.0227 -0.01502,0.0088 -0.03027,0.01761 -0.0453,0.02617 -0.4056,0.11674 -0.81483,0.21357 -1.2332,0.27565 -0.31911,0.04772 -0.22903,-0.13574 -0.2329,-0.46235 -0.0032,-0.22886 -0.0048,-0.45818 -0.0066,-0.68727 0.0039,-0.41023 0.0078,-0.82046 0.01161,-1.2305 -0.0018,-0.09057 -0.005,-0.18045 -0.0048,-0.27055 4.55e-4,-0.31503 0.11411,-0.44799 0.499,-0.5374 0.48799,-0.11373 0.62112,-0.27403 1.001,-0.63283 0.4559,-0.43085 0.68601,-1.5596 0.79071,-2.1675 -1.3165,-0.0028 -2.6325,-0.0051 -3.9494,-0.0077 -0.14316,-2.32e-4 -0.28656,0.0018 -0.42995,-6.95e-4 -0.53761,-0.0091 -0.90565,-0.44566 -0.90565,-0.9958 6.84e-4,-2.166 0.0036,-3.6826 0.005,-5.8488 0,-0.02085 -0.0023,-0.04169 -0.0036,-0.06255 -0.04143,-0.40537 0.07306,-0.73753 0.42699,-0.96268 0.13747,-0.08802 0.28701,-0.12416 0.4452,-0.12416 2.0817,-0.0012 4.1632,6.95e-4 6.2451,-0.0018 0.55445,-6.95e-4 1.0133,0.56844 0.836,1.1248 0.04233,0.10516 0.0346,0.21612 0.0346,0.32591 0,2.394 0.0014,4.7879 -6.84e-4,7.1821 -0.0018,2.1387 -1.3188,4.1401 -3.2598,4.9617 -0.04893,0.02131 -0.0956,0.04887 -0.14339,0.07343 0.0346,0.04355 0.07602,0.05559 0.11904,0.05722 -0.04301,-0.0014 -0.08467,-0.01366 -0.11904,-0.05722 z" />
</svg>
