<?xml version="1.0" encoding="UTF-8" standalone="no"?>
<svg
   xmlns:dc="http://purl.org/dc/elements/1.1/"
   xmlns:cc="http://creativecommons.org/ns#"
   xmlns:rdf="http://www.w3.org/1999/02/22-rdf-syntax-ns#"
   xmlns:svg="http://www.w3.org/2000/svg"
   xmlns="http://www.w3.org/2000/svg"
   xmlns:sodipodi="http://sodipodi.sourceforge.net/DTD/sodipodi-0.dtd"
   xmlns:inkscape="http://www.inkscape.org/namespaces/inkscape"
   width="48"
   height="48"
   version="1"
   id="svg46"
   sodipodi:docname="google_androidify.svg"
   inkscape:version="0.92.2 (unknown)">
  <metadata
     id="metadata52">
    <rdf:RDF>
      <cc:Work
         rdf:about="">
        <dc:format>image/svg+xml</dc:format>
        <dc:type
           rdf:resource="http://purl.org/dc/dcmitype/StillImage" />
      </cc:Work>
    </rdf:RDF>
  </metadata>
  <defs
     id="defs50" />
  <sodipodi:namedview
     pagecolor="#ffffff"
     bordercolor="#666666"
     borderopacity="1"
     objecttolerance="10"
     gridtolerance="10"
     guidetolerance="10"
     inkscape:pageopacity="0"
     inkscape:pageshadow="2"
     inkscape:window-width="1920"
     inkscape:window-height="1016"
     id="namedview48"
     showgrid="false"
     inkscape:zoom="18.39008"
     inkscape:cx="24"
     inkscape:cy="21.824914"
     inkscape:window-x="0"
     inkscape:window-y="34"
     inkscape:window-maximized="1"
     inkscape:current-layer="svg46">
    <inkscape:grid
       type="xygrid"
       id="grid867" />
  </sodipodi:namedview>
  <path
     d="m 30.885,6.26 c -20.59,28.16 -10.295,14.08 0,0 z M 8,33.688 v 1 c 0,1.108 0.892,2 2,2 1.108,0 2,-0.892 2,-2 v 0.54492 c 0,2.363 1.784,4.267 4,4.267 h 2 v -1 h -2 c -2.216,0 -4,-1.9038 -4,-4.2676 v -0.544 c 0,1.108 -0.892,2 -2,2 -1.108,0 -2,-0.892 -2,-2 z m 28,0 v 0.54492 c 0,2.363 -1.784,4.267 -4,4.267 h -2 v 1 h 2 c 2.216,0 4,-1.9038 4,-4.2676 v -0.544 c 0,1.108 0.892,2 2,2 1.108,0 2,-0.892 2,-2 v -1 c 0,1.108 -0.892,2 -2,2 -1.108,0 -2,-0.892 -2,-2 z M 22,38.5 v 1 h 4 v -1 z m -4,4 v 1 c 0,1.108 0.892,2 2,2 1.108,0 2,-0.892 2,-2 v -1 c 0,1.108 -0.892,2 -2,2 -1.108,0 -2,-0.892 -2,-2 z m 8,0 v 1 c 0,1.108 0.892,2 2,2 1.108,0 2,-0.892 2,-2 v -1 c 0,1.108 -0.892,2 -2,2 -1.108,0 -2,-0.892 -2,-2 z"
     id="path16"
     inkscape:connector-curvature="0"
     style="opacity:0.2" />
  <path
     d="m10 22.188c-1.108 0-2 0.892-2 2v10c0 1.108 0.892 2 2 2s2-0.892 2-2v-10c0-1.108-0.892-2-2-2z"
     fill="#93b133"
     id="path2" />
  <path
     d="m38 22.188c-1.108 0-2 0.892-2 2v10c0 1.108 0.892 2 2 2s2-0.892 2-2v-10c0-1.108-0.892-2-2-2z"
     fill="#93b133"
     id="path4" />
  <path
     d="m18.138672 5.2128906c-0.129-0.0178-0.262484-0.0105093-0.396484 0.0253906-0.535001 0.1434-0.850032 0.6895094-0.707032 1.2246094l1.263672 4.7148434c-6.294 3.021-6.298828 10.822266-6.298828 10.822266v2.763672c0-0.422807 0.297411-0.763672 0.666016-0.763672h7.333984l4 4 4-4h7.333984c0.368605 0 0.666016 0.340865 0.666016 0.763672v-2.763672s-0.004828-7.801266-6.298828-10.822266l1.263672-4.7148434c0.143-0.5351-0.172032-1.0812093-0.707032-1.2246094-0.535-0.1433999-1.080609 0.1719313-1.224609 0.7070313l-1.214844 4.5351565c-1.115-0.304-2.378359-0.480469-3.818359-0.480469s-2.703359 0.176469-3.818359 0.480469l-1.214844-4.5351565c-0.108-0.4013-0.442125-0.6791219-0.828125-0.7324219zm-0.138672 33.787109v4c0 1.108 0.892 2 2 2s2-0.892 2-2v-4h-4zm8 0v4c0 1.108 0.892 2 2 2s2-0.892 2-2v-4h-4z"
     style="fill:#a4c639"
     id="path6" />
  <path
     style="fill:#ffffff;opacity:0.2"
     d="m 18.138672,5.2128906 c -0.129,-0.0178 -0.262484,-0.010509 -0.396484,0.025391 -0.535002,0.1434 -0.850032,0.6895094 -0.707032,1.2246094 l 0.0039,0.017578 c 0.08111,-0.3471051 0.333484,-0.6431099 0.703126,-0.7421876 0.134,-0.0359 0.267484,-0.043191 0.396484,-0.025391 0.386,0.0533 0.720125,0.3311219 0.828125,0.7324219 l 1.214844,4.5351565 C 21.296641,10.676469 22.56,10.5 24,10.5 c 1.44,0 2.703359,0.176469 3.818359,0.480469 l 1.214844,-4.5351565 c 0.144,-0.5351 0.689609,-0.8504312 1.224609,-0.7070313 0.369642,0.099078 0.622014,0.3950825 0.703126,0.7421876 l 0.0039,-0.017578 c 0.143,-0.5351 -0.172032,-1.0812092 -0.707032,-1.2246094 -0.535,-0.1433999 -1.080609,0.1719313 -1.224609,0.7070313 L 27.818359,10.480469 C 26.703359,10.176469 25.44,10 24,10 c -1.44,0 -2.703359,0.176469 -3.818359,0.480469 L 18.966797,5.9453125 c -0.108,-0.4013 -0.442125,-0.6791219 -0.828125,-0.7324219 z"
     id="path877" />
  <path
     style="fill:#ffffff;opacity:0.2"
     d="M 18.181641,11.242188 C 12.011158,14.305314 12,22 12,22 v 0.5 c 0,0 0.0048,-7.801266 6.298828,-10.822266 z"
     id="path875" />
  <path
     style="fill:#ffffff;opacity:0.2"
     d="m 29.818359,11.242188 -0.117187,0.435546 C 35.9952,14.698734 36,22.5 36,22.5 V 22 c 0,0 -0.01116,-7.694686 -6.181641,-10.757812 z"
     id="path873" />
  <path
     style="fill:#000000;opacity:0.2"
     d="M 18 39 L 18 39.5 L 22 39.5 L 22 39 L 18 39 z M 26 39 L 26 39.5 L 30 39.5 L 30 39 L 26 39 z "
     id="path871" />
  <path
     d="m16.4 22h15.2c0.2216 0 0.4 0.223 0.4 0.5s-0.1784 0.5-0.4 0.5h-15.2c-0.2216 0-0.4-0.223-0.4-0.5s0.1784-0.5 0.4-0.5z"
     style="fill:#000000;opacity:.4"
     id="path8" />
  <circle
     cx="18"
     cy="17"
     r="1"
     fill="#fff"
     id="circle10" />
  <circle
     cx="30"
     cy="17"
     r="1"
     fill="#fff"
     id="circle12" />
  <path
     d="M 21,15.666666 C 21,15.666666 22.5,15 23.999999,15 25.5,15 27,15.666666 27,15.666666 L 27,17 C 27,17 25.5,16.333333 23.999999,16.333333 22.5,16.333333 21,17 21,17 Z"
     style="fill:#212121"
     id="path18" />
  <rect
     x="13"
     y="14.5"
     width="9"
     height="7"
     rx="1.125"
     ry="1.1666666"
     style="opacity:0.1;fill:#000000"
     id="rect20" />
  <path
     d="M 21,16.666666 C 21,16.666666 22.5,16 23.999999,16 25.5,16 27,16.666666 27,16.666666 L 27,18 C 27,18 25.5,17.333333 23.999999,17.333333 22.5,17.333333 21,18 21,18 Z"
     style="fill:#000000;opacity:.1"
     id="path22" />
  <rect
     x="13"
     y="14"
     width="9"
     height="7"
     rx="1.125"
     ry="1.1666666"
     style="fill:#4f4f4f"
     id="rect24" />
  <rect
     x="12"
     y="15.5"
     width="2"
     height="3"
     rx="0.66666663"
     ry="0.75"
     style="opacity:0.1;fill:#000000"
     id="rect26" />
  <rect
     x="12"
     y="15"
     width="2"
     height="3"
     rx=".66666663"
     ry=".75"
     style="fill:#212121"
     id="rect28" />
  <rect
     x="26"
     y="14.5"
     width="9"
     height="7"
     rx="1.125"
     ry="1.1666666"
     style="opacity:0.1;fill:#000000"
     id="rect30" />
  <rect
     x="26"
     y="14"
     width="9"
     height="7"
     rx="1.125"
     ry="1.1666666"
     style="fill:#4f4f4f"
     id="rect32" />
  <rect
     x="34"
     y="15.5"
     width="2"
     height="3"
     rx="0.66666663"
     ry="0.75"
     style="opacity:0.1;fill:#000000"
     id="rect34" />
  <rect
     x="34"
     y="15"
     width="2"
     height="3"
     rx=".66666663"
     ry=".75"
     style="fill:#212121"
     id="rect36" />
  <rect
     x="20"
     y="24"
     width="8"
     height="5"
     style="fill:#ffffff"
     id="rect38" />
  <path
     d="m12.666016 24c-0.368605 0-0.666016 0.340865-0.666016 0.763672v9.96875c0 2.364 1.784 4.267578 4 4.267578h16c2.216 0 4-1.903578 4-4.267578v-9.96875c0-0.422807-0.297411-0.763672-0.666016-0.763672h-7.333984l-4 4-4-4z"
     style="fill:#f2535e"
     id="path40" />
  <circle
     cx="24"
     cy="31"
     r="1"
     style="fill:#3f3f3f"
     id="circle42" />
  <circle
     cx="24"
     cy="35"
     r="1"
     style="fill:#3f3f3f"
     id="circle44" />
</svg>
