<svg xmlns="http://www.w3.org/2000/svg" width="48" height="48" version="1">
 <g>
  <path style="opacity:0.2" d="m 30.101562,13.5 6.291016,10.896484 -0.06055,0.103516 -10.96875,19 h 7.433594 a 3.4085758,3.4738577 0 0 0 0.339844,-0.01758 3.4085758,3.4738577 0 0 0 0.335937,-0.05078 3.4085758,3.4738577 0 0 0 0.08789,-0.02344 3.4085758,3.4738577 0 0 0 0.244141,-0.06445 3.4085758,3.4738577 0 0 0 0.201171,-0.07422 3.4085758,3.4738577 0 0 0 0.714844,-0.376953 3.4085758,3.4738577 0 0 0 0.271485,-0.208984 3.4085758,3.4738577 0 0 0 0.25,-0.238282 3.4085758,3.4738577 0 0 0 0.421874,-0.541015 3.4085758,3.4738577 0 0 0 0,-0.002 3.4085758,3.4738577 0 0 0 0.08398,-0.138672 l 5.285156,-9.330078 3.509766,-6.197266 a 3.4085758,3.4738577 0 0 0 0,-3.474609 L 39.296875,13.5 Z"/>
  <path style="fill:#4587f3" d="m15.203991 5c-1.217852-1.588e-4 -2.343264 0.6619002-2.952251 1.7367552l-5.4864939 9.6850068-2.4849591 6.00538c-0.6087521 1.074727 0.050226 1.986921 0.6589786 3.061648l8.3009424 14.785987c0.608987 1.074855 0.993048 1.654542 2.2109 1.654383h17.097783s1.107679-0.744273 1.716666-1.819128l8.54806-14.291753c0.608752-1.074727 0.691125-1.822176 0.08237-2.896903l-3.453624-9.663622-3.694104-6.5209988c-0.608987-1.074855-1.734399-1.736914-2.952251-1.7367552z"/>
  <path style="fill:#dd4d3e" d="m30.101562 13 6.191438 10.896484 0.039031 0.103516-10.96875 19h7.433594c0.113498-8.9e-5 0.22692-6e-3 0.339844-0.01758 0.112737-0.01123 0.224855-0.02818 0.335937-0.05078 0.0294-0.0074 0.0587-0.01523 0.08789-0.02344 0.08213-0.01841 0.163569-0.03991 0.244141-0.06445 0.0678-0.02259 0.134893-0.04734 0.201171-0.07422 0.252052-0.09644 0.492006-0.222971 0.714844-0.376953 0.09385-0.06501 0.18446-0.13476 0.271485-0.208984 0.0872-0.07511 0.170635-0.154638 0.25-0.238282 0.157919-0.1656 0.299243-0.346834 0.421874-0.541015v-2e-3c0.02905-0.04555 0.05706-0.09179 0.08398-0.138672l5.285156-9.330078 3.509766-6.197266c0.609167-1.075006 0.609167-2.399603 0-3.474609l-5.246088-9.261671z"/>
  <path style="opacity:0.2" d="m 3.0390625,23.996094 a 3.4085758,3.4738577 0 0 0 0.4179687,2.240234 L 8.7050781,35.5 12.251953,41.763672 A 3.4085758,3.4738577 0 0 0 15.203125,43.5 h 10.160156 l 4.619141,-8 h -0.578125 l -4.041016,7 H 15.203125 A 3.4085758,3.4738577 0 0 1 12.251953,40.763672 L 8.7050781,34.5 3.4570312,25.236328 A 3.4085758,3.4738577 0 0 1 3.0390625,23.996094 Z M 34.550781,42 A 3.4085758,3.4738577 0 0 1 34.324218,42.126953 3.4085758,3.4738577 0 0 0 34.550781,42 Z M 34.3125,42.134766 A 3.4085758,3.4738577 0 0 1 34.005859,42.269531 3.4085758,3.4738577 0 0 0 34.3125,42.134766 Z M 34.550781,43 A 3.4085758,3.4738577 0 0 1 34.324218,43.126953 3.4085758,3.4738577 0 0 0 34.550781,43 Z M 34.3125,43.134766 a 3.4085758,3.4738577 0 0 1 -0.306641,0.134765 3.4085758,3.4738577 0 0 0 0.306641,-0.134765 z"/>
  <path style="fill:#f9bc14" d="m7.0273438 15.960938-3.5703126 6.300781a3.4085758 3.4738577 0 0 0 0 3.474609l5.2480469 9.263672 3.5468749 6.263672a3.4085758 3.4738577 0 0 0 2.951172 1.736328h10.160156l4.619141-8h-11.964844l-6.349609-11zm27.523437 26.539062a3.4085758 3.4738577 0 0 1-0.226562 0.126953 3.4085758 3.4738577 0 0 0 0.226562-0.126953zm-0.238281 0.134766a3.4085758 3.4738577 0 0 1-0.306641 0.134765 3.4085758 3.4738577 0 0 0 0.306641-0.134765z"/>
  <path style="fill:#ffffff;opacity:0.2" d="M 7.0273438 15.960938 L 3.4570312 22.261719 A 3.4085758 3.4738577 0 0 0 3.0136719 24.263672 A 3.4085758 3.4738577 0 0 1 3.4570312 22.761719 L 7.0273438 16.460938 L 11.667969 24.5 L 11.810547 24.248047 L 11.667969 24 L 7.0273438 15.960938 z M 34.550781 42.5 A 3.4085758 3.4738577 0 0 1 34.324219 42.626953 A 3.4085758 3.4738577 0 0 0 34.550781 42.5 z M 34.3125 42.634766 A 3.4085758 3.4738577 0 0 1 34.005859 42.769531 A 3.4085758 3.4738577 0 0 0 34.3125 42.634766 z M 34.550781 43 A 3.4085758 3.4738577 0 0 1 34.324219 43.126953 A 3.4085758 3.4738577 0 0 0 34.550781 43 z M 34.3125 43.134766 A 3.4085758 3.4738577 0 0 1 34.005859 43.269531 A 3.4085758 3.4738577 0 0 0 34.3125 43.134766 z M 34.550781 43.5 A 3.4085758 3.4738577 0 0 1 34.324219 43.626953 A 3.4085758 3.4738577 0 0 0 34.550781 43.5 z M 34.3125 43.634766 A 3.4085758 3.4738577 0 0 1 34.005859 43.769531 A 3.4085758 3.4738577 0 0 0 34.3125 43.634766 z M 34.550781 44 A 3.4085758 3.4738577 0 0 1 34.324219 44.126953 A 3.4085758 3.4738577 0 0 0 34.550781 44 z M 34.3125 44.134766 A 3.4085758 3.4738577 0 0 1 34.005859 44.269531 A 3.4085758 3.4738577 0 0 0 34.3125 44.134766 z"/>
  <path style="opacity:0.2;fill:#ffffff" d="m 15.203125,5 c -1.21738,1.459e-4 -2.342271,0.6619777 -2.951172,1.7363281 L 3.4570312,22.261719 C 3.1191635,22.860624 2.977094,23.547151 3.0234375,24.232422 3.0616816,23.718313 3.2017498,23.214231 3.4570312,22.761719 L 12.251953,7.2363281 C 12.860854,6.1619777 13.985745,5.5001459 15.203125,5.5 h 17.59375 c 1.21738,1.459e-4 2.342271,0.6619777 2.951172,1.7363281 L 39.296875,13.5 l 5.246094,9.261719 c 0.03881,0.06902 0.0753,0.139367 0.109375,0.210937 l 0.002,0.002 c 0.04943,0.103806 0.09376,0.210058 0.132812,0.31836 v 0.002 c 0.03915,0.107598 0.07304,0.217107 0.101563,0.328125 v 0.002 c 0.02826,0.111407 0.05108,0.224176 0.06836,0.337891 v 0.002 c 0.01417,0.09322 0.02263,0.187178 0.0293,0.28125 0.0021,-0.02935 0.0064,-0.05849 0.0078,-0.08789 v -0.002 c 0.005,-0.115196 0.0043,-0.230573 -0.002,-0.345703 v -0.002 c -0.0061,-0.115107 -0.01785,-0.229832 -0.03516,-0.34375 v -0.002 c -0.01728,-0.113715 -0.0401,-0.226484 -0.06836,-0.337891 v -0.002 c -0.02852,-0.111018 -0.06241,-0.220527 -0.101563,-0.328125 v -0.002 c -0.03905,-0.108302 -0.08338,-0.214554 -0.132812,-0.31836 l -0.002,-0.002 c -0.03408,-0.07157 -0.07056,-0.141922 -0.109375,-0.210937 L 39.296875,13 35.748047,6.7363281 C 35.139146,5.6619777 34.014255,5.0001459 32.796875,5 Z m 14.898437,8 0.289063,0.5 h 9.039977 L 39.147399,13 Z"/>
  <path style="opacity:0.2" d="m 17.898438,13.5 h 12.203124 l 6.230469,11 -6.330031,11 H 17.898438 l -6.230469,-11 z"/>
  <path style="fill:#d5d5d5" d="m17.898438 13h12.203124l6.230469 11-6.330031 11h-12.103562l-6.230469-11z"/>
  <circle style="opacity:0.2" cx="24" cy="24.5" r="5"/>
  <circle style="fill:#ffffff" cx="24" cy="24" r="5"/>
  <path style="fill:#ffffff;opacity:0.2" d="M 17.898438 13 L 11.667969 24 L 11.808594 24.25 L 17.898438 13.5 L 30.101562 13.5 L 36.189453 24.248047 L 36.332031 24 L 30.101562 13 L 17.898438 13 z"/>
 </g>
</svg>
