<?xml version="1.0" encoding="UTF-8" standalone="no"?>
<svg
   width="192"
   height="192"
   version="1.1"
   id="svg24"
   sodipodi:docname="google_earth.svg"
   inkscape:version="1.1.1 (1:1.1+202109281949+c3084ef5ed)"
   xmlns:inkscape="http://www.inkscape.org/namespaces/inkscape"
   xmlns:sodipodi="http://sodipodi.sourceforge.net/DTD/sodipodi-0.dtd"
   xmlns="http://www.w3.org/2000/svg"
   xmlns:svg="http://www.w3.org/2000/svg">
  <defs
     id="defs28">
    <filter
       inkscape:collect="always"
       style="color-interpolation-filters:sRGB"
       id="filter1077"
       x="-0.048000001"
       y="-0.048000001"
       width="1.096"
       height="1.096">
      <feGaussianBlur
         inkscape:collect="always"
         stdDeviation="3.2"
         id="feGaussianBlur1079" />
    </filter>
    <filter
       inkscape:collect="always"
       style="color-interpolation-filters:sRGB"
       id="filter1084"
       x="-0.037419504"
       y="-0.066922593"
       width="1.074839"
       height="1.1338452">
      <feGaussianBlur
         inkscape:collect="always"
         stdDeviation="1.6546437"
         id="feGaussianBlur1086" />
    </filter>
    <filter
       inkscape:collect="always"
       style="color-interpolation-filters:sRGB"
       id="filter1088"
       x="-0.036442249"
       y="-0.070293887"
       width="1.0728845"
       height="1.1405878">
      <feGaussianBlur
         inkscape:collect="always"
         stdDeviation="2.1530821"
         id="feGaussianBlur1090" />
    </filter>
    <filter
       inkscape:collect="always"
       style="color-interpolation-filters:sRGB"
       id="filter1092"
       x="-0.034959383"
       y="-0.076557707"
       width="1.0699188"
       height="1.1531154">
      <feGaussianBlur
         inkscape:collect="always"
         stdDeviation="2.3306718"
         id="feGaussianBlur1094" />
    </filter>
    <filter
       inkscape:collect="always"
       style="color-interpolation-filters:sRGB"
       id="filter1096"
       x="-0.033494702"
       y="-0.084665404"
       width="1.0669894"
       height="1.1693308">
      <feGaussianBlur
         inkscape:collect="always"
         stdDeviation="2.2233854"
         id="feGaussianBlur1098" />
    </filter>
  </defs>
  <sodipodi:namedview
     id="namedview26"
     pagecolor="#ffffff"
     bordercolor="#666666"
     borderopacity="1.0"
     inkscape:pageshadow="2"
     inkscape:pageopacity="0.0"
     inkscape:pagecheckerboard="0"
     showgrid="false"
     inkscape:zoom="1"
     inkscape:cx="78"
     inkscape:cy="122"
     inkscape:window-width="1920"
     inkscape:window-height="1022"
     inkscape:window-x="0"
     inkscape:window-y="34"
     inkscape:window-maximized="1"
     inkscape:current-layer="svg24" />
  <circle
     style="opacity:0.2;stroke-width:4;filter:url(#filter1077)"
     cx="96"
     cy="100"
     r="80"
     id="circle2" />
  <path
     style="fill:#255fdb;stroke-width:4"
     d="m 71.171348,112.6637 c -27.272828,-36.081952 -55.27293,-8.66367 -47.963813,16.5546 12.55459,27.59101 40.572877,46.78199 72.763897,46.78199 28.545558,0 53.227468,-14.88187 67.245698,-36.54559 -21.09099,19.73644 -59.37294,16.43642 -92.045782,-26.791 z"
     id="path4" />
  <path
     style="opacity:0.1;stroke-width:4;filter:url(#filter1096)"
     d="m 16.060916,96.390969 c -0.02044,0.542132 -0.0625,1.080368 -0.0625,1.624996 0,11.927325 2.601971,23.187905 7.265624,33.351575 -0.38056,-1.79933 -0.517382,-3.54998 -0.539062,-5.26563 -4.010236,-9.14842 -6.356308,-19.14954 -6.664062,-29.710941 z m 27.132812,4.500001 c -12.524347,-0.79182 -21.422889,9.78718 -20.398437,22.91407 1.523822,-19.36619 25.346933,-30.408203 47.750001,-0.35156 36.591038,49.09108 72.502768,40.45363 92.593748,18.11719 5.40328,-8.05514 10.66312,-20.3895 12.17188,-32.67188 -0.39648,1.23218 -0.88018,2.40512 -1.39844,3.53906 -2.30471,9.6301 -6.48059,18.73308 -10.77344,25.13282 -20.09098,22.33644 -56.00271,30.97389 -92.593748,-18.11719 -9.450036,-12.67845 -19.16556,-18.04496 -27.351564,-18.56251 z"
     id="path14" />
  <path
     style="fill:#4285f4;stroke-width:4"
     d="M 95.553252,87.818152 C 58.044024,30.92704 15.998419,61.245332 15.998419,96.018184 c 0,11.927316 2.600009,23.181896 7.263662,33.345576 -4.981836,-23.55463 22.081899,-41.718332 47.281991,-7.90912 36.591038,49.09108 72.500258,40.45469 92.591238,18.11825 5.42729,-8.09094 10.71822,-20.50008 12.20005,-32.83649 l -0.0276,0.15456 c -8.59982,26.74554 -46.67268,31.1001 -79.754616,-19.072808 z"
     id="path6" />
  <path
     style="opacity:0.1;stroke-width:4;filter:url(#filter1092)"
     d="m 48.97498,59.437845 c -17.203308,-0.05383 -30.230502,14.133336 -32.671877,31.820312 -0.185895,2.22414 -0.304687,4.46956 -0.304687,6.742188 2.500008,-33.672848 43.181684,-57.04566 80,0 32.772844,50.772915 73.496854,37.542995 79.296874,11.015625 l 0.0392,-0.25 c 0.58182,-3.64547 0.64844,-7.12953 0.64844,-10.875001 0,-1.209096 0.0469,-2.410648 -0.008,-3.60156 -0.005,3.59128 -0.08,6.963701 -0.64063,10.476561 l -0.0392,0.25 C 169.49527,131.54334 128.77126,144.77326 95.998416,94.000345 79.890404,69.042869 63.041136,59.481861 48.97498,59.437845 Z"
     id="path16" />
  <path
     style="fill:#91bfff;stroke-width:4"
     d="M 121.26243,62.36352 C 93.407788,16.408806 58.08948,20.545185 34.207575,45.172544 22.852988,58.981688 15.998419,76.681752 15.998419,96 c 2.500009,-33.672848 43.181973,-57.045659 80.000289,0 32.772842,50.77291 73.500262,37.54559 79.300282,11.01822 l 0.0364,-0.25452 c 0.58182,-3.64547 0.64546,-7.1273 0.64546,-10.872764 0,-1.209096 0.0455,-2.4091 -0.009,-3.600012 -14.20005,10.072756 -32.83648,6.154568 -54.70929,-29.92738 z"
     id="path8" />
  <path
     style="opacity:0.1;stroke-width:4;filter:url(#filter1088)"
     d="m 66.545292,28.82847 c -5.57308,0.0826 -11.08922,1.333537 -16.476564,3.710937 -5.931244,4.166945 -11.292683,9.091422 -15.890625,14.671874 27.045553,-24.890999 60.227889,-18.136944 87.273437,25.33594 25.50919,41.009239 47.50523,30.514949 54.52344,21.742188 -0.0542,-1.243036 -0.16136,-2.46858 -0.27344,-3.695312 -7.27592,8.704128 -29.0336,18.491673 -54.25,-22.046876 C 104.54807,41.376669 85.246528,28.551303 66.545292,28.82847 Z"
     id="path18" />
  <path
     style="fill:#c4e1ff;stroke-width:4"
     d="M 121.45334,70.545364 C 146.96253,111.5546 168.95351,101.06366 175.97172,92.290896 175.699,86.036332 174.68081,79.981764 173.04444,74.190832 161.15348,74.436272 158.38075,72.454464 146.72616,54.636216 128.79882,27.227027 106.27147,8.7451424 66.94406,21.445188 54.071284,26.472479 42.816696,34.727054 34.180302,45.208912 61.225856,20.317911 94.407792,27.072481 121.45334,70.545364 Z"
     id="path10" />
  <path
     style="opacity:0.1;stroke-width:4;filter:url(#filter1084)"
     d="m 95.97498,18.000345 c -10.245492,0 -20.054656,1.953112 -29.054688,5.453125 35.154668,-11.090949 60.088288,9.293937 78.015628,36.703123 11.65459,17.818256 18.7548,18.758532 28.10937,16.031252 -0.35572,-1.25672 -0.80425,-2.472532 -1.21875,-3.703124 -8.75774,2.267212 -15.75621,0.694844 -26.89062,-16.328128 C 133.08351,38.035389 118.13996,23.046733 99.232792,18.133157 98.14554,18.089588 97.073112,18.000345 95.97498,18.000345 Z"
     id="path20" />
  <path
     style="fill:#f5f5f5;stroke-width:4"
     d="m 144.93524,58.154408 c 11.6546,17.818252 18.75462,18.763704 28.1092,16.036424 -9.51822,-33.627396 -40.37287,-58.191118 -77.073008,-58.191118 -10.245492,0 -20.054616,1.954552 -29.054648,5.454565 35.154676,-11.090949 60.091126,9.290942 78.018456,36.700129 z"
     id="path12" />
  <path
     id="path22"
     style="opacity:0.2;fill:#ffffff;stroke-width:4"
     d="M 95.998047 16 A 80 80 0 0 0 15.998047 96 A 80 80 0 0 0 16.021484 96.640625 A 80 80 0 0 1 95.998047 17 A 80 80 0 0 1 175.98242 96.298828 A 80 80 0 0 0 175.99805 96 A 80 80 0 0 0 95.998047 16 z " />
</svg>
