<svg xmlns="http://www.w3.org/2000/svg" width="48" height="48" version="1">
 <g>
  <path style="opacity:0.2" d="m 26.519531,24.5 -0.683593,1.78125 C 25.635946,26.662238 25.461451,27.075588 25.300781,27.5 L 20.119141,41.185547 18.847656,44.5 H 33 c 1.662,0 2.411569,-1.445654 3,-3 l 5.300781,-14 c 0.588431,-1.554346 -1.338,-3 -3,-3 z"/>
  <path style="fill:#4989f4" d="m26.519531 24-0.683593 1.78125c-0.199992 0.380988-0.374487 0.794338-0.535157 1.21875l-5.18164 13.685547-1.271485 3.314453h14.152344c1.662 0 2.411569-1.445654 3-3l5.300781-14c0.588431-1.554346-1.338-3-3-3h-11.78125z"/>
  <path style="opacity:0.2" d="m 20,4.5 c -1.662,0 -2.406438,1.4476059 -3,3 l -13,34 c -0.5935625,1.552394 1.338,3 3,3 h 11.847656 l 1.136719,-2.962891 C 19.989278,41.524356 19.995118,41.512768 20,41.5 L 20.464844,40.283203 20.59375,39.947266 34.189453,4.5 Z"/>
  <path style="fill:#f5b912" d="m20 4c-1.662 0-2.406438 1.4476059-3 3l-13 34c-0.5935625 1.552394 1.338 3 3 3h11.847656l1.136719-2.962891c0.004903-0.012753 0.010743-0.024341 0.015625-0.037109l0.464844-1.216797 0.128906-0.335937 13.595703-35.447266h-14.189453z"/>
  <path style="fill:#ffffff;opacity:0.1" d="M 26.519531 24 L 25.835938 25.78125 C 25.635945 26.162238 25.461451 26.575588 25.300781 27 L 20.119141 40.685547 L 18.847656 44 L 19.039062 44 L 20.119141 41.185547 L 25.300781 27.5 C 25.461451 27.075588 25.635945 26.662238 25.835938 26.28125 L 26.519531 24.5 L 38.300781 24.5 C 39.683512 24.5 41.2267 25.504958 41.375 26.736328 C 41.668169 25.286315 39.868088 24 38.300781 24 L 26.519531 24 z"/>
  <path style="fill:#ffffff;opacity:0.2" d="M 20 4 C 18.338 4 17.593562 5.4476059 17 7 L 4 41 C 3.8996608 41.262426 3.8933495 41.517628 3.9238281 41.767578 C 3.9418062 41.678706 3.9656516 41.589834 4 41.5 L 17 7.5 C 17.593562 5.9476059 18.338 4.5 20 4.5 L 33.998047 4.5 L 34.189453 4 L 20 4 z"/>
 </g>
</svg>
