<svg xmlns="http://www.w3.org/2000/svg" width="192" height="192" version="1">
 <g transform="scale(4)">
  <path style="opacity:0.2" d="m 24,8.5 -20,20 v 10 c 0,1.108 0.892,2 2,2 h 36 c 1.108,0 2,-0.892 2,-2 v -28 c 0,-1.108 -0.892,-2 -2,-2 z"/>
  <rect style="fill:#1fa363" width="30" height="20" x="4" y="12" rx="2" ry="2.5"/>
  <path style="fill-rule:evenodd;fill:#ffffff;opacity:0.1" d="M 6 12 C 4.892 12 4 13.115 4 14.5 L 4 15 C 4 13.615 4.892 12.5 6 12.5 L 32 12.5 C 33.108 12.5 34 13.615 34 15 L 34 14.5 C 34 13.115 33.108 12 32 12 L 6 12 z"/>
  <path style="fill:#4587f3" d="m24 8-20 20v10c0 1.108 0.892 2 2 2h36c1.108 0 2-0.892 2-2v-28c0-1.108-0.892-2-2-2z"/>
  <path style="opacity:0.2;fill-rule:evenodd" d="m 24,8.5 -20,20 h 18 c 1.108,0 2,-0.892 2,-2 v -16 z"/>
  <path style="fill-rule:evenodd;fill:#dd4d3e" d="m24 8-20 20h18c1.108 0 2-0.892 2-2v-16z"/>
  <path style="opacity:0.2;fill-rule:evenodd" d="m 24,8.5 -20,20 c 4.8890947,-1.525575 9.543671,-2.918179 11.863281,-3.691406 3.209303,-1.069802 3.800918,-2.043522 4.583985,-4.919922 C 20.63349,19.204622 22.359564,13.502723 24,8.5 Z"/>
  <path style="fill-rule:evenodd;fill:#f9bc14" d="m24 8-20 20c4.8890947-1.525575 9.543671-2.918179 11.863281-3.691406 3.209303-1.069802 3.800918-2.043522 4.583985-4.919922 0.186224-0.68405 1.912298-6.385949 3.552734-11.388672z"/>
  <path style="fill:#ffffff;opacity:0.2" d="M 24 8 L 4 28 L 4 28.5 L 24 8.5 L 42 8.5 C 43.108 8.5 44 9.392 44 10.5 L 44 10 C 44 8.892 43.108 8 42 8 L 24 8 z"/>
 </g>
</svg>
