<?xml version="1.0" encoding="UTF-8" standalone="no"?>
<svg
   xmlns:dc="http://purl.org/dc/elements/1.1/"
   xmlns:cc="http://creativecommons.org/ns#"
   xmlns:rdf="http://www.w3.org/1999/02/22-rdf-syntax-ns#"
   xmlns:svg="http://www.w3.org/2000/svg"
   xmlns="http://www.w3.org/2000/svg"
   xmlns:sodipodi="http://sodipodi.sourceforge.net/DTD/sodipodi-0.dtd"
   xmlns:inkscape="http://www.inkscape.org/namespaces/inkscape"
   width="48"
   height="48"
   version="1.1"
   id="svg26"
   sodipodi:docname="google_clock.svg"
   inkscape:version="0.92.2 (unknown)">
  <metadata
     id="metadata32">
    <rdf:RDF>
      <cc:Work
         rdf:about="">
        <dc:format>image/svg+xml</dc:format>
        <dc:type
           rdf:resource="http://purl.org/dc/dcmitype/StillImage" />
      </cc:Work>
    </rdf:RDF>
  </metadata>
  <defs
     id="defs30" />
  <sodipodi:namedview
     pagecolor="#ffffff"
     bordercolor="#666666"
     borderopacity="1"
     objecttolerance="10"
     gridtolerance="10"
     guidetolerance="10"
     inkscape:pageopacity="0"
     inkscape:pageshadow="2"
     inkscape:window-width="1920"
     inkscape:window-height="1016"
     id="namedview28"
     showgrid="false"
     inkscape:zoom="13.01"
     inkscape:cx="24"
     inkscape:cy="24"
     inkscape:window-x="0"
     inkscape:window-y="34"
     inkscape:window-maximized="1"
     inkscape:current-layer="svg26" />
  <path
     d="m 24,4.5 c -11.035307,0 -20,8.96469 -20,20 0,11.03531 8.964693,20.000003 20,20 11.035307,0 20.00001,-8.96469 20,-20 0,-11.03531 -8.964693,-20 -20,-20 z"
     style="opacity:0.2"
     id="path2"
     inkscape:connector-curvature="0" />
  <path
     d="m24 4.0000004c-11.035307 0-20 8.9646896-20 20s8.964693 20.000003 20 20c11.035307 0 20.00001-8.96469 20-20 0-11.03531-8.964693-20-20-20z"
     style="fill:#e4e4e4"
     id="path4" />
  <path
     style="fill:#ffffff;opacity:.1"
     d="M 24 4 C 12.964693 4 4 12.96469 4 24 C 4 24.085882 4.003364 24.170752 4.0058594 24.255859 C 4.1376404 13.333402 13.046643 4.5 24 4.5 C 34.953357 4.5 43.86236 13.333402 43.994141 24.255859 C 43.996635 24.170752 44 24.085882 44 24 C 44 12.96469 35.035307 4 24 4 z "
     id="path6" />
  <path
     d="M 24.000001,8.0000001 C 15.171752,8.0000001 8,15.171751 8,23.999999 8,32.828248 15.171752,40.000002 24.000001,40 32.828248,40 40.000006,32.828248 40,23.999999 40,15.171751 32.828248,8.0000001 24.000001,8.0000001 Z"
     style="fill:#4f8df5"
     id="path10" />
  <path
     d="m 24,20.5 c -2.207062,0 -4,1.792938 -4,4 0,2.207061 1.792938,4 4,4 2.207061,0 4,-1.792939 4,-4 0,-2.207062 -1.792939,-4 -4,-4 z"
     style="opacity:0.2"
     id="path14"
     inkscape:connector-curvature="0" />
  <path
     d="m 24,24.4998 16,-16"
     style="opacity:0.2;fill:none;stroke:#000000;stroke-width:4;stroke-linecap:round;stroke-linejoin:round"
     id="path16"
     inkscape:connector-curvature="0" />
  <path
     d="m24 24 16-16"
     style="fill:none;stroke-linecap:round;stroke-linejoin:round;stroke-width:4;stroke:#ffffff"
     id="path18" />
  <path
     d="m 15,18.4998 9,6"
     style="opacity:0.2;fill:none;stroke:#000000;stroke-width:4;stroke-linecap:round;stroke-linejoin:round"
     id="path20"
     inkscape:connector-curvature="0" />
  <path
     d="m15 18 9 6"
     style="fill:none;stroke-linecap:round;stroke-linejoin:round;stroke-width:4;stroke:#ffffff"
     id="path22" />
  <path
     d="m24 20c-2.207062 0-4 1.792938-4 4 0 2.207061 1.792938 4 4 4 2.207061 0 4-1.792939 4-4 0-2.207062-1.792939-4-4-4z"
     style="fill:#4f4f4f"
     id="path24" />
</svg>
