<svg xmlns="http://www.w3.org/2000/svg" width="192" height="192" version="1.1">
 <g transform="scale(4)">
  <path style="opacity:0.2" d="m 8,41.5 v 1 c 0,1.108 0.892,2 2,2 h 28 c 1.108,0 2,-0.892 2,-2 v -1 c 0,1.108 -0.892,2 -2,2 H 10 c -1.108,0 -2,-0.892 -2,-2 z"/>
  <path fill="#009587" d="m10 4c-1.108 0-2 0.892-2 2v36c0 1.108 0.892 2 2 2h28c1.108 0 2-0.892 2-2v-36c0-1.108-0.892-2-2-2h-28z"/>
  <path opacity=".2" d="m10 4c-1.108 0-2 0.892-2 2v36c0 1.108 0.892 2 2 2h3.9785v-40h-3.978z"/>
  <path style="fill:#ffffff;opacity:0.2" d="M 10 4 C 8.892 4 8 4.892 8 6 L 8 6.5 C 8 5.392 8.892 4.5 10 4.5 L 38 4.5 C 39.108 4.5 40 5.392 40 6.5 L 40 6 C 40 4.892 39.108 4 38 4 L 10 4 z"/>
  <path style="opacity:0.2" d="m 31.979,5.1 c -1,0 -1,1 -1,1 V 21 l 2.5,-1.5 2.5,1.5 V 6.1 c 0,-1 -1,-1 -1,-1 z"/>
  <path fill="#d8d8d8" d="m30.979 4v16.5l2.5-1.5 2.5 1.5v-16.5h-5z"/>
 </g>
</svg>
