<?xml version="1.0" encoding="UTF-8" standalone="no"?>
<svg
   width="192"
   height="192"
   x="0"
   y="0"
   version="1.1"
   id="svg14"
   sodipodi:docname="google_play_music.svg"
   inkscape:version="1.1.1 (1:1.1+202109281949+c3084ef5ed)"
   xmlns:inkscape="http://www.inkscape.org/namespaces/inkscape"
   xmlns:sodipodi="http://sodipodi.sourceforge.net/DTD/sodipodi-0.dtd"
   xmlns="http://www.w3.org/2000/svg"
   xmlns:svg="http://www.w3.org/2000/svg">
  <defs
     id="defs18">
    <filter
       inkscape:collect="always"
       style="color-interpolation-filters:sRGB"
       id="filter967"
       x="-0.050667406"
       y="-0.045599398"
       width="1.1013348"
       height="1.0911988">
      <feGaussianBlur
         inkscape:collect="always"
         stdDeviation="3.0400022"
         id="feGaussianBlur969" />
    </filter>
  </defs>
  <sodipodi:namedview
     id="namedview16"
     pagecolor="#ffffff"
     bordercolor="#666666"
     borderopacity="1.0"
     inkscape:pageshadow="2"
     inkscape:pageopacity="0.0"
     inkscape:pagecheckerboard="0"
     showgrid="false"
     inkscape:snap-bbox="true"
     inkscape:snap-bbox-midpoints="true"
     inkscape:zoom="1"
     inkscape:cx="106.5"
     inkscape:cy="80.5"
     inkscape:window-width="1920"
     inkscape:window-height="1019"
     inkscape:window-x="0"
     inkscape:window-y="34"
     inkscape:window-maximized="1"
     inkscape:current-layer="svg14" />
  <path
     fill="#eb4d27"
     d="M 161.43287,91.005226 39.777871,22.069792 c -5.197157,-2.911177 -9.847919,-2.638379 -12.675096,0.09 C 25.096391,24.069775 24.002,27.16175 24.002,31.163317 V 168.76618 c 0,4.00157 1.185551,7.09354 3.100655,9.00353 2.918296,2.81929 7.477939,3.09213 12.676296,0.091 L 161.43395,108.92123 c 8.75473,-4.91115 8.75473,-12.914285 0,-17.916244 z"
     id="path929"
     style="opacity:0.2;fill:#000000;stroke-width:3.99997;filter:url(#filter967)" />
  <path
     fill="#eb4d27"
     d="M 161.43287,87.007083 39.777871,18.071649 c -5.197157,-2.911177 -9.847919,-2.638379 -12.675096,0.09 C 25.096391,20.071632 24.002,23.163607 24.002,27.165174 V 164.76804 c 0,4.00157 1.185551,7.09354 3.100655,9.00353 2.918296,2.81929 7.477939,3.09213 12.676296,0.091 L 161.43395,104.92309 c 8.75473,-4.91115 8.75473,-12.914288 0,-17.916247 z"
     id="path2"
     style="stroke-width:3.99997" />
  <path
     id="path4"
     style="opacity:0.2;fill:#ffffff;stroke-width:3.99997"
     d="m 32.550781,15.998047 -0.002,0.002 c -2.165982,0.0456 -4.031724,0.800073 -5.445312,2.164062 -2.006384,1.909985 -3.101563,4.998434 -3.101563,9 v 1 c 0,-4.001567 1.095179,-7.090016 3.101563,-9 C 28.517104,17.800073 30.382846,17.0456 32.548828,17 l 0.002,-0.002 c 2.165983,-0.0456 4.627031,0.615478 7.22461,2.072265 L 161.4375,88.005859 c 4.22628,2.415476 6.35979,5.526374 6.5,8.652344 0.32381,-3.454479 -1.82258,-6.979026 -6.5,-9.652344 L 39.775391,18.070312 c -2.597579,-1.456787 -5.058627,-2.117865 -7.22461,-2.072265 z" />
  <path
     fill="#ffd739"
     d="m 96.00141,35.999502 c -15.215875,0 -29.071762,5.711953 -39.647675,15.047876 a 59.999508,59.999508 0 0 0 -0.024,0.024 c -1.447988,1.27999 -2.835976,2.623978 -4.155966,4.035967 a 59.999508,59.999508 0 0 0 -0.311997,0.351997 c -1.20399,1.311989 -2.351981,2.671978 -3.439972,4.087967 a 59.999508,59.999508 0 0 0 -0.503996,0.679994 c -1.007991,1.347989 -1.955984,2.731978 -2.843976,4.163966 a 59.999508,59.999508 0 0 0 -0.515996,0.851993 c -0.839993,1.395988 -1.619987,2.831977 -2.343981,4.303965 a 59.999508,59.999508 0 0 0 -0.499996,1.031991 c -0.671994,1.427988 -1.283989,2.891976 -1.844785,4.379964 a 59.999508,59.999508 0 0 0 -0.429596,1.171991 c -0.504396,1.435988 -0.947992,2.891976 -1.343989,4.375964 a 59.999508,59.999508 0 0 0 -0.398397,1.539987 c -0.313597,1.311989 -0.579195,2.643978 -0.804393,3.991967 a 59.999508,59.999508 0 0 0 -0.335998,2.207982 c -0.143998,1.115991 -0.245998,2.235982 -0.328397,3.367973 a 59.999508,59.999508 0 0 0 -0.226398,4.383964 c 0,1.879984 0.112399,3.727969 0.281198,5.56395 a 59.999508,59.999508 0 0 0 0.132799,1.15599 c 0.179998,1.60799 0.421996,3.19597 0.726794,4.76396 a 59.999508,59.999508 0 0 0 0.132799,0.688 c 0.799993,3.87596 1.975183,7.61593 3.482371,11.1799 a 59.999508,59.999508 0 0 0 0,0.016 c 2.363981,5.57196 5.543955,10.71192 9.391923,15.27188 5.971951,7.07994 13.519889,12.78789 22.147818,16.49986 0.195999,0.084 0.395997,0.108 0.595995,0.108 a 59.999508,59.999508 0 0 0 4.007968,1.57199 l 72.895403,-41.30366 c 0.98399,-0.288 1.85598,-0.772 2.61998,-1.48399 l 2.16398,-1.22799 a 59.999508,59.999508 0 0 0 1.06799,-6.94394 c 0.108,-0.83999 0.14,-1.863983 0.196,-2.827975 a 59.999508,59.999508 0 0 0 0.156,-3.031975 c 0,-33.135729 -26.86378,-59.999508 -59.99951,-59.999508 z"
     id="path6"
     style="stroke-width:3.99997" />
  <circle
     fill="#ff8c00"
     cx="96.001411"
     cy="95.999008"
     r="35.999706"
     id="circle8"
     style="stroke-width:3.99997" />
  <path
     id="path12"
     style="opacity:0.2;fill:#ffffff;stroke-width:3.99997"
     d="M 96.001953,36 C 80.786078,36 66.929429,41.710952 56.353516,51.046875 a 59.999508,59.999508 0 0 0 -0.02344,0.02539 c -1.447988,1.27999 -2.83626,2.623167 -4.15625,4.035156 a 59.999508,59.999508 0 0 0 -0.3125,0.351562 c -1.20399,1.311989 -2.351462,2.671902 -3.439453,4.087891 a 59.999508,59.999508 0 0 0 -0.503906,0.679687 c -1.007991,1.347989 -1.955758,2.732075 -2.84375,4.164063 a 59.999508,59.999508 0 0 0 -0.515625,0.853516 c -0.839993,1.395988 -1.621709,2.830746 -2.345703,4.302734 a 59.999508,59.999508 0 0 0 -0.5,1.033203 c -0.671994,1.427988 -1.282954,2.890918 -1.84375,4.378906 a 59.999508,59.999508 0 0 0 -0.429688,1.171875 c -0.504396,1.435988 -0.947753,2.892966 -1.34375,4.376953 a 59.999508,59.999508 0 0 0 -0.398437,1.539063 c -0.313597,1.311989 -0.57949,2.644199 -0.804688,3.992187 a 59.999508,59.999508 0 0 0 -0.335937,2.208985 c -0.143998,1.115991 -0.245726,2.235196 -0.328125,3.367187 a 59.999508,59.999508 0 0 0 -0.226563,4.382813 c 0,0.171492 0.01795,0.33833 0.02539,0.507812 a 59.999508,59.999508 0 0 1 0.201172,-3.890625 c 0.0824,-1.131991 0.184127,-2.251196 0.328125,-3.367187 a 59.999508,59.999508 0 0 1 0.335937,-2.208985 c 0.225198,-1.347988 0.491091,-2.680198 0.804688,-3.992187 A 59.999508,59.999508 0 0 1 38.0957,81.507811 c 0.395997,-1.483987 0.839354,-2.940965 1.34375,-4.376953 a 59.999508,59.999508 0 0 1 0.429688,-1.171875 c 0.560796,-1.487988 1.171756,-2.950918 1.84375,-4.378906 a 59.999508,59.999508 0 0 1 0.5,-1.033203 c 0.723994,-1.471988 1.50571,-2.906746 2.345703,-4.302734 a 59.999508,59.999508 0 0 1 0.515625,-0.853516 c 0.887992,-1.431988 1.835759,-2.816074 2.84375,-4.164063 a 59.999508,59.999508 0 0 1 0.503906,-0.679687 c 1.087991,-1.415989 2.235463,-2.775902 3.439453,-4.087891 a 59.999508,59.999508 0 0 1 0.3125,-0.351562 c 1.31999,-1.411989 2.708262,-2.755166 4.15625,-4.035156 a 59.999508,59.999508 0 0 1 0.02344,-0.02539 C 66.929429,42.710952 80.786078,37 96.001953,37 128.91485,37 155.62447,63.505803 155.98242,96.333984 A 59.999508,59.999508 0 0 0 156,95.998047 C 156,62.862318 129.13768,36 96.001953,36 Z" />
  <g
     style="fill:#ffffff;enable-background:new"
     transform="matrix(1.9987252,0,0,1.9997323,-889.38173,-281.94226)"
     id="g16">
    <path
       style="fill:#ffffff"
       d="m 489,182.00009 v 9.18741 c -0.32,-0.12 -0.64,-0.19 -1,-0.19 -1.6568,0 -3,1.3432 -3,3 0,1.6568 1.3432,3 3,3 1.6568,0 3.00383,-1.3432 3.00383,-3 v -9.0406 l 8.0051,-1.95931 v 5.18741 c -0.31999,-0.12 -0.64913,-0.19 -1.00914,-0.19 -1.65679,0 -3,1.3432 -3,3 0,1.6568 1.34321,3 3,3 1.6568,0 3.15,-1.35 3,-3 v -11.99991 z"
       id="path14"
       sodipodi:nodetypes="ccsssscccsssscc" />
  </g>
</svg>
