<?xml version="1.0" encoding="UTF-8" standalone="no"?>
<svg
   xmlns:dc="http://purl.org/dc/elements/1.1/"
   xmlns:cc="http://creativecommons.org/ns#"
   xmlns:rdf="http://www.w3.org/1999/02/22-rdf-syntax-ns#"
   xmlns:svg="http://www.w3.org/2000/svg"
   xmlns="http://www.w3.org/2000/svg"
   xmlns:sodipodi="http://sodipodi.sourceforge.net/DTD/sodipodi-0.dtd"
   xmlns:inkscape="http://www.inkscape.org/namespaces/inkscape"
   width="48"
   height="48"
   version="1"
   id="svg20"
   sodipodi:docname="google_inbox.svg"
   inkscape:version="0.92.2 (unknown)">
  <metadata
     id="metadata26">
    <rdf:RDF>
      <cc:Work
         rdf:about="">
        <dc:format>image/svg+xml</dc:format>
        <dc:type
           rdf:resource="http://purl.org/dc/dcmitype/StillImage" />
      </cc:Work>
    </rdf:RDF>
  </metadata>
  <defs
     id="defs24" />
  <sodipodi:namedview
     pagecolor="#ffffff"
     bordercolor="#666666"
     borderopacity="1"
     objecttolerance="10"
     gridtolerance="10"
     guidetolerance="10"
     inkscape:pageopacity="0"
     inkscape:pageshadow="2"
     inkscape:window-width="1920"
     inkscape:window-height="1016"
     id="namedview22"
     showgrid="false"
     inkscape:zoom="13.01"
     inkscape:cx="24"
     inkscape:cy="24"
     inkscape:window-x="0"
     inkscape:window-y="34"
     inkscape:window-maximized="1"
     inkscape:current-layer="svg20" />
  <path
     d="M 4.0976562,20.5 C 4.0387882,20.803351 4,21.126619 4,21.5 v 20 c 0,0.648975 0.3109164,1.219048 0.7871094,1.583984 0.00186,0.0014 0.004,0.0025 0.00586,0.0039 0.071909,0.05471 0.147423,0.103737 0.2265624,0.148437 0.024798,0.01419 0.050739,0.0259 0.076172,0.03906 0.068196,0.03473 0.1364978,0.06688 0.2089844,0.09375 0.053942,0.02047 0.1099247,0.035 0.1660156,0.05078 0.05412,0.01483 0.1062306,0.03266 0.1621094,0.04297 C 5.7517528,43.485514 5.8739353,43.5 6,43.5 h 18 18 c 0.126065,0 0.248247,-0.01449 0.367188,-0.03711 0.05588,-0.01031 0.107989,-0.02814 0.162109,-0.04297 0.05609,-0.01578 0.112073,-0.03031 0.166015,-0.05078 0.07249,-0.02687 0.140789,-0.05902 0.208985,-0.09375 0.02543,-0.01316 0.05137,-0.02487 0.07617,-0.03906 0.07914,-0.0447 0.154653,-0.09373 0.226562,-0.148437 0.0019,-0.0014 0.004,-0.0025 0.0059,-0.0039 C 43.689084,42.719048 44,42.148975 44,41.5 v -20 c 0,-0.373381 -0.03879,-0.696649 -0.09766,-1 L 24,31.990234 Z"
     style="opacity:0.2;fill:#000000"
     id="path2"
     inkscape:connector-curvature="0" />
  <path
     d="m24 5c-0.94697 0-1.893962 0.2681285-2.609375 0.8046875l-14.556641 10.916016c-1.7219275 1.232264-2.5626243 2.014923-2.777369 3.446797-0.038223 0.254866 0.5507209 0.779062 0.5645026 1.080947l0.8695652 19.047619c0.05053 1.106847-0.3076187 1.824021 0.7991719 1.875777l17.461698 0.124223 17.171842 0.289855c1.107843 0.0187 1.819748-0.479339 1.875777-1.585921l0.993789-19.627329c0.016-0.315939 0.186889-0.976029 0.144929-1.240822-0.223315-1.409294-1.064288-2.189147-2.771871-3.411146l-14.556644-10.916016c-0.715413-0.536559-1.662405-0.8046875-2.609375-0.8046875z"
     style="fill:#3f70d8"
     id="path4" />
  <path
     d="m24 5c-0.94697 0-1.893962 0.2681285-2.609375 0.8046875l-14.556641 10.916016c-1.6497347 1.180601-2.4798705 1.95776-2.7363282 3.279297h39.804688c-0.256458-1.321537-1.086593-2.098696-2.736328-3.279297l-14.556641-10.916016c-0.715413-0.536559-1.662405-0.8046875-2.609375-0.8046875z"
     style="fill:#000000;opacity:.1"
     id="path6" />
  <path
     d="m 17,16.500083 7,7 13,-13"
     style="opacity:0.2;fill:none;stroke:#000000;stroke-width:4;stroke-linecap:round;stroke-linejoin:round"
     id="path8"
     inkscape:connector-curvature="0" />
  <path
     d="m17 16 7 7 13-13"
     style="fill:none;stroke-linecap:round;stroke-linejoin:round;stroke-width:4;stroke:#e4e4e4"
     id="path10" />
  <path
     d="m4.097656 20 39.115235 22.583984c-0.336815 0.258123-0.753866 0.416016-1.212891 0.416016h-36c-1.108 0-2-0.892-2-2v-20c0-0.373381 0.038788-0.696649 0.097656-1z"
     style="fill:#33b9f6"
     id="path12" />
  <path
     style="fill:#ffffff;opacity:.1"
     d="M 4.0976562 20 C 4.0387882 20.303351 4 20.626619 4 21 L 4 21.5 C 4 21.126619 4.0387882 20.803351 4.0976562 20.5 L 42.773438 42.830078 C 42.929825 42.764645 43.07971 42.686049 43.212891 42.583984 L 4.0976562 20 z "
     id="path14" />
  <path
     d="m43.902344 20-39.115235 22.583984c0.336815 0.258123 0.7538655 0.416016 1.2128906 0.416016h36c1.108 0 2-0.892 2-2v-20c0-0.373381-0.038788-0.696649-0.097656-1z"
     style="fill:#84d5fa"
     id="path16" />
  <path
     style="fill:#ffffff;opacity:.2"
     d="M 43.902344 20 L 4.7871094 42.583984 C 4.9202894 42.686049 5.0701746 42.764645 5.2265625 42.830078 L 43.902344 20.5 C 43.961213 20.803351 44 21.126619 44 21.5 L 44 21 C 44 20.626619 43.961211 20.303351 43.902344 20 z "
     id="path18" />
</svg>
