<svg xmlns="http://www.w3.org/2000/svg" width="48" height="48" version="1">
 <g>
  <rect style="opacity:0.2" width="10" height="16" x="19" y="28.5" rx="4" ry="4"/>
  <path style="opacity:0.2" d="m 23,4.5000015 c -2.216,0 -4,1.784 -4,4 v 1.8750005 a 15,15 0 0 0 -4.730469,2.732422 l -1.625,-0.9375 c -1.919112,-1.108 -4.3568435,-0.454269 -5.4648435,1.464844 l -1,1.730468 c -1.108,1.919113 -0.4542685,4.356844 1.4648437,5.464844 l 1.6171876,0.933594 A 15,15 0 0 0 9,24.500002 15,15 0 0 0 9.2617188,27.23633 l -1.6171876,0.933594 c -1.9191122,1.108 -2.5728437,3.545731 -1.4648437,5.464844 l 1,1.730468 c 1.108,1.919113 3.5457315,2.572844 5.4648435,1.464844 l 1.613281,-0.93164 A 15,15 0 0 0 24,39.500002 15,15 0 0 0 33.730469,35.89258 l 1.625,0.9375 c 1.919112,1.108 4.356843,0.454269 5.464843,-1.464844 l 1,-1.730468 c 1.108,-1.919113 0.454269,-4.356844 -1.464843,-5.464844 L 38.738281,27.23633 A 15,15 0 0 0 39,24.500002 15,15 0 0 0 38.738281,21.763674 l 1.617188,-0.933594 c 1.919112,-1.108 2.572843,-3.545731 1.464843,-5.464844 l -1,-1.730468 c -1.108,-1.919113 -3.545731,-2.572844 -5.464843,-1.464844 l -1.613281,0.93164 A 15,15 0 0 0 29,10.376955 V 8.5000015 c 0,-2.216 -1.784,-4 -4,-4 z"/>
  <path style="fill:#077c6f" d="m23 4c-2.216 0-4 1.784-4 4v1.875a15 15 0 0 0-4.730469 2.732422l-1.625-0.9375c-1.919112-1.108-4.3568435-0.454269-5.4648435 1.464844l-1 1.730468c-1.108 1.919113-0.4542685 4.356844 1.4648437 5.464844l1.6171876 0.933594a15 15 0 0 0-0.2617188 2.736328 15 15 0 0 0 0.2617188 2.736328l-1.6171876 0.933594c-1.9191122 1.108-2.5728437 3.545731-1.4648437 5.464844l1 1.730468c1.108 1.919113 3.5457315 2.572844 5.4648435 1.464844l1.613281-0.93164a15 15 0 0 0 9.742188 3.601562 15 15 0 0 0 9.730469-3.607422l1.625 0.9375c1.919112 1.108 4.356843 0.454269 5.464843-1.464844l1-1.730468c1.108-1.919113 0.454269-4.356844-1.464843-5.464844l-1.617188-0.933594a15 15 0 0 0 0.261719-2.736328 15 15 0 0 0-0.261719-2.736328l1.617188-0.933594c1.919112-1.108 2.572843-3.545731 1.464843-5.464844l-1-1.730468c-1.108-1.919113-3.545731-2.572844-5.464843-1.464844l-1.613281 0.93164a15 15 0 0 0-4.742188-2.7246089v-1.8769531c0-2.216-1.784-4-4-4h-2z"/>
  <rect style="fill:#e4e4e4" width="10" height="16" x="19" y="28" rx="4" ry="4"/>
  <rect style="opacity:0.4" width="4" height="12" x="22" y="30" rx="2" ry="2"/>
  <path style="opacity:0.2" d="M 28,15.339844 V 24.5 l -4,2 -4,-2 V 15.347656 A 10,10 0 0 0 14,24.5 a 10,10 0 0 0 10,10 10,10 0 0 0 10,-10 10,10 0 0 0 -6,-9.160156 z"/>
  <path style="fill:#ffffff" d="m28 14.839843v7.160156l-4 3-4-3v-7.152344c-3.64001 1.588627-5.994912 5.180772-6 9.152344 0 5.522847 4.477153 10 10 10s10-4.477153 10-10c-2e-3 -3.974408-2.357394-7.570393-6-9.160156z"/>
  <path style="fill:#ffffff;opacity:0.1" d="m28 14.839843v1c3.465999 1.512685 5.761859 4.842779 5.978516 8.585937 0.006017-0.142404 0.021484-0.281897 0.021484-0.425781-2e-3 -3.974408-2.357394-7.570393-6-9.160156zm-8 0.0078c-3.64001 1.588627-5.994912 5.180772-6 9.152344 0 0.143884 0.01547 0.283377 0.02148 0.425781 0.219272-3.740362 2.514991-7.066509 5.97852-8.578113v-1zm0 7.152344v1l4 3 4-3v-1l-4 3-4-3z"/>
  <path style="fill:#ffffff;opacity:0.1" d="M 23 4 C 20.784 4 19 5.784 19 8 L 19 8.5 C 19 6.284 20.784 4.5 23 4.5 L 25 4.5 C 27.216 4.5 29 6.284 29 8.5 L 29 8 C 29 5.784 27.216 4 25 4 L 23 4 z M 19 9.875 A 15 15 0 0 0 14.269531 12.607422 L 12.644531 11.669922 C 10.725419 10.561922 8.2876875 11.215653 7.1796875 13.134766 L 6.1796875 14.865234 C 5.7513065 15.607212 5.5924911 16.426594 5.6621094 17.216797 C 5.6858586 16.586288 5.8411309 15.951632 6.1796875 15.365234 L 7.1796875 13.634766 C 8.2876875 11.715653 10.725419 11.061922 12.644531 12.169922 L 14.269531 13.107422 A 15 15 0 0 1 19 10.375 L 19 9.875 z M 29 9.8769531 L 29 10.376953 A 15 15 0 0 1 33.742188 13.101562 L 35.355469 12.169922 C 37.274581 11.061922 39.712313 11.715653 40.820312 13.634766 L 41.820312 15.365234 C 42.158869 15.951632 42.314141 16.586288 42.337891 17.216797 C 42.407509 16.426594 42.248694 15.607212 41.820312 14.865234 L 40.820312 13.134766 C 39.712313 11.215653 37.274581 10.561922 35.355469 11.669922 L 33.742188 12.601562 A 15 15 0 0 0 29 9.8769531 z M 38.806641 21.724609 L 38.738281 21.763672 A 15 15 0 0 1 38.988281 24.271484 A 15 15 0 0 0 39 24 A 15 15 0 0 0 38.806641 21.724609 z M 9.1972656 21.726562 A 15 15 0 0 0 9 24 A 15 15 0 0 0 9.0117188 24.228516 A 15 15 0 0 1 9.2617188 21.763672 L 9.1972656 21.726562 z M 38.802734 26.773438 A 15 15 0 0 1 38.738281 27.236328 L 40.355469 28.169922 C 41.532603 28.849541 42.227443 30.029561 42.337891 31.283203 C 42.391866 29.850235 41.688184 28.439365 40.355469 27.669922 L 38.802734 26.773438 z M 9.1933594 26.775391 L 7.6445312 27.669922 C 6.3118163 28.439365 5.6081341 29.850235 5.6621094 31.283203 C 5.7725575 30.029561 6.4673967 28.849541 7.6445312 28.169922 L 9.2617188 27.236328 A 15 15 0 0 1 9.1933594 26.775391 z"/>
 </g>
</svg>
