<?xml version="1.0" encoding="UTF-8" standalone="no"?>
<svg
   xmlns:dc="http://purl.org/dc/elements/1.1/"
   xmlns:cc="http://creativecommons.org/ns#"
   xmlns:rdf="http://www.w3.org/1999/02/22-rdf-syntax-ns#"
   xmlns:svg="http://www.w3.org/2000/svg"
   xmlns="http://www.w3.org/2000/svg"
   xmlns:sodipodi="http://sodipodi.sourceforge.net/DTD/sodipodi-0.dtd"
   xmlns:inkscape="http://www.inkscape.org/namespaces/inkscape"
   width="48"
   height="48"
   version="1"
   id="svg30"
   sodipodi:docname="google_arts.svg"
   inkscape:version="0.92.2 (unknown)">
  <metadata
     id="metadata36">
    <rdf:RDF>
      <cc:Work
         rdf:about="">
        <dc:format>image/svg+xml</dc:format>
        <dc:type
           rdf:resource="http://purl.org/dc/dcmitype/StillImage" />
      </cc:Work>
    </rdf:RDF>
  </metadata>
  <defs
     id="defs34" />
  <sodipodi:namedview
     pagecolor="#ffffff"
     bordercolor="#666666"
     borderopacity="1"
     objecttolerance="10"
     gridtolerance="10"
     guidetolerance="10"
     inkscape:pageopacity="0"
     inkscape:pageshadow="2"
     inkscape:window-width="1920"
     inkscape:window-height="1016"
     id="namedview32"
     showgrid="false"
     inkscape:zoom="11.33"
     inkscape:cx="24"
     inkscape:cy="24"
     inkscape:window-x="0"
     inkscape:window-y="34"
     inkscape:window-maximized="1"
     inkscape:current-layer="svg30" />
  <path
     d="m 6,44.5 c -1.108,0 -2,-0.892 -2,-2 v -1 c 0,1.108 0.892,2 2,2 h 36 c 1.108,0 2,-0.892 2,-2 v 1 c 0,1.108 -0.892,2 -2,2 z"
     style="opacity:0.2"
     id="path6"
     inkscape:connector-curvature="0" />
  <rect
     transform="matrix(0,-1,-1,0,0,0)"
     x="-44"
     y="-44"
     width="40"
     height="40"
     rx="2"
     ry="2"
     style="fill:#039be5"
     id="rect2" />
  <path
     style="fill:#ffffff;opacity:.2"
     d="M 6 4 C 4.892 4 4 4.892 4 6 L 4 6.5 C 4 5.392 4.892 4.5 6 4.5 L 42 4.5 C 43.108 4.5 44 5.392 44 6.5 L 44 6 C 44 4.892 43.108 4 42 4 L 6 4 z "
     id="path4" />
  <rect
     x="15"
     y="20.000002"
     width="4"
     height="12"
     style="fill-rule:evenodd;fill:#e4e4e4"
     id="rect8" />
  <rect
     x="29"
     y="20.000002"
     width="4"
     height="12"
     style="fill-rule:evenodd;fill:#e4e4e4"
     id="rect10" />
  <rect
     x="22"
     y="20.000002"
     width="4"
     height="12"
     style="fill-rule:evenodd;fill:#e4e4e4"
     id="rect12" />
  <rect
     x="13"
     y="31"
     width="22"
     height="4"
     rx="1.2054795"
     ry="1.1428571"
     style="fill-rule:evenodd;fill:#f1f1f1"
     id="rect14" />
  <rect
     x="13"
     y="17.499998"
     width="22"
     height="4"
     rx="1.2054795"
     ry="1.1428571"
     style="opacity:0.1;fill:#000000;fill-rule:evenodd"
     id="rect16" />
  <rect
     x="13"
     y="17"
     width="22"
     height="4"
     rx="1.2054795"
     ry="1.1428571"
     style="fill-rule:evenodd;fill:#f1f1f1"
     id="rect18" />
  <path
     d="M 22.984309,10.910488 18,13.523524 13.031854,16.128086 C 11.9378,16.665409 12.085227,16.422471 12,17.451906 v 1.886825 C 12,19.428096 12.06613,19.5 12.148242,19.5 H 35.851758 C 35.933872,19.5 36,19.428097 36,19.338731 v -1.844855 c -0.0024,-1.085782 -0.02967,-0.84039 -1.072182,-1.386932 L 30,13.523524 25.042952,10.92478 c -0.917701,-0.628871 -1.139861,-0.495966 -2.058643,-0.01429 z"
     style="opacity:0.1;fill:#000000;fill-rule:evenodd"
     id="path20"
     inkscape:connector-curvature="0" />
  <path
     d="m22.984309 10.410488-4.984309 2.613036-4.968146 2.604562c-1.094054 0.537323-0.946627 0.294385-1.031854 1.32382v1.886825c0 0.089365 0.06613 0.161269 0.148242 0.161269h23.703516c0.082114 0 0.148242-0.071903 0.148242-0.161269v-1.844855c-0.0024-1.085782-0.02967-0.84039-1.072182-1.386932l-4.927818-2.58342-4.957048-2.598744c-0.917701-0.628871-1.139861-0.495966-2.058643-0.01429z"
     style="fill-rule:evenodd;fill:#ffffff"
     id="path22" />
  <path
     d="M 13.315137,33.5 C 12.586589,33.5 12,34.067147 12,34.771552 V 36.5 H 36 V 34.771552 C 36,34.067147 35.413411,33.5 34.684863,33.5 Z"
     style="opacity:0.2;fill:#000000;fill-rule:evenodd"
     id="path24"
     inkscape:connector-curvature="0" />
  <path
     d="M 13.315137,33 C 12.586589,33 12,33.567147 12,34.271552 L 12,36 36,36 36,34.271552 C 36,33.567147 35.413411,33 34.684863,33 l -21.369726,0 z"
     style="fill-rule:evenodd;fill:#ffffff"
     id="path26" />
  <path
     style="fill-rule:evenodd;fill:#ffffff"
     d="M 14.205078 31 C 13.537242 31 13 31.509435 13 32.142578 L 13 32.642578 C 13 32.009435 13.537242 31.5 14.205078 31.5 L 33.794922 31.5 C 34.462758 31.5 35 32.009435 35 32.642578 L 35 32.142578 C 35 31.509435 34.462758 31 33.794922 31 L 14.205078 31 z "
     id="path28" />
</svg>
