<svg xmlns="http://www.w3.org/2000/svg" width="48" height="48" version="1.1">
 <g>
  <path style="opacity:0.2" d="m 24,4.5 c -11.035307,0 -20,8.96469 -20,20 0,11.03531 8.964693,20.000003 20,20 11.035307,0 20.00001,-8.96469 20,-20 0,-11.03531 -8.964693,-20 -20,-20 z"/>
  <path style="fill:#e4e4e4" d="m24 4.0000004c-11.035307 0-20 8.9646896-20 20s8.964693 20.000003 20 20c11.035307 0 20.00001-8.96469 20-20 0-11.03531-8.964693-20-20-20z"/>
  <path style="fill:#ffffff;opacity:0.1" d="M 24 4 C 12.964693 4 4 12.96469 4 24 C 4 24.085882 4.003364 24.170752 4.0058594 24.255859 C 4.1376404 13.333402 13.046643 4.5 24 4.5 C 34.953357 4.5 43.86236 13.333402 43.994141 24.255859 C 43.996635 24.170752 44 24.085882 44 24 C 44 12.96469 35.035307 4 24 4 z"/>
  <path style="fill:#4f8df5" d="M 24.000001,8.0000001 C 15.171752,8.0000001 8,15.171751 8,23.999999 8,32.828248 15.171752,40.000002 24.000001,40 32.828248,40 40.000006,32.828248 40,23.999999 40,15.171751 32.828248,8.0000001 24.000001,8.0000001 Z"/>
  <path style="opacity:0.2" d="m 24,20.5 c -2.207062,0 -4,1.792938 -4,4 0,2.207061 1.792938,4 4,4 2.207061,0 4,-1.792939 4,-4 0,-2.207062 -1.792939,-4 -4,-4 z"/>
  <path style="opacity:0.2;fill:none;stroke:#000000;stroke-width:4;stroke-linecap:round;stroke-linejoin:round" d="m 24,24.4998 16,-16"/>
  <path style="fill:none;stroke-linecap:round;stroke-linejoin:round;stroke-width:4;stroke:#ffffff" d="m24 24 16-16"/>
  <path style="opacity:0.2;fill:none;stroke:#000000;stroke-width:4;stroke-linecap:round;stroke-linejoin:round" d="m 15,18.4998 9,6"/>
  <path style="fill:none;stroke-linecap:round;stroke-linejoin:round;stroke-width:4;stroke:#ffffff" d="m15 18 9 6"/>
  <path style="fill:#4f4f4f" d="m24 20c-2.207062 0-4 1.792938-4 4 0 2.207061 1.792938 4 4 4 2.207061 0 4-1.792939 4-4 0-2.207062-1.792939-4-4-4z"/>
 </g>
</svg>
