<svg xmlns="http://www.w3.org/2000/svg" width="192" height="192" version="1.1">
 <g transform="scale(4)">
  <path style="opacity:0.2" d="m 18,9.5 a 15,15 0 0 0 -15,15 15,15 0 0 0 15,15 h 17 c 5.522847,0 10,-4.477153 10,-10 0,-5.522847 -4.477153,-10 -10,-10 H 32.125 A 15,15 0 0 0 18,9.5 Z"/>
  <path style="fill:#4989f4" d="m18 9a15 15 0 0 0-15 15 15 15 0 0 0 15 15h17c5.522847 0 10-4.477153 10-10s-4.477153-10-10-10h-2.875a15 15 0 0 0-14.125-10z"/>
  <path style="opacity:0.2" d="m 18,16.500475 a 8,8 0 0 0 -8,8 8,8 0 0 0 8,8 8,8 0 0 0 4.232422,-1.222656 l 4.263672,3.83789 a 1.5005246,1.5005246 0 1 0 2.007812,-2.230468 l -4.0625,-3.65625 A 8,8 0 0 0 26,24.500475 a 8,8 0 0 0 -8,-8 z m 0,3 a 5,5 0 0 1 5,5 5,5 0 0 1 -5,5 5,5 0 0 1 -5,-5 5,5 0 0 1 5,-5 z"/>
  <path style="fill:#ffffff" d="m18 16.000475a8 8 0 0 0-8 8 8 8 0 0 0 8 8 8 8 0 0 0 4.232422-1.222656l4.263672 3.83789a1.5005246 1.5005246 0 1 0 2.007812-2.230468l-4.0625-3.65625a8 8 0 0 0 1.558594-4.728516 8 8 0 0 0-8-8zm0 3a5 5 0 0 1 5 5 5 5 0 0 1-5 5 5 5 0 0 1-5-5 5 5 0 0 1 5-5z"/>
  <path style="fill:#ffffff;opacity:0.2" d="M 18 9 A 15 15 0 0 0 3 24 A 15 15 0 0 0 3.0097656 24.207031 A 15 15 0 0 1 18 9.5 A 15 15 0 0 1 32.125 19.5 L 35 19.5 C 40.438379 19.5 44.854217 23.843908 44.988281 29.25 C 44.990364 29.166034 45 29.084468 45 29 C 45 23.477153 40.522847 19 35 19 L 32.125 19 A 15 15 0 0 0 18 9 z"/>
 </g>
</svg>
