<?xml version="1.0" encoding="UTF-8" standalone="no"?>
<svg
   xmlns:dc="http://purl.org/dc/elements/1.1/"
   xmlns:cc="http://creativecommons.org/ns#"
   xmlns:rdf="http://www.w3.org/1999/02/22-rdf-syntax-ns#"
   xmlns:svg="http://www.w3.org/2000/svg"
   xmlns="http://www.w3.org/2000/svg"
   xmlns:sodipodi="http://sodipodi.sourceforge.net/DTD/sodipodi-0.dtd"
   xmlns:inkscape="http://www.inkscape.org/namespaces/inkscape"
   width="48"
   height="48"
   version="1"
   id="svg22"
   sodipodi:docname="google_brailleback.svg"
   inkscape:version="0.92.2 (unknown)">
  <metadata
     id="metadata28">
    <rdf:RDF>
      <cc:Work
         rdf:about="">
        <dc:format>image/svg+xml</dc:format>
        <dc:type
           rdf:resource="http://purl.org/dc/dcmitype/StillImage" />
      </cc:Work>
    </rdf:RDF>
  </metadata>
  <defs
     id="defs26" />
  <sodipodi:namedview
     pagecolor="#ffffff"
     bordercolor="#666666"
     borderopacity="1"
     objecttolerance="10"
     gridtolerance="10"
     guidetolerance="10"
     inkscape:pageopacity="0"
     inkscape:pageshadow="2"
     inkscape:window-width="1920"
     inkscape:window-height="1016"
     id="namedview24"
     showgrid="false"
     inkscape:zoom="13.01"
     inkscape:cx="24"
     inkscape:cy="24"
     inkscape:window-x="0"
     inkscape:window-y="34"
     inkscape:window-maximized="1"
     inkscape:current-layer="svg22" />
  <path
     d="M 37,4.5 H 11 c -1.108,0 -2,0.892 -2,2 v 36 c 0,1.108 0.892,2 2,2 h 26 c 1.108,0 2,-0.892 2,-2 v -36 c 0,-1.108 -0.892,-2 -2,-2 z"
     style="opacity:0.2"
     id="path2"
     inkscape:connector-curvature="0" />
  <path
     d="m37 4h-26c-1.108 0-2 0.892-2 2v36c0 1.108 0.892 2 2 2h26c1.108 0 2-0.892 2-2v-36c0-1.108-0.892-2-2-2z"
     style="fill:#e4e4e4"
     id="path4" />
  <path
     d="m 17,8.5 a 4,4 0 0 0 -4,4 4,4 0 0 0 4,4 4,4 0 0 0 4,-4 4,4 0 0 0 -4,-4 z m 14,0 a 4,4 0 0 0 -4,4 4,4 0 0 0 4,4 4,4 0 0 0 4,-4 4,4 0 0 0 -4,-4 z m -14,12 a 4,4 0 0 0 -4,4 4,4 0 0 0 4,4 4,4 0 0 0 4,-4 4,4 0 0 0 -4,-4 z m 14,0 a 4,4 0 0 0 -4,4 4,4 0 0 0 4,4 4,4 0 0 0 4,-4 4,4 0 0 0 -4,-4 z m -14,12 a 4,4 0 0 0 -4,4 4,4 0 0 0 4,4 4,4 0 0 0 4,-4 4,4 0 0 0 -4,-4 z m 14,0 a 4,4 0 0 0 -4,4 4,4 0 0 0 4,4 4,4 0 0 0 4,-4 4,4 0 0 0 -4,-4 z"
     style="opacity:0.1;fill:#000000"
     id="path6"
     inkscape:connector-curvature="0" />
  <path
     style="fill:#ffffff;opacity:.2"
     d="M 11 4 C 9.892 4 9 4.892 9 6 L 9 6.5 C 9 5.392 9.892 4.5 11 4.5 L 37 4.5 C 38.108 4.5 39 5.392 39 6.5 L 39 6 C 39 4.892 38.108 4 37 4 L 11 4 z "
     id="path8" />
  <circle
     cx="17"
     cy="24"
     r="4"
     style="fill:#ff842f"
     id="circle10" />
  <circle
     cx="31"
     cy="24"
     r="4"
     style="fill:#4f4f4f"
     id="circle12" />
  <circle
     cx="17"
     cy="12"
     r="4"
     style="fill:#ff842f"
     id="circle14" />
  <circle
     cx="31"
     cy="12"
     r="4"
     style="fill:#4f4f4f"
     id="circle16" />
  <circle
     cx="17"
     cy="36"
     r="4"
     style="fill:#4f4f4f"
     id="circle18" />
  <circle
     cx="31"
     cy="36"
     r="4"
     style="fill:#4f4f4f"
     id="circle20" />
</svg>
