<?xml version="1.0" encoding="UTF-8" standalone="no"?>
<svg
   xmlns:dc="http://purl.org/dc/elements/1.1/"
   xmlns:cc="http://creativecommons.org/ns#"
   xmlns:rdf="http://www.w3.org/1999/02/22-rdf-syntax-ns#"
   xmlns:svg="http://www.w3.org/2000/svg"
   xmlns="http://www.w3.org/2000/svg"
   xmlns:sodipodi="http://sodipodi.sourceforge.net/DTD/sodipodi-0.dtd"
   xmlns:inkscape="http://www.inkscape.org/namespaces/inkscape"
   width="48"
   height="48"
   version="1.1"
   viewBox="0 0 48 48"
   id="svg12"
   sodipodi:docname="google_start.svg"
   inkscape:version="0.92.2 (unknown)">
  <metadata
     id="metadata18">
    <rdf:RDF>
      <cc:Work
         rdf:about="">
        <dc:format>image/svg+xml</dc:format>
        <dc:type
           rdf:resource="http://purl.org/dc/dcmitype/StillImage" />
      </cc:Work>
    </rdf:RDF>
  </metadata>
  <defs
     id="defs16" />
  <sodipodi:namedview
     pagecolor="#ffffff"
     bordercolor="#666666"
     borderopacity="1"
     objecttolerance="10"
     gridtolerance="10"
     guidetolerance="10"
     inkscape:pageopacity="0"
     inkscape:pageshadow="2"
     inkscape:window-width="1920"
     inkscape:window-height="1016"
     id="namedview14"
     showgrid="false"
     inkscape:zoom="11.33"
     inkscape:cx="24"
     inkscape:cy="24"
     inkscape:window-x="0"
     inkscape:window-y="34"
     inkscape:window-maximized="1"
     inkscape:current-layer="svg12" />
  <circle
     cx="24"
     cy="24.5"
     r="20"
     style="opacity:0.2"
     id="circle2" />
  <circle
     cx="24"
     cy="24"
     r="20"
     style="fill:#5390f5"
     id="circle4" />
  <path
     d="m 24.296875,10.500001 c -5.489796,0 -10.378308,3.159766 -12.755859,7.759766 l 3.33789,2.259765 -3.347656,-2.259765 C 10.561862,20.139767 10,22.260001 10,24.500001 c 0,2.32 0.592435,4.499922 1.623047,6.419922 L 16.5625,27.44336 A 8,8 0 0 1 16,24.500001 8,8 0 0 1 16.537109,21.640626 8,8 0 0 1 24,16.500001 a 8,8 0 0 1 5.5,2.203125 l 4.183594,-4.453125 c -2.428572,-2.32 -5.713249,-3.75 -9.386719,-3.75 z m -0.296875,11 v 6 h 7.408203 c -0.589832,1.456204 -1.597432,2.703639 -2.892578,3.591797 A 8,8 0 0 1 24,32.500001 8,8 0 0 1 16.566406,27.44922 l -4.933594,3.470703 c 2.408166,4.5 7.245696,7.580078 12.664063,7.580078 3.591837,0 6.804289,-1.350078 9.222656,-3.580078 C 36.284838,32.359923 38,28.630001 38,24.500001 38,23.828026 37.94037,23.1766 37.851562,22.533204 l 0.01172,-0.08008 -0.164063,-0.953123 h -2.345703 z"
     style="opacity:0.2"
     id="path6"
     inkscape:connector-curvature="0" />
  <path
     style="fill:#ffffff;opacity:.2"
     d="M 24 4 A 20 20 0 0 0 4 24 A 20 20 0 0 0 4.0097656 24.246094 A 20 20 0 0 1 24 4.5 A 20 20 0 0 1 43.988281 24.246094 A 20 20 0 0 0 44 24 A 20 20 0 0 0 24 4 z "
     id="path8" />
  <path
     d="m24.296875 10c-5.489796 0-10.378308 3.159766-12.755859 7.759766l3.33789 2.259765-3.347656-2.259765c-0.969388 1.88-1.53125 4.000234-1.53125 6.240234 0 2.32 0.592435 4.499922 1.623047 6.419922l4.939453-3.476563a8 8 0 0 1-0.5625-2.943359 8 8 0 0 1 0.537109-2.859375 8 8 0 0 1 7.462891-5.140625 8 8 0 0 1 5.5 2.203125l4.183594-4.453125c-2.428572-2.32-5.713249-3.75-9.386719-3.75zm-0.296875 11v6h7.408203c-0.589832 1.456204-1.597432 2.703639-2.892578 3.591797a8 8 0 0 1-4.515625 1.408203 8 8 0 0 1-7.433594-5.050781l-4.933594 3.470703c2.408165 4.5 7.245696 7.580078 12.664063 7.580078 3.591837 0 6.804289-1.350078 9.222656-3.580078 2.765307-2.56 4.480469-6.289922 4.480469-10.419922 0-0.671975-0.059629-1.323401-0.148438-1.966797l0.011719-0.080078-0.164062-0.953125h-13.699219z"
     style="fill:#ffffff"
     id="path10" />
</svg>
