<svg xmlns="http://www.w3.org/2000/svg" width="192" height="192" version="1">
 <g transform="scale(4)">
  <path style="opacity:0.2" d="m 19.899,4.5008987 c -0.425,0.0462 -0.799,0.3931 -0.877,0.8125 L 18.177,9.594599 C 16.66,10.1869 15.234,11.0008 13.982,12.0008 l -3.773598,-1.274513 -0.4372505,0.294449 c -0.4326,-0.1489 -0.2943212,0.706979 -0.5267212,1.100279 l -3.2022758,6.559012 c -0.2257,0.399 -0.8864757,0.619561 -0.5383757,0.918561 L 8.1593,22.1258 c -0.11686,0.77924 -0.18783,1.5632 -0.18783,2.375 0,0.81174 0.071027,1.5957 0.18783,2.375 l -2.8922636,3.000697 c -0.3481,0.299 0.928206,0.424864 1.153906,0.823864 l 3.8650546,6.179824 c 0.2324,0.39342 0.236227,1.343956 0.668767,1.195066 L 13.9821,37.00049 c 1.2514,0.99995 2.6776,1.8138 4.195,2.4062 l 0.892608,3.192185 c 0.08565,0.44814 1.128991,0.522189 1.586011,0.528389 l 6.357103,0.142045 c 0.45701,-0.006 0.790093,0.109145 0.875783,-0.338995 L 29.82288,39.40669 c 1.5174,-0.59236 2.9436,-1.4063 4.195,-2.4062 l 4.1637,1.4062 c 0.43256,0.14889 0.95722,-0.0441 1.1896,-0.43749 l 4.0071,-6.9374 c 0.22571,-0.399 0.1289,-0.95119 -0.21914,-1.25 l -3.317,-2.906 c 0.11686,-0.77924 0.18784,-1.5632 0.18784,-2.375 0,-0.81174 -0.07103,-1.5957 -0.18784,-2.375 l 3.3184,-2.9062 c 0.34804,-0.29878 0.44485,-0.85097 0.21914,-1.25 l -4.007,-6.9378 c -0.232,-0.3934 -0.757,-0.5863 -1.189,-0.4374 l -4.1637,1.4062 c -1.252,-1 -2.678,-1.8139 -4.195,-2.4062009 l -0.845,-4.2812003 c -0.086,-0.4481 -0.514,-0.8063 -0.971,-0.8125 h -8.0143 c -0.03126,-0.001 -0.06261,-0.001 -0.09387,0 z"/>
  <path style="fill:#3b89f0" d="m19.899 4.0009c-0.425 0.0462-0.799 0.3931-0.877 0.8125l-0.845 4.2812c-1.517 0.5923-2.943 1.4062-4.195 2.4062l-3.773598-1.274513-0.4372505 0.294449c-0.4326-0.1489-0.2943212 0.706979-0.5267212 1.100279l-3.2022758 6.559012c-0.2257 0.399-0.8864757 0.619561-0.5383757 0.918561l2.6555212 2.527212c-0.11686 0.77924-0.18783 1.5632-0.18783 2.375 0 0.81174 0.071027 1.5957 0.18783 2.375l-2.8922636 3.000697c-0.3481 0.299 0.928206 0.424864 1.153906 0.823864l3.8650546 6.179824c0.2324 0.39342 0.236227 1.343956 0.668767 1.195066l3.027336-1.074761c1.2514 0.99995 2.6776 1.8138 4.195 2.4062l0.892608 3.192185c0.08565 0.44814 1.128991 0.522189 1.586011 0.528389l6.357103 0.142045c0.45701-6e-3 0.790093 0.109145 0.875783-0.338995l1.934275-3.523624c1.5174-0.59236 2.9436-1.4063 4.195-2.4062l4.1637 1.4062c0.43256 0.14889 0.95722-0.0441 1.1896-0.43749l4.0071-6.9374c0.22571-0.399 0.1289-0.95119-0.21914-1.25l-3.317-2.906c0.11686-0.77924 0.18784-1.5632 0.18784-2.375 0-0.81174-0.07103-1.5957-0.18784-2.375l3.3184-2.9062c0.34804-0.29878 0.44485-0.85097 0.21914-1.25l-4.007-6.9378c-0.232-0.3934-0.757-0.5863-1.189-0.4374l-4.1637 1.4062c-1.252-1-2.678-1.8139-4.195-2.4062l-0.845-4.2812c-0.086-0.4481-0.514-0.8063-0.971-0.8125h-8.0143c-0.03126-1e-3 -0.06261-1e-3 -0.09387 0z"/>
  <path style="fill:#ffffff;opacity:0.2" d="M 19.898438 4 C 19.473437 4.0462 19.099484 4.3931 19.021484 4.8125 L 18.177734 9.09375 C 16.660734 9.68605 15.234422 10.5 13.982422 11.5 L 10.208984 10.226562 L 9.7714844 10.521484 C 9.3388844 10.372584 9.4765406 11.227794 9.2441406 11.621094 L 6.0429688 18.179688 C 5.8172688 18.578688 5.1558063 18.798656 5.5039062 19.097656 L 5.5722656 19.164062 C 5.7217683 19.02476 5.9330914 18.873932 6.0429688 18.679688 L 9.2441406 12.121094 C 9.4765406 11.727794 9.3388844 10.870631 9.7714844 11.019531 L 10.208984 10.726562 L 13.982422 12 C 15.234422 11 16.660734 10.18605 18.177734 9.59375 L 19.021484 5.3125 C 19.099484 4.8931 19.473437 4.5462 19.898438 4.5 L 19.900391 4.5 C 19.931651 4.499 19.962881 4.499 19.994141 4.5 L 28.009766 4.5 C 28.466766 4.5062 28.894469 4.8644 28.980469 5.3125 L 29.824219 9.59375 C 31.341219 10.186051 32.767531 11 34.019531 12 L 38.183594 10.59375 C 38.615594 10.44485 39.141047 10.63785 39.373047 11.03125 L 43.378906 17.96875 C 43.420002 18.041403 43.440795 18.122772 43.460938 18.203125 C 43.52189 17.957053 43.504027 17.689949 43.378906 17.46875 L 39.373047 10.53125 C 39.141047 10.13785 38.615594 9.94485 38.183594 10.09375 L 34.019531 11.5 C 32.767531 10.5 31.341219 9.68605 29.824219 9.09375 L 28.980469 4.8125 C 28.894469 4.3644 28.466766 4.0062 28.009766 4 L 19.994141 4 C 19.962881 3.999 19.931651 3.999 19.900391 4 L 19.898438 4 z M 8.1074219 22.074219 C 8.0278073 22.706751 7.9707031 23.343268 7.9707031 24 C 7.9707031 24.084462 7.9789592 24.166113 7.9804688 24.25 C 7.993476 23.527779 8.0554754 22.823028 8.1601562 22.125 L 8.1074219 22.074219 z M 39.894531 22.078125 L 39.841797 22.125 C 39.946432 22.823075 40.006514 23.527828 40.019531 24.25 C 40.02104 24.166102 40.029297 24.084475 40.029297 24 C 40.029297 23.344647 39.973839 22.709431 39.894531 22.078125 z M 39.894531 26.421875 C 39.875603 26.572516 39.864311 26.724875 39.841797 26.875 L 43.158203 29.78125 C 43.312713 29.913904 43.409739 30.099918 43.458984 30.296875 C 43.548937 29.936189 43.442573 29.525396 43.158203 29.28125 L 39.894531 26.421875 z M 8.1074219 26.429688 L 5.2675781 29.376953 C 5.1327568 29.492758 5.26969 29.582086 5.4667969 29.671875 L 8.1601562 26.875 C 8.1380362 26.727417 8.126087 26.577762 8.1074219 26.429688 z"/>
  <path style="opacity:0.2" d="m 24,16.5 c 4.4183,0 8,3.5817 8,8 0,4.4183 -3.5817,8 -8,8 -4.4183,0 -8,-3.5817 -8,-8 0,-4.4183 3.5817,-8 8,-8 z"/>
  <path fill="#fff" d="m24 16c4.4183 0 8 3.5817 8 8s-3.5817 8-8 8-8-3.5817-8-8 3.5817-8 8-8z"/>
  <path style="opacity:0.2" d="M 38.160329,38.623943 9.876057,10.339671 c -7.8347431,7.834743 -7.8347431,20.449528 0,28.284272 7.834744,7.834743 20.449528,7.834743 28.284272,0 z"/>
  <path style="fill:#e4e4e4" d="m38.160329 38.123943-28.284272-28.284272c-7.8347431 7.8347429-7.8347431 20.449528 0 28.284272 7.8347437 7.834743 20.449528 7.834743 28.284272 0z"/>
  <path style="fill:#ffffff;opacity:0.2" d="M 9.8769531 9.8398438 C 5.8956278 13.821169 3.9467209 19.0369 4.0117188 24.232422 C 4.0745655 19.203731 6.0234703 14.193327 9.8769531 10.339844 L 37.904297 38.367188 C 37.989171 38.285187 38.076363 38.20684 38.160156 38.123047 L 9.8769531 9.8398438 z"/>
 </g>
</svg>
