<?xml version="1.0" encoding="UTF-8" standalone="no"?>
<svg
   xmlns:dc="http://purl.org/dc/elements/1.1/"
   xmlns:cc="http://creativecommons.org/ns#"
   xmlns:rdf="http://www.w3.org/1999/02/22-rdf-syntax-ns#"
   xmlns:svg="http://www.w3.org/2000/svg"
   xmlns="http://www.w3.org/2000/svg"
   xmlns:sodipodi="http://sodipodi.sourceforge.net/DTD/sodipodi-0.dtd"
   xmlns:inkscape="http://www.inkscape.org/namespaces/inkscape"
   width="48"
   height="48"
   version="1"
   id="svg20"
   sodipodi:docname="google_datally.svg"
   inkscape:version="0.92.2 (unknown)">
  <metadata
     id="metadata26">
    <rdf:RDF>
      <cc:Work
         rdf:about="">
        <dc:format>image/svg+xml</dc:format>
        <dc:type
           rdf:resource="http://purl.org/dc/dcmitype/StillImage" />
      </cc:Work>
    </rdf:RDF>
  </metadata>
  <defs
     id="defs24" />
  <sodipodi:namedview
     pagecolor="#ffffff"
     bordercolor="#666666"
     borderopacity="1"
     objecttolerance="10"
     gridtolerance="10"
     guidetolerance="10"
     inkscape:pageopacity="0"
     inkscape:pageshadow="2"
     inkscape:window-width="1920"
     inkscape:window-height="1016"
     id="namedview22"
     showgrid="false"
     inkscape:zoom="11.33"
     inkscape:cx="24"
     inkscape:cy="24"
     inkscape:window-x="0"
     inkscape:window-y="34"
     inkscape:window-maximized="1"
     inkscape:current-layer="svg20" />
  <path
     d="m 33,4.5 c -1.108,0 -2,0.892 -2,2 v 9.744141 A 15,15 0 0 0 24,14.5 a 15,15 0 0 0 -15,15 15,15 0 0 0 15,15 15,15 0 0 0 15,-15 15,15 0 0 0 -0.0039,-0.09961 H 39 V 6.5 c 0,-1.108 -0.892,-2 -2,-2 z"
     style="opacity:0.2;fill:#000000;fill-rule:evenodd"
     id="path2"
     inkscape:connector-curvature="0" />
  <path
     d="m33 4c-1.108 0-2 0.892-2 2v9.744141a15 15 0 0 0-7-1.744141 15 15 0 0 0-15 15 15 15 0 0 0 15 15 15 15 0 0 0 15-15 15 15 0 0 0-0.0039-0.09961h0.0039v-22.90039c0-1.108-0.892-2-2-2z"
     style="fill-rule:evenodd;fill:#2a8dce"
     id="path4" />
  <path
     style="fill-rule:evenodd;fill:#ffffff;opacity:.1"
     d="M 33 4 C 31.892 4 31 4.892 31 6 L 31 6.5 C 31 5.392 31.892 4.5 33 4.5 L 37 4.5 C 38.108 4.5 39 5.392 39 6.5 L 39 6 C 39 4.892 38.108 4 37 4 L 33 4 z M 24 14 A 15 15 0 0 0 9 29 A 15 15 0 0 0 9.0097656 29.212891 A 15 15 0 0 1 24 14.5 A 15 15 0 0 1 31 16.244141 L 31 15.744141 A 15 15 0 0 0 24 14 z "
     id="path6" />
  <path
     d="m25.75 8c-0.9695 0-1.75 0.892-1.75 2v19h7v-19c0-1.108-0.7805-2-1.75-2z"
     style="fill:#20d6ba"
     id="path8" />
  <path
     d="m18.75 12c-0.9695 0-1.75 0.892-1.75 2v15h7v-15c0-1.108-0.7805-2-1.75-2z"
     style="fill:#f8ca4b"
     id="path10" />
  <circle
     cx="24"
     cy="29.499998"
     r="7"
     style="opacity:0.2;fill:#000000;fill-rule:evenodd"
     id="circle12" />
  <circle
     cx="24"
     cy="29"
     r="7"
     style="fill-rule:evenodd;fill:#ffffff"
     id="circle14" />
  <path
     style="fill:#ffffff;opacity:.2"
     d="M 25.75 8 C 24.7805 8 24 8.892 24 10 L 24 10.5 C 24 9.392 24.7805 8.5 25.75 8.5 L 29.25 8.5 C 30.2195 8.5 31 9.392 31 10.5 L 31 10 C 31 8.892 30.2195 8 29.25 8 L 25.75 8 z M 18.75 12 C 17.7805 12 17 12.892 17 14 L 17 14.5 C 17 13.392 17.7805 12.5 18.75 12.5 L 22.25 12.5 C 23.2195 12.5 24 13.392 24 14.5 L 24 14 C 24 12.892 23.2195 12 22.25 12 L 18.75 12 z "
     id="path16" />
</svg>
