<?xml version="1.0" encoding="UTF-8" standalone="no"?>
<svg
   width="192"
   height="192"
   version="1.1"
   id="svg16"
   sodipodi:docname="google_compose_material_catalog.svg"
   inkscape:version="1.1-rc (1:1.1+rc+202105232036+f4db50c7c1)"
   xmlns:inkscape="http://www.inkscape.org/namespaces/inkscape"
   xmlns:sodipodi="http://sodipodi.sourceforge.net/DTD/sodipodi-0.dtd"
   xmlns="http://www.w3.org/2000/svg"
   xmlns:svg="http://www.w3.org/2000/svg">
  <defs
     id="defs20">
    <filter
       inkscape:collect="always"
       style="color-interpolation-filters:sRGB"
       id="filter3709"
       x="-0.048000001"
       y="-0.048000001"
       width="1.096"
       height="1.096">
      <feGaussianBlur
         inkscape:collect="always"
         stdDeviation="3.2"
         id="feGaussianBlur3711" />
    </filter>
    <filter
       inkscape:collect="always"
       style="color-interpolation-filters:sRGB"
       id="filter4665"
       x="-0.047999998"
       y="-0.047999998"
       width="1.096"
       height="1.096">
      <feGaussianBlur
         inkscape:collect="always"
         stdDeviation="1.3"
         id="feGaussianBlur4667" />
    </filter>
    <filter
       inkscape:collect="always"
       style="color-interpolation-filters:sRGB"
       id="filter4669"
       x="-0.047999999"
       y="-0.047999999"
       width="1.096"
       height="1.096">
      <feGaussianBlur
         inkscape:collect="always"
         stdDeviation="1.16"
         id="feGaussianBlur4671" />
    </filter>
  </defs>
  <sodipodi:namedview
     id="namedview18"
     pagecolor="#ffffff"
     bordercolor="#666666"
     borderopacity="1.0"
     inkscape:pageshadow="2"
     inkscape:pageopacity="0.0"
     inkscape:pagecheckerboard="0"
     showgrid="false"
     inkscape:zoom="1"
     inkscape:cx="104.5"
     inkscape:cy="68.5"
     inkscape:window-width="1920"
     inkscape:window-height="1019"
     inkscape:window-x="0"
     inkscape:window-y="34"
     inkscape:window-maximized="1"
     inkscape:current-layer="svg16"
     inkscape:snap-bbox="true"
     inkscape:snap-bbox-midpoints="true">
    <inkscape:grid
       type="xygrid"
       id="grid2204" />
  </sodipodi:namedview>
  <path
     id="path3671"
     style="opacity:0.2;fill:#000000;fill-opacity:1;stroke-width:4;filter:url(#filter3709)"
     d="m 28,20 c -6.648,0 -12,5.352 -12,12 v 68 68 c 0,6.648 5.352,12 12,12 h 68 a 80,80 0 0 0 80,-80 V 32 c 0,-6.648 -5.352,-12 -12,-12 H 96 Z" />
  <path
     id="rect4"
     style="fill:#652ed5;fill-opacity:1;stroke-width:4"
     d="m 28,16 c -6.648,0 -12,5.352 -12,12 v 68 68 c 0,6.648 5.352,12 12,12 H 96 A 80,80 0 0 0 176,96 V 28 c 0,-6.648 -5.352,-12 -12,-12 H 96 Z" />
  <path
     id="path4625"
     style="opacity:0.2;fill:#000000;stroke-width:3.97491;stroke-linecap:round;stroke-linejoin:round;filter:url(#filter4669);stop-color:#000000"
     d="m 51,51 v 58 h 58 V 51 Z m 6,6 h 46 v 46 H 57 Z" />
  <path
     id="rect2013"
     style="fill:#ffffff;stroke-width:3.97491;stroke-linecap:round;stroke-linejoin:round;stop-color:#000000"
     d="m 51,49 v 58 h 58 V 49 Z m 6,6 h 46 v 46 H 57 Z" />
  <path
     id="path4627"
     style="opacity:0.2;fill:#000000;stroke-width:4.41338;stroke-linecap:round;stroke-linejoin:round;filter:url(#filter4665);stop-color:#000000"
     d="M 110.5,80 A 32.5,32.5 0 0 0 78,112.5 32.5,32.5 0 0 0 110.5,145 32.5,32.5 0 0 0 143,112.5 32.5,32.5 0 0 0 110.5,80 Z m 0,6 A 26.5,26.5 0 0 1 137,112.5 26.5,26.5 0 0 1 110.5,139 26.5,26.5 0 0 1 84,112.5 26.5,26.5 0 0 1 110.5,86 Z" />
  <path
     id="path2120"
     style="fill:#ffffff;stroke-width:4.41338;stroke-linecap:round;stroke-linejoin:round;stop-color:#000000"
     d="M 110.5,78 A 32.5,32.5 0 0 0 78,110.5 32.5,32.5 0 0 0 110.5,143 32.5,32.5 0 0 0 143,110.5 32.5,32.5 0 0 0 110.5,78 Z m 0,6 A 26.5,26.5 0 0 1 137,110.5 26.5,26.5 0 0 1 110.5,137 26.5,26.5 0 0 1 84,110.5 26.5,26.5 0 0 1 110.5,84 Z" />
  <path
     id="path4379"
     style="opacity:0.1;fill:#ffffff;fill-opacity:1;stroke-width:4"
     d="m 28,16 c -6.648,0 -12,5.352 -12,12 v 1 c 0,-6.648 5.352,-12 12,-12 h 68 68 c 6.648,0 12,5.352 12,12 v -1 c 0,-6.648 -5.352,-12 -12,-12 H 96 Z" />
</svg>
