<svg xmlns="http://www.w3.org/2000/svg" width="48" height="48" version="1">
 <g>
  <rect style="opacity:0.2" width="36" height="36" x="-42.5" y="-42" rx="1.8" ry="1.8" transform="matrix(0,-1,-1,0,0,0)"/>
  <rect style="fill:#4454a8" width="36" height="36" x="-42" y="-42" rx="1.8" ry="1.8" transform="matrix(0,-1,-1,0,0,0)"/>
  <path style="fill:#ffffff;opacity:0.1" d="M 7.8007812 6 C 6.8035813 6 6 6.8035814 6 7.8007812 L 6 8.3007812 C 6 7.3035814 6.8035813 6.5 7.8007812 6.5 L 40.199219 6.5 C 41.196419 6.5 42 7.3035814 42 8.3007812 L 42 7.8007812 C 42 6.8035813 41.196419 6 40.199219 6 L 7.8007812 6 z"/>
  <path style="opacity:0.2;fill-rule:evenodd" d="m 6,15.499997 c -1.108,0 -2,0.892 -2,2 v 14 c 0,1.108 0.892,2 2,2 h 8.96875 c 4.031056,0 5.03125,-5 9.03125,-5 4,0 5.000194,5 9.03125,5 H 42 c 1.108,0 2,-0.892 2,-2 v -14 c 0,-1.108 -0.892,-2 -2,-2 z"/>
  <path style="fill-rule:evenodd;fill:#e4e4e4" d="m6 15c-1.108 0-2 0.892-2 2v14c0 1.108 0.892 2 2 2h8.96875c4.031056 0 5.03125-5 9.03125-5s5.000194 5 9.03125 5h8.96875c1.108 0 2-0.892 2-2v-14c0-1.108-0.892-2-2-2h-36z"/>
  <path style="fill-rule:evenodd;fill:#16aef6" d="m4 18v12h9a6 6 0 0 0 6-6 6 6 0 0 0-6-6h-9z"/>
  <path style="fill-rule:evenodd;fill:#da4b38" d="m44 18v12h-9a6 6 0 0 1-6-6 6 6 0 0 1 6-6h9z"/>
  <path style="fill-rule:evenodd;fill:#ffffff;opacity:0.2" d="M 6 15 C 4.892 15 4 15.892 4 17 L 4 17.5 C 4 16.392 4.892 15.5 6 15.5 L 42 15.5 C 43.108 15.5 44 16.392 44 17.5 L 44 17 C 44 15.892 43.108 15 42 15 L 6 15 z"/>
 </g>
</svg>
