<?xml version="1.0" encoding="UTF-8" standalone="no"?>
<svg
   width="192"
   height="192"
   version="1"
   id="svg40"
   sodipodi:docname="google_input_handwriting.svg"
   inkscape:version="1.1-rc (1:1.1+rc+202105232036+f4db50c7c1)"
   xmlns:inkscape="http://www.inkscape.org/namespaces/inkscape"
   xmlns:sodipodi="http://sodipodi.sourceforge.net/DTD/sodipodi-0.dtd"
   xmlns="http://www.w3.org/2000/svg"
   xmlns:svg="http://www.w3.org/2000/svg"
   xmlns:rdf="http://www.w3.org/1999/02/22-rdf-syntax-ns#"
   xmlns:cc="http://creativecommons.org/ns#"
   xmlns:dc="http://purl.org/dc/elements/1.1/">
  <metadata
     id="metadata46">
    <rdf:RDF>
      <cc:Work
         rdf:about="">
        <dc:format>image/svg+xml</dc:format>
        <dc:type
           rdf:resource="http://purl.org/dc/dcmitype/StillImage" />
      </cc:Work>
    </rdf:RDF>
  </metadata>
  <defs
     id="defs44">
    <filter
       inkscape:collect="always"
       style="color-interpolation-filters:sRGB"
       id="filter4762"
       x="-0.061647056"
       y="-0.039299998"
       width="1.1232941"
       height="1.0786">
      <feGaussianBlur
         inkscape:collect="always"
         stdDeviation="2.62"
         id="feGaussianBlur4764" />
    </filter>
    <filter
       inkscape:collect="always"
       style="color-interpolation-filters:sRGB"
       id="filter4804"
       x="-0.052595742"
       y="-0.044142856"
       width="1.1051915"
       height="1.0882857">
      <feGaussianBlur
         inkscape:collect="always"
         stdDeviation="2.06"
         id="feGaussianBlur4806" />
    </filter>
    <filter
       inkscape:collect="always"
       style="color-interpolation-filters:sRGB"
       id="filter4895"
       x="-0.03722034"
       y="-0.067569232"
       width="1.0744407"
       height="1.1351385">
      <feGaussianBlur
         inkscape:collect="always"
         stdDeviation="1.83"
         id="feGaussianBlur4897" />
    </filter>
    <filter
       inkscape:collect="always"
       style="color-interpolation-filters:sRGB"
       id="filter1744"
       x="-0.10787315"
       y="-0.10812715"
       width="1.2157463"
       height="1.2162543">
      <feGaussianBlur
         inkscape:collect="always"
         stdDeviation="2.523536"
         id="feGaussianBlur1746" />
    </filter>
  </defs>
  <sodipodi:namedview
     pagecolor="#ffffff"
     bordercolor="#666666"
     borderopacity="1"
     objecttolerance="10"
     gridtolerance="10"
     guidetolerance="10"
     inkscape:pageopacity="0"
     inkscape:pageshadow="2"
     inkscape:window-width="1920"
     inkscape:window-height="1019"
     id="namedview42"
     showgrid="false"
     inkscape:zoom="1"
     inkscape:cx="94.5"
     inkscape:cy="116.5"
     inkscape:window-x="0"
     inkscape:window-y="34"
     inkscape:window-maximized="1"
     inkscape:current-layer="svg40"
     inkscape:document-rotation="0"
     inkscape:snap-bbox="true"
     inkscape:snap-bbox-midpoints="true"
     inkscape:pagecheckerboard="0">
    <inkscape:grid
       type="xygrid"
       id="grid870" />
  </sodipodi:namedview>
  <rect
     id="rect4724"
     transform="matrix(0,-1,-1,0,0,-0.99999987)"
     ry="10"
     rx="10"
     y="-176"
     x="-180"
     height="160"
     width="102"
     style="opacity:0.2;fill:#000000;fill-opacity:1;stroke-width:4.34613;filter:url(#filter4762)" />
  <rect
     id="rect4"
     transform="matrix(0,-1,-1,0,0,0)"
     ry="10"
     rx="10"
     y="-176"
     x="-176"
     height="160"
     width="102"
     style="fill:#4588f3;fill-opacity:1;stroke-width:4.34613" />
  <path
     id="rect4899"
     style="opacity:0.2;fill:#ffffff;fill-opacity:1;stroke-width:4.34613"
     d="m 26,74 c -5.54,0 -10,4.46 -10,10 v 1 c 0,-5.54 4.46,-10 10,-10 h 140 c 5.54,0 10,4.46 10,10 v -1 c 0,-5.54 -4.46,-10 -10,-10 z" />
  <path
     id="path4857"
     style="opacity:0.2;fill:#000000;fill-opacity:1;stroke-width:7.73578;stroke-linejoin:round;filter:url(#filter4895);stop-color:#000000"
     d="m 39,98 c -1.108,0 -2,0.892 -2,2 v 10 c 0,1.108 0.892,2 2,2 h 10 c 1.108,0 2,-0.892 2,-2 v -10 c 0,-1.108 -0.892,-2 -2,-2 z m 26,0 c -1.108,0 -2,0.892 -2,2 v 10 c 0,1.108 0.892,2 2,2 h 10 c 1.108,0 2,-0.892 2,-2 v -10 c 0,-1.108 -0.892,-2 -2,-2 z m 26,0 c -1.108,0 -2,0.892 -2,2 v 10 c 0,1.108 0.892,2 2,2 h 10 c 1.108,0 2,-0.892 2,-2 v -10 c 0,-1.108 -0.892,-2 -2,-2 z m 26,0 c -1.108,0 -2,0.892 -2,2 v 10 c 0,1.108 0.892,2 2,2 h 10 c 1.108,0 2,-0.892 2,-2 v -10 c 0,-1.108 -0.892,-2 -2,-2 z m 26,0 c -1.108,0 -2,0.892 -2,2 v 10 c 0,1.108 0.892,2 2,2 h 10 c 1.108,0 2,-0.892 2,-2 v -10 c 0,-1.108 -0.892,-2 -2,-2 z M 39,124 c -1.108,0 -2,0.892 -2,2 v 10 c 0,1.108 0.892,2 2,2 h 10 c 1.108,0 2,-0.892 2,-2 v -10 c 0,-1.108 -0.892,-2 -2,-2 z m 26,0 c -1.108,0 -2,0.892 -2,2 v 10 c 0,1.108 0.892,2 2,2 h 10 c 1.108,0 2,-0.892 2,-2 v -10 c 0,-1.108 -0.892,-2 -2,-2 z m 26,0 c -1.108,0 -2,0.892 -2,2 v 10 c 0,1.108 0.892,2 2,2 h 10 c 1.108,0 2,-0.892 2,-2 v -10 c 0,-1.108 -0.892,-2 -2,-2 z m 26,0 c -1.108,0 -2,0.892 -2,2 v 10 c 0,1.108 0.892,2 2,2 h 10 c 1.108,0 2,-0.892 2,-2 v -10 c 0,-1.108 -0.892,-2 -2,-2 z m 26,0 c -1.108,0 -2,0.892 -2,2 v 10 c 0,1.108 0.892,2 2,2 h 10 c 1.108,0 2,-0.892 2,-2 v -10 c 0,-1.108 -0.892,-2 -2,-2 z M 54.984375,149 C 53.884791,149 53,149.83255 53,150.86719 v 10.26562 C 53,162.16745 53.884791,163 54.984375,163 H 137.01562 C 138.11521,163 139,162.16745 139,161.13281 V 150.86719 C 139,149.83255 138.11521,149 137.01562,149 Z" />
  <path
     id="rect1763"
     style="fill:#a5c5f8;fill-opacity:1;stroke-width:7.73578;stroke-linejoin:round;stop-color:#000000"
     d="m 39,96 c -1.108,0 -2,0.892 -2,2 v 10 c 0,1.108 0.892,2 2,2 h 10 c 1.108,0 2,-0.892 2,-2 V 98 c 0,-1.108 -0.892,-2 -2,-2 z m 26,0 c -1.108,0 -2,0.892 -2,2 v 10 c 0,1.108 0.892,2 2,2 h 10 c 1.108,0 2,-0.892 2,-2 V 98 c 0,-1.108 -0.892,-2 -2,-2 z m 26,0 c -1.108,0 -2,0.892 -2,2 v 10 c 0,1.108 0.892,2 2,2 h 10 c 1.108,0 2,-0.892 2,-2 V 98 c 0,-1.108 -0.892,-2 -2,-2 z m 26,0 c -1.108,0 -2,0.892 -2,2 v 10 c 0,1.108 0.892,2 2,2 h 10 c 1.108,0 2,-0.892 2,-2 V 98 c 0,-1.108 -0.892,-2 -2,-2 z m 26,0 c -1.108,0 -2,0.892 -2,2 v 10 c 0,1.108 0.892,2 2,2 h 10 c 1.108,0 2,-0.892 2,-2 V 98 c 0,-1.108 -0.892,-2 -2,-2 z M 39,122 c -1.108,0 -2,0.892 -2,2 v 10 c 0,1.108 0.892,2 2,2 h 10 c 1.108,0 2,-0.892 2,-2 v -10 c 0,-1.108 -0.892,-2 -2,-2 z m 26,0 c -1.108,0 -2,0.892 -2,2 v 10 c 0,1.108 0.892,2 2,2 h 10 c 1.108,0 2,-0.892 2,-2 v -10 c 0,-1.108 -0.892,-2 -2,-2 z m 26,0 c -1.108,0 -2,0.892 -2,2 v 10 c 0,1.108 0.892,2 2,2 h 10 c 1.108,0 2,-0.892 2,-2 v -10 c 0,-1.108 -0.892,-2 -2,-2 z m 26,0 c -1.108,0 -2,0.892 -2,2 v 10 c 0,1.108 0.892,2 2,2 h 10 c 1.108,0 2,-0.892 2,-2 v -10 c 0,-1.108 -0.892,-2 -2,-2 z m 26,0 c -1.108,0 -2,0.892 -2,2 v 10 c 0,1.108 0.892,2 2,2 h 10 c 1.108,0 2,-0.892 2,-2 v -10 c 0,-1.108 -0.892,-2 -2,-2 z M 54.984375,147 C 53.884791,147 53,147.83255 53,148.86719 v 10.26562 C 53,160.16745 53.884791,161 54.984375,161 H 137.01562 C 138.11521,161 139,160.16745 139,159.13281 V 148.86719 C 139,147.83255 138.11521,147 137.01562,147 Z" />
  <path
     id="path4766"
     style="opacity:0.2;fill:#000000;fill-opacity:1;stroke-width:8.02336;stroke-linejoin:round;filter:url(#filter4804);stop-color:#000000"
     d="M 60.000507,18 C 48.715193,18 49.000662,28 49.000662,28 v 57.679688 c 0,0 1.012232,5.369241 6.410066,10.033203 L 96,130 136.58927,95.712891 c 5.39783,-4.663962 6.41007,-10.033203 6.41007,-10.033203 V 28 c 0,0 0.28546,-10 -10.99985,-10 H 96 Z" />
  <path
     id="rect2286"
     style="fill:#17d36e;fill-opacity:1;stroke-width:8.02336;stroke-linejoin:round;stop-color:#000000"
     d="M 60.000507,16 C 48.715193,16 49.000662,26 49.000662,26 v 57.679688 c 0,0 1.012232,5.369241 6.410066,10.033203 L 96,128 136.58927,93.712891 c 5.39783,-4.663962 6.41007,-10.033203 6.41007,-10.033203 V 26 c 0,0 0.28546,-10 -10.99985,-10 H 96 Z" />
  <path
     id="path4901"
     style="opacity:0.2;fill:#ffffff;fill-opacity:1;stroke-width:8.02336;stroke-linejoin:round;stop-color:#000000"
     d="M 60,16 C 48.714686,16 49,26 49,26 v 1 c 0,0 -0.285314,-10 11,-10 h 36 36 c 11.28531,0 11,10 11,10 v -1 c 0,0 0.28531,-10 -11,-10 H 96 Z" />
  <path
     style="color:#000000;opacity:0.2;fill:#000000;stroke-linecap:square;-inkscape-stroke:none;filter:url(#filter1744)"
     d="m 98.251953,38.995837 c -1.637212,-0.04793 -3.333976,0.105951 -5.080078,0.503906 l -0.08008,0.01758 -0.07813,0.02148 c -4.135857,1.120533 -7.032922,4.338747 -8.982422,8.039063 -1.9495,3.700316 -3.113302,8.096624 -3.685547,12.738281 -0.121676,0.98695 -0.109632,2.007657 -0.179687,3.011719 C 77.423657,63.207494 74.7178,63.128899 72.33593,63.0056 l -3.99414,-0.207031 -0.414063,7.988281 3.996094,0.207032 c 2.658045,0.137594 5.484499,0.224415 8.291016,0.355468 0.470558,5.765646 1.822251,11.348749 4.585937,15.820313 l 0.07813,0.126953 0.08789,0.121094 c 5.045198,6.949932 13.48827,9.138567 19.982426,6.498047 3.24707,-1.320261 6.08444,-4.223491 6.85742,-8.0625 0.77299,-3.839009 -0.38055,-8.104681 -3.25,-12.558594 l -0.041,-0.06445 -0.043,-0.06055 c -3.92718,-5.620199 -10.527598,-7.769261 -17.083991,-8.830078 -1.072655,-0.173555 -2.153454,-0.190458 -3.238281,-0.3125 0.05048,-0.912398 0.02545,-1.845717 0.134765,-2.732422 0.481504,-3.905626 1.505985,-7.48616 2.824219,-9.988281 1.303685,-2.474505 2.732607,-3.668973 3.953125,-4.017579 4.443167,-0.976917 7.755223,0.275183 11.117193,2.804688 3.39217,2.55223 6.45535,6.466696 9.08789,10 l 2.38867,3.207031 6.41602,-4.779297 -2.39063,-3.207031 c -2.6782,-3.594585 -6.07823,-8.140913 -10.69336,-11.613281 -3.46134,-2.604276 -7.82469,-4.561278 -12.73633,-4.705078 z m -9.863281,33.080078 c 0.556077,0.07202 1.18177,0.07491 1.720703,0.162109 5.600419,0.906142 9.774053,2.679701 11.757815,5.464844 2.08372,3.267674 2.32215,5.445672 2.0957,6.570312 -0.22854,1.135036 -0.77122,1.721685 -2.02734,2.232422 -2.487968,1.011606 -7.459932,0.234145 -10.396488,-3.693359 -1.567295,-2.602313 -2.623529,-6.487374 -3.15039,-10.736328 z"
     id="path1706" />
  <path
     style="color:#000000;fill:#ffffff;stroke-linecap:square;-inkscape-stroke:none"
     d="M 98.251953,36.996094 C 96.614741,36.94816 94.917977,37.102045 93.171875,37.5 l -0.08008,0.01758 -0.07813,0.02148 c -4.135857,1.120533 -7.032922,4.338747 -8.982422,8.039063 -1.9495,3.700316 -3.113302,8.096624 -3.685547,12.738281 -0.121676,0.98695 -0.109632,2.007657 -0.179687,3.011719 -2.742352,-0.120372 -5.448209,-0.198967 -7.830079,-0.322266 l -3.99414,-0.207031 -0.414063,7.988281 3.996094,0.207032 c 2.658045,0.137594 5.484499,0.224415 8.291016,0.355468 0.470558,5.765646 1.822251,11.348749 4.585937,15.820313 l 0.07813,0.126953 0.08789,0.121094 c 5.045198,6.949932 13.48827,9.138567 19.982423,6.498047 3.24707,-1.320261 6.08444,-4.223491 6.85742,-8.0625 0.77299,-3.839009 -0.38055,-8.104681 -3.25,-12.558594 l -0.041,-0.06445 -0.043,-0.06055 c -3.92718,-5.620199 -10.527595,-7.769261 -17.083988,-8.830078 -1.072655,-0.173555 -2.153454,-0.190458 -3.238281,-0.3125 0.05048,-0.912398 0.02545,-1.845717 0.134765,-2.732422 0.481504,-3.905626 1.505985,-7.48616 2.824219,-9.988281 1.303685,-2.474505 2.732607,-3.668973 3.953125,-4.017579 4.443167,-0.976917 7.75522,0.275183 11.11719,2.804688 3.39217,2.55223 6.45535,6.466696 9.08789,10 l 2.38867,3.207031 6.41602,-4.779297 -2.39063,-3.207031 c -2.6782,-3.594585 -6.07823,-8.140913 -10.69336,-11.613281 -3.46134,-2.604276 -7.82469,-4.561278 -12.736327,-4.705078 z m -9.863281,33.080078 c 0.556077,0.07202 1.18177,0.07491 1.720703,0.162109 5.600419,0.906142 9.774053,2.679701 11.757815,5.464844 2.08372,3.267674 2.32215,5.445672 2.0957,6.570312 -0.22854,1.135036 -0.77122,1.721685 -2.02734,2.232422 -2.487968,1.011606 -7.459932,0.234145 -10.396488,-3.693359 -1.567295,-2.602313 -2.623529,-6.487374 -3.15039,-10.736328 z"
     id="path34" />
</svg>
