<?xml version="1.0" encoding="UTF-8" standalone="no"?>
<svg
   xmlns:dc="http://purl.org/dc/elements/1.1/"
   xmlns:cc="http://creativecommons.org/ns#"
   xmlns:rdf="http://www.w3.org/1999/02/22-rdf-syntax-ns#"
   xmlns:svg="http://www.w3.org/2000/svg"
   xmlns="http://www.w3.org/2000/svg"
   xmlns:sodipodi="http://sodipodi.sourceforge.net/DTD/sodipodi-0.dtd"
   xmlns:inkscape="http://www.inkscape.org/namespaces/inkscape"
   width="48"
   height="48"
   version="1"
   id="svg18"
   sodipodi:docname="google_my_maps.svg"
   inkscape:version="0.92.2 (unknown)">
  <metadata
     id="metadata24">
    <rdf:RDF>
      <cc:Work
         rdf:about="">
        <dc:format>image/svg+xml</dc:format>
        <dc:type
           rdf:resource="http://purl.org/dc/dcmitype/StillImage" />
      </cc:Work>
    </rdf:RDF>
  </metadata>
  <defs
     id="defs22" />
  <sodipodi:namedview
     pagecolor="#ffffff"
     bordercolor="#666666"
     borderopacity="1"
     objecttolerance="10"
     gridtolerance="10"
     guidetolerance="10"
     inkscape:pageopacity="0"
     inkscape:pageshadow="2"
     inkscape:window-width="1920"
     inkscape:window-height="1016"
     id="namedview20"
     showgrid="false"
     inkscape:zoom="12.14"
     inkscape:cx="24"
     inkscape:cy="24"
     inkscape:window-x="0"
     inkscape:window-y="34"
     inkscape:window-maximized="1"
     inkscape:current-layer="svg18" />
  <path
     d="m 10,4.5 c -1.108,0 -2,0.892 -2,2 v 36 c 0,1.108 0.892,2 2,2 h 28 c 1.108,0 2,-0.892 2,-2 v -26 l -11,-1 -1,-11 z"
     style="opacity:0.2;fill:#000000"
     id="path2"
     inkscape:connector-curvature="0" />
  <path
     d="m10 4c-1.108 0-2 0.892-2 2v36c0 1.108 0.892 2 2 2h28c1.108 0 2-0.892 2-2v-26l-11-1-1-11z"
     style="fill:#de564a"
     id="path4" />
  <path
     style="fill:#ffffff;opacity:.2"
     d="M 10 4 C 8.892 4 8 4.892 8 6 L 8 6.5 C 8 5.392 8.892 4.5 10 4.5 L 28 4.5 L 39.5 16 L 40 16 L 28 4 L 10 4 z "
     id="path6" />
  <path
     d="m 28,4.5 v 10 c 0,1.1046 0.89543,2 2,2 h 10 z"
     style="opacity:0.2;fill:#000000"
     id="path8"
     inkscape:connector-curvature="0" />
  <path
     d="m28 4v10c0 1.1046 0.89543 2 2 2h10l-12-12z"
     style="fill:#e99087"
     id="path10" />
  <path
     d="M 24.00008,18.5 C 19.581703,18.5 16,22.016814 16,26.355215 c 0,0.271129 0.02272,0.521392 0.04992,0.785454 0.02192,0.262796 0.05728,0.528126 0.100001,0.785522 C 17.065931,33.447507 20.800101,37.358048 24,40.5 c 3.200032,-3.142019 6.934069,-7.051893 7.850078,-12.573809 0.04272,-0.257396 0.07808,-0.522726 0.100001,-0.785522 C 31.97744,26.876607 32,26.626344 32,26.355215 32,22.01688 28.418231,18.5 23.99992,18.5 Z"
     style="opacity:0.2;fill:#000000"
     id="path12"
     inkscape:connector-curvature="0" />
  <path
     d="M 24.00008,18 C 19.581703,18 16,21.516814 16,25.855215 c 0,0.271129 0.02272,0.521392 0.04992,0.785454 0.02192,0.262796 0.05728,0.528126 0.100001,0.785522 C 17.065931,32.947507 20.800101,36.858048 24,40 c 3.200032,-3.142019 6.934069,-7.051893 7.850078,-12.573809 0.04272,-0.257396 0.07808,-0.522726 0.100001,-0.785522 C 31.97744,26.376607 32,26.126344 32,25.855215 32,21.51688 28.418231,18 23.99992,18 Z"
     style="fill:#ffffff"
     id="path14" />
  <path
     d="m24 23.000152c1.65684 0 3 1.343126 3 2.999924s-1.34316 2.999924-3 2.999924-3-1.343126-3-2.999924 1.34316-2.999924 3-2.999924z"
     style="fill:#4f4f4f"
     id="path16" />
</svg>
