<?xml version="1.0" encoding="UTF-8" standalone="no"?>
<svg
   width="192"
   height="192"
   preserveAspectRatio="xMidYMid"
   version="1.1"
   id="svg18"
   sodipodi:docname="google_gmail_go.svg"
   inkscape:version="1.1-rc (1:1.1+rc+202105232036+f4db50c7c1)"
   xmlns:inkscape="http://www.inkscape.org/namespaces/inkscape"
   xmlns:sodipodi="http://sodipodi.sourceforge.net/DTD/sodipodi-0.dtd"
   xmlns="http://www.w3.org/2000/svg"
   xmlns:svg="http://www.w3.org/2000/svg"
   xmlns:rdf="http://www.w3.org/1999/02/22-rdf-syntax-ns#"
   xmlns:cc="http://creativecommons.org/ns#"
   xmlns:dc="http://purl.org/dc/elements/1.1/">
  <metadata
     id="metadata24">
    <rdf:RDF>
      <cc:Work
         rdf:about="">
        <dc:format>image/svg+xml</dc:format>
        <dc:type
           rdf:resource="http://purl.org/dc/dcmitype/StillImage" />
      </cc:Work>
    </rdf:RDF>
  </metadata>
  <defs
     id="defs22">
    <filter
       inkscape:collect="always"
       style="color-interpolation-filters:sRGB"
       id="filter870"
       x="-0.037360547"
       width="1.0747211"
       y="-0.067112008"
       height="1.134224">
      <feGaussianBlur
         inkscape:collect="always"
         stdDeviation="2.4907031"
         id="feGaussianBlur872" />
    </filter>
    <filter
       inkscape:collect="always"
       style="color-interpolation-filters:sRGB"
       id="filter886"
       x="-0.03763572"
       width="1.0752714"
       y="-0.06624199"
       height="1.132484">
      <feGaussianBlur
         inkscape:collect="always"
         stdDeviation="2.5090481"
         id="feGaussianBlur888" />
    </filter>
    <filter
       inkscape:collect="always"
       style="color-interpolation-filters:sRGB"
       id="filter12722"
       x="-0.047999999"
       y="-0.047999999"
       width="1.096"
       height="1.096">
      <feGaussianBlur
         inkscape:collect="always"
         stdDeviation="0.96"
         id="feGaussianBlur12724" />
    </filter>
  </defs>
  <sodipodi:namedview
     pagecolor="#ffffff"
     bordercolor="#666666"
     borderopacity="1"
     objecttolerance="10"
     gridtolerance="10"
     guidetolerance="10"
     inkscape:pageopacity="0"
     inkscape:pageshadow="2"
     inkscape:window-width="1920"
     inkscape:window-height="1014"
     id="namedview20"
     showgrid="false"
     inkscape:zoom="1"
     inkscape:cx="98.5"
     inkscape:cy="139.5"
     inkscape:window-x="0"
     inkscape:window-y="34"
     inkscape:window-maximized="1"
     inkscape:current-layer="svg18"
     inkscape:pagecheckerboard="0"
     inkscape:snap-bbox="true"
     inkscape:snap-bbox-midpoints="true"
     showguides="false">
    <inkscape:grid
       type="xygrid"
       id="grid833" />
  </sodipodi:namedview>
  <circle
     style="opacity:0.2;fill:#000000;fill-opacity:1;stroke-width:8.15824;stroke-linecap:round;stroke-linejoin:round;filter:url(#filter12722)"
     id="circle12684"
     cx="96"
     cy="43"
     r="24" />
  <path
     style="opacity:0.2;stroke-width:4;filter:url(#filter870)"
     d="M 16,70.929688 V 149.09375 C 16,155.11954 20.829875,160 26.796875,160 H 52 V 98.195312 Z M 176,70.929688 140,98.195312 V 160 H 165.20312 C 171.17013,160 176,155.11955 176,149.09375 Z"
     id="path2"
     inkscape:connector-curvature="0" />
  <path
     style="fill:#4285f4;stroke-width:4"
     d="M 26.8,156 H 52 V 94.19696 L 16,66.930912 V 145.09358 C 16,151.11938 20.833,156 26.8,156 Z"
     id="path4-3"
     inkscape:connector-curvature="0" />
  <path
     style="fill:#34a853;stroke-width:4"
     d="M 140,156 H 165.2 C 171.167,156 176,151.11938 176,145.09358 V 66.930912 L 140,94.19696 Z"
     id="path6-6"
     inkscape:connector-curvature="0" />
  <path
     style="opacity:0.2;stroke-width:4;filter:url(#filter886)"
     d="M 31.171875,40.040816 C 23.199256,40.59134 16,47.1259 16,56.392376 V 70.93144 L 52,98.197064 96,130.908 140,98.197064 176,70.93144 V 56.392376 C 176,42.913864 160.76112,35.217512 150.07812,43.30644 L 140,50.939252 96,83.634564 52,50.939252 41.921876,43.30644 C 38.583436,40.778648 34.795793,39.790576 31.171875,40.040816 Z"
     id="path8-7"
     inkscape:connector-curvature="0" />
  <path
     style="fill:#fbbc04;stroke-width:4"
     d="M 140,46.935808 V 94.19696 L 176,66.930912 V 52.389016 C 176,38.910501 160.763,31.212387 150.08,39.301314 Z"
     id="path10-5"
     inkscape:connector-curvature="0" />
  <path
     style="fill:#ea4335;stroke-width:4"
     d="M 52,94.19696 V 46.935808 L 96,79.636364 140,46.935808 V 94.19696 L 96,126.90909 Z"
     id="path12-3"
     inkscape:connector-curvature="0" />
  <path
     style="fill:#c5221f;stroke-width:4"
     d="M 16,52.389016 V 66.930912 L 52,94.19696 V 46.935808 L 41.920004,39.301314 C 31.237,31.212387 16,38.910501 16,52.389016 Z"
     id="path14-5"
     inkscape:connector-curvature="0" />
  <path
     style="opacity:0.2;fill:#ffffff;stroke-width:4"
     d="M 32.537109 36.003906 C 32.0802 35.9959 31.624865 36.007783 31.171875 36.039062 C 23.199256 36.589588 16 43.124149 16 52.390625 L 16 53.390625 C 16 44.124149 23.199256 37.589588 31.171875 37.039062 C 34.795792 36.788825 38.583434 37.776897 41.921875 40.304688 L 52 47.9375 L 96 80.632812 L 140 47.9375 L 150.07812 40.304688 C 160.76112 32.21576 176 39.912113 176 53.390625 L 176 52.390625 C 176 38.912113 160.76112 31.21576 150.07812 39.304688 L 140 46.9375 L 96 79.632812 L 52 46.9375 L 41.921875 39.304688 C 39.000739 37.092871 35.735472 36.05995 32.537109 36.003906 z "
     id="path16" />
  <circle
     style="opacity:1;fill:#e4e4e4;fill-opacity:1;stroke-width:8.15824;stroke-linecap:round;stroke-linejoin:round"
     id="path857"
     cx="96"
     cy="41"
     r="24" />
  <path
     id="path11975"
     style="font-size:28.2559px;line-height:1.25;font-family:Roboto;-inkscape-font-specification:Roboto;stroke-width:0.684188;fill:#454545;fill-opacity:1"
     d="M 86.828125 31 C 84.316994 31 82.384768 31.81625 81.03125 33.447266 C 79.677733 35.078282 79 37.341668 79 40.238281 L 79 41.748047 C 79 44.662486 79.760496 46.93539 81.283203 48.566406 C 82.80591 50.18851 84.752438 51 87.121094 51 C 89.293845 51 90.891973 50.661737 91.916016 49.984375 C 92.940059 49.307014 93.634907 48.700776 94 48.166016 L 94 41 L 87 41 L 87 43 L 92.035156 43 L 92.035156 47.583984 C 90.729371 48.869577 88.79759 48.992694 87.134766 49 C 85.469582 49 83.526857 48.27231 82.511719 47.015625 C 81.496581 45.750028 80.992188 43.994036 80.992188 41.748047 L 80.992188 40.144531 C 81.001087 37.978756 81.425536 36.26645 82.271484 35.009766 C 83.117433 33.744168 85.038276 32.912109 86.828125 32.912109 C 88.315212 32.912109 89.905041 33.291252 90.599609 34.048828 C 91.303082 34.806404 91.74378 35.911197 91.921875 36.962891 L 94 36.962891 C 93.750668 35.233835 93.046285 33.806588 91.888672 32.683594 C 90.739963 31.560599 89.054305 31 86.828125 31 z M 105.49414 31 C 103.28235 31 101.47986 31.838093 100.08789 33.513672 C 98.695919 35.180338 98 37.470327 98 40.384766 L 98 41.615234 C 98 44.538586 98.701054 46.833333 100.10156 48.5 C 101.50208 50.166667 103.30775 51 105.51953 51 C 107.7911 51 109.60508 50.166667 110.96289 48.5 C 112.3207 46.833333 113 44.538586 113 41.615234 L 113 40.224609 C 112.9744 37.363647 112.27847 35.112585 110.91211 33.472656 C 109.5543 31.823815 107.74862 31 105.49414 31 z M 105.49414 33 C 107.23242 33 108.58403 33.629365 109.55078 34.888672 C 110.51753 36.14798 111 37.963327 111 40.335938 L 111 41.623047 C 111 44.013907 110.52189 45.842895 109.56445 47.111328 C 108.61628 48.370636 107.26907 49 105.52148 49 C 103.85757 49.000001 102.5191 48.370636 101.50586 47.111328 C 100.50194 45.842895 100 44.013907 100 41.623047 L 100 40.335938 C 100 37.963327 100.49559 36.14798 101.49023 34.888672 C 102.49415 33.629365 103.83022 33 105.49414 33 z " />
</svg>
