<?xml version="1.0" encoding="UTF-8" standalone="no"?>
<svg
   width="192"
   height="192"
   version="1"
   id="svg14"
   sodipodi:docname="google_youtube_go.svg"
   inkscape:version="1.1-rc (1:1.1+rc+202105232036+f4db50c7c1)"
   xmlns:inkscape="http://www.inkscape.org/namespaces/inkscape"
   xmlns:sodipodi="http://sodipodi.sourceforge.net/DTD/sodipodi-0.dtd"
   xmlns="http://www.w3.org/2000/svg"
   xmlns:svg="http://www.w3.org/2000/svg"
   xmlns:rdf="http://www.w3.org/1999/02/22-rdf-syntax-ns#"
   xmlns:cc="http://creativecommons.org/ns#"
   xmlns:dc="http://purl.org/dc/elements/1.1/">
  <metadata
     id="metadata20">
    <rdf:RDF>
      <cc:Work
         rdf:about="">
        <dc:format>image/svg+xml</dc:format>
        <dc:type
           rdf:resource="http://purl.org/dc/dcmitype/StillImage" />
      </cc:Work>
    </rdf:RDF>
  </metadata>
  <defs
     id="defs18">
    <filter
       inkscape:collect="always"
       style="color-interpolation-filters:sRGB"
       id="filter876"
       x="-0.05279995"
       width="1.1055999"
       y="-0.044000029"
       height="1.0880001">
      <feGaussianBlur
         inkscape:collect="always"
         stdDeviation="0.88000014"
         id="feGaussianBlur878" />
    </filter>
    <filter
       inkscape:collect="always"
       style="color-interpolation-filters:sRGB"
       id="filter3088"
       x="-0.04122353"
       y="-0.057442624"
       width="1.0824471"
       height="1.1148852">
      <feGaussianBlur
         inkscape:collect="always"
         stdDeviation="2.92"
         id="feGaussianBlur3090" />
    </filter>
  </defs>
  <sodipodi:namedview
     pagecolor="#ffffff"
     bordercolor="#666666"
     borderopacity="1"
     objecttolerance="10"
     gridtolerance="10"
     guidetolerance="10"
     inkscape:pageopacity="0"
     inkscape:pageshadow="2"
     inkscape:window-width="1920"
     inkscape:window-height="1019"
     id="namedview16"
     showgrid="false"
     inkscape:zoom="1"
     inkscape:cx="108.5"
     inkscape:cy="50.5"
     inkscape:window-x="0"
     inkscape:window-y="34"
     inkscape:window-maximized="1"
     inkscape:current-layer="svg14"
     inkscape:document-rotation="0"
     inkscape:pagecheckerboard="0">
    <inkscape:grid
       type="xygrid"
       id="grid1482" />
  </sodipodi:namedview>
  <path
     id="path3050"
     style="opacity:0.2;fill:#000000;fill-opacity:1;stroke-width:0.443243;filter:url(#filter3088)"
     d="m 120,39 c -6.44112,0.0057 -7.79946,0.478082 -11.65234,1.195312 -5.83039,1.533297 -11.904387,3.487133 -16.53516,5.871094 -1.770339,0.755835 -3.573766,1.543262 -5.451172,2.408203 -9.30137,4.285146 -45.496248,23.4261 -55.318359,29.132813 -1.545542,0.899629 -3.676305,1.765501 -4.042969,4.029297 0.06804,1.729867 2.718451,3.467087 8.013672,6.291015 2.855949,1.523171 5.283282,2.917707 5.394531,3.097657 0.11125,0.180255 -6.06535,3.464772 -13.726562,7.298828 C 11.787385,105.77812 11,106.33808 11,109.50195 c 0,1.5862 1.32865,3.91588 2.744141,4.81055 1.749128,1.10562 68.965264,35.46306 74.097656,37.875 1.54957,0.72822 3.036683,1.39501 4.492187,2.0293 4.594253,2.33395 9.465736,4.07634 14.498046,5.18554 4.42272,1.25598 8.81169,1.43821 13.16797,1.59766 33.68937,0 61,-27.31063 61,-61 0,-33.68937 -27.31063,-61 -61,-61 z"
     sodipodi:nodetypes="cccccccccscscccsc" />
  <path
     id="path860"
     style="opacity:1;fill:#fa2235;fill-opacity:1;stroke-width:0.443243"
     d="m 120,35 c -6.44112,0.0057 -7.79946,0.478082 -11.65234,1.195312 -5.83039,1.533297 -11.904387,3.487133 -16.53516,5.871094 -1.770339,0.755835 -3.573766,1.543262 -5.451172,2.408203 -9.30137,4.285146 -45.496248,23.4261 -55.318359,29.132813 -1.545542,0.899629 -3.676305,1.765501 -4.042969,4.029297 0.06804,1.729867 2.718451,3.467087 8.013672,6.291015 2.855949,1.523171 5.283282,2.917707 5.394531,3.097657 0.11125,0.180255 -6.06535,3.464772 -13.726562,7.298828 C 11.787385,101.77812 11,102.33808 11,105.50195 c 0,1.5862 1.32865,3.91588 2.744141,4.81055 1.749128,1.10562 68.965264,35.46306 74.097656,37.875 1.54957,0.72822 3.036683,1.39501 4.492187,2.0293 4.594253,2.33395 9.465736,4.07634 14.498046,5.18554 4.42272,1.25598 8.81169,1.43821 13.16797,1.59766 33.68937,0 61,-27.31063 61,-61 0,-33.68937 -27.31063,-61 -61,-61 z"
     sodipodi:nodetypes="cccccccccscscccsc" />
  <path
     inkscape:connector-curvature="0"
     id="path6"
     d="m 124.80905,111.59074 c 22.67776,-13.547684 22.19016,-13.250544 22.19016,-13.522532 0,-0.25452 -39.69428,-24.205464 -39.88783,-24.067636 -0.13072,0.09316 -0.15504,47.805728 -0.0264,47.956288 0.0483,0.0557 0.18576,0.0578 0.3052,0.004 0.11948,-0.0531 7.95728,-4.71988 17.41691,-10.37104 z"
     style="opacity:0.2;stroke-width:4;filter:url(#filter876)" />
  <path
     inkscape:connector-curvature="0"
     id="path8"
     d="m 124.80905,109.59075 c 22.67776,-13.547686 22.19016,-13.250546 22.19016,-13.522534 0,-0.25452 -39.69428,-24.205464 -39.88783,-24.067636 -0.13072,0.09316 -0.15504,47.80573 -0.0264,47.95629 0.0483,0.0557 0.18576,0.0578 0.3052,0.004 0.11948,-0.0531 7.95728,-4.71988 17.41691,-10.37104 z"
     style="fill:#ffffff;stroke-width:4" />
  <path
     id="path3092"
     style="opacity:0.2;fill:#ffffff;fill-opacity:1;stroke-width:0.443243"
     d="M 120 35 C 113.55888 35.0057 112.20054 35.478082 108.34766 36.195312 C 102.51727 37.728609 96.443273 39.682445 91.8125 42.066406 C 90.042161 42.822241 88.238734 43.609668 86.361328 44.474609 C 77.059958 48.759755 40.86508 67.900709 31.042969 73.607422 C 29.497427 74.507051 27.366664 75.372923 27 77.636719 C 27.007175 77.819146 27.05836 78.00169 27.123047 78.185547 C 27.686916 76.26308 29.608159 75.442596 31.042969 74.607422 C 40.86508 68.900709 77.059958 49.759755 86.361328 45.474609 C 88.238734 44.609668 90.042161 43.822241 91.8125 43.066406 C 96.443273 40.682445 102.51727 38.728609 108.34766 37.195312 C 112.20054 36.478082 113.55888 36.0057 120 36 C 153.52165 36 180.71627 63.042063 180.98633 96.5 C 180.98768 96.332598 181 96.167721 181 96 C 181 62.31063 153.68937 35 120 35 z M 39.632812 87.541016 C 37.926954 88.568272 32.886036 91.219227 26.681641 94.324219 C 11.787385 101.77812 11 102.33808 11 105.50195 C 11 105.57669 11.037199 105.66828 11.042969 105.74609 C 11.261144 103.20741 13.087875 102.12728 26.681641 95.324219 C 34.342853 91.490163 40.519453 88.205646 40.408203 88.025391 C 40.382366 87.983597 39.884863 87.700234 39.632812 87.541016 z " />
</svg>
