<?xml version="1.0" encoding="UTF-8" standalone="no"?>
<svg
   xmlns:dc="http://purl.org/dc/elements/1.1/"
   xmlns:cc="http://creativecommons.org/ns#"
   xmlns:rdf="http://www.w3.org/1999/02/22-rdf-syntax-ns#"
   xmlns:svg="http://www.w3.org/2000/svg"
   xmlns="http://www.w3.org/2000/svg"
   xmlns:sodipodi="http://sodipodi.sourceforge.net/DTD/sodipodi-0.dtd"
   xmlns:inkscape="http://www.inkscape.org/namespaces/inkscape"
   width="48"
   height="48"
   version="1"
   id="svg20"
   sodipodi:docname="google_cloudprint.svg"
   inkscape:version="0.92.2 (unknown)">
  <metadata
     id="metadata26">
    <rdf:RDF>
      <cc:Work
         rdf:about="">
        <dc:format>image/svg+xml</dc:format>
        <dc:type
           rdf:resource="http://purl.org/dc/dcmitype/StillImage" />
      </cc:Work>
    </rdf:RDF>
  </metadata>
  <defs
     id="defs24" />
  <sodipodi:namedview
     pagecolor="#ffffff"
     bordercolor="#666666"
     borderopacity="1"
     objecttolerance="10"
     gridtolerance="10"
     guidetolerance="10"
     inkscape:pageopacity="0"
     inkscape:pageshadow="2"
     inkscape:window-width="1920"
     inkscape:window-height="1016"
     id="namedview22"
     showgrid="false"
     inkscape:zoom="16.01"
     inkscape:cx="24"
     inkscape:cy="24"
     inkscape:window-x="0"
     inkscape:window-y="34"
     inkscape:window-maximized="1"
     inkscape:current-layer="svg20" />
  <path
     d="M 2.0234,25.068 C 2.0151,25.243 2,25.415 2,25.592 2,31.617 6.9249,36.5 13,36.5 H 36.375 C 41.691,36.5 46,32.227 46,26.955 46,26.782 45.986,26.612 45.977,26.441 45.719,31.485 41.525,35.5 36.375,35.5 H 13 C 7.0871,35.5 2.277,30.87 2.023,25.068 Z"
     style="opacity:0.2"
     id="path2"
     inkscape:connector-curvature="0" />
  <path
     d="M 24,6 C 18.305,6 13.455,9.458 11.367,14.352 6.0657,15.134 2,19.616 2,25.091 2,31.116 6.9249,36 13,36 l 23.375,0 C 41.691,36 46,31.726 46,26.455 46,21.555 42.285,17.54 37.492,16.994 36.242,10.74 30.674,6 24,6 Z"
     style="fill:#e4e4e4"
     id="path4" />
  <rect
     x="11"
     y="25"
     width="26"
     height="3"
     rx="1.5"
     ry="1.5"
     style="fill-rule:evenodd;fill:#4f4f4f"
     id="rect8" />
  <path
     d="m 15,25.5 v 15 c 0,1.108 0.892,2 2,2 h 14 c 1.108,0 2,-0.892 2,-2 v -15 z"
     style="opacity:0.2;fill:#000000;fill-rule:evenodd"
     id="path10"
     inkscape:connector-curvature="0" />
  <path
     d="m15 25v15c0 1.108 0.892 2 2 2h14c1.108 0 2-0.892 2-2v-15h-18z"
     style="fill-rule:evenodd;fill:#4c7dce"
     id="path12" />
  <path
     d="m 18,30.5 v 2 h 12 v -2 z m 0,3 v 2 h 12 v -2 z m 0,3 v 2 h 12 v -2 z"
     style="opacity:0.2;fill:#000000;fill-rule:evenodd"
     id="path14"
     inkscape:connector-curvature="0" />
  <path
     d="m18 30v2h12v-2h-12zm0 3v2h12v-2h-12zm0 3v2h12v-2h-12z"
     style="fill-rule:evenodd;fill:#ffffff"
     id="path16" />
  <path
     style="fill-rule:evenodd;fill:#000000;opacity:.1"
     d="M 12.5 25 C 11.669 25 11 25.669 11 26.5 C 11 26.566331 11.025856 26.624091 11.035156 26.6875 C 11.178547 26.007987 11.776577 25.5 12.5 25.5 L 35.5 25.5 C 36.223423 25.5 36.821453 26.007987 36.964844 26.6875 C 36.974144 26.624091 37 26.566331 37 26.5 C 37 25.669 36.331 25 35.5 25 L 12.5 25 z "
     id="path18" />
  <path
     style="fill:#ffffff;opacity:0.2"
     d="M 24 6 C 18.305 6 13.455188 9.4575625 11.367188 14.351562 C 6.0658875 15.133563 2 19.616797 2 25.091797 C 2 25.172247 2.0099716 25.250044 2.0117188 25.330078 C 2.1398417 19.975411 6.1512636 15.620969 11.367188 14.851562 C 13.455188 9.9575625 18.305 6.5 24 6.5 C 30.674 6.5 36.242188 11.240141 37.492188 17.494141 C 42.200158 18.030454 45.859624 21.915836 45.988281 26.697266 C 45.990339 26.616063 46 26.536772 46 26.455078 C 46 21.555078 42.285188 17.540141 37.492188 16.994141 C 36.242188 10.740141 30.674 6 24 6 z "
     id="path836" />
</svg>
