<svg xmlns="http://www.w3.org/2000/svg" width="192" height="192" version="1.1">
 <g transform="scale(4)">
  <path style="opacity:0.2" d="m 43.590343,41.5 c 1.040675,-5.08e-4 1.722424,-1.213582 1.268294,-2.256746 L 30.928835,8.38521 C 30.692854,7.8434519 30.199688,7.499618 29.659164,7.5 H 18.408989 c -1.039718,0.00106 -1.720991,1.2124596 -1.268293,2.255212 l 13.42932,30.859579 c 0.235764,0.54126 0.728268,0.885003 1.268294,0.885209 z"/>
  <path style="fill:#2370d4" d="m43.590343 41c1.040675-5.08e-4 1.722424-1.213582 1.268294-2.256746l-13.929802-30.858044c-0.235981-0.5417581-0.729147-0.885592-1.269671-0.88521h-11.250175c-1.039718 0.00106-1.720991 1.2124596-1.268293 2.255212l13.42932 30.859579c0.235764 0.54126 0.728268 0.885003 1.268294 0.885209z"/>
  <path style="fill:#ffffff;opacity:0.1" d="M 18.408203 7 C 17.502918 7.0009229 16.873308 7.9198767 17.023438 8.8457031 C 17.121198 8.1165001 17.668665 7.500754 18.408203 7.5 L 29.658203 7.5 C 30.198727 7.499618 30.693707 7.8430075 30.929688 8.3847656 L 44.859375 39.244141 C 44.918103 39.379041 44.954146 39.516703 44.976562 39.654297 C 45.016399 39.357683 44.990683 39.045763 44.859375 38.744141 L 30.929688 7.8847656 C 30.693707 7.3430075 30.198727 6.999618 29.658203 7 L 18.408203 7 z"/>
  <path style="opacity:0.2" d="M 4.4096569,41.5 A 1.4102748,1.5711343 0 0 1 3.1413626,39.243254 L 16.570684,8.38521 A 1.4102748,1.5711343 0 0 1 17.840355,7.5 h 11.750656 a 1.4102748,1.5711343 0 0 1 1.268293,2.255212 L 17.429984,40.614791 A 1.4102748,1.5711343 0 0 1 16.16169,41.5 Z"/>
  <path style="fill:#4c8cf6" d="m4.4096569 41a1.4102748 1.5711343 0 0 1-1.2682943-2.256746l13.429321-30.858044a1.4102748 1.5711343 0 0 1 1.269671-0.88521h11.750656a1.4102748 1.5711343 0 0 1 1.268293 2.255212l-13.42932 30.859579a1.4102748 1.5711343 0 0 1-1.268294 0.885209h-11.752033z"/>
  <path style="fill:#ffffff;opacity:0.2" d="M 17.8125 7 A 1.4102748 1.5711343 0 0 0 16.570312 7.8847656 L 3.140625 38.744141 A 1.4102748 1.5711343 0 0 0 3.0175781 39.685547 A 1.4102748 1.5711343 0 0 1 3.140625 39.244141 L 16.570312 8.3847656 A 1.4102748 1.5711343 0 0 1 17.839844 7.5 L 29.591797 7.5 A 1.4102748 1.5711343 0 0 1 30.982422 8.8164062 A 1.4102748 1.5711343 0 0 0 29.591797 7 L 17.839844 7 A 1.4102748 1.5711343 0 0 0 17.8125 7 z"/>
 </g>
</svg>
