<svg xmlns="http://www.w3.org/2000/svg" width="48" height="48" version="1.1">
 <g>
  <circle style="opacity:0.2" cx="24" cy="24.5" r="20"/>
  <circle style="fill:#3f61ba" cx="24" cy="24" r="20"/>
  <path style="opacity:0.2;fill-rule:evenodd" d="m 17.145052,13.5 c -2.657391,0 -4.842474,2.155996 -5.11261,4.921737 -0.08444,0.569192 0.01575,1.185186 0.07616,1.699171 0.287287,2.827749 1.401092,7.592468 5.540288,11.732091 4.139197,4.139622 8.903424,5.253541 11.730882,5.540859 0.361635,0.06998 0.737142,0.105466 1.120949,0.105466 0.199711,0.005 0.375282,-0.01902 0.578049,-0.0293 C 33.844227,37.199862 36,35.014555 36,32.35689 c 0,-2.840241 -2.46211,-3.857313 -5.499279,-3.857313 -2.597729,0 -4.769404,0.747733 -5.345001,2.740156 -1.311682,-0.628397 -2.698307,-1.53846 -4.026816,-2.867106 -1.328509,-1.328645 -2.238478,-2.715413 -2.866811,-4.02723 1.992219,-0.575657 2.739875,-2.747556 2.739875,-5.345553 0,-3.037481 -1.016968,-5.499845 -3.856916,-5.499844 z"/>
  <path style="fill:#ffffff;fill-rule:evenodd" d="m 17.145052,13 c -2.657391,0 -4.842474,2.155996 -5.11261,4.921737 -0.08444,0.569192 0.01575,1.185186 0.07616,1.699171 0.287287,2.827749 1.401092,7.592468 5.540288,11.732091 4.139197,4.139622 8.903424,5.253541 11.730882,5.540859 0.361635,0.06998 0.737142,0.105466 1.120949,0.105466 0.199711,0.005 0.375282,-0.01902 0.578049,-0.0293 C 33.844227,36.699862 36,34.514555 36,31.85689 c 0,-2.840241 -2.46211,-3.857313 -5.499279,-3.857313 -2.597729,0 -4.769404,0.747733 -5.345001,2.740156 -1.311682,-0.628397 -2.698307,-1.53846 -4.026816,-2.867106 -1.328509,-1.328645 -2.238478,-2.715413 -2.866811,-4.02723 1.992219,-0.575657 2.739875,-2.747556 2.739875,-5.345553 0,-3.037481 -1.016968,-5.499845 -3.856916,-5.499844 z"/>
  <path style="fill-rule:evenodd;fill:#ffffff;opacity:0.1" d="M 24 4 A 20 20 0 0 0 4 24 A 20 20 0 0 0 4.0097656 24.246094 A 20 20 0 0 1 24 4.5 A 20 20 0 0 1 43.988281 24.246094 A 20 20 0 0 0 44 24 A 20 20 0 0 0 24 4 z"/>
 </g>
</svg>
