<?xml version="1.0" encoding="UTF-8" standalone="no"?>
<svg
   width="192"
   height="192"
   version="1"
   id="svg40"
   sodipodi:docname="google_input_japanese.svg"
   inkscape:version="1.1-rc (1:1.1+rc+202105232036+f4db50c7c1)"
   xmlns:inkscape="http://www.inkscape.org/namespaces/inkscape"
   xmlns:sodipodi="http://sodipodi.sourceforge.net/DTD/sodipodi-0.dtd"
   xmlns="http://www.w3.org/2000/svg"
   xmlns:svg="http://www.w3.org/2000/svg"
   xmlns:rdf="http://www.w3.org/1999/02/22-rdf-syntax-ns#"
   xmlns:cc="http://creativecommons.org/ns#"
   xmlns:dc="http://purl.org/dc/elements/1.1/">
  <metadata
     id="metadata46">
    <rdf:RDF>
      <cc:Work
         rdf:about="">
        <dc:format>image/svg+xml</dc:format>
        <dc:type
           rdf:resource="http://purl.org/dc/dcmitype/StillImage" />
      </cc:Work>
    </rdf:RDF>
  </metadata>
  <defs
     id="defs44">
    <filter
       inkscape:collect="always"
       style="color-interpolation-filters:sRGB"
       id="filter4762"
       x="-0.061647056"
       y="-0.039299998"
       width="1.1232941"
       height="1.0786">
      <feGaussianBlur
         inkscape:collect="always"
         stdDeviation="2.62"
         id="feGaussianBlur4764" />
    </filter>
    <filter
       inkscape:collect="always"
       style="color-interpolation-filters:sRGB"
       id="filter4804"
       x="-0.052595742"
       y="-0.044142856"
       width="1.1051915"
       height="1.0882857">
      <feGaussianBlur
         inkscape:collect="always"
         stdDeviation="2.06"
         id="feGaussianBlur4806" />
    </filter>
    <filter
       inkscape:collect="always"
       style="color-interpolation-filters:sRGB"
       id="filter4895"
       x="-0.03722034"
       y="-0.067569232"
       width="1.0744407"
       height="1.1351385">
      <feGaussianBlur
         inkscape:collect="always"
         stdDeviation="1.83"
         id="feGaussianBlur4897" />
    </filter>
    <filter
       inkscape:collect="always"
       style="color-interpolation-filters:sRGB"
       id="filter3006"
       x="-0.10972029"
       y="-0.10633282"
       width="1.2194406"
       height="1.2126656">
      <feGaussianBlur
         inkscape:collect="always"
         stdDeviation="2.651582"
         id="feGaussianBlur3008" />
    </filter>
  </defs>
  <sodipodi:namedview
     pagecolor="#ffffff"
     bordercolor="#666666"
     borderopacity="1"
     objecttolerance="10"
     gridtolerance="10"
     guidetolerance="10"
     inkscape:pageopacity="0"
     inkscape:pageshadow="2"
     inkscape:window-width="1920"
     inkscape:window-height="1019"
     id="namedview42"
     showgrid="false"
     inkscape:zoom="3.78"
     inkscape:cx="97.486772"
     inkscape:cy="74.206349"
     inkscape:window-x="0"
     inkscape:window-y="34"
     inkscape:window-maximized="1"
     inkscape:current-layer="svg40"
     inkscape:document-rotation="0"
     inkscape:snap-bbox="true"
     inkscape:snap-bbox-midpoints="true"
     inkscape:pagecheckerboard="0">
    <inkscape:grid
       type="xygrid"
       id="grid870" />
  </sodipodi:namedview>
  <rect
     id="rect4724"
     transform="matrix(0,-1,-1,0,0,-0.99999987)"
     ry="10"
     rx="10"
     y="-176"
     x="-180"
     height="160"
     width="102"
     style="opacity:0.2;fill:#000000;fill-opacity:1;stroke-width:4.34613;filter:url(#filter4762)" />
  <rect
     id="rect4"
     transform="matrix(0,-1,-1,0,0,0)"
     ry="10"
     rx="10"
     y="-176"
     x="-176"
     height="160"
     width="102"
     style="fill:#4588f3;fill-opacity:1;stroke-width:4.34613" />
  <path
     id="rect4899"
     style="opacity:0.2;fill:#ffffff;fill-opacity:1;stroke-width:4.34613"
     d="m 26,74 c -5.54,0 -10,4.46 -10,10 v 1 c 0,-5.54 4.46,-10 10,-10 h 140 c 5.54,0 10,4.46 10,10 v -1 c 0,-5.54 -4.46,-10 -10,-10 z" />
  <path
     id="path4857"
     style="opacity:0.2;fill:#000000;fill-opacity:1;stroke-width:7.73578;stroke-linejoin:round;filter:url(#filter4895);stop-color:#000000"
     d="m 39,98 c -1.108,0 -2,0.892 -2,2 v 10 c 0,1.108 0.892,2 2,2 h 10 c 1.108,0 2,-0.892 2,-2 v -10 c 0,-1.108 -0.892,-2 -2,-2 z m 26,0 c -1.108,0 -2,0.892 -2,2 v 10 c 0,1.108 0.892,2 2,2 h 10 c 1.108,0 2,-0.892 2,-2 v -10 c 0,-1.108 -0.892,-2 -2,-2 z m 26,0 c -1.108,0 -2,0.892 -2,2 v 10 c 0,1.108 0.892,2 2,2 h 10 c 1.108,0 2,-0.892 2,-2 v -10 c 0,-1.108 -0.892,-2 -2,-2 z m 26,0 c -1.108,0 -2,0.892 -2,2 v 10 c 0,1.108 0.892,2 2,2 h 10 c 1.108,0 2,-0.892 2,-2 v -10 c 0,-1.108 -0.892,-2 -2,-2 z m 26,0 c -1.108,0 -2,0.892 -2,2 v 10 c 0,1.108 0.892,2 2,2 h 10 c 1.108,0 2,-0.892 2,-2 v -10 c 0,-1.108 -0.892,-2 -2,-2 z M 39,124 c -1.108,0 -2,0.892 -2,2 v 10 c 0,1.108 0.892,2 2,2 h 10 c 1.108,0 2,-0.892 2,-2 v -10 c 0,-1.108 -0.892,-2 -2,-2 z m 26,0 c -1.108,0 -2,0.892 -2,2 v 10 c 0,1.108 0.892,2 2,2 h 10 c 1.108,0 2,-0.892 2,-2 v -10 c 0,-1.108 -0.892,-2 -2,-2 z m 26,0 c -1.108,0 -2,0.892 -2,2 v 10 c 0,1.108 0.892,2 2,2 h 10 c 1.108,0 2,-0.892 2,-2 v -10 c 0,-1.108 -0.892,-2 -2,-2 z m 26,0 c -1.108,0 -2,0.892 -2,2 v 10 c 0,1.108 0.892,2 2,2 h 10 c 1.108,0 2,-0.892 2,-2 v -10 c 0,-1.108 -0.892,-2 -2,-2 z m 26,0 c -1.108,0 -2,0.892 -2,2 v 10 c 0,1.108 0.892,2 2,2 h 10 c 1.108,0 2,-0.892 2,-2 v -10 c 0,-1.108 -0.892,-2 -2,-2 z M 54.984375,149 C 53.884791,149 53,149.83255 53,150.86719 v 10.26562 C 53,162.16745 53.884791,163 54.984375,163 H 137.01562 C 138.11521,163 139,162.16745 139,161.13281 V 150.86719 C 139,149.83255 138.11521,149 137.01562,149 Z" />
  <path
     id="rect1763"
     style="fill:#a5c5f8;fill-opacity:1;stroke-width:7.73578;stroke-linejoin:round;stop-color:#000000"
     d="m 39,96 c -1.108,0 -2,0.892 -2,2 v 10 c 0,1.108 0.892,2 2,2 h 10 c 1.108,0 2,-0.892 2,-2 V 98 c 0,-1.108 -0.892,-2 -2,-2 z m 26,0 c -1.108,0 -2,0.892 -2,2 v 10 c 0,1.108 0.892,2 2,2 h 10 c 1.108,0 2,-0.892 2,-2 V 98 c 0,-1.108 -0.892,-2 -2,-2 z m 26,0 c -1.108,0 -2,0.892 -2,2 v 10 c 0,1.108 0.892,2 2,2 h 10 c 1.108,0 2,-0.892 2,-2 V 98 c 0,-1.108 -0.892,-2 -2,-2 z m 26,0 c -1.108,0 -2,0.892 -2,2 v 10 c 0,1.108 0.892,2 2,2 h 10 c 1.108,0 2,-0.892 2,-2 V 98 c 0,-1.108 -0.892,-2 -2,-2 z m 26,0 c -1.108,0 -2,0.892 -2,2 v 10 c 0,1.108 0.892,2 2,2 h 10 c 1.108,0 2,-0.892 2,-2 V 98 c 0,-1.108 -0.892,-2 -2,-2 z M 39,122 c -1.108,0 -2,0.892 -2,2 v 10 c 0,1.108 0.892,2 2,2 h 10 c 1.108,0 2,-0.892 2,-2 v -10 c 0,-1.108 -0.892,-2 -2,-2 z m 26,0 c -1.108,0 -2,0.892 -2,2 v 10 c 0,1.108 0.892,2 2,2 h 10 c 1.108,0 2,-0.892 2,-2 v -10 c 0,-1.108 -0.892,-2 -2,-2 z m 26,0 c -1.108,0 -2,0.892 -2,2 v 10 c 0,1.108 0.892,2 2,2 h 10 c 1.108,0 2,-0.892 2,-2 v -10 c 0,-1.108 -0.892,-2 -2,-2 z m 26,0 c -1.108,0 -2,0.892 -2,2 v 10 c 0,1.108 0.892,2 2,2 h 10 c 1.108,0 2,-0.892 2,-2 v -10 c 0,-1.108 -0.892,-2 -2,-2 z m 26,0 c -1.108,0 -2,0.892 -2,2 v 10 c 0,1.108 0.892,2 2,2 h 10 c 1.108,0 2,-0.892 2,-2 v -10 c 0,-1.108 -0.892,-2 -2,-2 z M 54.984375,147 C 53.884791,147 53,147.83255 53,148.86719 v 10.26562 C 53,160.16745 53.884791,161 54.984375,161 H 137.01562 C 138.11521,161 139,160.16745 139,159.13281 V 148.86719 C 139,147.83255 138.11521,147 137.01562,147 Z" />
  <path
     id="path4766"
     style="opacity:0.2;fill:#000000;fill-opacity:1;stroke-width:8.02336;stroke-linejoin:round;filter:url(#filter4804);stop-color:#000000"
     d="M 60.000507,18 C 48.715193,18 49.000662,28 49.000662,28 v 57.679688 c 0,0 1.012232,5.369241 6.410066,10.033203 L 96,130 136.58927,95.712891 c 5.39783,-4.663962 6.41007,-10.033203 6.41007,-10.033203 V 28 c 0,0 0.28546,-10 -10.99985,-10 H 96 Z" />
  <path
     id="rect2286"
     style="fill:#17d36e;fill-opacity:1;stroke-width:8.02336;stroke-linejoin:round;stop-color:#000000"
     d="M 60.000507,16 C 48.715193,16 49.000662,26 49.000662,26 v 57.679688 c 0,0 1.012232,5.369241 6.410066,10.033203 L 96,128 136.58927,93.712891 c 5.39783,-4.663962 6.41007,-10.033203 6.41007,-10.033203 V 26 c 0,0 0.28546,-10 -10.99985,-10 H 96 Z" />
  <path
     id="path4901"
     style="opacity:0.2;fill:#ffffff;fill-opacity:1;stroke-width:8.02336;stroke-linejoin:round;stop-color:#000000"
     d="M 60,16 C 48.714686,16 49,26 49,26 v 1 c 0,0 -0.285314,-10 11,-10 h 36 36 c 11.28531,0 11,10 11,10 v -1 c 0,0 0.28531,-10 -11,-10 H 96 Z" />
  <path
     id="path2968"
     style="color:#000000;opacity:0.2;fill:#000000;-inkscape-stroke:none;filter:url(#filter3006)"
     d="m 84.054689,32.000094 v 8 H 72.000001 v 8 h 12.054688 v 11.181641 c -3.533363,1.318814 -6.714908,3.005333 -9.404297,5.015625 -3.736903,2.793296 -6.625664,6.199137 -7.953125,10.230468 -1.327462,4.031332 -0.779459,8.694929 1.824218,12.59375 1.388663,2.079424 3.3479,3.706142 5.625,4.408204 2.2771,0.702062 4.635518,0.455868 6.730469,-0.261719 2.682203,-0.918741 5.140962,-2.535536 7.525391,-4.603516 1.715521,1.650829 3.436253,2.875706 4.824218,4.263672 l 5.658204,-5.65625 c -1.872571,-1.872574 -3.64481,-3.222992 -4.855469,-4.320313 4.26368,-4.901918 8.345192,-10.888481 11.912112,-16.910156 4.36566,0.360083 6.9665,1.669783 8.34961,3.03711 1.45045,1.433911 1.82979,2.973774 1.66015,4.439453 -0.80826,4.551803 -2.04548,6.276276 -4.06445,7.863281 -2.03952,1.60315 -5.3894,2.946503 -9.77344,5.134766 l 3.57617,7.162109 c 3.98777,-1.990467 7.72616,-3.316915 11.14453,-6.003906 3.41837,-2.686991 5.99679,-6.890929 7.03711,-12.890625 a 4.0033715,4.0033715 0 0 0 0.0273,-0.175782 c 0.49344,-3.845843 -0.79545,-8.075893 -3.97852,-11.222656 -2.36621,-2.339229 -5.67117,-4.024688 -9.81445,-4.867187 0.45444,-0.884795 0.98327,-1.805266 1.40234,-2.667969 l -7.20117,-3.498047 c -0.89142,1.835076 -1.94649,3.779494 -3.01953,5.722656 -3.190872,0.08336 -6.283627,0.423104 -9.232421,0.986329 V 48.000094 H 116 v -8 H 92.054689 v -8 z M 96.31836,64.324313 c -1.382027,2.134038 -2.815047,4.208508 -4.263671,6.167969 V 65.140719 C 93.43257,64.815186 94.85058,64.532267 96.31836,64.324313 Z M 84.054689,67.896578 V 75.879 c -0.113269,1.254959 -0.02621,2.459757 0.210937,3.589844 -2.369436,2.176941 -4.542198,3.631008 -5.984375,4.125 -0.946824,0.324317 -1.45129,0.286074 -1.777344,0.185547 -0.326054,-0.100527 -0.70968,-0.284851 -1.324218,-1.205078 -1.402725,-2.10048 -1.519769,-3.696361 -0.878907,-5.642578 0.640863,-1.946218 2.354673,-4.236382 5.142578,-6.320313 1.31622,-0.983861 2.879918,-1.892773 4.611329,-2.714844 z" />
  <path
     id="path34-6"
     style="color:#000000;fill:#ffffff;-inkscape-stroke:none"
     d="m 84.054689,30.000094 v 8 H 72.000001 v 8 h 12.054688 v 11.181641 c -3.533363,1.318814 -6.714908,3.005333 -9.404297,5.015625 -3.736903,2.793296 -6.625664,6.199137 -7.953125,10.230468 -1.327462,4.031332 -0.779459,8.694929 1.824218,12.59375 1.388663,2.079424 3.3479,3.706142 5.625,4.408204 2.2771,0.702062 4.635518,0.455868 6.730469,-0.261719 2.682203,-0.918741 5.140962,-2.535536 7.525391,-4.603516 1.715521,1.650829 3.436253,2.875706 4.824218,4.263672 l 5.658204,-5.65625 c -1.872571,-1.872574 -3.64481,-3.222992 -4.855469,-4.320313 4.26368,-4.901918 8.345192,-10.888481 11.912112,-16.910156 4.36566,0.360083 6.9665,1.669783 8.34961,3.03711 1.45045,1.433911 1.82979,2.973774 1.66015,4.439453 -0.80826,4.551803 -2.04548,6.276276 -4.06445,7.863281 -2.03952,1.60315 -5.3894,2.946503 -9.77344,5.134766 l 3.57617,7.162109 c 3.98777,-1.990467 7.72616,-3.316915 11.14453,-6.003906 3.41837,-2.686991 5.99679,-6.890929 7.03711,-12.890625 a 4.0033715,4.0033715 0 0 0 0.0273,-0.175782 c 0.49344,-3.845843 -0.79545,-8.075893 -3.97852,-11.222656 -2.36621,-2.339229 -5.67117,-4.024688 -9.81445,-4.867187 0.45444,-0.884795 0.98327,-1.805266 1.40234,-2.667969 l -7.20117,-3.498047 c -0.89142,1.835076 -1.94649,3.779494 -3.01953,5.722656 -3.190872,0.08336 -6.283627,0.423104 -9.232421,0.986329 V 46.000094 H 116 v -8 H 92.054689 v -8 z M 96.31836,62.324313 c -1.382027,2.134038 -2.815047,4.208508 -4.263671,6.167969 V 63.140719 C 93.43257,62.815186 94.85058,62.532267 96.31836,62.324313 Z M 84.054689,65.896578 V 73.879 c -0.113269,1.254959 -0.02621,2.459757 0.210937,3.589844 -2.369436,2.176941 -4.542198,3.631008 -5.984375,4.125 -0.946824,0.324317 -1.45129,0.286074 -1.777344,0.185547 -0.326054,-0.100527 -0.70968,-0.284851 -1.324218,-1.205078 -1.402725,-2.10048 -1.519769,-3.696361 -0.878907,-5.642578 0.640863,-1.946218 2.354673,-4.236382 5.142578,-6.320313 1.31622,-0.983861 2.879918,-1.892773 4.611329,-2.714844 z" />
</svg>
