<?xml version="1.0" encoding="UTF-8" standalone="no"?>
<svg
   xmlns:dc="http://purl.org/dc/elements/1.1/"
   xmlns:cc="http://creativecommons.org/ns#"
   xmlns:rdf="http://www.w3.org/1999/02/22-rdf-syntax-ns#"
   xmlns:svg="http://www.w3.org/2000/svg"
   xmlns="http://www.w3.org/2000/svg"
   xmlns:sodipodi="http://sodipodi.sourceforge.net/DTD/sodipodi-0.dtd"
   xmlns:inkscape="http://www.inkscape.org/namespaces/inkscape"
   width="192"
   height="192"
   version="1"
   id="svg12"
   sodipodi:docname="miui_weather.svg"
   inkscape:version="0.92.3 (2405546, 2018-03-11)">
  <metadata
     id="metadata18">
    <rdf:RDF>
      <cc:Work
         rdf:about="">
        <dc:format>image/svg+xml</dc:format>
        <dc:type
           rdf:resource="http://purl.org/dc/dcmitype/StillImage" />
        <dc:title></dc:title>
      </cc:Work>
    </rdf:RDF>
  </metadata>
  <defs
     id="defs16">
    <filter
       inkscape:collect="always"
       style="color-interpolation-filters:sRGB"
       id="filter860"
       x="-0.048"
       width="1.096"
       y="-0.048"
       height="1.096">
      <feGaussianBlur
         inkscape:collect="always"
         stdDeviation="3.2"
         id="feGaussianBlur862" />
    </filter>
    <filter
       inkscape:collect="always"
       style="color-interpolation-filters:sRGB"
       id="filter887"
       x="-0.048"
       width="1.096"
       y="-0.048"
       height="1.096">
      <feGaussianBlur
         inkscape:collect="always"
         stdDeviation="2.24"
         id="feGaussianBlur889" />
    </filter>
    <filter
       inkscape:collect="always"
       style="color-interpolation-filters:sRGB"
       id="filter903"
       x="-0.048"
       width="1.096"
       y="-0.048"
       height="1.096">
      <feGaussianBlur
         inkscape:collect="always"
         stdDeviation="1.28"
         id="feGaussianBlur905" />
    </filter>
    <filter
       inkscape:collect="always"
       style="color-interpolation-filters:sRGB"
       id="filter871"
       x="-0.039000001"
       width="1.0779999"
       y="-0.062399998"
       height="1.1248">
      <feGaussianBlur
         inkscape:collect="always"
         stdDeviation="2.08"
         id="feGaussianBlur873" />
    </filter>
  </defs>
  <sodipodi:namedview
     pagecolor="#ffffff"
     bordercolor="#666666"
     borderopacity="1"
     objecttolerance="10"
     gridtolerance="10"
     guidetolerance="10"
     inkscape:pageopacity="0"
     inkscape:pageshadow="2"
     inkscape:window-width="1920"
     inkscape:window-height="1018"
     id="namedview14"
     showgrid="false"
     inkscape:zoom="1"
     inkscape:cx="-254.24915"
     inkscape:cy="80.737589"
     inkscape:window-x="0"
     inkscape:window-y="32"
     inkscape:window-maximized="1"
     inkscape:current-layer="svg12" />
  <rect
     style="opacity:0.2;stroke-width:4;filter:url(#filter860)"
     width="160"
     height="160"
     x="16"
     y="20"
     rx="48"
     ry="48"
     id="rect2" />
  <rect
     style="fill:#4767dc;fill-opacity:1;stroke-width:4"
     width="160"
     height="160"
     x="16"
     y="16"
     rx="48"
     ry="48"
     id="rect4" />
  <path
     inkscape:connector-curvature="0"
     style="opacity:0.2;fill:#ffffff;stroke-width:4"
     d="M 64,16 C 37.408,16 16,37.408 16,64 v 1 C 16,38.408 37.408,17 64,17 h 64 c 26.592,0 48,21.408 48,48 V 64 C 176,37.408 154.592,16 128,16 Z"
     id="path10" />
  <path
     inkscape:connector-curvature="0"
     id="path6"
     d="m 124,22.000003 -16,16 H 84 v 24 l -16,16 16,16 V 118 h 24 l 16,16 16,-16 h 24 V 94.000003 l 16,-16 -16,-16 v -24 h -24 z"
     style="opacity:0.2;stroke-width:4;filter:url(#filter887)" />
  <path
     inkscape:connector-curvature="0"
     id="path8"
     d="m 124,20.000003 -16,16 H 84 v 24 l -16,16 16,16 V 116 h 24 l 16,16 16,-16 h 24 V 92.000003 l 16,-16 -16,-16 v -24 h -24 z"
     style="fill:#ff8a47;stroke-width:4" />
  <circle
     id="circle10"
     r="32"
     cy="78"
     cx="124"
     style="opacity:0.2;stroke-width:4;filter:url(#filter903)" />
  <circle
     id="circle12"
     r="32"
     cy="76"
     cx="124"
     style="fill:#ffcc42;stroke-width:4" />
  <path
     style="opacity:0.2;fill:#ffffff;stroke-width:4"
     d="m 124,20.000003 -16,16 H 84 v 1 h 24 l 16,-16 16,16 h 24 v -1 h -24 z m -40,40 -16,16 0.5,0.5 15.5,-15.5 z m 80,0 v 1 l 15.5,15.5 0.5,-0.5 z"
     id="path14"
     inkscape:connector-curvature="0" />
  <path
     style="opacity:0.2;fill:#ffffff;stroke-width:4"
     d="m 124,44.000003 a 32,32 0 0 0 -32,32 32,32 0 0 0 0.01953,0.464844 A 32,32 0 0 1 124,45.000003 32,32 0 0 1 155.97461,76.513675 32,32 0 0 0 156,76.000003 a 32,32 0 0 0 -32,-32 z"
     id="path16"
     inkscape:connector-curvature="0" />
  <circle
     id="circle18"
     r="32"
     cy="132"
     cx="92"
     style="opacity:0.2;stroke-width:4" />
  <path
     inkscape:connector-curvature="0"
     id="path20"
     d="m 92,100 a 32,32 0 0 0 -32,32 32,32 0 0 0 0.04688,1.42188 A 24,24 0 0 0 52,132 24,24 0 0 0 28,156 24,24 0 0 0 52,180 h 80 a 24,24 0 0 0 24,-24 24,24 0 0 0 -24,-24 24,24 0 0 0 -8.07031,1.42188 A 32,32 0 0 0 124,132 32,32 0 0 0 92,100 Z"
     style="opacity:0.2;stroke-width:4;filter:url(#filter871)" />
  <circle
     id="circle22"
     r="24"
     cy="152"
     cx="52"
     style="fill:#ffffff;stroke-width:4" />
  <circle
     id="circle24"
     r="32"
     cy="128"
     cx="92"
     style="fill:#ffffff;stroke-width:4" />
  <circle
     id="circle26"
     r="24"
     cy="152"
     cx="132"
     style="fill:#ffffff;stroke-width:4" />
  <rect
     id="rect28"
     y="144"
     x="52"
     height="32"
     width="80"
     style="fill:#ffffff;stroke-width:4" />
</svg>
