<svg xmlns="http://www.w3.org/2000/svg" width="192" height="192" version="1">
 <g transform="scale(4)">
  <path style="opacity:0.2" d="m 4,41.551 v 1 c 0,1.08 0.869,1.949 1.9492,1.949 h 35.102 c 1.08,0 1.949,-0.869 1.949,-1.949 v -1 c 0,1.08 -0.869,1.949 -1.949,1.949 H 5.9492 c -1.08,0 -1.949,-0.869 -1.949,-1.949 z"/>
  <path style="fill:#9b26af" d="M 30,31 V 44 H 41.05 C 42.13,44 43,43.13 43,42.05 V 31 Z"/>
  <rect style="fill:#f34235" width="13" height="13" x="17" y="31"/>
  <path style="fill:#fe9700" d="M 4,31 V 42.05 C 4,43.13 4.8697,44 5.9499,44 h 11.05 V 31 h -13 z"/>
  <path style="opacity:0.2" d="m 4,31 v 0.5 H 17 30 43 V 31 H 30 17 Z"/>
  <rect style="fill:#feac33" width="13" height="13" x="4" y="18"/>
  <rect style="fill:#f5685d" width="13" height="13" x="17" y="18"/>
  <rect style="fill:#af51bf" width="13" height="13" x="30" y="18"/>
  <path style="fill:#c37dcf" d="M 30,5 V 18 H 43 V 6.95 C 43,5.8697 42.13,5 41.05,5 Z"/>
  <rect style="fill:#f88e86" width="13" height="13" x="17" y="5"/>
  <path style="fill:#fec166" d="M 5.9499,5 C 4.8697,5 4,5.8697 4,6.9499 v 11.05 h 13 v -13 H 5.95 Z"/>
  <path style="opacity:0.2;fill:#ffffff" d="M 5.9492188,5 C 4.8690187,5 4,5.8690187 4,6.9492188 v 0.5 C 4,6.3690187 4.8690187,5.5 5.9492188,5.5 H 41.050781 C 42.130781,5.5 43,6.3690188 43,7.4492188 v -0.5 C 43,5.8690187 42.130781,5 41.050781,5 Z"/>
  <path style="opacity:0.2" d="m 4,18 v 0.5 H 17 30 43 V 18 H 30 17 Z"/>
 </g>
</svg>
