<?xml version="1.0" encoding="UTF-8" standalone="no"?>
<svg
   xmlns:dc="http://purl.org/dc/elements/1.1/"
   xmlns:cc="http://creativecommons.org/ns#"
   xmlns:rdf="http://www.w3.org/1999/02/22-rdf-syntax-ns#"
   xmlns:svg="http://www.w3.org/2000/svg"
   xmlns="http://www.w3.org/2000/svg"
   xmlns:sodipodi="http://sodipodi.sourceforge.net/DTD/sodipodi-0.dtd"
   xmlns:inkscape="http://www.inkscape.org/namespaces/inkscape"
   width="48"
   height="48"
   version="1"
   id="svg20"
   sodipodi:docname="system_alarm.svg"
   inkscape:version="0.92.2 (unknown)">
  <metadata
     id="metadata26">
    <rdf:RDF>
      <cc:Work
         rdf:about="">
        <dc:format>image/svg+xml</dc:format>
        <dc:type
           rdf:resource="http://purl.org/dc/dcmitype/StillImage" />
      </cc:Work>
    </rdf:RDF>
  </metadata>
  <defs
     id="defs24" />
  <sodipodi:namedview
     pagecolor="#ffffff"
     bordercolor="#666666"
     borderopacity="1"
     objecttolerance="10"
     gridtolerance="10"
     guidetolerance="10"
     inkscape:pageopacity="0"
     inkscape:pageshadow="2"
     inkscape:window-width="1920"
     inkscape:window-height="1016"
     id="namedview22"
     showgrid="false"
     inkscape:zoom="10.57"
     inkscape:cx="24"
     inkscape:cy="24"
     inkscape:window-x="0"
     inkscape:window-y="34"
     inkscape:window-maximized="1"
     inkscape:current-layer="svg20" />
  <path
     d="m 19.27,35.279966 c -0.13987,0.87662 -0.60118,1.7945 -1.3672,2.5605 l -4.2422,4.2422 c -1.568,1.567 -3.7749,1.882 -4.9501,0.707 -0.3739,-0.374 -0.5803,-0.858 -0.6601,-1.387 -0.14573,0.91599 0.059816,1.7864 0.66016,2.3867 1.1752,1.1752 3.3823,0.85992 4.9492,-0.70703 l 4.2422,-4.2422 c 1.068,-1.068 1.5378,-2.4272 1.3672,-3.5605 z m 8.7812,0 c -0.17058,1.1334 0.29916,2.4925 1.3672,3.5605 l 4.2422,4.2422 c 1.5669,1.5669 3.774,1.8822 4.9492,0.70703 0.60034,-0.60034 0.80588,-1.4707 0.66016,-2.3867 -0.0798,0.52909 -0.28617,1.0127 -0.66016,1.3867 -1.1752,1.1752 -3.3823,0.85992 -4.9492,-0.70703 l -4.242,-4.242 c -0.766,-0.766 -1.227,-1.684 -1.367,-2.561 z"
     id="path4"
     inkscape:connector-curvature="0"
     style="opacity:0.2" />
  <path
     d="m16.939 32.684c-1.0714-0.0568-2.3 0.43472-3.2793 1.4141l-4.242 4.242c-1.567 1.567-1.8823 3.774-0.7071 4.949s3.3821 0.86 4.9491-0.707l4.2422-4.2422c1.5669-1.5669 1.8822-3.774 0.70703-4.9492-0.4407-0.4407-1.0271-0.67295-1.6699-0.70703zm13.439 0c-0.64283 0.03408-1.2273 0.26633-1.668 0.70703-1.1752 1.1752-0.85992 3.3823 0.70703 4.9492l4.2422 4.2422c1.5669 1.5669 3.774 1.8822 4.9492 0.70703s0.85992-3.3823-0.70703-4.9492l-4.2422-4.2422c-0.97934-0.97934-2.2099-1.4709-3.2812-1.4141z"
     fill="#4f4f4f"
     id="path2" />
  <path
     d="m8 4a7 7 0 0 0-7 7 7 7 0 0 0 7 7 7 7 0 0 0 7-7 7 7 0 0 0-7-7zm32 0a7 7 0 0 0-7 7 7 7 0 0 0 7 7 7 7 0 0 0 7-7 7 7 0 0 0-7-7z"
     fill="#e74c3c"
     style="fill:#c03120"
     id="path6" />
  <path
     d="M 8 4 A 7 7 0 0 0 1 11 A 7 7 0 0 0 1.0097656 11.205078 A 7 7 0 0 1 8 4.5 A 7 7 0 0 1 14.988281 11.269531 A 7 7 0 0 0 15 11 A 7 7 0 0 0 8 4 z M 40 4 A 7 7 0 0 0 33 11 A 7 7 0 0 0 33.009766 11.205078 A 7 7 0 0 1 40 4.5 A 7 7 0 0 1 46.988281 11.269531 A 7 7 0 0 0 47 11 A 7 7 0 0 0 40 4 z "
     id="path8"
     style="fill:#ffffff;opacity:0.1" />
  <path
     d="m 4.0117,23.999966 c -0.0041,0.167 -0.0117,0.332 -0.0117,0.5 0,11.08 8.92,20 20,20 11.08,0 20,-8.92 20,-20 0,-0.16787 -0.0076,-0.33314 -0.01172,-0.5 -0.264,10.846 -9.076,19.5 -19.988,19.5 -10.912,0 -19.724,-8.654 -19.988,-19.5 z"
     id="path18"
     inkscape:connector-curvature="0"
     style="opacity:0.2" />
  <rect
     transform="matrix(0,-1,-1,0,0,0)"
     x="-44"
     y="-44"
     width="40"
     height="40"
     rx="20"
     ry="20"
     fill="#e74c3c"
     id="rect10" />
  <path
     d="M 24 4.0175781 C 12.93 4.0175781 4.0175781 12.9299 4.0175781 24 C 4.0175781 24.16757 4.0135781 24.33344 4.0175781 24.5 C 4.0175781 13.4299 12.93 4.5175781 24 4.5175781 C 35.06869 4.5175781 43.980314 13.428914 43.982422 24.496094 C 43.986344 24.330196 43.982422 24.166913 43.982422 24 C 43.982422 12.931 35.07 4.0175781 24 4.0175781 z "
     id="path12"
     style="fill:#ffffff;opacity:0.2" />
  <rect
     id="rect841"
     style="opacity:0.2;fill:#000000;fill-opacity:1"
     ry="17"
     rx="17"
     height="34"
     width="34"
     y="-41"
     x="-41.499992"
     transform="matrix(0,-1,-1,0,0,0)" />
  <rect
     transform="matrix(0,-1,-1,0,0,0)"
     x="-41"
     y="-41"
     width="34"
     height="34"
     rx="17"
     ry="17"
     style="fill:#f8cac5;opacity:1;fill-opacity:1"
     id="rect14" />
  <path
     d="m24 8c-1.104569 0-2 0.8954305-2 2 0 1.10457 0.895431 2 2 2s2-0.89543 2-2c0-1.1045695-0.895431-2-2-2zm7.972656 8.945312c-0.1289 0.01617-0.257015 0.057704-0.376953 0.126954l-8.310547 4.798828c-1.1337 0.56455-1.563015 2.041884-1.103515 2.896484l3.021484 5.232422c0.55349 0.95867 1.770869 1.284509 2.730469 0.730469 0.95956-0.554 1.285892-1.771769 0.732422-2.730469l-3-5.195312 6.929687-4c0.47978-0.277001 0.642125-0.887578 0.365235-1.367188-0.207668-0.359685-0.601582-0.540695-0.988282-0.492188zm-21.972656 5.054688c-1.1045695 0-2 0.895431-2 2s0.8954305 2 2 2c1.104569 0 2-0.895431 2-2s-0.895431-2-2-2zm28 0c-1.104569 0-2 0.895431-2 2s0.895431 2 2 2 2-0.895431 2-2-0.895431-2-2-2zm-14 14c-1.104569 0-2 0.895431-2 2s0.895431 2 2 2 2-0.895431 2-2-0.895431-2-2-2z"
     style="opacity:.7"
     id="path16" />
  <path
     style="fill:#ffffff;opacity:0.2;fill-opacity:1"
     d="M 24 7 C 14.582 7 7 14.582 7 24 C 7 24.084451 7.0105036 24.165848 7.0117188 24.25 C 7.1460171 14.949541 14.666451 7.5 24 7.5 C 33.333549 7.5 40.853983 14.949541 40.988281 24.25 C 40.989496 24.165848 41 24.084451 41 24 C 41 14.582 33.418 7 24 7 z "
     id="rect843" />
</svg>
