<?xml version="1.0" encoding="UTF-8" standalone="no"?>
<svg
   xmlns:dc="http://purl.org/dc/elements/1.1/"
   xmlns:cc="http://creativecommons.org/ns#"
   xmlns:rdf="http://www.w3.org/1999/02/22-rdf-syntax-ns#"
   xmlns:svg="http://www.w3.org/2000/svg"
   xmlns="http://www.w3.org/2000/svg"
   xmlns:sodipodi="http://sodipodi.sourceforge.net/DTD/sodipodi-0.dtd"
   xmlns:inkscape="http://www.inkscape.org/namespaces/inkscape"
   width="192"
   height="192"
   version="1"
   id="svg26"
   sodipodi:docname="system_file_manager.svg"
   inkscape:version="0.92.5 (2060ec1f9f, 2020-04-08)">
  <metadata
     id="metadata32">
    <rdf:RDF>
      <cc:Work
         rdf:about="">
        <dc:format>image/svg+xml</dc:format>
        <dc:type
           rdf:resource="http://purl.org/dc/dcmitype/StillImage" />
        <dc:title></dc:title>
      </cc:Work>
    </rdf:RDF>
  </metadata>
  <defs
     id="defs30">
    <filter
       inkscape:collect="always"
       style="color-interpolation-filters:sRGB"
       id="filter881"
       x="-0.0408"
       width="1.0816"
       y="-0.058285714"
       height="1.1165714">
      <feGaussianBlur
         inkscape:collect="always"
         stdDeviation="2.72"
         id="feGaussianBlur883" />
    </filter>
    <filter
       inkscape:collect="always"
       style="color-interpolation-filters:sRGB"
       id="filter1010"
       x="-0.030857143"
       width="1.0617143"
       y="-0.108"
       height="1.216">
      <feGaussianBlur
         inkscape:collect="always"
         stdDeviation="0.72"
         id="feGaussianBlur1012" />
    </filter>
    <filter
       inkscape:collect="always"
       style="color-interpolation-filters:sRGB"
       id="filter1052"
       x="-0.021"
       width="1.042"
       y="-0.028"
       height="1.056">
      <feGaussianBlur
         inkscape:collect="always"
         stdDeviation="1.12"
         id="feGaussianBlur1054" />
    </filter>
    <filter
       inkscape:collect="always"
       style="color-interpolation-filters:sRGB"
       id="filter1068"
       x="-0.02"
       width="1.04"
       y="-0.03"
       height="1.06">
      <feGaussianBlur
         inkscape:collect="always"
         stdDeviation="1.2"
         id="feGaussianBlur1070" />
    </filter>
  </defs>
  <sodipodi:namedview
     pagecolor="#ffffff"
     bordercolor="#666666"
     borderopacity="1"
     objecttolerance="10"
     gridtolerance="10"
     guidetolerance="10"
     inkscape:pageopacity="0"
     inkscape:pageshadow="2"
     inkscape:window-width="1920"
     inkscape:window-height="1018"
     id="namedview28"
     showgrid="true"
     inkscape:zoom="2"
     inkscape:cx="106.54296"
     inkscape:cy="136.28758"
     inkscape:window-x="0"
     inkscape:window-y="30"
     inkscape:window-maximized="1"
     inkscape:current-layer="svg26">
    <inkscape:grid
       type="xygrid"
       id="grid1046" />
  </sodipodi:namedview>
  <rect
     style="fill:#5294e2;stroke-width:4"
     width="112"
     height="96"
     x="40"
     y="16"
     rx="6"
     ry="6"
     id="rect2" />
  <rect
     id="rect901"
     ry="6"
     rx="6"
     y="30"
     x="32"
     height="96"
     width="128"
     style="opacity:0.1;fill:#000000;stroke-width:4;filter:url(#filter1052)" />
  <rect
     style="fill:#89e058;stroke-width:4"
     width="128"
     height="96"
     x="32"
     y="32"
     rx="6"
     ry="6"
     id="rect4" />
  <rect
     id="rect903"
     ry="6"
     rx="6"
     y="46"
     x="24"
     height="96"
     width="144"
     style="opacity:0.1;fill:#000000;stroke-width:4;filter:url(#filter1068)" />
  <rect
     style="fill:#ffcd54;stroke-width:4"
     width="144"
     height="96"
     x="24"
     y="48"
     rx="6"
     ry="6"
     id="rect6" />
  <rect
     style="opacity:0.2;stroke-width:4;filter:url(#filter881)"
     width="160"
     height="112"
     x="16"
     y="68"
     rx="8"
     ry="8"
     id="rect8" />
  <rect
     style="fill:#8e8e8e;stroke-width:4"
     width="160"
     height="112"
     x="16"
     y="64"
     rx="8"
     ry="8"
     id="rect10" />
  <rect
     style="opacity:0.1;stroke-width:4;filter:url(#filter1010)"
     width="56"
     height="16"
     x="68"
     y="110"
     rx="4"
     ry="4"
     id="rect12" />
  <rect
     style="fill:#ececec;stroke-width:4"
     width="56"
     height="16"
     x="68"
     y="108"
     rx="4"
     ry="4"
     id="rect14" />
  <path
     style="opacity:0.1;fill:#ffffff;stroke-width:4"
     d="M 46 16 C 42.676 16 40 18.676 40 22 L 40 23 C 40 19.676 42.676 17 46 17 L 146 17 C 149.324 17 152 19.676 152 23 L 152 22 C 152 18.676 149.324 16 146 16 L 46 16 z "
     id="path16" />
  <path
     style="opacity:0.1;fill:#ffffff;stroke-width:4"
     d="M 38 32 C 34.676 32 32 34.676 32 38 L 32 39 C 32 35.676 34.676 33 38 33 L 154 33 C 157.324 33 160 35.676 160 39 L 160 38 C 160 34.676 157.324 32 154 32 L 38 32 z "
     id="path18" />
  <path
     style="opacity:0.1;fill:#ffffff;stroke-width:4"
     d="M 30 48 C 26.676 48 24 50.676 24 54 L 24 55 C 24 51.676 26.676 49 30 49 L 162 49 C 165.324 49 168 51.676 168 55 L 168 54 C 168 50.676 165.324 48 162 48 L 30 48 z "
     id="path20" />
</svg>
