<svg xmlns="http://www.w3.org/2000/svg" width="192" height="192" version="1">
 <g transform="scale(4)">
  <path style="fill:#0091cf" d="m43 27c0 5.348164-2.099207 10.206031-5.518609 13.794592-3.642774 3.822983-9.698494 0.0062-15.396025 0.0062-5.784925 0-10.081569 3.743114-13.733324-0.183155-3.3208804-3.5705-5.3520418-8.356867-5.3520418-13.617637 0-11.045695 8.954305-20 20-20s20 8.954305 20 20z"/>
  <path style="fill:#ffffff;opacity:0.1" d="M 23 7 A 20 20 0 0 0 3 27 A 20 20 0 0 0 3.0097656 27.246094 A 20 20 0 0 1 23 7.5 A 20 20 0 0 1 42.988281 27.246094 A 20 20 0 0 0 43 27 A 20 20 0 0 0 23 7 z"/>
  <path style="opacity:0.2" d="m 31,5.5 -4,4 h -6 v 6 l -4,4 4,4 v 6 h 6 l 4,4 4,-4 h 6 v -6 l 4,-4 -4,-4 v -6 h -6 z"/>
  <path style="fill:#ff8a47" d="m31 5-4 4h-6v6l-4 4 4 4v6h6l4 4 4-4h6v-6l4-4-4-4v-6h-6z"/>
  <circle style="opacity:0.2" cx="31" cy="19.5" r="8"/>
  <circle style="fill:#ffcc42" cx="31" cy="19" r="8"/>
  <path style="fill:#ffffff;opacity:0.2" d="M 31 5 L 27 9 L 21 9 L 21 9.5 L 27 9.5 L 31 5.5 L 35 9.5 L 41 9.5 L 41 9 L 35 9 L 31 5 z M 21 15 L 17 19 L 17.25 19.25 L 21 15.5 L 21 15 z M 41 15 L 41 15.5 L 44.75 19.25 L 45 19 L 41 15 z"/>
  <path style="fill:#ffffff;opacity:0.2" d="M 31 11 A 8 8 0 0 0 23 19 A 8 8 0 0 0 23.009766 19.240234 A 8 8 0 0 1 31 11.5 A 8 8 0 0 1 38.988281 19.246094 A 8 8 0 0 0 39 19 A 8 8 0 0 0 31 11 z"/>
  <circle style="opacity:0.2" cx="23" cy="33" r="8"/>
  <path style="opacity:0.2" d="m 23,24.5 a 8,8 0 0 0 -8,8 8,8 0 0 0 0.01172,0.355469 A 6,6 0 0 0 13,32.5 a 6,6 0 0 0 -6,6 6,6 0 0 0 6,6 h 20 a 6,6 0 0 0 6,-6 6,6 0 0 0 -6,-6 6,6 0 0 0 -2.017578,0.355469 A 8,8 0 0 0 31,32.5 a 8,8 0 0 0 -8,-8 z"/>
  <circle style="fill:#ffffff" cx="13" cy="38" r="6"/>
  <circle style="fill:#ffffff" cx="23" cy="32" r="8"/>
  <circle style="fill:#ffffff" cx="33" cy="38" r="6"/>
  <rect style="fill:#ffffff" width="20" height="8" x="13" y="36"/>
 </g>
</svg>
