<?xml version="1.0" encoding="UTF-8" standalone="no"?>
<svg
   xmlns:dc="http://purl.org/dc/elements/1.1/"
   xmlns:cc="http://creativecommons.org/ns#"
   xmlns:rdf="http://www.w3.org/1999/02/22-rdf-syntax-ns#"
   xmlns:svg="http://www.w3.org/2000/svg"
   xmlns="http://www.w3.org/2000/svg"
   xmlns:sodipodi="http://sodipodi.sourceforge.net/DTD/sodipodi-0.dtd"
   xmlns:inkscape="http://www.inkscape.org/namespaces/inkscape"
   width="192"
   height="192"
   version="1"
   id="svg30"
   sodipodi:docname="system_todo.svg"
   inkscape:version="1.0.2 (1.0.2+r75+1)">
  <metadata
     id="metadata36">
    <rdf:RDF>
      <cc:Work
         rdf:about="">
        <dc:format>image/svg+xml</dc:format>
        <dc:type
           rdf:resource="http://purl.org/dc/dcmitype/StillImage" />
        <dc:title></dc:title>
      </cc:Work>
    </rdf:RDF>
  </metadata>
  <defs
     id="defs34">
    <filter
       inkscape:collect="always"
       style="color-interpolation-filters:sRGB"
       id="filter895"
       x="-0.05025"
       width="1.1005"
       y="-0.045942857"
       height="1.0918857">
      <feGaussianBlur
         inkscape:collect="always"
         stdDeviation="2.68"
         id="feGaussianBlur897" />
    </filter>
    <filter
       inkscape:collect="always"
       style="color-interpolation-filters:sRGB"
       id="filter901"
       x="-0.051692308"
       width="1.1033846"
       y="-0.0448"
       height="1.0896">
      <feGaussianBlur
         inkscape:collect="always"
         stdDeviation="2.24"
         id="feGaussianBlur903" />
    </filter>
  </defs>
  <sodipodi:namedview
     pagecolor="#ffffff"
     bordercolor="#666666"
     borderopacity="1"
     objecttolerance="10"
     gridtolerance="10"
     guidetolerance="10"
     inkscape:pageopacity="0"
     inkscape:pageshadow="2"
     inkscape:window-width="1920"
     inkscape:window-height="1018"
     id="namedview32"
     showgrid="false"
     inkscape:zoom="1"
     inkscape:cx="24.121059"
     inkscape:cy="105.99101"
     inkscape:window-x="0"
     inkscape:window-y="30"
     inkscape:window-maximized="1"
     inkscape:current-layer="svg30">
    <inkscape:grid
       type="xygrid"
       id="grid899" />
  </sodipodi:namedview>
  <rect
     style="opacity:0.2;stroke-width:4;filter:url(#filter895)"
     width="128"
     height="140"
     x="32"
     y="40"
     rx="12.684"
     ry="12.46"
     id="rect2" />
  <path
     style="fill:#989898;stroke-width:4"
     d="M 96,12 A 16,16 0 0 0 80,28 16,16 0 0 0 96,44 16,16 0 0 0 112,28 16,16 0 0 0 96,12 Z m 0,8 a 8,8 0 0 1 8,8 8,8 0 0 1 -8,8 8,8 0 0 1 -8,-8 8,8 0 0 1 8,-8 z"
     id="path4" />
  <rect
     style="fill:#c48f61;stroke-width:4"
     width="128"
     height="140"
     x="32"
     y="36"
     rx="12.684"
     ry="12.46"
     id="rect6" />
  <path
     id="path8"
     style="opacity:0.1;fill:#ffffff;stroke-width:4"
     d="M 44.6875 36 C 37.659663 36 32 41.558598 32 48.460938 L 32 49.460938 C 32 42.558598 37.659663 37 44.6875 37 L 147.3125 37 C 154.34034 37 160 42.558597 160 49.460938 L 160 48.460938 C 160 41.558598 154.34034 36 147.3125 36 L 44.6875 36 z " />
  <rect
     style="opacity:0.2;stroke-width:21.9089;filter:url(#filter901)"
     width="104"
     height="120"
     x="44"
     y="48"
     id="rect26" />
  <rect
     style="fill:#ffffff;stroke-width:4"
     width="104"
     height="120"
     x="44"
     y="44"
     id="rect10" />
  <path
     style="fill:#989898;stroke-width:4"
     d="M 69.335936,28 C 66.381268,28 64,30.545222 64,33.710938 V 42.289064 48 h 64 V 42.289064 33.710938 C 128,30.545222 125.61873,28 122.66406,28 H 104 a 8,8 0 0 1 -8,8 8,8 0 0 1 -8,-8 z"
     id="path12" />
  <path
     style="fill:none;stroke:#5f5f5f;stroke-width:12;stroke-linecap:round"
     d="m 61.679864,105.99998 8.425412,6.02825 L 82,97.985888"
     id="path14" />
  <path
     style="fill:none;stroke:#c8c8c8;stroke-width:12;stroke-linecap:round"
     d="m 102,69.9994 h 31.6"
     id="path16" />
  <path
     style="fill:none;stroke:#5f5f5f;stroke-width:12;stroke-linecap:round"
     d="m 61.679864,69.99998 8.425408,6.028248 11.894724,-14.04234"
     id="path18" />
  <path
     style="fill:none;stroke:#5f5f5f;stroke-width:12;stroke-linecap:round"
     d="m 61.679864,142.00002 8.425408,6.02821 11.894724,-14.04234"
     id="path20" />
  <path
     style="fill:none;stroke:#c8c8c8;stroke-width:12;stroke-linecap:round"
     d="m 102,105.9994 h 31.6"
     id="path22" />
  <path
     style="fill:none;stroke:#c8c8c8;stroke-width:12;stroke-linecap:round"
     d="m 102,141.9994 h 31.6"
     id="path24" />
  <path
     id="path28"
     style="opacity:0.1;fill:#ffffff;stroke-width:4"
     d="M 96 12 A 16 16 0 0 0 80 28 L 69.335938 28 C 66.38127 28 64 30.545222 64 33.710938 L 64 34.710938 C 64 31.545222 66.38127 29 69.335938 29 L 80 29 A 16 16 0 0 1 96 13 A 16 16 0 0 1 112 29 L 122.66406 29 C 125.61873 29 128 31.545222 128 34.710938 L 128 33.710938 C 128 30.545222 125.61873 28 122.66406 28 L 112 28 A 16 16 0 0 0 96 12 z M 103.74219 29.984375 A 8 8 0 0 1 96 36 A 8 8 0 0 1 88.257812 30.015625 A 8 8 0 0 0 88 32 A 8 8 0 0 0 88.017578 32.519531 A 8 8 0 0 1 88.257812 31.015625 A 8 8 0 0 0 96 37 A 8 8 0 0 0 103.74219 30.984375 A 8 8 0 0 1 103.98438 32.494141 A 8 8 0 0 0 104 32 A 8 8 0 0 0 103.74219 29.984375 z " />
</svg>
