<?xml version="1.0" encoding="UTF-8" standalone="no"?>
<svg
   xmlns:dc="http://purl.org/dc/elements/1.1/"
   xmlns:cc="http://creativecommons.org/ns#"
   xmlns:rdf="http://www.w3.org/1999/02/22-rdf-syntax-ns#"
   xmlns:svg="http://www.w3.org/2000/svg"
   xmlns="http://www.w3.org/2000/svg"
   xmlns:sodipodi="http://sodipodi.sourceforge.net/DTD/sodipodi-0.dtd"
   xmlns:inkscape="http://www.inkscape.org/namespaces/inkscape"
   width="48"
   height="48"
   version="1"
   id="svg12"
   sodipodi:docname="system_bluetooth.svg"
   inkscape:version="0.92.2 (unknown)">
  <metadata
     id="metadata18">
    <rdf:RDF>
      <cc:Work
         rdf:about="">
        <dc:format>image/svg+xml</dc:format>
        <dc:type
           rdf:resource="http://purl.org/dc/dcmitype/StillImage" />
      </cc:Work>
    </rdf:RDF>
  </metadata>
  <defs
     id="defs16" />
  <sodipodi:namedview
     pagecolor="#ffffff"
     bordercolor="#666666"
     borderopacity="1"
     objecttolerance="10"
     gridtolerance="10"
     guidetolerance="10"
     inkscape:pageopacity="0"
     inkscape:pageshadow="2"
     inkscape:window-width="1920"
     inkscape:window-height="1016"
     id="namedview14"
     showgrid="false"
     inkscape:zoom="9.8603159"
     inkscape:cx="24"
     inkscape:cy="24"
     inkscape:window-x="0"
     inkscape:window-y="34"
     inkscape:window-maximized="1"
     inkscape:current-layer="svg12" />
  <path
     d="m 10,29.5 v 1 c 0,7.756 6.244,14 14,14 7.756,0 14,-6.244 14,-14 v -1 c 0,7.756 -6.244,14 -14,14 -7.756,0 -14,-6.244 -14,-14 z"
     id="path10"
     inkscape:connector-curvature="0"
     style="opacity:0.2" />
  <rect
     transform="matrix(0,-1,-1,0,0,0)"
     x="-44"
     y="-38"
     width="40"
     height="28"
     rx="14"
     ry="14"
     fill="#324090"
     id="rect2" />
  <path
     d="m 17,18.499786 14,13 -7,7 v -27 l 7,7 -14,13"
     id="path4"
     inkscape:connector-curvature="0"
     style="opacity:0.2;fill:none;stroke:#000000;stroke-width:2;stroke-linecap:square" />
  <path
     d="m17 18 14 13-7 7v-27l7 7-14 13"
     fill="none"
     stroke="#fff"
     stroke-linecap="square"
     stroke-width="2"
     id="path6" />
  <path
     d="M 24 4 C 16.244 4 10 10.244 10 18 L 10 18.5 C 10 10.744 16.244 4.5 24 4.5 C 31.756 4.5 38 10.744 38 18.5 L 38 18 C 38 10.244 31.756 4 24 4 z "
     id="path8"
     style="fill:#ffffff;opacity:0.1" />
</svg>
