<svg xmlns="http://www.w3.org/2000/svg" width="48" height="48" version="1">
 <g>
  <rect style="fill:#5294e2" width="36" height="24" x="6" y="4" rx="1.5" ry="1.5"/>
  <rect style="opacity:0.1" width="36" height="24" x="6" y="7.5" rx="1.5" ry="1.5"/>
  <rect style="fill:#89e058" width="36" height="24" x="6" y="8" rx="1.5" ry="1.5"/>
  <rect style="opacity:0.1" width="36" height="24" x="6" y="11.5" rx="1.5" ry="1.5"/>
  <rect style="fill:#ffcd54" width="36" height="24" x="6" y="12" rx="1.5" ry="1.5"/>
  <rect style="opacity:0.2" width="40" height="28" x="4" y="16.5" rx="2" ry="2"/>
  <rect style="fill:#8e8e8e" width="40" height="28" x="4" y="16" rx="2" ry="2"/>
  <rect style="opacity:0.2" width="14" height="4" x="17" y="27.5" rx="1" ry="1"/>
  <rect style="fill:#ececec" width="14" height="4" x="17" y="27" rx="1" ry="1"/>
  <path style="fill:#ffffff;opacity:0.1" d="M 7.5 4 C 6.669 4 6 4.669 6 5.5 L 6 6 C 6 5.169 6.669 4.5 7.5 4.5 L 40.5 4.5 C 41.331 4.5 42 5.169 42 6 L 42 5.5 C 42 4.669 41.331 4 40.5 4 L 7.5 4 z"/>
  <path style="fill:#ffffff;opacity:0.1" d="M 7.5 8 C 6.669 8 6 8.669 6 9.5 L 6 10 C 6 9.169 6.669 8.5 7.5 8.5 L 40.5 8.5 C 41.331 8.5 42 9.169 42 10 L 42 9.5 C 42 8.669 41.331 8 40.5 8 L 7.5 8 z"/>
  <path style="fill:#ffffff;opacity:0.1" d="M 7.5 12 C 6.669 12 6 12.669 6 13.5 L 6 14 C 6 13.169 6.669 12.5 7.5 12.5 L 40.5 12.5 C 41.331 12.5 42 13.169 42 14 L 42 13.5 C 42 12.669 41.331 12 40.5 12 L 7.5 12 z"/>
 </g>
</svg>
