<?xml version="1.0" encoding="UTF-8" standalone="no"?>
<svg
   xmlns:dc="http://purl.org/dc/elements/1.1/"
   xmlns:cc="http://creativecommons.org/ns#"
   xmlns:rdf="http://www.w3.org/1999/02/22-rdf-syntax-ns#"
   xmlns:svg="http://www.w3.org/2000/svg"
   xmlns="http://www.w3.org/2000/svg"
   xmlns:sodipodi="http://sodipodi.sourceforge.net/DTD/sodipodi-0.dtd"
   xmlns:inkscape="http://www.inkscape.org/namespaces/inkscape"
   width="48"
   height="48"
   version="1"
   id="svg12"
   sodipodi:docname="system_sim.svg"
   inkscape:version="0.92.2 (unknown)">
  <metadata
     id="metadata18">
    <rdf:RDF>
      <cc:Work
         rdf:about="">
        <dc:format>image/svg+xml</dc:format>
        <dc:type
           rdf:resource="http://purl.org/dc/dcmitype/StillImage" />
      </cc:Work>
    </rdf:RDF>
  </metadata>
  <defs
     id="defs16" />
  <sodipodi:namedview
     pagecolor="#ffffff"
     bordercolor="#666666"
     borderopacity="1"
     objecttolerance="10"
     gridtolerance="10"
     guidetolerance="10"
     inkscape:pageopacity="0"
     inkscape:pageshadow="2"
     inkscape:window-width="1920"
     inkscape:window-height="1016"
     id="namedview14"
     showgrid="false"
     inkscape:zoom="9.8603159"
     inkscape:cx="24"
     inkscape:cy="24"
     inkscape:window-x="0"
     inkscape:window-y="34"
     inkscape:window-maximized="1"
     inkscape:current-layer="svg12" />
  <path
     d="m 34,4.5 6,6 v 32 c 0,1.108 -0.892,2 -2,2 H 10 c -1.108,0 -2,-0.892 -2,-2 v -36 c 0,-1.108 0.892,-2 2,-2 z"
     style="opacity:0.2"
     id="path2"
     inkscape:connector-curvature="0" />
  <path
     d="m34 4 6 6v32c0 1.108-0.892 2-2 2h-28c-1.108 0-2-0.892-2-2v-36c0-1.108 0.892-2 2-2h24z"
     style="fill:#e4e4e4"
     id="path4" />
  <path
     style="fill:#ffffff;opacity:.2"
     d="M 10 4 C 8.892 4 8 4.892 8 6 L 8 6.5 C 8 5.392 8.892 4.5 10 4.5 L 34 4.5 L 40 10.5 L 40 10 L 34 4 L 10 4 z "
     id="path6" />
  <rect
     x="12"
     y="16"
     width="24"
     height="24"
     rx="2"
     ry="2"
     style="fill:#fca800"
     id="rect8" />
  <path
     d="m17 16v11h19v-1h-4v-10h-1v10h-4v-10h-1v10h-4v-10h-1v10h-3v-10h-1zm-5 17v1h9v6h1v-6h4v6h1v-6h4v6h1v-6h4v-1h-24z"
     style="block-progression:tb;color-rendering:auto;color:#000000;fill-rule:evenodd;fill:#000000;image-rendering:auto;isolation:auto;mix-blend-mode:normal;opacity:.4;shape-rendering:auto;solid-color:#000000;text-decoration-color:#000000;text-decoration-line:none;text-decoration-style:solid;text-indent:0;text-transform:none;white-space:normal"
     id="path10" />
</svg>
