<?xml version="1.0" encoding="UTF-8" standalone="no"?>
<svg
   xmlns:dc="http://purl.org/dc/elements/1.1/"
   xmlns:cc="http://creativecommons.org/ns#"
   xmlns:rdf="http://www.w3.org/1999/02/22-rdf-syntax-ns#"
   xmlns:svg="http://www.w3.org/2000/svg"
   xmlns="http://www.w3.org/2000/svg"
   xmlns:sodipodi="http://sodipodi.sourceforge.net/DTD/sodipodi-0.dtd"
   xmlns:inkscape="http://www.inkscape.org/namespaces/inkscape"
   width="48"
   height="48"
   version="1"
   id="svg24"
   sodipodi:docname="system_video.svg"
   inkscape:version="0.92.2 (unknown)">
  <metadata
     id="metadata30">
    <rdf:RDF>
      <cc:Work
         rdf:about="">
        <dc:format>image/svg+xml</dc:format>
        <dc:type
           rdf:resource="http://purl.org/dc/dcmitype/StillImage" />
      </cc:Work>
    </rdf:RDF>
  </metadata>
  <defs
     id="defs28" />
  <sodipodi:namedview
     pagecolor="#ffffff"
     bordercolor="#666666"
     borderopacity="1"
     objecttolerance="10"
     gridtolerance="10"
     guidetolerance="10"
     inkscape:pageopacity="0"
     inkscape:pageshadow="2"
     inkscape:window-width="1920"
     inkscape:window-height="1016"
     id="namedview26"
     showgrid="false"
     inkscape:zoom="11.33"
     inkscape:cx="24"
     inkscape:cy="20.46955"
     inkscape:window-x="0"
     inkscape:window-y="34"
     inkscape:window-maximized="1"
     inkscape:current-layer="svg24" />
  <path
     d="m 4,38.5 v 1 c 0,1.662 1.338,3 3,3 h 34 c 1.662,0 3,-1.338 3,-3 v -1 c 0,1.662 -1.338,3 -3,3 H 7 c -1.662,0 -3,-1.338 -3,-3 z"
     id="path22"
     inkscape:connector-curvature="0"
     style="opacity:0.2" />
  <path
     d="m7 6c-1.662 0-3 1.338-3 3v25h40v-25c0-1.662-1.338-3-3-3z"
     fill="#9c27b0"
     id="path2" />
  <path
     style="opacity:0.1;fill:#ffffff"
     d="M 7 6 C 5.338 6 4 7.338 4 9 L 4 9.5 C 4 7.838 5.338 6.5 7 6.5 L 41 6.5 C 42.662 6.5 44 7.838 44 9.5 L 44 9 C 44 7.338 42.662 6 41 6 L 7 6 z "
     id="path4" />
  <path
     d="m4 34v5c0 1.662 1.338 3 3 3h34c1.662 0 3-1.338 3-3v-5z"
     style="fill:#cccccc"
     id="path6" />
  <rect
     x="28"
     y="37"
     width="13"
     height="2"
     rx="1"
     ry=".928"
     fill="#999"
     id="rect8" />
  <rect
     x="7"
     y="37"
     width="21"
     height="2"
     rx="1"
     ry="1"
     fill="#9c27b0"
     id="rect10" />
  <circle
     cx="28"
     cy="38.5"
     r="2"
     id="circle12"
     style="opacity:0.2" />
  <circle
     cx="28"
     cy="38"
     r="2"
     style="fill:#ffffff"
     id="circle14" />
  <rect
     x="4"
     y="34"
     width="40"
     height="0.5"
     style="opacity:0.2;fill:#ffffff;stroke-width:0.70710683"
     id="rect16" />
  <path
     d="m 18.59,13.499995 c -0.54357,-0.01 -0.63707,0.6466 -0.59214,1.1206 0.004,4.4362 -0.007,8.873 0.005,13.309 0.0478,0.5304 0.65436,0.74232 0.99922,0.41339 3.6857,-2.2712 9.0468,-4.5268 12.727,-6.8078 0.40157,-0.31396 0.24777,-1.0451 -0.20045,-1.1971 -3.6858,-2.2622 -9.0332,-4.5368 -12.722,-6.7913 -0.0689,-0.0308 -0.14295,-0.0467 -0.21704,-0.0468 z"
     id="path18"
     inkscape:connector-curvature="0"
     style="opacity:0.2" />
  <path
     d="m18.59 13c-0.54357-0.01-0.63707 0.6466-0.59214 1.1206 4e-3 4.4362-7e-3 8.873 5e-3 13.309 0.0478 0.5304 0.65436 0.74232 0.99922 0.41339 3.6857-2.2712 9.0468-4.5268 12.727-6.8078 0.40157-0.31396 0.24777-1.0451-0.20045-1.1971-3.6858-2.2622-9.0332-4.5368-12.722-6.7913-0.0689-0.0308-0.14295-0.0467-0.21704-0.0468z"
     style="fill:#ffffff"
     id="path20" />
</svg>
