<?xml version="1.0" encoding="UTF-8" standalone="no"?>
<svg
   xmlns:dc="http://purl.org/dc/elements/1.1/"
   xmlns:cc="http://creativecommons.org/ns#"
   xmlns:rdf="http://www.w3.org/1999/02/22-rdf-syntax-ns#"
   xmlns:svg="http://www.w3.org/2000/svg"
   xmlns="http://www.w3.org/2000/svg"
   xmlns:sodipodi="http://sodipodi.sourceforge.net/DTD/sodipodi-0.dtd"
   xmlns:inkscape="http://www.inkscape.org/namespaces/inkscape"
   width="48"
   height="48"
   version="1"
   id="svg14"
   sodipodi:docname="system_preferences.svg"
   inkscape:version="0.92.2 (unknown)">
  <metadata
     id="metadata20">
    <rdf:RDF>
      <cc:Work
         rdf:about="">
        <dc:format>image/svg+xml</dc:format>
        <dc:type
           rdf:resource="http://purl.org/dc/dcmitype/StillImage" />
      </cc:Work>
    </rdf:RDF>
  </metadata>
  <defs
     id="defs18" />
  <sodipodi:namedview
     pagecolor="#ffffff"
     bordercolor="#666666"
     borderopacity="1"
     objecttolerance="10"
     gridtolerance="10"
     guidetolerance="10"
     inkscape:pageopacity="0"
     inkscape:pageshadow="2"
     inkscape:window-width="1920"
     inkscape:window-height="1016"
     id="namedview16"
     showgrid="false"
     inkscape:zoom="12.14"
     inkscape:cx="24"
     inkscape:cy="24"
     inkscape:window-x="0"
     inkscape:window-y="34"
     inkscape:window-maximized="1"
     inkscape:current-layer="svg14" />
  <rect
     x="17"
     y="22.5"
     width="14"
     height="22"
     rx="5.5999999"
     ry="5.5"
     style="opacity:0.2"
     id="rect2" />
  <rect
     x="17"
     y="22"
     width="14"
     height="22"
     rx="5.6"
     ry="5.5"
     style="fill:#4f4f4f"
     id="rect4" />
  <rect
     x="21"
     y="25"
     width="6"
     height="16"
     rx="3"
     ry="2.667"
     style="opacity:.3"
     id="rect6" />
  <path
     d="m 30,4.8671882 v 9.6328128 l -6,5 -6,-5 V 4.8808601 c -4.864353,2.3092652 -7.993067,7.2080799 -8,12.6191409 0,7.731985 6.268015,14 14,14 7.731985,0 14,-6.268015 14,-14 C 37.9973,12.084539 34.868563,7.1779091 30,4.8671882 Z"
     style="opacity:0.2"
     id="path8"
     inkscape:connector-curvature="0" />
  <path
     d="m30 4.3671875v9.6328125l-6 5-6-5v-9.6191406c-4.864353 2.3092652-7.993067 7.2080796-8 12.619141 0 7.731985 6.268015 14 14 14s14-6.268015 14-14c-0.002725-5.415462-3.131437-10.322092-8-12.632812z"
     style="fill:#8e8e8e"
     id="path10" />
  <path
     style="fill:#ffffff;opacity:.1"
     d="M 30 4.3671875 L 30 4.8671875 C 34.780878 7.1362913 37.877427 11.909722 37.990234 17.208984 C 37.995022 17.13965 38 17.070529 38 17 C 37.997275 11.584538 34.868563 6.6779085 30 4.3671875 z M 18 4.3808594 C 13.135647 6.6901246 10.006933 11.588939 10 17 C 10 17.070529 10.004978 17.13965 10.009766 17.208984 C 10.126764 11.914386 13.223426 7.1484532 18 4.8808594 L 18 4.3808594 z M 18 14 L 18 14.5 L 24 19.5 L 30 14.5 L 30 14 L 24 19 L 18 14 z "
     id="path12" />
</svg>
