<?xml version="1.0" encoding="UTF-8" standalone="no"?>
<svg
   width="192"
   height="192"
   version="1"
   id="svg26"
   sodipodi:docname="system_notes.svg"
   inkscape:version="1.1-rc (1:1.1+rc+202105232036+f4db50c7c1)"
   xmlns:inkscape="http://www.inkscape.org/namespaces/inkscape"
   xmlns:sodipodi="http://sodipodi.sourceforge.net/DTD/sodipodi-0.dtd"
   xmlns="http://www.w3.org/2000/svg"
   xmlns:svg="http://www.w3.org/2000/svg">
  <defs
     id="defs30">
    <filter
       inkscape:collect="always"
       style="color-interpolation-filters:sRGB"
       id="filter873"
       x="-0.048000001"
       y="-0.048000001"
       width="1.096"
       height="1.096">
      <feGaussianBlur
         inkscape:collect="always"
         stdDeviation="2.8799829"
         id="feGaussianBlur875" />
    </filter>
    <filter
       inkscape:collect="always"
       style="color-interpolation-filters:sRGB"
       id="filter877"
       x="-0.047999998"
       y="-0.048"
       width="1.096"
       height="1.096">
      <feGaussianBlur
         inkscape:collect="always"
         stdDeviation="2.2399867"
         id="feGaussianBlur879" />
    </filter>
    <filter
       inkscape:collect="always"
       style="color-interpolation-filters:sRGB"
       id="filter899"
       x="-0.086400647"
       y="-0.14399819"
       width="1.1728013"
       height="1.2879964">
      <feGaussianBlur
         inkscape:collect="always"
         stdDeviation="2.8800045"
         id="feGaussianBlur901" />
    </filter>
  </defs>
  <sodipodi:namedview
     id="namedview28"
     pagecolor="#ffffff"
     bordercolor="#666666"
     borderopacity="1.0"
     inkscape:pageshadow="2"
     inkscape:pageopacity="0.0"
     inkscape:pagecheckerboard="0"
     showgrid="false"
     inkscape:zoom="1"
     inkscape:cx="24.5"
     inkscape:cy="115.5"
     inkscape:window-width="1920"
     inkscape:window-height="1019"
     inkscape:window-x="0"
     inkscape:window-y="34"
     inkscape:window-maximized="1"
     inkscape:current-layer="svg26" />
  <rect
     style="opacity:0.2;stroke-width:3.99998;filter:url(#filter873)"
     width="143.99915"
     height="143.99915"
     x="24.000427"
     y="36.000854"
     rx="11.999928"
     ry="11.999928"
     id="rect2" />
  <rect
     style="fill:#795548;stroke-width:3.99998"
     width="143.99915"
     height="143.99915"
     x="24.000427"
     y="32.000877"
     rx="11.999928"
     ry="11.999928"
     id="rect4" />
  <path
     id="path6"
     style="opacity:0.1;fill:#ffffff;stroke-width:3.99998"
     d="M 36 32 C 29.352039 32 24 37.352039 24 44 L 24 45 C 24 38.352039 29.352039 33 36 33 L 81.1875 33 L 81.1875 32 L 36 32 z M 110.34375 32 L 110.34375 33 L 156 33 C 162.64797 33 168 38.352039 168 45 L 168 44 C 168 37.352039 162.64797 32 156 32 L 110.34375 32 z " />
  <path
     style="opacity:0.2;stroke-width:3.99998;filter:url(#filter877)"
     d="M 40.000332,52.000758 H 151.99967 V 164.00009 H 40.000332 Z"
     id="path8" />
  <path
     style="fill:#ffffff;stroke-width:3.99998"
     d="M 40.000332,48.000782 H 151.99967 V 160.00012 H 40.000332 Z"
     id="path10" />
  <path
     style="opacity:0.2;stroke-width:3.99998;filter:url(#filter899)"
     d="m 95.242192,18.000284 c -3.803221,0.04271 -7.945832,1.244256 -12.437426,5.015595 L 56.000237,43.33607 V 66 H 96 135.99976 V 43.33607 L 109.19523,23.015879 C 104.4042,18.993118 100.00854,17.895482 96,18.008096 c -0.250531,-0.007 -0.504257,-0.01065 -0.757808,-0.0078 z M 96,34.000189 a 7.9999526,7.9999526 0 0 1 7.99995,7.999953 A 7.9999526,7.9999526 0 0 1 96,50.000094 7.9999526,7.9999526 0 0 1 88.000047,42.000142 7.9999526,7.9999526 0 0 1 96,34.000189 Z"
     id="path12" />
  <path
     style="fill:#b5b5b5;stroke-width:3.99998"
     d="m 95.242192,16.000972 c -3.803221,0.04271 -7.945832,1.244256 -12.437426,5.015595 L 56.000237,41.336758 V 64.000687 H 96 135.99976 V 41.336758 L 109.19523,21.016567 C 104.4042,16.993805 100.00854,15.89617 96,16.008784 c -0.250531,-0.007 -0.504257,-0.01065 -0.757808,-0.0078 z M 96,32.000877 A 7.9999526,7.9999526 0 0 1 103.99995,40.00083 7.9999526,7.9999526 0 0 1 96,48.000782 7.9999526,7.9999526 0 0 1 88.000047,40.00083 7.9999526,7.9999526 0 0 1 96,32.000877 Z"
     id="path14" />
  <rect
     style="fill:#b5b5b5;stroke-width:3.99998"
     width="47.999714"
     height="7.9999528"
     x="72.000145"
     y="80.000595"
     id="rect16" />
  <rect
     style="fill:#b5b5b5;stroke-width:3.99998"
     width="47.999714"
     height="7.9999528"
     x="72.000145"
     y="96.000496"
     id="rect18" />
  <rect
     style="fill:#b5b5b5;stroke-width:3.99998"
     width="47.999714"
     height="7.9999528"
     x="72.000145"
     y="112.0004"
     id="rect20" />
  <rect
     style="fill:#b5b5b5;stroke-width:3.99998"
     width="27.999834"
     height="7.9999528"
     x="72.000145"
     y="128.00031"
     id="rect22" />
  <path
     id="path24"
     style="opacity:0.2;fill:#ffffff;stroke-width:3.99998"
     d="M 95.242188 16 C 91.438967 16.04271 87.296282 17.244286 82.804688 21.015625 L 56 41.335938 L 56 42.335938 L 82.804688 22.015625 C 87.296282 18.244286 91.438967 17.04271 95.242188 17 C 95.495739 16.99715 95.749469 17.000812 96 17.007812 C 100.00854 16.895198 104.40428 17.992863 109.19531 22.015625 L 136 42.335938 L 136 41.335938 L 109.19531 21.015625 C 104.40428 16.992863 100.00854 15.895198 96 16.007812 C 95.749469 16.000812 95.495739 15.999103 95.242188 16.001953 L 95.242188 16 z M 88.265625 42 A 7.9999526 7.9999526 0 0 0 88 44 A 7.9999526 7.9999526 0 0 0 88.066406 44.501953 A 7.9999526 7.9999526 0 0 1 88.265625 43 A 7.9999526 7.9999526 0 0 0 96 49 A 7.9999526 7.9999526 0 0 0 103.73438 43 A 7.9999526 7.9999526 0 0 1 103.93359 44.501953 A 7.9999526 7.9999526 0 0 0 104 44 A 7.9999526 7.9999526 0 0 0 103.73438 42 A 7.9999526 7.9999526 0 0 1 96 48 A 7.9999526 7.9999526 0 0 1 88.265625 42 z " />
</svg>
