<?xml version="1.0" encoding="UTF-8" standalone="no"?>
<svg
   xmlns:dc="http://purl.org/dc/elements/1.1/"
   xmlns:cc="http://creativecommons.org/ns#"
   xmlns:rdf="http://www.w3.org/1999/02/22-rdf-syntax-ns#"
   xmlns:svg="http://www.w3.org/2000/svg"
   xmlns="http://www.w3.org/2000/svg"
   xmlns:sodipodi="http://sodipodi.sourceforge.net/DTD/sodipodi-0.dtd"
   xmlns:inkscape="http://www.inkscape.org/namespaces/inkscape"
   width="48"
   height="48"
   version="1"
   id="svg30"
   sodipodi:docname="system_flashlight.svg"
   inkscape:version="0.92.2 (unknown)">
  <metadata
     id="metadata36">
    <rdf:RDF>
      <cc:Work
         rdf:about="">
        <dc:format>image/svg+xml</dc:format>
        <dc:type
           rdf:resource="http://purl.org/dc/dcmitype/StillImage" />
      </cc:Work>
    </rdf:RDF>
  </metadata>
  <defs
     id="defs34" />
  <sodipodi:namedview
     pagecolor="#ffffff"
     bordercolor="#666666"
     borderopacity="1"
     objecttolerance="10"
     gridtolerance="10"
     guidetolerance="10"
     inkscape:pageopacity="0"
     inkscape:pageshadow="2"
     inkscape:window-width="1920"
     inkscape:window-height="1016"
     id="namedview32"
     showgrid="false"
     inkscape:zoom="14.94"
     inkscape:cx="24"
     inkscape:cy="21.322624"
     inkscape:window-x="0"
     inkscape:window-y="34"
     inkscape:window-maximized="1"
     inkscape:current-layer="svg30" />
  <path
     id="path843"
     style="opacity:0.2;fill:#000000;fill-rule:evenodd"
     d="m 18,32.5 v 11 c 0,0.554 0.446,1 1,1 h 10 c 0.554,0 1,-0.446 1,-1 v -11 z"
     inkscape:connector-curvature="0" />
  <path
     d="M 13.666016,14.5 16,19.5 h 17 l 2,-5 z"
     style="opacity:0.2;fill:#000000;fill-rule:evenodd"
     id="path2"
     inkscape:connector-curvature="0" />
  <path
     d="m18 32v11c0 0.554 0.446 1 1 1h10c0.554 0 1-0.446 1-1v-11z"
     style="fill-rule:evenodd;fill:#4f4f4f"
     id="path4" />
  <path
     d="M 15.444444,21.5 C 14.090222,21.5 13,22.392 13,23.5 v 4 c 0,3.318165 4.139804,2.518588 5,5 h 12 c 0.837964,-2.768348 5,-2.489526 5,-5 v -4 c 0,-1.108 -1.090222,-2 -2.444444,-2 z"
     style="opacity:0.2;fill:#000000;fill-rule:evenodd"
     id="path6"
     inkscape:connector-curvature="0" />
  <path
     d="m15.444444 21c-1.354222 0-2.444444 0.892-2.444444 2v4c0 3.318165 4.139804 2.518588 5 5h12c0.837964-2.768348 5-2.489526 5-5v-4c0-1.108-1.090222-2-2.444444-2z"
     style="fill-rule:evenodd;fill:#8e8e8e"
     id="path8" />
  <rect
     x="22"
     y="34"
     width="4"
     height="8"
     rx="2"
     ry="2"
     style="fill-rule:evenodd;fill:#000000;opacity:.3"
     id="rect10" />
  <circle
     cx="24"
     cy="36.5"
     r="2"
     style="opacity:0.2;fill:#000000;fill-rule:evenodd"
     id="circle12" />
  <circle
     cx="24"
     cy="36"
     r="2"
     style="fill-rule:evenodd;fill:#f9f9f9"
     id="circle14" />
  <path
     d="m13.666016 14 2.333984 5h17l2-5h-21.333984z"
     style="fill-rule:evenodd;fill:#f29100"
     id="path16" />
  <path
     d="m 11.333984,9.5 2.332032,5 H 35 l 2,-5 z"
     style="opacity:0.2;fill:#000000;fill-rule:evenodd"
     id="path18"
     inkscape:connector-curvature="0" />
  <path
     d="m11.333984 9 2.332032 5h21.333984l2-5h-25.666016z"
     style="fill-rule:evenodd;fill:#ffba0b"
     id="path20" />
  <path
     d="m 9,4.5 2.333984,5 H 37 l 2,-5 z"
     style="opacity:0.2;fill:#000000;fill-rule:evenodd"
     id="path22"
     inkscape:connector-curvature="0" />
  <path
     d="M 9,4 11.333984,9 37,9 39,4 9,4 Z"
     style="fill-rule:evenodd;fill:#ffdc48"
     id="path24" />
  <path
     style="fill-rule:evenodd;fill:#ffffff;opacity:.2"
     d="M 9 4 L 9.234375 4.5 L 38.800781 4.5 L 39 4 L 9 4 z "
     id="path26" />
  <path
     style="fill-rule:evenodd;fill:#ffffff;opacity:.1"
     d="M 15.445312 21 C 14.09109 21 13 21.892 13 23 L 13 23.5 C 13 22.392 14.09109 21.5 15.445312 21.5 L 32.554688 21.5 C 33.908909 21.5 35 22.392 35 23.5 L 35 23 C 35 21.892 33.908909 21 32.554688 21 L 15.445312 21 z "
     id="path28" />
</svg>
