<?xml version="1.0" encoding="UTF-8" standalone="no"?>
<svg
   xmlns:dc="http://purl.org/dc/elements/1.1/"
   xmlns:cc="http://creativecommons.org/ns#"
   xmlns:rdf="http://www.w3.org/1999/02/22-rdf-syntax-ns#"
   xmlns:svg="http://www.w3.org/2000/svg"
   xmlns="http://www.w3.org/2000/svg"
   xmlns:sodipodi="http://sodipodi.sourceforge.net/DTD/sodipodi-0.dtd"
   xmlns:inkscape="http://www.inkscape.org/namespaces/inkscape"
   width="192"
   height="192"
   version="1"
   id="svg12"
   sodipodi:docname="yandex_taxi.svg"
   inkscape:version="1.0.2 (1.0.2+r75+1)">
  <metadata
     id="metadata18">
    <rdf:RDF>
      <cc:Work
         rdf:about="">
        <dc:format>image/svg+xml</dc:format>
        <dc:type
           rdf:resource="http://purl.org/dc/dcmitype/StillImage" />
        <dc:title></dc:title>
      </cc:Work>
    </rdf:RDF>
  </metadata>
  <defs
     id="defs16">
    <filter
       inkscape:collect="always"
       style="color-interpolation-filters:sRGB"
       id="filter860"
       x="-0.048"
       width="1.096"
       y="-0.048"
       height="1.096">
      <feGaussianBlur
         inkscape:collect="always"
         stdDeviation="3.2"
         id="feGaussianBlur862" />
    </filter>
    <filter
       inkscape:collect="always"
       style="color-interpolation-filters:sRGB"
       id="filter868"
       x="-0.036"
       width="1.072"
       y="-0.072"
       height="1.144">
      <feGaussianBlur
         inkscape:collect="always"
         stdDeviation="2.4"
         id="feGaussianBlur870" />
    </filter>
  </defs>
  <sodipodi:namedview
     pagecolor="#ffffff"
     bordercolor="#666666"
     borderopacity="1"
     objecttolerance="10"
     gridtolerance="10"
     guidetolerance="10"
     inkscape:pageopacity="0"
     inkscape:pageshadow="2"
     inkscape:window-width="1920"
     inkscape:window-height="1018"
     id="namedview14"
     showgrid="false"
     inkscape:zoom="2.16"
     inkscape:cx="111.48471"
     inkscape:cy="77.32918"
     inkscape:window-x="0"
     inkscape:window-y="30"
     inkscape:window-maximized="1"
     inkscape:current-layer="svg12"
     showguides="false"
     inkscape:document-rotation="0">
    <inkscape:grid
       type="xygrid"
       id="grid852" />
  </sodipodi:namedview>
  <rect
     style="opacity:0.2;stroke-width:4;filter:url(#filter860)"
     width="160"
     height="160"
     x="16"
     y="20"
     rx="8"
     ry="8"
     id="rect2" />
  <path
     id="rect853"
     style="opacity:1;fill:#e4e4e4;stroke-width:12.0013;stroke-linecap:round;stroke-linejoin:round;fill-opacity:1"
     d="M 16 96 L 16 168 C 16 172.432 19.568 176 24 176 L 96 176 L 96 96 L 16 96 z " />
  <path
     id="rect855"
     style="opacity:1;fill:#3f3f3f;stroke-width:12.0013;stroke-linecap:round;stroke-linejoin:round;fill-opacity:1"
     d="M 96 96 L 96 176 L 168 176 C 172.432 176 176 172.432 176 168 L 176 96 L 96 96 z " />
  <path
     id="path866"
     style="opacity:0.1;fill:#000000;fill-opacity:1;stroke-width:16.9724;stroke-linecap:round;stroke-linejoin:round;filter:url(#filter868)"
     d="m 24,20 c -4.432,0 -8,3.568 -8,8 v 72 H 176 V 28 c 0,-4.432 -3.568,-8 -8,-8 z" />
  <path
     id="rect857"
     style="opacity:1;fill:#fdbe00;stroke-width:16.9724;stroke-linecap:round;stroke-linejoin:round;fill-opacity:1"
     d="M 24 16 C 19.568 16 16 19.568 16 24 L 16 96 L 176 96 L 176 24 C 176 19.568 172.432 16 168 16 L 24 16 z " />
  <path
     inkscape:connector-curvature="0"
     style="opacity:0.2;fill:#ffffff;stroke-width:4"
     d="m 24,16 c -4.432,0 -8,3.568 -8,8 v 1 c 0,-4.432 3.568,-8 8,-8 h 144 c 4.432,0 8,3.568 8,8 v -1 c 0,-4.432 -3.568,-8 -8,-8 z"
     id="path6" />
</svg>
