<?xml version="1.0" encoding="UTF-8" standalone="no"?>
<svg
   xmlns:dc="http://purl.org/dc/elements/1.1/"
   xmlns:cc="http://creativecommons.org/ns#"
   xmlns:rdf="http://www.w3.org/1999/02/22-rdf-syntax-ns#"
   xmlns:svg="http://www.w3.org/2000/svg"
   xmlns="http://www.w3.org/2000/svg"
   xmlns:sodipodi="http://sodipodi.sourceforge.net/DTD/sodipodi-0.dtd"
   xmlns:inkscape="http://www.inkscape.org/namespaces/inkscape"
   width="192"
   height="192"
   version="1.1"
   id="svg20"
   sodipodi:docname="yandex_pogoda.svg"
   inkscape:version="1.0.2 (1.0.2+r75+1)">
  <metadata
     id="metadata26">
    <rdf:RDF>
      <cc:Work
         rdf:about="">
        <dc:format>image/svg+xml</dc:format>
        <dc:type
           rdf:resource="http://purl.org/dc/dcmitype/StillImage" />
        <dc:title></dc:title>
      </cc:Work>
    </rdf:RDF>
  </metadata>
  <defs
     id="defs24">
    <filter
       inkscape:collect="always"
       style="color-interpolation-filters:sRGB"
       id="filter857"
       x="-0.048"
       width="1.096"
       y="-0.048"
       height="1.096">
      <feGaussianBlur
         inkscape:collect="always"
         stdDeviation="3.2"
         id="feGaussianBlur859" />
    </filter>
    <filter
       inkscape:collect="always"
       style="color-interpolation-filters:sRGB"
       id="filter875"
       x="-0.072"
       width="1.144"
       y="-0.036"
       height="1.072">
      <feGaussianBlur
         inkscape:collect="always"
         stdDeviation="0.84"
         id="feGaussianBlur877" />
    </filter>
    <filter
       inkscape:collect="always"
       style="color-interpolation-filters:sRGB"
       id="filter879"
       x="-0.036"
       width="1.072"
       y="-0.072"
       height="1.144">
      <feGaussianBlur
         inkscape:collect="always"
         stdDeviation="1.35"
         id="feGaussianBlur881" />
    </filter>
  </defs>
  <sodipodi:namedview
     pagecolor="#ffffff"
     bordercolor="#666666"
     borderopacity="1"
     objecttolerance="10"
     gridtolerance="10"
     guidetolerance="10"
     inkscape:pageopacity="0"
     inkscape:pageshadow="2"
     inkscape:window-width="1920"
     inkscape:window-height="1018"
     id="namedview22"
     showgrid="false"
     inkscape:zoom="2.67"
     inkscape:cx="126.78643"
     inkscape:cy="116.6116"
     inkscape:window-x="0"
     inkscape:window-y="30"
     inkscape:window-maximized="1"
     inkscape:current-layer="svg20"
     inkscape:document-rotation="0"
     inkscape:snap-bbox="false"
     inkscape:snap-bbox-midpoints="true">
    <inkscape:grid
       type="xygrid"
       id="grid849" />
  </sodipodi:namedview>
  <circle
     id="circle2"
     r="80"
     cy="100"
     cx="96"
     style="opacity:0.2;stroke-width:4;filter:url(#filter857)" />
  <circle
     id="circle4"
     r="80"
     cy="96"
     cx="96"
     style="fill:#e4e4e4;fill-opacity:1;stroke-width:4" />
  <path
     inkscape:connector-curvature="0"
     style="opacity:0.2;fill:#ffffff;stroke-width:4"
     d="M 96,16 A 80,80 0 0 0 16,96 80,80 0 0 0 16.019531,96.472656 80,80 0 0 1 96,17 80,80 0 0 1 175.97461,96.513672 80,80 0 0 0 176,96 80,80 0 0 0 96,16 Z"
     id="path8" />
  <path
     id="path871"
     style="opacity:0.1;fill:#000000;fill-opacity:1;stroke-width:10.996;stroke-linecap:round;stroke-linejoin:round;filter:url(#filter875)"
     d="m 91,93 v 42 a 14,14 0 0 0 14,14 14,14 0 0 0 14,-14 v -4 h -9 v 4 a 5,5 0 0 1 -5,5 5,5 0 0 1 -5,-5 V 93 Z" />
  <path
     id="path858"
     style="opacity:1;fill:#b0a993;fill-opacity:1;stroke-width:10.996;stroke-linecap:round;stroke-linejoin:round"
     d="m 91,91 v 42 a 14,14 0 0 0 14,14 14,14 0 0 0 14,-14 v -4 h -9 v 4 a 5,5 0 0 1 -5,5 5,5 0 0 1 -5,-5 V 91 Z" />
  <path
     id="path873"
     style="opacity:0.1;fill:#000000;fill-opacity:1;stroke-width:15.4626;stroke-linecap:round;stroke-linejoin:round;filter:url(#filter879)"
     d="M 141,95 H 51 c 0,-24.852814 20.147186,-45 45,-45 24.85281,0 45,20.147186 45,45 z"
     sodipodi:nodetypes="ccsc" />
  <path
     id="path855"
     style="opacity:1;fill:#ff4045;fill-opacity:1;stroke-width:15.4626;stroke-linecap:round;stroke-linejoin:round"
     d="M 141,93 H 51 c 0,-24.852814 20.147186,-45 45,-45 24.85281,0 45,20.147186 45,45 z"
     sodipodi:nodetypes="ccsc" />
</svg>
