<?xml version="1.0" encoding="UTF-8" standalone="no"?>
<svg
   xmlns:dc="http://purl.org/dc/elements/1.1/"
   xmlns:cc="http://creativecommons.org/ns#"
   xmlns:rdf="http://www.w3.org/1999/02/22-rdf-syntax-ns#"
   xmlns:svg="http://www.w3.org/2000/svg"
   xmlns="http://www.w3.org/2000/svg"
   xmlns:sodipodi="http://sodipodi.sourceforge.net/DTD/sodipodi-0.dtd"
   xmlns:inkscape="http://www.inkscape.org/namespaces/inkscape"
   width="192"
   height="192"
   version="1"
   id="svg12"
   sodipodi:docname="yandex_launcher.svg"
   inkscape:version="1.0.2 (1.0.2+r75+1)">
  <metadata
     id="metadata18">
    <rdf:RDF>
      <cc:Work
         rdf:about="">
        <dc:format>image/svg+xml</dc:format>
        <dc:type
           rdf:resource="http://purl.org/dc/dcmitype/StillImage" />
        <dc:title></dc:title>
      </cc:Work>
    </rdf:RDF>
  </metadata>
  <defs
     id="defs16">
    <filter
       inkscape:collect="always"
       style="color-interpolation-filters:sRGB"
       id="filter902"
       x="-0.049543929"
       width="1.0990879"
       y="-0.046549389"
       height="1.0930988">
      <feGaussianBlur
         inkscape:collect="always"
         stdDeviation="2.8901193"
         id="feGaussianBlur904" />
    </filter>
    <filter
       inkscape:collect="always"
       style="color-interpolation-filters:sRGB"
       id="filter906"
       x="-0.049356009"
       width="1.098712"
       y="-0.046716508"
       height="1.093433">
      <feGaussianBlur
         inkscape:collect="always"
         stdDeviation="2.9004783"
         id="feGaussianBlur908" />
    </filter>
    <filter
       inkscape:collect="always"
       style="color-interpolation-filters:sRGB"
       id="filter910"
       x="-0.048"
       width="1.096"
       y="-0.048"
       height="1.096">
      <feGaussianBlur
         inkscape:collect="always"
         stdDeviation="2.12"
         id="feGaussianBlur912" />
    </filter>
    <filter
       inkscape:collect="always"
       style="color-interpolation-filters:sRGB"
       id="filter921"
       x="-0.052716384"
       width="1.1054328"
       y="-0.044058236"
       height="1.0881165">
      <feGaussianBlur
         inkscape:collect="always"
         stdDeviation="0.80773432"
         id="feGaussianBlur923" />
    </filter>
  </defs>
  <sodipodi:namedview
     pagecolor="#ffffff"
     bordercolor="#666666"
     borderopacity="1"
     objecttolerance="10"
     gridtolerance="10"
     guidetolerance="10"
     inkscape:pageopacity="0"
     inkscape:pageshadow="2"
     inkscape:window-width="1920"
     inkscape:window-height="1018"
     id="namedview14"
     showgrid="false"
     inkscape:zoom="2.67"
     inkscape:cx="111.48471"
     inkscape:cy="105.9776"
     inkscape:window-x="0"
     inkscape:window-y="30"
     inkscape:window-maximized="1"
     inkscape:current-layer="svg12"
     showguides="false"
     inkscape:document-rotation="0">
    <inkscape:grid
       type="xygrid"
       id="grid852" />
  </sodipodi:namedview>
  <path
     id="circle886"
     style="opacity:0.2;fill:#000000;fill-opacity:1;stroke:none;stroke-width:9.92428;stroke-linecap:round;stroke-linejoin:round;filter:url(#filter902)"
     d="M 115.92188,28 A 38,38 0 0 0 78,66 38,38 0 0 0 79.587891,76.867188 38,38 0 0 0 52,65 38,38 0 0 0 14,103 38,38 0 0 0 52,141 38,38 0 0 0 79.199219,129.53516 38,38 0 0 0 78,139 38,38 0 0 0 116,177 38,38 0 0 0 154,139 38,38 0 0 0 126.56836,102.5 38,38 0 0 0 154,66 38,38 0 0 0 116,28 38,38 0 0 0 115.9219,28 Z M 88.412109,92.132812 A 38,38 0 0 0 105.43164,102.5 38,38 0 0 0 88.800781,112.46484 38,38 0 0 0 90,103 38,38 0 0 0 88.412109,92.132812 Z" />
  <circle
     style="fill:#fecc00;fill-opacity:1;stroke:none;stroke-width:9.92428;stroke-linecap:round;stroke-linejoin:round"
     id="circle863"
     cx="116"
     cy="62"
     r="38" />
  <circle
     style="fill:#fecc00;fill-opacity:1;stroke:none;stroke-width:9.92428;stroke-linecap:round;stroke-linejoin:round"
     id="circle861"
     cx="52"
     cy="99"
     r="38" />
  <circle
     style="fill:#fecc00;fill-opacity:1;stroke:none;stroke-width:9.92428;stroke-linecap:round;stroke-linejoin:round"
     id="circle865"
     cx="116"
     cy="135"
     r="38" />
  <path
     id="circle893"
     style="opacity:0.2;fill:#000000;fill-opacity:1;stroke:none;stroke-width:9.92428;stroke-linecap:round;stroke-linejoin:round;filter:url(#filter906)"
     d="M 71.921875,26 A 38,38 0 0 0 34,64 38,38 0 0 0 61.431641,100.5 38,38 0 0 0 34,137 38,38 0 0 0 72,175 38,38 0 0 0 110,137 38,38 0 0 0 107.83594,124.36133 38,38 0 0 0 137,138 38,38 0 0 0 175,100 38,38 0 0 0 137,62 38,38 0 0 0 108.36523,75.019531 38,38 0 0 0 110,64 38,38 0 0 0 72,26 38,38 0 0 0 71.921875,26 Z M 100.63477,88.980469 A 38,38 0 0 0 99,100 38,38 0 0 0 101.16406,112.63867 38,38 0 0 0 82.568359,100.5 38,38 0 0 0 100.63477,88.980469 Z" />
  <path
     id="circle935"
     style="opacity:0.2;fill:#ffffff;fill-opacity:1;stroke:none;stroke-width:9.92428;stroke-linecap:round;stroke-linejoin:round"
     d="M 115.92188,24 A 38,38 0 0 0 78,62 38,38 0 0 0 78.003906,62.480469 38,38 0 0 1 115.92188,25 38,38 0 0 1 116,25 38,38 0 0 1 153.99609,62.482422 38,38 0 0 0 154,62 38,38 0 0 0 116,24 38,38 0 0 0 115.9219,24 Z M 52,61 A 38,38 0 0 0 14,99 38,38 0 0 0 14.0039,99.402344 38,38 0 0 1 52,62 38,38 0 0 1 79.587891,73.867188 38,38 0 0 1 79.199219,72.464844 38,38 0 0 0 52,61 Z M 88.412109,89.132812 A 38,38 0 0 1 89.996094,99.482422 38,38 0 0 0 90,99 38,38 0 0 0 88.800781,89.535156 38,38 0 0 1 88.412109,89.132812 Z" />
  <circle
     style="fill:#e51a1a;fill-opacity:1;stroke:none;stroke-width:9.92428;stroke-linecap:round;stroke-linejoin:round"
     id="circle855"
     cx="72"
     cy="60"
     r="38" />
  <circle
     style="fill:#e51a1a;fill-opacity:1;stroke:none;stroke-width:9.92428;stroke-linecap:round;stroke-linejoin:round"
     id="circle857"
     cx="72"
     cy="133"
     r="38" />
  <circle
     style="fill:#e51a1a;fill-opacity:1;stroke:none;stroke-width:9.92428;stroke-linecap:round;stroke-linejoin:round"
     id="circle859"
     cx="137"
     cy="96"
     r="38" />
  <circle
     style="opacity:0.2;fill:#000000;fill-opacity:1;stroke:none;stroke-width:13.8418;stroke-linecap:round;stroke-linejoin:round;filter:url(#filter910)"
     id="circle900"
     cx="96"
     cy="102"
     r="53" />
  <path
     id="circle925"
     style="opacity:0.1;fill:#ffffff;fill-opacity:1;stroke:none;stroke-width:9.92428;stroke-linecap:round;stroke-linejoin:round"
     d="M 71.921875,22 A 38,38 0 0 0 34,60 38,38 0 0 0 34.003906,60.480469 38,38 0 0 1 71.921875,23 38,38 0 0 1 72,23 38,38 0 0 1 109.99609,60.457031 38,38 0 0 0 110,60 38,38 0 0 0 72,22 38,38 0 0 0 71.921875,22 Z M 137,58 a 38,38 0 0 0 -28.22461,12.556641 38,38 0 0 1 -0.41016,1.46289 A 38,38 0 0 1 137,59 38,38 0 0 1 174.99609,96.482422 38,38 0 0 0 175,96 38,38 0 0 0 137,58 Z m -36.36523,27.980469 a 38,38 0 0 1 -0.41016,0.46289 A 38,38 0 0 0 99,96 a 38,38 0 0 0 0.0039,0.517578 38,38 0 0 1 1.63086,-10.537109 z M 59.839844,97 A 38,38 0 0 0 34,133 38,38 0 0 0 34.0039,133.49805 38,38 0 0 1 61.431641,97.5 38,38 0 0 1 59.839844,97 Z m 24.322265,0 a 38,38 0 0 1 -1.59375,0.5 38,38 0 0 1 18.595701,12.13867 38,38 0 0 1 -0.52929,-1.61914 A 38,38 0 0 0 84.162109,97 Z m 23.673831,24.36133 a 38,38 0 0 1 2.16015,12.12109 A 38,38 0 0 0 110,133 a 38,38 0 0 0 -1.63477,-11.01953 38,38 0 0 1 -0.52929,-0.61914 z" />
  <circle
     style="fill:#ff4141;fill-opacity:1;stroke:none;stroke-width:13.8418;stroke-linecap:round;stroke-linejoin:round"
     id="path853"
     cx="96"
     cy="98"
     r="53" />
  <path
     id="path919"
     style="color:#000000;font-style:normal;font-variant:normal;font-weight:normal;font-stretch:normal;font-size:medium;line-height:normal;font-family:sans-serif;font-variant-ligatures:normal;font-variant-position:normal;font-variant-caps:normal;font-variant-numeric:normal;font-variant-alternates:normal;font-variant-east-asian:normal;font-feature-settings:normal;font-variation-settings:normal;text-indent:0;text-align:start;text-decoration:none;text-decoration-line:none;text-decoration-style:solid;text-decoration-color:#000000;letter-spacing:normal;word-spacing:normal;text-transform:none;writing-mode:lr-tb;direction:ltr;text-orientation:mixed;dominant-baseline:auto;baseline-shift:baseline;text-anchor:start;white-space:normal;shape-padding:0;shape-margin:0;inline-size:0;clip-rule:nonzero;display:inline;overflow:visible;visibility:visible;opacity:0.2;isolation:auto;mix-blend-mode:normal;color-interpolation:sRGB;color-interpolation-filters:linearRGB;solid-color:#000000;solid-opacity:1;vector-effect:none;fill:#000000;fill-opacity:1;fill-rule:nonzero;stroke:none;stroke-linecap:butt;stroke-linejoin:miter;stroke-miterlimit:4;stroke-dasharray:none;stroke-dashoffset:0;stroke-opacity:1;filter:url(#filter921);color-rendering:auto;image-rendering:auto;shape-rendering:auto;text-rendering:auto;enable-background:accumulate;stop-color:#000000"
     d="M 77.742188,78 93,103.7832 V 122 h 6 V 103.79297 L 114.51562,78 h -7.00195 L 96.021484,97.105469 84.714844,78 Z" />
  <path
     id="path869"
     style="color:#000000;font-style:normal;font-variant:normal;font-weight:normal;font-stretch:normal;font-size:medium;line-height:normal;font-family:sans-serif;font-variant-ligatures:normal;font-variant-position:normal;font-variant-caps:normal;font-variant-numeric:normal;font-variant-alternates:normal;font-variant-east-asian:normal;font-feature-settings:normal;font-variation-settings:normal;text-indent:0;text-align:start;text-decoration:none;text-decoration-line:none;text-decoration-style:solid;text-decoration-color:#000000;letter-spacing:normal;word-spacing:normal;text-transform:none;writing-mode:lr-tb;direction:ltr;text-orientation:mixed;dominant-baseline:auto;baseline-shift:baseline;text-anchor:start;white-space:normal;shape-padding:0;shape-margin:0;inline-size:0;clip-rule:nonzero;display:inline;overflow:visible;visibility:visible;isolation:auto;mix-blend-mode:normal;color-interpolation:sRGB;color-interpolation-filters:linearRGB;solid-color:#000000;solid-opacity:1;vector-effect:none;fill:#ffffff;fill-opacity:1;fill-rule:nonzero;stroke:none;stroke-linecap:butt;stroke-linejoin:miter;stroke-miterlimit:4;stroke-dasharray:none;stroke-dashoffset:0;stroke-opacity:1;color-rendering:auto;image-rendering:auto;shape-rendering:auto;text-rendering:auto;enable-background:accumulate;stop-color:#000000"
     d="M 77.742188,76 93,101.7832 V 120 h 6 V 101.79297 L 114.51562,76 h -7.00195 L 96.021484,95.105469 84.714844,76 Z" />
  <path
     id="circle914"
     style="opacity:0.2;fill:#ffffff;fill-opacity:1;stroke:none;stroke-width:13.8418;stroke-linecap:round;stroke-linejoin:round"
     d="M 96,45 A 53,53 0 0 0 43,98 53,53 0 0 0 43.0039,98.498047 53,53 0 0 1 96,46 53,53 0 0 1 148.99609,98.501953 53,53 0 0 0 149,98 53,53 0 0 0 96,45 Z" />
</svg>
