<?xml version="1.0" encoding="UTF-8" standalone="no"?>
<svg
   xmlns:dc="http://purl.org/dc/elements/1.1/"
   xmlns:cc="http://creativecommons.org/ns#"
   xmlns:rdf="http://www.w3.org/1999/02/22-rdf-syntax-ns#"
   xmlns:svg="http://www.w3.org/2000/svg"
   xmlns="http://www.w3.org/2000/svg"
   xmlns:sodipodi="http://sodipodi.sourceforge.net/DTD/sodipodi-0.dtd"
   xmlns:inkscape="http://www.inkscape.org/namespaces/inkscape"
   width="192"
   height="192"
   version="1"
   id="svg12"
   sodipodi:docname="yandex_subtitles.svg"
   inkscape:version="1.0.2 (1.0.2+r75+1)">
  <metadata
     id="metadata18">
    <rdf:RDF>
      <cc:Work
         rdf:about="">
        <dc:format>image/svg+xml</dc:format>
        <dc:type
           rdf:resource="http://purl.org/dc/dcmitype/StillImage" />
        <dc:title></dc:title>
      </cc:Work>
    </rdf:RDF>
  </metadata>
  <defs
     id="defs16">
    <filter
       inkscape:collect="always"
       style="color-interpolation-filters:sRGB"
       id="filter949"
       x="-0.052584173"
       width="1.1051683"
       y="-0.044151011"
       height="1.088302">
      <feGaussianBlur
         inkscape:collect="always"
         stdDeviation="1.9500112"
         id="feGaussianBlur951" />
    </filter>
    <filter
       inkscape:collect="always"
       style="color-interpolation-filters:sRGB"
       id="filter955"
       x="-0.048"
       width="1.096"
       y="-0.048"
       height="1.096">
      <feGaussianBlur
         inkscape:collect="always"
         stdDeviation="3.2"
         id="feGaussianBlur957" />
    </filter>
  </defs>
  <sodipodi:namedview
     pagecolor="#ffffff"
     bordercolor="#666666"
     borderopacity="1"
     objecttolerance="10"
     gridtolerance="10"
     guidetolerance="10"
     inkscape:pageopacity="0"
     inkscape:pageshadow="2"
     inkscape:window-width="1920"
     inkscape:window-height="1018"
     id="namedview14"
     showgrid="false"
     inkscape:zoom="1"
     inkscape:cx="122.43883"
     inkscape:cy="77.014096"
     inkscape:window-x="0"
     inkscape:window-y="30"
     inkscape:window-maximized="1"
     inkscape:current-layer="svg12"
     showguides="false"
     inkscape:document-rotation="0">
    <inkscape:grid
       type="xygrid"
       id="grid852" />
  </sodipodi:namedview>
  <rect
     style="opacity:0.2;fill:#000000;fill-opacity:1;stroke-width:4;filter:url(#filter955)"
     width="160"
     height="160"
     x="16"
     y="20"
     rx="30"
     ry="30"
     id="rect953" />
  <rect
     style="fill:#3f3f3f;fill-opacity:1;stroke-width:4"
     width="160"
     height="160"
     x="16"
     y="16"
     rx="30"
     ry="30"
     id="rect4" />
  <path
     id="path932"
     style="fill:#000000;stroke-width:0.313676;opacity:0.2;filter:url(#filter949)"
     d="m 97.548828,46.999552 c -2.288731,0 -4.875174,1.742315 -5.820312,3.919922 -0.304869,0.702421 -2.180141,11.098911 -4.253907,23.599609 C 85.435866,86.80866 83.722316,96.81765 83.666016,96.761271 83.609706,96.704891 83.094696,87.569576 82.521484,76.458536 81.733247,61.179544 81.365815,55.787485 81.013672,54.956583 79.74609,51.965639 76.583645,50.424873 73.375,51.233927 c -1.894729,0.477753 -4.008477,2.501959 -4.492188,4.300781 -0.259416,0.964723 -0.09021,6.292081 0.728516,22.119141 0.58787,11.36429 1.03975,20.69615 1.003906,20.736328 -0.03584,0.04018 -1.659015,-4.779081 -3.607422,-10.34375 -1.948407,-5.56467 -3.826085,-10.585499 -4.171874,-11.158203 -0.958529,-1.587523 -2.714691,-2.59951 -4.839844,-2.785156 -2.742738,-0.127165 -5.02019,1.237002 -6.123047,3.322265 C 51.31763,78.489978 51,79.582984 51,80.431193 c 0,1.80489 9.352961,29.933957 14.402344,43.154297 8.361567,21.89231 19.607716,31.03321 35.908206,29.18164 7.04239,-0.79994 12.99178,-3.67445 17.90625,-8.65235 2.80371,-2.83989 5.01099,-6.08072 7.17968,-10.61328 0.13011,-0.27192 0.47967,-0.98866 0.80469,-1.65234 0.49286,-0.67592 0.66328,-1.59592 1.08594,-2.62695 2.08123,-5.08843 8.1732,-21.34193 8.41992,-22.4668 0.37939,-1.72971 -0.40202,-3.87249 -1.99219,-5.46484 -0.82735,-1.04169 -2.06054,-1.591765 -3.2539,-1.802737 0.96855,0.157066 1.93149,0.262635 2.90625,0.28711 3.74722,-0.252711 6.5645,-4.655512 5.3457,-8.353516 -0.32879,-0.997598 -1.22722,-2.241668 -2.14648,-3.068359 -1.19735,-1.04239 -2.88366,-1.289119 -4.03516,-1.607422 -2.49195,-0.687639 -6.23323,-1.675664 -10.2793,-2.708985 -14.08824,-3.597977 -14.79259,-3.680992 -17.14062,-2.015625 -1.05764,0.750141 -1.96856,2.117026 -5.06055,7.582032 -2.074187,3.666076 -3.821128,6.616455 -3.880858,6.55664 -0.05974,-0.05982 1.446411,-9.447904 3.347658,-20.861328 1.90123,-11.413428 3.45496,-21.283334 3.45117,-21.935547 -0.0188,-3.2315 -3.17795,-6.36328 -6.419922,-6.363281 z m 15.400392,48.052734 c 0.0588,-0.06913 3.99031,0.849728 8.73828,2.041016 3.52262,0.84099 6.5387,1.837384 9.49609,2.347656 -0.71943,-0.09574 -1.412,-0.07182 -1.97656,0.05078 -3.13758,0.6548 -4.09609,1.83893 -6.42187,7.92969 -2.12235,5.55799 -2.67507,6.84141 -4.34571,8.02539 -2.50143,1.77277 -5.22215,2.01814 -7.84961,0.70703 -2.80198,-1.3982 -4.28078,-4.37294 -4.04687,-7.61133 0.0263,-0.36429 0.074,-0.70295 0.16211,-1.07031 0.28553,-1.1903 1.02176,-2.69906 3.05273,-6.50781 1.69681,-3.182111 3.13262,-5.842988 3.19141,-5.912114 z" />
  <path
     id="path907"
     style="fill:#ffffff;stroke-width:0.313676"
     d="m 97.548828,43 c -2.288731,0 -4.875174,1.742315 -5.820312,3.919922 -0.304869,0.702421 -2.180141,11.098911 -4.253907,23.599609 -2.038743,12.289577 -3.752293,22.298567 -3.808593,22.242188 -0.05631,-0.05638 -0.57132,-9.191695 -1.144532,-20.302735 C 81.733247,57.179992 81.365815,51.787933 81.013672,50.957031 79.74609,47.966087 76.583645,46.425321 73.375,47.234375 c -1.894729,0.477753 -4.008478,2.501959 -4.492188,4.300781 -0.259417,0.964723 -0.09021,6.292081 0.728516,22.119141 0.58787,11.36429 1.03975,20.69615 1.003906,20.736328 -0.03584,0.04018 -1.659016,-4.779081 -3.607422,-10.34375 -1.948407,-5.56467 -3.826085,-10.585499 -4.171874,-11.158203 -0.958529,-1.587523 -2.714691,-2.59951 -4.839844,-2.785156 -2.742738,-0.127165 -5.02019,1.237002 -6.123047,3.322265 C 51.31763,74.490426 51,75.583432 51,76.431641 c 0,1.80489 9.352961,29.933959 14.402344,43.154299 8.361567,21.89231 19.607719,31.03321 35.908206,29.18164 7.04239,-0.79994 12.99178,-3.67445 17.90625,-8.65235 2.80371,-2.83989 5.01004,-6.08031 7.17873,-10.61287 0.20883,-0.43645 1.08383,-2.19107 1.29247,-2.65229 -1.01924,0.17504 -2.72623,1.59134 -3.79542,1.59134 -10.16184,0 -18.40039,-8.2366 -18.40039,-18.39844 0,-2.31549 0.43216,-4.52932 1.21289,-6.57031 0.28553,-1.1903 1.02176,-2.69906 3.05273,-6.507816 1.69681,-3.182107 3.13262,-5.842984 3.19141,-5.91211 0.0588,-0.06913 3.99031,0.849728 8.73828,2.041016 4.78745,1.142954 8.63909,2.580183 12.67969,2.681636 3.74722,-0.252711 6.5645,-4.655512 5.3457,-8.353516 -0.32879,-0.997598 -1.22706,-2.241971 -2.14632,-3.068662 -1.19735,-1.04239 -2.8838,-1.28813 -4.0353,-1.606433 -2.49195,-0.687639 -6.23325,-1.67635 -10.27932,-2.709671 -14.08824,-3.597977 -14.79259,-3.680992 -17.14062,-2.015625 -1.05764,0.750141 -1.96856,2.117026 -5.06055,7.582032 -2.074188,3.666076 -3.821128,6.616455 -3.880858,6.55664 -0.05974,-0.05982 1.446413,-9.447904 3.347658,-20.861328 1.90123,-11.413428 3.45496,-21.283334 3.45117,-21.935547 C 103.94995,46.131776 100.7908,43.000001 97.548828,43 Z"
     sodipodi:nodetypes="ssssssssssssccssssscsscssccsccsssssss" />
  <path
     id="path923"
     style="opacity:1;fill:#b3b3b3;fill-opacity:1;stroke-width:17.6636;stroke-linecap:round;stroke-linejoin:round"
     d="m 129.20703,95.492188 c -3.13758,0.654805 -4.09609,1.838935 -6.42187,7.929692 -2.12235,5.55799 -2.67507,6.84062 -4.34571,8.0246 -2.50143,1.77277 -5.22215,2.01815 -7.84961,0.70704 -2.80198,-1.3982 -4.28078,-4.37216 -4.04687,-7.61055 0.0263,-0.36429 0.074,-0.70295 0.16211,-1.07031 C 105.92435,105.51365 105,107.72748 105,110.04297 105,120.20481 113.73074,129 123.89258,129 c 3.74133,0 3.52786,-1.66318 4.39453,-3.77734 2.08123,-5.08843 8.1732,-21.34193 8.41992,-22.4668 0.37939,-1.72971 -0.40202,-3.872487 -1.99219,-5.464844 -1.39435,-1.755569 -3.94138,-2.138991 -5.50781,-1.798828 z"
     sodipodi:nodetypes="csssscsccscc" />
  <path
     id="rect959"
     style="fill:#ffffff;fill-opacity:1;stroke-width:4;opacity:0.1"
     d="M 46 16 C 29.38 16 16 29.38 16 46 L 16 47 C 16 30.38 29.38 17 46 17 L 146 17 C 162.62 17 176 30.38 176 47 L 176 46 C 176 29.38 162.62 16 146 16 L 46 16 z " />
</svg>
