<?xml version="1.0" encoding="UTF-8" standalone="no"?>
<svg
   xmlns:dc="http://purl.org/dc/elements/1.1/"
   xmlns:cc="http://creativecommons.org/ns#"
   xmlns:rdf="http://www.w3.org/1999/02/22-rdf-syntax-ns#"
   xmlns:svg="http://www.w3.org/2000/svg"
   xmlns="http://www.w3.org/2000/svg"
   xmlns:sodipodi="http://sodipodi.sourceforge.net/DTD/sodipodi-0.dtd"
   xmlns:inkscape="http://www.inkscape.org/namespaces/inkscape"
   width="192"
   height="192"
   version="1"
   id="svg12"
   sodipodi:docname="yandex_market.svg"
   inkscape:version="1.0.2 (1.0.2+r75+1)">
  <metadata
     id="metadata18">
    <rdf:RDF>
      <cc:Work
         rdf:about="">
        <dc:format>image/svg+xml</dc:format>
        <dc:type
           rdf:resource="http://purl.org/dc/dcmitype/StillImage" />
        <dc:title />
      </cc:Work>
    </rdf:RDF>
  </metadata>
  <defs
     id="defs16">
    <filter
       inkscape:collect="always"
       style="color-interpolation-filters:sRGB"
       id="filter852"
       x="-0.048"
       width="1.096"
       y="-0.048"
       height="1.096">
      <feGaussianBlur
         inkscape:collect="always"
         stdDeviation="3.2"
         id="feGaussianBlur854" />
    </filter>
    <filter
       inkscape:collect="always"
       style="color-interpolation-filters:sRGB"
       id="filter856"
       x="-0.048004916"
       width="1.0960098"
       y="-0.047995085"
       height="1.0959902">
      <feGaussianBlur
         inkscape:collect="always"
         stdDeviation="3.2003597"
         id="feGaussianBlur858" />
    </filter>
  </defs>
  <sodipodi:namedview
     pagecolor="#ffffff"
     bordercolor="#666666"
     borderopacity="1"
     objecttolerance="10"
     gridtolerance="10"
     guidetolerance="10"
     inkscape:pageopacity="0"
     inkscape:pageshadow="2"
     inkscape:window-width="1920"
     inkscape:window-height="1018"
     id="namedview14"
     showgrid="false"
     inkscape:zoom="2.86"
     inkscape:cx="144.20516"
     inkscape:cy="97.13116"
     inkscape:window-x="0"
     inkscape:window-y="30"
     inkscape:window-maximized="1"
     inkscape:current-layer="svg12"
     showguides="false"
     inkscape:document-rotation="0">
    <inkscape:grid
       type="xygrid"
       id="grid852" />
  </sodipodi:namedview>
  <circle
     style="opacity:0.2;fill:#000000;fill-opacity:1;stroke-width:15.5413;stroke-linecap:round;stroke-linejoin:round;filter:url(#filter852)"
     id="circle848"
     cx="96"
     cy="100"
     r="80" />
  <g
     id="g853"
     transform="translate(48.979036,-47.048346)" />
  <circle
     style="opacity:1;fill:#3f3f3f;stroke-width:15.5413;stroke-linecap:round;stroke-linejoin:round;fill-opacity:1"
     id="path841"
     cx="96"
     cy="96"
     r="80" />
  <path
     id="circle862"
     style="opacity:0.1;fill:#ffffff;stroke-width:15.5413;stroke-linecap:round;stroke-linejoin:round;fill-opacity:1"
     d="M 95.941406 16 A 80 80 0 0 0 16 96 A 80 80 0 0 0 16.001953 96.529297 A 80 80 0 0 1 96 17 A 80 80 0 0 1 175.99805 96.470703 A 80 80 0 0 0 176 96 A 80 80 0 0 0 96 16 A 80 80 0 0 0 95.941406 16 z " />
  <path
     id="path850"
     style="opacity:0.2;fill:#000000;fill-opacity:1;stroke-width:21.097;stroke-linecap:round;stroke-linejoin:round;filter:url(#filter856)"
     d="M 129.74805,35 105.31836,69.210938 C 91.881898,88.026837 80.888672,103.02166 80.888672,102.53125 c 0,-0.49041 1.348947,-7.565154 2.998047,-15.722656 L 86.884766,71.974609 73.582031,65.332031 C 66.265551,61.678479 59.974109,58.811518 59.599609,58.958984 59.225119,59.106457 49.401731,70.79365 37.769531,84.929688 26.345746,98.812462 17.194072,109.92901 16.695312,110.53125 a 80,80 0 0 0 12.615235,33.6582 l 4.146484,-5.51562 c 9.60131,-12.77097 17.606183,-23.06905 17.789063,-22.88672 0.18287,0.18233 -1.66153,8.44546 -4.09961,18.36328 -2.43809,9.91782 -4.343835,18.09096 -4.234375,18.16211 1.72323,1.12021 32.84776,12.90231 33.50586,12.68359 0.50495,-0.16783 10.917472,-15.25996 23.138672,-33.53906 12.221199,-18.27911 22.220449,-32.922458 22.220699,-32.539061 2.4e-4,0.383408 -2.0161,8.709401 -4.48046,18.501951 -2.46439,9.79255 -4.36481,17.90989 -4.22266,18.03711 0.14215,0.1272 6.25846,3.23826 13.5918,6.91211 L 140,149.04883 l 18,-17.8711 16.64648,-16.52929 A 80,80 0 0 0 176,100 a 80,80 0 0 0 0,-0.05859 80,80 0 0 0 -3.92578,-24.689453 l -5.63086,4.902344 c -12.44536,10.834607 -12.81999,11.123587 -12.29492,9.550781 0.74524,-2.2323 5.64795,-23.721319 8.00195,-34.693359 a 80,80 0 0 0 -8.44336,-10.416016 c -2.35326,-0.951678 -4.46465,-1.812875 -7.27734,-2.935547 z" />
  <path
     id="rect859"
     style="fill:#ffdb37;fill-opacity:1;stroke-width:21.097;stroke-linecap:round;stroke-linejoin:round"
     d="M 129.74805 31 L 105.31836 65.210938 C 91.881898 84.026837 80.888672 99.021662 80.888672 98.53125 C 80.888672 98.040839 82.237619 90.966096 83.886719 82.808594 L 86.884766 67.974609 L 73.582031 61.332031 C 66.265551 57.678479 59.974109 54.811518 59.599609 54.958984 C 59.225119 55.106457 49.401731 66.79365 37.769531 80.929688 C 26.345746 94.812462 17.194072 105.92901 16.695312 106.53125 A 80 80 0 0 0 29.310547 140.18945 L 33.457031 134.67383 C 43.058341 121.90286 51.063214 111.60478 51.246094 111.78711 C 51.428964 111.96944 49.584564 120.23257 47.146484 130.15039 C 44.708394 140.06821 42.802649 148.24135 42.912109 148.3125 C 44.635339 149.43271 75.759869 161.21481 76.417969 160.99609 C 76.922919 160.82826 87.335441 145.73613 99.556641 127.45703 C 111.77784 109.17792 121.77709 94.534572 121.77734 94.917969 C 121.77758 95.301377 119.76124 103.62737 117.29688 113.41992 C 114.83249 123.21247 112.93207 131.32981 113.07422 131.45703 C 113.21637 131.58423 119.33268 134.69529 126.66602 138.36914 L 140 145.04883 L 158 127.17773 L 174.64648 110.64844 A 80 80 0 0 0 176 96 A 80 80 0 0 0 176 95.941406 A 80 80 0 0 0 172.07422 71.251953 L 166.44336 76.154297 C 153.998 86.988904 153.62337 87.277884 154.14844 85.705078 C 154.89368 83.472778 159.79639 61.983759 162.15039 51.011719 A 80 80 0 0 0 153.70703 40.595703 C 151.35377 39.644025 149.24238 38.782828 146.42969 37.660156 L 129.74805 31 z " />
  <path
     id="path864"
     style="fill:#ffffff;fill-opacity:1;stroke-width:21.097;stroke-linecap:round;stroke-linejoin:round;opacity:0.2"
     d="M 129.74805 31 L 105.31836 65.210938 C 92.839818 82.685402 82.483724 96.844718 81.068359 98.384766 C 80.978947 98.911362 80.888672 99.438497 80.888672 99.53125 C 80.888672 100.02166 91.881897 85.026837 105.31836 66.210938 L 129.74805 32 L 146.42969 38.660156 C 149.24238 39.782828 151.35377 40.644025 153.70703 41.595703 A 80 80 0 0 1 161.98438 51.769531 C 162.03205 51.548317 162.10459 51.225191 162.15039 51.011719 A 80 80 0 0 0 153.70703 40.595703 C 151.35377 39.644025 149.24238 38.782828 146.42969 37.660156 L 129.74805 31 z M 59.599609 54.958984 C 59.225119 55.106457 49.401731 66.79365 37.769531 80.929688 C 26.345746 94.812461 17.194072 105.92901 16.695312 106.53125 A 80 80 0 0 0 16.814453 107.38672 C 17.407395 106.67001 26.410275 95.734043 37.769531 81.929688 C 49.401731 67.79365 59.225119 56.106457 59.599609 55.958984 C 59.974109 55.811518 66.265551 58.678479 73.582031 62.332031 L 86.701172 68.882812 L 86.884766 67.974609 L 73.582031 61.332031 C 66.265551 57.678479 59.974109 54.811518 59.599609 54.958984 z M 172.07422 71.251953 L 166.44336 76.154297 C 157.79333 83.684785 154.97877 86.115649 154.24023 86.373047 C 154.21686 86.451214 154.16684 86.64995 154.14844 86.705078 C 153.62337 88.277884 153.998 87.988904 166.44336 77.154297 L 172.07422 72.251953 A 80 80 0 0 1 175.99805 96.441406 A 80 80 0 0 0 176 96 A 80 80 0 0 0 176 95.941406 A 80 80 0 0 0 172.07422 71.251953 z M 121.77734 95.917969 C 121.77732 95.888152 121.6134 96.107315 121.49609 96.253906 C 120.9026 98.889762 119.27013 105.57886 117.29688 113.41992 C 114.83249 123.21247 112.93207 131.32981 113.07422 131.45703 C 113.07667 131.45922 113.20888 131.5273 113.21484 131.53125 C 113.6724 129.19887 115.28703 122.40628 117.29688 114.41992 C 119.76123 104.62737 121.77758 96.301377 121.77734 95.917969 z M 51.246094 112.78711 C 51.238098 112.77914 51.135037 112.89826 51.097656 112.92969 C 50.631783 115.48819 49.086597 122.25824 47.146484 130.15039 C 44.708394 140.06821 42.802649 148.24135 42.912109 148.3125 C 42.940161 148.33074 43.038656 148.37465 43.082031 148.39844 C 43.48777 146.34335 45.086734 139.52918 47.146484 131.15039 C 49.584564 121.23257 51.428964 112.96944 51.246094 112.78711 z " />
</svg>
