<?xml version="1.0" encoding="UTF-8" standalone="no"?>
<svg
   xmlns:dc="http://purl.org/dc/elements/1.1/"
   xmlns:cc="http://creativecommons.org/ns#"
   xmlns:rdf="http://www.w3.org/1999/02/22-rdf-syntax-ns#"
   xmlns:svg="http://www.w3.org/2000/svg"
   xmlns="http://www.w3.org/2000/svg"
   xmlns:sodipodi="http://sodipodi.sourceforge.net/DTD/sodipodi-0.dtd"
   xmlns:inkscape="http://www.inkscape.org/namespaces/inkscape"
   width="192"
   height="192"
   version="1.1"
   id="svg20"
   sodipodi:docname="yandex_radio.svg"
   inkscape:version="1.0.2 (1.0.2+r75+1)">
  <metadata
     id="metadata26">
    <rdf:RDF>
      <cc:Work
         rdf:about="">
        <dc:format>image/svg+xml</dc:format>
        <dc:type
           rdf:resource="http://purl.org/dc/dcmitype/StillImage" />
        <dc:title></dc:title>
      </cc:Work>
    </rdf:RDF>
  </metadata>
  <defs
     id="defs24">
    <filter
       inkscape:collect="always"
       style="color-interpolation-filters:sRGB"
       id="filter867"
       x="-0.047996114"
       width="1.0959922"
       y="-0.048003887"
       height="1.0960078">
      <feGaussianBlur
         inkscape:collect="always"
         stdDeviation="3.2003268"
         id="feGaussianBlur869" />
    </filter>
  </defs>
  <sodipodi:namedview
     pagecolor="#ffffff"
     bordercolor="#666666"
     borderopacity="1"
     objecttolerance="10"
     gridtolerance="10"
     guidetolerance="10"
     inkscape:pageopacity="0"
     inkscape:pageshadow="2"
     inkscape:window-width="1920"
     inkscape:window-height="1018"
     id="namedview22"
     showgrid="false"
     inkscape:zoom="1.23"
     inkscape:cx="126.78643"
     inkscape:cy="63.561202"
     inkscape:window-x="0"
     inkscape:window-y="30"
     inkscape:window-maximized="1"
     inkscape:current-layer="svg20"
     inkscape:document-rotation="0"
     inkscape:snap-bbox="false"
     inkscape:snap-bbox-midpoints="true">
    <inkscape:grid
       type="xygrid"
       id="grid849" />
  </sodipodi:namedview>
  <circle
     style="opacity:1;fill:#ff3333;fill-opacity:1;stroke-width:5.83084;stroke-linecap:round;stroke-linejoin:round"
     id="path857"
     cx="96"
     cy="123"
     r="53" />
  <path
     id="path865"
     style="opacity:0.2;fill:#000000;fill-opacity:1;stroke-width:4;filter:url(#filter867)"
     d="M 95.941406,20 A 80,80 0 0 0 16,100 80,80 0 0 0 95.400391,179.99609 51,51 0 0 1 45,129 51,51 0 0 1 96,78 51,51 0 0 1 147,129 51,51 0 0 1 96.841797,179.99219 80,80 0 0 0 176,100 80,80 0 0 0 96,20 a 80,80 0 0 0 -0.05859,0 z m -0.04883,108 A 26,26 0 0 0 70,154 a 26,26 0 0 0 26,26 26,26 0 0 0 26,-26 26,26 0 0 0 -26,-26 26,26 0 0 0 -0.107422,0 z" />
  <path
     id="circle4"
     style="fill:#ffcc01;fill-opacity:1;stroke-width:4;opacity:1"
     d="M 95.941406 16 A 80 80 0 0 0 16 96 A 80 80 0 0 0 95.400391 175.99609 A 51 51 0 0 1 45 125 A 51 51 0 0 1 96 74 A 51 51 0 0 1 147 125 A 51 51 0 0 1 96.841797 175.99219 A 80 80 0 0 0 176 96 A 80 80 0 0 0 96 16 A 80 80 0 0 0 95.941406 16 z M 95.892578 124 A 26 26 0 0 0 70 150 A 26 26 0 0 0 96 176 A 26 26 0 0 0 122 150 A 26 26 0 0 0 96 124 A 26 26 0 0 0 95.892578 124 z " />
  <path
     id="path871"
     style="fill:#ffffff;fill-opacity:1;stroke-width:4;opacity:0.2"
     d="M 95.941406 16 A 80 80 0 0 0 16 96 A 80 80 0 0 0 16.001953 96.5 A 80 80 0 0 1 95.941406 17 A 80 80 0 0 1 96 17 A 80 80 0 0 1 175.99805 96.488281 A 80 80 0 0 0 176 96 A 80 80 0 0 0 96 16 A 80 80 0 0 0 95.941406 16 z M 95.892578 124 A 26 26 0 0 0 70 150 A 26 26 0 0 0 70.005859 150.5 A 26 26 0 0 1 95.892578 125 A 26 26 0 0 1 96 125 A 26 26 0 0 1 121.99414 150.50391 A 26 26 0 0 0 122 150 A 26 26 0 0 0 96 124 A 26 26 0 0 0 95.892578 124 z M 45.003906 125.49414 A 51 51 0 0 0 45 126 A 51 51 0 0 0 79.667969 174.3125 A 80 80 0 0 0 87.388672 175.53125 A 26 26 0 0 1 86.042969 175.01758 A 51 51 0 0 1 45.003906 125.49414 z M 146.99609 125.50586 A 51 51 0 0 1 105.96094 175.01562 A 26 26 0 0 1 104.60938 175.53125 A 80 80 0 0 0 112.33398 174.31055 A 51 51 0 0 0 147 126 A 51 51 0 0 0 146.99609 125.50586 z " />
</svg>
