<?xml version="1.0" encoding="UTF-8" standalone="no"?>
<svg
   xmlns:dc="http://purl.org/dc/elements/1.1/"
   xmlns:cc="http://creativecommons.org/ns#"
   xmlns:rdf="http://www.w3.org/1999/02/22-rdf-syntax-ns#"
   xmlns:svg="http://www.w3.org/2000/svg"
   xmlns="http://www.w3.org/2000/svg"
   xmlns:sodipodi="http://sodipodi.sourceforge.net/DTD/sodipodi-0.dtd"
   xmlns:inkscape="http://www.inkscape.org/namespaces/inkscape"
   width="192"
   height="192"
   version="1"
   id="svg12"
   sodipodi:docname="yandex_food.svg"
   inkscape:version="1.0.2 (1.0.2+r75+1)">
  <metadata
     id="metadata18">
    <rdf:RDF>
      <cc:Work
         rdf:about="">
        <dc:format>image/svg+xml</dc:format>
        <dc:type
           rdf:resource="http://purl.org/dc/dcmitype/StillImage" />
        <dc:title></dc:title>
      </cc:Work>
    </rdf:RDF>
  </metadata>
  <defs
     id="defs16">
    <filter
       inkscape:collect="always"
       style="color-interpolation-filters:sRGB"
       id="filter860"
       x="-0.048"
       width="1.096"
       y="-0.048"
       height="1.096">
      <feGaussianBlur
         inkscape:collect="always"
         stdDeviation="3.2"
         id="feGaussianBlur862" />
    </filter>
    <filter
       inkscape:collect="always"
       style="color-interpolation-filters:sRGB"
       id="filter861"
       x="-0.050482758"
       width="1.1009655"
       y="-0.045750001"
       height="1.0915">
      <feGaussianBlur
         inkscape:collect="always"
         stdDeviation="2.4400001"
         id="feGaussianBlur863" />
    </filter>
  </defs>
  <sodipodi:namedview
     pagecolor="#ffffff"
     bordercolor="#666666"
     borderopacity="1"
     objecttolerance="10"
     gridtolerance="10"
     guidetolerance="10"
     inkscape:pageopacity="0"
     inkscape:pageshadow="2"
     inkscape:window-width="1920"
     inkscape:window-height="1018"
     id="namedview14"
     showgrid="false"
     inkscape:zoom="2.32"
     inkscape:cx="90.938673"
     inkscape:cy="96.19668"
     inkscape:window-x="0"
     inkscape:window-y="30"
     inkscape:window-maximized="1"
     inkscape:current-layer="svg12"
     showguides="true"
     inkscape:document-rotation="0"
     inkscape:snap-bbox="false"
     inkscape:snap-bbox-midpoints="true">
    <inkscape:grid
       type="xygrid"
       id="grid820" />
  </sodipodi:namedview>
  <rect
     style="opacity:0.2;stroke-width:4;filter:url(#filter860)"
     width="160"
     height="160"
     x="16"
     y="20"
     rx="48"
     ry="48"
     id="rect2" />
  <rect
     style="fill:#ffde31;fill-opacity:1;stroke-width:4"
     width="160"
     height="160"
     x="16"
     y="16"
     rx="48"
     ry="48"
     id="rect4" />
  <path
     inkscape:connector-curvature="0"
     style="opacity:0.2;fill:#ffffff;stroke-width:4"
     d="M 64,16 C 37.408,16 16,37.408 16,64 v 1 C 16,38.408 37.408,17 64,17 h 64 c 26.592,0 48,21.408 48,48 V 64 C 176,37.408 154.592,16 128,16 Z"
     id="path10" />
  <path
     d="M 51.163765,59.43865 C 64.389121,41.713229 88.128756,32.470982 109.83542,37.250998 c 14.22126,3.108104 27.30286,11.765761 35.14754,24.095596 8.08107,12.350249 11.28481,28.157467 7.32113,42.498026 -3.31637,13.71453 -12.57826,25.94179 -25.08465,32.55795 -11.90067,6.42167 -26.63553,7.39605 -39.223964,2.40062 -12.639972,-4.92362 -22.764581,-15.89964 -26.522483,-28.94772 -6.694462,-20.197542 5.606152,-44.703244 26.35799,-50.41682 9.313225,-2.554184 19.684067,-1.64114 28.001187,3.426094 10.29866,6.031465 17.26059,17.97171 16.36708,29.973297 -0.64679,12.555199 -10.07286,24.946779 -22.9183,26.680549 -9.97008,2.22594 -21.275308,-2.92336 -25.659869,-12.23761 -2.228065,-3.77507 -2.166662,-8.298948 -1.879054,-12.514582 0.821342,-9.878332 11.83927,-17.971607 21.429223,-14.227727 5.79149,1.744128 11.0897,10.01158 5.95568,15.048349 -3.88101,4.380169 -11.017318,1.3849 -12.219091,-3.877437 -4.35345,2.27702 -4.496894,8.431777 -1.550168,11.919317 4.363819,6.02121 14.282659,5.66218 19.211539,0.51289 8.69703,-7.662447 6.57134,-22.925902 -2.58757,-29.367881 -5.61661,-4.790172 -13.410069,-5.005688 -20.340902,-3.846663 -8.050462,2.123562 -14.765563,8.411472 -17.702432,16.156187 -2.875157,7.395748 -2.505198,15.837987 0.421196,23.161937 4.138026,9.6423 13.245686,16.95608 23.554811,18.95625 8.758657,1.4565 18.174567,0.13345 25.741907,-4.65672 9.10797,-5.56997 15.4947,-15.14077 17.47634,-25.583179 2.58754,-9.026731 0.3798,-18.70996 -3.77865,-26.906018 C 130.08403,57.181941 113.52166,47.437063 96.980023,48.257582 74.544327,48.144746 54.254551,66.670376 51.091889,88.652666 c -2.371612,13.622414 0.482599,28.199004 8.409741,39.605444 6.848688,9.79606 16.890947,17.41778 28.36026,20.94625 15.63856,5.07749 33.42241,2.78006 47.30502,-6.00089 3.183,-1.81532 5.84252,-4.33893 8.86113,-6.39059 2.40272,3.11877 5.19573,5.90878 7.845,8.81183 -11.91115,10.82184 -27.52876,17.55063 -43.6496,18.28919 C 93.775979,164.65277 79.052003,160.62126 67.120422,152.39473 53.350861,143.1011 43.226766,128.51455 39.694453,112.25609 35.238323,94.140367 39.745683,74.137927 51.163765,59.43865 Z"
     style="opacity:0.1;fill:#000000;fill-opacity:1;fill-rule:evenodd;stroke-width:1.02629;filter:url(#filter861)"
     id="path858" />
  <path
     d="M 51.163765,55.43865 C 64.389121,37.713229 88.128756,28.470982 109.83542,33.250998 c 14.22126,3.108104 27.30286,11.765761 35.14754,24.095596 8.08107,12.350249 11.28481,28.157467 7.32113,42.498028 -3.31637,13.714528 -12.57826,25.941788 -25.08465,32.557948 -11.90067,6.42167 -26.63553,7.39605 -39.223964,2.40062 -12.639972,-4.92362 -22.764581,-15.89964 -26.522483,-28.94772 -6.694462,-20.197542 5.606152,-44.703244 26.35799,-50.41682 9.313225,-2.554184 19.684067,-1.64114 28.001187,3.426094 10.29866,6.031465 17.26059,17.97171 16.36708,29.973297 -0.64679,12.555199 -10.07286,24.946779 -22.9183,26.680549 -9.97008,2.22594 -21.275308,-2.92336 -25.659869,-12.23761 -2.228065,-3.775067 -2.166662,-8.298948 -1.879054,-12.514582 0.821342,-9.878332 11.83927,-17.971607 21.429223,-14.227727 5.79149,1.744128 11.0897,10.01158 5.95568,15.048349 -3.88101,4.380169 -11.017318,1.3849 -12.219091,-3.877437 -4.35345,2.27702 -4.496894,8.431782 -1.550168,11.91932 4.363819,6.021207 14.282659,5.662177 19.211539,0.512887 8.69703,-7.662447 6.57134,-22.925902 -2.58757,-29.367881 -5.61661,-4.790172 -13.410069,-5.005688 -20.340902,-3.846663 -8.050462,2.123562 -14.765563,8.411472 -17.702432,16.156187 -2.875157,7.395748 -2.505198,15.837992 0.421196,23.161937 4.138026,9.6423 13.245686,16.95608 23.554811,18.95625 8.758657,1.4565 18.174567,0.13345 25.741907,-4.65672 9.10797,-5.56997 15.4947,-15.14077 17.47634,-25.583179 2.58754,-9.026731 0.3798,-18.70996 -3.77865,-26.906018 C 130.08403,53.181941 113.52166,43.437063 96.980023,44.257582 74.544327,44.144746 54.254551,62.670376 51.091889,84.652666 c -2.371612,13.622417 0.482599,28.199004 8.409741,39.605444 6.848688,9.79606 16.890947,17.41778 28.36026,20.94625 15.63856,5.07749 33.42241,2.78006 47.30502,-6.00089 3.183,-1.81532 5.84252,-4.33893 8.86113,-6.39059 2.40272,3.11877 5.19573,5.90878 7.845,8.81183 -11.91115,10.82184 -27.52876,17.55063 -43.6496,18.28919 C 93.775979,160.65277 79.052003,156.62126 67.120422,148.39473 53.350861,139.1011 43.226766,124.51455 39.694453,108.25609 35.238323,90.140367 39.745683,70.137927 51.163765,55.43865 Z"
     style="fill:#3f3f3f;fill-opacity:1;fill-rule:evenodd;stroke-width:1.02629"
     id="path4" />
</svg>
