<?xml version="1.0" encoding="UTF-8" standalone="no"?>
<svg
   width="192"
   height="192"
   version="1.1"
   id="svg20"
   sodipodi:docname="yandex_kinopoisk.svg"
   inkscape:version="1.1-rc (1:1.1+rc+202105232036+f4db50c7c1)"
   xmlns:inkscape="http://www.inkscape.org/namespaces/inkscape"
   xmlns:sodipodi="http://sodipodi.sourceforge.net/DTD/sodipodi-0.dtd"
   xmlns="http://www.w3.org/2000/svg"
   xmlns:svg="http://www.w3.org/2000/svg"
   xmlns:rdf="http://www.w3.org/1999/02/22-rdf-syntax-ns#"
   xmlns:cc="http://creativecommons.org/ns#"
   xmlns:dc="http://purl.org/dc/elements/1.1/">
  <metadata
     id="metadata26">
    <rdf:RDF>
      <cc:Work
         rdf:about="">
        <dc:format>image/svg+xml</dc:format>
        <dc:type
           rdf:resource="http://purl.org/dc/dcmitype/StillImage" />
      </cc:Work>
    </rdf:RDF>
  </metadata>
  <defs
     id="defs24">
    <filter
       inkscape:collect="always"
       style="color-interpolation-filters:sRGB"
       id="filter857"
       x="-0.048000001"
       width="1.096"
       y="-0.048000001"
       height="1.096">
      <feGaussianBlur
         inkscape:collect="always"
         stdDeviation="3.2"
         id="feGaussianBlur859" />
    </filter>
    <filter
       inkscape:collect="always"
       style="color-interpolation-filters:sRGB"
       id="filter1846"
       x="-0.048"
       y="-0.048"
       width="1.096"
       height="1.096">
      <feGaussianBlur
         inkscape:collect="always"
         stdDeviation="2"
         id="feGaussianBlur1848" />
    </filter>
  </defs>
  <sodipodi:namedview
     pagecolor="#ffffff"
     bordercolor="#666666"
     borderopacity="1"
     objecttolerance="10"
     gridtolerance="10"
     guidetolerance="10"
     inkscape:pageopacity="0"
     inkscape:pageshadow="2"
     inkscape:window-width="1920"
     inkscape:window-height="1019"
     id="namedview22"
     showgrid="false"
     inkscape:zoom="1.42"
     inkscape:cx="126.40845"
     inkscape:cy="56.690141"
     inkscape:window-x="0"
     inkscape:window-y="34"
     inkscape:window-maximized="1"
     inkscape:current-layer="svg20"
     inkscape:document-rotation="0"
     inkscape:snap-bbox="false"
     inkscape:snap-bbox-midpoints="true"
     inkscape:pagecheckerboard="0">
    <inkscape:grid
       type="xygrid"
       id="grid849" />
  </sodipodi:namedview>
  <circle
     id="circle2"
     r="80"
     cy="100"
     cx="96"
     style="opacity:0.2;stroke-width:4;filter:url(#filter857)" />
  <path
     id="path1782"
     style="fill:#f99500;fill-opacity:1;stroke-width:4"
     d="M 56,26.717968 A 80,80 0 0 1 165.28203,56 80,80 0 0 1 136,165.28203 Z" />
  <path
     id="circle4"
     style="fill:#ec5ace;fill-opacity:1;stroke-width:4"
     d="M 56,26.717968 A 80,80 0 0 0 26.717968,136 80,80 0 0 0 136,165.28203 Z" />
  <path
     inkscape:connector-curvature="0"
     style="opacity:0.2;fill:#ffffff;stroke-width:4"
     d="M 96,16 A 80,80 0 0 0 16,96 80,80 0 0 0 16.019531,96.472656 80,80 0 0 1 96,17 80,80 0 0 1 175.97461,96.513672 80,80 0 0 0 176,96 80,80 0 0 0 96,16 Z"
     id="path8" />
  <path
     id="path1808"
     style="opacity:0.2;fill:#000000;stroke-width:10.4385;stroke-linecap:round;stroke-linejoin:round;stop-color:#000000;filter:url(#filter1846)"
     d="M 96,48 A 50,50 0 0 0 46,98 50,50 0 0 0 96,148 50,50 0 0 0 146,98 50,50 0 0 0 96,48 Z M 84.5,62 A 12.5,12.5 0 0 1 97,74.5 12.5,12.5 0 0 1 84.5,87 12.5,12.5 0 0 1 72,74.5 12.5,12.5 0 0 1 84.5,62 Z m 34,12 A 12.5,12.5 0 0 1 131,86.5 12.5,12.5 0 0 1 118.5,99 12.5,12.5 0 0 1 106,86.5 12.5,12.5 0 0 1 118.5,74 Z M 96,91 a 7,7 0 0 1 7,7 7,7 0 0 1 -7,7 7,7 0 0 1 -7,-7 7,7 0 0 1 7,-7 z M 72.5,97 A 12.5,12.5 0 0 1 85,109.5 12.5,12.5 0 0 1 72.5,122 12.5,12.5 0 0 1 60,109.5 12.5,12.5 0 0 1 72.5,97 Z m 35,12 A 12.5,12.5 0 0 1 120,121.5 12.5,12.5 0 0 1 107.5,134 12.5,12.5 0 0 1 95,121.5 12.5,12.5 0 0 1 107.5,109 Z" />
  <path
     id="path1057"
     style="opacity:1;fill:#ffffff;stroke-width:10.4385;stroke-linecap:round;stroke-linejoin:round;stop-color:#000000"
     d="M 96 46 A 50 50 0 0 0 46 96 A 50 50 0 0 0 96 146 A 50 50 0 0 0 146 96 A 50 50 0 0 0 96 46 z M 84.5 60 A 12.5 12.5 0 0 1 97 72.5 A 12.5 12.5 0 0 1 84.5 85 A 12.5 12.5 0 0 1 72 72.5 A 12.5 12.5 0 0 1 84.5 60 z M 118.5 72 A 12.5 12.5 0 0 1 131 84.5 A 12.5 12.5 0 0 1 118.5 97 A 12.5 12.5 0 0 1 106 84.5 A 12.5 12.5 0 0 1 118.5 72 z M 96 89 A 7 7 0 0 1 103 96 A 7 7 0 0 1 96 103 A 7 7 0 0 1 89 96 A 7 7 0 0 1 96 89 z M 72.5 95 A 12.5 12.5 0 0 1 85 107.5 A 12.5 12.5 0 0 1 72.5 120 A 12.5 12.5 0 0 1 60 107.5 A 12.5 12.5 0 0 1 72.5 95 z M 107.5 107 A 12.5 12.5 0 0 1 120 119.5 A 12.5 12.5 0 0 1 107.5 132 A 12.5 12.5 0 0 1 95 119.5 A 12.5 12.5 0 0 1 107.5 107 z " />
</svg>
