<?xml version="1.0" encoding="UTF-8" standalone="no"?>
<svg
   xmlns:dc="http://purl.org/dc/elements/1.1/"
   xmlns:cc="http://creativecommons.org/ns#"
   xmlns:rdf="http://www.w3.org/1999/02/22-rdf-syntax-ns#"
   xmlns:svg="http://www.w3.org/2000/svg"
   xmlns="http://www.w3.org/2000/svg"
   xmlns:sodipodi="http://sodipodi.sourceforge.net/DTD/sodipodi-0.dtd"
   xmlns:inkscape="http://www.inkscape.org/namespaces/inkscape"
   width="192"
   height="192"
   version="1"
   id="svg12"
   sodipodi:docname="yandex_uber.svg"
   inkscape:version="1.0.2 (1.0.2+r75+1)">
  <metadata
     id="metadata18">
    <rdf:RDF>
      <cc:Work
         rdf:about="">
        <dc:format>image/svg+xml</dc:format>
        <dc:type
           rdf:resource="http://purl.org/dc/dcmitype/StillImage" />
        <dc:title></dc:title>
      </cc:Work>
    </rdf:RDF>
  </metadata>
  <defs
     id="defs16">
    <filter
       inkscape:collect="always"
       style="color-interpolation-filters:sRGB"
       id="filter841"
       x="-0.048"
       width="1.096"
       y="-0.048"
       height="1.096">
      <feGaussianBlur
         inkscape:collect="always"
         stdDeviation="3.2"
         id="feGaussianBlur843" />
    </filter>
    <filter
       inkscape:collect="always"
       style="color-interpolation-filters:sRGB"
       id="filter884"
       x="-0.032363721"
       width="1.0647274"
       y="-0.092868868"
       height="1.1857377">
      <feGaussianBlur
         inkscape:collect="always"
         stdDeviation="1.7800104"
         id="feGaussianBlur886" />
    </filter>
  </defs>
  <sodipodi:namedview
     pagecolor="#ffffff"
     bordercolor="#666666"
     borderopacity="1"
     objecttolerance="10"
     gridtolerance="10"
     guidetolerance="10"
     inkscape:pageopacity="0"
     inkscape:pageshadow="2"
     inkscape:window-width="1920"
     inkscape:window-height="1018"
     id="namedview14"
     showgrid="true"
     inkscape:zoom="2.86"
     inkscape:cx="101.84474"
     inkscape:cy="97.13116"
     inkscape:window-x="0"
     inkscape:window-y="30"
     inkscape:window-maximized="1"
     inkscape:current-layer="svg12"
     showguides="false"
     inkscape:document-rotation="0">
    <inkscape:grid
       type="xygrid"
       id="grid852" />
  </sodipodi:namedview>
  <rect
     style="opacity:0.2;fill:#000000;fill-opacity:1;stroke-width:4;filter:url(#filter841)"
     width="160"
     height="160"
     x="16"
     y="20"
     rx="20"
     ry="20"
     id="rect839" />
  <rect
     style="fill:#3f3f3f;fill-opacity:1;stroke-width:4"
     width="160"
     height="160"
     x="16"
     y="16"
     rx="20"
     ry="20"
     id="rect4" />
  <path
     id="rect845"
     style="opacity:0.1;fill:#ffffff;fill-opacity:1;stroke-width:4"
     d="M 36,16 C 24.92,16 16,24.92 16,36 v 1 C 16,25.92 24.92,17 36,17 h 120 c 11.08,0 20,8.92 20,20 v -1 c 0,-11.08 -8.92,-20 -20,-20 z" />
  <path
     id="path882"
     style="opacity:0.2;fill:#000000;stroke-width:0.14341;filter:url(#filter884)"
     d="m 30.025605,76.999384 v 26.775386 c -0.203708,4.51889 0.779083,9.21088 3.623047,12.82813 5.859932,7.88092 18.912339,8.62526 25.597656,1.41601 v 4.19922 h 6.753906 V 76.999384 h -6.994141 v 22.183594 c -0.116795,3.361282 0.44957,6.813182 -0.570312,10.076172 -1.389288,4.71549 -6.124535,8.11161 -11.017578,7.73437 -4.308793,-0.056 -8.345723,-3.05933 -9.730469,-7.14648 -0.478173,-1.26006 -0.585696,-2.59796 -0.666016,-3.94141 -0.06844,-9.63456 0.0192,-19.270723 0,-28.906246 z m 39.974609,0 v 45.212886 h 6.964844 v -4.13477 c 4.371227,4.44685 11.811237,6.0207 17.728515,4.14649 7.231037,-2.08341 12.625787,-9.29871 12.291017,-16.86133 -0.0652,-7.425632 -5.55063,-13.789791 -12.708985,-15.662104 -5.804565,-1.690178 -12.998629,-0.06823 -17.244141,4.269531 V 76.999384 Z m 74.999996,12 v 33.999996 h 7.0332 v -18.24219 c -0.10276,-2.92764 0.32673,-6.877535 3.36133,-8.742181 1.97674,-1.271853 4.37723,-0.958127 6.60547,-0.998047 v -6.017578 c -0.82933,7.42e-4 -1.65896,-6.47e-4 -2.48828,0.002 -3.18351,-0.06131 -5.94038,1.673272 -7.54492,4.429688 v -4.431688 z m -18.19727,0.0078 c -0.72784,-0.02192 -1.45649,0.0026 -2.17968,0.07422 -6.21541,0.423103 -11.94961,4.596192 -14.30469,10.363281 -2.02846,4.759525 -1.71482,10.493295 0.92187,14.958985 3.03468,5.40714 9.19743,8.62273 15.32422,8.58593 5.64035,0.19227 11.29446,-2.43169 14.67774,-6.97265 -1.59753,-1.15164 -3.19544,-2.30344 -4.79297,-3.45508 -2.25278,3.12123 -6.06729,4.97508 -9.91211,4.79688 -5.20686,0.002 -10.07694,-4.17858 -10.83399,-9.35938 h 26.28516 c 0.74325,0.13623 1.16565,0.0353 0.96094,-0.77734 0.17719,-3.99356 -0.72246,-8.108372 -3.07617,-11.392579 -2.91606,-4.254073 -7.97543,-6.668836 -13.07032,-6.822266 z m -38.228507,4.9922 c 0.349837,-0.0085 0.702861,-8.13e-4 1.054687,0.02539 5.426789,0.122253 10.272334,4.481724 11.15234,9.830076 1.16357,5.76897 -2.634793,11.92346 -8.230465,13.57812 -5.664318,1.88926 -12.395083,-1.2117 -14.628906,-6.77539 -0.982949,-2.31238 -1.167296,-4.94485 -0.619141,-7.39062 1.115387,-5.197269 6.023927,-9.140285 11.271485,-9.267576 z m 37.423827,1 c 0.33301,-0.0016 0.66613,0.0115 0.99804,0.03906 4.50724,0.236289 8.41753,3.734891 9.25586,7.960936 h -20.41797 c 0.54801,-2.25168 1.81968,-4.361859 3.70899,-5.812498 1.80252,-1.449841 4.12401,-2.176182 6.45508,-2.1875 z" />
  <path
     id="path843"
     style="fill:#ffffff;stroke-width:0.14341"
     d="m 30.025605,72.999691 v 26.775391 c -0.203708,4.518888 0.779083,9.210878 3.623047,12.828128 5.859932,7.88092 18.912339,8.62526 25.597656,1.41601 v 4.19922 h 6.753906 V 72.999691 h -6.994141 v 22.183594 c -0.116795,3.361285 0.44957,6.813185 -0.570312,10.076175 -1.389288,4.71549 -6.124535,8.11161 -11.017578,7.73437 -4.308793,-0.056 -8.345723,-3.05933 -9.730469,-7.14648 -0.478173,-1.26006 -0.585696,-2.59796 -0.666016,-3.94141 -0.06844,-9.634563 0.0192,-19.270726 0,-28.906249 z m 39.974609,0 v 45.212889 h 6.964844 v -4.13477 c 4.371227,4.44685 11.811237,6.0207 17.728515,4.14649 7.231037,-2.08341 12.625787,-9.29871 12.291017,-16.86133 -0.0652,-7.425635 -5.55063,-13.789794 -12.708985,-15.662107 -5.804565,-1.690178 -12.998629,-0.06823 -17.244141,4.269531 V 72.999691 Z m 74.999996,12 v 33.999999 h 7.0332 V 100.7575 c -0.10276,-2.927646 0.32673,-6.877538 3.36133,-8.742184 1.97674,-1.271853 4.37723,-0.958127 6.60547,-0.998047 v -6.017578 c -0.82933,7.42e-4 -1.65896,-6.47e-4 -2.48828,0.002 -3.18351,-0.06131 -5.94038,1.673272 -7.54492,4.429688 v -4.431688 z m -18.19727,0.0078 c -0.72784,-0.02192 -1.45649,0.0026 -2.17968,0.07422 -6.21541,0.423103 -11.94961,4.596192 -14.30469,10.363281 -2.02846,4.759528 -1.71482,10.493298 0.92187,14.958988 3.03468,5.40714 9.19743,8.62273 15.32422,8.58593 5.64035,0.19227 11.29446,-2.43169 14.67774,-6.97265 -1.59753,-1.15164 -3.19544,-2.30344 -4.79297,-3.45508 -2.25278,3.12123 -6.06729,4.97508 -9.91211,4.79688 -5.20686,0.002 -10.07694,-4.17858 -10.83399,-9.35938 h 26.28516 c 0.74325,0.13623 1.16565,0.0353 0.96094,-0.77734 0.17719,-3.993567 -0.72246,-8.108375 -3.07617,-11.392582 -2.91606,-4.254073 -7.97543,-6.668836 -13.07032,-6.822266 z m -38.228507,4.9922 c 0.349837,-0.0085 0.702861,-8.13e-4 1.054687,0.02539 5.426789,0.122253 10.272334,4.481724 11.15234,9.830078 1.16357,5.768971 -2.634793,11.923461 -8.230465,13.578121 -5.664318,1.88926 -12.395083,-1.2117 -14.628906,-6.77539 -0.982949,-2.31238 -1.167296,-4.94485 -0.619141,-7.390622 1.115387,-5.19727 6.023927,-9.140286 11.271485,-9.267577 z m 37.423827,1 c 0.33301,-0.0016 0.66613,0.0115 0.99804,0.03906 4.50724,0.236289 8.41753,3.734891 9.25586,7.960938 h -20.41797 c 0.54801,-2.251677 1.81968,-4.361861 3.70899,-5.8125 1.80252,-1.449841 4.12401,-2.176182 6.45508,-2.1875 z" />
</svg>
