<?xml version="1.0" encoding="UTF-8" standalone="no"?>
<svg
   xmlns:dc="http://purl.org/dc/elements/1.1/"
   xmlns:cc="http://creativecommons.org/ns#"
   xmlns:rdf="http://www.w3.org/1999/02/22-rdf-syntax-ns#"
   xmlns:svg="http://www.w3.org/2000/svg"
   xmlns="http://www.w3.org/2000/svg"
   xmlns:sodipodi="http://sodipodi.sourceforge.net/DTD/sodipodi-0.dtd"
   xmlns:inkscape="http://www.inkscape.org/namespaces/inkscape"
   width="192"
   height="192"
   version="1"
   id="svg12"
   sodipodi:docname="yandex_yango.svg"
   inkscape:version="1.0.2 (1.0.2+r75+1)">
  <metadata
     id="metadata18">
    <rdf:RDF>
      <cc:Work
         rdf:about="">
        <dc:format>image/svg+xml</dc:format>
        <dc:type
           rdf:resource="http://purl.org/dc/dcmitype/StillImage" />
        <dc:title />
      </cc:Work>
    </rdf:RDF>
  </metadata>
  <defs
     id="defs16">
    <filter
       inkscape:collect="always"
       style="color-interpolation-filters:sRGB"
       id="filter872"
       x="-0.031294847"
       width="1.0625897"
       y="-0.10295985"
       height="1.2059197">
      <feGaussianBlur
         inkscape:collect="always"
         stdDeviation="1.6302201"
         id="feGaussianBlur874" />
    </filter>
    <filter
       inkscape:collect="always"
       style="color-interpolation-filters:sRGB"
       id="filter841"
       x="-0.048"
       width="1.096"
       y="-0.048"
       height="1.096">
      <feGaussianBlur
         inkscape:collect="always"
         stdDeviation="3.2"
         id="feGaussianBlur843" />
    </filter>
  </defs>
  <sodipodi:namedview
     pagecolor="#ffffff"
     bordercolor="#666666"
     borderopacity="1"
     objecttolerance="10"
     gridtolerance="10"
     guidetolerance="10"
     inkscape:pageopacity="0"
     inkscape:pageshadow="2"
     inkscape:window-width="1920"
     inkscape:window-height="1018"
     id="namedview14"
     showgrid="true"
     inkscape:zoom="3.07"
     inkscape:cx="59.928166"
     inkscape:cy="97.13116"
     inkscape:window-x="0"
     inkscape:window-y="30"
     inkscape:window-maximized="1"
     inkscape:current-layer="svg12"
     showguides="false"
     inkscape:document-rotation="0">
    <inkscape:grid
       type="xygrid"
       id="grid852" />
  </sodipodi:namedview>
  <rect
     style="opacity:0.2;fill:#000000;fill-opacity:1;stroke-width:4;filter:url(#filter841)"
     width="160"
     height="160"
     x="16"
     y="20"
     rx="20"
     ry="20"
     id="rect839" />
  <rect
     style="fill:#ef3635;fill-opacity:1;stroke-width:4"
     width="160"
     height="160"
     x="16"
     y="16"
     rx="20"
     ry="20"
     id="rect4" />
  <path
     id="path870"
     style="opacity:0.2;fill:#000000;stroke-width:0.837135;filter:url(#filter872)"
     d="M 52.554688,80.999477 45.888672,99.831508 41.332031,87.999477 h -8.353515 l 9.197265,21.205083 -3.626953,9.79492 h 7.677734 L 60.402344,80.999477 Z m 44.53125,6 c -3.212508,0 -6.179847,1.633945 -7.085938,4.472656 v -3.472656 h -7 v 23.000003 h 7 V 99.128383 c 0,-3.35484 1.649845,-6.128906 4.615234,-6.128906 2.718274,0 3.384766,2.344216 3.384766,5.871094 v 12.128909 h 6.99414 V 95.858852 c 0.16475,-5.161293 -2.71877,-8.859375 -7.908202,-8.859375 z m 48.414062,0 c -7.61589,0 -12.5,4.583327 -12.5,12 0,7.416683 4.88411,12.000003 12.5,12.000003 7.61589,0 12.5,-4.74999 12.5,-12.000003 0,-7.333339 -4.88411,-12 -12.5,-12 z m -78.716797,0.01172 C 60.511425,87.011196 57,92.423085 57,98.999477 c 0,6.576383 3.428314,11.988283 9.449219,11.988283 1.421604,0.0833 2.759316,-0.25126 4.013672,-0.83398 1.254355,-0.58271 2.784494,-1.58189 3.537109,-2.66407 v 2.50977 h 7 V 87.999477 h -7 l 0.04102,2.509766 C 73.204775,89.343806 72.135214,88.427897 70.880859,87.84518 69.626504,87.262462 68.204805,86.927951 66.783203,87.011197 Z m 50.300777,0.0039 C 110.91731,87.015102 107,91.64075 107,98.536586 c 0,7.568614 4.49935,11.472664 10.16602,11.472664 3.41665,0 6.25065,-1.51286 7.33398,-3.61524 v 0.92383 c -0.25,3.36383 -3.16667,6.1875 -7.75,6.1875 -2.83333,0 -5.26694,-1.09337 -7.43359,-2.85938 h -0.25 v 6.47461 c 2.83334,1.42963 5.51692,2.01974 8.68359,1.85157 7.75,0 13.25,-3.86974 13.25,-12.2793 V 87.999477 h -7 v 2 c -0.74999,-1.093243 -1.75,-1.637895 -3,-2.226562 -1.25,-0.588669 -2.58269,-0.841909 -3.91602,-0.757813 z M 69.5,91.999477 c 2.886792,0 4.5,3.150785 4.5,7.175781 -0.0849,3.937492 -1.698114,6.736702 -4.5,6.824222 -2.886794,0 -4.5,-2.79922 -4.5,-6.824222 0,-4.024996 1.613206,-7.175781 4.5,-7.175781 z m 50,0 c 3.1415,0 4.5,3.098947 4.5,6.714844 0,3.529799 -1.3585,6.285159 -4.5,6.285159 -3.14153,0 -4.5,-2.66927 -4.5,-6.285159 0,-3.615897 1.35847,-6.714844 4.5,-6.714844 z m 26,0 c 3.05359,0 4.5,2.816719 4.5,6.955078 0,4.138375 -1.36606,7.044925 -4.5,7.044925 -3.05356,0 -4.5,-2.90655 -4.5,-7.044925 0,-4.138359 1.36607,-6.955078 4.5,-6.955078 z" />
  <path
     id="path862"
     style="fill:#ffffff;stroke-width:0.837135"
     d="M 52.554688,77 45.888672,95.832031 41.332031,84 H 32.978516 L 42.175781,105.20508 38.548828,115 h 7.677734 L 60.402344,77 Z m 44.53125,6 C 93.87343,83 90.906091,84.633945 90,87.472656 V 84 h -7 v 23 h 7 V 95.128906 C 90,91.774066 91.649845,89 94.615234,89 97.333508,89 98,91.344216 98,94.871094 V 107 h 6.99414 V 91.859375 C 105.15889,86.698082 102.27537,83 97.085938,83 Z M 145.5,83 c -7.61589,0 -12.5,4.583327 -12.5,12 0,7.41668 4.88411,12 12.5,12 7.61589,0 12.5,-4.74999 12.5,-12 0,-7.333339 -4.88411,-12 -12.5,-12 z M 66.783203,83.01172 C 60.511425,83.011719 57,88.423608 57,95 c 0,6.57638 3.428314,11.98828 9.449219,11.98828 1.421604,0.0833 2.759316,-0.25126 4.013672,-0.83398 1.254355,-0.58271 2.784494,-1.58189 3.537109,-2.66407 V 106 h 7 V 84 h -7 l 0.04102,2.509766 C 73.204775,85.344329 72.135214,84.42842 70.880859,83.845703 69.626504,83.262985 68.204805,82.928474 66.783203,83.01172 Z m 50.300777,0.0039 C 110.91731,83.01562 107,87.641268 107,94.537104 c 0,7.568616 4.49935,11.472666 10.16602,11.472666 3.41665,0 6.25065,-1.51287 7.33398,-3.61524 v 0.92382 c -0.25,3.36384 -3.16667,6.1875 -7.75,6.1875 -2.83333,0 -5.26694,-1.09336 -7.43359,-2.85938 h -0.25 v 6.47461 c 2.83334,1.42963 5.51692,2.01974 8.68359,1.85157 7.75,0 13.25,-3.86974 13.25,-12.2793 V 84 h -7 v 2 c -0.74999,-1.093243 -1.75,-1.637895 -3,-2.226562 -1.25,-0.588669 -2.58269,-0.841909 -3.91602,-0.757813 z M 69.5,88 C 72.386792,88 74,91.150785 74,95.175781 73.9151,99.113276 72.301886,101.91248 69.5,102 66.613206,102 65,99.200785 65,95.175781 65,91.150785 66.613206,88 69.5,88 Z m 50,0 c 3.1415,0 4.5,3.098947 4.5,6.714844 C 124,98.244642 122.6415,101 119.5,101 116.35847,101 115,98.330732 115,94.714844 115,91.098947 116.35847,88 119.5,88 Z m 26,0 c 3.05359,0 4.5,2.816719 4.5,6.955078 C 150,99.093452 148.63394,102 145.5,102 142.44644,102 141,99.093452 141,94.955078 141,90.816719 142.36607,88 145.5,88 Z" />
  <path
     id="rect845"
     style="fill:#ffffff;fill-opacity:1;stroke-width:4;opacity:0.2"
     d="M 36 16 C 24.92 16 16 24.92 16 36 L 16 37 C 16 25.92 24.92 17 36 17 L 156 17 C 167.08 17 176 25.92 176 37 L 176 36 C 176 24.92 167.08 16 156 16 L 36 16 z " />
</svg>
